<?xml version='1.0' encoding='utf-8'?>
<svg xmlns="http://www.w3.org/2000/svg" xmlns:xlink="http://www.w3.org/1999/xlink" width="672" height="408" viewBox="0 0 672 408" style="fill:none;stroke:none;fill-rule:evenodd;clip-rule:evenodd;stroke-linecap:round;stroke-linejoin:round;stroke-miterlimit:1.5;" version="1.1">
  <style class="text-font-style fontImports" data-font-family="Roboto">@import url('https://fonts.googleapis.com/css2?family=Roboto:wght@400;700&amp;display=block');</style>
  <rect x="0" y="0" width="672" height="408" fill="#252a34" stroke="none" id="programmatic_background"/>
  <g id="g-root-tf_zkold318g3wg6-stroke-fill" data-item-order="-244224" transform="translate(18, 12)">
    <g id="tf_zkold318g3wg6-fill" stroke="none" fill="#2c2c2c">
      <g>
        <path d="M 0 0L 636 0L 636 384L 0 384Z"/>
      </g>
    </g>
    <defs>
      <pattern id="crawlingPattern-00d16d21" x="0" y="0" width="12" height="12" patternUnits="userSpaceOnUse" fill="#00d16d21">
        <use href="#crawlingSymbol"/>
      </pattern>
      <symbol id="crawlingSymbol">
        <g>
          <path d="M -12.5 12.5 l 13 -13 l 6 0 l -13 13 Z M -0.5 12.5 l 13 -13 l 6 0 l -13 13 Z M 11.5 12.5 l 13 -13 l 6 0 l -13 13 Z"/>
        </g>
      </symbol>
      <pattern id="crawlingPattern-0060fb20" x="0" y="0" width="12" height="12" patternUnits="userSpaceOnUse" fill="#0060fb20">
        <use href="#crawlingSymbol"/>
      </pattern>
      <pattern id="crawlingPattern-00ff873a" x="0" y="0" width="12" height="12" patternUnits="userSpaceOnUse" fill="#00ff873a">
        <use href="#crawlingSymbol"/>
      </pattern>
      <pattern id="crawlingPattern-00b15c75" x="0" y="0" width="12" height="12" patternUnits="userSpaceOnUse" fill="#00b15c75">
        <use href="#crawlingSymbol"/>
      </pattern>
      <pattern id="crawlingPattern-0059ff37" x="0" y="0" width="12" height="12" patternUnits="userSpaceOnUse" fill="#0059ff37">
        <use href="#crawlingSymbol"/>
      </pattern>
      <pattern id="crawlingPattern-0060fba2" x="0" y="0" width="12" height="12" patternUnits="userSpaceOnUse" fill="#0060fba2">
        <use href="#crawlingSymbol"/>
      </pattern>
      <pattern id="crawlingPattern-c1c1c11a" x="0" y="0" width="12" height="12" patternUnits="userSpaceOnUse" fill="#c1c1c11a">
        <use href="#crawlingSymbol"/>
      </pattern>
      <pattern id="crawlingPattern-0000001b" x="0" y="0" width="12" height="12" patternUnits="userSpaceOnUse" fill="#0000001b">
        <use href="#crawlingSymbol"/>
      </pattern>
      <pattern id="crawlingPattern-5f5f5f1a" x="0" y="0" width="12" height="12" patternUnits="userSpaceOnUse" fill="#5f5f5f1a">
        <use href="#crawlingSymbol"/>
      </pattern>
    </defs>
  </g>
  <g id="g-root-cr_2_cr-2_hrj2g718gkqv8-stroke-fill" data-item-order="-46650" transform="translate(433.99993896484375, 133.99998474121094)">
    <g id="cr_2_cr-2_hrj2g718gkqv8-fill" stroke="none" fill="#43dd93">
      <g>
        <path d="M 10 64C 10 93.823377 34.176624 118 64 118C 93.823377 118 118 93.823377 118 64C 118 34.176624 93.823377 10 64 10C 34.176624 10 10 34.176624 10 64"/>
      </g>
    </g>
    <g id="cr_2_cr-2_hrj2g718gkqv8-stroke" fill="none" stroke-linecap="round" stroke-linejoin="round" stroke-miterlimit="4" stroke="#2c2c2c" stroke-width="2">
      <g>
        <path d="M 10 64C 10 93.823377 34.176624 118 64 118C 93.823377 118 118 93.823377 118 64C 118 34.176624 93.823377 10 64 10C 34.176624 10 10 34.176624 10 64"/>
      </g>
    </g>
  </g>
  <g id="g-root-cr_1_cr-1_8vw27b18gkrnx-stroke-fill" data-item-order="-46646" transform="translate(109.99996948242188, 134)">
    <g id="cr_1_cr-1_8vw27b18gkrnx-fill" stroke="none" fill="#4f91fc">
      <g>
        <path d="M 10 64C 10 93.823377 34.176624 118 64 118C 93.823377 118 118 93.823377 118 64C 118 34.176624 93.823377 10 64 10C 34.176624 10 10 34.176624 10 64"/>
      </g>
    </g>
    <g id="cr_1_cr-1_8vw27b18gkrnx-stroke" fill="none" stroke-linecap="round" stroke-linejoin="round" stroke-miterlimit="4" stroke="#2c2c2c" stroke-width="2">
      <g>
        <path d="M 10 64C 10 93.823377 34.176624 118 64 118C 93.823377 118 118 93.823377 118 64C 118 34.176624 93.823377 10 64 10C 34.176624 10 10 34.176624 10 64"/>
      </g>
    </g>
  </g>
  <g id="g-root-ic_ufo_v48izr18gkrgi-stroke-fill" data-item-order="-5184" transform="translate(128, 152)">
    <g id="ic_ufo_v48izr18gkrgi-fill" stroke="none" fill="#f4f4f4">
      <g>
        <path d="M 71.169998 54.220001C 70.739021 52.613091 69.087097 51.659706 67.480118 52.090443C 65.873138 52.521179 64.91951 54.172958 65.349998 55.779999L 71.709999 79.779999C 71.958755 80.847733 72.770149 81.694748 73.826225 81.98912C 74.882294 82.283501 76.014847 81.978363 76.780067 81.193268C 77.545303 80.40818 77.821335 79.268188 77.5 78.220001ZM 24.73 52C 23.131586 51.580826 21.495165 52.533169 21.07 54.130001L 14.71 78.129997C 14.388667 79.178185 14.664699 80.318176 15.429929 81.103271C 16.19516 81.888359 17.327707 82.193504 18.38378 81.899124C 19.43985 81.604752 20.25124 80.757736 20.5 79.690002L 26.860001 55.689999C 27.070423 54.918098 26.963797 54.094124 26.56382 53.401207C 26.163847 52.708294 25.503662 52.203854 24.73 52ZM 52 69.790001C 53.805183 69.622574 55.185844 68.107933 55.185844 66.294998C 55.185844 64.482071 53.805183 62.967422 52 62.800003L 41.619999 62.800003C 39.814819 62.967422 38.434151 64.482071 38.434151 66.294998C 38.434151 68.107933 39.814819 69.622574 41.619999 69.790001L 43.360001 69.790001L 43.360001 70.270004L 38.800003 76.449997C 37.656769 77.999161 37.985844 80.181778 39.535 81.325005C 41.08416 82.468231 43.266769 82.13916 44.41 80.590004L 46.900002 77.229996L 49.300003 80.620003C 50.468086 82.194016 52.69099 82.523087 54.265003 81.355003C 55.839012 80.18692 56.168083 77.964012 55.000004 76.389999L 50.5 70.239998L 50.5 69.790001ZM 52 55.360001C 52.01215 53.233887 50.740761 51.31036 48.779964 50.488297C 46.819168 49.666237 44.556145 50.107967 43.048428 51.607071C 41.54071 53.106171 41.086018 55.366623 41.896828 57.3321C 42.707642 59.297577 44.623856 60.579967 46.750004 60.580002C 48.139618 60.587982 49.475067 60.04155 50.460506 59.061745C 51.445942 58.08194 52.000023 56.749645 52 55.360001ZM 80.440002 38.5C 80.884872 38.504616 81.310562 38.319061 81.610001 37.989998C 81.915115 37.670658 82.04895 37.224564 81.970001 36.790001C 80.934891 30.76601 75.661407 26.396915 69.550003 26.500002L 22.450001 26.5C 16.327318 26.381939 11.036798 30.754585 10 36.790001C 9.921053 37.224564 10.054882 37.670658 10.36 37.989998C 10.659431 38.319061 11.085118 38.504616 11.53 38.499996L 14.92 38.5C 15.226473 38.503979 15.499686 38.694038 15.61 38.98C 15.84932 39.583565 16.11968 40.174355 16.42 40.750004C 19.098055 45.83226 24.370319 49.013535 30.115 49.013535C 35.85968 49.013535 41.131947 45.83226 43.809998 40.75C 44.110321 40.174355 44.38068 39.583565 44.620003 38.980003C 44.723045 38.688419 45.000782 38.495209 45.309998 38.499996L 46.689999 38.5C 46.999214 38.495209 47.276947 38.688419 47.379997 38.98C 47.619324 39.583565 47.889683 40.174355 48.190002 40.750004C 50.868053 45.83226 56.14032 49.013535 61.885002 49.013535C 67.629677 49.013535 72.901947 45.83226 75.580002 40.75C 75.880325 40.174355 76.150681 39.583565 76.389999 38.980003C 76.493042 38.688419 76.770775 38.495209 77.079994 38.499996ZM 30.099998 43C 27.354679 42.974945 24.748842 41.786507 22.93 39.73C 22.784166 39.490448 22.784166 39.189548 22.93 38.949997C 23.029867 38.71188 23.245205 38.541878 23.5 38.5L 36.699997 38.5C 36.999165 38.498959 37.270336 38.675812 37.389999 38.949997C 37.551052 39.185059 37.551052 39.494942 37.389999 39.73C 35.550568 41.827469 32.889702 43.021023 30.1 43ZM 61.899998 43C 59.152153 42.986397 56.541855 41.795929 54.73 39.73C 54.568947 39.494942 54.568947 39.185059 54.73 38.949997C 54.849663 38.675812 55.120834 38.498959 55.420002 38.5L 68.620003 38.5C 68.908226 38.510616 69.164825 38.68557 69.279999 38.949997C 69.441055 39.185059 69.441055 39.494942 69.279999 39.73C 67.420036 41.851517 64.721001 43.047432 61.900002 43ZM 46 10C 37.716183 9.922821 29.944408 14.000186 25.299999 20.860001C 25.182198 21.096123 25.182198 21.373877 25.299999 21.610001C 25.436529 21.846601 25.686884 21.994539 25.959999 22L 66.25 22C 66.554878 22.028484 66.848221 21.875944 66.999992 21.609999C 67.117798 21.373877 67.117798 21.096123 67 20.860001C 62.296993 13.910316 54.389534 9.82103 45.999996 10Z"/>
      </g>
    </g>
  </g>
  <g id="g-root-ic_1_18f2k9z18gm6f7-stroke-fill" data-item-order="-5184" transform="translate(452, 152)">
    <g id="ic_1_18f2k9z18gm6f7-fill" stroke="none" fill="#f4f4f4">
      <g>
        <path d="M 31.960001 16.534C 23.531166 16.533411 16.697933 23.366165 16.697933 31.795C 16.697933 40.223831 23.531166 47.056587 31.959999 47.056C 40.388 47.055412 47.219933 40.223 47.219933 31.795C 47.219933 23.366999 40.388 16.53459 31.959999 16.534ZM 10.699 31.795C 10.699401 22.63221 16.570047 14.500375 25.266975 11.615902C 33.963902 8.731428 43.530518 11.743251 49.006477 19.089722C 54.482437 26.436192 54.635777 36.464539 49.387001 43.974998L 57.097 51.688C 58.233917 52.865135 58.217655 54.736252 57.060455 55.893456C 55.903252 57.050659 54.032135 57.066917 52.855 55.93L 45.285999 48.361C 38.909828 53.489967 30.155977 54.504387 22.775822 50.969543C 15.395665 47.434696 10.69918 39.97802 10.699 31.795ZM 26.215 56.910999C 27.53237 59.528076 29.276203 61.907597 31.375002 63.952003L 31.375 79.966003C 31.375 80.794426 32.046574 81.466003 32.875 81.466003L 60.790001 81.466003C 61.618427 81.466003 62.290001 80.794426 62.290001 79.966003L 62.290001 73.488998L 64.779999 73.488998C 70.012833 73.487343 74.253998 69.244827 74.253998 64.011993L 74.253998 57.537998L 77.806 57.537998C 78.95713 57.537575 80.034241 56.970345 80.685852 56.021397C 81.337471 55.072449 81.480026 53.863483 81.067001 52.788998L 81.067001 52.785999C 80.5 51.319 79.950996 49.855 79.404999 48.403L 79.404999 48.396999C 76.735001 41.302002 74.188004 34.521999 70.555 29.296001C 68.334999 26.107 65.674004 23.424999 62.266003 21.547001C 59.789043 20.204161 57.087772 19.324747 54.294998 18.952C 56.546059 22.857428 57.72776 27.287277 57.721001 31.795C 57.726414 35.77375 56.80616 39.699207 55.033001 43.261002L 60.279999 48.505001C 63.209316 51.434319 63.209316 56.183681 60.279999 59.112999C 57.350681 62.042316 52.601318 62.042316 49.672001 59.112999L 44.730999 54.172001C 39.118305 57.367123 32.512817 58.345314 26.215 56.914001ZM 31.960001 44.194C 33.497826 44.194378 34.744686 42.947826 34.744686 41.409996C 34.744686 39.872169 33.497826 38.625618 31.959999 38.625999C 30.422707 38.626377 29.176687 39.872707 29.176687 41.409996C 29.176687 42.947292 30.422707 44.193619 31.959999 44.194ZM 30.528999 26.622999C 30.82427 26.113932 31.371565 25.804144 31.960001 25.813C 32.882866 25.813 33.631001 26.561131 33.631001 27.484001C 33.631001 28.406868 32.882866 29.154999 31.960001 29.154999C 30.303146 29.155001 28.960001 30.498146 28.960001 32.154999L 28.960001 33.451C 28.958832 34.871357 29.953886 36.097881 31.343975 36.389538C 32.734066 36.681198 34.138184 35.958046 34.708 34.656998C 37.668457 33.506542 39.622017 30.660126 39.631001 27.483999C 39.631001 23.02 35.971001 19.813 31.960001 19.813C 29.070999 19.813 26.68 21.369999 25.378 23.545C 24.528034 24.967409 24.99209 26.809534 26.414499 27.6595C 27.836908 28.509466 29.679035 28.045408 30.528999 26.622999Z"/>
      </g>
    </g>
  </g>
  <g id="g-root-tx_proposes_4g2k2v18gksg6-stroke-fill" data-item-order="0" transform="translate(362, 290)">
    <g id="tx_proposes_4g2k2v18gksg6-fill" stroke="none" fill="#dffff0">
      <g>
        <text style="font: 20px Roboto, sans-serif; white-space: pre;" font-size="20px" font-family="Roboto, sans-serif">
          <tspan x="16.04" y="34" dominant-baseline="ideographic">Proposes psychological or </tspan>
          <tspan x="21.49" y="58" dominant-baseline="ideographic">conventional phenomena</tspan>
        </text>
      </g>
    </g>
  </g>
  <g id="g-root-tx_skeptica_1q6ckrr18gkqo7-stroke-fill" data-item-order="0" transform="translate(380, 254)">
    <g id="tx_skeptica_1q6ckrr18gkqo7-fill" stroke="none" fill="#43dd93">
      <g>
        <text style="font: bold 20px Roboto, sans-serif; white-space: pre;" font-weight="bold" font-size="20px" font-family="Roboto, sans-serif">
          <tspan x="16.13" y="34" dominant-baseline="ideographic">Skeptical Explanations</tspan>
        </text>
      </g>
    </g>
  </g>
  <g id="g-root-tx_suggests_1cuw2ef18gks94-stroke-fill" data-item-order="0" transform="translate(50, 290)">
    <g id="tx_suggests_1cuw2ef18gks94-fill" stroke="none" fill="#ebf2ff">
      <g>
        <text style="font: 20px Roboto, sans-serif; white-space: pre;" font-size="20px" font-family="Roboto, sans-serif">
          <tspan x="12.6" y="34" dominant-baseline="ideographic">Suggests extraterrestrial </tspan>
          <tspan x="67.71" y="58" dominant-baseline="ideographic">involvement</tspan>
        </text>
      </g>
    </g>
  </g>
  <g id="g-root-tx_ufoencou_18fp1d318gkpvl-stroke-fill" data-item-order="0" transform="translate(92, 254)">
    <g id="tx_ufoencou_18fp1d318gkpvl-fill" stroke="none" fill="#4f91fc">
      <g>
        <text style="font: bold 20px Roboto, sans-serif; white-space: pre;" font-weight="bold" font-size="20px" font-family="Roboto, sans-serif">
          <tspan x="14.8" y="34" dominant-baseline="ideographic">UFO Encounter</tspan>
        </text>
      </g>
    </g>
  </g>
  <g id="g-root-ic_ligh_m9ugx318gnl6s-stroke-fill" data-item-order="0" transform="translate(290, 152)">
    <g id="ic_ligh_m9ugx318gnl6s-stroke" fill="none" stroke-linecap="round" stroke-linejoin="round" stroke-miterlimit="4" stroke="#f4f4f4" stroke-width="2">
      <g>
        <path d="M 43.7155 60.25L 41.78965 75.448456C 41.6017 76.932404 43.444153 77.732651 44.395 76.57795C 47.01955 73.3909 50.811699 68.769402 54.856899 63.833954M 69.831848 45.546398C 71.379852 43.654751 72.706451 42.033249 73.705299 40.812103C 74.506447 39.832748 73.809097 38.36335 72.543854 38.36335L 69.158348 38.36335M 25.079649 52.911999L 19.49548 52.911999C 18.223511 52.911999 17.52829 51.428951 18.342926 50.452148L 22.779266 45.132549M 35.112999 30.346449C 39.87685 24.636566 44.504349 19.091724 47.564949 15.428576C 48.525852 14.278646 50.384201 15.095304 50.190849 16.581249L 48.589302 28.888599M 40.897453 54.801849L 46.692249 35.308601C 46.978149 34.346951 46.257702 33.3811 45.254501 33.3811L 42.439301 33.3811C 41.771049 33.3811 41.18335 33.823151 40.9981 34.465149L 36.3946 50.412849C 36.289299 50.77795 35.77 50.772701 35.67205 50.405647L 31.4233 34.494099C 31.2481 33.8377 30.6535 33.3811 29.97415 33.3811L 26.994999 33.3811C 25.99645 33.3811 25.276749 34.338249 25.553949 35.297501L 31.17985 54.7687C 31.7362 56.694099 33.498852 58.019501 35.503002 58.019501L 36.584049 58.019501C 38.575451 58.019501 40.329998 56.710602 40.897453 54.801849ZM 55.995251 52.8979C 54.671501 52.8979 53.315948 52.649349 52.157799 52.296249C 51.212952 52.008099 50.137451 52.530552 49.935249 53.497299L 49.494553 55.60405C 49.356548 56.263451 49.675148 56.93755 50.312199 57.156551C 51.677353 57.6259 53.664398 58.020248 55.7164 58.020248C 62.197296 58.020248 65.500153 54.6562 65.500153 50.398453C 65.500153 47.324951 63.797348 44.9491 59.738503 43.285149C 56.776901 42.0355 55.727348 41.490551 55.727348 40.328049C 55.727348 39.259899 56.758598 38.467899 58.703651 38.467899C 59.83075 38.467899 60.802898 38.636799 61.608551 38.862099C 62.52655 39.118752 63.545498 38.638149 63.765404 37.710701L 64.243744 35.694248C 64.408752 34.998253 64.061646 34.273598 63.381096 34.053402C 62.162048 33.658901 60.618248 33.381851 58.743996 33.381851C 52.776852 33.381851 49.470402 36.687851 49.470402 40.843899C 49.470402 43.873749 51.5695 46.227848 55.602547 47.924351C 58.15675 48.945248 59.221001 49.66465 59.221001 50.874397C 59.221001 52.084152 58.112801 52.8979 55.995251 52.8979Z"/>
      </g>
    </g>
  </g>
  <g id="g-root-tx_determin_1q6z50n18g3wg5-stroke-fill" data-item-order="0" transform="translate(32, 50)">
    <g id="tx_determin_1q6z50n18g3wg5-fill" stroke="none" fill="#f4f4f4">
      <g>
        <text style="font: 20px Roboto, sans-serif; white-space: pre;" font-size="20px" font-family="Roboto, sans-serif">
          <tspan x="14.38" y="34" dominant-baseline="ideographic">Determine the most plausible explanation for Alan Godfrey's UFO </tspan>
          <tspan x="256.75" y="58" dominant-baseline="ideographic">encounter</tspan>
        </text>
      </g>
    </g>
  </g>
</svg>
