<?xml version='1.0' encoding='utf-8'?>
<svg xmlns="http://www.w3.org/2000/svg" xmlns:xlink="http://www.w3.org/1999/xlink" width="840" height="576" viewBox="0 0 840 576" style="fill:none;stroke:none;fill-rule:evenodd;clip-rule:evenodd;stroke-linecap:round;stroke-linejoin:round;stroke-miterlimit:1.5;" version="1.1">
  <style class="text-font-style fontImports" data-font-family="Roboto">@import url('https://fonts.googleapis.com/css2?family=Roboto:wght@400;700&amp;display=block');</style>
  <rect x="0" y="0" width="8.4E+2" height="576" fill="#252a34" stroke="none" id="programmatic_background"/>
  <g id="g-root-tf_1d2edk71cmeneu-stroke-fill" data-item-order="-443808" transform="translate(18, 12)">
    <g id="tf_1d2edk71cmeneu-fill" stroke="none" fill="#2c2c2c">
      <g>
        <path d="M 0 0L 804 0L 804 552L 0 552Z"/>
      </g>
    </g>
    <defs>
      <pattern id="crawlingPattern-ffe50099" x="0" y="0" width="12" height="12" patternUnits="userSpaceOnUse" fill="#ffe50099">
        <use href="#crawlingSymbol"/>
      </pattern>
      <symbol id="crawlingSymbol">
        <g>
          <path d="M -12.5 12.5 l 13 -13 l 6 0 l -13 13 Z M -0.5 12.5 l 13 -13 l 6 0 l -13 13 Z M 11.5 12.5 l 13 -13 l 6 0 l -13 13 Z"/>
        </g>
      </symbol>
      <pattern id="crawlingPattern-f576002d" x="0" y="0" width="12" height="12" patternUnits="userSpaceOnUse" fill="#f576002d">
        <use href="#crawlingSymbol"/>
      </pattern>
      <pattern id="crawlingPattern-f908001a" x="0" y="0" width="12" height="12" patternUnits="userSpaceOnUse" fill="#f908001a">
        <use href="#crawlingSymbol"/>
      </pattern>
      <pattern id="crawlingPattern-ec07911a" x="0" y="0" width="12" height="12" patternUnits="userSpaceOnUse" fill="#ec07911a">
        <use href="#crawlingSymbol"/>
      </pattern>
      <pattern id="crawlingPattern-0000001b" x="0" y="0" width="12" height="12" patternUnits="userSpaceOnUse" fill="#0000001b">
        <use href="#crawlingSymbol"/>
      </pattern>
      <pattern id="crawlingPattern-f17400d3" x="0" y="0" width="12" height="12" patternUnits="userSpaceOnUse" fill="#f17400d3">
        <use href="#crawlingSymbol"/>
      </pattern>
      <pattern id="crawlingPattern-ff7b003a" x="0" y="0" width="12" height="12" patternUnits="userSpaceOnUse" fill="#ff7b003a">
        <use href="#crawlingSymbol"/>
      </pattern>
      <pattern id="crawlingPattern-eb008e76" x="0" y="0" width="12" height="12" patternUnits="userSpaceOnUse" fill="#eb008e76">
        <use href="#crawlingSymbol"/>
      </pattern>
      <pattern id="crawlingPattern-ff009b38" x="0" y="0" width="12" height="12" patternUnits="userSpaceOnUse" fill="#ff009b38">
        <use href="#crawlingSymbol"/>
      </pattern>
      <pattern id="crawlingPattern-ddc700ff" x="0" y="0" width="12" height="12" patternUnits="userSpaceOnUse" fill="#ddc700ff">
        <use href="#crawlingSymbol"/>
      </pattern>
      <pattern id="crawlingPattern-ffe7003d" x="0" y="0" width="12" height="12" patternUnits="userSpaceOnUse" fill="#ffe7003d">
        <use href="#crawlingSymbol"/>
      </pattern>
      <pattern id="crawlingPattern-f9080081" x="0" y="0" width="12" height="12" patternUnits="userSpaceOnUse" fill="#f9080081">
        <use href="#crawlingSymbol"/>
      </pattern>
      <pattern id="crawlingPattern-ff0b0038" x="0" y="0" width="12" height="12" patternUnits="userSpaceOnUse" fill="#ff0b0038">
        <use href="#crawlingSymbol"/>
      </pattern>
      <pattern id="crawlingPattern-5f5f5f1a" x="0" y="0" width="12" height="12" patternUnits="userSpaceOnUse" fill="#5f5f5f1a">
        <use href="#crawlingSymbol"/>
      </pattern>
    </defs>
  </g>
  <g id="g-root-cp_0_g-0_qs6hif1cm4uff-stroke-fill" data-item-order="-344695" transform="translate(56.130859375, 272.5)">
    <g id="cp_0_g-0_qs6hif1cm4uff-stroke" fill="none" stroke-linecap="round" stroke-linejoin="round" stroke-miterlimit="4" stroke="#f4f4f4" stroke-width="2">
      <g>
        <path d="M 645.869141 51.5L 717.869141 51.5M 106 51L 262 51M 286 51L 442 51M 274 63.5L 274 93M 454 10L 454 39.5M 466 51L 622 51M 634 63.5L 634 93M 10 51L 82 51M 94 10L 94 39.5"/>
      </g>
    </g>
  </g>
  <g id="g-root-cp_1_g-1_mcczdz1cm4v7p-stroke-fill" data-item-order="-344676" transform="translate(95.13101196289062, 149)">
    <g id="cp_1_g-1_mcczdz1cm4v7p-fill" stroke="none" fill="#ffe711">
      <g>
        <path d="M 100 55C 100 66.244 94.5 77.5875 89 86L 55.816 132.848C 55.4175 133.411 54.5825 133.411 54.184 132.848L 21 86C 14.5 77 10 66.7284 10 55C 10 30.1472 30.1472 10 55 10C 79.8528 10 100 30.1472 100 55ZM 55 91C 74.8822 91 91 74.8822 91 55C 91 35.1177 74.8822 19 55 19C 35.1177 19 19 35.1177 19 55C 19 74.8822 35.1177 91 55 91Z"/>
      </g>
    </g>
    <g id="cp_1_g-1_mcczdz1cm4v7p-stroke" fill="none" stroke-linecap="round" stroke-linejoin="round" stroke-miterlimit="4" stroke="#2c2c2c" stroke-width="2">
      <g>
        <path d="M 100 55C 100 66.244 94.5 77.5875 89 86L 55.816 132.848C 55.4175 133.4106 54.5825 133.4106 54.184 132.848L 21 86C 14.5 77 10 66.7284 10 55C 10 30.1472 30.1472 10 55 10C 79.8528 10 100 30.1472 100 55ZM 55 91C 74.8822 91 91 74.8822 91 55C 91 35.1177 74.8822 19 55 19C 35.1177 19 19 35.1177 19 55C 19 74.8822 35.1177 91 55 91Z"/>
      </g>
    </g>
    <g id="cp_1_g-1_mcczdz1cm4v7p-fill" stroke="none" fill="#ffe711">
      <g>
        <path d="M 55 187C 61.6274 187 67 181.6274 67 175C 67 168.3726 61.6274 163 55 163C 48.3726 163 43 168.3726 43 175C 43 181.6274 48.3726 187 55 187ZM 55 181C 58.3137 181 61 178.3137 61 175C 61 171.6863 58.3137 169 55 169C 51.6863 169 49 171.6863 49 175C 49 178.3137 51.6863 181 55 181Z"/>
      </g>
    </g>
    <g id="cp_1_g-1_mcczdz1cm4v7p-stroke" fill="none" stroke-linecap="round" stroke-linejoin="round" stroke-miterlimit="4" stroke="#2c2c2c" stroke-width="2">
      <g>
        <path d="M 55 187C 61.6274 187 67 181.6274 67 175C 67 168.3726 61.6274 163 55 163C 48.3726 163 43 168.3726 43 175C 43 181.6274 48.3726 187 55 187ZM 55 181C 58.3137 181 61 178.3137 61 175C 61 171.6863 58.3137 169 55 169C 51.6863 169 49 171.6863 49 175C 49 178.3137 51.6863 181 55 181Z"/>
      </g>
    </g>
  </g>
  <g id="g-root-cp_2_g-2_4lpfzb1cm4uf4-stroke-fill" data-item-order="-344672" transform="translate(275.1309814453125, 302)">
    <g id="cp_2_g-2_4lpfzb1cm4uf4-fill" stroke="none" fill="#f79438">
      <g>
        <path d="M 100 142.000369C 100 130.756469 94.5 119.412869 89 111.000369L 55.816 64.152469C 55.4175 63.589769 54.5825 63.589769 54.184 64.152469L 21 111.000369C 14.5 120.000369 10 130.271969 10 142.000369C 10 166.853469 30.1472 187.000469 55 187.000469C 79.8528 187.000469 100 166.853469 100 142.000369ZM 55 106.000369C 74.8822 106.000369 91 122.118169 91 142.000369C 91 161.882669 74.8822 178.000469 55 178.000469C 35.1177 178.000469 19 161.882669 19 142.000369C 19 122.118169 35.1177 106.000369 55 106.000369Z"/>
      </g>
    </g>
    <g id="cp_2_g-2_4lpfzb1cm4uf4-stroke" fill="none" stroke-linecap="round" stroke-linejoin="round" stroke-miterlimit="4" stroke="#2c2c2c" stroke-width="2">
      <g>
        <path d="M 100 142.000369C 100 130.756469 94.5 119.412869 89 111.000369L 55.816 64.152469C 55.4175 63.589769 54.5825 63.589769 54.184 64.152469L 21 111.000369C 14.5 120.000369 10 130.271969 10 142.000369C 10 166.853269 30.1472 187.000369 55 187.000369C 79.8528 187.000369 100 166.853269 100 142.000369ZM 55 106.000369C 74.8822 106.000369 91 122.118169 91 142.000369C 91 161.882669 74.8822 178.000369 55 178.000369C 35.1177 178.000369 19 161.882669 19 142.000369C 19 122.118169 35.1177 106.000369 55 106.000369Z"/>
      </g>
    </g>
    <g id="cp_2_g-2_4lpfzb1cm4uf4-fill" stroke="none" fill="#f79438">
      <g>
        <path d="M 55 34C 61.6274 34 67 28.6274 67 22C 67 15.3726 61.6274 10 55 10C 48.3726 10 43 15.3726 43 22C 43 28.6274 48.3726 34 55 34ZM 55 28C 58.3137 28 61 25.3137 61 22C 61 18.6863 58.3137 16 55 16C 51.6863 16 49 18.6863 49 22C 49 25.3137 51.6863 28 55 28Z"/>
      </g>
    </g>
    <g id="cp_2_g-2_4lpfzb1cm4uf4-stroke" fill="none" stroke-linecap="round" stroke-linejoin="round" stroke-miterlimit="4" stroke="#2c2c2c" stroke-width="2">
      <g>
        <path d="M 55 34C 61.6274 34 67 28.6274 67 22C 67 15.3726 61.6274 10 55 10C 48.3726 10 43 15.3726 43 22C 43 28.6274 48.3726 34 55 34ZM 55 28C 58.3137 28 61 25.3137 61 22C 61 18.6863 58.3137 16 55 16C 51.6863 16 49 18.6863 49 22C 49 25.3137 51.6863 28 55 28Z"/>
      </g>
    </g>
  </g>
  <g id="g-root-cp_3_g-3_1qbzgo71cm4sn7-stroke-fill" data-item-order="-344666" transform="translate(455.1310119628906, 149)">
    <g id="cp_3_g-3_1qbzgo71cm4sn7-fill" stroke="none" fill="#fb6762">
      <g>
        <path d="M 100 55C 100 66.244 94.5 77.5875 89 86L 55.816 132.848C 55.4175 133.411 54.5825 133.411 54.184 132.848L 21 86C 14.5 77 10 66.7284 10 55C 10 30.1472 30.1472 10 55 10C 79.8528 10 100 30.1472 100 55ZM 55 91C 74.8822 91 91 74.8822 91 55C 91 35.1177 74.8822 19 55 19C 35.1177 19 19 35.1177 19 55C 19 74.8822 35.1177 91 55 91Z"/>
      </g>
    </g>
    <g id="cp_3_g-3_1qbzgo71cm4sn7-stroke" fill="none" stroke-linecap="round" stroke-linejoin="round" stroke-miterlimit="4" stroke="#2c2c2c" stroke-width="2">
      <g>
        <path d="M 100 55C 100 66.244 94.5 77.5875 89 86L 55.816 132.848C 55.4175 133.4106 54.5825 133.4106 54.184 132.848L 21 86C 14.5 77 10 66.7284 10 55C 10 30.1472 30.1472 10 55 10C 79.8528 10 100 30.1472 100 55ZM 55 91C 74.8822 91 91 74.8822 91 55C 91 35.1177 74.8822 19 55 19C 35.1177 19 19 35.1177 19 55C 19 74.8822 35.1177 91 55 91Z"/>
      </g>
    </g>
    <g id="cp_3_g-3_1qbzgo71cm4sn7-fill" stroke="none" fill="#fb6762">
      <g>
        <path d="M 55 187C 61.6274 187 67 181.6274 67 175C 67 168.3726 61.6274 163 55 163C 48.3726 163 43 168.3726 43 175C 43 181.6274 48.3726 187 55 187ZM 55 181C 58.3137 181 61 178.3137 61 175C 61 171.6863 58.3137 169 55 169C 51.6863 169 49 171.6863 49 175C 49 178.3137 51.6863 181 55 181Z"/>
      </g>
    </g>
    <g id="cp_3_g-3_1qbzgo71cm4sn7-stroke" fill="none" stroke-linecap="round" stroke-linejoin="round" stroke-miterlimit="4" stroke="#2c2c2c" stroke-width="2">
      <g>
        <path d="M 55 187C 61.6274 187 67 181.6274 67 175C 67 168.3726 61.6274 163 55 163C 48.3726 163 43 168.3726 43 175C 43 181.6274 48.3726 187 55 187ZM 55 181C 58.3137 181 61 178.3137 61 175C 61 171.6863 58.3137 169 55 169C 51.6863 169 49 171.6863 49 175C 49 178.3137 51.6863 181 55 181Z"/>
      </g>
    </g>
  </g>
  <g id="g-root-cp_4_g-4_1d0iyav1cm4u86-stroke-fill" data-item-order="-344660" transform="translate(635.1309814453125, 302)">
    <g id="cp_4_g-4_1d0iyav1cm4u86-fill" stroke="none" fill="#f366bb">
      <g>
        <path d="M 100 142.000369C 100 130.756469 94.5 119.412869 89 111.000369L 55.816 64.152469C 55.4175 63.589769 54.5825 63.589769 54.184 64.152469L 21 111.000369C 14.5 120.000369 10 130.271969 10 142.000369C 10 166.853469 30.1472 187.000469 55 187.000469C 79.8528 187.000469 100 166.853469 100 142.000369ZM 55 106.000369C 74.8822 106.000369 91 122.118169 91 142.000369C 91 161.882669 74.8822 178.000469 55 178.000469C 35.1177 178.000469 19 161.882669 19 142.000369C 19 122.118169 35.1177 106.000369 55 106.000369Z"/>
      </g>
    </g>
    <g id="cp_4_g-4_1d0iyav1cm4u86-stroke" fill="none" stroke-linecap="round" stroke-linejoin="round" stroke-miterlimit="4" stroke="#2c2c2c" stroke-width="2">
      <g>
        <path d="M 100 142.000369C 100 130.756469 94.5 119.412869 89 111.000369L 55.816 64.152469C 55.4175 63.589769 54.5825 63.589769 54.184 64.152469L 21 111.000369C 14.5 120.000369 10 130.271969 10 142.000369C 10 166.853269 30.1472 187.000369 55 187.000369C 79.8528 187.000369 100 166.853269 100 142.000369ZM 55 106.000369C 74.8822 106.000369 91 122.118169 91 142.000369C 91 161.882669 74.8822 178.000369 55 178.000369C 35.1177 178.000369 19 161.882669 19 142.000369C 19 122.118169 35.1177 106.000369 55 106.000369Z"/>
      </g>
    </g>
    <g id="cp_4_g-4_1d0iyav1cm4u86-fill" stroke="none" fill="#f366bb">
      <g>
        <path d="M 55 34C 61.6274 34 67 28.6274 67 22C 67 15.3726 61.6274 10 55 10C 48.3726 10 43 15.3726 43 22C 43 28.6274 48.3726 34 55 34ZM 55 28C 58.3137 28 61 25.3137 61 22C 61 18.6863 58.3137 16 55 16C 51.6863 16 49 18.6863 49 22C 49 25.3137 51.6863 28 55 28Z"/>
      </g>
    </g>
    <g id="cp_4_g-4_1d0iyav1cm4u86-stroke" fill="none" stroke-linecap="round" stroke-linejoin="round" stroke-miterlimit="4" stroke="#2c2c2c" stroke-width="2">
      <g>
        <path d="M 55 34C 61.6274 34 67 28.6274 67 22C 67 15.3726 61.6274 10 55 10C 48.3726 10 43 15.3726 43 22C 43 28.6274 48.3726 34 55 34ZM 55 28C 58.3137 28 61 25.3137 61 22C 61 18.6863 58.3137 16 55 16C 51.6863 16 49 18.6863 49 22C 49 25.3137 51.6863 28 55 28Z"/>
      </g>
    </g>
  </g>
  <g id="g-root-ic_pers_hyewiv1cm4v0i-stroke-fill" data-item-order="-2304" transform="translate(296.1310119628906, 410.0000305175781)">
    <g id="ic_pers_hyewiv1cm4v0i-fill" stroke="none" fill="#f79438">
      <g>
        <path d="M 33.519985 10.94C 32.691559 10.94 32.019985 11.611572 32.019985 12.439999L 32.019985 21.717993C 33.110271 21.890619 34.1409 22.330355 35.019981 22.997992L 35.019985 20.647993L 40.999981 20.647993C 41.828407 20.647993 42.499977 19.976421 42.499977 19.147995L 42.499977 12.439999C 42.499977 11.611572 41.828407 10.94 40.999981 10.94L 33.519985 10.94ZM 31.027987 24.51799C 33.137985 24.51799 34.861984 26.241989 34.861984 28.351988C 34.855396 30.466711 33.142708 32.179398 31.027987 32.185986C 28.913261 32.179398 27.200575 30.466711 27.193987 28.351988C 27.385988 26.241989 28.919987 24.51799 31.027987 24.51799ZM 50.007973 28.351988C 50.001385 26.237263 48.288696 24.524578 46.173977 24.51799C 44.05925 24.524578 42.346565 26.237263 42.339977 28.351988C 42.339977 30.459986 44.065979 32.185986 46.173977 32.185986C 48.288696 32.179398 50.001385 30.466711 50.007973 28.351988ZM 46.939976 10.94C 46.111549 10.94 45.43998 11.611572 45.43998 12.439999L 45.439976 21.683992C 46.454849 21.567448 47.482891 21.692869 48.439972 22.049992L 48.439972 20.649992L 54.417969 20.649992C 55.246399 20.649994 55.917973 19.978422 55.917973 19.149994L 55.917969 12.439999C 55.917973 11.611572 55.246399 10.94 54.417973 10.94L 46.939976 10.94ZM 23.169991 23.783991C 23.998419 23.783991 24.669991 24.455564 24.669991 25.283991C 24.669991 27.695988 23.483992 29.849987 21.873991 31.263987L 22.403992 34.869984C 23.123991 36.495983 25.20999 39.309978 28.973988 39.631981L 31.053988 43.447979C 31.450527 44.175888 32.362076 44.444519 33.089985 44.047977C 33.817894 43.651436 34.086525 42.739887 33.689983 42.011978L 32.407986 39.66198L 38.505981 39.66198L 40.465981 43.089977C 40.7248 43.568874 41.222759 43.869965 41.767078 43.876682C 42.311398 43.8834 42.816635 43.594692 43.087196 43.12233C 43.357754 42.649963 43.351166 42.068092 43.069977 41.601982L 41.95998 39.66198L 46.943977 39.66198C 46.943977 39.66198 53.653969 39.66198 53.653969 32.951984C 53.653969 32.951984 58.34597 40.45998 51.015972 47.117977C 50.731312 46.848587 50.464104 46.56134 50.215973 46.257977C 49.836117 45.793644 49.267887 45.524349 48.667973 45.524349C 48.068058 45.524349 47.499832 45.793644 47.119976 46.257977C 45.687977 48.007973 43.725979 49.165974 41.38398 49.165974C 39.039982 49.165974 37.07798 48.005974 35.645985 46.255978C 35.266129 45.791645 34.697899 45.522346 34.097984 45.522346C 33.49807 45.522346 32.929844 45.791645 32.549984 46.255978C 31.117987 48.007973 29.155987 49.165974 26.811989 49.165974C 25.41078 49.165253 24.043175 48.736828 22.891993 47.937973C 22.619301 47.652355 22.327997 47.385105 22.019991 47.137978C 21.79862 46.971954 21.585058 46.795765 21.379993 46.609978C 21.275848 46.494423 21.174486 46.376389 21.075993 46.255978C 20.949825 46.102844 20.801527 45.969376 20.635994 45.859978C 17.947994 42.835976 17.225996 38.511982 17.225996 38.511982L 14.159997 38.511982C 13.199998 38.511982 12.433998 37.745983 12.241999 36.977982L 11.857999 34.101982C 11.857999 33.527985 11.857999 32.951984 12.241999 32.569984C 12.625998 32.185986 13.201998 31.801987 13.775997 31.801987L 15.309997 31.801987C 15.309997 30.267986 16.649996 28.925987 18.185995 28.925987L 19.145994 28.925987C 19.403994 28.991987 19.685993 28.989986 19.965994 28.945986C 20.977993 28.025988 21.669992 26.681988 21.669992 25.283991C 21.669992 24.455564 22.341564 23.783991 23.169991 23.783991ZM 21.073994 50.091972C 20.694136 49.62764 20.125908 49.358345 19.525993 49.358345C 18.926081 49.358345 18.357851 49.62764 17.977995 50.091972C 16.559996 51.819973 14.413997 52.999973 12.239999 52.999973C 11.135429 52.999973 10.24 53.895401 10.24 54.999969C 10.24 56.104538 11.135429 56.999969 12.239999 56.999969C 15.005997 56.999969 17.559996 55.871971 19.513994 54.209969C 21.415993 55.863968 23.883991 56.999969 26.809988 56.999969C 29.729986 56.999969 32.195984 55.86797 34.095985 54.219971C 35.995983 55.86797 38.45998 56.999969 41.381981 56.999969C 44.301975 56.999969 46.765976 55.86797 48.665974 54.219971C 50.565975 55.86797 53.031975 56.999969 55.951969 56.999969C 57.056538 56.999969 57.951969 56.104538 57.951969 54.999969C 57.951969 53.895401 57.056538 52.999973 55.951969 52.999973C 53.607975 52.999973 51.645973 51.839973 50.213974 50.091972C 49.834118 49.62764 49.265888 49.358345 48.665974 49.358345C 48.066059 49.358345 47.497833 49.62764 47.117977 50.091972C 45.685978 51.841972 43.723976 52.999973 41.381981 52.999973C 39.037983 52.999973 37.075981 51.839973 35.643982 50.091972C 35.264126 49.62764 34.695896 49.358345 34.095985 49.358345C 33.496071 49.358345 32.927841 49.62764 32.547985 50.091972C 31.115986 51.841972 29.153986 52.999973 26.809988 52.999973C 24.467991 52.999973 22.505991 51.839973 21.073994 50.091972ZM 35.433983 36.977982C 35.337982 34.579983 33.455982 32.759987 31.027987 32.759987C 29.011986 32.759987 27.371988 34.015984 26.819988 35.813984C 27.656612 36.574135 28.749666 36.989922 29.879986 36.977982L 35.433983 36.977982ZM 46.173977 32.759987C 48.099972 32.759987 49.681973 33.903984 50.301971 35.573982C 49.429974 36.797981 47.921974 36.977982 47.131977 36.977982L 41.767979 36.977982C 41.863979 34.579983 43.745975 32.759987 46.173977 32.759987Z"/>
      </g>
    </g>
  </g>
  <g id="g-root-ic_2_mdlxk71cm7o5p-stroke-fill" data-item-order="-2304" transform="translate(656.1309814453125, 410)">
    <g id="ic_2_mdlxk71cm7o5p-fill" stroke="none" fill="#f366bb">
      <g>
        <path d="M 36 35.68C 35.536026 36.067436 34.943855 36.267204 34.340004 36.240002L 33.760002 36.239998C 33.156151 36.267204 32.56398 36.067436 32.099998 35.68C 31.514366 35.095093 30.565636 35.095093 29.980001 35.68C 29.395094 36.265636 29.395094 37.214363 29.980001 37.800003C 31.003933 38.739502 32.350643 39.2481 33.739998 39.220001L 34.32 39.220001C 35.680214 39.239105 36.996437 38.738365 38 37.82C 38.529053 37.507351 38.813889 36.903633 38.718784 36.296509C 38.62368 35.689384 38.167885 35.201679 37.568573 35.065781C 36.969261 34.929878 36.347675 35.173279 36 35.68ZM 30.66 29.52C 30.938478 29.96991 31.430885 30.242628 31.959999 30.24C 32.226608 30.242062 32.488945 30.173025 32.720001 30.040001C 33.389549 29.611801 33.616192 28.740089 33.239998 28.039999C 32.569206 26.893902 31.32749 26.20406 30.000002 26.240002C 28.646648 26.162886 27.361506 26.840086 26.660002 28.000002C 26.234741 28.712448 26.467552 29.634741 27.18 30.059999C 27.892448 30.48526 28.814741 30.252447 29.24 29.540001C 29.24 29.540001 29.4 29.26 29.959999 29.26C 30.52 29.26 30.620001 29.440001 30.66 29.52ZM 38 26.24C 36.646648 26.162886 35.361504 26.840086 34.660004 28.000002C 34.234741 28.712448 34.467552 29.634741 35.18 30.059999C 35.892448 30.48526 36.814743 30.252447 37.239998 29.540001C 37.239998 29.540001 37.400002 29.26 37.959999 29.26C 38.52 29.26 38.620003 29.459999 38.66 29.540001C 38.938477 29.98991 39.430885 30.262627 39.959999 30.26C 40.226608 30.26206 40.488945 30.193026 40.720001 30.060001C 41.389549 29.631802 41.616192 28.76009 41.239998 28.059999C 40.574364 26.906204 39.331657 26.208139 38 26.240002ZM 32 19.24L 36 19.24C 36.820679 19.240074 37.489059 18.580606 37.5 17.76C 37.500069 16.928276 36.83165 16.250944 36 16.24L 32 16.24C 31.598686 16.239964 31.214092 16.400742 30.932207 16.686388C 30.65032 16.972033 30.49465 17.358723 30.5 17.76C 30.499964 18.15601 30.658634 18.535519 30.940529 18.813652C 31.222424 19.091789 31.604027 19.245352 32 19.240002ZM 32.959999 20.24C 32.558685 20.239964 32.174095 20.400742 31.892206 20.686386C 31.610319 20.972033 31.454649 21.358723 31.460001 21.76C 31.459965 22.15601 31.618635 22.535519 31.90053 22.813654C 32.182426 23.091789 32.564026 23.245352 32.959999 23.240002L 34.959999 23.24C 35.780678 23.240074 36.449059 22.580606 36.459999 21.76C 36.460072 20.928276 35.791649 20.250942 34.959999 20.24ZM 44.380001 38C 44.482357 37.803101 44.702248 37.697231 44.919998 37.739998C 45.2631 37.803513 45.611088 37.836971 45.960003 37.84C 49.273708 37.84 51.960003 35.153709 51.960003 31.84C 54.432671 30.412403 55.957073 27.775194 55.959999 24.92C 55.960281 21.488026 53.771511 18.438232 50.52 17.34C 50.402245 17.293907 50.303558 17.209318 50.240002 17.1C 49.200569 15.147917 47.171562 13.925901 44.960003 13.92L 44.32 13.92C 44.178291 13.888667 44.059677 13.792295 44 13.66C 41.255959 11.23234 37.655991 10.001151 34 10.24C 30.389921 10.052988 26.850271 11.287916 24.139999 13.68C 24.025173 13.782374 23.873287 13.833003 23.720001 13.82C 23.467056 13.800161 23.212944 13.800161 22.959999 13.82C 20.754118 13.806643 18.718803 15.004791 17.66 16.940001C 17.596441 17.049318 17.497753 17.133907 17.380001 17.18C 14.152184 18.298798 11.990955 21.3438 12 24.76C 12.002929 27.615194 13.527328 30.252403 16 31.68C 16 34.99371 18.686291 37.68 22 37.68C 22.342262 37.676418 22.683559 37.64296 23.02 37.580002C 23.237753 37.537231 23.457642 37.643105 23.560001 37.84C 25.619581 41.866287 29.518827 44.630119 34 45.239998C 38.426636 44.645752 42.293186 41.948853 44.379997 38ZM 34 42.240002C 30.328388 41.601685 27.240501 39.125336 25.82 35.68L 25.200001 33.68C 24.989567 33.029869 24.361385 32.608322 23.68 32.66C 23.594534 32.680397 23.505466 32.680397 23.42 32.66C 22.509304 32.08709 21.969269 31.075476 22 30C 22 29.34 22.16 28.82 22.48 28.66L 22.799999 28.5C 22.973576 28.397041 23.068237 28.199829 23.040001 28L 23.040001 27.639999C 23.040001 27.219999 22.9 26.780001 22.860001 26.34C 22.846256 26.223236 22.867121 26.105007 22.92 26C 23.007833 25.890156 23.139423 25.82436 23.279999 25.82C 26.468119 25.649729 28.964544 23.012661 28.960001 19.82C 28.946501 18.329533 28.367464 16.899813 27.34 15.82C 27.247799 15.707251 27.198235 15.565639 27.200001 15.42C 27.223907 15.270834 27.311504 15.139441 27.439999 15.059999C 29.405123 13.832783 31.683489 13.200675 34 13.24C 36.271732 13.161903 38.518921 13.730637 40.480003 14.88C 40.609833 14.954725 40.69273 15.090374 40.699997 15.24C 40.723137 15.384659 40.678944 15.531965 40.579998 15.639999C 39.519981 16.750404 38.925896 18.224876 38.919998 19.76C 38.914883 22.945347 41.399769 25.579502 44.580002 25.76C 44.719296 25.769241 44.849026 25.834106 44.939999 25.939999C 45.017895 26.043858 45.060001 26.170177 45.060001 26.300001C 45.060001 26.74 44.959999 27.18 44.880001 27.6L 44.880001 27.959999C 44.840519 28.182602 44.955318 28.404001 45.16 28.5L 45.48 28.66C 45.799999 28.82 45.98 29.34 45.959999 30C 45.987896 31.064457 45.456818 32.065918 44.559998 32.639999C 44.474533 32.6604 44.385468 32.6604 44.299999 32.639999C 43.618614 32.588326 42.990433 33.009865 42.780003 33.660004L 42.16 35.66C 40.748657 39.107761 37.668564 41.591469 34 42.239998ZM 10 10M 43.799999 45.48L 43.279999 45.32C 42.886311 45.212456 42.46677 45.354942 42.220001 45.68C 41.080551 47.030087 39.633217 48.086437 38 48.760002C 37.811867 48.82983 37.687031 49.009323 37.687031 49.209999C 37.687031 49.410671 37.811867 49.590164 38 49.659996L 44.32 51.860001C 44.482582 51.921001 44.66544 51.889435 44.798164 51.777451C 44.930885 51.665466 44.992775 51.490532 44.959999 51.319996L 44.119999 45.860001C 44.088257 45.685555 43.966499 45.540966 43.799999 45.48ZM 23.639999 51.860001L 30 49.639999C 30.184376 49.561455 30.304041 49.380409 30.304041 49.18C 30.304041 48.979591 30.184376 48.798546 30 48.720001C 28.385618 48.062065 26.95723 47.018246 25.84 45.68C 25.593231 45.354942 25.173691 45.212456 24.779999 45.32L 24.26 45.48C 24.077986 45.528717 23.938814 45.675621 23.9 45.860001L 23 51.299999C 22.971584 51.47086 23.033621 51.644257 23.163973 51.758316C 23.294327 51.872375 23.474422 51.910847 23.639999 51.860001ZM 10 10M 51.880001 47.779999L 46.939999 46.380001C 46.798874 46.293465 46.621124 46.293465 46.48 46.380001C 46.357052 46.491093 46.297127 46.65588 46.32 46.82L 47.34 53.360001C 47.403694 53.705788 47.273258 54.058735 46.999996 54.279999C 46.730965 54.499691 46.365742 54.560558 46.040001 54.439999L 36.139999 51C 36.00386 50.921402 35.836136 50.921402 35.699997 51C 35.563896 51.087692 35.481178 51.238094 35.479996 51.399998L 35.48 57.099998C 35.48 57.376141 35.703857 57.599998 35.98 57.599998L 56.759998 57.599998C 57.307816 57.589359 57.749359 57.147816 57.759998 56.599998L 57.759998 55.98C 57.6497 52.305325 55.325027 49.063435 51.880001 47.779999ZM 31.860001 51.040001L 22 54.540001C 21.887608 54.560665 21.772392 54.560665 21.66 54.540001C 21.434708 54.537155 21.216696 54.459797 21.040001 54.32C 20.766739 54.098736 20.636303 53.745789 20.700001 53.399998L 21.720001 46.860001C 21.74287 46.695881 21.682949 46.531094 21.560001 46.419998C 21.418877 46.333466 21.241123 46.333466 21.099998 46.419998L 16 47.799999C 12.532567 49.118923 10.229681 52.430313 10.2 56.139999L 10.2 56.759998C 10.21064 57.307816 10.652184 57.749359 11.2 57.759998L 32 57.759998C 32.276142 57.759998 32.5 57.536144 32.5 57.259998L 32.5 51.5C 32.495667 51.341358 32.416283 51.194191 32.286083 51.103447C 32.155884 51.012703 31.990337 50.989155 31.84 51.040001Z"/>
      </g>
    </g>
  </g>
  <g id="g-root-ic_ball_1q9hkbr1cmaf42-stroke-fill" data-item-order="-2304" transform="translate(116.1309814453125, 170)">
    <g id="ic_ball_1q9hkbr1cmaf42-fill" stroke="none" fill="#ffe711">
      <g>
        <path d="M 47.459999 12.38L 25.040001 12.38C 21.726477 12.383077 18.610374 13.955967 16.639999 16.620001C 16.515049 16.7866 16.299921 16.858311 16.1 16.799999L 13.46 16C 12.711211 15.686241 11.854982 15.76886 11.18 16.220001C 10.50236 16.666309 10.078733 17.409513 10.04 18.219999L 10.04 27.4C 10.038461 28.202492 10.42225 28.95694 11.071768 29.428236C 11.721286 29.899532 12.557568 30.03038 13.32 29.780001L 16.1 28.98C 16.299921 28.92169 16.515049 28.993399 16.639999 29.16C 18.612484 31.818998 21.729267 33.384811 25.039999 33.379997L 27.559999 33.379997C 27.776793 33.377277 27.970638 33.514584 28.040001 33.720001L 29.4 37.84C 29.832651 39.045784 30.978968 39.847401 32.260002 39.84L 39.82 39.84C 41.095596 39.844917 42.23481 39.042656 42.66 37.84L 44 33.720001C 44.074364 33.518364 44.26511 33.383255 44.48 33.379997L 47.439999 33.379997C 53.238991 33.380001 57.940002 28.678989 57.940002 22.880001C 57.940002 17.081011 53.238991 12.38 47.440002 12.38ZM 39.700001 34L 39.200001 35.5C 39.133041 35.698509 38.949421 35.834229 38.739998 35.84L 33.34 35.84C 33.123207 35.84272 32.929359 35.705414 32.860001 35.5L 32.360001 34C 32.292 33.861214 32.292 33.698784 32.360001 33.559998C 32.444969 33.421013 32.597115 33.337334 32.760002 33.34L 39.16 33.34C 39.318642 33.34433 39.465809 33.423721 39.556553 33.553917C 39.647297 33.684116 39.670845 33.849663 39.620003 34ZM 30.26 44.119999C 28.720438 41.623703 25.992851 40.108376 23.060001 40.120003C 19.264427 40.143646 15.939952 42.669598 14.9 46.32C 13.80662 46.625278 12.808733 47.203362 12 47.999996C 10.745429 49.212723 10.0257 50.875298 10 52.619999C 10 54.276855 11.343145 55.620003 13 55.620003L 36 55.619999C 37.656853 55.620003 39 54.276855 39 52.620003C 38.995377 50.325188 38.065235 48.129269 36.420124 46.529335C 34.775013 44.929398 32.554054 44.060741 30.26 44.119999ZM 34.68 51.400002C 34.581402 51.534161 34.42643 51.615337 34.260002 51.620003L 15.12 51.619999C 14.93506 51.624237 14.76722 51.512344 14.7 51.34C 14.589987 51.191486 14.589987 50.98851 14.7 50.84C 15.163847 50.369907 15.799666 50.109798 16.460001 50.120003L 16.74 50.119999C 17.691738 50.007561 18.429951 49.235794 18.5 48.279999C 18.670027 46.200096 20.253611 44.513046 22.318611 44.211903C 24.38361 43.910755 26.383049 45.075279 27.139999 47.02C 27.472816 47.877556 28.34766 48.397511 29.26 48.279999L 29.459999 48.279999C 29.788036 48.206181 30.123842 48.1726 30.459999 48.18C 32.288063 48.177174 33.934479 49.285336 34.619999 50.98C 34.707222 51.101868 34.72961 51.258583 34.68 51.400002Z"/>
      </g>
    </g>
  </g>
  <g id="g-root-ic_para_18egpbb1cmda8d-stroke-fill" data-item-order="-2304" transform="translate(476.1310119628906, 170)">
    <g id="ic_para_18egpbb1cmda8d-fill" stroke="none" fill="#fb6762">
      <g>
        <path d="M 17.293995 13.827997C 17.830538 14.793912 17.482157 16.011898 16.515995 16.547995C 15.051997 17.361996 14.145997 18.613995 14.145997 19.799994C 14.145997 19.867994 14.145997 19.937994 14.149998 20.005993C 14.640092 19.742237 15.187442 19.602823 15.743997 19.599995C 16.795996 19.599995 17.677996 20.105993 18.259995 20.685993C 18.839994 21.265993 19.343994 22.149992 19.343994 23.199991C 19.343994 24.251991 18.839994 25.133989 18.257996 25.713989C 17.677996 26.293989 16.795996 26.799988 15.743997 26.799988C 15.517997 26.799988 15.295997 26.775988 15.085997 26.733988C 13.305998 26.441988 12.037999 25.373989 11.259999 24.085991C 10.448 22.745993 10.146 21.159992 10.146 19.799994C 10.146 16.585995 12.437999 14.237997 14.573997 13.051998C 15.539385 12.515135 16.757202 12.862571 17.293995 13.827997ZM 33.461983 15.199996C 33.461983 14.095428 34.357414 13.199998 35.461983 13.199998L 55.85397 13.199998C 56.958538 13.199998 57.85397 14.095428 57.85397 15.199996C 57.85397 16.304565 56.958538 17.199995 55.85397 17.199995L 35.461983 17.199995C 34.357414 17.199995 33.461983 16.304565 33.461983 15.199996ZM 33.461983 24.79999C 33.461983 23.695421 34.357414 22.799992 35.461983 22.799992L 55.85397 22.799992C 56.958538 22.799992 57.85397 23.695421 57.85397 24.79999C 57.85397 25.90456 56.958538 26.799988 55.85397 26.799988L 35.461983 26.799988C 34.357414 26.799988 33.461983 25.90456 33.461983 24.79999ZM 15.253997 32.199986C 14.149427 32.199986 13.253998 33.095417 13.253998 34.199986C 13.253998 35.304554 14.149427 36.199982 15.253997 36.199982L 55.85397 36.199982C 56.958538 36.199982 57.85397 35.304554 57.85397 34.199986C 57.85397 33.095417 56.958538 32.199986 55.85397 32.199986L 15.253997 32.199986ZM 13.253998 43.799976C 13.253998 42.695408 14.149427 41.79998 15.253997 41.79998L 55.85397 41.79998C 56.958538 41.79998 57.85397 42.695408 57.85397 43.799976C 57.85397 44.904545 56.958538 45.799976 55.85397 45.799976L 15.253997 45.799976C 14.149427 45.799976 13.253998 44.904545 13.253998 43.799976ZM 15.253997 51.199974C 14.149427 51.199974 13.253998 52.095406 13.253998 53.199974C 13.253998 54.304539 14.149427 55.19997 15.253997 55.19997L 55.85397 55.19997C 56.958538 55.19997 57.85397 54.304539 57.85397 53.199974C 57.85397 52.095406 56.958538 51.199974 55.85397 51.199974L 15.253997 51.199974ZM 27.147989 26.799988C 27.066608 26.802908 26.985126 26.800905 26.903988 26.793989C 24.855989 26.635988 23.42399 25.491989 22.571991 24.085991C 21.761992 22.745993 21.457993 21.161993 21.457993 19.799994C 21.457993 16.585995 23.751991 14.237997 25.887989 13.051998C 26.514387 12.679405 27.293879 12.677062 27.922506 13.045883C 28.551132 13.414703 28.929356 14.096288 28.909693 14.824858C 28.890032 15.553427 28.475594 16.213619 27.827988 16.547995C 26.365988 17.361996 25.45999 18.613995 25.45999 19.799994C 25.45999 19.905994 25.463989 20.011993 25.46999 20.117994C 25.971991 19.811995 26.581989 19.599995 27.259989 19.599995C 28.309988 19.599995 29.193987 20.105993 29.773987 20.685993C 30.353987 21.265993 30.859987 22.149992 30.859987 23.199991C 30.859987 24.251991 30.353987 25.133989 29.773987 25.713989C 29.193987 26.293989 28.309988 26.799988 27.259989 26.799988L 27.149988 26.799988ZM 27.527988 22.855991Z"/>
      </g>
    </g>
  </g>
  <g id="g-root-tx_thegreat_zpox0n1cm4snd-stroke-fill" data-item-order="0" transform="translate(170, 50)">
    <g id="tx_thegreat_zpox0n1cm4snd-fill" stroke="none" fill="#f4f4f4">
      <g>
        <text style="font: 20px Roboto, sans-serif; white-space: pre;" font-size="20px" font-family="Roboto, sans-serif">
          <tspan x="15.48" y="34" dominant-baseline="ideographic">The Great Airship Wave: Unraveling the 1897 Mystery</tspan>
        </text>
      </g>
    </g>
  </g>
  <g id="g-root-tx_april231_1qbczl31cm7mkr-stroke-fill" data-item-order="0" transform="translate(272, 134)">
    <g id="tx_april231_1qbczl31cm7mkr-fill" stroke="none" fill="#f79438">
      <g>
        <text style="font: bold 20px Roboto, sans-serif; white-space: pre;" font-weight="bold" font-size="20px" font-family="Roboto, sans-serif">
          <tspan x="13" y="34" dominant-baseline="ideographic">April 23, 1897</tspan>
        </text>
      </g>
    </g>
  </g>
  <g id="g-root-tx_alexande_1czwh7r1cm7o5o-stroke-fill" data-item-order="0" transform="translate(248, 170)">
    <g id="tx_alexande_1czwh7r1cm7o5o-fill" stroke="none" fill="#fff0e2">
      <g>
        <text style="font: 15px Roboto, sans-serif; white-space: pre;" font-size="15px" font-family="Roboto, sans-serif">
          <tspan x="15.92" y="31" dominant-baseline="ideographic">Alexander Hamilton's </tspan>
          <tspan x="28.22" y="49" dominant-baseline="ideographic">airship encounter </tspan>
          <tspan x="53.72" y="67" dominant-baseline="ideographic">published</tspan>
        </text>
      </g>
    </g>
  </g>
  <g id="g-root-tx_1976_8x5mhz1cmah3i-stroke-fill" data-item-order="0" transform="translate(704, 158)">
    <g id="tx_1976_8x5mhz1cmah3i-fill" stroke="none" fill="#f366bb">
      <g>
        <text style="font: bold 20px Roboto, sans-serif; white-space: pre;" font-weight="bold" font-size="20px" font-family="Roboto, sans-serif">
          <tspan x="17.05" y="34" dominant-baseline="ideographic">1976</tspan>
        </text>
      </g>
    </g>
  </g>
  <g id="g-root-tx_evidence_1q7m52f1cmag3r-stroke-fill" data-item-order="0" transform="translate(596, 194)">
    <g id="tx_evidence_1q7m52f1cmag3r-fill" stroke="none" fill="#ffe8f6">
      <g>
        <text style="font: 15px Roboto, sans-serif; white-space: pre;" font-size="15px" font-family="Roboto, sans-serif">
          <tspan x="16.69" y="28" dominant-baseline="ideographic">Evidence of Hamilton's </tspan>
          <tspan x="42.31" y="46" dominant-baseline="ideographic">boast emerges</tspan>
        </text>
      </g>
    </g>
  </g>
  <g id="g-root-tx_november_v5i3af1cmagw0-stroke-fill" data-item-order="0" transform="translate(68, 398)">
    <g id="tx_november_v5i3af1cmagw0-fill" stroke="none" fill="#ffe711">
      <g>
        <text style="font: bold 20px Roboto, sans-serif; white-space: pre;" font-weight="bold" font-size="20px" font-family="Roboto, sans-serif">
          <tspan x="16.19" y="34" dominant-baseline="ideographic">November 1896</tspan>
        </text>
      </g>
    </g>
  </g>
  <g id="g-root-tx_airships_8z11rb1cmag3t-stroke-fill" data-item-order="0" transform="translate(56, 434)">
    <g id="tx_airships_8z11rb1cmag3t-fill" stroke="none" fill="#fffbd5">
      <g>
        <text style="font: 15px Roboto, sans-serif; white-space: pre;" font-size="15px" font-family="Roboto, sans-serif">
          <tspan x="16.21" y="28" dominant-baseline="ideographic">Airship sightings begin </tspan>
          <tspan x="52.23" y="46" dominant-baseline="ideographic">in California</tspan>
        </text>
      </g>
    </g>
  </g>
  <g id="g-root-tx_1943_dl3aqv1cmbua3-stroke-fill" data-item-order="0" transform="translate(524, 398)">
    <g id="tx_1943_dl3aqv1cmbua3-fill" stroke="none" fill="#fb6762">
      <g>
        <text style="font: bold 20px Roboto, sans-serif; white-space: pre;" font-weight="bold" font-size="20px" font-family="Roboto, sans-serif">
          <tspan x="17.05" y="34" dominant-baseline="ideographic">1943</tspan>
        </text>
      </g>
    </g>
  </g>
  <g id="g-root-tx_editorre_1uuxc871cmbwg4-stroke-fill" data-item-order="0" transform="translate(404, 434)">
    <g id="tx_editorre_1uuxc871cmbwg4-fill" stroke="none" fill="#ffe9e8">
      <g>
        <text style="font: 15px Roboto, sans-serif; white-space: pre;" font-size="15px" font-family="Roboto, sans-serif">
          <tspan x="17.06" y="28" dominant-baseline="ideographic">Editor reveals Hamilton's </tspan>
          <tspan x="38.25" y="46" dominant-baseline="ideographic">story was fictional</tspan>
        </text>
      </g>
    </g>
  </g>
</svg>
