<svg width="816" height="636" viewBox="0 0 816 636" style="fill:none;stroke:none;fill-rule:evenodd;clip-rule:evenodd;stroke-linecap:round;stroke-linejoin:round;stroke-miterlimit:1.5;" version="1.1" xmlns="http://www.w3.org/2000/svg" xmlns:xlink="http://www.w3.org/1999/xlink"><style class="text-font-style fontImports" data-font-family="Roboto">@import url('https://fonts.googleapis.com/css2?family=Roboto:wght@400;700&amp;display=block');</style><g id="g-root-tf_mb3okn1cm677x-stroke-fill" data-item-order="-477360" transform="translate(18, 12)"></g><g id="g-root-sy_-1_cu_1hhl1yf1cm4vlu-stroke-fill" data-item-order="-316218" transform="translate(32, 265.00390625)"><g id="sy_-1_cu_1hhl1yf1cm4vlu-fill" stroke="none" fill="none"><g><path d="M 10.001 143L 10 47L 67 47L 70 59L 322 59L 319 47L 367 47L 370 59L 622 59L 619 47L 646 47L 646 10L 742 95L 646.002 180L 646 143L 619 143L 622 131L 370 131L 367 143L 319.001 143L 322.001 131L 70.001 131L 67.001 143L 10.001 143Z"></path></g></g><g id="sy_-1_cu_1hhl1yf1cm4vlu-stroke" fill="none" stroke-linecap="round" stroke-linejoin="round" stroke-miterlimit="4" stroke="#f4f4f4" stroke-width="2"><g><path d="M 10.001 143L 10 47L 67 47L 70 59L 322 59L 319 47L 367 47L 370 59L 622 59L 619 47L 646 47L 646 10L 742 95L 646.0017 180L 646 143L 619 143L 622 131L 370 131L 367 143L 319.001 143L 322.001 131L 70.001 131L 67.001 143L 10.001 143Z"></path></g></g><g id="sy_-1_cu_1hhl1yf1cm4vlu-stroke-overlay" fill="none" stroke-linecap="round" stroke-linejoin="round" stroke-miterlimit="4" stroke="#3131311a" stroke-width="2" stroke-dasharray="4,6"><animate attributeName="stroke-dashoffset" values="30;0" dur="1s" repeatCount="indefinite" begin="0"></animate><g><path d="M 10.001 143L 10 47L 67 47L 70 59L 322 59L 319 47L 367 47L 370 59L 622 59L 619 47L 646 47L 646 10L 742 95L 646.0017 180L 646 143L 619 143L 622 131L 370 131L 367 143L 319.001 143L 322.001 131L 70.001 131L 67.001 143L 10.001 143Z"></path></g></g></g><g id="g-root-sy_4_cu_18mkisn1cm4t8r-stroke-fill" data-item-order="-316214" transform="translate(347, 386)"><g id="sy_4_cu_18mkisn1cm4t8r-fill" stroke="none" fill="none"><g><path d="M 307 10L 295 58L 43 58L 55 10L 307 10ZM 291.992188 70L 279.992188 118L 27.992188 118L 39.992188 70L 291.992188 70ZM 277 130L 25 130L 10 190L 262 190L 277 130Z"></path></g></g><g id="sy_4_cu_18mkisn1cm4t8r-stroke" fill="none" stroke-linecap="round" stroke-linejoin="round" stroke-miterlimit="4" stroke="#4f91fc" stroke-width="2"><g><path d="M 307 10L 295 58L 43 58L 55 10L 307 10ZM 291.992188 70L 279.992188 118L 27.992188 118L 39.992188 70L 291.992188 70ZM 277 130L 25 130L 10 190L 262 190L 277 130Z"></path></g></g><g id="sy_4_cu_18mkisn1cm4t8r-stroke-overlay" fill="none" stroke-linecap="round" stroke-linejoin="round" stroke-miterlimit="4" stroke="#0060fb7c" stroke-width="2" stroke-dasharray="4,6"><animate attributeName="stroke-dashoffset" values="30;0" dur="1s" repeatCount="indefinite" begin="0"></animate><g><path d="M 307 10L 295 58L 43 58L 55 10L 307 10ZM 291.992188 70L 279.992188 118L 27.992188 118L 39.992188 70L 291.992188 70ZM 277 130L 25 130L 10 190L 262 190L 277 130Z"></path></g></g></g><g id="g-root-sy_3_cu_vb40fb1cm4uto-stroke-fill" data-item-order="-316210" transform="translate(347, 134)"><g id="sy_3_cu_vb40fb1cm4uto-fill" stroke="none" fill="none"><g><path d="M 307 190L 295 142L 43 142L 55 190L 307 190ZM 291.992188 130L 279.992188 82L 27.992188 82L 39.992188 130L 291.992188 130ZM 277 70L 25 70L 10 10L 262 10L 277 70Z"></path></g></g><g id="sy_3_cu_vb40fb1cm4uto-stroke" fill="none" stroke-linecap="round" stroke-linejoin="round" stroke-miterlimit="4" stroke="#f79438" stroke-width="2"><g><path d="M 307 190L 295 142L 43 142L 55 190L 307 190ZM 291.992188 130L 279.992188 82L 27.992188 82L 39.992188 130L 291.992188 130ZM 277 70L 25 70L 10 10L 262 10L 277 70Z"></path></g></g><g id="sy_3_cu_vb40fb1cm4uto-stroke-overlay" fill="none" stroke-linecap="round" stroke-linejoin="round" stroke-miterlimit="4" stroke="#f57600ab" stroke-width="2" stroke-dasharray="4,6"><animate attributeName="stroke-dashoffset" values="30;0" dur="1s" repeatCount="indefinite" begin="0"></animate><g><path d="M 307 190L 295 142L 43 142L 55 190L 307 190ZM 291.992188 130L 279.992188 82L 27.992188 82L 39.992188 130L 291.992188 130ZM 277 70L 25 70L 10 10L 262 10L 277 70Z"></path></g></g></g><g id="g-root-sy_2_cu_qvaiav1cm4vlx-stroke-fill" data-item-order="-316206" transform="translate(47, 386)"><g id="sy_2_cu_qvaiav1cm4vlx-fill" stroke="none" fill="none"><g><path d="M 307.000977 10L 295.000977 58L 43.000977 58L 55.000977 10L 307.000977 10ZM 291.993164 70L 279.993164 118L 27.993164 118L 39.993164 70L 291.993164 70ZM 277.001 130L 25.001 130L 10 190L 262 190L 277.001 130Z"></path></g></g><g id="sy_2_cu_qvaiav1cm4vlx-stroke" fill="none" stroke-linecap="round" stroke-linejoin="round" stroke-miterlimit="4" stroke="#fb6762" stroke-width="2"><g><path d="M 307.000977 10L 295.000977 58L 43.000977 58L 55.000977 10L 307.000977 10ZM 291.993164 70L 279.993164 118L 27.993164 118L 39.993164 70L 291.993164 70ZM 277.001 130L 25.001 130L 10 190L 262 190L 277.001 130Z"></path></g></g><g id="sy_2_cu_qvaiav1cm4vlx-stroke-overlay" fill="none" stroke-linecap="round" stroke-linejoin="round" stroke-miterlimit="4" stroke="#f9080063" stroke-width="2" stroke-dasharray="4,6"><animate attributeName="stroke-dashoffset" values="30;0" dur="1s" repeatCount="indefinite" begin="0"></animate><g><path d="M 307.000977 10L 295.000977 58L 43.000977 58L 55.000977 10L 307.000977 10ZM 291.993164 70L 279.993164 118L 27.993164 118L 39.993164 70L 291.993164 70ZM 277.001 130L 25.001 130L 10 190L 262 190L 277.001 130Z"></path></g></g></g><g id="g-root-sy_1_cu_i09z531cm4t8u-stroke-fill" data-item-order="-316202" transform="translate(47, 134)"><g id="sy_1_cu_i09z531cm4t8u-fill" stroke="none" fill="none"><g><path d="M 307 190L 295 142L 43 142L 55 190L 307 190ZM 291.992188 130L 279.992188 82L 27.992188 82L 39.992188 130L 291.992188 130ZM 277 70L 25 70L 10 10L 262 10L 277 70Z"></path></g></g><g id="sy_1_cu_i09z531cm4t8u-stroke" fill="none" stroke-linecap="round" stroke-linejoin="round" stroke-miterlimit="4" stroke="#ffe711" stroke-width="2"><g><path d="M 307 190L 295 142L 43 142L 55 190L 307 190ZM 291.992188 130L 279.992188 82L 27.992188 82L 39.992188 130L 291.992188 130ZM 277 70L 25 70L 10 10L 262 10L 277 70Z"></path></g></g><g id="sy_1_cu_i09z531cm4t8u-stroke-overlay" fill="none" stroke-linecap="round" stroke-linejoin="round" stroke-miterlimit="4" stroke="#e9d100ff" stroke-width="2" stroke-dasharray="4,6"><animate attributeName="stroke-dashoffset" values="30;0" dur="1s" repeatCount="indefinite" begin="0"></animate><g><path d="M 307 190L 295 142L 43 142L 55 190L 307 190ZM 291.992188 130L 279.992188 82L 27.992188 82L 39.992188 130L 291.992188 130ZM 277 70L 25 70L 10 10L 262 10L 277 70Z"></path></g></g></g><g id="g-root-tx_thefabri_4otgrr1cm4utr-stroke-fill" data-item-order="0" transform="translate(152, 332)"><g id="tx_thefabri_4otgrr1cm4utr-fill" stroke="none" fill="#b7b7b7"><g><text style="font: bold 25px Roboto, sans-serif; white-space: pre;" font-weight="bold" font-size="25px" font-family="Roboto, sans-serif"><tspan x="21.3" y="43" dominant-baseline="ideographic">The Fabrication of the Hamilton Airship Incident</tspan></text></g></g><g id="tx_thefabri_4otgrr1cm4utr-fill-overlay" stroke="none" fill="url(#crawlingPattern-00000024)"><g><text style="font: bold 25px Roboto, sans-serif; white-space: pre;" font-weight="bold" font-size="25px" font-family="Roboto, sans-serif"><tspan x="21.3" y="43" dominant-baseline="ideographic">The Fabrication of the Hamilton Airship Incident</tspan></text></g></g></g><g id="g-root-tx_misident_1lz9zc71cm4tu0-stroke-fill" data-item-order="0" transform="translate(488, 398)"><g id="tx_misident_1lz9zc71cm4tu0-fill" stroke="none" fill="#4f91fc"><g><text style="font: 15px Roboto, sans-serif; white-space: pre;" font-size="15px" font-family="Roboto, sans-serif"><tspan x="21.16" y="31" dominant-baseline="ideographic">Misidentifications</tspan></text></g></g><g id="tx_misident_1lz9zc71cm4tu0-fill-overlay" stroke="none" fill="url(#crawlingPattern-0060fba2)"><g><text style="font: 15px Roboto, sans-serif; white-space: pre;" font-size="15px" font-family="Roboto, sans-serif"><tspan x="21.16" y="31" dominant-baseline="ideographic">Misidentifications</tspan></text></g></g></g><g id="g-root-tx_hoaxes_18ntgyv1cm4vex-stroke-fill" data-item-order="0" transform="translate(545, 458)"><g id="tx_hoaxes_18ntgyv1cm4vex-fill" stroke="none" fill="#4f91fc"><g><text style="font: 15px Roboto, sans-serif; white-space: pre;" font-size="15px" font-family="Roboto, sans-serif"><tspan x="17.59" y="31" dominant-baseline="ideographic">Hoaxes</tspan></text></g></g><g id="tx_hoaxes_18ntgyv1cm4vex-fill-overlay" stroke="none" fill="url(#crawlingPattern-0060fba2)"><g><text style="font: 15px Roboto, sans-serif; white-space: pre;" font-size="15px" font-family="Roboto, sans-serif"><tspan x="17.59" y="31" dominant-baseline="ideographic">Hoaxes</tspan></text></g></g></g><g id="g-root-tx_alternat_v2zuav1cm68ei-stroke-fill" data-item-order="0" transform="translate(470, 512)"><g id="tx_alternat_v2zuav1cm68ei-fill" stroke="none" fill="#4f91fc"><g><text style="font: bold 20px Roboto, sans-serif; white-space: pre;" font-weight="bold" font-size="20px" font-family="Roboto, sans-serif"><tspan x="29.59" y="34" dominant-baseline="ideographic">Alternative </tspan><tspan x="12.58" y="58" dominant-baseline="ideographic">Explanations</tspan></text></g></g><g id="tx_alternat_v2zuav1cm68ei-fill-overlay" stroke="none" fill="url(#crawlingPattern-0060fba2)"><g><text style="font: bold 20px Roboto, sans-serif; white-space: pre;" font-weight="bold" font-size="20px" font-family="Roboto, sans-serif"><tspan x="29.59" y="34" dominant-baseline="ideographic">Alternative </tspan><tspan x="12.58" y="58" dominant-baseline="ideographic">Explanations</tspan></text></g></g></g><g id="g-root-tx_fearofth_hrjbxj1cm69zf-stroke-fill" data-item-order="0" transform="translate(476, 278)"><g id="tx_fearofth_hrjbxj1cm69zf-fill" stroke="none" fill="#f79438"><g><text style="font: 15px Roboto, sans-serif; white-space: pre;" font-size="15px" font-family="Roboto, sans-serif"><tspan x="14.59" y="31" dominant-baseline="ideographic">Fear of the Unknown</tspan></text></g></g><g id="tx_fearofth_hrjbxj1cm69zf-fill-overlay" stroke="none" fill="url(#crawlingPattern-f17400d3)"><g><text style="font: 15px Roboto, sans-serif; white-space: pre;" font-size="15px" font-family="Roboto, sans-serif"><tspan x="14.59" y="31" dominant-baseline="ideographic">Fear of the Unknown</tspan></text></g></g></g><g id="g-root-tx_sensatio_4gpanb1cm68ek-stroke-fill" data-item-order="0" transform="translate(497, 218)"><g id="tx_sensatio_4gpanb1cm68ek-fill" stroke="none" fill="#f79438"><g><text style="font: 15px Roboto, sans-serif; white-space: pre;" font-size="15px" font-family="Roboto, sans-serif"><tspan x="13.2" y="31" dominant-baseline="ideographic">Sensationalism</tspan></text></g></g><g id="tx_sensatio_4gpanb1cm68ek-fill-overlay" stroke="none" fill="url(#crawlingPattern-f17400d3)"><g><text style="font: 15px Roboto, sans-serif; white-space: pre;" font-size="15px" font-family="Roboto, sans-serif"><tspan x="13.2" y="31" dominant-baseline="ideographic">Sensationalism</tspan></text></g></g></g><g id="g-root-tx_publicim_vsiv1cm696t-stroke-fill" data-item-order="0" transform="translate(410, 152)"><g id="tx_publicim_vsiv1cm696t-fill" stroke="none" fill="#f79438"><g><text style="font: bold 20px Roboto, sans-serif; white-space: pre;" font-weight="bold" font-size="20px" font-family="Roboto, sans-serif"><tspan x="19.61" y="34" dominant-baseline="ideographic">Public Imagination</tspan></text></g></g><g id="tx_publicim_vsiv1cm696t-fill-overlay" stroke="none" fill="url(#crawlingPattern-f17400d3)"><g><text style="font: bold 20px Roboto, sans-serif; white-space: pre;" font-weight="bold" font-size="20px" font-family="Roboto, sans-serif"><tspan x="19.61" y="34" dominant-baseline="ideographic">Public Imagination</tspan></text></g></g></g><g id="g-root-tx_clubinvo_1lr5t7r1cm67eu-stroke-fill" data-item-order="0" transform="translate(200, 398)"><g id="tx_clubinvo_1lr5t7r1cm67eu-fill" stroke="none" fill="#fb6762"><g><text style="font: 15px Roboto, sans-serif; white-space: pre;" font-size="15px" font-family="Roboto, sans-serif"><tspan x="13.03" y="31" dominant-baseline="ideographic">Club Involvement</tspan></text></g></g><g id="tx_clubinvo_1lr5t7r1cm67eu-fill-overlay" stroke="none" fill="url(#crawlingPattern-f9080081)"><g><text style="font: 15px Roboto, sans-serif; white-space: pre;" font-size="15px" font-family="Roboto, sans-serif"><tspan x="13.03" y="31" dominant-baseline="ideographic">Club Involvement</tspan></text></g></g></g><g id="g-root-tx_affidavi_18fpauf1cm68zr-stroke-fill" data-item-order="0" transform="translate(149, 458)"><g id="tx_affidavi_18fpauf1cm68zr-fill" stroke="none" fill="#fb6762"><g><text style="font: 15px Roboto, sans-serif; white-space: pre;" font-size="15px" font-family="Roboto, sans-serif"><tspan x="22.59" y="31" dominant-baseline="ideographic">Affidavit Examination</tspan></text></g></g><g id="tx_affidavi_18fpauf1cm68zr-fill-overlay" stroke="none" fill="url(#crawlingPattern-f9080081)"><g><text style="font: 15px Roboto, sans-serif; white-space: pre;" font-size="15px" font-family="Roboto, sans-serif"><tspan x="22.59" y="31" dominant-baseline="ideographic">Affidavit Examination</tspan></text></g></g></g><g id="g-root-tx_credibil_13zvspz1cm69s0-stroke-fill" data-item-order="0" transform="translate(122, 524)"><g id="tx_credibil_13zvspz1cm69s0-fill" stroke="none" fill="#fb6762"><g><text style="font: bold 20px Roboto, sans-serif; white-space: pre;" font-weight="bold" font-size="20px" font-family="Roboto, sans-serif"><tspan x="20.81" y="34" dominant-baseline="ideographic">Credibility Issues</tspan></text></g></g><g id="tx_credibil_13zvspz1cm69s0-fill-overlay" stroke="none" fill="url(#crawlingPattern-f9080081)"><g><text style="font: bold 20px Roboto, sans-serif; white-space: pre;" font-weight="bold" font-size="20px" font-family="Roboto, sans-serif"><tspan x="20.81" y="34" dominant-baseline="ideographic">Credibility Issues</tspan></text></g></g></g><g id="g-root-tx_mediainf_v4v9k71cm67ex-stroke-fill" data-item-order="0" transform="translate(185, 218)"><g id="tx_mediainf_v4v9k71cm67ex-fill" stroke="none" fill="#ffe711"><g><text style="font: 15px Roboto, sans-serif; white-space: pre;" font-size="15px" font-family="Roboto, sans-serif"><tspan x="21.77" y="31" dominant-baseline="ideographic">Media Influence</tspan></text></g></g><g id="tx_mediainf_v4v9k71cm67ex-fill-overlay" stroke="none" fill="url(#crawlingPattern-ddc700ff)"><g><text style="font: 15px Roboto, sans-serif; white-space: pre;" font-size="15px" font-family="Roboto, sans-serif"><tspan x="21.77" y="31" dominant-baseline="ideographic">Media Influence</tspan></text></g></g></g><g id="g-root-tx_technolo_hter6v1cm68zu-stroke-fill" data-item-order="0" transform="translate(128, 278)"><g id="tx_technolo_hter6v1cm68zu-fill" stroke="none" fill="#ffe711"><g><text style="font: 15px Roboto, sans-serif; white-space: pre;" font-size="15px" font-family="Roboto, sans-serif"><tspan x="23.11" y="31" dominant-baseline="ideographic">Technological Anticipation</tspan></text></g></g><g id="tx_technolo_hter6v1cm68zu-fill-overlay" stroke="none" fill="url(#crawlingPattern-ddc700ff)"><g><text style="font: 15px Roboto, sans-serif; white-space: pre;" font-size="15px" font-family="Roboto, sans-serif"><tspan x="23.11" y="31" dominant-baseline="ideographic">Technological Anticipation</tspan></text></g></g></g><g id="g-root-tx_cultural_4ikpwn1cm67ez-stroke-fill" data-item-order="0" transform="translate(134, 152)"><g id="tx_cultural_4ikpwn1cm67ez-fill" stroke="none" fill="#ffe711"><g><text style="font: bold 20px Roboto, sans-serif; white-space: pre;" font-weight="bold" font-size="20px" font-family="Roboto, sans-serif"><tspan x="18.38" y="34" dominant-baseline="ideographic">Cultural Context</tspan></text></g></g><g id="tx_cultural_4ikpwn1cm67ez-fill-overlay" stroke="none" fill="url(#crawlingPattern-ddc700ff)"><g><text style="font: bold 20px Roboto, sans-serif; white-space: pre;" font-weight="bold" font-size="20px" font-family="Roboto, sans-serif"><tspan x="18.38" y="34" dominant-baseline="ideographic">Cultural Context</tspan></text></g></g></g><g id="g-root-tx_analyzin_1lserdz1cm69l0-stroke-fill" data-item-order="0" transform="translate(164, 50)"><g id="tx_analyzin_1lserdz1cm69l0-fill" stroke="none" fill="#f4f4f4"><g><text style="font: bold 20px Roboto, sans-serif; white-space: pre;" font-weight="bold" font-size="20px" font-family="Roboto, sans-serif"><tspan x="12.12" y="34" dominant-baseline="ideographic">Analyzing the Alexander Hamilton Airship Incident</tspan></text></g></g><defs><pattern id="crawlingPattern-00000024" x="0" y="0" width="12" height="12" patternUnits="userSpaceOnUse" fill="#00000024"><use href="#crawlingSymbol"></use></pattern><symbol id="crawlingSymbol"><g><animateTransform attributeName="transform" type="translate" from="0 0" to="-12 0" dur="0.4s" repeatCount="indefinite"></animateTransform><path d="M -12.5 12.5 l 13 -13 l 6 0 l -13 13 Z M -0.5 12.5 l 13 -13 l 6 0 l -13 13 Z M 11.5 12.5 l 13 -13 l 6 0 l -13 13 Z"></path></g></symbol><pattern id="crawlingPattern-0060fba2" x="0" y="0" width="12" height="12" patternUnits="userSpaceOnUse" fill="#0060fba2"><use href="#crawlingSymbol"></use></pattern><pattern id="crawlingPattern-f17400d3" x="0" y="0" width="12" height="12" patternUnits="userSpaceOnUse" fill="#f17400d3"><use href="#crawlingSymbol"></use></pattern><pattern id="crawlingPattern-f9080081" x="0" y="0" width="12" height="12" patternUnits="userSpaceOnUse" fill="#f9080081"><use href="#crawlingSymbol"></use></pattern><pattern id="crawlingPattern-ddc700ff" x="0" y="0" width="12" height="12" patternUnits="userSpaceOnUse" fill="#ddc700ff"><use href="#crawlingSymbol"></use></pattern><pattern id="crawlingPattern-0000001b" x="0" y="0" width="12" height="12" patternUnits="userSpaceOnUse" fill="#0000001b"><use href="#crawlingSymbol"></use></pattern></defs><g id="tx_analyzin_1lserdz1cm69l0-fill-overlay" stroke="none" fill="url(#crawlingPattern-0000001b)"><g><text style="font: bold 20px Roboto, sans-serif; white-space: pre;" font-weight="bold" font-size="20px" font-family="Roboto, sans-serif"><tspan x="12.12" y="34" dominant-baseline="ideographic">Analyzing the Alexander Hamilton Airship Incident</tspan></text></g></g></g></svg>