<?xml version='1.0' encoding='utf-8'?>
<svg xmlns="http://www.w3.org/2000/svg" xmlns:xlink="http://www.w3.org/1999/xlink" width="1008" height="600" viewBox="0 0 1008 600" style="fill:none;stroke:none;fill-rule:evenodd;clip-rule:evenodd;stroke-linecap:round;stroke-linejoin:round;stroke-miterlimit:1.5;" version="1.1">
  <style class="text-font-style fontImports" data-font-family="Roboto">@import url('https://fonts.googleapis.com/css2?family=Roboto:wght@400;700&amp;display=block');</style>
  <rect x="0" y="0" width="1008" height="6E+2" fill="#252a34" stroke="none" id="programmatic_background"/>
  <g id="g-root-tf_18lb1o719u0i6k-stroke-fill" data-item-order="-566784" transform="translate(12, 12)"/>
  <g id="g-root-cp_0_g-0_1d2zvw719ubp57-stroke-fill" data-item-order="-449243" transform="translate(50.131011962890625, 272.5)">
    <g id="cp_0_g-0_1d2zvw719ubp57-stroke" fill="none" stroke-linecap="round" stroke-linejoin="round" stroke-miterlimit="4" stroke="#d3d3d3" stroke-width="2">
      <g>
        <path d="M 826 51L 898 51M 646 51L 802 51M 814 10L 814 39.5M 106 51L 262 51M 286 51L 442 51M 274 63.5L 274 93M 454 10L 454 39.5M 466 51L 622 51M 634 63.5L 634 93M 10 51L 82 51M 94 10L 94 39.5"/>
      </g>
    </g>
  </g>
  <g id="g-root-cp_1_g-1_zrjdiv19ubqq5-stroke-fill" data-item-order="-449220" transform="translate(89.13101196289062, 149)">
    <g id="cp_1_g-1_zrjdiv19ubqq5-fill" stroke="none" fill="none">
      <g>
        <path d="M 100 55C 100 66.244 94.5 77.5875 89 86L 55.816 132.848C 55.4175 133.411 54.5825 133.411 54.184 132.848L 21 86C 14.5 77 10 66.7284 10 55C 10 30.1472 30.1472 10 55 10C 79.8528 10 100 30.1472 100 55ZM 55 91C 74.8822 91 91 74.8822 91 55C 91 35.1177 74.8822 19 55 19C 35.1177 19 19 35.1177 19 55C 19 74.8822 35.1177 91 55 91Z"/>
      </g>
    </g>
    <g id="cp_1_g-1_zrjdiv19ubqq5-stroke" fill="none" stroke-linecap="round" stroke-linejoin="round" stroke-miterlimit="4" stroke="#4f91fc" stroke-width="2">
      <g>
        <path d="M 100 55C 100 66.244 94.5 77.5875 89 86L 55.816 132.848C 55.4175 133.4106 54.5825 133.4106 54.184 132.848L 21 86C 14.5 77 10 66.7284 10 55C 10 30.1472 30.1472 10 55 10C 79.8528 10 100 30.1472 100 55ZM 55 91C 74.8822 91 91 74.8822 91 55C 91 35.1177 74.8822 19 55 19C 35.1177 19 19 35.1177 19 55C 19 74.8822 35.1177 91 55 91Z"/>
      </g>
    </g>
    <g id="cp_1_g-1_zrjdiv19ubqq5-fill" stroke="none" fill="none">
      <g>
        <path d="M 55 187C 61.6274 187 67 181.6274 67 175C 67 168.3726 61.6274 163 55 163C 48.3726 163 43 168.3726 43 175C 43 181.6274 48.3726 187 55 187ZM 55 181C 58.3137 181 61 178.3137 61 175C 61 171.6863 58.3137 169 55 169C 51.6863 169 49 171.6863 49 175C 49 178.3137 51.6863 181 55 181Z"/>
      </g>
    </g>
    <g id="cp_1_g-1_zrjdiv19ubqq5-stroke" fill="none" stroke-linecap="round" stroke-linejoin="round" stroke-miterlimit="4" stroke="#4f91fc" stroke-width="2">
      <g>
        <path d="M 55 187C 61.6274 187 67 181.6274 67 175C 67 168.3726 61.6274 163 55 163C 48.3726 163 43 168.3726 43 175C 43 181.6274 48.3726 187 55 187ZM 55 181C 58.3137 181 61 178.3137 61 175C 61 171.6863 58.3137 169 55 169C 51.6863 169 49 171.6863 49 175C 49 178.3137 51.6863 181 55 181Z"/>
      </g>
    </g>
  </g>
  <g id="g-root-cp_2_g-2_qwiud319ubp4w-stroke-fill" data-item-order="-449216" transform="translate(269.1309814453125, 302)">
    <g id="cp_2_g-2_qwiud319ubp4w-fill" stroke="none" fill="none">
      <g>
        <path d="M 100 142.000369C 100 130.756469 94.5 119.412869 89 111.000369L 55.816 64.152469C 55.4175 63.589769 54.5825 63.589769 54.184 64.152469L 21 111.000369C 14.5 120.000369 10 130.271969 10 142.000369C 10 166.853469 30.1472 187.000469 55 187.000469C 79.8528 187.000469 100 166.853469 100 142.000369ZM 55 106.000369C 74.8822 106.000369 91 122.118169 91 142.000369C 91 161.882669 74.8822 178.000469 55 178.000469C 35.1177 178.000469 19 161.882669 19 142.000369C 19 122.118169 35.1177 106.000369 55 106.000369Z"/>
      </g>
    </g>
    <g id="cp_2_g-2_qwiud319ubp4w-stroke" fill="none" stroke-linecap="round" stroke-linejoin="round" stroke-miterlimit="4" stroke="#43dd93" stroke-width="2">
      <g>
        <path d="M 100 142.000369C 100 130.756469 94.5 119.412869 89 111.000369L 55.816 64.152469C 55.4175 63.589769 54.5825 63.589769 54.184 64.152469L 21 111.000369C 14.5 120.000369 10 130.271969 10 142.000369C 10 166.853269 30.1472 187.000369 55 187.000369C 79.8528 187.000369 100 166.853269 100 142.000369ZM 55 106.000369C 74.8822 106.000369 91 122.118169 91 142.000369C 91 161.882669 74.8822 178.000369 55 178.000369C 35.1177 178.000369 19 161.882669 19 142.000369C 19 122.118169 35.1177 106.000369 55 106.000369Z"/>
      </g>
    </g>
    <g id="cp_2_g-2_qwiud319ubp4w-fill" stroke="none" fill="none">
      <g>
        <path d="M 55 34C 61.6274 34 67 28.6274 67 22C 67 15.3726 61.6274 10 55 10C 48.3726 10 43 15.3726 43 22C 43 28.6274 48.3726 34 55 34ZM 55 28C 58.3137 28 61 25.3137 61 22C 61 18.6863 58.3137 16 55 16C 51.6863 16 49 18.6863 49 22C 49 25.3137 51.6863 28 55 28Z"/>
      </g>
    </g>
    <g id="cp_2_g-2_qwiud319ubp4w-stroke" fill="none" stroke-linecap="round" stroke-linejoin="round" stroke-miterlimit="4" stroke="#43dd93" stroke-width="2">
      <g>
        <path d="M 55 34C 61.6274 34 67 28.6274 67 22C 67 15.3726 61.6274 10 55 10C 48.3726 10 43 15.3726 43 22C 43 28.6274 48.3726 34 55 34ZM 55 28C 58.3137 28 61 25.3137 61 22C 61 18.6863 58.3137 16 55 16C 51.6863 16 49 18.6863 49 22C 49 25.3137 51.6863 28 55 28Z"/>
      </g>
    </g>
  </g>
  <g id="g-root-cp_3_g-3_i0vu4719ubpxn-stroke-fill" data-item-order="-449210" transform="translate(449.1310119628906, 149)">
    <g id="cp_3_g-3_i0vu4719ubpxn-fill" stroke="none" fill="none">
      <g>
        <path d="M 100 55C 100 66.244 94.5 77.5875 89 86L 55.816 132.848C 55.4175 133.411 54.5825 133.411 54.184 132.848L 21 86C 14.5 77 10 66.7284 10 55C 10 30.1472 30.1472 10 55 10C 79.8528 10 100 30.1472 100 55ZM 55 91C 74.8822 91 91 74.8822 91 55C 91 35.1177 74.8822 19 55 19C 35.1177 19 19 35.1177 19 55C 19 74.8822 35.1177 91 55 91Z"/>
      </g>
    </g>
    <g id="cp_3_g-3_i0vu4719ubpxn-stroke" fill="none" stroke-linecap="round" stroke-linejoin="round" stroke-miterlimit="4" stroke="#a6da37" stroke-width="2">
      <g>
        <path d="M 100 55C 100 66.244 94.5 77.5875 89 86L 55.816 132.848C 55.4175 133.4106 54.5825 133.4106 54.184 132.848L 21 86C 14.5 77 10 66.7284 10 55C 10 30.1472 30.1472 10 55 10C 79.8528 10 100 30.1472 100 55ZM 55 91C 74.8822 91 91 74.8822 91 55C 91 35.1177 74.8822 19 55 19C 35.1177 19 19 35.1177 19 55C 19 74.8822 35.1177 91 55 91Z"/>
      </g>
    </g>
    <g id="cp_3_g-3_i0vu4719ubpxn-fill" stroke="none" fill="none">
      <g>
        <path d="M 55 187C 61.6274 187 67 181.6274 67 175C 67 168.3726 61.6274 163 55 163C 48.3726 163 43 168.3726 43 175C 43 181.6274 48.3726 187 55 187ZM 55 181C 58.3137 181 61 178.3137 61 175C 61 171.6863 58.3137 169 55 169C 51.6863 169 49 171.6863 49 175C 49 178.3137 51.6863 181 55 181Z"/>
      </g>
    </g>
    <g id="cp_3_g-3_i0vu4719ubpxn-stroke" fill="none" stroke-linecap="round" stroke-linejoin="round" stroke-miterlimit="4" stroke="#a6da37" stroke-width="2">
      <g>
        <path d="M 55 187C 61.6274 187 67 181.6274 67 175C 67 168.3726 61.6274 163 55 163C 48.3726 163 43 168.3726 43 175C 43 181.6274 48.3726 187 55 187ZM 55 181C 58.3137 181 61 178.3137 61 175C 61 171.6863 58.3137 169 55 169C 51.6863 169 49 171.6863 49 175C 49 178.3137 51.6863 181 55 181Z"/>
      </g>
    </g>
  </g>
  <g id="g-root-cp_4_g-4_dl2bzr19ubqpy-stroke-fill" data-item-order="-449204" transform="translate(629.1309814453125, 302)">
    <g id="cp_4_g-4_dl2bzr19ubqpy-fill" stroke="none" fill="none">
      <g>
        <path d="M 100 142.000369C 100 130.756469 94.5 119.412869 89 111.000369L 55.816 64.152469C 55.4175 63.589769 54.5825 63.589769 54.184 64.152469L 21 111.000369C 14.5 120.000369 10 130.271969 10 142.000369C 10 166.853469 30.1472 187.000469 55 187.000469C 79.8528 187.000469 100 166.853469 100 142.000369ZM 55 106.000369C 74.8822 106.000369 91 122.118169 91 142.000369C 91 161.882669 74.8822 178.000469 55 178.000469C 35.1177 178.000469 19 161.882669 19 142.000369C 19 122.118169 35.1177 106.000369 55 106.000369Z"/>
      </g>
    </g>
    <g id="cp_4_g-4_dl2bzr19ubqpy-stroke" fill="none" stroke-linecap="round" stroke-linejoin="round" stroke-miterlimit="4" stroke="#b7b7b7" stroke-width="2">
      <g>
        <path d="M 100 142.000369C 100 130.756469 94.5 119.412869 89 111.000369L 55.816 64.152469C 55.4175 63.589769 54.5825 63.589769 54.184 64.152469L 21 111.000369C 14.5 120.000369 10 130.271969 10 142.000369C 10 166.853269 30.1472 187.000369 55 187.000369C 79.8528 187.000369 100 166.853269 100 142.000369ZM 55 106.000369C 74.8822 106.000369 91 122.118169 91 142.000369C 91 161.882669 74.8822 178.000369 55 178.000369C 35.1177 178.000369 19 161.882669 19 142.000369C 19 122.118169 35.1177 106.000369 55 106.000369Z"/>
      </g>
    </g>
    <g id="cp_4_g-4_dl2bzr19ubqpy-fill" stroke="none" fill="none">
      <g>
        <path d="M 55 34C 61.6274 34 67 28.6274 67 22C 67 15.3726 61.6274 10 55 10C 48.3726 10 43 15.3726 43 22C 43 28.6274 48.3726 34 55 34ZM 55 28C 58.3137 28 61 25.3137 61 22C 61 18.6863 58.3137 16 55 16C 51.6863 16 49 18.6863 49 22C 49 25.3137 51.6863 28 55 28Z"/>
      </g>
    </g>
    <g id="cp_4_g-4_dl2bzr19ubqpy-stroke" fill="none" stroke-linecap="round" stroke-linejoin="round" stroke-miterlimit="4" stroke="#b7b7b7" stroke-width="2">
      <g>
        <path d="M 55 34C 61.6274 34 67 28.6274 67 22C 67 15.3726 61.6274 10 55 10C 48.3726 10 43 15.3726 43 22C 43 28.6274 48.3726 34 55 34ZM 55 28C 58.3137 28 61 25.3137 61 22C 61 18.6863 58.3137 16 55 16C 51.6863 16 49 18.6863 49 22C 49 25.3137 51.6863 28 55 28Z"/>
      </g>
    </g>
  </g>
  <g id="g-root-cp_5_g-5_8vvpkn19ud2wx-stroke-fill" data-item-order="-449198" transform="translate(809.1309814453125, 149)">
    <g id="cp_5_g-5_8vvpkn19ud2wx-fill" stroke="none" fill="none">
      <g>
        <path d="M 100 55C 100 66.244 94.5 77.5875 89 86L 55.816 132.848C 55.4175 133.411 54.5825 133.411 54.184 132.848L 21 86C 14.5 77 10 66.7284 10 55C 10 30.1472 30.1472 10 55 10C 79.8528 10 100 30.1472 100 55ZM 55 91C 74.8822 91 91 74.8822 91 55C 91 35.1177 74.8822 19 55 19C 35.1177 19 19 35.1177 19 55C 19 74.8822 35.1177 91 55 91Z"/>
      </g>
    </g>
    <g id="cp_5_g-5_8vvpkn19ud2wx-stroke" fill="none" stroke-linecap="round" stroke-linejoin="round" stroke-miterlimit="4" stroke="#fb6762" stroke-width="2">
      <g>
        <path d="M 100 55C 100 66.244 94.5 77.5875 89 86L 55.816 132.848C 55.4175 133.4106 54.5825 133.4106 54.184 132.848L 21 86C 14.5 77 10 66.7284 10 55C 10 30.1472 30.1472 10 55 10C 79.8528 10 100 30.1472 100 55ZM 55 91C 74.8822 91 91 74.8822 91 55C 91 35.1177 74.8822 19 55 19C 35.1177 19 19 35.1177 19 55C 19 74.8822 35.1177 91 55 91Z"/>
      </g>
    </g>
    <g id="cp_5_g-5_8vvpkn19ud2wx-fill" stroke="none" fill="none">
      <g>
        <path d="M 55 187C 61.6274 187 67 181.6274 67 175C 67 168.3726 61.6274 163 55 163C 48.3726 163 43 168.3726 43 175C 43 181.6274 48.3726 187 55 187ZM 55 181C 58.3137 181 61 178.3137 61 175C 61 171.6863 58.3137 169 55 169C 51.6863 169 49 171.6863 49 175C 49 178.3137 51.6863 181 55 181Z"/>
      </g>
    </g>
    <g id="cp_5_g-5_8vvpkn19ud2wx-stroke" fill="none" stroke-linecap="round" stroke-linejoin="round" stroke-miterlimit="4" stroke="#fb6762" stroke-width="2">
      <g>
        <path d="M 55 187C 61.6274 187 67 181.6274 67 175C 67 168.3726 61.6274 163 55 163C 48.3726 163 43 168.3726 43 175C 43 181.6274 48.3726 187 55 187ZM 55 181C 58.3137 181 61 178.3137 61 175C 61 171.6863 58.3137 169 55 169C 51.6863 169 49 171.6863 49 175C 49 178.3137 51.6863 181 55 181Z"/>
      </g>
    </g>
  </g>
  <g id="g-root-tx_thealexa_1ulj96f19ud4as-stroke-fill" data-item-order="0" transform="translate(188, 50)">
    <g id="tx_thealexa_1ulj96f19ud4as-fill" stroke="none" fill="#f4f4f4">
      <g>
        <text style="font: 20px Roboto, sans-serif; white-space: pre;" font-size="20px" font-family="Roboto, sans-serif">
          <tspan x="15.05" y="34" dominant-baseline="ideographic">The Alexander Hamilton Airship Incident and the Great Airship Wave</tspan>
        </text>
      </g>
    </g>
  </g>
  <g id="g-root-ic_crop_1hap7w719ud2px-stroke-fill" data-item-order="0" transform="translate(290.1310119628906, 410.0000305175781)">
    <g id="ic_crop_1hap7w719ud2px-stroke" fill="none" stroke-linecap="round" stroke-linejoin="round" stroke-miterlimit="4" stroke="#43dd93" stroke-width="2">
      <g>
        <path d="M 52.859974 11.495999C 54.642372 12.434539 55.448761 14.552089 54.742123 16.438482C 54.035488 18.324875 52.036331 19.391478 50.075974 18.927994C 49.54179 18.802549 49.006302 19.130981 48.875973 19.663994L 48.105972 22.825993M 40.463982 18.495995C 41.434677 20.177095 41.058228 22.312481 39.571182 23.560301C 38.084141 24.808121 35.915825 24.808121 34.42878 23.560301C 32.941738 22.312481 32.565289 20.177095 33.535984 18.495995M 28.999987 18.495995L 44.999977 18.495995M 31.999985 18.495995L 33.585983 13.945997C 33.831398 13.08799 34.615566 12.496395 35.507984 12.495998L 38.491982 12.495998C 39.384396 12.496395 40.168564 13.08799 40.413979 13.945997L 41.999977 18.495995M 47.743977 22.637991C 46.718384 22.22757 45.554272 22.726347 45.143978 23.751991C 44.170357 26.1793 41.976616 27.903502 39.387981 28.27599C 38.712151 28.402969 38.027367 28.47653 37.339981 28.495989L 32.999985 28.495989C 30.270044 28.628139 27.812944 30.192438 26.537989 32.609985L 22.103992 40.599979C 21.7395 41.225803 21.741812 41.999779 22.110037 42.623409C 22.47826 43.247047 23.154858 43.62289 23.878891 43.605995C 24.602922 43.5891 25.261253 43.182106 25.599991 42.541977L 30.033987 34.563984C 30.652773 33.469685 31.752632 32.732491 32.999985 32.575985L 32.999985 42.505978L 30.115986 53.83197C 29.745131 54.872391 30.287783 56.016483 31.328129 56.387562C 32.368473 56.75864 33.51268 56.216232 33.883984 55.175964L 36.999981 46.439976L 40.115978 55.16597C 40.487282 56.206234 41.631485 56.748642 42.671829 56.37756C 43.712177 56.006481 44.254829 54.862392 43.883976 53.821964L 40.999981 42.495975L 40.999981 32.015987C 44.560226 31.158281 47.48698 28.633781 48.857975 25.237989C 49.268394 24.212397 48.769619 23.048286 47.743977 22.637991ZM 22.111992 40.581982L 12.999998 33.495983M 15.999996 29.495987L 22.369991 40.11198M 20.999992 28.495989L 23.071991 38.849983"/>
      </g>
    </g>
  </g>
  <g id="g-root-tx_april191_zko5kn19ufx8u-stroke-fill" data-item-order="0" transform="translate(266, 134)">
    <g id="tx_april191_zko5kn19ufx8u-fill" stroke="none" fill="#43dd93">
      <g>
        <text style="font: bold 20px Roboto, sans-serif; white-space: pre;" font-weight="bold" font-size="20px" font-family="Roboto, sans-serif">
          <tspan x="13" y="34" dominant-baseline="ideographic">April 19, 1897</tspan>
        </text>
      </g>
    </g>
  </g>
  <g id="g-root-tx_alexande_hu0m5z19ufwg7-stroke-fill" data-item-order="0" transform="translate(242, 170)">
    <g id="tx_alexande_hu0m5z19ufwg7-fill" stroke="none" fill="#f4f4f4">
      <g>
        <text style="font: 15px Roboto, sans-serif; white-space: pre;" font-size="15px" font-family="Roboto, sans-serif">
          <tspan x="15.92" y="31" dominant-baseline="ideographic">Alexander Hamilton's </tspan>
          <tspan x="24.23" y="49" dominant-baseline="ideographic">encounter with the </tspan>
          <tspan x="63.66" y="67" dominant-baseline="ideographic">airship</tspan>
        </text>
      </g>
    </g>
  </g>
  <g id="g-root-ic_phot_4ik3sn19ufy14-stroke-fill" data-item-order="0" transform="translate(650.1309814453125, 410)">
    <g id="ic_phot_4ik3sn19ufy14-stroke" fill="none" stroke-linecap="round" stroke-linejoin="round" stroke-miterlimit="4" stroke="#b7b7b7" stroke-width="2">
      <g>
        <path d="M 17.566719 37.930199L 11.656924 24.85692C 11.256924 24.056919 11.656912 23.25692 12.45692 22.85692L 37.056999 11.656922C 37.857002 11.256922 38.656998 11.656924 39.056999 12.45692L 50.6698 37.930199M 10 10M 48.257 32.857002L 37.006798 37.9706M 10 10M 29.942881 37.786598L 31.942801 27.38658C 32.3428 25.386581 34.3428 24.38656 36.142799 25.18656L 47.142799 30.1866M 22.25692 31.257C 24.134701 31.257 25.65696 29.7348 25.65696 27.857019C 25.65696 25.979259 24.134701 24.457039 22.25692 24.457039C 20.37916 24.457039 18.856941 25.979259 18.856941 27.857019C 18.856941 29.7348 20.37916 31.257 22.25692 31.257ZM 10 10M 46.700001 15.656981L 55.099998 15.856979C 55.900002 15.856979 56.5 16.45698 56.5 17.45698L 56.299999 36.457001M 35.2836 56.384201L 35.2836 44.384201M 43.2836 44.384201L 35.2836 52.384201M 38.2836 49.384201L 44.2836 56.384201M 10 10M 56.3396 44.384201L 48.3396 44.384201L 48.3396 56.384201L 56.3396 56.384201M 48.3396 49.884201L 55.3396 49.884201M 11.6604 56.384201L 11.6604 44.384201L 19.6604 44.384201M 10 10M 11.6604 49.884201L 18.6604 49.884201M 10 10M 21.373779 56.384201L 25.05756 45.333C 25.246399 44.766399 25.776581 44.384201 26.373779 44.384201L 26.373779 44.384201C 26.970961 44.384201 27.50116 44.766399 27.690001 45.333L 31.3738 56.384201M 22.707119 52.384201L 30.0404 52.384201"/>
      </g>
    </g>
  </g>
  <g id="g-root-tx_1943_1d2det319uhamh-stroke-fill" data-item-order="0" transform="translate(698, 158)">
    <g id="tx_1943_1d2det319uhamh-fill" stroke="none" fill="#b7b7b7">
      <g>
        <text style="font: bold 20px Roboto, sans-serif; white-space: pre;" font-weight="bold" font-size="20px" font-family="Roboto, sans-serif">
          <tspan x="17.05" y="34" dominant-baseline="ideographic">1943</tspan>
        </text>
      </g>
    </g>
  </g>
  <g id="g-root-tx_revelati_vb3ebb19uhczm-stroke-fill" data-item-order="0" transform="translate(590, 194)">
    <g id="tx_revelati_vb3ebb19uhczm-fill" stroke="none" fill="#f4f4f4">
      <g>
        <text style="font: 15px Roboto, sans-serif; white-space: pre;" font-size="15px" font-family="Roboto, sans-serif">
          <tspan x="12.61" y="28" dominant-baseline="ideographic">Revelation of Hamilton's </tspan>
          <tspan x="22.63" y="46" dominant-baseline="ideographic">story as a fabrication</tspan>
        </text>
      </g>
    </g>
  </g>
  <g id="g-root-tx_november_4osunr19uhczn-stroke-fill" data-item-order="0" transform="translate(62, 398)">
    <g id="tx_november_4osunr19uhczn-fill" stroke="none" fill="#4f91fc">
      <g>
        <text style="font: bold 20px Roboto, sans-serif; white-space: pre;" font-weight="bold" font-size="20px" font-family="Roboto, sans-serif">
          <tspan x="16.19" y="34" dominant-baseline="ideographic">November 1896</tspan>
        </text>
      </g>
    </g>
  </g>
  <g id="g-root-tx_startoft_1uuwdh319uhafg-stroke-fill" data-item-order="0" transform="translate(86, 434)">
    <g id="tx_startoft_1uuwdh319uhafg-fill" stroke="none" fill="#f4f4f4">
      <g>
        <text style="font: 15px Roboto, sans-serif; white-space: pre;" font-size="15px" font-family="Roboto, sans-serif">
          <tspan x="16.84" y="31" dominant-baseline="ideographic">Start of the Great </tspan>
          <tspan x="23.03" y="49" dominant-baseline="ideographic">Airship Wave in </tspan>
          <tspan x="42.05" y="67" dominant-baseline="ideographic">California</tspan>
        </text>
      </g>
    </g>
  </g>
  <g id="g-root-ic_1_1hjfv3r19uhc0d-stroke-fill" data-item-order="0" transform="translate(110.1309814453125, 170)">
    <g id="ic_1_1hjfv3r19uhc0d-stroke" fill="none" stroke-linecap="round" stroke-linejoin="round" stroke-miterlimit="4" stroke="#4f91fc" stroke-width="2">
      <g>
        <path d="M 19.5 56.5C 23.91828 56.5 27.5 52.918201 27.5 48.5C 27.5 44.081799 23.91828 40.5 19.5 40.5C 15.08172 40.5 11.5 44.081799 11.5 48.5C 11.5 52.918201 15.08172 56.5 19.5 56.5ZM 10 10M 16.5 33.5L 14.5 11.5M 10 10M 33.5 51.5L 56.5 54.299999M 10 10M 27.5 11.5L 24.5 26.299999M 10 10M 30.5 34.299999L 49.5 11.5M 10 10M 40.5 35.5L 56.5 25.5M 37.5 44.299999L 53.5 44.299999"/>
      </g>
    </g>
  </g>
  <g id="g-root-tx_april231_1lqiq0n19uk5ce-stroke-fill" data-item-order="0" transform="translate(446, 398)">
    <g id="tx_april231_1lqiq0n19uk5ce-fill" stroke="none" fill="#a6da37">
      <g>
        <text style="font: bold 20px Roboto, sans-serif; white-space: pre;" font-weight="bold" font-size="20px" font-family="Roboto, sans-serif">
          <tspan x="13" y="34" dominant-baseline="ideographic">April 23, 1897</tspan>
        </text>
      </g>
    </g>
  </g>
  <g id="g-root-tx_publicat_18fooqf19uk3rj-stroke-fill" data-item-order="0" transform="translate(446, 434)">
    <g id="tx_publicat_18fooqf19uk3rj-fill" stroke="none" fill="#f4f4f4">
      <g>
        <text style="font: 15px Roboto, sans-serif; white-space: pre;" font-size="15px" font-family="Roboto, sans-serif">
          <tspan x="29.83" y="28" dominant-baseline="ideographic">Publication of </tspan>
          <tspan x="12.23" y="46" dominant-baseline="ideographic">Hamilton's account</tspan>
        </text>
      </g>
    </g>
  </g>
  <g id="g-root-ic_righ_zk1ohj19uk5c0-stroke-fill" data-item-order="0" transform="translate(470.1310119628906, 170)">
    <g id="ic_righ_zk1ohj19uk5c0-stroke" fill="none" stroke-linecap="round" stroke-linejoin="round" stroke-miterlimit="4" stroke="#a6da37" stroke-width="2">
      <g>
        <path d="M 12.999998 10.995999L 54.999969 10.995999C 54.999969 10.995999 56.999969 10.995999 56.999969 12.995998L 56.999969 54.995968C 56.999969 54.995968 56.999969 56.995968 54.999969 56.995968L 12.999998 56.995968C 12.999998 56.995968 10.999999 56.995968 10.999999 54.995968L 10.999999 12.995998C 10.999999 12.995998 10.999999 10.995999 12.999998 10.995999M 22.999992 22.995993L 30.999987 22.995993M 16.999996 30.995987L 30.999987 30.995987M 16.999996 38.995983L 50.999973 38.995983M 16.999996 46.995975L 40.999981 46.995975M 37.999981 18.995995L 49.999973 18.995995C 49.999973 18.995995 50.999973 18.995995 50.999973 19.995995L 50.999973 31.995985C 50.999973 31.995985 50.999973 32.995987 49.999973 32.995987L 37.999981 32.995987C 37.999981 32.995987 36.999981 32.995987 36.999981 31.995985L 36.999981 19.995995C 36.999981 19.995995 36.999981 18.995995 37.999981 18.995995"/>
      </g>
    </g>
  </g>
  <g id="g-root-tx_1976_qqa3hz19uliip-stroke-fill" data-item-order="0" transform="translate(878, 398)">
    <g id="tx_1976_qqa3hz19uliip-fill" stroke="none" fill="#fb6762">
      <g>
        <text style="font: bold 20px Roboto, sans-serif; white-space: pre;" font-weight="bold" font-size="20px" font-family="Roboto, sans-serif">
          <tspan x="17.05" y="34" dominant-baseline="ideographic">1976</tspan>
        </text>
      </g>
    </g>
  </g>
  <g id="g-root-tx_evidence_detl4n19ulk3m-stroke-fill" data-item-order="0" transform="translate(770, 434)">
    <g id="tx_evidence_detl4n19ulk3m-fill" stroke="none" fill="#f4f4f4">
      <g>
        <text style="font: 15px Roboto, sans-serif; white-space: pre;" font-size="15px" font-family="Roboto, sans-serif">
          <tspan x="16.69" y="28" dominant-baseline="ideographic">Evidence of Hamilton's </tspan>
          <tspan x="45" y="46" dominant-baseline="ideographic">hoax emerges</tspan>
        </text>
      </g>
    </g>
    <defs>
      <pattern id="crawlingPattern-0000001b" x="0" y="0" width="12" height="12" patternUnits="userSpaceOnUse" fill="#0000001b">
        <use href="#crawlingSymbol"/>
      </pattern>
      <symbol id="crawlingSymbol">
        <g>
          <path d="M -12.5 12.5 l 13 -13 l 6 0 l -13 13 Z M -0.5 12.5 l 13 -13 l 6 0 l -13 13 Z M 11.5 12.5 l 13 -13 l 6 0 l -13 13 Z"/>
        </g>
      </symbol>
      <pattern id="crawlingPattern-00b15c75" x="0" y="0" width="12" height="12" patternUnits="userSpaceOnUse" fill="#00b15c75">
        <use href="#crawlingSymbol"/>
      </pattern>
      <pattern id="crawlingPattern-00000024" x="0" y="0" width="12" height="12" patternUnits="userSpaceOnUse" fill="#00000024">
        <use href="#crawlingSymbol"/>
      </pattern>
      <pattern id="crawlingPattern-0060fba2" x="0" y="0" width="12" height="12" patternUnits="userSpaceOnUse" fill="#0060fba2">
        <use href="#crawlingSymbol"/>
      </pattern>
      <pattern id="crawlingPattern-5c87005e" x="0" y="0" width="12" height="12" patternUnits="userSpaceOnUse" fill="#5c87005e">
        <use href="#crawlingSymbol"/>
      </pattern>
      <pattern id="crawlingPattern-f9080081" x="0" y="0" width="12" height="12" patternUnits="userSpaceOnUse" fill="#f9080081">
        <use href="#crawlingSymbol"/>
      </pattern>
    </defs>
  </g>
  <g id="g-root-ic_chap_3zjuf19uliir-stroke-fill" data-item-order="0" transform="translate(830.1309814453125, 170)">
    <g id="ic_chap_3zjuf19uliir-stroke" fill="none" stroke-linecap="round" stroke-linejoin="round" stroke-miterlimit="4" stroke="#fb6762" stroke-width="2">
      <g>
        <path d="M 11 57C 11.001667 53.663197 13.074248 50.677883 16.200001 49.509998L 23.764 46.495998C 24.057098 46.379215 24.388124 46.407604 24.657059 46.572586C 24.925995 46.737572 25.101297 47.019798 25.130001 47.334L 26 57M 10 10M 51.799999 49.509998L 44.236 46.495998C 43.942902 46.379215 43.611877 46.407604 43.342941 46.572586C 43.074005 46.737572 42.898705 47.019798 42.869999 47.334L 42 57M 10 10M 37 57L 34.947998 50.846001C 34.811256 50.438702 34.429638 50.164268 34 50.164268C 33.570362 50.164268 33.188744 50.438702 33.052002 50.846001L 31 57M 32 30C 31.568378 29.323767 30.799957 28.939556 30 29C 29.200041 28.939556 28.43162 29.323767 28 30M 40 30C 39.568378 29.323767 38.799957 28.939556 38 29C 37.200043 28.939556 36.431618 29.323767 36 30M 17 23.42C 28.235312 25.528009 39.76469 25.528009 51.000004 23.420002M 33.959999 45C 36.742001 45 42.959999 41.557999 43.854 36.27C 43.96405 35.612404 44.394562 35.052887 45.001999 34.778C 47.164001 33.798 47.706001 29.874001 45.959999 29C 46.959999 23.028 46 11 34 11C 22 11 20.964001 23.028 21.959999 29C 20.212 29.874001 20.76 33.799999 22.917999 34.778C 23.52544 35.052887 23.955952 35.612404 24.066 36.27C 24.952 41.557999 31.176001 45 33.959999 45ZM 35.720001 39L 32.279999 39C 31.97221 38.999916 31.681606 38.858097 31.492155 38.61552C 31.302704 38.372948 31.235516 38.056641 31.309999 37.757999L 31.809999 35.757999C 31.92107 35.312672 32.32103 35.000126 32.779999 35L 35.220001 35C 35.67897 35.000126 36.07893 35.312672 36.190002 35.757999L 36.690002 37.757999C 36.764484 38.056641 36.697296 38.372948 36.507843 38.61552C 36.318394 38.858097 36.02779 38.999916 35.720001 39ZM 17 23.42C 28.235312 25.528009 39.76469 25.528009 51.000004 23.420002M 49 39C 49 36.790863 50.790859 35 53 35C 55.209141 35 57 36.790863 57 39L 57 57"/>
      </g>
    </g>
  </g>
</svg>
