<?xml version='1.0' encoding='utf-8'?>
<svg xmlns="http://www.w3.org/2000/svg" xmlns:xlink="http://www.w3.org/1999/xlink" width="912" height="576" viewBox="0 0 912 576" style="fill:none;stroke:none;fill-rule:evenodd;clip-rule:evenodd;stroke-linecap:round;stroke-linejoin:round;stroke-miterlimit:1.5;" version="1.1">
  <style class="text-font-style fontImports" data-font-family="Roboto">@import url('https://fonts.googleapis.com/css2?family=Roboto:wght@400;700&amp;display=block');</style>
  <rect x="0" y="0" width="912" height="576" fill="#252a34" stroke="none" id="programmatic_background"/>
  <g id="g-root-tf_1hd7qdj1c21fk3-stroke-fill" data-item-order="-490176" transform="translate(12, 12)">
    <g id="tf_1hd7qdj1c21fk3-fill" stroke="none" fill="#2c2c2c">
      <g>
        <path d="M 0 0L 888 0L 888 552L 0 552Z"/>
      </g>
    </g>
    <defs>
      <pattern id="crawlingPattern-8484841a" x="0" y="0" width="12" height="12" patternUnits="userSpaceOnUse" fill="#8484841a">
        <use href="#crawlingSymbol"/>
      </pattern>
      <symbol id="crawlingSymbol">
        <g>
          <path d="M -12.5 12.5 l 13 -13 l 6 0 l -13 13 Z M -0.5 12.5 l 13 -13 l 6 0 l -13 13 Z M 11.5 12.5 l 13 -13 l 6 0 l -13 13 Z"/>
        </g>
      </symbol>
      <pattern id="crawlingPattern-f576002d" x="0" y="0" width="12" height="12" patternUnits="userSpaceOnUse" fill="#f576002d">
        <use href="#crawlingSymbol"/>
      </pattern>
      <pattern id="crawlingPattern-00d16d21" x="0" y="0" width="12" height="12" patternUnits="userSpaceOnUse" fill="#00d16d21">
        <use href="#crawlingSymbol"/>
      </pattern>
      <pattern id="crawlingPattern-f908001a" x="0" y="0" width="12" height="12" patternUnits="userSpaceOnUse" fill="#f908001a">
        <use href="#crawlingSymbol"/>
      </pattern>
      <pattern id="crawlingPattern-0060fb20" x="0" y="0" width="12" height="12" patternUnits="userSpaceOnUse" fill="#0060fb20">
        <use href="#crawlingSymbol"/>
      </pattern>
      <pattern id="crawlingPattern-0000001b" x="0" y="0" width="12" height="12" patternUnits="userSpaceOnUse" fill="#0000001b">
        <use href="#crawlingSymbol"/>
      </pattern>
      <pattern id="crawlingPattern-c1c1c11a" x="0" y="0" width="12" height="12" patternUnits="userSpaceOnUse" fill="#c1c1c11a">
        <use href="#crawlingSymbol"/>
      </pattern>
      <pattern id="crawlingPattern-0059ff37" x="0" y="0" width="12" height="12" patternUnits="userSpaceOnUse" fill="#0059ff37">
        <use href="#crawlingSymbol"/>
      </pattern>
      <pattern id="crawlingPattern-ff7b003a" x="0" y="0" width="12" height="12" patternUnits="userSpaceOnUse" fill="#ff7b003a">
        <use href="#crawlingSymbol"/>
      </pattern>
      <pattern id="crawlingPattern-ff0b0038" x="0" y="0" width="12" height="12" patternUnits="userSpaceOnUse" fill="#ff0b0038">
        <use href="#crawlingSymbol"/>
      </pattern>
      <pattern id="crawlingPattern-00ff873a" x="0" y="0" width="12" height="12" patternUnits="userSpaceOnUse" fill="#00ff873a">
        <use href="#crawlingSymbol"/>
      </pattern>
      <pattern id="crawlingPattern-5f5f5f1a" x="0" y="0" width="12" height="12" patternUnits="userSpaceOnUse" fill="#5f5f5f1a">
        <use href="#crawlingSymbol"/>
      </pattern>
    </defs>
  </g>
  <g id="g-root-cp_5_g-5_4pfupz1c2cmx5-stroke-fill" data-item-order="-383030" transform="translate(230, 362)">
    <g id="cp_5_g-5_4pfupz1c2cmx5-fill" stroke="none" fill="#b7b7b7">
      <g>
        <path d="M 226 34L 226 10L 305.5 82L 226 154L 226 130L 131 130C 61.9645 130 10 79.0356 10 10.000008L 106.0001 10C 106.0001 23.8071 117.193 33.9999 131 34L 226 34Z"/>
      </g>
    </g>
    <g id="cp_5_g-5_4pfupz1c2cmx5-stroke" fill="none" stroke-linecap="round" stroke-linejoin="round" stroke-miterlimit="4" stroke="#2c2c2c" stroke-width="2">
      <g>
        <path d="M 226.0001 34L 226.0001 10L 305.5002 82L 226.0001 154L 226.0001 130.0001L 131.0001 130C 61.9645 130 10 79.0356 10 10L 106.0001 10C 106.0001 23.8071 117.1931 33.9999 131.0001 34L 226.0001 34Z"/>
      </g>
    </g>
  </g>
  <g id="g-root-cp_4_g-4_9mclj1c2cnpf-stroke-fill" data-item-order="-383026" transform="translate(230, 242)">
    <g id="cp_4_g-4_9mclj1c2cnpf-fill" stroke="none" fill="#f79438">
      <g>
        <path d="M 226 10.000008L 131 10C 61.9645 9.999991 10.000006 60.9644 10 130L 106.0001 130C 106.0001 116.193 117.193 106.0001 131 106L 226 106L 226 10.000008Z"/>
      </g>
    </g>
    <g id="cp_4_g-4_9mclj1c2cnpf-stroke" fill="none" stroke-linecap="round" stroke-linejoin="round" stroke-miterlimit="4" stroke="#2c2c2c" stroke-width="2">
      <g>
        <path d="M 226.0001 10L 131.0001 10C 61.9645 10 10 60.9644 10 130L 106.0001 130C 106.0001 116.1929 117.1931 106.0001 131.0001 106L 226.0001 106L 226.0001 10Z"/>
      </g>
    </g>
  </g>
  <g id="g-root-cp_3_g-3_1qf3ebr1c2cob1-stroke-fill" data-item-order="-383022" transform="translate(446, 218)">
    <g id="cp_3_g-3_1qf3ebr1c2cob1-fill" stroke="none" fill="#43dd93">
      <g>
        <path d="M 10 130L 105 130C 174.036 130 226 79.0356 226 10.000008L 130 10C 130 23.8071 118.807 33.9999 105 34L 10 34L 10 130Z"/>
      </g>
    </g>
    <g id="cp_3_g-3_1qf3ebr1c2cob1-stroke" fill="none" stroke-linecap="round" stroke-linejoin="round" stroke-miterlimit="4" stroke="#2c2c2c" stroke-width="2">
      <g>
        <path d="M 10 130L 105 130C 174.0356 130 226.0001 79.0356 226.0001 10L 130 10C 130 23.8071 118.8071 33.9999 105 34L 10 34L 10 130Z"/>
      </g>
    </g>
  </g>
  <g id="g-root-cp_2_g-2_1lz9w7b1c2cp3b-stroke-fill" data-item-order="-383018" transform="translate(446, 98)">
    <g id="cp_2_g-2_1lz9w7b1c2cp3b-fill" stroke="none" fill="#fb6762">
      <g>
        <path d="M 10 10L 105 10C 174.036 9.999997 226 60.9644 226 130L 130 130C 130 116.193 118.807 106.0001 105 106L 10 106L 10 10Z"/>
      </g>
    </g>
    <g id="cp_2_g-2_1lz9w7b1c2cp3b-stroke" fill="none" stroke-linecap="round" stroke-linejoin="round" stroke-miterlimit="4" stroke="#2c2c2c" stroke-width="2">
      <g>
        <path d="M 10 10L 105 10C 174.0356 10 226.0001 60.9644 226.0001 130L 130 130C 130 116.1929 118.8071 106.0001 105 106L 10 106L 10 10Z"/>
      </g>
    </g>
  </g>
  <g id="g-root-cp_1_g-1_1ha39s71c2e1a9-stroke-fill" data-item-order="-383014" transform="translate(230, 98)">
    <g id="cp_1_g-1_1ha39s71c2e1a9-fill" stroke="none" fill="#4f91fc">
      <g>
        <path d="M 10 10L 226 10L 226 106L 10 106L 10 10Z"/>
      </g>
    </g>
    <g id="cp_1_g-1_1ha39s71c2e1a9-stroke" fill="none" stroke-linecap="round" stroke-linejoin="round" stroke-miterlimit="4" stroke="#2c2c2c" stroke-width="2">
      <g>
        <path d="M 10 10L 226 10L 226 106L 10 106L 10 10Z"/>
      </g>
    </g>
  </g>
  <g id="g-root-ic_kid_hs5pvr1c2e230-stroke-fill" data-item-order="-3600" transform="translate(308, 116)">
    <g id="ic_kid_hs5pvr1c2e230-fill" stroke="none" fill="#f4f4f4">
      <g>
        <path d="M 32.627499 27.17C 32.688187 31.2521 30.545174 35.050358 27.019737 37.109127C 23.494305 39.167896 19.133196 39.167896 15.607761 37.109127C 12.082327 35.050358 9.93931 31.2521 10 27.17C 10.091922 20.987171 15.130238 16.023205 21.313749 16.023205C 27.497261 16.023205 32.535576 20.987171 32.627499 27.17ZM 41.8125 38.419998C 41.6175 38.419998 41.427502 38.442501 41.247498 38.482498L 33.112499 38.482498C 30.93 38.482498 28.747499 39.575001 27.657501 41.7575L 18.1075 60.852501C 16.4725 63.852501 17.8375 67.399994 20.8375 69.037498C 21.655001 69.310005 22.747499 69.582504 23.565001 69.582504C 25.747499 69.582504 27.93 68.489998 29.02 66.307503L 34.477501 55.397499L 39.3125 55.355L 39.3125 59.227501C 39.3125 60.608212 40.431789 61.727501 41.8125 61.727501L 48.032501 61.727501C 48.3825 62.827499 48.900002 63.860001 49.6325 64.805C 51.897503 68.074997 55.6675 69.832504 59.692501 69.832504L 64.467499 69.832504C 67.511299 69.806717 69.972839 67.346283 70.000008 64.302505C 70 61.3825 67.645004 58.934998 64.759995 58.552498C 67.172501 53.6875 67.065002 48.872498 64.647499 45.052498C 61.954998 40.802502 56.792496 38.419998 50.827499 38.419998L 41.8125 38.419998ZM 58.4375 56.727501L 60.077499 56.727501C 62.094997 52.959999 61.772499 49.862499 60.422501 47.727501C 58.872498 45.282501 55.549999 43.419998 50.827499 43.419998L 44.3125 43.419998L 44.3125 56.727501L 47.372501 56.727501C 47.415844 53.696404 49.871212 51.254356 52.902504 51.227501C 56.160004 51.227497 58.667496 53.477501 58.4375 56.727501Z"/>
      </g>
    </g>
  </g>
  <g id="g-root-ic_netw_mb3lfr1c2ffv1-stroke-fill" data-item-order="-3600" transform="translate(308, 260)">
    <g id="ic_netw_mb3lfr1c2ffv1-fill" stroke="none" fill="#f4f4f4">
      <g>
        <path d="M 40 47.5C 50.355339 47.5 58.75 39.105339 58.75 28.750002C 58.75 18.394663 50.355339 10.000001 40.000004 10.000001C 35.067612 9.93327 30.312832 11.839145 26.792082 15.294174C 23.271334 18.749203 21.276213 23.46723 21.25 28.4C 21.152901 38.852173 29.547823 47.403797 40.000004 47.500004ZM 26.65 31.700001C 26.612856 31.518215 26.6584 31.329327 26.774305 31.184444C 26.890209 31.039562 27.064497 30.953665 27.25 30.950001L 30.424999 30.950001C 30.734619 30.946014 31.000483 31.169338 31.049999 31.475C 31.487617 34.241577 32.329975 36.928696 33.549999 39.450001C 33.677563 39.701859 33.603405 40.009064 33.375 40.174999C 33.1558 40.350498 32.844196 40.350498 32.625 40.174999C 29.621979 38.218914 27.483479 35.185646 26.65 31.700001ZM 39.525002 15.675C 39.635151 15.52154 39.811138 15.428914 39.999996 15.424999C 40.195816 15.428748 40.379509 15.520593 40.499996 15.674999C 42.846443 18.608414 44.319332 22.143347 44.75 25.875C 44.778675 26.048199 44.722942 26.22468 44.599998 26.35C 44.483688 26.475441 44.321053 26.547726 44.150002 26.549999L 35.875 26.549999C 35.703949 26.547726 35.541309 26.475441 35.424999 26.35C 35.302055 26.22468 35.246326 26.048199 35.274998 25.875C 35.705669 22.143347 37.178558 18.608414 39.525002 15.675ZM 43.900002 30.950001C 44.08667 30.947325 44.26667 31.019325 44.400002 31.15C 44.50322 31.304371 44.547581 31.490677 44.525002 31.674999C 43.848911 35.141838 42.489128 38.439312 40.525002 41.375C 40.425598 41.570858 40.2192 41.688797 40 41.674999C 39.785053 41.67194 39.586761 41.558632 39.474998 41.375C 37.527866 38.433014 36.177322 35.137344 35.5 31.674999C 35.476563 31.498501 35.521263 31.319704 35.625 31.175001C 35.748116 31.026995 35.932575 30.943989 36.125 30.950001ZM 47.5 40.25C 47.275208 40.408775 46.974789 40.408775 46.749996 40.25C 46.539085 40.071663 46.477165 39.772385 46.599998 39.524998C 47.816986 36.993721 48.659142 34.298817 49.099998 31.525C 49.149517 31.219339 49.415379 30.996016 49.725002 31L 52.924999 31C 53.110504 31.003666 53.28479 31.089561 53.400696 31.234444C 53.516602 31.379326 53.562145 31.568218 53.525002 31.75C 52.704464 35.261742 50.541832 38.312759 47.5 40.25ZM 53.449997 25.800001C 53.498146 25.9849 53.451305 26.181637 53.325001 26.325001C 53.207432 26.466166 53.033707 26.548456 52.849998 26.549999L 49.775002 26.549999C 49.452671 26.564539 49.176556 26.32156 49.149998 26C 48.927448 23.410757 48.276951 20.876362 47.224998 18.5C 47.109875 18.209248 47.22736 17.878159 47.5 17.725C 47.719196 17.5495 48.0308 17.5495 48.25 17.725C 50.89497 19.702084 52.733551 22.570974 53.425003 25.800001ZM 31.949999 17.5C 32.169197 17.324499 32.480797 17.324499 32.700001 17.5C 32.928406 17.665936 33.00256 17.973143 32.875 18.225C 31.770069 20.674961 31.093594 23.296307 30.874998 25.975C 30.848438 26.29656 30.572327 26.539537 30.249998 26.525L 27.174999 26.525C 26.982576 26.531012 26.798119 26.448004 26.674999 26.299999C 26.613447 26.139015 26.613447 25.960983 26.674999 25.800001C 27.273537 22.44734 29.16868 19.465408 31.949999 17.5ZM 18.75 61C 21.787567 61.000004 24.25 58.537567 24.25 55.5C 24.25 52.462433 21.787565 50.000004 18.75 50.000004C 15.712434 50 13.25 52.462433 13.25 55.5C 13.25 58.537567 15.712434 61.000004 18.75 61.000004ZM 18.75 63C 14.875379 63.008675 11.441194 65.496193 10.225 69.175003C 10.139282 69.357086 10.139282 69.567917 10.225 69.75C 10.355472 69.905518 10.547029 69.996735 10.75 70L 26.674999 70C 26.877972 69.996735 27.069529 69.905518 27.200001 69.75C 27.285717 69.567917 27.285717 69.357086 27.200001 69.175003C 25.992632 65.522194 22.596954 63.040737 18.75 63ZM 55.75 55.5C 55.750004 58.537567 58.212437 61.000004 61.250004 61.000004C 64.287567 61.000004 66.75 58.537567 66.75 55.5C 66.75 52.462433 64.287567 50 61.250004 50C 58.212437 50 55.750004 52.462433 55.750004 55.5M 61.25 63C 57.370304 62.993031 53.927914 65.486496 52.724995 69.174995C 52.639999 69.34848 52.639999 69.551521 52.724998 69.724998C 52.845592 69.895752 53.040958 69.998085 53.25 69.999992L 69.099998 70C 69.309036 69.998085 69.504402 69.895752 69.625 69.724998C 69.709999 69.551521 69.709999 69.34848 69.625 69.175003C 68.439545 65.538597 65.074318 63.057369 61.249996 62.999996ZM 34.5 55.5C 34.5 58.537567 36.962437 61.000004 40.000004 61.000004C 43.037567 61.000004 45.5 58.537567 45.5 55.5C 45.5 52.462433 43.037567 50 40.000004 50C 36.962437 50 34.5 52.462433 34.5 55.5M 40 63C 36.120308 62.993031 32.677914 65.486496 31.474998 69.174995C 31.389997 69.34848 31.389997 69.551521 31.475 69.724998C 31.595594 69.895752 31.790958 69.998085 31.999998 69.999992L 47.850002 70C 48.059036 69.998085 48.254402 69.895752 48.375 69.724998C 48.460003 69.551521 48.460003 69.34848 48.375 69.175003C 47.189541 65.538597 43.824318 63.057369 39.999996 62.999996Z"/>
      </g>
    </g>
  </g>
  <g id="g-root-ic_conf_zqaybr1c2gxe6-stroke-fill" data-item-order="-3600" transform="translate(308, 404)">
    <g id="ic_conf_zqaybr1c2gxe6-fill" stroke="none" fill="#f4f4f4">
      <g>
        <path d="M 23.915001 35.695C 23.99 35.695 24.057501 35.645 24.077499 35.57L 29.8225 12.59C 30.175951 11.272583 31.520166 10.481642 32.843445 10.812462C 34.166729 11.143283 34.980591 12.473742 34.672501 13.8025L 28.9275 36.779999C 28.353188 39.081451 26.285776 40.69635 23.91375 40.69635C 21.541721 40.69635 19.474312 39.081451 18.9 36.779999L 13.155 13.8025C 12.92091 12.929979 13.175745 11.999039 13.821585 11.367389C 14.467425 10.735739 15.403796 10.501646 16.270903 10.755059C 17.138008 11.008472 17.800951 11.709969 18.004999 12.59L 23.75 35.567501C 23.77 35.642502 23.8375 35.695 23.915001 35.695ZM 49.419998 47.82C 49.419998 42.994999 53.595001 39.305 58.169998 39.305C 61.822502 39.305 65.524994 41.594997 66.777504 45.137501C 67.237671 46.43943 66.55545 47.86792 65.253601 48.328327C 63.951752 48.788738 62.523136 48.106762 62.062496 46.804996C 61.599998 45.4925 59.959999 44.305 58.169998 44.305C 56.102501 44.305 54.419998 46 54.419998 47.817501C 54.419998 49.2575 55.400002 50.514999 56.795002 50.862499L 60.327499 51.744999C 64.202286 52.712448 66.920746 56.193764 66.919998 60.187496L 66.919998 60.555C 66.920006 65.387489 63.002495 69.305008 58.170006 69.305C 54.517498 69.305 50.815002 67.012497 49.5625 63.470001C 49.103119 62.168102 49.785912 60.740273 51.087704 60.280571C 52.389488 59.820869 53.817486 60.503319 54.2775 61.805C 54.739998 63.1175 56.380001 64.305 58.169998 64.305C 60.24107 64.305 61.920006 62.626072 61.920006 60.555L 61.919998 60.1875C 61.919945 58.488823 60.763237 57.0084 59.114998 56.5975L 55.584999 55.714996C 51.96093 54.809536 49.41877 51.552971 49.420002 47.817501ZM 54.457504 18.035C 55.319283 16.955986 55.14307 15.382644 54.06395 14.521002C 52.984825 13.659361 51.411507 13.835768 50.549999 14.915L 33.650002 36.077499L 33.645 36.0825C 31.744999 38.477501 32.939999 42.0825 35.895 42.864998L 35.899998 42.864998L 41.587502 44.389999L 27.237499 62.627502C 26.418882 63.713661 26.618771 65.254982 27.68737 66.09639C 28.75597 66.937798 30.30117 66.770561 31.164999 65.720001L 46.199997 46.6175L 46.199997 46.614998C 47.086163 45.486595 47.347176 43.988899 46.894966 42.627251C 46.44276 41.265598 45.337646 40.2216 43.952499 39.8475L 43.947502 39.8475L 38.255001 38.322502L 54.454998 18.035Z"/>
      </g>
    </g>
  </g>
  <g id="g-root-ic_ufo_18f2ts71c1x7v3-stroke-fill" data-item-order="-3600" transform="translate(524, 116)">
    <g id="ic_ufo_18f2ts71c1x7v3-fill" stroke="none" fill="#f4f4f4">
      <g>
        <path d="M 60.974998 46.849998C 60.615849 45.510906 59.239243 44.716423 57.900101 45.075371C 56.560951 45.434315 55.766258 46.810799 56.124996 48.149998L 61.424999 68.150002C 61.632301 69.03978 62.30846 69.745621 63.188519 69.990936C 64.068573 70.236252 65.012367 69.981964 65.650055 69.327721C 66.28775 68.673485 66.517776 67.723488 66.25 66.849998ZM 22.275 45C 20.942989 44.650688 19.579304 45.444305 19.225 46.775002L 13.925 66.774994C 13.657223 67.648483 13.887249 68.59848 14.52494 69.252724C 15.162632 69.906967 16.106422 70.161255 16.986483 69.915939C 17.866543 69.670624 18.5427 68.964783 18.75 68.074997L 24.049999 48.074997C 24.225351 47.431747 24.136497 46.745102 23.803185 46.167675C 23.469872 45.590244 22.91972 45.169876 22.275 45ZM 45 59.825001C 46.504318 59.685478 47.654873 58.423275 47.654873 56.912498C 47.654873 55.401726 46.504318 54.139519 45 54L 36.349998 54C 34.84568 54.139519 33.695126 55.401726 33.695126 56.912498C 33.695126 58.423275 34.84568 59.685478 36.349998 59.825001L 37.799999 59.825001L 37.799999 60.224998L 34 65.375C 33.04731 66.66597 33.321537 68.48481 34.612499 69.4375C 35.903465 70.39019 37.722309 70.115967 38.674999 68.825005L 40.75 66.025002L 42.75 68.850006C 43.723404 70.161682 45.575825 70.435905 46.887505 69.462502C 48.199177 68.489098 48.473404 66.636673 47.500004 65.325005L 43.75 60.200001L 43.75 59.825001ZM 45 47.799999C 45.010124 46.02824 43.950634 44.425301 42.316635 43.74025C 40.68264 43.055199 38.796787 43.423306 37.540356 44.672558C 36.283928 45.92181 35.905014 47.805519 36.580692 49.443417C 37.256367 51.081314 38.85321 52.149971 40.625004 52.150002C 41.783016 52.156654 42.895889 51.701294 43.717087 50.884785C 44.538284 50.068283 45.000019 48.958038 45 47.799999ZM 68.699997 33.75C 69.070732 33.753845 69.425468 33.599216 69.674995 33.324997C 69.929268 33.058884 70.040787 32.687134 69.974998 32.325001C 69.112411 27.30501 64.717842 23.664097 59.625 23.750002L 20.375 23.75C 15.272765 23.651617 10.863997 27.295488 10 32.325001C 9.934211 32.687134 10.045734 33.058884 10.3 33.325001C 10.549526 33.599216 10.904265 33.753845 11.275 33.749996L 14.1 33.75C 14.355394 33.753315 14.583072 33.911701 14.675 34.150002C 14.874434 34.652969 15.099734 35.145294 15.35 35.625004C 17.581713 39.860214 21.975267 42.51128 26.762501 42.51128C 31.549732 42.51128 35.943291 39.860214 38.174999 35.625C 38.425266 35.145294 38.650566 34.652969 38.850002 34.150002C 38.935871 33.907017 39.16732 33.74601 39.424999 33.749996L 40.574997 33.75C 40.83268 33.74601 41.064125 33.907017 41.149998 34.150002C 41.349434 34.652969 41.574738 35.145294 41.825001 35.625004C 44.056709 39.860214 48.450268 42.51128 53.237499 42.51128C 58.024731 42.51128 62.418289 39.860214 64.650002 35.625C 64.900269 35.145294 65.125572 34.652969 65.325005 34.150002C 65.410873 33.907017 65.642311 33.74601 65.899994 33.749996ZM 26.75 37.5C 24.462233 37.479118 22.290703 36.488758 20.775 34.775002C 20.653473 34.575375 20.653473 34.324623 20.775 34.125C 20.858223 33.926567 21.03767 33.784897 21.25 33.75L 32.25 33.75C 32.499306 33.74913 32.725281 33.896507 32.825001 34.125C 32.959209 34.320885 32.959209 34.579117 32.825001 34.775002C 31.292141 36.522888 29.074753 37.517517 26.75 37.5ZM 53.25 37.5C 50.960125 37.488667 48.784878 36.496609 47.275002 34.775002C 47.140789 34.579117 47.140789 34.320885 47.275002 34.125C 47.374722 33.896507 47.600697 33.74913 47.850002 33.75L 58.850002 33.75C 59.090191 33.758846 59.304024 33.904644 59.400002 34.125C 59.53421 34.320885 59.53421 34.579117 59.400002 34.775002C 57.850033 36.542931 55.600834 37.539528 53.250004 37.5ZM 40 10C 33.096817 9.935684 26.62034 13.333488 22.75 19.049999C 22.651831 19.246769 22.651831 19.478231 22.75 19.674999C 22.863773 19.872168 23.072403 19.995449 23.299999 20L 56.875 20C 57.129063 20.023737 57.37352 19.89662 57.499996 19.674999C 57.598167 19.478231 57.598167 19.246769 57.5 19.049999C 53.580826 13.258596 46.99128 9.850858 39.999996 10Z"/>
      </g>
    </g>
  </g>
  <g id="g-root-ic_1_14494cn1c1ylfs-stroke-fill" data-item-order="-3600" transform="translate(524, 260)">
    <g id="ic_1_14494cn1c1ylfs-fill" stroke="none" fill="#f4f4f4">
      <g>
        <path d="M 25.725 10L 40.549999 10C 42.357498 10 43.822502 11.3175 43.822502 12.945L 43.822502 15.995C 43.822502 17.622499 42.357498 18.942499 40.547501 18.942499L 25.727499 18.942499C 23.92 18.942499 22.452499 17.622499 22.452499 15.997499L 22.452499 12.945C 22.452499 11.32 23.92 10 25.727499 10ZM 37.637501 40C 37.637501 42.485283 35.622784 44.5 33.137501 44.5C 30.65222 44.5 28.637501 42.485283 28.637501 40C 28.637501 37.514721 30.65222 35.5 33.137501 35.5C 35.622784 35.5 37.637501 37.514721 37.637501 40ZM 61.412502 46.639999L 55.27 46.639999C 54.579643 46.639999 54.02 47.199646 54.02 47.889999L 54.02 53.979996L 47.932503 53.979996C 47.242142 53.979996 46.682503 54.539642 46.682503 55.229996L 46.682503 61.370003C 46.682503 62.060356 47.242142 62.620003 47.932503 62.620003L 54.02 62.620003L 54.02 68.709999C 54.02 69.40036 54.579643 69.959999 55.27 69.959999L 61.409996 69.959999C 62.100357 69.959999 62.659996 69.40036 62.659996 68.709999L 62.659996 62.620003L 68.75 62.620003C 69.440353 62.620003 70 62.060356 70 61.370003L 70 55.229996C 70 54.539642 69.440353 53.979996 68.75 53.979996L 62.659996 53.979996L 62.659996 47.889999C 62.659996 47.199646 62.100357 46.639999 61.409996 46.639999ZM 14.625 14.47L 18.700001 14.47L 18.700001 15.995C 18.700001 20.057499 22.23 22.692501 25.725 22.692501L 40.545002 22.692501C 44.0425 22.692501 47.57 20.057499 47.57 15.997499L 47.57 14.4725L 51.645004 14.4725C 54.198742 14.473879 56.26862 16.543755 56.269997 19.0975L 56.269997 42.889999L 55.27 42.889999C 52.508579 42.889999 50.27 45.128578 50.27 47.889999L 50.27 50.229996L 47.93 50.229996C 45.168575 50.229996 42.93 52.468575 42.93 55.229996L 42.93 61.370003C 42.93 64.131424 45.168575 66.370003 47.93 66.370003L 50.267502 66.370003L 50.267502 68.709999C 50.267502 69.154999 50.327499 69.587494 50.434998 70L 14.6275 70C 13.400007 70.000664 12.222599 69.513336 11.35463 68.64537C 10.486662 67.777397 9.999336 66.599991 10 65.372498L 10 19.0975C 10.00138 16.542778 12.072778 14.4725 14.6275 14.4725ZM 23.2325 34.412502C 25.695 32.412498 29.290001 30.182499 33.134998 30.182499C 36.985001 30.182499 40.574997 32.424999 43.035 34.43C 44.305 35.462502 45.360001 36.5075 46.110001 37.330002C 46.485001 37.737499 46.795002 38.105 47.02 38.395C 47.187428 38.607212 47.339481 38.831116 47.474998 39.064999L 47.477501 39.067501C 47.770191 39.594337 47.80069 40.227467 47.560001 40.779999C 47.5 40.9175 47.435001 41.035 47.389999 41.110001C 47.292439 41.271294 47.186462 41.427345 47.072502 41.577499C 46.785931 41.953705 46.482277 42.316586 46.162498 42.664997C 45.412498 43.489998 44.3475 44.540001 43.072502 45.574997C 40.5975 47.579998 36.98 49.817501 33.134998 49.817501C 29.2925 49.817501 25.68 47.592499 23.205 45.59C 21.93 44.557499 20.865 43.510002 20.115 42.68C 19.792202 42.328686 19.486034 41.962452 19.1975 41.582497C 19.082495 41.429947 18.975677 41.271393 18.877501 41.107502C 18.814157 41.001476 18.758192 40.891212 18.709999 40.7775L 18.709999 40.77C 18.583397 40.472027 18.531889 40.14753 18.559999 39.825001C 18.585245 39.576855 18.655563 39.3354 18.7675 39.112503L 18.77 39.105C 18.825001 38.997501 18.8825 38.904999 18.924999 38.834999C 19.014999 38.692501 19.125 38.540001 19.237499 38.395C 19.465 38.095001 19.7775 37.724998 20.1525 37.314999C 20.9025 36.489998 21.9625 35.445 23.2325 34.412502Z"/>
      </g>
    </g>
  </g>
  <g id="g-root-tx_theanton_13ymrev1c2e2v7-stroke-fill" data-item-order="0" transform="translate(212, 50)">
    <g id="tx_theanton_13ymrev1c2e2v7-fill" stroke="none" fill="#f4f4f4">
      <g>
        <text style="font: 20px Roboto, sans-serif; white-space: pre;" font-size="20px" font-family="Roboto, sans-serif">
          <tspan x="13.42" y="34" dominant-baseline="ideographic">The Antonio Villas-Boas Abduction Case: A Timeline</tspan>
        </text>
      </g>
    </g>
  </g>
  <g id="g-root-tx_may71934_1ly116v1c200sh-stroke-fill" data-item-order="0" transform="translate(86, 110)">
    <g id="tx_may71934_1ly116v1c200sh-fill" stroke="none" fill="#ebf2ff">
      <g>
        <text style="font: bold 20px Roboto, sans-serif; white-space: pre;" font-weight="bold" font-size="20px" font-family="Roboto, sans-serif">
          <tspan x="17.63" y="34" dominant-baseline="ideographic">May 7, 1934</tspan>
        </text>
      </g>
    </g>
  </g>
  <g id="g-root-tx_birthofa_zrjznr1c2000a-stroke-fill" data-item-order="0" transform="translate(50, 146)">
    <g id="tx_birthofa_zrjznr1c2000a-fill" stroke="none" fill="#ebf2ff">
      <g>
        <text style="font: 15px Roboto, sans-serif; white-space: pre;" font-size="15px" font-family="Roboto, sans-serif">
          <tspan x="15.05" y="28" dominant-baseline="ideographic">Birth of Antonio Villas-</tspan>
          <tspan x="130.19" y="46" dominant-baseline="ideographic">Boas</tspan>
        </text>
      </g>
    </g>
  </g>
  <g id="g-root-tx_january1_mg3haf1c201l7-stroke-fill" data-item-order="0" transform="translate(74, 254)">
    <g id="tx_january1_mg3haf1c201l7-fill" stroke="none" fill="#fff0e2">
      <g>
        <text style="font: bold 20px Roboto, sans-serif; white-space: pre;" font-weight="bold" font-size="20px" font-family="Roboto, sans-serif">
          <tspan x="16.56" y="34" dominant-baseline="ideographic">January 1965</tspan>
        </text>
      </g>
    </g>
  </g>
  <g id="g-root-tx_internat_4pfxvr1c200sk-stroke-fill" data-item-order="0" transform="translate(26, 290)">
    <g id="tx_internat_4pfxvr1c200sk-fill" stroke="none" fill="#fff0e2">
      <g>
        <text style="font: 15px Roboto, sans-serif; white-space: pre;" font-size="15px" font-family="Roboto, sans-serif">
          <tspan x="22.81" y="28" dominant-baseline="ideographic">International Exposure in </tspan>
          <tspan x="47.7" y="46" dominant-baseline="ideographic">Flying Saucer Review</tspan>
        </text>
      </g>
    </g>
  </g>
  <g id="g-root-tx_1991_1qf3hhj1c2026d-stroke-fill" data-item-order="0" transform="translate(146, 398)">
    <g id="tx_1991_1qf3hhj1c2026d-fill" stroke="none" fill="#f4f4f4">
      <g>
        <text style="font: bold 20px Roboto, sans-serif; white-space: pre;" font-weight="bold" font-size="20px" font-family="Roboto, sans-serif">
          <tspan x="22.09" y="34" dominant-baseline="ideographic">1991</tspan>
        </text>
      </g>
    </g>
  </g>
  <g id="g-root-tx_deathofa_1cu9utj1c21f5y-stroke-fill" data-item-order="0" transform="translate(38, 434)">
    <g id="tx_deathofa_1cu9utj1c21f5y-fill" stroke="none" fill="#f4f4f4">
      <g>
        <text style="font: 15px Roboto, sans-serif; white-space: pre;" font-size="15px" font-family="Roboto, sans-serif">
          <tspan x="19.53" y="28" dominant-baseline="ideographic">Death of Antonio Villas-</tspan>
          <tspan x="142.19" y="46" dominant-baseline="ideographic">Boas</tspan>
        </text>
      </g>
    </g>
  </g>
  <g id="g-root-tx_october1_zitcg71c21gqv-stroke-fill" data-item-order="0" transform="translate(686, 110)">
    <g id="tx_october1_zitcg71c21gqv-fill" stroke="none" fill="#ffe9e8">
      <g>
        <text style="font: bold 20px Roboto, sans-serif; white-space: pre;" font-weight="bold" font-size="20px" font-family="Roboto, sans-serif">
          <tspan x="12" y="34" dominant-baseline="ideographic">October 16, 1957</tspan>
        </text>
      </g>
    </g>
  </g>
  <g id="g-root-tx_allegeda_hs5t1j1c21fy8-stroke-fill" data-item-order="0" transform="translate(686, 146)">
    <g id="tx_allegeda_hs5t1j1c21fy8-fill" stroke="none" fill="#ffe9e8">
      <g>
        <text style="font: 15px Roboto, sans-serif; white-space: pre;" font-size="15px" font-family="Roboto, sans-serif">
          <tspan x="12" y="28" dominant-baseline="ideographic">Alleged Abduction by </tspan>
          <tspan x="12" y="46" dominant-baseline="ideographic">Aliens</tspan>
        </text>
      </g>
    </g>
  </g>
  <g id="g-root-tx_february_4hbrrb1c21edd-stroke-fill" data-item-order="0" transform="translate(686, 254)">
    <g id="tx_february_4hbrrb1c21edd-fill" stroke="none" fill="#dffff0">
      <g>
        <text style="font: bold 20px Roboto, sans-serif; white-space: pre;" font-weight="bold" font-size="20px" font-family="Roboto, sans-serif">
          <tspan x="12" y="34" dominant-baseline="ideographic">February 22, 1958</tspan>
        </text>
      </g>
    </g>
  </g>
  <g id="g-root-tx_medicale_1q6zbd31c21fr6-stroke-fill" data-item-order="0" transform="translate(686, 290)">
    <g id="tx_medicale_1q6zbd31c21fr6-fill" stroke="none" fill="#dffff0">
      <g>
        <text style="font: 15px Roboto, sans-serif; white-space: pre;" font-size="15px" font-family="Roboto, sans-serif">
          <tspan x="12" y="28" dominant-baseline="ideographic">Medical Examination by </tspan>
          <tspan x="12" y="46" dominant-baseline="ideographic">Dr. Olavo Fontes</tspan>
        </text>
      </g>
    </g>
  </g>
</svg>
