<?xml version='1.0' encoding='utf-8'?>
<svg xmlns="http://www.w3.org/2000/svg" xmlns:xlink="http://www.w3.org/1999/xlink" width="1056" height="708" viewBox="0 0 1056 708" style="fill:none;stroke:none;fill-rule:evenodd;clip-rule:evenodd;stroke-linecap:round;stroke-linejoin:round;stroke-miterlimit:1.5;" version="1.1">
  <style class="text-font-style fontImports" data-font-family="Roboto">@import url('https://fonts.googleapis.com/css2?family=Roboto:wght@400;700&amp;display=block');</style>
  <rect x="0" y="0" width="1056" height="708" fill="#252a34" stroke="none" id="programmatic_background"/>
  <g id="g-root-tf_i0wmkn1c1x6vc-stroke-fill" data-item-order="-699696" transform="translate(12, 12)"/>
  <g id="g-root-sy_4_cu_dhc6rr1c29wjk-stroke-fill" data-item-order="-317369" transform="translate(602, 386)">
    <g id="sy_4_cu_dhc6rr1c29wjk-stroke" fill="none" stroke-linecap="round" stroke-linejoin="round" stroke-miterlimit="4" stroke="#b7b7b7" stroke-width="2">
      <g>
        <path d="M 33.850586 154.000488L 45.850586 154.000488M 58.200195 70L 70.200195 70M 87.9997 10L 21.9997 238L 10 238"/>
      </g>
    </g>
  </g>
  <g id="g-root-sy_3_cu_6i5hj1c29uyp-stroke-fill" data-item-order="-317365" transform="translate(602, 158.00048828125)">
    <g id="sy_3_cu_6i5hj1c29uyp-stroke" fill="none" stroke-linecap="round" stroke-linejoin="round" stroke-miterlimit="4" stroke="#cb68f9" stroke-width="2">
      <g>
        <path d="M 33.84668 93.999512L 45.84668 93.999512M 58.195313 177.999512L 70.195313 177.999512M 87.9997 238L 21.9997 10L 10 10"/>
      </g>
    </g>
  </g>
  <g id="g-root-sy_2_cu_1qbz77r1c29vka-stroke-fill" data-item-order="-317361" transform="translate(290, 385.99951171875)">
    <g id="sy_2_cu_1qbz77r1c29vka-stroke" fill="none" stroke-linecap="round" stroke-linejoin="round" stroke-miterlimit="4" stroke="#fb6762" stroke-width="2">
      <g>
        <path d="M 33.851563 154.000488L 45.851563 154.000488M 58.200195 70.000488L 70.200195 70.000488M 87.9997 10L 21.9997 238L 10 238"/>
      </g>
    </g>
  </g>
  <g id="g-root-sy_1_cu_1lw5p3b1c29wcj-stroke-fill" data-item-order="-317357" transform="translate(290, 158.00048828125)">
    <g id="sy_1_cu_1lw5p3b1c29wcj-stroke" fill="none" stroke-linecap="round" stroke-linejoin="round" stroke-miterlimit="4" stroke="#43dd93" stroke-width="2">
      <g>
        <path d="M 33.851563 93.999512L 45.851563 93.999512M 58.200195 177.999512L 70.200195 177.999512M 87.9997 238L 21.9997 10L 10 10"/>
      </g>
    </g>
  </g>
  <g id="g-root-sy_-1_line_1d155xj1c29tzg-stroke-fill" data-item-order="-317351" transform="translate(26, 386)">
    <g id="sy_-1_line_1d155xj1c29tzg-stroke" fill="none" stroke-linecap="round" stroke-linejoin="round" stroke-miterlimit="4" stroke="#f4f4f4" stroke-width="2">
      <g>
        <path d="M 704 10L 10 10"/>
        <path d="M 698 16.5L 704.5 10L 698 3.5" stroke-dasharray="none"/>
      </g>
    </g>
  </g>
  <g id="g-root-tx_credibil_zponk71c29vkd-stroke-fill" data-item-order="0" transform="translate(794, 362)">
    <g id="tx_credibil_zponk71c29vkd-fill" stroke="none" fill="#f4f4f4">
      <g>
        <text style="font: 20px Roboto, sans-serif; white-space: pre;" font-size="20px" font-family="Roboto, sans-serif">
          <tspan x="12" y="34" dominant-baseline="ideographic">Credibility of the Villas-</tspan>
          <tspan x="12" y="58" dominant-baseline="ideographic">Boas Abduction Case</tspan>
        </text>
      </g>
    </g>
  </g>
  <g id="g-root-tx_psycholo_hz145j1c29urq-stroke-fill" data-item-order="0" transform="translate(506, 422)">
    <g id="tx_psycholo_hz145j1c29urq-fill" stroke="none" fill="#f4f4f4">
      <g>
        <text style="font: 20px Roboto, sans-serif; white-space: pre;" font-size="20px" font-family="Roboto, sans-serif">
          <tspan x="16.25" y="34" dominant-baseline="ideographic">Psychological </tspan>
          <tspan x="25.63" y="58" dominant-baseline="ideographic">Explanations</tspan>
        </text>
      </g>
    </g>
  </g>
  <g id="g-root-tx_hoaxhypo_4nkls71c29wcn-stroke-fill" data-item-order="0" transform="translate(458, 518)">
    <g id="tx_hoaxhypo_4nkls71c29wcn-fill" stroke="none" fill="#f4f4f4">
      <g>
        <text style="font: 20px Roboto, sans-serif; white-space: pre;" font-size="20px" font-family="Roboto, sans-serif">
          <tspan x="12.52" y="34" dominant-baseline="ideographic">Hoax Hypothesis</tspan>
        </text>
      </g>
    </g>
  </g>
  <g id="g-root-tx_skeptica_1ly14cn1c29vcw-stroke-fill" data-item-order="0" transform="translate(338, 602)">
    <g id="tx_skeptica_1ly14cn1c29vcw-fill" stroke="none" fill="#f4f4f4">
      <g>
        <text style="font: 20px Roboto, sans-serif; white-space: pre;" font-size="20px" font-family="Roboto, sans-serif">
          <tspan x="23.39" y="34" dominant-baseline="ideographic">Skeptical Explanations</tspan>
        </text>
      </g>
    </g>
  </g>
  <g id="g-root-tx_lackofev_18n732f1c29ts1-stroke-fill" data-item-order="0" transform="translate(446, 302)">
    <g id="tx_lackofev_18n732f1c29ts1-fill" stroke="none" fill="#f4f4f4">
      <g>
        <text style="font: 20px Roboto, sans-serif; white-space: pre;" font-size="20px" font-family="Roboto, sans-serif">
          <tspan x="19.69" y="34" dominant-baseline="ideographic">Lack of Evidence for </tspan>
          <tspan x="148.36" y="58" dominant-baseline="ideographic">Burns</tspan>
        </text>
      </g>
    </g>
  </g>
  <g id="g-root-tx_reported_mg3kg71c29w5m-stroke-fill" data-item-order="0" transform="translate(422, 230)">
    <g id="tx_reported_mg3kg71c29w5m-fill" stroke="none" fill="#f4f4f4">
      <g>
        <text style="font: 20px Roboto, sans-serif; white-space: pre;" font-size="20px" font-family="Roboto, sans-serif">
          <tspan x="18.05" y="34" dominant-baseline="ideographic">Reported Symptoms</tspan>
        </text>
      </g>
    </g>
  </g>
  <g id="g-root-tx_physical_959j5z1c29ukr-stroke-fill" data-item-order="0" transform="translate(386, 146)">
    <g id="tx_physical_959j5z1c29ukr-fill" stroke="none" fill="#f4f4f4">
      <g>
        <text style="font: 20px Roboto, sans-serif; white-space: pre;" font-size="20px" font-family="Roboto, sans-serif">
          <tspan x="16.88" y="34" dominant-baseline="ideographic">Physical Evidence</tspan>
        </text>
      </g>
    </g>
  </g>
  <g id="g-root-tx_diagnosi_1q5qgcn1c2b85g-stroke-fill" data-item-order="0" transform="translate(122, 422)">
    <g id="tx_diagnosi_1q5qgcn1c2b85g-fill" stroke="none" fill="#f4f4f4">
      <g>
        <text style="font: 20px Roboto, sans-serif; white-space: pre;" font-size="20px" font-family="Roboto, sans-serif">
          <tspan x="11.58" y="34" dominant-baseline="ideographic">Diagnosis of Radiation </tspan>
          <tspan x="132.36" y="58" dominant-baseline="ideographic">Sickness</tspan>
        </text>
      </g>
    </g>
  </g>
  <g id="g-root-tx_drfontes_13ymxqf1c2baj1-stroke-fill" data-item-order="0" transform="translate(170, 506)">
    <g id="tx_drfontes_13ymxqf1c2baj1-fill" stroke="none" fill="#f4f4f4">
      <g>
        <text style="font: 20px Roboto, sans-serif; white-space: pre;" font-size="20px" font-family="Roboto, sans-serif">
          <tspan x="46.8" y="34" dominant-baseline="ideographic">Dr. Fontes' </tspan>
          <tspan x="17.98" y="58" dominant-baseline="ideographic">Qualifications</tspan>
        </text>
      </g>
    </g>
  </g>
  <g id="g-root-tx_medicale_qnswg71c2b8y6-stroke-fill" data-item-order="0" transform="translate(50, 602)">
    <g id="tx_medicale_qnswg71c2b8y6-fill" stroke="none" fill="#f4f4f4">
      <g>
        <text style="font: 20px Roboto, sans-serif; white-space: pre;" font-size="20px" font-family="Roboto, sans-serif">
          <tspan x="14.27" y="34" dominant-baseline="ideographic">Medical Examination</tspan>
        </text>
      </g>
    </g>
  </g>
  <g id="g-root-tx_consiste_8x5d1j1c2b85j-stroke-fill" data-item-order="0" transform="translate(110, 314)">
    <g id="tx_consiste_8x5d1j1c2b85j-fill" stroke="none" fill="#f4f4f4">
      <g>
        <text style="font: 20px Roboto, sans-serif; white-space: pre;" font-size="20px" font-family="Roboto, sans-serif">
          <tspan x="12.61" y="34" dominant-baseline="ideographic">Consistency of Account</tspan>
        </text>
      </g>
    </g>
  </g>
  <g id="g-root-tx_personal_1q6zeiv1c2babk-stroke-fill" data-item-order="0" transform="translate(98, 230)">
    <g id="tx_personal_1q6zeiv1c2babk-fill" stroke="none" fill="#f4f4f4">
      <g>
        <text style="font: 20px Roboto, sans-serif; white-space: pre;" font-size="20px" font-family="Roboto, sans-serif">
          <tspan x="22.33" y="34" dominant-baseline="ideographic">Personal Background</tspan>
        </text>
      </g>
    </g>
  </g>
  <g id="g-root-tx_witnessc_1hbce9z1c2bb49-stroke-fill" data-item-order="0" transform="translate(62, 146)">
    <g id="tx_witnessc_1hbce9z1c2bb49-fill" stroke="none" fill="#f4f4f4">
      <g>
        <text style="font: 20px Roboto, sans-serif; white-space: pre;" font-size="20px" font-family="Roboto, sans-serif">
          <tspan x="23.41" y="34" dominant-baseline="ideographic">Witness Credibility</tspan>
        </text>
      </g>
    </g>
  </g>
  <g id="g-root-tx_analyzin_140iczr1c2b9je-stroke-fill" data-item-order="0" transform="translate(326, 50)">
    <g id="tx_analyzin_140iczr1c2b9je-fill" stroke="none" fill="#f4f4f4">
      <g>
        <text style="font: 20px Roboto, sans-serif; white-space: pre;" font-size="20px" font-family="Roboto, sans-serif">
          <tspan x="17.39" y="34" dominant-baseline="ideographic">Analyzing the Villas-Boas Abduction Case</tspan>
        </text>
      </g>
    </g>
    <defs>
      <pattern id="crawlingPattern-0000001b" x="0" y="0" width="12" height="12" patternUnits="userSpaceOnUse" fill="#0000001b">
        <use href="#crawlingSymbol"/>
      </pattern>
      <symbol id="crawlingSymbol">
        <g>
          <path d="M -12.5 12.5 l 13 -13 l 6 0 l -13 13 Z M -0.5 12.5 l 13 -13 l 6 0 l -13 13 Z M 11.5 12.5 l 13 -13 l 6 0 l -13 13 Z"/>
        </g>
      </symbol>
    </defs>
  </g>
  <g id="g-root-ic_agre_qp1umf1c2bb4b-stroke-fill" data-item-order="0" transform="translate(254, 140)">
    <g id="ic_agre_qp1umf1c2bb4b-stroke" fill="none" stroke-linecap="round" stroke-linejoin="round" stroke-miterlimit="4" stroke="#f4f4f4" stroke-width="2">
      <g>
        <path d="M 33.137501 14.5135L 28.585001 20.799999C 28.211102 21.297703 27.504402 21.397795 27.007 21.023499C 26.965088 20.991861 26.925488 20.957275 26.8885 20.92L 24.6385 18.549999M 39.25 10.75C 40.078426 10.75 40.75 11.421573 40.75 12.25L 40.75 24.25C 40.75 25.078428 40.078426 25.75 39.25 25.75L 33.25 25.75L 33.25 30.25L 28.75 25.75L 27.25 25.75L 22.75 30.25L 22.75 25.75L 18.25 25.75C 17.421574 25.75 16.75 25.078428 16.75 24.25L 16.75 12.25C 16.75 11.421573 17.421574 10.75 18.25 10.75ZM 13.195 34.371998C 13.195 36.650173 15.041825 38.497002 17.32 38.497002C 19.598175 38.497002 21.445 36.650173 21.445 34.372002C 21.445 32.093826 19.598175 30.247 17.32 30.247C 15.041825 30.247 13.195 32.093826 13.195 34.372002M 23.8885 45.25C 23.194515 42.179966 20.466743 39.999985 17.31925 39.999985C 14.171757 39.999985 11.443983 42.179966 10.75 45.249996M 34.555 34.371998C 34.555 36.650173 36.401825 38.497002 38.68 38.497002C 40.958176 38.497002 42.805 36.650173 42.805 34.372002C 42.805 32.093826 40.958176 30.247 38.68 30.247C 36.401825 30.247 34.555 32.093826 34.555 34.372002M 45.25 45.25C 44.556015 42.179966 41.828243 39.999985 38.680748 39.999985C 35.533257 39.999985 32.805481 42.179966 32.1115 45.249996"/>
      </g>
    </g>
  </g>
  <g id="g-root-ic_1_1cyn9l31c2cpos-stroke-fill" data-item-order="0" transform="translate(254, 596)">
    <g id="ic_1_1cyn9l31c2cpos-stroke" fill="none" stroke-linecap="round" stroke-linejoin="round" stroke-miterlimit="4" stroke="#f4f4f4" stroke-width="2">
      <g>
        <path d="M 21.915955 34.815849L 18.844105 34.815849L 18.844105 27.511L 11.539 27.511L 11.539 18.910061L 18.844105 18.910061L 18.844105 11.605285L 27.44515 11.605285L 27.44515 18.910061L 34.74955 18.910061L 34.74955 22.011475M 34.682198 43.416252C 39.432102 43.416252 43.282448 39.56575 43.282448 34.816002C 43.282448 30.066101 39.432102 26.215599 34.682198 26.215599C 29.932449 26.215599 26.081951 30.066101 26.081951 34.816002C 26.081951 39.56575 29.932449 43.416252 34.682198 43.416252ZM 10 10M 40.761101 40.893402L 44.71735 44.849499"/>
      </g>
    </g>
  </g>
  <g id="g-root-ic_1_zp26h31c2e3np-stroke-fill" data-item-order="0" transform="translate(566, 140)">
    <g id="ic_1_zp26h31c2e3np-stroke" fill="none" stroke-linecap="round" stroke-linejoin="round" stroke-miterlimit="4" stroke="#f4f4f4" stroke-width="2">
      <g>
        <path d="M 24.889 31.8715C 15.139 31.8715 16.021 23.0035 16.021 23.0035C 26.661999 23.0035 24.889 31.8715 24.889 31.8715ZM 31.111 31.8715C 40.861 31.8715 39.979 23.0035 39.979 23.0035C 29.338001 23.0035 31.111 31.8715 31.111 31.8715ZM 43.75 25.375C 43.75 34.903 32.5 44.875 28 44.875C 23.5 44.875 12.25 34.900002 12.25 25.375C 12.25 15.85 18.472 11.125 28 11.125C 37.528 11.125 43.75 15.85 43.75 25.375Z"/>
      </g>
    </g>
  </g>
  <g id="g-root-ic_shop_8vwevb1c2gw0e-stroke-fill" data-item-order="0" transform="translate(566, 596)">
    <g id="ic_shop_8vwevb1c2gw0e-stroke" fill="none" stroke-linecap="round" stroke-linejoin="round" stroke-miterlimit="4" stroke="#f4f4f4" stroke-width="2">
      <g>
        <path d="M 10.75 28C 10.75 37.526913 18.473087 45.25 28 45.25C 37.526913 45.25 45.25 37.526913 45.25 28C 45.25 18.473087 37.526913 10.75 28 10.75C 18.473087 10.75 10.75 18.473087 10.75 28M 16 28C 16 34.627419 21.372583 40 28 40C 34.627419 40 40 34.627419 40 28C 40 21.372583 34.627419 16 28 16C 21.372583 16 16 21.372583 16 28M 22.645 29.275002C 27.325001 28.674999 32.77 26.275002 32.424999 23.424999C 32.110001 20.889999 28.809999 20.950001 26.83 22C 22.719999 24.205 20.695 32.5 25 34.420002C 28.389999 35.920002 31.285 31.719999 31.285 31.719999"/>
      </g>
    </g>
  </g>
  <g id="g-root-ic_ufo_3ds1z1c2ibd3-stroke-fill" data-item-order="0" transform="translate(734, 362)">
    <g id="ic_ufo_3ds1z1c2ibd3-stroke" fill="none" stroke-linecap="round" stroke-linejoin="round" stroke-miterlimit="4" stroke="#f4f4f4" stroke-width="2">
      <g>
        <path d="M 49 22.5C 52.977859 22.499041 56.352161 25.420879 56.919998 29.358C 56.961449 29.646814 56.874687 29.939325 56.682472 30.158836C 56.490257 30.378345 56.211758 30.502958 55.919998 30.5L 12.07 30.5C 11.778242 30.502958 11.499743 30.378345 11.307528 30.158836C 11.115312 29.939325 11.028553 29.646814 11.07 29.358C 11.638377 25.417118 15.018346 22.494064 19 22.5ZM 19 22.5C 19 17.5 25.716 11.5 34 11.5C 42.284 11.5 49 17.5 49 22.5M 47.77 39.5L 52.995998 56.5M 14.996 56.5L 20.232 39.5M 34.996002 49.5L 31.996 53.652M 37.996002 53.5L 34.996002 49.5M 31.996 46.5L 37.996002 46.5M 35 41.5C 35.552284 41.5 36 41.947716 36 42.5M 34 42.5C 34 41.947716 34.447716 41.5 35 41.5M 35 43.5C 34.447716 43.5 34 43.052284 34 42.5M 36 42.5C 36 43.052284 35.552284 43.5 35 43.5M 34.996002 49.5L 34.996002 46.5M 25 30.5C 25 33.261421 22.761425 35.5 20 35.5C 17.238577 35.5 15 33.261421 15 30.5M 39 30.5C 39 33.261421 36.761425 35.5 34 35.5C 31.238577 35.5 29 33.261421 29 30.5M 53 30.5C 53 33.261421 50.761425 35.5 48 35.5C 45.238575 35.5 43 33.261421 43 30.5"/>
      </g>
    </g>
  </g>
</svg>
