<svg width="792" height="396" viewBox="0 0 792 396" style="fill:none;stroke:none;fill-rule:evenodd;clip-rule:evenodd;stroke-linecap:round;stroke-linejoin:round;stroke-miterlimit:1.5;" version="1.1" xmlns="http://www.w3.org/2000/svg" xmlns:xlink="http://www.w3.org/1999/xlink"><style class="text-font-style fontImports" data-font-family="Roboto">@import url('https://fonts.googleapis.com/css2?family=Roboto:wght@400;700&amp;display=block');</style><g id="g-root-tf_v7zn1j19ud4az-stroke-fill" data-item-order="-281232" transform="translate(18, 12)"><g id="tf_v7zn1j19ud4az-fill" stroke="none" fill="#2c2c2c"><g><path d="M 0 0L 756 0L 756 372L 0 372Z"></path></g></g><defs><pattern id="crawlingPattern-8ed00028" x="0" y="0" width="12" height="12" patternUnits="userSpaceOnUse" fill="#8ed00028"><use href="#crawlingSymbol"></use></pattern><symbol id="crawlingSymbol"><g><animateTransform attributeName="transform" type="translate" from="0 0" to="-12 0" dur="0.4s" repeatCount="indefinite"></animateTransform><path d="M -12.5 12.5 l 13 -13 l 6 0 l -13 13 Z M -0.5 12.5 l 13 -13 l 6 0 l -13 13 Z M 11.5 12.5 l 13 -13 l 6 0 l -13 13 Z"></path></g></symbol><pattern id="crawlingPattern-ffe50099" x="0" y="0" width="12" height="12" patternUnits="userSpaceOnUse" fill="#ffe50099"><use href="#crawlingSymbol"></use></pattern><pattern id="crawlingPattern-00d16d21" x="0" y="0" width="12" height="12" patternUnits="userSpaceOnUse" fill="#00d16d21"><use href="#crawlingSymbol"></use></pattern><pattern id="crawlingPattern-00bcfb62" x="0" y="0" width="12" height="12" patternUnits="userSpaceOnUse" fill="#00bcfb62"><use href="#crawlingSymbol"></use></pattern><pattern id="crawlingPattern-b5b5b51a" x="0" y="0" width="12" height="12" patternUnits="userSpaceOnUse" fill="#b5b5b51a"><use href="#crawlingSymbol"></use></pattern><pattern id="crawlingPattern-c1c1c11a" x="0" y="0" width="12" height="12" patternUnits="userSpaceOnUse" fill="#c1c1c11a"><use href="#crawlingSymbol"></use></pattern><pattern id="crawlingPattern-acff003c" x="0" y="0" width="12" height="12" patternUnits="userSpaceOnUse" fill="#acff003c"><use href="#crawlingSymbol"></use></pattern><pattern id="crawlingPattern-ffe7003d" x="0" y="0" width="12" height="12" patternUnits="userSpaceOnUse" fill="#ffe7003d"><use href="#crawlingSymbol"></use></pattern><pattern id="crawlingPattern-00ff873a" x="0" y="0" width="12" height="12" patternUnits="userSpaceOnUse" fill="#00ff873a"><use href="#crawlingSymbol"></use></pattern><pattern id="crawlingPattern-00baff39" x="0" y="0" width="12" height="12" patternUnits="userSpaceOnUse" fill="#00baff39"><use href="#crawlingSymbol"></use></pattern><pattern id="crawlingPattern-0000001b" x="0" y="0" width="12" height="12" patternUnits="userSpaceOnUse" fill="#0000001b"><use href="#crawlingSymbol"></use></pattern><pattern id="crawlingPattern-5f5f5f1a" x="0" y="0" width="12" height="12" patternUnits="userSpaceOnUse" fill="#5f5f5f1a"><use href="#crawlingSymbol"></use></pattern></defs><g id="tf_v7zn1j19ud4az-fill-overlay" stroke="none" fill="url(#crawlingPattern-5f5f5f1a)"><g><path d="M 0 0L 756 0L 756 372L 0 372Z"></path></g></g></g><g id="g-root-sy_4_Vector_18mkiuf19u38y4-stroke-fill" data-item-order="-83154" transform="translate(472.36199951171875, 218)"><g id="sy_4_Vector_18mkiuf19u38y4-fill" stroke="none" fill="#a6da37"><g><path d="M 23.966 58.893L 10 46L 23.966 33.108L 23.966 40.284L 50.089 40.284C 52.828 23.118 67.701 10 85.638 10C 105.52 10 121.638 26.118 121.638 46C 121.638 65.882 105.52 82 85.638 82C 67.726 82 52.869 68.918 50.101 51.788L 23.966 51.788L 23.966 58.893Z"></path></g></g><g id="sy_4_Vector_18mkiuf19u38y4-fill-overlay" stroke="none" fill="url(#crawlingPattern-8ed00028)"><g><path d="M 23.966 58.893L 10 46L 23.966 33.108L 23.966 40.284L 50.089 40.284C 52.828 23.118 67.701 10 85.638 10C 105.52 10 121.638 26.118 121.638 46C 121.638 65.882 105.52 82 85.638 82C 67.726 82 52.869 68.918 50.101 51.788L 23.966 51.788L 23.966 58.893Z"></path></g></g><g id="sy_4_Vector_18mkiuf19u38y4-stroke" fill="none" stroke-linecap="round" stroke-linejoin="round" stroke-miterlimit="4" stroke="#2c2c2c" stroke-width="2"><g><path d="M 23.966 58.893L 10 46L 23.966 33.108L 23.966 40.284L 50.089 40.284C 52.828 23.118 67.701 10 85.638 10C 105.52 10 121.638 26.118 121.638 46C 121.638 65.882 105.52 82 85.638 82C 67.726 82 52.869 68.918 50.101 51.788L 23.966 51.788L 23.966 58.893Z"></path></g></g><g id="sy_4_Vector_18mkiuf19u38y4-stroke-overlay" fill="none" stroke-linecap="round" stroke-linejoin="round" stroke-miterlimit="4" stroke="#ffffff29" stroke-width="2" stroke-dasharray="4,6"><animate attributeName="stroke-dashoffset" values="30;0" dur="1s" repeatCount="indefinite" begin="0"></animate><g><path d="M 23.966 58.893L 10 46L 23.966 33.108L 23.966 40.284L 50.089 40.284C 52.828 23.118 67.701 10 85.638 10C 105.52 10 121.638 26.118 121.638 46C 121.638 65.882 105.52 82 85.638 82C 67.726 82 52.869 68.918 50.101 51.788L 23.966 51.788L 23.966 58.893Z"></path></g></g></g><g id="g-root-sy_3_Vector_146r0pz19u39qd-stroke-fill" data-item-order="-83150" transform="translate(188, 218)"><g id="sy_3_Vector_146r0pz19u39qd-fill" stroke="none" fill="#ffe711"><g><path d="M 107.735 58.892L 121.701 46L 107.735 33.107L 107.735 40.284L 81.549 40.284C 78.81 23.118 63.937 10 46 10C 26.118 10 10 26.118 10 46C 10 65.882 26.118 82 46 82C 63.912 82 78.769 68.918 81.537 51.787L 107.735 51.787L 107.735 58.892Z"></path></g></g><g id="sy_3_Vector_146r0pz19u39qd-fill-overlay" stroke="none" fill="url(#crawlingPattern-ffe50099)"><g><path d="M 107.735 58.892L 121.701 46L 107.735 33.107L 107.735 40.284L 81.549 40.284C 78.81 23.118 63.937 10 46 10C 26.118 10 10 26.118 10 46C 10 65.882 26.118 82 46 82C 63.912 82 78.769 68.918 81.537 51.787L 107.735 51.787L 107.735 58.892Z"></path></g></g><g id="sy_3_Vector_146r0pz19u39qd-stroke" fill="none" stroke-linecap="round" stroke-linejoin="round" stroke-miterlimit="4" stroke="#2c2c2c" stroke-width="2"><g><path d="M 107.735 58.892L 121.701 46L 107.735 33.107L 107.735 40.284L 81.549 40.284C 78.81 23.118 63.937 10 46 10C 26.118 10 10 26.118 10 46C 10 65.882 26.118 82 46 82C 63.912 82 78.769 68.918 81.537 51.787L 107.735 51.787L 107.735 58.892Z"></path></g></g><g id="sy_3_Vector_146r0pz19u39qd-stroke-overlay" fill="none" stroke-linecap="round" stroke-linejoin="round" stroke-miterlimit="4" stroke="#ffffff29" stroke-width="2" stroke-dasharray="4,6"><animate attributeName="stroke-dashoffset" values="30;0" dur="1s" repeatCount="indefinite" begin="0"></animate><g><path d="M 107.735 58.892L 121.701 46L 107.735 33.107L 107.735 40.284L 81.549 40.284C 78.81 23.118 63.937 10 46 10C 26.118 10 10 26.118 10 46C 10 65.882 26.118 82 46 82C 63.912 82 78.769 68.918 81.537 51.787L 107.735 51.787L 107.735 58.892Z"></path></g></g></g><g id="g-root-sy_2_Vector_146r0pz19u39qe-stroke-fill" data-item-order="-83146" transform="translate(458.1210021972656, 116)"><g id="sy_2_Vector_146r0pz19u39qe-fill" stroke="none" fill="#43dd93"><g><path d="M 28.925998 94.116L 9.999998 92.435L 13.168998 73.69L 17.553998 79.375L 38.171998 63.451L 38.310998 63.336C 36.236998 59.562 34.810998 55.349 34.199998 50.825C 31.536998 31.122 45.350998 12.991 65.053998 10.3285C 84.757998 7.666 102.888998 21.48 105.550998 41.183C 108.213998 60.887 94.398998 79.017 74.695998 81.68C 63.603998 83.179 53.009998 79.456 45.393998 72.4L 45.209998 72.557L 24.583998 88.487L 28.925998 94.116Z"></path></g></g><g id="sy_2_Vector_146r0pz19u39qe-fill-overlay" stroke="none" fill="url(#crawlingPattern-00d16d21)"><g><path d="M 28.925998 94.116L 9.999998 92.435L 13.168998 73.69L 17.553998 79.375L 38.171998 63.451L 38.310998 63.336C 36.236998 59.562 34.810998 55.349 34.199998 50.825C 31.536998 31.122 45.350998 12.991 65.053998 10.3285C 84.757998 7.666 102.888998 21.48 105.550998 41.183C 108.213998 60.887 94.398998 79.017 74.695998 81.68C 63.603998 83.179 53.009998 79.456 45.393998 72.4L 45.209998 72.557L 24.583998 88.487L 28.925998 94.116Z"></path></g></g><g id="sy_2_Vector_146r0pz19u39qe-stroke" fill="none" stroke-linecap="round" stroke-linejoin="round" stroke-miterlimit="4" stroke="#2c2c2c" stroke-width="2"><g><path d="M 28.925998 94.116L 9.999998 92.435L 13.168998 73.69L 17.553998 79.375L 38.171998 63.451L 38.310998 63.336C 36.236998 59.562 34.810998 55.349 34.199998 50.825C 31.536998 31.122 45.350998 12.991 65.053998 10.3285C 84.757998 7.666 102.888998 21.48 105.550998 41.183C 108.213998 60.887 94.398998 79.017 74.695998 81.68C 63.603998 83.179 53.009998 79.456 45.393998 72.4L 45.209998 72.557L 24.583998 88.487L 28.925998 94.116Z"></path></g></g><g id="sy_2_Vector_146r0pz19u39qe-stroke-overlay" fill="none" stroke-linecap="round" stroke-linejoin="round" stroke-miterlimit="4" stroke="#ffffff29" stroke-width="2" stroke-dasharray="4,6"><animate attributeName="stroke-dashoffset" values="30;0" dur="1s" repeatCount="indefinite" begin="0"></animate><g><path d="M 28.925998 94.116L 9.999998 92.435L 13.168998 73.69L 17.553998 79.375L 38.171998 63.451L 38.310998 63.336C 36.236998 59.562 34.810998 55.349 34.199998 50.825C 31.536998 31.122 45.350998 12.991 65.053998 10.3285C 84.757998 7.666 102.888998 21.48 105.550998 41.183C 108.213998 60.887 94.398998 79.017 74.695998 81.68C 63.603998 83.179 53.009998 79.456 45.393998 72.4L 45.209998 72.557L 24.583998 88.487L 28.925998 94.116Z"></path></g></g></g><g id="g-root-sy_1_Vector_vb40h319u3aj3-stroke-fill" data-item-order="-83142" transform="translate(218.00013732910156, 115.9990463256836)"><g id="sy_1_Vector_vb40h319u3aj3-fill" stroke="none" fill="#1ac3fb"><g><path d="M 86.975863 94.101954L 105.903863 92.443954L 102.756863 73.694954L 98.364863 79.374954L 77.737863 63.404954L 77.594863 63.287954C 79.653863 59.526954 81.070863 55.330954 81.679863 50.827954C 84.343863 31.124954 70.530863 12.992754 50.827863 10.328854C 31.124863 7.664854 12.992863 21.477954 10.328863 41.180954C 7.664863 60.883954 21.477863 79.015954 41.180863 81.679954C 52.288863 83.181954 62.897863 79.445954 70.517863 72.369954L 70.695863 72.508954L 91.323863 88.478954L 86.975863 94.101954Z"></path></g></g><g id="sy_1_Vector_vb40h319u3aj3-fill-overlay" stroke="none" fill="url(#crawlingPattern-00bcfb62)"><g><path d="M 86.975863 94.101954L 105.903863 92.443954L 102.756863 73.694954L 98.364863 79.374954L 77.737863 63.404954L 77.594863 63.287954C 79.653863 59.526954 81.070863 55.330954 81.679863 50.827954C 84.343863 31.124954 70.530863 12.992754 50.827863 10.328854C 31.124863 7.664854 12.992863 21.477954 10.328863 41.180954C 7.664863 60.883954 21.477863 79.015954 41.180863 81.679954C 52.288863 83.181954 62.897863 79.445954 70.517863 72.369954L 70.695863 72.508954L 91.323863 88.478954L 86.975863 94.101954Z"></path></g></g><g id="sy_1_Vector_vb40h319u3aj3-stroke" fill="none" stroke-linecap="round" stroke-linejoin="round" stroke-miterlimit="4" stroke="#2c2c2c" stroke-width="2"><g><path d="M 86.975863 94.101954L 105.903863 92.443954L 102.756863 73.694954L 98.364863 79.374954L 77.737863 63.404954L 77.594863 63.287954C 79.653863 59.526954 81.070863 55.330954 81.679863 50.827954C 84.343863 31.124954 70.530863 12.992754 50.827863 10.328854C 31.124863 7.664854 12.992863 21.477954 10.328863 41.180954C 7.664863 60.883954 21.477863 79.015954 41.180863 81.679954C 52.288863 83.181954 62.897863 79.445954 70.517863 72.369954L 70.695863 72.508954L 91.323863 88.478954L 86.975863 94.101954Z"></path></g></g><g id="sy_1_Vector_vb40h319u3aj3-stroke-overlay" fill="none" stroke-linecap="round" stroke-linejoin="round" stroke-miterlimit="4" stroke="#ffffff29" stroke-width="2" stroke-dasharray="4,6"><animate attributeName="stroke-dashoffset" values="30;0" dur="1s" repeatCount="indefinite" begin="0"></animate><g><path d="M 86.975863 94.101954L 105.903863 92.443954L 102.756863 73.694954L 98.364863 79.374954L 77.737863 63.404954L 77.594863 63.287954C 79.653863 59.526954 81.070863 55.330954 81.679863 50.827954C 84.343863 31.124954 70.530863 12.992754 50.827863 10.328854C 31.124863 7.664854 12.992863 21.477954 10.328863 41.180954C 7.664863 60.883954 21.477863 79.015954 41.180863 81.679954C 52.288863 83.181954 62.897863 79.445954 70.517863 72.369954L 70.695863 72.508954L 91.323863 88.478954L 86.975863 94.101954Z"></path></g></g></g><g id="g-root-cr_0_cr-big_qvaicn19u3bbc-stroke-fill" data-item-order="-83138" transform="translate(314, 182)"><g id="cr_0_cr-big_qvaicn19u3bbc-fill" stroke="none" fill="#e8e8e8"><g><path d="M 10 82C 10.000001 121.764503 42.235499 154.000001 82.000001 154.000001C 121.764503 154.000001 154.000001 121.764503 154.000001 82.000001C 154.000001 42.235499 121.764503 10.000001 82.000001 10.000001C 42.235499 10.000001 10.000001 42.235499 10.000001 82.000001"></path></g></g><g id="cr_0_cr-big_qvaicn19u3bbc-fill-overlay" stroke="none" fill="url(#crawlingPattern-b5b5b51a)"><g><path d="M 10 82C 10.000001 121.764503 42.235499 154.000001 82.000001 154.000001C 121.764503 154.000001 154.000001 121.764503 154.000001 82.000001C 154.000001 42.235499 121.764503 10.000001 82.000001 10.000001C 42.235499 10.000001 10.000001 42.235499 10.000001 82.000001"></path></g></g><g id="cr_0_cr-big_qvaicn19u3bbc-stroke" fill="none" stroke-linecap="round" stroke-linejoin="round" stroke-miterlimit="4" stroke="#2c2c2c" stroke-width="2"><g><path d="M 10 82C 10.000001 121.764503 42.235499 154.000001 82.000001 154.000001C 121.764503 154.000001 154.000001 121.764503 154.000001 82.000001C 154.000001 42.235499 121.764503 10.000001 82.000001 10.000001C 42.235499 10.000001 10.000001 42.235499 10.000001 82.000001"></path></g></g><g id="cr_0_cr-big_qvaicn19u3bbc-stroke-overlay" fill="none" stroke-linecap="round" stroke-linejoin="round" stroke-miterlimit="4" stroke="#ffffff29" stroke-width="2" stroke-dasharray="4,6"><animate attributeName="stroke-dashoffset" values="30;0" dur="1s" repeatCount="indefinite" begin="0"></animate><g><path d="M 10 82C 10.000001 121.764503 42.235499 154.000001 82.000001 154.000001C 121.764503 154.000001 154.000001 121.764503 154.000001 82.000001C 154.000001 42.235499 121.764503 10.000001 82.000001 10.000001C 42.235499 10.000001 10.000001 42.235499 10.000001 82.000001"></path></g></g></g><g id="g-root-ic_star_2r7tz19ubqj1-stroke-fill" data-item-order="-5184" transform="translate(350, 218)"><g id="ic_star_2r7tz19ubqj1-fill" stroke="none" fill="#f4f4f4"><g><path d="M 28.99 44.709999C 29.140028 44.344807 29.140028 43.935192 28.99 43.57L 27.039999 38.050003C 26.907297 37.646057 26.609398 37.317406 26.22039 37.145782C 25.831381 36.974163 25.387814 36.975697 25 37.150002L 12.73 41.650002C 11.17304 42.21386 10.367386 43.93259 10.93 45.489998L 11.92 48.189999C 12.48386 49.74696 14.20259 50.552612 15.76 49.989998L 28.150002 45.489998C 28.520498 45.348679 28.821657 45.069031 28.99 44.709999ZM 40 82C 41.656857 82 43 80.656853 43 79L 43 67C 43.013615 66.661728 43.243881 66.370865 43.57 66.279999C 43.900032 66.184143 44.251801 66.3349 44.409996 66.639999L 52.060001 80.409996C 52.888271 81.860077 54.735336 82.363998 56.185272 81.535477C 57.635201 80.70694 58.138794 78.859779 57.309998 77.409996L 42.639999 50.98C 42.111645 50.025055 41.106369 49.432369 40.014999 49.432369C 38.92363 49.432369 37.918358 50.025055 37.389999 50.98L 22.84 77.5C 22.035667 78.949661 22.559656 80.776901 24.01 81.580002C 24.452267 81.818726 24.947422 81.94252 25.450001 81.940002C 26.510752 81.916809 27.480362 81.335045 28 80.409996L 35.650002 66.639999C 35.808197 66.3349 36.159966 66.184143 36.489998 66.279999C 36.798122 66.384048 37.004082 66.674812 37 67L 37 79C 37 80.656853 38.343143 82 40 82ZM 10 10M 41.5 26.559999L 33.279999 29.559999C 30.996212 30.391348 29.815527 32.913719 30.639999 35.199997L 33.639999 43.48C 34.236126 45.275715 35.917931 46.485649 37.810001 46.480003C 38.320034 46.486172 38.827354 46.404999 39.310001 46.240002L 47.5 43.239998C 47.878487 43.099842 48.189507 42.820995 48.369995 42.459999C 48.520027 42.094807 48.520027 41.685192 48.369999 41.32L 43.389999 27.52C 43.273499 27.137329 43.006081 26.818663 42.649437 26.63751C 42.292797 26.45636 41.877735 26.42837 41.5 26.559999ZM 56.829998 43C 57.224289 42.992634 57.616604 42.942337 57.999996 42.849998L 70.75 39.310001C 71.956642 38.967541 72.960373 38.127464 73.510002 37C 74.064621 35.900787 74.151184 34.624012 73.75 33.459999L 67.899994 17.290001C 67.489662 16.126055 66.607315 15.18924 65.470001 14.71C 64.33165 14.214174 63.038353 14.214174 61.900002 14.71L 49.900002 20.17C 47.792595 21.127258 46.77412 23.542873 47.560001 25.720001L 52.630001 40C 53.260395 41.783295 54.938648 42.982048 56.830002 43ZM 67 73.360001C 67.256882 74.10022 67.95649 74.594772 68.739998 74.590004C 69.528885 74.589577 70.23452 74.099213 70.510002 73.360001L 73 66.699997C 73.065536 66.50135 73.221352 66.345535 73.419998 66.279999L 80.080002 63.760002C 80.803787 63.486603 81.282738 62.793701 81.282738 62.02C 81.282738 61.246307 80.803787 60.553398 80.080002 60.279999L 73.389999 57.760002C 73.191353 57.694466 73.035538 57.538647 72.970001 57.34L 70.479996 50.68C 70.154182 50.007271 69.472481 49.579983 68.724998 49.579983C 67.977524 49.579983 67.295822 50.007271 66.970001 50.68L 64.479996 57.34C 64.393921 57.535767 64.231232 57.687607 64.029999 57.759998L 57.369999 60.279999C 56.646217 60.553398 56.167267 61.246307 56.167267 62.02C 56.167267 62.793701 56.646217 63.486603 57.369999 63.760002L 64.029999 66.279999C 64.237595 66.341629 64.404221 66.497139 64.479996 66.699997ZM 10 10M 11.71 21.67L 17.17 23.710001C 17.371235 23.782389 17.53392 23.934229 17.619999 24.129999L 19.66 29.59C 19.886274 30.162519 20.439386 30.53866 21.055 30.53866C 21.670612 30.53866 22.223726 30.162519 22.450001 29.59L 24.49 24.130001C 24.589384 23.92136 24.776173 23.767534 24.999998 23.709999L 30.43 21.67C 31.018408 21.448114 31.411123 20.88879 31.42 20.26C 31.350943 19.668894 30.938963 19.174517 30.369999 19L 25 16.809999C 24.796785 16.724827 24.635174 16.563215 24.549999 16.360001L 22.450001 10.93C 22.185627 10.401834 21.645638 10.068266 21.054998 10.068266C 20.464361 10.068266 19.924372 10.401834 19.66 10.93L 17.619999 16.360001C 17.534826 16.563215 17.373215 16.724827 17.17 16.809999L 11.71 19C 11.127895 19.2246 10.745608 19.786083 10.75 20.41C 10.810757 20.975857 11.180566 21.461231 11.71 21.67ZM 24.76 23.41Z"></path></g></g><g id="ic_star_2r7tz19ubqj1-fill-overlay" stroke="none" fill="url(#crawlingPattern-c1c1c11a)"><g><path d="M 28.99 44.709999C 29.140028 44.344807 29.140028 43.935192 28.99 43.57L 27.039999 38.050003C 26.907297 37.646057 26.609398 37.317406 26.22039 37.145782C 25.831381 36.974163 25.387814 36.975697 25 37.150002L 12.73 41.650002C 11.17304 42.21386 10.367386 43.93259 10.93 45.489998L 11.92 48.189999C 12.48386 49.74696 14.20259 50.552612 15.76 49.989998L 28.150002 45.489998C 28.520498 45.348679 28.821657 45.069031 28.99 44.709999ZM 40 82C 41.656857 82 43 80.656853 43 79L 43 67C 43.013615 66.661728 43.243881 66.370865 43.57 66.279999C 43.900032 66.184143 44.251801 66.3349 44.409996 66.639999L 52.060001 80.409996C 52.888271 81.860077 54.735336 82.363998 56.185272 81.535477C 57.635201 80.70694 58.138794 78.859779 57.309998 77.409996L 42.639999 50.98C 42.111645 50.025055 41.106369 49.432369 40.014999 49.432369C 38.92363 49.432369 37.918358 50.025055 37.389999 50.98L 22.84 77.5C 22.035667 78.949661 22.559656 80.776901 24.01 81.580002C 24.452267 81.818726 24.947422 81.94252 25.450001 81.940002C 26.510752 81.916809 27.480362 81.335045 28 80.409996L 35.650002 66.639999C 35.808197 66.3349 36.159966 66.184143 36.489998 66.279999C 36.798122 66.384048 37.004082 66.674812 37 67L 37 79C 37 80.656853 38.343143 82 40 82ZM 10 10M 41.5 26.559999L 33.279999 29.559999C 30.996212 30.391348 29.815527 32.913719 30.639999 35.199997L 33.639999 43.48C 34.236126 45.275715 35.917931 46.485649 37.810001 46.480003C 38.320034 46.486172 38.827354 46.404999 39.310001 46.240002L 47.5 43.239998C 47.878487 43.099842 48.189507 42.820995 48.369995 42.459999C 48.520027 42.094807 48.520027 41.685192 48.369999 41.32L 43.389999 27.52C 43.273499 27.137329 43.006081 26.818663 42.649437 26.63751C 42.292797 26.45636 41.877735 26.42837 41.5 26.559999ZM 56.829998 43C 57.224289 42.992634 57.616604 42.942337 57.999996 42.849998L 70.75 39.310001C 71.956642 38.967541 72.960373 38.127464 73.510002 37C 74.064621 35.900787 74.151184 34.624012 73.75 33.459999L 67.899994 17.290001C 67.489662 16.126055 66.607315 15.18924 65.470001 14.71C 64.33165 14.214174 63.038353 14.214174 61.900002 14.71L 49.900002 20.17C 47.792595 21.127258 46.77412 23.542873 47.560001 25.720001L 52.630001 40C 53.260395 41.783295 54.938648 42.982048 56.830002 43ZM 67 73.360001C 67.256882 74.10022 67.95649 74.594772 68.739998 74.590004C 69.528885 74.589577 70.23452 74.099213 70.510002 73.360001L 73 66.699997C 73.065536 66.50135 73.221352 66.345535 73.419998 66.279999L 80.080002 63.760002C 80.803787 63.486603 81.282738 62.793701 81.282738 62.02C 81.282738 61.246307 80.803787 60.553398 80.080002 60.279999L 73.389999 57.760002C 73.191353 57.694466 73.035538 57.538647 72.970001 57.34L 70.479996 50.68C 70.154182 50.007271 69.472481 49.579983 68.724998 49.579983C 67.977524 49.579983 67.295822 50.007271 66.970001 50.68L 64.479996 57.34C 64.393921 57.535767 64.231232 57.687607 64.029999 57.759998L 57.369999 60.279999C 56.646217 60.553398 56.167267 61.246307 56.167267 62.02C 56.167267 62.793701 56.646217 63.486603 57.369999 63.760002L 64.029999 66.279999C 64.237595 66.341629 64.404221 66.497139 64.479996 66.699997ZM 10 10M 11.71 21.67L 17.17 23.710001C 17.371235 23.782389 17.53392 23.934229 17.619999 24.129999L 19.66 29.59C 19.886274 30.162519 20.439386 30.53866 21.055 30.53866C 21.670612 30.53866 22.223726 30.162519 22.450001 29.59L 24.49 24.130001C 24.589384 23.92136 24.776173 23.767534 24.999998 23.709999L 30.43 21.67C 31.018408 21.448114 31.411123 20.88879 31.42 20.26C 31.350943 19.668894 30.938963 19.174517 30.369999 19L 25 16.809999C 24.796785 16.724827 24.635174 16.563215 24.549999 16.360001L 22.450001 10.93C 22.185627 10.401834 21.645638 10.068266 21.054998 10.068266C 20.464361 10.068266 19.924372 10.401834 19.66 10.93L 17.619999 16.360001C 17.534826 16.563215 17.373215 16.724827 17.17 16.809999L 11.71 19C 11.127895 19.2246 10.745608 19.786083 10.75 20.41C 10.810757 20.975857 11.180566 21.461231 11.71 21.67ZM 24.76 23.41Z"></path></g></g></g><g id="g-root-ic_divi_mg3hbb19u38xt-stroke-fill" data-item-order="-2304" transform="translate(524, 230)"><g id="ic_divi_mg3hbb19u38xt-fill" stroke="none" fill="#f4f4f4"><g><path d="M 41.580002 51.400002C 42.539341 50.439339 42.830776 48.997902 42.320004 47.740002L 34 26.66C 33.874283 26.277094 33.522789 26.013474 33.119999 26C 32.770855 25.945343 32.419327 26.082897 32.200001 26.360001C 31.239777 27.559698 29.911469 28.410097 28.42 28.780001C 28.135509 28.85046 27.895075 29.039894 27.76 29.299999C 27.64015 29.560196 27.64015 29.859804 27.76 30.120001L 35.760002 50.259998C 36.081551 51.152275 36.753365 51.874653 37.619999 52.259998C 37.983204 52.411819 38.36779 52.506279 38.760002 52.540001L 40.32 56.540001C 40.543297 57.118679 41.099731 57.500237 41.720001 57.5C 41.905067 57.505501 42.089176 57.471405 42.259998 57.399998C 42.646351 57.257805 42.957275 56.963066 43.119904 56.584858C 43.282532 56.206654 43.282566 55.778233 43.120003 55.400002ZM 25.08 28.780001C 23.596191 28.415339 22.270172 27.580437 21.299999 26.4C 21.092934 26.104294 20.73748 25.949749 20.379999 26C 20.026497 26.049212 19.727701 26.286716 19.6 26.620001L 11.18 47.759998C 10.821058 48.61034 10.821058 49.56966 11.18 50.419998C 11.380304 50.801414 11.659895 51.135559 12 51.399998L 10.44 55.400002C 10.277433 55.778233 10.277469 56.206654 10.440097 56.584858C 10.602725 56.963066 10.91365 57.257805 11.3 57.400002C 11.470825 57.471405 11.654933 57.505501 11.84 57.5C 12.460267 57.500237 13.016705 57.118679 13.24 56.540001L 14.8 52.540001C 15.198492 52.505192 15.589508 52.410809 15.96 52.259998C 16.814997 51.864689 17.477184 51.144917 17.799999 50.259998L 25.799999 30.1C 25.910004 29.837732 25.910004 29.542265 25.799999 29.279999C 25.647505 29.013445 25.38303 28.829782 25.08 28.779999ZM 31.76 22L 31.76 17.02C 31.76 15.91543 30.864569 15.02 29.76 15.02C 29.207716 15.02 28.76 14.572285 28.76 14.02L 28.76 12C 28.76 10.895431 27.864569 10 26.76 10C 25.65543 10 24.76 10.895431 24.76 12L 24.76 14C 24.76 14.552284 24.312284 15 23.76 15C 22.65543 15 21.76 15.895431 21.76 17L 21.76 22C 21.76 24.761425 23.998577 27 26.76 27C 29.521423 27 31.76 24.761425 31.76 22ZM 50.240002 21.02L 56.740002 21.02C 57.292286 21.02 57.740002 20.572285 57.740002 20.02L 57.740002 13C 57.740002 11.343145 56.396854 10 54.740002 10L 44.740002 10C 43.083145 10 41.740002 11.343145 41.740002 13L 41.739998 38C 41.719109 38.125805 41.719109 38.254192 41.739998 38.379997L 47.259998 52.200001C 47.779205 53.641338 47.779205 55.218666 47.260002 56.66C 47.146709 56.967789 47.191551 57.311569 47.380001 57.580002C 47.570934 57.842499 47.875408 57.998447 48.200001 58L 54.599998 58C 56.256855 58 57.600002 56.656857 57.600002 55L 57.599998 47C 57.599998 46.447716 57.152287 46 56.599998 46L 50.240002 46C 49.411575 46 48.740002 45.328426 48.740002 44.5C 48.740002 43.671574 49.411575 43 50.240002 43L 56.740002 43C 57.292286 43 57.740002 42.552284 57.740002 42L 57.740002 36C 57.740002 35.447716 57.292286 35 56.740002 35L 52.240002 35C 51.411575 35 50.740002 34.32843 50.740002 33.5C 50.740002 32.671574 51.411575 32 52.240002 32L 56.740002 32C 57.292286 32 57.740002 31.552284 57.740002 31L 57.740002 25C 57.740002 24.447716 57.292286 24 56.740002 24L 50.240002 24C 49.411575 24 48.740002 23.328426 48.740002 22.5C 48.740002 21.671574 49.411575 21 50.240002 21Z"></path></g></g><g id="ic_divi_mg3hbb19u38xt-fill-overlay" stroke="none" fill="url(#crawlingPattern-c1c1c11a)"><g><path d="M 41.580002 51.400002C 42.539341 50.439339 42.830776 48.997902 42.320004 47.740002L 34 26.66C 33.874283 26.277094 33.522789 26.013474 33.119999 26C 32.770855 25.945343 32.419327 26.082897 32.200001 26.360001C 31.239777 27.559698 29.911469 28.410097 28.42 28.780001C 28.135509 28.85046 27.895075 29.039894 27.76 29.299999C 27.64015 29.560196 27.64015 29.859804 27.76 30.120001L 35.760002 50.259998C 36.081551 51.152275 36.753365 51.874653 37.619999 52.259998C 37.983204 52.411819 38.36779 52.506279 38.760002 52.540001L 40.32 56.540001C 40.543297 57.118679 41.099731 57.500237 41.720001 57.5C 41.905067 57.505501 42.089176 57.471405 42.259998 57.399998C 42.646351 57.257805 42.957275 56.963066 43.119904 56.584858C 43.282532 56.206654 43.282566 55.778233 43.120003 55.400002ZM 25.08 28.780001C 23.596191 28.415339 22.270172 27.580437 21.299999 26.4C 21.092934 26.104294 20.73748 25.949749 20.379999 26C 20.026497 26.049212 19.727701 26.286716 19.6 26.620001L 11.18 47.759998C 10.821058 48.61034 10.821058 49.56966 11.18 50.419998C 11.380304 50.801414 11.659895 51.135559 12 51.399998L 10.44 55.400002C 10.277433 55.778233 10.277469 56.206654 10.440097 56.584858C 10.602725 56.963066 10.91365 57.257805 11.3 57.400002C 11.470825 57.471405 11.654933 57.505501 11.84 57.5C 12.460267 57.500237 13.016705 57.118679 13.24 56.540001L 14.8 52.540001C 15.198492 52.505192 15.589508 52.410809 15.96 52.259998C 16.814997 51.864689 17.477184 51.144917 17.799999 50.259998L 25.799999 30.1C 25.910004 29.837732 25.910004 29.542265 25.799999 29.279999C 25.647505 29.013445 25.38303 28.829782 25.08 28.779999ZM 31.76 22L 31.76 17.02C 31.76 15.91543 30.864569 15.02 29.76 15.02C 29.207716 15.02 28.76 14.572285 28.76 14.02L 28.76 12C 28.76 10.895431 27.864569 10 26.76 10C 25.65543 10 24.76 10.895431 24.76 12L 24.76 14C 24.76 14.552284 24.312284 15 23.76 15C 22.65543 15 21.76 15.895431 21.76 17L 21.76 22C 21.76 24.761425 23.998577 27 26.76 27C 29.521423 27 31.76 24.761425 31.76 22ZM 50.240002 21.02L 56.740002 21.02C 57.292286 21.02 57.740002 20.572285 57.740002 20.02L 57.740002 13C 57.740002 11.343145 56.396854 10 54.740002 10L 44.740002 10C 43.083145 10 41.740002 11.343145 41.740002 13L 41.739998 38C 41.719109 38.125805 41.719109 38.254192 41.739998 38.379997L 47.259998 52.200001C 47.779205 53.641338 47.779205 55.218666 47.260002 56.66C 47.146709 56.967789 47.191551 57.311569 47.380001 57.580002C 47.570934 57.842499 47.875408 57.998447 48.200001 58L 54.599998 58C 56.256855 58 57.600002 56.656857 57.600002 55L 57.599998 47C 57.599998 46.447716 57.152287 46 56.599998 46L 50.240002 46C 49.411575 46 48.740002 45.328426 48.740002 44.5C 48.740002 43.671574 49.411575 43 50.240002 43L 56.740002 43C 57.292286 43 57.740002 42.552284 57.740002 42L 57.740002 36C 57.740002 35.447716 57.292286 35 56.740002 35L 52.240002 35C 51.411575 35 50.740002 34.32843 50.740002 33.5C 50.740002 32.671574 51.411575 32 52.240002 32L 56.740002 32C 57.292286 32 57.740002 31.552284 57.740002 31L 57.740002 25C 57.740002 24.447716 57.292286 24 56.740002 24L 50.240002 24C 49.411575 24 48.740002 23.328426 48.740002 22.5C 48.740002 21.671574 49.411575 21 50.240002 21Z"></path></g></g></g><g id="g-root-ic_2_qqapnr19u62oa-stroke-fill" data-item-order="-2304" transform="translate(200, 230)"><g id="ic_2_qqapnr19u62oa-fill" stroke="none" fill="#f4f4f4"><g><path d="M 37.200001 28.68C 40.682007 28.688089 43.825272 26.595737 45.161514 23.380327C 46.497757 20.164917 45.763252 16.46106 43.301098 13.998905C 40.838943 11.536752 37.135086 10.802244 33.919678 12.138488C 30.704266 13.474731 28.611914 16.617998 28.620001 20.1C 28.630999 24.834042 32.465961 28.669004 37.200005 28.680002ZM 25.32 39.580002C 25.503595 39.866158 25.820007 40.039436 26.16 40.040001L 48.16 40.040001C 48.492867 40.032738 48.800289 39.860283 48.98 39.580002C 49.172436 39.312119 49.210384 38.962975 49.079998 38.66C 47.105442 33.766285 42.357056 30.561859 37.080002 30.561859C 31.802944 30.561859 27.054556 33.766285 25.08 38.66C 24.999771 38.987518 25.090004 39.333412 25.32 39.580002ZM 53.299999 42.5L 20.26 42.5L 17.880001 34L 18.24 34C 19.114182 33.997276 19.944881 33.618362 20.52 32.959999L 24.52 28.200001C 25.594362 26.963751 25.478634 25.094303 24.26 24L 22.720001 22.68C 22.116051 22.158478 21.329216 21.899054 20.533518 21.959106C 19.73782 22.019159 18.998833 22.39374 18.48 23L 14.48 27.76C 13.609642 28.783411 13.519982 30.25872 14.26 31.379999C 13.651585 32.433754 13.555895 33.707153 14 34.84L 16.26 42.84C 15.701229 43.207966 15.363461 43.830963 15.360001 44.5L 15.360001 51.5C 15.360001 54.813709 18.046291 57.5 21.360001 57.5L 49.360001 57.5C 52.67371 57.5 55.360001 54.813709 55.360001 51.5L 55.360001 44.5C 55.360245 43.959007 55.141315 43.44099 54.753162 43.064144C 54.365009 42.687298 53.840752 42.483768 53.299999 42.5Z"></path></g></g><g id="ic_2_qqapnr19u62oa-fill-overlay" stroke="none" fill="url(#crawlingPattern-c1c1c11a)"><g><path d="M 37.200001 28.68C 40.682007 28.688089 43.825272 26.595737 45.161514 23.380327C 46.497757 20.164917 45.763252 16.46106 43.301098 13.998905C 40.838943 11.536752 37.135086 10.802244 33.919678 12.138488C 30.704266 13.474731 28.611914 16.617998 28.620001 20.1C 28.630999 24.834042 32.465961 28.669004 37.200005 28.680002ZM 25.32 39.580002C 25.503595 39.866158 25.820007 40.039436 26.16 40.040001L 48.16 40.040001C 48.492867 40.032738 48.800289 39.860283 48.98 39.580002C 49.172436 39.312119 49.210384 38.962975 49.079998 38.66C 47.105442 33.766285 42.357056 30.561859 37.080002 30.561859C 31.802944 30.561859 27.054556 33.766285 25.08 38.66C 24.999771 38.987518 25.090004 39.333412 25.32 39.580002ZM 53.299999 42.5L 20.26 42.5L 17.880001 34L 18.24 34C 19.114182 33.997276 19.944881 33.618362 20.52 32.959999L 24.52 28.200001C 25.594362 26.963751 25.478634 25.094303 24.26 24L 22.720001 22.68C 22.116051 22.158478 21.329216 21.899054 20.533518 21.959106C 19.73782 22.019159 18.998833 22.39374 18.48 23L 14.48 27.76C 13.609642 28.783411 13.519982 30.25872 14.26 31.379999C 13.651585 32.433754 13.555895 33.707153 14 34.84L 16.26 42.84C 15.701229 43.207966 15.363461 43.830963 15.360001 44.5L 15.360001 51.5C 15.360001 54.813709 18.046291 57.5 21.360001 57.5L 49.360001 57.5C 52.67371 57.5 55.360001 54.813709 55.360001 51.5L 55.360001 44.5C 55.360245 43.959007 55.141315 43.44099 54.753162 43.064144C 54.365009 42.687298 53.840752 42.483768 53.299999 42.5Z"></path></g></g></g><g id="g-root-ic_keyb_1qaq5wn19u7itn-stroke-fill" data-item-order="-2304" transform="translate(493.9840087890625, 128)"><g id="ic_keyb_1qaq5wn19u7itn-fill" stroke="none" fill="#f4f4f4"><g><path d="M 57.200001 53.18L 51.060001 32C 51.011093 31.884983 51.011093 31.755016 51.060001 31.639999L 54.68 24.24C 56.840691 19.868658 56.652702 14.702732 54.180004 10.5C 53.983856 10.191861 53.645252 10.003747 53.280003 10C 52.913464 10.01836 52.585049 10.232212 52.419998 10.56L 34 48.299999C 33.818249 48.622841 33.818249 49.017151 34 49.339996C 34.225571 49.635246 34.591522 49.787724 34.959999 49.739998C 39.756664 49.101048 43.91169 46.095604 46.02 41.739998L 47.740002 38.239998C 47.824211 38.054123 48.016747 37.941811 48.219997 37.959999C 48.427258 37.976833 48.602459 38.120182 48.66 38.32L 52.82 52.720001C 52.912144 53.000046 52.873318 53.30669 52.714287 53.554935C 52.555256 53.803177 52.292919 53.966637 52 54L 42.700001 54C 41.595428 54 40.700001 54.895432 40.700001 56C 40.700001 57.104568 41.595428 58 42.700001 58L 53.32 58C 54.486038 58.005089 55.596249 57.50111 56.360001 56.619999C 57.159946 55.66647 57.470444 54.394905 57.200001 53.18ZM 26.200001 50C 25.841759 49.94965 25.478239 49.94965 25.119999 50L 12.12 54C 11.015676 54.326042 10.384646 55.485474 10.710443 56.58987C 11.03624 57.694263 12.195532 58.32555 13.3 58L 22 55.259998C 22.248096 55.176689 22.518461 55.29879 22.619999 55.540001C 23.398453 57.403908 25.444393 58.394947 27.389523 57.850323C 29.33465 57.305695 30.568497 55.396336 30.265879 53.399197C 29.963263 51.402061 28.219156 49.943935 26.200001 50Z"></path></g></g><g id="ic_keyb_1qaq5wn19u7itn-fill-overlay" stroke="none" fill="url(#crawlingPattern-c1c1c11a)"><g><path d="M 57.200001 53.18L 51.060001 32C 51.011093 31.884983 51.011093 31.755016 51.060001 31.639999L 54.68 24.24C 56.840691 19.868658 56.652702 14.702732 54.180004 10.5C 53.983856 10.191861 53.645252 10.003747 53.280003 10C 52.913464 10.01836 52.585049 10.232212 52.419998 10.56L 34 48.299999C 33.818249 48.622841 33.818249 49.017151 34 49.339996C 34.225571 49.635246 34.591522 49.787724 34.959999 49.739998C 39.756664 49.101048 43.91169 46.095604 46.02 41.739998L 47.740002 38.239998C 47.824211 38.054123 48.016747 37.941811 48.219997 37.959999C 48.427258 37.976833 48.602459 38.120182 48.66 38.32L 52.82 52.720001C 52.912144 53.000046 52.873318 53.30669 52.714287 53.554935C 52.555256 53.803177 52.292919 53.966637 52 54L 42.700001 54C 41.595428 54 40.700001 54.895432 40.700001 56C 40.700001 57.104568 41.595428 58 42.700001 58L 53.32 58C 54.486038 58.005089 55.596249 57.50111 56.360001 56.619999C 57.159946 55.66647 57.470444 54.394905 57.200001 53.18ZM 26.200001 50C 25.841759 49.94965 25.478239 49.94965 25.119999 50L 12.12 54C 11.015676 54.326042 10.384646 55.485474 10.710443 56.58987C 11.03624 57.694263 12.195532 58.32555 13.3 58L 22 55.259998C 22.248096 55.176689 22.518461 55.29879 22.619999 55.540001C 23.398453 57.403908 25.444393 58.394947 27.389523 57.850323C 29.33465 57.305695 30.568497 55.396336 30.265879 53.399197C 29.963263 51.402061 28.219156 49.943935 26.200001 50Z"></path></g></g></g><g id="g-root-ic_tool_1ly117r19u8xe4-stroke-fill" data-item-order="-2304" transform="translate(230, 128)"><g id="ic_tool_1ly117r19u8xe4-fill" stroke="none" fill="#f4f4f4"><g><path d="M 34 14.125999C 22.639999 14.125999 14.125999 21.625999 14.125999 30.094C 14.125999 32.529999 14.83 34.884003 16.104 37.003998C 17.06069 33.24453 20.663492 30.782812 24.51358 31.257917C 28.363667 31.733025 31.259941 34.996735 31.274 38.875999C 31.275799 41.452621 29.987387 43.859009 27.841999 45.285999C 29.764 45.785999 31.83 46.062 34 46.062C 45.360001 46.062 53.874001 38.562 53.874001 30.094C 53.874001 21.625999 45.360001 14.125999 34 14.125999ZM 10.126 30.094C 10.126 18.716 21.202 10.126 34 10.126C 46.799999 10.126 57.874001 18.716 57.874001 30.094C 57.874001 41.472 46.798 50.060001 34 50.060001C 30.905266 50.064259 27.831358 49.553967 24.903999 48.549999C 25.664 51.970001 24.223999 55.548 21.243999 57.535999C 20.324997 58.149036 19.083036 57.901001 18.470001 56.981998C 17.856964 56.062996 18.104998 54.821037 19.024 54.208C 21.082001 52.835999 21.743999 50.138 20.403999 47.970001L 18.714001 45.433998C 13.52 41.832001 10.126 36.389999 10.126 30.094ZM 23.574001 35.176003C 21.530113 35.175388 19.872894 36.832115 19.872894 38.875999C 19.872894 40.919884 21.530113 42.576611 23.573999 42.576C 25.61702 42.57539 27.272894 40.919022 27.272894 38.875999C 27.272894 36.832977 25.61702 35.176613 23.573999 35.175999Z"></path></g></g><g id="ic_tool_1ly117r19u8xe4-fill-overlay" stroke="none" fill="url(#crawlingPattern-c1c1c11a)"><g><path d="M 34 14.125999C 22.639999 14.125999 14.125999 21.625999 14.125999 30.094C 14.125999 32.529999 14.83 34.884003 16.104 37.003998C 17.06069 33.24453 20.663492 30.782812 24.51358 31.257917C 28.363667 31.733025 31.259941 34.996735 31.274 38.875999C 31.275799 41.452621 29.987387 43.859009 27.841999 45.285999C 29.764 45.785999 31.83 46.062 34 46.062C 45.360001 46.062 53.874001 38.562 53.874001 30.094C 53.874001 21.625999 45.360001 14.125999 34 14.125999ZM 10.126 30.094C 10.126 18.716 21.202 10.126 34 10.126C 46.799999 10.126 57.874001 18.716 57.874001 30.094C 57.874001 41.472 46.798 50.060001 34 50.060001C 30.905266 50.064259 27.831358 49.553967 24.903999 48.549999C 25.664 51.970001 24.223999 55.548 21.243999 57.535999C 20.324997 58.149036 19.083036 57.901001 18.470001 56.981998C 17.856964 56.062996 18.104998 54.821037 19.024 54.208C 21.082001 52.835999 21.743999 50.138 20.403999 47.970001L 18.714001 45.433998C 13.52 41.832001 10.126 36.389999 10.126 30.094ZM 23.574001 35.176003C 21.530113 35.175388 19.872894 36.832115 19.872894 38.875999C 19.872894 40.919884 21.530113 42.576611 23.573999 42.576C 25.61702 42.57539 27.272894 40.919022 27.272894 38.875999C 27.272894 36.832977 25.61702 35.176613 23.573999 35.175999Z"></path></g></g></g><g id="g-root-tx_technica_qqx6qv19ud2x2-stroke-fill" data-item-order="0" transform="translate(596, 230)"><g id="tx_technica_qqx6qv19ud2x2-fill" stroke="none" fill="#f2ffd7"><g><text style="font: 20px Roboto, sans-serif; white-space: pre;" font-size="20px" font-family="Roboto, sans-serif"><tspan x="12" y="34" dominant-baseline="ideographic">Technical </tspan><tspan x="12" y="58" dominant-baseline="ideographic">Documentation</tspan></text></g></g><g id="tx_technica_qqx6qv19ud2x2-fill-overlay" stroke="none" fill="url(#crawlingPattern-acff003c)"><g><text style="font: 20px Roboto, sans-serif; white-space: pre;" font-size="20px" font-family="Roboto, sans-serif"><tspan x="12" y="34" dominant-baseline="ideographic">Technical </tspan><tspan x="12" y="58" dominant-baseline="ideographic">Documentation</tspan></text></g></g></g><g id="g-root-tx_meetthep_dfgodj19ud4hz-stroke-fill" data-item-order="0" transform="translate(32, 230)"><g id="tx_meetthep_dfgodj19ud4hz-fill" stroke="none" fill="#fffbd5"><g><text style="font: 20px Roboto, sans-serif; white-space: pre;" font-size="20px" font-family="Roboto, sans-serif"><tspan x="18.23" y="34" dominant-baseline="ideographic">Meet the Press </tspan><tspan x="71.22" y="58" dominant-baseline="ideographic">Interview</tspan></text></g></g><g id="tx_meetthep_dfgodj19ud4hz-fill-overlay" stroke="none" fill="url(#crawlingPattern-ffe7003d)"><g><text style="font: 20px Roboto, sans-serif; white-space: pre;" font-size="20px" font-family="Roboto, sans-serif"><tspan x="18.23" y="34" dominant-baseline="ideographic">Meet the Press </tspan><tspan x="71.22" y="58" dominant-baseline="ideographic">Interview</tspan></text></g></g></g><g id="g-root-tx_nasacomm_4mn3b19ud2x4-stroke-fill" data-item-order="0" transform="translate(566, 128)"><g id="tx_nasacomm_4mn3b19ud2x4-fill" stroke="none" fill="#dffff0"><g><text style="font: 20px Roboto, sans-serif; white-space: pre;" font-size="20px" font-family="Roboto, sans-serif"><tspan x="12" y="34" dominant-baseline="ideographic">NASA </tspan><tspan x="12" y="58" dominant-baseline="ideographic">Communications</tspan></text></g></g><g id="tx_nasacomm_4mn3b19ud2x4-fill-overlay" stroke="none" fill="url(#crawlingPattern-00ff873a)"><g><text style="font: 20px Roboto, sans-serif; white-space: pre;" font-size="20px" font-family="Roboto, sans-serif"><tspan x="12" y="34" dominant-baseline="ideographic">NASA </tspan><tspan x="12" y="58" dominant-baseline="ideographic">Communications</tspan></text></g></g></g><g id="g-root-tx_buzzaldr_1upx6xz19ud3i9-stroke-fill" data-item-order="0" transform="translate(86, 128)"><g id="tx_buzzaldr_1upx6xz19ud3i9-fill" stroke="none" fill="#e5f8ff"><g><text style="font: 20px Roboto, sans-serif; white-space: pre;" font-size="20px" font-family="Roboto, sans-serif"><tspan x="15.81" y="34" dominant-baseline="ideographic">Buzz Aldrin's </tspan><tspan x="25.5" y="58" dominant-baseline="ideographic">Statements</tspan></text></g></g><g id="tx_buzzaldr_1upx6xz19ud3i9-fill-overlay" stroke="none" fill="url(#crawlingPattern-00baff39)"><g><text style="font: 20px Roboto, sans-serif; white-space: pre;" font-size="20px" font-family="Roboto, sans-serif"><tspan x="15.81" y="34" dominant-baseline="ideographic">Buzz Aldrin's </tspan><tspan x="25.5" y="58" dominant-baseline="ideographic">Statements</tspan></text></g></g></g><g id="g-root-tx_understa_1hegokn19ud536-stroke-fill" data-item-order="0" transform="translate(200, 50)"><g id="tx_understa_1hegokn19ud536-fill" stroke="none" fill="#f4f4f4"><g><text style="font: 20px Roboto, sans-serif; white-space: pre;" font-size="20px" font-family="Roboto, sans-serif"><tspan x="15.29" y="34" dominant-baseline="ideographic">Understanding the Apollo 11 UFO Claims</tspan></text></g></g><g id="tx_understa_1hegokn19ud536-fill-overlay" stroke="none" fill="url(#crawlingPattern-0000001b)"><g><text style="font: 20px Roboto, sans-serif; white-space: pre;" font-size="20px" font-family="Roboto, sans-serif"><tspan x="15.29" y="34" dominant-baseline="ideographic">Understanding the Apollo 11 UFO Claims</tspan></text></g></g></g></svg>