<?xml version='1.0' encoding='utf-8'?>
<svg xmlns="http://www.w3.org/2000/svg" xmlns:xlink="http://www.w3.org/1999/xlink" width="1056" height="708" viewBox="0 0 1056 708" style="fill:none;stroke:none;fill-rule:evenodd;clip-rule:evenodd;stroke-linecap:round;stroke-linejoin:round;stroke-miterlimit:1.5;" version="1.1">
  <style class="text-font-style fontImports" data-font-family="Roboto">@import url('https://fonts.googleapis.com/css2?family=Roboto:wght@400;700&amp;display=block');</style>
  <rect x="0" y="0" width="1056" height="708" fill="#252a34" stroke="none" id="programmatic_background"/>
  <g id="g-root-tf_1ha2no71bs1vd4-stroke-fill" data-item-order="-705888" transform="translate(12, 12)"/>
  <g id="g-root-sy_4_cu_1usffx31bihouc-stroke-fill" data-item-order="-317369" transform="translate(602, 386)">
    <g id="sy_4_cu_1usffx31bihouc-stroke" fill="none" stroke-linecap="round" stroke-linejoin="round" stroke-miterlimit="4" stroke="#f79438" stroke-width="2">
      <g>
        <path d="M 33.850586 154.000488L 45.850586 154.000488M 58.200195 70L 70.200195 70M 87.9997 10L 21.9997 238L 10 238"/>
      </g>
    </g>
  </g>
  <g id="g-root-sy_3_cu_1lwsfo71bihpn1-stroke-fill" data-item-order="-317365" transform="translate(602, 158.00048828125)">
    <g id="sy_3_cu_1lwsfo71bihpn1-stroke" fill="none" stroke-linecap="round" stroke-linejoin="round" stroke-miterlimit="4" stroke="#fb6762" stroke-width="2">
      <g>
        <path d="M 33.84668 93.999512L 45.84668 93.999512M 58.195313 177.999512L 70.195313 177.999512M 87.9997 238L 21.9997 10L 10 10"/>
      </g>
    </g>
  </g>
  <g id="g-root-sy_2_cu_1hgyxjr1bihqfa-stroke-fill" data-item-order="-317361" transform="translate(290, 385.99951171875)">
    <g id="sy_2_cu_1hgyxjr1bihqfa-stroke" fill="none" stroke-linecap="round" stroke-linejoin="round" stroke-miterlimit="4" stroke="#b7b7b7" stroke-width="2">
      <g>
        <path d="M 33.851563 154.000488L 45.851563 154.000488M 58.200195 70.000488L 70.200195 70.000488M 87.9997 10L 21.9997 238L 10 238"/>
      </g>
    </g>
  </g>
  <g id="g-root-sy_1_cu_18lyedz1biho27-stroke-fill" data-item-order="-317357" transform="translate(290, 158.00048828125)">
    <g id="sy_1_cu_18lyedz1biho27-stroke" fill="none" stroke-linecap="round" stroke-linejoin="round" stroke-miterlimit="4" stroke="#b7b7b7" stroke-width="2">
      <g>
        <path d="M 33.851563 93.999512L 45.851563 93.999512M 58.200195 177.999512L 70.200195 177.999512M 87.9997 238L 21.9997 10L 10 10"/>
      </g>
    </g>
  </g>
  <g id="g-root-sy_-1_line_1464w9j1bihoug-stroke-fill" data-item-order="-317351" transform="translate(26, 386)">
    <g id="sy_-1_line_1464w9j1bihoug-stroke" fill="none" stroke-linecap="round" stroke-linejoin="round" stroke-miterlimit="4" stroke="#f4f4f4" stroke-width="2">
      <g>
        <path d="M 704 10L 10 10"/>
        <path d="M 698 16.5L 704.5 10L 698 3.5" stroke-dasharray="none"/>
      </g>
    </g>
  </g>
  <g id="g-root-tx_misinter_zqbe531bihpmp-stroke-fill" data-item-order="0" transform="translate(794, 362)">
    <g id="tx_misinter_zqbe531bihpmp-fill" stroke="none" fill="#f4f4f4">
      <g>
        <text style="font: 20px Roboto, sans-serif; white-space: pre;" font-size="20px" font-family="Roboto, sans-serif">
          <tspan x="12" y="34" dominant-baseline="ideographic">Misinterpretation of </tspan>
          <tspan x="12" y="58" dominant-baseline="ideographic">Apollo 11 UFO Sighting</tspan>
        </text>
      </g>
    </g>
  </g>
  <g id="g-root-tx_conspira_mfhcuv1biho1u-stroke-fill" data-item-order="0" transform="translate(446, 434)">
    <g id="tx_conspira_mfhcuv1biho1u-fill" stroke="none" fill="#f4f4f4">
      <g>
        <text style="font: 20px Roboto, sans-serif; white-space: pre;" font-size="20px" font-family="Roboto, sans-serif">
          <tspan x="18.81" y="34" dominant-baseline="ideographic">Conspiracy Theories</tspan>
        </text>
      </g>
    </g>
  </g>
  <g id="g-root-tx_influenc_940uhj1bihpmr-stroke-fill" data-item-order="0" transform="translate(434, 506)">
    <g id="tx_influenc_940uhj1bihpmr-fill" stroke="none" fill="#f4f4f4">
      <g>
        <text style="font: 20px Roboto, sans-serif; white-space: pre;" font-size="20px" font-family="Roboto, sans-serif">
          <tspan x="23.06" y="34" dominant-baseline="ideographic">Influence of Space </tspan>
          <tspan x="88.08" y="58" dominant-baseline="ideographic">Exploration</tspan>
        </text>
      </g>
    </g>
  </g>
  <g id="g-root-tx_publicpe_8du8n1bihqfg-stroke-fill" data-item-order="0" transform="translate(386, 602)">
    <g id="tx_publicpe_8du8n1bihqfg-fill" stroke="none" fill="#f4f4f4">
      <g>
        <text style="font: 20px Roboto, sans-serif; white-space: pre;" font-size="20px" font-family="Roboto, sans-serif">
          <tspan x="20.11" y="34" dominant-baseline="ideographic">Public Perception</tspan>
        </text>
      </g>
    </g>
  </g>
  <g id="g-root-tx_outofcon_1lynuxj1bihonh-stroke-fill" data-item-order="0" transform="translate(494, 302)">
    <g id="tx_outofcon_1lynuxj1bihonh-fill" stroke="none" fill="#f4f4f4">
      <g>
        <text style="font: 20px Roboto, sans-serif; white-space: pre;" font-size="20px" font-family="Roboto, sans-serif">
          <tspan x="22.17" y="34" dominant-baseline="ideographic">Out-of-Context </tspan>
          <tspan x="49.5" y="58" dominant-baseline="ideographic">Statements</tspan>
        </text>
      </g>
    </g>
  </g>
  <g id="g-root-tx_fabricat_1hiuct31bihpfq-stroke-fill" data-item-order="0" transform="translate(422, 230)">
    <g id="tx_fabricat_1hiuct31bihpfq-fill" stroke="none" fill="#f4f4f4">
      <g>
        <text style="font: 20px Roboto, sans-serif; white-space: pre;" font-size="20px" font-family="Roboto, sans-serif">
          <tspan x="16.45" y="34" dominant-baseline="ideographic">Fabricated Accounts</tspan>
        </text>
      </g>
    </g>
  </g>
  <g id="g-root-tx_mediamis_18n7ck71bihq8f-stroke-fill" data-item-order="0" transform="translate(386, 134)">
    <g id="tx_mediamis_18n7ck71bihq8f-fill" stroke="none" fill="#f4f4f4">
      <g>
        <text style="font: 20px Roboto, sans-serif; white-space: pre;" font-size="20px" font-family="Roboto, sans-serif">
          <tspan x="120.91" y="34" dominant-baseline="ideographic">Media </tspan>
          <tspan x="14.47" y="58" dominant-baseline="ideographic">Misrepresentation</tspan>
        </text>
      </g>
    </g>
  </g>
  <g id="g-root-tx_lighting_1480biv1bihnuw-stroke-fill" data-item-order="0" transform="translate(146, 434)">
    <g id="tx_lighting_1480biv1bihnuw-fill" stroke="none" fill="#f4f4f4">
      <g>
        <text style="font: 20px Roboto, sans-serif; white-space: pre;" font-size="20px" font-family="Roboto, sans-serif">
          <tspan x="15.67" y="34" dominant-baseline="ideographic">Lighting Conditions</tspan>
        </text>
      </g>
    </g>
  </g>
  <g id="g-root-tx_lackofre_qwjt5j1bihpft-stroke-fill" data-item-order="0" transform="translate(134, 506)">
    <g id="tx_lackofre_qwjt5j1bihpft-fill" stroke="none" fill="#f4f4f4">
      <g>
        <text style="font: 20px Roboto, sans-serif; white-space: pre;" font-size="20px" font-family="Roboto, sans-serif">
          <tspan x="15.89" y="34" dominant-baseline="ideographic">Lack of Reference </tspan>
          <tspan x="119.33" y="58" dominant-baseline="ideographic">Points</tspan>
        </text>
      </g>
    </g>
  </g>
  <g id="g-root-tx_environm_dbq6hj1bij2fe-stroke-fill" data-item-order="0" transform="translate(110, 590)">
    <g id="tx_environm_dbq6hj1bij2fe-fill" stroke="none" fill="#f4f4f4">
      <g>
        <text style="font: 20px Roboto, sans-serif; white-space: pre;" font-size="20px" font-family="Roboto, sans-serif">
          <tspan x="12.52" y="34" dominant-baseline="ideographic">Environmental </tspan>
          <tspan x="44.2" y="58" dominant-baseline="ideographic">Conditions</tspan>
        </text>
      </g>
    </g>
  </g>
  <g id="g-root-tx_credibil_8vwod31bij37n-stroke-fill" data-item-order="0" transform="translate(110, 314)">
    <g id="tx_credibil_8vwod31bij37n-fill" stroke="none" fill="#f4f4f4">
      <g>
        <text style="font: 20px Roboto, sans-serif; white-space: pre;" font-size="20px" font-family="Roboto, sans-serif">
          <tspan x="17.41" y="34" dominant-baseline="ideographic">Credibility as a Witness</tspan>
        </text>
      </g>
    </g>
  </g>
  <g id="g-root-tx_aldrinsc_1ulk7yv1bij4lg-stroke-fill" data-item-order="0" transform="translate(122, 218)">
    <g id="tx_aldrinsc_1ulk7yv1bij4lg-fill" stroke="none" fill="#f4f4f4">
      <g>
        <text style="font: 20px Roboto, sans-serif; white-space: pre;" font-size="20px" font-family="Roboto, sans-serif">
          <tspan x="23.42" y="34" dominant-baseline="ideographic">Aldrin's Consistent </tspan>
          <tspan x="83.95" y="58" dominant-baseline="ideographic">Explanation</tspan>
        </text>
      </g>
    </g>
  </g>
  <g id="g-root-tx_astronau_1lqjot31bij28d-stroke-fill" data-item-order="0" transform="translate(50, 146)">
    <g id="tx_astronau_1lqjot31bij28d-fill" stroke="none" fill="#f4f4f4">
      <g>
        <text style="font: 20px Roboto, sans-serif; white-space: pre;" font-size="20px" font-family="Roboto, sans-serif">
          <tspan x="15.28" y="34" dominant-baseline="ideographic">Astronaut Testimony</tspan>
        </text>
      </g>
    </g>
  </g>
  <g id="g-root-tx_analyzin_1haq6on1bij30m-stroke-fill" data-item-order="0" transform="translate(350, 50)">
    <g id="tx_analyzin_1haq6on1bij30m-fill" stroke="none" fill="#f4f4f4">
      <g>
        <text style="font: 20px Roboto, sans-serif; white-space: pre;" font-size="20px" font-family="Roboto, sans-serif">
          <tspan x="13.46" y="34" dominant-baseline="ideographic">Analyzing the Apollo 11 UFO Sighting</tspan>
        </text>
      </g>
    </g>
    <defs>
      <pattern id="crawlingPattern-0000001b" x="0" y="0" width="12" height="12" patternUnits="userSpaceOnUse" fill="#0000001b">
        <use href="#crawlingSymbol"/>
      </pattern>
      <symbol id="crawlingSymbol">
        <g>
          <path d="M -12.5 12.5 l 13 -13 l 6 0 l -13 13 Z M -0.5 12.5 l 13 -13 l 6 0 l -13 13 Z M 11.5 12.5 l 13 -13 l 6 0 l -13 13 Z"/>
        </g>
      </symbol>
    </defs>
  </g>
  <g id="g-root-ic_podi_13z9obb1bij4lj-stroke-fill" data-item-order="0" transform="translate(254, 140)">
    <g id="ic_podi_13z9obb1bij4lj-stroke" fill="none" stroke-linecap="round" stroke-linejoin="round" stroke-miterlimit="4" stroke="#f4f4f4" stroke-width="2">
      <g>
        <path d="M 10 10M 42.25 34.75L 40 45.25M 10 10M 17.5 45.25L 15.25 34.75M 10 10M 12.25 34.75L 45.25 34.75M 40 31.75C 39.922806 30.543579 39.589401 29.367458 39.021999 28.299999C 38.332001 26.921501 35.452 25.9645 31.834 24.625C 30.775002 24.232 30.660999 22.101999 31.450001 21.2335C 32.844521 19.721228 33.527699 17.685883 33.327999 15.6385C 33.446457 14.363739 33.013378 13.099272 32.138264 12.164806C 31.263153 11.230341 30.029783 10.715334 28.75 10.75C 27.469643 10.715238 26.235737 11.230645 25.360518 12.165798C 24.485298 13.100952 24.052631 14.366246 24.172001 15.6415C 23.972301 17.688883 24.655479 19.724228 26.049999 21.2365C 26.839001 22.105 26.724998 24.2365 25.666 24.628C 22.048 25.967501 19.167999 26.9245 18.478001 28.302999C 17.911009 29.369549 17.577616 30.544601 17.5 31.75"/>
      </g>
    </g>
  </g>
  <g id="g-root-ic_1_13z8j871bsd3bg-stroke-fill" data-item-order="0" transform="translate(254, 596)">
    <g id="ic_1_13z8j871bsd3bg-stroke" fill="none" stroke-linecap="round" stroke-linejoin="round" stroke-miterlimit="4" stroke="#f4f4f4" stroke-width="2">
      <g>
        <path d="M 31.881851 17.887871C 34.927147 17.275675 37.379051 14.794001 37.9921 11.66992C 38.605301 14.794001 41.056599 17.275675 44.101898 17.887871M 44.101898 17.891426C 41.056599 18.503635 38.604698 20.985294 37.991501 24.109375C 37.378448 20.985294 34.927147 18.503635 31.881851 17.891426M 10 10M 24.053709 22.50391L 24.053709 44.331848M 10 10M 30.132851 25.703199L 30.132851 41.13055M 10 10M 36.209049 29.3887L 36.209049 37.443851M 10 10M 17.977539 28.01755L 17.977539 38.820248M 10 10M 11.89843 24.41407L 11.898445 42.419952"/>
      </g>
    </g>
  </g>
  <g id="g-root-ic_2_hz08k71bsehhp-stroke-fill" data-item-order="0" transform="translate(566, 140)">
    <g id="ic_2_hz08k71bsehhp-stroke" fill="none" stroke-linecap="round" stroke-linejoin="round" stroke-miterlimit="4" stroke="#f4f4f4" stroke-width="2">
      <g>
        <path d="M 25.1875 35.945503L 25.1875 39.695503M 22.5625 29.200001C 22.769608 29.200001 22.9375 29.367893 22.9375 29.575001M 22.1875 29.570499C 22.1875 29.363394 22.355392 29.195499 22.5625 29.195499M 22.5625 29.950001C 22.355392 29.950001 22.1875 29.782106 22.1875 29.575001M 22.9375 29.570499C 22.9375 29.777607 22.769608 29.945499 22.5625 29.945499M 27.8125 29.200001C 28.019608 29.200001 28.1875 29.367893 28.1875 29.575001M 27.4375 29.570499C 27.4375 29.363394 27.605392 29.195499 27.8125 29.195499M 27.8125 29.950001C 27.605392 29.950001 27.4375 29.782106 27.4375 29.575001M 28.1875 29.570499C 28.1875 29.777607 28.019608 29.945499 27.8125 29.945499M 29.6875 39.699997L 29.6875 35.199997C 32.270081 33.263062 33.323479 29.890858 32.302624 26.828293C 31.281769 23.765726 28.415728 21.700001 25.1875 21.700001C 21.959272 21.700001 19.093231 23.765726 18.072376 26.828293C 17.051521 29.890858 18.104918 33.263062 20.6875 35.200001L 20.6875 39.699997M 14.5 16.75L 35.875 16.75C 35.875 16.75 37.375 16.75 37.375 18.25L 37.375 43.75C 37.375 43.75 37.375 45.25 35.875 45.25L 14.5 45.25C 14.5 45.25 13 45.25 13 43.75L 13 18.25C 13 18.25 13 16.75 14.5 16.75M 20.5 10.75L 41.5 10.75C 42.328426 10.75 43 11.421573 43 12.25L 43 40"/>
      </g>
    </g>
  </g>
  <g id="g-root-ic_nigh_mcybfb1bsh98m-stroke-fill" data-item-order="0" transform="translate(566, 596)">
    <g id="ic_nigh_mcybfb1bsh98m-stroke" fill="none" stroke-linecap="round" stroke-linejoin="round" stroke-miterlimit="4" stroke="#f4f4f4" stroke-width="2">
      <g>
        <path d="M 16.825001 36.2971C 18.89608 36.2971 20.575001 34.618149 20.575001 32.5471C 20.575001 30.476049 18.89608 28.7971 16.825001 28.7971C 14.753935 28.7971 13.075 30.476049 13.075 32.5471C 13.075 34.618149 14.753935 36.2971 16.825001 36.2971ZM 11.125012 44.846951C 11.125012 41.696949 13.675015 39.14695 16.825016 39.14695C 19.66777 39.14695 22.021839 41.223701 22.45402 43.944099M 39.175003 36.2971C 41.246048 36.2971 42.925003 34.618149 42.925003 32.5471C 42.925003 30.476049 41.246048 28.7971 39.175003 28.7971C 37.103951 28.7971 35.425003 30.476049 35.425003 32.5471C 35.425003 34.618149 37.103951 36.2971 39.175003 36.2971ZM 44.875 44.846951C 44.875 41.696949 42.324997 39.14695 39.175003 39.14695C 36.4711 39.14695 34.2094 41.0257 33.622902 43.550201M 28.075001 36.2971C 30.146049 36.2971 31.825001 34.618149 31.825001 32.5471C 31.825001 30.476049 30.146049 28.7971 28.075001 28.7971C 26.00395 28.7971 24.325001 30.476049 24.325001 32.5471C 24.325001 34.618149 26.00395 36.2971 28.075001 36.2971ZM 22.375 44.846951C 22.375 41.696949 24.924999 39.14695 28.075001 39.14695C 31.224998 39.14695 33.775002 41.696949 33.775002 44.846951M 10 10M 34.419701 16.31695L 33.213249 18.406675M 10 10M 31.582901 16.404295L 33.2131 18.406885M 10 10M 30.72835 19.493259L 33.2131 18.40687M 10 10M 33.514751 21.101965L 33.2131 18.406916M 10 10M 35.762497 18.817286L 33.2131 18.406855M 30.02425 24.086004C 29.8312 24.106945 29.6359 24.117744 29.43895 24.117744C 26.247101 24.117744 23.693636 21.56428 23.693636 18.372446C 23.693636 15.180625 26.247101 12.62716 29.43895 12.62716C 29.88595 12.62716 30.3172 12.675085 30.72835 12.76495C 29.527599 11.774665 27.951401 11.153198 26.168049 11.153198C 22.251326 11.153198 19.118006 14.28652 19.118006 18.203171C 19.118006 22.11982 22.251326 25.253201 26.168049 25.253201C 27.5599 25.253201 28.8787 24.814089 30.02425 24.086004Z"/>
      </g>
    </g>
  </g>
  <g id="g-root-ic_ufo_1448f2v1brz2fb-stroke-fill" data-item-order="0" transform="translate(734, 362)">
    <g id="ic_ufo_1448f2v1brz2fb-stroke" fill="none" stroke-linecap="round" stroke-linejoin="round" stroke-miterlimit="4" stroke="#f4f4f4" stroke-width="2">
      <g>
        <path d="M 49 22.5C 52.977859 22.499041 56.352161 25.420879 56.919998 29.358C 56.961449 29.646814 56.874687 29.939325 56.682472 30.158836C 56.490257 30.378345 56.211758 30.502958 55.919998 30.5L 12.07 30.5C 11.778242 30.502958 11.499743 30.378345 11.307528 30.158836C 11.115312 29.939325 11.028553 29.646814 11.07 29.358C 11.638377 25.417118 15.018346 22.494064 19 22.5ZM 19 22.5C 19 17.5 25.716 11.5 34 11.5C 42.284 11.5 49 17.5 49 22.5M 47.77 39.5L 52.995998 56.5M 14.996 56.5L 20.232 39.5M 34.996002 49.5L 31.996 53.652M 37.996002 53.5L 34.996002 49.5M 31.996 46.5L 37.996002 46.5M 35 41.5C 35.552284 41.5 36 41.947716 36 42.5M 34 42.5C 34 41.947716 34.447716 41.5 35 41.5M 35 43.5C 34.447716 43.5 34 43.052284 34 42.5M 36 42.5C 36 43.052284 35.552284 43.5 35 43.5M 34.996002 49.5L 34.996002 46.5M 25 30.5C 25 33.261421 22.761425 35.5 20 35.5C 17.238577 35.5 15 33.261421 15 30.5M 39 30.5C 39 33.261421 36.761425 35.5 34 35.5C 31.238577 35.5 29 33.261421 29 30.5M 53 30.5C 53 33.261421 50.761425 35.5 48 35.5C 45.238575 35.5 43 33.261421 43 30.5"/>
      </g>
    </g>
  </g>
</svg>
