<?xml version='1.0' encoding='utf-8'?>
<svg xmlns="http://www.w3.org/2000/svg" xmlns:xlink="http://www.w3.org/1999/xlink" width="744" height="492" viewBox="0 0 744 492" style="fill:none;stroke:none;fill-rule:evenodd;clip-rule:evenodd;stroke-linecap:round;stroke-linejoin:round;stroke-miterlimit:1.5;" version="1.1">
  <style class="text-font-style fontImports" data-font-family="Roboto">@import url('https://fonts.googleapis.com/css2?family=Roboto:wght@400;700&amp;display=block');</style>
  <rect x="0" y="0" width="744" height="492" fill="#252a34" stroke="none" id="programmatic_background"/>
  <g id="g-root-tf_zrjadz1bs38jp-stroke-fill" data-item-order="-334884" transform="translate(18, 12)"/>
  <g id="g-root-sy_-1_Vector_924dav1bs37d5-stroke-fill" data-item-order="-13627" transform="translate(367.99609375, 149)">
    <g id="sy_-1_Vector_924dav1bs37d5-stroke" fill="none" stroke-linecap="round" stroke-linejoin="round" stroke-miterlimit="4" stroke="#f4f4f4" stroke-width="2">
      <g>
        <path d="M 10 196L 10 106M 10 100L 10 10"/>
      </g>
    </g>
  </g>
  <g id="g-root-sy_-1_cu_4mav6f1bs385e-stroke-fill" data-item-order="-13623" transform="translate(367.99609375, 341)">
    <g id="sy_-1_cu_4mav6f1bs385e-stroke" fill="none" stroke-linecap="round" stroke-linejoin="round" stroke-miterlimit="4" stroke="#f4f4f4" stroke-width="2">
      <g>
        <path d="M 10.003906 94L 10.003906 10"/>
        <path d="M 3.503906 88L 10.003906 94.5L 16.503906 88" stroke-dasharray="none"/>
      </g>
    </g>
  </g>
  <g id="g-root-sy_3_cu_1urrwwn1bs38qz-stroke-fill" data-item-order="-13620" transform="translate(344, 335)">
    <g id="sy_3_cu_1urrwwn1bs38qz-fill" stroke="none" fill="none">
      <g>
        <path d="M 34 10L 34 10C 34 10 37 10 37 13L 37 13C 37 13 37 16 34 16L 34 16C 34 16 31 16 31 13L 31 13C 31 13 31 10 34 10"/>
      </g>
    </g>
    <g id="sy_3_cu_1urrwwn1bs38qz-stroke" fill="none" stroke-linecap="round" stroke-linejoin="round" stroke-miterlimit="4" stroke="#1ac3fb" stroke-width="2">
      <g>
        <path d="M 34 10L 34 10C 34 10 37 10 37 13L 37 13C 37 13 37 16 34 16L 34 16C 34 16 31 16 31 13L 31 13C 31 13 31 10 34 10"/>
      </g>
    </g>
    <g id="sy_3_cu_1urrwwn1bs38qz-stroke" fill="none" stroke-linecap="round" stroke-linejoin="round" stroke-miterlimit="4" stroke="#1ac3fb" stroke-width="2">
      <g>
        <path d="M 31 13L 10 13"/>
      </g>
    </g>
  </g>
  <g id="g-root-sy_2_cu_1hgbejb1bs3abw-stroke-fill" data-item-order="-13616" transform="translate(365, 239)">
    <g id="sy_2_cu_1hgbejb1bs3abw-fill" stroke="none" fill="none">
      <g>
        <path d="M 13 10L 13 10C 13 10 16 10 16 13L 16 13C 16 13 16 16 13 16L 13 16C 13 16 10 16 10 13L 10 13C 10 13 10 10 13 10"/>
      </g>
    </g>
    <g id="sy_2_cu_1hgbejb1bs3abw-stroke" fill="none" stroke-linecap="round" stroke-linejoin="round" stroke-miterlimit="4" stroke="#b7b7b7" stroke-width="2">
      <g>
        <path d="M 13 10L 13 10C 13 10 16 10 16 13L 16 13C 16 13 16 16 13 16L 13 16C 13 16 10 16 10 13L 10 13C 10 13 10 10 13 10"/>
      </g>
    </g>
    <g id="sy_2_cu_1hgbejb1bs3abw-stroke" fill="none" stroke-linecap="round" stroke-linejoin="round" stroke-miterlimit="4" stroke="#b7b7b7" stroke-width="2">
      <g>
        <path d="M 37 13L 16 13"/>
      </g>
    </g>
  </g>
  <g id="g-root-sy_1_cu_1d14dhz1bs37yd-stroke-fill" data-item-order="-13612" transform="translate(344, 143)">
    <g id="sy_1_cu_1d14dhz1bs37yd-fill" stroke="none" fill="none">
      <g>
        <path d="M 34 10L 34 10C 34 10 37 10 37 13L 37 13C 37 13 37 16 34 16L 34 16C 34 16 31 16 31 13L 31 13C 31 13 31 10 34 10"/>
      </g>
    </g>
    <g id="sy_1_cu_1d14dhz1bs37yd-stroke" fill="none" stroke-linecap="round" stroke-linejoin="round" stroke-miterlimit="4" stroke="#4f91fc" stroke-width="2">
      <g>
        <path d="M 34 10L 34 10C 34 10 37 10 37 13L 37 13C 37 13 37 16 34 16L 34 16C 34 16 31 16 31 13L 31 13C 31 13 31 10 34 10"/>
      </g>
    </g>
    <g id="sy_1_cu_1d14dhz1bs37yd-stroke" fill="none" stroke-linecap="round" stroke-linejoin="round" stroke-miterlimit="4" stroke="#4f91fc" stroke-width="2">
      <g>
        <path d="M 31 13L 10 13"/>
      </g>
    </g>
  </g>
  <g id="g-root-tx_theapoll_145hd931bs38r2-stroke-fill" data-item-order="0" transform="translate(146, 50)">
    <g id="tx_theapoll_145hd931bs38r2-fill" stroke="none" fill="#f4f4f4">
      <g>
        <text style="font: 20px Roboto, sans-serif; white-space: pre;" font-size="20px" font-family="Roboto, sans-serif">
          <tspan x="14.82" y="34" dominant-baseline="ideographic">The Apollo 11 UFO Sighting: A Timeline of Events</tspan>
        </text>
      </g>
    </g>
  </g>
  <g id="g-root-tx_apollo11_qu0uvr1bs3abz-stroke-fill" data-item-order="0" transform="translate(32, 362)">
    <g id="tx_apollo11_qu0uvr1bs3abz-fill" stroke="none" fill="#f4f4f4">
      <g>
        <text style="font: 20px Roboto, sans-serif; white-space: pre;" font-size="20px" font-family="Roboto, sans-serif">
          <tspan x="11.72" y="34" dominant-baseline="ideographic">Apollo 11 Splashdown in Pacific </tspan>
          <tspan x="239.23" y="58" dominant-baseline="ideographic">Ocean</tspan>
        </text>
      </g>
    </g>
  </g>
  <g id="g-root-tx_armstron_mettuf1bs37yg-stroke-fill" data-item-order="0" transform="translate(416, 266)">
    <g id="tx_armstron_mettuf1bs37yg-fill" stroke="none" fill="#f4f4f4">
      <g>
        <text style="font: 20px Roboto, sans-serif; white-space: pre;" font-size="20px" font-family="Roboto, sans-serif">
          <tspan x="12" y="34" dominant-baseline="ideographic">Armstrong and Aldrin Walk on </tspan>
          <tspan x="12" y="58" dominant-baseline="ideographic">Lunar Surface</tspan>
        </text>
      </g>
    </g>
  </g>
  <g id="g-root-tx_apollo11_93dbh31bs39jd-stroke-fill" data-item-order="0" transform="translate(32, 170)">
    <g id="tx_apollo11_93dbh31bs39jd-fill" stroke="none" fill="#f4f4f4">
      <g>
        <text style="font: 20px Roboto, sans-serif; white-space: pre;" font-size="20px" font-family="Roboto, sans-serif">
          <tspan x="12.83" y="34" dominant-baseline="ideographic">Apollo 11 Launch from Kennedy </tspan>
          <tspan x="177.38" y="58" dominant-baseline="ideographic">Space Center</tspan>
        </text>
      </g>
    </g>
  </g>
  <g id="g-root-tx_july2419_4njtcn1bs3abm-stroke-fill" data-item-order="0" transform="translate(188, 326)">
    <g id="tx_july2419_4njtcn1bs3abm-fill" stroke="none" fill="#1ac3fb">
      <g>
        <text style="font: bold 20px Roboto, sans-serif; white-space: pre;" font-weight="bold" font-size="20px" font-family="Roboto, sans-serif">
          <tspan x="18.55" y="34" dominant-baseline="ideographic">July 24, 1969</tspan>
        </text>
      </g>
    </g>
  </g>
  <g id="g-root-tx_july2019_1qdtu1j1bs38jn-stroke-fill" data-item-order="0" transform="translate(416, 230)">
    <g id="tx_july2019_1qdtu1j1bs38jn-fill" stroke="none" fill="#b7b7b7">
      <g>
        <text style="font: bold 20px Roboto, sans-serif; white-space: pre;" font-weight="bold" font-size="20px" font-family="Roboto, sans-serif">
          <tspan x="12" y="34" dominant-baseline="ideographic">July 20, 1969</tspan>
        </text>
      </g>
    </g>
  </g>
  <g id="g-root-tx_july1619_1hi6tsn1bs39cc-stroke-fill" data-item-order="0" transform="translate(188, 134)">
    <g id="tx_july1619_1hi6tsn1bs39cc-fill" stroke="none" fill="#4f91fc">
      <g>
        <text style="font: bold 20px Roboto, sans-serif; white-space: pre;" font-weight="bold" font-size="20px" font-family="Roboto, sans-serif">
          <tspan x="18.55" y="34" dominant-baseline="ideographic">July 16, 1969</tspan>
        </text>
      </g>
    </g>
    <defs>
      <pattern id="crawlingPattern-0000001b" x="0" y="0" width="12" height="12" patternUnits="userSpaceOnUse" fill="#0000001b">
        <use href="#crawlingSymbol"/>
      </pattern>
      <symbol id="crawlingSymbol">
        <g>
          <path d="M -12.5 12.5 l 13 -13 l 6 0 l -13 13 Z M -0.5 12.5 l 13 -13 l 6 0 l -13 13 Z M 11.5 12.5 l 13 -13 l 6 0 l -13 13 Z"/>
        </g>
      </symbol>
      <pattern id="crawlingPattern-00a3d9d9" x="0" y="0" width="12" height="12" patternUnits="userSpaceOnUse" fill="#00a3d9d9">
        <use href="#crawlingSymbol"/>
      </pattern>
      <pattern id="crawlingPattern-00000024" x="0" y="0" width="12" height="12" patternUnits="userSpaceOnUse" fill="#00000024">
        <use href="#crawlingSymbol"/>
      </pattern>
      <pattern id="crawlingPattern-0060fba2" x="0" y="0" width="12" height="12" patternUnits="userSpaceOnUse" fill="#0060fba2">
        <use href="#crawlingSymbol"/>
      </pattern>
    </defs>
  </g>
</svg>
