<svg width="648" height="480" viewBox="0 0 648 480" style="fill:none;stroke:none;fill-rule:evenodd;clip-rule:evenodd;stroke-linecap:round;stroke-linejoin:round;stroke-miterlimit:1.5;" version="1.1" xmlns="http://www.w3.org/2000/svg" xmlns:xlink="http://www.w3.org/1999/xlink"><style class="text-font-style fontImports" data-font-family="Roboto">@import url('https://fonts.googleapis.com/css2?family=Roboto:wght@400;700&amp;display=block');</style><g id="g-root-tf_1hgyo2v18ghzpl-stroke-fill" data-item-order="-284544" transform="translate(12, 12)"></g><g id="g-root-sy_4_cu_m7zecn18gcc1u-stroke-fill" data-item-order="-105977" transform="translate(145.95700073242188, 219)"><g id="sy_4_cu_m7zecn18gcc1u-stroke" fill="none" stroke-linecap="round" stroke-linejoin="round" stroke-miterlimit="4" stroke="#f4f4f4" stroke-width="2"><g><path d="M 340.042999 93C 343.356999 93 346.042999 90.314 346.042999 87C 346.042999 83.686 343.356999 81 340.042999 81C 336.728999 81 334.042999 83.686 334.042999 87C 334.042999 90.314 336.728999 93 340.042999 93ZM 16.021999 45C 19.346999 45 22.042999 42.314 22.042999 39C 22.042999 35.686 19.346999 33 16.021999 33C 12.695999 33 9.999999 35.686 9.999999 39C 9.999999 42.314 12.695999 45 16.021999 45ZM 340.042999 81L 340.042999 57.75M 16.042999 10L 16.042999 33M 195.561999 65.593L 334.144999 86.11M 162.040999 60.634L 22.027999 39.904"></path></g></g><g id="sy_4_cu_m7zecn18gcc1u-stroke-overlay" fill="none" stroke-linecap="round" stroke-linejoin="round" stroke-miterlimit="4" stroke="#3131311a" stroke-width="2" stroke-dasharray="4,6"><animate attributeName="stroke-dashoffset" values="30;0" dur="1s" repeatCount="indefinite" begin="0"></animate><g><path d="M 340.042999 93C 343.356999 93 346.042999 90.314 346.042999 87C 346.042999 83.686 343.356999 81 340.042999 81C 336.728999 81 334.042999 83.686 334.042999 87C 334.042999 90.314 336.728999 93 340.042999 93ZM 16.021999 45C 19.346999 45 22.042999 42.314 22.042999 39C 22.042999 35.686 19.346999 33 16.021999 33C 12.695999 33 9.999999 35.686 9.999999 39C 9.999999 42.314 12.695999 45 16.021999 45ZM 340.042999 81L 340.042999 57.75M 16.042999 10L 16.042999 33M 195.561999 65.593L 334.144999 86.11M 162.040999 60.634L 22.027999 39.904"></path></g></g></g><g id="g-root-sy_3_Exclude_dcce3r18gccuj-stroke-fill" data-item-order="-105974" transform="translate(267.055908203125, 256)"><g id="sy_3_Exclude_dcce3r18gccuj-fill" stroke="none" fill="none"><g><path d="M 56.944107 10C 49.471107 10 43.195107 15.122 41.436107 22.047L 10.134107 124.12C 9.542107 126.049 10.984107 128 13.002107 128L 100.886107 128C 102.903107 128 104.346107 126.049 103.754107 124.12L 72.454107 22.054C 70.696107 15.126 64.419107 10 56.944107 10ZM 56.944107 33C 60.810107 33 63.944107 29.866 63.944107 26C 63.944107 22.134 60.810107 19 56.944107 19C 53.078107 19 49.944107 22.134 49.944107 26C 49.944107 29.866 53.078107 33 56.944107 33Z"></path></g></g><g id="sy_3_Exclude_dcce3r18gccuj-stroke" fill="none" stroke-linecap="round" stroke-linejoin="round" stroke-miterlimit="4" stroke="#f4f4f4" stroke-width="2"><g><path d="M 56.944107 10C 49.471107 10 43.195107 15.122 41.436107 22.047L 10.134107 124.12C 9.542107 126.049 10.984107 128 13.002107 128L 100.886107 128C 102.903107 128 104.346107 126.049 103.754107 124.12L 72.454107 22.054C 70.696107 15.126 64.419107 10 56.944107 10ZM 56.944107 33C 60.810107 33 63.944107 29.866 63.944107 26C 63.944107 22.134 60.810107 19 56.944107 19C 53.078107 19 49.944107 22.134 49.944107 26C 49.944107 29.866 53.078107 33 56.944107 33Z"></path></g></g><g id="sy_3_Exclude_dcce3r18gccuj-stroke-overlay" fill="none" stroke-linecap="round" stroke-linejoin="round" stroke-miterlimit="4" stroke="#3131311a" stroke-width="2" stroke-dasharray="4,6"><animate attributeName="stroke-dashoffset" values="30;0" dur="1s" repeatCount="indefinite" begin="0"></animate><g><path d="M 56.944107 10C 49.471107 10 43.195107 15.122 41.436107 22.047L 10.134107 124.12C 9.542107 126.049 10.984107 128 13.002107 128L 100.886107 128C 102.903107 128 104.346107 126.049 103.754107 124.12L 72.454107 22.054C 70.696107 15.126 64.419107 10 56.944107 10ZM 56.944107 33C 60.810107 33 63.944107 29.866 63.944107 26C 63.944107 22.134 60.810107 19 56.944107 19C 53.078107 19 49.944107 22.134 49.944107 26C 49.944107 29.866 53.078107 33 56.944107 33Z"></path></g></g></g><g id="g-root-sy_2_right-bucket_8x5d2f18gcah0-stroke-fill" data-item-order="-105970" transform="translate(362, 230)"><g id="sy_2_right-bucket_8x5d2f18gcah0-fill" stroke="none" fill="none"><g><path d="M 11.081 15.729C 10.338 14.904 10 13.826 10 12.716L 10 12.716C 10 11.216 11.216 10 12.716 10L 235.284 10C 236.784 10 238 11.216 238 12.716L 238 12.716C 238 13.826 237.662 14.904 236.919 15.729C 231.551 21.692 204.717 46 124 46C 43.283 46 16.449 21.692 11.081 15.729Z"></path></g></g><g id="sy_2_right-bucket_8x5d2f18gcah0-stroke" fill="none" stroke-linecap="round" stroke-linejoin="round" stroke-miterlimit="4" stroke="#f79438" stroke-width="2"><g><path d="M 11.081 15.729C 10.338 14.904 10 13.826 10 12.716L 10 12.716C 10 11.216 11.216 10 12.716 10L 235.284 10C 236.784 10 238 11.216 238 12.716L 238 12.716C 238 13.826 237.662 14.904 236.919 15.729C 231.551 21.692 204.717 46 124 46C 43.283 46 16.449 21.692 11.081 15.729Z"></path></g></g><g id="sy_2_right-bucket_8x5d2f18gcah0-stroke-overlay" fill="none" stroke-linecap="round" stroke-linejoin="round" stroke-miterlimit="4" stroke="#f57600ab" stroke-width="2" stroke-dasharray="4,6"><animate attributeName="stroke-dashoffset" values="30;0" dur="1s" repeatCount="indefinite" begin="0"></animate><g><path d="M 11.081 15.729C 10.338 14.904 10 13.826 10 12.716L 10 12.716C 10 11.216 11.216 10 12.716 10L 235.284 10C 236.784 10 238 11.216 238 12.716L 238 12.716C 238 13.826 237.662 14.904 236.919 15.729C 231.551 21.692 204.717 46 124 46C 43.283 46 16.449 21.692 11.081 15.729Z"></path></g></g></g><g id="g-root-sy_1_left-bucket_8x5d2f18gcah1-stroke-fill" data-item-order="-105966" transform="translate(38, 182)"><g id="sy_1_left-bucket_8x5d2f18gcah1-fill" stroke="none" fill="none"><g><path d="M 11.0812 15.729C 10.3384 14.904 10 13.826 10 12.716L 10 12.716C 10 11.216 11.2158 10 12.7157 10L 235.284 10C 236.784 10 238 11.216 238 12.716L 238 12.716C 238 13.826 237.662 14.904 236.919 15.729C 231.551 21.692 204.717 46 124 46C 43.2826 46 16.4488 21.692 11.0812 15.729Z"></path></g></g><g id="sy_1_left-bucket_8x5d2f18gcah1-stroke" fill="none" stroke-linecap="round" stroke-linejoin="round" stroke-miterlimit="4" stroke="#1ac3fb" stroke-width="2"><g><path d="M 11.0812 15.729C 10.3384 14.904 10 13.826 10 12.716L 10 12.716C 10 11.216 11.2158 10 12.7157 10L 235.284 10C 236.784 10 238 11.216 238 12.716L 238 12.716C 238 13.826 237.662 14.904 236.919 15.729C 231.551 21.692 204.717 46 124 46C 43.2826 46 16.4488 21.692 11.0812 15.729Z"></path></g></g><g id="sy_1_left-bucket_8x5d2f18gcah1-stroke-overlay" fill="none" stroke-linecap="round" stroke-linejoin="round" stroke-miterlimit="4" stroke="#00ade7d7" stroke-width="2" stroke-dasharray="4,6"><animate attributeName="stroke-dashoffset" values="30;0" dur="1s" repeatCount="indefinite" begin="0"></animate><g><path d="M 11.0812 15.729C 10.3384 14.904 10 13.826 10 12.716L 10 12.716C 10 11.216 11.2158 10 12.7157 10L 235.284 10C 236.784 10 238 11.216 238 12.716L 238 12.716C 238 13.826 237.662 14.904 236.919 15.729C 231.551 21.692 204.717 46 124 46C 43.2826 46 16.4488 21.692 11.0812 15.729Z"></path></g></g></g><g id="g-root-ic_bird_1ictj18gcb9q-stroke-fill" data-item-order="0" transform="translate(50, 122)"><g id="ic_bird_1ictj18gcb9q-stroke" fill="none" stroke-linecap="round" stroke-linejoin="round" stroke-miterlimit="4" stroke="#f4f4f4" stroke-width="2"><g><path d="M 57 56.778C 52 57.818001 48.880001 52.818001 48.880001 52.818001L 48.880001 52.818001C 47.308853 55.317238 44.589237 56.862183 41.638 56.932003C 38.708015 56.790997 36.020248 55.263298 34.400002 52.818001L 34.400002 52.818001C 32.827568 55.315895 30.108742 56.860394 27.158001 56.931999C 24.230885 56.788498 21.546604 55.261093 19.927999 52.818001L 19.928001 52.818001C 19.928001 52.818001 15.906 57.902 11 56.860001M 57 46.924C 52 47.962002 48.880001 42.962002 48.880001 42.962002L 48.880001 42.962002C 47.308853 45.461235 44.589237 47.00618 41.638 47.076C 38.708015 46.934994 36.020248 45.407299 34.400002 42.961998L 34.400002 42.962002C 32.827568 45.459892 30.108742 47.004391 27.158001 47.076C 24.230885 46.932499 21.546604 45.405094 19.927999 42.961998L 19.928001 42.962002C 19.928001 42.962002 15.906 48.046001 11 47M 17 21.001999C 17 23.21114 18.790861 25.001999 21 25.001999C 23.209139 25.001999 25 23.21114 25 21.001999C 25 18.792862 23.209139 17.001999 21 17.001999C 18.790861 17.001999 17 18.792862 17 21.001999ZM 11 21.001999L 13 21.001999M 29 21.001999L 31 21.001999M 21 11.002L 21 13.002M 21 29.002001L 21 31.002001M 13.927999 13.93L 15.344 15.344M 26.656 26.658001L 28.072001 28.072001M 28.072001 13.93L 26.656 15.344M 15.344 26.658001L 13.927999 28.072001M 42 15L 44.251999 17.540001C 44.441784 17.753889 44.71405 17.876301 45 17.876301C 45.28595 17.876301 45.558216 17.753889 45.748001 17.540001L 48 15M 50 23L 52.251999 25.540001C 52.441784 25.753889 52.71405 25.876301 53 25.876301C 53.28595 25.876301 53.558216 25.753889 53.748001 25.540001L 56 23M 37 30L 39.251999 32.540001C 39.441784 32.753891 39.71405 32.876301 40 32.876301C 40.28595 32.876301 40.558216 32.753891 40.748001 32.540001L 43 30"></path></g></g><g id="ic_bird_1ictj18gcb9q-stroke-overlay" fill="none" stroke-linecap="round" stroke-linejoin="round" stroke-miterlimit="4" stroke="#3131311a" stroke-width="2" stroke-dasharray="4,6"><animate attributeName="stroke-dashoffset" values="30;0" dur="1s" repeatCount="indefinite" begin="0"></animate><g><path d="M 57 56.778C 52 57.818001 48.880001 52.818001 48.880001 52.818001L 48.880001 52.818001C 47.308853 55.317238 44.589237 56.862183 41.638 56.932003C 38.708015 56.790997 36.020248 55.263298 34.400002 52.818001L 34.400002 52.818001C 32.827568 55.315895 30.108742 56.860394 27.158001 56.931999C 24.230885 56.788498 21.546604 55.261093 19.927999 52.818001L 19.928001 52.818001C 19.928001 52.818001 15.906 57.902 11 56.860001M 57 46.924C 52 47.962002 48.880001 42.962002 48.880001 42.962002L 48.880001 42.962002C 47.308853 45.461235 44.589237 47.00618 41.638 47.076C 38.708015 46.934994 36.020248 45.407299 34.400002 42.961998L 34.400002 42.962002C 32.827568 45.459892 30.108742 47.004391 27.158001 47.076C 24.230885 46.932499 21.546604 45.405094 19.927999 42.961998L 19.928001 42.962002C 19.928001 42.962002 15.906 48.046001 11 47M 17 21.001999C 17 23.21114 18.790861 25.001999 21 25.001999C 23.209139 25.001999 25 23.21114 25 21.001999C 25 18.792862 23.209139 17.001999 21 17.001999C 18.790861 17.001999 17 18.792862 17 21.001999ZM 11 21.001999L 13 21.001999M 29 21.001999L 31 21.001999M 21 11.002L 21 13.002M 21 29.002001L 21 31.002001M 13.927999 13.93L 15.344 15.344M 26.656 26.658001L 28.072001 28.072001M 28.072001 13.93L 26.656 15.344M 15.344 26.658001L 13.927999 28.072001M 42 15L 44.251999 17.540001C 44.441784 17.753889 44.71405 17.876301 45 17.876301C 45.28595 17.876301 45.558216 17.753889 45.748001 17.540001L 48 15M 50 23L 52.251999 25.540001C 52.441784 25.753889 52.71405 25.876301 53 25.876301C 53.28595 25.876301 53.558216 25.753889 53.748001 25.540001L 56 23M 37 30L 39.251999 32.540001C 39.441784 32.753891 39.71405 32.876301 40 32.876301C 40.28595 32.876301 40.558216 32.753891 40.748001 32.540001L 43 30"></path></g></g></g><g id="g-root-ic_man_qs682v18gdr7z-stroke-fill" data-item-order="0" transform="translate(50, 50)"><g id="ic_man_qs682v18gdr7z-stroke" fill="none" stroke-linecap="round" stroke-linejoin="round" stroke-miterlimit="4" stroke="#f4f4f4" stroke-width="2"><g><path d="M 32.987999 43.764C 37.57795 46.214329 43.284012 44.589081 45.894001 40.087997L 45.894001 40.087997C 52.319809 43.26873 56.388161 49.816059 56.394001 56.986M 45.894001 40.087997L 39.299999 56.986M 50.664001 43.462002L 49.063999 53.612L 45.104 53.612L 45.088001 56.962002M 16.341999 36.190002L 29.48 36.190002M 33.681999 52.868L 26.716 45.543999L 26.716 36.200001L 19.104 36.200001L 19.104 45.554001L 12.142 52.868C 11.546909 53.632294 11.439168 54.668816 11.864348 55.539158C 12.289528 56.4095 13.173354 56.961624 14.142 56.962002L 31.676001 56.962002C 32.644646 56.961624 33.528473 56.4095 33.953651 55.539158C 34.37883 54.668816 34.271091 53.632294 33.676003 52.868ZM 16.512001 48.271999L 29.309999 48.271999M 39.982002 28.091999C 38.535484 29.174671 36.548515 29.174671 35.102001 28.092001M 40.799999 23.618C 41.020912 23.618 41.200001 23.797087 41.200001 24.018002C 41.200001 24.238914 41.020912 24.417999 40.800003 24.417999C 40.579086 24.417999 40.400002 24.238914 40.400002 24.018002C 40.400002 23.797087 40.579086 23.618 40.800003 23.618M 34.290001 23.618C 34.510914 23.618 34.690002 23.797087 34.690002 24.018002C 34.690002 24.238914 34.510914 24.417999 34.290001 24.417999C 34.069084 24.417999 33.889999 24.238914 33.889999 24.018002C 33.889999 23.797087 34.069084 23.618 34.290001 23.618M 47.301998 20.771999C 47.225609 15.436737 42.878811 11.15173 37.542999 11.15173C 32.207191 11.15173 27.86039 15.436737 27.784 20.771999L 27.784 24.026001C 27.86039 29.361263 32.207191 33.646271 37.542999 33.646271C 42.878811 33.646271 47.225609 29.361263 47.301998 24.026001ZM 47.301998 20.771999L 44.048 20.771999C 41.889999 20.771999 37.447998 21.32 34.290001 17.52C 32.66404 19.454556 30.304274 20.622475 27.780001 20.742001"></path></g></g><g id="ic_man_qs682v18gdr7z-stroke-overlay" fill="none" stroke-linecap="round" stroke-linejoin="round" stroke-miterlimit="4" stroke="#3131311a" stroke-width="2" stroke-dasharray="4,6"><animate attributeName="stroke-dashoffset" values="30;0" dur="1s" repeatCount="indefinite" begin="0"></animate><g><path d="M 32.987999 43.764C 37.57795 46.214329 43.284012 44.589081 45.894001 40.087997L 45.894001 40.087997C 52.319809 43.26873 56.388161 49.816059 56.394001 56.986M 45.894001 40.087997L 39.299999 56.986M 50.664001 43.462002L 49.063999 53.612L 45.104 53.612L 45.088001 56.962002M 16.341999 36.190002L 29.48 36.190002M 33.681999 52.868L 26.716 45.543999L 26.716 36.200001L 19.104 36.200001L 19.104 45.554001L 12.142 52.868C 11.546909 53.632294 11.439168 54.668816 11.864348 55.539158C 12.289528 56.4095 13.173354 56.961624 14.142 56.962002L 31.676001 56.962002C 32.644646 56.961624 33.528473 56.4095 33.953651 55.539158C 34.37883 54.668816 34.271091 53.632294 33.676003 52.868ZM 16.512001 48.271999L 29.309999 48.271999M 39.982002 28.091999C 38.535484 29.174671 36.548515 29.174671 35.102001 28.092001M 40.799999 23.618C 41.020912 23.618 41.200001 23.797087 41.200001 24.018002C 41.200001 24.238914 41.020912 24.417999 40.800003 24.417999C 40.579086 24.417999 40.400002 24.238914 40.400002 24.018002C 40.400002 23.797087 40.579086 23.618 40.800003 23.618M 34.290001 23.618C 34.510914 23.618 34.690002 23.797087 34.690002 24.018002C 34.690002 24.238914 34.510914 24.417999 34.290001 24.417999C 34.069084 24.417999 33.889999 24.238914 33.889999 24.018002C 33.889999 23.797087 34.069084 23.618 34.290001 23.618M 47.301998 20.771999C 47.225609 15.436737 42.878811 11.15173 37.542999 11.15173C 32.207191 11.15173 27.86039 15.436737 27.784 20.771999L 27.784 24.026001C 27.86039 29.361263 32.207191 33.646271 37.542999 33.646271C 42.878811 33.646271 47.225609 29.361263 47.301998 24.026001ZM 47.301998 20.771999L 44.048 20.771999C 41.889999 20.771999 37.447998 21.32 34.290001 17.52C 32.66404 19.454556 30.304274 20.622475 27.780001 20.742001"></path></g></g></g><g id="g-root-ic_2_1hgc6zr18gf3m0-stroke-fill" data-item-order="0" transform="translate(374, 170)"><g id="ic_2_1hgc6zr18gf3m0-stroke" fill="none" stroke-linecap="round" stroke-linejoin="round" stroke-miterlimit="4" stroke="#f4f4f4" stroke-width="2"><g><path d="M 11.506001 11.493999L 35 11.493999C 46.87606 11.497313 56.502686 21.123936 56.505997 33L 56.506001 51.5C 56.506001 54.261425 54.267426 56.5 51.506001 56.5C 49.29686 56.5 47.506001 54.709141 47.506001 52.5C 47.506001 50.732689 48.93869 49.299999 50.706001 49.299999M 42.108002 56.506001L 17.094 56.506001C 14.001205 56.506001 11.493999 53.998795 11.493999 50.906002C 11.49445 48.853596 12.888311 47.063488 14.878 46.560001C 15.087669 42.361996 18.367966 38.965195 22.556099 38.609196C 26.74423 38.253201 30.550787 41.047615 31.466 45.149998M 37.535999 48.619999C 37.539154 46.703606 36.191681 45.050323 34.314041 44.666836C 32.436409 44.283348 30.548557 45.275845 29.799999 47.040001M 11.506001 22.6L 37.874001 22.6C 42.715 22.537127 46.811974 26.161472 47.34 30.973999C 47.580421 34.915337 44.581226 38.305771 40.639999 38.547997C 37.487072 38.740555 34.774933 36.340904 34.582001 33.188C 34.427055 30.665421 36.347321 28.495274 38.869999 28.341999C 40.887848 28.217821 42.62381 29.754032 42.745998 31.771999"></path></g></g><g id="ic_2_1hgc6zr18gf3m0-stroke-overlay" fill="none" stroke-linecap="round" stroke-linejoin="round" stroke-miterlimit="4" stroke="#3131311a" stroke-width="2" stroke-dasharray="4,6"><animate attributeName="stroke-dashoffset" values="30;0" dur="1s" repeatCount="indefinite" begin="0"></animate><g><path d="M 11.506001 11.493999L 35 11.493999C 46.87606 11.497313 56.502686 21.123936 56.505997 33L 56.506001 51.5C 56.506001 54.261425 54.267426 56.5 51.506001 56.5C 49.29686 56.5 47.506001 54.709141 47.506001 52.5C 47.506001 50.732689 48.93869 49.299999 50.706001 49.299999M 42.108002 56.506001L 17.094 56.506001C 14.001205 56.506001 11.493999 53.998795 11.493999 50.906002C 11.49445 48.853596 12.888311 47.063488 14.878 46.560001C 15.087669 42.361996 18.367966 38.965195 22.556099 38.609196C 26.74423 38.253201 30.550787 41.047615 31.466 45.149998M 37.535999 48.619999C 37.539154 46.703606 36.191681 45.050323 34.314041 44.666836C 32.436409 44.283348 30.548557 45.275845 29.799999 47.040001M 11.506001 22.6L 37.874001 22.6C 42.715 22.537127 46.811974 26.161472 47.34 30.973999C 47.580421 34.915337 44.581226 38.305771 40.639999 38.547997C 37.487072 38.740555 34.774933 36.340904 34.582001 33.188C 34.427055 30.665421 36.347321 28.495274 38.869999 28.341999C 40.887848 28.217821 42.62381 29.754032 42.745998 31.771999"></path></g></g></g><g id="g-root-ic_1_1q9haw718ggkcp-stroke-fill" data-item-order="0" transform="translate(374, 98)"><g id="ic_1_1q9haw718ggkcp-stroke" fill="none" stroke-linecap="round" stroke-linejoin="round" stroke-miterlimit="4" stroke="#f4f4f4" stroke-width="2"><g><path d="M 57 11L 57 37L 11 37L 11 11ZM 49 11L 49 37M 19 11L 19 37M 11 19L 19 19M 11 29L 19 29M 49 19L 57 19M 49 29L 57 29M 41.400002 25.864C 42.168732 25.565037 42.675083 24.824818 42.675083 24C 42.675083 23.175182 42.168732 22.434963 41.400002 22.136L 28.362 17.068001C 28.054375 16.948538 27.707619 16.988537 27.435272 17.1749C 27.162926 17.361263 27.000059 17.669994 27 18L 27 30C 27.000059 30.330006 27.162926 30.638737 27.435272 30.8251C 27.707619 31.011463 28.054375 31.051462 28.362 30.931999ZM 13.666 46C 13.666 48.761425 15.904576 51 18.666 51C 21.427423 51 23.666 48.761425 23.666 46C 23.666 43.238575 21.427423 41 18.666 41C 15.904576 41 13.666 43.238575 13.666 46ZM 44.334 46C 44.334 48.761425 46.572578 51 49.334 51C 52.095425 51 54.334 48.761425 54.334 46C 54.334 43.238575 52.095425 41 49.334 41C 46.572578 41 44.334 43.238575 44.334 46ZM 29 46C 29 48.761425 31.238577 51 34 51C 36.761425 51 39 48.761425 39 46C 39 43.238575 36.761425 41 34 41C 31.238577 41 29 43.238575 29 46ZM 11 57C 12.711145 54.452347 15.597506 52.946289 18.666 52.999996C 21.735199 52.945606 24.622465 54.451744 26.334 56.999996C 28.044638 54.451782 30.931332 52.945549 34 53C 37.068672 52.945549 39.95536 54.451782 41.666 57C 43.414268 54.493687 46.277176 53.000099 49.332996 53.000099C 52.388821 53.000099 55.251724 54.493687 56.999996 56.999996"></path></g></g><g id="ic_1_1q9haw718ggkcp-stroke-overlay" fill="none" stroke-linecap="round" stroke-linejoin="round" stroke-miterlimit="4" stroke="#3131311a" stroke-width="2" stroke-dasharray="4,6"><animate attributeName="stroke-dashoffset" values="30;0" dur="1s" repeatCount="indefinite" begin="0"></animate><g><path d="M 57 11L 57 37L 11 37L 11 11ZM 49 11L 49 37M 19 11L 19 37M 11 19L 19 19M 11 29L 19 29M 49 19L 57 19M 49 29L 57 29M 41.400002 25.864C 42.168732 25.565037 42.675083 24.824818 42.675083 24C 42.675083 23.175182 42.168732 22.434963 41.400002 22.136L 28.362 17.068001C 28.054375 16.948538 27.707619 16.988537 27.435272 17.1749C 27.162926 17.361263 27.000059 17.669994 27 18L 27 30C 27.000059 30.330006 27.162926 30.638737 27.435272 30.8251C 27.707619 31.011463 28.054375 31.051462 28.362 30.931999ZM 13.666 46C 13.666 48.761425 15.904576 51 18.666 51C 21.427423 51 23.666 48.761425 23.666 46C 23.666 43.238575 21.427423 41 18.666 41C 15.904576 41 13.666 43.238575 13.666 46ZM 44.334 46C 44.334 48.761425 46.572578 51 49.334 51C 52.095425 51 54.334 48.761425 54.334 46C 54.334 43.238575 52.095425 41 49.334 41C 46.572578 41 44.334 43.238575 44.334 46ZM 29 46C 29 48.761425 31.238577 51 34 51C 36.761425 51 39 48.761425 39 46C 39 43.238575 36.761425 41 34 41C 31.238577 41 29 43.238575 29 46ZM 11 57C 12.711145 54.452347 15.597506 52.946289 18.666 52.999996C 21.735199 52.945606 24.622465 54.451744 26.334 56.999996C 28.044638 54.451782 30.931332 52.945549 34 53C 37.068672 52.945549 39.95536 54.451782 41.666 57C 43.414268 54.493687 46.277176 53.000099 49.332996 53.000099C 52.388821 53.000099 55.251724 54.493687 56.999996 56.999996"></path></g></g></g><g id="g-root-tx_consiste_zn6r8n18ghxqi-stroke-fill" data-item-order="0" transform="translate(110, 122)"><g id="tx_consiste_zn6r8n18ghxqi-fill" stroke="none" fill="#f4f4f4"><g><text style="font: 20px Roboto, sans-serif; white-space: pre;" font-size="20px" font-family="Roboto, sans-serif"><tspan x="12" y="34" dominant-baseline="ideographic">Consistent and </tspan><tspan x="12" y="58" dominant-baseline="ideographic">credible</tspan></text></g></g><g id="tx_consiste_zn6r8n18ghxqi-fill-overlay" stroke="none" fill="url(#crawlingPattern-0000001b)"><g><text style="font: 20px Roboto, sans-serif; white-space: pre;" font-size="20px" font-family="Roboto, sans-serif"><tspan x="12" y="34" dominant-baseline="ideographic">Consistent and </tspan><tspan x="12" y="58" dominant-baseline="ideographic">credible</tspan></text></g></g></g><g id="g-root-tx_alignedw_hwj7tz18ghwxv-stroke-fill" data-item-order="0" transform="translate(110, 50)"><g id="tx_alignedw_hwj7tz18ghwxv-fill" stroke="none" fill="#f4f4f4"><g><text style="font: 20px Roboto, sans-serif; white-space: pre;" font-size="20px" font-family="Roboto, sans-serif"><tspan x="12" y="34" dominant-baseline="ideographic">Aligned with </tspan><tspan x="12" y="58" dominant-baseline="ideographic">science</tspan></text></g></g><g id="tx_alignedw_hwj7tz18ghwxv-fill-overlay" stroke="none" fill="url(#crawlingPattern-0000001b)"><g><text style="font: 20px Roboto, sans-serif; white-space: pre;" font-size="20px" font-family="Roboto, sans-serif"><tspan x="12" y="34" dominant-baseline="ideographic">Aligned with </tspan><tspan x="12" y="58" dominant-baseline="ideographic">science</tspan></text></g></g></g><g id="g-root-tx_speculat_4l2pgn18ghyis-stroke-fill" data-item-order="0" transform="translate(434, 170)"><g id="tx_speculat_4l2pgn18ghyis-fill" stroke="none" fill="#f4f4f4"><g><text style="font: 20px Roboto, sans-serif; white-space: pre;" font-size="20px" font-family="Roboto, sans-serif"><tspan x="12" y="34" dominant-baseline="ideographic">Speculative and </tspan><tspan x="12" y="58" dominant-baseline="ideographic">sensational</tspan></text></g></g><g id="tx_speculat_4l2pgn18ghyis-fill-overlay" stroke="none" fill="url(#crawlingPattern-0000001b)"><g><text style="font: 20px Roboto, sans-serif; white-space: pre;" font-size="20px" font-family="Roboto, sans-serif"><tspan x="12" y="34" dominant-baseline="ideographic">Speculative and </tspan><tspan x="12" y="58" dominant-baseline="ideographic">sensational</tspan></text></g></g></g><g id="g-root-tx_drivenby_1hfppwn18ghxjh-stroke-fill" data-item-order="0" transform="translate(434, 110)"><g id="tx_drivenby_1hfppwn18ghxjh-fill" stroke="none" fill="#f4f4f4"><g><text style="font: 20px Roboto, sans-serif; white-space: pre;" font-size="20px" font-family="Roboto, sans-serif"><tspan x="12" y="34" dominant-baseline="ideographic">Driven by culture</tspan></text></g></g><g id="tx_drivenby_1hfppwn18ghxjh-fill-overlay" stroke="none" fill="url(#crawlingPattern-0000001b)"><g><text style="font: 20px Roboto, sans-serif; white-space: pre;" font-size="20px" font-family="Roboto, sans-serif"><tspan x="12" y="34" dominant-baseline="ideographic">Driven by culture</tspan></text></g></g></g><g id="g-root-tx_aldrinse_14497jb18ghz4e-stroke-fill" data-item-order="0" transform="translate(62, 290)"><g id="tx_aldrinse_14497jb18ghz4e-fill" stroke="none" fill="#f4f4f4"><g><text style="font: 20px Roboto, sans-serif; white-space: pre;" font-size="20px" font-family="Roboto, sans-serif"><tspan x="13.55" y="34" dominant-baseline="ideographic">Aldrin's Explanation</tspan></text></g></g><g id="tx_aldrinse_14497jb18ghz4e-fill-overlay" stroke="none" fill="url(#crawlingPattern-0000001b)"><g><text style="font: 20px Roboto, sans-serif; white-space: pre;" font-size="20px" font-family="Roboto, sans-serif"><tspan x="13.55" y="34" dominant-baseline="ideographic">Aldrin's Explanation</tspan></text></g></g></g><g id="g-root-tx_ufointer_mdlo4n18ghybr-stroke-fill" data-item-order="0" transform="translate(386, 338)"><g id="tx_ufointer_mdlo4n18ghybr-fill" stroke="none" fill="#f4f4f4"><g><text style="font: 20px Roboto, sans-serif; white-space: pre;" font-size="20px" font-family="Roboto, sans-serif"><tspan x="13.41" y="34" dominant-baseline="ideographic">UFO Interpretations</tspan></text></g></g><g id="tx_ufointer_mdlo4n18ghybr-fill-overlay" stroke="none" fill="url(#crawlingPattern-0000001b)"><g><text style="font: 20px Roboto, sans-serif; white-space: pre;" font-size="20px" font-family="Roboto, sans-serif"><tspan x="13.41" y="34" dominant-baseline="ideographic">UFO Interpretations</tspan></text></g></g></g><g id="g-root-tx_balancin_92rmuf18ghwqw-stroke-fill" data-item-order="0" transform="translate(26, 386)"><g id="tx_balancin_92rmuf18ghwqw-fill" stroke="none" fill="#f4f4f4"><g><text style="font: 20px Roboto, sans-serif; white-space: pre;" font-size="20px" font-family="Roboto, sans-serif"><tspan x="17.25" y="34" dominant-baseline="ideographic">Balancing Credible Explanations Against Speculative Narratives</tspan></text></g></g><defs><pattern id="crawlingPattern-0000001b" x="0" y="0" width="12" height="12" patternUnits="userSpaceOnUse" fill="#0000001b"><use href="#crawlingSymbol"></use></pattern><symbol id="crawlingSymbol"><g><animateTransform attributeName="transform" type="translate" from="0 0" to="-12 0" dur="0.4s" repeatCount="indefinite"></animateTransform><path d="M -12.5 12.5 l 13 -13 l 6 0 l -13 13 Z M -0.5 12.5 l 13 -13 l 6 0 l -13 13 Z M 11.5 12.5 l 13 -13 l 6 0 l -13 13 Z"></path></g></symbol></defs><g id="tx_balancin_92rmuf18ghwqw-fill-overlay" stroke="none" fill="url(#crawlingPattern-0000001b)"><g><text style="font: 20px Roboto, sans-serif; white-space: pre;" font-size="20px" font-family="Roboto, sans-serif"><tspan x="17.25" y="34" dominant-baseline="ideographic">Balancing Credible Explanations Against Speculative Narratives</tspan></text></g></g></g></svg>