<?xml version='1.0' encoding='utf-8'?>
<svg xmlns="http://www.w3.org/2000/svg" xmlns:xlink="http://www.w3.org/1999/xlink" width="1056" height="708" viewBox="0 0 1056 708" style="fill:none;stroke:none;fill-rule:evenodd;clip-rule:evenodd;stroke-linecap:round;stroke-linejoin:round;stroke-miterlimit:1.5;" version="1.1">
  <style class="text-font-style fontImports" data-font-family="Roboto">@import url('https://fonts.googleapis.com/css2?family=Roboto:wght@400;700&amp;display=block');</style>
  <rect x="0" y="0" width="1056" height="708" fill="#252a34" stroke="none" id="programmatic_background"/>
  <g id="g-root-tf_145ha3r1b8i32m-stroke-fill" data-item-order="-699696" transform="translate(12, 12)"/>
  <g id="g-root-sy_4_cu_18efk9z1b89n2m-stroke-fill" data-item-order="-317369" transform="translate(602, 386)">
    <g id="sy_4_cu_18efk9z1b89n2m-stroke" fill="none" stroke-linecap="round" stroke-linejoin="round" stroke-miterlimit="4" stroke="#43dd93" stroke-width="2">
      <g>
        <path d="M 33.850586 154.000488L 45.850586 154.000488M 58.200195 70L 70.200195 70M 87.9997 10L 21.9997 238L 10 238"/>
      </g>
    </g>
  </g>
  <g id="g-root-sy_3_cu_13ym25j1b89nuv-stroke-fill" data-item-order="-317365" transform="translate(602, 158.00048828125)">
    <g id="sy_3_cu_13ym25j1b89nuv-stroke" fill="none" stroke-linecap="round" stroke-linejoin="round" stroke-miterlimit="4" stroke="#fb6762" stroke-width="2">
      <g>
        <path d="M 33.84668 93.999512L 45.84668 93.999512M 58.195313 177.999512L 70.195313 177.999512M 87.9997 238L 21.9997 10L 10 10"/>
      </g>
    </g>
  </g>
  <g id="g-root-sy_2_cu_zisk131b89on4-stroke-fill" data-item-order="-317361" transform="translate(290, 385.99951171875)">
    <g id="sy_2_cu_zisk131b89on4-stroke" fill="none" stroke-linecap="round" stroke-linejoin="round" stroke-miterlimit="4" stroke="#b7b7b7" stroke-width="2">
      <g>
        <path d="M 33.851563 154.000488L 45.851563 154.000488M 58.200195 70.000488L 70.200195 70.000488M 87.9997 10L 21.9997 238L 10 238"/>
      </g>
    </g>
  </g>
  <g id="g-root-sy_1_cu_qn5js71b89pft-stroke-fill" data-item-order="-317357" transform="translate(290, 158.00048828125)">
    <g id="sy_1_cu_qn5js71b89pft-stroke" fill="none" stroke-linecap="round" stroke-linejoin="round" stroke-miterlimit="4" stroke="#4f91fc" stroke-width="2">
      <g>
        <path d="M 33.851563 93.999512L 45.851563 93.999512M 58.200195 177.999512L 70.200195 177.999512M 87.9997 238L 21.9997 10L 10 10"/>
      </g>
    </g>
  </g>
  <g id="g-root-sy_-1_line_m7yiqv1b89n2a-stroke-fill" data-item-order="-317351" transform="translate(26, 386)">
    <g id="sy_-1_line_m7yiqv1b89n2a-stroke" fill="none" stroke-linecap="round" stroke-linejoin="round" stroke-miterlimit="4" stroke="#f4f4f4" stroke-width="2">
      <g>
        <path d="M 704 10L 10 10"/>
        <path d="M 698 16.5L 704.5 10L 698 3.5" stroke-dasharray="none"/>
      </g>
    </g>
  </g>
  <g id="g-root-tx_auroraai_dcbihz1b89nuz-stroke-fill" data-item-order="0" transform="translate(794, 362)">
    <g id="tx_auroraai_dcbihz1b89nuz-fill" stroke="none" fill="#f4f4f4">
      <g>
        <text style="font: 20px Roboto, sans-serif; white-space: pre;" font-size="20px" font-family="Roboto, sans-serif">
          <tspan x="12" y="34" dominant-baseline="ideographic">Aurora Airship Incident </tspan>
          <tspan x="12" y="58" dominant-baseline="ideographic">of 1897</tspan>
        </text>
      </g>
    </g>
  </g>
  <g id="g-root-tx_mediacov_8wi0dj1b89on8-stroke-fill" data-item-order="0" transform="translate(482, 434)">
    <g id="tx_mediacov_8wi0dj1b89on8-fill" stroke="none" fill="#f4f4f4">
      <g>
        <text style="font: 20px Roboto, sans-serif; white-space: pre;" font-size="20px" font-family="Roboto, sans-serif">
          <tspan x="20.41" y="34" dominant-baseline="ideographic">Media Coverage</tspan>
        </text>
      </g>
    </g>
  </g>
  <g id="g-root-tx_localtou_1ums12f1b89mv9-stroke-fill" data-item-order="0" transform="translate(482, 518)">
    <g id="tx_localtou_1ums12f1b89mv9-fill" stroke="none" fill="#f4f4f4">
      <g>
        <text style="font: 20px Roboto, sans-serif; white-space: pre;" font-size="20px" font-family="Roboto, sans-serif">
          <tspan x="14.14" y="34" dominant-baseline="ideographic">Local Tourism</tspan>
        </text>
      </g>
    </g>
  </g>
  <g id="g-root-tx_cultural_1lr50tj1b89nny-stroke-fill" data-item-order="0" transform="translate(410, 602)">
    <g id="tx_cultural_1lr50tj1b89nny-fill" stroke="none" fill="#f4f4f4">
      <g>
        <text style="font: 20px Roboto, sans-serif; white-space: pre;" font-size="20px" font-family="Roboto, sans-serif">
          <tspan x="16.33" y="34" dominant-baseline="ideographic">Cultural Impact</tspan>
        </text>
      </g>
    </g>
  </g>
  <g id="g-root-tx_alternat_1hbbip31b89og7-stroke-fill" data-item-order="0" transform="translate(518, 302)">
    <g id="tx_alternat_1hbbip31b89og7-fill" stroke="none" fill="#f4f4f4">
      <g>
        <text style="font: 20px Roboto, sans-serif; white-space: pre;" font-size="20px" font-family="Roboto, sans-serif">
          <tspan x="32.66" y="34" dominant-baseline="ideographic">Alternative </tspan>
          <tspan x="13.63" y="58" dominant-baseline="ideographic">Explanations</tspan>
        </text>
      </g>
    </g>
  </g>
  <g id="g-root-tx_hoaxtheo_140hhev1b89mvc-stroke-fill" data-item-order="0" transform="translate(494, 230)">
    <g id="tx_hoaxtheo_140hhev1b89mvc-fill" stroke="none" fill="#f4f4f4">
      <g>
        <text style="font: 20px Roboto, sans-serif; white-space: pre;" font-size="20px" font-family="Roboto, sans-serif">
          <tspan x="15.58" y="34" dominant-baseline="ideographic">Hoax Theory</tspan>
        </text>
      </g>
    </g>
  </g>
  <g id="g-root-tx_skeptica_zknzaf1b89nnl-stroke-fill" data-item-order="0" transform="translate(338, 146)">
    <g id="tx_skeptica_zknzaf1b89nnl-fill" stroke="none" fill="#f4f4f4">
      <g>
        <text style="font: 20px Roboto, sans-serif; white-space: pre;" font-size="20px" font-family="Roboto, sans-serif">
          <tspan x="23.38" y="34" dominant-baseline="ideographic">Skeptical Perspectives</tspan>
        </text>
      </g>
    </g>
  </g>
  <g id="g-root-tx_witnesst_qp0z1j1b89oga-stroke-fill" data-item-order="0" transform="translate(134, 434)">
    <g id="tx_witnesst_qp0z1j1b89oga-fill" stroke="none" fill="#f4f4f4">
      <g>
        <text style="font: 20px Roboto, sans-serif; white-space: pre;" font-size="20px" font-family="Roboto, sans-serif">
          <tspan x="14.89" y="34" dominant-baseline="ideographic">Witness Testimonies</tspan>
        </text>
      </g>
    </g>
  </g>
  <g id="g-root-tx_metalsam_de6xrb1b89mvf-stroke-fill" data-item-order="0" transform="translate(158, 518)">
    <g id="tx_metalsam_de6xrb1b89mvf-fill" stroke="none" fill="#f4f4f4">
      <g>
        <text style="font: 20px Roboto, sans-serif; white-space: pre;" font-size="20px" font-family="Roboto, sans-serif">
          <tspan x="19.36" y="34" dominant-baseline="ideographic">Metal Samples</tspan>
        </text>
      </g>
    </g>
  </g>
  <g id="g-root-tx_evidence_8ydfmv1b89nno-stroke-fill" data-item-order="0" transform="translate(86, 602)">
    <g id="tx_evidence_8ydfmv1b89nno-fill" stroke="none" fill="#f4f4f4">
      <g>
        <text style="font: 20px Roboto, sans-serif; white-space: pre;" font-size="20px" font-family="Roboto, sans-serif">
          <tspan x="17.88" y="34" dominant-baseline="ideographic">Evidence Claims</tspan>
        </text>
      </g>
    </g>
  </g>
  <g id="g-root-tx_yellowjo_2qfdz1b89ogd-stroke-fill" data-item-order="0" transform="translate(158, 314)">
    <g id="tx_yellowjo_2qfdz1b89ogd-fill" stroke="none" fill="#f4f4f4">
      <g>
        <text style="font: 20px Roboto, sans-serif; white-space: pre;" font-size="20px" font-family="Roboto, sans-serif">
          <tspan x="13.13" y="34" dominant-baseline="ideographic">Yellow Journalism</tspan>
        </text>
      </g>
    </g>
  </g>
  <g id="g-root-tx_greatair_1uo0z8n1b89p1i-stroke-fill" data-item-order="0" transform="translate(122, 230)">
    <g id="tx_greatair_1uo0z8n1b89p1i-fill" stroke="none" fill="#f4f4f4">
      <g>
        <text style="font: 20px Roboto, sans-serif; white-space: pre;" font-size="20px" font-family="Roboto, sans-serif">
          <tspan x="19.39" y="34" dominant-baseline="ideographic">Great Airship Wave</tspan>
        </text>
      </g>
    </g>
  </g>
  <g id="g-root-tx_historic_1lsdyzr1b89pu7-stroke-fill" data-item-order="0" transform="translate(74, 146)">
    <g id="tx_historic_1lsdyzr1b89pu7-fill" stroke="none" fill="#f4f4f4">
      <g>
        <text style="font: 20px Roboto, sans-serif; white-space: pre;" font-size="20px" font-family="Roboto, sans-serif">
          <tspan x="16.89" y="34" dominant-baseline="ideographic">Historical Context</tspan>
        </text>
      </g>
    </g>
  </g>
  <g id="g-root-tx_analyzin_1cxdftz1b89o8w-stroke-fill" data-item-order="0" transform="translate(350, 50)">
    <g id="tx_analyzin_1cxdftz1b89o8w-fill" stroke="none" fill="#f4f4f4">
      <g>
        <text style="font: 20px Roboto, sans-serif; white-space: pre;" font-size="20px" font-family="Roboto, sans-serif">
          <tspan x="14.5" y="34" dominant-baseline="ideographic">Analyzing the Aurora Airship Incident</tspan>
        </text>
      </g>
    </g>
    <defs>
      <pattern id="crawlingPattern-0000001b" x="0" y="0" width="12" height="12" patternUnits="userSpaceOnUse" fill="#0000001b">
        <use href="#crawlingSymbol"/>
      </pattern>
      <symbol id="crawlingSymbol">
        <g>
          <path d="M -12.5 12.5 l 13 -13 l 6 0 l -13 13 Z M -0.5 12.5 l 13 -13 l 6 0 l -13 13 Z M 11.5 12.5 l 13 -13 l 6 0 l -13 13 Z"/>
        </g>
      </symbol>
    </defs>
  </g>
  <g id="g-root-ic_ball_141qfl31b89p1l-stroke-fill" data-item-order="0" transform="translate(254, 140)">
    <g id="ic_ball_141qfl31b89p1l-stroke" fill="none" stroke-linecap="round" stroke-linejoin="round" stroke-miterlimit="4" stroke="#f4f4f4" stroke-width="2">
      <g>
        <path d="M 20.5 25.09C 16.772078 25.09 13.75 22.067923 13.75 18.34C 13.75 14.612078 16.772078 11.59 20.5 11.59L 38.5 11.59C 42.227921 11.59 45.25 14.612078 45.25 18.34C 45.25 22.067923 42.227921 25.09 38.5 25.09ZM 14.5 15.325L 11.785 14.26C 11.551558 14.170584 11.289404 14.198473 11.08 14.335C 10.873476 14.471369 10.749445 14.702517 10.75 14.95L 10.75 21.744999C 10.749445 21.992485 10.873476 22.223633 11.08 22.360001C 11.301593 22.47226 11.563407 22.47226 11.785 22.360001L 14.5 21.355M 14.14 20.59L 44.860001 20.59M 14.14 16.09L 26.5 16.09M 29.5 16.09L 31 16.09M 34 16.09L 35.5 16.09M 38.5 16.09L 44.860001 16.09M 24.25 25.09L 25.585001 29.08C 25.679079 29.388832 25.967236 29.597284 26.289999 29.59L 31.960001 29.59C 32.282761 29.597284 32.570919 29.388832 32.664997 29.079998L 34 25.09M 16 42.34C 16.379444 39.070969 19.061058 36.552071 22.347416 36.377739C 25.633776 36.203407 28.566833 38.424461 29.289999 41.635002M 16.255001 41.275002C 15.755749 40.892666 15.120021 40.735092 14.5 40.84C 12.428932 40.84 10.75 42.518932 10.75 44.59L 35.5 44.59C 35.5 41.690506 33.149498 39.340004 30.250002 39.340004C 29.668346 39.342022 29.090866 39.438271 28.539997 39.624996"/>
      </g>
    </g>
  </g>
  <g id="g-root-ic_card_1ut0rxj1b8b1u2-stroke-fill" data-item-order="0" transform="translate(254, 596)">
    <g id="ic_card_1ut0rxj1b8b1u2-stroke" fill="none" stroke-linecap="round" stroke-linejoin="round" stroke-miterlimit="4" stroke="#f4f4f4" stroke-width="2">
      <g>
        <path d="M 44.670849 28.431549L 44.670849 12.92968C 44.670849 12.10126 43.999149 11.429688 43.170849 11.429688L 12.83008 11.429688C 12.001645 11.429688 11.330078 12.10126 11.330078 12.929695L 11.330078 30.25585C 11.330078 31.084301 12.00166 31.75585 12.83008 31.75585L 25.762449 31.75585M 35.69725 40.222599C 35.397247 40.222599 35.097099 40.522751 35.097099 40.82275C 35.097099 41.122749 35.397247 41.4226 35.69725 41.4226M 35.698299 40.222599C 35.998299 40.222599 36.298302 40.522751 36.298302 40.82275C 36.298302 41.122749 35.998299 41.4226 35.698299 41.4226M 35.697701 36.91795L 35.697701 32.41795M 44.39785 40.820351C 44.847847 41.570351 44.697853 42.620201 44.247849 43.370201C 43.797852 44.120201 42.89785 44.570351 41.997849 44.570351L 29.247849 44.570351C 28.347851 44.570351 27.447849 44.120201 26.997849 43.370201C 26.547852 42.620201 26.39785 41.570351 26.847851 40.820351L 33.14785 28.070351C 33.597851 27.170351 34.497849 26.570351 35.547852 26.570351C 36.597847 26.570351 37.497849 27.170351 37.947853 28.070351L 44.39785 40.820351ZM 10 10M 31.30765 17.078125L 39.491051 17.078125M 10 10M 34.3633 21.58984L 39.351849 21.58984M 21.326756 20.694534C 22.85611 20.694534 24.09589 19.454741 24.09589 17.925385C 24.09589 16.39603 22.85611 15.15625 21.326756 15.15625C 19.7974 15.15625 18.557621 16.39603 18.557621 17.925385C 18.557621 19.454741 19.7974 20.694534 21.326756 20.694534ZM 16.480465 28.017849C 16.480465 25.38715 18.695786 23.171875 21.326469 23.171875C 23.95714 23.171875 26.1724 25.38715 26.1724 28.017849"/>
      </g>
    </g>
  </g>
  <g id="g-root-ic_2_1463r6v1b8cidn-stroke-fill" data-item-order="0" transform="translate(566, 140)">
    <g id="ic_2_1463r6v1b8cidn-stroke" fill="none" stroke-linecap="round" stroke-linejoin="round" stroke-miterlimit="4" stroke="#f4f4f4" stroke-width="2">
      <g>
        <path d="M 26.328701 41.570351C 34.521698 41.570351 41.163399 34.928799 41.163399 26.7358C 41.163399 18.54286 34.521698 11.90119 26.328701 11.90119C 18.13582 11.90119 11.494141 18.54286 11.494141 26.7358C 11.494141 34.928799 18.13582 41.570351 26.328701 41.570351ZM 10 10M 37.1362 36.890198L 44.505398 44.0989M 20.58721 35.302299L 20.58721 30.090401C 19.437731 29.025549 18.63607 27.6388 18.28693 26.1112C 17.937775 24.58366 18.057384 22.986324 18.6301 21.5278C 19.202816 20.06926 20.20204 18.817329 21.49729 17.93548C 22.792542 17.053631 24.323589 16.582855 25.890551 16.58461C 31.8295 16.58461 33.111401 21.474491 35.2285 26.96665C 35.264801 27.06115 35.27755 27.163149 35.265701 27.2638C 35.253849 27.3643 35.217701 27.460449 35.1604 27.544001C 35.1031 27.627399 35.026299 27.695801 34.936752 27.74305C 34.847198 27.7903 34.747452 27.81505 34.646198 27.815199L 33.065651 27.815199L 33.065651 30.3109C 33.065651 30.972851 32.8027 31.6075 32.334702 32.075649C 31.866699 32.543652 31.231899 32.806599 30.56995 32.806599L 29.3221 32.806599L 29.3221 35.302299M 23.636965 23.33758C 23.636965 22.184336 24.55957 21.146456 25.82815 21.146456C 26.98135 21.146456 28.01935 22.069016 28.01935 23.33758C 28.01935 24.490839 27.096701 25.528749 25.82815 25.528749L 25.82815 26.50135M 25.828751 29.696051C 25.677999 29.696051 25.527399 29.8468 25.527399 29.997551C 25.527399 30.1483 25.677999 30.298901 25.828751 30.298901M 25.8286 29.696051C 25.979349 29.696051 26.1301 29.8468 26.1301 29.997551C 26.1301 30.1483 25.979349 30.298901 25.8286 30.298901"/>
      </g>
    </g>
  </g>
  <g id="g-root-ic_cash_hsrhpj1b8fapw-stroke-fill" data-item-order="0" transform="translate(566, 596)">
    <g id="ic_cash_hsrhpj1b8fapw-stroke" fill="none" stroke-linecap="round" stroke-linejoin="round" stroke-miterlimit="4" stroke="#f4f4f4" stroke-width="2">
      <g>
        <path d="M 11.125 43.278248C 11.125 42.060848 12.25 40.995697 13.53571 40.995697C 14.178565 40.995697 14.821435 41.300049 15.30358 41.604401C 15.785725 39.93055 17.232145 38.71315 19.160709 38.71315C 21.410709 38.71315 23.178566 40.387001 23.178566 42.517452M 32.178551 42.3652C 32.660648 40.691349 34.107101 39.474102 36.035648 39.474102C 38.285648 39.474102 40.053551 41.147949 40.053551 43.278248L 40.053551 44.800003C 40.053551 43.5826 41.178551 42.517452 42.464199 42.517452C 43.75 42.517452 44.875 43.5826 44.875 44.800003M 11.125 30.025002L 11.125 34.38385M 10 10M 44.875 35.724998L 16.375 33.775002L 11.125 30.025002L 13.09882 27.775002L 18.414625 27.775002M 10 10M 41.875 27.775002L 44.875 30.025002M 32.875 27.775002L 23.875 27.775002L 23.875 20.275015L 28.375 15.025015L 32.875 20.275015L 32.875 27.775002ZM 41.875 27.775002L 32.875 27.775002L 32.875 20.275015L 36.625 20.275015L 36.625 15.775015L 41.875 15.775015L 41.875 27.775002ZM 37.375 25.525002L 37.375 27.025002M 28.375 22.525015L 28.375 23.275015M 10 10M 23.875 20.275015L 24.625 11.275009L 32.125 11.275009L 32.875 20.275015M 23.875015 27.775002L 18.175014 27.775002L 18.175014 15.775015L 21.025015 12.025015L 23.875015 15.775015L 23.875015 27.775002ZM 18.15625 20.5L 13.1875 20.5L 13.1875 27.90625"/>
      </g>
    </g>
  </g>
  <g id="g-root-ic_pose_924a5j1b8gob1-stroke-fill" data-item-order="0" transform="translate(734, 362)">
    <g id="ic_pose_924a5j1b8gob1-stroke" fill="none" stroke-linecap="round" stroke-linejoin="round" stroke-miterlimit="4" stroke="#f4f4f4" stroke-width="2">
      <g>
        <path d="M 10 10M 28 40.700001L 18.799999 46.299999C 17.4 47.099998 16.6 48.900002 17.200001 50.5C 18 52.5 20.4 53.099998 22 52.099998L 28.688 47.905998M 39.312 47.875999L 46 52.099998C 47.799999 53.299999 50 52.5 50.799999 50.5C 51.400002 48.900002 50.599998 47.299999 49.200001 46.299999L 40 40.700001M 40 40.700001L 28 40.700001L 27 35.299999L 41 35.299999L 40 40.700001ZM 40.75 18.188L 44 11.5M 44.655998 22.220001L 53 11.5M 27.219999 18.188L 24 11.5M 23.375999 22.220001L 15 11.5M 34 56.700001C 37.313709 56.700001 40 54.01371 40 50.700001C 40 47.386292 37.313709 44.700001 34 44.700001C 30.686293 44.700001 28 47.386292 28 50.700001C 28 54.01371 30.686293 56.700001 34 56.700001ZM 41 35.299999C 45.200001 32.700001 47 27.5 45 22.9C 43.599998 19.700001 40.799999 17.700001 37.799999 17.1C 35.599998 16.700001 33.799999 18.5 34 20.700001M 34 20.700001C 34.200001 22.1 35.200001 23.1 36.599998 23.299999C 40.736 24.128 40.035999 30.299999 35.799999 30.299999L 32.200001 30.299999C 27.58 30.299999 27.691999 24.535999 31.4 23.299999C 32.799999 22.9 33.799999 22.1 34 20.700001ZM 34 20.700001C 34.200001 18.5 32.400002 16.700001 30.200001 17.1C 27 17.700001 24.4 19.9 23 22.9C 21 27.5 22.799999 32.900002 27 35.299999"/>
      </g>
    </g>
  </g>
</svg>
