<?xml version='1.0' encoding='utf-8'?>
<svg xmlns="http://www.w3.org/2000/svg" xmlns:xlink="http://www.w3.org/1999/xlink" width="888" height="552" viewBox="0 0 888 552" style="fill:none;stroke:none;fill-rule:evenodd;clip-rule:evenodd;stroke-linecap:round;stroke-linejoin:round;stroke-miterlimit:1.5;" version="1.1">
  <style class="text-font-style fontImports" data-font-family="Roboto">@import url('https://fonts.googleapis.com/css2?family=Roboto:wght@400;700&amp;display=block');</style>
  <rect x="0" y="0" width="888" height="552" fill="#252a34" stroke="none" id="programmatic_background"/>
  <g id="g-root-tf_zkp7jb1c2ibrf-stroke-fill" data-item-order="-449856" transform="translate(18, 12)"/>
  <g id="g-root-cp_5_g-5_1cuaanb1c29udd-stroke-fill" data-item-order="-347318" transform="translate(248, 362)">
    <g id="cp_5_g-5_1cuaanb1c29udd-fill" stroke="none" fill="none">
      <g>
        <path d="M 34 10C 34 37.7434 52.8297 61.0888 78.4063 67.9537C 84.1851 51.6652 99.7303 40 118 40C 137.026 40 153.097 52.6511 158.261 70L 196 70L 196 58L 232 82L 196 106L 196 94L 158.261 94C 153.097 111.349 137.026 124 118 124C 98.3707 124 81.8866 110.534 77.2814 92.3362C 38.8992 84.5847 10 50.6672 10 10L 34 10Z"/>
      </g>
    </g>
    <g id="cp_5_g-5_1cuaanb1c29udd-stroke" fill="none" stroke-linecap="round" stroke-linejoin="round" stroke-miterlimit="4" stroke="#cb68f9" stroke-width="2">
      <g>
        <path d="M 34 10C 34 37.7434 52.8297 61.0888 78.4063 67.9537C 84.1851 51.6652 99.7303 40 118 40C 137.0261 40 153.0974 52.6511 158.2607 70L 196 70L 196 58L 232 82L 196 106L 196 94L 158.2607 94C 153.0974 111.3489 137.0261 124 118 124C 98.3707 124 81.8866 110.5341 77.2814 92.3362C 38.8992 84.5847 10 50.6672 10 10L 34 10Z"/>
      </g>
    </g>
  </g>
  <g id="g-root-cp_4_g-4_zits9z1c29vyb-stroke-fill" data-item-order="-347314" transform="translate(248, 248)">
    <g id="cp_4_g-4_zits9z1c29vyb-fill" stroke="none" fill="none">
      <g>
        <path d="M 78.4063 66.0463C 84.1851 82.3348 99.7303 94 118 94C 137.026 94 153.097 81.3489 158.261 64L 196 64L 196 40L 158.261 40C 153.097 22.6511 137.026 10 118 10C 98.3707 10 81.8866 23.4659 77.2814 41.6638C 38.8992 49.4153 10 83.3328 10 124L 34 124C 34 96.2566 52.8297 72.9112 78.4063 66.0463Z"/>
      </g>
    </g>
    <g id="cp_4_g-4_zits9z1c29vyb-stroke" fill="none" stroke-linecap="round" stroke-linejoin="round" stroke-miterlimit="4" stroke="#f79438" stroke-width="2">
      <g>
        <path d="M 78.4063 66.0463C 84.1851 82.3348 99.7303 94 118 94C 137.0261 94 153.0974 81.3489 158.2607 64L 196 64L 196 40L 158.2607 40C 153.0974 22.6511 137.0261 10 118 10C 98.3707 10 81.8866 23.4659 77.2814 41.6638C 38.8992 49.4153 10 83.3328 10 124L 34 124C 34 96.2566 52.8297 72.9112 78.4063 66.0463Z"/>
      </g>
    </g>
  </g>
  <g id="g-root-cp_3_g-3_qnt9471c29tl9-stroke-fill" data-item-order="-347310" transform="translate(434, 218)">
    <g id="cp_3_g-3_qnt9471c29tl9-fill" stroke="none" fill="none">
      <g>
        <path d="M 128.719 92.3362C 167.101 84.5847 196 50.6672 196 10L 172 10C 172 37.7434 153.17 61.0888 127.594 67.9537C 121.815 51.6652 106.2697 40 88 40C 68.9739 40 52.9026 52.6511 47.7393 70L 10 70L 10 94L 47.7393 94C 52.9026 111.349 68.9739 124 88 124C 107.6293 124 124.113 110.534 128.719 92.3362Z"/>
      </g>
    </g>
    <g id="cp_3_g-3_qnt9471c29tl9-stroke" fill="none" stroke-linecap="round" stroke-linejoin="round" stroke-miterlimit="4" stroke="#43dd93" stroke-width="2">
      <g>
        <path d="M 128.7186 92.3362C 167.1008 84.5847 196 50.6672 196 10L 172 10C 172 37.7434 153.1703 61.0888 127.5937 67.9537C 121.8149 51.6652 106.2697 40 88 40C 68.9739 40 52.9026 52.6511 47.7393 70L 10 70L 10 94L 47.7393 94C 52.9026 111.3489 68.9739 124 88 124C 107.6293 124 124.1134 110.5341 128.7186 92.3362Z"/>
      </g>
    </g>
  </g>
  <g id="g-root-cp_2_g-2_m7zqzr1c29udj-stroke-fill" data-item-order="-347306" transform="translate(434, 104)">
    <g id="cp_2_g-2_m7zqzr1c29udj-fill" stroke="none" fill="none">
      <g>
        <path d="M 47.7393 64C 52.9026 81.3489 68.9739 94 88 94C 106.2697 94 121.815 82.3348 127.594 66.0463C 153.17 72.9112 172 96.2566 172 124L 196 124C 196 83.3328 167.101 49.4153 128.719 41.6638C 124.113 23.4659 107.6293 10 88 10C 68.9739 10 52.9026 22.6511 47.7393 40L 10 40L 10 64L 47.7393 64Z"/>
      </g>
    </g>
    <g id="cp_2_g-2_m7zqzr1c29udj-stroke" fill="none" stroke-linecap="round" stroke-linejoin="round" stroke-miterlimit="4" stroke="#fb6762" stroke-width="2">
      <g>
        <path d="M 47.7393 64C 52.9026 81.3489 68.9739 94 88 94C 106.2697 94 121.8149 82.3348 127.5937 66.0463C 153.1703 72.9112 172 96.2566 172 124L 196 124C 196 83.3328 167.1008 49.4153 128.7186 41.6638C 124.1134 23.4659 107.6293 10 88 10C 68.9739 10 52.9026 22.6511 47.7393 40L 10 40L 10 64L 47.7393 64Z"/>
      </g>
    </g>
  </g>
  <g id="g-root-cp_1_g-1_hs68vb1c29v5t-stroke-fill" data-item-order="-347302" transform="translate(266, 104)">
    <g id="cp_1_g-1_hs68vb1c29v5t-fill" stroke="none" fill="none">
      <g>
        <path d="M 59.7393 64C 64.9026 81.3489 80.9739 94 100 94C 119.026 94 135.097 81.3489 140.261 64L 178 64L 178 40L 140.261 40C 135.097 22.6511 119.026 10 100 10C 80.9739 10 64.9026 22.6511 59.7393 40L 10 40L 10 64L 59.7393 64Z"/>
      </g>
    </g>
    <g id="cp_1_g-1_hs68vb1c29v5t-stroke" fill="none" stroke-linecap="round" stroke-linejoin="round" stroke-miterlimit="4" stroke="#4f91fc" stroke-width="2">
      <g>
        <path d="M 59.7393 64C 64.9026 81.3489 80.9739 94 100 94C 119.0261 94 135.0974 81.3489 140.2607 64L 178 64L 178 40L 140.2607 40C 135.0974 22.6511 119.0261 10 100 10C 80.9739 10 64.9026 22.6511 59.7393 40L 10 40L 10 64L 59.7393 64Z"/>
      </g>
    </g>
  </g>
  <g id="g-root-tx_theendur_4hc7l31c29tkz-stroke-fill" data-item-order="0" transform="translate(212, 50)">
    <g id="tx_theendur_4hc7l31c29tkz-fill" stroke="none" fill="#f4f4f4">
      <g>
        <text style="font: 20px Roboto, sans-serif; white-space: pre;" font-size="20px" font-family="Roboto, sans-serif">
          <tspan x="13.39" y="34" dominant-baseline="ideographic">The Enduring Mystery of the Aurora Airship Crash</tspan>
        </text>
      </g>
    </g>
  </g>
  <g id="g-root-tx_april171_1q6zr6v1c29uys-stroke-fill" data-item-order="0" transform="translate(80, 110)">
    <g id="tx_april171_1q6zr6v1c29uys-fill" stroke="none" fill="#f4f4f4">
      <g>
        <text style="font: bold 20px Roboto, sans-serif; white-space: pre;" font-weight="bold" font-size="20px" font-family="Roboto, sans-serif">
          <tspan x="14" y="34" dominant-baseline="ideographic">April 17, 1897</tspan>
        </text>
      </g>
    </g>
  </g>
  <g id="g-root-tx_aurorate_1cvj8tj1c29wjp-stroke-fill" data-item-order="0" transform="translate(56, 146)">
    <g id="tx_aurorate_1cvj8tj1c29wjp-fill" stroke="none" fill="#f4f4f4">
      <g>
        <text style="font: 15px Roboto, sans-serif; white-space: pre;" font-size="15px" font-family="Roboto, sans-serif">
          <tspan x="23.38" y="28" dominant-baseline="ideographic">Aurora, Texas Airship </tspan>
          <tspan x="76.2" y="46" dominant-baseline="ideographic">Crash occurs</tspan>
        </text>
      </g>
    </g>
  </g>
  <g id="g-root-tx_1980_zkp7jb1c29uyu-stroke-fill" data-item-order="0" transform="translate(152, 254)">
    <g id="tx_1980_zkp7jb1c29uyu-fill" stroke="none" fill="#f4f4f4">
      <g>
        <text style="font: bold 20px Roboto, sans-serif; white-space: pre;" font-weight="bold" font-size="20px" font-family="Roboto, sans-serif">
          <tspan x="22.09" y="34" dominant-baseline="ideographic">1980</tspan>
        </text>
      </g>
    </g>
  </g>
  <g id="g-root-tx_timemaga_m98p5z1c29wjr-stroke-fill" data-item-order="0" transform="translate(32, 290)">
    <g id="tx_timemaga_m98p5z1c29wjr-fill" stroke="none" fill="#f4f4f4">
      <g>
        <text style="font: 15px Roboto, sans-serif; white-space: pre;" font-size="15px" font-family="Roboto, sans-serif">
          <tspan x="21.47" y="28" dominant-baseline="ideographic">Time magazine interview </tspan>
          <tspan x="76.25" y="46" dominant-baseline="ideographic">with Etta Pegues</tspan>
        </text>
      </g>
    </g>
  </g>
  <g id="g-root-tx_1990s202_4il5rb1c29vr4-stroke-fill" data-item-order="0" transform="translate(92, 386)">
    <g id="tx_1990s202_4il5rb1c29vr4-fill" stroke="none" fill="#f4f4f4">
      <g>
        <text style="font: bold 20px Roboto, sans-serif; white-space: pre;" font-weight="bold" font-size="20px" font-family="Roboto, sans-serif">
          <tspan x="18.05" y="34" dominant-baseline="ideographic">1990s-2023</tspan>
        </text>
      </g>
    </g>
  </g>
  <g id="g-root-tx_continue_1q8v6g71c29tz5-stroke-fill" data-item-order="0" transform="translate(56, 422)">
    <g id="tx_continue_1q8v6g71c29tz5-fill" stroke="none" fill="#f4f4f4">
      <g>
        <text style="font: 15px Roboto, sans-serif; white-space: pre;" font-size="15px" font-family="Roboto, sans-serif">
          <tspan x="50.78" y="31" dominant-baseline="ideographic">Continued media </tspan>
          <tspan x="21.36" y="49" dominant-baseline="ideographic">coverage and cultural </tspan>
          <tspan x="117.84" y="67" dominant-baseline="ideographic">impact</tspan>
        </text>
      </g>
    </g>
  </g>
  <g id="g-root-tx_april191_1cxeo2v1c29vk2-stroke-fill" data-item-order="0" transform="translate(656, 110)">
    <g id="tx_april191_1cxeo2v1c29vk2-fill" stroke="none" fill="#f4f4f4">
      <g>
        <text style="font: bold 20px Roboto, sans-serif; white-space: pre;" font-weight="bold" font-size="20px" font-family="Roboto, sans-serif">
          <tspan x="12" y="34" dominant-baseline="ideographic">April 19, 1897</tspan>
        </text>
      </g>
    </g>
  </g>
  <g id="g-root-tx_dallasmo_141rntz1c29wcr-stroke-fill" data-item-order="0" transform="translate(656, 146)">
    <g id="tx_dallasmo_141rntz1c29wcr-fill" stroke="none" fill="#f4f4f4">
      <g>
        <text style="font: 15px Roboto, sans-serif; white-space: pre;" font-size="15px" font-family="Roboto, sans-serif">
          <tspan x="12" y="28" dominant-baseline="ideographic">Dallas Morning News </tspan>
          <tspan x="12" y="46" dominant-baseline="ideographic">article published</tspan>
        </text>
      </g>
    </g>
  </g>
  <g id="g-root-tx_1970s_qqxmjr1c29urw-stroke-fill" data-item-order="0" transform="translate(656, 254)">
    <g id="tx_1970s_qqxmjr1c29urw-fill" stroke="none" fill="#f4f4f4">
      <g>
        <text style="font: bold 20px Roboto, sans-serif; white-space: pre;" font-weight="bold" font-size="20px" font-family="Roboto, sans-serif">
          <tspan x="12" y="34" dominant-baseline="ideographic">1970s</tspan>
        </text>
      </g>
    </g>
  </g>
  <g id="g-root-tx_investig_dfh46f1c29wct-stroke-fill" data-item-order="0" transform="translate(656, 290)">
    <g id="tx_investig_dfh46f1c29wct-fill" stroke="none" fill="#f4f4f4">
      <g>
        <text style="font: 15px Roboto, sans-serif; white-space: pre;" font-size="15px" font-family="Roboto, sans-serif">
          <tspan x="12" y="28" dominant-baseline="ideographic">Investigations and metal </tspan>
          <tspan x="12" y="46" dominant-baseline="ideographic">samples found</tspan>
        </text>
      </g>
    </g>
    <defs>
      <pattern id="crawlingPattern-0000001b" x="0" y="0" width="12" height="12" patternUnits="userSpaceOnUse" fill="#0000001b">
        <use href="#crawlingSymbol"/>
      </pattern>
      <symbol id="crawlingSymbol">
        <g>
          <path d="M -12.5 12.5 l 13 -13 l 6 0 l -13 13 Z M -0.5 12.5 l 13 -13 l 6 0 l -13 13 Z M 11.5 12.5 l 13 -13 l 6 0 l -13 13 Z"/>
        </g>
      </symbol>
    </defs>
  </g>
  <g id="g-root-ic_phot_4n2w71c29ury-stroke-fill" data-item-order="0" transform="translate(332, 266)">
    <g id="ic_phot_4n2w71c29ury-stroke" fill="none" stroke-linecap="round" stroke-linejoin="round" stroke-miterlimit="4" stroke="#f79438" stroke-width="2">
      <g>
        <path d="M 17.566719 37.930199L 11.656924 24.85692C 11.256924 24.056919 11.656912 23.25692 12.45692 22.85692L 37.056999 11.656922C 37.857002 11.256922 38.656998 11.656924 39.056999 12.45692L 50.6698 37.930199M 10 10M 48.257 32.857002L 37.006798 37.9706M 10 10M 29.942881 37.786598L 31.942801 27.38658C 32.3428 25.386581 34.3428 24.38656 36.142799 25.18656L 47.142799 30.1866M 22.25692 31.257C 24.134701 31.257 25.65696 29.7348 25.65696 27.857019C 25.65696 25.979259 24.134701 24.457039 22.25692 24.457039C 20.37916 24.457039 18.856941 25.979259 18.856941 27.857019C 18.856941 29.7348 20.37916 31.257 22.25692 31.257ZM 10 10M 46.700001 15.656981L 55.099998 15.856979C 55.900002 15.856979 56.5 16.45698 56.5 17.45698L 56.299999 36.457001M 35.2836 56.384201L 35.2836 44.384201M 43.2836 44.384201L 35.2836 52.384201M 38.2836 49.384201L 44.2836 56.384201M 10 10M 56.3396 44.384201L 48.3396 44.384201L 48.3396 56.384201L 56.3396 56.384201M 48.3396 49.884201L 55.3396 49.884201M 11.6604 56.384201L 11.6604 44.384201L 19.6604 44.384201M 10 10M 11.6604 49.884201L 18.6604 49.884201M 10 10M 21.373779 56.384201L 25.05756 45.333C 25.246399 44.766399 25.776581 44.384201 26.373779 44.384201L 26.373779 44.384201C 26.970961 44.384201 27.50116 44.766399 27.690001 45.333L 31.3738 56.384201M 22.707119 52.384201L 30.0404 52.384201"/>
      </g>
    </g>
  </g>
  <g id="g-root-ic_ufo_1d2egrr1c2b8cn-stroke-fill" data-item-order="0" transform="translate(332, 410)">
    <g id="ic_ufo_1d2egrr1c2b8cn-stroke" fill="none" stroke-linecap="round" stroke-linejoin="round" stroke-miterlimit="4" stroke="#cb68f9" stroke-width="2">
      <g>
        <path d="M 49 22.5C 52.977859 22.499041 56.352161 25.420879 56.919998 29.358C 56.961449 29.646814 56.874687 29.939325 56.682472 30.158836C 56.490257 30.378345 56.211758 30.502958 55.919998 30.5L 12.07 30.5C 11.778242 30.502958 11.499743 30.378345 11.307528 30.158836C 11.115312 29.939325 11.028553 29.646814 11.07 29.358C 11.638377 25.417118 15.018346 22.494064 19 22.5ZM 19 22.5C 19 17.5 25.716 11.5 34 11.5C 42.284 11.5 49 17.5 49 22.5M 47.77 39.5L 52.995998 56.5M 14.996 56.5L 20.232 39.5M 34.996002 49.5L 31.996 53.652M 37.996002 53.5L 34.996002 49.5M 31.996 46.5L 37.996002 46.5M 35 41.5C 35.552284 41.5 36 41.947716 36 42.5M 34 42.5C 34 41.947716 34.447716 41.5 35 41.5M 35 43.5C 34.447716 43.5 34 43.052284 34 42.5M 36 42.5C 36 43.052284 35.552284 43.5 35 43.5M 34.996002 49.5L 34.996002 46.5M 25 30.5C 25 33.261421 22.761425 35.5 20 35.5C 17.238577 35.5 15 33.261421 15 30.5M 39 30.5C 39 33.261421 36.761425 35.5 34 35.5C 31.238577 35.5 29 33.261421 29 30.5M 53 30.5C 53 33.261421 50.761425 35.5 48 35.5C 45.238575 35.5 43 33.261421 43 30.5"/>
      </g>
    </g>
  </g>
  <g id="g-root-ic_fold_94neqv1c2cnbc-stroke-fill" data-item-order="0" transform="translate(488, 122)">
    <g id="ic_fold_94neqv1c2cnbc-stroke" fill="none" stroke-linecap="round" stroke-linejoin="round" stroke-miterlimit="4" stroke="#fb6762" stroke-width="2">
      <g>
        <path d="M 29 30C 29 30.552284 28.552284 31 28 31L 18 31C 17.447716 31 17 30.552284 17 30L 17 20C 17 19.447716 17.447716 19 18 19L 28 19C 28.552284 19 29 19.447716 29 20ZM 33 19L 39 19M 33 25L 39 25M 33 31L 39 31M 17 37L 39 37M 17 43L 39 43M 17 49L 39 49M 51 57L 17 57C 13.686292 57 11 54.313709 11 51L 11 13C 11 11.895431 11.895431 11 13 11L 43 11C 44.104568 11 45 11.895431 45 13L 45 51C 45 54.313709 47.686295 57 51 57C 54.313709 57 57 54.313709 57 51L 57 17M 51 17L 51 52"/>
      </g>
    </g>
  </g>
  <g id="g-root-ic_1_zqbhbb1c2e3ux-stroke-fill" data-item-order="0" transform="translate(332, 122)">
    <g id="ic_1_zqbhbb1c2e3ux-stroke" fill="none" stroke-linecap="round" stroke-linejoin="round" stroke-miterlimit="4" stroke="#4f91fc" stroke-width="2">
      <g>
        <path d="M 26.756001 38.094002L 13.177999 43.074001C 12.526 43.32 12.054 43.014 12.054 41.874001C 12.054 30.172001 23.925999 30.007999 30.934 31.988001M 31 25.58L 31 11.8C 31 11.102 31.440001 10.778 32.517998 11.162C 43.688 15.118 40.077999 25.372 37 31.125999M 40.916 33.419998L 55.046001 39.928001C 55.68 40.208 55.806 40.757999 54.998001 41.571999C 48.577999 48.056 41.870003 43.972 37.690002 39.386002M 57 56.998001L 11 56.998001M 31 31.129999C 31 29.473146 32.343147 28.130001 34 28.130001C 35.656853 28.130001 37 29.473146 37 31.130001L 39 56.998001L 29 56.998001Z"/>
      </g>
    </g>
  </g>
  <g id="g-root-ic_helm_1utoh9j1c2fimi-stroke-fill" data-item-order="0" transform="translate(488, 266)">
    <g id="ic_helm_1utoh9j1c2fimi-stroke" fill="none" stroke-linecap="round" stroke-linejoin="round" stroke-miterlimit="4" stroke="#43dd93" stroke-width="2">
      <g>
        <path d="M 31.5 35.700001C 37.299999 37.099998 41.5 42.299999 41.5 48.299999L 41.5 50.299999M 25.5 50.5L 25.5 34.5C 25.5 33.299999 26.299999 32.5 27.5 32.5L 29.5 32.5C 30.700001 32.5 31.5 33.299999 31.5 34.5L 31.5 50.5M 45.5 54.5C 45.5 55.700001 44.700001 56.5 43.5 56.5L 13.5 56.5C 12.3 56.5 11.5 55.700001 11.5 54.5L 11.5 52.5C 11.5 51.299999 12.3 50.5 13.5 50.5L 43.5 50.5C 44.700001 50.5 45.5 51.299999 45.5 52.5L 45.5 54.5ZM 25.5 35.700001C 19.700001 37.099998 15.5 42.299999 15.5 48.299999L 15.5 50.299999M 45.212601 38.299999C 46.412601 38.099998 47.612598 37.700001 48.612598 37.099998L 45.612598 29.70002C 44.612598 30.299999 43.412601 30.700001 42.212601 30.700001C 40.812599 30.700001 39.612602 30.299999 38.612602 29.70002L 37.612602 32.099998M 10 10M 39.099998 17.9L 34.299999 11.5C 30.5 13.9 27.9 18.1 27.5 22.9L 35.5 24.099979L 35.5 23.9C 35.5 21.1 37.099998 18.9 39.099998 17.9ZM 56.5 23.099979C 56.299999 18.29998 53.900002 14.1 50.099998 11.5L 45.099998 17.9C 47.099998 19.1 48.5 21.099979 48.5 23.69998L 48.5 24.099979L 56.5 23.099979ZM 39.099998 24.1C 39.099998 25.756855 40.443146 27.1 42.100002 27.1C 43.756855 27.1 45.100002 25.756855 45.100002 24.1C 45.100002 22.443146 43.756855 21.1 42.100002 21.1C 40.443146 21.1 39.099998 22.443146 39.099998 24.1"/>
      </g>
    </g>
  </g>
</svg>
