<?xml version='1.0' encoding='utf-8'?>
<svg xmlns="http://www.w3.org/2000/svg" xmlns:xlink="http://www.w3.org/1999/xlink" width="744" height="576" viewBox="0 0 744 576" style="fill:none;stroke:none;fill-rule:evenodd;clip-rule:evenodd;stroke-linecap:round;stroke-linejoin:round;stroke-miterlimit:1.5;" version="1.1">
  <style class="text-font-style fontImports" data-font-family="Roboto">@import url('https://fonts.googleapis.com/css2?family=Roboto:wght@400;700&amp;display=block');</style>
  <rect x="0" y="0" width="744" height="576" fill="#252a34" stroke="none" id="programmatic_background"/>
  <g id="g-root-tf_v8lunr1brz026-stroke-fill" data-item-order="-390816" transform="translate(18, 12)"/>
  <g id="g-root-cp_1_column-1_hz0rjr1brxlor-stroke-fill" data-item-order="-300950" transform="translate(59, 119)">
    <g id="cp_1_column-1_hz0rjr1brxlor-fill" stroke="none" fill="none">
      <g>
        <path d="M 10 13C 10 14.656854 11.343146 16 13 16C 14.656854 16 16 14.656854 16 13C 16 11.343146 14.656854 10 13 10C 11.343146 10 10 11.343146 10 13"/>
      </g>
    </g>
    <g id="cp_1_column-1_hz0rjr1brxlor-stroke" fill="none" stroke-linecap="round" stroke-linejoin="round" stroke-miterlimit="4" stroke="#fb6762" stroke-width="2">
      <g>
        <path d="M 10 13C 10 14.656854 11.343146 16 13 16C 14.656854 16 16 14.656854 16 13C 16 11.343146 14.656854 10 13 10C 11.343146 10 10 11.343146 10 13"/>
      </g>
    </g>
    <g id="cp_1_column-1_hz0rjr1brxlor-stroke" fill="none" stroke-linecap="round" stroke-linejoin="round" stroke-miterlimit="4" stroke="#fb6762" stroke-width="2">
      <g>
        <path d="M 13 16L 13 142"/>
      </g>
    </g>
    <g id="cp_1_column-1_hz0rjr1brxlor-fill" stroke="none" fill="none">
      <g>
        <path d="M 10 145C 10 146.656854 11.343146 148 13 148C 14.656854 148 16 146.656854 16 145C 16 143.343146 14.656854 142 13 142C 11.343146 142 10 143.343146 10 145"/>
      </g>
    </g>
    <g id="cp_1_column-1_hz0rjr1brxlor-stroke" fill="none" stroke-linecap="round" stroke-linejoin="round" stroke-miterlimit="4" stroke="#fb6762" stroke-width="2">
      <g>
        <path d="M 10 145C 10 146.656854 11.343146 148 13 148C 14.656854 148 16 146.656854 16 145C 16 143.343146 14.656854 142 13 142C 11.343146 142 10 143.343146 10 145"/>
      </g>
    </g>
  </g>
  <g id="g-root-cp_3_column-3_4nk96f1brxn9p-stroke-fill" data-item-order="-300934" transform="translate(239, 143)">
    <g id="cp_3_column-3_4nk96f1brxn9p-fill" stroke="none" fill="none">
      <g>
        <path d="M 10 13C 10 14.656854 11.343146 16 13 16C 14.656854 16 16 14.656854 16 13C 16 11.343146 14.656854 10 13 10C 11.343146 10 10 11.343146 10 13"/>
      </g>
    </g>
    <g id="cp_3_column-3_4nk96f1brxn9p-stroke" fill="none" stroke-linecap="round" stroke-linejoin="round" stroke-miterlimit="4" stroke="#ffe711" stroke-width="2">
      <g>
        <path d="M 10 13C 10 14.656854 11.343146 16 13 16C 14.656854 16 16 14.656854 16 13C 16 11.343146 14.656854 10 13 10C 11.343146 10 10 11.343146 10 13"/>
      </g>
    </g>
    <g id="cp_3_column-3_4nk96f1brxn9p-stroke" fill="none" stroke-linecap="round" stroke-linejoin="round" stroke-miterlimit="4" stroke="#ffe711" stroke-width="2">
      <g>
        <path d="M 13 16L 13 118"/>
      </g>
    </g>
    <g id="cp_3_column-3_4nk96f1brxn9p-fill" stroke="none" fill="none">
      <g>
        <path d="M 10 121C 10 122.656854 11.343146 124 13 124C 14.656854 124 16 122.656854 16 121C 16 119.343146 14.656854 118 13 118C 11.343146 118 10 119.343146 10 121"/>
      </g>
    </g>
    <g id="cp_3_column-3_4nk96f1brxn9p-stroke" fill="none" stroke-linecap="round" stroke-linejoin="round" stroke-miterlimit="4" stroke="#ffe711" stroke-width="2">
      <g>
        <path d="M 10 121C 10 122.656854 11.343146 124 13 124C 14.656854 124 16 122.656854 16 121C 16 119.343146 14.656854 118 13 118C 11.343146 118 10 119.343146 10 121"/>
      </g>
    </g>
  </g>
  <g id="g-root-cp_5_column-5_7qr1z1brxo1z-stroke-fill" data-item-order="-300918" transform="translate(419, 119)">
    <g id="cp_5_column-5_7qr1z1brxo1z-fill" stroke="none" fill="none">
      <g>
        <path d="M 10 13C 10 14.656854 11.343146 16 13 16C 14.656854 16 16 14.656854 16 13C 16 11.343146 14.656854 10 13 10C 11.343146 10 10 11.343146 10 13"/>
      </g>
    </g>
    <g id="cp_5_column-5_7qr1z1brxo1z-stroke" fill="none" stroke-linecap="round" stroke-linejoin="round" stroke-miterlimit="4" stroke="#cb68f9" stroke-width="2">
      <g>
        <path d="M 10 13C 10 14.656854 11.343146 16 13 16C 14.656854 16 16 14.656854 16 13C 16 11.343146 14.656854 10 13 10C 11.343146 10 10 11.343146 10 13"/>
      </g>
    </g>
    <g id="cp_5_column-5_7qr1z1brxo1z-stroke" fill="none" stroke-linecap="round" stroke-linejoin="round" stroke-miterlimit="4" stroke="#cb68f9" stroke-width="2">
      <g>
        <path d="M 12.999996 16L 12.999996 142"/>
      </g>
    </g>
    <g id="cp_5_column-5_7qr1z1brxo1z-fill" stroke="none" fill="none">
      <g>
        <path d="M 10 145C 10 146.656854 11.343146 148 13 148C 14.656854 148 16 146.656854 16 145C 16 143.343146 14.656854 142 13 142C 11.343146 142 10 143.343146 10 145"/>
      </g>
    </g>
    <g id="cp_5_column-5_7qr1z1brxo1z-stroke" fill="none" stroke-linecap="round" stroke-linejoin="round" stroke-miterlimit="4" stroke="#cb68f9" stroke-width="2">
      <g>
        <path d="M 10 145C 10 146.656854 11.343146 148 13 148C 14.656854 148 16 146.656854 16 145C 16 143.343146 14.656854 142 13 142C 11.343146 142 10 143.343146 10 145"/>
      </g>
    </g>
  </g>
  <g id="g-root-cp_1_g-1_1utnrzr1brxlhd-stroke-fill" data-item-order="-300900" transform="translate(62, 266)">
    <g id="cp_1_g-1_1utnrzr1brxlhd-fill" stroke="none" fill="none">
      <g>
        <path d="M 76 10L 10 10L 28 46L 10 82L 76 82L 94 46L 76 10Z"/>
      </g>
    </g>
    <g id="cp_1_g-1_1utnrzr1brxlhd-stroke" fill="none" stroke-linecap="round" stroke-linejoin="round" stroke-miterlimit="4" stroke="#fb6762" stroke-width="2">
      <g>
        <path d="M 76 10L 10 10L 28 46L 10 82L 76 82L 94 46L 76 10Z"/>
      </g>
    </g>
  </g>
  <g id="g-root-cp_2_g-2_1ly0rqv1brxma3-stroke-fill" data-item-order="-300892" transform="translate(152, 266)">
    <g id="cp_2_g-2_1ly0rqv1brxma3-fill" stroke="none" fill="none">
      <g>
        <path d="M 76 10L 10 10L 28 46L 10 82L 76 82L 94 46L 76 10Z"/>
      </g>
    </g>
    <g id="cp_2_g-2_1ly0rqv1brxma3-stroke" fill="none" stroke-linecap="round" stroke-linejoin="round" stroke-miterlimit="4" stroke="#f79438" stroke-width="2">
      <g>
        <path d="M 76 10L 10 10L 28 46L 10 82L 76 82L 94 46L 76 10Z"/>
      </g>
    </g>
  </g>
  <g id="g-root-cp_3_g-3_1hi79mf1brxn2d-stroke-fill" data-item-order="-300886" transform="translate(242, 266)">
    <g id="cp_3_g-3_1hi79mf1brxn2d-fill" stroke="none" fill="none">
      <g>
        <path d="M 76 10L 10 10L 28 46L 10 82L 76 82L 94 46L 76 10Z"/>
      </g>
    </g>
    <g id="cp_3_g-3_1hi79mf1brxn2d-stroke" fill="none" stroke-linecap="round" stroke-linejoin="round" stroke-miterlimit="4" stroke="#ffe711" stroke-width="2">
      <g>
        <path d="M 76 10L 10 10L 28 46L 10 82L 76 82L 94 46L 76 10Z"/>
      </g>
    </g>
  </g>
  <g id="g-root-cp_4_g-4_18mk9dj1brxnv3-stroke-fill" data-item-order="-300880" transform="translate(332, 266)">
    <g id="cp_4_g-4_18mk9dj1brxnv3-fill" stroke="none" fill="none">
      <g>
        <path d="M 76 10L 10 10L 28 46L 10 82L 76 82L 94 46L 76 10Z"/>
      </g>
    </g>
    <g id="cp_4_g-4_18mk9dj1brxnv3-stroke" fill="none" stroke-linecap="round" stroke-linejoin="round" stroke-miterlimit="4" stroke="#f366bb" stroke-width="2">
      <g>
        <path d="M 76 10L 10 10L 28 46L 10 82L 76 82L 94 46L 76 10Z"/>
      </g>
    </g>
  </g>
  <g id="g-root-cp_5_g-5_147d8c71brxlhl-stroke-fill" data-item-order="-300874" transform="translate(422, 266)">
    <g id="cp_5_g-5_147d8c71brxlhl-fill" stroke="none" fill="none">
      <g>
        <path d="M 76 10L 10 10L 28 46L 10 82L 76 82L 94 46L 76 10Z"/>
      </g>
    </g>
    <g id="cp_5_g-5_147d8c71brxlhl-stroke" fill="none" stroke-linecap="round" stroke-linejoin="round" stroke-miterlimit="4" stroke="#cb68f9" stroke-width="2">
      <g>
        <path d="M 76 10L 10 10L 28 46L 10 82L 76 82L 94 46L 76 10Z"/>
      </g>
    </g>
  </g>
  <g id="g-root-cp_6_g-6_zrjq7r1brxm9v-stroke-fill" data-item-order="-300868" transform="translate(512, 266)">
    <g id="cp_6_g-6_zrjq7r1brxm9v-fill" stroke="none" fill="none">
      <g>
        <path d="M 76 10L 10 10L 28 46L 10 82L 76 82L 94 46L 76 10Z"/>
      </g>
    </g>
    <g id="cp_6_g-6_zrjq7r1brxm9v-stroke" fill="none" stroke-linecap="round" stroke-linejoin="round" stroke-miterlimit="4" stroke="#4f91fc" stroke-width="2">
      <g>
        <path d="M 76 10L 10 10L 28 46L 10 82L 76 82L 94 46L 76 10Z"/>
      </g>
    </g>
  </g>
  <g id="g-root-cp_2_column-2_qvwpyv1brxn2l-stroke-fill" data-item-order="-300860" transform="translate(149, 347)">
    <g id="cp_2_column-2_qvwpyv1brxn2l-fill" stroke="none" fill="none">
      <g>
        <path d="M 10 13C 10 14.656854 11.343146 16 13 16C 14.656854 16 16 14.656854 16 13C 16 11.343146 14.656854 10 13 10C 11.343146 10 10 11.343146 10 13"/>
      </g>
    </g>
    <g id="cp_2_column-2_qvwpyv1brxn2l-stroke" fill="none" stroke-linecap="round" stroke-linejoin="round" stroke-miterlimit="4" stroke="#f79438" stroke-width="2">
      <g>
        <path d="M 10 13C 10 14.656854 11.343146 16 13 16C 14.656854 16 16 14.656854 16 13C 16 11.343146 14.656854 10 13 10C 11.343146 10 10 11.343146 10 13"/>
      </g>
    </g>
    <g id="cp_2_column-2_qvwpyv1brxn2l-stroke" fill="none" stroke-linecap="round" stroke-linejoin="round" stroke-miterlimit="4" stroke="#f79438" stroke-width="2">
      <g>
        <path d="M 13 16L 13 142"/>
      </g>
    </g>
    <g id="cp_2_column-2_qvwpyv1brxn2l-fill" stroke="none" fill="none">
      <g>
        <path d="M 10 145C 10 146.656854 11.343146 148 13 148C 14.656854 148 16 146.656854 16 145C 16 143.343146 14.656854 142 13 142C 11.343146 142 10 143.343146 10 145"/>
      </g>
    </g>
    <g id="cp_2_column-2_qvwpyv1brxn2l-stroke" fill="none" stroke-linecap="round" stroke-linejoin="round" stroke-miterlimit="4" stroke="#f79438" stroke-width="2">
      <g>
        <path d="M 10 145C 10 146.656854 11.343146 148 13 148C 14.656854 148 16 146.656854 16 145C 16 143.343146 14.656854 142 13 142C 11.343146 142 10 143.343146 10 145"/>
      </g>
    </g>
  </g>
  <g id="g-root-cp_4_column-4_mg37uf1brxnuv-stroke-fill" data-item-order="-300844" transform="translate(329, 347)">
    <g id="cp_4_column-4_mg37uf1brxnuv-fill" stroke="none" fill="none">
      <g>
        <path d="M 10 13C 10 14.656854 11.343146 16 13 16C 14.656854 16 16 14.656854 16 13C 16 11.343146 14.656854 10 13 10C 11.343146 10 10 11.343146 10 13"/>
      </g>
    </g>
    <g id="cp_4_column-4_mg37uf1brxnuv-stroke" fill="none" stroke-linecap="round" stroke-linejoin="round" stroke-miterlimit="4" stroke="#f366bb" stroke-width="2">
      <g>
        <path d="M 10 13C 10 14.656854 11.343146 16 13 16C 14.656854 16 16 14.656854 16 13C 16 11.343146 14.656854 10 13 10C 11.343146 10 10 11.343146 10 13"/>
      </g>
    </g>
    <g id="cp_4_column-4_mg37uf1brxnuv-stroke" fill="none" stroke-linecap="round" stroke-linejoin="round" stroke-miterlimit="4" stroke="#f366bb" stroke-width="2">
      <g>
        <path d="M 13 16L 13 142"/>
      </g>
    </g>
    <g id="cp_4_column-4_mg37uf1brxnuv-fill" stroke="none" fill="none">
      <g>
        <path d="M 10 145C 10 146.656854 11.343146 148 13 148C 14.656854 148 16 146.656854 16 145C 16 143.343146 14.656854 142 13 142C 11.343146 142 10 143.343146 10 145"/>
      </g>
    </g>
    <g id="cp_4_column-4_mg37uf1brxnuv-stroke" fill="none" stroke-linecap="round" stroke-linejoin="round" stroke-miterlimit="4" stroke="#f366bb" stroke-width="2">
      <g>
        <path d="M 10 145C 10 146.656854 11.343146 148 13 148C 14.656854 148 16 146.656854 16 145C 16 143.343146 14.656854 142 13 142C 11.343146 142 10 143.343146 10 145"/>
      </g>
    </g>
  </g>
  <g id="g-root-cp_6_column-6_i0w6t31brxlhd-stroke-fill" data-item-order="-300828" transform="translate(509, 347)">
    <g id="cp_6_column-6_i0w6t31brxlhd-fill" stroke="none" fill="none">
      <g>
        <path d="M 10 13C 10 14.656854 11.343146 16 13 16C 14.656854 16 16 14.656854 16 13C 16 11.343146 14.656854 10 13 10C 11.343146 10 10 11.343146 10 13"/>
      </g>
    </g>
    <g id="cp_6_column-6_i0w6t31brxlhd-stroke" fill="none" stroke-linecap="round" stroke-linejoin="round" stroke-miterlimit="4" stroke="#4f91fc" stroke-width="2">
      <g>
        <path d="M 10 13C 10 14.656854 11.343146 16 13 16C 14.656854 16 16 14.656854 16 13C 16 11.343146 14.656854 10 13 10C 11.343146 10 10 11.343146 10 13"/>
      </g>
    </g>
    <g id="cp_6_column-6_i0w6t31brxlhd-stroke" fill="none" stroke-linecap="round" stroke-linejoin="round" stroke-miterlimit="4" stroke="#4f91fc" stroke-width="2">
      <g>
        <path d="M 13 16L 13 142"/>
      </g>
    </g>
    <g id="cp_6_column-6_i0w6t31brxlhd-fill" stroke="none" fill="none">
      <g>
        <path d="M 10 145C 10 146.656854 11.343146 148 13 148C 14.656854 148 16 146.656854 16 145C 16 143.343146 14.656854 142 13 142C 11.343146 142 10 143.343146 10 145"/>
      </g>
    </g>
    <g id="cp_6_column-6_i0w6t31brxlhd-stroke" fill="none" stroke-linecap="round" stroke-linejoin="round" stroke-miterlimit="4" stroke="#4f91fc" stroke-width="2">
      <g>
        <path d="M 10 145C 10 146.656854 11.343146 148 13 148C 14.656854 148 16 146.656854 16 145C 16 143.343146 14.656854 142 13 142C 11.343146 142 10 143.343146 10 145"/>
      </g>
    </g>
  </g>
  <g id="g-root-tx_thebattl_4pfofr1brxn2b-stroke-fill" data-item-order="0" transform="translate(146, 50)">
    <g id="tx_thebattl_4pfofr1brxn2b-fill" stroke="none" fill="#f4f4f4">
      <g>
        <text style="font: 20px Roboto, sans-serif; white-space: pre;" font-size="20px" font-family="Roboto, sans-serif">
          <tspan x="16.45" y="34" dominant-baseline="ideographic">The Battle of Los Angeles: A Timeline of Events</tspan>
        </text>
      </g>
    </g>
  </g>
  <g id="g-root-tx_february_1q5q3qv1bryzus-stroke-fill" data-item-order="0" transform="translate(74, 122)">
    <g id="tx_february_1q5q3qv1bryzus-fill" stroke="none" fill="#fb6762">
      <g>
        <text style="font: bold 20px Roboto, sans-serif; white-space: pre;" font-weight="bold" font-size="20px" font-family="Roboto, sans-serif">
          <tspan x="12" y="34" dominant-baseline="ideographic">February 23, </tspan>
          <tspan x="12" y="58" dominant-baseline="ideographic">1942</tspan>
        </text>
      </g>
    </g>
  </g>
  <g id="g-root-tx_japanese_1cu9ldj1brz1fp-stroke-fill" data-item-order="0" transform="translate(74, 182)">
    <g id="tx_japanese_1cu9ldj1brz1fp-fill" stroke="none" fill="#f4f4f4">
      <g>
        <text style="font: 15px Roboto, sans-serif; white-space: pre;" font-size="15px" font-family="Roboto, sans-serif">
          <tspan x="12" y="31" dominant-baseline="ideographic">Japanese submarine </tspan>
          <tspan x="12" y="49" dominant-baseline="ideographic">shells California oil </tspan>
          <tspan x="12" y="67" dominant-baseline="ideographic">refinery</tspan>
        </text>
      </g>
    </g>
  </g>
  <g id="g-root-tx_february_zjfk3b1bryzuu-stroke-fill" data-item-order="0" transform="translate(254, 146)">
    <g id="tx_february_zjfk3b1bryzuu-fill" stroke="none" fill="#ffe711">
      <g>
        <text style="font: bold 20px Roboto, sans-serif; white-space: pre;" font-weight="bold" font-size="20px" font-family="Roboto, sans-serif">
          <tspan x="12" y="34" dominant-baseline="ideographic">February 25, </tspan>
          <tspan x="12" y="58" dominant-baseline="ideographic">1942, 2:25 AM</tspan>
        </text>
      </g>
    </g>
  </g>
  <g id="g-root-tx_airraids_m7z1pz1brz1fr-stroke-fill" data-item-order="0" transform="translate(254, 206)">
    <g id="tx_airraids_m7z1pz1brz1fr-fill" stroke="none" fill="#f4f4f4">
      <g>
        <text style="font: 15px Roboto, sans-serif; white-space: pre;" font-size="15px" font-family="Roboto, sans-serif">
          <tspan x="12" y="28" dominant-baseline="ideographic">Air raid sirens sound </tspan>
          <tspan x="12" y="46" dominant-baseline="ideographic">in Los Angeles</tspan>
        </text>
      </g>
    </g>
  </g>
  <g id="g-root-tx_february_8x50fr1bryzuw-stroke-fill" data-item-order="0" transform="translate(434, 122)">
    <g id="tx_february_8x50fr1bryzuw-fill" stroke="none" fill="#cb68f9">
      <g>
        <text style="font: bold 20px Roboto, sans-serif; white-space: pre;" font-weight="bold" font-size="20px" font-family="Roboto, sans-serif">
          <tspan x="12" y="34" dominant-baseline="ideographic">February 25, </tspan>
          <tspan x="12" y="58" dominant-baseline="ideographic">1942, 4:14 AM</tspan>
        </text>
      </g>
    </g>
  </g>
  <g id="g-root-tx_sporadic_1umsk1j1brz18p-stroke-fill" data-item-order="0" transform="translate(434, 182)">
    <g id="tx_sporadic_1umsk1j1brz18p-fill" stroke="none" fill="#f4f4f4">
      <g>
        <text style="font: 15px Roboto, sans-serif; white-space: pre;" font-size="15px" font-family="Roboto, sans-serif">
          <tspan x="12" y="31" dominant-baseline="ideographic">Sporadic fire </tspan>
          <tspan x="12" y="49" dominant-baseline="ideographic">continues, over </tspan>
          <tspan x="12" y="67" dominant-baseline="ideographic">1,400 shells fired</tspan>
        </text>
      </g>
    </g>
  </g>
  <g id="g-root-tx_february_1hbyirb1bryznu-stroke-fill" data-item-order="0" transform="translate(164, 362)">
    <g id="tx_february_1hbyirb1bryznu-fill" stroke="none" fill="#f79438">
      <g>
        <text style="font: bold 20px Roboto, sans-serif; white-space: pre;" font-weight="bold" font-size="20px" font-family="Roboto, sans-serif">
          <tspan x="12" y="34" dominant-baseline="ideographic">February 24, </tspan>
          <tspan x="12" y="58" dominant-baseline="ideographic">1942</tspan>
        </text>
      </g>
    </g>
  </g>
  <g id="g-root-tx_navalint_140i0dz1brz18r-stroke-fill" data-item-order="0" transform="translate(164, 422)">
    <g id="tx_navalint_140i0dz1brz18r-fill" stroke="none" fill="#f4f4f4">
      <g>
        <text style="font: 15px Roboto, sans-serif; white-space: pre;" font-size="15px" font-family="Roboto, sans-serif">
          <tspan x="12" y="31" dominant-baseline="ideographic">Naval Intelligence </tspan>
          <tspan x="12" y="49" dominant-baseline="ideographic">warns of imminent </tspan>
          <tspan x="12" y="67" dominant-baseline="ideographic">attack</tspan>
        </text>
      </g>
    </g>
  </g>
  <g id="g-root-tx_february_m9ugzb1brz0g4-stroke-fill" data-item-order="0" transform="translate(344, 362)">
    <g id="tx_february_m9ugzb1brz0g4-fill" stroke="none" fill="#f366bb">
      <g>
        <text style="font: bold 20px Roboto, sans-serif; white-space: pre;" font-weight="bold" font-size="20px" font-family="Roboto, sans-serif">
          <tspan x="12" y="34" dominant-baseline="ideographic">February 25, </tspan>
          <tspan x="12" y="58" dominant-baseline="ideographic">1942, 3:16 AM</tspan>
        </text>
      </g>
    </g>
  </g>
  <g id="g-root-tx_artiller_de7gqf1brz18t-stroke-fill" data-item-order="0" transform="translate(344, 422)">
    <g id="tx_artiller_de7gqf1brz18t-fill" stroke="none" fill="#f4f4f4">
      <g>
        <text style="font: 15px Roboto, sans-serif; white-space: pre;" font-size="15px" font-family="Roboto, sans-serif">
          <tspan x="12" y="31" dominant-baseline="ideographic">Artillery fire begins </tspan>
          <tspan x="12" y="49" dominant-baseline="ideographic">against perceived </tspan>
          <tspan x="12" y="67" dominant-baseline="ideographic">aircraft</tspan>
        </text>
      </g>
    </g>
  </g>
  <g id="g-root-tx_february_3dfg71bryzny-stroke-fill" data-item-order="0" transform="translate(524, 362)">
    <g id="tx_february_3dfg71bryzny-fill" stroke="none" fill="#4f91fc">
      <g>
        <text style="font: bold 20px Roboto, sans-serif; white-space: pre;" font-weight="bold" font-size="20px" font-family="Roboto, sans-serif">
          <tspan x="12" y="34" dominant-baseline="ideographic">February 25, </tspan>
          <tspan x="12" y="58" dominant-baseline="ideographic">1942, 7:21 AM</tspan>
        </text>
      </g>
    </g>
  </g>
  <g id="g-root-tx_allclear_1lt0z1z1brz11r-stroke-fill" data-item-order="0" transform="translate(524, 422)">
    <g id="tx_allclear_1lt0z1z1brz11r-fill" stroke="none" fill="#f4f4f4">
      <g>
        <text style="font: 15px Roboto, sans-serif; white-space: pre;" font-size="15px" font-family="Roboto, sans-serif">
          <tspan x="12" y="31" dominant-baseline="ideographic">All clear" signal </tspan>
          <tspan x="12" y="49" dominant-baseline="ideographic">issued, blackout </tspan>
          <tspan x="12" y="67" dominant-baseline="ideographic">lifted</tspan>
        </text>
      </g>
    </g>
    <defs>
      <pattern id="crawlingPattern-0000001b" x="0" y="0" width="12" height="12" patternUnits="userSpaceOnUse" fill="#0000001b">
        <use href="#crawlingSymbol"/>
      </pattern>
      <symbol id="crawlingSymbol">
        <g>
          <path d="M -12.5 12.5 l 13 -13 l 6 0 l -13 13 Z M -0.5 12.5 l 13 -13 l 6 0 l -13 13 Z M 11.5 12.5 l 13 -13 l 6 0 l -13 13 Z"/>
        </g>
      </symbol>
      <pattern id="crawlingPattern-f9080081" x="0" y="0" width="12" height="12" patternUnits="userSpaceOnUse" fill="#f9080081">
        <use href="#crawlingSymbol"/>
      </pattern>
      <pattern id="crawlingPattern-ddc700ff" x="0" y="0" width="12" height="12" patternUnits="userSpaceOnUse" fill="#ddc700ff">
        <use href="#crawlingSymbol"/>
      </pattern>
      <pattern id="crawlingPattern-a700f578" x="0" y="0" width="12" height="12" patternUnits="userSpaceOnUse" fill="#a700f578">
        <use href="#crawlingSymbol"/>
      </pattern>
      <pattern id="crawlingPattern-f17400d3" x="0" y="0" width="12" height="12" patternUnits="userSpaceOnUse" fill="#f17400d3">
        <use href="#crawlingSymbol"/>
      </pattern>
      <pattern id="crawlingPattern-eb008e76" x="0" y="0" width="12" height="12" patternUnits="userSpaceOnUse" fill="#eb008e76">
        <use href="#crawlingSymbol"/>
      </pattern>
      <pattern id="crawlingPattern-0060fba2" x="0" y="0" width="12" height="12" patternUnits="userSpaceOnUse" fill="#0060fba2">
        <use href="#crawlingSymbol"/>
      </pattern>
    </defs>
  </g>
</svg>
