<?xml version='1.0' encoding='utf-8'?>
<svg xmlns="http://www.w3.org/2000/svg" xmlns:xlink="http://www.w3.org/1999/xlink" width="720" height="684" viewBox="0 0 720 684" style="fill:none;stroke:none;fill-rule:evenodd;clip-rule:evenodd;stroke-linecap:round;stroke-linejoin:round;stroke-miterlimit:1.5;" version="1.1">
  <style class="text-font-style fontImports" data-font-family="Roboto">@import url('https://fonts.googleapis.com/css2?family=Roboto:wght@400;700&amp;display=block');</style>
  <rect x="0" y="0" width="7.2E+2" height="684" fill="#252a34" stroke="none" id="programmatic_background"/>
  <g id="g-root-tf_13ym8hz1ae11jc-stroke-fill" data-item-order="-462840" transform="translate(12, 12)"/>
  <g id="g-root-sy_-1_Vector_1ur5j0n1adzoxy-stroke-fill" data-item-order="-12847" transform="translate(230, 149)">
    <g id="sy_-1_Vector_1ur5j0n1adzoxy-stroke" fill="none" stroke-linecap="round" stroke-linejoin="round" stroke-miterlimit="4" stroke="#f4f4f4" stroke-width="2">
      <g>
        <path d="M 10 388L 10 298M 10 292L 10 202M 10 196L 10 106M 10 100L 10 10"/>
      </g>
    </g>
  </g>
  <g id="g-root-sy_-1_line_1ur5j0n1adzoxz-stroke-fill" data-item-order="-12843" transform="translate(230, 533)">
    <g id="sy_-1_line_1ur5j0n1adzoxz-stroke" fill="none" stroke-linecap="round" stroke-linejoin="round" stroke-miterlimit="4" stroke="#f4f4f4" stroke-width="2">
      <g>
        <path d="M 10 94L 10 10"/>
        <path d="M 3.5 88L 10 94.5L 16.5 88" stroke-dasharray="none"/>
      </g>
    </g>
  </g>
  <g id="g-root-sy_5_cu_1qbyhzb1adzmkg-stroke-fill" data-item-order="-12840" transform="translate(227, 527)">
    <g id="sy_5_cu_1qbyhzb1adzmkg-fill" stroke="none" fill="none">
      <g>
        <path d="M 13 10L 13 10C 13 10 16 10 16 13L 16 13C 16 13 16 16 13 16L 13 16C 13 16 10 16 10 13L 10 13C 10 13 10 10 13 10"/>
      </g>
    </g>
    <g id="sy_5_cu_1qbyhzb1adzmkg-stroke" fill="none" stroke-linecap="round" stroke-linejoin="round" stroke-miterlimit="4" stroke="#ffe711" stroke-width="2">
      <g>
        <path d="M 13 10L 13 10C 13 10 16 10 16 13L 16 13C 16 13 16 16 13 16L 13 16C 13 16 10 16 10 13L 10 13C 10 13 10 10 13 10"/>
      </g>
    </g>
    <g id="sy_5_cu_1qbyhzb1adzmkg-stroke" fill="none" stroke-linecap="round" stroke-linejoin="round" stroke-miterlimit="4" stroke="#ffe711" stroke-width="2">
      <g>
        <path d="M 37 13L 16 13"/>
      </g>
    </g>
  </g>
  <g id="g-root-sy_4_cu_1hgbhqf1adznd5-stroke-fill" data-item-order="-12836" transform="translate(227, 431)">
    <g id="sy_4_cu_1hgbhqf1adznd5-fill" stroke="none" fill="none">
      <g>
        <path d="M 13 10L 13 10C 13 10 16 10 16 13L 16 13C 16 13 16 16 13 16L 13 16C 13 16 10 16 10 13L 10 13C 10 13 10 10 13 10"/>
      </g>
    </g>
    <g id="sy_4_cu_1hgbhqf1adznd5-stroke" fill="none" stroke-linecap="round" stroke-linejoin="round" stroke-miterlimit="4" stroke="#a6da37" stroke-width="2">
      <g>
        <path d="M 13 10L 13 10C 13 10 16 10 16 13L 16 13C 16 13 16 16 13 16L 13 16C 13 16 10 16 10 13L 10 13C 10 13 10 10 13 10"/>
      </g>
    </g>
    <g id="sy_4_cu_1hgbhqf1adznd5-stroke" fill="none" stroke-linecap="round" stroke-linejoin="round" stroke-miterlimit="4" stroke="#a6da37" stroke-width="2">
      <g>
        <path d="M 37 13L 16 13"/>
      </g>
    </g>
  </g>
  <g id="g-root-sy_3_cu_1d0hzlz1adzo5e-stroke-fill" data-item-order="-12832" transform="translate(227, 335)">
    <g id="sy_3_cu_1d0hzlz1adzo5e-fill" stroke="none" fill="none">
      <g>
        <path d="M 13 10L 13 10C 13 10 16 10 16 13L 16 13C 16 13 16 16 13 16L 13 16C 13 16 10 16 10 13L 10 13C 10 13 10 10 13 10"/>
      </g>
    </g>
    <g id="sy_3_cu_1d0hzlz1adzo5e-stroke" fill="none" stroke-linecap="round" stroke-linejoin="round" stroke-miterlimit="4" stroke="#43dd93" stroke-width="2">
      <g>
        <path d="M 13 10L 13 10C 13 10 16 10 16 13L 16 13C 16 13 16 16 13 16L 13 16C 13 16 10 16 10 13L 10 13C 10 13 10 10 13 10"/>
      </g>
    </g>
    <g id="sy_3_cu_1d0hzlz1adzo5e-stroke" fill="none" stroke-linecap="round" stroke-linejoin="round" stroke-miterlimit="4" stroke="#43dd93" stroke-width="2">
      <g>
        <path d="M 37 13L 16 13"/>
      </g>
    </g>
  </g>
  <g id="g-root-sy_2_cu_144uzd31adzoy3-stroke-fill" data-item-order="-12828" transform="translate(227, 239)">
    <g id="sy_2_cu_144uzd31adzoy3-fill" stroke="none" fill="none">
      <g>
        <path d="M 13 10L 13 10C 13 10 16 10 16 13L 16 13C 16 13 16 16 13 16L 13 16C 13 16 10 16 10 13L 10 13C 10 13 10 10 13 10"/>
      </g>
    </g>
    <g id="sy_2_cu_144uzd31adzoy3-stroke" fill="none" stroke-linecap="round" stroke-linejoin="round" stroke-miterlimit="4" stroke="#1ac3fb" stroke-width="2">
      <g>
        <path d="M 13 10L 13 10C 13 10 16 10 16 13L 16 13C 16 13 16 16 13 16L 13 16C 13 16 10 16 10 13L 10 13C 10 13 10 10 13 10"/>
      </g>
    </g>
    <g id="sy_2_cu_144uzd31adzoy3-stroke" fill="none" stroke-linecap="round" stroke-linejoin="round" stroke-miterlimit="4" stroke="#1ac3fb" stroke-width="2">
      <g>
        <path d="M 37 13L 16 13"/>
      </g>
    </g>
  </g>
  <g id="g-root-sy_1_cu_zpnybr1adzmkk-stroke-fill" data-item-order="-12824" transform="translate(227, 143)">
    <g id="sy_1_cu_zpnybr1adzmkk-fill" stroke="none" fill="none">
      <g>
        <path d="M 13 10L 13 10C 13 10 16 10 16 13L 16 13C 16 13 16 16 13 16L 13 16C 13 16 10 16 10 13L 10 13C 10 13 10 10 13 10"/>
      </g>
    </g>
    <g id="sy_1_cu_zpnybr1adzmkk-stroke" fill="none" stroke-linecap="round" stroke-linejoin="round" stroke-miterlimit="4" stroke="#4f91fc" stroke-width="2">
      <g>
        <path d="M 13 10L 13 10C 13 10 16 10 16 13L 16 13C 16 13 16 16 13 16L 13 16C 13 16 10 16 10 13L 10 13C 10 13 10 10 13 10"/>
      </g>
    </g>
    <g id="sy_1_cu_zpnybr1adzmkk-stroke" fill="none" stroke-linecap="round" stroke-linejoin="round" stroke-miterlimit="4" stroke="#4f91fc" stroke-width="2">
      <g>
        <path d="M 37 13L 16 13"/>
      </g>
    </g>
  </g>
  <g id="g-root-tx_thebelgi_qu0y2v1adznd9-stroke-fill" data-item-order="0" transform="translate(140, 50)">
    <g id="tx_thebelgi_qu0y2v1adznd9-fill" stroke="none" fill="#f4f4f4">
      <g>
        <text style="font: 20px Roboto, sans-serif; white-space: pre;" font-size="20px" font-family="Roboto, sans-serif">
          <tspan x="12.15" y="34" dominant-baseline="ideographic">The Belgian UFO Wave: A Timeline of Events</tspan>
        </text>
      </g>
    </g>
  </g>
  <g id="g-root-tx_sobepspu_dikfpj1adzoy6-stroke-fill" data-item-order="0" transform="translate(278, 518)">
    <g id="tx_sobepspu_dikfpj1adzoy6-fill" stroke="none" fill="#f4f4f4">
      <g>
        <text style="font: 20px Roboto, sans-serif; white-space: pre;" font-size="20px" font-family="Roboto, sans-serif">
          <tspan x="12" y="34" dominant-baseline="ideographic">SOBEPS publishes comprehensive report</tspan>
        </text>
      </g>
    </g>
  </g>
  <g id="g-root-tx_f16inter_7qefb1adzndb-stroke-fill" data-item-order="0" transform="translate(278, 422)">
    <g id="tx_f16inter_7qefb1adzndb-fill" stroke="none" fill="#f4f4f4">
      <g>
        <text style="font: 20px Roboto, sans-serif; white-space: pre;" font-size="20px" font-family="Roboto, sans-serif">
          <tspan x="12" y="34" dominant-baseline="ideographic">F-16 intercepts and radar tracking</tspan>
        </text>
      </g>
    </g>
  </g>
  <g id="g-root-tx_belgianm_1ut0y9z1adznyg-stroke-fill" data-item-order="0" transform="translate(278, 314)">
    <g id="tx_belgianm_1ut0y9z1adznyg-fill" stroke="none" fill="#f4f4f4">
      <g>
        <text style="font: 20px Roboto, sans-serif; white-space: pre;" font-size="20px" font-family="Roboto, sans-serif">
          <tspan x="12" y="34" dominant-baseline="ideographic">Belgian Minister of Defense acknowledges </tspan>
          <tspan x="12" y="58" dominant-baseline="ideographic">reports</tspan>
        </text>
      </g>
    </g>
  </g>
  <g id="g-root-tx_signific_1hi6wzr1adzmdl-stroke-fill" data-item-order="0" transform="translate(278, 230)">
    <g id="tx_signific_1hi6wzr1adzmdl-fill" stroke="none" fill="#f4f4f4">
      <g>
        <text style="font: 20px Roboto, sans-serif; white-space: pre;" font-size="20px" font-family="Roboto, sans-serif">
          <tspan x="12" y="34" dominant-baseline="ideographic">Significant sightings in Liège and Namur</tspan>
        </text>
      </g>
    </g>
  </g>
  <g id="g-root-tx_initials_1d2devb1adzn5u-stroke-fill" data-item-order="0" transform="translate(278, 122)">
    <g id="tx_initials_1d2devb1adzn5u-fill" stroke="none" fill="#f4f4f4">
      <g>
        <text style="font: 20px Roboto, sans-serif; white-space: pre;" font-size="20px" font-family="Roboto, sans-serif">
          <tspan x="12" y="34" dominant-baseline="ideographic">Initial sightings reported by multiple </tspan>
          <tspan x="12" y="58" dominant-baseline="ideographic">witnesses</tspan>
        </text>
      </g>
    </g>
  </g>
  <g id="g-root-tx_1991_zqwwhz1adzoqr-stroke-fill" data-item-order="0" transform="translate(146, 518)">
    <g id="tx_1991_zqwwhz1adzoqr-fill" stroke="none" fill="#ffe711">
      <g>
        <text style="font: bold 20px Roboto, sans-serif; white-space: pre;" font-weight="bold" font-size="20px" font-family="Roboto, sans-serif">
          <tspan x="22.09" y="34" dominant-baseline="ideographic">1991</tspan>
        </text>
      </g>
    </g>
  </g>
  <g id="g-root-tx_march303_qvwdc71adzmdo-stroke-fill" data-item-order="0" transform="translate(26, 422)">
    <g id="tx_march303_qvwdc71adzmdo-fill" stroke="none" fill="#a6da37">
      <g>
        <text style="font: bold 20px Roboto, sans-serif; white-space: pre;" font-weight="bold" font-size="20px" font-family="Roboto, sans-serif">
          <tspan x="16.48" y="34" dominant-baseline="ideographic">March 30-31, 1990</tspan>
        </text>
      </g>
    </g>
  </g>
  <g id="g-root-tx_december_mg2v7r1adzn5x-stroke-fill" data-item-order="0" transform="translate(26, 326)">
    <g id="tx_december_mg2v7r1adzn5x-fill" stroke="none" fill="#43dd93">
      <g>
        <text style="font: bold 20px Roboto, sans-serif; white-space: pre;" font-weight="bold" font-size="20px" font-family="Roboto, sans-serif">
          <tspan x="12.56" y="34" dominant-baseline="ideographic">December 21, 1989</tspan>
        </text>
      </g>
    </g>
  </g>
  <g id="g-root-tx_december_94mcuf1adzoqu-stroke-fill" data-item-order="0" transform="translate(38, 218)">
    <g id="tx_december_94mcuf1adzoqu-fill" stroke="none" fill="#1ac3fb">
      <g>
        <text style="font: bold 20px Roboto, sans-serif; white-space: pre;" font-weight="bold" font-size="20px" font-family="Roboto, sans-serif">
          <tspan x="20.61" y="34" dominant-baseline="ideographic">December 11-12, </tspan>
          <tspan x="130.09" y="58" dominant-baseline="ideographic">1989</tspan>
        </text>
      </g>
    </g>
  </g>
  <g id="g-root-tx_november_9lton1adzmdr-stroke-fill" data-item-order="0" transform="translate(26, 134)">
    <g id="tx_november_9lton1adzmdr-fill" stroke="none" fill="#4f91fc">
      <g>
        <text style="font: bold 20px Roboto, sans-serif; white-space: pre;" font-weight="bold" font-size="20px" font-family="Roboto, sans-serif">
          <tspan x="11.53" y="34" dominant-baseline="ideographic">November 29, 1989</tspan>
        </text>
      </g>
    </g>
    <defs>
      <pattern id="crawlingPattern-0000001b" x="0" y="0" width="12" height="12" patternUnits="userSpaceOnUse" fill="#0000001b">
        <use href="#crawlingSymbol"/>
      </pattern>
      <symbol id="crawlingSymbol">
        <g>
          <path d="M -12.5 12.5 l 13 -13 l 6 0 l -13 13 Z M -0.5 12.5 l 13 -13 l 6 0 l -13 13 Z M 11.5 12.5 l 13 -13 l 6 0 l -13 13 Z"/>
        </g>
      </symbol>
      <pattern id="crawlingPattern-ddc700ff" x="0" y="0" width="12" height="12" patternUnits="userSpaceOnUse" fill="#ddc700ff">
        <use href="#crawlingSymbol"/>
      </pattern>
      <pattern id="crawlingPattern-5c87005e" x="0" y="0" width="12" height="12" patternUnits="userSpaceOnUse" fill="#5c87005e">
        <use href="#crawlingSymbol"/>
      </pattern>
      <pattern id="crawlingPattern-00b15c75" x="0" y="0" width="12" height="12" patternUnits="userSpaceOnUse" fill="#00b15c75">
        <use href="#crawlingSymbol"/>
      </pattern>
      <pattern id="crawlingPattern-00a3d9d9" x="0" y="0" width="12" height="12" patternUnits="userSpaceOnUse" fill="#00a3d9d9">
        <use href="#crawlingSymbol"/>
      </pattern>
      <pattern id="crawlingPattern-0060fba2" x="0" y="0" width="12" height="12" patternUnits="userSpaceOnUse" fill="#0060fba2">
        <use href="#crawlingSymbol"/>
      </pattern>
    </defs>
  </g>
</svg>
