<?xml version='1.0' encoding='utf-8'?>
<svg xmlns="http://www.w3.org/2000/svg" xmlns:xlink="http://www.w3.org/1999/xlink" width="744" height="576" viewBox="0 0 744 576" style="fill:none;stroke:none;fill-rule:evenodd;clip-rule:evenodd;stroke-linecap:round;stroke-linejoin:round;stroke-miterlimit:1.5;" version="1.1">
  <style class="text-font-style fontImports" data-font-family="Roboto">@import url('https://fonts.googleapis.com/css2?family=Roboto:wght@400;700&amp;display=block');</style>
  <rect x="0" y="0" width="744" height="576" fill="#252a34" stroke="none" id="programmatic_background"/>
  <g id="g-root-tf_zs645z18qkbgn-stroke-fill" data-item-order="-390816" transform="translate(18, 12)">
    <g id="tf_zs645z18qkbgn-fill" stroke="none" fill="#2c2c2c">
      <g>
        <path d="M 0 0L 708 0L 708 552L 0 552Z"/>
      </g>
    </g>
    <defs>
      <pattern id="crawlingPattern-3604fc1a" x="0" y="0" width="12" height="12" patternUnits="userSpaceOnUse" fill="#3604fc1a">
        <use href="#crawlingSymbol"/>
      </pattern>
      <symbol id="crawlingSymbol">
        <g>
          <path d="M -12.5 12.5 l 13 -13 l 6 0 l -13 13 Z M -0.5 12.5 l 13 -13 l 6 0 l -13 13 Z M 11.5 12.5 l 13 -13 l 6 0 l -13 13 Z"/>
        </g>
      </symbol>
      <pattern id="crawlingPattern-00d16d21" x="0" y="0" width="12" height="12" patternUnits="userSpaceOnUse" fill="#00d16d21">
        <use href="#crawlingSymbol"/>
      </pattern>
      <pattern id="crawlingPattern-f908001a" x="0" y="0" width="12" height="12" patternUnits="userSpaceOnUse" fill="#f908001a">
        <use href="#crawlingSymbol"/>
      </pattern>
      <pattern id="crawlingPattern-0060fb20" x="0" y="0" width="12" height="12" patternUnits="userSpaceOnUse" fill="#0060fb20">
        <use href="#crawlingSymbol"/>
      </pattern>
      <pattern id="crawlingPattern-0000001b" x="0" y="0" width="12" height="12" patternUnits="userSpaceOnUse" fill="#0000001b">
        <use href="#crawlingSymbol"/>
      </pattern>
      <pattern id="crawlingPattern-2d00ff37" x="0" y="0" width="12" height="12" patternUnits="userSpaceOnUse" fill="#2d00ff37">
        <use href="#crawlingSymbol"/>
      </pattern>
      <pattern id="crawlingPattern-00ff873a" x="0" y="0" width="12" height="12" patternUnits="userSpaceOnUse" fill="#00ff873a">
        <use href="#crawlingSymbol"/>
      </pattern>
      <pattern id="crawlingPattern-ff0b0038" x="0" y="0" width="12" height="12" patternUnits="userSpaceOnUse" fill="#ff0b0038">
        <use href="#crawlingSymbol"/>
      </pattern>
      <pattern id="crawlingPattern-0059ff37" x="0" y="0" width="12" height="12" patternUnits="userSpaceOnUse" fill="#0059ff37">
        <use href="#crawlingSymbol"/>
      </pattern>
      <pattern id="crawlingPattern-3300fc7a" x="0" y="0" width="12" height="12" patternUnits="userSpaceOnUse" fill="#3300fc7a">
        <use href="#crawlingSymbol"/>
      </pattern>
      <pattern id="crawlingPattern-00b15c75" x="0" y="0" width="12" height="12" patternUnits="userSpaceOnUse" fill="#00b15c75">
        <use href="#crawlingSymbol"/>
      </pattern>
      <pattern id="crawlingPattern-f9080081" x="0" y="0" width="12" height="12" patternUnits="userSpaceOnUse" fill="#f9080081">
        <use href="#crawlingSymbol"/>
      </pattern>
      <pattern id="crawlingPattern-0060fba2" x="0" y="0" width="12" height="12" patternUnits="userSpaceOnUse" fill="#0060fba2">
        <use href="#crawlingSymbol"/>
      </pattern>
      <pattern id="crawlingPattern-c1c1c11a" x="0" y="0" width="12" height="12" patternUnits="userSpaceOnUse" fill="#c1c1c11a">
        <use href="#crawlingSymbol"/>
      </pattern>
      <pattern id="crawlingPattern-5f5f5f1a" x="0" y="0" width="12" height="12" patternUnits="userSpaceOnUse" fill="#5f5f5f1a">
        <use href="#crawlingSymbol"/>
      </pattern>
    </defs>
  </g>
  <g id="g-root-sy_-1_Vector_1hckwpj18qg6is-stroke-fill" data-item-order="-28507" transform="translate(236, 182)">
    <g id="sy_-1_Vector_1hckwpj18qg6is-stroke" fill="none" stroke-linecap="round" stroke-linejoin="round" stroke-miterlimit="4" stroke="#f4f4f4" stroke-width="2">
      <g>
        <path d="M 10 226L 10 202M 10 130L 10 106M 10 34L 10 10"/>
      </g>
    </g>
  </g>
  <g id="g-root-sy_-1_line_18hkdjr18qg45p-stroke-fill" data-item-order="-28503" transform="translate(236, 470)">
    <g id="sy_-1_line_18hkdjr18qg45p-stroke" fill="none" stroke-linecap="round" stroke-linejoin="round" stroke-miterlimit="4" stroke="#f4f4f4" stroke-width="2">
      <g>
        <path d="M 10 44L 10 10"/>
        <path d="M 3.5 38L 10 44.5L 16.5 38" stroke-dasharray="none"/>
      </g>
    </g>
  </g>
  <g id="g-root-cr_4_cr-big_141qvfb18qg4xy-stroke-fill" data-item-order="-28500" transform="translate(200, 398)">
    <g id="cr_4_cr-big_141qvfb18qg4xy-fill" stroke="none" fill="#8769fd">
      <g>
        <path d="M 10 46C 10 65.882251 26.117749 82 46 82C 65.882251 82 82 65.882251 82 46C 82 26.117749 65.882251 10 46 10C 26.117749 10 10 26.117749 10 46"/>
      </g>
    </g>
    <g id="cr_4_cr-big_141qvfb18qg4xy-stroke" fill="none" stroke-linecap="round" stroke-linejoin="round" stroke-miterlimit="4" stroke="#2c2c2c" stroke-width="2">
      <g>
        <path d="M 10 46C 10 65.882251 26.117749 82 46 82C 65.882251 82 82 65.882251 82 46C 82 26.117749 65.882251 10 46 10C 26.117749 10 10 26.117749 10 46"/>
      </g>
    </g>
  </g>
  <g id="g-root-cr_3_cr-big_141qvfb18qg4xz-stroke-fill" data-item-order="-28496" transform="translate(200, 302)">
    <g id="cr_3_cr-big_141qvfb18qg4xz-fill" stroke="none" fill="#43dd93">
      <g>
        <path d="M 10 46C 10 65.882251 26.117749 82 46 82C 65.882251 82 82 65.882251 82 46C 82 26.117749 65.882251 10 46 10C 26.117749 10 10 26.117749 10 46"/>
      </g>
    </g>
    <g id="cr_3_cr-big_141qvfb18qg4xz-stroke" fill="none" stroke-linecap="round" stroke-linejoin="round" stroke-miterlimit="4" stroke="#2c2c2c" stroke-width="2">
      <g>
        <path d="M 10 46C 10 65.882251 26.117749 82 46 82C 65.882251 82 82 65.882251 82 46C 82 26.117749 65.882251 10 46 10C 26.117749 10 10 26.117749 10 46"/>
      </g>
    </g>
  </g>
  <g id="g-root-cr_2_cr-big_zlxdav18qg5q8-stroke-fill" data-item-order="-28492" transform="translate(200, 206)">
    <g id="cr_2_cr-big_zlxdav18qg5q8-fill" stroke="none" fill="#fb6762">
      <g>
        <path d="M 10 46C 10 65.882251 26.117749 82 46 82C 65.882251 82 82 65.882251 82 46C 82 26.117749 65.882251 10 46 10C 26.117749 10 10 26.117749 10 46"/>
      </g>
    </g>
    <g id="cr_2_cr-big_zlxdav18qg5q8-stroke" fill="none" stroke-linecap="round" stroke-linejoin="round" stroke-miterlimit="4" stroke="#2c2c2c" stroke-width="2">
      <g>
        <path d="M 10 46C 10 65.882251 26.117749 82 46 82C 65.882251 82 82 65.882251 82 46C 82 26.117749 65.882251 10 46 10C 26.117749 10 10 26.117749 10 46"/>
      </g>
    </g>
  </g>
  <g id="g-root-cr_1_cr-big_qqad1z18qg6ix-stroke-fill" data-item-order="-28488" transform="translate(200, 110)">
    <g id="cr_1_cr-big_qqad1z18qg6ix-fill" stroke="none" fill="#4f91fc">
      <g>
        <path d="M 10 46C 10 65.882251 26.117749 82 46 82C 65.882251 82 82 65.882251 82 46C 82 26.117749 65.882251 10 46 10C 26.117749 10 10 26.117749 10 46"/>
      </g>
    </g>
    <g id="cr_1_cr-big_qqad1z18qg6ix-stroke" fill="none" stroke-linecap="round" stroke-linejoin="round" stroke-miterlimit="4" stroke="#2c2c2c" stroke-width="2">
      <g>
        <path d="M 10 46C 10 65.882251 26.117749 82 46 82C 65.882251 82 82 65.882251 82 46C 82 26.117749 65.882251 10 46 10C 26.117749 10 10 26.117749 10 46"/>
      </g>
    </g>
  </g>
  <g id="g-root-ic_1_5v8nr18qg5jf-stroke-fill" data-item-order="-2304" transform="translate(212, 410)">
    <g id="ic_1_5v8nr18qg5jf-fill" stroke="none" fill="#f4f4f4">
      <g>
        <path d="M 34 10.5C 20 10.5 12 17.780001 12 30.5C 12 43.66 27.26 57.5 34 57.5C 40.739998 57.5 56 43.66 56 30.5C 56 17.780001 48 10.5 34 10.5ZM 37.16 39.360001C 36.612923 36.196518 37.378441 32.946693 39.279999 30.360001C 41.48 27.700001 45.080002 26.360001 49.98 26.360001C 50.491478 26.358294 50.918251 26.750227 50.959999 27.26C 51.191189 30.586864 50.131023 33.874809 48 36.440002C 45.400784 39.064995 41.784687 40.423767 38.099998 40.159996C 37.642563 40.134697 37.258114 39.80751 37.16 39.360001ZM 30.84 39.360001C 30.738121 39.821503 30.332556 40.152576 29.859999 40.16C 26.188894 40.411873 22.589855 39.054016 20 36.439999C 17.878387 33.863705 16.832439 30.568249 17.08 27.24C 17.119104 26.752451 17.511709 26.36838 18 26.34C 22.9 26.34 26.5 27.700001 28.700001 30.34C 30.613977 32.928825 31.387051 36.187294 30.84 39.360001Z"/>
      </g>
    </g>
  </g>
  <g id="g-root-ic_1_147zmaf18qg6j0-stroke-fill" data-item-order="-2304" transform="translate(212, 314)">
    <g id="ic_1_147zmaf18qg6j0-fill" stroke="none" fill="#f4f4f4">
      <g>
        <path d="M 57.419998 21.42L 46.580002 10.58C 46.207478 10.210511 45.704681 10.00221 45.18 10L 22 10C 19.790861 10 18 11.790861 18 14L 18 25.5C 18 25.776142 18.223858 26 18.5 26L 21.5 26C 21.776142 26 22 25.776142 22 25.5L 22 15C 22 14.447716 22.447716 14 23 14L 43.5 14C 43.776142 14 44 14.223858 44 14.5L 44 20C 44 22.209139 45.790859 24 48 24L 53.5 24C 53.776142 24 54 24.223858 54 24.5L 54 53C 54 53.552284 53.552284 54 53 54L 22.5 54C 22.223858 54 22 53.776142 22 53.5L 22 52.5C 22 52.223858 21.776142 52 21.5 52L 18.5 52C 18.223858 52 18 52.223858 18 52.5L 18 54C 18 56.209141 19.790861 58 22 58L 54 58C 56.209141 58 58 56.209141 58 54L 58 22.82C 57.997791 22.295321 57.78949 21.792522 57.419998 21.42ZM 46 48L 46 30C 46 28.89543 45.104568 28 44 28L 12 28C 10.895431 28 10 28.89543 10 30L 10 48C 10 49.104568 10.895431 50 12 50L 44 50C 45.104568 50 46 49.104568 46 48ZM 15.76 37.760002L 18 37.760002C 18.684834 37.760002 19.24 38.315166 19.24 39C 19.24 39.684834 18.684834 40.239998 18 40.239998L 15.76 40.239998C 15.472812 40.239998 15.24 40.472809 15.24 40.759998L 15.24 43C 15.24 43.419735 15.580263 43.759998 16 43.759998L 20 43.759998C 20.684834 43.760002 21.24 44.315166 21.24 45C 21.24 45.684834 20.684834 46.240002 20 46.240002L 16 46.240002C 15.139065 46.245365 14.311838 45.905731 13.703053 45.296947C 13.094269 44.688164 12.754636 43.860935 12.76 43L 12.76 35C 12.754636 34.139065 13.094269 33.311836 13.703053 32.703056C 14.311838 32.094269 15.139065 31.754637 16 31.76L 20 31.76C 20.684834 31.76 21.24 32.315166 21.24 33C 21.24 33.684834 20.684834 34.239998 20 34.239998L 16 34.239998C 15.580263 34.239998 15.24 34.580261 15.24 35L 15.24 37.239998C 15.24 37.527184 15.472812 37.759998 15.76 37.759998ZM 27.76 40.239998L 26.76 40.239998C 26.472811 40.239998 26.24 40.472809 26.24 40.759998L 26.24 45C 26.24 45.684834 25.684834 46.240002 25 46.240002C 24.315166 46.240002 23.76 45.684834 23.76 45L 23.76 33C 23.76 32.315166 24.315166 31.76 25 31.76L 28 31.76C 29.201595 31.759178 30.347113 32.268234 31.151779 33.160614C 31.956448 34.052994 32.344692 35.244888 32.220001 36.439999C 31.914724 38.664063 29.984066 40.301674 27.740002 40.240002ZM 36.879997 36.739998L 40.559998 39.18C 41.954514 40.135845 42.569572 41.884632 42.080414 43.502979C 41.591255 45.121323 40.110497 46.236629 38.419998 46.259998L 35 46.259998C 34.370415 46.180202 33.89843 45.644623 33.89843 45.010002C 33.89843 44.375378 34.370415 43.839798 35 43.760002L 38.400002 43.759998C 39.001839 43.759285 39.531631 43.363091 39.702454 42.786007C 39.873268 42.20892 39.644482 41.588188 39.139999 41.260002L 35.459999 38.82C 34.393608 38.095718 33.756569 36.889091 33.760002 35.599998C 33.759998 33.479225 35.479225 31.759998 37.599998 31.759998L 41 31.76C 41.684834 31.76 42.240002 32.315166 42.240002 33C 42.240002 33.684834 41.684834 34.239998 41 34.239998L 37.599998 34.239998C 36.998161 34.240715 36.468365 34.636909 36.297546 35.213993C 36.126732 35.79108 36.355518 36.411812 36.860001 36.739998ZM 28 34.239998L 26.76 34.239998C 26.472811 34.239998 26.24 34.472809 26.24 34.759998L 26.24 37.239998C 26.24 37.527184 26.472811 37.759998 26.759998 37.759998L 28 37.760002C 28.971926 37.759865 29.759756 36.971924 29.759756 36C 29.759756 35.028076 28.971926 34.240135 28 34.239998Z"/>
      </g>
    </g>
  </g>
  <g id="g-root-ic_dron_hunct318qiyv9-stroke-fill" data-item-order="-2304" transform="translate(212, 218)">
    <g id="ic_dron_hunct318qiyv9-fill" stroke="none" fill="#f4f4f4">
      <g>
        <path d="M 22 14.5C 23.104568 14.5 24 13.604569 24 12.5C 24 11.395431 23.104568 10.5 22 10.5L 12 10.5C 10.895431 10.5 10 11.395431 10 12.5C 10 13.604569 10.895431 14.5 12 14.5ZM 17 15.5C 15.895431 15.5 15 16.395432 15 17.5L 15 17.639999C 14.061136 18.28957 13.500596 19.358334 13.5 20.5C 13.510772 21.323925 14.176076 21.989227 15 22L 19 22C 19.823925 21.989227 20.489227 21.323925 20.5 20.5C 20.499403 19.358334 19.938864 18.28957 19 17.639999L 19 17.5C 19 16.395432 18.104568 15.5 17 15.5ZM 56 10.5L 46 10.5C 44.895432 10.5 44 11.395431 44 12.5C 44 13.604569 44.895432 14.5 46 14.5L 56 14.5C 57.104568 14.5 58 13.604569 58 12.5C 58 11.395431 57.104568 10.5 56 10.5ZM 51 15.5C 49.895432 15.5 49 16.395432 49 17.5L 49 17.639999C 48.061134 18.28957 47.500595 19.358334 47.5 20.5C 47.510773 21.323925 48.176075 21.989227 49 22L 53 22C 53.823925 21.989227 54.489227 21.323925 54.5 20.5C 54.499405 19.358334 53.938862 18.28957 53 17.639999L 53 17.5C 53 16.395432 52.104568 15.5 51 15.5ZM 53 24.5L 49 24.5C 42 24.5 40 20.5 34 20.5C 28 20.5 26 24.5 19 24.5L 15 24.5C 13.343145 24.5 12 25.843147 12 27.5C 12 29.156855 13.343145 30.5 15 30.5L 19 30.5C 20.538309 30.484627 22.069742 30.707258 23.540001 31.16C 19.972252 33.971596 17.496767 37.939445 16.540001 42.380001C 16.202671 43.865788 16.555571 45.424423 17.5 46.619999C 18.466991 47.836422 19.946377 48.531731 21.5 48.5L 22.58 48.5C 23.68457 48.5 24.58 47.604568 24.58 46.5C 24.58 45.395432 23.68457 44.5 22.58 44.5L 21.42 44.5C 21.114326 44.504753 20.824663 44.363636 20.639999 44.119999C 20.446924 43.886044 20.373072 43.575863 20.440001 43.279999C 21.263947 38.891243 24.04842 35.119682 28 33.040001C 31.756529 35.013706 36.243469 35.013706 40 33.040001C 43.966908 35.110416 46.76722 38.883469 47.599998 43.279999C 47.666927 43.575863 47.593075 43.886044 47.400002 44.119999C 47.215336 44.363636 46.925671 44.504753 46.619999 44.499996L 45.540001 44.5C 44.435429 44.5 43.540001 45.395432 43.540001 46.5C 43.540001 47.604568 44.435429 48.5 45.540001 48.5L 46.619999 48.5C 48.173626 48.531731 49.653008 47.836422 50.620003 46.620003C 51.56443 45.424423 51.917328 43.865788 51.580002 42.380001C 50.623234 37.939445 48.147747 33.971596 44.579998 31.16C 46.050255 30.707258 47.581688 30.484627 49.119999 30.5L 53.119999 30.5C 54.776855 30.5 56.120003 29.156855 56.120003 27.5C 56.120003 25.843147 54.776855 24.5 53.120003 24.5ZM 36 38.739998C 35.591331 38.020374 34.827568 37.575783 34 37.575783C 33.172432 37.575783 32.408669 38.020374 31.999998 38.739998L 23.9 54.139999C 23.532936 54.846516 23.557379 55.692623 23.964611 56.376774C 24.371845 57.060928 25.103945 57.485809 25.9 57.499996L 42 57.5C 42.796055 57.485809 43.528152 57.060928 43.935387 56.376774C 44.342621 55.692623 44.367062 54.846516 44 54.139999ZM 32.459999 44.5C 32.459999 43.671574 33.131573 43 33.959999 43C 34.788429 43 35.459999 43.671574 35.459999 44.5L 35.459999 48.5C 35.459999 49.32843 34.788429 50 33.959999 50C 33.131573 50 32.459999 49.32843 32.459999 48.5ZM 33.959999 55.5C 32.855431 55.5 31.959999 54.604568 31.959999 53.5C 31.959999 52.395432 32.855431 51.5 33.959999 51.5C 35.064568 51.5 35.959999 52.395432 35.959999 53.5C 35.96022 54.589134 35.088917 55.478218 34 55.5Z"/>
      </g>
    </g>
  </g>
  <g id="g-root-ic_ufo_4ot47r18qiwp2-stroke-fill" data-item-order="-2304" transform="translate(212, 122)">
    <g id="ic_ufo_4ot47r18qiwp2-fill" stroke="none" fill="#f4f4f4">
      <g>
        <path d="M 50.779999 39.48C 50.49268 38.408726 49.391396 37.77314 48.32008 38.060295C 47.24876 38.34745 46.613007 39.448639 46.899998 40.519997L 51.139999 56.52C 51.30584 57.231823 51.846767 57.796497 52.550816 57.992748C 53.25486 58.188999 54.009895 57.985573 54.520046 57.462177C 55.030201 56.938786 55.214222 56.178791 55 55.48ZM 19.82 38C 18.754391 37.720551 17.663445 38.355446 17.380001 39.419998L 13.14 55.419998C 12.925778 56.11879 13.109798 56.878784 13.619952 57.40218C 14.130106 57.925571 14.885139 58.129002 15.589186 57.932751C 16.293234 57.7365 16.83416 57.171825 17 56.459999L 21.24 40.459999C 21.380281 39.945396 21.309196 39.39608 21.042547 38.934139C 20.775898 38.472198 20.335775 38.135902 19.82 38ZM 38 49.860001C 39.203453 49.748383 40.123898 48.738621 40.123898 47.529999C 40.123898 46.321381 39.203453 45.311615 38 45.200001L 31.08 45.200001C 29.876545 45.311615 28.9561 46.321381 28.9561 47.529999C 28.9561 48.738621 29.876545 49.748383 31.08 49.860001L 32.239998 49.860001L 32.239998 50.18L 29.200001 54.299999C 28.437847 55.332775 28.657228 56.787849 29.690001 57.550003C 30.722773 58.312153 32.177849 58.092773 32.940002 57.060001L 34.599998 54.82L 36.200001 57.080002C 36.978722 58.129345 38.460663 58.348724 39.510002 57.570004C 40.559341 56.791279 40.778725 55.309341 40 54.260002L 37 50.16L 37 49.860001ZM 38 40.239998C 38.008102 38.822594 37.160507 37.540237 35.85331 36.992199C 34.546112 36.44416 33.03743 36.738647 32.032288 37.738045C 31.027142 38.73745 30.724012 40.244415 31.264553 41.554733C 31.805094 42.865051 33.082569 43.719978 34.5 43.720001C 35.426414 43.725323 36.316711 43.361034 36.973671 42.707829C 37.63063 42.054626 38.000015 41.166428 38 40.239998ZM 56.959999 29C 57.256584 29.003077 57.540375 28.879374 57.739998 28.659998C 57.943413 28.447105 58.032631 28.149708 57.98 27.860001C 57.289928 23.844007 53.774273 20.931278 49.700001 21L 18.299999 21C 14.218212 20.921293 10.691198 23.836391 10 27.860001C 9.947369 28.149708 10.036588 28.447105 10.24 28.66C 10.439621 28.879374 10.723413 29.003077 11.02 28.999998L 13.28 29C 13.484316 29.002653 13.666457 29.12936 13.74 29.32C 13.899547 29.722376 14.079787 30.116236 14.280001 30.500002C 16.065369 33.888172 19.580214 36.009026 23.41 36.009026C 27.239786 36.009026 30.754631 33.888172 32.540001 30.5C 32.740211 30.116236 32.920456 29.722376 33.080002 29.320002C 33.148697 29.125612 33.333855 28.996807 33.540001 28.999998L 34.459999 29C 34.666145 28.996807 34.851299 29.125612 34.919998 29.32C 35.079548 29.722376 35.259789 30.116236 35.459999 30.500002C 37.245369 33.888172 40.760216 36.009026 44.59 36.009026C 48.419785 36.009026 51.934631 33.888172 53.720001 30.5C 53.920216 30.116236 54.100456 29.722376 54.260002 29.320002C 54.328697 29.125612 54.513851 28.996807 54.719997 28.999998ZM 23.4 32C 21.569786 31.983295 19.832561 31.191006 18.619999 29.82C 18.522778 29.660299 18.522778 29.4597 18.619999 29.299999C 18.686577 29.141253 18.830135 29.027918 19 29L 27.799999 29C 27.999443 28.999306 28.180223 29.117207 28.26 29.299999C 28.367369 29.456707 28.367369 29.663294 28.26 29.82C 27.033712 31.218311 25.259802 32.014015 23.400002 32ZM 44.599998 32C 42.768101 31.990932 41.027901 31.197287 39.82 29.82C 39.712631 29.663294 39.712631 29.456707 39.82 29.299999C 39.899776 29.117207 40.080559 28.999306 40.279999 29L 49.080002 29C 49.272152 29.007078 49.443218 29.123714 49.52 29.299999C 49.627369 29.456707 49.627369 29.663294 49.52 29.82C 48.280025 31.234344 46.480667 32.031624 44.600002 32ZM 34 10C 28.477455 9.948547 23.296272 12.666791 20.200001 17.24C 20.121464 17.397415 20.121464 17.582584 20.200001 17.74C 20.291019 17.897736 20.457924 17.996361 20.639999 18L 47.5 18C 47.703251 18.01899 47.898815 17.917297 47.999996 17.74C 48.078533 17.582584 48.078533 17.397415 48 17.24C 44.864662 12.606876 39.593025 9.880686 34 10Z"/>
      </g>
    </g>
  </g>
  <g id="g-root-tx_thebelgi_mb3c0n18qg45e-stroke-fill" data-item-order="0" transform="translate(122, 50)">
    <g id="tx_thebelgi_mb3c0n18qg45e-fill" stroke="none" fill="#f4f4f4">
      <g>
        <text style="font: 20px Roboto, sans-serif; white-space: pre;" font-size="20px" font-family="Roboto, sans-serif">
          <tspan x="15.7" y="34" dominant-baseline="ideographic">The Belgian UFO Wave: Key Events and Insights</tspan>
        </text>
      </g>
    </g>
  </g>
  <g id="g-root-tx_continue_dfgbrr18qg4y3-stroke-fill" data-item-order="0" transform="translate(296, 410)">
    <g id="tx_continue_dfgbrr18qg4y3-fill" stroke="none" fill="#f1eeff">
      <g>
        <text style="font: 20px Roboto, sans-serif; white-space: pre;" font-size="20px" font-family="Roboto, sans-serif">
          <tspan x="12" y="34" dominant-baseline="ideographic">Continued debate and study of the Belgian </tspan>
          <tspan x="12" y="58" dominant-baseline="ideographic">UFO wave</tspan>
        </text>
      </g>
    </g>
  </g>
  <g id="g-root-tx_publicat_3ztef18qg6j0-stroke-fill" data-item-order="0" transform="translate(296, 314)">
    <g id="tx_publicat_3ztef18qg6j0-fill" stroke="none" fill="#dffff0">
      <g>
        <text style="font: 20px Roboto, sans-serif; white-space: pre;" font-size="20px" font-family="Roboto, sans-serif">
          <tspan x="12" y="34" dominant-baseline="ideographic">Publication of the comprehensive SOBEPS </tspan>
          <tspan x="12" y="58" dominant-baseline="ideographic">report</tspan>
        </text>
      </g>
    </g>
  </g>
  <g id="g-root-tx_f16inter_1upwuc718qg3yd-stroke-fill" data-item-order="0" transform="translate(296, 218)">
    <g id="tx_f16inter_1upwuc718qg3yd-fill" stroke="none" fill="#ffe9e8">
      <g>
        <text style="font: 20px Roboto, sans-serif; white-space: pre;" font-size="20px" font-family="Roboto, sans-serif">
          <tspan x="12" y="34" dominant-baseline="ideographic">F-16 intercept attempts and radar data </tspan>
          <tspan x="12" y="58" dominant-baseline="ideographic">collection</tspan>
        </text>
      </g>
    </g>
  </g>
  <g id="g-root-tx_belgianu_1hegbyv18qg5ja-stroke-fill" data-item-order="0" transform="translate(296, 122)">
    <g id="tx_belgianu_1hegbyv18qg5ja-fill" stroke="none" fill="#ebf2ff">
      <g>
        <text style="font: 20px Roboto, sans-serif; white-space: pre;" font-size="20px" font-family="Roboto, sans-serif">
          <tspan x="12" y="34" dominant-baseline="ideographic">Belgian UFO wave occurs, marked by </tspan>
          <tspan x="12" y="58" dominant-baseline="ideographic">numerous sightings</tspan>
        </text>
      </g>
    </g>
  </g>
  <g id="g-root-tx_2023_18itbpz18qg6bz-stroke-fill" data-item-order="0" transform="translate(128, 422)">
    <g id="tx_2023_18itbpz18qg6bz-fill" stroke="none" fill="#8769fd">
      <g>
        <text style="font: bold 20px Roboto, sans-serif; white-space: pre;" font-weight="bold" font-size="20px" font-family="Roboto, sans-serif">
          <tspan x="22.09" y="34" dominant-baseline="ideographic">2023</tspan>
        </text>
      </g>
    </g>
  </g>
  <g id="g-root-tx_1991_znssk718qg4qo-stroke-fill" data-item-order="0" transform="translate(128, 326)">
    <g id="tx_1991_znssk718qg4qo-fill" stroke="none" fill="#43dd93">
      <g>
        <text style="font: bold 20px Roboto, sans-serif; white-space: pre;" font-weight="bold" font-size="20px" font-family="Roboto, sans-serif">
          <tspan x="22.09" y="34" dominant-baseline="ideographic">1991</tspan>
        </text>
      </g>
    </g>
  </g>
  <g id="g-root-tx_march301_mcca6v18qg6bl-stroke-fill" data-item-order="0" transform="translate(32, 230)">
    <g id="tx_march301_mcca6v18qg6bl-fill" stroke="none" fill="#fb6762">
      <g>
        <text style="font: bold 20px Roboto, sans-serif; white-space: pre;" font-weight="bold" font-size="20px" font-family="Roboto, sans-serif">
          <tspan x="23.31" y="34" dominant-baseline="ideographic">March 30, 1990</tspan>
        </text>
      </g>
    </g>
  </g>
  <g id="g-root-tx_19891990_dhbr1318qg3yi-stroke-fill" data-item-order="0" transform="translate(80, 134)">
    <g id="tx_19891990_dhbr1318qg3yi-fill" stroke="none" fill="#4f91fc">
      <g>
        <text style="font: bold 20px Roboto, sans-serif; white-space: pre;" font-weight="bold" font-size="20px" font-family="Roboto, sans-serif">
          <tspan x="16.31" y="34" dominant-baseline="ideographic">1989-1990</tspan>
        </text>
      </g>
    </g>
  </g>
</svg>
