<?xml version='1.0' encoding='utf-8'?>
<svg xmlns="http://www.w3.org/2000/svg" xmlns:xlink="http://www.w3.org/1999/xlink" width="648" height="528" viewBox="0 0 648 528" style="fill:none;stroke:none;fill-rule:evenodd;clip-rule:evenodd;stroke-linecap:round;stroke-linejoin:round;stroke-miterlimit:1.5;" version="1.1">
  <style class="text-font-style fontImports" data-font-family="Roboto">@import url('https://fonts.googleapis.com/css2?family=Roboto:wght@400;700&amp;display=block');</style>
  <rect x="0" y="0" width="648" height="528" fill="#252a34" stroke="none" id="programmatic_background"/>
  <g id="g-root-tf_1hdty1j1bi3ocr-stroke-fill" data-item-order="-308448" transform="translate(18, 12)">
    <g id="tf_1hdty1j1bi3ocr-fill" stroke="none" fill="#2c2c2c">
      <g>
        <path d="M 0 0L 612 0L 612 504L 0 504Z"/>
      </g>
    </g>
    <defs>
      <pattern id="crawlingPattern-8484841a" x="0" y="0" width="12" height="12" patternUnits="userSpaceOnUse" fill="#8484841a">
        <use href="#crawlingSymbol"/>
      </pattern>
      <symbol id="crawlingSymbol">
        <g>
          <path d="M -12.5 12.5 l 13 -13 l 6 0 l -13 13 Z M -0.5 12.5 l 13 -13 l 6 0 l -13 13 Z M 11.5 12.5 l 13 -13 l 6 0 l -13 13 Z"/>
        </g>
      </symbol>
      <pattern id="crawlingPattern-f908001a" x="0" y="0" width="12" height="12" patternUnits="userSpaceOnUse" fill="#f908001a">
        <use href="#crawlingSymbol"/>
      </pattern>
      <pattern id="crawlingPattern-00d16d21" x="0" y="0" width="12" height="12" patternUnits="userSpaceOnUse" fill="#00d16d21">
        <use href="#crawlingSymbol"/>
      </pattern>
      <pattern id="crawlingPattern-0000001b" x="0" y="0" width="12" height="12" patternUnits="userSpaceOnUse" fill="#0000001b">
        <use href="#crawlingSymbol"/>
      </pattern>
      <pattern id="crawlingPattern-5f5f5f1a" x="0" y="0" width="12" height="12" patternUnits="userSpaceOnUse" fill="#5f5f5f1a">
        <use href="#crawlingSymbol"/>
      </pattern>
    </defs>
  </g>
  <g id="g-root-sy_5_cu_1hfpa531biew3z-stroke-fill" data-item-order="-34519" transform="translate(230, 273)">
    <g id="sy_5_cu_1hfpa531biew3z-stroke" fill="none" stroke-linecap="round" stroke-linejoin="round" stroke-miterlimit="4" stroke="#f4f4f4" stroke-width="2">
      <g>
        <path d="M 10 34L 10 48.126C 10 52.981 14.289 56.717 19.098 56.05L 82 47.336M 178 10L 178 26.396C 178 30.389 175.056 33.77 171.101 34.32L 106 43.361"/>
      </g>
    </g>
  </g>
  <g id="g-root-sy_4_cu_1czvs0n1bieww8-stroke-fill" data-item-order="-34516" transform="translate(302, 296.33599853515625)">
    <g id="sy_4_cu_1czvs0n1bieww8-fill" stroke="none" fill="#b7b7b7">
      <g>
        <path d="M 34.086 22.000001C 34.086 28.627001 28.695 34.000001 22.043 34.000001C 15.392 34.000001 10 28.627001 10 22.000001C 10 15.373001 15.392 10.000001 22.043 10.000001C 28.695 10.000001 34.086 15.373001 34.086 22.000001ZM 28 22.000001C 28 25.314001 25.314 28.000001 22 28.000001C 18.686 28.000001 16 25.314001 16 22.000001C 16 18.686001 18.686 16.000001 22 16.000001C 25.314 16.000001 28 18.686001 28 22.000001Z"/>
      </g>
    </g>
    <g id="sy_4_cu_1czvs0n1bieww8-stroke" fill="none" stroke-linecap="round" stroke-linejoin="round" stroke-miterlimit="4" stroke="#2c2c2c" stroke-width="2">
      <g>
        <path d="M 34.086 22.000001C 34.086 28.627001 28.695 34.000001 22.043 34.000001C 15.392 34.000001 10 28.627001 10 22.000001C 10 15.373001 15.392 10.000001 22.043 10.000001C 28.695 10.000001 34.086 15.373001 34.086 22.000001ZM 28 22.000001C 28 25.314001 25.314 28.000001 22 28.000001C 18.686 28.000001 16 25.314001 16 22.000001C 16 18.686001 18.686 16.000001 22 16.000001C 25.314 16.000001 28 18.686001 28 22.000001Z"/>
      </g>
    </g>
  </g>
  <g id="g-root-sy_3_cu_18koqzb1bieuip-stroke-fill" data-item-order="-34512" transform="translate(266, 317.32598876953125)">
    <g id="sy_3_cu_18koqzb1bieuip-fill" stroke="none" fill="#b7b7b7">
      <g>
        <path d="M 22 78.674011L 94 78.674011C 94 78.674011 73.992 28.166011 65.959 10.058011C 63.725 11.952011 61.073 12.997011 58.043 12.997011C 54.986 12.997011 52.288 11.933011 50.072 10.000011C 42.047 28.114011 22 78.674011 22 78.674011ZM 18 78.674011C 13.582 78.674011 10 82.256011 10 86.674011L 10 88.674011C 10 89.779011 10.895 90.674011 12 90.674011L 104 90.674011C 105.105 90.674011 106 89.779011 106 88.674011L 106 86.674011C 106 82.256011 102.418 78.674011 98 78.674011L 18 78.674011Z"/>
      </g>
    </g>
    <g id="sy_3_cu_18koqzb1bieuip-stroke" fill="none" stroke-linecap="round" stroke-linejoin="round" stroke-miterlimit="4" stroke="#2c2c2c" stroke-width="2">
      <g>
        <path d="M 22 78.674011L 94 78.674011C 94 78.674011 73.992 28.166011 65.959 10.058011C 63.725 11.952011 61.073 12.997011 58.043 12.997011C 54.986 12.997011 52.288 11.933011 50.072 10.000011C 42.047 28.114011 22 78.674011 22 78.674011ZM 18 78.674011C 13.582 78.674011 10 82.256011 10 86.674011L 10 88.674011C 10 89.779011 10.895 90.674011 12 90.674011L 104 90.674011C 105.105 90.674011 106 89.779011 106 88.674011L 106 86.674011C 106 82.256011 102.418 78.674011 98 78.674011L 18 78.674011Z"/>
      </g>
    </g>
    <g id="sy_3_cu_18koqzb1bieuip-stroke" fill="none" stroke-linecap="round" stroke-linejoin="round" stroke-miterlimit="4" stroke="#2c2c2c" stroke-width="2">
      <g>
        <path d="M 43.859 64.535011L 43.859 70.191011L 50.272 76.605011C 50.623 75.292011 51.314 74.050011 52.344 73.020011C 53.374 71.989011 54.616 71.299011 55.929 70.948011L 49.516 64.535011L 43.859 64.535011ZM 62 71.744011C 60.823 71.064011 59.457 70.674011 58 70.674011C 56.543 70.674011 55.177 71.064011 54 71.744011C 51.609 73.127011 50 75.713011 50 78.674011L 66 78.674011C 66 75.713011 64.391 73.127011 62 71.744011ZM 58 49.674011L 58 55.474011M 78.503 58.171011L 74.404 62.270011M 37.497 58.171011L 41.596 62.270011M 64.747 53.463011L 64.003 56.257011M 44.94 56.073011L 46.4 58.587011M 71.031 56.064011L 69.59 58.567011M 51.224 53.473011L 51.978 56.267011"/>
      </g>
    </g>
  </g>
  <g id="g-root-sy_2_right-bucket_zp1qqf1bievbe-stroke-fill" data-item-order="-34508" transform="translate(362, 254)">
    <g id="sy_2_right-bucket_zp1qqf1bievbe-fill" stroke="none" fill="#fb6762">
      <g>
        <path d="M 10 11.8C 10 10.806 10.806 10 11.8 10L 80.2 10C 81.194 10 82 10.806 82 11.8C 82 20.747 74.747 28 65.8 28L 26.2 28C 17.253 28 10 20.747 10 11.8Z"/>
      </g>
    </g>
    <g id="sy_2_right-bucket_zp1qqf1bievbe-stroke" fill="none" stroke-linecap="round" stroke-linejoin="round" stroke-miterlimit="4" stroke="#2c2c2c" stroke-width="2">
      <g>
        <path d="M 10 11.8C 10 10.806 10.806 10 11.8 10L 80.2 10C 81.194 10 82 10.806 82 11.8C 82 20.747 74.747 28 65.8 28L 26.2 28C 17.253 28 10 20.747 10 11.8Z"/>
      </g>
    </g>
  </g>
  <g id="g-root-sy_1_left-bucket_zp1qqf1bievbf-stroke-fill" data-item-order="-34504" transform="translate(194, 278)">
    <g id="sy_1_left-bucket_zp1qqf1bievbf-fill" stroke="none" fill="#43dd93">
      <g>
        <path d="M 10 11.8C 10 10.806 10.806 10 11.8 10L 80.2 10C 81.194 10 82 10.806 82 11.8C 82 20.747 74.747 28 65.8 28L 26.2 28C 17.253 28 10 20.747 10 11.8Z"/>
      </g>
    </g>
    <g id="sy_1_left-bucket_zp1qqf1bievbf-stroke" fill="none" stroke-linecap="round" stroke-linejoin="round" stroke-miterlimit="4" stroke="#2c2c2c" stroke-width="2">
      <g>
        <path d="M 10 11.8C 10 10.806 10.806 10 11.8 10L 80.2 10C 81.194 10 82 10.806 82 11.8C 82 20.747 74.747 28 65.8 28L 26.2 28C 17.253 28 10 20.747 10 11.8Z"/>
      </g>
    </g>
  </g>
  <g id="g-root-ic_spar_v988lz1biew3o-stroke-fill" data-item-order="-2304" transform="translate(206, 218)">
    <g id="ic_spar_v988lz1biew3o-fill" stroke="none" fill="#b7b7b7">
      <g>
        <path d="M 48 31.186001C 48 22.040165 40.585835 14.626 31.440001 14.626C 22.294165 14.626 14.880001 22.040165 14.880001 31.186001C 14.880001 40.331833 22.294165 47.745998 31.440001 47.745998C 40.585835 47.745998 48 40.331833 48 31.186001ZM 31.440001 10.626C 42.793999 10.626 52 19.83 52 31.184C 52.006992 36.073143 50.264683 40.80349 47.087997 44.52L 56.534 53.962002C 57.315487 54.742935 57.315933 56.009521 56.535004 56.791004C 55.754074 57.572487 54.487488 57.572933 53.706005 56.792004L 44.209999 47.298C 40.579678 50.183434 36.077339 51.750965 31.440001 51.744003C 20.084 51.745998 10.88 42.540001 10.88 31.186001C 10.88 19.83 20.082001 10.626 31.440001 10.626ZM 32.912003 19.546C 32.774071 18.84218 32.157207 18.334473 31.440001 18.334473C 30.722794 18.334473 30.10593 18.84218 29.968 19.546001C 28.964001 24.666 24.942001 28.722 19.996 29.716C 19.296902 29.857958 18.794497 30.472635 18.794497 31.186001C 18.794497 31.899364 19.296902 32.514046 19.996 32.655998C 24.944 33.652 28.962 37.702 29.966 42.82C 30.10393 43.523819 30.720793 44.031528 31.438 44.031528C 32.155209 44.031528 32.772072 43.523819 32.91 42.82C 33.916 37.702 37.933998 33.652 42.882 32.658001C 43.581097 32.516045 44.083504 31.901365 44.083504 31.188C 44.083504 30.474636 43.581097 29.859959 42.882 29.718C 37.936001 28.722 33.916 24.666 32.912003 19.548Z"/>
      </g>
    </g>
  </g>
  <g id="g-root-ic_tick_1q5q0lz1bihpu5-stroke-fill" data-item-order="-2304" transform="translate(206, 146)">
    <g id="ic_tick_1q5q0lz1bihpu5-fill" stroke="none" fill="#b7b7b7">
      <g>
        <path d="M 37 54.580002L 37 39.34C 36.997189 39.137363 36.872337 38.956467 36.683876 38.881958C 36.495415 38.807449 36.280617 38.854069 36.139999 39C 35.249653 39.967087 34.192886 40.766438 33.019997 41.360001C 32.064068 41.887375 31.007843 42.207645 29.92 42.299999C 27.93535 42.29224 26.185766 40.996254 25.599998 39.099998C 25.380329 38.321873 25.380329 37.498127 25.6 36.720001C 25.668001 36.581215 25.668001 36.418785 25.6 36.279999C 25.503607 36.156471 25.356655 36.082996 25.199999 36.079998L 11.5 36.080002C 10.671573 36.080002 10 36.751572 10 37.580002C 10 38.408428 10.671573 39.080002 11.5 39.080002L 13 39.080002L 13 56C 13 56.552284 13.447716 57 14 57L 36.919998 57C 37.088081 57.001926 37.24588 56.91927 37.34 56.779999C 37.418262 56.629566 37.418262 56.450428 37.339996 56.299995C 37.113979 55.75481 36.998413 55.170181 37 54.579998ZM 40 16.08C 40 18.841423 42.238575 21.08 45 21.08C 47.761425 21.08 50 18.841423 50 16.08C 50 13.318577 47.761425 11.08 45 11.08C 42.238575 11.08 40 13.318577 40 16.08M 58 31.860001C 58 27.441723 54.418278 23.860001 50 23.860001L 40 23.860001C 35.762581 23.852367 32.254238 27.150209 32 31.379999C 32.036797 33.193047 30.883804 34.816978 29.16 35.379997C 27.871277 35.679661 27.039194 36.931549 27.261868 38.235779C 27.484541 39.540009 28.684855 40.444901 30 40.300003C 30.702917 40.187168 31.380142 39.950138 32 39.599998C 35.108002 38.046677 37.034489 34.833263 36.939999 31.359999C 36.940002 30.807714 37.387714 30.360001 37.940002 30.360001C 38.492287 30.360001 38.940002 30.807714 38.940002 31.360001L 38.940002 54.580002C 38.940002 55.960712 40.059288 57.080002 41.440002 57.080002C 42.820713 57.080002 43.939999 55.960712 43.939999 54.580002L 43.939999 42C 43.939999 41.447716 44.387714 41 44.939999 41C 45.492283 41 45.939999 41.447716 45.939999 42L 45.939999 54.5C 45.940002 55.880714 47.059288 57 48.440002 57C 49.820713 57 50.940002 55.880714 50.940002 54.5L 50.939999 31.360001C 50.939999 30.807714 51.387714 30.360001 51.939999 30.360001C 52.492283 30.360001 52.939999 30.807714 52.939999 31.360001L 52.939999 39.080002C 52.940002 40.460712 54.059288 41.580002 55.440002 41.580002C 56.820713 41.580002 57.940002 40.460712 57.940002 39.080002ZM 14 16.08C 14 18.841423 16.238577 21.08 19 21.08C 21.761425 21.08 24 18.841423 24 16.08C 24 13.318577 21.761425 11.08 19 11.08C 16.238577 11.08 14 13.318577 14 16.08M 25.5 21.42C 25.501724 21.776344 25.637363 22.119015 25.880001 22.380001L 23.68 24.560001C 23.499439 24.754276 23.245209 24.863232 22.98 24.860001L 16.98 24.860001C 14.22639 24.871014 11.999978 27.106369 12 29.860001L 12 33.080002C 12 33.35614 12.223858 33.580002 12.5 33.580002L 24.5 33.580002C 24.776142 33.580002 25 33.35614 25 33.080002L 25 29.32C 24.996767 29.054792 25.105724 28.80056 25.299999 28.619999L 31 22.92L 34 22.92C 34.823921 22.909229 35.489227 22.243923 35.5 21.42L 35.5 12.42C 35.5 11.591573 34.82843 10.92 34 10.92L 27 10.92C 26.171574 10.92 25.5 11.591573 25.5 12.42ZM 28.5 14.42C 28.539614 14.175471 28.752304 13.996812 29 14L 32 14C 32.276142 14 32.5 14.223858 32.5 14.5L 32.5 19.5C 32.5 19.776142 32.276142 20 32 20L 29 20C 28.723858 20 28.5 19.776142 28.5 19.5Z"/>
      </g>
    </g>
  </g>
  <g id="g-root-ic_nigh_m9uduf1bij3t2-stroke-fill" data-item-order="-2304" transform="translate(206, 74)">
    <g id="ic_nigh_m9uduf1bij3t2-fill" stroke="none" fill="#b7b7b7">
      <g>
        <path d="M 16.762001 14.285999C 16.527605 15.365942 15.461787 16.051111 14.382 15.816C 13.452 15.612 12.522 15.396 11.59 15.16C 10.518568 14.890486 9.868485 13.803432 10.138 12.732C 10.407515 11.660568 11.494568 11.010485 12.566 11.28C 13.456 11.504 14.346001 11.714 15.234 11.906C 16.313129 12.141323 16.997213 13.206846 16.762001 14.285999ZM 51.237999 14.312C 51.002789 13.232846 51.686871 12.167323 52.765999 11.932C 53.655998 11.738 54.546001 11.53 55.433998 11.306C 56.505436 11.036486 57.592487 11.686567 57.862003 12.758C 58.131519 13.829432 57.481438 14.916485 56.410004 15.186001C 55.48 15.42 54.549999 15.638 53.618 15.84C 52.538845 16.075214 51.473324 15.391129 51.237999 14.312ZM 34.031998 42.900002C 37.260658 42.900002 39.878002 40.282658 39.878002 37.054001C 39.878002 33.825344 37.260658 31.208 34.032001 31.208C 30.803345 31.208 28.186001 33.825344 28.186001 37.054001C 28.186001 40.282658 30.803345 42.900002 34.032001 42.900002ZM 34.031998 46.108002C 28.849474 46.107918 24.466135 49.941628 23.776001 55.077999C 23.718321 55.506733 23.848545 55.939491 24.133247 56.265194C 24.41795 56.590897 24.829407 56.777828 25.262001 56.778L 42.801998 56.778C 43.234596 56.777828 43.646049 56.590897 43.930752 56.265194C 44.215454 55.939491 44.34568 55.506733 44.288002 55.078003C 43.597862 49.941628 39.214523 46.107918 34.031998 46.107998ZM 52.765999 46.948002C 52.047848 46.815899 51.458763 46.302914 51.229214 45.60973C 50.999664 44.916546 51.166138 44.153355 51.663502 43.618732C 52.16087 43.084106 52.910069 42.863033 53.618 43.042C 54.548 43.243999 55.478001 43.462002 56.41 43.695999C 57.481438 43.965519 58.131519 45.05257 57.862003 46.124004C 57.592487 47.195435 56.505436 47.845516 55.434002 47.576004C 54.548073 47.353077 53.658623 47.144382 52.765999 46.950001ZM 20.632 12.972C 29.562 14.48 38.512001 14.48 47.439999 12.972C 48.147694 12.845904 48.868622 13.109297 49.328346 13.661911C 49.788074 14.214525 49.915874 14.971347 49.663097 15.644278C 49.410324 16.317207 48.815857 16.802723 48.105999 16.916C 38.792713 18.498098 29.279289 18.498098 19.966 16.916C 19.256142 16.802723 18.661678 16.317207 18.408901 15.644278C 18.156126 14.971347 18.283926 14.214525 18.743652 13.661911C 19.203379 13.109297 19.924305 12.845904 20.632 12.972ZM 42.883999 45.276001C 41.786057 45.153946 40.994949 44.164944 41.117001 43.067001C 41.239056 41.969059 42.228058 41.177948 43.326 41.300003C 44.919998 41.48 46.514 41.700001 48.105999 41.970001C 48.815857 42.083279 49.410324 42.568794 49.663097 43.241722C 49.915874 43.914654 49.788074 44.671474 49.328346 45.224091C 48.868622 45.776703 48.147694 46.040096 47.439999 45.914001C 45.927624 45.658592 44.408352 45.445843 42.883999 45.275997ZM 24.746 41.299999C 25.843884 41.177498 26.83322 41.968147 26.95582 43.066017C 27.078419 44.163891 26.287861 45.153301 25.189999 45.275997C 23.67 45.445999 22.15 45.658001 20.632 45.916C 19.542343 46.099911 18.509911 45.365658 18.326 44.276001C 18.14209 43.186344 18.876343 42.153912 19.966 41.970001C 21.552729 41.701843 23.146694 41.478424 24.746 41.300003ZM 14.382 43.07C 15.455825 42.847225 16.508759 43.530762 16.742365 44.60228C 16.975971 45.673801 16.303106 46.733582 15.234 46.978001C 14.344 47.172001 13.454 47.380001 12.566 47.604C 11.494568 47.873516 10.407515 47.223434 10.138 46.152004C 9.868485 45.08057 10.518568 43.993519 11.59 43.724003C 12.52 43.492001 13.45 43.271999 14.382 43.07ZM 48.848 20.57C 48.847878 20.409367 48.770588 20.258572 48.640251 20.164682C 48.509914 20.070793 48.342403 20.045238 48.189999 20.096001C 45.297504 21.061565 43.468243 23.911659 43.795105 26.943495C 44.121967 29.975328 46.516674 32.370033 49.548508 32.696899C 52.580341 33.023758 55.430435 31.194498 56.396 28.302C 56.444077 28.158806 56.424847 28.001554 56.343674 27.874166C 56.262505 27.74678 56.128098 27.662916 55.978001 27.646C 53.737999 27.389999 51.958 26.870001 50.773998 25.686001C 49.577999 24.486 48.848 22.428001 48.848 20.57ZM 25.66 19.35C 26.76457 19.35 27.66 20.24543 27.66 21.35L 27.66 21.875999L 28.186001 21.875999C 29.290569 21.875999 30.186001 22.771431 30.186001 23.875999C 30.186001 24.98057 29.290569 25.875999 28.186001 25.875999L 27.66 25.875999L 27.66 26.4C 27.66 27.50457 26.76457 28.4 25.66 28.4C 24.555431 28.4 23.66 27.50457 23.66 26.4L 23.66 25.874001L 23.133999 25.874001C 22.02943 25.874001 21.133999 24.978569 21.133999 23.874001C 21.133999 22.76943 22.02943 21.874001 23.133999 21.874001L 23.66 21.874001L 23.66 21.348C 23.66 20.243431 24.555431 19.348 25.66 19.348ZM 17.813999 29.708C 17.813999 28.60343 16.91857 27.708 15.814 27.708C 14.709431 27.708 13.814 28.60343 13.814 29.708L 13.814 30.232L 13.288 30.232C 12.183431 30.232 11.288 31.12743 11.288 32.232002C 11.288 33.336571 12.183431 34.232002 13.288 34.232002L 13.814 34.232002L 13.814 34.760002C 13.814 35.864571 14.709431 36.760002 15.814 36.760002C 16.91857 36.760002 17.813999 35.864571 17.813999 34.760002L 17.813999 34.232002L 18.34 34.232002C 19.444569 34.232002 20.34 33.336571 20.34 32.232002C 20.34 31.12743 19.444569 30.232 18.34 30.232L 17.813999 30.232L 17.813999 29.708Z"/>
      </g>
    </g>
  </g>
  <g id="g-root-ic_1_1urscrb1bhy0b3-stroke-fill" data-item-order="-2304" transform="translate(374, 194)">
    <g id="ic_1_1urscrb1bhy0b3-fill" stroke="none" fill="#b7b7b7">
      <g>
        <path d="M 33.260002 21.700001C 33.081364 21.503281 32.914413 21.296259 32.760002 21.080002C 32.590252 20.818605 32.31031 20.649166 32 20.619999C 31.701485 20.592373 31.406744 20.7029 31.200001 20.92L 28.32 23.82C 27.544554 24.600075 27.544554 25.859924 28.32 26.639999L 39.620003 38C 39.995533 38.378624 40.506725 38.591599 41.040001 38.591599C 41.573273 38.591599 42.084465 38.378624 42.459999 38L 45.580002 34.879997C 45.818024 34.637489 45.922565 34.293991 45.859997 33.959999C 45.784561 33.632519 45.552654 33.363213 45.239998 33.239998C 43.982025 32.746574 43.058216 31.651363 42.783905 30.328215C 42.509594 29.005066 42.921867 27.632864 43.880001 26.68C 45.440151 25.129105 47.95985 25.129105 49.52 26.68C 49.917938 27.060318 50.225491 27.525061 50.419998 28.040001C 50.540707 28.362255 50.821587 28.597589 51.16 28.66C 51.471561 28.69733 51.782578 28.586252 52 28.360001L 55.119999 25.220001C 55.895447 24.439926 55.895447 23.180075 55.119999 22.4L 52.52 19.74C 52.411545 19.62118 52.366886 19.457432 52.400002 19.299999C 52.41917 19.143343 52.517315 19.00745 52.66 18.939999C 53.069298 18.73588 53.446606 18.47311 53.779999 18.16C 55.343586 16.597141 55.34388 14.062565 53.780659 12.499342C 52.217434 10.936119 49.682858 10.936414 48.119999 12.5C 47.794811 12.815792 47.530422 13.18865 47.34 13.6C 47.268131 13.751011 47.125523 13.856091 46.959999 13.88C 46.799519 13.904579 46.636768 13.852795 46.519997 13.74L 43.880001 11.08C 43.504467 10.701375 42.993275 10.488403 42.459999 10.488403C 41.926727 10.488403 41.415535 10.701375 41.040001 11.08L 38.139999 14C 37.931824 14.219586 37.829601 14.51895 37.860001 14.82C 37.878105 15.118145 38.042946 15.387884 38.300003 15.54C 38.520325 15.696367 38.727661 15.870266 38.919998 16.059999C 40.483585 17.62286 40.483879 20.157436 38.920658 21.720657C 37.357437 23.28388 34.822861 23.283585 33.260002 21.720001ZM 14.219999 39C 13.115431 39 12.22 39.895432 12.22 41L 12.22 55.5C 12.22 56.604568 13.115431 57.5 14.219999 57.5C 15.32457 57.5 16.219999 56.604568 16.219999 55.5L 16.219999 41C 16.219999 39.895432 15.32457 39 14.219999 39ZM 18.220001 41.5L 18.220001 54.5C 18.220001 55.052284 18.667715 55.5 19.220001 55.5L 40.760002 55.5C 41.946339 55.500011 43.083797 55.027374 43.920788 54.18663C 44.757778 53.34589 45.225319 52.206326 45.219997 51.02L 45.220001 50.5C 45.220001 49.395432 44.32457 48.5 43.220001 48.5L 24.98 48.5C 24.495667 48.561386 24.019461 48.33746 23.757809 47.925285C 23.496159 47.513115 23.496159 46.986885 23.757809 46.574715C 24.019461 46.16254 24.495667 45.938614 24.98 46L 30 46C 30.67613 46.003265 31.308132 45.664692 31.68 45.099998C 32.044151 44.539448 32.104187 43.834026 31.84 43.220001C 31.160942 41.602859 29.593536 40.537025 27.84 40.5L 19.220001 40.5C 18.667715 40.5 18.220001 40.947716 18.220001 41.5Z"/>
      </g>
    </g>
  </g>
  <g id="g-root-ic_cog_zqx95j1bhzgn4-stroke-fill" data-item-order="-2304" transform="translate(374, 122)">
    <g id="ic_cog_zqx95j1bhzgn4-fill" stroke="none" fill="#b7b7b7">
      <g>
        <path d="M 55.380001 25.700001C 54.762333 24.958439 54.762333 23.881561 55.380001 23.139999L 57.380001 21.139999C 58.119457 20.329205 58.249222 19.133101 57.700851 18.182587C 57.152477 17.232073 56.052052 16.745697 54.98 16.98L 52.220001 17.619999C 51.235039 17.835278 50.255615 17.23527 50 16.26L 49.18 13.54C 48.857822 12.490114 47.888206 11.773417 46.790001 11.773417C 45.691792 11.773417 44.722179 12.490114 44.400002 13.54L 43.560001 16.26C 43.279102 17.200178 42.316166 17.760433 41.360001 17.540001L 38.599998 16.9C 37.52298 16.647024 36.407768 17.132015 35.858379 18.092293C 35.30899 19.052574 35.456085 20.25975 36.220001 21.060001L 38.220001 23.060001C 38.900642 23.777609 38.900642 24.902393 38.220001 25.620001L 36.220001 27.620001C 35.17897 28.343811 34.844635 29.732321 35.442104 30.850657C 36.039574 31.968994 37.37962 32.462975 38.560001 32L 41.32 31.360001C 42.276165 31.139568 43.239101 31.699823 43.52 32.639999L 44.360001 35.360001C 44.682178 36.409889 45.651794 37.126583 46.75 37.126583C 47.848209 37.126583 48.817822 36.409889 49.139999 35.360001L 50 32.580002C 50.289093 31.646311 51.245426 31.089899 52.200001 31.299999L 54.959999 31.940001C 56.032051 32.174301 57.132477 31.687927 57.680851 30.737413C 58.229221 29.7869 58.099457 28.590797 57.360001 27.780001ZM 46.740002 28.24C 44.630272 28.24 42.920002 26.529728 42.920002 24.42C 42.920002 22.310272 44.630272 20.6 46.740002 20.6C 48.849728 20.6 50.560001 22.310272 50.560001 24.42C 50.560001 26.529728 48.849728 28.24 46.740002 28.24ZM 49.259998 41.099998C 48.941193 40.85804 48.537979 40.755516 48.142315 40.815807C 47.746651 40.876099 47.392277 41.094067 47.16 41.420002C 46.131065 42.80566 44.896885 44.026352 43.5 45.040001C 43.121597 45.331593 42.899948 45.782284 42.899998 46.259998L 42.900002 56.5C 42.900002 57.32843 43.571575 58 44.400002 58C 45.228428 58 45.900002 57.32843 45.900002 56.5L 45.900002 47C 47.28413 45.895927 48.520893 44.618835 49.580002 43.200001C 50.061337 42.529255 49.919266 41.596939 49.259998 41.099998ZM 33.459999 11.3C 18.380001 11.3 14.68 23.16 11.08 34.66L 10.12 37.700001C 9.876214 38.439064 10.002732 39.250275 10.46 39.880001C 10.921369 40.524727 11.667214 40.905109 12.46 40.900002L 16.280001 40.900002L 16.280001 45.099998C 16.290987 49.071892 19.50811 52.289013 23.48 52.299999L 24 52.299999L 24 56.5C 24 57.32843 24.671574 58 25.5 58C 26.328428 58 27 57.32843 27 56.5L 27 50.799999C 26.989227 49.976074 26.323923 49.310772 25.5 49.299999L 23.5 49.299999C 21.184952 49.289051 19.310946 47.415043 19.299999 45.099998L 19.299999 39.400002C 19.256927 38.598305 18.582527 37.977146 17.780001 38L 13.2 38C 13.46 37.220001 13.7 36.440002 13.940001 35.639999C 17.360001 24.619999 20.58 14.3 33.459999 14.3C 34.288429 14.3 34.959999 13.628428 34.959999 12.8C 34.959999 11.971573 34.288429 11.3 33.459999 11.3Z"/>
      </g>
    </g>
  </g>
  <g id="g-root-ic_ques_8xrhjr1bi28zt-stroke-fill" data-item-order="-2304" transform="translate(374, 50)">
    <g id="ic_ques_8xrhjr1bi28zt-fill" stroke="none" fill="#b7b7b7">
      <g>
        <path d="M 58 34C 58.012798 30.71542 56.345432 27.652294 53.580002 25.880001C 54.272648 22.677525 53.291222 19.342484 50.974373 17.025631C 48.65752 14.708778 45.322479 13.727355 42.120003 14.42C 40.341553 11.660248 37.283154 9.992704 34 9.992704C 30.716846 9.992704 27.658445 11.660248 25.880001 14.42C 22.677525 13.727355 19.342484 14.708778 17.025631 17.025631C 14.708778 19.342484 13.727355 22.677525 14.42 25.880001C 11.660248 27.658445 9.992704 30.716846 9.992704 34C 9.992704 37.283154 11.660248 40.341553 14.42 42.119999C 13.727355 45.322479 14.708778 48.65752 17.025631 50.974373C 19.342484 53.291222 22.677525 54.272648 25.880001 53.580002C 27.658445 56.339752 30.716846 58.007294 34 58.007294C 37.283154 58.007294 40.341553 56.339752 42.119999 53.580002C 45.322479 54.272648 48.65752 53.291222 50.974373 50.974373C 53.291222 48.65752 54.272648 45.322479 53.580002 42.120003C 56.345432 40.34771 58.012798 37.28458 58 34ZM 36 36.739998L 36 38C 36 39.104568 35.104568 40 34 40C 32.895432 40 32 39.104568 32 38L 32 35C 32 33.895432 32.895432 33 34 33C 36.209137 33 38 31.209139 38 29C 38 26.790861 36.209137 25 34 25C 31.790861 25 30 26.790861 30 29C 30 30.10457 29.10457 31 28 31C 26.89543 31 26 30.10457 26 29C 25.996899 24.841864 29.179794 21.374603 33.323017 21.022728C 37.46624 20.670856 41.188263 23.551701 41.886425 27.650808C 42.584591 31.749914 40.0261 35.700462 36 36.739998ZM 34 48.5C 32.343147 48.5 31 47.156857 31 45.5C 31 43.843147 32.343147 42.5 34 42.5C 35.656853 42.5 37 43.843147 37 45.5C 37 47.156857 35.656853 48.5 34 48.5Z"/>
      </g>
    </g>
  </g>
  <g id="g-root-tx_physical_hss0pj1bi3oqq-stroke-fill" data-item-order="0" transform="translate(98, 206)">
    <g id="tx_physical_hss0pj1bi3oqq-fill" stroke="none" fill="#f4f4f4">
      <g>
        <text style="font: 20px Roboto, sans-serif; white-space: pre;" font-size="20px" font-family="Roboto, sans-serif">
          <tspan x="29.5" y="34" dominant-baseline="ideographic">Physical </tspan>
          <tspan x="24.95" y="58" dominant-baseline="ideographic">evidence </tspan>
          <tspan x="15.17" y="82" dominant-baseline="ideographic">presented</tspan>
        </text>
      </g>
    </g>
  </g>
  <g id="g-root-tx_professi_4hxzfb1bi3n5v-stroke-fill" data-item-order="0" transform="translate(74, 146)">
    <g id="tx_professi_4hxzfb1bi3n5v-fill" stroke="none" fill="#f4f4f4">
      <g>
        <text style="font: 20px Roboto, sans-serif; white-space: pre;" font-size="20px" font-family="Roboto, sans-serif">
          <tspan x="16.36" y="34" dominant-baseline="ideographic">Professional </tspan>
          <tspan x="12.58" y="58" dominant-baseline="ideographic">backgrounds</tspan>
        </text>
      </g>
    </g>
  </g>
  <g id="g-root-tx_hypnosis_1unf15j1bi3nrg-stroke-fill" data-item-order="0" transform="translate(38, 74.0000991821289)">
    <g id="tx_hypnosis_1unf15j1bi3nrg-fill" stroke="none" fill="#f4f4f4">
      <g>
        <text style="font: 20px Roboto, sans-serif; white-space: pre;" font-size="20px" font-family="Roboto, sans-serif">
          <tspan x="81.08" y="34" dominant-baseline="ideographic">Hypnosis </tspan>
          <tspan x="14.39" y="58" dominant-baseline="ideographic">memory retrieval</tspan>
        </text>
      </g>
    </g>
  </g>
  <g id="g-root-tx_alternat_1q7lj131bi3ojp-stroke-fill" data-item-order="0" transform="translate(434, 182)">
    <g id="tx_alternat_1q7lj131bi3ojp-fill" stroke="none" fill="#f4f4f4">
      <g>
        <text style="font: 20px Roboto, sans-serif; white-space: pre;" font-size="20px" font-family="Roboto, sans-serif">
          <tspan x="12" y="34" dominant-baseline="ideographic">Alternative </tspan>
          <tspan x="12" y="58" dominant-baseline="ideographic">explanations </tspan>
          <tspan x="12" y="82" dominant-baseline="ideographic">offered</tspan>
        </text>
      </g>
    </g>
  </g>
  <g id="g-root-tx_psycholo_1hckzvb1bi3m6m-stroke-fill" data-item-order="0" transform="translate(434, 110)">
    <g id="tx_psycholo_1hckzvb1bi3m6m-fill" stroke="none" fill="#f4f4f4">
      <g>
        <text style="font: 20px Roboto, sans-serif; white-space: pre;" font-size="20px" font-family="Roboto, sans-serif">
          <tspan x="12" y="34" dominant-baseline="ideographic">Psychological </tspan>
          <tspan x="12" y="58" dominant-baseline="ideographic">factors </tspan>
          <tspan x="12" y="82" dominant-baseline="ideographic">considered</tspan>
        </text>
      </g>
    </g>
  </g>
  <g id="g-root-tx_falsemem_1414hhz1bi3nrj-stroke-fill" data-item-order="0" transform="translate(434, 50)">
    <g id="tx_falsemem_1414hhz1bi3nrj-fill" stroke="none" fill="#f4f4f4">
      <g>
        <text style="font: 20px Roboto, sans-serif; white-space: pre;" font-size="20px" font-family="Roboto, sans-serif">
          <tspan x="12" y="34" dominant-baseline="ideographic">False memory </tspan>
          <tspan x="12" y="58" dominant-baseline="ideographic">potential</tspan>
        </text>
      </g>
    </g>
  </g>
  <g id="g-root-tx_credibil_zlazdj1bi3ojs-stroke-fill" data-item-order="0" transform="translate(44, 374)">
    <g id="tx_credibil_zlazdj1bi3ojs-fill" stroke="none" fill="#f4f4f4">
      <g>
        <text style="font: 20px Roboto, sans-serif; white-space: pre;" font-size="20px" font-family="Roboto, sans-serif">
          <tspan x="17.61" y="34" dominant-baseline="ideographic">Credibility of the Hills</tspan>
        </text>
      </g>
    </g>
  </g>
  <g id="g-root-tx_skeptica_v63yc71bi3m69-stroke-fill" data-item-order="0" transform="translate(374, 350)">
    <g id="tx_skeptica_v63yc71bi3m69-fill" stroke="none" fill="#f4f4f4">
      <g>
        <text style="font: 20px Roboto, sans-serif; white-space: pre;" font-size="20px" font-family="Roboto, sans-serif">
          <tspan x="17.7" y="34" dominant-baseline="ideographic">Skeptical Explanations</tspan>
        </text>
      </g>
    </g>
  </g>
  <g id="g-root-tx_balancin_hunfyv1bi3nr6-stroke-fill" data-item-order="0" transform="translate(32, 434)">
    <g id="tx_balancin_hunfyv1bi3nr6-fill" stroke="none" fill="#f4f4f4">
      <g>
        <text style="font: 20px Roboto, sans-serif; white-space: pre;" font-size="20px" font-family="Roboto, sans-serif">
          <tspan x="14.13" y="34" dominant-baseline="ideographic">Balancing Credibility and Skepticism in the Hill Abduction Case</tspan>
        </text>
      </g>
    </g>
  </g>
</svg>
