<?xml version='1.0' encoding='utf-8'?>
<svg xmlns="http://www.w3.org/2000/svg" xmlns:xlink="http://www.w3.org/1999/xlink" width="768" height="672" viewBox="0 0 768 672" style="fill:none;stroke:none;fill-rule:evenodd;clip-rule:evenodd;stroke-linecap:round;stroke-linejoin:round;stroke-miterlimit:1.5;" version="1.1">
  <style class="text-font-style fontImports" data-font-family="Roboto">@import url('https://fonts.googleapis.com/css2?family=Roboto:wght@400;700&amp;display=block');</style>
  <rect x="0" y="0" width="768" height="672" fill="#252a34" stroke="none" id="programmatic_background"/>
  <g id="g-root-tf_1413yjr1a474lh-stroke-fill" data-item-order="-482112" transform="translate(12, 12)">
    <g id="tf_1413yjr1a474lh-fill" stroke="none" fill="#2c2c2c">
      <g>
        <path d="M 0 0L 744 0L 744 648L 0 648Z"/>
      </g>
    </g>
    <defs>
      <pattern id="crawlingPattern-00d16d21" x="0" y="0" width="12" height="12" patternUnits="userSpaceOnUse" fill="#00d16d21">
        <use href="#crawlingSymbol"/>
      </pattern>
      <symbol id="crawlingSymbol">
        <g>
          <path d="M -12.5 12.5 l 13 -13 l 6 0 l -13 13 Z M -0.5 12.5 l 13 -13 l 6 0 l -13 13 Z M 11.5 12.5 l 13 -13 l 6 0 l -13 13 Z"/>
        </g>
      </symbol>
      <pattern id="crawlingPattern-ec07911a" x="0" y="0" width="12" height="12" patternUnits="userSpaceOnUse" fill="#ec07911a">
        <use href="#crawlingSymbol"/>
      </pattern>
      <pattern id="crawlingPattern-f908001a" x="0" y="0" width="12" height="12" patternUnits="userSpaceOnUse" fill="#f908001a">
        <use href="#crawlingSymbol"/>
      </pattern>
      <pattern id="crawlingPattern-f576002d" x="0" y="0" width="12" height="12" patternUnits="userSpaceOnUse" fill="#f576002d">
        <use href="#crawlingSymbol"/>
      </pattern>
      <pattern id="crawlingPattern-0060fb20" x="0" y="0" width="12" height="12" patternUnits="userSpaceOnUse" fill="#0060fb20">
        <use href="#crawlingSymbol"/>
      </pattern>
      <pattern id="crawlingPattern-0000001b" x="0" y="0" width="12" height="12" patternUnits="userSpaceOnUse" fill="#0000001b">
        <use href="#crawlingSymbol"/>
      </pattern>
      <pattern id="crawlingPattern-00ff873a" x="0" y="0" width="12" height="12" patternUnits="userSpaceOnUse" fill="#00ff873a">
        <use href="#crawlingSymbol"/>
      </pattern>
      <pattern id="crawlingPattern-ff009b38" x="0" y="0" width="12" height="12" patternUnits="userSpaceOnUse" fill="#ff009b38">
        <use href="#crawlingSymbol"/>
      </pattern>
      <pattern id="crawlingPattern-ff0b0038" x="0" y="0" width="12" height="12" patternUnits="userSpaceOnUse" fill="#ff0b0038">
        <use href="#crawlingSymbol"/>
      </pattern>
      <pattern id="crawlingPattern-ff7b003a" x="0" y="0" width="12" height="12" patternUnits="userSpaceOnUse" fill="#ff7b003a">
        <use href="#crawlingSymbol"/>
      </pattern>
      <pattern id="crawlingPattern-0059ff37" x="0" y="0" width="12" height="12" patternUnits="userSpaceOnUse" fill="#0059ff37">
        <use href="#crawlingSymbol"/>
      </pattern>
      <pattern id="crawlingPattern-00b15c75" x="0" y="0" width="12" height="12" patternUnits="userSpaceOnUse" fill="#00b15c75">
        <use href="#crawlingSymbol"/>
      </pattern>
      <pattern id="crawlingPattern-eb008e76" x="0" y="0" width="12" height="12" patternUnits="userSpaceOnUse" fill="#eb008e76">
        <use href="#crawlingSymbol"/>
      </pattern>
      <pattern id="crawlingPattern-f9080081" x="0" y="0" width="12" height="12" patternUnits="userSpaceOnUse" fill="#f9080081">
        <use href="#crawlingSymbol"/>
      </pattern>
      <pattern id="crawlingPattern-f17400d3" x="0" y="0" width="12" height="12" patternUnits="userSpaceOnUse" fill="#f17400d3">
        <use href="#crawlingSymbol"/>
      </pattern>
      <pattern id="crawlingPattern-0060fba2" x="0" y="0" width="12" height="12" patternUnits="userSpaceOnUse" fill="#0060fba2">
        <use href="#crawlingSymbol"/>
      </pattern>
      <pattern id="crawlingPattern-c1c1c11a" x="0" y="0" width="12" height="12" patternUnits="userSpaceOnUse" fill="#c1c1c11a">
        <use href="#crawlingSymbol"/>
      </pattern>
      <pattern id="crawlingPattern-5f5f5f1a" x="0" y="0" width="12" height="12" patternUnits="userSpaceOnUse" fill="#5f5f5f1a">
        <use href="#crawlingSymbol"/>
      </pattern>
    </defs>
  </g>
  <g id="g-root-sy_-1_Vector_dik6931a4iakr-stroke-fill" data-item-order="-35419" transform="translate(374, 182)">
    <g id="sy_-1_Vector_dik6931a4iakr-stroke" fill="none" stroke-linecap="round" stroke-linejoin="round" stroke-miterlimit="4" stroke="#f4f4f4" stroke-width="2">
      <g>
        <path d="M 10 322L 10 298M 10 226L 10 202M 10 130L 10 106M 10 34L 10 10"/>
      </g>
    </g>
  </g>
  <g id="g-root-sy_-1_cu_92qo4n1a4ibd0-stroke-fill" data-item-order="-35415" transform="translate(374, 566)">
    <g id="sy_-1_cu_92qo4n1a4ibd0-stroke" fill="none" stroke-linecap="round" stroke-linejoin="round" stroke-miterlimit="4" stroke="#f4f4f4" stroke-width="2">
      <g>
        <path d="M 10 44L 10 10"/>
        <path d="M 3.5 38L 10 44.5L 16.5 38" stroke-dasharray="none"/>
      </g>
    </g>
  </g>
  <g id="g-root-cr_5_cr-big_73nvr1a4ic5p-stroke-fill" data-item-order="-35412" transform="translate(338, 494)">
    <g id="cr_5_cr-big_73nvr1a4ic5p-fill" stroke="none" fill="#43dd93">
      <g>
        <path d="M 10 46C 10 65.882251 26.117749 82 46 82C 65.882251 82 82 65.882251 82 46C 82 26.117749 65.882251 10 46 10C 26.117749 10 10 26.117749 10 46"/>
      </g>
    </g>
    <g id="cr_5_cr-big_73nvr1a4ic5p-stroke" fill="none" stroke-linecap="round" stroke-linejoin="round" stroke-miterlimit="4" stroke="#2c2c2c" stroke-width="2">
      <g>
        <path d="M 10 46C 10 65.882251 26.117749 82 46 82C 65.882251 82 82 65.882251 82 46C 82 26.117749 65.882251 10 46 10C 26.117749 10 10 26.117749 10 46"/>
      </g>
    </g>
  </g>
  <g id="g-root-cr_4_cr-big_1use7qf1a4icqu-stroke-fill" data-item-order="-35408" transform="translate(338, 398)">
    <g id="cr_4_cr-big_1use7qf1a4icqu-fill" stroke="none" fill="#f366bb">
      <g>
        <path d="M 10 46C 10 65.882251 26.117749 82 46 82C 65.882251 82 82 65.882251 82 46C 82 26.117749 65.882251 10 46 10C 26.117749 10 10 26.117749 10 46"/>
      </g>
    </g>
    <g id="cr_4_cr-big_1use7qf1a4icqu-stroke" fill="none" stroke-linecap="round" stroke-linejoin="round" stroke-miterlimit="4" stroke="#2c2c2c" stroke-width="2">
      <g>
        <path d="M 10 46C 10 65.882251 26.117749 82 46 82C 65.882251 82 82 65.882251 82 46C 82 26.117749 65.882251 10 46 10C 26.117749 10 10 26.117749 10 46"/>
      </g>
    </g>
  </g>
  <g id="g-root-cr_3_cr-big_1lxdokn1a4iadr-stroke-fill" data-item-order="-35404" transform="translate(338, 302)">
    <g id="cr_3_cr-big_1lxdokn1a4iadr-fill" stroke="none" fill="#fb6762">
      <g>
        <path d="M 10 46C 10 65.882251 26.117749 82 46 82C 65.882251 82 82 65.882251 82 46C 82 26.117749 65.882251 10 46 10C 26.117749 10 10 26.117749 10 46"/>
      </g>
    </g>
    <g id="cr_3_cr-big_1lxdokn1a4iadr-stroke" fill="none" stroke-linecap="round" stroke-linejoin="round" stroke-miterlimit="4" stroke="#2c2c2c" stroke-width="2">
      <g>
        <path d="M 10 46C 10 65.882251 26.117749 82 46 82C 65.882251 82 82 65.882251 82 46C 82 26.117749 65.882251 10 46 10C 26.117749 10 10 26.117749 10 46"/>
      </g>
    </g>
  </g>
  <g id="g-root-cr_2_cr-big_1qd76p31a4iadc-stroke-fill" data-item-order="-35400" transform="translate(338, 206)">
    <g id="cr_2_cr-big_1qd76p31a4iadc-fill" stroke="none" fill="#f79438">
      <g>
        <path d="M 10 46C 10 65.882251 26.117749 82 46 82C 65.882251 82 82 65.882251 82 46C 82 26.117749 65.882251 10 46 10C 26.117749 10 10 26.117749 10 46"/>
      </g>
    </g>
    <g id="cr_2_cr-big_1qd76p31a4iadc-stroke" fill="none" stroke-linecap="round" stroke-linejoin="round" stroke-miterlimit="4" stroke="#2c2c2c" stroke-width="2">
      <g>
        <path d="M 10 46C 10 65.882251 26.117749 82 46 82C 65.882251 82 82 65.882251 82 46C 82 26.117749 65.882251 10 46 10C 26.117749 10 10 26.117749 10 46"/>
      </g>
    </g>
  </g>
  <g id="g-root-cr_1_cr-big_1hhk6g71a4ib61-stroke-fill" data-item-order="-35396" transform="translate(338, 110)">
    <g id="cr_1_cr-big_1hhk6g71a4ib61-fill" stroke="none" fill="#4f91fc">
      <g>
        <path d="M 10 46C 10 65.882251 26.117749 82 46 82C 65.882251 82 82 65.882251 82 46C 82 26.117749 65.882251 10 46 10C 26.117749 10 10 26.117749 10 46"/>
      </g>
    </g>
    <g id="cr_1_cr-big_1hhk6g71a4ib61-stroke" fill="none" stroke-linecap="round" stroke-linejoin="round" stroke-miterlimit="4" stroke="#2c2c2c" stroke-width="2">
      <g>
        <path d="M 10 46C 10 65.882251 26.117749 82 46 82C 65.882251 82 82 65.882251 82 46C 82 26.117749 65.882251 10 46 10C 26.117749 10 10 26.117749 10 46"/>
      </g>
    </g>
  </g>
  <g id="g-root-ic_cele_1um5gvb1a4jpc5-stroke-fill" data-item-order="-2304" transform="translate(350, 506)">
    <g id="ic_cele_1um5gvb1a4jpc5-fill" stroke="none" fill="#f4f4f4">
      <g>
        <path d="M 49.740002 41C 49.187584 40.039303 47.961048 39.708199 47.000225 40.260391C 46.039406 40.812592 45.708019 42.039051 46.259998 43L 54.259998 57C 54.812412 57.960697 56.038952 58.291801 56.999771 57.739605C 57.960594 57.187408 58.291977 55.960945 57.739998 55ZM 21 40.260002C 20.538952 39.992912 19.990387 39.92083 19.475994 40.059757C 18.961597 40.198681 18.523903 40.537121 18.26 41L 10.26 55C 9.99291 55.461048 9.920833 56.009613 10.059756 56.524006C 10.198681 57.038403 10.537121 57.476097 11 57.740002C 11.461047 58.007092 12.009613 58.079166 12.524008 57.940243C 13.038403 57.801319 13.476097 57.462879 13.74 57L 21.74 43C 22.00709 42.538952 22.079166 41.990387 21.940243 41.47599C 21.801319 40.961597 21.462879 40.523903 21 40.260002ZM 17.5 19C 16.676075 19.010773 16.010771 19.676075 16 20.5L 16 23.5C 16 24.328426 16.671574 25 17.5 25C 18.328426 25 19 24.328426 19 23.5L 19 20.5C 18.989227 19.676075 18.323925 19.010773 17.5 19ZM 25 17.5C 24.989227 16.676075 24.323925 16.010771 23.5 16L 20.5 16C 19.671574 16 19 16.671574 19 17.5C 19 18.328426 19.671574 19 20.5 19L 23.5 19C 24.323925 18.989227 24.989227 18.323925 25 17.5ZM 17.5 16C 18.323925 15.989228 18.989227 15.323924 19 14.5L 19 11.5C 19 10.671573 18.328426 10 17.5 10C 16.671574 10 16 10.671573 16 11.5L 16 14.5C 16.010771 15.323924 16.676075 15.989228 17.5 16ZM 11.5 19L 14.5 19C 15.328427 19 16 18.328426 16 17.5C 16 16.671574 15.328427 16 14.5 16L 11.5 16C 10.671573 16 10 16.671574 10 17.5C 10 18.328426 10.671573 19 11.5 19ZM 50.5 29C 49.676075 29.010771 49.010769 29.676075 49 30.5L 49 33.5C 49 34.32843 49.671574 35 50.5 35C 51.32843 35 52 34.32843 52 33.5L 52 30.5C 51.989227 29.676075 51.323925 29.010771 50.5 29ZM 53.5 29L 56.5 29C 57.32843 29 58 28.328428 58 27.5C 58 26.671574 57.32843 26 56.5 26L 53.5 26C 52.671574 26 52 26.671574 52 27.5C 52 28.328428 52.671574 29 53.5 29ZM 50.5 26C 51.323925 25.989227 51.989227 25.323925 52 24.5L 52 21.5C 52 20.671574 51.32843 20 50.5 20C 49.671574 20 49 20.671574 49 21.5L 49 24.5C 49.010769 25.323925 49.676075 25.989227 50.5 26ZM 49 27.5C 48.989227 26.676075 48.323925 26.010771 47.5 26L 44.5 26C 43.671574 26 43 26.671574 43 27.5C 43 28.328428 43.671574 29 44.5 29L 47.5 29C 48.323925 28.989227 48.989227 28.323923 49 27.5ZM 38.599998 28.700001C 38.45266 28.601589 38.362968 28.437159 38.360001 28.26C 38.349976 28.090078 38.434608 27.928513 38.580002 27.84C 41.653419 25.94606 43.112221 22.25407 42.163452 18.770863C 41.214684 15.287651 38.085037 12.845478 34.475677 12.771817C 30.866318 12.698157 27.639637 15.01061 26.549547 18.452209C 25.459455 21.89381 26.766411 25.642246 29.76 27.66C 29.908636 27.764387 29.992035 27.938766 29.98 28.119999C 29.958958 28.291586 29.854019 28.441498 29.699999 28.519999C 26.488523 30.157125 24.464809 33.455315 24.459999 37.060001L 24.459999 42.759998C 24.458431 43.020927 24.558914 43.272133 24.74 43.459999C 24.92815 43.655315 25.188828 43.763931 25.459999 43.760002L 28 43.759998C 28.511976 43.766487 28.939804 44.151531 29 44.66L 30.24 57.099998C 30.282244 57.617558 30.720867 58.012318 31.24 58L 36.919998 58C 37.439133 58.012318 37.877754 57.617558 37.919998 57.100002L 39.16 44.66C 39.220196 44.151531 39.648022 43.766487 40.16 43.759998L 42.619999 43.759998C 42.891171 43.763931 43.151848 43.655315 43.34 43.459999C 43.521084 43.272133 43.621567 43.020927 43.619999 42.759998L 43.619999 37.059998C 43.613617 33.561584 41.684994 30.349775 38.599998 28.700001ZM 35.5 35.440002C 35.5 36.268429 34.82843 36.940002 34 36.940002C 33.171574 36.940002 32.5 36.268429 32.5 35.440002L 32.5 32C 32.5 31.171574 33.171574 30.5 34 30.5C 34.82843 30.5 35.5 31.171574 35.5 32ZM 34.299999 25.060001C 32.010307 25.04899 30.159973 23.189716 30.159998 20.9C 30.161379 20.494774 30.215158 20.091431 30.32 19.700001C 30.374254 19.558174 30.481966 19.443283 30.619999 19.379999C 30.760523 19.319967 30.919476 19.319967 31.059999 19.380001C 32.656891 20.351471 34.490826 20.86359 36.360001 20.860001C 36.859558 20.88979 37.360443 20.88979 37.860001 20.860001C 38.011276 20.82674 38.169128 20.871841 38.279999 20.98C 38.384552 21.093555 38.435509 21.246426 38.419998 21.400002C 38.176086 23.489605 36.40379 25.064024 34.299999 25.060001Z"/>
      </g>
    </g>
  </g>
  <g id="g-root-ic_allo_1cxztt31a4l5hi-stroke-fill" data-item-order="-2304" transform="translate(350, 410)">
    <g id="ic_allo_1cxztt31a4l5hi-fill" stroke="none" fill="#f4f4f4">
      <g>
        <path d="M 10.774 11.212C 11.554999 10.431236 12.821 10.431236 13.602 11.212L 19.062 16.672001C 20.108816 15.699772 21.580645 15.331437 22.962002 15.696L 38.57 19.804001L 43.883999 14.488C 45.313385 13.057127 47.303013 12.332658 49.317783 12.509433C 51.33255 12.686207 53.165619 13.746078 54.323997 15.403999C 56.208096 18.236504 55.793686 22.011665 53.34 24.368L 48.237999 29.469999L 52.346001 45.084C 52.709099 46.464119 52.340858 47.934059 51.370003 48.980003L 56.349998 53.959999C 57.108517 54.744217 57.098568 55.991653 56.327641 56.763676C 55.556709 57.535694 54.309292 57.547409 53.523998 56.790001L 45.726002 48.992001L 45.675999 48.966L 19.17 22.458L 19.144001 22.41L 10.774 14.04C 9.993237 13.259001 9.993237 11.993 10.774 11.212ZM 25.01 33.956001L 21.306 38.152L 19.425999 38.18C 18.185905 38.01461 16.937075 38.414734 16.024 39.27L 13.364 41.704002C 12.68731 42.349102 12.372604 43.28661 12.522995 44.209351C 12.673385 45.132092 13.26949 45.92115 14.115999 46.318001L 18.882 49.006001L 22.007999 53.933998C 22.409573 54.75169 23.179502 55.326698 24.077555 55.479607C 24.975605 55.632519 25.892445 55.344715 26.542 54.705997L 28.854 52.501999L 28.858 52.498001C 29.840437 51.569569 30.311625 50.222363 30.122002 48.884003L 30.152 46.973999L 34.222 43.167999L 25.01 33.956001Z"/>
      </g>
    </g>
  </g>
  <g id="g-root-ic_2_hu0fxj1a403k7-stroke-fill" data-item-order="-2304" transform="translate(350, 314)">
    <g id="ic_2_hu0fxj1a403k7-fill" stroke="none" fill="#f4f4f4">
      <g>
        <path d="M 57 12.26L 55.419998 12.26C 55.154793 12.256767 54.900558 12.365724 54.720001 12.559999L 49.139999 18.1C 49.054611 18.199303 48.930943 18.2575 48.799999 18.26L 38.34 18.26C 38.149654 18.268047 37.971275 18.167225 37.879997 18C 36.406876 13.998186 32.558098 11.37082 28.294619 11.45654C 24.031139 11.542261 20.29108 14.322208 18.98 18.380001C 18.941568 18.526871 18.82687 18.641569 18.68 18.68C 18.036945 18.933409 17.451859 19.314396 16.959999 19.799999C 16.572107 20.132854 16.246975 20.532499 16 20.98C 15.905405 21.143917 15.729221 21.2435 15.539999 21.239998L 12.5 21.24C 11.395431 21.24 10.5 22.135429 10.5 23.24C 10.5 24.34457 11.395431 25.24 12.5 25.24L 15.6 25.24C 15.771586 25.26104 15.921497 25.365978 16 25.519999C 16.867214 27.202566 18.607149 28.254261 20.5 28.24L 33.059998 28.24C 33.194309 28.234194 33.324898 28.284977 33.419998 28.379999L 38.98 34.220001C 40.368797 35.515793 42.200607 36.231346 44.100002 36.220001L 47.48 36.220001C 47.831047 36.222046 48.157459 36.039864 48.34 35.739998C 48.507915 35.449165 48.507915 35.090836 48.34 34.799999L 44.939999 29C 44.841515 28.847883 44.841515 28.652117 44.939999 28.5C 45.029938 28.343699 45.199894 28.250996 45.379997 28.259998L 48 28.26C 53.52285 28.26 58 23.782848 58 18.26L 58 13.26C 58 12.707715 57.552284 12.26 57 12.26ZM 33.16 18C 33.080223 18.182795 32.899445 18.300694 32.700001 18.299999L 24.279999 18.299999C 24.08622 18.297989 23.912659 18.179651 23.84 18C 23.73798 17.841679 23.73798 17.638321 23.84 17.48C 24.955904 16.086294 26.644598 15.275092 28.43 15.275092C 30.215403 15.275092 31.904097 16.086294 33.02 17.48C 33.173851 17.605051 33.23027 17.81461 33.16 18ZM 12 19.24C 13.104569 19.24 14 18.34457 14 17.24L 14 13.24C 14 12.13543 13.104569 11.24 12 11.24C 10.895431 11.24 10 12.13543 10 13.24L 10 17.24C 10 18.34457 10.895431 19.24 12 19.24ZM 12 35.200001C 13.104569 35.200001 14 34.304569 14 33.200001L 14 29.200001C 14 28.09543 13.104569 27.200001 12 27.200001C 10.895431 27.200001 10 28.09543 10 29.200001L 10 33.200001C 10 34.304569 10.895431 35.200001 12 35.200001ZM 30.200001 45.259998C 28.660439 42.763702 25.932852 41.248375 23 41.260002C 19.201107 41.292862 15.87838 43.82563 14.84 47.480003C 13.763771 47.773827 12.784127 48.346432 12 49.139999C 10.736008 50.34618 10.014481 52.012905 10 53.759998C 10 55.416855 11.343145 56.760002 13 56.760002L 36 56.759998C 37.656853 56.760002 39 55.416855 39 53.760002C 38.995834 51.454468 38.057484 49.249046 36.3992 47.647297C 34.740921 46.045547 32.504292 45.184227 30.200001 45.260002ZM 34.620003 52.52C 34.527996 52.664211 34.370953 52.753948 34.199997 52.759998L 15.059999 52.759998C 14.87672 52.758675 14.711716 52.64867 14.639999 52.48C 14.566792 52.315125 14.607042 52.121918 14.74 52C 15.205246 51.517467 15.849789 51.249512 16.52 51.260002L 16.799999 51.259998C 17.743893 51.138744 18.471624 50.36919 18.540001 49.419998C 18.669136 47.312382 20.258575 45.584152 22.348042 45.279438C 24.437511 44.974724 26.454323 46.17704 27.18 48.16C 27.512817 49.017559 28.387661 49.53751 29.299999 49.419998L 29.5 49.419998C 29.827208 49.339451 30.163025 49.299152 30.5 49.299999C 32.304893 49.293438 33.943802 50.352066 34.68 52C 34.770184 52.168926 34.746284 52.376053 34.620003 52.52Z"/>
      </g>
    </g>
  </g>
  <g id="g-root-ic_ufo_m9ty1z1a42ubn-stroke-fill" data-item-order="-2304" transform="translate(350, 218)">
    <g id="ic_ufo_m9ty1z1a42ubn-fill" stroke="none" fill="#f4f4f4">
      <g>
        <path d="M 50.779999 39.48C 50.49268 38.408726 49.391396 37.77314 48.32008 38.060295C 47.24876 38.34745 46.613007 39.448639 46.899998 40.519997L 51.139999 56.52C 51.30584 57.231823 51.846767 57.796497 52.550816 57.992748C 53.25486 58.188999 54.009895 57.985573 54.520046 57.462177C 55.030201 56.938786 55.214222 56.178791 55 55.48ZM 19.82 38C 18.754391 37.720551 17.663445 38.355446 17.380001 39.419998L 13.14 55.419998C 12.925778 56.11879 13.109798 56.878784 13.619952 57.40218C 14.130106 57.925571 14.885139 58.129002 15.589186 57.932751C 16.293234 57.7365 16.83416 57.171825 17 56.459999L 21.24 40.459999C 21.380281 39.945396 21.309196 39.39608 21.042547 38.934139C 20.775898 38.472198 20.335775 38.135902 19.82 38ZM 38 49.860001C 39.203453 49.748383 40.123898 48.738621 40.123898 47.529999C 40.123898 46.321381 39.203453 45.311615 38 45.200001L 31.08 45.200001C 29.876545 45.311615 28.9561 46.321381 28.9561 47.529999C 28.9561 48.738621 29.876545 49.748383 31.08 49.860001L 32.239998 49.860001L 32.239998 50.18L 29.200001 54.299999C 28.437847 55.332775 28.657228 56.787849 29.690001 57.550003C 30.722773 58.312153 32.177849 58.092773 32.940002 57.060001L 34.599998 54.82L 36.200001 57.080002C 36.978722 58.129345 38.460663 58.348724 39.510002 57.570004C 40.559341 56.791279 40.778725 55.309341 40 54.260002L 37 50.16L 37 49.860001ZM 38 40.239998C 38.008102 38.822594 37.160507 37.540237 35.85331 36.992199C 34.546112 36.44416 33.03743 36.738647 32.032288 37.738045C 31.027142 38.73745 30.724012 40.244415 31.264553 41.554733C 31.805094 42.865051 33.082569 43.719978 34.5 43.720001C 35.426414 43.725323 36.316711 43.361034 36.973671 42.707829C 37.63063 42.054626 38.000015 41.166428 38 40.239998ZM 56.959999 29C 57.256584 29.003077 57.540375 28.879374 57.739998 28.659998C 57.943413 28.447105 58.032631 28.149708 57.98 27.860001C 57.289928 23.844007 53.774273 20.931278 49.700001 21L 18.299999 21C 14.218212 20.921293 10.691198 23.836391 10 27.860001C 9.947369 28.149708 10.036588 28.447105 10.24 28.66C 10.439621 28.879374 10.723413 29.003077 11.02 28.999998L 13.28 29C 13.484316 29.002653 13.666457 29.12936 13.74 29.32C 13.899547 29.722376 14.079787 30.116236 14.280001 30.500002C 16.065369 33.888172 19.580214 36.009026 23.41 36.009026C 27.239786 36.009026 30.754631 33.888172 32.540001 30.5C 32.740211 30.116236 32.920456 29.722376 33.080002 29.320002C 33.148697 29.125612 33.333855 28.996807 33.540001 28.999998L 34.459999 29C 34.666145 28.996807 34.851299 29.125612 34.919998 29.32C 35.079548 29.722376 35.259789 30.116236 35.459999 30.500002C 37.245369 33.888172 40.760216 36.009026 44.59 36.009026C 48.419785 36.009026 51.934631 33.888172 53.720001 30.5C 53.920216 30.116236 54.100456 29.722376 54.260002 29.320002C 54.328697 29.125612 54.513851 28.996807 54.719997 28.999998ZM 23.4 32C 21.569786 31.983295 19.832561 31.191006 18.619999 29.82C 18.522778 29.660299 18.522778 29.4597 18.619999 29.299999C 18.686577 29.141253 18.830135 29.027918 19 29L 27.799999 29C 27.999443 28.999306 28.180223 29.117207 28.26 29.299999C 28.367369 29.456707 28.367369 29.663294 28.26 29.82C 27.033712 31.218311 25.259802 32.014015 23.400002 32ZM 44.599998 32C 42.768101 31.990932 41.027901 31.197287 39.82 29.82C 39.712631 29.663294 39.712631 29.456707 39.82 29.299999C 39.899776 29.117207 40.080559 28.999306 40.279999 29L 49.080002 29C 49.272152 29.007078 49.443218 29.123714 49.52 29.299999C 49.627369 29.456707 49.627369 29.663294 49.52 29.82C 48.280025 31.234344 46.480667 32.031624 44.600002 32ZM 34 10C 28.477455 9.948547 23.296272 12.666791 20.200001 17.24C 20.121464 17.397415 20.121464 17.582584 20.200001 17.74C 20.291019 17.897736 20.457924 17.996361 20.639999 18L 47.5 18C 47.703251 18.01899 47.898815 17.917297 47.999996 17.74C 48.078533 17.582584 48.078533 17.397415 48 17.24C 44.864662 12.606876 39.593025 9.880686 34 10Z"/>
      </g>
    </g>
  </g>
  <g id="g-root-ic_road_1d3m6qv1a44aoc-stroke-fill" data-item-order="-2304" transform="translate(350, 122)">
    <g id="ic_road_1d3m6qv1a44aoc-fill" stroke="none" fill="#f4f4f4">
      <g>
        <path d="M 51.18 37.18C 51.046188 36.718262 50.597198 36.421757 50.119999 36.48L 49.5 36.48C 47.415596 36.48542 45.422955 35.623154 44 34.099998C 43.908813 33.989662 43.77314 33.925774 43.629997 33.925774C 43.486858 33.925774 43.351185 33.989662 43.259998 34.099998C 41.58638 36.105179 39.304237 37.509575 36.760002 38.099998C 36.313335 38.202892 35.997658 38.601646 36 39.059998L 36 43C 36 44.104568 35.104568 45 34 45C 32.895432 45 32 44.104568 32 43L 32 39.120003C 32.002342 38.661644 31.686665 38.262894 31.24 38.16C 28.695763 37.569572 26.413622 36.16518 24.740002 34.16C 24.648422 34.05761 24.517365 33.999359 24.379999 34C 24.230665 33.99786 24.086662 34.055462 23.98 34.16C 22.571068 35.693573 20.582525 36.564468 18.5 36.559998L 17.880001 36.559998C 17.402802 36.501755 16.953814 36.79826 16.82 37.260002L 11.04 56.720001C 10.951868 57.022167 11.011146 57.348194 11.2 57.599998C 11.38447 57.856998 11.683715 58.006622 12 57.999996L 31 58C 31.552284 58 32 57.552284 32 57L 32 51C 32 49.895432 32.895432 49 34 49C 35.104568 49 36 49.895432 36 51L 36 57C 36 57.552284 36.447716 58 37 58L 56 58C 56.31628 58.006622 56.615528 57.856998 56.799995 57.599998C 56.988853 57.348194 57.048134 57.022167 56.959999 56.720001ZM 56 24L 43.18 24C 42.769573 24.000364 42.402393 23.744936 42.260002 23.360001C 41.303581 20.808788 39.23362 18.834595 36.639999 18C 36.251225 17.862602 35.993614 17.492289 36 17.08L 36 12.22C 36 11.115431 35.104568 10.22 34 10.22C 32.895432 10.22 32 11.115431 32 12.22L 32 17.08C 32.000763 17.502985 31.724594 17.876629 31.319998 18C 28.745859 18.840729 26.69301 20.805283 25.74 23.34C 25.604303 23.732822 25.23559 23.997334 24.82 24L 12 24C 10.895431 24 10 24.895432 10 26C 10 27.10457 10.895431 28 12 28L 14 28C 14.097191 27.966475 14.20281 27.966475 14.3 28C 14.396099 28.102543 14.4466 28.239618 14.44 28.379999C 14.42923 28.52647 14.42923 28.673532 14.440001 28.82C 14.596359 31.140497 16.524242 32.942848 18.85 32.942848C 21.175758 32.942848 23.103642 31.140497 23.26 28.82C 23.27042 28.673517 23.27042 28.52648 23.259998 28.379999C 23.230686 28.25032 23.252155 28.114338 23.32 27.999998C 23.436468 27.958822 23.563534 27.958822 23.68 28L 24.52 28C 24.964443 28 25.355556 28.293333 25.48 28.719999C 26.483982 32.604294 29.988054 35.317822 34 35.317822C 38.011948 35.317822 41.516022 32.604294 42.52 28.720001C 42.644444 28.293333 43.035557 28 43.48 28L 44.32 28C 44.455868 28.006096 44.584431 28.063236 44.68 28.16C 44.768871 28.265705 44.812046 28.402422 44.799999 28.539999C 44.789577 28.68648 44.789577 28.833517 44.799999 28.98C 44.95636 31.300497 46.884243 33.102848 49.209999 33.102848C 51.535759 33.102848 53.463642 31.300497 53.620003 28.98C 53.630772 28.833532 53.630772 28.68647 53.620003 28.540001C 53.542442 28.359348 53.573395 28.150404 53.699997 27.999998C 53.797192 27.966475 53.902809 27.966475 54 28L 56 28C 57.104568 28 58 27.10457 58 26C 58 24.895432 57.104568 24 56 24ZM 18.82 30.34C 18.010366 30.340075 17.350941 29.689562 17.34 28.880001C 17.350769 28.067122 18.007122 27.410769 18.82 27.4C 19.62956 27.410942 20.280075 28.070366 20.280001 28.880001C 20.280001 29.686337 19.626335 30.34 18.82 30.34ZM 38 24.459999L 30.219999 24.459999C 30.067938 24.46106 29.928427 24.375801 29.860001 24.24C 29.781401 24.103863 29.781401 23.936136 29.860001 23.799999C 30.784672 22.365051 32.389503 21.514761 34.096088 21.555588C 35.802673 21.596416 37.365005 22.522474 38.220001 24C 38.280735 24.105196 38.280735 24.234802 38.220001 24.34C 38.166031 24.408245 38.086597 24.451572 38 24.459999ZM 49.259998 30.34C 48.453667 30.34 47.800003 29.686337 47.800003 28.880001C 47.799927 28.070366 48.450439 27.410942 49.260002 27.400002C 50.07288 27.410769 50.729233 28.067122 50.740002 28.880001C 50.735142 29.2833 50.565899 29.667147 50.27142 29.942749C 49.97694 30.218351 49.582737 30.361832 49.18 30.34Z"/>
      </g>
    </g>
  </g>
  <g id="g-root-tx_the1954b_1d1qobr1a4ibya-stroke-fill" data-item-order="0" transform="translate(128, 50)">
    <g id="tx_the1954b_1d1qobr1a4ibya-fill" stroke="none" fill="#f4f4f4">
      <g>
        <text style="font: 20px Roboto, sans-serif; white-space: pre;" font-size="20px" font-family="Roboto, sans-serif">
          <tspan x="16.73" y="34" dominant-baseline="ideographic">The 1954 BOAC Stratocruiser UFO Encounter Timeline</tspan>
        </text>
      </g>
    </g>
  </g>
  <g id="g-root-tx_crewinte_zqwn1j1a4iadf-stroke-fill" data-item-order="0" transform="translate(62, 554)">
    <g id="tx_crewinte_zqwn1j1a4iadf-fill" stroke="none" fill="#dffff0">
      <g>
        <text style="font: 20px Roboto, sans-serif; white-space: pre;" font-size="20px" font-family="Roboto, sans-serif">
          <tspan x="12.16" y="34" dominant-baseline="ideographic">Crew interviewed by U.S. Air </tspan>
          <tspan x="210.08" y="58" dominant-baseline="ideographic">Force</tspan>
        </text>
      </g>
    </g>
  </g>
  <g id="g-root-tx_objectsd_mfg4o71a4ibyc-stroke-fill" data-item-order="0" transform="translate(434, 458)">
    <g id="tx_objectsd_mfg4o71a4ibyc-fill" stroke="none" fill="#ffe8f6">
      <g>
        <text style="font: 20px Roboto, sans-serif; white-space: pre;" font-size="20px" font-family="Roboto, sans-serif">
          <tspan x="12" y="34" dominant-baseline="ideographic">Objects disappear as fighter jet </tspan>
          <tspan x="12" y="58" dominant-baseline="ideographic">approaches</tspan>
        </text>
      </g>
    </g>
  </g>
  <g id="g-root-tx_goosebay_94m3dz1a4iadh-stroke-fill" data-item-order="0" transform="translate(26, 362)">
    <g id="tx_goosebay_94m3dz1a4iadh-fill" stroke="none" fill="#ffe9e8">
      <g>
        <text style="font: 20px Roboto, sans-serif; white-space: pre;" font-size="20px" font-family="Roboto, sans-serif">
          <tspan x="20.47" y="34" dominant-baseline="ideographic">Goose Bay dispatches a fighter </tspan>
          <tspan x="274.06" y="58" dominant-baseline="ideographic">jet</tspan>
        </text>
      </g>
    </g>
  </g>
  <g id="g-root-tx_captainh_1uu9mzr1a4ibra-stroke-fill" data-item-order="0" transform="translate(434, 266)">
    <g id="tx_captainh_1uu9mzr1a4ibra-fill" stroke="none" fill="#fff0e2">
      <g>
        <text style="font: 20px Roboto, sans-serif; white-space: pre;" font-size="20px" font-family="Roboto, sans-serif">
          <tspan x="12" y="34" dominant-baseline="ideographic">Captain Howard observes </tspan>
          <tspan x="12" y="58" dominant-baseline="ideographic">unidentified objects</tspan>
        </text>
      </g>
    </g>
  </g>
  <g id="g-root-tx_boacflig_1hjflpj1a4ia6f-stroke-fill" data-item-order="0" transform="translate(26, 170)">
    <g id="tx_boacflig_1hjflpj1a4ia6f-fill" stroke="none" fill="#ebf2ff">
      <g>
        <text style="font: 20px Roboto, sans-serif; white-space: pre;" font-size="20px" font-family="Roboto, sans-serif">
          <tspan x="20.2" y="34" dominant-baseline="ideographic">BOAC Flight Centaurus departs </tspan>
          <tspan x="114.23" y="58" dominant-baseline="ideographic">from Idlewild Airport</tspan>
        </text>
      </g>
    </g>
  </g>
  <g id="g-root-tx_june2919_1d3m3l31a4iayo-stroke-fill" data-item-order="0" transform="translate(74, 518)">
    <g id="tx_june2919_1d3m3l31a4iayo-fill" stroke="none" fill="#43dd93">
      <g>
        <text style="font: bold 20px Roboto, sans-serif; white-space: pre;" font-weight="bold" font-size="20px" font-family="Roboto, sans-serif">
          <tspan x="15.89" y="34" dominant-baseline="ideographic">June 29, 1954, 0145 GMT</tspan>
        </text>
      </g>
    </g>
  </g>
  <g id="g-root-tx_june2919_zs5l7r1a4icjl-stroke-fill" data-item-order="0" transform="translate(434, 422)">
    <g id="tx_june2919_zs5l7r1a4icjl-fill" stroke="none" fill="#f366bb">
      <g>
        <text style="font: bold 20px Roboto, sans-serif; white-space: pre;" font-weight="bold" font-size="20px" font-family="Roboto, sans-serif">
          <tspan x="12" y="34" dominant-baseline="ideographic">June 29, 1954, 0123 GMT</tspan>
        </text>
      </g>
    </g>
  </g>
  <g id="g-root-tx_june2919_qn5go71a4joqy-stroke-fill" data-item-order="0" transform="translate(74, 326)">
    <g id="tx_june2919_qn5go71a4joqy-fill" stroke="none" fill="#fb6762">
      <g>
        <text style="font: bold 20px Roboto, sans-serif; white-space: pre;" font-weight="bold" font-size="20px" font-family="Roboto, sans-serif">
          <tspan x="15.89" y="34" dominant-baseline="ideographic">June 29, 1954, 0120 GMT</tspan>
        </text>
      </g>
    </g>
  </g>
  <g id="g-root-tx_june2919_dboyav1a4jqbv-stroke-fill" data-item-order="0" transform="translate(434, 230)">
    <g id="tx_june2919_dboyav1a4jqbv-fill" stroke="none" fill="#f79438">
      <g>
        <text style="font: bold 20px Roboto, sans-serif; white-space: pre;" font-weight="bold" font-size="20px" font-family="Roboto, sans-serif">
          <tspan x="12" y="34" dominant-baseline="ideographic">June 29, 1954, 0105 GMT</tspan>
        </text>
      </g>
    </g>
  </g>
  <g id="g-root-tx_june2919_ux0n1a4jor0-stroke-fill" data-item-order="0" transform="translate(50, 134)">
    <g id="tx_june2919_ux0n1a4jor0-fill" stroke="none" fill="#4f91fc">
      <g>
        <text style="font: bold 20px Roboto, sans-serif; white-space: pre;" font-weight="bold" font-size="20px" font-family="Roboto, sans-serif">
          <tspan x="17.64" y="34" dominant-baseline="ideographic">June 29, 1954, 8:00 PM EST</tspan>
        </text>
      </g>
    </g>
  </g>
</svg>
