<svg width="1008" height="648" viewBox="0 0 1008 648" style="fill:none;stroke:none;fill-rule:evenodd;clip-rule:evenodd;stroke-linecap:round;stroke-linejoin:round;stroke-miterlimit:1.5;" version="1.1" xmlns="http://www.w3.org/2000/svg" xmlns:xlink="http://www.w3.org/1999/xlink"><style class="text-font-style fontImports" data-font-family="Roboto">@import url('https://fonts.googleapis.com/css2?family=Roboto:wght@400;700&amp;display=block');</style><g id="g-root-tf_1ly1dwn19u7i10-stroke-fill" data-item-order="-614016" transform="translate(12, 12)"></g><g id="g-root-cp_0_g-0_9ep319ubojm-stroke-fill" data-item-order="-494171" transform="translate(50.131011962890625, 296.5)"><g id="cp_0_g-0_9ep319ubojm-stroke" fill="none" stroke-linecap="round" stroke-linejoin="round" stroke-miterlimit="4" stroke="#d3d3d3" stroke-width="2"><g><path d="M 826 51L 898 51M 646 51L 802 51M 814 10L 814 39.5M 106 51L 262 51M 286 51L 442 51M 274 63.5L 274 93M 454 10L 454 39.5M 466 51L 622 51M 634 63.5L 634 93M 10 51L 82 51M 94 10L 94 39.5"></path></g></g><g id="cp_0_g-0_9ep319ubojm-stroke-overlay" fill="none" stroke-linecap="round" stroke-linejoin="round" stroke-miterlimit="4" stroke="#1010101a" stroke-width="2" stroke-dasharray="4,6"><animate attributeName="stroke-dashoffset" values="30;0" dur="1s" repeatCount="indefinite" begin="0"></animate><g><path d="M 826 51L 898 51M 646 51L 802 51M 814 10L 814 39.5M 106 51L 262 51M 286 51L 442 51M 274 63.5L 274 93M 454 10L 454 39.5M 466 51L 622 51M 634 63.5L 634 93M 10 51L 82 51M 94 10L 94 39.5"></path></g></g></g><g id="g-root-cp_1_g-1_1q5qgfb19ubp58-stroke-fill" data-item-order="-494148" transform="translate(89.13101196289062, 173)"><g id="cp_1_g-1_1q5qgfb19ubp58-fill" stroke="none" fill="none"><g><path d="M 100 55C 100 66.244 94.5 77.5875 89 86L 55.816 132.848C 55.4175 133.411 54.5825 133.411 54.184 132.848L 21 86C 14.5 77 10 66.7284 10 55C 10 30.1472 30.1472 10 55 10C 79.8528 10 100 30.1472 100 55ZM 55 91C 74.8822 91 91 74.8822 91 55C 91 35.1177 74.8822 19 55 19C 35.1177 19 19 35.1177 19 55C 19 74.8822 35.1177 91 55 91Z"></path></g></g><g id="cp_1_g-1_1q5qgfb19ubp58-stroke" fill="none" stroke-linecap="round" stroke-linejoin="round" stroke-miterlimit="4" stroke="#4f91fc" stroke-width="2"><g><path d="M 100 55C 100 66.244 94.5 77.5875 89 86L 55.816 132.848C 55.4175 133.4106 54.5825 133.4106 54.184 132.848L 21 86C 14.5 77 10 66.7284 10 55C 10 30.1472 30.1472 10 55 10C 79.8528 10 100 30.1472 100 55ZM 55 91C 74.8822 91 91 74.8822 91 55C 91 35.1177 74.8822 19 55 19C 35.1177 19 19 35.1177 19 55C 19 74.8822 35.1177 91 55 91Z"></path></g></g><g id="cp_1_g-1_1q5qgfb19ubp58-stroke-overlay" fill="none" stroke-linecap="round" stroke-linejoin="round" stroke-miterlimit="4" stroke="#0060fb7c" stroke-width="2" stroke-dasharray="4,6"><animate attributeName="stroke-dashoffset" values="30;0" dur="1s" repeatCount="indefinite" begin="0"></animate><g><path d="M 100 55C 100 66.244 94.5 77.5875 89 86L 55.816 132.848C 55.4175 133.4106 54.5825 133.4106 54.184 132.848L 21 86C 14.5 77 10 66.7284 10 55C 10 30.1472 30.1472 10 55 10C 79.8528 10 100 30.1472 100 55ZM 55 91C 74.8822 91 91 74.8822 91 55C 91 35.1177 74.8822 19 55 19C 35.1177 19 19 35.1177 19 55C 19 74.8822 35.1177 91 55 91Z"></path></g></g><g id="cp_1_g-1_1q5qgfb19ubp58-fill" stroke="none" fill="none"><g><path d="M 55 187C 61.6274 187 67 181.6274 67 175C 67 168.3726 61.6274 163 55 163C 48.3726 163 43 168.3726 43 175C 43 181.6274 48.3726 187 55 187ZM 55 181C 58.3137 181 61 178.3137 61 175C 61 171.6863 58.3137 169 55 169C 51.6863 169 49 171.6863 49 175C 49 178.3137 51.6863 181 55 181Z"></path></g></g><g id="cp_1_g-1_1q5qgfb19ubp58-stroke" fill="none" stroke-linecap="round" stroke-linejoin="round" stroke-miterlimit="4" stroke="#4f91fc" stroke-width="2"><g><path d="M 55 187C 61.6274 187 67 181.6274 67 175C 67 168.3726 61.6274 163 55 163C 48.3726 163 43 168.3726 43 175C 43 181.6274 48.3726 187 55 187ZM 55 181C 58.3137 181 61 178.3137 61 175C 61 171.6863 58.3137 169 55 169C 51.6863 169 49 171.6863 49 175C 49 178.3137 51.6863 181 55 181Z"></path></g></g><g id="cp_1_g-1_1q5qgfb19ubp58-stroke-overlay" fill="none" stroke-linecap="round" stroke-linejoin="round" stroke-miterlimit="4" stroke="#0060fb7c" stroke-width="2" stroke-dasharray="4,6"><animate attributeName="stroke-dashoffset" values="30;0" dur="1s" repeatCount="indefinite" begin="0"></animate><g><path d="M 55 187C 61.6274 187 67 181.6274 67 175C 67 168.3726 61.6274 163 55 163C 48.3726 163 43 168.3726 43 175C 43 181.6274 48.3726 187 55 187ZM 55 181C 58.3137 181 61 178.3137 61 175C 61 171.6863 58.3137 169 55 169C 51.6863 169 49 171.6863 49 175C 49 178.3137 51.6863 181 55 181Z"></path></g></g></g><g id="g-root-cp_2_g-2_1lpwyav19ubpxj-stroke-fill" data-item-order="-494144" transform="translate(269.1309814453125, 326)"><g id="cp_2_g-2_1lpwyav19ubpxj-fill" stroke="none" fill="none"><g><path d="M 100 142.000369C 100 130.756469 94.5 119.412869 89 111.000369L 55.816 64.152469C 55.4175 63.589769 54.5825 63.589769 54.184 64.152469L 21 111.000369C 14.5 120.000369 10 130.271969 10 142.000369C 10 166.853469 30.1472 187.000469 55 187.000469C 79.8528 187.000469 100 166.853469 100 142.000369ZM 55 106.000369C 74.8822 106.000369 91 122.118169 91 142.000369C 91 161.882669 74.8822 178.000469 55 178.000469C 35.1177 178.000469 19 161.882669 19 142.000369C 19 122.118169 35.1177 106.000369 55 106.000369Z"></path></g></g><g id="cp_2_g-2_1lpwyav19ubpxj-stroke" fill="none" stroke-linecap="round" stroke-linejoin="round" stroke-miterlimit="4" stroke="#f79438" stroke-width="2"><g><path d="M 100 142.000369C 100 130.756469 94.5 119.412869 89 111.000369L 55.816 64.152469C 55.4175 63.589769 54.5825 63.589769 54.184 64.152469L 21 111.000369C 14.5 120.000369 10 130.271969 10 142.000369C 10 166.853269 30.1472 187.000369 55 187.000369C 79.8528 187.000369 100 166.853269 100 142.000369ZM 55 106.000369C 74.8822 106.000369 91 122.118169 91 142.000369C 91 161.882669 74.8822 178.000369 55 178.000369C 35.1177 178.000369 19 161.882669 19 142.000369C 19 122.118169 35.1177 106.000369 55 106.000369Z"></path></g></g><g id="cp_2_g-2_1lpwyav19ubpxj-stroke-overlay" fill="none" stroke-linecap="round" stroke-linejoin="round" stroke-miterlimit="4" stroke="#f57600ab" stroke-width="2" stroke-dasharray="4,6"><animate attributeName="stroke-dashoffset" values="30;0" dur="1s" repeatCount="indefinite" begin="0"></animate><g><path d="M 100 142.000369C 100 130.756469 94.5 119.412869 89 111.000369L 55.816 64.152469C 55.4175 63.589769 54.5825 63.589769 54.184 64.152469L 21 111.000369C 14.5 120.000369 10 130.271969 10 142.000369C 10 166.853269 30.1472 187.000369 55 187.000369C 79.8528 187.000369 100 166.853269 100 142.000369ZM 55 106.000369C 74.8822 106.000369 91 122.118169 91 142.000369C 91 161.882669 74.8822 178.000369 55 178.000369C 35.1177 178.000369 19 161.882669 19 142.000369C 19 122.118169 35.1177 106.000369 55 106.000369Z"></path></g></g><g id="cp_2_g-2_1lpwyav19ubpxj-fill" stroke="none" fill="none"><g><path d="M 55 34C 61.6274 34 67 28.6274 67 22C 67 15.3726 61.6274 10 55 10C 48.3726 10 43 15.3726 43 22C 43 28.6274 48.3726 34 55 34ZM 55 28C 58.3137 28 61 25.3137 61 22C 61 18.6863 58.3137 16 55 16C 51.6863 16 49 18.6863 49 22C 49 25.3137 51.6863 28 55 28Z"></path></g></g><g id="cp_2_g-2_1lpwyav19ubpxj-stroke" fill="none" stroke-linecap="round" stroke-linejoin="round" stroke-miterlimit="4" stroke="#f79438" stroke-width="2"><g><path d="M 55 34C 61.6274 34 67 28.6274 67 22C 67 15.3726 61.6274 10 55 10C 48.3726 10 43 15.3726 43 22C 43 28.6274 48.3726 34 55 34ZM 55 28C 58.3137 28 61 25.3137 61 22C 61 18.6863 58.3137 16 55 16C 51.6863 16 49 18.6863 49 22C 49 25.3137 51.6863 28 55 28Z"></path></g></g><g id="cp_2_g-2_1lpwyav19ubpxj-stroke-overlay" fill="none" stroke-linecap="round" stroke-linejoin="round" stroke-miterlimit="4" stroke="#f57600ab" stroke-width="2" stroke-dasharray="4,6"><animate attributeName="stroke-dashoffset" values="30;0" dur="1s" repeatCount="indefinite" begin="0"></animate><g><path d="M 55 34C 61.6274 34 67 28.6274 67 22C 67 15.3726 61.6274 10 55 10C 48.3726 10 43 15.3726 43 22C 43 28.6274 48.3726 34 55 34ZM 55 28C 58.3137 28 61 25.3137 61 22C 61 18.6863 58.3137 16 55 16C 51.6863 16 49 18.6863 49 22C 49 25.3137 51.6863 28 55 28Z"></path></g></g></g><g id="g-root-cp_3_g-3_1ha3g6f19ubqpu-stroke-fill" data-item-order="-494138" transform="translate(449.1310119628906, 173)"><g id="cp_3_g-3_1ha3g6f19ubqpu-fill" stroke="none" fill="none"><g><path d="M 100 55C 100 66.244 94.5 77.5875 89 86L 55.816 132.848C 55.4175 133.411 54.5825 133.411 54.184 132.848L 21 86C 14.5 77 10 66.7284 10 55C 10 30.1472 30.1472 10 55 10C 79.8528 10 100 30.1472 100 55ZM 55 91C 74.8822 91 91 74.8822 91 55C 91 35.1177 74.8822 19 55 19C 35.1177 19 19 35.1177 19 55C 19 74.8822 35.1177 91 55 91Z"></path></g></g><g id="cp_3_g-3_1ha3g6f19ubqpu-stroke" fill="none" stroke-linecap="round" stroke-linejoin="round" stroke-miterlimit="4" stroke="#fb6762" stroke-width="2"><g><path d="M 100 55C 100 66.244 94.5 77.5875 89 86L 55.816 132.848C 55.4175 133.4106 54.5825 133.4106 54.184 132.848L 21 86C 14.5 77 10 66.7284 10 55C 10 30.1472 30.1472 10 55 10C 79.8528 10 100 30.1472 100 55ZM 55 91C 74.8822 91 91 74.8822 91 55C 91 35.1177 74.8822 19 55 19C 35.1177 19 19 35.1177 19 55C 19 74.8822 35.1177 91 55 91Z"></path></g></g><g id="cp_3_g-3_1ha3g6f19ubqpu-stroke-overlay" fill="none" stroke-linecap="round" stroke-linejoin="round" stroke-miterlimit="4" stroke="#f9080063" stroke-width="2" stroke-dasharray="4,6"><animate attributeName="stroke-dashoffset" values="30;0" dur="1s" repeatCount="indefinite" begin="0"></animate><g><path d="M 100 55C 100 66.244 94.5 77.5875 89 86L 55.816 132.848C 55.4175 133.4106 54.5825 133.4106 54.184 132.848L 21 86C 14.5 77 10 66.7284 10 55C 10 30.1472 30.1472 10 55 10C 79.8528 10 100 30.1472 100 55ZM 55 91C 74.8822 91 91 74.8822 91 55C 91 35.1177 74.8822 19 55 19C 35.1177 19 19 35.1177 19 55C 19 74.8822 35.1177 91 55 91Z"></path></g></g><g id="cp_3_g-3_1ha3g6f19ubqpu-fill" stroke="none" fill="none"><g><path d="M 55 187C 61.6274 187 67 181.6274 67 175C 67 168.3726 61.6274 163 55 163C 48.3726 163 43 168.3726 43 175C 43 181.6274 48.3726 187 55 187ZM 55 181C 58.3137 181 61 178.3137 61 175C 61 171.6863 58.3137 169 55 169C 51.6863 169 49 171.6863 49 175C 49 178.3137 51.6863 181 55 181Z"></path></g></g><g id="cp_3_g-3_1ha3g6f19ubqpu-stroke" fill="none" stroke-linecap="round" stroke-linejoin="round" stroke-miterlimit="4" stroke="#fb6762" stroke-width="2"><g><path d="M 55 187C 61.6274 187 67 181.6274 67 175C 67 168.3726 61.6274 163 55 163C 48.3726 163 43 168.3726 43 175C 43 181.6274 48.3726 187 55 187ZM 55 181C 58.3137 181 61 178.3137 61 175C 61 171.6863 58.3137 169 55 169C 51.6863 169 49 171.6863 49 175C 49 178.3137 51.6863 181 55 181Z"></path></g></g><g id="cp_3_g-3_1ha3g6f19ubqpu-stroke-overlay" fill="none" stroke-linecap="round" stroke-linejoin="round" stroke-miterlimit="4" stroke="#f9080063" stroke-width="2" stroke-dasharray="4,6"><animate attributeName="stroke-dashoffset" values="30;0" dur="1s" repeatCount="indefinite" begin="0"></animate><g><path d="M 55 187C 61.6274 187 67 181.6274 67 175C 67 168.3726 61.6274 163 55 163C 48.3726 163 43 168.3726 43 175C 43 181.6274 48.3726 187 55 187ZM 55 181C 58.3137 181 61 178.3137 61 175C 61 171.6863 58.3137 169 55 169C 51.6863 169 49 171.6863 49 175C 49 178.3137 51.6863 181 55 181Z"></path></g></g></g><g id="g-root-cp_4_g-4_18f2x0n19uboct-stroke-fill" data-item-order="-494132" transform="translate(629.1309814453125, 326)"><g id="cp_4_g-4_18f2x0n19uboct-fill" stroke="none" fill="none"><g><path d="M 100 142.000369C 100 130.756469 94.5 119.412869 89 111.000369L 55.816 64.152469C 55.4175 63.589769 54.5825 63.589769 54.184 64.152469L 21 111.000369C 14.5 120.000369 10 130.271969 10 142.000369C 10 166.853469 30.1472 187.000469 55 187.000469C 79.8528 187.000469 100 166.853469 100 142.000369ZM 55 106.000369C 74.8822 106.000369 91 122.118169 91 142.000369C 91 161.882669 74.8822 178.000469 55 178.000469C 35.1177 178.000469 19 161.882669 19 142.000369C 19 122.118169 35.1177 106.000369 55 106.000369Z"></path></g></g><g id="cp_4_g-4_18f2x0n19uboct-stroke" fill="none" stroke-linecap="round" stroke-linejoin="round" stroke-miterlimit="4" stroke="#f366bb" stroke-width="2"><g><path d="M 100 142.000369C 100 130.756469 94.5 119.412869 89 111.000369L 55.816 64.152469C 55.4175 63.589769 54.5825 63.589769 54.184 64.152469L 21 111.000369C 14.5 120.000369 10 130.271969 10 142.000369C 10 166.853269 30.1472 187.000369 55 187.000369C 79.8528 187.000369 100 166.853269 100 142.000369ZM 55 106.000369C 74.8822 106.000369 91 122.118169 91 142.000369C 91 161.882669 74.8822 178.000369 55 178.000369C 35.1177 178.000369 19 161.882669 19 142.000369C 19 122.118169 35.1177 106.000369 55 106.000369Z"></path></g></g><g id="cp_4_g-4_18f2x0n19uboct-stroke-overlay" fill="none" stroke-linecap="round" stroke-linejoin="round" stroke-miterlimit="4" stroke="#eb008e5b" stroke-width="2" stroke-dasharray="4,6"><animate attributeName="stroke-dashoffset" values="30;0" dur="1s" repeatCount="indefinite" begin="0"></animate><g><path d="M 100 142.000369C 100 130.756469 94.5 119.412869 89 111.000369L 55.816 64.152469C 55.4175 63.589769 54.5825 63.589769 54.184 64.152469L 21 111.000369C 14.5 120.000369 10 130.271969 10 142.000369C 10 166.853269 30.1472 187.000369 55 187.000369C 79.8528 187.000369 100 166.853269 100 142.000369ZM 55 106.000369C 74.8822 106.000369 91 122.118169 91 142.000369C 91 161.882669 74.8822 178.000369 55 178.000369C 35.1177 178.000369 19 161.882669 19 142.000369C 19 122.118169 35.1177 106.000369 55 106.000369Z"></path></g></g><g id="cp_4_g-4_18f2x0n19uboct-fill" stroke="none" fill="none"><g><path d="M 55 34C 61.6274 34 67 28.6274 67 22C 67 15.3726 61.6274 10 55 10C 48.3726 10 43 15.3726 43 22C 43 28.6274 48.3726 34 55 34ZM 55 28C 58.3137 28 61 25.3137 61 22C 61 18.6863 58.3137 16 55 16C 51.6863 16 49 18.6863 49 22C 49 25.3137 51.6863 28 55 28Z"></path></g></g><g id="cp_4_g-4_18f2x0n19uboct-stroke" fill="none" stroke-linecap="round" stroke-linejoin="round" stroke-miterlimit="4" stroke="#f366bb" stroke-width="2"><g><path d="M 55 34C 61.6274 34 67 28.6274 67 22C 67 15.3726 61.6274 10 55 10C 48.3726 10 43 15.3726 43 22C 43 28.6274 48.3726 34 55 34ZM 55 28C 58.3137 28 61 25.3137 61 22C 61 18.6863 58.3137 16 55 16C 51.6863 16 49 18.6863 49 22C 49 25.3137 51.6863 28 55 28Z"></path></g></g><g id="cp_4_g-4_18f2x0n19uboct-stroke-overlay" fill="none" stroke-linecap="round" stroke-linejoin="round" stroke-miterlimit="4" stroke="#eb008e5b" stroke-width="2" stroke-dasharray="4,6"><animate attributeName="stroke-dashoffset" values="30;0" dur="1s" repeatCount="indefinite" begin="0"></animate><g><path d="M 55 34C 61.6274 34 67 28.6274 67 22C 67 15.3726 61.6274 10 55 10C 48.3726 10 43 15.3726 43 22C 43 28.6274 48.3726 34 55 34ZM 55 28C 58.3137 28 61 25.3137 61 22C 61 18.6863 58.3137 16 55 16C 51.6863 16 49 18.6863 49 22C 49 25.3137 51.6863 28 55 28Z"></path></g></g></g><g id="g-root-cp_5_g-5_13z9ew719ubp54-stroke-fill" data-item-order="-494126" transform="translate(809.1309814453125, 173)"><g id="cp_5_g-5_13z9ew719ubp54-fill" stroke="none" fill="none"><g><path d="M 100 55C 100 66.244 94.5 77.5875 89 86L 55.816 132.848C 55.4175 133.411 54.5825 133.411 54.184 132.848L 21 86C 14.5 77 10 66.7284 10 55C 10 30.1472 30.1472 10 55 10C 79.8528 10 100 30.1472 100 55ZM 55 91C 74.8822 91 91 74.8822 91 55C 91 35.1177 74.8822 19 55 19C 35.1177 19 19 35.1177 19 55C 19 74.8822 35.1177 91 55 91Z"></path></g></g><g id="cp_5_g-5_13z9ew719ubp54-stroke" fill="none" stroke-linecap="round" stroke-linejoin="round" stroke-miterlimit="4" stroke="#43dd93" stroke-width="2"><g><path d="M 100 55C 100 66.244 94.5 77.5875 89 86L 55.816 132.848C 55.4175 133.4106 54.5825 133.4106 54.184 132.848L 21 86C 14.5 77 10 66.7284 10 55C 10 30.1472 30.1472 10 55 10C 79.8528 10 100 30.1472 100 55ZM 55 91C 74.8822 91 91 74.8822 91 55C 91 35.1177 74.8822 19 55 19C 35.1177 19 19 35.1177 19 55C 19 74.8822 35.1177 91 55 91Z"></path></g></g><g id="cp_5_g-5_13z9ew719ubp54-stroke-overlay" fill="none" stroke-linecap="round" stroke-linejoin="round" stroke-miterlimit="4" stroke="#00c5676e" stroke-width="2" stroke-dasharray="4,6"><animate attributeName="stroke-dashoffset" values="30;0" dur="1s" repeatCount="indefinite" begin="0"></animate><g><path d="M 100 55C 100 66.244 94.5 77.5875 89 86L 55.816 132.848C 55.4175 133.4106 54.5825 133.4106 54.184 132.848L 21 86C 14.5 77 10 66.7284 10 55C 10 30.1472 30.1472 10 55 10C 79.8528 10 100 30.1472 100 55ZM 55 91C 74.8822 91 91 74.8822 91 55C 91 35.1177 74.8822 19 55 19C 35.1177 19 19 35.1177 19 55C 19 74.8822 35.1177 91 55 91Z"></path></g></g><g id="cp_5_g-5_13z9ew719ubp54-fill" stroke="none" fill="none"><g><path d="M 55 187C 61.6274 187 67 181.6274 67 175C 67 168.3726 61.6274 163 55 163C 48.3726 163 43 168.3726 43 175C 43 181.6274 48.3726 187 55 187ZM 55 181C 58.3137 181 61 178.3137 61 175C 61 171.6863 58.3137 169 55 169C 51.6863 169 49 171.6863 49 175C 49 178.3137 51.6863 181 55 181Z"></path></g></g><g id="cp_5_g-5_13z9ew719ubp54-stroke" fill="none" stroke-linecap="round" stroke-linejoin="round" stroke-miterlimit="4" stroke="#43dd93" stroke-width="2"><g><path d="M 55 187C 61.6274 187 67 181.6274 67 175C 67 168.3726 61.6274 163 55 163C 48.3726 163 43 168.3726 43 175C 43 181.6274 48.3726 187 55 187ZM 55 181C 58.3137 181 61 178.3137 61 175C 61 171.6863 58.3137 169 55 169C 51.6863 169 49 171.6863 49 175C 49 178.3137 51.6863 181 55 181Z"></path></g></g><g id="cp_5_g-5_13z9ew719ubp54-stroke-overlay" fill="none" stroke-linecap="round" stroke-linejoin="round" stroke-miterlimit="4" stroke="#00c5676e" stroke-width="2" stroke-dasharray="4,6"><animate attributeName="stroke-dashoffset" values="30;0" dur="1s" repeatCount="indefinite" begin="0"></animate><g><path d="M 55 187C 61.6274 187 67 181.6274 67 175C 67 168.3726 61.6274 163 55 163C 48.3726 163 43 168.3726 43 175C 43 181.6274 48.3726 187 55 187ZM 55 181C 58.3137 181 61 178.3137 61 175C 61 171.6863 58.3137 169 55 169C 51.6863 169 49 171.6863 49 175C 49 178.3137 51.6863 181 55 181Z"></path></g></g></g><g id="g-root-tx_the1954b_qnswiv19ubqq3-stroke-fill" data-item-order="0" transform="translate(248, 50)"><g id="tx_the1954b_qnswiv19ubqq3-fill" stroke="none" fill="#f4f4f4"><g><text style="font: 20px Roboto, sans-serif; white-space: pre;" font-size="20px" font-family="Roboto, sans-serif"><tspan x="16.73" y="34" dominant-baseline="ideographic">The 1954 BOAC Stratocruiser UFO Encounter Timeline</tspan></text></g></g><g id="tx_the1954b_qnswiv19ubqq3-fill-overlay" stroke="none" fill="url(#crawlingPattern-0000001b)"><g><text style="font: 20px Roboto, sans-serif; white-space: pre;" font-size="20px" font-family="Roboto, sans-serif"><tspan x="16.73" y="34" dominant-baseline="ideographic">The 1954 BOAC Stratocruiser UFO Encounter Timeline</tspan></text></g></g></g><g id="g-root-ic_ufo_dcyv8n19ubp58-stroke-fill" data-item-order="0" transform="translate(290.1310119628906, 434.0000305175781)"><g id="ic_ufo_dcyv8n19ubp58-stroke" fill="none" stroke-linecap="round" stroke-linejoin="round" stroke-miterlimit="4" stroke="#f79438" stroke-width="2"><g><path d="M 48.999973 22.499992C 52.977833 22.499033 56.352131 25.42087 56.919968 29.357986C 56.961418 29.646801 56.874657 29.939312 56.682442 30.158823C 56.490227 30.378332 56.211727 30.502945 55.919968 30.499987L 12.069999 30.499987C 11.778241 30.502945 11.499742 30.378332 11.307527 30.158823C 11.115312 29.939312 11.028553 29.646801 11.07 29.357986C 11.638376 25.417109 15.018343 22.494055 18.999994 22.499992ZM 18.999994 22.499992C 18.999994 17.499994 25.71599 11.499999 33.999985 11.499999C 42.283978 11.499999 48.999973 17.499994 48.999973 22.499992M 47.769978 39.499981L 52.995972 56.499969M 14.995996 56.499969L 20.231993 39.499981M 34.995983 49.499973L 31.995985 53.65197M 37.995983 53.499973L 34.995983 49.499973M 31.995985 46.499977L 37.995983 46.499977M 34.999985 41.499981C 35.552269 41.499981 35.999985 41.947697 35.999985 42.499977M 33.999985 42.499977C 33.999985 41.947697 34.447701 41.499981 34.999985 41.499981M 34.999985 43.499977C 34.447701 43.499977 33.999985 43.052261 33.999985 42.499977M 35.999985 42.499977C 35.999985 43.052261 35.552269 43.499977 34.999985 43.499977M 34.995983 49.499973L 34.995983 46.499977M 24.99999 30.499987C 24.99999 33.26141 22.761415 35.499985 19.999994 35.499985C 17.238571 35.499985 14.999997 33.26141 14.999997 30.499987M 38.999981 30.499987C 38.999981 33.26141 36.761406 35.499985 33.999985 35.499985C 31.238564 35.499985 28.999987 33.26141 28.999987 30.499987M 52.999973 30.499987C 52.999973 33.26141 50.761398 35.499985 47.999973 35.499985C 45.238552 35.499985 42.999977 33.26141 42.999977 30.499987"></path></g></g><g id="ic_ufo_dcyv8n19ubp58-stroke-overlay" fill="none" stroke-linecap="round" stroke-linejoin="round" stroke-miterlimit="4" stroke="#f57600ab" stroke-width="2" stroke-dasharray="4,6"><animate attributeName="stroke-dashoffset" values="30;0" dur="1s" repeatCount="indefinite" begin="0"></animate><g><path d="M 48.999973 22.499992C 52.977833 22.499033 56.352131 25.42087 56.919968 29.357986C 56.961418 29.646801 56.874657 29.939312 56.682442 30.158823C 56.490227 30.378332 56.211727 30.502945 55.919968 30.499987L 12.069999 30.499987C 11.778241 30.502945 11.499742 30.378332 11.307527 30.158823C 11.115312 29.939312 11.028553 29.646801 11.07 29.357986C 11.638376 25.417109 15.018343 22.494055 18.999994 22.499992ZM 18.999994 22.499992C 18.999994 17.499994 25.71599 11.499999 33.999985 11.499999C 42.283978 11.499999 48.999973 17.499994 48.999973 22.499992M 47.769978 39.499981L 52.995972 56.499969M 14.995996 56.499969L 20.231993 39.499981M 34.995983 49.499973L 31.995985 53.65197M 37.995983 53.499973L 34.995983 49.499973M 31.995985 46.499977L 37.995983 46.499977M 34.999985 41.499981C 35.552269 41.499981 35.999985 41.947697 35.999985 42.499977M 33.999985 42.499977C 33.999985 41.947697 34.447701 41.499981 34.999985 41.499981M 34.999985 43.499977C 34.447701 43.499977 33.999985 43.052261 33.999985 42.499977M 35.999985 42.499977C 35.999985 43.052261 35.552269 43.499977 34.999985 43.499977M 34.995983 49.499973L 34.995983 46.499977M 24.99999 30.499987C 24.99999 33.26141 22.761415 35.499985 19.999994 35.499985C 17.238571 35.499985 14.999997 33.26141 14.999997 30.499987M 38.999981 30.499987C 38.999981 33.26141 36.761406 35.499985 33.999985 35.499985C 31.238564 35.499985 28.999987 33.26141 28.999987 30.499987M 52.999973 30.499987C 52.999973 33.26141 50.761398 35.499985 47.999973 35.499985C 45.238552 35.499985 42.999977 33.26141 42.999977 30.499987"></path></g></g></g><g id="g-root-tx_june2919_dcyv8n19ud2j1-stroke-fill" data-item-order="0" transform="translate(254, 134)"><g id="tx_june2919_dcyv8n19ud2j1-fill" stroke="none" fill="#f79438"><g><text style="font: bold 20px Roboto, sans-serif; white-space: pre;" font-weight="bold" font-size="20px" font-family="Roboto, sans-serif"><tspan x="12.99" y="34" dominant-baseline="ideographic">June 29, 1954, </tspan><tspan x="32.45" y="58" dominant-baseline="ideographic">0105 GMT</tspan></text></g></g><g id="tx_june2919_dcyv8n19ud2j1-fill-overlay" stroke="none" fill="url(#crawlingPattern-f17400d3)"><g><text style="font: bold 20px Roboto, sans-serif; white-space: pre;" font-weight="bold" font-size="20px" font-family="Roboto, sans-serif"><tspan x="12.99" y="34" dominant-baseline="ideographic">June 29, 1954, </tspan><tspan x="32.45" y="58" dominant-baseline="ideographic">0105 GMT</tspan></text></g></g></g><g id="g-root-tx_captainh_1icvb19ud43y-stroke-fill" data-item-order="0" transform="translate(242, 194)"><g id="tx_captainh_1icvb19ud43y-fill" stroke="none" fill="#f4f4f4"><g><text style="font: 15px Roboto, sans-serif; white-space: pre;" font-size="15px" font-family="Roboto, sans-serif"><tspan x="32.55" y="31" dominant-baseline="ideographic">Captain Howard </tspan><tspan x="14.8" y="49" dominant-baseline="ideographic">observes unidentified </tspan><tspan x="61.62" y="67" dominant-baseline="ideographic">objects</tspan></text></g></g><g id="tx_captainh_1icvb19ud43y-fill-overlay" stroke="none" fill="url(#crawlingPattern-0000001b)"><g><text style="font: 15px Roboto, sans-serif; white-space: pre;" font-size="15px" font-family="Roboto, sans-serif"><tspan x="32.55" y="31" dominant-baseline="ideographic">Captain Howard </tspan><tspan x="14.8" y="49" dominant-baseline="ideographic">observes unidentified </tspan><tspan x="61.62" y="67" dominant-baseline="ideographic">objects</tspan></text></g></g></g><g id="g-root-ic_allo_1umswpz19ud4p3-stroke-fill" data-item-order="0" transform="translate(650.1309814453125, 434)"><g id="ic_allo_1umswpz19ud4p3-stroke" fill="none" stroke-linecap="round" stroke-linejoin="round" stroke-miterlimit="4" stroke="#f366bb" stroke-width="2"><g><path d="M 10 10M 49.119999 49.112L 50.200001 48.032001C 50.872009 47.361416 51.137054 46.384247 50.896 45.466L 46.568001 29.02L 52.290001 23.296C 54.228039 21.443787 54.558464 18.468277 53.074001 16.236C 52.16468 14.953552 50.736275 14.137156 49.169765 14.004557C 47.603252 13.871959 46.057945 14.436644 44.945999 15.548L 39.02 21.473999L 22.58 17.147999C 21.661848 16.905163 20.683823 17.168711 20.012001 17.84L 18.972 18.880001M 26.969999 34L 21.99 39.641998L 19.324001 39.681999C 18.498131 39.540592 17.653803 39.795372 17.044001 40.370003L 14.378 42.810001C 14.063892 43.122883 13.926047 43.571545 14.010293 44.006817C 14.09454 44.442089 14.389833 44.806915 14.798 44.980003L 19.945999 47.883999L 23.326 53.212002C 23.500593 53.618687 23.865261 53.912518 24.299782 53.99662C 24.734303 54.080719 25.18227 53.944176 25.495998 53.631996L 27.823999 51.411999C 28.482195 50.79229 28.781799 49.881428 28.620001 48.992001L 28.662001 46.312L 34.222 41.115997M 55.91 55.91L 12.09 12.09"></path></g></g><g id="ic_allo_1umswpz19ud4p3-stroke-overlay" fill="none" stroke-linecap="round" stroke-linejoin="round" stroke-miterlimit="4" stroke="#eb008e5b" stroke-width="2" stroke-dasharray="4,6"><animate attributeName="stroke-dashoffset" values="30;0" dur="1s" repeatCount="indefinite" begin="0"></animate><g><path d="M 10 10M 49.119999 49.112L 50.200001 48.032001C 50.872009 47.361416 51.137054 46.384247 50.896 45.466L 46.568001 29.02L 52.290001 23.296C 54.228039 21.443787 54.558464 18.468277 53.074001 16.236C 52.16468 14.953552 50.736275 14.137156 49.169765 14.004557C 47.603252 13.871959 46.057945 14.436644 44.945999 15.548L 39.02 21.473999L 22.58 17.147999C 21.661848 16.905163 20.683823 17.168711 20.012001 17.84L 18.972 18.880001M 26.969999 34L 21.99 39.641998L 19.324001 39.681999C 18.498131 39.540592 17.653803 39.795372 17.044001 40.370003L 14.378 42.810001C 14.063892 43.122883 13.926047 43.571545 14.010293 44.006817C 14.09454 44.442089 14.389833 44.806915 14.798 44.980003L 19.945999 47.883999L 23.326 53.212002C 23.500593 53.618687 23.865261 53.912518 24.299782 53.99662C 24.734303 54.080719 25.18227 53.944176 25.495998 53.631996L 27.823999 51.411999C 28.482195 50.79229 28.781799 49.881428 28.620001 48.992001L 28.662001 46.312L 34.222 41.115997M 55.91 55.91L 12.09 12.09"></path></g></g></g><g id="g-root-tx_june2919_1hbcecn19uejns-stroke-fill" data-item-order="0" transform="translate(614, 158)"><g id="tx_june2919_1hbcecn19uejns-fill" stroke="none" fill="#f366bb"><g><text style="font: bold 20px Roboto, sans-serif; white-space: pre;" font-weight="bold" font-size="20px" font-family="Roboto, sans-serif"><tspan x="12.99" y="34" dominant-baseline="ideographic">June 29, 1954, </tspan><tspan x="32.45" y="58" dominant-baseline="ideographic">0123 GMT</tspan></text></g></g><g id="tx_june2919_1hbcecn19uejns-fill-overlay" stroke="none" fill="url(#crawlingPattern-eb008e76)"><g><text style="font: bold 20px Roboto, sans-serif; white-space: pre;" font-weight="bold" font-size="20px" font-family="Roboto, sans-serif"><tspan x="12.99" y="34" dominant-baseline="ideographic">June 29, 1954, </tspan><tspan x="32.45" y="58" dominant-baseline="ideographic">0123 GMT</tspan></text></g></g></g><g id="g-root-tx_objectsd_140id2f19uei2x-stroke-fill" data-item-order="0" transform="translate(602, 218)"><g id="tx_objectsd_140id2f19uei2x-fill" stroke="none" fill="#f4f4f4"><g><text style="font: 15px Roboto, sans-serif; white-space: pre;" font-size="15px" font-family="Roboto, sans-serif"><tspan x="17.32" y="28" dominant-baseline="ideographic">Objects disappear as </tspan><tspan x="14.76" y="46" dominant-baseline="ideographic">fighter jet approaches</tspan></text></g></g><g id="tx_objectsd_140id2f19uei2x-fill-overlay" stroke="none" fill="url(#crawlingPattern-0000001b)"><g><text style="font: 15px Roboto, sans-serif; white-space: pre;" font-size="15px" font-family="Roboto, sans-serif"><tspan x="17.32" y="28" dominant-baseline="ideographic">Objects disappear as </tspan><tspan x="14.76" y="46" dominant-baseline="ideographic">fighter jet approaches</tspan></text></g></g></g><g id="g-root-tx_june2919_m9utnr19uehaa-stroke-fill" data-item-order="0" transform="translate(74, 422)"><g id="tx_june2919_m9utnr19uehaa-fill" stroke="none" fill="#4f91fc"><g><text style="font: bold 20px Roboto, sans-serif; white-space: pre;" font-weight="bold" font-size="20px" font-family="Roboto, sans-serif"><tspan x="12.99" y="34" dominant-baseline="ideographic">June 29, 1954, </tspan><tspan x="21.32" y="58" dominant-baseline="ideographic">8:00 PM EST</tspan></text></g></g><g id="tx_june2919_m9utnr19uehaa-fill-overlay" stroke="none" fill="url(#crawlingPattern-0060fba2)"><g><text style="font: bold 20px Roboto, sans-serif; white-space: pre;" font-weight="bold" font-size="20px" font-family="Roboto, sans-serif"><tspan x="12.99" y="34" dominant-baseline="ideographic">June 29, 1954, </tspan><tspan x="21.32" y="58" dominant-baseline="ideographic">8:00 PM EST</tspan></text></g></g></g><g id="g-root-tx_boacflig_8yebaf19ueiv7-stroke-fill" data-item-order="0" transform="translate(50, 482)"><g id="tx_boacflig_8yebaf19ueiv7-fill" stroke="none" fill="#f4f4f4"><g><text style="font: 15px Roboto, sans-serif; white-space: pre;" font-size="15px" font-family="Roboto, sans-serif"><tspan x="16.12" y="31" dominant-baseline="ideographic">BOAC Flight Centaurus </tspan><tspan x="21.35" y="49" dominant-baseline="ideographic">departs from Idlewild </tspan><tspan x="69.2" y="67" dominant-baseline="ideographic">Airport</tspan></text></g></g><g id="tx_boacflig_8yebaf19ueiv7-fill-overlay" stroke="none" fill="url(#crawlingPattern-0000001b)"><g><text style="font: 15px Roboto, sans-serif; white-space: pre;" font-size="15px" font-family="Roboto, sans-serif"><tspan x="16.12" y="31" dominant-baseline="ideographic">BOAC Flight Centaurus </tspan><tspan x="21.35" y="49" dominant-baseline="ideographic">departs from Idlewild </tspan><tspan x="69.2" y="67" dominant-baseline="ideographic">Airport</tspan></text></g></g></g><g id="g-root-ic_road_1uoobzb19ueh38-stroke-fill" data-item-order="0" transform="translate(110.1309814453125, 194)"><g id="ic_road_1uoobzb19ueh38-stroke" fill="none" stroke-linecap="round" stroke-linejoin="round" stroke-miterlimit="4" stroke="#4f91fc" stroke-width="2"><g><path d="M 42 26C 42 30.418278 38.418278 34 34 34C 29.581722 34 26 30.418278 26 26C 26 21.581722 29.581722 18 34 18C 38.418278 18 42 21.581722 42 26ZM 26.059999 25L 12 25M 41.940002 25L 56 25M 34 18L 34 11M 14 30C 14 32.209137 15.790861 34 18 34C 20.209139 34 22 32.209137 22 30C 22 27.790861 20.209139 26 18 26C 15.790861 26 14 27.790861 14 30M 46 30C 46 32.209137 47.790859 34 50 34C 52.209141 34 54 32.209137 54 30C 54 27.790861 52.209141 26 50 26C 47.790859 26 46 27.790861 46 30M 26.58 23L 41.419998 23M 36.260002 23C 37.005257 23.649059 37.429108 24.591772 37.420002 25.580002C 37.420555 27.469208 35.889206 29.001009 34 29.001009C 32.110794 29.001009 30.579443 27.469208 30.58 25.58C 30.570894 24.591772 30.994749 23.649059 31.740002 23M 50.98 40.52L 56 57M 34 49L 34 57M 34 40L 34 43M 17.02 40.52L 12 57"></path></g></g><g id="ic_road_1uoobzb19ueh38-stroke-overlay" fill="none" stroke-linecap="round" stroke-linejoin="round" stroke-miterlimit="4" stroke="#0060fb7c" stroke-width="2" stroke-dasharray="4,6"><animate attributeName="stroke-dashoffset" values="30;0" dur="1s" repeatCount="indefinite" begin="0"></animate><g><path d="M 42 26C 42 30.418278 38.418278 34 34 34C 29.581722 34 26 30.418278 26 26C 26 21.581722 29.581722 18 34 18C 38.418278 18 42 21.581722 42 26ZM 26.059999 25L 12 25M 41.940002 25L 56 25M 34 18L 34 11M 14 30C 14 32.209137 15.790861 34 18 34C 20.209139 34 22 32.209137 22 30C 22 27.790861 20.209139 26 18 26C 15.790861 26 14 27.790861 14 30M 46 30C 46 32.209137 47.790859 34 50 34C 52.209141 34 54 32.209137 54 30C 54 27.790861 52.209141 26 50 26C 47.790859 26 46 27.790861 46 30M 26.58 23L 41.419998 23M 36.260002 23C 37.005257 23.649059 37.429108 24.591772 37.420002 25.580002C 37.420555 27.469208 35.889206 29.001009 34 29.001009C 32.110794 29.001009 30.579443 27.469208 30.58 25.58C 30.570894 24.591772 30.994749 23.649059 31.740002 23M 50.98 40.52L 56 57M 34 49L 34 57M 34 40L 34 43M 17.02 40.52L 12 57"></path></g></g></g><g id="g-root-tx_june2919_8yebaf19ufw91-stroke-fill" data-item-order="0" transform="translate(434, 422)"><g id="tx_june2919_8yebaf19ufw91-fill" stroke="none" fill="#fb6762"><g><text style="font: bold 20px Roboto, sans-serif; white-space: pre;" font-weight="bold" font-size="20px" font-family="Roboto, sans-serif"><tspan x="12.99" y="34" dominant-baseline="ideographic">June 29, 1954, </tspan><tspan x="32.45" y="58" dominant-baseline="ideographic">0120 GMT</tspan></text></g></g><g id="tx_june2919_8yebaf19ufw91-fill-overlay" stroke="none" fill="url(#crawlingPattern-f9080081)"><g><text style="font: bold 20px Roboto, sans-serif; white-space: pre;" font-weight="bold" font-size="20px" font-family="Roboto, sans-serif"><tspan x="12.99" y="34" dominant-baseline="ideographic">June 29, 1954, </tspan><tspan x="32.45" y="58" dominant-baseline="ideographic">0120 GMT</tspan></text></g></g></g><g id="g-root-tx_goosebay_1uo1uw719ufxmu-stroke-fill" data-item-order="0" transform="translate(410, 482)"><g id="tx_goosebay_1uo1uw719ufxmu-fill" stroke="none" fill="#f4f4f4"><g><text style="font: 15px Roboto, sans-serif; white-space: pre;" font-size="15px" font-family="Roboto, sans-serif"><tspan x="13" y="28" dominant-baseline="ideographic">Goose Bay dispatches a </tspan><tspan x="61.44" y="46" dominant-baseline="ideographic">fighter jet</tspan></text></g></g><g id="tx_goosebay_1uo1uw719ufxmu-fill-overlay" stroke="none" fill="url(#crawlingPattern-0000001b)"><g><text style="font: 15px Roboto, sans-serif; white-space: pre;" font-size="15px" font-family="Roboto, sans-serif"><tspan x="13" y="28" dominant-baseline="ideographic">Goose Bay dispatches a </tspan><tspan x="61.44" y="46" dominant-baseline="ideographic">fighter jet</tspan></text></g></g></g><g id="g-root-ic_2_1lseunb19ufyfj-stroke-fill" data-item-order="0" transform="translate(470.1310119628906, 194)"><g id="ic_2_1lseunb19ufyfj-stroke" fill="none" stroke-linecap="round" stroke-linejoin="round" stroke-miterlimit="4" stroke="#fb6762" stroke-width="2"><g><path d="M 56.999969 25.999989L 52.999973 25.999989M 14.215998 11.999999C 15.325134 12.000195 16.355995 12.571551 16.943996 13.511998L 19.943995 18.311995C 20.603416 19.364002 21.758396 20.001963 22.999992 19.999994L 48.999973 19.999994C 51.209114 19.999994 52.999973 21.790854 52.999973 23.99999L 52.999973 27.999989C 52.999973 30.209126 51.209114 31.999985 48.999973 31.999985L 38.763981 31.999985C 29.768902 32.000179 20.894718 29.927916 12.829998 25.943989C 11.709246 25.391104 10.999746 24.249701 10.999999 22.999992L 10.999999 15.215997C 10.999999 13.43985 12.439851 11.999999 14.215998 11.999999ZM 56.999969 21.999992L 56.999969 15.999996M 56.999969 35.999985L 56.999969 29.999987M 40.999981 19.999994C 40.999981 17.790855 39.209118 15.999996 36.999981 15.999996C 34.379086 15.999706 31.803514 16.683584 29.527985 17.983994L 25.999989 19.999994M 48.999973 19.999994L 48.999973 31.999985M 28.999987 25.999989C 28.999987 27.104559 29.895416 27.999989 30.999987 27.999989L 38.999981 27.999989C 40.104549 27.999989 40.999981 27.104559 40.999981 25.999989C 40.999981 24.89542 40.104549 23.99999 38.999981 23.99999L 30.999987 23.99999C 29.895416 23.99999 28.999987 24.89542 28.999987 25.999989ZM 48.999973 52.499973C 48.999973 48.910126 46.089828 45.999977 42.499977 45.999977C 38.910133 45.999977 35.999985 48.910126 35.999985 52.499973M 48.999973 51.999973C 51.209114 51.999973 52.999973 53.790829 52.999973 55.999969L 28.999987 55.999969C 28.999987 52.686268 31.686279 49.999973 34.999985 49.999973C 35.480705 50.02626 35.959507 50.080353 36.433979 50.161972"></path></g></g><g id="ic_2_1lseunb19ufyfj-stroke-overlay" fill="none" stroke-linecap="round" stroke-linejoin="round" stroke-miterlimit="4" stroke="#f9080063" stroke-width="2" stroke-dasharray="4,6"><animate attributeName="stroke-dashoffset" values="30;0" dur="1s" repeatCount="indefinite" begin="0"></animate><g><path d="M 56.999969 25.999989L 52.999973 25.999989M 14.215998 11.999999C 15.325134 12.000195 16.355995 12.571551 16.943996 13.511998L 19.943995 18.311995C 20.603416 19.364002 21.758396 20.001963 22.999992 19.999994L 48.999973 19.999994C 51.209114 19.999994 52.999973 21.790854 52.999973 23.99999L 52.999973 27.999989C 52.999973 30.209126 51.209114 31.999985 48.999973 31.999985L 38.763981 31.999985C 29.768902 32.000179 20.894718 29.927916 12.829998 25.943989C 11.709246 25.391104 10.999746 24.249701 10.999999 22.999992L 10.999999 15.215997C 10.999999 13.43985 12.439851 11.999999 14.215998 11.999999ZM 56.999969 21.999992L 56.999969 15.999996M 56.999969 35.999985L 56.999969 29.999987M 40.999981 19.999994C 40.999981 17.790855 39.209118 15.999996 36.999981 15.999996C 34.379086 15.999706 31.803514 16.683584 29.527985 17.983994L 25.999989 19.999994M 48.999973 19.999994L 48.999973 31.999985M 28.999987 25.999989C 28.999987 27.104559 29.895416 27.999989 30.999987 27.999989L 38.999981 27.999989C 40.104549 27.999989 40.999981 27.104559 40.999981 25.999989C 40.999981 24.89542 40.104549 23.99999 38.999981 23.99999L 30.999987 23.99999C 29.895416 23.99999 28.999987 24.89542 28.999987 25.999989ZM 48.999973 52.499973C 48.999973 48.910126 46.089828 45.999977 42.499977 45.999977C 38.910133 45.999977 35.999985 48.910126 35.999985 52.499973M 48.999973 51.999973C 51.209114 51.999973 52.999973 53.790829 52.999973 55.999969L 28.999987 55.999969C 28.999987 52.686268 31.686279 49.999973 34.999985 49.999973C 35.480705 50.02626 35.959507 50.080353 36.433979 50.161972"></path></g></g></g><g id="g-root-tx_june2919_mb3rtz19uha80-stroke-fill" data-item-order="0" transform="translate(794, 422)"><g id="tx_june2919_mb3rtz19uha80-fill" stroke="none" fill="#43dd93"><g><text style="font: bold 20px Roboto, sans-serif; white-space: pre;" font-weight="bold" font-size="20px" font-family="Roboto, sans-serif"><tspan x="12.99" y="34" dominant-baseline="ideographic">June 29, 1954, </tspan><tspan x="32.45" y="58" dominant-baseline="ideographic">0145 GMT</tspan></text></g></g><g id="tx_june2919_mb3rtz19uha80-fill-overlay" stroke="none" fill="url(#crawlingPattern-00b15c75)"><g><text style="font: bold 20px Roboto, sans-serif; white-space: pre;" font-weight="bold" font-size="20px" font-family="Roboto, sans-serif"><tspan x="12.99" y="34" dominant-baseline="ideographic">June 29, 1954, </tspan><tspan x="32.45" y="58" dominant-baseline="ideographic">0145 GMT</tspan></text></g></g></g><g id="g-root-tx_crewinte_8zn9gn19uhbsx-stroke-fill" data-item-order="0" transform="translate(758, 482)"><g id="tx_crewinte_8zn9gn19uhbsx-fill" stroke="none" fill="#f4f4f4"><g><text style="font: 15px Roboto, sans-serif; white-space: pre;" font-size="15px" font-family="Roboto, sans-serif"><tspan x="17.09" y="28" dominant-baseline="ideographic">Crew interviewed by U.S. </tspan><tspan x="69.07" y="46" dominant-baseline="ideographic">Air Force</tspan></text></g></g><defs><pattern id="crawlingPattern-0000001b" x="0" y="0" width="12" height="12" patternUnits="userSpaceOnUse" fill="#0000001b"><use href="#crawlingSymbol"></use></pattern><symbol id="crawlingSymbol"><g><animateTransform attributeName="transform" type="translate" from="0 0" to="-12 0" dur="0.4s" repeatCount="indefinite"></animateTransform><path d="M -12.5 12.5 l 13 -13 l 6 0 l -13 13 Z M -0.5 12.5 l 13 -13 l 6 0 l -13 13 Z M 11.5 12.5 l 13 -13 l 6 0 l -13 13 Z"></path></g></symbol><pattern id="crawlingPattern-f17400d3" x="0" y="0" width="12" height="12" patternUnits="userSpaceOnUse" fill="#f17400d3"><use href="#crawlingSymbol"></use></pattern><pattern id="crawlingPattern-eb008e76" x="0" y="0" width="12" height="12" patternUnits="userSpaceOnUse" fill="#eb008e76"><use href="#crawlingSymbol"></use></pattern><pattern id="crawlingPattern-0060fba2" x="0" y="0" width="12" height="12" patternUnits="userSpaceOnUse" fill="#0060fba2"><use href="#crawlingSymbol"></use></pattern><pattern id="crawlingPattern-f9080081" x="0" y="0" width="12" height="12" patternUnits="userSpaceOnUse" fill="#f9080081"><use href="#crawlingSymbol"></use></pattern><pattern id="crawlingPattern-00b15c75" x="0" y="0" width="12" height="12" patternUnits="userSpaceOnUse" fill="#00b15c75"><use href="#crawlingSymbol"></use></pattern></defs><g id="tx_crewinte_8zn9gn19uhbsx-fill-overlay" stroke="none" fill="url(#crawlingPattern-0000001b)"><g><text style="font: 15px Roboto, sans-serif; white-space: pre;" font-size="15px" font-family="Roboto, sans-serif"><tspan x="17.09" y="28" dominant-baseline="ideographic">Crew interviewed by U.S. </tspan><tspan x="69.07" y="46" dominant-baseline="ideographic">Air Force</tspan></text></g></g></g><g id="g-root-ic_cele_1lua9wn19uhatm-stroke-fill" data-item-order="0" transform="translate(830.1309814453125, 194)"><g id="ic_cele_1lua9wn19uhatm-stroke" fill="none" stroke-linecap="round" stroke-linejoin="round" stroke-miterlimit="4" stroke="#43dd93" stroke-width="2"><g><path d="M 28.040001 21.959999C 28.040001 25.251617 30.708384 27.92 34 27.92C 37.291618 27.92 39.959999 25.251617 39.959999 21.960001C 39.959999 18.668385 37.291618 16 34 16C 30.708384 16 28.040001 18.668385 28.040001 21.960001M 10 10M 37.239998 55L 38.16 44.16L 41.580002 44.16L 41.580002 37.66C 41.580734 33.47316 38.186836 30.078665 34 30.078665C 29.81316 30.078665 26.419262 33.47316 26.42 37.66L 26.42 44.16L 29.84 44.16L 30.76 55M 13 57L 21 33M 55 57L 47 33M 15 19L 15 23M 19 15L 23 15M 19.5 19.5L 22 22M 38.299999 31.42L 34 37.120003L 29.700001 31.42M 19 15L 15 19L 11.82 15.82C 10.715779 14.71537 10.715945 12.924795 11.82037 11.82037C 12.924795 10.715945 14.71537 10.715779 15.82 11.82ZM 53 19L 53 23M 49 15L 45 15M 48.5 19.5L 46 22M 49 15L 53 19L 56.18 15.82C 57.284218 14.71537 57.284054 12.924795 56.17963 11.82037C 55.075203 10.715945 53.284626 10.715779 52.18 11.82Z"></path></g></g><g id="ic_cele_1lua9wn19uhatm-stroke-overlay" fill="none" stroke-linecap="round" stroke-linejoin="round" stroke-miterlimit="4" stroke="#00c5676e" stroke-width="2" stroke-dasharray="4,6"><animate attributeName="stroke-dashoffset" values="30;0" dur="1s" repeatCount="indefinite" begin="0"></animate><g><path d="M 28.040001 21.959999C 28.040001 25.251617 30.708384 27.92 34 27.92C 37.291618 27.92 39.959999 25.251617 39.959999 21.960001C 39.959999 18.668385 37.291618 16 34 16C 30.708384 16 28.040001 18.668385 28.040001 21.960001M 10 10M 37.239998 55L 38.16 44.16L 41.580002 44.16L 41.580002 37.66C 41.580734 33.47316 38.186836 30.078665 34 30.078665C 29.81316 30.078665 26.419262 33.47316 26.42 37.66L 26.42 44.16L 29.84 44.16L 30.76 55M 13 57L 21 33M 55 57L 47 33M 15 19L 15 23M 19 15L 23 15M 19.5 19.5L 22 22M 38.299999 31.42L 34 37.120003L 29.700001 31.42M 19 15L 15 19L 11.82 15.82C 10.715779 14.71537 10.715945 12.924795 11.82037 11.82037C 12.924795 10.715945 14.71537 10.715779 15.82 11.82ZM 53 19L 53 23M 49 15L 45 15M 48.5 19.5L 46 22M 49 15L 53 19L 56.18 15.82C 57.284218 14.71537 57.284054 12.924795 56.17963 11.82037C 55.075203 10.715945 53.284626 10.715779 52.18 11.82Z"></path></g></g></g></svg>