<svg width="816" height="780" viewBox="0 0 816 780" style="fill:none;stroke:none;fill-rule:evenodd;clip-rule:evenodd;stroke-linecap:round;stroke-linejoin:round;stroke-miterlimit:1.5;" version="1.1" xmlns="http://www.w3.org/2000/svg" xmlns:xlink="http://www.w3.org/1999/xlink"><style class="text-font-style fontImports" data-font-family="Roboto">@import url('https://fonts.googleapis.com/css2?family=Roboto:wght@400;700&amp;display=block');</style><g id="g-root-tf_147zpgn1cm68lm-stroke-fill" data-item-order="-597243" transform="translate(13, 12)"></g><g id="g-root-sy_4_cu_4l2cvb1cm69z4-stroke-fill" data-item-order="-445197" transform="translate(343.9980163574219, 434.0038757324219)"><g id="sy_4_cu_4l2cvb1cm69z4-fill" stroke="none" fill="none"><g><path d="M 346.709031 10L 96.372831 10C 91.032031 10 86.334031 13.5296 84.847231 18.6592L 10.321231 275.773C 8.838031 280.89 12.677231 286 18.005031 286L 268.341031 286C 273.682031 286 278.380031 282.47 279.867031 277.341L 354.393031 20.2272C 355.876031 15.11 352.037031 10 346.709031 10Z"></path></g></g><g id="sy_4_cu_4l2cvb1cm69z4-stroke" fill="none" stroke-linecap="round" stroke-linejoin="round" stroke-miterlimit="4" stroke="#cb68f9" stroke-width="2"><g><path d="M 18.005031 286L 268.341231 286C 273.681931 286 278.379931 282.4704 279.866831 277.3408L 354.392631 20.2272C 355.875931 15.11 352.036731 9.999999 346.708931 10L 96.372731 10C 91.032031 10 86.334031 13.5296 84.847131 18.6593L 10.321331 275.7729C 8.838031 280.89 12.677231 286 18.005031 286ZM 309.830109 106L 78.830109 106"></path></g></g><g id="sy_4_cu_4l2cvb1cm69z4-stroke-overlay" fill="none" stroke-linecap="round" stroke-linejoin="round" stroke-miterlimit="4" stroke="#a700f55c" stroke-width="2" stroke-dasharray="4,6"><animate attributeName="stroke-dashoffset" values="30;0" dur="1s" repeatCount="indefinite" begin="0"></animate><g><path d="M 18.005031 286L 268.341231 286C 273.681931 286 278.379931 282.4704 279.866831 277.3408L 354.392631 20.2272C 355.875931 15.11 352.036731 9.999999 346.708931 10L 96.372731 10C 91.032031 10 86.334031 13.5296 84.847131 18.6593L 10.321331 275.7729C 8.838031 280.89 12.677231 286 18.005031 286ZM 309.830109 106L 78.830109 106"></path></g></g></g><g id="g-root-sy_3_cu_1ur5von1cm67ex-stroke-fill" data-item-order="-445193" transform="translate(344.6405944824219, 110)"><g id="sy_3_cu_1ur5von1cm67ex-fill" stroke="none" fill="none"><g><path d="M 346.709031 286L 96.372831 286C 91.032031 286 86.334031 282.47 84.847231 277.341L 10.321231 20.2272C 8.838031 15.11 12.677231 10 18.005031 10L 268.341031 10C 273.682031 10 278.380031 13.5296 279.867031 18.6592L 354.393031 275.773C 355.876031 280.89 352.037031 286 346.709031 286Z"></path></g></g><g id="sy_3_cu_1ur5von1cm67ex-stroke" fill="none" stroke-linecap="round" stroke-linejoin="round" stroke-miterlimit="4" stroke="#fb6762" stroke-width="2"><g><path d="M 18.005031 10L 268.341231 10C 273.681931 10 278.379931 13.5296 279.866831 18.6592L 354.392731 275.7728C 355.875931 280.89 352.036731 286 346.709031 286L 96.372831 286C 91.032031 286 86.334031 282.4704 84.847231 277.3408L 10.321331 20.2272C 8.838031 15.11 12.677231 10 18.005031 10ZM 309.832062 190L 78.832062 190"></path></g></g><g id="sy_3_cu_1ur5von1cm67ex-stroke-overlay" fill="none" stroke-linecap="round" stroke-linejoin="round" stroke-miterlimit="4" stroke="#f9080063" stroke-width="2" stroke-dasharray="4,6"><animate attributeName="stroke-dashoffset" values="30;0" dur="1s" repeatCount="indefinite" begin="0"></animate><g><path d="M 18.005031 10L 268.341231 10C 273.681931 10 278.379931 13.5296 279.866831 18.6592L 354.392731 275.7728C 355.875931 280.89 352.036731 286 346.709031 286L 96.372831 286C 91.032031 286 86.334031 282.4704 84.847231 277.3408L 10.321331 20.2272C 8.838031 15.11 12.677231 10 18.005031 10ZM 309.832062 190L 78.832062 190"></path></g></g></g><g id="g-root-sy_2_cu_1qbcdk71cm6876-stroke-fill" data-item-order="-445189" transform="translate(32.640594482421875, 434.0038757324219)"><g id="sy_2_cu_1qbcdk71cm6876-fill" stroke="none" fill="none"><g><path d="M 346.709024 10L 96.372824 10C 91.032024 10 86.334024 13.5296 84.847224 18.6592L 10.321224 275.773C 8.838024 280.89 12.677224 286 18.005024 286L 268.341024 286C 273.682024 286 278.380024 282.47 279.867024 277.341L 354.393024 20.2272C 355.876024 15.11 352.037024 10 346.709024 10Z"></path></g></g><g id="sy_2_cu_1qbcdk71cm6876-stroke" fill="none" stroke-linecap="round" stroke-linejoin="round" stroke-miterlimit="4" stroke="#b7b7b7" stroke-width="2"><g><path d="M 18.005024 286L 268.341224 286C 273.681924 286 278.379924 282.4704 279.866824 277.3408L 354.392624 20.2272C 355.875924 15.11 352.036724 9.999999 346.708924 10L 96.372724 10C 91.032024 10 86.334024 13.5296 84.847124 18.6593L 10.321324 275.7729C 8.838024 280.89 12.677224 286 18.005024 286ZM 309.830094 106L 78.830094 106"></path></g></g><g id="sy_2_cu_1qbcdk71cm6876-stroke-overlay" fill="none" stroke-linecap="round" stroke-linejoin="round" stroke-miterlimit="4" stroke="#0000001b" stroke-width="2" stroke-dasharray="4,6"><animate attributeName="stroke-dashoffset" values="30;0" dur="1s" repeatCount="indefinite" begin="0"></animate><g><path d="M 18.005024 286L 268.341224 286C 273.681924 286 278.379924 282.4704 279.866824 277.3408L 354.392624 20.2272C 355.875924 15.11 352.036724 9.999999 346.708924 10L 96.372724 10C 91.032024 10 86.334024 13.5296 84.847124 18.6593L 10.321324 275.7729C 8.838024 280.89 12.677224 286 18.005024 286ZM 309.830094 106L 78.830094 106"></path></g></g></g><g id="g-root-sy_1_cu_1hfpdbb1cm68zv-stroke-fill" data-item-order="-445185" transform="translate(32.640594482421875, 110)"><g id="sy_1_cu_1hfpdbb1cm68zv-fill" stroke="none" fill="none"><g><path d="M 346.709024 286L 96.372824 286C 91.032024 286 86.334024 282.47 84.847224 277.341L 10.321224 20.2272C 8.838024 15.11 12.677224 10 18.005024 10L 268.341024 10C 273.682024 10 278.380024 13.5296 279.867024 18.6592L 354.393024 275.773C 355.876024 280.89 352.037024 286 346.709024 286Z"></path></g></g><g id="sy_1_cu_1hfpdbb1cm68zv-stroke" fill="none" stroke-linecap="round" stroke-linejoin="round" stroke-miterlimit="4" stroke="#43dd93" stroke-width="2"><g><path d="M 18.005024 10L 268.341224 10C 273.681924 10 278.379924 13.5296 279.866824 18.6592L 354.392724 275.7728C 355.875924 280.89 352.036724 286 346.709024 286L 96.372824 286C 91.032024 286 86.334024 282.4704 84.847224 277.3408L 10.321324 20.2272C 8.838024 15.11 12.677224 10 18.005024 10ZM 309.83207 190L 78.83207 190"></path></g></g><g id="sy_1_cu_1hfpdbb1cm68zv-stroke-overlay" fill="none" stroke-linecap="round" stroke-linejoin="round" stroke-miterlimit="4" stroke="#00c5676e" stroke-width="2" stroke-dasharray="4,6"><animate attributeName="stroke-dashoffset" values="30;0" dur="1s" repeatCount="indefinite" begin="0"></animate><g><path d="M 18.005024 10L 268.341224 10C 273.681924 10 278.379924 13.5296 279.866824 18.6592L 354.392724 275.7728C 355.875924 280.89 352.036724 286 346.709024 286L 96.372824 286C 91.032024 286 86.334024 282.4704 84.847224 277.3408L 10.321324 20.2272C 8.838024 15.11 12.677224 10 18.005024 10ZM 309.83207 190L 78.83207 190"></path></g></g></g><g id="g-root-sy_-1_cu_1czvv6v1cm69s4-stroke-fill" data-item-order="-445180" transform="translate(27, 386)"><g id="sy_-1_cu_1czvv6v1cm69s4-stroke" fill="none" stroke-linecap="round" stroke-linejoin="round" stroke-miterlimit="4" stroke="#f4f4f4" stroke-width="2"><g><path d="M 24 34L 718 34M 708 12L 718 33.9989L 708 56L 752 33.9989L 708 12ZM 10 10L 24 33.9988L 10 58M 22 10L 36 33.9988L 22 58M 34 10L 48 33.9988L 34 58"></path></g></g><g id="sy_-1_cu_1czvv6v1cm69s4-stroke-overlay" fill="none" stroke-linecap="round" stroke-linejoin="round" stroke-miterlimit="4" stroke="#3131311a" stroke-width="2" stroke-dasharray="4,6"><animate attributeName="stroke-dashoffset" values="30;0" dur="1s" repeatCount="indefinite" begin="0"></animate><g><path d="M 24 34L 718 34M 708 12L 718 33.9989L 708 56L 752 33.9989L 708 12ZM 10 10L 24 33.9988L 10 58M 22 10L 36 33.9988L 22 58M 34 10L 48 33.9988L 34 58"></path></g></g></g><g id="g-root-tx_continue_144vc131cm67f1-stroke-fill" data-item-order="0" transform="translate(419, 650)"><g id="tx_continue_144vc131cm67f1-fill" stroke="none" fill="#cb68f9"><g><text style="font: 15px Roboto, sans-serif; white-space: pre;" font-size="15px" font-family="Roboto, sans-serif"><tspan x="20.36" y="31" dominant-baseline="ideographic">Continued Public Interest</tspan></text></g></g><g id="tx_continue_144vc131cm67f1-fill-overlay" stroke="none" fill="url(#crawlingPattern-a700f578)"><g><text style="font: 15px Roboto, sans-serif; white-space: pre;" font-size="15px" font-family="Roboto, sans-serif"><tspan x="20.36" y="31" dominant-baseline="ideographic">Continued Public Interest</tspan></text></g></g></g><g id="g-root-tx_scientif_qtetnr1cm68zy-stroke-fill" data-item-order="0" transform="translate(491, 566)"><g id="tx_scientif_qtetnr1cm68zy-fill" stroke="none" fill="#cb68f9"><g><text style="font: 15px Roboto, sans-serif; white-space: pre;" font-size="15px" font-family="Roboto, sans-serif"><tspan x="14.5" y="31" dominant-baseline="ideographic">Scientific Analyses</tspan></text></g></g><g id="tx_scientif_qtetnr1cm68zy-fill-overlay" stroke="none" fill="url(#crawlingPattern-a700f578)"><g><text style="font: 15px Roboto, sans-serif; white-space: pre;" font-size="15px" font-family="Roboto, sans-serif"><tspan x="14.5" y="31" dominant-baseline="ideographic">Scientific Analyses</tspan></text></g></g></g><g id="g-root-tx_research_mdlbjb1cm69s7-stroke-fill" data-item-order="0" transform="translate(437, 470)"><g id="tx_research_mdlbjb1cm69s7-fill" stroke="none" fill="#cb68f9"><g><text style="font: bold 20px Roboto, sans-serif; white-space: pre;" font-weight="bold" font-size="20px" font-family="Roboto, sans-serif"><tspan x="20.48" y="34" dominant-baseline="ideographic">Research and Analysis</tspan></text></g></g><g id="tx_research_mdlbjb1cm69s7-fill-overlay" stroke="none" fill="url(#crawlingPattern-a700f578)"><g><text style="font: bold 20px Roboto, sans-serif; white-space: pre;" font-weight="bold" font-size="20px" font-family="Roboto, sans-serif"><tspan x="20.48" y="34" dominant-baseline="ideographic">Research and Analysis</tspan></text></g></g></g><g id="g-root-tx_publicin_92ra931cm687c-stroke-fill" data-item-order="0" transform="translate(443, 146)"><g id="tx_publicin_92ra931cm687c-fill" stroke="none" fill="#fb6762"><g><text style="font: 15px Roboto, sans-serif; white-space: pre;" font-size="15px" font-family="Roboto, sans-serif"><tspan x="12.75" y="31" dominant-baseline="ideographic">Public Interest in UFOs</tspan></text></g></g><g id="tx_publicin_92ra931cm687c-fill-overlay" stroke="none" fill="url(#crawlingPattern-f9080081)"><g><text style="font: 15px Roboto, sans-serif; white-space: pre;" font-size="15px" font-family="Roboto, sans-serif"><tspan x="12.75" y="31" dominant-baseline="ideographic">Public Interest in UFOs</tspan></text></g></g></g><g id="g-root-tx_coldwara_4mxs4n1cm68zl-stroke-fill" data-item-order="0" transform="translate(467, 230)"><g id="tx_coldwara_4mxs4n1cm68zl-fill" stroke="none" fill="#fb6762"><g><text style="font: 15px Roboto, sans-serif; white-space: pre;" font-size="15px" font-family="Roboto, sans-serif"><tspan x="18.27" y="31" dominant-baseline="ideographic">Cold War Atmosphere</tspan></text></g></g><g id="tx_coldwara_4mxs4n1cm68zl-fill-overlay" stroke="none" fill="url(#crawlingPattern-f9080081)"><g><text style="font: 15px Roboto, sans-serif; white-space: pre;" font-size="15px" font-family="Roboto, sans-serif"><tspan x="18.27" y="31" dominant-baseline="ideographic">Cold War Atmosphere</tspan></text></g></g></g><g id="g-root-tx_historic_1usetuv1cm69l6-stroke-fill" data-item-order="0" transform="translate(485, 326)"><g id="tx_historic_1usetuv1cm69l6-fill" stroke="none" fill="#fb6762"><g><text style="font: bold 20px Roboto, sans-serif; white-space: pre;" font-weight="bold" font-size="20px" font-family="Roboto, sans-serif"><tspan x="14.41" y="34" dominant-baseline="ideographic">Historical Context</tspan></text></g></g><g id="tx_historic_1usetuv1cm69l6-fill-overlay" stroke="none" fill="url(#crawlingPattern-f9080081)"><g><text style="font: bold 20px Roboto, sans-serif; white-space: pre;" font-weight="bold" font-size="20px" font-family="Roboto, sans-serif"><tspan x="14.41" y="34" dominant-baseline="ideographic">Historical Context</tspan></text></g></g></g><g id="g-root-tx_mediacov_1hhkskn1cm680b-stroke-fill" data-item-order="0" transform="translate(167, 650)"><g id="tx_mediacov_1hhkskn1cm680b-fill" stroke="none" fill="#b7b7b7"><g><text style="font: 15px Roboto, sans-serif; white-space: pre;" font-size="15px" font-family="Roboto, sans-serif"><tspan x="20.3" y="31" dominant-baseline="ideographic">Media Coverage</tspan></text></g></g><g id="tx_mediacov_1hhkskn1cm680b-fill-overlay" stroke="none" fill="url(#crawlingPattern-00000024)"><g><text style="font: 15px Roboto, sans-serif; white-space: pre;" font-size="15px" font-family="Roboto, sans-serif"><tspan x="20.3" y="31" dominant-baseline="ideographic">Media Coverage</tspan></text></g></g></g><g id="g-root-tx_official_1464a7b1cm69l8-stroke-fill" data-item-order="0" transform="translate(143, 566)"><g id="tx_official_1464a7b1cm69l8-fill" stroke="none" fill="#b7b7b7"><g><text style="font: 15px Roboto, sans-serif; white-space: pre;" font-size="15px" font-family="Roboto, sans-serif"><tspan x="16.53" y="31" dominant-baseline="ideographic">Official Announcements</tspan></text></g></g><g id="tx_official_1464a7b1cm69l8-fill-overlay" stroke="none" fill="url(#crawlingPattern-00000024)"><g><text style="font: 15px Roboto, sans-serif; white-space: pre;" font-size="15px" font-family="Roboto, sans-serif"><tspan x="16.53" y="31" dominant-baseline="ideographic">Official Announcements</tspan></text></g></g></g><g id="g-root-tx_document_zqx95z1cm677p-stroke-fill" data-item-order="0" transform="translate(125, 470)"><g id="tx_document_zqx95z1cm677p-fill" stroke="none" fill="#b7b7b7"><g><text style="font: bold 20px Roboto, sans-serif; white-space: pre;" font-weight="bold" font-size="20px" font-family="Roboto, sans-serif"><tspan x="18.63" y="34" dominant-baseline="ideographic">Documentation Quality</tspan></text></g></g><g id="tx_document_zqx95z1cm677p-fill-overlay" stroke="none" fill="url(#crawlingPattern-00000024)"><g><text style="font: bold 20px Roboto, sans-serif; white-space: pre;" font-weight="bold" font-size="20px" font-family="Roboto, sans-serif"><tspan x="18.63" y="34" dominant-baseline="ideographic">Documentation Quality</tspan></text></g></g></g><g id="g-root-tx_detailed_qva8x31cm680e-stroke-fill" data-item-order="0" transform="translate(119, 146)"><g id="tx_detailed_qva8x31cm680e-fill" stroke="none" fill="#43dd93"><g><text style="font: 15px Roboto, sans-serif; white-space: pre;" font-size="15px" font-family="Roboto, sans-serif"><tspan x="15.33" y="31" dominant-baseline="ideographic">Detailed Documentation</tspan></text></g></g><g id="tx_detailed_qva8x31cm680e-fill-overlay" stroke="none" fill="url(#crawlingPattern-00b15c75)"><g><text style="font: 15px Roboto, sans-serif; white-space: pre;" font-size="15px" font-family="Roboto, sans-serif"><tspan x="15.33" y="31" dominant-baseline="ideographic">Detailed Documentation</tspan></text></g></g></g><g id="g-root-tx_multiple_mfgqsn1cm68sn-stroke-fill" data-item-order="0" transform="translate(107, 230)"><g id="tx_multiple_mfgqsn1cm68sn-fill" stroke="none" fill="#43dd93"><g><text style="font: 15px Roboto, sans-serif; white-space: pre;" font-size="15px" font-family="Roboto, sans-serif"><tspan x="22.91" y="31" dominant-baseline="ideographic">Multiple Qualified Witnesses</tspan></text></g></g><g id="tx_multiple_mfgqsn1cm68sn-fill-overlay" stroke="none" fill="url(#crawlingPattern-00b15c75)"><g><text style="font: 15px Roboto, sans-serif; white-space: pre;" font-size="15px" font-family="Roboto, sans-serif"><tspan x="22.91" y="31" dominant-baseline="ideographic">Multiple Qualified Witnesses</tspan></text></g></g></g><g id="g-root-tx_witnessc_94mpif1cm677s-stroke-fill" data-item-order="0" transform="translate(161, 326)"><g id="tx_witnessc_94mpif1cm677s-fill" stroke="none" fill="#43dd93"><g><text style="font: bold 20px Roboto, sans-serif; white-space: pre;" font-weight="bold" font-size="20px" font-family="Roboto, sans-serif"><tspan x="19.36" y="34" dominant-baseline="ideographic">Witness Credibility</tspan></text></g></g><g id="tx_witnessc_94mpif1cm677s-fill-overlay" stroke="none" fill="url(#crawlingPattern-00b15c75)"><g><text style="font: bold 20px Roboto, sans-serif; white-space: pre;" font-weight="bold" font-size="20px" font-family="Roboto, sans-serif"><tspan x="19.36" y="34" dominant-baseline="ideographic">Witness Credibility</tspan></text></g></g></g><g id="g-root-tx_analyzin_4ot7dz1cm6801-stroke-fill" data-item-order="0" transform="translate(155, 50)"><g id="tx_analyzin_4ot7dz1cm6801-fill" stroke="none" fill="#f4f4f4"><g><text style="font: bold 20px Roboto, sans-serif; white-space: pre;" font-weight="bold" font-size="20px" font-family="Roboto, sans-serif"><tspan x="12.1" y="34" dominant-baseline="ideographic">Analyzing the 1954 BOAC Stratocruiser UFO Sighting</tspan></text></g></g><defs><pattern id="crawlingPattern-a700f578" x="0" y="0" width="12" height="12" patternUnits="userSpaceOnUse" fill="#a700f578"><use href="#crawlingSymbol"></use></pattern><symbol id="crawlingSymbol"><g><animateTransform attributeName="transform" type="translate" from="0 0" to="-12 0" dur="0.4s" repeatCount="indefinite"></animateTransform><path d="M -12.5 12.5 l 13 -13 l 6 0 l -13 13 Z M -0.5 12.5 l 13 -13 l 6 0 l -13 13 Z M 11.5 12.5 l 13 -13 l 6 0 l -13 13 Z"></path></g></symbol><pattern id="crawlingPattern-f9080081" x="0" y="0" width="12" height="12" patternUnits="userSpaceOnUse" fill="#f9080081"><use href="#crawlingSymbol"></use></pattern><pattern id="crawlingPattern-00000024" x="0" y="0" width="12" height="12" patternUnits="userSpaceOnUse" fill="#00000024"><use href="#crawlingSymbol"></use></pattern><pattern id="crawlingPattern-00b15c75" x="0" y="0" width="12" height="12" patternUnits="userSpaceOnUse" fill="#00b15c75"><use href="#crawlingSymbol"></use></pattern><pattern id="crawlingPattern-0000001b" x="0" y="0" width="12" height="12" patternUnits="userSpaceOnUse" fill="#0000001b"><use href="#crawlingSymbol"></use></pattern></defs><g id="tx_analyzin_4ot7dz1cm6801-fill-overlay" stroke="none" fill="url(#crawlingPattern-0000001b)"><g><text style="font: bold 20px Roboto, sans-serif; white-space: pre;" font-weight="bold" font-size="20px" font-family="Roboto, sans-serif"><tspan x="12.1" y="34" dominant-baseline="ideographic">Analyzing the 1954 BOAC Stratocruiser UFO Sighting</tspan></text></g></g></g></svg>