<?xml version='1.0' encoding='utf-8'?>
<svg xmlns="http://www.w3.org/2000/svg" xmlns:xlink="http://www.w3.org/1999/xlink" width="816" height="636" viewBox="0 0 816 636" style="fill:none;stroke:none;fill-rule:evenodd;clip-rule:evenodd;stroke-linecap:round;stroke-linejoin:round;stroke-miterlimit:1.5;" version="1.1">
  <style class="text-font-style fontImports" data-font-family="Roboto">@import url('https://fonts.googleapis.com/css2?family=Roboto:wght@400;700&amp;display=block');</style>
  <rect x="0" y="0" width="816" height="636" fill="#252a34" stroke="none" id="programmatic_background"/>
  <g id="g-root-tf_1um6chj1c28g7g-stroke-fill" data-item-order="-477360" transform="translate(18, 12)">
    <g id="tf_1um6chj1c28g7g-fill" stroke="none" fill="#2c2c2c">
      <g>
        <path d="M 0 0L 780 0L 780 612L 0 612Z"/>
      </g>
    </g>
    <defs>
      <pattern id="crawlingPattern-7878781a" x="0" y="0" width="12" height="12" patternUnits="userSpaceOnUse" fill="#7878781a">
        <use href="#crawlingSymbol"/>
      </pattern>
      <symbol id="crawlingSymbol">
        <g>
          <path d="M -12.5 12.5 l 13 -13 l 6 0 l -13 13 Z M -0.5 12.5 l 13 -13 l 6 0 l -13 13 Z M 11.5 12.5 l 13 -13 l 6 0 l -13 13 Z"/>
        </g>
      </symbol>
      <pattern id="crawlingPattern-a906f51a" x="0" y="0" width="12" height="12" patternUnits="userSpaceOnUse" fill="#a906f51a">
        <use href="#crawlingSymbol"/>
      </pattern>
      <pattern id="crawlingPattern-f576002d" x="0" y="0" width="12" height="12" patternUnits="userSpaceOnUse" fill="#f576002d">
        <use href="#crawlingSymbol"/>
      </pattern>
      <pattern id="crawlingPattern-f908001a" x="0" y="0" width="12" height="12" patternUnits="userSpaceOnUse" fill="#f908001a">
        <use href="#crawlingSymbol"/>
      </pattern>
      <pattern id="crawlingPattern-8484841a" x="0" y="0" width="12" height="12" patternUnits="userSpaceOnUse" fill="#8484841a">
        <use href="#crawlingSymbol"/>
      </pattern>
      <pattern id="crawlingPattern-ffffff38" x="0" y="0" width="12" height="12" patternUnits="userSpaceOnUse" fill="#ffffff38">
        <use href="#crawlingSymbol"/>
      </pattern>
      <pattern id="crawlingPattern-0000001b" x="0" y="0" width="12" height="12" patternUnits="userSpaceOnUse" fill="#0000001b">
        <use href="#crawlingSymbol"/>
      </pattern>
      <pattern id="crawlingPattern-5f5f5f1a" x="0" y="0" width="12" height="12" patternUnits="userSpaceOnUse" fill="#5f5f5f1a">
        <use href="#crawlingSymbol"/>
      </pattern>
    </defs>
  </g>
  <g id="g-root-sy_-1_cu_me82471c270nd-stroke-fill" data-item-order="-316218" transform="translate(32, 265.00390625)">
    <g id="sy_-1_cu_me82471c270nd-fill" stroke="none" fill="#ababab">
      <g>
        <path d="M 10.001 143L 10 47L 67 47L 70 59L 322 59L 319 47L 367 47L 370 59L 622 59L 619 47L 646 47L 646 10L 742 95L 646.002 180L 646 143L 619 143L 622 131L 370 131L 367 143L 319.001 143L 322.001 131L 70.001 131L 67.001 143L 10.001 143Z"/>
      </g>
    </g>
    <g id="sy_-1_cu_me82471c270nd-stroke" fill="none" stroke-linecap="round" stroke-linejoin="round" stroke-miterlimit="4" stroke="#2c2c2c" stroke-width="2">
      <g>
        <path d="M 10.001 143L 10 47L 67 47L 70 59L 322 59L 319 47L 367 47L 370 59L 622 59L 619 47L 646 47L 646 10L 742 95L 646.0017 180L 646 143L 619 143L 622 131L 370 131L 367 143L 319.001 143L 322.001 131L 70.001 131L 67.001 143L 10.001 143Z"/>
      </g>
    </g>
  </g>
  <g id="g-root-sy_4_cu_hyejzr1c271fm-stroke-fill" data-item-order="-316214" transform="translate(347, 386)">
    <g id="sy_4_cu_hyejzr1c271fm-fill" stroke="none" fill="#cb68f9">
      <g>
        <path d="M 307 10L 295 58L 43 58L 55 10L 307 10ZM 291.992188 70L 279.992188 118L 27.992188 118L 39.992188 70L 291.992188 70ZM 277 130L 25 130L 10 190L 262 190L 277 130Z"/>
      </g>
    </g>
    <g id="sy_4_cu_hyejzr1c271fm-stroke" fill="none" stroke-linecap="round" stroke-linejoin="round" stroke-miterlimit="4" stroke="#2c2c2c" stroke-width="2">
      <g>
        <path d="M 307 10L 295 58L 43 58L 55 10L 307 10ZM 291.992188 70L 279.992188 118L 27.992188 118L 39.992188 70L 291.992188 70ZM 277 130L 25 130L 10 190L 262 190L 277 130Z"/>
      </g>
    </g>
  </g>
  <g id="g-root-sy_3_cu_92rjqv1c2728b-stroke-fill" data-item-order="-316210" transform="translate(347, 134)">
    <g id="sy_3_cu_92rjqv1c2728b-fill" stroke="none" fill="#f79438">
      <g>
        <path d="M 307 190L 295 142L 43 142L 55 190L 307 190ZM 291.992188 130L 279.992188 82L 27.992188 82L 39.992188 130L 291.992188 130ZM 277 70L 25 70L 10 10L 262 10L 277 70Z"/>
      </g>
    </g>
    <g id="sy_3_cu_92rjqv1c2728b-stroke" fill="none" stroke-linecap="round" stroke-linejoin="round" stroke-miterlimit="4" stroke="#2c2c2c" stroke-width="2">
      <g>
        <path d="M 307 190L 295 142L 43 142L 55 190L 307 190ZM 291.992188 130L 279.992188 82L 27.992188 82L 39.992188 130L 291.992188 130ZM 277 70L 25 70L 10 10L 262 10L 277 70Z"/>
      </g>
    </g>
  </g>
  <g id="g-root-sy_2_cu_1ut1kfr1c270gc-stroke-fill" data-item-order="-316206" transform="translate(47, 386)">
    <g id="sy_2_cu_1ut1kfr1c270gc-fill" stroke="none" fill="#fb6762">
      <g>
        <path d="M 307.000977 10L 295.000977 58L 43.000977 58L 55.000977 10L 307.000977 10ZM 291.993164 70L 279.993164 118L 27.993164 118L 39.993164 70L 291.993164 70ZM 277.001 130L 25.001 130L 10 190L 262 190L 277.001 130Z"/>
      </g>
    </g>
    <g id="sy_2_cu_1ut1kfr1c270gc-stroke" fill="none" stroke-linecap="round" stroke-linejoin="round" stroke-miterlimit="4" stroke="#2c2c2c" stroke-width="2">
      <g>
        <path d="M 307.000977 10L 295.000977 58L 43.000977 58L 55.000977 10L 307.000977 10ZM 291.993164 70L 279.993164 118L 27.993164 118L 39.993164 70L 291.993164 70ZM 277.001 130L 25.001 130L 10 190L 262 190L 277.001 130Z"/>
      </g>
    </g>
  </g>
  <g id="g-root-sy_1_cu_1qd82bb1c2718l-stroke-fill" data-item-order="-316202" transform="translate(47, 134)">
    <g id="sy_1_cu_1qd82bb1c2718l-fill" stroke="none" fill="#b7b7b7">
      <g>
        <path d="M 307 190L 295 142L 43 142L 55 190L 307 190ZM 291.992188 130L 279.992188 82L 27.992188 82L 39.992188 130L 291.992188 130ZM 277 70L 25 70L 10 10L 262 10L 277 70Z"/>
      </g>
    </g>
    <g id="sy_1_cu_1qd82bb1c2718l-stroke" fill="none" stroke-linecap="round" stroke-linejoin="round" stroke-miterlimit="4" stroke="#2c2c2c" stroke-width="2">
      <g>
        <path d="M 307 190L 295 142L 43 142L 55 190L 307 190ZM 291.992188 130L 279.992188 82L 27.992188 82L 39.992188 130L 291.992188 130ZM 277 70L 25 70L 10 10L 262 10L 277 70Z"/>
      </g>
    </g>
  </g>
  <g id="g-root-tx_evaluati_1hhl22f1c2721a-stroke-fill" data-item-order="0" transform="translate(104, 332)">
    <g id="tx_evaluati_1hhl22f1c2721a-fill" stroke="none" fill="#2c2c2c">
      <g>
        <text style="font: bold 25px Roboto, sans-serif; white-space: pre;" font-weight="bold" font-size="25px" font-family="Roboto, sans-serif">
          <tspan x="15.36" y="43" dominant-baseline="ideographic">Evaluating the Higdon case's credibility and evidence</tspan>
        </text>
      </g>
    </g>
  </g>
  <g id="g-root-tx_cultural_146r0s71c270gf-stroke-fill" data-item-order="0" transform="translate(428, 398)">
    <g id="tx_cultural_146r0s71c270gf-fill" stroke="none" fill="#2c2c2c">
      <g>
        <text style="font: 15px Roboto, sans-serif; white-space: pre;" font-size="15px" font-family="Roboto, sans-serif">
          <tspan x="14.44" y="31" dominant-baseline="ideographic">Cultural narrative influences</tspan>
        </text>
      </g>
    </g>
  </g>
  <g id="g-root-tx_hypnotic_zqxinr1c2718o-stroke-fill" data-item-order="0" transform="translate(413, 458)">
    <g id="tx_hypnotic_zqxinr1c2718o-fill" stroke="none" fill="#2c2c2c">
      <g>
        <text style="font: 15px Roboto, sans-serif; white-space: pre;" font-size="15px" font-family="Roboto, sans-serif">
          <tspan x="19.8" y="31" dominant-baseline="ideographic">Hypnotic regression issues</tspan>
        </text>
      </g>
    </g>
  </g>
  <g id="g-root-tx_psycholo_vb40jb1c2720x-stroke-fill" data-item-order="0" transform="translate(374, 524)">
    <g id="tx_psycholo_vb40jb1c2720x-fill" stroke="none" fill="#2c2c2c">
      <g>
        <text style="font: bold 20px Roboto, sans-serif; white-space: pre;" font-weight="bold" font-size="20px" font-family="Roboto, sans-serif">
          <tspan x="17.05" y="34" dominant-baseline="ideographic">Psychological Analysis</tspan>
        </text>
      </g>
    </g>
  </g>
  <g id="g-root-tx_potentia_mfh0af1c272tm-stroke-fill" data-item-order="0" transform="translate(500, 278)">
    <g id="tx_potentia_mfh0af1c272tm-fill" stroke="none" fill="#2c2c2c">
      <g>
        <text style="font: 15px Roboto, sans-serif; white-space: pre;" font-size="15px" font-family="Roboto, sans-serif">
          <tspan x="21.17" y="31" dominant-baseline="ideographic">Potential biases</tspan>
        </text>
      </g>
    </g>
  </g>
  <g id="g-root-tx_inconsis_94mz071c2718r-stroke-fill" data-item-order="0" transform="translate(389, 218)">
    <g id="tx_inconsis_94mz071c2718r-fill" stroke="none" fill="#2c2c2c">
      <g>
        <text style="font: 15px Roboto, sans-serif; white-space: pre;" font-size="15px" font-family="Roboto, sans-serif">
          <tspan x="21.14" y="31" dominant-baseline="ideographic">Inconsistent witness accounts</tspan>
        </text>
      </g>
    </g>
  </g>
  <g id="g-root-tx_witnesst_4otgvr1c27210-stroke-fill" data-item-order="0" transform="translate(398, 152)">
    <g id="tx_witnesst_4otgvr1c27210-fill" stroke="none" fill="#2c2c2c">
      <g>
        <text style="font: bold 20px Roboto, sans-serif; white-space: pre;" font-weight="bold" font-size="20px" font-family="Roboto, sans-serif">
          <tspan x="12.61" y="34" dominant-baseline="ideographic">Witness Testimonies</tspan>
        </text>
      </g>
    </g>
  </g>
  <g id="g-root-tx_missingb_1uuailz1c272ml-stroke-fill" data-item-order="0" transform="translate(152, 398)">
    <g id="tx_missingb_1uuailz1c272ml-fill" stroke="none" fill="#2c2c2c">
      <g>
        <text style="font: 15px Roboto, sans-serif; white-space: pre;" font-size="15px" font-family="Roboto, sans-serif">
          <tspan x="19.84" y="31" dominant-baseline="ideographic">Missing bullet evidence</tspan>
        </text>
      </g>
    </g>
  </g>
  <g id="g-root-tx_lackofme_1qeh0hj1c273eu-stroke-fill" data-item-order="0" transform="translate(149, 452)">
    <g id="tx_lackofme_1qeh0hj1c273eu-fill" stroke="none" fill="#2c2c2c">
      <g>
        <text style="font: 15px Roboto, sans-serif; white-space: pre;" font-size="15px" font-family="Roboto, sans-serif">
          <tspan x="11.78" y="28" dominant-baseline="ideographic">Lack of medical record </tspan>
          <tspan x="90.42" y="46" dominant-baseline="ideographic">verification</tspan>
        </text>
      </g>
    </g>
  </g>
  <g id="g-root-tx_research_1hjghbr1c2711r-stroke-fill" data-item-order="0" transform="translate(146, 524)">
    <g id="tx_research_1hjghbr1c2711r-fill" stroke="none" fill="#2c2c2c">
      <g>
        <text style="font: bold 20px Roboto, sans-serif; white-space: pre;" font-weight="bold" font-size="20px" font-family="Roboto, sans-serif">
          <tspan x="17.02" y="34" dominant-baseline="ideographic">Research Gaps</tspan>
        </text>
      </g>
    </g>
  </g>
  <g id="g-root-tx_margeryh_1d3mz7b1c271u0-stroke-fill" data-item-order="0" transform="translate(137, 218)">
    <g id="tx_margeryh_1d3mz7b1c271u0-fill" stroke="none" fill="#2c2c2c">
      <g>
        <text style="font: 15px Roboto, sans-serif; white-space: pre;" font-size="15px" font-family="Roboto, sans-serif">
          <tspan x="23.44" y="31" dominant-baseline="ideographic">Margery Higdon's book</tspan>
        </text>
      </g>
    </g>
  </g>
  <g id="g-root-tx_drsprink_zs6gtz1c273ex-stroke-fill" data-item-order="0" transform="translate(176, 278)">
    <g id="tx_drsprink_zs6gtz1c273ex-fill" stroke="none" fill="#2c2c2c">
      <g>
        <text style="font: 15px Roboto, sans-serif; white-space: pre;" font-size="15px" font-family="Roboto, sans-serif">
          <tspan x="15.38" y="31" dominant-baseline="ideographic">Dr. Sprinkle's reports</tspan>
        </text>
      </g>
    </g>
  </g>
  <g id="g-root-tx_primarys_v2zuev1c28flu-stroke-fill" data-item-order="0" transform="translate(134, 152)">
    <g id="tx_primarys_v2zuev1c28flu-fill" stroke="none" fill="#2c2c2c">
      <g>
        <text style="font: bold 20px Roboto, sans-serif; white-space: pre;" font-weight="bold" font-size="20px" font-family="Roboto, sans-serif">
          <tspan x="14.48" y="34" dominant-baseline="ideographic">Primary Sources</tspan>
        </text>
      </g>
    </g>
  </g>
  <g id="g-root-tx_analyzin_m7cu5z1c28gej-stroke-fill" data-item-order="0" transform="translate(170, 50)">
    <g id="tx_analyzin_m7cu5z1c28gej-fill" stroke="none" fill="#f4f4f4">
      <g>
        <text style="font: bold 20px Roboto, sans-serif; white-space: pre;" font-weight="bold" font-size="20px" font-family="Roboto, sans-serif">
          <tspan x="16.76" y="34" dominant-baseline="ideographic">Analyzing the Carl Higdon Alien Encounter Case</tspan>
        </text>
      </g>
    </g>
  </g>
</svg>
