<svg width="912" height="576" viewBox="0 0 912 576" style="fill:none;stroke:none;fill-rule:evenodd;clip-rule:evenodd;stroke-linecap:round;stroke-linejoin:round;stroke-miterlimit:1.5;" version="1.1" xmlns="http://www.w3.org/2000/svg" xmlns:xlink="http://www.w3.org/1999/xlink"><style class="text-font-style fontImports" data-font-family="Roboto">@import url('https://fonts.googleapis.com/css2?family=Roboto:wght@400;700&amp;display=block');</style><g id="g-root-tf_1hegomv1c25ngs-stroke-fill" data-item-order="-490176" transform="translate(12, 12)"></g><g id="g-root-cp_5_g-5_8xrr1z1c1x7uq-stroke-fill" data-item-order="-383030" transform="translate(230, 362)"><g id="cp_5_g-5_8xrr1z1c1x7uq-fill" stroke="none" fill="none"><g><path d="M 226 34L 226 10L 305.5 82L 226 154L 226 130L 131 130C 61.9645 130 10 79.0356 10 10.000008L 106.0001 10C 106.0001 23.8071 117.193 33.9999 131 34L 226 34Z"></path></g></g><g id="cp_5_g-5_8xrr1z1c1x7uq-stroke" fill="none" stroke-linecap="round" stroke-linejoin="round" stroke-miterlimit="4" stroke="#8769fd" stroke-width="2"><g><path d="M 226.0001 34L 226.0001 10L 305.5002 82L 226.0001 154L 226.0001 130.0001L 131.0001 130C 61.9645 130 10 79.0356 10 10L 106.0001 10C 106.0001 23.8071 117.1931 33.9999 131.0001 34L 226.0001 34Z"></path></g></g><g id="cp_5_g-5_8xrr1z1c1x7uq-stroke-overlay" fill="none" stroke-linecap="round" stroke-linejoin="round" stroke-miterlimit="4" stroke="#3300fc5e" stroke-width="2" stroke-dasharray="4,6"><animate attributeName="stroke-dashoffset" values="30;0" dur="1s" repeatCount="indefinite" begin="0"></animate><g><path d="M 226.0001 34L 226.0001 10L 305.5002 82L 226.0001 154L 226.0001 130.0001L 131.0001 130C 61.9645 130 10 79.0356 10 10L 106.0001 10C 106.0001 23.8071 117.1931 33.9999 131.0001 34L 226.0001 34Z"></path></g></g></g><g id="g-root-cp_4_g-4_24qt31c1x8ng-stroke-fill" data-item-order="-383026" transform="translate(230, 242)"><g id="cp_4_g-4_24qt31c1x8ng-fill" stroke="none" fill="none"><g><path d="M 226 10.000008L 131 10C 61.9645 9.999991 10.000006 60.9644 10 130L 106.0001 130C 106.0001 116.193 117.193 106.0001 131 106L 226 106L 226 10.000008Z"></path></g></g><g id="cp_4_g-4_24qt31c1x8ng-stroke" fill="none" stroke-linecap="round" stroke-linejoin="round" stroke-miterlimit="4" stroke="#1ac3fb" stroke-width="2"><g><path d="M 226.0001 10L 131.0001 10C 61.9645 10 10 60.9644 10 130L 106.0001 130C 106.0001 116.1929 117.1931 106.0001 131.0001 106L 226.0001 106L 226.0001 10Z"></path></g></g><g id="cp_4_g-4_24qt31c1x8ng-stroke-overlay" fill="none" stroke-linecap="round" stroke-linejoin="round" stroke-miterlimit="4" stroke="#00ade7d7" stroke-width="2" stroke-dasharray="4,6"><animate attributeName="stroke-dashoffset" values="30;0" dur="1s" repeatCount="indefinite" begin="0"></animate><g><path d="M 226.0001 10L 131.0001 10C 61.9645 10 10 60.9644 10 130L 106.0001 130C 106.0001 116.1929 117.1931 106.0001 131.0001 106L 226.0001 106L 226.0001 10Z"></path></g></g></g><g id="g-root-cp_3_g-3_1unfanr1c1x98m-stroke-fill" data-item-order="-383022" transform="translate(446, 218)"><g id="cp_3_g-3_1unfanr1c1x98m-fill" stroke="none" fill="none"><g><path d="M 10 130L 105 130C 174.036 130 226 79.0356 226 10.000008L 130 10C 130 23.8071 118.807 33.9999 105 34L 10 34L 10 130Z"></path></g></g><g id="cp_3_g-3_1unfanr1c1x98m-stroke" fill="none" stroke-linecap="round" stroke-linejoin="round" stroke-miterlimit="4" stroke="#a6da37" stroke-width="2"><g><path d="M 10 130L 105 130C 174.0356 130 226.0001 79.0356 226.0001 10L 130 10C 130 23.8071 118.8071 33.9999 105 34L 10 34L 10 130Z"></path></g></g><g id="cp_3_g-3_1unfanr1c1x98m-stroke-overlay" fill="none" stroke-linecap="round" stroke-linejoin="round" stroke-miterlimit="4" stroke="#6b9d0056" stroke-width="2" stroke-dasharray="4,6"><animate attributeName="stroke-dashoffset" values="30;0" dur="1s" repeatCount="indefinite" begin="0"></animate><g><path d="M 10 130L 105 130C 174.0356 130 226.0001 79.0356 226.0001 10L 130 10C 130 23.8071 118.8071 33.9999 105 34L 10 34L 10 130Z"></path></g></g></g><g id="g-root-cp_2_g-2_1q889mf1c1x6v4-stroke-fill" data-item-order="-383018" transform="translate(446, 98)"><g id="cp_2_g-2_1q889mf1c1x6v4-fill" stroke="none" fill="none"><g><path d="M 10 10L 105 10C 174.036 9.999997 226 60.9644 226 130L 130 130C 130 116.193 118.807 106.0001 105 106L 10 106L 10 10Z"></path></g></g><g id="cp_2_g-2_1q889mf1c1x6v4-stroke" fill="none" stroke-linecap="round" stroke-linejoin="round" stroke-miterlimit="4" stroke="#43dd93" stroke-width="2"><g><path d="M 10 10L 105 10C 174.0356 10 226.0001 60.9644 226.0001 130L 130 130C 130 116.1929 118.8071 106.0001 105 106L 10 106L 10 10Z"></path></g></g><g id="cp_2_g-2_1q889mf1c1x6v4-stroke-overlay" fill="none" stroke-linecap="round" stroke-linejoin="round" stroke-miterlimit="4" stroke="#00c5676e" stroke-width="2" stroke-dasharray="4,6"><animate attributeName="stroke-dashoffset" values="30;0" dur="1s" repeatCount="indefinite" begin="0"></animate><g><path d="M 10 10L 105 10C 174.0356 10 226.0001 60.9644 226.0001 130L 130 130C 130 116.1929 118.8071 106.0001 105 106L 10 106L 10 10Z"></path></g></g></g><g id="g-root-cp_1_g-1_1q889mf1c1x6v6-stroke-fill" data-item-order="-383014" transform="translate(230, 98)"><g id="cp_1_g-1_1q889mf1c1x6v6-fill" stroke="none" fill="none"><g><path d="M 10 10L 226 10L 226 106L 10 106L 10 10Z"></path></g></g><g id="cp_1_g-1_1q889mf1c1x6v6-stroke" fill="none" stroke-linecap="round" stroke-linejoin="round" stroke-miterlimit="4" stroke="#4f91fc" stroke-width="2"><g><path d="M 10 10L 226 10L 226 106L 10 106L 10 10Z"></path></g></g><g id="cp_1_g-1_1q889mf1c1x6v6-stroke-overlay" fill="none" stroke-linecap="round" stroke-linejoin="round" stroke-miterlimit="4" stroke="#0060fb7c" stroke-width="2" stroke-dasharray="4,6"><animate attributeName="stroke-dashoffset" values="30;0" dur="1s" repeatCount="indefinite" begin="0"></animate><g><path d="M 10 10L 226 10L 226 106L 10 106L 10 10Z"></path></g></g></g><g id="g-root-tx_thecarlh_1cwrr931c1x8g4-stroke-fill" data-item-order="0" transform="translate(254, 50)"><g id="tx_thecarlh_1cwrr931c1x8g4-fill" stroke="none" fill="#f4f4f4"><g><text style="font: 20px Roboto, sans-serif; white-space: pre;" font-size="20px" font-family="Roboto, sans-serif"><tspan x="17.69" y="34" dominant-baseline="ideographic">The Carl Higdon Alien Encounter Timeline</tspan></text></g></g><g id="tx_thecarlh_1cwrr931c1x8g4-fill-overlay" stroke="none" fill="url(#crawlingPattern-0000001b)"><g><text style="font: 20px Roboto, sans-serif; white-space: pre;" font-size="20px" font-family="Roboto, sans-serif"><tspan x="17.69" y="34" dominant-baseline="ideographic">The Carl Higdon Alien Encounter Timeline</tspan></text></g></g></g><g id="g-root-ic_forr_zlxpyv1c1x6v9-stroke-fill" data-item-order="0" transform="translate(308, 116)"><g id="ic_forr_zlxpyv1c1x6v9-stroke" fill="none" stroke-linecap="round" stroke-linejoin="round" stroke-miterlimit="4" stroke="#4f91fc" stroke-width="2"><g><path d="M 37.532497 46.25L 42.532497 46.25L 42.532497 68.75L 63.857498 68.75C 64.303169 68.751289 64.719284 68.527176 64.963463 68.15435C 65.207642 67.781517 65.246788 67.310516 65.067505 66.902496L 41.25 12.045C 41.042511 11.561392 40.566238 11.248466 40.040001 11.25L 40.040001 11.25C 39.514359 11.248037 39.03825 11.559871 38.829998 12.0425L 14.9325 66.902496C 14.754781 67.310165 14.794282 67.779907 15.037585 68.152168C 15.280889 68.524429 15.695284 68.749153 16.139999 68.75L 37.532497 68.75ZM 42.532497 53.102497L 48.625 49.790001M 37.532497 55.452499L 31.75 52.345001M 42.532497 59.077499L 52.532501 53.974998"></path></g></g><g id="ic_forr_zlxpyv1c1x6v9-stroke-overlay" fill="none" stroke-linecap="round" stroke-linejoin="round" stroke-miterlimit="4" stroke="#0060fb7c" stroke-width="2" stroke-dasharray="4,6"><animate attributeName="stroke-dashoffset" values="30;0" dur="1s" repeatCount="indefinite" begin="0"></animate><g><path d="M 37.532497 46.25L 42.532497 46.25L 42.532497 68.75L 63.857498 68.75C 64.303169 68.751289 64.719284 68.527176 64.963463 68.15435C 65.207642 67.781517 65.246788 67.310516 65.067505 66.902496L 41.25 12.045C 41.042511 11.561392 40.566238 11.248466 40.040001 11.25L 40.040001 11.25C 39.514359 11.248037 39.03825 11.559871 38.829998 12.0425L 14.9325 66.902496C 14.754781 67.310165 14.794282 67.779907 15.037585 68.152168C 15.280889 68.524429 15.695284 68.749153 16.139999 68.75L 37.532497 68.75ZM 42.532497 53.102497L 48.625 49.790001M 37.532497 55.452499L 31.75 52.345001M 42.532497 59.077499L 52.532501 53.974998"></path></g></g></g><g id="g-root-ic_book_1414r071c1ymmm-stroke-fill" data-item-order="0" transform="translate(308, 260)"><g id="ic_book_1414r071c1ymmm-stroke" fill="none" stroke-linecap="round" stroke-linejoin="round" stroke-miterlimit="4" stroke="#1ac3fb" stroke-width="2"><g><path d="M 60 11.25L 21.25 11.25C 19.178932 11.25 17.5 12.928932 17.5 15C 17.5 17.071068 19.178932 18.75 21.25 18.75L 61.25 18.75C 61.940353 18.75 62.5 19.309645 62.5 20L 62.5 67.5C 62.5 68.190353 61.940353 68.75 61.25 68.75L 22.5 68.75C 19.738577 68.75 17.5 66.511429 17.5 63.75L 17.5 15M 44.6325 50.475002C 47.880493 50.803024 51.150497 50.119331 53.995003 48.517502C 54.316124 48.336872 54.541203 48.023773 54.610119 47.661842C 54.679035 47.299904 54.58477 46.926003 54.352497 46.639999C 53.27 45.369999 52.519997 43.695 52.1875 38.807499C 51.560001 29.5175 45.2925 26.25 39.91 26.25C 34.5275 26.25 28.262499 29.5175 27.6325 38.807499C 27.3025 43.695 26.549999 45.369999 25.467499 46.639999C 25.235229 46.926003 25.140963 47.299904 25.209881 47.661842C 25.278797 48.023773 25.503878 48.336872 25.825001 48.517498C 28.669966 50.118095 31.939575 50.801701 35.1875 50.475002M 53.267498 56.790001C 51.135002 55.91 48.612499 55.0075 45.869999 53.9925C 45.12344 53.721489 44.624653 53.014206 44.619999 52.219997L 44.619999 48.77C 44.619362 48.237892 44.843643 47.730297 45.237499 47.372501C 46.661194 46.073982 47.466377 44.23188 47.452499 42.305L 47.452499 39.555C 47.453499 38.467346 46.742916 37.50705 45.702499 37.189999C 43.839546 36.611717 42.141617 35.596905 40.75 34.23C 40.27383 33.77951 39.528667 33.77951 39.052502 34.23C 37.655815 35.59623 35.952595 36.608559 34.085003 37.182499C 33.044582 37.499546 32.334 38.45985 32.334999 39.547501L 32.334999 42.297501C 32.321754 44.224251 33.126827 46.066105 34.549999 47.365002C 34.943855 47.722797 35.16814 48.230392 35.1675 48.762501L 35.1675 52.212502C 35.16478 53.003517 34.671635 53.709866 33.93 53.985001C 31.18 55 28.6675 55.9025 26.532499 56.782497"></path></g></g><g id="ic_book_1414r071c1ymmm-stroke-overlay" fill="none" stroke-linecap="round" stroke-linejoin="round" stroke-miterlimit="4" stroke="#00ade7d7" stroke-width="2" stroke-dasharray="4,6"><animate attributeName="stroke-dashoffset" values="30;0" dur="1s" repeatCount="indefinite" begin="0"></animate><g><path d="M 60 11.25L 21.25 11.25C 19.178932 11.25 17.5 12.928932 17.5 15C 17.5 17.071068 19.178932 18.75 21.25 18.75L 61.25 18.75C 61.940353 18.75 62.5 19.309645 62.5 20L 62.5 67.5C 62.5 68.190353 61.940353 68.75 61.25 68.75L 22.5 68.75C 19.738577 68.75 17.5 66.511429 17.5 63.75L 17.5 15M 44.6325 50.475002C 47.880493 50.803024 51.150497 50.119331 53.995003 48.517502C 54.316124 48.336872 54.541203 48.023773 54.610119 47.661842C 54.679035 47.299904 54.58477 46.926003 54.352497 46.639999C 53.27 45.369999 52.519997 43.695 52.1875 38.807499C 51.560001 29.5175 45.2925 26.25 39.91 26.25C 34.5275 26.25 28.262499 29.5175 27.6325 38.807499C 27.3025 43.695 26.549999 45.369999 25.467499 46.639999C 25.235229 46.926003 25.140963 47.299904 25.209881 47.661842C 25.278797 48.023773 25.503878 48.336872 25.825001 48.517498C 28.669966 50.118095 31.939575 50.801701 35.1875 50.475002M 53.267498 56.790001C 51.135002 55.91 48.612499 55.0075 45.869999 53.9925C 45.12344 53.721489 44.624653 53.014206 44.619999 52.219997L 44.619999 48.77C 44.619362 48.237892 44.843643 47.730297 45.237499 47.372501C 46.661194 46.073982 47.466377 44.23188 47.452499 42.305L 47.452499 39.555C 47.453499 38.467346 46.742916 37.50705 45.702499 37.189999C 43.839546 36.611717 42.141617 35.596905 40.75 34.23C 40.27383 33.77951 39.528667 33.77951 39.052502 34.23C 37.655815 35.59623 35.952595 36.608559 34.085003 37.182499C 33.044582 37.499546 32.334 38.45985 32.334999 39.547501L 32.334999 42.297501C 32.321754 44.224251 33.126827 46.066105 34.549999 47.365002C 34.943855 47.722797 35.16814 48.230392 35.1675 48.762501L 35.1675 52.212502C 35.16478 53.003517 34.671635 53.709866 33.93 53.985001C 31.18 55 28.6675 55.9025 26.532499 56.782497"></path></g></g></g><g id="g-root-ic_500_1uoo8tz1c2026f-stroke-fill" data-item-order="0" transform="translate(308, 404)"><g id="ic_500_1uoo8tz1c2026f-stroke" fill="none" stroke-linecap="round" stroke-linejoin="round" stroke-miterlimit="4" stroke="#8769fd" stroke-width="2"><g><path d="M 38.75 33.75C 38.404823 33.75 38.125 34.029823 38.125 34.375C 38.125 34.720177 38.404823 35 38.75 35C 39.095177 35 39.375 34.720177 39.375 34.375C 39.375 34.029823 39.095177 33.75 38.75 33.75L 38.75 33.75M 38.75 28.75L 38.75 21.25M 40.845001 13.75C 40.432045 12.976686 39.626667 12.49375 38.75 12.49375C 37.873333 12.49375 37.067955 12.976686 36.655003 13.75L 24.014999 37.842499C 23.635159 38.564331 23.664623 39.433064 24.092499 40.127499C 24.524626 40.826439 25.288269 41.251316 26.110001 41.250004L 51.389999 41.25C 52.211113 41.251369 52.97443 40.827621 53.407501 40.130001C 53.835373 39.435566 53.864841 38.56683 53.484997 37.844997ZM 28.75 48.75L 16.25 48.75L 16.25 56.25C 16.25 57.630711 17.369287 58.75 18.75 58.75L 23.75 58.75C 26.511423 58.75 28.75 60.988575 28.75 63.75C 28.75 66.511429 26.511423 68.75 23.75 68.75L 16.25 68.75M 46.25 62.5C 46.25 65.951782 43.451782 68.75 40 68.75C 36.548222 68.75 33.75 65.951782 33.75 62.5L 33.75 55C 33.75 51.548218 36.548222 48.75 40 48.75C 43.451782 48.75 46.25 51.548218 46.25 55ZM 63.75 62.5C 63.75 65.951782 60.951782 68.75 57.5 68.75C 54.048218 68.75 51.25 65.951782 51.25 62.5L 51.25 55C 51.25 51.548218 54.048218 48.75 57.5 48.75C 60.951782 48.75 63.75 51.548218 63.75 55Z"></path></g></g><g id="ic_500_1uoo8tz1c2026f-stroke-overlay" fill="none" stroke-linecap="round" stroke-linejoin="round" stroke-miterlimit="4" stroke="#3300fc5e" stroke-width="2" stroke-dasharray="4,6"><animate attributeName="stroke-dashoffset" values="30;0" dur="1s" repeatCount="indefinite" begin="0"></animate><g><path d="M 38.75 33.75C 38.404823 33.75 38.125 34.029823 38.125 34.375C 38.125 34.720177 38.404823 35 38.75 35C 39.095177 35 39.375 34.720177 39.375 34.375C 39.375 34.029823 39.095177 33.75 38.75 33.75L 38.75 33.75M 38.75 28.75L 38.75 21.25M 40.845001 13.75C 40.432045 12.976686 39.626667 12.49375 38.75 12.49375C 37.873333 12.49375 37.067955 12.976686 36.655003 13.75L 24.014999 37.842499C 23.635159 38.564331 23.664623 39.433064 24.092499 40.127499C 24.524626 40.826439 25.288269 41.251316 26.110001 41.250004L 51.389999 41.25C 52.211113 41.251369 52.97443 40.827621 53.407501 40.130001C 53.835373 39.435566 53.864841 38.56683 53.484997 37.844997ZM 28.75 48.75L 16.25 48.75L 16.25 56.25C 16.25 57.630711 17.369287 58.75 18.75 58.75L 23.75 58.75C 26.511423 58.75 28.75 60.988575 28.75 63.75C 28.75 66.511429 26.511423 68.75 23.75 68.75L 16.25 68.75M 46.25 62.5C 46.25 65.951782 43.451782 68.75 40 68.75C 36.548222 68.75 33.75 65.951782 33.75 62.5L 33.75 55C 33.75 51.548218 36.548222 48.75 40 48.75C 43.451782 48.75 46.25 51.548218 46.25 55ZM 63.75 62.5C 63.75 65.951782 60.951782 68.75 57.5 68.75C 54.048218 68.75 51.25 65.951782 51.25 62.5L 51.25 55C 51.25 51.548218 54.048218 48.75 57.5 48.75C 60.951782 48.75 63.75 51.548218 63.75 55Z"></path></g></g></g><g id="g-root-ic_file_v8m46v1c21fd4-stroke-fill" data-item-order="0" transform="translate(524, 116)"><g id="ic_file_v8m46v1c21fd4-stroke" fill="none" stroke-linecap="round" stroke-linejoin="round" stroke-miterlimit="4" stroke="#43dd93" stroke-width="2"><g><path d="M 51.25 38.75L 51.25 50L 43.599998 56.695C 42.106537 58.00108 41.249866 59.888493 41.249996 61.872498L 41.25 61.872501C 41.248619 65.669464 44.325542 68.748619 48.122501 68.75L 61.872501 68.75C 65.669464 68.75 68.747498 65.671959 68.747498 61.875L 68.747498 61.875C 68.747871 59.892193 67.892143 58.005772 66.400002 56.700001L 58.75 50L 58.75 38.75M 41.474998 63.614998L 46.5825 61.0825C 49.497356 59.623055 52.948738 59.716869 55.780006 61.332504L 55.779999 61.332504C 58.434097 62.850571 61.646614 63.035675 64.457504 61.832504L 68.5 60.050003M 36.25 61.25L 13.75 61.25C 12.369288 61.25 11.25 60.130711 11.25 58.75L 11.25 21.25C 11.25 19.869287 12.369288 18.75 13.75 18.75L 21.25 18.75M 41.25 18.75L 48.75 18.75C 50.130711 18.75 51.25 19.869287 51.25 21.25L 51.25 33.75M 36.25 16.25C 36.25 13.488576 34.011425 11.25 31.25 11.25C 28.488577 11.25 26.25 13.488576 26.25 16.25L 22.5 16.25C 21.809643 16.25 21.25 16.809645 21.25 17.5L 21.25 25C 21.25 25.690357 21.809643 26.25 22.5 26.25L 40 26.25C 40.690353 26.25 41.25 25.690357 41.25 25L 41.25 17.5C 41.25 16.809645 40.690353 16.25 40 16.25ZM 47.5 38.75L 62.5 38.75M 22.5 33.75L 40 33.75M 22.5 41.25L 33.125 41.25M 40 53.75L 16.25 53.75L 16.25 23.75L 21.25 23.75M 41.25 23.75L 46.25 23.75L 46.25 33.75"></path></g></g><g id="ic_file_v8m46v1c21fd4-stroke-overlay" fill="none" stroke-linecap="round" stroke-linejoin="round" stroke-miterlimit="4" stroke="#00c5676e" stroke-width="2" stroke-dasharray="4,6"><animate attributeName="stroke-dashoffset" values="30;0" dur="1s" repeatCount="indefinite" begin="0"></animate><g><path d="M 51.25 38.75L 51.25 50L 43.599998 56.695C 42.106537 58.00108 41.249866 59.888493 41.249996 61.872498L 41.25 61.872501C 41.248619 65.669464 44.325542 68.748619 48.122501 68.75L 61.872501 68.75C 65.669464 68.75 68.747498 65.671959 68.747498 61.875L 68.747498 61.875C 68.747871 59.892193 67.892143 58.005772 66.400002 56.700001L 58.75 50L 58.75 38.75M 41.474998 63.614998L 46.5825 61.0825C 49.497356 59.623055 52.948738 59.716869 55.780006 61.332504L 55.779999 61.332504C 58.434097 62.850571 61.646614 63.035675 64.457504 61.832504L 68.5 60.050003M 36.25 61.25L 13.75 61.25C 12.369288 61.25 11.25 60.130711 11.25 58.75L 11.25 21.25C 11.25 19.869287 12.369288 18.75 13.75 18.75L 21.25 18.75M 41.25 18.75L 48.75 18.75C 50.130711 18.75 51.25 19.869287 51.25 21.25L 51.25 33.75M 36.25 16.25C 36.25 13.488576 34.011425 11.25 31.25 11.25C 28.488577 11.25 26.25 13.488576 26.25 16.25L 22.5 16.25C 21.809643 16.25 21.25 16.809645 21.25 17.5L 21.25 25C 21.25 25.690357 21.809643 26.25 22.5 26.25L 40 26.25C 40.690353 26.25 41.25 25.690357 41.25 25L 41.25 17.5C 41.25 16.809645 40.690353 16.25 40 16.25ZM 47.5 38.75L 62.5 38.75M 22.5 33.75L 40 33.75M 22.5 41.25L 33.125 41.25M 40 53.75L 16.25 53.75L 16.25 23.75L 21.25 23.75M 41.25 23.75L 46.25 23.75L 46.25 33.75"></path></g></g></g><g id="g-root-ic_ufo_1qbz4531c22u4p-stroke-fill" data-item-order="0" transform="translate(524, 260)"><g id="ic_ufo_1qbz4531c22u4p-stroke" fill="none" stroke-linecap="round" stroke-linejoin="round" stroke-miterlimit="4" stroke="#a6da37" stroke-width="2"><g><path d="M 58.75 25.625C 63.722324 25.6238 67.940201 29.2761 68.649994 34.197498C 68.701813 34.558517 68.593361 34.924156 68.353088 35.198547C 68.112823 35.472931 67.764694 35.628696 67.399994 35.625L 12.5875 35.625C 12.222802 35.628696 11.874679 35.472931 11.634409 35.198547C 11.39414 34.924156 11.285691 34.558517 11.3375 34.197498C 12.047972 29.271397 16.272932 25.617579 21.25 25.625ZM 21.25 25.625C 21.25 19.375 29.645 11.875 40 11.875C 50.355 11.875 58.75 19.375 58.75 25.625M 57.212502 46.875L 63.744999 68.125M 16.244999 68.125L 22.790001 46.875M 41.244999 59.375L 37.494999 64.565002M 44.994999 64.375L 41.244999 59.375M 37.494999 55.625L 44.994999 55.625M 41.25 49.375C 41.940353 49.375 42.5 49.934647 42.5 50.625M 40 50.625C 40 49.934647 40.559647 49.375 41.25 49.375M 41.25 51.875C 40.559647 51.875 40 51.315353 40 50.625M 42.5 50.625C 42.5 51.315353 41.940353 51.875 41.25 51.875M 41.244999 59.375L 41.244999 55.625M 28.75 35.625C 28.75 39.076778 25.95178 41.875 22.5 41.875C 19.04822 41.875 16.25 39.076778 16.25 35.625M 46.25 35.625C 46.25 39.076778 43.451782 41.875 40 41.875C 36.548222 41.875 33.75 39.076778 33.75 35.625M 63.75 35.625C 63.75 39.076778 60.951782 41.875 57.5 41.875C 54.048218 41.875 51.25 39.076778 51.25 35.625"></path></g></g><g id="ic_ufo_1qbz4531c22u4p-stroke-overlay" fill="none" stroke-linecap="round" stroke-linejoin="round" stroke-miterlimit="4" stroke="#6b9d0056" stroke-width="2" stroke-dasharray="4,6"><animate attributeName="stroke-dashoffset" values="30;0" dur="1s" repeatCount="indefinite" begin="0"></animate><g><path d="M 58.75 25.625C 63.722324 25.6238 67.940201 29.2761 68.649994 34.197498C 68.701813 34.558517 68.593361 34.924156 68.353088 35.198547C 68.112823 35.472931 67.764694 35.628696 67.399994 35.625L 12.5875 35.625C 12.222802 35.628696 11.874679 35.472931 11.634409 35.198547C 11.39414 34.924156 11.285691 34.558517 11.3375 34.197498C 12.047972 29.271397 16.272932 25.617579 21.25 25.625ZM 21.25 25.625C 21.25 19.375 29.645 11.875 40 11.875C 50.355 11.875 58.75 19.375 58.75 25.625M 57.212502 46.875L 63.744999 68.125M 16.244999 68.125L 22.790001 46.875M 41.244999 59.375L 37.494999 64.565002M 44.994999 64.375L 41.244999 59.375M 37.494999 55.625L 44.994999 55.625M 41.25 49.375C 41.940353 49.375 42.5 49.934647 42.5 50.625M 40 50.625C 40 49.934647 40.559647 49.375 41.25 49.375M 41.25 51.875C 40.559647 51.875 40 51.315353 40 50.625M 42.5 50.625C 42.5 51.315353 41.940353 51.875 41.25 51.875M 41.244999 59.375L 41.244999 55.625M 28.75 35.625C 28.75 39.076778 25.95178 41.875 22.5 41.875C 19.04822 41.875 16.25 39.076778 16.25 35.625M 46.25 35.625C 46.25 39.076778 43.451782 41.875 40 41.875C 36.548222 41.875 33.75 39.076778 33.75 35.625M 63.75 35.625C 63.75 39.076778 60.951782 41.875 57.5 41.875C 54.048218 41.875 51.25 39.076778 51.25 35.625"></path></g></g></g><g id="g-root-tx_october2_zk2apj1c25one-stroke-fill" data-item-order="0" transform="translate(38, 110)"><g id="tx_october2_zk2apj1c25one-fill" stroke="none" fill="#f4f4f4"><g><text style="font: bold 20px Roboto, sans-serif; white-space: pre;" font-weight="bold" font-size="20px" font-family="Roboto, sans-serif"><tspan x="20.91" y="34" dominant-baseline="ideographic">October 25, 1974</tspan></text></g></g><g id="tx_october2_zk2apj1c25one-fill-overlay" stroke="none" fill="url(#crawlingPattern-0000001b)"><g><text style="font: bold 20px Roboto, sans-serif; white-space: pre;" font-weight="bold" font-size="20px" font-family="Roboto, sans-serif"><tspan x="20.91" y="34" dominant-baseline="ideographic">October 25, 1974</tspan></text></g></g></g><g id="g-root-tx_carlhigd_m989fb1c25n2j-stroke-fill" data-item-order="0" transform="translate(26, 146)"><g id="tx_carlhigd_m989fb1c25n2j-fill" stroke="none" fill="#f4f4f4"><g><text style="font: 15px Roboto, sans-serif; white-space: pre;" font-size="15px" font-family="Roboto, sans-serif"><tspan x="13.16" y="28" dominant-baseline="ideographic">Carl Higdon's alleged alien </tspan><tspan x="120.84" y="46" dominant-baseline="ideographic">encounter</tspan></text></g></g><g id="tx_carlhigd_m989fb1c25n2j-fill-overlay" stroke="none" fill="url(#crawlingPattern-0000001b)"><g><text style="font: 15px Roboto, sans-serif; white-space: pre;" font-size="15px" font-family="Roboto, sans-serif"><tspan x="13.16" y="28" dominant-baseline="ideographic">Carl Higdon's alleged alien </tspan><tspan x="120.84" y="46" dominant-baseline="ideographic">encounter</tspan></text></g></g></g><g id="g-root-tx_2017_8xrr1z1c25ong-stroke-fill" data-item-order="0" transform="translate(146, 254)"><g id="tx_2017_8xrr1z1c25ong-fill" stroke="none" fill="#f4f4f4"><g><text style="font: bold 20px Roboto, sans-serif; white-space: pre;" font-weight="bold" font-size="20px" font-family="Roboto, sans-serif"><tspan x="22.09" y="34" dominant-baseline="ideographic">2017</tspan></text></g></g><g id="tx_2017_8xrr1z1c25ong-fill-overlay" stroke="none" fill="url(#crawlingPattern-0000001b)"><g><text style="font: bold 20px Roboto, sans-serif; white-space: pre;" font-weight="bold" font-size="20px" font-family="Roboto, sans-serif"><tspan x="22.09" y="34" dominant-baseline="ideographic">2017</tspan></text></g></g></g><g id="g-root-tx_margeryh_4ikq0n1c25m9x-stroke-fill" data-item-order="0" transform="translate(38, 290)"><g id="tx_margeryh_4ikq0n1c25m9x-fill" stroke="none" fill="#f4f4f4"><g><text style="font: 15px Roboto, sans-serif; white-space: pre;" font-size="15px" font-family="Roboto, sans-serif"><tspan x="23.44" y="28" dominant-baseline="ideographic">Margery Higdon's book </tspan><tspan x="127.64" y="46" dominant-baseline="ideographic">release</tspan></text></g></g><g id="tx_margeryh_4ikq0n1c25m9x-fill-overlay" stroke="none" fill="url(#crawlingPattern-0000001b)"><g><text style="font: 15px Roboto, sans-serif; white-space: pre;" font-size="15px" font-family="Roboto, sans-serif"><tspan x="23.44" y="28" dominant-baseline="ideographic">Margery Higdon's book </tspan><tspan x="127.64" y="46" dominant-baseline="ideographic">release</tspan></text></g></g></g><g id="g-root-tx_october2_1uo1rqv1c25mvi-stroke-fill" data-item-order="0" transform="translate(74, 398)"><g id="tx_october2_1uo1rqv1c25mvi-fill" stroke="none" fill="#f4f4f4"><g><text style="font: bold 20px Roboto, sans-serif; white-space: pre;" font-weight="bold" font-size="20px" font-family="Roboto, sans-serif"><tspan x="17.75" y="34" dominant-baseline="ideographic">October 2025</tspan></text></g></g><g id="tx_october2_1uo1rqv1c25mvi-fill-overlay" stroke="none" fill="url(#crawlingPattern-0000001b)"><g><text style="font: bold 20px Roboto, sans-serif; white-space: pre;" font-weight="bold" font-size="20px" font-family="Roboto, sans-serif"><tspan x="17.75" y="34" dominant-baseline="ideographic">October 2025</tspan></text></g></g></g><g id="g-root-tx_50thanni_1q889mf1c25nnr-stroke-fill" data-item-order="0" transform="translate(38, 434)"><g id="tx_50thanni_1q889mf1c25nnr-fill" stroke="none" fill="#f4f4f4"><g><text style="font: 15px Roboto, sans-serif; white-space: pre;" font-size="15px" font-family="Roboto, sans-serif"><tspan x="23.11" y="28" dominant-baseline="ideographic">50th anniversary of the </tspan><tspan x="108.84" y="46" dominant-baseline="ideographic">encounter</tspan></text></g></g><g id="tx_50thanni_1q889mf1c25nnr-fill-overlay" stroke="none" fill="url(#crawlingPattern-0000001b)"><g><text style="font: 15px Roboto, sans-serif; white-space: pre;" font-size="15px" font-family="Roboto, sans-serif"><tspan x="23.11" y="28" dominant-baseline="ideographic">50th anniversary of the </tspan><tspan x="108.84" y="46" dominant-baseline="ideographic">encounter</tspan></text></g></g></g><g id="g-root-tx_1975_1lserhz1c25og0-stroke-fill" data-item-order="0" transform="translate(686, 110)"><g id="tx_1975_1lserhz1c25og0-fill" stroke="none" fill="#f4f4f4"><g><text style="font: bold 20px Roboto, sans-serif; white-space: pre;" font-weight="bold" font-size="20px" font-family="Roboto, sans-serif"><tspan x="12" y="34" dominant-baseline="ideographic">1975</tspan></text></g></g><g id="tx_1975_1lserhz1c25og0-fill-overlay" stroke="none" fill="url(#crawlingPattern-0000001b)"><g><text style="font: bold 20px Roboto, sans-serif; white-space: pre;" font-weight="bold" font-size="20px" font-family="Roboto, sans-serif"><tspan x="12" y="34" dominant-baseline="ideographic">1975</tspan></text></g></g></g><g id="g-root-tx_drleospr_18hkq7r1c25mv5-stroke-fill" data-item-order="0" transform="translate(686, 146)"><g id="tx_drleospr_18hkq7r1c25mv5-fill" stroke="none" fill="#f4f4f4"><g><text style="font: 15px Roboto, sans-serif; white-space: pre;" font-size="15px" font-family="Roboto, sans-serif"><tspan x="12" y="28" dominant-baseline="ideographic">Dr. Leo Sprinkle's </tspan><tspan x="12" y="46" dominant-baseline="ideographic">preliminary report</tspan></text></g></g><g id="tx_drleospr_18hkq7r1c25mv5-fill-overlay" stroke="none" fill="url(#crawlingPattern-0000001b)"><g><text style="font: 15px Roboto, sans-serif; white-space: pre;" font-size="15px" font-family="Roboto, sans-serif"><tspan x="12" y="28" dominant-baseline="ideographic">Dr. Leo Sprinkle's </tspan><tspan x="12" y="46" dominant-baseline="ideographic">preliminary report</tspan></text></g></g></g><g id="g-root-tx_1977_zlxpyv1c25nnu-stroke-fill" data-item-order="0" transform="translate(686, 260)"><g id="tx_1977_zlxpyv1c25nnu-fill" stroke="none" fill="#f4f4f4"><g><text style="font: bold 20px Roboto, sans-serif; white-space: pre;" font-weight="bold" font-size="20px" font-family="Roboto, sans-serif"><tspan x="12" y="34" dominant-baseline="ideographic">1977</tspan></text></g></g><g id="tx_1977_zlxpyv1c25nnu-fill-overlay" stroke="none" fill="url(#crawlingPattern-0000001b)"><g><text style="font: bold 20px Roboto, sans-serif; white-space: pre;" font-weight="bold" font-size="20px" font-family="Roboto, sans-serif"><tspan x="12" y="34" dominant-baseline="ideographic">1977</tspan></text></g></g></g><g id="g-root-tx_aprorepo_v647uf1c25og3-stroke-fill" data-item-order="0" transform="translate(686, 296)"><g id="tx_aprorepo_v647uf1c25og3-fill" stroke="none" fill="#f4f4f4"><g><text style="font: 15px Roboto, sans-serif; white-space: pre;" font-size="15px" font-family="Roboto, sans-serif"><tspan x="12" y="31" dominant-baseline="ideographic">APRO report publication</tspan></text></g></g><defs><pattern id="crawlingPattern-0000001b" x="0" y="0" width="12" height="12" patternUnits="userSpaceOnUse" fill="#0000001b"><use href="#crawlingSymbol"></use></pattern><symbol id="crawlingSymbol"><g><animateTransform attributeName="transform" type="translate" from="0 0" to="-12 0" dur="0.4s" repeatCount="indefinite"></animateTransform><path d="M -12.5 12.5 l 13 -13 l 6 0 l -13 13 Z M -0.5 12.5 l 13 -13 l 6 0 l -13 13 Z M 11.5 12.5 l 13 -13 l 6 0 l -13 13 Z"></path></g></symbol></defs><g id="tx_aprorepo_v647uf1c25og3-fill-overlay" stroke="none" fill="url(#crawlingPattern-0000001b)"><g><text style="font: 15px Roboto, sans-serif; white-space: pre;" font-size="15px" font-family="Roboto, sans-serif"><tspan x="12" y="31" dominant-baseline="ideographic">APRO report publication</tspan></text></g></g></g></svg>