<?xml version='1.0' encoding='utf-8'?>
<svg xmlns="http://www.w3.org/2000/svg" xmlns:xlink="http://www.w3.org/1999/xlink" width="840" height="708" viewBox="0 0 840 708" style="fill:none;stroke:none;fill-rule:evenodd;clip-rule:evenodd;stroke-linecap:round;stroke-linejoin:round;stroke-miterlimit:1.5;" version="1.1">
  <style class="text-font-style fontImports" data-font-family="Roboto">@import url('https://fonts.googleapis.com/css2?family=Roboto:wght@400;700&amp;display=block');</style>
  <rect x="0" y="0" width="8.4E+2" height="708" fill="#252a34" stroke="none" id="programmatic_background"/>
  <g id="g-root-tf_1lr5whj19a1a0w-stroke-fill" data-item-order="-558144" transform="translate(12, 12)"/>
  <g id="g-root-sy_0_cu_mcz3xz19achkx-stroke-fill" data-item-order="-146156" transform="translate(292, 206.357666015625)">
    <g id="sy_0_cu_mcz3xz19achkx-fill" stroke="none" fill="none">
      <g>
        <path d="M 166.699 244.285C 165.529 242.803 164.274 241.391 162.941 240.058L 129 206.117L 95.0589 240.059C 93.8827 241.235 92.7673 242.472 91.7178 243.764C 66.0029 235.114 44.1819 217.99 29.5746 195.712L 50.0436 155.539L 10.1103 135.192C 10.037 133.471 10 131.74 10 130C 10 101.9785 19.6045 76.2003 35.7012 55.7778L 79.9467 62.7859L 87.0537 17.9135C 100.3881 12.8012 114.867 10 130 10C 144.245 10 157.91 12.4821 170.587 17.0375L 177.833 62.7859L 224.052 55.4652C 240.297 75.937 250 101.8354 250 130C 250 132.063 249.948 134.114 249.845 136.152L 209.833 156.539L 230.068 196.253C 215.162 218.722 192.891 235.88 166.699 244.285Z"/>
      </g>
    </g>
    <g id="sy_0_cu_mcz3xz19achkx-stroke" fill="none" stroke-linecap="round" stroke-linejoin="round" stroke-miterlimit="4" stroke="#d3d3d3" stroke-width="2">
      <g>
        <path d="M 91.7178 243.7642C 66.0029 235.1144 44.1819 217.9903 29.5746 195.7116M 10.1103 135.1924C 10.037 133.4707 10 131.7397 10 130C 10 101.9785 19.6045 76.2003 35.7012 55.7778M 87.0537 17.9135C 100.3881 12.8012 114.8669 10 130 10C 144.2451 10 157.9105 12.4821 170.5872 17.0375M 224.0516 55.4652C 240.2971 75.937 250 101.8354 250 130C 250 132.0633 249.9479 134.1144 249.845 136.1522M 230.0683 196.2531C 215.1623 218.7219 192.8911 235.8804 166.6988 244.2845"/>
      </g>
    </g>
  </g>
  <g id="g-root-sy_5_cu_dhc3p319acidm-stroke-fill" data-item-order="-146152" transform="translate(273.0430908203125, 156.22215270996094)">
    <g id="sy_5_cu_dhc3p319acidm-fill" stroke="none" fill="none">
      <g>
        <path d="M 105.4124 65.512615C 107.3342 53.379515 104.6273 40.513215 96.8362 29.789715C 81.2542 8.342915 51.2365 3.588615 29.7897 19.170615C 8.3429 34.752615 3.5886 64.770315 19.1706 86.217115C 26.9616 96.940515 38.3615 103.490815 50.4946 105.412415L 97.9035 112.922015L 105.4107 65.523515C 105.4112 65.519915 105.4118 65.516315 105.4124 65.512615Z"/>
      </g>
    </g>
    <g id="sy_5_cu_dhc3p319acidm-stroke" fill="none" stroke-linecap="round" stroke-linejoin="round" stroke-miterlimit="4" stroke="#1ac3fb" stroke-width="2">
      <g>
        <path d="M 105.4124 65.512615C 107.3342 53.379515 104.6273 40.513215 96.8362 29.789715C 81.2542 8.342915 51.2365 3.588615 29.7897 19.170615C 8.3429 34.752615 3.5886 64.770315 19.1706 86.217115C 26.9616 96.940515 38.3615 103.490815 50.4946 105.412415L 97.9035 112.921715L 105.4107 65.523515C 105.4112 65.519915 105.4118 65.516315 105.4124 65.512615Z"/>
      </g>
    </g>
  </g>
  <g id="g-root-sy_4_cu_91ilkn19acj5v-stroke-fill" data-item-order="-146148" transform="translate(218.47055053710938, 324.86083984375)">
    <g id="sy_4_cu_91ilkn19acj5v-fill" stroke="none" fill="none">
      <g>
        <path d="M 100.78153 79.8041C 95.20453 90.7497 85.45203 99.5677 72.84583 103.6637C 47.63363 111.856 20.55423 98.058 12.36233 72.8458C 4.17033 47.6336 17.96803 20.5542 43.18013 12.3623C 55.78623 8.2663 68.85913 9.6677 79.80453 15.2447L 122.57303 37.0358L 100.78653 79.7943C 100.78483 79.7976 100.78313 79.8009 100.78153 79.8041Z"/>
      </g>
    </g>
    <g id="sy_4_cu_91ilkn19acj5v-stroke" fill="none" stroke-linecap="round" stroke-linejoin="round" stroke-miterlimit="4" stroke="#f79438" stroke-width="2">
      <g>
        <path d="M 100.78153 79.8041C 95.20453 90.7497 85.45203 99.5677 72.84583 103.6637C 47.63363 111.8556 20.55423 98.058 12.36223 72.8458C 4.17033 47.6336 17.96793 20.5542 43.18013 12.3622C 55.78623 8.2663 68.85913 9.6677 79.80453 15.2446L 122.57303 37.0358L 100.78653 79.7943C 100.78483 79.7976 100.78313 79.8009 100.78153 79.8041Z"/>
      </g>
    </g>
  </g>
  <g id="g-root-sy_3_cu_5vlbr19acjyk-stroke-fill" data-item-order="-146144" transform="translate(362, 402.474853515625)">
    <g id="sy_3_cu_5vlbr19acjyk-fill" stroke="none" fill="none">
      <g>
        <path d="M 91.9408 43.9411C 100.6273 52.6274 106 64.6276 106 77.8825C 106 104.3922 84.5097 125.883 58 125.883C 31.4903 125.883 10 104.3922 10 77.8825C 10 64.6277 15.3726 52.6277 24.0589 43.9414L 57.9997 10L 91.9331 43.9333C 91.9356 43.9359 91.9382 43.9385 91.9408 43.9411Z"/>
      </g>
    </g>
    <g id="sy_3_cu_5vlbr19acjyk-stroke" fill="none" stroke-linecap="round" stroke-linejoin="round" stroke-miterlimit="4" stroke="#a6da37" stroke-width="2">
      <g>
        <path d="M 91.9408 43.9411C 100.6273 52.6274 106 64.6276 106 77.8825C 106 104.3922 84.5097 125.8825 58 125.8825C 31.4903 125.8825 10 104.3922 10 77.8825C 10 64.6277 15.3726 52.6277 24.0589 43.9414L 57.9997 10L 91.9331 43.9333C 91.9356 43.9359 91.9382 43.9385 91.9408 43.9411Z"/>
      </g>
    </g>
  </g>
  <g id="g-root-sy_2_cu_1ursm9j19achdx-stroke-fill" data-item-order="-146140" transform="translate(490.832763671875, 325.8610534667969)">
    <g id="sy_2_cu_1ursm9j19achdx-fill" stroke="none" fill="none">
      <g>
        <path d="M 52.7683 15.244831C 63.7138 9.667731 76.7868 8.266231 89.393 12.362331C 114.605 20.554231 128.403 47.633631 120.211 72.845831C 112.019 98.058031 84.9396 111.856031 59.7274 103.663731C 47.1213 99.567731 37.3688 90.749931 31.7919 79.804531L 10 37.036431L 52.7585 15.249831C 52.7618 15.248231 52.765 15.246531 52.7683 15.244831Z"/>
      </g>
    </g>
    <g id="sy_2_cu_1ursm9j19achdx-stroke" fill="none" stroke-linecap="round" stroke-linejoin="round" stroke-miterlimit="4" stroke="#8769fd" stroke-width="2">
      <g>
        <path d="M 52.7683 15.244831C 63.7138 9.667731 76.7868 8.266231 89.393 12.362231C 114.6052 20.554231 128.4029 47.633631 120.2109 72.845831C 112.019 98.058031 84.9396 111.855631 59.7274 103.663731C 47.1213 99.567731 37.3688 90.749931 31.7919 79.804531L 10 37.036431L 52.7585 15.249831C 52.7618 15.248231 52.765 15.246531 52.7683 15.244831Z"/>
      </g>
    </g>
  </g>
  <g id="g-root-sy_1_cu_1lw5m0n19aci6m-stroke-fill" data-item-order="-146136" transform="translate(450.7297668457031, 156.22215270996094)">
    <g id="sy_1_cu_1lw5m0n19aci6m-fill" stroke="none" fill="none">
      <g>
        <path d="M 10.59443 65.512615C 8.67263 53.379515 11.37953 40.513215 19.17063 29.789715C 34.75263 8.342915 64.77033 3.588615 86.21713 19.170615C 107.66393 34.752615 112.41803 64.770315 96.83623 86.217115C 89.04523 96.940515 77.64533 103.490815 65.51233 105.412415L 18.10333 112.922015L 10.59613 65.523515C 10.59563 65.519915 10.59503 65.516315 10.59443 65.512615Z"/>
      </g>
    </g>
    <g id="sy_1_cu_1lw5m0n19aci6m-stroke" fill="none" stroke-linecap="round" stroke-linejoin="round" stroke-miterlimit="4" stroke="#43dd93" stroke-width="2">
      <g>
        <path d="M 10.59443 65.512615C 8.67263 53.379515 11.37953 40.513215 19.17063 29.789715C 34.75263 8.342915 64.77033 3.588615 86.21713 19.170615C 107.66393 34.752615 112.41823 64.770315 96.83623 86.217115C 89.04523 96.940515 77.64533 103.490815 65.51233 105.412415L 18.10333 112.921715L 10.59613 65.523515C 10.59563 65.519915 10.59503 65.516315 10.59443 65.512615Z"/>
      </g>
    </g>
  </g>
  <g id="g-root-tx_understa_1hgc3w719aciyv-stroke-fill" data-item-order="0" transform="translate(207, 50)">
    <g id="tx_understa_1hgc3w719aciyv-fill" stroke="none" fill="#f4f4f4">
      <g>
        <text style="font: bold 20px Roboto, sans-serif; white-space: pre;" font-weight="bold" font-size="20px" font-family="Roboto, sans-serif">
          <tspan x="14.23" y="34" dominant-baseline="ideographic">Understanding the Carl Higdon Abduction Case</tspan>
        </text>
      </g>
    </g>
  </g>
  <g id="g-root-ic_book_145i2lz19ache0-stroke-fill" data-item-order="0" transform="translate(296, 182)">
    <g id="ic_book_145i2lz19ache0-stroke" fill="none" stroke-linecap="round" stroke-linejoin="round" stroke-miterlimit="4" stroke="#1ac3fb" stroke-width="2">
      <g>
        <path d="M 37.900002 44.818001C 34.008614 44.825146 30.723536 41.927799 30.24444 38.06601C 29.765345 34.204224 32.242836 30.59197 36.017998 29.648001C 36.789856 29.456814 37.586273 29.383984 38.379997 29.431999C 38.838612 29.461689 39.258415 29.174976 39.397621 28.736996C 39.536831 28.299015 39.359596 27.822538 38.968002 27.582001C 34.959541 25.277176 29.937618 25.72517 26.400423 28.703125C 22.863228 31.681078 21.56596 36.553192 23.153952 40.895798C 24.741943 45.238407 28.876158 48.124352 33.5 48.118C 35.410515 48.12112 37.288155 47.621014 38.944 46.667999C 39.348274 46.436897 39.539524 45.957336 39.405235 45.511456C 39.270943 45.065571 38.846657 44.771397 38.382 44.801998C 38.222 44.812 38.062 44.818001 37.900002 44.818001ZM 45.5 39.118L 41.5 34.945999M 41.5 38.945999L 45.5 35.118M 52 11L 20 11C 17.790861 11 16 12.790861 16 15C 16 17.209139 17.790861 19 20 19L 51 19C 51.552284 19 52 19.447716 52 20L 52 56C 52 56.552284 51.552284 57 51 57L 20 57C 17.790861 57 16 55.209141 16 53L 16 15M 20 15L 50 15"/>
      </g>
    </g>
  </g>
  <g id="g-root-ic_2_1d3mz7b19adxjd-stroke-fill" data-item-order="0" transform="translate(242, 350)">
    <g id="ic_2_1d3mz7b19adxjd-stroke" fill="none" stroke-linecap="round" stroke-linejoin="round" stroke-miterlimit="4" stroke="#f79438" stroke-width="2">
      <g>
        <path d="M 31.771601 52.0938C 42.695599 52.0938 51.551201 43.2384 51.551201 32.3144C 51.551201 21.39048 42.695599 12.53492 31.771601 12.53492C 20.847759 12.53492 11.992188 21.39048 11.992188 32.3144C 11.992188 43.2384 20.847759 52.0938 31.771601 52.0938ZM 10 10M 46.181599 45.8536L 56.007198 55.465199M 24.11628 43.736401L 24.11628 36.787201C 22.583641 35.367401 21.514759 33.518402 21.04924 31.4816C 20.5837 29.44488 20.743179 27.3151 21.5068 25.370399C 22.27042 23.42568 23.60272 21.756439 25.32972 20.580639C 27.056721 19.40484 29.09812 18.77714 31.187401 18.77948C 39.106003 18.77948 40.815201 25.29932 43.638 32.6222C 43.686401 32.748199 43.7034 32.884201 43.687599 33.018402C 43.671799 33.152397 43.6236 33.280602 43.547199 33.391998C 43.470798 33.503201 43.368401 33.594398 43.249001 33.657402C 43.129601 33.720398 42.996601 33.753403 42.861599 33.753601L 40.7542 33.753601L 40.7542 37.0812C 40.7542 37.963799 40.403603 38.809998 39.779602 39.4342C 39.155602 40.058201 38.3092 40.408798 37.426598 40.408798L 35.762802 40.408798L 35.762802 43.736401M 28.182619 27.78344C 28.182619 26.245781 29.41276 24.86194 31.1042 24.86194C 32.6418 24.86194 34.025803 26.09202 34.025803 27.78344C 34.025803 29.321119 32.795601 30.705 31.1042 30.705L 31.1042 32.001801M 31.105 36.261398C 30.903999 36.261398 30.703199 36.462402 30.703199 36.663399C 30.703199 36.864403 30.903999 37.065201 31.105 37.065201M 31.104799 36.261398C 31.305799 36.261398 31.5068 36.462402 31.5068 36.663399C 31.5068 36.864403 31.305799 37.065201 31.104799 37.065201"/>
      </g>
    </g>
  </g>
  <g id="g-root-ic_sear_4g2to719agruq-stroke-fill" data-item-order="0" transform="translate(386, 446)">
    <g id="ic_sear_4g2to719agruq-stroke" fill="none" stroke-linecap="round" stroke-linejoin="round" stroke-miterlimit="4" stroke="#a6da37" stroke-width="2">
      <g>
        <path d="M 35 44.057999C 35 49.060593 39.055405 53.115997 44.057999 53.115997C 49.060593 53.115997 53.115997 49.060593 53.115997 44.057999C 53.115997 39.055405 49.060593 35 44.057999 35C 39.055405 35 35 39.055405 35 44.057999ZM 57 57L 50.504002 50.504002M 19 27L 38 27M 19 33L 31 33M 19 21L 33 21M 19 39L 27 39M 19 45L 27 45M 35 57L 13 57C 11.895431 57 11 56.104568 11 55L 11 13C 11 11.895431 11.895431 11 13 11L 39.585999 11C 40.11639 11.000113 40.625015 11.210901 41 11.586L 48.414001 19C 48.789101 19.374985 48.999886 19.88361 49 20.414L 49 29"/>
      </g>
    </g>
  </g>
  <g id="g-root-ic_alie_1ltnpo719ai4n7-stroke-fill" data-item-order="0" transform="translate(530, 350)">
    <g id="ic_alie_1ltnpo719ai4n7-stroke" fill="none" stroke-linecap="round" stroke-linejoin="round" stroke-miterlimit="4" stroke="#8769fd" stroke-width="2">
      <g>
        <path d="M 46 35C 46 28.372583 40.627419 23 34 23C 27.372583 23 22 28.372583 22 35L 22 53.186001C 21.999523 55.141361 23.47789 56.780342 25.422947 56.980827C 27.368006 57.181313 29.149611 55.878345 29.547998 53.963997L 30.402 49.872002C 30.735682 48.172527 32.232193 46.951519 33.964058 46.965714C 35.695923 46.979912 37.172226 48.225285 37.478001 49.93L 38.222 53.816002C 38.602596 55.803902 40.432739 57.176182 42.447651 56.984482C 44.462563 56.792786 46.001095 55.100006 46 53.075996ZM 34 23L 34 17M 31 14C 31 15.656855 32.343147 17 34 17C 35.656853 17 37 15.656855 37 14C 37 12.343145 35.656853 11 34 11C 32.343147 11 31 12.343145 31 14ZM 40.408001 24.854L 42.438 19.038M 46.377998 17.610001C 45.648499 19.098915 43.849529 19.713737 42.361343 18.982748C 40.873154 18.251759 40.260132 16.452175 40.992607 14.96472C 41.725082 13.477264 43.525276 12.866038 45.012001 13.6C 46.494526 14.33189 47.105446 16.125286 46.378002 17.610001ZM 27.632 24.827999L 25.638 18.976M 21.622 17.610001C 22.351503 19.098915 24.150473 19.713737 25.638659 18.982748C 27.126844 18.251759 27.73987 16.452175 27.007393 14.96472C 26.274918 13.477264 24.474724 12.866038 22.987999 13.6C 21.505474 14.33189 20.894556 16.125286 21.622002 17.610001ZM 27 34C 27.000002 37.865993 30.134008 41 34 41C 37.865993 41 41 37.865993 41 34C 41 30.134008 37.865993 27.000002 34 27.000002C 30.134008 27.000002 27.000002 30.134008 27.000002 34ZM 32 34C 32 35.104568 32.895432 36 34 36C 35.104568 36 36 35.104568 36 34C 36 32.895432 35.104568 32 34 32C 32.895432 32 32 32.895432 32 34Z"/>
      </g>
    </g>
  </g>
  <g id="g-root-ic_sear_6i2ev19ajk7g-stroke-fill" data-item-order="0" transform="translate(477, 182)">
    <g id="ic_sear_6i2ev19ajk7g-stroke" fill="none" stroke-linecap="round" stroke-linejoin="round" stroke-miterlimit="4" stroke="#43dd93" stroke-width="2">
      <g>
        <path d="M 25 20.779999L 25 52.779999M 39 31L 39 11M 31 48.720001L 25.58 52.580002C 25.237045 52.840019 24.762951 52.840019 24.419998 52.579998L 11.42 43.299999C 11.1575 43.109066 11.001551 42.804592 11 42.48L 11 12C 10.993511 11.626602 11.204156 11.28333 11.54 11.12C 11.858075 10.920883 12.261925 10.920883 12.58 11.12L 25 20.779999L 38.419998 11.18C 38.769028 10.938729 39.230972 10.938729 39.580002 11.18L 52.580002 20.48C 52.841915 20.662369 52.998619 20.960854 53 21.279999L 53 33M 53 44C 53 48.970562 48.970562 53 44 53C 39.029438 53 35 48.970562 35 44C 35 39.029438 39.029438 35 44 35C 48.970562 35 53 39.029438 53 44ZM 50.360001 50.360001L 57 57"/>
      </g>
    </g>
  </g>
  <g id="g-root-ic_ufo_v9v2d319akyz1-stroke-fill" data-item-order="0" transform="translate(363, 278)">
    <g id="ic_ufo_v9v2d319akyz1-stroke" fill="none" stroke-linecap="round" stroke-linejoin="round" stroke-miterlimit="4" stroke="#4f91fc" stroke-width="2">
      <g>
        <path d="M 88 35C 95.955719 34.998081 102.704323 40.841759 103.839996 48.716C 103.922897 49.293629 103.749374 49.878651 103.364944 50.317673C 102.980515 50.756691 102.423515 51.005917 101.839996 51L 14.139999 51C 13.556484 51.005917 12.999486 50.756691 12.615055 50.317673C 12.230624 49.878651 12.057106 49.293629 12.14 48.716C 13.276754 40.834236 20.036692 34.988129 28 35ZM 28 35C 28 25 41.431999 13 58 13C 74.568001 13 88 25 88 35M 85.540001 69L 95.991997 103M 19.992001 103L 30.464001 69M 59.992001 89L 53.992001 97.304001M 65.992004 97L 59.992001 89M 53.992001 83L 65.992004 83M 60 73C 61.104568 73 62 73.895432 62 75M 58 75C 58 73.895432 58.895432 73 60 73M 60 77C 58.895432 77 58 76.104568 58 75M 62 75C 62 76.104568 61.104568 77 60 77M 59.992001 89L 59.992001 83M 40 51C 40 56.522846 35.52285 61 30 61C 24.477154 61 20 56.522846 20 51M 68 51C 68 56.522846 63.52285 61 58 61C 52.477154 61 48 56.522846 48 51M 96 51C 96 56.522846 91.52285 61 86 61C 80.47715 61 76 56.522846 76 51"/>
      </g>
    </g>
  </g>
  <g id="g-root-tx_theinflu_1qd82bb19amdqm-stroke-fill" data-item-order="0" transform="translate(110, 158)">
    <g id="tx_theinflu_1qd82bb19amdqm-fill" stroke="none" fill="#f4f4f4">
      <g>
        <text style="font: 15px Roboto, sans-serif; white-space: pre;" font-size="15px" font-family="Roboto, sans-serif">
          <tspan x="33.72" y="31" dominant-baseline="ideographic">The influence and </tspan>
          <tspan x="14.73" y="49" dominant-baseline="ideographic">legacy of the Higdon </tspan>
          <tspan x="120.28" y="67" dominant-baseline="ideographic">case</tspan>
        </text>
      </g>
    </g>
  </g>
  <g id="g-root-tx_critique_1d2e11319amc5r-stroke-fill" data-item-order="0" transform="translate(26, 362)">
    <g id="tx_critique_1d2e11319amc5r-fill" stroke="none" fill="#f4f4f4">
      <g>
        <text style="font: 15px Roboto, sans-serif; white-space: pre;" font-size="15px" font-family="Roboto, sans-serif">
          <tspan x="14.23" y="28" dominant-baseline="ideographic">Critiques and alternative </tspan>
          <tspan x="13.03" y="46" dominant-baseline="ideographic">explanations of the case</tspan>
        </text>
      </g>
    </g>
  </g>
  <g id="g-root-tx_research_146r0s719amdq8-stroke-fill" data-item-order="0" transform="translate(327, 578)">
    <g id="tx_research_146r0s719amdq8-fill" stroke="none" fill="#f4f4f4">
      <g>
        <text style="font: 15px Roboto, sans-serif; white-space: pre;" font-size="15px" font-family="Roboto, sans-serif">
          <tspan x="17.66" y="31" dominant-baseline="ideographic">Research and analysis </tspan>
          <tspan x="38.09" y="49" dominant-baseline="ideographic">conducted post-</tspan>
          <tspan x="58.55" y="67" dominant-baseline="ideographic">encounter</tspan>
        </text>
      </g>
    </g>
  </g>
  <g id="g-root-tx_specific_i09z9319amcy1-stroke-fill" data-item-order="0" transform="translate(626, 362)">
    <g id="tx_specific_i09z9319amcy1-fill" stroke="none" fill="#f4f4f4">
      <g>
        <text style="font: 15px Roboto, sans-serif; white-space: pre;" font-size="15px" font-family="Roboto, sans-serif">
          <tspan x="12" y="31" dominant-baseline="ideographic">Specific elements that </tspan>
          <tspan x="12" y="49" dominant-baseline="ideographic">distinguish Higdon's </tspan>
          <tspan x="12" y="67" dominant-baseline="ideographic">story</tspan>
        </text>
      </g>
    </g>
  </g>
  <g id="g-root-tx_theconte_4pfxyv19ambd6-stroke-fill" data-item-order="0" transform="translate(566, 158)">
    <g id="tx_theconte_4pfxyv19ambd6-fill" stroke="none" fill="#f4f4f4">
      <g>
        <text style="font: 15px Roboto, sans-serif; white-space: pre;" font-size="15px" font-family="Roboto, sans-serif">
          <tspan x="12" y="31" dominant-baseline="ideographic">The context and </tspan>
          <tspan x="12" y="49" dominant-baseline="ideographic">timeline of Higdon's </tspan>
          <tspan x="12" y="67" dominant-baseline="ideographic">encounter</tspan>
        </text>
      </g>
    </g>
  </g>
  <g id="g-root-tx_uniqueen_1qf3hkn19amcqz-stroke-fill" data-item-order="0" transform="translate(626, 302)">
    <g id="tx_uniqueen_1qf3hkn19amcqz-fill" stroke="none" fill="#8769fd">
      <g>
        <text style="font: bold 20px Roboto, sans-serif; white-space: pre;" font-weight="bold" font-size="20px" font-family="Roboto, sans-serif">
          <tspan x="12" y="34" dominant-baseline="ideographic">Unique Encounter </tspan>
          <tspan x="12" y="58" dominant-baseline="ideographic">Details</tspan>
        </text>
      </g>
    </g>
  </g>
  <g id="g-root-tx_skeptica_1cu9y2f19a18ng-stroke-fill" data-item-order="0" transform="translate(62, 302)">
    <g id="tx_skeptica_1cu9y2f19a18ng-fill" stroke="none" fill="#f79438">
      <g>
        <text style="font: bold 20px Roboto, sans-serif; white-space: pre;" font-weight="bold" font-size="20px" font-family="Roboto, sans-serif">
          <tspan x="56.66" y="34" dominant-baseline="ideographic">Skeptical </tspan>
          <tspan x="23.22" y="58" dominant-baseline="ideographic">Perspectives</tspan>
        </text>
      </g>
    </g>
  </g>
  <g id="g-root-tx_cultural_18egfxz19a19fp-stroke-fill" data-item-order="0" transform="translate(110, 122)">
    <g id="tx_cultural_18egfxz19a19fp-fill" stroke="none" fill="#1ac3fb">
      <g>
        <text style="font: bold 20px Roboto, sans-serif; white-space: pre;" font-weight="bold" font-size="20px" font-family="Roboto, sans-serif">
          <tspan x="14.16" y="34" dominant-baseline="ideographic">Cultural Impact</tspan>
        </text>
      </g>
    </g>
  </g>
  <g id="g-root-tx_investig_v2zxkn19a1b0m-stroke-fill" data-item-order="0" transform="translate(345, 518)">
    <g id="tx_investig_v2zxkn19a1b0m-fill" stroke="none" fill="#a6da37">
      <g>
        <text style="font: bold 20px Roboto, sans-serif; white-space: pre;" font-weight="bold" font-size="20px" font-family="Roboto, sans-serif">
          <tspan x="15.91" y="34" dominant-baseline="ideographic">Investigative </tspan>
          <tspan x="42.73" y="58" dominant-baseline="ideographic">Efforts</tspan>
        </text>
      </g>
    </g>
  </g>
  <g id="g-root-tx_historic_hs5waf19a19fr-stroke-fill" data-item-order="0" transform="translate(566, 98)">
    <g id="tx_historic_hs5waf19a19fr-fill" stroke="none" fill="#43dd93">
      <g>
        <text style="font: bold 20px Roboto, sans-serif; white-space: pre;" font-weight="bold" font-size="20px" font-family="Roboto, sans-serif">
          <tspan x="12" y="34" dominant-baseline="ideographic">Historical </tspan>
          <tspan x="12" y="58" dominant-baseline="ideographic">Background</tspan>
        </text>
      </g>
    </g>
    <defs>
      <pattern id="crawlingPattern-0000001b" x="0" y="0" width="12" height="12" patternUnits="userSpaceOnUse" fill="#0000001b">
        <use href="#crawlingSymbol"/>
      </pattern>
      <symbol id="crawlingSymbol">
        <g>
          <path d="M -12.5 12.5 l 13 -13 l 6 0 l -13 13 Z M -0.5 12.5 l 13 -13 l 6 0 l -13 13 Z M 11.5 12.5 l 13 -13 l 6 0 l -13 13 Z"/>
        </g>
      </symbol>
      <pattern id="crawlingPattern-3300fc7a" x="0" y="0" width="12" height="12" patternUnits="userSpaceOnUse" fill="#3300fc7a">
        <use href="#crawlingSymbol"/>
      </pattern>
      <pattern id="crawlingPattern-f17400d3" x="0" y="0" width="12" height="12" patternUnits="userSpaceOnUse" fill="#f17400d3">
        <use href="#crawlingSymbol"/>
      </pattern>
      <pattern id="crawlingPattern-00a3d9d9" x="0" y="0" width="12" height="12" patternUnits="userSpaceOnUse" fill="#00a3d9d9">
        <use href="#crawlingSymbol"/>
      </pattern>
      <pattern id="crawlingPattern-5c87005e" x="0" y="0" width="12" height="12" patternUnits="userSpaceOnUse" fill="#5c87005e">
        <use href="#crawlingSymbol"/>
      </pattern>
      <pattern id="crawlingPattern-00b15c75" x="0" y="0" width="12" height="12" patternUnits="userSpaceOnUse" fill="#00b15c75">
        <use href="#crawlingSymbol"/>
      </pattern>
    </defs>
  </g>
</svg>
