<?xml version='1.0' encoding='utf-8'?>
<svg xmlns="http://www.w3.org/2000/svg" xmlns:xlink="http://www.w3.org/1999/xlink" width="1056" height="708" viewBox="0 0 1056 708" style="fill:none;stroke:none;fill-rule:evenodd;clip-rule:evenodd;stroke-linecap:round;stroke-linejoin:round;stroke-miterlimit:1.5;" version="1.1">
  <style class="text-font-style fontImports" data-font-family="Roboto">@import url('https://fonts.googleapis.com/css2?family=Roboto:wght@400;700&amp;display=block');</style>
  <rect x="0" y="0" width="1056" height="708" fill="#252a34" stroke="none" id="programmatic_background"/>
  <g id="g-root-tf_1413vev1c2cn4a-stroke-fill" data-item-order="-691560" transform="translate(18, 12)"/>
  <g id="g-root-sy_4_cu_v9u6rr1c249oi-stroke-fill" data-item-order="-317369" transform="translate(608, 386)">
    <g id="sy_4_cu_v9u6rr1c249oi-stroke" fill="none" stroke-linecap="round" stroke-linejoin="round" stroke-miterlimit="4" stroke="#b7b7b7" stroke-width="2">
      <g>
        <path d="M 33.850586 154.000488L 45.850586 154.000488M 58.200195 70L 70.200195 70M 87.9997 10L 21.9997 238L 10 238"/>
      </g>
    </g>
  </g>
  <g id="g-root-sy_3_cu_metnlz1c247bf-stroke-fill" data-item-order="-317365" transform="translate(608, 158.00048828125)">
    <g id="sy_3_cu_metnlz1c247bf-stroke" fill="none" stroke-linecap="round" stroke-linejoin="round" stroke-miterlimit="4" stroke="#f79438" stroke-width="2">
      <g>
        <path d="M 33.84668 93.999512L 45.84668 93.999512M 58.195313 177.999512L 70.195313 177.999512M 87.9997 238L 21.9997 10L 10 10"/>
      </g>
    </g>
  </g>
  <g id="g-root-sy_2_cu_hz05hj1c2483o-stroke-fill" data-item-order="-317361" transform="translate(296, 385.99951171875)">
    <g id="sy_2_cu_hz05hj1c2483o-stroke" fill="none" stroke-linecap="round" stroke-linejoin="round" stroke-miterlimit="4" stroke="#fb6762" stroke-width="2">
      <g>
        <path d="M 33.851563 154.000488L 45.851563 154.000488M 58.200195 70.000488L 70.200195 70.000488M 87.9997 10L 21.9997 238L 10 238"/>
      </g>
    </g>
  </g>
  <g id="g-root-sy_1_cu_93d58n1c248wd-stroke-fill" data-item-order="-317357" transform="translate(296, 158.00048828125)">
    <g id="sy_1_cu_93d58n1c248wd-stroke" fill="none" stroke-linecap="round" stroke-linejoin="round" stroke-miterlimit="4" stroke="#ffe711" stroke-width="2">
      <g>
        <path d="M 33.851563 93.999512L 45.851563 93.999512M 58.200195 177.999512L 70.200195 177.999512M 87.9997 238L 21.9997 10L 10 10"/>
      </g>
    </g>
  </g>
  <g id="g-root-sy_-1_line_4njn471c249om-stroke-fill" data-item-order="-317351" transform="translate(32, 386)">
    <g id="sy_-1_line_4njn471c249om-stroke" fill="none" stroke-linecap="round" stroke-linejoin="round" stroke-miterlimit="4" stroke="#f4f4f4" stroke-width="2">
      <g>
        <path d="M 704 10L 10 10"/>
        <path d="M 698 16.5L 704.5 10L 698 3.5" stroke-dasharray="none"/>
      </g>
    </g>
  </g>
  <g id="g-root-tx_unresolv_1ut0ouf1c24aa7-stroke-fill" data-item-order="0" transform="translate(800, 350)">
    <g id="tx_unresolv_1ut0ouf1c24aa7-fill" stroke="none" fill="#f4f4f4">
      <g>
        <text style="font: 20px Roboto, sans-serif; white-space: pre;" font-size="20px" font-family="Roboto, sans-serif">
          <tspan x="12" y="34" dominant-baseline="ideographic">Unresolved Mysteries </tspan>
          <tspan x="12" y="58" dominant-baseline="ideographic">of Cash-Landrum </tspan>
          <tspan x="12" y="82" dominant-baseline="ideographic">Incident</tspan>
        </text>
      </g>
    </g>
  </g>
  <g id="g-root-tx_unanswer_1ly05on1c248ow-stroke-fill" data-item-order="0" transform="translate(428, 434)">
    <g id="tx_unanswer_1ly05on1c248ow-fill" stroke="none" fill="#f4f4f4">
      <g>
        <text style="font: 20px Roboto, sans-serif; white-space: pre;" font-size="20px" font-family="Roboto, sans-serif">
          <tspan x="18.77" y="34" dominant-baseline="ideographic">Unanswered Questions</tspan>
        </text>
      </g>
    </g>
  </g>
  <g id="g-root-tx_inconsis_18mjnbb1c24a9t-stroke-fill" data-item-order="0" transform="translate(428, 518)">
    <g id="tx_inconsis_18mjnbb1c24a9t-fill" stroke="none" fill="#f4f4f4">
      <g>
        <text style="font: 20px Roboto, sans-serif; white-space: pre;" font-size="20px" font-family="Roboto, sans-serif">
          <tspan x="15.69" y="34" dominant-baseline="ideographic">Inconsistent Reports</tspan>
        </text>
      </g>
    </g>
  </g>
  <g id="g-root-tx_research_zrj45j1c247wq-stroke-fill" data-item-order="0" transform="translate(368, 602)">
    <g id="tx_research_zrj45j1c247wq-fill" stroke="none" fill="#f4f4f4">
      <g>
        <text style="font: 20px Roboto, sans-serif; white-space: pre;" font-size="20px" font-family="Roboto, sans-serif">
          <tspan x="13.77" y="34" dominant-baseline="ideographic">Research Challenges</tspan>
        </text>
      </g>
    </g>
  </g>
  <g id="g-root-tx_legalpre_vbpm131c248oz-stroke-fill" data-item-order="0" transform="translate(488, 314)">
    <g id="tx_legalpre_vbpm131c248oz-fill" stroke="none" fill="#f4f4f4">
      <g>
        <text style="font: 20px Roboto, sans-serif; white-space: pre;" font-size="20px" font-family="Roboto, sans-serif">
          <tspan x="20.33" y="34" dominant-baseline="ideographic">Legal Precedent</tspan>
        </text>
      </g>
    </g>
  </g>
  <g id="g-root-tx_20millio_mg2ls71c249ho-stroke-fill" data-item-order="0" transform="translate(440, 230)">
    <g id="tx_20millio_mg2ls71c249ho-fill" stroke="none" fill="#f4f4f4">
      <g>
        <text style="font: 20px Roboto, sans-serif; white-space: pre;" font-size="20px" font-family="Roboto, sans-serif">
          <tspan x="15.55" y="34" dominant-baseline="ideographic">$20 Million Lawsuit</tspan>
        </text>
      </g>
    </g>
  </g>
  <g id="g-root-tx_legalact_i093nr1c24a9x-stroke-fill" data-item-order="0" transform="translate(428, 146)">
    <g id="tx_legalact_i093nr1c24a9x-fill" stroke="none" fill="#f4f4f4">
      <g>
        <text style="font: 20px Roboto, sans-serif; white-space: pre;" font-size="20px" font-family="Roboto, sans-serif">
          <tspan x="18.98" y="34" dominant-baseline="ideographic">Legal Actions</tspan>
        </text>
      </g>
    </g>
  </g>
  <g id="g-root-tx_tangible_4pf2dj1c248p2-stroke-fill" data-item-order="0" transform="translate(152, 434)">
    <g id="tx_tangible_4pf2dj1c248p2-fill" stroke="none" fill="#f4f4f4">
      <g>
        <text style="font: 20px Roboto, sans-serif; white-space: pre;" font-size="20px" font-family="Roboto, sans-serif">
          <tspan x="11.77" y="34" dominant-baseline="ideographic">Tangible Symptoms</tspan>
        </text>
      </g>
    </g>
  </g>
  <g id="g-root-tx_document_1uuw43r1c249an-stroke-fill" data-item-order="0" transform="translate(116, 518)">
    <g id="tx_document_1uuw43r1c249an-fill" stroke="none" fill="#f4f4f4">
      <g>
        <text style="font: 20px Roboto, sans-serif; white-space: pre;" font-size="20px" font-family="Roboto, sans-serif">
          <tspan x="16.53" y="34" dominant-baseline="ideographic">Documented Injuries</tspan>
        </text>
      </g>
    </g>
  </g>
  <g id="g-root-tx_physical_1qf2lzb1c24a2w-stroke-fill" data-item-order="0" transform="translate(80, 602)">
    <g id="tx_physical_1qf2lzb1c24a2w-fill" stroke="none" fill="#f4f4f4">
      <g>
        <text style="font: 20px Roboto, sans-serif; white-space: pre;" font-size="20px" font-family="Roboto, sans-serif">
          <tspan x="16.88" y="34" dominant-baseline="ideographic">Physical Evidence</tspan>
        </text>
      </g>
    </g>
  </g>
  <g id="g-root-tx_publicpe_1lpvzk71c25m9t-stroke-fill" data-item-order="0" transform="translate(164, 314)">
    <g id="tx_publicpe_1lpvzk71c25m9t-fill" stroke="none" fill="#f4f4f4">
      <g>
        <text style="font: 20px Roboto, sans-serif; white-space: pre;" font-size="20px" font-family="Roboto, sans-serif">
          <tspan x="20.11" y="34" dominant-baseline="ideographic">Public Perception</tspan>
        </text>
      </g>
    </g>
  </g>
  <g id="g-root-tx_extensiv_1cu8zbb1c25n2i-stroke-fill" data-item-order="0" transform="translate(128, 230)">
    <g id="tx_extensiv_1cu8zbb1c25n2i-fill" stroke="none" fill="#f4f4f4">
      <g>
        <text style="font: 20px Roboto, sans-serif; white-space: pre;" font-size="20px" font-family="Roboto, sans-serif">
          <tspan x="14.66" y="34" dominant-baseline="ideographic">Extensive Coverage</tspan>
        </text>
      </g>
    </g>
  </g>
  <g id="g-root-tx_mediainf_zisgxz1c25onf-stroke-fill" data-item-order="0" transform="translate(92, 146)">
    <g id="tx_mediainf_zisgxz1c25onf-fill" stroke="none" fill="#f4f4f4">
      <g>
        <text style="font: 20px Roboto, sans-serif; white-space: pre;" font-size="20px" font-family="Roboto, sans-serif">
          <tspan x="22.36" y="34" dominant-baseline="ideographic">Media Influence</tspan>
        </text>
      </g>
    </g>
  </g>
  <g id="g-root-tx_analyzin_v3lfwn1c25m9w-stroke-fill" data-item-order="0" transform="translate(332, 50)">
    <g id="tx_analyzin_v3lfwn1c25m9w-fill" stroke="none" fill="#f4f4f4">
      <g>
        <text style="font: 20px Roboto, sans-serif; white-space: pre;" font-size="20px" font-family="Roboto, sans-serif">
          <tspan x="15.24" y="34" dominant-baseline="ideographic">Analyzing the Cash-Landrum UFO Incident</tspan>
        </text>
      </g>
    </g>
    <defs>
      <pattern id="crawlingPattern-0000001b" x="0" y="0" width="12" height="12" patternUnits="userSpaceOnUse" fill="#0000001b">
        <use href="#crawlingSymbol"/>
      </pattern>
      <symbol id="crawlingSymbol">
        <g>
          <path d="M -12.5 12.5 l 13 -13 l 6 0 l -13 13 Z M -0.5 12.5 l 13 -13 l 6 0 l -13 13 Z M 11.5 12.5 l 13 -13 l 6 0 l -13 13 Z"/>
        </g>
      </symbol>
    </defs>
  </g>
  <g id="g-root-ic_disa_m7yfnr1c25n2l-stroke-fill" data-item-order="0" transform="translate(260, 140)">
    <g id="ic_disa_m7yfnr1c25n2l-stroke" fill="none" stroke-linecap="round" stroke-linejoin="round" stroke-miterlimit="4" stroke="#f4f4f4" stroke-width="2">
      <g>
        <path d="M 16.75 10.75L 24.25 18.25M 33.25 10.75L 25.75 18.25M 13.75 18.25L 42.25 18.25C 42.25 18.25 45.25 18.25 45.25 21.25L 45.25 42.25C 45.25 42.25 45.25 45.25 42.25 45.25L 13.75 45.25C 13.75 45.25 10.75 45.25 10.75 42.25L 10.75 21.25C 10.75 21.25 10.75 18.25 13.75 18.25M 19.75 21.25L 30.25 21.25C 30.25 21.25 36.25 21.25 36.25 27.25L 36.25 36.25C 36.25 36.25 36.25 42.25 30.25 42.25L 19.75 42.25C 19.75 42.25 13.75 42.25 13.75 36.25L 13.75 27.25C 13.75 27.25 13.75 21.25 19.75 21.25M 29.244999 27.505001L 20.755001 35.994999M 31 31.75C 31 35.063709 28.313709 37.75 25 37.75C 21.686291 37.75 19 35.063709 19 31.75C 19 28.436291 21.686291 25.75 25 25.75C 28.313709 25.75 31 28.436291 31 31.75ZM 40.75 22.75L 40.75 34.75M 39.25 39.985001C 39.25 40.813427 39.921574 41.485001 40.75 41.485001C 41.578426 41.485001 42.25 40.813427 42.25 39.985001C 42.25 39.156574 41.578426 38.485001 40.75 38.485001C 39.921574 38.485001 39.25 39.156574 39.25 39.985001"/>
      </g>
    </g>
  </g>
  <g id="g-root-ic_hand_13zux8n1c273f2-stroke-fill" data-item-order="0" transform="translate(260, 596)">
    <g id="ic_hand_13zux8n1c273f2-stroke" fill="none" stroke-linecap="round" stroke-linejoin="round" stroke-miterlimit="4" stroke="#f4f4f4" stroke-width="2">
      <g>
        <path d="M 31.75 42.25L 13 42.25C 11.760763 42.241821 10.75818 41.239235 10.75 40L 10.75 13C 10.75 11.75736 11.75736 10.75 13 10.75L 32.5 10.75C 33.742641 10.75 34.75 11.75736 34.75 13L 34.75 33.25M 45.25 45.25L 40.75 39.25L 40.75 32.41C 40.75 29.875 37.630001 27.460001 34.75 25M 36.25 34.75L 32.875 31.375C 32.250542 30.761303 31.24946 30.761303 30.625002 31.375002C 30.125 32.041668 30.125 32.958332 30.625 33.625L 34.75 38.5L 34.75 40C 34.75 41.5 37.75 45.25 37.75 45.25M 22.75 16.75L 22.75 30.280001M 17.5 31C 17.5 33.07 19.855 34.75 22.75 34.75C 25.645 34.75 28 33.099998 28 31C 28 28.900002 25.645 30.25 22.75 30.25C 19.855 30.25 17.5 28.960001 17.5 31ZM 16 18.565001C 20.188202 16.195951 25.3118 16.195951 29.500002 18.565001M 15.25 23.5C 19.799604 20.49868 25.700396 20.49868 30.25 23.5M 16 27.549999C 20.190538 25.18985 25.309464 25.18985 29.500002 27.550001"/>
      </g>
    </g>
  </g>
  <g id="g-root-ic_verd_2qcav1c28f7z-stroke-fill" data-item-order="0" transform="translate(572, 140)">
    <g id="ic_verd_2qcav1c28f7z-stroke" fill="none" stroke-linecap="round" stroke-linejoin="round" stroke-miterlimit="4" stroke="#f4f4f4" stroke-width="2">
      <g>
        <path d="M 13.195 34.375C 13.195 36.653175 15.041825 38.5 17.32 38.5C 19.598175 38.5 21.445 36.653175 21.445 34.375C 21.445 32.096825 19.598175 30.250002 17.32 30.250002C 15.041825 30.250002 13.195 32.096825 13.195 34.375ZM 23.8885 45.25C 23.194515 42.179966 20.466743 39.999985 17.31925 39.999985C 14.171757 39.999985 11.443983 42.179966 10.75 45.249996M 34.555 34.375C 34.555 36.653175 36.401825 38.5 38.68 38.5C 40.958176 38.5 42.805 36.653175 42.805 34.375C 42.805 32.096825 40.958176 30.250002 38.68 30.250002C 36.401825 30.250002 34.555 32.096825 34.555 34.375ZM 45.25 45.25C 44.556015 42.179966 41.828243 39.999985 38.680748 39.999985C 35.533257 39.999985 32.805481 42.179966 32.1115 45.249996M 34.75 13.75L 37.75 13.75C 38.578426 13.75 39.25 14.421573 39.25 15.25L 39.25 25.75C 39.25 26.578428 38.578426 27.25 37.75 27.25L 31.75 27.25L 27.25 31.75L 27.25 27.25L 16.75 27.25C 15.921573 27.25 15.25 26.578428 15.25 25.75L 15.25 15.25C 15.25 14.421573 15.921573 13.75 16.75 13.75L 20.5 13.75M 27.8335 17.863001L 22 23.696499M 10 10M 29.424999 13.09L 32.607998 16.2715L 29.4265 19.4545L 26.2435 16.2715ZM 32.606499 16.2715C 32.899376 15.978714 33.374126 15.978714 33.667 16.2715L 34.727501 17.332001C 34.868565 17.472706 34.947838 17.663759 34.947838 17.863001C 34.947838 18.062241 34.868565 18.253294 34.727501 18.394001L 31.546001 21.5755C 31.253124 21.868286 30.778376 21.868286 30.4855 21.5755L 29.424999 20.514999C 29.132214 20.222126 29.132214 19.747375 29.424999 19.4545M 29.424999 13.09C 29.717787 12.797125 29.717787 12.322375 29.424999 12.0295L 28.3645 10.969C 28.071625 10.676213 27.596874 10.676213 27.304001 10.969L 24.120998 14.1505C 23.828213 14.443375 23.828213 14.918125 24.120998 15.211L 25.181499 16.2715C 25.474375 16.564287 25.949125 16.564287 26.242001 16.2715"/>
      </g>
    </g>
  </g>
  <g id="g-root-ic_file_1413vev1c29wco-stroke-fill" data-item-order="0" transform="translate(572, 596)">
    <g id="ic_file_1413vev1c29wco-stroke" fill="none" stroke-linecap="round" stroke-linejoin="round" stroke-miterlimit="4" stroke="#f4f4f4" stroke-width="2">
      <g>
        <path d="M 34.75 27.25L 34.75 34L 30.16 38.016998C 29.263922 38.800648 28.74992 39.933094 28.749998 41.123497L 28.75 41.123501C 28.749172 43.401676 30.595325 45.249172 32.873501 45.25L 41.123501 45.25C 43.401676 45.25 45.248501 43.403175 45.248501 41.125L 45.248501 41.125C 45.248726 39.935314 44.735287 38.803463 43.840004 38.02L 39.25 34L 39.25 27.25M 28.885 42.168999L 31.949501 40.649502C 33.698414 39.773834 35.769241 39.83012 37.468002 40.7995L 37.468002 40.7995C 39.060455 41.710342 40.987968 41.821404 42.6745 41.099503L 45.099998 40.029999M 25.75 40.75L 12.25 40.75C 11.421573 40.75 10.75 40.078426 10.75 39.25L 10.75 16.75C 10.75 15.921573 11.421573 15.25 12.25 15.25L 16.75 15.25M 28.75 15.25L 33.25 15.25C 34.078426 15.25 34.75 15.921573 34.75 16.75L 34.75 24.25M 25.75 13.75C 25.75 12.093145 24.406855 10.75 22.75 10.75C 21.093145 10.75 19.75 12.093145 19.75 13.75L 17.5 13.75C 17.085787 13.75 16.75 14.085787 16.75 14.5L 16.75 19C 16.75 19.414213 17.085787 19.75 17.5 19.75L 28 19.75C 28.414213 19.75 28.75 19.414213 28.75 19L 28.75 14.5C 28.75 14.085787 28.414213 13.75 28 13.75ZM 32.5 27.25L 41.5 27.25M 17.5 24.25L 28 24.25M 17.5 28.75L 23.875 28.75M 28 36.25L 13.75 36.25L 13.75 18.25L 16.75 18.25M 28.75 18.25L 31.75 18.25L 31.75 24.25"/>
      </g>
    </g>
  </g>
  <g id="g-root-ic_ufo_1q7kwxz1c2baip-stroke-fill" data-item-order="0" transform="translate(740, 362)">
    <g id="ic_ufo_1q7kwxz1c2baip-stroke" fill="none" stroke-linecap="round" stroke-linejoin="round" stroke-miterlimit="4" stroke="#f4f4f4" stroke-width="2">
      <g>
        <path d="M 49 22.5C 52.977859 22.499041 56.352161 25.420879 56.919998 29.358C 56.961449 29.646814 56.874687 29.939325 56.682472 30.158836C 56.490257 30.378345 56.211758 30.502958 55.919998 30.5L 12.07 30.5C 11.778242 30.502958 11.499743 30.378345 11.307528 30.158836C 11.115312 29.939325 11.028553 29.646814 11.07 29.358C 11.638377 25.417118 15.018346 22.494064 19 22.5ZM 19 22.5C 19 17.5 25.716 11.5 34 11.5C 42.284 11.5 49 17.5 49 22.5M 47.77 39.5L 52.995998 56.5M 14.996 56.5L 20.232 39.5M 34.996002 49.5L 31.996 53.652M 37.996002 53.5L 34.996002 49.5M 31.996 46.5L 37.996002 46.5M 35 41.5C 35.552284 41.5 36 41.947716 36 42.5M 34 42.5C 34 41.947716 34.447716 41.5 35 41.5M 35 43.5C 34.447716 43.5 34 43.052284 34 42.5M 36 42.5C 36 43.052284 35.552284 43.5 35 43.5M 34.996002 49.5L 34.996002 46.5M 25 30.5C 25 33.261421 22.761425 35.5 20 35.5C 17.238577 35.5 15 33.261421 15 30.5M 39 30.5C 39 33.261421 36.761425 35.5 34 35.5C 31.238577 35.5 29 33.261421 29 30.5M 53 30.5C 53 33.261421 50.761425 35.5 48 35.5C 45.238575 35.5 43 33.261421 43 30.5"/>
      </g>
    </g>
  </g>
</svg>
