<?xml version='1.0' encoding='utf-8'?>
<svg xmlns="http://www.w3.org/2000/svg" xmlns:xlink="http://www.w3.org/1999/xlink" width="768" height="456" viewBox="0 0 768 456" style="fill:none;stroke:none;fill-rule:evenodd;clip-rule:evenodd;stroke-linecap:round;stroke-linejoin:round;stroke-miterlimit:1.5;" version="1.1">
  <style class="text-font-style fontImports" data-font-family="Roboto">@import url('https://fonts.googleapis.com/css2?family=Roboto:wght@400;700&amp;display=block');</style>
  <rect x="0" y="0" width="768" height="456" fill="#252a34" stroke="none" id="programmatic_background"/>
  <g id="g-root-tf_1lw5m1j19kgcu9-stroke-fill" data-item-order="-321408" transform="translate(12, 12)"/>
  <g id="g-root-cp_-1_lines_1hegonr19k7x1h-stroke-fill" data-item-order="-233847" transform="translate(374, 158)">
    <g id="cp_-1_lines_1hegonr19k7x1h-stroke" fill="none" stroke-linecap="round" stroke-linejoin="round" stroke-miterlimit="4" stroke="#f4f4f4" stroke-width="2">
      <g>
        <path d="M 10 10L 10 34M 10 58L 10 82M 10 106L 10 130M 10 154L 10 178"/>
      </g>
    </g>
  </g>
  <g id="g-root-cp_1_g-1_143mndj19k7vgn-stroke-fill" data-item-order="-233844" transform="translate(362, 134)">
    <g id="cp_1_g-1_143mndj19k7vgn-fill" stroke="none" fill="none">
      <g>
        <path d="M 16 22C 16 25.313709 18.686292 28 22 28C 25.313709 28 28 25.313709 28 22C 28 18.686292 25.313709 16 22 16C 18.686292 16 16 18.686292 16 22"/>
      </g>
    </g>
    <g id="cp_1_g-1_143mndj19k7vgn-stroke" fill="none" stroke-linecap="round" stroke-linejoin="round" stroke-miterlimit="4" stroke="#4f91fc" stroke-width="2">
      <g>
        <path d="M 16 22C 16 25.313709 18.686292 28 22 28C 25.313709 28 28 25.313709 28 22C 28 18.686292 25.313709 16 22 16C 18.686292 16 16 18.686292 16 22"/>
      </g>
    </g>
    <g id="cp_1_g-1_143mndj19k7vgn-stroke" fill="none" stroke-linecap="round" stroke-linejoin="round" stroke-miterlimit="4" stroke="#4f91fc" stroke-width="2">
      <g>
        <path d="M 10 22C 10 28.627417 15.372583 34 22 34C 28.627417 34 34 28.627417 34 22C 34 15.372583 28.627417 10 22 10C 15.372583 10 10 15.372583 10 22M 34 22L 70 22"/>
      </g>
    </g>
  </g>
  <g id="g-root-cp_2_g-2_znt59319k7w8x-stroke-fill" data-item-order="-233836" transform="translate(326, 182)">
    <g id="cp_2_g-2_znt59319k7w8x-fill" stroke="none" fill="none">
      <g>
        <path d="M 52 22C 52 25.3137 54.6863 28 58 28C 61.3137 28 64 25.3137 64 22C 64 18.6863 61.3137 16 58 16C 54.6863 16 52 18.6863 52 22Z"/>
      </g>
    </g>
    <g id="cp_2_g-2_znt59319k7w8x-stroke" fill="none" stroke-linecap="round" stroke-linejoin="round" stroke-miterlimit="4" stroke="#43dd93" stroke-width="2">
      <g>
        <path d="M 52 22C 52 25.3137 54.6863 28 58 28C 61.3137 28 64 25.3137 64 22C 64 18.6863 61.3137 16 58 16C 54.6863 16 52 18.6863 52 22ZM 46 22C 46 28.6274 51.3726 34 58 34C 64.6274 34 70 28.6274 70 22C 70 15.3726 64.6274 10 58 10C 51.3726 10 46 15.3726 46 22ZM 46 22L 10 22"/>
      </g>
    </g>
  </g>
  <g id="g-root-cp_3_g-3_qs650719k7x1n-stroke-fill" data-item-order="-233828" transform="translate(362, 230)">
    <g id="cp_3_g-3_qs650719k7x1n-fill" stroke="none" fill="none">
      <g>
        <path d="M 16 22C 16 25.313709 18.686292 28 22 28C 25.313709 28 28 25.313709 28 22C 28 18.686292 25.313709 16 22 16C 18.686292 16 16 18.686292 16 22"/>
      </g>
    </g>
    <g id="cp_3_g-3_qs650719k7x1n-stroke" fill="none" stroke-linecap="round" stroke-linejoin="round" stroke-miterlimit="4" stroke="#a6da37" stroke-width="2">
      <g>
        <path d="M 16 22C 16 25.313709 18.686292 28 22 28C 25.313709 28 28 25.313709 28 22C 28 18.686292 25.313709 16 22 16C 18.686292 16 16 18.686292 16 22"/>
      </g>
    </g>
    <g id="cp_3_g-3_qs650719k7x1n-stroke" fill="none" stroke-linecap="round" stroke-linejoin="round" stroke-miterlimit="4" stroke="#a6da37" stroke-width="2">
      <g>
        <path d="M 10 22C 10 28.627417 15.372583 34 22 34C 28.627417 34 34 28.627417 34 22C 34 15.372583 28.627417 10 22 10C 15.372583 10 10 15.372583 10 22M 34 22L 70 22"/>
      </g>
    </g>
  </g>
  <g id="g-root-cp_4_g-4_mccmvr19k7xtx-stroke-fill" data-item-order="-233820" transform="translate(326, 278)">
    <g id="cp_4_g-4_mccmvr19k7xtx-fill" stroke="none" fill="none">
      <g>
        <path d="M 52 22C 52 25.3137 54.6863 28 58 28C 61.3137 28 64 25.3137 64 22C 64 18.6863 61.3137 16 58 16C 54.6863 16 52 18.6863 52 22Z"/>
      </g>
    </g>
    <g id="cp_4_g-4_mccmvr19k7xtx-stroke" fill="none" stroke-linecap="round" stroke-linejoin="round" stroke-miterlimit="4" stroke="#fb6762" stroke-width="2">
      <g>
        <path d="M 52 22C 52 25.3137 54.6863 28 58 28C 61.3137 28 64 25.3137 64 22C 64 18.6863 61.3137 16 58 16C 54.6863 16 52 18.6863 52 22ZM 46 22C 46 28.6274 51.3726 34 58 34C 64.6274 34 70 28.6274 70 22C 70 15.3726 64.6274 10 58 10C 51.3726 10 46 15.3726 46 22ZM 46 22L 10 22"/>
      </g>
    </g>
  </g>
  <g id="g-root-cp_5_g-5_dhc3pz19k7vgv-stroke-fill" data-item-order="-233812" transform="translate(362, 326)">
    <g id="cp_5_g-5_dhc3pz19k7vgv-fill" stroke="none" fill="none">
      <g>
        <path d="M 16 22C 16 25.313709 18.686292 28 22 28C 25.313709 28 28 25.313709 28 22C 28 18.686292 25.313709 16 22 16C 18.686292 16 16 18.686292 16 22"/>
      </g>
    </g>
    <g id="cp_5_g-5_dhc3pz19k7vgv-stroke" fill="none" stroke-linecap="round" stroke-linejoin="round" stroke-miterlimit="4" stroke="#f366bb" stroke-width="2">
      <g>
        <path d="M 16 22C 16 25.313709 18.686292 28 22 28C 25.313709 28 28 25.313709 28 22C 28 18.686292 25.313709 16 22 16C 18.686292 16 16 18.686292 16 22"/>
      </g>
    </g>
    <g id="cp_5_g-5_dhc3pz19k7vgv-stroke" fill="none" stroke-linecap="round" stroke-linejoin="round" stroke-miterlimit="4" stroke="#f366bb" stroke-width="2">
      <g>
        <path d="M 10 22C 10 28.627417 15.372583 34 22 34C 28.627417 34 34 28.627417 34 22C 34 15.372583 28.627417 10 22 10C 15.372583 10 10 15.372583 10 22M 34 22L 70 22"/>
      </g>
    </g>
  </g>
  <g id="g-root-tx_unraveli_4lp3h319k7x1d-stroke-fill" data-item-order="0" transform="translate(182, 50)">
    <g id="tx_unraveli_4lp3h319k7x1d-fill" stroke="none" fill="#f4f4f4">
      <g>
        <text style="font: 20px Roboto, sans-serif; white-space: pre;" font-size="20px" font-family="Roboto, sans-serif">
          <tspan x="13.55" y="34" dominant-baseline="ideographic">Unraveling the Cedric Allingham UFO Hoax</tspan>
        </text>
      </g>
    </g>
  </g>
  <g id="g-root-tx_february_1qbz45z19k7v9e-stroke-fill" data-item-order="0" transform="translate(494, 122)">
    <g id="tx_february_1qbz45z19k7v9e-fill" stroke="none" fill="#4f91fc">
      <g>
        <text style="font: bold 20px Roboto, sans-serif; white-space: pre;" font-weight="bold" font-size="20px" font-family="Roboto, sans-serif">
          <tspan x="12" y="34" dominant-baseline="ideographic">February 1954</tspan>
        </text>
      </g>
    </g>
  </g>
  <g id="g-root-tx_cedrical_1d0ilsn19k7wub-stroke-fill" data-item-order="0" transform="translate(494, 158)">
    <g id="tx_cedrical_1d0ilsn19k7wub-fill" stroke="none" fill="#f4f4f4">
      <g>
        <text style="font: 15px Roboto, sans-serif; white-space: pre;" font-size="15px" font-family="Roboto, sans-serif">
          <tspan x="12" y="31" dominant-baseline="ideographic">Cedric Allingham's alleged </tspan>
          <tspan x="12" y="49" dominant-baseline="ideographic">encounter with a Martian </tspan>
          <tspan x="12" y="67" dominant-baseline="ideographic">spacecraft</tspan>
        </text>
      </g>
    </g>
  </g>
  <g id="g-root-ic_clou_zpokif19k7v9g-stroke-fill" data-item-order="0" transform="translate(434, 122)">
    <g id="ic_clou_zpokif19k7v9g-stroke" fill="none" stroke-linecap="round" stroke-linejoin="round" stroke-miterlimit="4" stroke="#4f91fc" stroke-width="2">
      <g>
        <path d="M 34.5 49C 34.5 53.418278 38.081722 57 42.5 57C 46.918278 57 50.5 53.418278 50.5 49C 50.5 44.581722 46.918278 41 42.5 41C 38.081722 41 34.5 44.581722 34.5 49M 41.5 11C 37.081722 11 33.5 14.581722 33.5 19C 33.490437 19.166531 33.490437 19.333469 33.5 19.5C 33.597404 21.367373 32.865494 23.182505 31.5 24.459999C 30.170673 25.693495 28.35478 26.259584 26.560001 26C 26.206945 25.980104 25.853054 25.980104 25.5 26C 21.081722 26 17.5 29.581722 17.5 34C 17.5 38.418278 21.081722 42 25.5 42C 29.918278 42 33.5 38.418278 33.5 34C 33.509567 33.833473 33.509567 33.666531 33.5 33.5C 33.402596 31.632627 34.134506 29.817495 35.5 28.539999C 36.827919 27.273071 38.662659 26.683598 40.480003 26.940001C 40.833054 26.959894 41.186947 26.959894 41.540001 26.940001C 45.958279 26.940001 49.540001 23.358278 49.540001 18.939999C 49.540001 14.521722 45.958279 10.94 41.540001 10.94Z"/>
      </g>
    </g>
  </g>
  <g id="g-root-tx_1954_m7cu6v19kap71-stroke-fill" data-item-order="0" transform="translate(194, 170)">
    <g id="tx_1954_m7cu6v19kap71-fill" stroke="none" fill="#43dd93">
      <g>
        <text style="font: bold 20px Roboto, sans-serif; white-space: pre;" font-weight="bold" font-size="20px" font-family="Roboto, sans-serif">
          <tspan x="22.09" y="34" dominant-baseline="ideographic">1954</tspan>
        </text>
      </g>
    </g>
  </g>
  <g id="g-root-tx_publicat_8vwbtj19kaqry-stroke-fill" data-item-order="0" transform="translate(50, 206)">
    <g id="tx_publicat_8vwbtj19kaqry-fill" stroke="none" fill="#f4f4f4">
      <g>
        <text style="font: 15px Roboto, sans-serif; white-space: pre;" font-size="15px" font-family="Roboto, sans-serif">
          <tspan x="21.8" y="28" dominant-baseline="ideographic">Publication of "Flying Saucer </tspan>
          <tspan x="142.33" y="46" dominant-baseline="ideographic">from Mars</tspan>
        </text>
      </g>
    </g>
  </g>
  <g id="g-root-ic_ufo_1um6cif19kaozz-stroke-fill" data-item-order="0" transform="translate(266, 170)">
    <g id="ic_ufo_1um6cif19kaozz-stroke" fill="none" stroke-linecap="round" stroke-linejoin="round" stroke-miterlimit="4" stroke="#43dd93" stroke-width="2">
      <g>
        <path d="M 49 22.5C 52.977859 22.499041 56.352161 25.420879 56.919998 29.358C 56.961449 29.646814 56.874687 29.939325 56.682472 30.158836C 56.490257 30.378345 56.211758 30.502958 55.919998 30.5L 12.07 30.5C 11.778242 30.502958 11.499743 30.378345 11.307528 30.158836C 11.115312 29.939325 11.028553 29.646814 11.07 29.358C 11.638377 25.417118 15.018346 22.494064 19 22.5ZM 19 22.5C 19 17.5 25.716 11.5 34 11.5C 42.284 11.5 49 17.5 49 22.5M 47.77 39.5L 52.995998 56.5M 14.996 56.5L 20.232 39.5M 34.996002 49.5L 31.996 53.652M 37.996002 53.5L 34.996002 49.5M 31.996 46.5L 37.996002 46.5M 35 41.5C 35.552284 41.5 36 41.947716 36 42.5M 34 42.5C 34 41.947716 34.447716 41.5 35 41.5M 35 43.5C 34.447716 43.5 34 43.052284 34 42.5M 36 42.5C 36 43.052284 35.552284 43.5 35 43.5M 34.996002 49.5L 34.996002 46.5M 25 30.5C 25 33.261421 22.761425 35.5 20 35.5C 17.238577 35.5 15 33.261421 15 30.5M 39 30.5C 39 33.261421 36.761425 35.5 34 35.5C 31.238577 35.5 29 33.261421 29 30.5M 53 30.5C 53 33.261421 50.761425 35.5 48 35.5C 45.238575 35.5 43 33.261421 43 30.5"/>
      </g>
    </g>
  </g>
  <g id="g-root-tx_early195_1q6cudz19kc360-stroke-fill" data-item-order="0" transform="translate(494, 218)">
    <g id="tx_early195_1q6cudz19kc360-fill" stroke="none" fill="#a6da37">
      <g>
        <text style="font: bold 20px Roboto, sans-serif; white-space: pre;" font-weight="bold" font-size="20px" font-family="Roboto, sans-serif">
          <tspan x="12" y="34" dominant-baseline="ideographic">Early 1955</tspan>
        </text>
      </g>
    </g>
  </g>
  <g id="g-root-tx_timemaga_1cuwc0n19kc4qx-stroke-fill" data-item-order="0" transform="translate(494, 254)">
    <g id="tx_timemaga_1cuwc0n19kc4qx-fill" stroke="none" fill="#f4f4f4">
      <g>
        <text style="font: 15px Roboto, sans-serif; white-space: pre;" font-size="15px" font-family="Roboto, sans-serif">
          <tspan x="12" y="28" dominant-baseline="ideographic">Time magazine's skeptical </tspan>
          <tspan x="12" y="46" dominant-baseline="ideographic">coverage of Allingham's book</tspan>
        </text>
      </g>
    </g>
  </g>
  <g id="g-root-ic_publ_zk2aqf19kc362-stroke-fill" data-item-order="0" transform="translate(434, 218)">
    <g id="ic_publ_zk2aqf19kc362-stroke" fill="none" stroke-linecap="round" stroke-linejoin="round" stroke-miterlimit="4" stroke="#a6da37" stroke-width="2">
      <g>
        <path d="M 18.08 32.98L 32 57M 23.279999 24L 42.400002 57M 28.48 15L 52.799999 57M 36.559998 11L 57 46.299999M 11.440001 44.5C 11.149031 44.990063 10.996928 45.550076 11 46.120003L 11 55C 11 56.104568 11.895431 57 13 57L 55 57C 56.104568 57 57 56.104568 57 55L 57 13C 57 11.895431 56.104568 11 55 11L 31.780001 11C 31.15761 11.000338 30.583958 11.336881 30.279999 11.88Z"/>
      </g>
    </g>
  </g>
  <g id="g-root-tx_1986_v48slz19kdhc3-stroke-fill" data-item-order="0" transform="translate(194, 266)">
    <g id="tx_1986_v48slz19kdhc3-fill" stroke="none" fill="#fb6762">
      <g>
        <text style="font: bold 20px Roboto, sans-serif; white-space: pre;" font-weight="bold" font-size="20px" font-family="Roboto, sans-serif">
          <tspan x="22.09" y="34" dominant-baseline="ideographic">1986</tspan>
        </text>
      </g>
    </g>
  </g>
  <g id="g-root-tx_investig_8x59zr19kdjpo-stroke-fill" data-item-order="0" transform="translate(38, 302)">
    <g id="tx_investig_8x59zr19kdjpo-fill" stroke="none" fill="#f4f4f4">
      <g>
        <text style="font: 15px Roboto, sans-serif; white-space: pre;" font-size="15px" font-family="Roboto, sans-serif">
          <tspan x="16.31" y="28" dominant-baseline="ideographic">Investigation reveals Allingham </tspan>
          <tspan x="160.08" y="46" dominant-baseline="ideographic">as a hoax</tspan>
        </text>
      </g>
    </g>
  </g>
  <g id="g-root-ic_phot_4hy8yf19kdhc5-stroke-fill" data-item-order="0" transform="translate(266, 266)">
    <g id="ic_phot_4hy8yf19kdhc5-stroke" fill="none" stroke-linecap="round" stroke-linejoin="round" stroke-miterlimit="4" stroke="#fb6762" stroke-width="2">
      <g>
        <path d="M 17.566719 37.930199L 11.656924 24.85692C 11.256924 24.056919 11.656912 23.25692 12.45692 22.85692L 37.056999 11.656922C 37.857002 11.256922 38.656998 11.656924 39.056999 12.45692L 50.6698 37.930199M 10 10M 48.257 32.857002L 37.006798 37.9706M 10 10M 29.942881 37.786598L 31.942801 27.38658C 32.3428 25.386581 34.3428 24.38656 36.142799 25.18656L 47.142799 30.1866M 22.25692 31.257C 24.134701 31.257 25.65696 29.7348 25.65696 27.857019C 25.65696 25.979259 24.134701 24.457039 22.25692 24.457039C 20.37916 24.457039 18.856941 25.979259 18.856941 27.857019C 18.856941 29.7348 20.37916 31.257 22.25692 31.257ZM 10 10M 46.700001 15.656981L 55.099998 15.856979C 55.900002 15.856979 56.5 16.45698 56.5 17.45698L 56.299999 36.457001M 35.2836 56.384201L 35.2836 44.384201M 43.2836 44.384201L 35.2836 52.384201M 38.2836 49.384201L 44.2836 56.384201M 10 10M 56.3396 44.384201L 48.3396 44.384201L 48.3396 56.384201L 56.3396 56.384201M 48.3396 49.884201L 55.3396 49.884201M 11.6604 56.384201L 11.6604 44.384201L 19.6604 44.384201M 10 10M 11.6604 49.884201L 18.6604 49.884201M 10 10M 21.373779 56.384201L 25.05756 45.333C 25.246399 44.766399 25.776581 44.384201 26.373779 44.384201L 26.373779 44.384201C 26.970961 44.384201 27.50116 44.766399 27.690001 45.333L 31.3738 56.384201M 22.707119 52.384201L 30.0404 52.384201"/>
      </g>
    </g>
  </g>
  <g id="g-root-tx_2012_1lt18lz19keya6-stroke-fill" data-item-order="0" transform="translate(494, 314)">
    <g id="tx_2012_1lt18lz19keya6-fill" stroke="none" fill="#f366bb">
      <g>
        <text style="font: bold 20px Roboto, sans-serif; white-space: pre;" font-weight="bold" font-size="20px" font-family="Roboto, sans-serif">
          <tspan x="12" y="34" dominant-baseline="ideographic">2012</tspan>
        </text>
      </g>
    </g>
  </g>
  <g id="g-root-tx_steuartc_18i77br19kewpb-stroke-fill" data-item-order="0" transform="translate(494, 350)">
    <g id="tx_steuartc_18i77br19kewpb-fill" stroke="none" fill="#f4f4f4">
      <g>
        <text style="font: 15px Roboto, sans-serif; white-space: pre;" font-size="15px" font-family="Roboto, sans-serif">
          <tspan x="12" y="28" dominant-baseline="ideographic">Steuart Campbell's letter to The </tspan>
          <tspan x="12" y="46" dominant-baseline="ideographic">Scotsman summarizing findings</tspan>
        </text>
      </g>
    </g>
    <defs>
      <pattern id="crawlingPattern-0000001b" x="0" y="0" width="12" height="12" patternUnits="userSpaceOnUse" fill="#0000001b">
        <use href="#crawlingSymbol"/>
      </pattern>
      <symbol id="crawlingSymbol">
        <g>
          <path d="M -12.5 12.5 l 13 -13 l 6 0 l -13 13 Z M -0.5 12.5 l 13 -13 l 6 0 l -13 13 Z M 11.5 12.5 l 13 -13 l 6 0 l -13 13 Z"/>
        </g>
      </symbol>
      <pattern id="crawlingPattern-0060fba2" x="0" y="0" width="12" height="12" patternUnits="userSpaceOnUse" fill="#0060fba2">
        <use href="#crawlingSymbol"/>
      </pattern>
      <pattern id="crawlingPattern-00b15c75" x="0" y="0" width="12" height="12" patternUnits="userSpaceOnUse" fill="#00b15c75">
        <use href="#crawlingSymbol"/>
      </pattern>
      <pattern id="crawlingPattern-5c87005e" x="0" y="0" width="12" height="12" patternUnits="userSpaceOnUse" fill="#5c87005e">
        <use href="#crawlingSymbol"/>
      </pattern>
      <pattern id="crawlingPattern-f9080081" x="0" y="0" width="12" height="12" patternUnits="userSpaceOnUse" fill="#f9080081">
        <use href="#crawlingSymbol"/>
      </pattern>
      <pattern id="crawlingPattern-eb008e76" x="0" y="0" width="12" height="12" patternUnits="userSpaceOnUse" fill="#eb008e76">
        <use href="#crawlingSymbol"/>
      </pattern>
    </defs>
  </g>
  <g id="g-root-ic_skul_142dp7b19kexhk-stroke-fill" data-item-order="0" transform="translate(434, 314)">
    <g id="ic_skul_142dp7b19kexhk-stroke" fill="none" stroke-linecap="round" stroke-linejoin="round" stroke-miterlimit="4" stroke="#f366bb" stroke-width="2">
      <g>
        <path d="M 49 27.5L 57 33L 57 54C 57 55.656857 55.656857 57 54 57L 14 57C 12.343145 57 11 55.656857 11 54L 11 33L 19 27.5M 17 51L 27 43L 41 43L 51 51M 57 33L 45 41M 11 33L 23 41M 49 38.334L 49 13C 49 11.895431 48.104568 11 47 11L 21 11C 19.895432 11 19 11.895431 19 13L 19 38.334M 33.998001 32L 33.998001 35M 29 35L 29 31.25C 26.34827 29.126917 25.326456 25.560696 26.45149 22.355473C 27.576525 19.150249 30.603067 17.005001 34 17.005001C 37.396935 17.005001 40.423477 19.150249 41.548508 22.355473C 42.673542 25.560696 41.65173 29.126917 39 31.25L 39 35M 31 23.5C 31.276142 23.5 31.5 23.723858 31.5 24C 31.5 24.276142 31.276142 24.5 31 24.5C 30.723858 24.5 30.5 24.276142 30.5 24C 30.5 23.723858 30.723858 23.5 31 23.5M 37 23.5C 37.276142 23.5 37.5 23.723858 37.5 24C 37.5 24.276142 37.276142 24.5 37 24.5C 36.723858 24.5 36.5 24.276142 36.5 24C 36.5 23.723858 36.723858 23.5 37 23.5"/>
      </g>
    </g>
  </g>
</svg>
