<svg width="1080" height="576" viewBox="0 0 1080 576" style="fill:none;stroke:none;fill-rule:evenodd;clip-rule:evenodd;stroke-linecap:round;stroke-linejoin:round;stroke-miterlimit:1.5;" version="1.1" xmlns="http://www.w3.org/2000/svg" xmlns:xlink="http://www.w3.org/1999/xlink"><style class="text-font-style fontImports" data-font-family="Roboto">@import url('https://fonts.googleapis.com/css2?family=Roboto:wght@400;700&amp;display=block');</style><g id="g-root-tf_1hgyuhj1ayfpq9-stroke-fill" data-item-order="-576288" transform="translate(18, 12)"><g id="tf_1hgyuhj1ayfpq9-fill" stroke="none" fill="#2c2c2c"><g><path d="M 0 0L 1044 0L 1044 552L 0 552Z"></path></g></g><defs><pattern id="crawlingPattern-00d16d21" x="0" y="0" width="12" height="12" patternUnits="userSpaceOnUse" fill="#00d16d21"><use href="#crawlingSymbol"></use></pattern><symbol id="crawlingSymbol"><g><animateTransform attributeName="transform" type="translate" from="0 0" to="-12 0" dur="0.4s" repeatCount="indefinite"></animateTransform><path d="M -12.5 12.5 l 13 -13 l 6 0 l -13 13 Z M -0.5 12.5 l 13 -13 l 6 0 l -13 13 Z M 11.5 12.5 l 13 -13 l 6 0 l -13 13 Z"></path></g></symbol><pattern id="crawlingPattern-b5b5b51a" x="0" y="0" width="12" height="12" patternUnits="userSpaceOnUse" fill="#b5b5b51a"><use href="#crawlingSymbol"></use></pattern><pattern id="crawlingPattern-0060fb20" x="0" y="0" width="12" height="12" patternUnits="userSpaceOnUse" fill="#0060fb20"><use href="#crawlingSymbol"></use></pattern><pattern id="crawlingPattern-0000001b" x="0" y="0" width="12" height="12" patternUnits="userSpaceOnUse" fill="#0000001b"><use href="#crawlingSymbol"></use></pattern><pattern id="crawlingPattern-c1c1c11a" x="0" y="0" width="12" height="12" patternUnits="userSpaceOnUse" fill="#c1c1c11a"><use href="#crawlingSymbol"></use></pattern><pattern id="crawlingPattern-ffffff38" x="0" y="0" width="12" height="12" patternUnits="userSpaceOnUse" fill="#ffffff38"><use href="#crawlingSymbol"></use></pattern><pattern id="crawlingPattern-5f5f5f1a" x="0" y="0" width="12" height="12" patternUnits="userSpaceOnUse" fill="#5f5f5f1a"><use href="#crawlingSymbol"></use></pattern></defs><g id="tf_1hgyuhj1ayfpq9-fill-overlay" stroke="none" fill="url(#crawlingPattern-5f5f5f1a)"><g><path d="M 0 0L 1044 0L 1044 552L 0 552Z"></path></g></g></g><g id="g-root-cp_2_g-2_8dr6f1ay5uru-stroke-fill" data-item-order="-454166" transform="translate(536, 110)"><g id="cp_2_g-2_8dr6f1ay5uru-fill" stroke="none" fill="#43dd93"><g><path d="M 490 10L 10 10L 10 124.227C 50.2747 127.291 82 160.941 82 202C 82 243.059 50.2747 276.709 10 279.773L 10 394L 490 394L 490 10Z"></path></g></g><g id="cp_2_g-2_8dr6f1ay5uru-fill-overlay" stroke="none" fill="url(#crawlingPattern-00d16d21)"><g><path d="M 490 10L 10 10L 10 124.227C 50.2747 127.291 82 160.941 82 202C 82 243.059 50.2747 276.709 10 279.773L 10 394L 490 394L 490 10Z"></path></g></g><g id="cp_2_g-2_8dr6f1ay5uru-stroke" fill="none" stroke-linecap="round" stroke-linejoin="round" stroke-miterlimit="4" stroke="#2c2c2c" stroke-width="2"><g><path d="M 490 10L 10 10L 10 124.2273C 50.2747 127.2911 82 160.9406 82 202C 82 243.0594 50.2747 276.7089 10 279.7727L 10 394L 490 394L 490 10Z"></path></g></g><g id="cp_2_g-2_8dr6f1ay5uru-stroke-overlay" fill="none" stroke-linecap="round" stroke-linejoin="round" stroke-miterlimit="4" stroke="#ffffff29" stroke-width="2" stroke-dasharray="4,6"><animate attributeName="stroke-dashoffset" values="30;0" dur="1s" repeatCount="indefinite" begin="0"></animate><g><path d="M 490 10L 10 10L 10 124.2273C 50.2747 127.2911 82 160.9406 82 202C 82 243.0594 50.2747 276.7089 10 279.7727L 10 394L 490 394L 490 10Z"></path></g></g></g><g id="g-root-cp_0_g-0_1utob131ay5vd0-stroke-fill" data-item-order="-454162" transform="translate(464, 236)"><g id="cp_0_g-0_1utob131ay5vd0-fill" stroke="none" fill="#e8e8e8"><g><path d="M 76 142C 112.451 142 142 112.451 142 76C 142 39.5492 112.451 10 76 10C 39.5492 10 10 39.5492 10 76C 10 112.451 39.5492 142 76 142ZM 103.2699 84.8789C 103.5027 85.4801 103.6191 86.159 103.6191 86.9154C 103.6191 87.8658 103.3766 88.7192 102.8917 89.4756C 102.4262 90.2321 101.6989 90.8236 100.7097 91.2503C 99.7399 91.677 98.4986 91.8904 96.9858 91.8904C 95.7444 91.8904 94.6001 91.7643 93.5527 91.5122C 92.5248 91.26 91.6326 90.8527 90.8761 90.2902C 90.1391 89.7278 89.5669 88.9907 89.1596 88.0791C 88.7523 87.1675 88.5487 86.0523 88.5487 84.7334L 79.7915 84.7334C 79.7915 87.1191 80.2861 89.1847 81.2753 90.9303C 82.2645 92.6759 83.5834 94.1112 85.232 95.2361C 86.9 96.3611 88.7523 97.2048 90.7889 97.7673C 92.8254 98.3103 94.891 98.5819 96.9858 98.5819C 99.3132 98.5819 101.4177 98.32 103.299 97.7963C 105.1804 97.2727 106.7999 96.5065 108.1576 95.498C 109.5153 94.4894 110.553 93.2578 111.271 91.8031C 111.988 90.3484 112.347 88.6998 112.347 86.8572C 112.347 85.1116 112.046 83.5503 111.445 82.1732C 110.844 80.7961 109.9517 79.5645 108.7686 78.4783C 107.5855 77.3922 106.1114 76.4127 104.3464 75.5399C 102.6008 74.6671 100.574 73.8816 98.2659 73.1833C 96.8888 72.7566 95.6766 72.3202 94.6292 71.8741C 93.5818 71.428 92.6993 70.9528 91.9817 70.4485C 91.2641 69.9442 90.721 69.4012 90.3525 68.8193C 90.0033 68.2374 89.8288 67.5877 89.8288 66.87C 89.8288 65.9197 90.0809 65.0662 90.5852 64.3098C 91.0895 63.534 91.8459 62.923 92.8545 62.4769C 93.8631 62.0114 95.1238 61.7787 96.6366 61.7787C 98.2077 61.7787 99.5072 62.0502 100.5352 62.5933C 101.5825 63.1364 102.3583 63.8831 102.8626 64.8335C 103.3863 65.7645 103.6482 66.8506 103.6482 68.092L 112.318 68.092C 112.318 65.5705 111.668 63.3303 110.369 61.3714C 109.0886 59.4124 107.2848 57.8705 104.9574 56.7455C 102.6299 55.6206 99.9048 55.0581 96.7821 55.0581C 94.4934 55.0581 92.389 55.3393 90.4688 55.9018C 88.5681 56.4643 86.9194 57.2692 85.5229 58.3166C 84.1265 59.3445 83.0403 60.5859 82.2645 62.0405C 81.4887 63.4758 81.1008 65.0759 81.1008 66.8409C 81.1008 68.6641 81.4693 70.2643 82.2063 71.6414C 82.9627 73.0185 83.9907 74.2307 85.2902 75.278C 86.6091 76.306 88.122 77.2079 89.8288 77.9837C 91.555 78.7595 93.3782 79.4578 95.2983 80.0785C 97.0246 80.6215 98.4307 81.1452 99.5169 81.6495C 100.603 82.1538 101.4468 82.6678 102.048 83.1915C 102.6493 83.6957 103.0566 84.2582 103.2699 84.8789ZM 77.6095 55.64L 67.8923 55.64L 58.2921 87.8835L 48.7198 55.64L 39.0608 55.64L 53.7238 98L 56.4586 98L 62.8592 98L 77.6095 55.64Z"></path></g></g><g id="cp_0_g-0_1utob131ay5vd0-fill-overlay" stroke="none" fill="url(#crawlingPattern-b5b5b51a)"><g><path d="M 76 142C 112.451 142 142 112.451 142 76C 142 39.5492 112.451 10 76 10C 39.5492 10 10 39.5492 10 76C 10 112.451 39.5492 142 76 142ZM 103.2699 84.8789C 103.5027 85.4801 103.6191 86.159 103.6191 86.9154C 103.6191 87.8658 103.3766 88.7192 102.8917 89.4756C 102.4262 90.2321 101.6989 90.8236 100.7097 91.2503C 99.7399 91.677 98.4986 91.8904 96.9858 91.8904C 95.7444 91.8904 94.6001 91.7643 93.5527 91.5122C 92.5248 91.26 91.6326 90.8527 90.8761 90.2902C 90.1391 89.7278 89.5669 88.9907 89.1596 88.0791C 88.7523 87.1675 88.5487 86.0523 88.5487 84.7334L 79.7915 84.7334C 79.7915 87.1191 80.2861 89.1847 81.2753 90.9303C 82.2645 92.6759 83.5834 94.1112 85.232 95.2361C 86.9 96.3611 88.7523 97.2048 90.7889 97.7673C 92.8254 98.3103 94.891 98.5819 96.9858 98.5819C 99.3132 98.5819 101.4177 98.32 103.299 97.7963C 105.1804 97.2727 106.7999 96.5065 108.1576 95.498C 109.5153 94.4894 110.553 93.2578 111.271 91.8031C 111.988 90.3484 112.347 88.6998 112.347 86.8572C 112.347 85.1116 112.046 83.5503 111.445 82.1732C 110.844 80.7961 109.9517 79.5645 108.7686 78.4783C 107.5855 77.3922 106.1114 76.4127 104.3464 75.5399C 102.6008 74.6671 100.574 73.8816 98.2659 73.1833C 96.8888 72.7566 95.6766 72.3202 94.6292 71.8741C 93.5818 71.428 92.6993 70.9528 91.9817 70.4485C 91.2641 69.9442 90.721 69.4012 90.3525 68.8193C 90.0033 68.2374 89.8288 67.5877 89.8288 66.87C 89.8288 65.9197 90.0809 65.0662 90.5852 64.3098C 91.0895 63.534 91.8459 62.923 92.8545 62.4769C 93.8631 62.0114 95.1238 61.7787 96.6366 61.7787C 98.2077 61.7787 99.5072 62.0502 100.5352 62.5933C 101.5825 63.1364 102.3583 63.8831 102.8626 64.8335C 103.3863 65.7645 103.6482 66.8506 103.6482 68.092L 112.318 68.092C 112.318 65.5705 111.668 63.3303 110.369 61.3714C 109.0886 59.4124 107.2848 57.8705 104.9574 56.7455C 102.6299 55.6206 99.9048 55.0581 96.7821 55.0581C 94.4934 55.0581 92.389 55.3393 90.4688 55.9018C 88.5681 56.4643 86.9194 57.2692 85.5229 58.3166C 84.1265 59.3445 83.0403 60.5859 82.2645 62.0405C 81.4887 63.4758 81.1008 65.0759 81.1008 66.8409C 81.1008 68.6641 81.4693 70.2643 82.2063 71.6414C 82.9627 73.0185 83.9907 74.2307 85.2902 75.278C 86.6091 76.306 88.122 77.2079 89.8288 77.9837C 91.555 78.7595 93.3782 79.4578 95.2983 80.0785C 97.0246 80.6215 98.4307 81.1452 99.5169 81.6495C 100.603 82.1538 101.4468 82.6678 102.048 83.1915C 102.6493 83.6957 103.0566 84.2582 103.2699 84.8789ZM 77.6095 55.64L 67.8923 55.64L 58.2921 87.8835L 48.7198 55.64L 39.0608 55.64L 53.7238 98L 56.4586 98L 62.8592 98L 77.6095 55.64Z"></path></g></g><g id="cp_0_g-0_1utob131ay5vd0-stroke" fill="none" stroke-linecap="round" stroke-linejoin="round" stroke-miterlimit="4" stroke="#2c2c2c" stroke-width="2"><g><path d="M 76 142C 112.4508 142 142 112.4508 142 76C 142 39.5492 112.4508 10 76 10C 39.5492 10 10 39.5492 10 76C 10 112.4508 39.5492 142 76 142ZM 103.2699 84.8789C 103.5027 85.4801 103.6191 86.159 103.6191 86.9154C 103.6191 87.8658 103.3766 88.7192 102.8917 89.4756C 102.4262 90.2321 101.6989 90.8236 100.7097 91.2503C 99.7399 91.677 98.4986 91.8904 96.9858 91.8904C 95.7444 91.8904 94.6001 91.7643 93.5527 91.5122C 92.5248 91.26 91.6326 90.8527 90.8761 90.2902C 90.1391 89.7278 89.5669 88.9907 89.1596 88.0791C 88.7523 87.1676 88.5487 86.0523 88.5487 84.7334L 79.7915 84.7334C 79.7915 87.1191 80.2861 89.1847 81.2753 90.9303C 82.2645 92.6759 83.5834 94.1112 85.232 95.2361C 86.9 96.3611 88.7523 97.2048 90.7889 97.7673C 92.8254 98.3103 94.891 98.5819 96.9858 98.5819C 99.3132 98.5819 101.4177 98.32 103.299 97.7963C 105.1804 97.2727 106.7999 96.5065 108.1576 95.498C 109.5153 94.4894 110.553 93.2578 111.2706 91.8031C 111.9883 90.3484 112.3471 88.6998 112.3471 86.8572C 112.3471 85.1116 112.0465 83.5503 111.4452 82.1732C 110.8439 80.7961 109.9517 79.5645 108.7686 78.4783C 107.5855 77.3922 106.1114 76.4127 104.3464 75.5399C 102.6008 74.6671 100.5739 73.8816 98.2659 73.1833C 96.8888 72.7566 95.6766 72.3202 94.6292 71.8741C 93.5818 71.428 92.6993 70.9528 91.9817 70.4485C 91.2641 69.9442 90.721 69.4012 90.3525 68.8193C 90.0033 68.2374 89.8288 67.5877 89.8288 66.87C 89.8288 65.9197 90.0809 65.0662 90.5852 64.3098C 91.0895 63.534 91.8459 62.923 92.8545 62.4769C 93.8631 62.0114 95.1238 61.7787 96.6366 61.7787C 98.2077 61.7787 99.5072 62.0502 100.5352 62.5933C 101.5825 63.1364 102.3583 63.8831 102.8626 64.8335C 103.3863 65.7645 103.6482 66.8506 103.6482 68.092L 112.318 68.092C 112.318 65.5705 111.6682 63.3303 110.3687 61.3714C 109.0886 59.4124 107.2848 57.8705 104.9574 56.7455C 102.6299 55.6206 99.9048 55.0581 96.7821 55.0581C 94.4934 55.0581 92.389 55.3393 90.4688 55.9018C 88.5681 56.4643 86.9194 57.2692 85.5229 58.3166C 84.1265 59.3445 83.0403 60.5859 82.2645 62.0405C 81.4887 63.4758 81.1008 65.0759 81.1008 66.8409C 81.1008 68.6641 81.4693 70.2643 82.2063 71.6414C 82.9627 73.0184 83.9907 74.2307 85.2902 75.278C 86.6091 76.306 88.122 77.2079 89.8288 77.9837C 91.555 78.7595 93.3782 79.4578 95.2983 80.0785C 97.0246 80.6215 98.4307 81.1452 99.5169 81.6495C 100.603 82.1538 101.4468 82.6678 102.048 83.1915C 102.6493 83.6957 103.0566 84.2582 103.2699 84.8789ZM 77.6095 55.64L 67.8923 55.64L 58.2921 87.8835L 48.7198 55.64L 39.0608 55.64L 53.7238 98L 62.8592 98L 77.6095 55.64Z"></path></g></g><g id="cp_0_g-0_1utob131ay5vd0-stroke-overlay" fill="none" stroke-linecap="round" stroke-linejoin="round" stroke-miterlimit="4" stroke="#ffffff29" stroke-width="2" stroke-dasharray="4,6"><animate attributeName="stroke-dashoffset" values="30;0" dur="1s" repeatCount="indefinite" begin="0"></animate><g><path d="M 76 142C 112.4508 142 142 112.4508 142 76C 142 39.5492 112.4508 10 76 10C 39.5492 10 10 39.5492 10 76C 10 112.4508 39.5492 142 76 142ZM 103.2699 84.8789C 103.5027 85.4801 103.6191 86.159 103.6191 86.9154C 103.6191 87.8658 103.3766 88.7192 102.8917 89.4756C 102.4262 90.2321 101.6989 90.8236 100.7097 91.2503C 99.7399 91.677 98.4986 91.8904 96.9858 91.8904C 95.7444 91.8904 94.6001 91.7643 93.5527 91.5122C 92.5248 91.26 91.6326 90.8527 90.8761 90.2902C 90.1391 89.7278 89.5669 88.9907 89.1596 88.0791C 88.7523 87.1676 88.5487 86.0523 88.5487 84.7334L 79.7915 84.7334C 79.7915 87.1191 80.2861 89.1847 81.2753 90.9303C 82.2645 92.6759 83.5834 94.1112 85.232 95.2361C 86.9 96.3611 88.7523 97.2048 90.7889 97.7673C 92.8254 98.3103 94.891 98.5819 96.9858 98.5819C 99.3132 98.5819 101.4177 98.32 103.299 97.7963C 105.1804 97.2727 106.7999 96.5065 108.1576 95.498C 109.5153 94.4894 110.553 93.2578 111.2706 91.8031C 111.9883 90.3484 112.3471 88.6998 112.3471 86.8572C 112.3471 85.1116 112.0465 83.5503 111.4452 82.1732C 110.8439 80.7961 109.9517 79.5645 108.7686 78.4783C 107.5855 77.3922 106.1114 76.4127 104.3464 75.5399C 102.6008 74.6671 100.5739 73.8816 98.2659 73.1833C 96.8888 72.7566 95.6766 72.3202 94.6292 71.8741C 93.5818 71.428 92.6993 70.9528 91.9817 70.4485C 91.2641 69.9442 90.721 69.4012 90.3525 68.8193C 90.0033 68.2374 89.8288 67.5877 89.8288 66.87C 89.8288 65.9197 90.0809 65.0662 90.5852 64.3098C 91.0895 63.534 91.8459 62.923 92.8545 62.4769C 93.8631 62.0114 95.1238 61.7787 96.6366 61.7787C 98.2077 61.7787 99.5072 62.0502 100.5352 62.5933C 101.5825 63.1364 102.3583 63.8831 102.8626 64.8335C 103.3863 65.7645 103.6482 66.8506 103.6482 68.092L 112.318 68.092C 112.318 65.5705 111.6682 63.3303 110.3687 61.3714C 109.0886 59.4124 107.2848 57.8705 104.9574 56.7455C 102.6299 55.6206 99.9048 55.0581 96.7821 55.0581C 94.4934 55.0581 92.389 55.3393 90.4688 55.9018C 88.5681 56.4643 86.9194 57.2692 85.5229 58.3166C 84.1265 59.3445 83.0403 60.5859 82.2645 62.0405C 81.4887 63.4758 81.1008 65.0759 81.1008 66.8409C 81.1008 68.6641 81.4693 70.2643 82.2063 71.6414C 82.9627 73.0184 83.9907 74.2307 85.2902 75.278C 86.6091 76.306 88.122 77.2079 89.8288 77.9837C 91.555 78.7595 93.3782 79.4578 95.2983 80.0785C 97.0246 80.6215 98.4307 81.1452 99.5169 81.6495C 100.603 82.1538 101.4468 82.6678 102.048 83.1915C 102.6493 83.6957 103.0566 84.2582 103.2699 84.8789ZM 77.6095 55.64L 67.8923 55.64L 58.2921 87.8835L 48.7198 55.64L 39.0608 55.64L 53.7238 98L 62.8592 98L 77.6095 55.64Z"></path></g></g></g><g id="g-root-cp_1_g-1_1ly1as71ay5w5q-stroke-fill" data-item-order="-454158" transform="translate(44, 110)"><g id="cp_1_g-1_1ly1as71ay5w5q-fill" stroke="none" fill="#4f91fc"><g><path d="M 490 10L 10 10L 10 394L 490 394L 490 279.773C 449.725 276.709 418 243.059 418 202C 418 160.941 449.725 127.291 490 124.227L 490 10Z"></path></g></g><g id="cp_1_g-1_1ly1as71ay5w5q-fill-overlay" stroke="none" fill="url(#crawlingPattern-0060fb20)"><g><path d="M 490 10L 10 10L 10 394L 490 394L 490 279.773C 449.725 276.709 418 243.059 418 202C 418 160.941 449.725 127.291 490 124.227L 490 10Z"></path></g></g><g id="cp_1_g-1_1ly1as71ay5w5q-stroke" fill="none" stroke-linecap="round" stroke-linejoin="round" stroke-miterlimit="4" stroke="#2c2c2c" stroke-width="2"><g><path d="M 490 10L 10 10L 10 394L 490 394L 490 279.7727C 449.7253 276.7089 418 243.0594 418 202C 418 160.9406 449.7253 127.2911 490 124.2273L 490 10Z"></path></g></g><g id="cp_1_g-1_1ly1as71ay5w5q-stroke-overlay" fill="none" stroke-linecap="round" stroke-linejoin="round" stroke-miterlimit="4" stroke="#ffffff29" stroke-width="2" stroke-dasharray="4,6"><animate attributeName="stroke-dashoffset" values="30;0" dur="1s" repeatCount="indefinite" begin="0"></animate><g><path d="M 490 10L 10 10L 10 394L 490 394L 490 279.7727C 449.7253 276.7089 418 243.0594 418 202C 418 160.9406 449.7253 127.2911 490 124.2273L 490 10Z"></path></g></g></g><g id="g-root-ic_1_zrk9931ay5w5d-stroke-fill" data-item-order="-36864" transform="translate(68, 206)"><g id="ic_1_zrk9931ay5w5d-fill" stroke="none" fill="#f4f4f4"><g><path d="M 178.936005 36.080002C 179.082901 43.53212 175.191284 50.481895 168.760941 54.251011C 162.330582 58.020123 154.365402 58.020123 147.935059 54.251011C 141.5047 50.481895 137.613098 43.53212 137.759995 36.080002C 137.981018 24.867712 147.13353 15.893847 158.347992 15.893847C 169.562454 15.893847 178.714966 24.867712 178.935989 36.080002ZM 51.504002 32.823997L 51.504002 56.664001L 64.32 56.664001C 66.745132 56.666134 68.930527 58.12796 69.858299 60.368614C 70.786072 62.609264 70.273766 65.18811 68.559998 66.904007L 47.759998 87.711998C 45.417461 90.051628 41.622543 90.051628 39.279999 87.712006L 18.472 66.912003C 16.752516 65.196854 16.236572 62.6143 17.165068 60.370144C 18.093563 58.125988 20.28335 56.662899 22.712002 56.664001L 35.512001 56.664001L 35.512001 32.823997C 35.512001 23.987444 42.675446 16.823999 51.512001 16.823999L 101.688004 16.823999C 106.106277 16.823999 109.688004 20.405722 109.688004 24.824001C 109.688004 29.242277 106.106277 32.823997 101.688004 32.823997L 51.504002 32.823997ZM 166.240005 156.664001L 153.423996 156.664001C 150.998871 156.661865 148.813477 155.200043 147.885712 152.959396C 146.957932 150.718735 147.470245 148.139893 149.184006 146.424011L 169.983994 125.615997C 172.327454 123.271042 176.128555 123.271042 178.472 125.616005L 199.279999 146.416C 200.999496 148.131149 201.515427 150.713699 200.586945 152.957855C 199.658447 155.202011 197.468658 156.665115 195.040009 156.664001L 182.240005 156.664001L 182.240005 180.503998C 182.240005 189.340561 175.076553 196.503998 166.240005 196.503998L 116.064003 196.503998C 111.645721 196.503998 108.064003 192.922272 108.064003 188.503998C 108.064003 184.085724 111.645721 180.503998 116.064003 180.503998L 166.240005 180.503998L 166.240005 156.664001ZM 53.456001 152.664001C 60.946785 152.872864 67.959702 148.995895 71.766693 142.541245C 75.573677 136.086609 75.573677 128.07338 71.766693 121.618744C 67.959702 115.164101 60.946785 111.287132 53.455997 111.495995C 42.24371 111.717018 33.269844 120.86953 33.269844 132.083984C 33.269844 143.298462 42.24371 152.450974 53.455997 152.671997ZM 95.040001 186.384003C 86.695999 171.888 71.007996 161.904007 53.439999 161.904007C 35.872002 161.904007 20.175999 171.888 11.84 186.384003C 9.152 191.039993 12.968 196.272003 18.344 196.272003L 88.536003 196.272003C 93.903999 196.272003 97.720001 191.039993 95.040001 186.384003ZM 158.328003 65.903999C 175.895996 65.903999 191.591995 75.888 199.927994 90.384003C 202.615997 95.040001 198.800003 100.272003 193.423996 100.272003L 123.232002 100.272003C 117.863998 100.272003 114.047997 95.040001 116.727997 90.384003C 125.071999 75.888 140.759995 65.903999 158.328003 65.903999Z"></path></g></g><g id="ic_1_zrk9931ay5w5d-fill-overlay" stroke="none" fill="url(#crawlingPattern-c1c1c11a)"><g><path d="M 178.936005 36.080002C 179.082901 43.53212 175.191284 50.481895 168.760941 54.251011C 162.330582 58.020123 154.365402 58.020123 147.935059 54.251011C 141.5047 50.481895 137.613098 43.53212 137.759995 36.080002C 137.981018 24.867712 147.13353 15.893847 158.347992 15.893847C 169.562454 15.893847 178.714966 24.867712 178.935989 36.080002ZM 51.504002 32.823997L 51.504002 56.664001L 64.32 56.664001C 66.745132 56.666134 68.930527 58.12796 69.858299 60.368614C 70.786072 62.609264 70.273766 65.18811 68.559998 66.904007L 47.759998 87.711998C 45.417461 90.051628 41.622543 90.051628 39.279999 87.712006L 18.472 66.912003C 16.752516 65.196854 16.236572 62.6143 17.165068 60.370144C 18.093563 58.125988 20.28335 56.662899 22.712002 56.664001L 35.512001 56.664001L 35.512001 32.823997C 35.512001 23.987444 42.675446 16.823999 51.512001 16.823999L 101.688004 16.823999C 106.106277 16.823999 109.688004 20.405722 109.688004 24.824001C 109.688004 29.242277 106.106277 32.823997 101.688004 32.823997L 51.504002 32.823997ZM 166.240005 156.664001L 153.423996 156.664001C 150.998871 156.661865 148.813477 155.200043 147.885712 152.959396C 146.957932 150.718735 147.470245 148.139893 149.184006 146.424011L 169.983994 125.615997C 172.327454 123.271042 176.128555 123.271042 178.472 125.616005L 199.279999 146.416C 200.999496 148.131149 201.515427 150.713699 200.586945 152.957855C 199.658447 155.202011 197.468658 156.665115 195.040009 156.664001L 182.240005 156.664001L 182.240005 180.503998C 182.240005 189.340561 175.076553 196.503998 166.240005 196.503998L 116.064003 196.503998C 111.645721 196.503998 108.064003 192.922272 108.064003 188.503998C 108.064003 184.085724 111.645721 180.503998 116.064003 180.503998L 166.240005 180.503998L 166.240005 156.664001ZM 53.456001 152.664001C 60.946785 152.872864 67.959702 148.995895 71.766693 142.541245C 75.573677 136.086609 75.573677 128.07338 71.766693 121.618744C 67.959702 115.164101 60.946785 111.287132 53.455997 111.495995C 42.24371 111.717018 33.269844 120.86953 33.269844 132.083984C 33.269844 143.298462 42.24371 152.450974 53.455997 152.671997ZM 95.040001 186.384003C 86.695999 171.888 71.007996 161.904007 53.439999 161.904007C 35.872002 161.904007 20.175999 171.888 11.84 186.384003C 9.152 191.039993 12.968 196.272003 18.344 196.272003L 88.536003 196.272003C 93.903999 196.272003 97.720001 191.039993 95.040001 186.384003ZM 158.328003 65.903999C 175.895996 65.903999 191.591995 75.888 199.927994 90.384003C 202.615997 95.040001 198.800003 100.272003 193.423996 100.272003L 123.232002 100.272003C 117.863998 100.272003 114.047997 95.040001 116.727997 90.384003C 125.071999 75.888 140.759995 65.903999 158.328003 65.903999Z"></path></g></g></g><g id="g-root-ic_2_1430frr1aye9l6-stroke-fill" data-item-order="-36864" transform="translate(800, 206)"><g id="ic_2_1430frr1aye9l6-fill" stroke="none" fill="#f4f4f4"><g><path d="M 10 10M 102.720001 129.199997L 108 127.279999C 109.009293 126.906242 109.838684 126.162651 110.319992 125.199989C 110.72007 124.226158 110.72007 123.133842 110.32 122.160004L 97.040001 85.360001C 96.254295 83.3153 93.994209 82.255882 91.919998 82.959999L 70 90.959999C 63.972809 93.245224 60.854145 99.907822 62.960003 106.000008L 70.959999 128.080002C 71.858292 130.508148 73.512932 132.583435 75.68 134L 43.119999 190.399994C 42.04501 192.234467 41.744514 194.421417 42.284893 196.477844C 42.825264 198.534256 44.162048 200.29097 46 201.360001C 47.211464 202.07901 48.591309 202.465363 50 202.479996C 52.869476 202.491394 55.525272 200.965073 56.959999 198.479996L 82 155.039993L 82 194.479996C 82 198.898285 85.581718 202.479996 90 202.479996C 94.418282 202.479996 98 198.898285 98 194.479996L 98 154L 123.040001 198.720001C 124.433372 201.266769 127.097061 202.858856 130 202.880005C 131.370239 202.846237 132.713226 202.489929 133.919998 201.839996C 137.75827 199.670624 139.117844 194.804764 136.959991 190.960007ZM 40.32 68.160004C 41.810085 69.637955 43.821281 70.471161 45.919998 70.479996C 48.046425 70.492294 50.090248 69.657494 51.599998 68.160004L 63.68 56.080002C 66.781784 52.959702 66.781784 47.9203 63.68 44.799999C 62.177868 43.2855 60.133099 42.433613 58 42.433613C 55.866901 42.433613 53.822132 43.2855 52.32 44.799999L 45.919998 51.200001L 39.52 44.799999C 36.345917 42.081787 31.614447 42.264542 28.659494 45.219494C 25.704542 48.174446 25.521786 52.905918 28.24 56.080002ZM 96.32 36.16C 97.810081 37.637955 99.821281 38.471161 101.919998 38.48C 104.046425 38.492294 106.090248 37.657494 107.599998 36.16L 119.68 24.08C 122.781792 20.959702 122.781792 15.9203 119.68 12.8C 118.177864 11.285499 116.133102 10.433614 114 10.433614C 111.866898 10.433614 109.822136 11.285499 108.32 12.8L 101.919998 19.200001L 95.519997 12.8C 92.345917 10.081785 87.614449 10.264542 84.659492 13.219494C 81.704544 16.174446 81.521782 20.905918 84.239998 24.08ZM 199.679993 12.8C 198.177872 11.285499 196.133102 10.433614 194 10.433614C 191.866898 10.433614 189.822128 11.285499 188.320007 12.8L 181.919998 19.200001L 175.520004 12.8C 173.56488 10.516991 170.495056 9.522545 167.572647 10.225519C 164.650238 10.928493 162.3685 13.210243 161.665512 16.132648C 160.96254 19.055054 161.956985 22.124882 164.240005 24.08L 176.320007 36.16C 177.810089 37.637955 179.821274 38.471161 181.919998 38.48C 184.046417 38.492294 186.090256 37.657494 187.600006 36.16L 199.679993 24.08C 202.781784 20.959702 202.781784 15.9203 199.679993 12.8ZM 58.639999 131.440002C 59.001183 130.458862 59.001183 129.381165 58.640003 128.400009L 53.439999 114C 53.097382 112.989372 52.357555 112.162109 51.391319 111.709183C 50.425083 111.256264 49.31596 111.216835 48.32 111.599998L 15.280001 123.199997C 11.128108 124.703629 8.979695 129.286896 10.48 133.440002L 13.12 140.639999C 14.623627 144.791885 19.206905 146.940308 23.360001 145.440002L 56.400002 133.519989C 57.371254 133.116653 58.165909 132.378754 58.640003 131.440002ZM 162.399994 58C 161.289032 54.892059 158.923141 52.394039 155.880096 51.115963C 152.837067 49.837887 149.397003 49.897411 146.399994 51.279999L 114 66C 108.380257 68.552689 105.66433 74.994324 107.760002 80.800003L 122 118.720001C 123.631165 123.477921 128.090363 126.685982 133.119995 126.720001C 134.174194 126.744385 135.226044 126.609535 136.23999 126.319992L 170 116.639999C 173.178467 115.745697 175.843567 113.573051 177.360016 110.640007C 178.848038 107.71125 179.079117 104.302788 178 101.199997Z"></path></g></g><g id="ic_2_1430frr1aye9l6-fill-overlay" stroke="none" fill="url(#crawlingPattern-c1c1c11a)"><g><path d="M 10 10M 102.720001 129.199997L 108 127.279999C 109.009293 126.906242 109.838684 126.162651 110.319992 125.199989C 110.72007 124.226158 110.72007 123.133842 110.32 122.160004L 97.040001 85.360001C 96.254295 83.3153 93.994209 82.255882 91.919998 82.959999L 70 90.959999C 63.972809 93.245224 60.854145 99.907822 62.960003 106.000008L 70.959999 128.080002C 71.858292 130.508148 73.512932 132.583435 75.68 134L 43.119999 190.399994C 42.04501 192.234467 41.744514 194.421417 42.284893 196.477844C 42.825264 198.534256 44.162048 200.29097 46 201.360001C 47.211464 202.07901 48.591309 202.465363 50 202.479996C 52.869476 202.491394 55.525272 200.965073 56.959999 198.479996L 82 155.039993L 82 194.479996C 82 198.898285 85.581718 202.479996 90 202.479996C 94.418282 202.479996 98 198.898285 98 194.479996L 98 154L 123.040001 198.720001C 124.433372 201.266769 127.097061 202.858856 130 202.880005C 131.370239 202.846237 132.713226 202.489929 133.919998 201.839996C 137.75827 199.670624 139.117844 194.804764 136.959991 190.960007ZM 40.32 68.160004C 41.810085 69.637955 43.821281 70.471161 45.919998 70.479996C 48.046425 70.492294 50.090248 69.657494 51.599998 68.160004L 63.68 56.080002C 66.781784 52.959702 66.781784 47.9203 63.68 44.799999C 62.177868 43.2855 60.133099 42.433613 58 42.433613C 55.866901 42.433613 53.822132 43.2855 52.32 44.799999L 45.919998 51.200001L 39.52 44.799999C 36.345917 42.081787 31.614447 42.264542 28.659494 45.219494C 25.704542 48.174446 25.521786 52.905918 28.24 56.080002ZM 96.32 36.16C 97.810081 37.637955 99.821281 38.471161 101.919998 38.48C 104.046425 38.492294 106.090248 37.657494 107.599998 36.16L 119.68 24.08C 122.781792 20.959702 122.781792 15.9203 119.68 12.8C 118.177864 11.285499 116.133102 10.433614 114 10.433614C 111.866898 10.433614 109.822136 11.285499 108.32 12.8L 101.919998 19.200001L 95.519997 12.8C 92.345917 10.081785 87.614449 10.264542 84.659492 13.219494C 81.704544 16.174446 81.521782 20.905918 84.239998 24.08ZM 199.679993 12.8C 198.177872 11.285499 196.133102 10.433614 194 10.433614C 191.866898 10.433614 189.822128 11.285499 188.320007 12.8L 181.919998 19.200001L 175.520004 12.8C 173.56488 10.516991 170.495056 9.522545 167.572647 10.225519C 164.650238 10.928493 162.3685 13.210243 161.665512 16.132648C 160.96254 19.055054 161.956985 22.124882 164.240005 24.08L 176.320007 36.16C 177.810089 37.637955 179.821274 38.471161 181.919998 38.48C 184.046417 38.492294 186.090256 37.657494 187.600006 36.16L 199.679993 24.08C 202.781784 20.959702 202.781784 15.9203 199.679993 12.8ZM 58.639999 131.440002C 59.001183 130.458862 59.001183 129.381165 58.640003 128.400009L 53.439999 114C 53.097382 112.989372 52.357555 112.162109 51.391319 111.709183C 50.425083 111.256264 49.31596 111.216835 48.32 111.599998L 15.280001 123.199997C 11.128108 124.703629 8.979695 129.286896 10.48 133.440002L 13.12 140.639999C 14.623627 144.791885 19.206905 146.940308 23.360001 145.440002L 56.400002 133.519989C 57.371254 133.116653 58.165909 132.378754 58.640003 131.440002ZM 162.399994 58C 161.289032 54.892059 158.923141 52.394039 155.880096 51.115963C 152.837067 49.837887 149.397003 49.897411 146.399994 51.279999L 114 66C 108.380257 68.552689 105.66433 74.994324 107.760002 80.800003L 122 118.720001C 123.631165 123.477921 128.090363 126.685982 133.119995 126.720001C 134.174194 126.744385 135.226044 126.609535 136.23999 126.319992L 170 116.639999C 173.178467 115.745697 175.843567 113.573051 177.360016 110.640007C 178.848038 107.71125 179.079117 104.302788 178 101.199997Z"></path></g></g></g><g id="g-root-tx_howtoapp_1d30rmf1ay5ukg-stroke-fill" data-item-order="0" transform="translate(350, 50)"><g id="tx_howtoapp_1d30rmf1ay5ukg-fill" stroke="none" fill="#f4f4f4"><g><text style="font: 20px Roboto, sans-serif; white-space: pre;" font-size="20px" font-family="Roboto, sans-serif"><tspan x="16.41" y="34" dominant-baseline="ideographic">How to approach UFO claims critically?</tspan></text></g></g><g id="tx_howtoapp_1d30rmf1ay5ukg-fill-overlay" stroke="none" fill="url(#crawlingPattern-0000001b)"><g><text style="font: 20px Roboto, sans-serif; white-space: pre;" font-size="20px" font-family="Roboto, sans-serif"><tspan x="16.41" y="34" dominant-baseline="ideographic">How to approach UFO claims critically?</tspan></text></g></g></g><g id="g-root-tx_cultural_1hf3f871ayfqpx-stroke-fill" data-item-order="0" transform="translate(284, 248)"><g id="tx_cultural_1hf3f871ayfqpx-fill" stroke="none" fill="#2c2c2c"><g><text style="font: bold 20px Roboto, sans-serif; white-space: pre;" font-weight="bold" font-size="20px" font-family="Roboto, sans-serif"><tspan x="12" y="34" dominant-baseline="ideographic">Cultural Impact</tspan></text></g></g><g id="tx_cultural_1hf3f871ayfqpx-fill-overlay" stroke="none" fill="url(#crawlingPattern-ffffff38)"><g><text style="font: bold 20px Roboto, sans-serif; white-space: pre;" font-weight="bold" font-size="20px" font-family="Roboto, sans-serif"><tspan x="12" y="34" dominant-baseline="ideographic">Cultural Impact</tspan></text></g></g></g><g id="g-root-tx_adaptedn_1449dxz1ayfp52-stroke-fill" data-item-order="0" transform="translate(284, 284)"><g id="tx_adaptedn_1449dxz1ayfp52-fill" stroke="none" fill="#2c2c2c"><g><text style="font: 15px Roboto, sans-serif; white-space: pre;" font-size="15px" font-family="Roboto, sans-serif"><tspan x="12" y="31" dominant-baseline="ideographic">Adapted narratives, </tspan><tspan x="12" y="49" dominant-baseline="ideographic">broadened UFO </tspan><tspan x="12" y="67" dominant-baseline="ideographic">discourse</tspan></text></g></g><g id="tx_adaptedn_1449dxz1ayfp52-fill-overlay" stroke="none" fill="url(#crawlingPattern-ffffff38)"><g><text style="font: 15px Roboto, sans-serif; white-space: pre;" font-size="15px" font-family="Roboto, sans-serif"><tspan x="12" y="31" dominant-baseline="ideographic">Adapted narratives, </tspan><tspan x="12" y="49" dominant-baseline="ideographic">broadened UFO </tspan><tspan x="12" y="67" dominant-baseline="ideographic">discourse</tspan></text></g></g></g><g id="g-root-tx_scientif_qssvkn1ayfqpz-stroke-fill" data-item-order="0" transform="translate(668, 236)"><g id="tx_scientif_qssvkn1ayfqpz-fill" stroke="none" fill="#2c2c2c"><g><text style="font: bold 20px Roboto, sans-serif; white-space: pre;" font-weight="bold" font-size="20px" font-family="Roboto, sans-serif"><tspan x="31.28" y="34" dominant-baseline="ideographic">Scientific </tspan><tspan x="15.77" y="58" dominant-baseline="ideographic">Skepticism</tspan></text></g></g><g id="tx_scientif_qssvkn1ayfqpz-fill-overlay" stroke="none" fill="url(#crawlingPattern-ffffff38)"><g><text style="font: bold 20px Roboto, sans-serif; white-space: pre;" font-weight="bold" font-size="20px" font-family="Roboto, sans-serif"><tspan x="31.28" y="34" dominant-baseline="ideographic">Scientific </tspan><tspan x="15.77" y="58" dominant-baseline="ideographic">Skepticism</tspan></text></g></g></g><g id="g-root-tx_highligh_dhyuaf1ayfp54-stroke-fill" data-item-order="0" transform="translate(644, 296)"><g id="tx_highligh_dhyuaf1ayfp54-fill" stroke="none" fill="#2c2c2c"><g><text style="font: 15px Roboto, sans-serif; white-space: pre;" font-size="15px" font-family="Roboto, sans-serif"><tspan x="13.39" y="31" dominant-baseline="ideographic">Highlights need for </tspan><tspan x="22.83" y="49" dominant-baseline="ideographic">critical evaluation </tspan><tspan x="52.09" y="67" dominant-baseline="ideographic">and evidence</tspan></text></g></g><g id="tx_highligh_dhyuaf1ayfp54-fill-overlay" stroke="none" fill="url(#crawlingPattern-ffffff38)"><g><text style="font: 15px Roboto, sans-serif; white-space: pre;" font-size="15px" font-family="Roboto, sans-serif"><tspan x="13.39" y="31" dominant-baseline="ideographic">Highlights need for </tspan><tspan x="22.83" y="49" dominant-baseline="ideographic">critical evaluation </tspan><tspan x="52.09" y="67" dominant-baseline="ideographic">and evidence</tspan></text></g></g></g></svg>