<?xml version='1.0' encoding='utf-8'?>
<svg xmlns="http://www.w3.org/2000/svg" xmlns:xlink="http://www.w3.org/1999/xlink" width="624" height="408" viewBox="0 0 624 408" style="fill:none;stroke:none;fill-rule:evenodd;clip-rule:evenodd;stroke-linecap:round;stroke-linejoin:round;stroke-miterlimit:1.5;" version="1.1">
  <style class="text-font-style fontImports" data-font-family="Roboto">@import url('https://fonts.googleapis.com/css2?family=Roboto:wght@400;700&amp;display=block');</style>
  <rect x="0" y="0" width="624" height="408" fill="#252a34" stroke="none" id="programmatic_background"/>
  <g id="g-root-tf_1uonmqf18qhij0-stroke-fill" data-item-order="-225792" transform="translate(18, 12)"/>
  <g id="g-root-cr_2_cr-2_1qapdjr18q222z-stroke-fill" data-item-order="-46650" transform="translate(415.99993896484375, 109.99998474121094)">
    <g id="cr_2_cr-2_1qapdjr18q222z-fill" stroke="none" fill="none">
      <g>
        <path d="M 10 64C 10 93.823377 34.176624 118 64 118C 93.823377 118 118 93.823377 118 64C 118 34.176624 93.823377 10 64 10C 34.176624 10 10 34.176624 10 64"/>
      </g>
    </g>
    <g id="cr_2_cr-2_1qapdjr18q222z-stroke" fill="none" stroke-linecap="round" stroke-linejoin="round" stroke-miterlimit="4" stroke="#4f91fc" stroke-width="2">
      <g>
        <path d="M 10 64C 10 93.823377 34.176624 118 64 118C 93.823377 118 118 93.823377 118 64C 118 34.176624 93.823377 10 64 10C 34.176624 10 10 34.176624 10 64"/>
      </g>
    </g>
  </g>
  <g id="g-root-cr_1_cr-1_1luvvfb18q22v8-stroke-fill" data-item-order="-46646" transform="translate(91.99996948242188, 109.99999237060547)">
    <g id="cr_1_cr-1_1luvvfb18q22v8-fill" stroke="none" fill="none">
      <g>
        <path d="M 10 64C 10 93.823377 34.176624 118 64 118C 93.823377 118 118 93.823377 118 64C 118 34.176624 93.823377 10 64 10C 34.176624 10 10 34.176624 10 64"/>
      </g>
    </g>
    <g id="cr_1_cr-1_1luvvfb18q22v8-stroke" fill="none" stroke-linecap="round" stroke-linejoin="round" stroke-miterlimit="4" stroke="#fb6762" stroke-width="2">
      <g>
        <path d="M 10 64C 10 93.823377 34.176624 118 64 118C 93.823377 118 118 93.823377 118 64C 118 34.176624 93.823377 10 64 10C 34.176624 10 10 34.176624 10 64"/>
      </g>
    </g>
  </g>
  <g id="g-root-tx_emphasiz_1cz8v6f18q23nx-stroke-fill" data-item-order="0" transform="translate(368, 266)">
    <g id="tx_emphasiz_1cz8v6f18q23nx-fill" stroke="none" fill="#f4f4f4">
      <g>
        <text style="font: 20px Roboto, sans-serif; white-space: pre;" font-size="20px" font-family="Roboto, sans-serif">
          <tspan x="20.7" y="34" dominant-baseline="ideographic">Emphasizes verified </tspan>
          <tspan x="12.51" y="58" dominant-baseline="ideographic">witness accounts and </tspan>
          <tspan x="36.24" y="82" dominant-baseline="ideographic">national security</tspan>
        </text>
      </g>
    </g>
  </g>
  <g id="g-root-tx_modernua_v8lbrr18q22va-stroke-fill" data-item-order="0" transform="translate(368, 230)">
    <g id="tx_modernua_v8lbrr18q22va-fill" stroke="none" fill="#4f91fc">
      <g>
        <text style="font: bold 20px Roboto, sans-serif; white-space: pre;" font-weight="bold" font-size="20px" font-family="Roboto, sans-serif">
          <tspan x="17.18" y="34" dominant-baseline="ideographic">Modern UAP Reports</tspan>
        </text>
      </g>
    </g>
  </g>
  <g id="g-root-tx_highligh_mcybiv18q23nz-stroke-fill" data-item-order="0" transform="translate(32, 266)">
    <g id="tx_highligh_mcybiv18q23nz-fill" stroke="none" fill="#f4f4f4">
      <g>
        <text style="font: 20px Roboto, sans-serif; white-space: pre;" font-size="20px" font-family="Roboto, sans-serif">
          <tspan x="23.04" y="34" dominant-baseline="ideographic">Highlights the need for </tspan>
          <tspan x="14.57" y="58" dominant-baseline="ideographic">skepticism and evidence</tspan>
        </text>
      </g>
    </g>
  </g>
  <g id="g-root-tx_allingha_dhxsd318q222o-stroke-fill" data-item-order="0" transform="translate(62, 230)">
    <g id="tx_allingha_dhxsd318q222o-fill" stroke="none" fill="#fb6762">
      <g>
        <text style="font: bold 20px Roboto, sans-serif; white-space: pre;" font-weight="bold" font-size="20px" font-family="Roboto, sans-serif">
          <tspan x="16.88" y="34" dominant-baseline="ideographic">Allingham's Hoax</tspan>
        </text>
      </g>
    </g>
  </g>
  <g id="g-root-ic_ufo_6h9zr18q23nl-stroke-fill" data-item-order="0" transform="translate(110, 128)">
    <g id="ic_ufo_6h9zr18q23nl-stroke" fill="none" stroke-linecap="round" stroke-linejoin="round" stroke-miterlimit="4" stroke="#fb6762" stroke-width="2">
      <g>
        <path d="M 68.5 28.75C 74.466789 28.748562 79.528244 33.131317 80.379997 39.036999C 80.442169 39.470222 80.312027 39.908989 80.023712 40.238255C 79.735382 40.56752 79.317635 40.754436 78.879997 40.75L 13.105 40.75C 12.667363 40.754436 12.249615 40.56752 11.961291 40.238255C 11.672968 39.908989 11.54283 39.470222 11.605 39.036999C 12.457566 33.125679 17.527519 28.741095 23.5 28.75ZM 23.5 28.75C 23.5 21.25 33.573997 12.25 46 12.25C 58.426003 12.25 68.5 21.25 68.5 28.75M 66.654999 54.25L 74.493996 79.75M 17.493999 79.75L 25.348 54.25M 47.493999 69.25L 42.993999 75.477997M 51.993999 75.25L 47.493999 69.25M 42.993999 64.75L 51.993999 64.75M 47.5 57.25C 48.328426 57.25 49 57.921574 49 58.75M 46 58.75C 46 57.921574 46.671574 57.25 47.5 57.25M 47.5 60.25C 46.671574 60.25 46 59.578426 46 58.75M 49 58.75C 49 59.578426 48.328426 60.25 47.5 60.25M 47.493999 69.25L 47.493999 64.75M 32.5 40.75C 32.5 44.892136 29.142136 48.25 25 48.25C 20.857864 48.25 17.5 44.892136 17.5 40.75M 53.5 40.75C 53.5 44.892136 50.142136 48.25 46 48.25C 41.857864 48.25 38.5 44.892136 38.5 40.75M 74.5 40.75C 74.5 44.892136 71.142136 48.25 67 48.25C 62.857864 48.25 59.5 44.892136 59.5 40.75"/>
      </g>
    </g>
  </g>
  <g id="g-root-ic_aim_1q9glp318qdc01-stroke-fill" data-item-order="0" transform="translate(434, 128)">
    <g id="ic_aim_1q9glp318qdc01-stroke" fill="none" stroke-linecap="round" stroke-linejoin="round" stroke-miterlimit="4" stroke="#4f91fc" stroke-width="2">
      <g>
        <path d="M 47.5 29.5C 47.5 37.784271 54.215729 44.5 62.5 44.5C 70.784271 44.5 77.5 37.784271 77.5 29.5C 77.5 21.215729 70.784271 14.5 62.5 14.5C 54.215729 14.5 47.5 21.215729 47.5 29.5ZM 62.5 11.5L 62.5 20.5M 62.5 38.5L 62.5 47.5M 44.5 29.5L 53.5 29.5M 71.5 29.5L 80.5 29.5M 62.5 28.75C 62.914215 28.75 63.25 29.085787 63.25 29.5C 63.25 29.914213 62.914215 30.25 62.5 30.25C 62.085785 30.25 61.75 29.914213 61.75 29.5C 61.75 29.085787 62.085785 28.75 62.5 28.75M 26.5 43L 26.5 52M 32.5 80.5L 34 62.5L 41.5 62.5L 41.5 52C 41.5 43.715729 34.784271 37 26.5 37C 18.215729 37 11.5 43.715729 11.5 52L 11.5 62.5L 19 62.5L 20.5 80.5ZM 17.452 16.669001C 20.737431 20.076494 25.267601 22.000977 30.000999 22C 32.373505 22.000542 34.721245 21.517723 36.901001 20.581001M 16 22C 16 27.79899 20.701012 32.5 26.500002 32.5C 32.298988 32.5 37 27.79899 37 22C 37 16.20101 32.298988 11.500001 26.500002 11.500001C 20.701012 11.500001 16 16.20101 16 22Z"/>
      </g>
    </g>
  </g>
  <g id="g-root-ic_ligh_1hdtlg718qg3ka-stroke-fill" data-item-order="0" transform="translate(272, 128)">
    <g id="ic_ligh_1hdtlg718qg3ka-stroke" fill="none" stroke-linecap="round" stroke-linejoin="round" stroke-miterlimit="4" stroke="#d3d3d3" stroke-width="2">
      <g>
        <path d="M 43.7155 60.25L 41.78965 75.448456C 41.6017 76.932404 43.444153 77.732651 44.395 76.57795C 47.01955 73.3909 50.811699 68.769402 54.856899 63.833954M 69.831848 45.546398C 71.379852 43.654751 72.706451 42.033249 73.705299 40.812103C 74.506447 39.832748 73.809097 38.36335 72.543854 38.36335L 69.158348 38.36335M 25.079649 52.911999L 19.49548 52.911999C 18.223511 52.911999 17.52829 51.428951 18.342926 50.452148L 22.779266 45.132549M 35.112999 30.346449C 39.87685 24.636566 44.504349 19.091724 47.564949 15.428576C 48.525852 14.278646 50.384201 15.095304 50.190849 16.581249L 48.589302 28.888599M 40.897453 54.801849L 46.692249 35.308601C 46.978149 34.346951 46.257702 33.3811 45.254501 33.3811L 42.439301 33.3811C 41.771049 33.3811 41.18335 33.823151 40.9981 34.465149L 36.3946 50.412849C 36.289299 50.77795 35.77 50.772701 35.67205 50.405647L 31.4233 34.494099C 31.2481 33.8377 30.6535 33.3811 29.97415 33.3811L 26.994999 33.3811C 25.99645 33.3811 25.276749 34.338249 25.553949 35.297501L 31.17985 54.7687C 31.7362 56.694099 33.498852 58.019501 35.503002 58.019501L 36.584049 58.019501C 38.575451 58.019501 40.329998 56.710602 40.897453 54.801849ZM 55.995251 52.8979C 54.671501 52.8979 53.315948 52.649349 52.157799 52.296249C 51.212952 52.008099 50.137451 52.530552 49.935249 53.497299L 49.494553 55.60405C 49.356548 56.263451 49.675148 56.93755 50.312199 57.156551C 51.677353 57.6259 53.664398 58.020248 55.7164 58.020248C 62.197296 58.020248 65.500153 54.6562 65.500153 50.398453C 65.500153 47.324951 63.797348 44.9491 59.738503 43.285149C 56.776901 42.0355 55.727348 41.490551 55.727348 40.328049C 55.727348 39.259899 56.758598 38.467899 58.703651 38.467899C 59.83075 38.467899 60.802898 38.636799 61.608551 38.862099C 62.52655 39.118752 63.545498 38.638149 63.765404 37.710701L 64.243744 35.694248C 64.408752 34.998253 64.061646 34.273598 63.381096 34.053402C 62.162048 33.658901 60.618248 33.381851 58.743996 33.381851C 52.776852 33.381851 49.470402 36.687851 49.470402 40.843899C 49.470402 43.873749 51.5695 46.227848 55.602547 47.924351C 58.15675 48.945248 59.221001 49.66465 59.221001 50.874397C 59.221001 52.084152 58.112801 52.8979 55.995251 52.8979Z"/>
      </g>
    </g>
  </g>
  <g id="g-root-tx_evaluate_hu0maf18qhjib-stroke-fill" data-item-order="0" transform="translate(92, 50)">
    <g id="tx_evaluate_hu0maf18qhjib-fill" stroke="none" fill="#f4f4f4">
      <g>
        <text style="font: 20px Roboto, sans-serif; white-space: pre;" font-size="20px" font-family="Roboto, sans-serif">
          <tspan x="14.19" y="34" dominant-baseline="ideographic">Evaluate the credibility of UFO encounter claims</tspan>
        </text>
      </g>
    </g>
    <defs>
      <pattern id="crawlingPattern-0000001b" x="0" y="0" width="12" height="12" patternUnits="userSpaceOnUse" fill="#0000001b">
        <use href="#crawlingSymbol"/>
      </pattern>
      <symbol id="crawlingSymbol">
        <g>
          <path d="M -12.5 12.5 l 13 -13 l 6 0 l -13 13 Z M -0.5 12.5 l 13 -13 l 6 0 l -13 13 Z M 11.5 12.5 l 13 -13 l 6 0 l -13 13 Z"/>
        </g>
      </symbol>
      <pattern id="crawlingPattern-0060fba2" x="0" y="0" width="12" height="12" patternUnits="userSpaceOnUse" fill="#0060fba2">
        <use href="#crawlingSymbol"/>
      </pattern>
      <pattern id="crawlingPattern-f9080081" x="0" y="0" width="12" height="12" patternUnits="userSpaceOnUse" fill="#f9080081">
        <use href="#crawlingSymbol"/>
      </pattern>
    </defs>
  </g>
</svg>
