<?xml version='1.0' encoding='utf-8'?>
<svg xmlns="http://www.w3.org/2000/svg" xmlns:xlink="http://www.w3.org/1999/xlink" width="768" height="480" viewBox="0 0 768 480" style="fill:none;stroke:none;fill-rule:evenodd;clip-rule:evenodd;stroke-linecap:round;stroke-linejoin:round;stroke-miterlimit:1.5;" version="1.1">
  <style class="text-font-style fontImports" data-font-family="Roboto">@import url('https://fonts.googleapis.com/css2?family=Roboto:wght@400;700&amp;display=block');</style>
  <rect x="0" y="0" width="768" height="4.8E+2" fill="#252a34" stroke="none" id="programmatic_background"/>
  <g id="g-root-tf_1hfpt5z1bi3mrz-stroke-fill" data-item-order="-339264" transform="translate(12, 12)"/>
  <g id="g-root-cp_-1_lines_m7zeg71bij47f-stroke-fill" data-item-order="-250551" transform="translate(374, 158)">
    <g id="cp_-1_lines_m7zeg71bij47f-stroke" fill="none" stroke-linecap="round" stroke-linejoin="round" stroke-miterlimit="4" stroke="#f4f4f4" stroke-width="2">
      <g>
        <path d="M 10 10L 10 34M 10 58L 10 82M 10 106L 10 130M 10 154L 10 178"/>
      </g>
    </g>
  </g>
  <g id="g-root-cp_1_g-1_hs5wbr1bij4zp-stroke-fill" data-item-order="-250548" transform="translate(362, 134)">
    <g id="cp_1_g-1_hs5wbr1bij4zp-fill" stroke="none" fill="none">
      <g>
        <path d="M 16 22C 16 25.313709 18.686292 28 22 28C 25.313709 28 28 25.313709 28 22C 28 18.686292 25.313709 16 22 16C 18.686292 16 16 18.686292 16 22"/>
      </g>
    </g>
    <g id="cp_1_g-1_hs5wbr1bij4zp-stroke" fill="none" stroke-linecap="round" stroke-linejoin="round" stroke-miterlimit="4" stroke="#4f91fc" stroke-width="2">
      <g>
        <path d="M 16 22C 16 25.313709 18.686292 28 22 28C 25.313709 28 28 25.313709 28 22C 28 18.686292 25.313709 16 22 16C 18.686292 16 16 18.686292 16 22"/>
      </g>
    </g>
    <g id="cp_1_g-1_hs5wbr1bij4zp-stroke" fill="none" stroke-linecap="round" stroke-linejoin="round" stroke-miterlimit="4" stroke="#4f91fc" stroke-width="2">
      <g>
        <path d="M 10 22C 10 28.627417 15.372583 34 22 34C 28.627417 34 34 28.627417 34 22C 34 15.372583 28.627417 10 22 10C 15.372583 10 10 15.372583 10 22M 34 22L 70 22"/>
      </g>
    </g>
  </g>
  <g id="g-root-cp_2_g-2_8x5d5z1bij2mn-stroke-fill" data-item-order="-250540" transform="translate(326, 182)">
    <g id="cp_2_g-2_8x5d5z1bij2mn-fill" stroke="none" fill="none">
      <g>
        <path d="M 52 22C 52 25.3137 54.6863 28 58 28C 61.3137 28 64 25.3137 64 22C 64 18.6863 61.3137 16 58 16C 54.6863 16 52 18.6863 52 22Z"/>
      </g>
    </g>
    <g id="cp_2_g-2_8x5d5z1bij2mn-stroke" fill="none" stroke-linecap="round" stroke-linejoin="round" stroke-miterlimit="4" stroke="#1ac3fb" stroke-width="2">
      <g>
        <path d="M 52 22C 52 25.3137 54.6863 28 58 28C 61.3137 28 64 25.3137 64 22C 64 18.6863 61.3137 16 58 16C 54.6863 16 52 18.6863 52 22ZM 46 22C 46 28.6274 51.3726 34 58 34C 64.6274 34 70 28.6274 70 22C 70 15.3726 64.6274 10 58 10C 51.3726 10 46 15.3726 46 22ZM 46 22L 10 22"/>
      </g>
    </g>
  </g>
  <g id="g-root-cp_3_g-3_4hbv1j1bij3ex-stroke-fill" data-item-order="-250532" transform="translate(362, 230)">
    <g id="cp_3_g-3_4hbv1j1bij3ex-fill" stroke="none" fill="none">
      <g>
        <path d="M 16 22C 16 25.313709 18.686292 28 22 28C 25.313709 28 28 25.313709 28 22C 28 18.686292 25.313709 16 22 16C 18.686292 16 16 18.686292 16 22"/>
      </g>
    </g>
    <g id="cp_3_g-3_4hbv1j1bij3ex-stroke" fill="none" stroke-linecap="round" stroke-linejoin="round" stroke-miterlimit="4" stroke="#a6da37" stroke-width="2">
      <g>
        <path d="M 16 22C 16 25.313709 18.686292 28 22 28C 25.313709 28 28 25.313709 28 22C 28 18.686292 25.313709 16 22 16C 18.686292 16 16 18.686292 16 22"/>
      </g>
    </g>
    <g id="cp_3_g-3_4hbv1j1bij3ex-stroke" fill="none" stroke-linecap="round" stroke-linejoin="round" stroke-miterlimit="4" stroke="#a6da37" stroke-width="2">
      <g>
        <path d="M 10 22C 10 28.627417 15.372583 34 22 34C 28.627417 34 34 28.627417 34 22C 34 15.372583 28.627417 10 22 10C 15.372583 10 10 15.372583 10 22M 34 22L 70 22"/>
      </g>
    </g>
  </g>
  <g id="g-root-cp_4_g-4_1icx31bij477-stroke-fill" data-item-order="-250524" transform="translate(326, 278)">
    <g id="cp_4_g-4_1icx31bij477-fill" stroke="none" fill="none">
      <g>
        <path d="M 52 22C 52 25.3137 54.6863 28 58 28C 61.3137 28 64 25.3137 64 22C 64 18.6863 61.3137 16 58 16C 54.6863 16 52 18.6863 52 22Z"/>
      </g>
    </g>
    <g id="cp_4_g-4_1icx31bij477-stroke" fill="none" stroke-linecap="round" stroke-linejoin="round" stroke-miterlimit="4" stroke="#f366bb" stroke-width="2">
      <g>
        <path d="M 52 22C 52 25.3137 54.6863 28 58 28C 61.3137 28 64 25.3137 64 22C 64 18.6863 61.3137 16 58 16C 54.6863 16 52 18.6863 52 22ZM 46 22C 46 28.6274 51.3726 34 58 34C 64.6274 34 70 28.6274 70 22C 70 15.3726 64.6274 10 58 10C 51.3726 10 46 15.3726 46 22ZM 46 22L 10 22"/>
      </g>
    </g>
  </g>
  <g id="g-root-cp_5_g-5_1q6zenb1bij4st-stroke-fill" data-item-order="-250516" transform="translate(362, 326)">
    <g id="cp_5_g-5_1q6zenb1bij4st-fill" stroke="none" fill="none">
      <g>
        <path d="M 16 22C 16 25.313709 18.686292 28 22 28C 25.313709 28 28 25.313709 28 22C 28 18.686292 25.313709 16 22 16C 18.686292 16 16 18.686292 16 22"/>
      </g>
    </g>
    <g id="cp_5_g-5_1q6zenb1bij4st-stroke" fill="none" stroke-linecap="round" stroke-linejoin="round" stroke-miterlimit="4" stroke="#8769fd" stroke-width="2">
      <g>
        <path d="M 16 22C 16 25.313709 18.686292 28 22 28C 25.313709 28 28 25.313709 28 22C 28 18.686292 25.313709 16 22 16C 18.686292 16 16 18.686292 16 22"/>
      </g>
    </g>
    <g id="cp_5_g-5_1q6zenb1bij4st-stroke" fill="none" stroke-linecap="round" stroke-linejoin="round" stroke-miterlimit="4" stroke="#8769fd" stroke-width="2">
      <g>
        <path d="M 10 22C 10 28.627417 15.372583 34 22 34C 28.627417 34 34 28.627417 34 22C 34 15.372583 28.627417 10 22 10C 15.372583 10 10 15.372583 10 22M 34 22L 70 22"/>
      </g>
    </g>
  </g>
  <g id="g-root-tx_thecharl_1lrsdlz1bij2fb-stroke-fill" data-item-order="0" transform="translate(104, 50)">
    <g id="tx_thecharl_1lrsdlz1bij2fb-fill" stroke="none" fill="#f4f4f4">
      <g>
        <text style="font: 20px Roboto, sans-serif; white-space: pre;" font-size="20px" font-family="Roboto, sans-serif">
          <tspan x="15.08" y="34" dominant-baseline="ideographic">The Charles L. Moody Abduction Case: A Timeline of Events</tspan>
        </text>
      </g>
    </g>
  </g>
  <g id="g-root-tx_august13_18gbv8n1bij408-stroke-fill" data-item-order="0" transform="translate(494, 122)">
    <g id="tx_august13_18gbv8n1bij408-fill" stroke="none" fill="#4f91fc">
      <g>
        <text style="font: bold 20px Roboto, sans-serif; white-space: pre;" font-weight="bold" font-size="20px" font-family="Roboto, sans-serif">
          <tspan x="12" y="34" dominant-baseline="ideographic">August 13, 1975, 1:15 </tspan>
          <tspan x="12" y="58" dominant-baseline="ideographic">AM</tspan>
        </text>
      </g>
    </g>
  </g>
  <g id="g-root-tx_moodyobs_v5htyf1bij2fd-stroke-fill" data-item-order="0" transform="translate(494, 182)">
    <g id="tx_moodyobs_v5htyf1bij2fd-fill" stroke="none" fill="#f4f4f4">
      <g>
        <text style="font: 15px Roboto, sans-serif; white-space: pre;" font-size="15px" font-family="Roboto, sans-serif">
          <tspan x="12" y="28" dominant-baseline="ideographic">Moody observes a meteor </tspan>
          <tspan x="12" y="46" dominant-baseline="ideographic">shower in the New Mexico desert</tspan>
        </text>
      </g>
    </g>
  </g>
  <g id="g-root-ic_mete_qpobtz1bij37m-stroke-fill" data-item-order="0" transform="translate(434, 122)">
    <g id="ic_mete_qpobtz1bij37m-stroke" fill="none" stroke-linecap="round" stroke-linejoin="round" stroke-miterlimit="4" stroke="#4f91fc" stroke-width="2">
      <g>
        <path d="M 50.172001 55.827999C 48.610001 54.265999 11 11 11 11C 11 11 54.265999 48.610001 55.827999 50.172001C 57.343887 51.741516 57.322208 54.23634 55.779274 55.779274C 54.23634 57.322208 51.741516 57.343887 50.172001 55.827999ZM 56.122002 32.877998C 57.293499 34.050026 57.293289 35.94976 56.121525 37.121525C 54.94976 38.293289 53.050022 38.293503 51.877998 37.121998C 50.708 35.950001 28 11 28 11C 28 11 54.950001 31.708 56.122002 32.877998ZM 38.122002 51.877998C 39.293503 53.050022 39.293289 54.94976 38.121525 56.121525C 36.94976 57.293289 35.050026 57.293499 33.877998 56.121998C 32.708 54.950001 11 28 11 28C 11 28 36.950001 50.708 38.122002 51.877998ZM 53 23L 41 12M 23 53L 12 41"/>
      </g>
    </g>
  </g>
  <g id="g-root-tx_august13_1hf3c2v1bhxzwr-stroke-fill" data-item-order="0" transform="translate(50, 170)">
    <g id="tx_august13_1hf3c2v1bhxzwr-fill" stroke="none" fill="#1ac3fb">
      <g>
        <text style="font: bold 20px Roboto, sans-serif; white-space: pre;" font-weight="bold" font-size="20px" font-family="Roboto, sans-serif">
          <tspan x="14.13" y="34" dominant-baseline="ideographic">August 13, 1975, 1:15 </tspan>
          <tspan x="181.05" y="58" dominant-baseline="ideographic">AM</tspan>
        </text>
      </g>
    </g>
  </g>
  <g id="g-root-tx_discshap_zntbl31bhy29w-stroke-fill" data-item-order="0" transform="translate(50, 230)">
    <g id="tx_discshap_zntbl31bhy29w-fill" stroke="none" fill="#f4f4f4">
      <g>
        <text style="font: 15px Roboto, sans-serif; white-space: pre;" font-size="15px" font-family="Roboto, sans-serif">
          <tspan x="16.59" y="28" dominant-baseline="ideographic">Disc-shaped object descends </tspan>
          <tspan x="56.03" y="46" dominant-baseline="ideographic">and hovers near Moody</tspan>
        </text>
      </g>
    </g>
  </g>
  <g id="g-root-ic_ufo_mczaav1bhy0p1-stroke-fill" data-item-order="0" transform="translate(266, 170)">
    <g id="ic_ufo_mczaav1bhy0p1-stroke" fill="none" stroke-linecap="round" stroke-linejoin="round" stroke-miterlimit="4" stroke="#1ac3fb" stroke-width="2">
      <g>
        <path d="M 49 22.5C 52.977859 22.499041 56.352161 25.420879 56.919998 29.358C 56.961449 29.646814 56.874687 29.939325 56.682472 30.158836C 56.490257 30.378345 56.211758 30.502958 55.919998 30.5L 12.07 30.5C 11.778242 30.502958 11.499743 30.378345 11.307528 30.158836C 11.115312 29.939325 11.028553 29.646814 11.07 29.358C 11.638377 25.417118 15.018346 22.494064 19 22.5ZM 19 22.5C 19 17.5 25.716 11.5 34 11.5C 42.284 11.5 49 17.5 49 22.5M 47.77 39.5L 52.995998 56.5M 14.996 56.5L 20.232 39.5M 34.996002 49.5L 31.996 53.652M 37.996002 53.5L 34.996002 49.5M 31.996 46.5L 37.996002 46.5M 35 41.5C 35.552284 41.5 36 41.947716 36 42.5M 34 42.5C 34 41.947716 34.447716 41.5 35 41.5M 35 43.5C 34.447716 43.5 34 43.052284 34 42.5M 36 42.5C 36 43.052284 35.552284 43.5 35 43.5M 34.996002 49.5L 34.996002 46.5M 25 30.5C 25 33.261421 22.761425 35.5 20 35.5C 17.238577 35.5 15 33.261421 15 30.5M 39 30.5C 39 33.261421 36.761425 35.5 34 35.5C 31.238577 35.5 29 33.261421 29 30.5M 53 30.5C 53 33.261421 50.761425 35.5 48 35.5C 45.238575 35.5 43 33.261421 43 30.5"/>
      </g>
    </g>
  </g>
  <g id="g-root-tx_august13_4kgbmv1bhze9y-stroke-fill" data-item-order="0" transform="translate(494, 218)">
    <g id="tx_august13_4kgbmv1bhze9y-fill" stroke="none" fill="#a6da37">
      <g>
        <text style="font: bold 20px Roboto, sans-serif; white-space: pre;" font-weight="bold" font-size="20px" font-family="Roboto, sans-serif">
          <tspan x="12" y="34" dominant-baseline="ideographic">August 13, 1975, 1:15 </tspan>
          <tspan x="12" y="58" dominant-baseline="ideographic">AM</tspan>
        </text>
      </g>
    </g>
  </g>
  <g id="g-root-tx_moodysca_1qa3v8n1bhzfnr-stroke-fill" data-item-order="0" transform="translate(494, 278)">
    <g id="tx_moodysca_1qa3v8n1bhzfnr-fill" stroke="none" fill="#f4f4f4">
      <g>
        <text style="font: 15px Roboto, sans-serif; white-space: pre;" font-size="15px" font-family="Roboto, sans-serif">
          <tspan x="12" y="28" dominant-baseline="ideographic">Moody's car fails to start as the </tspan>
          <tspan x="12" y="46" dominant-baseline="ideographic">object approaches</tspan>
        </text>
      </g>
    </g>
  </g>
  <g id="g-root-ic_shak_1cyncvb1bhzh8o-stroke-fill" data-item-order="0" transform="translate(434, 218)">
    <g id="ic_shak_1cyncvb1bhzh8o-stroke" fill="none" stroke-linecap="round" stroke-linejoin="round" stroke-miterlimit="4" stroke="#a6da37" stroke-width="2">
      <g>
        <path d="M 10 10M 25.42 36.066002L 28.559999 36.566002M 37.975998 38.063999L 41.115997 38.563999M 21.532 40.274002L 21.032 43.414001M 43.506001 43.771999L 43.006001 46.911999M 47.245998 37.120003L 45.254002 32.784L 43.987999 25.128C 43.764561 23.777742 42.701756 22.722191 41.349998 22.507999L 30.18 20.73C 28.828421 20.515499 27.491184 21.189756 26.860001 22.403999L 23.279999 29.288L 20.040001 32.788002C 19.61389 33.249756 19.33412 33.827389 19.236 34.447998L 18.888 36.636002C 18.612114 38.370113 19.793964 39.999634 21.528 40.276001L 43.501999 43.77C 45.235401 44.04467 46.863602 42.863129 47.139999 41.130001L 47.487999 38.942001C 47.589462 38.323631 47.505966 37.689072 47.248001 37.118ZM 23.279999 29.288L 45.254002 32.784M 12.084 52.487999L 22.084 48.987999L 44.084 52.987999L 56.084 49.987999M 14.282 27.955999L 11.916 23.195999L 16.948 21.484001L 14.582 16.723999L 19.612 15.012M 51.827999 24.987999L 55.827999 28.488001L 51.827999 31.988001L 55.827999 35.487999L 51.827999 38.987999"/>
      </g>
    </g>
  </g>
  <g id="g-root-tx_august13_mcct7r1bi0umh-stroke-fill" data-item-order="0" transform="translate(50, 266)">
    <g id="tx_august13_mcct7r1bi0umh-fill" stroke="none" fill="#f366bb">
      <g>
        <text style="font: bold 20px Roboto, sans-serif; white-space: pre;" font-weight="bold" font-size="20px" font-family="Roboto, sans-serif">
          <tspan x="14.13" y="34" dominant-baseline="ideographic">August 13, 1975, 1:15 </tspan>
          <tspan x="181.05" y="58" dominant-baseline="ideographic">AM</tspan>
        </text>
      </g>
    </g>
  </g>
  <g id="g-root-tx_moodyexp_91irxj1bi0t1m-stroke-fill" data-item-order="0" transform="translate(38, 326)">
    <g id="tx_moodyexp_91irxj1bi0t1m-fill" stroke="none" fill="#f4f4f4">
      <g>
        <text style="font: 15px Roboto, sans-serif; white-space: pre;" font-size="15px" font-family="Roboto, sans-serif">
          <tspan x="20.66" y="28" dominant-baseline="ideographic">Moody experiences numbness </tspan>
          <tspan x="46.25" y="46" dominant-baseline="ideographic">and loss of consciousness</tspan>
        </text>
      </g>
    </g>
  </g>
  <g id="g-root-ic_flam_1ur6bjb1bi0uff-stroke-fill" data-item-order="0" transform="translate(266, 266)">
    <g id="ic_flam_1ur6bjb1bi0uff-stroke" fill="none" stroke-linecap="round" stroke-linejoin="round" stroke-miterlimit="4" stroke="#f366bb" stroke-width="2">
      <g>
        <path d="M 28.98 51.040001C 28.264784 51.137287 27.543802 51.186066 26.822001 51.186001C 18.082512 51.187107 10.997789 44.10149 11 35.362C 11.277316 23.914494 19.047276 14.011253 30.1 11.018C 30.335625 10.951141 30.586294 11.055099 30.705442 11.269092C 30.824593 11.483084 30.780935 11.750921 30.6 11.916C 28.357206 13.838539 26.993279 16.590942 26.822001 19.540001C 26.817995 22.532894 28.047951 25.395073 30.222 27.452C 31.884361 25.778769 33.020432 23.655418 33.489998 21.344C 33.524044 21.182138 33.63224 21.045715 33.782097 20.975704C 33.931953 20.905693 34.10601 20.910248 34.251999 20.988001C 36.113304 21.976538 37.748085 23.342258 39.051998 24.997999M 57 41C 57 34.372581 51.627419 29 45 29C 38.372581 29 33 34.372581 33 41L 33 45C 33 51.627419 38.372581 57 45 57C 51.627419 57 57 51.627419 57 45ZM 57 40.961998C 53.897366 40.815266 50.997135 39.378929 49 37C 45.116001 41.674 39.653999 41 37 41L 33 41M 42 51C 42 52.656857 43.343147 54 45 54C 46.656857 54 48 52.656857 48 51C 48 49.343147 46.656857 48 45 48C 43.343147 48 42 49.343147 42 51M 39 44L 42 45M 51 44L 48 45M 31.098 33.694C 29.932388 32.688278 28.4751 32.082649 26.940001 31.966C 26.484556 35.536407 23.449335 38.213737 19.849998 38.219997C 19.661999 38.220001 19.484001 38.178001 19.299999 38.164001C 19.247318 38.472137 19.21591 38.783543 19.205999 39.095997C 19.205997 41.003048 19.964254 42.831844 21.313679 44.179394C 22.663105 45.526943 24.492952 46.282654 26.4 46.279999"/>
      </g>
    </g>
  </g>
  <g id="g-root-tx_august13_1qbctev1bi28lg-stroke-fill" data-item-order="0" transform="translate(494, 314)">
    <g id="tx_august13_1qbctev1bi28lg-fill" stroke="none" fill="#8769fd">
      <g>
        <text style="font: bold 20px Roboto, sans-serif; white-space: pre;" font-weight="bold" font-size="20px" font-family="Roboto, sans-serif">
          <tspan x="12" y="34" dominant-baseline="ideographic">August 13, 1975, 3:00 </tspan>
          <tspan x="12" y="58" dominant-baseline="ideographic">AM</tspan>
        </text>
      </g>
    </g>
  </g>
  <g id="g-root-tx_moodyret_1czwb1j1bi2a6d-stroke-fill" data-item-order="0" transform="translate(494, 374)">
    <g id="tx_moodyret_1czwb1j1bi2a6d-fill" stroke="none" fill="#f4f4f4">
      <g>
        <text style="font: 15px Roboto, sans-serif; white-space: pre;" font-size="15px" font-family="Roboto, sans-serif">
          <tspan x="12" y="28" dominant-baseline="ideographic">Moody returns home with 1.5 </tspan>
          <tspan x="12" y="46" dominant-baseline="ideographic">hours of missing time</tspan>
        </text>
      </g>
    </g>
    <defs>
      <pattern id="crawlingPattern-0000001b" x="0" y="0" width="12" height="12" patternUnits="userSpaceOnUse" fill="#0000001b">
        <use href="#crawlingSymbol"/>
      </pattern>
      <symbol id="crawlingSymbol">
        <g>
          <path d="M -12.5 12.5 l 13 -13 l 6 0 l -13 13 Z M -0.5 12.5 l 13 -13 l 6 0 l -13 13 Z M 11.5 12.5 l 13 -13 l 6 0 l -13 13 Z"/>
        </g>
      </symbol>
      <pattern id="crawlingPattern-0060fba2" x="0" y="0" width="12" height="12" patternUnits="userSpaceOnUse" fill="#0060fba2">
        <use href="#crawlingSymbol"/>
      </pattern>
      <pattern id="crawlingPattern-00a3d9d9" x="0" y="0" width="12" height="12" patternUnits="userSpaceOnUse" fill="#00a3d9d9">
        <use href="#crawlingSymbol"/>
      </pattern>
      <pattern id="crawlingPattern-5c87005e" x="0" y="0" width="12" height="12" patternUnits="userSpaceOnUse" fill="#5c87005e">
        <use href="#crawlingSymbol"/>
      </pattern>
      <pattern id="crawlingPattern-eb008e76" x="0" y="0" width="12" height="12" patternUnits="userSpaceOnUse" fill="#eb008e76">
        <use href="#crawlingSymbol"/>
      </pattern>
      <pattern id="crawlingPattern-3300fc7a" x="0" y="0" width="12" height="12" patternUnits="userSpaceOnUse" fill="#3300fc7a">
        <use href="#crawlingSymbol"/>
      </pattern>
    </defs>
  </g>
  <g id="g-root-ic_time_zp29rb1bi28li-stroke-fill" data-item-order="0" transform="translate(434, 314)">
    <g id="ic_time_zp29rb1bi28li-stroke" fill="none" stroke-linecap="round" stroke-linejoin="round" stroke-miterlimit="4" stroke="#8769fd" stroke-width="2">
      <g>
        <path d="M 33 23C 33 29.627417 38.372581 35 45 35C 51.627419 35 57 29.627417 57 23C 57 16.372583 51.627419 11 45 11C 38.372581 11 33 16.372583 33 23ZM 49 23.4L 45 23.4L 45 17M 21 32L 21 38M 25 57L 26 45L 31 45L 31 38C 31 32.477154 26.522848 28 21 28C 15.477153 28 11 32.477154 11 38L 11 45L 16 45L 17 57ZM 14.968 14.446C 17.158287 16.717663 20.1784 18.000652 23.334 18C 24.91567 18.000362 26.480831 17.678482 27.934 17.054001M 14 18C 14 21.865993 17.134007 25 21 25C 24.865993 25 28 21.865993 28 18C 28 14.134007 24.865993 11 21 11C 17.134007 11 14 14.134007 14 18Z"/>
      </g>
    </g>
  </g>
</svg>
