<?xml version='1.0' encoding='utf-8'?>
<svg xmlns="http://www.w3.org/2000/svg" xmlns:xlink="http://www.w3.org/1999/xlink" width="912" height="672" viewBox="0 0 912 672" style="fill:none;stroke:none;fill-rule:evenodd;clip-rule:evenodd;stroke-linecap:round;stroke-linejoin:round;stroke-miterlimit:1.5;" version="1.1">
  <style class="text-font-style fontImports" data-font-family="Roboto">@import url('https://fonts.googleapis.com/css2?family=Roboto:wght@400;700&amp;display=block');</style>
  <rect x="0" y="0" width="912" height="672" fill="#252a34" stroke="none" id="programmatic_background"/>
  <g id="g-root-tf_1cz9qsn19ai5ft-stroke-fill" data-item-order="-571872" transform="translate(12, 12)">
    <g id="tf_1cz9qsn19ai5ft-fill" stroke="none" fill="#2c2c2c">
      <g>
        <path d="M 0 0L 888 0L 888 644L 0 644Z"/>
      </g>
    </g>
    <defs>
      <pattern id="crawlingPattern-3604fc1a" x="0" y="0" width="12" height="12" patternUnits="userSpaceOnUse" fill="#3604fc1a">
        <use href="#crawlingSymbol"/>
      </pattern>
      <symbol id="crawlingSymbol">
        <g>
          <path d="M -12.5 12.5 l 13 -13 l 6 0 l -13 13 Z M -0.5 12.5 l 13 -13 l 6 0 l -13 13 Z M 11.5 12.5 l 13 -13 l 6 0 l -13 13 Z"/>
        </g>
      </symbol>
      <pattern id="crawlingPattern-ec07911a" x="0" y="0" width="12" height="12" patternUnits="userSpaceOnUse" fill="#ec07911a">
        <use href="#crawlingSymbol"/>
      </pattern>
      <pattern id="crawlingPattern-00d16d21" x="0" y="0" width="12" height="12" patternUnits="userSpaceOnUse" fill="#00d16d21">
        <use href="#crawlingSymbol"/>
      </pattern>
      <pattern id="crawlingPattern-8ed00028" x="0" y="0" width="12" height="12" patternUnits="userSpaceOnUse" fill="#8ed00028">
        <use href="#crawlingSymbol"/>
      </pattern>
      <pattern id="crawlingPattern-00bcfb62" x="0" y="0" width="12" height="12" patternUnits="userSpaceOnUse" fill="#00bcfb62">
        <use href="#crawlingSymbol"/>
      </pattern>
      <pattern id="crawlingPattern-0060fb20" x="0" y="0" width="12" height="12" patternUnits="userSpaceOnUse" fill="#0060fb20">
        <use href="#crawlingSymbol"/>
      </pattern>
      <pattern id="crawlingPattern-0000001b" x="0" y="0" width="12" height="12" patternUnits="userSpaceOnUse" fill="#0000001b">
        <use href="#crawlingSymbol"/>
      </pattern>
      <pattern id="crawlingPattern-c1c1c11a" x="0" y="0" width="12" height="12" patternUnits="userSpaceOnUse" fill="#c1c1c11a">
        <use href="#crawlingSymbol"/>
      </pattern>
      <pattern id="crawlingPattern-0059ff37" x="0" y="0" width="12" height="12" patternUnits="userSpaceOnUse" fill="#0059ff37">
        <use href="#crawlingSymbol"/>
      </pattern>
      <pattern id="crawlingPattern-00ff873a" x="0" y="0" width="12" height="12" patternUnits="userSpaceOnUse" fill="#00ff873a">
        <use href="#crawlingSymbol"/>
      </pattern>
      <pattern id="crawlingPattern-ff009b38" x="0" y="0" width="12" height="12" patternUnits="userSpaceOnUse" fill="#ff009b38">
        <use href="#crawlingSymbol"/>
      </pattern>
      <pattern id="crawlingPattern-00baff39" x="0" y="0" width="12" height="12" patternUnits="userSpaceOnUse" fill="#00baff39">
        <use href="#crawlingSymbol"/>
      </pattern>
      <pattern id="crawlingPattern-acff003c" x="0" y="0" width="12" height="12" patternUnits="userSpaceOnUse" fill="#acff003c">
        <use href="#crawlingSymbol"/>
      </pattern>
      <pattern id="crawlingPattern-2d00ff37" x="0" y="0" width="12" height="12" patternUnits="userSpaceOnUse" fill="#2d00ff37">
        <use href="#crawlingSymbol"/>
      </pattern>
      <pattern id="crawlingPattern-5f5f5f1a" x="0" y="0" width="12" height="12" patternUnits="userSpaceOnUse" fill="#5f5f5f1a">
        <use href="#crawlingSymbol"/>
      </pattern>
    </defs>
  </g>
  <g id="g-root-cp_6_g-6_v6qs4n19a6xai-stroke-fill" data-item-order="-460310" transform="translate(446, 386)">
    <g id="cp_6_g-6_v6qs4n19a6xai-fill" stroke="none" fill="#8769fd">
      <g>
        <path d="M 10 10.000008L 105 10C 174.036 9.999991 226 60.9644 226 130L 250 130L 178 209.5L 106 130L 130 130C 130 116.193 118.807 106.0001 105 106L 10.000015 106L 10 10.000008Z"/>
      </g>
    </g>
    <g id="cp_6_g-6_v6qs4n19a6xai-stroke" fill="none" stroke-linecap="round" stroke-linejoin="round" stroke-miterlimit="4" stroke="#2c2c2c" stroke-width="2">
      <g>
        <path d="M 10 10L 105 10C 174.0356 10 226.0001 60.9644 226.0001 130L 250 130L 178 209.5L 106 130L 130 130C 130 116.1929 118.8071 106.0001 105 106L 10 106L 10 10Z"/>
      </g>
    </g>
  </g>
  <g id="g-root-cp_5_g-5_qrjr3b19a6ux0-stroke-fill" data-item-order="-460306" transform="translate(230, 362)">
    <g id="cp_5_g-5_qrjr3b19a6ux0-fill" stroke="none" fill="#f366bb">
      <g>
        <path d="M 226 130L 131 130C 61.9645 130 10.000006 79.0356 10 10.000016L 106.0001 10C 106.0001 23.8071 117.193 33.9999 131 34L 226 34L 226 130Z"/>
      </g>
    </g>
    <g id="cp_5_g-5_qrjr3b19a6ux0-stroke" fill="none" stroke-linecap="round" stroke-linejoin="round" stroke-miterlimit="4" stroke="#2c2c2c" stroke-width="2">
      <g>
        <path d="M 226.0001 130L 131.0001 130C 61.9645 130 10 79.0356 10 10L 106.0001 10C 106.0001 23.8071 117.1931 33.9999 131.0001 34L 226.0001 34L 226.0001 130Z"/>
      </g>
    </g>
  </g>
  <g id="g-root-cp_4_g-4_hvwquf19a6vpq-stroke-fill" data-item-order="-460302" transform="translate(230, 242)">
    <g id="cp_4_g-4_hvwquf19a6vpq-fill" stroke="none" fill="#43dd93">
      <g>
        <path d="M 226 10.000008L 131 10C 61.9645 9.999991 10.000006 60.9644 10 130L 106.0001 130C 106.0001 116.193 117.193 106.0001 131 106L 226 106L 226 10.000008Z"/>
      </g>
    </g>
    <g id="cp_4_g-4_hvwquf19a6vpq-stroke" fill="none" stroke-linecap="round" stroke-linejoin="round" stroke-miterlimit="4" stroke="#2c2c2c" stroke-width="2">
      <g>
        <path d="M 226.0001 10L 131.0001 10C 61.9645 10 10 60.9644 10 130L 106.0001 130C 106.0001 116.1929 117.1931 106.0001 131.0001 106L 226.0001 106L 226.0001 10Z"/>
      </g>
    </g>
  </g>
  <g id="g-root-cp_3_g-3_dg38pz19a6wi0-stroke-fill" data-item-order="-460298" transform="translate(446, 218)">
    <g id="cp_3_g-3_dg38pz19a6wi0-fill" stroke="none" fill="#a6da37">
      <g>
        <path d="M 10 130L 105 130C 174.036 130 226 79.0356 226 10.000008L 130 10C 130 23.8071 118.807 33.9999 105 34L 10 34L 10 130Z"/>
      </g>
    </g>
    <g id="cp_3_g-3_dg38pz19a6wi0-stroke" fill="none" stroke-linecap="round" stroke-linejoin="round" stroke-miterlimit="4" stroke="#2c2c2c" stroke-width="2">
      <g>
        <path d="M 10 130L 105 130C 174.0356 130 226.0001 79.0356 226.0001 10L 130 10C 130 23.8071 118.8071 33.9999 105 34L 10 34L 10 130Z"/>
      </g>
    </g>
  </g>
  <g id="g-root-cp_2_g-2_909qlj19a6xaa-stroke-fill" data-item-order="-460294" transform="translate(446, 98)">
    <g id="cp_2_g-2_909qlj19a6xaa-fill" stroke="none" fill="#1ac3fb">
      <g>
        <path d="M 10 10L 105 10C 174.036 9.999997 226 60.9644 226 130L 130 130C 130 116.193 118.807 106.0001 105 106L 10 106L 10 10Z"/>
      </g>
    </g>
    <g id="cp_2_g-2_909qlj19a6xaa-stroke" fill="none" stroke-linecap="round" stroke-linejoin="round" stroke-miterlimit="4" stroke="#2c2c2c" stroke-width="2">
      <g>
        <path d="M 10 10L 105 10C 174.0356 10 226.0001 60.9644 226.0001 130L 130 130C 130 116.1929 118.8071 106.0001 105 106L 10 106L 10 10Z"/>
      </g>
    </g>
  </g>
  <g id="g-root-cp_1_g-1_597fr19a6ux8-stroke-fill" data-item-order="-460290" transform="translate(230, 98)">
    <g id="cp_1_g-1_597fr19a6ux8-fill" stroke="none" fill="#4f91fc">
      <g>
        <path d="M 10 10L 226 10L 226 106L 10 106L 10 10Z"/>
      </g>
    </g>
    <g id="cp_1_g-1_597fr19a6ux8-stroke" fill="none" stroke-linecap="round" stroke-linejoin="round" stroke-miterlimit="4" stroke="#2c2c2c" stroke-width="2">
      <g>
        <path d="M 10 10L 226 10L 226 106L 10 106L 10 10Z"/>
      </g>
    </g>
  </g>
  <g id="g-root-ic_char_14497mv19a6vif-stroke-fill" data-item-order="-3600" transform="translate(308, 116)">
    <g id="ic_char_14497mv19a6vif-fill" stroke="none" fill="#f4f4f4">
      <g>
        <path d="M 56.25 65.449997C 57.150002 64.75 58.474998 62.950001 59.200001 58.575001C 59.29393 57.977425 58.946476 57.398335 58.375 57.199997L 49.224998 54.125C 48.710186 53.947063 48.139721 54.130424 47.825001 54.575001C 45.464321 57.722572 41.759468 59.575001 37.825001 59.575001C 33.890533 59.575001 30.18568 57.722572 27.825001 54.575001C 27.510279 54.130424 26.939814 53.947063 26.425001 54.125L 15 57.900002C 13.290042 58.56115 11.769979 59.634636 10.575 61.025002C 10.37145 61.252258 10.256139 61.544971 10.25 61.849998L 10.25 68.449997C 10.2633 69.134766 10.815228 69.686699 11.5 69.699997L 53.474998 69.699997C 53.812832 69.699173 54.136528 69.564301 54.375 69.324997C 54.607513 69.084 54.733601 68.759773 54.724998 68.425003C 54.738731 67.249077 55.303307 66.147682 56.25 65.449997ZM 57.75 67.5C 57.302162 67.800705 57.116592 68.367706 57.299999 68.875C 57.4646 69.39843 57.951309 69.753326 58.5 69.75L 68.5 69.75C 69.039452 69.742462 69.513199 69.389671 69.675003 68.875C 69.854385 68.373138 69.681282 67.813103 69.25 67.499992C 66.375 65.300003 65 60 64.775002 52.049999C 67.660614 51.43206 69.735443 48.900772 69.775002 45.949997C 69.766289 43.218208 67.984398 40.808601 65.375 40L 65.375 36.549999L 66 36.549999C 67.025848 36.550095 67.86132 35.725758 67.875 34.700001C 67.875092 33.660347 67.039566 32.813679 66 32.799999L 61 32.799999C 60.498356 32.799957 60.01762 33.000931 59.66526 33.357986C 59.312901 33.715042 59.118313 34.198402 59.125004 34.700001C 59.124954 35.195015 59.323296 35.669399 59.675667 36.017067C 60.028034 36.364738 60.505032 36.55669 61.000004 36.550003L 61.625 36.549999L 61.625 40C 59.025501 40.817497 57.255287 43.224991 57.25 45.950001C 57.289551 48.900772 59.36438 51.43206 62.25 52.049999C 62.075001 60 60.599998 65.300003 57.75 67.5ZM 39.700001 42.299999C 39.105354 42.606705 38.443989 42.761314 37.774998 42.75C 37.106014 42.761314 36.444645 42.606705 35.849998 42.299999C 34.95734 41.829632 33.852512 42.150032 33.349998 43.025002C 32.865379 43.916164 33.188793 45.031376 34.075001 45.525002C 35.23069 46.134983 36.518215 46.452576 37.825001 46.450001C 39.13253 46.458794 40.421547 46.140839 41.575005 45.525002C 42.455448 45.009754 42.762413 43.885151 42.265839 42.994038C 41.769264 42.102924 40.651382 41.772324 39.75 42.25ZM 35.525002 36.575001C 36.256134 35.842957 36.256134 34.657043 35.525002 33.925003C 33.653877 32.324562 30.89612 32.324562 29.025 33.924999C 28.424223 34.339626 28.118692 35.065235 28.24193 35.784718C 28.365168 36.504204 28.89477 37.086765 29.599289 37.277813C 30.303806 37.468861 31.055164 37.233662 31.525002 36.674999C 31.95816 36.424911 32.49184 36.424911 32.924999 36.674999C 33.27557 36.990337 33.728527 37.167969 34.200001 37.174999C 34.704407 37.161438 35.18206 36.945145 35.525002 36.575001ZM 40 33.924999C 39.268867 34.657043 39.268867 35.842957 40 36.575001C 40.732044 37.306133 41.917957 37.306133 42.650002 36.575001C 43.073997 36.324104 43.601002 36.324104 44.025002 36.575001C 44.375568 36.890339 44.828526 37.06797 45.299999 37.075001C 46.071335 37.075104 46.764034 36.602825 47.045731 35.884769C 47.327431 35.166714 47.140648 34.349407 46.575001 33.825001C 44.666588 32.209755 41.85841 32.252468 40 33.924999ZM 20.75 30.200001C 20.61796 30.489721 20.55792 30.807068 20.575001 31.125C 20.575001 31.625 20.575001 32.125 20.75 32.599998C 19.924112 33.612034 19.505167 34.895611 19.575001 36.199997C 19.549044 38.74411 20.935284 41.09301 23.174999 42.299999C 23.366905 42.37851 23.507383 42.547081 23.549999 42.75C 24.824999 50.25 33.549999 55.25 37.75 55.25C 41.950001 55.25 50.700001 50.25 51.975002 42.75C 52.016151 42.554108 52.145267 42.388107 52.324997 42.299999C 54.572861 41.101494 55.962315 38.747135 55.924995 36.199997C 56.054535 34.862232 55.640045 33.528641 54.775002 32.5C 54.775002 32.025002 54.899998 31.525 54.949997 31.025C 54.967079 30.707069 54.90704 30.389721 54.775002 30.1C 56.981297 29.458469 58.466377 27.395855 58.375 25.1C 58.488266 22.46681 56.457169 20.234837 53.824997 20.1L 53.649998 20.1C 52.299999 14.725 49.275002 10.1 37.799999 10.1C 26.325001 10.1 23.325001 15 21.975 20.299999L 21.699999 20.299999C 19.057901 20.421564 17.012001 22.657522 17.125 25.299999C 17.083054 27.566164 18.570724 29.577085 20.75 30.200001ZM 21.699999 24.049999L 44.400002 24.049999C 45.090355 24.049999 45.650002 24.609644 45.650002 25.299999C 45.650002 25.990356 45.090355 26.549999 44.400002 26.549999L 21.699999 26.549999C 21.299999 26.549999 20.875 26.025 20.875 25.299999C 20.875 24.575001 21.299999 24.049999 21.699999 24.049999ZM 54.625 25.299999C 54.625 26.025 54.200001 26.549999 53.825001 26.549999L 50 26.549999C 49.611729 26.552193 49.243618 26.377338 49 26.074999C 48.766598 25.76899 48.68391 25.373926 48.774998 25C 48.921829 24.442957 49.423939 24.053564 50 24.049999L 53.825001 24.049999C 54.200001 24.049999 54.625 24.6 54.625 25.299999ZM 50.774998 38.875C 49.447617 39.481392 48.509972 40.709705 48.275002 42.150002C 47.325001 47.75 40.350002 51.5 37.75 51.5C 35.150002 51.5 28.174999 47.75 27.25 42.149998C 27.019276 40.707878 26.080267 39.477776 24.75 38.875C 23.854145 38.260452 23.327904 37.236156 23.35 36.150002C 23.289148 35.74897 23.378147 35.339577 23.6 35C 24.337879 34.626774 24.744146 33.81424 24.6 33C 24.6 32.275002 24.400002 31.5 24.299999 30.699999C 24.322252 30.550825 24.322252 30.399174 24.299999 30.25L 51.350002 30.25C 51.288849 30.396049 51.238708 30.546471 51.199997 30.699999C 51.199997 31.5 51.025002 32.275002 50.900002 33C 50.768505 33.818928 51.183418 34.628521 51.925003 35C 52.143536 35.32225 52.232784 35.714947 52.175003 36.100002C 52.223949 37.205799 51.693478 38.257275 50.774998 38.875ZM 49.049999 18.475C 49.263798 18.855349 49.263798 19.319653 49.049999 19.700001C 48.829998 20.070864 48.43121 20.298744 48 20.299999L 44.575001 20.299999C 44.11937 20.317572 43.693146 20.075399 43.474998 19.674999C 42.816895 18.482336 41.972988 17.402132 40.975002 16.475C 40.522697 16.130035 40.367374 15.519099 40.599998 15C 40.82653 14.498547 41.354328 14.204197 41.900002 14.275C 44.860622 14.303953 47.583092 15.903167 49.049999 18.475ZM 31.700001 14.7C 31.974251 14.59855 32.275749 14.59855 32.550003 14.7C 34.370876 15.583018 36.04134 16.74728 37.5 18.15C 37.866806 18.506636 37.984921 19.047987 37.799999 19.525C 37.604824 20.000259 37.138718 20.30769 36.625 20.299999L 27.675001 20.299999C 27.243793 20.298744 26.845003 20.070864 26.625 19.700001C 26.400883 19.322418 26.400883 18.852581 26.625 18.475C 27.661039 16.515911 29.525726 15.128878 31.700001 14.7Z"/>
      </g>
    </g>
  </g>
  <g id="g-root-ic_2_dj7m5j19a8b28-stroke-fill" data-item-order="-3600" transform="translate(308, 260)">
    <g id="ic_2_dj7m5j19a8b28-fill" stroke="none" fill="#f4f4f4">
      <g>
        <path d="M 67.5 33.75C 67.5 18.75 57.5 10 40 10C 22.5 10 12.5 18.65 12.5 33.75C 12.519673 41.974506 17.435343 49.397167 24.999998 52.625C 25.11228 52.670513 25.208151 52.748951 25.275 52.849998L 28.75 58.974998C 29.082338 59.504997 28.951763 60.201393 28.449999 60.574997C 27.859941 61.041138 27.511045 61.748116 27.5 62.5C 27.5 63.880711 28.619287 65 30 65C 30.345177 65 30.625 65.279823 30.625 65.625L 30.625 66.875C 30.625 68.600891 32.024109 70 33.75 70L 46.25 70C 47.975891 70 49.375 68.600891 49.375 66.875L 49.375 65.625C 49.375 65.279823 49.654823 65 50 65C 51.380711 65 52.5 63.880711 52.5 62.5C 52.488956 61.748116 52.14006 61.041138 51.550003 60.574997C 51.048233 60.201393 50.91766 59.504997 51.249996 58.974995L 54.850002 52.849998C 54.916843 52.748951 55.012718 52.670513 55.125 52.625C 62.640709 49.359089 67.501846 41.944637 67.499992 33.75ZM 62.5 33.75C 62.5 42.674999 56 47.275002 49.674999 49.474998C 49.417656 49.568497 49.129662 49.475929 48.974998 49.249996C 48.803452 49.038776 48.803452 48.736225 48.974998 48.525002C 52.079945 43.924831 53.678658 38.47348 53.549999 32.924999C 53.735065 27.211288 51.971909 21.604445 48.549999 17.025C 48.387486 16.810654 48.387486 16.514345 48.549999 16.299999C 48.692726 16.073046 48.964306 15.962402 49.224998 16.025C 58.024998 18.275 62.5 24.199999 62.5 33.75ZM 17.5 33.75C 17.5 24.199999 21.975 18.275 30.825001 16.025C 31.085693 15.962402 31.357271 16.073046 31.5 16.299999C 31.662512 16.514345 31.662512 16.810654 31.499998 17.025C 28.078094 21.604445 26.314936 27.211288 26.5 32.924999C 26.371344 38.47348 27.970058 43.924831 31.075001 48.525002C 31.246548 48.736225 31.246548 49.038776 31.075001 49.25C 30.920334 49.475929 30.632339 49.568497 30.375 49.474998C 24 47.275002 17.5 42.674999 17.5 33.75ZM 45.200001 59.375C 44.978062 59.75943 44.56889 59.997322 44.125 60L 35.899998 60C 35.453251 60.008049 35.039028 59.767223 34.824997 59.374996L 33.125 56.550003C 32.999966 56.335518 33.013737 56.067368 33.160084 55.866817C 33.306427 55.666271 33.557598 55.571358 33.800003 55.625C 35.842125 56.02977 37.918175 56.239048 40 56.25C 42.090103 56.239124 44.174454 56.02985 46.224998 55.625C 46.464249 55.579445 46.708172 55.67701 46.849998 55.875C 46.975983 56.082363 46.975983 56.342628 46.849998 56.549995Z"/>
      </g>
    </g>
  </g>
  <g id="g-root-ic_ufo_1lseup319ab5dt-stroke-fill" data-item-order="-3600" transform="translate(308, 404)">
    <g id="ic_ufo_1lseup319ab5dt-fill" stroke="none" fill="#f4f4f4">
      <g>
        <path d="M 60.974998 46.849998C 60.615849 45.510906 59.239243 44.716423 57.900101 45.075371C 56.560951 45.434315 55.766258 46.810799 56.124996 48.149998L 61.424999 68.150002C 61.632301 69.03978 62.30846 69.745621 63.188519 69.990936C 64.068573 70.236252 65.012367 69.981964 65.650055 69.327721C 66.28775 68.673485 66.517776 67.723488 66.25 66.849998ZM 22.275 45C 20.942989 44.650688 19.579304 45.444305 19.225 46.775002L 13.925 66.774994C 13.657223 67.648483 13.887249 68.59848 14.52494 69.252724C 15.162632 69.906967 16.106422 70.161255 16.986483 69.915939C 17.866543 69.670624 18.5427 68.964783 18.75 68.074997L 24.049999 48.074997C 24.225351 47.431747 24.136497 46.745102 23.803185 46.167675C 23.469872 45.590244 22.91972 45.169876 22.275 45ZM 45 59.825001C 46.504318 59.685478 47.654873 58.423275 47.654873 56.912498C 47.654873 55.401726 46.504318 54.139519 45 54L 36.349998 54C 34.84568 54.139519 33.695126 55.401726 33.695126 56.912498C 33.695126 58.423275 34.84568 59.685478 36.349998 59.825001L 37.799999 59.825001L 37.799999 60.224998L 34 65.375C 33.04731 66.66597 33.321537 68.48481 34.612499 69.4375C 35.903465 70.39019 37.722309 70.115967 38.674999 68.825005L 40.75 66.025002L 42.75 68.850006C 43.723404 70.161682 45.575825 70.435905 46.887505 69.462502C 48.199177 68.489098 48.473404 66.636673 47.500004 65.325005L 43.75 60.200001L 43.75 59.825001ZM 45 47.799999C 45.010124 46.02824 43.950634 44.425301 42.316635 43.74025C 40.68264 43.055199 38.796787 43.423306 37.540356 44.672558C 36.283928 45.92181 35.905014 47.805519 36.580692 49.443417C 37.256367 51.081314 38.85321 52.149971 40.625004 52.150002C 41.783016 52.156654 42.895889 51.701294 43.717087 50.884785C 44.538284 50.068283 45.000019 48.958038 45 47.799999ZM 68.699997 33.75C 69.070732 33.753845 69.425468 33.599216 69.674995 33.324997C 69.929268 33.058884 70.040787 32.687134 69.974998 32.325001C 69.112411 27.30501 64.717842 23.664097 59.625 23.750002L 20.375 23.75C 15.272765 23.651617 10.863997 27.295488 10 32.325001C 9.934211 32.687134 10.045734 33.058884 10.3 33.325001C 10.549526 33.599216 10.904265 33.753845 11.275 33.749996L 14.1 33.75C 14.355394 33.753315 14.583072 33.911701 14.675 34.150002C 14.874434 34.652969 15.099734 35.145294 15.35 35.625004C 17.581713 39.860214 21.975267 42.51128 26.762501 42.51128C 31.549732 42.51128 35.943291 39.860214 38.174999 35.625C 38.425266 35.145294 38.650566 34.652969 38.850002 34.150002C 38.935871 33.907017 39.16732 33.74601 39.424999 33.749996L 40.574997 33.75C 40.83268 33.74601 41.064125 33.907017 41.149998 34.150002C 41.349434 34.652969 41.574738 35.145294 41.825001 35.625004C 44.056709 39.860214 48.450268 42.51128 53.237499 42.51128C 58.024731 42.51128 62.418289 39.860214 64.650002 35.625C 64.900269 35.145294 65.125572 34.652969 65.325005 34.150002C 65.410873 33.907017 65.642311 33.74601 65.899994 33.749996ZM 26.75 37.5C 24.462233 37.479118 22.290703 36.488758 20.775 34.775002C 20.653473 34.575375 20.653473 34.324623 20.775 34.125C 20.858223 33.926567 21.03767 33.784897 21.25 33.75L 32.25 33.75C 32.499306 33.74913 32.725281 33.896507 32.825001 34.125C 32.959209 34.320885 32.959209 34.579117 32.825001 34.775002C 31.292141 36.522888 29.074753 37.517517 26.75 37.5ZM 53.25 37.5C 50.960125 37.488667 48.784878 36.496609 47.275002 34.775002C 47.140789 34.579117 47.140789 34.320885 47.275002 34.125C 47.374722 33.896507 47.600697 33.74913 47.850002 33.75L 58.850002 33.75C 59.090191 33.758846 59.304024 33.904644 59.400002 34.125C 59.53421 34.320885 59.53421 34.579117 59.400002 34.775002C 57.850033 36.542931 55.600834 37.539528 53.250004 37.5ZM 40 10C 33.096817 9.935684 26.62034 13.333488 22.75 19.049999C 22.651831 19.246769 22.651831 19.478231 22.75 19.674999C 22.863773 19.872168 23.072403 19.995449 23.299999 20L 56.875 20C 57.129063 20.023737 57.37352 19.89662 57.499996 19.674999C 57.598167 19.478231 57.598167 19.246769 57.5 19.049999C 53.580826 13.258596 46.99128 9.850858 39.999996 10Z"/>
      </g>
    </g>
  </g>
  <g id="g-root-ic_ball_1d1rn5319aciyy-stroke-fill" data-item-order="-3600" transform="translate(524, 116)">
    <g id="ic_ball_1d1rn5319aciyy-fill" stroke="none" fill="#f4f4f4">
      <g>
        <path d="M 56.824997 12.975L 28.799999 12.975C 24.658096 12.978846 20.762968 14.944958 18.300001 18.275C 18.143812 18.483252 17.874901 18.572887 17.625 18.5L 14.325 17.5C 13.389014 17.107801 12.318728 17.211075 11.475 17.775C 10.62795 18.332886 10.098417 19.261892 10.05 20.275L 10.05 31.75C 10.048076 32.753113 10.527813 33.696175 11.33971 34.285294C 12.151607 34.874416 13.196959 35.037975 14.15 34.725002L 17.625 33.724998C 17.874901 33.652111 18.143812 33.741749 18.299999 33.950001C 20.765606 37.273746 24.661583 39.23101 28.799999 39.224998L 31.949999 39.224998C 32.220989 39.221596 32.463299 39.39323 32.550003 39.649998L 34.25 44.799999C 34.790813 46.307228 36.223709 47.30925 37.825001 47.299999L 47.275002 47.299999C 48.869492 47.306149 50.29351 46.303318 50.825001 44.799999L 52.5 39.649998C 52.592957 39.397957 52.831387 39.229065 53.099998 39.224998L 56.799999 39.224998C 64.048737 39.225002 69.925003 33.348736 69.925003 26.1C 69.925003 18.851263 64.048737 12.975 56.800003 12.975ZM 47.125 40L 46.5 41.875C 46.416298 42.123138 46.186775 42.292786 45.924999 42.299999L 39.174999 42.299999C 38.904007 42.303402 38.661701 42.131771 38.575001 41.875L 37.950001 40C 37.864998 39.826519 37.864998 39.623482 37.950001 39.450001C 38.056213 39.276268 38.246395 39.171665 38.450001 39.174999L 46.450001 39.174999C 46.648304 39.180416 46.83226 39.279648 46.94569 39.442398C 47.05912 39.605145 47.088554 39.81208 47.025002 40ZM 35.325001 52.649998C 33.400547 49.529629 29.991064 47.635471 26.325001 47.650002C 21.580532 47.679562 17.42494 50.836998 16.125 55.400002C 14.758274 55.781597 13.510917 56.504204 12.5 57.499996C 10.931787 59.015903 10.032125 61.094124 10 63.274998C 10 65.346069 11.678932 67.025002 13.75 67.025002L 42.5 67.025002C 44.571068 67.025002 46.25 65.346069 46.25 63.275002C 46.244225 60.406487 45.081543 57.661587 43.025154 55.661667C 40.968765 53.661747 38.192566 52.575928 35.325001 52.649998ZM 40.849998 61.75C 40.726753 61.917702 40.533035 62.019173 40.325001 62.025002L 16.4 62.024998C 16.168825 62.030296 15.959025 61.89043 15.875 61.674999C 15.737484 61.489357 15.737484 61.235638 15.875 61.049999C 16.454809 60.462383 17.249582 60.137249 18.075001 60.150002L 18.424999 60.149998C 19.614674 60.009453 20.537437 59.044743 20.625 57.849998C 20.837534 55.250122 22.817013 53.141308 25.398262 52.764877C 27.979513 52.388443 30.478811 53.844101 31.424999 56.275002C 31.841021 57.346947 32.934574 57.996887 34.075001 57.849998L 34.324997 57.849998C 34.735046 57.757725 35.154804 57.715752 35.574997 57.724998C 37.860077 57.721466 39.918095 59.10667 40.774998 61.224998C 40.884026 61.377335 40.912014 61.573227 40.849998 61.75Z"/>
      </g>
    </g>
  </g>
  <g id="g-root-ic_road_1qeh3on19adwxv-stroke-fill" data-item-order="-3600" transform="translate(524, 260)">
    <g id="ic_road_1qeh3on19adwxv-fill" stroke="none" fill="#f4f4f4">
      <g>
        <path d="M 61.474998 43.974998C 61.307735 43.397823 60.746498 43.027195 60.149998 43.099998L 59.375 43.099998C 56.769493 43.106777 54.278694 42.028938 52.5 40.125C 52.386017 39.987076 52.216423 39.907219 52.037498 39.907219C 51.858574 39.907219 51.68898 39.987076 51.574997 40.125C 49.482971 42.631477 46.630299 44.386967 43.450001 45.125C 42.89167 45.253616 42.49707 45.752056 42.5 46.325001L 42.5 51.25C 42.5 52.630711 41.380714 53.75 40 53.75C 38.619286 53.75 37.5 52.630711 37.5 51.25L 37.5 46.400002C 37.50293 45.827057 37.10833 45.328613 36.549999 45.200001C 33.369705 44.461967 30.517027 42.706474 28.425001 40.200001C 28.310528 40.072014 28.146708 39.999203 27.974998 39.999996C 27.788332 39.997326 27.60833 40.069328 27.474998 40.200001C 25.713837 42.116966 23.228157 43.205585 20.625 43.200001L 19.85 43.200001C 19.253502 43.127197 18.692266 43.497826 18.525 44.075001L 11.3 68.400002C 11.189835 68.77771 11.263932 69.185242 11.5 69.5C 11.730588 69.821251 12.104644 70.008278 12.5 69.999992L 36.25 70C 36.940353 70 37.5 69.440353 37.5 68.75L 37.5 61.25C 37.5 59.869289 38.619286 58.75 40 58.75C 41.380714 58.75 42.5 59.869289 42.5 61.25L 42.5 68.75C 42.5 69.440353 43.059647 70 43.75 70L 67.5 70C 67.895348 70.008278 68.269409 69.821251 68.499992 69.5C 68.736069 69.185242 68.810165 68.77771 68.699997 68.400002ZM 67.5 27.5L 51.474998 27.5C 50.961967 27.500456 50.502991 27.18117 50.325005 26.699999C 49.129475 23.510986 46.542023 21.043242 43.299999 20C 42.81403 19.828253 42.49202 19.36536 42.499996 18.849998L 42.5 12.775C 42.5 11.394288 41.380714 10.275 40 10.275C 38.619286 10.275 37.5 11.394288 37.5 12.775L 37.5 18.85C 37.500957 19.378731 37.155743 19.845787 36.649998 20C 33.432323 21.050909 30.866262 23.506603 29.674999 26.674999C 29.505379 27.166027 29.044487 27.496666 28.525 27.5L 12.5 27.5C 11.119288 27.5 10 28.619287 10 30C 10 31.380713 11.119288 32.5 12.5 32.5L 15 32.5C 15.121488 32.458092 15.253512 32.458092 15.375 32.5C 15.495123 32.628178 15.55825 32.799522 15.549999 32.974998C 15.536538 33.158089 15.536538 33.341915 15.55 33.525002C 15.745448 36.425621 18.155302 38.678558 21.0625 38.678558C 23.969698 38.678558 26.379551 36.425621 26.575001 33.525002C 26.588026 33.341896 26.588026 33.1581 26.574999 32.974998C 26.538357 32.812901 26.565195 32.642921 26.649998 32.499996C 26.795586 32.448528 26.954416 32.448528 27.1 32.5L 28.150002 32.5C 28.705555 32.5 29.194445 32.866665 29.349998 33.399998C 30.604977 38.255371 34.985069 41.647278 40.000004 41.647278C 45.014935 41.647278 49.395027 38.255371 50.650002 33.400002C 50.805553 32.866665 51.294445 32.5 51.849998 32.5L 52.900002 32.5C 53.069836 32.507622 53.230537 32.579044 53.349998 32.700001C 53.46109 32.83213 53.515057 33.003029 53.5 33.174999C 53.486973 33.358101 53.486973 33.541897 53.5 33.724998C 53.69545 36.625622 56.105305 38.878559 59.012497 38.878559C 61.919701 38.878559 64.329552 36.625622 64.525002 33.724998C 64.538467 33.541916 64.538467 33.358086 64.525002 33.175003C 64.428055 32.949184 64.466743 32.688004 64.625 32.499996C 64.74649 32.458092 64.87851 32.458092 65 32.5L 67.5 32.5C 68.880707 32.5 70 31.380713 70 30C 70 28.619287 68.880707 27.5 67.5 27.5ZM 21.025 35.424999C 20.012959 35.425095 19.188677 34.611954 19.174999 33.600002C 19.188459 32.5839 20.008902 31.76346 21.025002 31.75C 22.036951 31.763678 22.850092 32.587959 22.85 33.600002C 22.85 34.607922 22.032921 35.424999 21.025002 35.424999ZM 45 28.075001L 35.274998 28.075001C 35.084923 28.076323 34.910534 27.969753 34.825001 27.799999C 34.726749 27.629829 34.726749 27.42017 34.825001 27.25C 35.980839 25.456312 37.986877 24.393452 40.12011 24.444485C 42.253342 24.49552 44.206257 25.653093 45.275002 27.500002C 45.350918 27.631495 45.350918 27.793505 45.274998 27.924999C 45.207535 28.010307 45.108246 28.064465 45 28.075001ZM 59.074997 35.424999C 58.067085 35.424999 57.250004 34.607922 57.250004 33.600002C 57.249908 32.587959 58.063049 31.763678 59.075005 31.750002C 60.091099 31.76346 60.911541 32.5839 60.925003 33.600002C 60.918926 34.104126 60.707375 34.583935 60.339275 34.928436C 59.971176 35.272938 59.47842 35.45229 58.974998 35.424999Z"/>
      </g>
    </g>
  </g>
  <g id="g-root-ic_fema_hznld319afais-stroke-fill" data-item-order="-3600" transform="translate(524, 404)">
    <g id="ic_fema_hznld319afais-fill" stroke="none" fill="#f4f4f4">
      <g>
        <path d="M 10 10M 44.579998 10.9825L 44.705002 10.9825L 44.705002 19.014999L 44.579998 19.014999C 40.137501 19.014999 36.43 20.315001 33.849998 21.5975C 33.049999 21.997499 32.349998 22.397501 31.765001 22.76C 32.900002 16.174999 38.122498 10.9825 44.579998 10.9825ZM 55.305 21.5975C 53.143353 20.517548 50.83572 19.758724 48.455002 19.344999L 48.455002 11.605C 53.150002 13.1775 56.529999 17.545 57.399998 22.764999C 56.721451 22.342794 56.023159 21.953186 55.307499 21.5975ZM 31.522501 28.445C 33.09444 29.459229 34.778053 30.28887 36.540001 30.917501L 36.540001 31.184999C 36.540001 35.66 40.07 39.127499 44.279999 39.127499L 44.8825 39.127499C 49.092499 39.127499 52.625 35.66 52.625 31.184999L 52.625 30.875C 54.381069 30.239401 56.061993 29.412773 57.637497 28.41C 57.703918 29.156862 57.91716 29.883257 58.265003 30.547503C 58.57 31.112499 58.994999 31.627501 59.610001 32.009998C 60.217499 32.389999 61.1525 32.727501 62.625 32.727501C 64.005714 32.727501 65.125 33.846786 65.125 35.227501C 65.125 36.608212 64.005714 37.727501 62.625 37.727501C 60.345001 37.727501 58.470001 37.190002 56.967503 36.2575C 56.873024 36.198433 56.779675 36.137589 56.6875 36.075001C 54.790001 40.807499 50.219997 44.125 44.8825 44.125L 44.282501 44.125C 38.945 44.125 34.372498 40.807499 32.474998 36.075001C 32.382866 36.137653 32.289513 36.198498 32.195 36.2575C 30.695 37.190002 28.817499 37.727501 26.537498 37.727501C 25.156788 37.727501 24.037498 36.608212 24.037498 35.227501C 24.037498 33.846786 25.156788 32.727501 26.537498 32.727501C 28.01 32.727501 28.945 32.389999 29.555 32.009998C 30.17 31.627501 30.594999 31.112499 30.897501 30.547501C 31.239985 29.893738 31.452248 29.179686 31.522501 28.445ZM 35.432503 26.372499C 35.006058 26.157562 34.587456 25.927416 34.177498 25.682499C 34.577499 25.449999 35.0275 25.202499 35.522499 24.955C 37.7425 23.852499 40.872501 22.764999 44.5825 22.764999C 48.290001 22.764999 51.422501 23.852499 53.639999 24.955C 54.122501 25.195 54.559998 25.434999 54.947502 25.6625C 54.519363 25.911501 54.083298 26.146624 53.639999 26.3675C 51.422501 27.4725 48.290001 28.557499 44.5825 28.557499C 41.403542 28.555201 38.269501 27.806799 35.432503 26.372499ZM 15.325001 54.212498C 15.325001 49.863258 18.850758 46.337502 23.200001 46.337502C 27.549244 46.337502 31.075001 49.863258 31.075001 54.212502C 31.075001 58.561745 27.549244 62.087502 23.200001 62.087502C 18.850758 62.087502 15.325001 58.561745 15.325001 54.212502ZM 30.459999 64.845001C 24.989492 68.579956 17.577738 67.554642 13.326632 62.474831C 9.075527 57.395023 9.372473 49.918579 14.013066 45.191925C 18.65366 40.465275 26.123384 40.031017 31.280441 44.188072C 36.437496 48.345127 37.598816 55.736794 33.965 61.275002L 38.139999 65.619995C 39.055332 66.620796 39.00576 68.168884 38.028271 69.10907C 37.050785 70.049248 35.501934 70.038567 34.537498 69.084999L 30.459999 64.845001ZM 68.080002 70L 42 70C 43.093868 67.658546 42.63382 64.88533 40.842499 63.022499L 38.540001 60.625C 39.388252 58.593708 39.823383 56.413795 39.82 54.212502C 39.823502 51.715225 39.261986 49.249512 38.177502 47L 40.327499 47C 40.7911 47.000153 41.238205 47.172047 41.5825 47.482498L 45.330002 50.852501L 49.075001 47.482498C 49.4193 47.172047 49.866405 47.000153 50.330002 47L 62.830002 47C 63.518253 47.000011 64.151169 47.377094 64.478844 47.982338C 64.806511 48.587582 64.776245 49.323696 64.400002 49.900002L 61.592499 54.204998C 65.771057 57.672237 68.692917 62.417847 69.907501 67.709999C 70.033669 68.2659 69.900101 68.848999 69.54454 69.294548C 69.18898 69.740097 68.65004 69.999702 68.080002 70ZM 47.072502 58.940002C 47.072502 60.316574 45.95657 61.432499 44.580002 61.432499C 43.203434 61.432499 42.087502 60.316574 42.087502 58.940002C 42.130119 57.594833 43.23291 56.526428 44.578751 56.526428C 45.924595 56.526428 47.027386 57.594833 47.07 58.940002Z"/>
      </g>
    </g>
  </g>
  <g id="g-root-tx_thecharl_1luwr1j19a6wb2-stroke-fill" data-item-order="0" transform="translate(188, 50)">
    <g id="tx_thecharl_1luwr1j19a6wb2-fill" stroke="none" fill="#f4f4f4">
      <g>
        <text style="font: 20px Roboto, sans-serif; white-space: pre;" font-size="20px" font-family="Roboto, sans-serif">
          <tspan x="16.64" y="34" dominant-baseline="ideographic">The Charles B. Moore UFO Sighting: A Timeline of Events</tspan>
        </text>
      </g>
    </g>
  </g>
  <g id="g-root-tx_april241_1q6zenb19ai5u5-stroke-fill" data-item-order="0" transform="translate(62, 98)">
    <g id="tx_april241_1q6zenb19ai5u5-fill" stroke="none" fill="#ebf2ff">
      <g>
        <text style="font: bold 20px Roboto, sans-serif; white-space: pre;" font-weight="bold" font-size="20px" font-family="Roboto, sans-serif">
          <tspan x="21.08" y="34" dominant-baseline="ideographic">April 24, 1949, </tspan>
          <tspan x="64.55" y="58" dominant-baseline="ideographic">10:30 AM</tspan>
        </text>
      </g>
    </g>
  </g>
  <g id="g-root-tx_charlesb_1lrsdlz19ai3gm-stroke-fill" data-item-order="0" transform="translate(26, 158)">
    <g id="tx_charlesb_1lrsdlz19ai3gm-fill" stroke="none" fill="#ebf2ff">
      <g>
        <text style="font: 15px Roboto, sans-serif; white-space: pre;" font-size="15px" font-family="Roboto, sans-serif">
          <tspan x="16.89" y="28" dominant-baseline="ideographic">Charles B. Moore tracks a </tspan>
          <tspan x="81.41" y="46" dominant-baseline="ideographic">weather balloon</tspan>
        </text>
      </g>
    </g>
  </g>
  <g id="g-root-tx_april241_18gbv8n19ai51j-stroke-fill" data-item-order="0" transform="translate(74, 254)">
    <g id="tx_april241_18gbv8n19ai51j-fill" stroke="none" fill="#dffff0">
      <g>
        <text style="font: bold 20px Roboto, sans-serif; white-space: pre;" font-weight="bold" font-size="20px" font-family="Roboto, sans-serif">
          <tspan x="14" y="34" dominant-baseline="ideographic">April 24, 1949</tspan>
        </text>
      </g>
    </g>
  </g>
  <g id="g-root-tx_moorelau_v5htyf19ai3go-stroke-fill" data-item-order="0" transform="translate(38, 290)">
    <g id="tx_moorelau_v5htyf19ai3go-fill" stroke="none" fill="#dffff0">
      <g>
        <text style="font: 15px Roboto, sans-serif; white-space: pre;" font-size="15px" font-family="Roboto, sans-serif">
          <tspan x="14.08" y="28" dominant-baseline="ideographic">Moore launches another </tspan>
          <tspan x="69.41" y="46" dominant-baseline="ideographic">weather balloon</tspan>
        </text>
      </g>
    </g>
  </g>
  <g id="g-root-tx_1950_qpobtz19ai48x-stroke-fill" data-item-order="0" transform="translate(146, 398)">
    <g id="tx_1950_qpobtz19ai48x-fill" stroke="none" fill="#ffe8f6">
      <g>
        <text style="font: bold 20px Roboto, sans-serif; white-space: pre;" font-weight="bold" font-size="20px" font-family="Roboto, sans-serif">
          <tspan x="22.09" y="34" dominant-baseline="ideographic">1950</tspan>
        </text>
      </g>
    </g>
  </g>
  <g id="g-root-tx_commande_hu1bl319ai51m-stroke-fill" data-item-order="0" transform="translate(26, 434)">
    <g id="tx_commande_hu1bl319ai51m-fill" stroke="none" fill="#ffe8f6">
      <g>
        <text style="font: 15px Roboto, sans-serif; white-space: pre;" font-size="15px" font-family="Roboto, sans-serif">
          <tspan x="23.98" y="28" dominant-baseline="ideographic">Commander McLaughlin </tspan>
          <tspan x="16.06" y="46" dominant-baseline="ideographic">writes for TRUE Magazine</tspan>
        </text>
      </g>
    </g>
  </g>
  <g id="g-root-tx_april241_4j7aav19ai3gr-stroke-fill" data-item-order="0" transform="translate(686, 98)">
    <g id="tx_april241_4j7aav19ai3gr-fill" stroke="none" fill="#e5f8ff">
      <g>
        <text style="font: bold 20px Roboto, sans-serif; white-space: pre;" font-weight="bold" font-size="20px" font-family="Roboto, sans-serif">
          <tspan x="12" y="34" dominant-baseline="ideographic">April 24, 1949, </tspan>
          <tspan x="12" y="58" dominant-baseline="ideographic">10:30 AM</tspan>
        </text>
      </g>
    </g>
  </g>
  <g id="g-root-tx_moorespo_3ds6f19ai490-stroke-fill" data-item-order="0" transform="translate(686, 158)">
    <g id="tx_moorespo_3ds6f19ai490-fill" stroke="none" fill="#e5f8ff">
      <g>
        <text style="font: 15px Roboto, sans-serif; white-space: pre;" font-size="15px" font-family="Roboto, sans-serif">
          <tspan x="12" y="28" dominant-baseline="ideographic">Moore spots an </tspan>
          <tspan x="12" y="46" dominant-baseline="ideographic">unidentified object</tspan>
        </text>
      </g>
    </g>
  </g>
  <g id="g-root-tx_april241_1lt1bs719ai5mt-stroke-fill" data-item-order="0" transform="translate(686, 254)">
    <g id="tx_april241_1lt1bs719ai5mt-fill" stroke="none" fill="#f2ffd7">
      <g>
        <text style="font: bold 20px Roboto, sans-serif; white-space: pre;" font-weight="bold" font-size="20px" font-family="Roboto, sans-serif">
          <tspan x="12" y="34" dominant-baseline="ideographic">April 24, 1949</tspan>
        </text>
      </g>
    </g>
  </g>
  <g id="g-root-tx_objectex_18i7ahz19ai41y-stroke-fill" data-item-order="0" transform="translate(686, 290)">
    <g id="tx_objectex_18i7ahz19ai41y-fill" stroke="none" fill="#f2ffd7">
      <g>
        <text style="font: 15px Roboto, sans-serif; white-space: pre;" font-size="15px" font-family="Roboto, sans-serif">
          <tspan x="12" y="28" dominant-baseline="ideographic">Object exhibits extreme </tspan>
          <tspan x="12" y="46" dominant-baseline="ideographic">speed and altitude</tspan>
        </text>
      </g>
    </g>
  </g>
  <g id="g-root-tx_august14_zmka9319ai4un-stroke-fill" data-item-order="0" transform="translate(686, 398)">
    <g id="tx_august14_zmka9319ai4un-fill" stroke="none" fill="#f1eeff">
      <g>
        <text style="font: bold 20px Roboto, sans-serif; white-space: pre;" font-weight="bold" font-size="20px" font-family="Roboto, sans-serif">
          <tspan x="12" y="34" dominant-baseline="ideographic">August 14, 1952</tspan>
        </text>
      </g>
    </g>
  </g>
  <g id="g-root-tx_ciastudy_v6qs4n19ai5mw-stroke-fill" data-item-order="0" transform="translate(686, 434)">
    <g id="tx_ciastudy_v6qs4n19ai5mw-fill" stroke="none" fill="#f1eeff">
      <g>
        <text style="font: 15px Roboto, sans-serif; white-space: pre;" font-size="15px" font-family="Roboto, sans-serif">
          <tspan x="12" y="28" dominant-baseline="ideographic">CIA study cites the </tspan>
          <tspan x="12" y="46" dominant-baseline="ideographic">sighting</tspan>
        </text>
      </g>
    </g>
  </g>
</svg>
