<?xml version='1.0' encoding='utf-8'?>
<svg xmlns="http://www.w3.org/2000/svg" xmlns:xlink="http://www.w3.org/1999/xlink" width="648" height="432" viewBox="0 0 648 432" style="fill:none;stroke:none;fill-rule:evenodd;clip-rule:evenodd;stroke-linecap:round;stroke-linejoin:round;stroke-miterlimit:1.5;" version="1.1">
  <style class="text-font-style fontImports" data-font-family="Roboto">@import url('https://fonts.googleapis.com/css2?family=Roboto:wght@400;700&amp;display=block');</style>
  <rect x="0" y="0" width="648" height="432" fill="#252a34" stroke="none" id="programmatic_background"/>
  <g id="g-root-tf_3e1nb1cbzll2-stroke-fill" data-item-order="-254592" transform="translate(12, 12)">
    <g id="tf_3e1nb1cbzll2-fill" stroke="none" fill="#2c2c2c">
      <g>
        <path d="M 0 0L 624 0L 624 408L 0 408Z"/>
      </g>
    </g>
    <defs>
      <pattern id="crawlingPattern-00d16d21" x="0" y="0" width="12" height="12" patternUnits="userSpaceOnUse" fill="#00d16d21">
        <use href="#crawlingSymbol"/>
      </pattern>
      <symbol id="crawlingSymbol">
        <g>
          <path d="M -12.5 12.5 l 13 -13 l 6 0 l -13 13 Z M -0.5 12.5 l 13 -13 l 6 0 l -13 13 Z M 11.5 12.5 l 13 -13 l 6 0 l -13 13 Z"/>
        </g>
      </symbol>
      <pattern id="crawlingPattern-0060fb20" x="0" y="0" width="12" height="12" patternUnits="userSpaceOnUse" fill="#0060fb20">
        <use href="#crawlingSymbol"/>
      </pattern>
      <pattern id="crawlingPattern-00ff873a" x="0" y="0" width="12" height="12" patternUnits="userSpaceOnUse" fill="#00ff873a">
        <use href="#crawlingSymbol"/>
      </pattern>
      <pattern id="crawlingPattern-00b15c75" x="0" y="0" width="12" height="12" patternUnits="userSpaceOnUse" fill="#00b15c75">
        <use href="#crawlingSymbol"/>
      </pattern>
      <pattern id="crawlingPattern-0059ff37" x="0" y="0" width="12" height="12" patternUnits="userSpaceOnUse" fill="#0059ff37">
        <use href="#crawlingSymbol"/>
      </pattern>
      <pattern id="crawlingPattern-0060fba2" x="0" y="0" width="12" height="12" patternUnits="userSpaceOnUse" fill="#0060fba2">
        <use href="#crawlingSymbol"/>
      </pattern>
      <pattern id="crawlingPattern-c1c1c11a" x="0" y="0" width="12" height="12" patternUnits="userSpaceOnUse" fill="#c1c1c11a">
        <use href="#crawlingSymbol"/>
      </pattern>
      <pattern id="crawlingPattern-0000001b" x="0" y="0" width="12" height="12" patternUnits="userSpaceOnUse" fill="#0000001b">
        <use href="#crawlingSymbol"/>
      </pattern>
      <pattern id="crawlingPattern-5f5f5f1a" x="0" y="0" width="12" height="12" patternUnits="userSpaceOnUse" fill="#5f5f5f1a">
        <use href="#crawlingSymbol"/>
      </pattern>
    </defs>
  </g>
  <g id="g-root-cr_2_cr-2_1lqjlqv1ccgi6j-stroke-fill" data-item-order="-46650" transform="translate(421.99993896484375, 133.99998474121094)">
    <g id="cr_2_cr-2_1lqjlqv1ccgi6j-fill" stroke="none" fill="#43dd93">
      <g>
        <path d="M 10 64C 10 93.823377 34.176624 118 64 118C 93.823377 118 118 93.823377 118 64C 118 34.176624 93.823377 10 64 10C 34.176624 10 10 34.176624 10 64"/>
      </g>
    </g>
    <g id="cr_2_cr-2_1lqjlqv1ccgi6j-stroke" fill="none" stroke-linecap="round" stroke-linejoin="round" stroke-miterlimit="4" stroke="#2c2c2c" stroke-width="2">
      <g>
        <path d="M 10 64C 10 93.823377 34.176624 118 64 118C 93.823377 118 118 93.823377 118 64C 118 34.176624 93.823377 10 64 10C 34.176624 10 10 34.176624 10 64"/>
      </g>
    </g>
  </g>
  <g id="g-root-cr_1_cr-1_1hbckpj1ccgft0-stroke-fill" data-item-order="-46646" transform="translate(97.99996948242188, 134)">
    <g id="cr_1_cr-1_1hbckpj1ccgft0-fill" stroke="none" fill="#4f91fc">
      <g>
        <path d="M 10 64C 10 93.823377 34.176624 118 64 118C 93.823377 118 118 93.823377 118 64C 118 34.176624 93.823377 10 64 10C 34.176624 10 10 34.176624 10 64"/>
      </g>
    </g>
    <g id="cr_1_cr-1_1hbckpj1ccgft0-stroke" fill="none" stroke-linecap="round" stroke-linejoin="round" stroke-miterlimit="4" stroke="#2c2c2c" stroke-width="2">
      <g>
        <path d="M 10 64C 10 93.823377 34.176624 118 64 118C 93.823377 118 118 93.823377 118 64C 118 34.176624 93.823377 10 64 10C 34.176624 10 10 34.176624 10 64"/>
      </g>
    </g>
  </g>
  <g id="g-root-ic_ufo_8xs0k71ccgi69-stroke-fill" data-item-order="-5184" transform="translate(116, 152)">
    <g id="ic_ufo_8xs0k71ccgi69-fill" stroke="none" fill="#f4f4f4">
      <g>
        <path d="M 71.169998 54.220001C 70.739021 52.613091 69.087097 51.659706 67.480118 52.090443C 65.873138 52.521179 64.91951 54.172958 65.349998 55.779999L 71.709999 79.779999C 71.958755 80.847733 72.770149 81.694748 73.826225 81.98912C 74.882294 82.283501 76.014847 81.978363 76.780067 81.193268C 77.545303 80.40818 77.821335 79.268188 77.5 78.220001ZM 24.73 52C 23.131586 51.580826 21.495165 52.533169 21.07 54.130001L 14.71 78.129997C 14.388667 79.178185 14.664699 80.318176 15.429929 81.103271C 16.19516 81.888359 17.327707 82.193504 18.38378 81.899124C 19.43985 81.604752 20.25124 80.757736 20.5 79.690002L 26.860001 55.689999C 27.070423 54.918098 26.963797 54.094124 26.56382 53.401207C 26.163847 52.708294 25.503662 52.203854 24.73 52ZM 52 69.790001C 53.805183 69.622574 55.185844 68.107933 55.185844 66.294998C 55.185844 64.482071 53.805183 62.967422 52 62.800003L 41.619999 62.800003C 39.814819 62.967422 38.434151 64.482071 38.434151 66.294998C 38.434151 68.107933 39.814819 69.622574 41.619999 69.790001L 43.360001 69.790001L 43.360001 70.270004L 38.800003 76.449997C 37.656769 77.999161 37.985844 80.181778 39.535 81.325005C 41.08416 82.468231 43.266769 82.13916 44.41 80.590004L 46.900002 77.229996L 49.300003 80.620003C 50.468086 82.194016 52.69099 82.523087 54.265003 81.355003C 55.839012 80.18692 56.168083 77.964012 55.000004 76.389999L 50.5 70.239998L 50.5 69.790001ZM 52 55.360001C 52.01215 53.233887 50.740761 51.31036 48.779964 50.488297C 46.819168 49.666237 44.556145 50.107967 43.048428 51.607071C 41.54071 53.106171 41.086018 55.366623 41.896828 57.3321C 42.707642 59.297577 44.623856 60.579967 46.750004 60.580002C 48.139618 60.587982 49.475067 60.04155 50.460506 59.061745C 51.445942 58.08194 52.000023 56.749645 52 55.360001ZM 80.440002 38.5C 80.884872 38.504616 81.310562 38.319061 81.610001 37.989998C 81.915115 37.670658 82.04895 37.224564 81.970001 36.790001C 80.934891 30.76601 75.661407 26.396915 69.550003 26.500002L 22.450001 26.5C 16.327318 26.381939 11.036798 30.754585 10 36.790001C 9.921053 37.224564 10.054882 37.670658 10.36 37.989998C 10.659431 38.319061 11.085118 38.504616 11.53 38.499996L 14.92 38.5C 15.226473 38.503979 15.499686 38.694038 15.61 38.98C 15.84932 39.583565 16.11968 40.174355 16.42 40.750004C 19.098055 45.83226 24.370319 49.013535 30.115 49.013535C 35.85968 49.013535 41.131947 45.83226 43.809998 40.75C 44.110321 40.174355 44.38068 39.583565 44.620003 38.980003C 44.723045 38.688419 45.000782 38.495209 45.309998 38.499996L 46.689999 38.5C 46.999214 38.495209 47.276947 38.688419 47.379997 38.98C 47.619324 39.583565 47.889683 40.174355 48.190002 40.750004C 50.868053 45.83226 56.14032 49.013535 61.885002 49.013535C 67.629677 49.013535 72.901947 45.83226 75.580002 40.75C 75.880325 40.174355 76.150681 39.583565 76.389999 38.980003C 76.493042 38.688419 76.770775 38.495209 77.079994 38.499996ZM 30.099998 43C 27.354679 42.974945 24.748842 41.786507 22.93 39.73C 22.784166 39.490448 22.784166 39.189548 22.93 38.949997C 23.029867 38.71188 23.245205 38.541878 23.5 38.5L 36.699997 38.5C 36.999165 38.498959 37.270336 38.675812 37.389999 38.949997C 37.551052 39.185059 37.551052 39.494942 37.389999 39.73C 35.550568 41.827469 32.889702 43.021023 30.1 43ZM 61.899998 43C 59.152153 42.986397 56.541855 41.795929 54.73 39.73C 54.568947 39.494942 54.568947 39.185059 54.73 38.949997C 54.849663 38.675812 55.120834 38.498959 55.420002 38.5L 68.620003 38.5C 68.908226 38.510616 69.164825 38.68557 69.279999 38.949997C 69.441055 39.185059 69.441055 39.494942 69.279999 39.73C 67.420036 41.851517 64.721001 43.047432 61.900002 43ZM 46 10C 37.716183 9.922821 29.944408 14.000186 25.299999 20.860001C 25.182198 21.096123 25.182198 21.373877 25.299999 21.610001C 25.436529 21.846601 25.686884 21.994539 25.959999 22L 66.25 22C 66.554878 22.028484 66.848221 21.875944 66.999992 21.609999C 67.117798 21.373877 67.117798 21.096123 67 20.860001C 62.296993 13.910316 54.389534 9.82103 45.999996 10Z"/>
      </g>
    </g>
  </g>
  <g id="g-root-ic_ball_zk2k7r1cchvk2-stroke-fill" data-item-order="-5184" transform="translate(440, 152)">
    <g id="ic_ball_zk2k7r1cchvk2-fill" stroke="none" fill="#f4f4f4">
      <g>
        <path d="M 66.190002 13.57L 32.560001 13.57C 27.589714 13.574615 22.915562 15.933949 19.960001 19.93C 19.772573 20.179901 19.449883 20.287466 19.15 20.200001L 15.190001 19C 14.066817 18.529362 12.782474 18.65329 11.77 19.33C 10.75354 19.999464 10.1181 21.114269 10.06 22.329998L 10.06 36.099998C 10.057691 37.303738 10.633375 38.43541 11.607652 39.142353C 12.581928 39.849297 13.83635 40.04557 14.98 39.670002L 19.15 38.470001C 19.449883 38.382534 19.772573 38.490097 19.959999 38.739998C 22.918728 42.728497 27.593899 45.077213 32.559998 45.07L 36.34 45.07C 36.665188 45.065918 36.955956 45.271873 37.060001 45.579998L 39.099998 51.760002C 39.748978 53.568672 41.468452 54.771103 43.389999 54.760002L 54.73 54.760002C 56.643391 54.76738 58.352215 53.56398 58.989998 51.760002L 61 45.579998C 61.111546 45.277546 61.397667 45.074879 61.720001 45.07L 66.159996 45.07C 74.85849 45.07 81.910004 38.018486 81.910004 29.32C 81.910004 20.621515 74.85849 13.570001 66.160004 13.570001ZM 54.550003 46L 53.800003 48.25C 53.699558 48.547768 53.424133 48.751343 53.110001 48.760002L 45.010002 48.760002C 44.684811 48.764084 44.394043 48.558125 44.290001 48.25L 43.540001 46C 43.437996 45.791824 43.437996 45.548176 43.540001 45.34C 43.667458 45.131519 43.895676 45.005997 44.139999 45.010002L 53.739998 45.010002C 53.977966 45.016499 54.198715 45.135578 54.334831 45.330875C 54.470947 45.526176 54.506264 45.774494 54.43 46ZM 40.389999 61.18C 38.080658 57.435555 33.989277 55.162567 29.59 55.18C 23.896639 55.215473 18.909927 59.004395 17.35 64.479996C 15.709929 64.93792 14.2131 65.805038 13 66.999992C 11.118143 68.819084 10.038549 71.312943 10 73.93C 10 76.415283 12.014719 78.430008 14.5 78.430008L 49 78.43C 51.485283 78.430008 53.5 76.415283 53.5 73.930008C 53.493069 70.487778 52.097855 67.193901 49.630188 64.794006C 47.162521 62.394096 43.831078 61.09111 40.389999 61.18ZM 47.02 72.100006C 46.872101 72.301239 46.639645 72.423004 46.389999 72.430008L 17.68 72.43C 17.40259 72.436356 17.150829 72.268517 17.049999 72.010002C 16.884981 71.787231 16.884981 71.482765 17.049999 71.260002C 17.745771 70.554863 18.699499 70.164696 19.690001 70.180008L 20.110001 70.18C 21.537609 70.011337 22.644924 68.853691 22.75 67.419998C 23.005039 64.30014 25.380417 61.769569 28.477915 61.317856C 31.575417 60.866135 34.574574 62.612919 35.709999 65.529999C 36.209225 66.81633 37.521492 67.596268 38.889999 67.419998L 39.189999 67.419998C 39.682053 67.309273 40.185764 67.258896 40.689999 67.270004C 43.432095 67.265762 45.901714 68.928001 46.93 71.470001C 47.060833 71.652802 47.094414 71.887878 47.02 72.100006Z"/>
      </g>
    </g>
  </g>
  <g id="g-root-tx_relieson_18fpkgn1ccgglp-stroke-fill" data-item-order="0" transform="translate(368, 290)">
    <g id="tx_relieson_18fpkgn1ccgglp-fill" stroke="none" fill="#dffff0">
      <g>
        <text style="font: 20px Roboto, sans-serif; white-space: pre;" font-size="20px" font-family="Roboto, sans-serif">
          <tspan x="43.21" y="34" dominant-baseline="ideographic">Relies on known </tspan>
          <tspan x="15.79" y="58" dominant-baseline="ideographic">phenomena or military </tspan>
          <tspan x="93.35" y="82" dominant-baseline="ideographic">tests</tspan>
        </text>
      </g>
    </g>
  </g>
  <g id="g-root-tx_conventi_v4923b1ccgi6m-stroke-fill" data-item-order="0" transform="translate(350, 254)">
    <g id="tx_conventi_v4923b1ccgi6m-fill" stroke="none" fill="#43dd93">
      <g>
        <text style="font: bold 20px Roboto, sans-serif; white-space: pre;" font-weight="bold" font-size="20px" font-family="Roboto, sans-serif">
          <tspan x="16.73" y="34" dominant-baseline="ideographic">Conventional Explanations</tspan>
        </text>
      </g>
    </g>
  </g>
  <g id="g-root-tx_supports_htf0t31ccgglr-stroke-fill" data-item-order="0" transform="translate(26, 290)">
    <g id="tx_supports_htf0t31ccgglr-fill" stroke="none" fill="#ebf2ff">
      <g>
        <text style="font: 20px Roboto, sans-serif; white-space: pre;" font-size="20px" font-family="Roboto, sans-serif">
          <tspan x="14.32" y="34" dominant-baseline="ideographic">Supports extraterrestrial or </tspan>
          <tspan x="41.8" y="58" dominant-baseline="ideographic">unknown technology</tspan>
        </text>
      </g>
    </g>
  </g>
  <g id="g-root-tx_ufosight_ddlion1ccghe0-stroke-fill" data-item-order="0" transform="translate(86, 254)">
    <g id="tx_ufosight_ddlion1ccghe0-fill" stroke="none" fill="#4f91fc">
      <g>
        <text style="font: bold 20px Roboto, sans-serif; white-space: pre;" font-weight="bold" font-size="20px" font-family="Roboto, sans-serif">
          <tspan x="17.07" y="34" dominant-baseline="ideographic">UFO Sighting</tspan>
        </text>
      </g>
    </g>
  </g>
  <g id="g-root-ic_ligh_1haq6s71cbwsnf-stroke-fill" data-item-order="0" transform="translate(278, 152)">
    <g id="ic_ligh_1haq6s71cbwsnf-stroke" fill="none" stroke-linecap="round" stroke-linejoin="round" stroke-miterlimit="4" stroke="#f4f4f4" stroke-width="2">
      <g>
        <path d="M 43.7155 60.25L 41.78965 75.448456C 41.6017 76.932404 43.444153 77.732651 44.395 76.57795C 47.01955 73.3909 50.811699 68.769402 54.856899 63.833954M 69.831848 45.546398C 71.379852 43.654751 72.706451 42.033249 73.705299 40.812103C 74.506447 39.832748 73.809097 38.36335 72.543854 38.36335L 69.158348 38.36335M 25.079649 52.911999L 19.49548 52.911999C 18.223511 52.911999 17.52829 51.428951 18.342926 50.452148L 22.779266 45.132549M 35.112999 30.346449C 39.87685 24.636566 44.504349 19.091724 47.564949 15.428576C 48.525852 14.278646 50.384201 15.095304 50.190849 16.581249L 48.589302 28.888599M 40.897453 54.801849L 46.692249 35.308601C 46.978149 34.346951 46.257702 33.3811 45.254501 33.3811L 42.439301 33.3811C 41.771049 33.3811 41.18335 33.823151 40.9981 34.465149L 36.3946 50.412849C 36.289299 50.77795 35.77 50.772701 35.67205 50.405647L 31.4233 34.494099C 31.2481 33.8377 30.6535 33.3811 29.97415 33.3811L 26.994999 33.3811C 25.99645 33.3811 25.276749 34.338249 25.553949 35.297501L 31.17985 54.7687C 31.7362 56.694099 33.498852 58.019501 35.503002 58.019501L 36.584049 58.019501C 38.575451 58.019501 40.329998 56.710602 40.897453 54.801849ZM 55.995251 52.8979C 54.671501 52.8979 53.315948 52.649349 52.157799 52.296249C 51.212952 52.008099 50.137451 52.530552 49.935249 53.497299L 49.494553 55.60405C 49.356548 56.263451 49.675148 56.93755 50.312199 57.156551C 51.677353 57.6259 53.664398 58.020248 55.7164 58.020248C 62.197296 58.020248 65.500153 54.6562 65.500153 50.398453C 65.500153 47.324951 63.797348 44.9491 59.738503 43.285149C 56.776901 42.0355 55.727348 41.490551 55.727348 40.328049C 55.727348 39.259899 56.758598 38.467899 58.703651 38.467899C 59.83075 38.467899 60.802898 38.636799 61.608551 38.862099C 62.52655 39.118752 63.545498 38.638149 63.765404 37.710701L 64.243744 35.694248C 64.408752 34.998253 64.061646 34.273598 63.381096 34.053402C 62.162048 33.658901 60.618248 33.381851 58.743996 33.381851C 52.776852 33.381851 49.470402 36.687851 49.470402 40.843899C 49.470402 43.873749 51.5695 46.227848 55.602547 47.924351C 58.15675 48.945248 59.221001 49.66465 59.221001 50.874397C 59.221001 52.084152 58.112801 52.8979 55.995251 52.8979Z"/>
      </g>
    </g>
  </g>
  <g id="g-root-tx_determin_hu1l1z1cbzmdp-stroke-fill" data-item-order="0" transform="translate(44, 50)">
    <g id="tx_determin_hu1l1z1cbzmdp-fill" stroke="none" fill="#f4f4f4">
      <g>
        <text style="font: 20px Roboto, sans-serif; white-space: pre;" font-size="20px" font-family="Roboto, sans-serif">
          <tspan x="15.22" y="34" dominant-baseline="ideographic">Determine the most plausible explanation for the 1949 UFO </tspan>
          <tspan x="241.95" y="58" dominant-baseline="ideographic">sighting</tspan>
        </text>
      </g>
    </g>
  </g>
</svg>
