<?xml version='1.0' encoding='utf-8'?>
<svg xmlns="http://www.w3.org/2000/svg" xmlns:xlink="http://www.w3.org/1999/xlink" width="816" height="636" viewBox="0 0 816 636" style="fill:none;stroke:none;fill-rule:evenodd;clip-rule:evenodd;stroke-linecap:round;stroke-linejoin:round;stroke-miterlimit:1.5;" version="1.1">
  <style class="text-font-style fontImports" data-font-family="Roboto">@import url('https://fonts.googleapis.com/css2?family=Roboto:wght@400;700&amp;display=block');</style>
  <rect x="0" y="0" width="816" height="636" fill="#252a34" stroke="none" id="programmatic_background"/>
  <g id="g-root-tf_90wdu01aog54z-stroke-fill" data-item-order="-477360" transform="translate(18, 12)"/>
  <g id="g-root-sy_-1_cu_1cvj2fc1aog2dc-stroke-fill" data-item-order="-316218" transform="translate(32, 265.00390625)">
    <g id="sy_-1_cu_1cvj2fc1aog2dc-fill" stroke="none" fill="none">
      <g>
        <path d="M 10.001 143L 10 47L 67 47L 70 59L 322 59L 319 47L 367 47L 370 59L 622 59L 619 47L 646 47L 646 10L 742 95L 646.002 180L 646 143L 619 143L 622 131L 370 131L 367 143L 319.001 143L 322.001 131L 70.001 131L 67.001 143L 10.001 143Z"/>
      </g>
    </g>
    <g id="sy_-1_cu_1cvj2fc1aog2dc-stroke" fill="none" stroke-linecap="round" stroke-linejoin="round" stroke-miterlimit="4" stroke="#f4f4f4" stroke-width="2">
      <g>
        <path d="M 10.001 143L 10 47L 67 47L 70 59L 322 59L 319 47L 367 47L 370 59L 622 59L 619 47L 646 47L 646 10L 742 95L 646.0017 180L 646 143L 619 143L 622 131L 370 131L 367 143L 319.001 143L 322.001 131L 70.001 131L 67.001 143L 10.001 143Z"/>
      </g>
    </g>
  </g>
  <g id="g-root-sy_4_cu_13zw26g1aog361-stroke-fill" data-item-order="-316214" transform="translate(347, 386)">
    <g id="sy_4_cu_13zw26g1aog361-fill" stroke="none" fill="none">
      <g>
        <path d="M 307 10L 295 58L 43 58L 55 10L 307 10ZM 291.992188 70L 279.992188 118L 27.992188 118L 39.992188 70L 291.992188 70ZM 277 130L 25 130L 10 190L 262 190L 277 130Z"/>
      </g>
    </g>
    <g id="sy_4_cu_13zw26g1aog361-stroke" fill="none" stroke-linecap="round" stroke-linejoin="round" stroke-miterlimit="4" stroke="#cb68f9" stroke-width="2">
      <g>
        <path d="M 307 10L 295 58L 43 58L 55 10L 307 10ZM 291.992188 70L 279.992188 118L 27.992188 118L 39.992188 70L 291.992188 70ZM 277 130L 25 130L 10 190L 262 190L 277 130Z"/>
      </g>
    </g>
  </g>
  <g id="g-root-sy_3_cu_qofjt41aog4qy-stroke-fill" data-item-order="-316210" transform="translate(347, 134)">
    <g id="sy_3_cu_qofjt41aog4qy-fill" stroke="none" fill="none">
      <g>
        <path d="M 307 190L 295 142L 43 142L 55 190L 307 190ZM 291.992188 130L 279.992188 82L 27.992188 82L 39.992188 130L 291.992188 130ZM 277 70L 25 70L 10 10L 262 10L 277 70Z"/>
      </g>
    </g>
    <g id="sy_3_cu_qofjt41aog4qy-stroke" fill="none" stroke-linecap="round" stroke-linejoin="round" stroke-miterlimit="4" stroke="#ffe711" stroke-width="2">
      <g>
        <path d="M 307 190L 295 142L 43 142L 55 190L 307 190ZM 291.992188 130L 279.992188 82L 27.992188 82L 39.992188 130L 291.992188 130ZM 277 70L 25 70L 10 10L 262 10L 277 70Z"/>
      </g>
    </g>
  </g>
  <g id="g-root-sy_2_cu_m98irs1aog2df-stroke-fill" data-item-order="-316206" transform="translate(47, 386)">
    <g id="sy_2_cu_m98irs1aog2df-fill" stroke="none" fill="none">
      <g>
        <path d="M 307.000977 10L 295.000977 58L 43.000977 58L 55.000977 10L 307.000977 10ZM 291.993164 70L 279.993164 118L 27.993164 118L 39.993164 70L 291.993164 70ZM 277.001 130L 25.001 130L 10 190L 262 190L 277.001 130Z"/>
      </g>
    </g>
    <g id="sy_2_cu_m98irs1aog2df-stroke" fill="none" stroke-linecap="round" stroke-linejoin="round" stroke-miterlimit="4" stroke="#f79438" stroke-width="2">
      <g>
        <path d="M 307.000977 10L 295.000977 58L 43.000977 58L 55.000977 10L 307.000977 10ZM 291.993164 70L 279.993164 118L 27.993164 118L 39.993164 70L 291.993164 70ZM 277.001 130L 25.001 130L 10 190L 262 190L 277.001 130Z"/>
      </g>
    </g>
  </g>
  <g id="g-root-sy_1_cu_ddliiw1aog364-stroke-fill" data-item-order="-316202" transform="translate(47, 134)">
    <g id="sy_1_cu_ddliiw1aog364-fill" stroke="none" fill="none">
      <g>
        <path d="M 307 190L 295 142L 43 142L 55 190L 307 190ZM 291.992188 130L 279.992188 82L 27.992188 82L 39.992188 130L 291.992188 130ZM 277 70L 25 70L 10 10L 262 10L 277 70Z"/>
      </g>
    </g>
    <g id="sy_1_cu_ddliiw1aog364-stroke" fill="none" stroke-linecap="round" stroke-linejoin="round" stroke-miterlimit="4" stroke="#43dd93" stroke-width="2">
      <g>
        <path d="M 307 190L 295 142L 43 142L 55 190L 307 190ZM 291.992188 130L 279.992188 82L 27.992188 82L 39.992188 130L 291.992188 130ZM 277 70L 25 70L 10 10L 262 10L 277 70Z"/>
      </g>
    </g>
  </g>
  <g id="g-root-tx_unraveli_8xs0eg1aog3yd-stroke-fill" data-item-order="0" transform="translate(68, 332)">
    <g id="tx_unraveli_8xs0eg1aog3yd-fill" stroke="none" fill="#4f91fc">
      <g>
        <text style="font: bold 25px Roboto, sans-serif; white-space: pre;" font-weight="bold" font-size="25px" font-family="Roboto, sans-serif">
          <tspan x="20.95" y="43" dominant-baseline="ideographic">Unraveling the Mystery of the Cisco Grove UFO Incident</tspan>
        </text>
      </g>
    </g>
  </g>
  <g id="g-root-tx_humanoid_1unfk081aog5c6-stroke-fill" data-item-order="0" transform="translate(404, 398)">
    <g id="tx_humanoid_1unfk081aog5c6-fill" stroke="none" fill="#cb68f9">
      <g>
        <text style="font: 15px Roboto, sans-serif; white-space: pre;" font-size="15px" font-family="Roboto, sans-serif">
          <tspan x="22.13" y="31" dominant-baseline="ideographic">Humanoid and Robotic Beings</tspan>
        </text>
      </g>
    </g>
  </g>
  <g id="g-root-tx_prolonge_1hcliq01aog3rb-stroke-fill" data-item-order="0" transform="translate(461, 458)">
    <g id="tx_prolonge_1hcliq01aog3rb-fill" stroke="none" fill="#cb68f9">
      <g>
        <text style="font: 15px Roboto, sans-serif; white-space: pre;" font-size="15px" font-family="Roboto, sans-serif">
          <tspan x="12.28" y="31" dominant-baseline="ideographic">Prolonged Encounter</tspan>
        </text>
      </g>
    </g>
  </g>
  <g id="g-root-tx_uniqueel_1cws0lk1aog4jk-stroke-fill" data-item-order="0" transform="translate(434, 524)">
    <g id="tx_uniqueel_1cws0lk1aog4jk-fill" stroke="none" fill="#cb68f9">
      <g>
        <text style="font: bold 20px Roboto, sans-serif; white-space: pre;" font-weight="bold" font-size="20px" font-family="Roboto, sans-serif">
          <tspan x="12.33" y="34" dominant-baseline="ideographic">Unique Elements</tspan>
        </text>
      </g>
    </g>
  </g>
  <g id="g-root-tx_environm_14150co1aog5c9-stroke-fill" data-item-order="0" transform="translate(440, 278)">
    <g id="tx_environm_14150co1aog5c9-fill" stroke="none" fill="#ffe711">
      <g>
        <text style="font: 15px Roboto, sans-serif; white-space: pre;" font-size="15px" font-family="Roboto, sans-serif">
          <tspan x="16.83" y="31" dominant-baseline="ideographic">Environmental Conditions</tspan>
        </text>
      </g>
    </g>
  </g>
  <g id="g-root-tx_psycholo_zlxzbc1aog2yq-stroke-fill" data-item-order="0" transform="translate(461, 218)">
    <g id="tx_psycholo_zlxzbc1aog2yq-fill" stroke="none" fill="#ffe711">
      <g>
        <text style="font: 15px Roboto, sans-serif; white-space: pre;" font-size="15px" font-family="Roboto, sans-serif">
          <tspan x="13.27" y="31" dominant-baseline="ideographic">Psychological Stress</tspan>
        </text>
      </g>
    </g>
  </g>
  <g id="g-root-tx_alternat_qqaz2g1aog3rf-stroke-fill" data-item-order="0" transform="translate(470, 140)">
    <g id="tx_alternat_qqaz2g1aog3rf-fill" stroke="none" fill="#ffe711">
      <g>
        <text style="font: bold 20px Roboto, sans-serif; white-space: pre;" font-weight="bold" font-size="20px" font-family="Roboto, sans-serif">
          <tspan x="29.59" y="34" dominant-baseline="ideographic">Alternative </tspan>
          <tspan x="12.58" y="58" dominant-baseline="ideographic">Explanations</tspan>
        </text>
      </g>
    </g>
  </g>
  <g id="g-root-tx_lackofph_deugp41aog5cc-stroke-fill" data-item-order="0" transform="translate(140, 398)">
    <g id="tx_lackofph_deugp41aog5cc-fill" stroke="none" fill="#f79438">
      <g>
        <text style="font: 15px Roboto, sans-serif; white-space: pre;" font-size="15px" font-family="Roboto, sans-serif">
          <tspan x="15.75" y="31" dominant-baseline="ideographic">Lack of Physical Evidence</tspan>
        </text>
      </g>
    </g>
  </g>
  <g id="g-root-tx_official_8znfns1aog2yt-stroke-fill" data-item-order="0" transform="translate(185, 458)">
    <g id="tx_official_8znfns1aog2yt-fill" stroke="none" fill="#f79438">
      <g>
        <text style="font: 15px Roboto, sans-serif; white-space: pre;" font-size="15px" font-family="Roboto, sans-serif">
          <tspan x="12.52" y="31" dominant-baseline="ideographic">Official Dismissal</tspan>
        </text>
      </g>
    </g>
  </g>
  <g id="g-root-tx_investig_1upaz9k1aog4cm-stroke-fill" data-item-order="0" transform="translate(158, 512)">
    <g id="tx_investig_1upaz9k1aog4cm-fill" stroke="none" fill="#f79438">
      <g>
        <text style="font: bold 20px Roboto, sans-serif; white-space: pre;" font-weight="bold" font-size="20px" font-family="Roboto, sans-serif">
          <tspan x="23.11" y="34" dominant-baseline="ideographic">Investigation </tspan>
          <tspan x="39.91" y="58" dominant-baseline="ideographic">Challenges</tspan>
        </text>
      </g>
    </g>
  </g>
  <g id="g-root-tx_emotiona_1ltnz0o1aog55b-stroke-fill" data-item-order="0" transform="translate(173, 218)">
    <g id="tx_emotiona_1ltnz0o1aog55b-fill" stroke="none" fill="#43dd93">
      <g>
        <text style="font: 15px Roboto, sans-serif; white-space: pre;" font-size="15px" font-family="Roboto, sans-serif">
          <tspan x="22.27" y="31" dominant-baseline="ideographic">Emotional Impact</tspan>
        </text>
      </g>
    </g>
  </g>
  <g id="g-root-tx_donaldsh_1cynfuw1aog3k0-stroke-fill" data-item-order="0" transform="translate(128, 278)">
    <g id="tx_donaldsh_1cynfuw1aog3k0-fill" stroke="none" fill="#43dd93">
      <g>
        <text style="font: 15px Roboto, sans-serif; white-space: pre;" font-size="15px" font-family="Roboto, sans-serif">
          <tspan x="13.17" y="31" dominant-baseline="ideographic">Donald Shrum's Background</tspan>
        </text>
      </g>
    </g>
  </g>
  <g id="g-root-tx_witnessc_1430fm01aog4cp-stroke-fill" data-item-order="0" transform="translate(110, 152)">
    <g id="tx_witnessc_1430fm01aog4cp-fill" stroke="none" fill="#43dd93">
      <g>
        <text style="font: bold 20px Roboto, sans-serif; white-space: pre;" font-weight="bold" font-size="20px" font-family="Roboto, sans-serif">
          <tspan x="19.36" y="34" dominant-baseline="ideographic">Witness Credibility</tspan>
        </text>
      </g>
    </g>
  </g>
  <g id="g-root-tx_analyzin_zn6xhk1aog54y-stroke-fill" data-item-order="0" transform="translate(212, 50)">
    <g id="tx_analyzin_zn6xhk1aog54y-fill" stroke="none" fill="#f4f4f4">
      <g>
        <text style="font: bold 20px Roboto, sans-serif; white-space: pre;" font-weight="bold" font-size="20px" font-family="Roboto, sans-serif">
          <tspan x="12.07" y="34" dominant-baseline="ideographic">Analyzing the Cisco Grove UFO Incident</tspan>
        </text>
      </g>
    </g>
    <defs>
      <pattern id="crawlingPattern-0060fba2" x="0" y="0" width="12" height="12" patternUnits="userSpaceOnUse" fill="#0060fba2">
        <use href="#crawlingSymbol"/>
      </pattern>
      <symbol id="crawlingSymbol">
        <g>
          <path d="M -12.5 12.5 l 13 -13 l 6 0 l -13 13 Z M -0.5 12.5 l 13 -13 l 6 0 l -13 13 Z M 11.5 12.5 l 13 -13 l 6 0 l -13 13 Z"/>
        </g>
      </symbol>
      <pattern id="crawlingPattern-a700f578" x="0" y="0" width="12" height="12" patternUnits="userSpaceOnUse" fill="#a700f578">
        <use href="#crawlingSymbol"/>
      </pattern>
      <pattern id="crawlingPattern-ddc700ff" x="0" y="0" width="12" height="12" patternUnits="userSpaceOnUse" fill="#ddc700ff">
        <use href="#crawlingSymbol"/>
      </pattern>
      <pattern id="crawlingPattern-f17400d3" x="0" y="0" width="12" height="12" patternUnits="userSpaceOnUse" fill="#f17400d3">
        <use href="#crawlingSymbol"/>
      </pattern>
      <pattern id="crawlingPattern-00b15c75" x="0" y="0" width="12" height="12" patternUnits="userSpaceOnUse" fill="#00b15c75">
        <use href="#crawlingSymbol"/>
      </pattern>
      <pattern id="crawlingPattern-0000001b" x="0" y="0" width="12" height="12" patternUnits="userSpaceOnUse" fill="#0000001b">
        <use href="#crawlingSymbol"/>
      </pattern>
    </defs>
  </g>
</svg>
