<?xml version='1.0' encoding='utf-8'?>
<svg xmlns="http://www.w3.org/2000/svg" xmlns:xlink="http://www.w3.org/1999/xlink" width="384" height="504" viewBox="0 0 384 504" style="fill:none;stroke:none;fill-rule:evenodd;clip-rule:evenodd;stroke-linecap:round;stroke-linejoin:round;stroke-miterlimit:1.5;" version="1.1">
  <style class="text-font-style fontImports" data-font-family="Roboto">@import url('https://fonts.googleapis.com/css2?family=Roboto:wght@400;700&amp;display=block');</style>
  <rect x="0" y="0" width="384" height="504" fill="#252a34" stroke="none" id="programmatic_background"/>
  <g id="g-root-tf_1upwr2w18q23gt-stroke-fill" data-item-order="-167040" transform="translate(18, 12)"/>
  <g id="g-root-cp_1_column-1_1cvid5k18q24na-stroke-fill" data-item-order="-115190" transform="translate(59, 143)">
    <g id="cp_1_column-1_1cvid5k18q24na-fill" stroke="none" fill="none">
      <g>
        <path d="M 10 13C 10 14.656854 11.343146 16 13 16C 14.656854 16 16 14.656854 16 13C 16 11.343146 14.656854 10 13 10C 11.343146 10 10 11.343146 10 13"/>
      </g>
    </g>
    <g id="cp_1_column-1_1cvid5k18q24na-stroke" fill="none" stroke-linecap="round" stroke-linejoin="round" stroke-miterlimit="4" stroke="#4f91fc" stroke-width="2">
      <g>
        <path d="M 10 13C 10 14.656854 11.343146 16 13 16C 14.656854 16 16 14.656854 16 13C 16 11.343146 14.656854 10 13 10C 11.343146 10 10 11.343146 10 13"/>
      </g>
    </g>
    <g id="cp_1_column-1_1cvid5k18q24na-stroke" fill="none" stroke-linecap="round" stroke-linejoin="round" stroke-miterlimit="4" stroke="#4f91fc" stroke-width="2">
      <g>
        <path d="M 13 16L 13 94"/>
      </g>
    </g>
    <g id="cp_1_column-1_1cvid5k18q24na-fill" stroke="none" fill="none">
      <g>
        <path d="M 10 97C 10 98.656854 11.343146 100 13 100C 14.656854 100 16 98.656854 16 97C 16 95.343146 14.656854 94 13 94C 11.343146 94 10 95.343146 10 97"/>
      </g>
    </g>
    <g id="cp_1_column-1_1cvid5k18q24na-stroke" fill="none" stroke-linecap="round" stroke-linejoin="round" stroke-miterlimit="4" stroke="#4f91fc" stroke-width="2">
      <g>
        <path d="M 10 97C 10 98.656854 11.343146 100 13 100C 14.656854 100 16 98.656854 16 97C 16 95.343146 14.656854 94 13 94C 11.343146 94 10 95.343146 10 97"/>
      </g>
    </g>
  </g>
  <g id="g-root-cp_1_g-1_18gbc4818q229s-stroke-fill" data-item-order="-115174" transform="translate(62, 242)">
    <g id="cp_1_g-1_18gbc4818q229s-fill" stroke="none" fill="none">
      <g>
        <path d="M 76 10L 10 10L 28 46L 10 82L 76 82L 94 46L 76 10Z"/>
      </g>
    </g>
    <g id="cp_1_g-1_18gbc4818q229s-stroke" fill="none" stroke-linecap="round" stroke-linejoin="round" stroke-miterlimit="4" stroke="#4f91fc" stroke-width="2">
      <g>
        <path d="M 76 10L 10 10L 28 46L 10 82L 76 82L 94 46L 76 10Z"/>
      </g>
    </g>
  </g>
  <g id="g-root-cp_2_g-2_zkobvc18q232i-stroke-fill" data-item-order="-115166" transform="translate(152, 242)">
    <g id="cp_2_g-2_zkobvc18q232i-fill" stroke="none" fill="none">
      <g>
        <path d="M 76 10L 10 10L 28 46L 10 82L 76 82L 94 46L 76 10Z"/>
      </g>
    </g>
    <g id="cp_2_g-2_zkobvc18q232i-stroke" fill="none" stroke-linecap="round" stroke-linejoin="round" stroke-miterlimit="4" stroke="#43dd93" stroke-width="2">
      <g>
        <path d="M 76 10L 10 10L 28 46L 10 82L 76 82L 94 46L 76 10Z"/>
      </g>
    </g>
  </g>
  <g id="g-root-cp_2_column-2_v4utqw18q23us-stroke-fill" data-item-order="-115158" transform="translate(149, 323)">
    <g id="cp_2_column-2_v4utqw18q23us-fill" stroke="none" fill="none">
      <g>
        <path d="M 10 13C 10 14.656854 11.343146 16 13 16C 14.656854 16 16 14.656854 16 13C 16 11.343146 14.656854 10 13 10C 11.343146 10 10 11.343146 10 13"/>
      </g>
    </g>
    <g id="cp_2_column-2_v4utqw18q23us-stroke" fill="none" stroke-linecap="round" stroke-linejoin="round" stroke-miterlimit="4" stroke="#43dd93" stroke-width="2">
      <g>
        <path d="M 10 13C 10 14.656854 11.343146 16 13 16C 14.656854 16 16 14.656854 16 13C 16 11.343146 14.656854 10 13 10C 11.343146 10 10 11.343146 10 13"/>
      </g>
    </g>
    <g id="cp_2_column-2_v4utqw18q23us-stroke" fill="none" stroke-linecap="round" stroke-linejoin="round" stroke-miterlimit="4" stroke="#43dd93" stroke-width="2">
      <g>
        <path d="M 13 16L 13 94"/>
      </g>
    </g>
    <g id="cp_2_column-2_v4utqw18q23us-fill" stroke="none" fill="none">
      <g>
        <path d="M 10 97C 10 98.656854 11.343146 100 13 100C 14.656854 100 16 98.656854 16 97C 16 95.343146 14.656854 94 13 94C 11.343146 94 10 95.343146 10 97"/>
      </g>
    </g>
    <g id="cp_2_column-2_v4utqw18q23us-stroke" fill="none" stroke-linecap="round" stroke-linejoin="round" stroke-miterlimit="4" stroke="#43dd93" stroke-width="2">
      <g>
        <path d="M 10 97C 10 98.656854 11.343146 100 13 100C 14.656854 100 16 98.656854 16 97C 16 95.343146 14.656854 94 13 94C 11.343146 94 10 95.343146 10 97"/>
      </g>
    </g>
  </g>
  <g id="g-root-tx_thecisco_m97ti018q24ni-stroke-fill" data-item-order="0" transform="translate(32, 50)">
    <g id="tx_thecisco_m97ti018q24ni-fill" stroke="none" fill="#f4f4f4">
      <g>
        <text style="font: 20px Roboto, sans-serif; white-space: pre;" font-size="20px" font-family="Roboto, sans-serif">
          <tspan x="14.24" y="34" dominant-baseline="ideographic">The Cisco Grove UFO Incident: A </tspan>
          <tspan x="75.85" y="58" dominant-baseline="ideographic">Timeline of Events</tspan>
        </text>
      </g>
    </g>
  </g>
  <g id="g-root-tx_1964_4ika3c18q23uv-stroke-fill" data-item-order="0" transform="translate(74, 146)">
    <g id="tx_1964_4ika3c18q23uv-fill" stroke="none" fill="#4f91fc">
      <g>
        <text style="font: bold 20px Roboto, sans-serif; white-space: pre;" font-weight="bold" font-size="20px" font-family="Roboto, sans-serif">
          <tspan x="12" y="34" dominant-baseline="ideographic">1964</tspan>
        </text>
      </g>
    </g>
  </g>
  <g id="g-root-tx_ciscogro_1q8uas818q222w-stroke-fill" data-item-order="0" transform="translate(74, 182)">
    <g id="tx_ciscogro_1q8uas818q222w-fill" stroke="none" fill="#f4f4f4">
      <g>
        <text style="font: 15px Roboto, sans-serif; white-space: pre;" font-size="15px" font-family="Roboto, sans-serif">
          <tspan x="12" y="28" dominant-baseline="ideographic">Cisco Grove Incident </tspan>
          <tspan x="12" y="46" dominant-baseline="ideographic">Occurs</tspan>
        </text>
      </g>
    </g>
  </g>
  <g id="g-root-tx_2024_1cxdsew18q23nt-stroke-fill" data-item-order="0" transform="translate(164, 338)">
    <g id="tx_2024_1cxdsew18q23nt-fill" stroke="none" fill="#43dd93">
      <g>
        <text style="font: bold 20px Roboto, sans-serif; white-space: pre;" font-weight="bold" font-size="20px" font-family="Roboto, sans-serif">
          <tspan x="12" y="34" dominant-baseline="ideographic">2024</tspan>
        </text>
      </g>
    </g>
  </g>
  <g id="g-root-tx_ciscogro_zmjr4o18q222y-stroke-fill" data-item-order="0" transform="translate(164, 374)">
    <g id="tx_ciscogro_zmjr4o18q222y-fill" stroke="none" fill="#f4f4f4">
      <g>
        <text style="font: 15px Roboto, sans-serif; white-space: pre;" font-size="15px" font-family="Roboto, sans-serif">
          <tspan x="12" y="28" dominant-baseline="ideographic">Cisco Grove Incident </tspan>
          <tspan x="12" y="46" dominant-baseline="ideographic">Featured on Spotify</tspan>
        </text>
      </g>
    </g>
    <defs>
      <pattern id="crawlingPattern-0000001b" x="0" y="0" width="12" height="12" patternUnits="userSpaceOnUse" fill="#0000001b">
        <use href="#crawlingSymbol"/>
      </pattern>
      <symbol id="crawlingSymbol">
        <g>
          <path d="M -12.5 12.5 l 13 -13 l 6 0 l -13 13 Z M -0.5 12.5 l 13 -13 l 6 0 l -13 13 Z M 11.5 12.5 l 13 -13 l 6 0 l -13 13 Z"/>
        </g>
      </symbol>
      <pattern id="crawlingPattern-0060fba2" x="0" y="0" width="12" height="12" patternUnits="userSpaceOnUse" fill="#0060fba2">
        <use href="#crawlingSymbol"/>
      </pattern>
      <pattern id="crawlingPattern-00b15c75" x="0" y="0" width="12" height="12" patternUnits="userSpaceOnUse" fill="#00b15c75">
        <use href="#crawlingSymbol"/>
      </pattern>
    </defs>
  </g>
</svg>
