<?xml version='1.0' encoding='utf-8'?>
<svg xmlns="http://www.w3.org/2000/svg" xmlns:xlink="http://www.w3.org/1999/xlink" width="672" height="432" viewBox="0 0 672 432" style="fill:none;stroke:none;fill-rule:evenodd;clip-rule:evenodd;stroke-linecap:round;stroke-linejoin:round;stroke-miterlimit:1.5;" version="1.1">
  <style class="text-font-style fontImports" data-font-family="Roboto">@import url('https://fonts.googleapis.com/css2?family=Roboto:wght@400;700&amp;display=block');</style>
  <rect x="0" y="0" width="672" height="432" fill="#252a34" stroke="none" id="programmatic_background"/>
  <g id="g-root-tf_1lr4xl41ay8mx8-stroke-fill" data-item-order="-264384" transform="translate(12, 12)">
    <g id="tf_1lr4xl41ay8mx8-fill" stroke="none" fill="#2c2c2c">
      <g>
        <path d="M 0 0L 648 0L 648 408L 0 408Z"/>
      </g>
    </g>
    <defs>
      <pattern id="crawlingPattern-00d16d21" x="0" y="0" width="12" height="12" patternUnits="userSpaceOnUse" fill="#00d16d21">
        <use href="#crawlingSymbol"/>
      </pattern>
      <symbol id="crawlingSymbol">
        <g>
          <path d="M -12.5 12.5 l 13 -13 l 6 0 l -13 13 Z M -0.5 12.5 l 13 -13 l 6 0 l -13 13 Z M 11.5 12.5 l 13 -13 l 6 0 l -13 13 Z"/>
        </g>
      </symbol>
      <pattern id="crawlingPattern-0060fb20" x="0" y="0" width="12" height="12" patternUnits="userSpaceOnUse" fill="#0060fb20">
        <use href="#crawlingSymbol"/>
      </pattern>
      <pattern id="crawlingPattern-00ff873a" x="0" y="0" width="12" height="12" patternUnits="userSpaceOnUse" fill="#00ff873a">
        <use href="#crawlingSymbol"/>
      </pattern>
      <pattern id="crawlingPattern-00b15c75" x="0" y="0" width="12" height="12" patternUnits="userSpaceOnUse" fill="#00b15c75">
        <use href="#crawlingSymbol"/>
      </pattern>
      <pattern id="crawlingPattern-0059ff37" x="0" y="0" width="12" height="12" patternUnits="userSpaceOnUse" fill="#0059ff37">
        <use href="#crawlingSymbol"/>
      </pattern>
      <pattern id="crawlingPattern-0060fba2" x="0" y="0" width="12" height="12" patternUnits="userSpaceOnUse" fill="#0060fba2">
        <use href="#crawlingSymbol"/>
      </pattern>
      <pattern id="crawlingPattern-c1c1c11a" x="0" y="0" width="12" height="12" patternUnits="userSpaceOnUse" fill="#c1c1c11a">
        <use href="#crawlingSymbol"/>
      </pattern>
      <pattern id="crawlingPattern-0000001b" x="0" y="0" width="12" height="12" patternUnits="userSpaceOnUse" fill="#0000001b">
        <use href="#crawlingSymbol"/>
      </pattern>
      <pattern id="crawlingPattern-5f5f5f1a" x="0" y="0" width="12" height="12" patternUnits="userSpaceOnUse" fill="#5f5f5f1a">
        <use href="#crawlingSymbol"/>
      </pattern>
    </defs>
  </g>
  <g id="g-root-cr_2_cr-2_1uuxfd41aoka2r-stroke-fill" data-item-order="-46650" transform="translate(433.99993896484375, 133.99998474121094)">
    <g id="cr_2_cr-2_1uuxfd41aoka2r-fill" stroke="none" fill="#43dd93">
      <g>
        <path d="M 10 64C 10 93.823377 34.176624 118 64 118C 93.823377 118 118 93.823377 118 64C 118 34.176624 93.823377 10 64 10C 34.176624 10 10 34.176624 10 64"/>
      </g>
    </g>
    <g id="cr_2_cr-2_1uuxfd41aoka2r-stroke" fill="none" stroke-linecap="round" stroke-linejoin="round" stroke-miterlimit="4" stroke="#2c2c2c" stroke-width="2">
      <g>
        <path d="M 10 64C 10 93.823377 34.176624 118 64 118C 93.823377 118 118 93.823377 118 64C 118 34.176624 93.823377 10 64 10C 34.176624 10 10 34.176624 10 64"/>
      </g>
    </g>
  </g>
  <g id="g-root-cr_1_cr-1_1lzaf481aokavg-stroke-fill" data-item-order="-46646" transform="translate(109.99996948242188, 134)">
    <g id="cr_1_cr-1_1lzaf481aokavg-fill" stroke="none" fill="#4f91fc">
      <g>
        <path d="M 10 64C 10 93.823377 34.176624 118 64 118C 93.823377 118 118 93.823377 118 64C 118 34.176624 93.823377 10 64 10C 34.176624 10 10 34.176624 10 64"/>
      </g>
    </g>
    <g id="cr_1_cr-1_1lzaf481aokavg-stroke" fill="none" stroke-linecap="round" stroke-linejoin="round" stroke-miterlimit="4" stroke="#2c2c2c" stroke-width="2">
      <g>
        <path d="M 10 64C 10 93.823377 34.176624 118 64 118C 93.823377 118 118 93.823377 118 64C 118 34.176624 93.823377 10 64 10C 34.176624 10 10 34.176624 10 64"/>
      </g>
    </g>
  </g>
  <g id="g-root-ic_ufo_8whx541axytq9-stroke-fill" data-item-order="-5184" transform="translate(128, 152)">
    <g id="ic_ufo_8whx541axytq9-fill" stroke="none" fill="#f4f4f4">
      <g>
        <path d="M 71.169998 54.220001C 70.739021 52.613091 69.087097 51.659706 67.480118 52.090443C 65.873138 52.521179 64.91951 54.172958 65.349998 55.779999L 71.709999 79.779999C 71.958755 80.847733 72.770149 81.694748 73.826225 81.98912C 74.882294 82.283501 76.014847 81.978363 76.780067 81.193268C 77.545303 80.40818 77.821335 79.268188 77.5 78.220001ZM 24.73 52C 23.131586 51.580826 21.495165 52.533169 21.07 54.130001L 14.71 78.129997C 14.388667 79.178185 14.664699 80.318176 15.429929 81.103271C 16.19516 81.888359 17.327707 82.193504 18.38378 81.899124C 19.43985 81.604752 20.25124 80.757736 20.5 79.690002L 26.860001 55.689999C 27.070423 54.918098 26.963797 54.094124 26.56382 53.401207C 26.163847 52.708294 25.503662 52.203854 24.73 52ZM 52 69.790001C 53.805183 69.622574 55.185844 68.107933 55.185844 66.294998C 55.185844 64.482071 53.805183 62.967422 52 62.800003L 41.619999 62.800003C 39.814819 62.967422 38.434151 64.482071 38.434151 66.294998C 38.434151 68.107933 39.814819 69.622574 41.619999 69.790001L 43.360001 69.790001L 43.360001 70.270004L 38.800003 76.449997C 37.656769 77.999161 37.985844 80.181778 39.535 81.325005C 41.08416 82.468231 43.266769 82.13916 44.41 80.590004L 46.900002 77.229996L 49.300003 80.620003C 50.468086 82.194016 52.69099 82.523087 54.265003 81.355003C 55.839012 80.18692 56.168083 77.964012 55.000004 76.389999L 50.5 70.239998L 50.5 69.790001ZM 52 55.360001C 52.01215 53.233887 50.740761 51.31036 48.779964 50.488297C 46.819168 49.666237 44.556145 50.107967 43.048428 51.607071C 41.54071 53.106171 41.086018 55.366623 41.896828 57.3321C 42.707642 59.297577 44.623856 60.579967 46.750004 60.580002C 48.139618 60.587982 49.475067 60.04155 50.460506 59.061745C 51.445942 58.08194 52.000023 56.749645 52 55.360001ZM 80.440002 38.5C 80.884872 38.504616 81.310562 38.319061 81.610001 37.989998C 81.915115 37.670658 82.04895 37.224564 81.970001 36.790001C 80.934891 30.76601 75.661407 26.396915 69.550003 26.500002L 22.450001 26.5C 16.327318 26.381939 11.036798 30.754585 10 36.790001C 9.921053 37.224564 10.054882 37.670658 10.36 37.989998C 10.659431 38.319061 11.085118 38.504616 11.53 38.499996L 14.92 38.5C 15.226473 38.503979 15.499686 38.694038 15.61 38.98C 15.84932 39.583565 16.11968 40.174355 16.42 40.750004C 19.098055 45.83226 24.370319 49.013535 30.115 49.013535C 35.85968 49.013535 41.131947 45.83226 43.809998 40.75C 44.110321 40.174355 44.38068 39.583565 44.620003 38.980003C 44.723045 38.688419 45.000782 38.495209 45.309998 38.499996L 46.689999 38.5C 46.999214 38.495209 47.276947 38.688419 47.379997 38.98C 47.619324 39.583565 47.889683 40.174355 48.190002 40.750004C 50.868053 45.83226 56.14032 49.013535 61.885002 49.013535C 67.629677 49.013535 72.901947 45.83226 75.580002 40.75C 75.880325 40.174355 76.150681 39.583565 76.389999 38.980003C 76.493042 38.688419 76.770775 38.495209 77.079994 38.499996ZM 30.099998 43C 27.354679 42.974945 24.748842 41.786507 22.93 39.73C 22.784166 39.490448 22.784166 39.189548 22.93 38.949997C 23.029867 38.71188 23.245205 38.541878 23.5 38.5L 36.699997 38.5C 36.999165 38.498959 37.270336 38.675812 37.389999 38.949997C 37.551052 39.185059 37.551052 39.494942 37.389999 39.73C 35.550568 41.827469 32.889702 43.021023 30.1 43ZM 61.899998 43C 59.152153 42.986397 56.541855 41.795929 54.73 39.73C 54.568947 39.494942 54.568947 39.185059 54.73 38.949997C 54.849663 38.675812 55.120834 38.498959 55.420002 38.5L 68.620003 38.5C 68.908226 38.510616 69.164825 38.68557 69.279999 38.949997C 69.441055 39.185059 69.441055 39.494942 69.279999 39.73C 67.420036 41.851517 64.721001 43.047432 61.900002 43ZM 46 10C 37.716183 9.922821 29.944408 14.000186 25.299999 20.860001C 25.182198 21.096123 25.182198 21.373877 25.299999 21.610001C 25.436529 21.846601 25.686884 21.994539 25.959999 22L 66.25 22C 66.554878 22.028484 66.848221 21.875944 66.999992 21.609999C 67.117798 21.373877 67.117798 21.096123 67 20.860001C 62.296993 13.910316 54.389534 9.82103 45.999996 10Z"/>
      </g>
    </g>
  </g>
  <g id="g-root-ic_wood_qvw3rc1ay4h6z-stroke-fill" data-item-order="-5184" transform="translate(452, 152)">
    <g id="ic_wood_qvw3rc1ay4h6z-fill" stroke="none" fill="#f4f4f4">
      <g>
        <path d="M 13 36.040001L 16.75 36.040001C 17.164213 36.040001 17.5 36.375786 17.5 36.790001L 17.5 39.25C 17.5 40.906857 18.843145 42.25 20.5 42.25C 22.156855 42.25 23.5 40.906857 23.5 39.25L 23.5 36.790001C 23.5 36.375786 23.835787 36.040001 24.25 36.040001L 28 36.040001C 29.41 36.040001 30.07 34 29.110001 32.830002L 26.200001 28.48C 26.167845 28.424307 26.167845 28.35569 26.199999 28.299999C 26.256958 28.272982 26.323042 28.272982 26.380001 28.299999C 27.73 28.84 29.200001 26.68 27.940001 25.299999L 24.219999 19.48C 24.187845 19.424307 24.187845 19.355692 24.219999 19.299999C 24.219999 19.299999 24.219999 19.299999 24.400002 19.299999C 25.809999 19.869999 27.400002 17.469999 25.809999 16.059999L 21.700001 10.6C 21.416718 10.222291 20.972136 10 20.5 10C 20.027864 10 19.583282 10.222291 19.299999 10.6L 15.190001 16C 13.75 17.41 15.190001 19.809999 16.6 19.24L 16.780001 19.24C 16.812153 19.295692 16.812153 19.364307 16.779999 19.42L 13 25C 11.74 26.5 13.21 28.66 14.559999 28C 14.616959 27.972982 14.683042 27.972982 14.74 28C 14.772154 28.055691 14.772154 28.124308 14.74 28.179998L 11.95 32.830002C 10.99 34 11.65 36.040001 13 36.040001ZM 64 36.040001L 67.690002 36.040001C 68.10421 36.040001 68.440002 36.375786 68.440002 36.790001L 68.440002 39.25C 68.440002 40.906857 69.783142 42.25 71.440002 42.25C 73.096855 42.25 74.440002 40.906857 74.440002 39.25L 74.440002 36.790001C 74.440002 36.375786 74.775787 36.040001 75.190002 36.040001L 79 36.040001C 80.409996 36.040001 81.07 34 80.110001 32.830002L 77.110001 28.48C 77.077843 28.424307 77.077843 28.35569 77.110001 28.299999C 77.166962 28.272982 77.233047 28.272982 77.290001 28.299999C 78.639999 28.84 80.110001 26.68 78.850006 25.299999L 75.220001 19.48C 75.187843 19.424307 75.187843 19.355692 75.219994 19.299999C 75.220001 19.299999 75.220001 19.299999 75.399994 19.299999C 76.809998 19.869999 78.25 17.469999 76.809998 16.059999L 72.699997 10.6C 72.416718 10.222291 71.972137 10 71.5 10C 71.027863 10 70.583282 10.222291 70.300003 10.6L 66.190002 16C 64.75 17.41 66.190002 19.809999 67.600006 19.24L 67.779999 19.24C 67.812149 19.295692 67.812149 19.364307 67.779999 19.42L 64 25C 62.739998 26.5 64.209999 28.66 65.559998 28C 65.616959 27.972982 65.683044 27.972982 65.739998 28C 65.772156 28.055691 65.772156 28.124308 65.73999 28.179998L 62.739998 32.529999C 61.989998 34 62.649998 36.040001 64 36.040001ZM 38.560001 36.040001L 42.25 36.040001C 42.664215 36.040001 43 36.375786 43 36.790001L 43 39.25C 43 40.906857 44.343143 42.25 46 42.25C 47.656857 42.25 49 40.906857 49 39.25L 49 36.790001C 49 36.375786 49.335785 36.040001 49.75 36.040001L 53.439999 36.040001C 54.849998 36.040001 55.510002 34 54.550003 32.830002L 51.699997 28.48C 51.667843 28.424307 51.667843 28.35569 51.699997 28.299999C 51.756958 28.272982 51.82304 28.272982 51.880001 28.299999C 53.23 28.84 54.699997 26.68 53.439999 25.299999L 49.720001 19.48C 49.687843 19.424307 49.687843 19.355692 49.719997 19.299999C 49.720001 19.299999 49.720001 19.299999 49.900002 19.299999C 51.310001 19.869999 52.75 17.469999 51.310001 16.059999L 47.199997 10.6C 46.916718 10.222291 46.472134 10 46 10C 45.527866 10 45.083282 10.222291 44.800003 10.6L 40.689999 16C 39.25 17.41 40.689999 19.809999 42.099998 19.24L 42.279999 19.24C 42.312153 19.295692 42.312153 19.364307 42.279999 19.42L 38.560001 25C 37.300003 26.5 38.77 28.66 40.119999 28C 40.176956 27.972982 40.243042 27.972982 40.300003 28C 40.332153 28.055691 40.332153 28.124308 40.299999 28.179998L 37.449997 32.830002C 36.489998 34 37.150002 36.040001 38.560001 36.040001ZM 79.75 76C 80.992645 76 82 74.992645 82 73.75C 82 72.507362 80.992645 71.5 79.75 71.5L 79 71.5C 78.17157 71.5 77.5 70.82843 77.5 70L 77.5 64C 77.5 62.343147 76.156853 61 74.5 61L 53.5 61C 53.085785 61 52.75 60.664215 52.75 60.25L 52.75 51.25C 52.75 47.936291 50.063709 45.25 46.75 45.25L 36.040001 45.25C 33.588577 45.24271 31.379276 46.727459 30.460001 49L 25.869999 60.52C 25.755806 60.816284 25.467411 61.008545 25.150002 61L 16 61C 12.686292 61 10 63.686287 10 67L 10 73C 10 74.656853 11.343145 76 13 76L 13.78 76C 14.17187 76.001251 14.498652 75.700615 14.53 75.309998C 14.530001 70.339439 18.559437 66.309998 23.530001 66.309998C 28.500563 66.309998 32.529999 70.339439 32.529999 75.309998C 32.561348 75.700615 32.88813 76.001251 33.279999 76L 49.84 76C 50.231873 76.001251 50.558651 75.700615 50.59 75.309998C 50.590004 70.339439 54.619438 66.309998 59.590004 66.309998C 64.560562 66.309998 68.590004 70.339439 68.590004 75.309998C 68.621346 75.700615 68.948128 76.001251 69.340004 76ZM 46.75 59.5C 46.75 59.914215 46.414215 60.25 46 60.25L 33.549999 60.25C 33.297882 60.252892 33.06118 60.128906 32.919998 59.919998C 32.802612 59.704975 32.802612 59.445015 32.919998 59.23L 35.920002 51.73C 36.034195 51.43372 36.32259 51.241455 36.639999 51.25L 46 51.25C 46.414215 51.25 46.75 51.585785 46.75 52ZM 17.5 76C 17.5 79.313713 20.186291 82 23.5 82C 26.813709 82 29.5 79.313713 29.5 76C 29.5 72.686287 26.813709 70 23.5 70C 20.186291 70 17.5 72.686287 17.5 76M 53.5 76C 53.5 79.313713 56.186291 82 59.5 82C 62.813713 82 65.5 79.313713 65.5 76C 65.5 72.686287 62.813713 70 59.5 70C 56.186291 70 53.5 72.686287 53.5 76"/>
      </g>
    </g>
  </g>
  <g id="g-root-tx_suggests_1hjgwzs1aokbnp-stroke-fill" data-item-order="0" transform="translate(362, 290)">
    <g id="tx_suggests_1hjgwzs1aokbnp-fill" stroke="none" fill="#dffff0">
      <g>
        <text style="font: 20px Roboto, sans-serif; white-space: pre;" font-size="20px" font-family="Roboto, sans-serif">
          <tspan x="13.9" y="34" dominant-baseline="ideographic">Suggests misinterpretation </tspan>
          <tspan x="17.38" y="58" dominant-baseline="ideographic">of natural phenomena and </tspan>
          <tspan x="38.87" y="82" dominant-baseline="ideographic">psychological factors</tspan>
        </text>
      </g>
    </g>
  </g>
  <g id="g-root-tx_conventi_13ylyx41axysxy-stroke-fill" data-item-order="0" transform="translate(368, 254)">
    <g id="tx_conventi_13ylyx41axysxy-fill" stroke="none" fill="#43dd93">
      <g>
        <text style="font: bold 20px Roboto, sans-serif; white-space: pre;" font-weight="bold" font-size="20px" font-family="Roboto, sans-serif">
          <tspan x="15.86" y="34" dominant-baseline="ideographic">Conventional Explanation</tspan>
        </text>
      </g>
    </g>
  </g>
  <g id="g-root-tx_supports_v2yyo81axytqn-stroke-fill" data-item-order="0" transform="translate(38, 290)">
    <g id="tx_supports_v2yyo81axytqn-fill" stroke="none" fill="#ebf2ff">
      <g>
        <text style="font: 20px Roboto, sans-serif; white-space: pre;" font-size="20px" font-family="Roboto, sans-serif">
          <tspan x="24.75" y="34" dominant-baseline="ideographic">Supports the narrative of </tspan>
          <tspan x="12.83" y="58" dominant-baseline="ideographic">alien contact and advanced </tspan>
          <tspan x="85.64" y="82" dominant-baseline="ideographic">technology</tspan>
        </text>
      </g>
    </g>
  </g>
  <g id="g-root-tx_extrater_m7byfc1axyvb4-stroke-fill" data-item-order="0" transform="translate(44, 254)">
    <g id="tx_extrater_m7byfc1axyvb4-fill" stroke="none" fill="#4f91fc">
      <g>
        <text style="font: bold 20px Roboto, sans-serif; white-space: pre;" font-weight="bold" font-size="20px" font-family="Roboto, sans-serif">
          <tspan x="14.59" y="34" dominant-baseline="ideographic">Extraterrestrial Encounter</tspan>
        </text>
      </g>
    </g>
  </g>
  <g id="g-root-ic_ligh_1lz93pk1ay5vyk-stroke-fill" data-item-order="0" transform="translate(290, 152)">
    <g id="ic_ligh_1lz93pk1ay5vyk-stroke" fill="none" stroke-linecap="round" stroke-linejoin="round" stroke-miterlimit="4" stroke="#f4f4f4" stroke-width="2">
      <g>
        <path d="M 43.7155 60.25L 41.78965 75.448456C 41.6017 76.932404 43.444153 77.732651 44.395 76.57795C 47.01955 73.3909 50.811699 68.769402 54.856899 63.833954M 69.831848 45.546398C 71.379852 43.654751 72.706451 42.033249 73.705299 40.812103C 74.506447 39.832748 73.809097 38.36335 72.543854 38.36335L 69.158348 38.36335M 25.079649 52.911999L 19.49548 52.911999C 18.223511 52.911999 17.52829 51.428951 18.342926 50.452148L 22.779266 45.132549M 35.112999 30.346449C 39.87685 24.636566 44.504349 19.091724 47.564949 15.428576C 48.525852 14.278646 50.384201 15.095304 50.190849 16.581249L 48.589302 28.888599M 40.897453 54.801849L 46.692249 35.308601C 46.978149 34.346951 46.257702 33.3811 45.254501 33.3811L 42.439301 33.3811C 41.771049 33.3811 41.18335 33.823151 40.9981 34.465149L 36.3946 50.412849C 36.289299 50.77795 35.77 50.772701 35.67205 50.405647L 31.4233 34.494099C 31.2481 33.8377 30.6535 33.3811 29.97415 33.3811L 26.994999 33.3811C 25.99645 33.3811 25.276749 34.338249 25.553949 35.297501L 31.17985 54.7687C 31.7362 56.694099 33.498852 58.019501 35.503002 58.019501L 36.584049 58.019501C 38.575451 58.019501 40.329998 56.710602 40.897453 54.801849ZM 55.995251 52.8979C 54.671501 52.8979 53.315948 52.649349 52.157799 52.296249C 51.212952 52.008099 50.137451 52.530552 49.935249 53.497299L 49.494553 55.60405C 49.356548 56.263451 49.675148 56.93755 50.312199 57.156551C 51.677353 57.6259 53.664398 58.020248 55.7164 58.020248C 62.197296 58.020248 65.500153 54.6562 65.500153 50.398453C 65.500153 47.324951 63.797348 44.9491 59.738503 43.285149C 56.776901 42.0355 55.727348 41.490551 55.727348 40.328049C 55.727348 39.259899 56.758598 38.467899 58.703651 38.467899C 59.83075 38.467899 60.802898 38.636799 61.608551 38.862099C 62.52655 39.118752 63.545498 38.638149 63.765404 37.710701L 64.243744 35.694248C 64.408752 34.998253 64.061646 34.273598 63.381096 34.053402C 62.162048 33.658901 60.618248 33.381851 58.743996 33.381851C 52.776852 33.381851 49.470402 36.687851 49.470402 40.843899C 49.470402 43.873749 51.5695 46.227848 55.602547 47.924351C 58.15675 48.945248 59.221001 49.66465 59.221001 50.874397C 59.221001 52.084152 58.112801 52.8979 55.995251 52.8979Z"/>
      </g>
    </g>
  </g>
  <g id="g-root-tx_determin_dcbf9k1ay8n4b-stroke-fill" data-item-order="0" transform="translate(26, 50)">
    <g id="tx_determin_dcbf9k1ay8n4b-fill" stroke="none" fill="#f4f4f4">
      <g>
        <text style="font: 20px Roboto, sans-serif; white-space: pre;" font-size="20px" font-family="Roboto, sans-serif">
          <tspan x="14.42" y="34" dominant-baseline="ideographic">Determine the most plausible explanation for the Cisco Grove UFO </tspan>
          <tspan x="269.58" y="58" dominant-baseline="ideographic">incident.</tspan>
        </text>
      </g>
    </g>
  </g>
</svg>
