<?xml version='1.0' encoding='utf-8'?>
<svg xmlns="http://www.w3.org/2000/svg" xmlns:xlink="http://www.w3.org/1999/xlink" width="576" height="696" viewBox="0 0 576 696" style="fill:none;stroke:none;fill-rule:evenodd;clip-rule:evenodd;stroke-linecap:round;stroke-linejoin:round;stroke-miterlimit:1.5;" version="1.1">
  <style class="text-font-style fontImports" data-font-family="Roboto">@import url('https://fonts.googleapis.com/css2?family=Roboto:wght@400;700&amp;display=block');</style>
  <rect x="0" y="0" width="576" height="696" fill="#252a34" stroke="none" id="programmatic_background"/>
  <g id="g-root-tf_qs6hiw18ghyx8-stroke-fill" data-item-order="-370944" transform="translate(11.999755859375, 12)"/>
  <g id="g-root-sy_0_cu_8x5mig18g3wga-stroke-fill" data-item-order="-272154" transform="translate(248.000244140625, 110)">
    <g id="sy_0_cu_8x5mig18g3wga-fill" stroke="none" fill="none">
      <g>
        <path d="M 10 34L 28 10L 28 18.0001L 52 18.0001L 52 10.0002L 70 34.0002L 52 58.0002L 52 50.0001L 28 50.0001L 28 58L 10 34Z"/>
      </g>
    </g>
    <g id="sy_0_cu_8x5mig18g3wga-stroke" fill="none" stroke-linecap="round" stroke-linejoin="round" stroke-miterlimit="4" stroke="#d3d3d3" stroke-width="2">
      <g>
        <path d="M 10 34L 28 10L 28 18.0001L 52 18.0001L 52 10.0002L 70 34.0002L 52 58.0002L 52 50.0001L 28 50.0001L 28 58L 10 34ZM 30.598633 28.373184L 34.998633 39.480384M 35.198633 39.097384L 39.598633 28.660484M 49.398633 30.192484C 49.065333 29.937084 48.731933 29.681784 48.398633 29.426484C 47.798633 28.851984 46.831933 28.628484 45.498633 28.756184C 44.165333 28.883884 43.465333 29.522184 43.398633 30.671184C 43.265333 31.820284 44.231933 32.905384 46.298633 33.926784C 48.431933 34.884284 49.465333 36.001384 49.398633 37.278084C 49.398633 38.554784 48.631933 39.320784 47.098633 39.576084C 45.498633 39.767584 44.431933 39.416584 43.898633 38.522884C 43.565333 38.075984 43.265333 37.629184 42.998633 37.182384"/>
      </g>
    </g>
  </g>
  <g id="g-root-sy_0_cu_1_4hc4e018g3x8j-stroke-fill" data-item-order="-272151" transform="translate(25.999755859375, 193.9990234375)">
    <g id="sy_0_cu_1_4hc4e018g3x8j-stroke" fill="none" stroke-linecap="round" stroke-linejoin="round" stroke-miterlimit="4" stroke="#d3d3d3" stroke-width="2">
      <g>
        <path d="M 514.0005 10L 10 10.0008"/>
      </g>
    </g>
  </g>
  <g id="g-root-sy_0_cu_2_1umt64818g3xu4-stroke-fill" data-item-order="-272149" transform="translate(278.000244140625, 86)">
    <g id="sy_0_cu_2_1umt64818g3xu4-stroke" fill="none" stroke-linecap="round" stroke-linejoin="round" stroke-miterlimit="4" stroke="#d3d3d3" stroke-width="2">
      <g>
        <path d="M 10.0001 298L 10 214M 10.0001 382L 10 298M 10.0001 466L 10 382M 10.0001 550L 10 466M 10.0001 214L 10 118M 10 118L 10 80M 10 36L 10 10"/>
      </g>
    </g>
  </g>
  <g id="g-root-tx_tombaugh_1q7m52w18g3vgl-stroke-fill" data-item-order="0" transform="translate(158.000244140625, 50)">
    <g id="tx_tombaugh_1q7m52w18g3vgl-fill" stroke="none" fill="#f4f4f4">
      <g>
        <text style="font: 20px Roboto, sans-serif; white-space: pre;" font-size="20px" font-family="Roboto, sans-serif">
          <tspan x="16.16" y="34" dominant-baseline="ideographic">Tombaugh's UFO Sighting</tspan>
        </text>
      </g>
    </g>
  </g>
  <g id="g-root-ic_1_1cw5mpk18g3x1i-stroke-fill" data-item-order="0" transform="translate(326.000244140625, 566)">
    <g id="ic_1_1cw5mpk18g3x1i-stroke" fill="none" stroke-linecap="round" stroke-linejoin="round" stroke-miterlimit="4" stroke="#8769fd" stroke-width="2">
      <g>
        <path d="M 24.79324 56.121399L 24.79324 45.269199C 23.17436 43.769402 21.88682 41.962997 20.998039 39.966801M 42.981201 56.121399L 42.981201 50.924801L 45.579601 50.924801C 46.957802 50.924801 48.279598 50.377201 49.2542 49.402599C 50.2286 48.4282 50.776199 47.1064 50.776199 45.728199L 50.776199 40.531601L 54.067402 40.531601C 54.278198 40.5312 54.485802 40.479599 54.672199 40.381203C 54.858799 40.282799 55.0186 40.140602 55.137798 39.966801C 55.257198 39.792999 55.332401 39.592598 55.357201 39.383202C 55.382 39.173798 55.3554 38.961601 55.2798 38.764801C 51.349602 28.569361 48.8018 19.370781 39.532799 17.494999M 23.945099 34.503201C 30.192801 34.503201 35.257401 29.43856 35.257401 23.19096C 35.257401 16.94334 30.192801 11.878662 23.945099 11.878662C 17.6975 11.878662 12.63282 16.94334 12.63282 23.19096C 12.63282 29.43856 17.6975 34.503201 23.945099 34.503201ZM 10 10M 32.215797 30.9338L 38.982399 37.607399M 20.81348 19.783241C 20.81348 18.1355 22.13168 16.65258 23.94418 16.65258C 25.591919 16.65258 27.0749 17.97072 27.0749 19.783241C 27.0749 21.430981 25.756699 22.913979 23.94418 22.913979L 23.94418 24.30356M 23.94438 28.868099C 23.729019 28.868099 23.51368 29.083481 23.51368 29.29884C 23.51368 29.5142 23.729019 29.729521 23.94438 29.729521M 23.944279 28.868099C 24.159641 28.868099 24.375 29.083481 24.375 29.29884C 24.375 29.5142 24.159641 29.729521 23.944279 29.729521"/>
      </g>
    </g>
  </g>
  <g id="g-root-ic_flas_1hgcgfs18g5c7j-stroke-fill" data-item-order="0" transform="translate(326.000244140625, 482)">
    <g id="ic_flas_1hgcgfs18g5c7j-stroke" fill="none" stroke-linecap="round" stroke-linejoin="round" stroke-miterlimit="4" stroke="#cb68f9" stroke-width="2">
      <g>
        <path d="M 51 37.812C 54.14045 36.360321 56.10902 33.17202 55.999996 29.713999C 55.962135 27.155087 54.884983 24.721664 53.01619 22.973211C 51.1474 21.224758 48.64777 20.311714 46.091999 20.444C 43.813187 15.857494 39.121334 12.969126 34 13C 27.021046 12.90637 21.1735 18.258078 20.65 25.217999C 18.566479 24.759911 16.387331 25.259914 14.711922 26.580486C 13.036512 27.901056 12.041294 29.903114 12 32.035999C 11.833682 35.153412 13.95041 37.932251 17 38.600002M 37 27L 25.178001 41.764C 24.98867 41.986534 24.945807 42.298763 25.068165 42.564087C 25.190521 42.829407 25.455824 42.999523 25.748001 43L 31 43L 31 55L 42.821999 40.237999C 43.011566 40.01519 43.054279 39.702496 42.931419 39.437008C 42.808556 39.171524 42.542538 39.001701 42.25 39.001999L 37 39.001999Z"/>
      </g>
    </g>
  </g>
  <g id="g-root-ic_eart_dhcg8o18g6ps0-stroke-fill" data-item-order="0" transform="translate(326.000244140625, 398)">
    <g id="ic_eart_dhcg8o18g6ps0-stroke" fill="none" stroke-linecap="round" stroke-linejoin="round" stroke-miterlimit="4" stroke="#ffe711" stroke-width="2">
      <g>
        <path d="M 57 56.226002L 57 32.225998L 38.024002 32.225998L 35.099998 36.732002C 34.801842 37.190598 34.927483 37.803658 35.382 38.108002L 40.809998 41.736C 41.072479 41.910938 41.237034 42.199467 41.253963 42.51445C 41.270897 42.82943 41.138214 43.133934 40.896 43.335999L 37.150002 46.486C 36.91362 46.68457 36.782211 46.981186 36.793938 47.28968C 36.805672 47.598171 36.959229 47.883953 37.209999 48.063999L 37.865997 48.534C 38.106277 48.70631 38.257988 48.976116 38.280373 49.270947C 38.302753 49.565773 38.193512 49.855392 37.982002 50.062L 31.666 56.23L 32.702 50.015999C 32.779907 49.557331 32.531204 49.105526 32.101997 48.925999L 29.702 47.939999C 29.378521 47.807106 29.147966 47.514881 29.093992 47.169357C 29.040016 46.823837 29.170464 46.47522 29.438 46.25L 32.903999 43.335999C 33.146217 43.133934 33.278893 42.82943 33.261963 42.51445C 33.245033 42.199467 33.080482 41.910938 32.818001 41.736L 27.382 38.108002C 26.927485 37.803658 26.801844 37.190598 27.1 36.732002L 30.024 32.225998L 11 32.225998L 11 56.226002M 19 32.225998L 19 26.226M 25.383999 24.824001C 25.51889 25.133072 25.48892 25.489315 25.304287 25.771507C 25.119652 26.053698 24.805225 26.223825 24.468 26.224001L 13.532 26.224001C 13.194774 26.223825 12.880348 26.053698 12.695714 25.771507C 12.51108 25.489315 12.48111 25.133072 12.616 24.824001L 18.084 12.372C 18.24333 12.008205 18.602844 11.773178 19 11.773178C 19.397156 11.773178 19.75667 12.008205 19.916 12.372ZM 49 32.225998L 49 26.226M 55.383999 24.824001C 55.51889 25.133072 55.488918 25.489315 55.304287 25.771507C 55.119652 26.053698 54.805225 26.223825 54.467999 26.224001L 43.532001 26.224001C 43.194775 26.223825 42.880348 26.053698 42.695713 25.771507C 42.511082 25.489315 42.48111 25.133072 42.616001 24.824001L 48.084 12.372C 48.243332 12.008205 48.602844 11.773178 49 11.773178C 49.397156 11.773178 49.756668 12.008205 49.916 12.372Z"/>
      </g>
    </g>
  </g>
  <g id="g-root-ic_face_18kpg6w18g84jl-stroke-fill" data-item-order="0" transform="translate(326.000244140625, 314)">
    <g id="ic_face_18kpg6w18g84jl-stroke" fill="none" stroke-linecap="round" stroke-linejoin="round" stroke-miterlimit="4" stroke="#f79438" stroke-width="2">
      <g>
        <path d="M 34.400002 29.788C 32.400002 27.788 28.4 26.788 26.4 28.788M 14.6 33.788002C 14.4 32.987999 14.4 32.188 14.4 31.188C 14.4 20.388 23.200001 11.588 34 11.588C 44.799999 11.588 53.599998 20.388 53.599998 31.188C 53.599998 38.388 49.799999 44.588001 44 47.987999M 30.299999 55.200001C 34.299999 53.599998 33.549999 50.074001 32.75 46.874001L 39.118 44.408001C 40.594185 43.836731 41.366184 42.21106 40.875999 40.706001L 40.875999 40.706001C 40.622498 39.927582 40.059925 39.287735 39.320358 38.93668C 38.580795 38.585625 37.729378 38.554276 36.966003 38.850002L 25.25 43.389999C 24.25 43.790001 23.049999 42.990002 23.049999 41.989998L 22.972 40.096001C 22.940052 39.324326 22.589426 38.600483 22.003723 38.097042C 21.418018 37.593601 20.649719 37.355682 19.882 37.440002L 19.882 37.440002C 18.469681 37.595955 17.400589 38.789097 17.400002 40.210003L 17.4 48.389999C 17.4 53.59 22.200001 57.389999 27.200001 56.189999C 27.200001 56.189999 29.299999 55.599998 30.299999 55.200001ZM 24.549999 21.788C 24.135788 21.788 23.799999 21.452213 23.799999 21.038C 23.799999 20.623787 24.135788 20.288 24.549999 20.288M 24.549999 21.788C 24.964214 21.788 25.299999 21.452213 25.299999 21.038C 25.299999 20.623787 24.964214 20.288 24.549999 20.288M 35.200001 21.788C 34.785789 21.788 34.450001 21.452213 34.450001 21.038C 34.450001 20.623787 34.785789 20.288 35.200001 20.288M 35.200001 21.788C 35.614212 21.788 35.950001 21.452213 35.950001 21.038C 35.950001 20.623787 35.614212 20.288 35.200001 20.288"/>
      </g>
    </g>
  </g>
  <g id="g-root-ic_ques_4lpfzs18g9hca-stroke-fill" data-item-order="0" transform="translate(326.000244140625, 230)">
    <g id="ic_ques_4lpfzs18g9hca-stroke" fill="none" stroke-linecap="round" stroke-linejoin="round" stroke-miterlimit="4" stroke="#fb6762" stroke-width="2">
      <g>
        <path d="M 51 37.812C 54.14045 36.360321 56.10902 33.17202 55.999996 29.713999C 55.962135 27.155087 54.884983 24.721664 53.01619 22.973211C 51.1474 21.224758 48.64777 20.311714 46.091999 20.444C 43.813187 15.857494 39.121334 12.969126 34 13C 27.021046 12.90637 21.1735 18.258078 20.65 25.217999C 18.566479 24.759911 16.387331 25.259914 14.711922 26.580486C 13.036512 27.901056 12.041294 29.903114 12 32.035999C 11.833682 35.153412 13.95041 37.932251 17 38.600002M 22 43C 22 49.627419 27.372583 55 34 55C 40.627419 55 46 49.627419 46 43C 46 36.372581 40.627419 31.000002 34 31.000002C 27.372583 31.000002 22 36.372581 22 43ZM 30.25 40.084C 30.250002 38.012932 31.928934 36.334 34 36.334C 36.071068 36.334 37.75 38.012932 37.75 40.084C 37.75 42.155071 36.071068 43.834003 34 43.834003L 34 45.834M 34 49.834C 33.723858 49.834 33.5 50.057858 33.5 50.334C 33.5 50.610142 33.723858 50.834 34 50.834C 34.276142 50.834 34.5 50.610142 34.5 50.334C 34.5 50.057858 34.276142 49.834 34 49.834L 34 49.834"/>
      </g>
    </g>
  </g>
  <g id="g-root-ic_fold_8z11rs18gayv7-stroke-fill" data-item-order="0" transform="translate(26.000244140625, 566)">
    <g id="ic_fold_8z11rs18gayv7-stroke" fill="none" stroke-linecap="round" stroke-linejoin="round" stroke-miterlimit="4" stroke="#f366bb" stroke-width="2">
      <g>
        <path d="M 29 30C 29 30.552284 28.552284 31 28 31L 18 31C 17.447716 31 17 30.552284 17 30L 17 20C 17 19.447716 17.447716 19 18 19L 28 19C 28.552284 19 29 19.447716 29 20ZM 33 19L 39 19M 33 25L 39 25M 33 31L 39 31M 17 37L 39 37M 17 43L 39 43M 17 49L 39 49M 51 57L 17 57C 13.686292 57 11 54.313709 11 51L 11 13C 11 11.895431 11.895431 11 13 11L 43 11C 44.104568 11 45 11.895431 45 13L 45 51C 45 54.313709 47.686295 57 51 57C 54.313709 57 57 54.313709 57 51L 57 17M 51 17L 51 52"/>
      </g>
    </g>
  </g>
  <g id="g-root-ic_infe_14153js18gcbgs-stroke-fill" data-item-order="0" transform="translate(26.000244140625, 482)">
    <g id="ic_infe_14153js18gcbgs-stroke" fill="none" stroke-linecap="round" stroke-linejoin="round" stroke-miterlimit="4" stroke="#1ac3fb" stroke-width="2">
      <g>
        <path d="M 42.089199 54.676601C 49.000599 54.676601 54.603401 49.073799 54.603401 42.162399C 54.603401 35.250801 49.000599 29.648081 42.089199 29.648081C 35.177799 29.648081 29.574961 35.250801 29.574961 42.162399C 29.574961 49.073799 35.177799 54.676601 42.089199 54.676601ZM 10 10M 50.932201 51.005798L 56.688599 56.762402M 42.089802 43.0802C 41.582802 43.0802 41.171799 42.669201 41.171799 42.162399C 41.171799 41.655399 41.582802 41.244598 42.089802 41.244598M 42.090199 43.0802C 42.597198 43.0802 43.007999 42.669201 43.007999 42.162399C 43.007999 41.655399 42.597198 41.244598 42.090199 41.244598M 34.7062 43.0802C 34.1992 43.0802 33.788399 42.669201 33.788399 42.162399C 33.788399 41.655399 34.1992 41.244598 34.7062 41.244598M 34.7066 43.0802C 35.2136 43.0802 35.624599 42.669201 35.624599 42.162399C 35.624599 41.655399 35.2136 41.244598 34.7066 41.244598M 49.473202 43.0802C 48.9664 43.0802 48.555401 42.669201 48.555401 42.162399C 48.555401 41.655399 48.9664 41.244598 49.473202 41.244598M 49.473801 43.0802C 49.980598 43.0802 50.391602 42.669201 50.391602 42.162399C 50.391602 41.655399 49.980598 41.244598 49.473801 41.244598M 38.1362 48.6436C 37.6292 48.6436 37.218201 48.232601 37.218201 47.7258C 37.218201 47.2188 37.6292 46.8078 38.1362 46.8078M 38.135597 48.6436C 38.642601 48.6436 39.053398 48.232601 39.053398 47.7258C 39.053398 47.2188 38.642601 46.8078 38.135597 46.8078M 38.1362 37.5168C 37.6292 37.5168 37.218201 37.106003 37.218201 36.598999C 37.218201 36.091999 37.6292 35.681198 38.1362 35.681198M 38.135597 37.5168C 38.642601 37.5168 39.053398 37.106003 39.053398 36.598999C 39.053398 36.091999 38.642601 35.681198 38.135597 35.681198M 46.0424 48.6436C 45.5354 48.6436 45.124599 48.232601 45.124599 47.7258C 45.124599 47.2188 45.5354 46.8078 46.0424 46.8078M 46.042599 48.6436C 46.549599 48.6436 46.9604 48.232601 46.9604 47.7258C 46.9604 47.2188 46.549599 46.8078 46.042599 46.8078M 46.0424 37.5168C 45.5354 37.5168 45.124599 37.106003 45.124599 36.598999C 45.124599 36.091999 45.5354 35.681198 46.0424 35.681198M 46.042599 37.5168C 46.549599 37.5168 46.9604 37.106003 46.9604 36.598999C 46.9604 36.091999 46.549599 35.681198 46.042599 35.681198M 27.46516 28.744801C 32.110199 28.744801 35.875603 24.9793 35.875603 20.334301C 35.875603 15.68932 32.110199 11.923828 27.46516 11.923828C 22.820179 11.923828 19.05468 15.68932 19.05468 20.334301C 19.05468 24.9793 22.820179 28.744801 27.46516 28.744801ZM 28.7537 52.294201L 12.32618 52.294201L 12.32618 50.4702C 12.352961 47.905998 13.029221 45.3904 14.29178 43.158401C 15.55434 40.926399 17.36204 39.0508 19.54598 37.706802C 21.72994 36.362999 24.21888 35.594398 26.780359 35.473198"/>
      </g>
    </g>
  </g>
  <g id="g-root-ic_2_8z11rs18gdpmt-stroke-fill" data-item-order="0" transform="translate(26.000244140625, 398)">
    <g id="ic_2_8z11rs18gdpmt-stroke" fill="none" stroke-linecap="round" stroke-linejoin="round" stroke-miterlimit="4" stroke="#a6da37" stroke-width="2">
      <g>
        <path d="M 56.5 21.70002L 56.5 52.099998C 56.5 54.5 54.5 56.5 52.099998 56.5M 52.099998 56.5C 49.700001 56.5 47.700001 54.5 47.700001 52.099998L 47.700001 14.5C 47.700001 12.9 46.299999 11.5 44.700001 11.5L 14.5 11.5C 12.9 11.5 11.5 12.9 11.5 14.5L 11.5 52.099998C 11.5 54.5 13.50002 56.5 15.900021 56.5L 52.099998 56.5ZM 20.1 39.700001L 39.099998 39.700001M 20.1 47.700001L 32.099998 47.700001M 10 10M 38.5 21.70002L 29.5 29.70002L 25.5 26.1L 20.5 30.5M 38.5 27.1L 38.5 21.70002L 32.5 21.70002"/>
      </g>
    </g>
  </g>
  <g id="g-root-ic_watc_140imgo18gf5e6-stroke-fill" data-item-order="0" transform="translate(26.000244140625, 314)">
    <g id="ic_watc_140imgo18gf5e6-stroke" fill="none" stroke-linecap="round" stroke-linejoin="round" stroke-miterlimit="4" stroke="#4f91fc" stroke-width="2">
      <g>
        <path d="M 15.5 43.5C 15.5 45.985283 17.514719 48 20 48C 22.485281 48 24.5 45.985283 24.5 43.5C 24.5 41.014717 22.485281 39 20 39C 17.514719 39 15.5 41.014717 15.5 43.5ZM 29 57C 27.950926 52.885952 24.245701 50.006985 20 50.006985C 15.7543 50.006985 12.049074 52.885952 11 57M 43.5 43.5C 43.5 45.985283 45.514717 48 48 48C 50.485283 48 52.5 45.985283 52.5 43.5C 52.5 41.014717 50.485283 39 48 39C 45.514717 39 43.5 41.014717 43.5 43.5ZM 39 57C 40.049076 52.885952 43.754299 50.006985 48 50.006985C 52.245701 50.006985 55.950928 52.885952 57 57M 29.5 41.5C 29.5 43.985283 31.514719 46 34 46C 36.485283 46 38.5 43.985283 38.5 41.5C 38.5 39.014717 36.485283 37 34 37C 31.514719 37 29.5 39.014717 29.5 41.5ZM 41.830002 52.386002C 40.154522 49.669983 37.191231 48.016228 34 48.016228C 30.808767 48.016228 27.845474 49.669983 26.17 52.385998M 25 11L 22 14M 22 11L 25 14M 45 13L 42 16M 42 13L 45 16M 55 21L 52 24M 52 21L 55 24M 16 18L 13 21M 13 18L 16 21M 40.68 32.056C 42.285118 28.043875 45.306801 24.760302 49.172001 22.827999M 28 14L 28.788 14.4C 33.292236 16.650915 36.373741 21.003746 37 26L 37 26M 20 20L 20 20C 26.209766 21.241394 31.321966 25.632595 33.486 31.584L 34 33"/>
      </g>
    </g>
  </g>
  <g id="g-root-ic_pers_2rkfs18ggkcv-stroke-fill" data-item-order="0" transform="translate(26.000244140625, 230)">
    <g id="ic_pers_2rkfs18ggkcv-stroke" fill="none" stroke-linecap="round" stroke-linejoin="round" stroke-miterlimit="4" stroke="#43dd93" stroke-width="2">
      <g>
        <path d="M 33 16C 33 18.761425 35.238579 21 38 21C 40.761425 21 43 18.761425 43 16C 43 13.238577 40.761425 11 38 11C 35.238579 11 33 13.238577 33 16ZM 54 57C 52.343147 57 51 55.656857 51 54L 51 38.200001C 50.999088 37.489914 50.747665 36.802925 50.290001 36.260002L 44.526001 29.17L 42.023998 31.115999C 38.439194 33.896667 33.346359 33.5797 30.134001 30.375999L 26.879999 27.122C 25.74308 25.944864 25.759338 24.073744 26.916542 22.916542C 28.073744 21.759338 29.944864 21.74308 31.122 22.880001L 34.375999 26.134001C 35.446144 27.204103 37.14576 27.30958 38.34 26.380001L 43.158001 22.633999C 44.445595 21.631636 46.298225 21.842224 47.328003 23.108002L 54.908001 32.43C 56.261658 34.047768 57.002316 36.090599 56.999996 38.199997L 57 54C 57 55.656857 55.656857 57 54 57ZM 17 21C 17 22.104568 16.104568 23 15 23L 13 23C 11.895431 23 11 22.104568 11 21L 11 13C 11 11.895431 11.895431 11 13 11L 15 11C 16.104568 11 17 11.895431 17 13ZM 29 17.306C 28.99955 18.283636 28.292398 19.117668 27.327999 19.278L 17 21L 17 13L 27.166 13.848C 28.205271 13.934551 29.003597 14.805139 29 15.848ZM 21 20.334L 21 57M 12 57L 21 34L 30 57"/>
      </g>
    </g>
  </g>
  <g id="g-root-tx_psycholo_v4vm7s18ghxq8-stroke-fill" data-item-order="0" transform="translate(386.000244140625, 566)">
    <g id="tx_psycholo_v4vm7s18ghxq8-fill" stroke="none" fill="#f4f4f4">
      <g>
        <text style="font: 20px Roboto, sans-serif; white-space: pre;" font-size="20px" font-family="Roboto, sans-serif">
          <tspan x="12" y="34" dominant-baseline="ideographic">Psychological </tspan>
          <tspan x="12" y="58" dominant-baseline="ideographic">factors</tspan>
        </text>
      </g>
    </g>
  </g>
  <g id="g-root-tx_atmosphe_htf3ug18ghzb5-stroke-fill" data-item-order="0" transform="translate(386.000244140625, 482)">
    <g id="tx_atmosphe_htf3ug18ghzb5-fill" stroke="none" fill="#f4f4f4">
      <g>
        <text style="font: 20px Roboto, sans-serif; white-space: pre;" font-size="20px" font-family="Roboto, sans-serif">
          <tspan x="12" y="34" dominant-baseline="ideographic">Atmospheric </tspan>
          <tspan x="12" y="58" dominant-baseline="ideographic">phenomena</tspan>
        </text>
      </g>
    </g>
  </g>
  <g id="g-root-tx_conventi_8yekoo18ghwy2-stroke-fill" data-item-order="0" transform="translate(386.000244140625, 386)">
    <g id="tx_conventi_8yekoo18ghwy2-fill" stroke="none" fill="#f4f4f4">
      <g>
        <text style="font: 20px Roboto, sans-serif; white-space: pre;" font-size="20px" font-family="Roboto, sans-serif">
          <tspan x="12" y="34" dominant-baseline="ideographic">Conventional </tspan>
          <tspan x="12" y="58" dominant-baseline="ideographic">theories </tspan>
          <tspan x="12" y="82" dominant-baseline="ideographic">inadequate</tspan>
        </text>
      </g>
    </g>
  </g>
  <g id="g-root-tx_skeptica_4il2k818ghxqb-stroke-fill" data-item-order="0" transform="translate(386.000244140625, 314)">
    <g id="tx_skeptica_4il2k818ghxqb-fill" stroke="none" fill="#f4f4f4">
      <g>
        <text style="font: 20px Roboto, sans-serif; white-space: pre;" font-size="20px" font-family="Roboto, sans-serif">
          <tspan x="12" y="34" dominant-baseline="ideographic">Skeptical </tspan>
          <tspan x="12" y="58" dominant-baseline="ideographic">dismissals</tspan>
        </text>
      </g>
    </g>
  </g>
  <g id="g-root-tx_unresolv_1q88m6018ghz44-stroke-fill" data-item-order="0" transform="translate(386.000244140625, 230)">
    <g id="tx_unresolv_1q88m6018ghz44-fill" stroke="none" fill="#f4f4f4">
      <g>
        <text style="font: 20px Roboto, sans-serif; white-space: pre;" font-size="20px" font-family="Roboto, sans-serif">
          <tspan x="12" y="34" dominant-baseline="ideographic">Unresolved </tspan>
          <tspan x="12" y="58" dominant-baseline="ideographic">explanations</tspan>
        </text>
      </g>
    </g>
  </g>
  <g id="g-root-tx_historic_1hd830818ghwr1-stroke-fill" data-item-order="0" transform="translate(86.000244140625, 566)">
    <g id="tx_historic_1hd830818ghwr1-fill" stroke="none" fill="#f4f4f4">
      <g>
        <text style="font: 20px Roboto, sans-serif; white-space: pre;" font-size="20px" font-family="Roboto, sans-serif">
          <tspan x="12" y="34" dominant-baseline="ideographic">Historical </tspan>
          <tspan x="12" y="58" dominant-baseline="ideographic">significance</tspan>
        </text>
      </g>
    </g>
  </g>
  <g id="g-root-tx_expertan_1cxekvs18ghxja-stroke-fill" data-item-order="0" transform="translate(86.000244140625, 494)">
    <g id="tx_expertan_1cxekvs18ghxja-fill" stroke="none" fill="#f4f4f4">
      <g>
        <text style="font: 20px Roboto, sans-serif; white-space: pre;" font-size="20px" font-family="Roboto, sans-serif">
          <tspan x="12" y="34" dominant-baseline="ideographic">Expert analysis</tspan>
        </text>
      </g>
    </g>
  </g>
  <g id="g-root-tx_detailed_zly2ig18ghz47-stroke-fill" data-item-order="0" transform="translate(86.000244140625, 410)">
    <g id="tx_detailed_zly2ig18ghz47-fill" stroke="none" fill="#f4f4f4">
      <g>
        <text style="font: 20px Roboto, sans-serif; white-space: pre;" font-size="20px" font-family="Roboto, sans-serif">
          <tspan x="12" y="34" dominant-baseline="ideographic">Detailed report</tspan>
        </text>
      </g>
    </g>
  </g>
  <g id="g-root-tx_corrobor_v6r1h418ghwqo-stroke-fill" data-item-order="0" transform="translate(86.000244140625, 314)">
    <g id="tx_corrobor_v6r1h418ghwqo-fill" stroke="none" fill="#f4f4f4">
      <g>
        <text style="font: 20px Roboto, sans-serif; white-space: pre;" font-size="20px" font-family="Roboto, sans-serif">
          <tspan x="12" y="34" dominant-baseline="ideographic">Corroborating </tspan>
          <tspan x="12" y="58" dominant-baseline="ideographic">witnesses</tspan>
        </text>
      </g>
    </g>
  </g>
  <g id="g-root-tx_credible_mb418818ghxjd-stroke-fill" data-item-order="0" transform="translate(86.000244140625, 230)">
    <g id="tx_credible_mb418818ghxjd-fill" stroke="none" fill="#f4f4f4">
      <g>
        <text style="font: 20px Roboto, sans-serif; white-space: pre;" font-size="20px" font-family="Roboto, sans-serif">
          <tspan x="12" y="34" dominant-baseline="ideographic">Credible </tspan>
          <tspan x="12" y="58" dominant-baseline="ideographic">observer</tspan>
        </text>
      </g>
    </g>
  </g>
  <g id="g-root-tx_cons_8zniuw18ghz4a-stroke-fill" data-item-order="0" transform="translate(386.000244140625, 116)">
    <g id="tx_cons_8zniuw18ghz4a-fill" stroke="none" fill="#f4f4f4">
      <g>
        <text style="font: bold 30px Roboto, sans-serif; white-space: pre;" font-weight="bold" font-size="30px" font-family="Roboto, sans-serif">
          <tspan x="12" y="46" dominant-baseline="ideographic">Cons</tspan>
        </text>
      </g>
    </g>
  </g>
  <g id="g-root-tx_pros_4kghtk18ghwqr-stroke-fill" data-item-order="0" transform="translate(86.000244140625, 116)">
    <g id="tx_pros_4kghtk18ghwqr-fill" stroke="none" fill="#f4f4f4">
      <g>
        <text style="font: bold 30px Roboto, sans-serif; white-space: pre;" font-weight="bold" font-size="30px" font-family="Roboto, sans-serif">
          <tspan x="12" y="46" dominant-baseline="ideographic">Pros</tspan>
        </text>
      </g>
    </g>
    <defs>
      <pattern id="crawlingPattern-0000001b" x="0" y="0" width="12" height="12" patternUnits="userSpaceOnUse" fill="#0000001b">
        <use href="#crawlingSymbol"/>
      </pattern>
      <symbol id="crawlingSymbol">
        <g>
          <path d="M -12.5 12.5 l 13 -13 l 6 0 l -13 13 Z M -0.5 12.5 l 13 -13 l 6 0 l -13 13 Z M 11.5 12.5 l 13 -13 l 6 0 l -13 13 Z"/>
        </g>
      </symbol>
    </defs>
  </g>
</svg>
