<?xml version='1.0' encoding='utf-8'?>
<svg xmlns="http://www.w3.org/2000/svg" xmlns:xlink="http://www.w3.org/1999/xlink" width="696" height="588" viewBox="0 0 696 588" style="fill:none;stroke:none;fill-rule:evenodd;clip-rule:evenodd;stroke-linecap:round;stroke-linejoin:round;stroke-miterlimit:1.5;" version="1.1">
  <style class="text-font-style fontImports" data-font-family="Roboto">@import url('https://fonts.googleapis.com/css2?family=Roboto:wght@400;700&amp;display=block');</style>
  <rect x="0" y="0" width="696" height="588" fill="#252a34" stroke="none" id="programmatic_background"/>
  <g id="g-root-tf_13z925k1bi52q7-stroke-fill" data-item-order="-382368" transform="translate(12, 12)"/>
  <g id="g-root-sy_-1_Vector_4mxs141bi3mdk-stroke-fill" data-item-order="-10255" transform="translate(206, 149)">
    <g id="sy_-1_Vector_4mxs141bi3mdk-stroke" fill="none" stroke-linecap="round" stroke-linejoin="round" stroke-miterlimit="4" stroke="#f4f4f4" stroke-width="2">
      <g>
        <path d="M 10 292L 10 202M 10 196L 10 106M 10 100L 10 10"/>
      </g>
    </g>
  </g>
  <g id="g-root-sy_-1_line_749wo1bi3n5t-stroke-fill" data-item-order="-10251" transform="translate(206, 437)">
    <g id="sy_-1_line_749wo1bi3n5t-stroke" fill="none" stroke-linecap="round" stroke-linejoin="round" stroke-miterlimit="4" stroke="#f4f4f4" stroke-width="2">
      <g>
        <path d="M 10 94L 10 10"/>
        <path d="M 3.5 88L 10 94.5L 16.5 88" stroke-dasharray="none"/>
      </g>
    </g>
  </g>
  <g id="g-root-sy_4_cu_1lwrtig1bi3ojm-stroke-fill" data-item-order="-10248" transform="translate(203, 431)">
    <g id="sy_4_cu_1lwrtig1bi3ojm-fill" stroke="none" fill="none">
      <g>
        <path d="M 13 10L 13 10C 13 10 16 10 16 13L 16 13C 16 13 16 16 13 16L 13 16C 13 16 10 16 10 13L 10 13C 10 13 10 10 13 10"/>
      </g>
    </g>
    <g id="sy_4_cu_1lwrtig1bi3ojm-stroke" fill="none" stroke-linecap="round" stroke-linejoin="round" stroke-miterlimit="4" stroke="#1ac3fb" stroke-width="2">
      <g>
        <path d="M 13 10L 13 10C 13 10 16 10 16 13L 16 13C 16 13 16 16 13 16L 13 16C 13 16 10 16 10 13L 10 13C 10 13 10 10 13 10"/>
      </g>
    </g>
    <g id="sy_4_cu_1lwrtig1bi3ojm-stroke" fill="none" stroke-linecap="round" stroke-linejoin="round" stroke-miterlimit="4" stroke="#1ac3fb" stroke-width="2">
      <g>
        <path d="M 37 13L 16 13"/>
      </g>
    </g>
  </g>
  <g id="g-root-sy_3_cu_18lxs881bi3myr-stroke-fill" data-item-order="-10244" transform="translate(203, 335)">
    <g id="sy_3_cu_18lxs881bi3myr-fill" stroke="none" fill="none">
      <g>
        <path d="M 13 10L 13 10C 13 10 16 10 16 13L 16 13C 16 13 16 16 13 16L 13 16C 13 16 10 16 10 13L 10 13C 10 13 10 10 13 10"/>
      </g>
    </g>
    <g id="sy_3_cu_18lxs881bi3myr-stroke" fill="none" stroke-linecap="round" stroke-linejoin="round" stroke-miterlimit="4" stroke="#a6da37" stroke-width="2">
      <g>
        <path d="M 13 10L 13 10C 13 10 16 10 16 13L 16 13C 16 13 16 16 13 16L 13 16C 13 16 10 16 10 13L 10 13C 10 13 10 10 13 10"/>
      </g>
    </g>
    <g id="sy_3_cu_18lxs881bi3myr-stroke" fill="none" stroke-linecap="round" stroke-linejoin="round" stroke-miterlimit="4" stroke="#a6da37" stroke-width="2">
      <g>
        <path d="M 37 13L 16 13"/>
      </g>
    </g>
  </g>
  <g id="g-root-sy_2_cu_zqarzc1bi3nrg-stroke-fill" data-item-order="-10240" transform="translate(203, 239)">
    <g id="sy_2_cu_zqarzc1bi3nrg-fill" stroke="none" fill="none">
      <g>
        <path d="M 13 10L 13 10C 13 10 16 10 16 13L 16 13C 16 13 16 16 13 16L 13 16C 13 16 10 16 10 13L 10 13C 10 13 10 10 13 10"/>
      </g>
    </g>
    <g id="sy_2_cu_zqarzc1bi3nrg-stroke" fill="none" stroke-linecap="round" stroke-linejoin="round" stroke-miterlimit="4" stroke="#43dd93" stroke-width="2">
      <g>
        <path d="M 13 10L 13 10C 13 10 16 10 16 13L 16 13C 16 13 16 16 13 16L 13 16C 13 16 10 16 10 13L 10 13C 10 13 10 10 13 10"/>
      </g>
    </g>
    <g id="sy_2_cu_zqarzc1bi3nrg-stroke" fill="none" stroke-linecap="round" stroke-linejoin="round" stroke-miterlimit="4" stroke="#43dd93" stroke-width="2">
      <g>
        <path d="M 37 13L 16 13"/>
      </g>
    </g>
  </g>
  <g id="g-root-sy_1_cu_mfgqp41bi3m6l-stroke-fill" data-item-order="-10236" transform="translate(203, 143)">
    <g id="sy_1_cu_mfgqp41bi3m6l-fill" stroke="none" fill="none">
      <g>
        <path d="M 13 10L 13 10C 13 10 16 10 16 13L 16 13C 16 13 16 16 13 16L 13 16C 13 16 10 16 10 13L 10 13C 10 13 10 10 13 10"/>
      </g>
    </g>
    <g id="sy_1_cu_mfgqp41bi3m6l-stroke" fill="none" stroke-linecap="round" stroke-linejoin="round" stroke-miterlimit="4" stroke="#4f91fc" stroke-width="2">
      <g>
        <path d="M 13 10L 13 10C 13 10 16 10 16 13L 16 13C 16 13 16 16 13 16L 13 16C 13 16 10 16 10 13L 10 13C 10 13 10 10 13 10"/>
      </g>
    </g>
    <g id="sy_1_cu_mfgqp41bi3m6l-stroke" fill="none" stroke-linecap="round" stroke-linejoin="round" stroke-miterlimit="4" stroke="#4f91fc" stroke-width="2">
      <g>
        <path d="M 37 13L 16 13"/>
      </g>
    </g>
  </g>
  <g id="g-root-tx_clydetom_mfgqp41bi3m6m-stroke-fill" data-item-order="0" transform="translate(92, 50)">
    <g id="tx_clydetom_mfgqp41bi3m6m-fill" stroke="none" fill="#f4f4f4">
      <g>
        <text style="font: 20px Roboto, sans-serif; white-space: pre;" font-size="20px" font-family="Roboto, sans-serif">
          <tspan x="12.77" y="34" dominant-baseline="ideographic">Clyde Tombaugh's UFO Encounter and Its Context</tspan>
        </text>
      </g>
    </g>
  </g>
  <g id="g-root-tx_declassi_9408bs1bi3nrj-stroke-fill" data-item-order="0" transform="translate(254, 422)">
    <g id="tx_declassi_9408bs1bi3nrj-fill" stroke="none" fill="#f4f4f4">
      <g>
        <text style="font: 20px Roboto, sans-serif; white-space: pre;" font-size="20px" font-family="Roboto, sans-serif">
          <tspan x="12" y="34" dominant-baseline="ideographic">Declassification of UFO Documents</tspan>
        </text>
      </g>
    </g>
  </g>
  <g id="g-root-tx_tombaugh_8zp601bi3m68-stroke-fill" data-item-order="0" transform="translate(254, 314)">
    <g id="tx_tombaugh_8zp601bi3m68-fill" stroke="none" fill="#f4f4f4">
      <g>
        <text style="font: 20px Roboto, sans-serif; white-space: pre;" font-size="20px" font-family="Roboto, sans-serif">
          <tspan x="12" y="34" dominant-baseline="ideographic">Tombaugh's UFO Correspondence with Len </tspan>
          <tspan x="12" y="58" dominant-baseline="ideographic">Stringfield</tspan>
        </text>
      </g>
    </g>
  </g>
  <g id="g-root-tx_tombaugh_1d308iw1bi3ocp-stroke-fill" data-item-order="0" transform="translate(254, 230)">
    <g id="tx_tombaugh_1d308iw1bi3ocp-fill" stroke="none" fill="#f4f4f4">
      <g>
        <text style="font: 20px Roboto, sans-serif; white-space: pre;" font-size="20px" font-family="Roboto, sans-serif">
          <tspan x="12" y="34" dominant-baseline="ideographic">Tombaugh's UFO Sighting in New Mexico</tspan>
        </text>
      </g>
    </g>
  </g>
  <g id="g-root-tx_discover_zs678o1bi3mru-stroke-fill" data-item-order="0" transform="translate(254, 134)">
    <g id="tx_discover_zs678o1bi3mru-fill" stroke="none" fill="#f4f4f4">
      <g>
        <text style="font: 20px Roboto, sans-serif; white-space: pre;" font-size="20px" font-family="Roboto, sans-serif">
          <tspan x="12" y="34" dominant-baseline="ideographic">Discovery of Pluto by Clyde Tombaugh</tspan>
        </text>
      </g>
    </g>
  </g>
  <g id="g-root-tx_1978_mgpovc1bi3ocr-stroke-fill" data-item-order="0" transform="translate(122, 422)">
    <g id="tx_1978_mgpovc1bi3ocr-fill" stroke="none" fill="#1ac3fb">
      <g>
        <text style="font: bold 20px Roboto, sans-serif; white-space: pre;" font-weight="bold" font-size="20px" font-family="Roboto, sans-serif">
          <tspan x="22.09" y="34" dominant-baseline="ideographic">1978</tspan>
        </text>
      </g>
    </g>
  </g>
  <g id="g-root-tx_1956_hrj2g81bi50jo-stroke-fill" data-item-order="0" transform="translate(122, 326)">
    <g id="tx_1956_hrj2g81bi50jo-fill" stroke="none" fill="#a6da37">
      <g>
        <text style="font: bold 20px Roboto, sans-serif; white-space: pre;" font-weight="bold" font-size="20px" font-family="Roboto, sans-serif">
          <tspan x="22.09" y="34" dominant-baseline="ideographic">1956</tspan>
        </text>
      </g>
    </g>
  </g>
  <g id="g-root-tx_august20_4g2k2w1bi524l-stroke-fill" data-item-order="0" transform="translate(26, 230)">
    <g id="tx_august20_4g2k2w1bi524l-fill" stroke="none" fill="#43dd93">
      <g>
        <text style="font: bold 20px Roboto, sans-serif; white-space: pre;" font-weight="bold" font-size="20px" font-family="Roboto, sans-serif">
          <tspan x="16.08" y="34" dominant-baseline="ideographic">August 20, 1949</tspan>
        </text>
      </g>
    </g>
  </g>
  <g id="g-root-tx_1930_1q5q3oo1bi53ie-stroke-fill" data-item-order="0" transform="translate(122, 134)">
    <g id="tx_1930_1q5q3oo1bi53ie-fill" stroke="none" fill="#4f91fc">
      <g>
        <text style="font: bold 20px Roboto, sans-serif; white-space: pre;" font-weight="bold" font-size="20px" font-family="Roboto, sans-serif">
          <tspan x="22.09" y="34" dominant-baseline="ideographic">1930</tspan>
        </text>
      </g>
    </g>
    <defs>
      <pattern id="crawlingPattern-0000001b" x="0" y="0" width="12" height="12" patternUnits="userSpaceOnUse" fill="#0000001b">
        <use href="#crawlingSymbol"/>
      </pattern>
      <symbol id="crawlingSymbol">
        <g>
          <path d="M -12.5 12.5 l 13 -13 l 6 0 l -13 13 Z M -0.5 12.5 l 13 -13 l 6 0 l -13 13 Z M 11.5 12.5 l 13 -13 l 6 0 l -13 13 Z"/>
        </g>
      </symbol>
      <pattern id="crawlingPattern-00a3d9d9" x="0" y="0" width="12" height="12" patternUnits="userSpaceOnUse" fill="#00a3d9d9">
        <use href="#crawlingSymbol"/>
      </pattern>
      <pattern id="crawlingPattern-5c87005e" x="0" y="0" width="12" height="12" patternUnits="userSpaceOnUse" fill="#5c87005e">
        <use href="#crawlingSymbol"/>
      </pattern>
      <pattern id="crawlingPattern-00b15c75" x="0" y="0" width="12" height="12" patternUnits="userSpaceOnUse" fill="#00b15c75">
        <use href="#crawlingSymbol"/>
      </pattern>
      <pattern id="crawlingPattern-0060fba2" x="0" y="0" width="12" height="12" patternUnits="userSpaceOnUse" fill="#0060fba2">
        <use href="#crawlingSymbol"/>
      </pattern>
    </defs>
  </g>
</svg>
