<?xml version='1.0' encoding='utf-8'?>
<svg xmlns="http://www.w3.org/2000/svg" xmlns:xlink="http://www.w3.org/1999/xlink" width="816" height="636" viewBox="0 0 816 636" style="fill:none;stroke:none;fill-rule:evenodd;clip-rule:evenodd;stroke-linecap:round;stroke-linejoin:round;stroke-miterlimit:1.5;" version="1.1">
  <style class="text-font-style fontImports" data-font-family="Roboto">@import url('https://fonts.googleapis.com/css2?family=Roboto:wght@400;700&amp;display=block');</style>
  <rect x="0" y="0" width="816" height="636" fill="#252a34" stroke="none" id="programmatic_background"/>
  <g id="g-root-tf_7r77s1jtzw1z-stroke-fill" data-item-order="-716040" transform="translate(18, 12)"/>
  <g id="g-root-sy_-1_cu_dkgnrc1jtyih0-stroke-fill" data-item-order="-316218" transform="translate(32, 265.00390625)">
    <g id="sy_-1_cu_dkgnrc1jtyih0-fill" stroke="none" fill="none">
      <g>
        <path d="M 10.001 143L 10 47L 67 47L 70 59L 322 59L 319 47L 367 47L 370 59L 622 59L 619 47L 646 47L 646 10L 742 95L 646.002 180L 646 143L 619 143L 622 131L 370 131L 367 143L 319.001 143L 322.001 131L 70.001 131L 67.001 143L 10.001 143Z"/>
      </g>
    </g>
    <g id="sy_-1_cu_dkgnrc1jtyih0-stroke" fill="none" stroke-linecap="round" stroke-linejoin="round" stroke-miterlimit="4" stroke="#f4f4f4" stroke-width="2">
      <g>
        <path d="M 10.001 143L 10 47L 67 47L 70 59L 322 59L 319 47L 367 47L 370 59L 622 59L 619 47L 646 47L 646 10L 742 95L 646.0017 180L 646 143L 619 143L 622 131L 370 131L 367 143L 319.001 143L 322.001 131L 70.001 131L 67.001 143L 10.001 143Z"/>
      </g>
    </g>
  </g>
  <g id="g-root-sy_4_cu_9mmh41jtygw5-stroke-fill" data-item-order="-316214" transform="translate(347, 386)">
    <g id="sy_4_cu_9mmh41jtygw5-fill" stroke="none" fill="none">
      <g>
        <path d="M 307 10L 295 58L 43 58L 55 10L 307 10ZM 291.992188 70L 279.992188 118L 27.992188 118L 39.992188 70L 291.992188 70ZM 277 130L 25 130L 10 190L 262 190L 277 130Z"/>
      </g>
    </g>
    <g id="sy_4_cu_9mmh41jtygw5-stroke" fill="none" stroke-linecap="round" stroke-linejoin="round" stroke-miterlimit="4" stroke="#ffe711" stroke-width="2">
      <g>
        <path d="M 307 10L 295 58L 43 58L 55 10L 307 10ZM 291.992188 70L 279.992188 118L 27.992188 118L 39.992188 70L 291.992188 70ZM 277 130L 25 130L 10 190L 262 190L 277 130Z"/>
      </g>
    </g>
  </g>
  <g id="g-root-sy_3_cu_1lza62w1jtyi9y-stroke-fill" data-item-order="-316210" transform="translate(347, 134)">
    <g id="sy_3_cu_1lza62w1jtyi9y-fill" stroke="none" fill="none">
      <g>
        <path d="M 307 190L 295 142L 43 142L 55 190L 307 190ZM 291.992188 130L 279.992188 82L 27.992188 82L 39.992188 130L 291.992188 130ZM 277 70L 25 70L 10 10L 262 10L 277 70Z"/>
      </g>
    </g>
    <g id="sy_3_cu_1lza62w1jtyi9y-stroke" fill="none" stroke-linecap="round" stroke-linejoin="round" stroke-miterlimit="4" stroke="#f79438" stroke-width="2">
      <g>
        <path d="M 307 190L 295 142L 43 142L 55 190L 307 190ZM 291.992188 130L 279.992188 82L 27.992188 82L 39.992188 130L 291.992188 130ZM 277 70L 25 70L 10 10L 262 10L 277 70Z"/>
      </g>
    </g>
  </g>
  <g id="g-root-sy_2_cu_zitj601jtzw27-stroke-fill" data-item-order="-316206" transform="translate(47, 386)">
    <g id="sy_2_cu_zitj601jtzw27-fill" stroke="none" fill="none">
      <g>
        <path d="M 307.000977 10L 295.000977 58L 43.000977 58L 55.000977 10L 307.000977 10ZM 291.993164 70L 279.993164 118L 27.993164 118L 39.993164 70L 291.993164 70ZM 277.001 130L 25.001 130L 10 190L 262 190L 277.001 130Z"/>
      </g>
    </g>
    <g id="sy_2_cu_zitj601jtzw27-stroke" fill="none" stroke-linecap="round" stroke-linejoin="round" stroke-miterlimit="4" stroke="#b7b7b7" stroke-width="2">
      <g>
        <path d="M 307.000977 10L 295.000977 58L 43.000977 58L 55.000977 10L 307.000977 10ZM 291.993164 70L 279.993164 118L 27.993164 118L 39.993164 70L 291.993164 70ZM 277.001 130L 25.001 130L 10 190L 262 190L 277.001 130Z"/>
      </g>
    </g>
  </g>
  <g id="g-root-sy_1_cu_hs5zrc1jtzv9k-stroke-fill" data-item-order="-316202" transform="translate(47, 134)">
    <g id="sy_1_cu_hs5zrc1jtzv9k-fill" stroke="none" fill="none">
      <g>
        <path d="M 307 190L 295 142L 43 142L 55 190L 307 190ZM 291.992188 130L 279.992188 82L 27.992188 82L 39.992188 130L 291.992188 130ZM 277 70L 25 70L 10 10L 262 10L 277 70Z"/>
      </g>
    </g>
    <g id="sy_1_cu_hs5zrc1jtzv9k-stroke" fill="none" stroke-linecap="round" stroke-linejoin="round" stroke-miterlimit="4" stroke="#43dd93" stroke-width="2">
      <g>
        <path d="M 307 190L 295 142L 43 142L 55 190L 307 190ZM 291.992188 130L 279.992188 82L 27.992188 82L 39.992188 130L 291.992188 130ZM 277 70L 25 70L 10 10L 262 10L 277 70Z"/>
      </g>
    </g>
  </g>
  <g id="g-root-tx_unexplai_4gphe01jtzwuh-stroke-fill" data-item-order="0" transform="translate(380, 332)">
    <g id="tx_unexplai_4gphe01jtzwuh-fill" stroke="none" fill="#4f91fc">
      <g>
        <text style="font: bold 25px Roboto, sans-serif; white-space: pre;" font-weight="bold" font-size="25px" font-family="Roboto, sans-serif">
          <tspan x="18.81" y="43" dominant-baseline="ideographic">Unexplained UFO Encounter</tspan>
        </text>
      </g>
    </g>
  </g>
  <g id="g-root-tx_corrobor_zkoyfc1jtzv2i-stroke-fill" data-item-order="0" transform="translate(452, 398)">
    <g id="tx_corrobor_zkoyfc1jtzv2i-fill" stroke="none" fill="#ffe711">
      <g>
        <text style="font: 15px Roboto, sans-serif; white-space: pre;" font-size="15px" font-family="Roboto, sans-serif">
          <tspan x="18.17" y="31" dominant-baseline="ideographic">Corroboration of Events</tspan>
        </text>
      </g>
    </g>
  </g>
  <g id="g-root-tx_delayeda_htexxk1jtzxfn-stroke-fill" data-item-order="0" transform="translate(461, 458)">
    <g id="tx_delayeda_htexxk1jtzxfn-fill" stroke="none" fill="#ffe711">
      <g>
        <text style="font: 15px Roboto, sans-serif; white-space: pre;" font-size="15px" font-family="Roboto, sans-serif">
          <tspan x="15.58" y="31" dominant-baseline="ideographic">Delayed Appearance</tspan>
        </text>
      </g>
    </g>
  </g>
  <g id="g-root-tx_groundwi_4ikwnc1jtzvus-stroke-fill" data-item-order="0" transform="translate(422, 524)">
    <g id="tx_groundwi_4ikwnc1jtzvus-fill" stroke="none" fill="#ffe711">
      <g>
        <text style="font: bold 20px Roboto, sans-serif; white-space: pre;" font-weight="bold" font-size="20px" font-family="Roboto, sans-serif">
          <tspan x="12.22" y="34" dominant-baseline="ideographic">Ground Witnesses</tspan>
        </text>
      </g>
    </g>
  </g>
  <g id="g-root-tx_radioran_141req01jtzwgd-stroke-fill" data-item-order="0" transform="translate(476, 278)">
    <g id="tx_radioran_141req01jtzwgd-fill" stroke="none" fill="#f79438">
      <g>
        <text style="font: 15px Roboto, sans-serif; white-space: pre;" font-size="15px" font-family="Roboto, sans-serif">
          <tspan x="20.89" y="31" dominant-baseline="ideographic">Radio Range Issues</tspan>
        </text>
      </g>
    </g>
  </g>
  <g id="g-root-tx_meteorhy_qqxdfs1jtzuvi-stroke-fill" data-item-order="0" transform="translate(473, 218)">
    <g id="tx_meteorhy_qqxdfs1jtzuvi-fill" stroke="none" fill="#f79438">
      <g>
        <text style="font: 15px Roboto, sans-serif; white-space: pre;" font-size="15px" font-family="Roboto, sans-serif">
          <tspan x="13.69" y="31" dominant-baseline="ideographic">Meteor Hypothesis</tspan>
        </text>
      </g>
    </g>
  </g>
  <g id="g-root-tx_alternat_dfgv2g1jtzwgf-stroke-fill" data-item-order="0" transform="translate(470, 140)">
    <g id="tx_alternat_dfgv2g1jtzwgf-fill" stroke="none" fill="#f79438">
      <g>
        <text style="font: bold 20px Roboto, sans-serif; white-space: pre;" font-weight="bold" font-size="20px" font-family="Roboto, sans-serif">
          <tspan x="29.59" y="34" dominant-baseline="ideographic">Alternative </tspan>
          <tspan x="12.58" y="58" dominant-baseline="ideographic">Explanations</tspan>
        </text>
      </g>
    </g>
  </g>
  <g id="g-root-tx_compassm_4kgbwo1jtzuv4-stroke-fill" data-item-order="0" transform="translate(164, 398)">
    <g id="tx_compassm_4kgbwo1jtzuv4-fill" stroke="none" fill="#b7b7b7">
      <g>
        <text style="font: 15px Roboto, sans-serif; white-space: pre;" font-size="15px" font-family="Roboto, sans-serif">
          <tspan x="16.81" y="31" dominant-baseline="ideographic">Compass Malfunction</tspan>
        </text>
      </g>
    </g>
  </g>
  <g id="g-root-tx_radiomal_1upxdmw1jtzvgp-stroke-fill" data-item-order="0" transform="translate(173, 458)">
    <g id="tx_radiomal_1upxdmw1jtzvgp-fill" stroke="none" fill="#b7b7b7">
      <g>
        <text style="font: 15px Roboto, sans-serif; white-space: pre;" font-size="15px" font-family="Roboto, sans-serif">
          <tspan x="18.3" y="31" dominant-baseline="ideographic">Radio Malfunction</tspan>
        </text>
      </g>
    </g>
  </g>
  <g id="g-root-tx_physical_1cynd541jtzxtu-stroke-fill" data-item-order="0" transform="translate(122, 524)">
    <g id="tx_physical_1cynd541jtzxtu-fill" stroke="none" fill="#b7b7b7">
      <g>
        <text style="font: bold 20px Roboto, sans-serif; white-space: pre;" font-weight="bold" font-size="20px" font-family="Roboto, sans-serif">
          <tspan x="13.97" y="34" dominant-baseline="ideographic">Physical Evidence</tspan>
        </text>
      </g>
    </g>
  </g>
  <g id="g-root-tx_consiste_qs6bm01jtzx1n-stroke-fill" data-item-order="0" transform="translate(125, 218)">
    <g id="tx_consiste_qs6bm01jtzx1n-fill" stroke="none" fill="#43dd93">
      <g>
        <text style="font: 15px Roboto, sans-serif; white-space: pre;" font-size="15px" font-family="Roboto, sans-serif">
          <tspan x="21.7" y="31" dominant-baseline="ideographic">Consistency of Accounts</tspan>
        </text>
      </g>
    </g>
  </g>
  <g id="g-root-tx_credibil_dhcabs1jtzvgs-stroke-fill" data-item-order="0" transform="translate(152, 278)">
    <g id="tx_credibil_dhcabs1jtzvgs-fill" stroke="none" fill="#43dd93">
      <g>
        <text style="font: 15px Roboto, sans-serif; white-space: pre;" font-size="15px" font-family="Roboto, sans-serif">
          <tspan x="19.36" y="31" dominant-baseline="ideographic">Credibility of Witnesses</tspan>
        </text>
      </g>
    </g>
  </g>
  <g id="g-root-tx_witnesst_91is7c1jtzw91-stroke-fill" data-item-order="0" transform="translate(110, 152)">
    <g id="tx_witnesst_91is7c1jtzw91-fill" stroke="none" fill="#43dd93">
      <g>
        <text style="font: bold 20px Roboto, sans-serif; white-space: pre;" font-weight="bold" font-size="20px" font-family="Roboto, sans-serif">
          <tspan x="16.91" y="34" dominant-baseline="ideographic">Witness Testimony</tspan>
        </text>
      </g>
    </g>
  </g>
  <g id="g-root-tx_analyzin_1ur6bt41jtzxmu-stroke-fill" data-item-order="0" transform="translate(176, 50)">
    <g id="tx_analyzin_1ur6bt41jtzxmu-fill" stroke="none" fill="#f4f4f4">
      <g>
        <text style="font: bold 20px Roboto, sans-serif; white-space: pre;" font-weight="bold" font-size="20px" font-family="Roboto, sans-serif">
          <tspan x="15.39" y="34" dominant-baseline="ideographic">Analyzing the Coyne Helicopter UFO Encounter</tspan>
        </text>
      </g>
    </g>
    <defs>
      <pattern id="crawlingPattern-0060fba2" x="0" y="0" width="12" height="12" patternUnits="userSpaceOnUse" fill="#0060fba2">
        <use href="#crawlingSymbol"/>
      </pattern>
      <symbol id="crawlingSymbol">
        <g>
          <path d="M -12.5 12.5 l 13 -13 l 6 0 l -13 13 Z M -0.5 12.5 l 13 -13 l 6 0 l -13 13 Z M 11.5 12.5 l 13 -13 l 6 0 l -13 13 Z"/>
        </g>
      </symbol>
      <pattern id="crawlingPattern-ddc700ff" x="0" y="0" width="12" height="12" patternUnits="userSpaceOnUse" fill="#ddc700ff">
        <use href="#crawlingSymbol"/>
      </pattern>
      <pattern id="crawlingPattern-f17400d3" x="0" y="0" width="12" height="12" patternUnits="userSpaceOnUse" fill="#f17400d3">
        <use href="#crawlingSymbol"/>
      </pattern>
      <pattern id="crawlingPattern-00000024" x="0" y="0" width="12" height="12" patternUnits="userSpaceOnUse" fill="#00000024">
        <use href="#crawlingSymbol"/>
      </pattern>
      <pattern id="crawlingPattern-00b15c75" x="0" y="0" width="12" height="12" patternUnits="userSpaceOnUse" fill="#00b15c75">
        <use href="#crawlingSymbol"/>
      </pattern>
      <pattern id="crawlingPattern-0000001b" x="0" y="0" width="12" height="12" patternUnits="userSpaceOnUse" fill="#0000001b">
        <use href="#crawlingSymbol"/>
      </pattern>
    </defs>
  </g>
</svg>
