<?xml version='1.0' encoding='utf-8'?>
<svg xmlns="http://www.w3.org/2000/svg" xmlns:xlink="http://www.w3.org/1999/xlink" width="720" height="780" viewBox="0 0 720 780" style="fill:none;stroke:none;fill-rule:evenodd;clip-rule:evenodd;stroke-linecap:round;stroke-linejoin:round;stroke-miterlimit:1.5;" version="1.1">
  <style class="text-font-style fontImports" data-font-family="Roboto">@import url('https://fonts.googleapis.com/css2?family=Roboto:wght@400;700&amp;display=block');</style>
  <rect x="0" y="0" width="7.2E+2" height="7.8E+2" fill="#252a34" stroke="none" id="programmatic_background"/>
  <g id="g-root-tf_qvx8vs19u8v7l-stroke-fill" data-item-order="-529656" transform="translate(12, 12)"/>
  <g id="g-root-sy_-1_Vector_qqxg6w19u8v0k-stroke-fill" data-item-order="-15439" transform="translate(230, 149)">
    <g id="sy_-1_Vector_qqxg6w19u8v0k-stroke" fill="none" stroke-linecap="round" stroke-linejoin="round" stroke-miterlimit="4" stroke="#f4f4f4" stroke-width="2">
      <g>
        <path d="M 10 484L 10 394M 10 388L 10 298M 10 292L 10 202M 10 196L 10 106M 10 100L 10 10"/>
      </g>
    </g>
  </g>
  <g id="g-root-sy_-1_line_hvafy019u8vt9-stroke-fill" data-item-order="-15435" transform="translate(230, 629)">
    <g id="sy_-1_line_hvafy019u8vt9-stroke" fill="none" stroke-linecap="round" stroke-linejoin="round" stroke-miterlimit="4" stroke="#f4f4f4" stroke-width="2">
      <g>
        <path d="M 10 94L 10 10"/>
        <path d="M 3.5 88L 10 94.5L 16.5 88" stroke-dasharray="none"/>
      </g>
    </g>
  </g>
  <g id="g-root-sy_6_cu_dfgxtk19u8wli-stroke-fill" data-item-order="-15432" transform="translate(227, 623)">
    <g id="sy_6_cu_dfgxtk19u8wli-fill" stroke="none" fill="none">
      <g>
        <path d="M 13 10L 13 10C 13 10 16 10 16 13L 16 13C 16 13 16 16 13 16L 13 16C 13 16 10 16 10 13L 10 13C 10 13 10 10 13 10"/>
      </g>
    </g>
    <g id="sy_6_cu_dfgxtk19u8wli-stroke" fill="none" stroke-linecap="round" stroke-linejoin="round" stroke-miterlimit="4" stroke="#ffe711" stroke-width="2">
      <g>
        <path d="M 13 10L 13 10C 13 10 16 10 16 13L 16 13C 16 13 16 16 13 16L 13 16C 13 16 10 16 10 13L 10 13C 10 13 10 10 13 10"/>
      </g>
    </g>
    <g id="sy_6_cu_dfgxtk19u8wli-stroke" fill="none" stroke-linecap="round" stroke-linejoin="round" stroke-miterlimit="4" stroke="#ffe711" stroke-width="2">
      <g>
        <path d="M 37 13L 16 13"/>
      </g>
    </g>
  </g>
  <g id="g-root-sy_5_cu_4jtxko19u8xe7-stroke-fill" data-item-order="-15428" transform="translate(227, 527)">
    <g id="sy_5_cu_4jtxko19u8xe7-fill" stroke="none" fill="none">
      <g>
        <path d="M 13 10L 13 10C 13 10 16 10 16 13L 16 13C 16 13 16 16 13 16L 13 16C 13 16 10 16 10 13L 10 13C 10 13 10 10 13 10"/>
      </g>
    </g>
    <g id="sy_5_cu_4jtxko19u8xe7-stroke" fill="none" stroke-linecap="round" stroke-linejoin="round" stroke-miterlimit="4" stroke="#f79438" stroke-width="2">
      <g>
        <path d="M 13 10L 13 10C 13 10 16 10 16 13L 16 13C 16 13 16 16 13 16L 13 16C 13 16 10 16 10 13L 10 13C 10 13 10 10 13 10"/>
      </g>
    </g>
    <g id="sy_5_cu_4jtxko19u8xe7-stroke" fill="none" stroke-linecap="round" stroke-linejoin="round" stroke-miterlimit="4" stroke="#f79438" stroke-width="2">
      <g>
        <path d="M 37 13L 16 13"/>
      </g>
    </g>
  </g>
  <g id="g-root-sy_4_cu_4mwjc19u8v0o-stroke-fill" data-item-order="-15424" transform="translate(227, 431)">
    <g id="sy_4_cu_4mwjc19u8v0o-fill" stroke="none" fill="none">
      <g>
        <path d="M 13 10L 13 10C 13 10 16 10 16 13L 16 13C 16 13 16 16 13 16L 13 16C 13 16 10 16 10 13L 10 13C 10 13 10 10 13 10"/>
      </g>
    </g>
    <g id="sy_4_cu_4mwjc19u8v0o-stroke" fill="none" stroke-linecap="round" stroke-linejoin="round" stroke-miterlimit="4" stroke="#fb6762" stroke-width="2">
      <g>
        <path d="M 13 10L 13 10C 13 10 16 10 16 13L 16 13C 16 13 16 16 13 16L 13 16C 13 16 10 16 10 13L 10 13C 10 13 10 10 13 10"/>
      </g>
    </g>
    <g id="sy_4_cu_4mwjc19u8v0o-stroke" fill="none" stroke-linecap="round" stroke-linejoin="round" stroke-miterlimit="4" stroke="#fb6762" stroke-width="2">
      <g>
        <path d="M 37 13L 16 13"/>
      </g>
    </g>
  </g>
  <g id="g-root-sy_3_cu_1upxge019u8vlt-stroke-fill" data-item-order="-15420" transform="translate(227, 335)">
    <g id="sy_3_cu_1upxge019u8vlt-fill" stroke="none" fill="none">
      <g>
        <path d="M 13 10L 13 10C 13 10 16 10 16 13L 16 13C 16 13 16 16 13 16L 13 16C 13 16 10 16 10 13L 10 13C 10 13 10 10 13 10"/>
      </g>
    </g>
    <g id="sy_3_cu_1upxge019u8vlt-stroke" fill="none" stroke-linecap="round" stroke-linejoin="round" stroke-miterlimit="4" stroke="#f366bb" stroke-width="2">
      <g>
        <path d="M 13 10L 13 10C 13 10 16 10 16 13L 16 13C 16 13 16 16 13 16L 13 16C 13 16 10 16 10 13L 10 13C 10 13 10 10 13 10"/>
      </g>
    </g>
    <g id="sy_3_cu_1upxge019u8vlt-stroke" fill="none" stroke-linecap="round" stroke-linejoin="round" stroke-miterlimit="4" stroke="#f366bb" stroke-width="2">
      <g>
        <path d="M 37 13L 16 13"/>
      </g>
    </g>
  </g>
  <g id="g-root-sy_2_cu_1luag5419u8wei-stroke-fill" data-item-order="-15416" transform="translate(227, 239)">
    <g id="sy_2_cu_1luag5419u8wei-fill" stroke="none" fill="none">
      <g>
        <path d="M 13 10L 13 10C 13 10 16 10 16 13L 16 13C 16 13 16 16 13 16L 13 16C 13 16 10 16 10 13L 10 13C 10 13 10 10 13 10"/>
      </g>
    </g>
    <g id="sy_2_cu_1luag5419u8wei-stroke" fill="none" stroke-linecap="round" stroke-linejoin="round" stroke-miterlimit="4" stroke="#8769fd" stroke-width="2">
      <g>
        <path d="M 13 10L 13 10C 13 10 16 10 16 13L 16 13C 16 13 16 16 13 16L 13 16C 13 16 10 16 10 13L 10 13C 10 13 10 10 13 10"/>
      </g>
    </g>
    <g id="sy_2_cu_1luag5419u8wei-stroke" fill="none" stroke-linecap="round" stroke-linejoin="round" stroke-miterlimit="4" stroke="#8769fd" stroke-width="2">
      <g>
        <path d="M 37 13L 16 13"/>
      </g>
    </g>
  </g>
  <g id="g-root-sy_1_cu_1hegy0o19u8x6r-stroke-fill" data-item-order="-15412" transform="translate(227, 143)">
    <g id="sy_1_cu_1hegy0o19u8x6r-fill" stroke="none" fill="none">
      <g>
        <path d="M 13 10L 13 10C 13 10 16 10 16 13L 16 13C 16 13 16 16 13 16L 13 16C 13 16 10 16 10 13L 10 13C 10 13 10 10 13 10"/>
      </g>
    </g>
    <g id="sy_1_cu_1hegy0o19u8x6r-stroke" fill="none" stroke-linecap="round" stroke-linejoin="round" stroke-miterlimit="4" stroke="#4f91fc" stroke-width="2">
      <g>
        <path d="M 13 10L 13 10C 13 10 16 10 16 13L 16 13C 16 13 16 16 13 16L 13 16C 13 16 10 16 10 13L 10 13C 10 13 10 10 13 10"/>
      </g>
    </g>
    <g id="sy_1_cu_1hegy0o19u8x6r-stroke" fill="none" stroke-linecap="round" stroke-linejoin="round" stroke-miterlimit="4" stroke="#4f91fc" stroke-width="2">
      <g>
        <path d="M 37 13L 16 13"/>
      </g>
    </g>
  </g>
  <g id="g-root-tx_thecynth_18jgeuw19u8uto-stroke-fill" data-item-order="0" transform="translate(68, 50)">
    <g id="tx_thecynth_18jgeuw19u8uto-fill" stroke="none" fill="#f4f4f4">
      <g>
        <text style="font: 20px Roboto, sans-serif; white-space: pre;" font-size="20px" font-family="Roboto, sans-serif">
          <tspan x="15.2" y="34" dominant-baseline="ideographic">The Cynthia Appleton UFO Encounters: A Timeline of Events</tspan>
        </text>
      </g>
    </g>
  </g>
  <g id="g-root-tx_birthofs_v7zwhk19u8wel-stroke-fill" data-item-order="0" transform="translate(278, 614)">
    <g id="tx_birthofs_v7zwhk19u8wel-fill" stroke="none" fill="#f4f4f4">
      <g>
        <text style="font: 20px Roboto, sans-serif; white-space: pre;" font-size="20px" font-family="Roboto, sans-serif">
          <tspan x="12" y="34" dominant-baseline="ideographic">Birth of son Matthew, matching predictions</tspan>
        </text>
      </g>
    </g>
  </g>
  <g id="g-root-tx_finalrep_hx5v7c19u8utq-stroke-fill" data-item-order="0" transform="translate(278, 506)">
    <g id="tx_finalrep_hx5v7c19u8utq-fill" stroke="none" fill="#f4f4f4">
      <g>
        <text style="font: 20px Roboto, sans-serif; white-space: pre;" font-size="20px" font-family="Roboto, sans-serif">
          <tspan x="12" y="34" dominant-baseline="ideographic">Final reported visit and pregnancy </tspan>
          <tspan x="12" y="58" dominant-baseline="ideographic">prediction</tspan>
        </text>
      </g>
    </g>
  </g>
  <g id="g-root-tx_beingvis_4lpcu019u8wen-stroke-fill" data-item-order="0" transform="translate(278, 422)">
    <g id="tx_beingvis_4lpcu019u8wen-fill" stroke="none" fill="#f4f4f4">
      <g>
        <text style="font: 20px Roboto, sans-serif; white-space: pre;" font-size="20px" font-family="Roboto, sans-serif">
          <tspan x="12" y="34" dominant-baseline="ideographic">Being visits in human attire</tspan>
        </text>
      </g>
    </g>
  </g>
  <g id="g-root-tx_twoentit_5vupk19u8x6w-stroke-fill" data-item-order="0" transform="translate(278, 326)">
    <g id="tx_twoentit_5vupk19u8x6w-fill" stroke="none" fill="#f4f4f4">
      <g>
        <text style="font: 20px Roboto, sans-serif; white-space: pre;" font-size="20px" font-family="Roboto, sans-serif">
          <tspan x="12" y="34" dominant-baseline="ideographic">Two entities appear in her home</tspan>
        </text>
      </g>
    </g>
  </g>
  <g id="g-root-tx_firstful_1lw5veg19u8vex-stroke-fill" data-item-order="0" transform="translate(278, 230)">
    <g id="tx_firstful_1lw5veg19u8vex-fill" stroke="none" fill="#f4f4f4">
      <g>
        <text style="font: 20px Roboto, sans-serif; white-space: pre;" font-size="20px" font-family="Roboto, sans-serif">
          <tspan x="12" y="34" dominant-baseline="ideographic">First full encounter with humanoid being</tspan>
        </text>
      </g>
    </g>
  </g>
  <g id="g-root-tx_cynthiae_18kpd1419u8wzu-stroke-fill" data-item-order="0" transform="translate(278, 134)">
    <g id="tx_cynthiae_18kpd1419u8wzu-fill" stroke="none" fill="#f4f4f4">
      <g>
        <text style="font: 20px Roboto, sans-serif; white-space: pre;" font-size="20px" font-family="Roboto, sans-serif">
          <tspan x="12" y="34" dominant-baseline="ideographic">Cynthia experiences a "blackout</tspan>
        </text>
      </g>
    </g>
  </g>
  <g id="g-root-tx_june1195_144vuwo19u8xs3-stroke-fill" data-item-order="0" transform="translate(74, 614)">
    <g id="tx_june1195_144vuwo19u8xs3-fill" stroke="none" fill="#ffe711">
      <g>
        <text style="font: bold 20px Roboto, sans-serif; white-space: pre;" font-weight="bold" font-size="20px" font-family="Roboto, sans-serif">
          <tspan x="23.38" y="34" dominant-baseline="ideographic">June 1, 1959</tspan>
        </text>
      </g>
    </g>
  </g>
  <g id="g-root-tx_septembe_qu1tmg19u8w78-stroke-fill" data-item-order="0" transform="translate(50, 518)">
    <g id="tx_septembe_qu1tmg19u8w78-fill" stroke="none" fill="#f79438">
      <g>
        <text style="font: bold 20px Roboto, sans-serif; white-space: pre;" font-weight="bold" font-size="20px" font-family="Roboto, sans-serif">
          <tspan x="14.48" y="34" dominant-baseline="ideographic">September 1958</tspan>
        </text>
      </g>
    </g>
  </g>
  <g id="g-root-tx_february_hyetdk19u8wzx-stroke-fill" data-item-order="0" transform="translate(50, 422)">
    <g id="tx_february_hyetdk19u8wzx-fill" stroke="none" fill="#fb6762">
      <g>
        <text style="font: bold 20px Roboto, sans-serif; white-space: pre;" font-weight="bold" font-size="20px" font-family="Roboto, sans-serif">
          <tspan x="12.14" y="34" dominant-baseline="ideographic">February 7, 1958</tspan>
        </text>
      </g>
    </g>
  </g>
  <g id="g-root-tx_january7_4nks3c19u8vf2-stroke-fill" data-item-order="0" transform="translate(50, 326)">
    <g id="tx_january7_4nks3c19u8vf2-fill" stroke="none" fill="#f366bb">
      <g>
        <text style="font: bold 20px Roboto, sans-serif; white-space: pre;" font-weight="bold" font-size="20px" font-family="Roboto, sans-serif">
          <tspan x="19.2" y="34" dominant-baseline="ideographic">January 7, 1958</tspan>
        </text>
      </g>
    </g>
  </g>
  <g id="g-root-tx_november_7r9yw19u8w7b-stroke-fill" data-item-order="0" transform="translate(26, 230)">
    <g id="tx_november_7r9yw19u8w7b-fill" stroke="none" fill="#8769fd">
      <g>
        <text style="font: bold 20px Roboto, sans-serif; white-space: pre;" font-weight="bold" font-size="20px" font-family="Roboto, sans-serif">
          <tspan x="11.53" y="34" dominant-baseline="ideographic">November 18, 1957</tspan>
        </text>
      </g>
    </g>
  </g>
  <g id="g-root-tx_november_1lxetko19u8xl4-stroke-fill" data-item-order="0" transform="translate(26, 134)">
    <g id="tx_november_1lxetko19u8xl4-fill" stroke="none" fill="#4f91fc">
      <g>
        <text style="font: bold 20px Roboto, sans-serif; white-space: pre;" font-weight="bold" font-size="20px" font-family="Roboto, sans-serif">
          <tspan x="11.53" y="34" dominant-baseline="ideographic">November 16, 1957</tspan>
        </text>
      </g>
    </g>
    <defs>
      <pattern id="crawlingPattern-0000001b" x="0" y="0" width="12" height="12" patternUnits="userSpaceOnUse" fill="#0000001b">
        <use href="#crawlingSymbol"/>
      </pattern>
      <symbol id="crawlingSymbol">
        <g>
          <path d="M -12.5 12.5 l 13 -13 l 6 0 l -13 13 Z M -0.5 12.5 l 13 -13 l 6 0 l -13 13 Z M 11.5 12.5 l 13 -13 l 6 0 l -13 13 Z"/>
        </g>
      </symbol>
      <pattern id="crawlingPattern-ddc700ff" x="0" y="0" width="12" height="12" patternUnits="userSpaceOnUse" fill="#ddc700ff">
        <use href="#crawlingSymbol"/>
      </pattern>
      <pattern id="crawlingPattern-f17400d3" x="0" y="0" width="12" height="12" patternUnits="userSpaceOnUse" fill="#f17400d3">
        <use href="#crawlingSymbol"/>
      </pattern>
      <pattern id="crawlingPattern-f9080081" x="0" y="0" width="12" height="12" patternUnits="userSpaceOnUse" fill="#f9080081">
        <use href="#crawlingSymbol"/>
      </pattern>
      <pattern id="crawlingPattern-eb008e76" x="0" y="0" width="12" height="12" patternUnits="userSpaceOnUse" fill="#eb008e76">
        <use href="#crawlingSymbol"/>
      </pattern>
      <pattern id="crawlingPattern-3300fc7a" x="0" y="0" width="12" height="12" patternUnits="userSpaceOnUse" fill="#3300fc7a">
        <use href="#crawlingSymbol"/>
      </pattern>
      <pattern id="crawlingPattern-0060fba2" x="0" y="0" width="12" height="12" patternUnits="userSpaceOnUse" fill="#0060fba2">
        <use href="#crawlingSymbol"/>
      </pattern>
    </defs>
  </g>
</svg>
