<?xml version='1.0' encoding='utf-8'?>
<svg xmlns="http://www.w3.org/2000/svg" xmlns:xlink="http://www.w3.org/1999/xlink" width="816" height="636" viewBox="0 0 816 636" style="fill:none;stroke:none;fill-rule:evenodd;clip-rule:evenodd;stroke-linecap:round;stroke-linejoin:round;stroke-miterlimit:1.5;" version="1.1">
  <style class="text-font-style fontImports" data-font-family="Roboto">@import url('https://fonts.googleapis.com/css2?family=Roboto:wght@400;700&amp;display=block');</style>
  <rect x="0" y="0" width="816" height="636" fill="#252a34" stroke="none" id="programmatic_background"/>
  <g id="g-root-tf_m7ys7c18g3x1f-stroke-fill" data-item-order="-477360" transform="translate(18, 12)">
    <g id="tf_m7ys7c18g3x1f-fill" stroke="none" fill="#2c2c2c">
      <g>
        <path d="M 0 0L 780 0L 780 612L 0 612Z"/>
      </g>
    </g>
    <defs>
      <pattern id="crawlingPattern-7878781a" x="0" y="0" width="12" height="12" patternUnits="userSpaceOnUse" fill="#7878781a">
        <use href="#crawlingSymbol"/>
      </pattern>
      <symbol id="crawlingSymbol">
        <g>
          <path d="M -12.5 12.5 l 13 -13 l 6 0 l -13 13 Z M -0.5 12.5 l 13 -13 l 6 0 l -13 13 Z M 11.5 12.5 l 13 -13 l 6 0 l -13 13 Z"/>
        </g>
      </symbol>
      <pattern id="crawlingPattern-8484841a" x="0" y="0" width="12" height="12" patternUnits="userSpaceOnUse" fill="#8484841a">
        <use href="#crawlingSymbol"/>
      </pattern>
      <pattern id="crawlingPattern-00d16d21" x="0" y="0" width="12" height="12" patternUnits="userSpaceOnUse" fill="#00d16d21">
        <use href="#crawlingSymbol"/>
      </pattern>
      <pattern id="crawlingPattern-a906f51a" x="0" y="0" width="12" height="12" patternUnits="userSpaceOnUse" fill="#a906f51a">
        <use href="#crawlingSymbol"/>
      </pattern>
      <pattern id="crawlingPattern-f908001a" x="0" y="0" width="12" height="12" patternUnits="userSpaceOnUse" fill="#f908001a">
        <use href="#crawlingSymbol"/>
      </pattern>
      <pattern id="crawlingPattern-ffffff38" x="0" y="0" width="12" height="12" patternUnits="userSpaceOnUse" fill="#ffffff38">
        <use href="#crawlingSymbol"/>
      </pattern>
      <pattern id="crawlingPattern-0000001b" x="0" y="0" width="12" height="12" patternUnits="userSpaceOnUse" fill="#0000001b">
        <use href="#crawlingSymbol"/>
      </pattern>
      <pattern id="crawlingPattern-5f5f5f1a" x="0" y="0" width="12" height="12" patternUnits="userSpaceOnUse" fill="#5f5f5f1a">
        <use href="#crawlingSymbol"/>
      </pattern>
    </defs>
  </g>
  <g id="g-root-sy_-1_cu_4mb1hk18g2hhc-stroke-fill" data-item-order="-316218" transform="translate(32, 265.00390625)">
    <g id="sy_-1_cu_4mb1hk18g2hhc-fill" stroke="none" fill="#ababab">
      <g>
        <path d="M 10.001 143L 10 47L 67 47L 70 59L 322 59L 319 47L 367 47L 370 59L 622 59L 619 47L 646 47L 646 10L 742 95L 646.002 180L 646 143L 619 143L 622 131L 370 131L 367 143L 319.001 143L 322.001 131L 70.001 131L 67.001 143L 10.001 143Z"/>
      </g>
    </g>
    <g id="sy_-1_cu_4mb1hk18g2hhc-stroke" fill="none" stroke-linecap="round" stroke-linejoin="round" stroke-miterlimit="4" stroke="#2c2c2c" stroke-width="2">
      <g>
        <path d="M 10.001 143L 10 47L 67 47L 70 59L 322 59L 319 47L 367 47L 370 59L 622 59L 619 47L 646 47L 646 10L 742 95L 646.0017 180L 646 143L 619 143L 622 131L 370 131L 367 143L 319.001 143L 322.001 131L 70.001 131L 67.001 143L 10.001 143Z"/>
      </g>
    </g>
  </g>
  <g id="g-root-sy_4_cu_1urs37s18g2i2x-stroke-fill" data-item-order="-316214" transform="translate(347, 386)">
    <g id="sy_4_cu_1urs37s18g2i2x-fill" stroke="none" fill="#b7b7b7">
      <g>
        <path d="M 307 10L 295 58L 43 58L 55 10L 307 10ZM 291.992188 70L 279.992188 118L 27.992188 118L 39.992188 70L 291.992188 70ZM 277 130L 25 130L 10 190L 262 190L 277 130Z"/>
      </g>
    </g>
    <g id="sy_4_cu_1urs37s18g2i2x-stroke" fill="none" stroke-linecap="round" stroke-linejoin="round" stroke-miterlimit="4" stroke="#2c2c2c" stroke-width="2">
      <g>
        <path d="M 307 10L 295 58L 43 58L 55 10L 307 10ZM 291.992188 70L 279.992188 118L 27.992188 118L 39.992188 70L 291.992188 70ZM 277 130L 25 130L 10 190L 262 190L 277 130Z"/>
      </g>
    </g>
  </g>
  <g id="g-root-sy_3_cu_1hgy1xk18g2gi2-stroke-fill" data-item-order="-316210" transform="translate(347, 134)">
    <g id="sy_3_cu_1hgy1xk18g2gi2-fill" stroke="none" fill="#43dd93">
      <g>
        <path d="M 307 190L 295 142L 43 142L 55 190L 307 190ZM 291.992188 130L 279.992188 82L 27.992188 82L 39.992188 130L 291.992188 130ZM 277 70L 25 70L 10 10L 262 10L 277 70Z"/>
      </g>
    </g>
    <g id="sy_3_cu_1hgy1xk18g2gi2-stroke" fill="none" stroke-linecap="round" stroke-linejoin="round" stroke-miterlimit="4" stroke="#2c2c2c" stroke-width="2">
      <g>
        <path d="M 307 190L 295 142L 43 142L 55 190L 307 190ZM 291.992188 130L 279.992188 82L 27.992188 82L 39.992188 130L 291.992188 130ZM 277 70L 25 70L 10 10L 262 10L 277 70Z"/>
      </g>
    </g>
  </g>
  <g id="g-root-sy_2_cu_1d14jt418g2hab-stroke-fill" data-item-order="-316206" transform="translate(47, 386)">
    <g id="sy_2_cu_1d14jt418g2hab-fill" stroke="none" fill="#cb68f9">
      <g>
        <path d="M 307.000977 10L 295.000977 58L 43.000977 58L 55.000977 10L 307.000977 10ZM 291.993164 70L 279.993164 118L 27.993164 118L 39.993164 70L 291.993164 70ZM 277.001 130L 25.001 130L 10 190L 262 190L 277.001 130Z"/>
      </g>
    </g>
    <g id="sy_2_cu_1d14jt418g2hab-stroke" fill="none" stroke-linecap="round" stroke-linejoin="round" stroke-miterlimit="4" stroke="#2c2c2c" stroke-width="2">
      <g>
        <path d="M 307.000977 10L 295.000977 58L 43.000977 58L 55.000977 10L 307.000977 10ZM 291.993164 70L 279.993164 118L 27.993164 118L 39.993164 70L 291.993164 70ZM 277.001 130L 25.001 130L 10 190L 262 190L 277.001 130Z"/>
      </g>
    </g>
  </g>
  <g id="g-root-sy_1_cu_145hjk818g2i30-stroke-fill" data-item-order="-316202" transform="translate(47, 134)">
    <g id="sy_1_cu_145hjk818g2i30-fill" stroke="none" fill="#fb6762">
      <g>
        <path d="M 307 190L 295 142L 43 142L 55 190L 307 190ZM 291.992188 130L 279.992188 82L 27.992188 82L 39.992188 130L 291.992188 130ZM 277 70L 25 70L 10 10L 262 10L 277 70Z"/>
      </g>
    </g>
    <g id="sy_1_cu_145hjk818g2i30-stroke" fill="none" stroke-linecap="round" stroke-linejoin="round" stroke-miterlimit="4" stroke="#2c2c2c" stroke-width="2">
      <g>
        <path d="M 307 190L 295 142L 43 142L 55 190L 307 190ZM 291.992188 130L 279.992188 82L 27.992188 82L 39.992188 130L 291.992188 130ZM 277 70L 25 70L 10 10L 262 10L 277 70Z"/>
      </g>
    </g>
  </g>
  <g id="g-root-tx_unresolv_zpo1fs18g2iv9-stroke-fill" data-item-order="0" transform="translate(212, 332)">
    <g id="tx_unresolv_zpo1fs18g2iv9-fill" stroke="none" fill="#2c2c2c">
      <g>
        <text style="font: bold 25px Roboto, sans-serif; white-space: pre;" font-weight="bold" font-size="25px" font-family="Roboto, sans-serif">
          <tspan x="14.97" y="43" dominant-baseline="ideographic">Unresolved Mysteries of the Appleton Case</tspan>
        </text>
      </g>
    </g>
  </g>
  <g id="g-root-tx_lostphys_meu05k18g2hae-stroke-fill" data-item-order="0" transform="translate(464, 398)">
    <g id="tx_lostphys_meu05k18g2hae-fill" stroke="none" fill="#2c2c2c">
      <g>
        <text style="font: 15px Roboto, sans-serif; white-space: pre;" font-size="15px" font-family="Roboto, sans-serif">
          <tspan x="11.66" y="31" dominant-baseline="ideographic">Lost Physical Evidence</tspan>
        </text>
      </g>
    </g>
  </g>
  <g id="g-root-tx_disappea_93dhs818g2ivb-stroke-fill" data-item-order="0" transform="translate(401, 458)">
    <g id="tx_disappea_93dhs818g2ivb-fill" stroke="none" fill="#2c2c2c">
      <g>
        <text style="font: 15px Roboto, sans-serif; white-space: pre;" font-size="15px" font-family="Roboto, sans-serif">
          <tspan x="14.22" y="31" dominant-baseline="ideographic">Disappearance of Key Figures</tspan>
        </text>
      </g>
    </g>
  </g>
  <g id="g-root-tx_gapsinev_4o6gqw18g2ghs-stroke-fill" data-item-order="0" transform="translate(422, 524)">
    <g id="tx_gapsinev_4o6gqw18g2ghs-fill" stroke="none" fill="#2c2c2c">
      <g>
        <text style="font: bold 20px Roboto, sans-serif; white-space: pre;" font-weight="bold" font-size="20px" font-family="Roboto, sans-serif">
          <tspan x="22.78" y="34" dominant-baseline="ideographic">Gaps in Evidence</tspan>
        </text>
      </g>
    </g>
  </g>
  <g id="g-root-tx_globalin_1qdu0co18g2hvl-stroke-fill" data-item-order="0" transform="translate(512, 278)">
    <g id="tx_globalin_1qdu0co18g2hvl-fill" stroke="none" fill="#2c2c2c">
      <g>
        <text style="font: 15px Roboto, sans-serif; white-space: pre;" font-size="15px" font-family="Roboto, sans-serif">
          <tspan x="18.84" y="31" dominant-baseline="ideographic">Global Interest</tspan>
        </text>
      </g>
    </g>
  </g>
  <g id="g-root-tx_midlands_1hi703s18g2ioa-stroke-fill" data-item-order="0" transform="translate(389, 218)">
    <g id="tx_midlands_1hi703s18g2ioa-fill" stroke="none" fill="#2c2c2c">
      <g>
        <text style="font: 15px Roboto, sans-serif; white-space: pre;" font-size="15px" font-family="Roboto, sans-serif">
          <tspan x="21.63" y="31" dominant-baseline="ideographic">Midlands Roswell Comparison</tspan>
        </text>
      </g>
    </g>
  </g>
  <g id="g-root-tx_regional_147cytk18g2h3f-stroke-fill" data-item-order="0" transform="translate(386, 152)">
    <g id="tx_regional_147cytk18g2h3f-fill" stroke="none" fill="#2c2c2c">
      <g>
        <text style="font: bold 20px Roboto, sans-serif; white-space: pre;" font-weight="bold" font-size="20px" font-family="Roboto, sans-serif">
          <tspan x="16.91" y="34" dominant-baseline="ideographic">Regional Significance</tspan>
        </text>
      </g>
    </g>
  </g>
  <g id="g-root-tx_research_zrjgp418g2hvo-stroke-fill" data-item-order="0" transform="translate(152, 398)">
    <g id="tx_research_zrjgp418g2hvo-fill" stroke="none" fill="#2c2c2c">
      <g>
        <text style="font: 15px Roboto, sans-serif; white-space: pre;" font-size="15px" font-family="Roboto, sans-serif">
          <tspan x="22.84" y="31" dominant-baseline="ideographic">Research by Ufologists</tspan>
        </text>
      </g>
    </g>
  </g>
  <g id="g-root-tx_document_mg2ybs18g2jgl-stroke-fill" data-item-order="0" transform="translate(89, 458)">
    <g id="tx_document_mg2ybs18g2jgl-fill" stroke="none" fill="#2c2c2c">
      <g>
        <text style="font: 15px Roboto, sans-serif; white-space: pre;" font-size="15px" font-family="Roboto, sans-serif">
          <tspan x="14.42" y="31" dominant-baseline="ideographic">Documented in UFO Magazines</tspan>
        </text>
      </g>
    </g>
  </g>
  <g id="g-root-tx_ufoliter_dl2f6018g2h3i-stroke-fill" data-item-order="0" transform="translate(146, 524)">
    <g id="tx_ufoliter_dl2f6018g2h3i-fill" stroke="none" fill="#2c2c2c">
      <g>
        <text style="font: bold 20px Roboto, sans-serif; white-space: pre;" font-weight="bold" font-size="20px" font-family="Roboto, sans-serif">
          <tspan x="21.78" y="34" dominant-baseline="ideographic">UFO Literature</tspan>
        </text>
      </g>
    </g>
  </g>
  <g id="g-root-tx_televisi_9lwso18g2iof-stroke-fill" data-item-order="0" transform="translate(161, 218)">
    <g id="tx_televisi_9lwso18g2iof-fill" stroke="none" fill="#2c2c2c">
      <g>
        <text style="font: 15px Roboto, sans-serif; white-space: pre;" font-size="15px" font-family="Roboto, sans-serif">
          <tspan x="23.38" y="31" dominant-baseline="ideographic">Television Features</tspan>
        </text>
      </g>
    </g>
  </g>
  <g id="g-root-tx_extensiv_1uuwgnc18g2j9k-stroke-fill" data-item-order="0" transform="translate(140, 278)">
    <g id="tx_extensiv_1uuwgnc18g2j9k-fill" stroke="none" fill="#2c2c2c">
      <g>
        <text style="font: 15px Roboto, sans-serif; white-space: pre;" font-size="15px" font-family="Roboto, sans-serif">
          <tspan x="16.42" y="31" dominant-baseline="ideographic">Extensive Press Coverage</tspan>
        </text>
      </g>
    </g>
  </g>
  <g id="g-root-tx_mediacov_1q5pu8818g3vgh-stroke-fill" data-item-order="0" transform="translate(134, 152)">
    <g id="tx_mediacov_1q5pu8818g3vgh-fill" stroke="none" fill="#2c2c2c">
      <g>
        <text style="font: bold 20px Roboto, sans-serif; white-space: pre;" font-weight="bold" font-size="20px" font-family="Roboto, sans-serif">
          <tspan x="18.5" y="34" dominant-baseline="ideographic">Media Coverage</tspan>
        </text>
      </g>
    </g>
  </g>
  <g id="g-root-tx_analyzin_1cu9buw18g3x1e-stroke-fill" data-item-order="0" transform="translate(200, 50)">
    <g id="tx_analyzin_1cu9buw18g3x1e-fill" stroke="none" fill="#f4f4f4">
      <g>
        <text style="font: bold 20px Roboto, sans-serif; white-space: pre;" font-weight="bold" font-size="20px" font-family="Roboto, sans-serif">
          <tspan x="15" y="34" dominant-baseline="ideographic">Analyzing the Cynthia Appleton UFO Case</tspan>
        </text>
      </g>
    </g>
  </g>
</svg>
