<?xml version='1.0' encoding='utf-8'?>
<svg xmlns="http://www.w3.org/2000/svg" xmlns:xlink="http://www.w3.org/1999/xlink" width="456" height="600" viewBox="0 0 456 600" style="fill:none;stroke:none;fill-rule:evenodd;clip-rule:evenodd;stroke-linecap:round;stroke-linejoin:round;stroke-miterlimit:1.5;" version="1.1">
  <style class="text-font-style fontImports" data-font-family="Roboto">@import url('https://fonts.googleapis.com/css2?family=Roboto:wght@400;700&amp;display=block');</style>
  <rect x="0" y="0" width="456" height="6E+2" fill="#252a34" stroke="none" id="programmatic_background"/>
  <g id="g-root-tf_qp1xs81aoahhk-stroke-fill" data-item-order="-252288" transform="translate(9, 12)"/>
  <g id="g-root-cp_1_column-1_146r70o1ao93b6-stroke-fill" data-item-order="-187190" transform="translate(50, 143)">
    <g id="cp_1_column-1_146r70o1ao93b6-fill" stroke="none" fill="none">
      <g>
        <path d="M 10 13C 10 14.656854 11.343146 16 13 16C 14.656854 16 16 14.656854 16 13C 16 11.343146 14.656854 10 13 10C 11.343146 10 10 11.343146 10 13"/>
      </g>
    </g>
    <g id="cp_1_column-1_146r70o1ao93b6-stroke" fill="none" stroke-linecap="round" stroke-linejoin="round" stroke-miterlimit="4" stroke="#4f91fc" stroke-width="2">
      <g>
        <path d="M 10 13C 10 14.656854 11.343146 16 13 16C 14.656854 16 16 14.656854 16 13C 16 11.343146 14.656854 10 13 10C 11.343146 10 10 11.343146 10 13"/>
      </g>
    </g>
    <g id="cp_1_column-1_146r70o1ao93b6-stroke" fill="none" stroke-linecap="round" stroke-linejoin="round" stroke-miterlimit="4" stroke="#4f91fc" stroke-width="2">
      <g>
        <path d="M 13 16L 13 154"/>
      </g>
    </g>
    <g id="cp_1_column-1_146r70o1ao93b6-fill" stroke="none" fill="none">
      <g>
        <path d="M 10 157C 10 158.656854 11.343146 160 13 160C 14.656854 160 16 158.656854 16 157C 16 155.343146 14.656854 154 13 154C 11.343146 154 10 155.343146 10 157"/>
      </g>
    </g>
    <g id="cp_1_column-1_146r70o1ao93b6-stroke" fill="none" stroke-linecap="round" stroke-linejoin="round" stroke-miterlimit="4" stroke="#4f91fc" stroke-width="2">
      <g>
        <path d="M 10 157C 10 158.656854 11.343146 160 13 160C 14.656854 160 16 158.656854 16 157C 16 155.343146 14.656854 154 13 154C 11.343146 154 10 155.343146 10 157"/>
      </g>
    </g>
  </g>
  <g id="g-root-cp_3_column-3_qvx5qg1ao91qc-stroke-fill" data-item-order="-187174" transform="translate(230, 167)">
    <g id="cp_3_column-3_qvx5qg1ao91qc-fill" stroke="none" fill="none">
      <g>
        <path d="M 10 13C 10 14.656854 11.343146 16 13 16C 14.656854 16 16 14.656854 16 13C 16 11.343146 14.656854 10 13 10C 11.343146 10 10 11.343146 10 13"/>
      </g>
    </g>
    <g id="cp_3_column-3_qvx5qg1ao91qc-stroke" fill="none" stroke-linecap="round" stroke-linejoin="round" stroke-miterlimit="4" stroke="#b7b7b7" stroke-width="2">
      <g>
        <path d="M 10 13C 10 14.656854 11.343146 16 13 16C 14.656854 16 16 14.656854 16 13C 16 11.343146 14.656854 10 13 10C 11.343146 10 10 11.343146 10 13"/>
      </g>
    </g>
    <g id="cp_3_column-3_qvx5qg1ao91qc-stroke" fill="none" stroke-linecap="round" stroke-linejoin="round" stroke-miterlimit="4" stroke="#b7b7b7" stroke-width="2">
      <g>
        <path d="M 12.999999 16L 12.999999 130"/>
      </g>
    </g>
    <g id="cp_3_column-3_qvx5qg1ao91qc-fill" stroke="none" fill="none">
      <g>
        <path d="M 10 133C 10 134.656854 11.343146 136 13 136C 14.656854 136 16 134.656854 16 133C 16 131.343146 14.656854 130 13 130C 11.343146 130 10 131.343146 10 133"/>
      </g>
    </g>
    <g id="cp_3_column-3_qvx5qg1ao91qc-stroke" fill="none" stroke-linecap="round" stroke-linejoin="round" stroke-miterlimit="4" stroke="#b7b7b7" stroke-width="2">
      <g>
        <path d="M 10 133C 10 134.656854 11.343146 136 13 136C 14.656854 136 16 134.656854 16 133C 16 131.343146 14.656854 130 13 130C 11.343146 130 10 131.343146 10 133"/>
      </g>
    </g>
  </g>
  <g id="g-root-cp_1_g-1_i0a5hk1ao92j2-stroke-fill" data-item-order="-187156" transform="translate(53, 302)">
    <g id="cp_1_g-1_i0a5hk1ao92j2-fill" stroke="none" fill="none">
      <g>
        <path d="M 76 10L 10 10L 28 46L 10 82L 76 82L 94 46L 76 10Z"/>
      </g>
    </g>
    <g id="cp_1_g-1_i0a5hk1ao92j2-stroke" fill="none" stroke-linecap="round" stroke-linejoin="round" stroke-miterlimit="4" stroke="#4f91fc" stroke-width="2">
      <g>
        <path d="M 76 10L 10 10L 28 46L 10 82L 76 82L 94 46L 76 10Z"/>
      </g>
    </g>
  </g>
  <g id="g-root-cp_2_g-2_dkgnd41ao93bc-stroke-fill" data-item-order="-187148" transform="translate(143, 302)">
    <g id="cp_2_g-2_dkgnd41ao93bc-fill" stroke="none" fill="none">
      <g>
        <path d="M 76 10L 10 10L 28 46L 10 82L 76 82L 94 46L 76 10Z"/>
      </g>
    </g>
    <g id="cp_2_g-2_dkgnd41ao93bc-stroke" fill="none" stroke-linecap="round" stroke-linejoin="round" stroke-miterlimit="4" stroke="#8769fd" stroke-width="2">
      <g>
        <path d="M 76 10L 10 10L 28 46L 10 82L 76 82L 94 46L 76 10Z"/>
      </g>
    </g>
  </g>
  <g id="g-root-cp_3_g-3_94n58o1ao943m-stroke-fill" data-item-order="-187142" transform="translate(233, 302)">
    <g id="cp_3_g-3_94n58o1ao943m-fill" stroke="none" fill="none">
      <g>
        <path d="M 76 10L 10 10L 28 46L 10 82L 76 82L 94 46L 76 10Z"/>
      </g>
    </g>
    <g id="cp_3_g-3_94n58o1ao943m-stroke" fill="none" stroke-linecap="round" stroke-linejoin="round" stroke-miterlimit="4" stroke="#b7b7b7" stroke-width="2">
      <g>
        <path d="M 76 10L 10 10L 28 46L 10 82L 76 82L 94 46L 76 10Z"/>
      </g>
    </g>
  </g>
  <g id="g-root-cp_2_column-2_9mm2w1ao91qk-stroke-fill" data-item-order="-187134" transform="translate(140, 383)">
    <g id="cp_2_column-2_9mm2w1ao91qk-fill" stroke="none" fill="none">
      <g>
        <path d="M 10 13C 10 14.656854 11.343146 16 13 16C 14.656854 16 16 14.656854 16 13C 16 11.343146 14.656854 10 13 10C 11.343146 10 10 11.343146 10 13"/>
      </g>
    </g>
    <g id="cp_2_column-2_9mm2w1ao91qk-stroke" fill="none" stroke-linecap="round" stroke-linejoin="round" stroke-miterlimit="4" stroke="#8769fd" stroke-width="2">
      <g>
        <path d="M 10 13C 10 14.656854 11.343146 16 13 16C 14.656854 16 16 14.656854 16 13C 16 11.343146 14.656854 10 13 10C 11.343146 10 10 11.343146 10 13"/>
      </g>
    </g>
    <g id="cp_2_column-2_9mm2w1ao91qk-stroke" fill="none" stroke-linecap="round" stroke-linejoin="round" stroke-miterlimit="4" stroke="#8769fd" stroke-width="2">
      <g>
        <path d="M 13 16L 13 130"/>
      </g>
    </g>
    <g id="cp_2_column-2_9mm2w1ao91qk-fill" stroke="none" fill="none">
      <g>
        <path d="M 10 133C 10 134.656854 11.343146 136 13 136C 14.656854 136 16 134.656854 16 133C 16 131.343146 14.656854 130 13 130C 11.343146 130 10 131.343146 10 133"/>
      </g>
    </g>
    <g id="cp_2_column-2_9mm2w1ao91qk-stroke" fill="none" stroke-linecap="round" stroke-linejoin="round" stroke-miterlimit="4" stroke="#8769fd" stroke-width="2">
      <g>
        <path d="M 10 133C 10 134.656854 11.343146 136 13 136C 14.656854 136 16 134.656854 16 133C 16 131.343146 14.656854 130 13 130C 11.343146 130 10 131.343146 10 133"/>
      </g>
    </g>
  </g>
  <g id="g-root-tx_thedayfa_1uux5xk1ao92bq-stroke-fill" data-item-order="0" transform="translate(32, 50)">
    <g id="tx_thedayfa_1uux5xk1ao92bq-fill" stroke="none" fill="#f4f4f4">
      <g>
        <text style="font: 20px Roboto, sans-serif; white-space: pre;" font-size="20px" font-family="Roboto, sans-serif">
          <tspan x="14.48" y="34" dominant-baseline="ideographic">The Day Family Abduction: A Timeline of </tspan>
          <tspan x="163.91" y="58" dominant-baseline="ideographic">Events</tspan>
        </text>
      </g>
    </g>
  </g>
  <g id="g-root-tx_october2_1hjgnk81ao93wn-stroke-fill" data-item-order="0" transform="translate(65, 146)">
    <g id="tx_october2_1hjgnk81ao93wn-fill" stroke="none" fill="#4f91fc">
      <g>
        <text style="font: bold 20px Roboto, sans-serif; white-space: pre;" font-weight="bold" font-size="20px" font-family="Roboto, sans-serif">
          <tspan x="12" y="34" dominant-baseline="ideographic">October 27, </tspan>
          <tspan x="12" y="58" dominant-baseline="ideographic">1974</tspan>
        </text>
      </g>
    </g>
  </g>
  <g id="g-root-tx_aveleyab_1cua1541aoag3k-stroke-fill" data-item-order="0" transform="translate(65, 206)">
    <g id="tx_aveleyab_1cua1541aoag3k-fill" stroke="none" fill="#f4f4f4">
      <g>
        <text style="font: 15px Roboto, sans-serif; white-space: pre;" font-size="15px" font-family="Roboto, sans-serif">
          <tspan x="12" y="28" dominant-baseline="ideographic">Aveley Abduction </tspan>
          <tspan x="12" y="46" dominant-baseline="ideographic">occurs, family </tspan>
          <tspan x="12" y="64" dominant-baseline="ideographic">experiences missing </tspan>
          <tspan x="12" y="82" dominant-baseline="ideographic">time</tspan>
        </text>
      </g>
    </g>
  </g>
  <g id="g-root-tx_2012_qn6iiw1aoaih5-stroke-fill" data-item-order="0" transform="translate(245, 170)">
    <g id="tx_2012_qn6iiw1aoaih5-fill" stroke="none" fill="#b7b7b7">
      <g>
        <text style="font: bold 20px Roboto, sans-serif; white-space: pre;" font-weight="bold" font-size="20px" font-family="Roboto, sans-serif">
          <tspan x="12" y="34" dominant-baseline="ideographic">2012</tspan>
        </text>
      </g>
    </g>
  </g>
  <g id="g-root-tx_localmed_m7zhhk1aoag3m-stroke-fill" data-item-order="0" transform="translate(245, 206)">
    <g id="tx_localmed_m7zhhk1aoag3m-fill" stroke="none" fill="#f4f4f4">
      <g>
        <text style="font: 15px Roboto, sans-serif; white-space: pre;" font-size="15px" font-family="Roboto, sans-serif">
          <tspan x="12" y="28" dominant-baseline="ideographic">Local media </tspan>
          <tspan x="12" y="46" dominant-baseline="ideographic">discusses the case, </tspan>
          <tspan x="12" y="64" dominant-baseline="ideographic">indicating ongoing </tspan>
          <tspan x="12" y="82" dominant-baseline="ideographic">interest</tspan>
        </text>
      </g>
    </g>
  </g>
  <g id="g-root-tx_1974_vyvc1aoaih7-stroke-fill" data-item-order="0" transform="translate(155, 398)">
    <g id="tx_1974_vyvc1aoaih7-fill" stroke="none" fill="#8769fd">
      <g>
        <text style="font: bold 20px Roboto, sans-serif; white-space: pre;" font-weight="bold" font-size="20px" font-family="Roboto, sans-serif">
          <tspan x="12" y="34" dominant-baseline="ideographic">1974</tspan>
        </text>
      </g>
    </g>
  </g>
  <g id="g-root-tx_familybe_1um6iq01aoaj2c-stroke-fill" data-item-order="0" transform="translate(155, 434)">
    <g id="tx_familybe_1um6iq01aoaj2c-fill" stroke="none" fill="#f4f4f4">
      <g>
        <text style="font: 15px Roboto, sans-serif; white-space: pre;" font-size="15px" font-family="Roboto, sans-serif">
          <tspan x="12" y="28" dominant-baseline="ideographic">Family begins </tspan>
          <tspan x="12" y="46" dominant-baseline="ideographic">experiencing </tspan>
          <tspan x="12" y="64" dominant-baseline="ideographic">nightmares and </tspan>
          <tspan x="12" y="82" dominant-baseline="ideographic">seeks hypnosis</tspan>
        </text>
      </g>
    </g>
    <defs>
      <pattern id="crawlingPattern-0000001b" x="0" y="0" width="12" height="12" patternUnits="userSpaceOnUse" fill="#0000001b">
        <use href="#crawlingSymbol"/>
      </pattern>
      <symbol id="crawlingSymbol">
        <g>
          <path d="M -12.5 12.5 l 13 -13 l 6 0 l -13 13 Z M -0.5 12.5 l 13 -13 l 6 0 l -13 13 Z M 11.5 12.5 l 13 -13 l 6 0 l -13 13 Z"/>
        </g>
      </symbol>
      <pattern id="crawlingPattern-0060fba2" x="0" y="0" width="12" height="12" patternUnits="userSpaceOnUse" fill="#0060fba2">
        <use href="#crawlingSymbol"/>
      </pattern>
      <pattern id="crawlingPattern-00000024" x="0" y="0" width="12" height="12" patternUnits="userSpaceOnUse" fill="#00000024">
        <use href="#crawlingSymbol"/>
      </pattern>
      <pattern id="crawlingPattern-3300fc7a" x="0" y="0" width="12" height="12" patternUnits="userSpaceOnUse" fill="#3300fc7a">
        <use href="#crawlingSymbol"/>
      </pattern>
    </defs>
  </g>
</svg>
