<?xml version='1.0' encoding='utf-8'?>
<svg xmlns="http://www.w3.org/2000/svg" xmlns:xlink="http://www.w3.org/1999/xlink" width="768" height="492" viewBox="0 0 768 492" style="fill:none;stroke:none;fill-rule:evenodd;clip-rule:evenodd;stroke-linecap:round;stroke-linejoin:round;stroke-miterlimit:1.5;" version="1.1">
  <style class="text-font-style fontImports" data-font-family="Roboto">@import url('https://fonts.googleapis.com/css2?family=Roboto:wght@400;700&amp;display=block');</style>
  <rect x="0" y="0" width="768" height="492" fill="#252a34" stroke="none" id="programmatic_background"/>
  <g id="g-root-tf_18lxs9419kapza-stroke-fill" data-item-order="-346236" transform="translate(18, 12)"/>
  <g id="g-root-sy_-1_Vector_hwiv6019kaosq-stroke-fill" data-item-order="-13627" transform="translate(379.99609375, 149)">
    <g id="sy_-1_Vector_hwiv6019kaosq-stroke" fill="none" stroke-linecap="round" stroke-linejoin="round" stroke-miterlimit="4" stroke="#f4f4f4" stroke-width="2">
      <g>
        <path d="M 10 196L 10 106M 10 100L 10 10"/>
      </g>
    </g>
  </g>
  <g id="g-root-sy_-1_cu_dgpd1k19kapkz-stroke-fill" data-item-order="-13623" transform="translate(379.99609375, 341)">
    <g id="sy_-1_cu_dgpd1k19kapkz-stroke" fill="none" stroke-linecap="round" stroke-linejoin="round" stroke-miterlimit="4" stroke="#f4f4f4" stroke-width="2">
      <g>
        <path d="M 10.003906 94L 10.003906 10"/>
        <path d="M 3.503906 88L 10.003906 94.5L 16.503906 88" stroke-dasharray="none"/>
      </g>
    </g>
  </g>
  <g id="g-root-sy_3_cu_4l2cso19kaqdo-stroke-fill" data-item-order="-13620" transform="translate(356, 335)">
    <g id="sy_3_cu_4l2cso19kaqdo-fill" stroke="none" fill="none">
      <g>
        <path d="M 34 10L 34 10C 34 10 37 10 37 13L 37 13C 37 13 37 16 34 16L 34 16C 34 16 31 16 31 13L 31 13C 31 13 31 10 34 10"/>
      </g>
    </g>
    <g id="sy_3_cu_4l2cso19kaqdo-stroke" fill="none" stroke-linecap="round" stroke-linejoin="round" stroke-miterlimit="4" stroke="#43dd93" stroke-width="2">
      <g>
        <path d="M 34 10L 34 10C 34 10 37 10 37 13L 37 13C 37 13 37 16 34 16L 34 16C 34 16 31 16 31 13L 31 13C 31 13 31 10 34 10"/>
      </g>
    </g>
    <g id="sy_3_cu_4l2cso19kaqdo-stroke" fill="none" stroke-linecap="round" stroke-linejoin="round" stroke-miterlimit="4" stroke="#43dd93" stroke-width="2">
      <g>
        <path d="M 31 13L 10 13"/>
      </g>
    </g>
  </g>
  <g id="g-root-sy_2_cu_5vbrc19kao05-stroke-fill" data-item-order="-13616" transform="translate(377, 239)">
    <g id="sy_2_cu_5vbrc19kao05-fill" stroke="none" fill="none">
      <g>
        <path d="M 13 10L 13 10C 13 10 16 10 16 13L 16 13C 16 13 16 16 13 16L 13 16C 13 16 10 16 10 13L 10 13C 10 13 10 10 13 10"/>
      </g>
    </g>
    <g id="sy_2_cu_5vbrc19kao05-stroke" fill="none" stroke-linecap="round" stroke-linejoin="round" stroke-miterlimit="4" stroke="#8769fd" stroke-width="2">
      <g>
        <path d="M 13 10L 13 10C 13 10 16 10 16 13L 16 13C 16 13 16 16 13 16L 13 16C 13 16 10 16 10 13L 10 13C 10 13 10 10 13 10"/>
      </g>
    </g>
    <g id="sy_2_cu_5vbrc19kao05-stroke" fill="none" stroke-linecap="round" stroke-linejoin="round" stroke-miterlimit="4" stroke="#8769fd" stroke-width="2">
      <g>
        <path d="M 37 13L 16 13"/>
      </g>
    </g>
  </g>
  <g id="g-root-sy_1_cu_1qbcdhk19kaolq-stroke-fill" data-item-order="-13612" transform="translate(356, 143)">
    <g id="sy_1_cu_1qbcdhk19kaolq-fill" stroke="none" fill="none">
      <g>
        <path d="M 34 10L 34 10C 34 10 37 10 37 13L 37 13C 37 13 37 16 34 16L 34 16C 34 16 31 16 31 13L 31 13C 31 13 31 10 34 10"/>
      </g>
    </g>
    <g id="sy_1_cu_1qbcdhk19kaolq-stroke" fill="none" stroke-linecap="round" stroke-linejoin="round" stroke-miterlimit="4" stroke="#4f91fc" stroke-width="2">
      <g>
        <path d="M 34 10L 34 10C 34 10 37 10 37 13L 37 13C 37 13 37 16 34 16L 34 16C 34 16 31 16 31 13L 31 13C 31 13 31 10 34 10"/>
      </g>
    </g>
    <g id="sy_1_cu_1qbcdhk19kaolq-stroke" fill="none" stroke-linecap="round" stroke-linejoin="round" stroke-miterlimit="4" stroke="#4f91fc" stroke-width="2">
      <g>
        <path d="M 31 13L 10 13"/>
      </g>
    </g>
  </g>
  <g id="g-root-tx_thedayfa_1lvivd419kapdz-stroke-fill" data-item-order="0" transform="translate(164, 50)">
    <g id="tx_thedayfa_1lvivd419kapdz-fill" stroke="none" fill="#f4f4f4">
      <g>
        <text style="font: 20px Roboto, sans-serif; white-space: pre;" font-size="20px" font-family="Roboto, sans-serif">
          <tspan x="14.89" y="34" dominant-baseline="ideographic">The Day Family Abduction: A Timeline of Events</tspan>
        </text>
      </g>
    </g>
  </g>
  <g id="g-root-tx_localmed_1hfpd8o19kaq68-stroke-fill" data-item-order="0" transform="translate(32, 362)">
    <g id="tx_localmed_1hfpd8o19kaq68-fill" stroke="none" fill="#f4f4f4">
      <g>
        <text style="font: 20px Roboto, sans-serif; white-space: pre;" font-size="20px" font-family="Roboto, sans-serif">
          <tspan x="20.69" y="34" dominant-baseline="ideographic">Local media discusses the case, </tspan>
          <tspan x="71.64" y="58" dominant-baseline="ideographic">indicating ongoing interest</tspan>
        </text>
      </g>
    </g>
  </g>
  <g id="g-root-tx_familybe_144vbyg19kaold-stroke-fill" data-item-order="0" transform="translate(428, 266)">
    <g id="tx_familybe_144vbyg19kaold-fill" stroke="none" fill="#f4f4f4">
      <g>
        <text style="font: 20px Roboto, sans-serif; white-space: pre;" font-size="20px" font-family="Roboto, sans-serif">
          <tspan x="12" y="34" dominant-baseline="ideographic">Family begins experiencing </tspan>
          <tspan x="12" y="58" dominant-baseline="ideographic">nightmares and seeks hypnosis</tspan>
        </text>
      </g>
    </g>
  </g>
  <g id="g-root-tx_aveleyab_qtetl419kaq6a-stroke-fill" data-item-order="0" transform="translate(44, 170)">
    <g id="tx_aveleyab_qtetl419kaq6a-fill" stroke="none" fill="#f4f4f4">
      <g>
        <text style="font: 20px Roboto, sans-serif; white-space: pre;" font-size="20px" font-family="Roboto, sans-serif">
          <tspan x="13.7" y="34" dominant-baseline="ideographic">Aveley Abduction occurs, family </tspan>
          <tspan x="69.28" y="58" dominant-baseline="ideographic">experiences missing time</tspan>
        </text>
      </g>
    </g>
  </g>
  <g id="g-root-tx_2012_diksaw19kaolf-stroke-fill" data-item-order="0" transform="translate(272, 326)">
    <g id="tx_2012_diksaw19kaolf-fill" stroke="none" fill="#43dd93">
      <g>
        <text style="font: bold 20px Roboto, sans-serif; white-space: pre;" font-weight="bold" font-size="20px" font-family="Roboto, sans-serif">
          <tspan x="22.09" y="34" dominant-baseline="ideographic">2012</tspan>
        </text>
      </g>
    </g>
  </g>
  <g id="g-root-tx_1974_4mxs2019kape4-stroke-fill" data-item-order="0" transform="translate(428, 230)">
    <g id="tx_1974_4mxs2019kape4-fill" stroke="none" fill="#8769fd">
      <g>
        <text style="font: bold 20px Roboto, sans-serif; white-space: pre;" font-weight="bold" font-size="20px" font-family="Roboto, sans-serif">
          <tspan x="12" y="34" dominant-baseline="ideographic">1974</tspan>
        </text>
      </g>
    </g>
  </g>
  <g id="g-root-tx_october2_1qclbns19kaqrx-stroke-fill" data-item-order="0" transform="translate(164, 134)">
    <g id="tx_october2_1qclbns19kaqrx-fill" stroke="none" fill="#4f91fc">
      <g>
        <text style="font: bold 20px Roboto, sans-serif; white-space: pre;" font-weight="bold" font-size="20px" font-family="Roboto, sans-serif">
          <tspan x="20.91" y="34" dominant-baseline="ideographic">October 27, 1974</tspan>
        </text>
      </g>
    </g>
    <defs>
      <pattern id="crawlingPattern-0000001b" x="0" y="0" width="12" height="12" patternUnits="userSpaceOnUse" fill="#0000001b">
        <use href="#crawlingSymbol"/>
      </pattern>
      <symbol id="crawlingSymbol">
        <g>
          <path d="M -12.5 12.5 l 13 -13 l 6 0 l -13 13 Z M -0.5 12.5 l 13 -13 l 6 0 l -13 13 Z M 11.5 12.5 l 13 -13 l 6 0 l -13 13 Z"/>
        </g>
      </symbol>
      <pattern id="crawlingPattern-00b15c75" x="0" y="0" width="12" height="12" patternUnits="userSpaceOnUse" fill="#00b15c75">
        <use href="#crawlingSymbol"/>
      </pattern>
      <pattern id="crawlingPattern-3300fc7a" x="0" y="0" width="12" height="12" patternUnits="userSpaceOnUse" fill="#3300fc7a">
        <use href="#crawlingSymbol"/>
      </pattern>
      <pattern id="crawlingPattern-0060fba2" x="0" y="0" width="12" height="12" patternUnits="userSpaceOnUse" fill="#0060fba2">
        <use href="#crawlingSymbol"/>
      </pattern>
    </defs>
  </g>
</svg>
