<svg width="456" height="600" viewBox="0 0 456 600" style="fill:none;stroke:none;fill-rule:evenodd;clip-rule:evenodd;stroke-linecap:round;stroke-linejoin:round;stroke-miterlimit:1.5;" version="1.1" xmlns="http://www.w3.org/2000/svg" xmlns:xlink="http://www.w3.org/1999/xlink"><style class="text-font-style fontImports" data-font-family="Roboto">@import url('https://fonts.googleapis.com/css2?family=Roboto:wght@400;700&amp;display=block');</style><g id="g-root-tf_1hd7gw819kkidp-stroke-fill" data-item-order="-252288" transform="translate(9, 12)"></g><g id="g-root-cp_1_column-1_1uuwq4o19kj47b-stroke-fill" data-item-order="-187190" transform="translate(50, 143)"><g id="cp_1_column-1_1uuwq4o19kj47b-fill" stroke="none" fill="none"><g><path d="M 10 13C 10 14.656854 11.343146 16 13 16C 14.656854 16 16 14.656854 16 13C 16 11.343146 14.656854 10 13 10C 11.343146 10 10 11.343146 10 13"></path></g></g><g id="cp_1_column-1_1uuwq4o19kj47b-stroke" fill="none" stroke-linecap="round" stroke-linejoin="round" stroke-miterlimit="4" stroke="#4f91fc" stroke-width="2"><g><path d="M 10 13C 10 14.656854 11.343146 16 13 16C 14.656854 16 16 14.656854 16 13C 16 11.343146 14.656854 10 13 10C 11.343146 10 10 11.343146 10 13"></path></g></g><g id="cp_1_column-1_1uuwq4o19kj47b-stroke-overlay" fill="none" stroke-linecap="round" stroke-linejoin="round" stroke-miterlimit="4" stroke="#0060fb7c" stroke-width="2" stroke-dasharray="4,6"><animate attributeName="stroke-dashoffset" values="30;0" dur="1s" repeatCount="indefinite" begin="0"></animate><g><path d="M 10 13C 10 14.656854 11.343146 16 13 16C 14.656854 16 16 14.656854 16 13C 16 11.343146 14.656854 10 13 10C 11.343146 10 10 11.343146 10 13"></path></g></g><g id="cp_1_column-1_1uuwq4o19kj47b-stroke" fill="none" stroke-linecap="round" stroke-linejoin="round" stroke-miterlimit="4" stroke="#4f91fc" stroke-width="2"><g><path d="M 13 16L 13 154"></path></g></g><g id="cp_1_column-1_1uuwq4o19kj47b-stroke-overlay" fill="none" stroke-linecap="round" stroke-linejoin="round" stroke-miterlimit="4" stroke="#0060fb7c" stroke-width="2" stroke-dasharray="4,6"><animate attributeName="stroke-dashoffset" values="30;0" dur="1s" repeatCount="indefinite" begin="0"></animate><g><path d="M 13 16L 13 154"></path></g></g><g id="cp_1_column-1_1uuwq4o19kj47b-fill" stroke="none" fill="none"><g><path d="M 10 157C 10 158.656854 11.343146 160 13 160C 14.656854 160 16 158.656854 16 157C 16 155.343146 14.656854 154 13 154C 11.343146 154 10 155.343146 10 157"></path></g></g><g id="cp_1_column-1_1uuwq4o19kj47b-stroke" fill="none" stroke-linecap="round" stroke-linejoin="round" stroke-miterlimit="4" stroke="#4f91fc" stroke-width="2"><g><path d="M 10 157C 10 158.656854 11.343146 160 13 160C 14.656854 160 16 158.656854 16 157C 16 155.343146 14.656854 154 13 154C 11.343146 154 10 155.343146 10 157"></path></g></g><g id="cp_1_column-1_1uuwq4o19kj47b-stroke-overlay" fill="none" stroke-linecap="round" stroke-linejoin="round" stroke-miterlimit="4" stroke="#0060fb7c" stroke-width="2" stroke-dasharray="4,6"><animate attributeName="stroke-dashoffset" values="30;0" dur="1s" repeatCount="indefinite" begin="0"></animate><g><path d="M 10 157C 10 158.656854 11.343146 160 13 160C 14.656854 160 16 158.656854 16 157C 16 155.343146 14.656854 154 13 154C 11.343146 154 10 155.343146 10 157"></path></g></g></g><g id="g-root-cp_3_column-3_1hjg7rc19kj5s9-stroke-fill" data-item-order="-187174" transform="translate(230, 167)"><g id="cp_3_column-3_1hjg7rc19kj5s9-fill" stroke="none" fill="none"><g><path d="M 10 13C 10 14.656854 11.343146 16 13 16C 14.656854 16 16 14.656854 16 13C 16 11.343146 14.656854 10 13 10C 11.343146 10 10 11.343146 10 13"></path></g></g><g id="cp_3_column-3_1hjg7rc19kj5s9-stroke" fill="none" stroke-linecap="round" stroke-linejoin="round" stroke-miterlimit="4" stroke="#43dd93" stroke-width="2"><g><path d="M 10 13C 10 14.656854 11.343146 16 13 16C 14.656854 16 16 14.656854 16 13C 16 11.343146 14.656854 10 13 10C 11.343146 10 10 11.343146 10 13"></path></g></g><g id="cp_3_column-3_1hjg7rc19kj5s9-stroke-overlay" fill="none" stroke-linecap="round" stroke-linejoin="round" stroke-miterlimit="4" stroke="#00c5676e" stroke-width="2" stroke-dasharray="4,6"><animate attributeName="stroke-dashoffset" values="30;0" dur="1s" repeatCount="indefinite" begin="0"></animate><g><path d="M 10 13C 10 14.656854 11.343146 16 13 16C 14.656854 16 16 14.656854 16 13C 16 11.343146 14.656854 10 13 10C 11.343146 10 10 11.343146 10 13"></path></g></g><g id="cp_3_column-3_1hjg7rc19kj5s9-stroke" fill="none" stroke-linecap="round" stroke-linejoin="round" stroke-miterlimit="4" stroke="#43dd93" stroke-width="2"><g><path d="M 12.999999 16L 12.999999 130"></path></g></g><g id="cp_3_column-3_1hjg7rc19kj5s9-stroke-overlay" fill="none" stroke-linecap="round" stroke-linejoin="round" stroke-miterlimit="4" stroke="#00c5676e" stroke-width="2" stroke-dasharray="4,6"><animate attributeName="stroke-dashoffset" values="30;0" dur="1s" repeatCount="indefinite" begin="0"></animate><g><path d="M 12.999999 16L 12.999999 130"></path></g></g><g id="cp_3_column-3_1hjg7rc19kj5s9-fill" stroke="none" fill="none"><g><path d="M 10 133C 10 134.656854 11.343146 136 13 136C 14.656854 136 16 134.656854 16 133C 16 131.343146 14.656854 130 13 130C 11.343146 130 10 131.343146 10 133"></path></g></g><g id="cp_3_column-3_1hjg7rc19kj5s9-stroke" fill="none" stroke-linecap="round" stroke-linejoin="round" stroke-miterlimit="4" stroke="#43dd93" stroke-width="2"><g><path d="M 10 133C 10 134.656854 11.343146 136 13 136C 14.656854 136 16 134.656854 16 133C 16 131.343146 14.656854 130 13 130C 11.343146 130 10 131.343146 10 133"></path></g></g><g id="cp_3_column-3_1hjg7rc19kj5s9-stroke-overlay" fill="none" stroke-linecap="round" stroke-linejoin="round" stroke-miterlimit="4" stroke="#00c5676e" stroke-width="2" stroke-dasharray="4,6"><animate attributeName="stroke-dashoffset" values="30;0" dur="1s" repeatCount="indefinite" begin="0"></animate><g><path d="M 10 133C 10 134.656854 11.343146 136 13 136C 14.656854 136 16 134.656854 16 133C 16 131.343146 14.656854 130 13 130C 11.343146 130 10 131.343146 10 133"></path></g></g></g><g id="g-root-cp_1_g-1_1cu9lc819kkhz7-stroke-fill" data-item-order="-187156" transform="translate(53, 302)"><g id="cp_1_g-1_1cu9lc819kkhz7-fill" stroke="none" fill="none"><g><path d="M 76 10L 10 10L 28 46L 10 82L 76 82L 94 46L 76 10Z"></path></g></g><g id="cp_1_g-1_1cu9lc819kkhz7-stroke" fill="none" stroke-linecap="round" stroke-linejoin="round" stroke-miterlimit="4" stroke="#4f91fc" stroke-width="2"><g><path d="M 76 10L 10 10L 28 46L 10 82L 76 82L 94 46L 76 10Z"></path></g></g><g id="cp_1_g-1_1cu9lc819kkhz7-stroke-overlay" fill="none" stroke-linecap="round" stroke-linejoin="round" stroke-miterlimit="4" stroke="#0060fb7c" stroke-width="2" stroke-dasharray="4,6"><animate attributeName="stroke-dashoffset" values="30;0" dur="1s" repeatCount="indefinite" begin="0"></animate><g><path d="M 76 10L 10 10L 28 46L 10 82L 76 82L 94 46L 76 10Z"></path></g></g></g><g id="g-root-cp_2_g-2_13yml3c19kkirx-stroke-fill" data-item-order="-187148" transform="translate(143, 302)"><g id="cp_2_g-2_13yml3c19kkirx-fill" stroke="none" fill="none"><g><path d="M 76 10L 10 10L 28 46L 10 82L 76 82L 94 46L 76 10Z"></path></g></g><g id="cp_2_g-2_13yml3c19kkirx-stroke" fill="none" stroke-linecap="round" stroke-linejoin="round" stroke-miterlimit="4" stroke="#8769fd" stroke-width="2"><g><path d="M 76 10L 10 10L 28 46L 10 82L 76 82L 94 46L 76 10Z"></path></g></g><g id="cp_2_g-2_13yml3c19kkirx-stroke-overlay" fill="none" stroke-linecap="round" stroke-linejoin="round" stroke-miterlimit="4" stroke="#3300fc5e" stroke-width="2" stroke-dasharray="4,6"><animate attributeName="stroke-dashoffset" values="30;0" dur="1s" repeatCount="indefinite" begin="0"></animate><g><path d="M 76 10L 10 10L 28 46L 10 82L 76 82L 94 46L 76 10Z"></path></g></g></g><g id="g-root-cp_3_g-3_zit2yw19kkjk7-stroke-fill" data-item-order="-187142" transform="translate(233, 302)"><g id="cp_3_g-3_zit2yw19kkjk7-fill" stroke="none" fill="none"><g><path d="M 76 10L 10 10L 28 46L 10 82L 76 82L 94 46L 76 10Z"></path></g></g><g id="cp_3_g-3_zit2yw19kkjk7-stroke" fill="none" stroke-linecap="round" stroke-linejoin="round" stroke-miterlimit="4" stroke="#43dd93" stroke-width="2"><g><path d="M 76 10L 10 10L 28 46L 10 82L 76 82L 94 46L 76 10Z"></path></g></g><g id="cp_3_g-3_zit2yw19kkjk7-stroke-overlay" fill="none" stroke-linecap="round" stroke-linejoin="round" stroke-miterlimit="4" stroke="#00c5676e" stroke-width="2" stroke-dasharray="4,6"><animate attributeName="stroke-dashoffset" values="30;0" dur="1s" repeatCount="indefinite" begin="0"></animate><g><path d="M 76 10L 10 10L 28 46L 10 82L 76 82L 94 46L 76 10Z"></path></g></g></g><g id="g-root-cp_2_column-2_v2zkug19kkkch-stroke-fill" data-item-order="-187134" transform="translate(140, 383)"><g id="cp_2_column-2_v2zkug19kkkch-fill" stroke="none" fill="none"><g><path d="M 10 13C 10 14.656854 11.343146 16 13 16C 14.656854 16 16 14.656854 16 13C 16 11.343146 14.656854 10 13 10C 11.343146 10 10 11.343146 10 13"></path></g></g><g id="cp_2_column-2_v2zkug19kkkch-stroke" fill="none" stroke-linecap="round" stroke-linejoin="round" stroke-miterlimit="4" stroke="#8769fd" stroke-width="2"><g><path d="M 10 13C 10 14.656854 11.343146 16 13 16C 14.656854 16 16 14.656854 16 13C 16 11.343146 14.656854 10 13 10C 11.343146 10 10 11.343146 10 13"></path></g></g><g id="cp_2_column-2_v2zkug19kkkch-stroke-overlay" fill="none" stroke-linecap="round" stroke-linejoin="round" stroke-miterlimit="4" stroke="#3300fc5e" stroke-width="2" stroke-dasharray="4,6"><animate attributeName="stroke-dashoffset" values="30;0" dur="1s" repeatCount="indefinite" begin="0"></animate><g><path d="M 10 13C 10 14.656854 11.343146 16 13 16C 14.656854 16 16 14.656854 16 13C 16 11.343146 14.656854 10 13 10C 11.343146 10 10 11.343146 10 13"></path></g></g><g id="cp_2_column-2_v2zkug19kkkch-stroke" fill="none" stroke-linecap="round" stroke-linejoin="round" stroke-miterlimit="4" stroke="#8769fd" stroke-width="2"><g><path d="M 13 16L 13 130"></path></g></g><g id="cp_2_column-2_v2zkug19kkkch-stroke-overlay" fill="none" stroke-linecap="round" stroke-linejoin="round" stroke-miterlimit="4" stroke="#3300fc5e" stroke-width="2" stroke-dasharray="4,6"><animate attributeName="stroke-dashoffset" values="30;0" dur="1s" repeatCount="indefinite" begin="0"></animate><g><path d="M 13 16L 13 130"></path></g></g><g id="cp_2_column-2_v2zkug19kkkch-fill" stroke="none" fill="none"><g><path d="M 10 133C 10 134.656854 11.343146 136 13 136C 14.656854 136 16 134.656854 16 133C 16 131.343146 14.656854 130 13 130C 11.343146 130 10 131.343146 10 133"></path></g></g><g id="cp_2_column-2_v2zkug19kkkch-stroke" fill="none" stroke-linecap="round" stroke-linejoin="round" stroke-miterlimit="4" stroke="#8769fd" stroke-width="2"><g><path d="M 10 133C 10 134.656854 11.343146 136 13 136C 14.656854 136 16 134.656854 16 133C 16 131.343146 14.656854 130 13 130C 11.343146 130 10 131.343146 10 133"></path></g></g><g id="cp_2_column-2_v2zkug19kkkch-stroke-overlay" fill="none" stroke-linecap="round" stroke-linejoin="round" stroke-miterlimit="4" stroke="#3300fc5e" stroke-width="2" stroke-dasharray="4,6"><animate attributeName="stroke-dashoffset" values="30;0" dur="1s" repeatCount="indefinite" begin="0"></animate><g><path d="M 10 133C 10 134.656854 11.343146 136 13 136C 14.656854 136 16 134.656854 16 133C 16 131.343146 14.656854 130 13 130C 11.343146 130 10 131.343146 10 133"></path></g></g></g><g id="g-root-tx_thedayfa_m7z1oo19kkhzf-stroke-fill" data-item-order="0" transform="translate(32, 50)"><g id="tx_thedayfa_m7z1oo19kkhzf-fill" stroke="none" fill="#f4f4f4"><g><text style="font: 20px Roboto, sans-serif; white-space: pre;" font-size="20px" font-family="Roboto, sans-serif"><tspan x="14.48" y="34" dominant-baseline="ideographic">The Day Family Abduction: A Timeline of </tspan><tspan x="163.91" y="58" dominant-baseline="ideographic">Events</tspan></text></g></g><g id="tx_thedayfa_m7z1oo19kkhzf-fill-overlay" stroke="none" fill="url(#crawlingPattern-0000001b)"><g><text style="font: 20px Roboto, sans-serif; white-space: pre;" font-size="20px" font-family="Roboto, sans-serif"><tspan x="14.48" y="34" dominant-baseline="ideographic">The Day Family Abduction: A Timeline of </tspan><tspan x="163.91" y="58" dominant-baseline="ideographic">Events</tspan></text></g></g></g><g id="g-root-tx_october2_8wijbc19kkjkc-stroke-fill" data-item-order="0" transform="translate(65, 146)"><g id="tx_october2_8wijbc19kkjkc-fill" stroke="none" fill="#4f91fc"><g><text style="font: bold 20px Roboto, sans-serif; white-space: pre;" font-weight="bold" font-size="20px" font-family="Roboto, sans-serif"><tspan x="12" y="34" dominant-baseline="ideographic">October 27, </tspan><tspan x="12" y="58" dominant-baseline="ideographic">1974</tspan></text></g></g><g id="tx_october2_8wijbc19kkjkc-fill-overlay" stroke="none" fill="url(#crawlingPattern-0060fba2)"><g><text style="font: bold 20px Roboto, sans-serif; white-space: pre;" font-weight="bold" font-size="20px" font-family="Roboto, sans-serif"><tspan x="12" y="34" dominant-baseline="ideographic">October 27, </tspan><tspan x="12" y="58" dominant-baseline="ideographic">1974</tspan></text></g></g></g><g id="g-root-tx_aveleyab_4gp16w19kkkcl-stroke-fill" data-item-order="0" transform="translate(65, 206)"><g id="tx_aveleyab_4gp16w19kkkcl-fill" stroke="none" fill="#f4f4f4"><g><text style="font: 15px Roboto, sans-serif; white-space: pre;" font-size="15px" font-family="Roboto, sans-serif"><tspan x="12" y="28" dominant-baseline="ideographic">Aveley Abduction </tspan><tspan x="12" y="46" dominant-baseline="ideographic">occurs, family </tspan><tspan x="12" y="64" dominant-baseline="ideographic">experiences missing </tspan><tspan x="12" y="82" dominant-baseline="ideographic">time</tspan></text></g></g><g id="tx_aveleyab_4gp16w19kkkcl-fill-overlay" stroke="none" fill="url(#crawlingPattern-0000001b)"><g><text style="font: 15px Roboto, sans-serif; white-space: pre;" font-size="15px" font-family="Roboto, sans-serif"><tspan x="12" y="28" dominant-baseline="ideographic">Aveley Abduction </tspan><tspan x="12" y="46" dominant-baseline="ideographic">occurs, family </tspan><tspan x="12" y="64" dominant-baseline="ideographic">experiences missing </tspan><tspan x="12" y="82" dominant-baseline="ideographic">time</tspan></text></g></g></g><g id="g-root-tx_2012_1q6z1vs19kkikm-stroke-fill" data-item-order="0" transform="translate(245, 170)"><g id="tx_2012_1q6z1vs19kkikm-fill" stroke="none" fill="#43dd93"><g><text style="font: bold 20px Roboto, sans-serif; white-space: pre;" font-weight="bold" font-size="20px" font-family="Roboto, sans-serif"><tspan x="12" y="34" dominant-baseline="ideographic">2012</tspan></text></g></g><g id="tx_2012_1q6z1vs19kkikm-fill-overlay" stroke="none" fill="url(#crawlingPattern-00b15c75)"><g><text style="font: bold 20px Roboto, sans-serif; white-space: pre;" font-weight="bold" font-size="20px" font-family="Roboto, sans-serif"><tspan x="12" y="34" dominant-baseline="ideographic">2012</tspan></text></g></g></g><g id="g-root-tx_localmed_1hbc1mw19kkjdb-stroke-fill" data-item-order="0" transform="translate(245, 206)"><g id="tx_localmed_1hbc1mw19kkjdb-fill" stroke="none" fill="#f4f4f4"><g><text style="font: 15px Roboto, sans-serif; white-space: pre;" font-size="15px" font-family="Roboto, sans-serif"><tspan x="12" y="28" dominant-baseline="ideographic">Local media </tspan><tspan x="12" y="46" dominant-baseline="ideographic">discusses the case, </tspan><tspan x="12" y="64" dominant-baseline="ideographic">indicating ongoing </tspan><tspan x="12" y="82" dominant-baseline="ideographic">interest</tspan></text></g></g><g id="tx_localmed_1hbc1mw19kkjdb-fill-overlay" stroke="none" fill="url(#crawlingPattern-0000001b)"><g><text style="font: 15px Roboto, sans-serif; white-space: pre;" font-size="15px" font-family="Roboto, sans-serif"><tspan x="12" y="28" dominant-baseline="ideographic">Local media </tspan><tspan x="12" y="46" dominant-baseline="ideographic">discusses the case, </tspan><tspan x="12" y="64" dominant-baseline="ideographic">indicating ongoing </tspan><tspan x="12" y="82" dominant-baseline="ideographic">interest</tspan></text></g></g></g><g id="g-root-tx_1974_18fp1e019kkkxs-stroke-fill" data-item-order="0" transform="translate(155, 398)"><g id="tx_1974_18fp1e019kkkxs-fill" stroke="none" fill="#8769fd"><g><text style="font: bold 20px Roboto, sans-serif; white-space: pre;" font-weight="bold" font-size="20px" font-family="Roboto, sans-serif"><tspan x="12" y="34" dominant-baseline="ideographic">1974</tspan></text></g></g><g id="tx_1974_18fp1e019kkkxs-fill-overlay" stroke="none" fill="url(#crawlingPattern-3300fc7a)"><g><text style="font: bold 20px Roboto, sans-serif; white-space: pre;" font-weight="bold" font-size="20px" font-family="Roboto, sans-serif"><tspan x="12" y="34" dominant-baseline="ideographic">1974</tspan></text></g></g></g><g id="g-root-tx_familybe_v4v03s19kkjcx-stroke-fill" data-item-order="0" transform="translate(155, 434)"><g id="tx_familybe_v4v03s19kkjcx-fill" stroke="none" fill="#f4f4f4"><g><text style="font: 15px Roboto, sans-serif; white-space: pre;" font-size="15px" font-family="Roboto, sans-serif"><tspan x="12" y="28" dominant-baseline="ideographic">Family begins </tspan><tspan x="12" y="46" dominant-baseline="ideographic">experiencing </tspan><tspan x="12" y="64" dominant-baseline="ideographic">nightmares and </tspan><tspan x="12" y="82" dominant-baseline="ideographic">seeks hypnosis</tspan></text></g></g><defs><pattern id="crawlingPattern-0000001b" x="0" y="0" width="12" height="12" patternUnits="userSpaceOnUse" fill="#0000001b"><use href="#crawlingSymbol"></use></pattern><symbol id="crawlingSymbol"><g><animateTransform attributeName="transform" type="translate" from="0 0" to="-12 0" dur="0.4s" repeatCount="indefinite"></animateTransform><path d="M -12.5 12.5 l 13 -13 l 6 0 l -13 13 Z M -0.5 12.5 l 13 -13 l 6 0 l -13 13 Z M 11.5 12.5 l 13 -13 l 6 0 l -13 13 Z"></path></g></symbol><pattern id="crawlingPattern-0060fba2" x="0" y="0" width="12" height="12" patternUnits="userSpaceOnUse" fill="#0060fba2"><use href="#crawlingSymbol"></use></pattern><pattern id="crawlingPattern-00b15c75" x="0" y="0" width="12" height="12" patternUnits="userSpaceOnUse" fill="#00b15c75"><use href="#crawlingSymbol"></use></pattern><pattern id="crawlingPattern-3300fc7a" x="0" y="0" width="12" height="12" patternUnits="userSpaceOnUse" fill="#3300fc7a"><use href="#crawlingSymbol"></use></pattern></defs><g id="tx_familybe_v4v03s19kkjcx-fill-overlay" stroke="none" fill="url(#crawlingPattern-0000001b)"><g><text style="font: 15px Roboto, sans-serif; white-space: pre;" font-size="15px" font-family="Roboto, sans-serif"><tspan x="12" y="28" dominant-baseline="ideographic">Family begins </tspan><tspan x="12" y="46" dominant-baseline="ideographic">experiencing </tspan><tspan x="12" y="64" dominant-baseline="ideographic">nightmares and </tspan><tspan x="12" y="82" dominant-baseline="ideographic">seeks hypnosis</tspan></text></g></g></g></svg>