<svg width="1056" height="708" viewBox="0 0 1056 708" style="fill:none;stroke:none;fill-rule:evenodd;clip-rule:evenodd;stroke-linecap:round;stroke-linejoin:round;stroke-miterlimit:1.5;" version="1.1" xmlns="http://www.w3.org/2000/svg" xmlns:xlink="http://www.w3.org/1999/xlink"><style class="text-font-style fontImports" data-font-family="Roboto">@import url('https://fonts.googleapis.com/css2?family=Roboto:wght@400;700&amp;display=block');</style><g id="g-root-tf_de82u019k2b5s-stroke-fill" data-item-order="-705888" transform="translate(12, 12)"></g><g id="g-root-sy_4_cu_405zs19klx5b-stroke-fill" data-item-order="-317369" transform="translate(602, 386)"><g id="sy_4_cu_405zs19klx5b-stroke" fill="none" stroke-linecap="round" stroke-linejoin="round" stroke-miterlimit="4" stroke="#b7b7b7" stroke-width="2"><g><path d="M 33.850586 154.000488L 45.850586 154.000488M 58.200195 70L 70.200195 70M 87.9997 10L 21.9997 238L 10 238"></path></g></g><g id="sy_4_cu_405zs19klx5b-stroke-overlay" fill="none" stroke-linecap="round" stroke-linejoin="round" stroke-miterlimit="4" stroke="#0000001b" stroke-width="2" stroke-dasharray="4,6"><animate attributeName="stroke-dashoffset" values="30;0" dur="1s" repeatCount="indefinite" begin="0"></animate><g><path d="M 33.850586 154.000488L 45.850586 154.000488M 58.200195 70L 70.200195 70M 87.9997 10L 21.9997 238L 10 238"></path></g></g></g><g id="g-root-sy_3_cu_1upapug19klxqg-stroke-fill" data-item-order="-317365" transform="translate(602, 158.00048828125)"><g id="sy_3_cu_1upapug19klxqg-stroke" fill="none" stroke-linecap="round" stroke-linejoin="round" stroke-miterlimit="4" stroke="#1ac3fb" stroke-width="2"><g><path d="M 33.84668 93.999512L 45.84668 93.999512M 58.195313 177.999512L 70.195313 177.999512M 87.9997 238L 21.9997 10L 10 10"></path></g></g><g id="sy_3_cu_1upapug19klxqg-stroke-overlay" fill="none" stroke-linecap="round" stroke-linejoin="round" stroke-miterlimit="4" stroke="#00ade7d7" stroke-width="2" stroke-dasharray="4,6"><animate attributeName="stroke-dashoffset" values="30;0" dur="1s" repeatCount="indefinite" begin="0"></animate><g><path d="M 33.84668 93.999512L 45.84668 93.999512M 58.195313 177.999512L 70.195313 177.999512M 87.9997 238L 21.9997 10L 10 10"></path></g></g></g><g id="g-root-sy_2_cu_1q9h7q019klyip-stroke-fill" data-item-order="-317361" transform="translate(290, 385.99951171875)"><g id="sy_2_cu_1q9h7q019klyip-stroke" fill="none" stroke-linecap="round" stroke-linejoin="round" stroke-miterlimit="4" stroke="#ffe711" stroke-width="2"><g><path d="M 33.851563 154.000488L 45.851563 154.000488M 58.200195 70.000488L 70.200195 70.000488M 87.9997 10L 21.9997 238L 10 238"></path></g></g><g id="sy_2_cu_1q9h7q019klyip-stroke-overlay" fill="none" stroke-linecap="round" stroke-linejoin="round" stroke-miterlimit="4" stroke="#e9d100ff" stroke-width="2" stroke-dasharray="4,6"><animate attributeName="stroke-dashoffset" values="30;0" dur="1s" repeatCount="indefinite" begin="0"></animate><g><path d="M 33.851563 154.000488L 45.851563 154.000488M 58.200195 70.000488L 70.200195 70.000488M 87.9997 10L 21.9997 238L 10 238"></path></g></g></g><g id="g-root-sy_1_cu_1hdu7h419klzbe-stroke-fill" data-item-order="-317357" transform="translate(290, 158.00048828125)"><g id="sy_1_cu_1hdu7h419klzbe-stroke" fill="none" stroke-linecap="round" stroke-linejoin="round" stroke-miterlimit="4" stroke="#43dd93" stroke-width="2"><g><path d="M 33.851563 93.999512L 45.851563 93.999512M 58.200195 177.999512L 70.200195 177.999512M 87.9997 238L 21.9997 10L 10 10"></path></g></g><g id="sy_1_cu_1hdu7h419klzbe-stroke-overlay" fill="none" stroke-linecap="round" stroke-linejoin="round" stroke-miterlimit="4" stroke="#00c5676e" stroke-width="2" stroke-dasharray="4,6"><animate attributeName="stroke-dashoffset" values="30;0" dur="1s" repeatCount="indefinite" begin="0"></animate><g><path d="M 33.851563 93.999512L 45.851563 93.999512M 58.200195 177.999512L 70.200195 177.999512M 87.9997 238L 21.9997 10L 10 10"></path></g></g></g><g id="g-root-sy_-1_line_1cyn6fs19klwxv-stroke-fill" data-item-order="-317351" transform="translate(26, 386)"><g id="sy_-1_line_1cyn6fs19klwxv-stroke" fill="none" stroke-linecap="round" stroke-linejoin="round" stroke-miterlimit="4" stroke="#f4f4f4" stroke-width="2"><g><path d="M 704 10L 10 10"></path><path d="M 698 16.5L 704.5 10L 698 3.5" stroke-dasharray="none"></path></g></g><g id="sy_-1_line_1cyn6fs19klwxv-stroke-overlay" fill="none" stroke-linecap="round" stroke-linejoin="round" stroke-miterlimit="4" stroke="#3131311a" stroke-width="2" stroke-dasharray="4,6"><animate attributeName="stroke-dashoffset" values="30;0" dur="1s" repeatCount="indefinite" begin="0"></animate><g><path d="M 704 10L 10 10"></path><path d="M 698 16.5L 704.5 10L 698 3.5" stroke-dasharray="none"></path></g></g></g><g id="g-root-tx_unexplai_143066w19klxqk-stroke-fill" data-item-order="0" transform="translate(794, 350)"><g id="tx_unexplai_143066w19klxqk-fill" stroke="none" fill="#f4f4f4"><g><text style="font: 20px Roboto, sans-serif; white-space: pre;" font-size="20px" font-family="Roboto, sans-serif"><tspan x="12" y="34" dominant-baseline="ideographic">Unexplained </tspan><tspan x="12" y="58" dominant-baseline="ideographic">Phenomena at Delphos </tspan><tspan x="12" y="82" dominant-baseline="ideographic">Ring</tspan></text></g></g><g id="tx_unexplai_143066w19klxqk-fill-overlay" stroke="none" fill="url(#crawlingPattern-0000001b)"><g><text style="font: 20px Roboto, sans-serif; white-space: pre;" font-size="20px" font-family="Roboto, sans-serif"><tspan x="12" y="34" dominant-baseline="ideographic">Unexplained </tspan><tspan x="12" y="58" dominant-baseline="ideographic">Phenomena at Delphos </tspan><tspan x="12" y="82" dominant-baseline="ideographic">Ring</tspan></text></g></g></g><g id="g-root-tx_psycholo_mccms819klwxx-stroke-fill" data-item-order="0" transform="translate(434, 422)"><g id="tx_psycholo_mccms819klwxx-fill" stroke="none" fill="#f4f4f4"><g><text style="font: 20px Roboto, sans-serif; white-space: pre;" font-size="20px" font-family="Roboto, sans-serif"><tspan x="20.14" y="34" dominant-baseline="ideographic">Psychological factors </tspan><tspan x="21.8" y="58" dominant-baseline="ideographic">and cultural influence</tspan></text></g></g><g id="tx_psycholo_mccms819klwxx-fill-overlay" stroke="none" fill="url(#crawlingPattern-0000001b)"><g><text style="font: 20px Roboto, sans-serif; white-space: pre;" font-size="20px" font-family="Roboto, sans-serif"><tspan x="20.14" y="34" dominant-baseline="ideographic">Psychological factors </tspan><tspan x="21.8" y="58" dominant-baseline="ideographic">and cultural influence</tspan></text></g></g></g><g id="g-root-tx_naturalp_90w4ew19klyiu-stroke-fill" data-item-order="0" transform="translate(398, 506)"><g id="tx_naturalp_90w4ew19klyiu-fill" stroke="none" fill="#f4f4f4"><g><text style="font: 20px Roboto, sans-serif; white-space: pre;" font-size="20px" font-family="Roboto, sans-serif"><tspan x="13.58" y="34" dominant-baseline="ideographic">Natural phenomena like </tspan><tspan x="101.23" y="58" dominant-baseline="ideographic">fungal growth</tspan></text></g></g><g id="tx_naturalp_90w4ew19klyiu-fill-overlay" stroke="none" fill="url(#crawlingPattern-0000001b)"><g><text style="font: 20px Roboto, sans-serif; white-space: pre;" font-size="20px" font-family="Roboto, sans-serif"><tspan x="13.58" y="34" dominant-baseline="ideographic">Natural phenomena like </tspan><tspan x="101.23" y="58" dominant-baseline="ideographic">fungal growth</tspan></text></g></g></g><g id="g-root-tx_alternat_1ur653s19klwqv-stroke-fill" data-item-order="0" transform="translate(434, 590)"><g id="tx_alternat_1ur653s19klwqv-fill" stroke="none" fill="#f4f4f4"><g><text style="font: 20px Roboto, sans-serif; white-space: pre;" font-size="20px" font-family="Roboto, sans-serif"><tspan x="32.66" y="34" dominant-baseline="ideographic">Alternative </tspan><tspan x="13.63" y="58" dominant-baseline="ideographic">Explanations</tspan></text></g></g><g id="tx_alternat_1ur653s19klwqv-fill-overlay" stroke="none" fill="url(#crawlingPattern-0000001b)"><g><text style="font: 20px Roboto, sans-serif; white-space: pre;" font-size="20px" font-family="Roboto, sans-serif"><tspan x="32.66" y="34" dominant-baseline="ideographic">Alternative </tspan><tspan x="13.63" y="58" dominant-baseline="ideographic">Explanations</tspan></text></g></g></g><g id="g-root-tx_chemical_1hfpmqg19klybs-stroke-fill" data-item-order="0" transform="translate(422, 302)"><g id="tx_chemical_1hfpmqg19klybs-fill" stroke="none" fill="#f4f4f4"><g><text style="font: 20px Roboto, sans-serif; white-space: pre;" font-size="20px" font-family="Roboto, sans-serif"><tspan x="15.77" y="34" dominant-baseline="ideographic">Chemical similarities to </tspan><tspan x="120.78" y="58" dominant-baseline="ideographic">anesthetics</tspan></text></g></g><g id="tx_chemical_1hfpmqg19klybs-fill-overlay" stroke="none" fill="url(#crawlingPattern-0000001b)"><g><text style="font: 20px Roboto, sans-serif; white-space: pre;" font-size="20px" font-family="Roboto, sans-serif"><tspan x="15.77" y="34" dominant-baseline="ideographic">Chemical similarities to </tspan><tspan x="120.78" y="58" dominant-baseline="ideographic">anesthetics</tspan></text></g></g></g><g id="g-root-tx_organics_144vlg819klwqx-stroke-fill" data-item-order="0" transform="translate(410, 218)"><g id="tx_organics_144vlg819klwqx-fill" stroke="none" fill="#f4f4f4"><g><text style="font: 20px Roboto, sans-serif; white-space: pre;" font-size="20px" font-family="Roboto, sans-serif"><tspan x="14.56" y="34" dominant-baseline="ideographic">Organic substances in </tspan><tspan x="180.53" y="58" dominant-baseline="ideographic">soil</tspan></text></g></g><g id="tx_organics_144vlg819klwqx-fill-overlay" stroke="none" fill="url(#crawlingPattern-0000001b)"><g><text style="font: 20px Roboto, sans-serif; white-space: pre;" font-size="20px" font-family="Roboto, sans-serif"><tspan x="14.56" y="34" dominant-baseline="ideographic">Organic substances in </tspan><tspan x="180.53" y="58" dominant-baseline="ideographic">soil</tspan></text></g></g></g><g id="g-root-tx_scientif_zp23bs19klxj6-stroke-fill" data-item-order="0" transform="translate(386, 146)"><g id="tx_scientif_zp23bs19klxj6-fill" stroke="none" fill="#f4f4f4"><g><text style="font: 20px Roboto, sans-serif; white-space: pre;" font-size="20px" font-family="Roboto, sans-serif"><tspan x="14.41" y="34" dominant-baseline="ideographic">Scientific Analysis</tspan></text></g></g><g id="tx_scientif_zp23bs19klxj6-fill-overlay" stroke="none" fill="url(#crawlingPattern-0000001b)"><g><text style="font: 20px Roboto, sans-serif; white-space: pre;" font-size="20px" font-family="Roboto, sans-serif"><tspan x="14.41" y="34" dominant-baseline="ideographic">Scientific Analysis</tspan></text></g></g></g><g id="g-root-tx_physical_mdlkyg19klz43-stroke-fill" data-item-order="0" transform="translate(146, 422)"><g id="tx_physical_mdlkyg19klz43-fill" stroke="none" fill="#f4f4f4"><g><text style="font: 20px Roboto, sans-serif; white-space: pre;" font-size="20px" font-family="Roboto, sans-serif"><tspan x="18.91" y="34" dominant-baseline="ideographic">Physical effects on </tspan><tspan x="98.33" y="58" dominant-baseline="ideographic">witnesses</tspan></text></g></g><g id="tx_physical_mdlkyg19klz43-fill-overlay" stroke="none" fill="url(#crawlingPattern-0000001b)"><g><text style="font: 20px Roboto, sans-serif; white-space: pre;" font-size="20px" font-family="Roboto, sans-serif"><tspan x="18.91" y="34" dominant-baseline="ideographic">Physical effects on </tspan><tspan x="98.33" y="58" dominant-baseline="ideographic">witnesses</tspan></text></g></g></g><g id="g-root-tx_consiste_dil1so19klwr0-stroke-fill" data-item-order="0" transform="translate(134, 506)"><g id="tx_consiste_dil1so19klwr0-fill" stroke="none" fill="#f4f4f4"><g><text style="font: 20px Roboto, sans-serif; white-space: pre;" font-size="20px" font-family="Roboto, sans-serif"><tspan x="20.77" y="34" dominant-baseline="ideographic">Consistent family </tspan><tspan x="93.83" y="58" dominant-baseline="ideographic">accounts</tspan></text></g></g><g id="tx_consiste_dil1so19klwr0-fill-overlay" stroke="none" fill="url(#crawlingPattern-0000001b)"><g><text style="font: 20px Roboto, sans-serif; white-space: pre;" font-size="20px" font-family="Roboto, sans-serif"><tspan x="20.77" y="34" dominant-baseline="ideographic">Consistent family </tspan><tspan x="93.83" y="58" dominant-baseline="ideographic">accounts</tspan></text></g></g></g><g id="g-root-tx_witnesst_74jfc19klybx-stroke-fill" data-item-order="0" transform="translate(62, 602)"><g id="tx_witnesst_74jfc19klybx-fill" stroke="none" fill="#f4f4f4"><g><text style="font: 20px Roboto, sans-serif; white-space: pre;" font-size="20px" font-family="Roboto, sans-serif"><tspan x="19.22" y="34" dominant-baseline="ideographic">Witness Testimony</tspan></text></g></g><g id="tx_witnesst_74jfc19klybx-fill-overlay" stroke="none" fill="url(#crawlingPattern-0000001b)"><g><text style="font: 20px Roboto, sans-serif; white-space: pre;" font-size="20px" font-family="Roboto, sans-serif"><tspan x="19.22" y="34" dominant-baseline="ideographic">Witness Testimony</tspan></text></g></g></g><g id="g-root-tx_luminesc_1usf3a019klyx2-stroke-fill" data-item-order="0" transform="translate(158, 302)"><g id="tx_luminesc_1usf3a019klyx2-fill" stroke="none" fill="#f4f4f4"><g><text style="font: 20px Roboto, sans-serif; white-space: pre;" font-size="20px" font-family="Roboto, sans-serif"><tspan x="22.72" y="34" dominant-baseline="ideographic">Luminescent ring </tspan><tspan x="83.55" y="58" dominant-baseline="ideographic">substance</tspan></text></g></g><g id="tx_luminesc_1usf3a019klyx2-fill-overlay" stroke="none" fill="url(#crawlingPattern-0000001b)"><g><text style="font: 20px Roboto, sans-serif; white-space: pre;" font-size="20px" font-family="Roboto, sans-serif"><tspan x="22.72" y="34" dominant-baseline="ideographic">Luminescent ring </tspan><tspan x="83.55" y="58" dominant-baseline="ideographic">substance</tspan></text></g></g></g><g id="g-root-tx_hydropho_1hhl1zs19klxc7-stroke-fill" data-item-order="0" transform="translate(146, 218)"><g id="tx_hydropho_1hhl1zs19klxc7-fill" stroke="none" fill="#f4f4f4"><g><text style="font: 20px Roboto, sans-serif; white-space: pre;" font-size="20px" font-family="Roboto, sans-serif"><tspan x="14.48" y="34" dominant-baseline="ideographic">Hydrophobic soil </tspan><tspan x="73.34" y="58" dominant-baseline="ideographic">properties</tspan></text></g></g><g id="tx_hydropho_1hhl1zs19klxc7-fill-overlay" stroke="none" fill="url(#crawlingPattern-0000001b)"><g><text style="font: 20px Roboto, sans-serif; white-space: pre;" font-size="20px" font-family="Roboto, sans-serif"><tspan x="14.48" y="34" dominant-baseline="ideographic">Hydrophobic soil </tspan><tspan x="73.34" y="58" dominant-baseline="ideographic">properties</tspan></text></g></g></g><g id="g-root-tx_physical_1d1rjvc19kly4g-stroke-fill" data-item-order="0" transform="translate(74, 146)"><g id="tx_physical_1d1rjvc19kly4g-fill" stroke="none" fill="#f4f4f4"><g><text style="font: 20px Roboto, sans-serif; white-space: pre;" font-size="20px" font-family="Roboto, sans-serif"><tspan x="16.88" y="34" dominant-baseline="ideographic">Physical Evidence</tspan></text></g></g><g id="tx_physical_1d1rjvc19kly4g-fill-overlay" stroke="none" fill="url(#crawlingPattern-0000001b)"><g><text style="font: 20px Roboto, sans-serif; white-space: pre;" font-size="20px" font-family="Roboto, sans-serif"><tspan x="16.88" y="34" dominant-baseline="ideographic">Physical Evidence</tspan></text></g></g></g><g id="g-root-tx_analyzin_zqxil419klwjl-stroke-fill" data-item-order="0" transform="translate(356, 50)"><g id="tx_analyzin_zqxil419klwjl-fill" stroke="none" fill="#f4f4f4"><g><text style="font: 20px Roboto, sans-serif; white-space: pre;" font-size="20px" font-family="Roboto, sans-serif"><tspan x="13.16" y="34" dominant-baseline="ideographic">Analyzing the Delphos Ring Incident</tspan></text></g></g><defs><pattern id="crawlingPattern-0000001b" x="0" y="0" width="12" height="12" patternUnits="userSpaceOnUse" fill="#0000001b"><use href="#crawlingSymbol"></use></pattern><symbol id="crawlingSymbol"><g><animateTransform attributeName="transform" type="translate" from="0 0" to="-12 0" dur="0.4s" repeatCount="indefinite"></animateTransform><path d="M -12.5 12.5 l 13 -13 l 6 0 l -13 13 Z M -0.5 12.5 l 13 -13 l 6 0 l -13 13 Z M 11.5 12.5 l 13 -13 l 6 0 l -13 13 Z"></path></g></symbol></defs><g id="tx_analyzin_zqxil419klwjl-fill-overlay" stroke="none" fill="url(#crawlingPattern-0000001b)"><g><text style="font: 20px Roboto, sans-serif; white-space: pre;" font-size="20px" font-family="Roboto, sans-serif"><tspan x="13.16" y="34" dominant-baseline="ideographic">Analyzing the Delphos Ring Incident</tspan></text></g></g></g><g id="g-root-ic_cast_qvaic819klxca-stroke-fill" data-item-order="0" transform="translate(254, 140)"><g id="ic_cast_qvaic819klxca-stroke" fill="none" stroke-linecap="round" stroke-linejoin="round" stroke-miterlimit="4" stroke="#f4f4f4" stroke-width="2"><g><path d="M 10.75 28C 10.75 37.526913 18.473087 45.25 28 45.25C 37.526913 45.25 45.25 37.526913 45.25 28C 45.25 18.473087 37.526913 10.75 28 10.75C 18.473087 10.75 10.75 18.473087 10.75 28M 36.25 28C 36.25 23.443651 32.556351 19.75 28 19.75C 23.443653 19.75 19.75 23.443653 19.75 28C 19.75 32.556351 23.443651 36.25 28 36.25M 40.75 28C 40.75 20.95837 35.04163 15.25 28 15.25C 20.95837 15.25 15.25 20.95837 15.25 28C 15.25 35.04163 20.95837 40.75 28 40.75"></path></g></g><g id="ic_cast_qvaic819klxca-stroke-overlay" fill="none" stroke-linecap="round" stroke-linejoin="round" stroke-miterlimit="4" stroke="#3131311a" stroke-width="2" stroke-dasharray="4,6"><animate attributeName="stroke-dashoffset" values="30;0" dur="1s" repeatCount="indefinite" begin="0"></animate><g><path d="M 10.75 28C 10.75 37.526913 18.473087 45.25 28 45.25C 37.526913 45.25 45.25 37.526913 45.25 28C 45.25 18.473087 37.526913 10.75 28 10.75C 18.473087 10.75 10.75 18.473087 10.75 28M 36.25 28C 36.25 23.443651 32.556351 19.75 28 19.75C 23.443653 19.75 19.75 23.443653 19.75 28C 19.75 32.556351 23.443651 36.25 28 36.25M 40.75 28C 40.75 20.95837 35.04163 15.25 28 15.25C 20.95837 15.25 15.25 20.95837 15.25 28C 15.25 35.04163 20.95837 40.75 28 40.75"></path></g></g></g><g id="g-root-ic_4_4otqag19key2z-stroke-fill" data-item-order="0" transform="translate(254, 596)"><g id="ic_4_4otqag19key2z-stroke" fill="none" stroke-linecap="round" stroke-linejoin="round" stroke-miterlimit="4" stroke="#f4f4f4" stroke-width="2"><g><path d="M 15.3115 18.004C 15.310652 22.010874 18.558626 25.259535 22.5655 25.259535C 26.572372 25.259535 29.820347 22.010874 29.8195 18.004C 29.820347 13.997127 26.572372 10.748464 22.5655 10.748464C 18.558626 10.748464 15.310652 13.997127 15.3115 18.004M 13.0825 41.057499L 13.0825 45.185501M 32.701 12.1645C 35.710369 9.94598 39.912971 10.378085 42.407944 13.162553C 44.902908 15.94702 44.872906 20.171675 42.338638 22.920424C 39.804371 25.669172 35.596054 26.04154 32.6185 23.780499M 45.223 45.25L 45.223 37.449997C 45.218445 34.538395 43.939697 31.774666 41.723408 29.886404C 39.507118 27.998144 36.575371 27.174568 33.700001 27.6325M 32.98 45.185501L 32.98 37.449997C 32.98 31.955872 28.526127 27.502001 23.032 27.502001C 20.328215 27.554958 17.751673 28.660267 15.85 30.583002M 19.349499 36.771999C 18.474689 38.586067 16.296549 39.349693 14.4805 38.479L 12.643 37.355499C 10.886079 36.379406 10.248468 34.166878 11.2165 32.405502C 12.090698 30.591623 14.268382 29.827923 16.084 30.698502L 17.923 31.8235C 19.679731 32.799004 20.317402 35.01107 19.349501 36.772003Z"></path></g></g><g id="ic_4_4otqag19key2z-stroke-overlay" fill="none" stroke-linecap="round" stroke-linejoin="round" stroke-miterlimit="4" stroke="#3131311a" stroke-width="2" stroke-dasharray="4,6"><animate attributeName="stroke-dashoffset" values="30;0" dur="1s" repeatCount="indefinite" begin="0"></animate><g><path d="M 15.3115 18.004C 15.310652 22.010874 18.558626 25.259535 22.5655 25.259535C 26.572372 25.259535 29.820347 22.010874 29.8195 18.004C 29.820347 13.997127 26.572372 10.748464 22.5655 10.748464C 18.558626 10.748464 15.310652 13.997127 15.3115 18.004M 13.0825 41.057499L 13.0825 45.185501M 32.701 12.1645C 35.710369 9.94598 39.912971 10.378085 42.407944 13.162553C 44.902908 15.94702 44.872906 20.171675 42.338638 22.920424C 39.804371 25.669172 35.596054 26.04154 32.6185 23.780499M 45.223 45.25L 45.223 37.449997C 45.218445 34.538395 43.939697 31.774666 41.723408 29.886404C 39.507118 27.998144 36.575371 27.174568 33.700001 27.6325M 32.98 45.185501L 32.98 37.449997C 32.98 31.955872 28.526127 27.502001 23.032 27.502001C 20.328215 27.554958 17.751673 28.660267 15.85 30.583002M 19.349499 36.771999C 18.474689 38.586067 16.296549 39.349693 14.4805 38.479L 12.643 37.355499C 10.886079 36.379406 10.248468 34.166878 11.2165 32.405502C 12.090698 30.591623 14.268382 29.827923 16.084 30.698502L 17.923 31.8235C 19.679731 32.799004 20.317402 35.01107 19.349501 36.772003Z"></path></g></g></g><g id="g-root-ic_expe_1464t3s19khr7o-stroke-fill" data-item-order="0" transform="translate(566, 140)"><g id="ic_expe_1464t3s19khr7o-stroke" fill="none" stroke-linecap="round" stroke-linejoin="round" stroke-miterlimit="4" stroke="#f4f4f4" stroke-width="2"><g><path d="M 19.167999 31.528L 19.167999 32.200001L 13.6885 38.891499C 12.762412 40.013947 12.569286 41.570808 13.193053 42.885506C 13.81682 44.200207 15.14485 45.035351 16.6 45.028L 27.744999 45.028C 29.199337 45.033596 30.525764 44.197788 31.148392 42.883461C 31.771019 41.56913 31.577557 40.013313 30.652 38.891499L 25.168001 32.200001L 25.168001 31.532499M 19.167999 24.028L 19.167999 28.528M 25.168001 28.528L 25.168001 24.028M 13.15 39.769001C 14.347955 40.259064 15.628234 40.516647 16.922501 40.528C 19.922501 40.528 22.172501 38.278 25.922501 38.278C 27.662127 38.329338 29.37776 38.69788 30.985001 39.365501M 16.167999 24.028L 28.168001 24.028M 21.990999 11.002C 21.839169 10.941126 21.665392 10.986135 21.562201 11.11306C 21.459009 11.239985 21.450417 11.41929 21.541 11.5555C 22.571682 13.078417 22.664888 15.049627 21.782499 16.663C 21.25493 16.304653 20.845636 15.797733 20.606501 15.2065C 20.568369 15.109835 20.491837 15.033324 20.395159 14.995222C 20.298483 14.95712 20.190329 14.960842 20.0965 15.0055C 18.436634 15.694323 17.360779 17.321455 17.377001 19.1185C 17.411575 21.86483 19.666176 24.063017 22.4125 24.028C 25.158493 24.062183 27.412601 21.864475 27.448 19.1185C 27.380335 15.576246 25.2458 12.401432 21.990999 11.002ZM 37.167999 28.528L 37.167999 12.028M 37.167999 45.028L 37.167999 31.528M 43.167999 31.528L 17.667999 31.528C 16.839573 31.528 16.167999 30.856426 16.167999 30.028L 16.167999 30.028C 16.167999 29.199574 16.839573 28.528 17.667999 28.528L 43.167999 28.528M 32.667999 27.028L 32.667999 33.028"></path></g></g><g id="ic_expe_1464t3s19khr7o-stroke-overlay" fill="none" stroke-linecap="round" stroke-linejoin="round" stroke-miterlimit="4" stroke="#3131311a" stroke-width="2" stroke-dasharray="4,6"><animate attributeName="stroke-dashoffset" values="30;0" dur="1s" repeatCount="indefinite" begin="0"></animate><g><path d="M 19.167999 31.528L 19.167999 32.200001L 13.6885 38.891499C 12.762412 40.013947 12.569286 41.570808 13.193053 42.885506C 13.81682 44.200207 15.14485 45.035351 16.6 45.028L 27.744999 45.028C 29.199337 45.033596 30.525764 44.197788 31.148392 42.883461C 31.771019 41.56913 31.577557 40.013313 30.652 38.891499L 25.168001 32.200001L 25.168001 31.532499M 19.167999 24.028L 19.167999 28.528M 25.168001 28.528L 25.168001 24.028M 13.15 39.769001C 14.347955 40.259064 15.628234 40.516647 16.922501 40.528C 19.922501 40.528 22.172501 38.278 25.922501 38.278C 27.662127 38.329338 29.37776 38.69788 30.985001 39.365501M 16.167999 24.028L 28.168001 24.028M 21.990999 11.002C 21.839169 10.941126 21.665392 10.986135 21.562201 11.11306C 21.459009 11.239985 21.450417 11.41929 21.541 11.5555C 22.571682 13.078417 22.664888 15.049627 21.782499 16.663C 21.25493 16.304653 20.845636 15.797733 20.606501 15.2065C 20.568369 15.109835 20.491837 15.033324 20.395159 14.995222C 20.298483 14.95712 20.190329 14.960842 20.0965 15.0055C 18.436634 15.694323 17.360779 17.321455 17.377001 19.1185C 17.411575 21.86483 19.666176 24.063017 22.4125 24.028C 25.158493 24.062183 27.412601 21.864475 27.448 19.1185C 27.380335 15.576246 25.2458 12.401432 21.990999 11.002ZM 37.167999 28.528L 37.167999 12.028M 37.167999 45.028L 37.167999 31.528M 43.167999 31.528L 17.667999 31.528C 16.839573 31.528 16.167999 30.856426 16.167999 30.028L 16.167999 30.028C 16.167999 29.199574 16.839573 28.528 17.667999 28.528L 43.167999 28.528M 32.667999 27.028L 32.667999 33.028"></path></g></g></g><g id="g-root-ic_2_1czwe3c19kkiyz-stroke-fill" data-item-order="0" transform="translate(566, 596)"><g id="ic_2_1czwe3c19kkiyz-stroke" fill="none" stroke-linecap="round" stroke-linejoin="round" stroke-miterlimit="4" stroke="#f4f4f4" stroke-width="2"><g><path d="M 19.943785 44.875L 19.943785 36.287048C 18.53899 34.985649 17.44948 33.392502 16.745605 31.629398M 34.336899 44.875L 34.336899 40.7626L 36.392952 40.7626C 37.483597 40.7626 38.529701 40.329399 39.30085 39.55825C 40.071999 38.786949 40.505352 37.740997 40.505352 36.650349L 40.505352 32.538101L 43.109802 32.538101C 43.2766 32.5378 43.441002 32.497002 43.588448 32.419151C 43.73605 32.341301 43.862503 32.228649 43.957001 32.091099C 44.05135 31.95355 44.110901 31.795 44.13055 31.629398C 44.150051 31.46365 44.129051 31.29565 44.069351 31.13995C 41.131302 23.518255 39.1693 16.60054 32.777649 14.606936M 11.8615 14.6125C 11.8615 16.538593 13.218077 18.1 14.8915 18.1C 16.564922 18.1 17.921501 16.538593 17.921501 14.6125C 17.921501 12.686407 16.564922 11.125 14.8915 11.125C 13.218077 11.125 11.8615 12.686407 11.8615 14.6125M 22.043215 11.72824L 22.043215 15.38569C 22.043215 16.885225 23.52199 18.10084 25.346199 18.10084C 27.170351 18.10084 28.64905 16.885225 28.64905 15.38569L 28.64905 11.72824M 10 10M 14.891845 18.100855L 14.891845 27.06715M 10 10M 25.3465 11.72824L 25.3465 27.06715"></path></g></g><g id="ic_2_1czwe3c19kkiyz-stroke-overlay" fill="none" stroke-linecap="round" stroke-linejoin="round" stroke-miterlimit="4" stroke="#3131311a" stroke-width="2" stroke-dasharray="4,6"><animate attributeName="stroke-dashoffset" values="30;0" dur="1s" repeatCount="indefinite" begin="0"></animate><g><path d="M 19.943785 44.875L 19.943785 36.287048C 18.53899 34.985649 17.44948 33.392502 16.745605 31.629398M 34.336899 44.875L 34.336899 40.7626L 36.392952 40.7626C 37.483597 40.7626 38.529701 40.329399 39.30085 39.55825C 40.071999 38.786949 40.505352 37.740997 40.505352 36.650349L 40.505352 32.538101L 43.109802 32.538101C 43.2766 32.5378 43.441002 32.497002 43.588448 32.419151C 43.73605 32.341301 43.862503 32.228649 43.957001 32.091099C 44.05135 31.95355 44.110901 31.795 44.13055 31.629398C 44.150051 31.46365 44.129051 31.29565 44.069351 31.13995C 41.131302 23.518255 39.1693 16.60054 32.777649 14.606936M 11.8615 14.6125C 11.8615 16.538593 13.218077 18.1 14.8915 18.1C 16.564922 18.1 17.921501 16.538593 17.921501 14.6125C 17.921501 12.686407 16.564922 11.125 14.8915 11.125C 13.218077 11.125 11.8615 12.686407 11.8615 14.6125M 22.043215 11.72824L 22.043215 15.38569C 22.043215 16.885225 23.52199 18.10084 25.346199 18.10084C 27.170351 18.10084 28.64905 16.885225 28.64905 15.38569L 28.64905 11.72824M 10 10M 14.891845 18.100855L 14.891845 27.06715M 10 10M 25.3465 11.72824L 25.3465 27.06715"></path></g></g></g><g id="g-root-ic_1_253dk19k0u10-stroke-fill" data-item-order="0" transform="translate(734, 362)"><g id="ic_1_253dk19k0u10-stroke" fill="none" stroke-linecap="round" stroke-linejoin="round" stroke-miterlimit="4" stroke="#f4f4f4" stroke-width="2"><g><path d="M 11.002 34C 11.002001 46.702549 21.29945 57 34.001999 57C 46.704548 57 57.001999 46.702549 57.001999 34C 57.001999 21.297451 46.704548 11 34.001999 11C 21.29945 11 11.002001 21.297451 11.002001 34ZM 42.501999 34C 39.425751 33.999928 36.589607 32.33773 35.086288 29.653828C 33.58297 26.969923 33.64711 23.683208 35.253998 21.060001C 34.841999 21.021999 34.424 21 34.001999 21C 26.822039 20.998896 21.000738 26.818705 21.000002 33.998665C 20.999264 41.178627 26.819372 46.999634 33.999336 47C 41.179298 47.00037 47 41.179962 47 34C 47 33.577332 46.98 33.160667 46.939999 32.75C 45.604759 33.569134 44.068474 34.001842 42.501999 34Z"></path></g></g><g id="ic_1_253dk19k0u10-stroke-overlay" fill="none" stroke-linecap="round" stroke-linejoin="round" stroke-miterlimit="4" stroke="#3131311a" stroke-width="2" stroke-dasharray="4,6"><animate attributeName="stroke-dashoffset" values="30;0" dur="1s" repeatCount="indefinite" begin="0"></animate><g><path d="M 11.002 34C 11.002001 46.702549 21.29945 57 34.001999 57C 46.704548 57 57.001999 46.702549 57.001999 34C 57.001999 21.297451 46.704548 11 34.001999 11C 21.29945 11 11.002001 21.297451 11.002001 34ZM 42.501999 34C 39.425751 33.999928 36.589607 32.33773 35.086288 29.653828C 33.58297 26.969923 33.64711 23.683208 35.253998 21.060001C 34.841999 21.021999 34.424 21 34.001999 21C 26.822039 20.998896 21.000738 26.818705 21.000002 33.998665C 20.999264 41.178627 26.819372 46.999634 33.999336 47C 41.179298 47.00037 47 41.179962 47 34C 47 33.577332 46.98 33.160667 46.939999 32.75C 45.604759 33.569134 44.068474 34.001842 42.501999 34Z"></path></g></g></g></svg>