<?xml version='1.0' encoding='utf-8'?>
<svg xmlns="http://www.w3.org/2000/svg" xmlns:xlink="http://www.w3.org/1999/xlink" width="1056" height="708" viewBox="0 0 1056 708" style="fill:none;stroke:none;fill-rule:evenodd;clip-rule:evenodd;stroke-linecap:round;stroke-linejoin:round;stroke-miterlimit:1.5;" version="1.1">
  <style class="text-font-style fontImports" data-font-family="Roboto">@import url('https://fonts.googleapis.com/css2?family=Roboto:wght@400;700&amp;display=block');</style>
  <rect x="0" y="0" width="1056" height="708" fill="#252a34" stroke="none" id="programmatic_background"/>
  <g id="g-root-tf_1hegbx418q7ojw-stroke-fill" data-item-order="-697680" transform="translate(18, 12)"/>
  <g id="g-root-sy_4_cu_zko8rc18qg4xz-stroke-fill" data-item-order="-317369" transform="translate(608, 386)">
    <g id="sy_4_cu_zko8rc18qg4xz-stroke" fill="none" stroke-linecap="round" stroke-linejoin="round" stroke-miterlimit="4" stroke="#b7b7b7" stroke-width="2">
      <g>
        <path d="M 33.850586 154.000488L 45.850586 154.000488M 58.200195 70L 70.200195 70M 87.9997 10L 21.9997 238L 10 238"/>
      </g>
    </g>
  </g>
  <g id="g-root-sy_3_cu_v4uqmw18qg5q8-stroke-fill" data-item-order="-317365" transform="translate(608, 158.00048828125)">
    <g id="sy_3_cu_v4uqmw18qg5q8-stroke" fill="none" stroke-linecap="round" stroke-linejoin="round" stroke-miterlimit="4" stroke="#1ac3fb" stroke-width="2">
      <g>
        <path d="M 33.84668 93.999512L 45.84668 93.999512M 58.195313 177.999512L 70.195313 177.999512M 87.9997 238L 21.9997 10L 10 10"/>
      </g>
    </g>
  </g>
  <g id="g-root-sy_2_cu_m97qe018qg6ix-stroke-fill" data-item-order="-317361" transform="translate(296, 385.99951171875)">
    <g id="sy_2_cu_m97qe018qg6ix-stroke" fill="none" stroke-linecap="round" stroke-linejoin="round" stroke-miterlimit="4" stroke="#ffe711" stroke-width="2">
      <g>
        <path d="M 33.851563 154.000488L 45.851563 154.000488M 58.200195 70.000488L 70.200195 70.000488M 87.9997 10L 21.9997 238L 10 238"/>
      </g>
    </g>
  </g>
  <g id="g-root-sy_1_cu_hu0pco18qg45e-stroke-fill" data-item-order="-317357" transform="translate(296, 158.00048828125)">
    <g id="sy_1_cu_hu0pco18qg45e-stroke" fill="none" stroke-linecap="round" stroke-linejoin="round" stroke-miterlimit="4" stroke="#43dd93" stroke-width="2">
      <g>
        <path d="M 33.851563 93.999512L 45.851563 93.999512M 58.200195 177.999512L 70.200195 177.999512M 87.9997 238L 21.9997 10L 10 10"/>
      </g>
    </g>
  </g>
  <g id="g-root-sy_-1_line_hu0pco18qg45f-stroke-fill" data-item-order="-317351" transform="translate(32, 386)">
    <g id="sy_-1_line_hu0pco18qg45f-stroke" fill="none" stroke-linecap="round" stroke-linejoin="round" stroke-miterlimit="4" stroke="#f4f4f4" stroke-width="2">
      <g>
        <path d="M 704 10L 10 10"/>
        <path d="M 698 16.5L 704.5 10L 698 3.5" stroke-dasharray="none"/>
      </g>
    </g>
  </g>
  <g id="g-root-tx_unexplai_8ydp3s18qg4y4-stroke-fill" data-item-order="0" transform="translate(800, 362)">
    <g id="tx_unexplai_8ydp3s18qg4y4-fill" stroke="none" fill="#f4f4f4">
      <g>
        <text style="font: 20px Roboto, sans-serif; white-space: pre;" font-size="20px" font-family="Roboto, sans-serif">
          <tspan x="12" y="34" dominant-baseline="ideographic">Unexplained Delphos </tspan>
          <tspan x="12" y="58" dominant-baseline="ideographic">Ring Incident</tspan>
        </text>
      </g>
    </g>
  </g>
  <g id="g-root-tx_psycholo_1uo18pk18qg6bx-stroke-fill" data-item-order="0" transform="translate(440, 434)">
    <g id="tx_psycholo_1uo18pk18qg6bx-fill" stroke="none" fill="#f4f4f4">
      <g>
        <text style="font: 20px Roboto, sans-serif; white-space: pre;" font-size="20px" font-family="Roboto, sans-serif">
          <tspan x="20.14" y="34" dominant-baseline="ideographic">Psychological factors</tspan>
        </text>
      </g>
    </g>
  </g>
  <g id="g-root-tx_naturalp_1q8u7o818qg3ye-stroke-fill" data-item-order="0" transform="translate(440, 518)">
    <g id="tx_naturalp_1q8u7o818qg3ye-fill" stroke="none" fill="#f4f4f4">
      <g>
        <text style="font: 20px Roboto, sans-serif; white-space: pre;" font-size="20px" font-family="Roboto, sans-serif">
          <tspan x="12.81" y="34" dominant-baseline="ideographic">Natural phenomena</tspan>
        </text>
      </g>
    </g>
  </g>
  <g id="g-root-tx_alternat_1hd77fc18qg4r3-stroke-fill" data-item-order="0" transform="translate(440, 590)">
    <g id="tx_alternat_1hd77fc18qg4r3-fill" stroke="none" fill="#f4f4f4">
      <g>
        <text style="font: 20px Roboto, sans-serif; white-space: pre;" font-size="20px" font-family="Roboto, sans-serif">
          <tspan x="32.66" y="34" dominant-baseline="ideographic">Alternative </tspan>
          <tspan x="13.63" y="58" dominant-baseline="ideographic">Explanations</tspan>
        </text>
      </g>
    </g>
  </g>
  <g id="g-root-tx_chemical_18hk76g18qg6bk-stroke-fill" data-item-order="0" transform="translate(428, 302)">
    <g id="tx_chemical_18hk76g18qg6bk-fill" stroke="none" fill="#f4f4f4">
      <g>
        <text style="font: 20px Roboto, sans-serif; white-space: pre;" font-size="20px" font-family="Roboto, sans-serif">
          <tspan x="15.77" y="34" dominant-baseline="ideographic">Chemical similarities to </tspan>
          <tspan x="120.78" y="58" dominant-baseline="ideographic">anesthetics</tspan>
        </text>
      </g>
    </g>
  </g>
  <g id="g-root-tx_organics_v6q5w818qg4qp-stroke-fill" data-item-order="0" transform="translate(416, 218)">
    <g id="tx_organics_v6q5w818qg4qp-fill" stroke="none" fill="#f4f4f4">
      <g>
        <text style="font: 20px Roboto, sans-serif; white-space: pre;" font-size="20px" font-family="Roboto, sans-serif">
          <tspan x="14.56" y="34" dominant-baseline="ideographic">Organic substances in </tspan>
          <tspan x="180.53" y="58" dominant-baseline="ideographic">soil</tspan>
        </text>
      </g>
    </g>
  </g>
  <g id="g-root-tx_scientif_mb35nc18qg5je-stroke-fill" data-item-order="0" transform="translate(392, 146)">
    <g id="tx_scientif_mb35nc18qg5je-fill" stroke="none" fill="#f4f4f4">
      <g>
        <text style="font: 20px Roboto, sans-serif; white-space: pre;" font-size="20px" font-family="Roboto, sans-serif">
          <tspan x="14.41" y="34" dominant-baseline="ideographic">Scientific Analysis</tspan>
        </text>
      </g>
    </g>
  </g>
  <g id="g-root-tx_physical_hv9niw18qg6bn-stroke-fill" data-item-order="0" transform="translate(152, 422)">
    <g id="tx_physical_hv9niw18qg6bn-fill" stroke="none" fill="#f4f4f4">
      <g>
        <text style="font: 20px Roboto, sans-serif; white-space: pre;" font-size="20px" font-family="Roboto, sans-serif">
          <tspan x="18.91" y="34" dominant-baseline="ideographic">Physical effects on </tspan>
          <tspan x="98.33" y="58" dominant-baseline="ideographic">witnesses</tspan>
        </text>
      </g>
    </g>
  </g>
  <g id="g-root-tx_consiste_9094d418qg3yk-stroke-fill" data-item-order="0" transform="translate(140, 506)">
    <g id="tx_consiste_9094d418qg3yk-fill" stroke="none" fill="#f4f4f4">
      <g>
        <text style="font: 20px Roboto, sans-serif; white-space: pre;" font-size="20px" font-family="Roboto, sans-serif">
          <tspan x="20.77" y="34" dominant-baseline="ideographic">Consistent family </tspan>
          <tspan x="93.83" y="58" dominant-baseline="ideographic">accounts</tspan>
        </text>
      </g>
    </g>
  </g>
  <g id="g-root-tx_witnesst_4kfm8o18qg4qt-stroke-fill" data-item-order="0" transform="translate(68, 602)">
    <g id="tx_witnesst_4kfm8o18qg4qt-fill" stroke="none" fill="#f4f4f4">
      <g>
        <text style="font: 20px Roboto, sans-serif; white-space: pre;" font-size="20px" font-family="Roboto, sans-serif">
          <tspan x="19.22" y="34" dominant-baseline="ideographic">Witness Testimony</tspan>
        </text>
      </g>
    </g>
  </g>
  <g id="g-root-tx_luminesc_1qa35ug18qg64m-stroke-fill" data-item-order="0" transform="translate(116, 314)">
    <g id="tx_luminesc_1qa35ug18qg64m-fill" stroke="none" fill="#f4f4f4">
      <g>
        <text style="font: 20px Roboto, sans-serif; white-space: pre;" font-size="20px" font-family="Roboto, sans-serif">
          <tspan x="13.97" y="34" dominant-baseline="ideographic">Luminescent properties</tspan>
        </text>
      </g>
    </g>
  </g>
  <g id="g-root-tx_hydropho_1hf2moo18qg3rj-stroke-fill" data-item-order="0" transform="translate(152, 230)">
    <g id="tx_hydropho_1hf2moo18qg3rj-fill" stroke="none" fill="#f4f4f4">
      <g>
        <text style="font: 20px Roboto, sans-serif; white-space: pre;" font-size="20px" font-family="Roboto, sans-serif">
          <tspan x="14.48" y="34" dominant-baseline="ideographic">Hydrophobic soil</tspan>
        </text>
      </g>
    </g>
  </g>
  <g id="g-root-tx_physical_1cz94k818qg4js-stroke-fill" data-item-order="0" transform="translate(80, 146)">
    <g id="tx_physical_1cz94k818qg4js-fill" stroke="none" fill="#f4f4f4">
      <g>
        <text style="font: 20px Roboto, sans-serif; white-space: pre;" font-size="20px" font-family="Roboto, sans-serif">
          <tspan x="16.88" y="34" dominant-baseline="ideographic">Physical Evidence</tspan>
        </text>
      </g>
    </g>
  </g>
  <g id="g-root-tx_analyzin_znsm6w18qg64p-stroke-fill" data-item-order="0" transform="translate(362, 50)">
    <g id="tx_analyzin_znsm6w18qg64p-fill" stroke="none" fill="#f4f4f4">
      <g>
        <text style="font: 20px Roboto, sans-serif; white-space: pre;" font-size="20px" font-family="Roboto, sans-serif">
          <tspan x="13.16" y="34" dominant-baseline="ideographic">Analyzing the Delphos Ring Incident</tspan>
        </text>
      </g>
    </g>
    <defs>
      <pattern id="crawlingPattern-0000001b" x="0" y="0" width="12" height="12" patternUnits="userSpaceOnUse" fill="#0000001b">
        <use href="#crawlingSymbol"/>
      </pattern>
      <symbol id="crawlingSymbol">
        <g>
          <path d="M -12.5 12.5 l 13 -13 l 6 0 l -13 13 Z M -0.5 12.5 l 13 -13 l 6 0 l -13 13 Z M 11.5 12.5 l 13 -13 l 6 0 l -13 13 Z"/>
        </g>
      </symbol>
    </defs>
  </g>
  <g id="g-root-ic_1_v8ll5k18qg3r6-stroke-fill" data-item-order="0" transform="translate(260, 140)">
    <g id="ic_1_v8ll5k18qg3r6-stroke" fill="none" stroke-linecap="round" stroke-linejoin="round" stroke-miterlimit="4" stroke="#f4f4f4" stroke-width="2">
      <g>
        <path d="M 12.4795 16.344999L 43.521999 16.344999C 43.521999 16.344999 45.021999 16.344999 45.021999 17.844999L 45.021999 38.156502C 45.021999 38.156502 45.021999 39.656502 43.521999 39.656502L 12.4795 39.656502C 12.4795 39.656502 10.9795 39.656502 10.9795 38.156502L 10.9795 17.844999C 10.9795 17.844999 10.9795 16.344999 12.4795 16.344999M 10.9795 24.789999C 15.7285 24.549999 20.2195 22.489 24.9505 21.976C 31.716999 21.240999 38.363503 23.695 45.0205 25.091499M 16 29.593C 16.82394 29.343891 17.659409 29.134647 18.5035 28.966C 19.770111 28.720997 21.054113 28.576548 22.3435 28.534M 36.208 28.203999C 37.378002 28.344999 38.545002 28.543001 39.710499 28.777M 11.05 32.426498C 13.934647 33.273869 16.871344 33.932758 19.841501 34.399002C 23.527 34.798 29.226999 33.799 33.491501 32.856998C 37.339531 32.004387 41.35434 32.317719 45.023499 33.757M 26.820999 26.566C 26.820999 27.494667 27.895517 28.247499 29.221001 28.247499C 30.546484 28.247499 31.621 27.494667 31.621 26.566002C 31.621 25.637333 30.546484 24.884501 29.221001 24.884501C 27.895517 24.884501 26.820999 25.637333 26.820999 26.566002M 23.834499 19.2145C 23.0035 19.202499 22.1735 19.224501 21.3445 19.2805M 31.2295 36.778C 33.72805 36.814682 36.22319 36.579803 38.671001 36.077499"/>
      </g>
    </g>
  </g>
  <g id="g-root-ic_grad_1d3028o18qlqmk-stroke-fill" data-item-order="0" transform="translate(260, 596)">
    <g id="ic_grad_1d3028o18qlqmk-stroke" fill="none" stroke-linecap="round" stroke-linejoin="round" stroke-miterlimit="4" stroke="#f4f4f4" stroke-width="2">
      <g>
        <path d="M 25.974701 42.474998L 16.674641 42.474998C 14.42464 42.474998 12.624625 40.675003 12.624625 38.425003L 12.624625 15.17497C 12.624625 12.92497 14.42464 11.124977 16.674641 11.124977L 27.624699 11.124977C 30.1747 11.124977 32.124699 13.07497 32.124699 15.624969L 32.124699 23.424969M 12.62464 35.724998L 25.974701 35.724998M 36.625301 35.875C 34.140099 35.875 32.125301 33.860352 32.125301 31.375C 32.125301 28.889648 34.140099 26.875 36.625301 26.875C 39.110649 26.875 41.125301 28.889648 41.125301 31.375C 41.125301 33.860352 39.110649 35.875 36.625301 35.875ZM 29.875301 44.875C 29.875301 41.125 32.875301 38.125 36.625301 38.125C 40.375301 38.125 43.375301 41.125 43.375301 44.875M 10 10M 18.62464 26.875L 21.387461 18.58651C 21.529104 18.161606 21.926741 17.875 22.37464 17.875L 22.37464 17.875C 22.822525 17.875 23.220175 18.161606 23.361805 18.58651L 26.124699 26.875M 19.62463 23.875L 25.124651 23.875"/>
      </g>
    </g>
  </g>
  <g id="g-root-ic_expe_1cz9avs18q3h8t-stroke-fill" data-item-order="0" transform="translate(572, 140)">
    <g id="ic_expe_1cz9avs18q3h8t-stroke" fill="none" stroke-linecap="round" stroke-linejoin="round" stroke-miterlimit="4" stroke="#f4f4f4" stroke-width="2">
      <g>
        <path d="M 19.167999 31.528L 19.167999 32.200001L 13.6885 38.891499C 12.762412 40.013947 12.569286 41.570808 13.193053 42.885506C 13.81682 44.200207 15.14485 45.035351 16.6 45.028L 27.744999 45.028C 29.199337 45.033596 30.525764 44.197788 31.148392 42.883461C 31.771019 41.56913 31.577557 40.013313 30.652 38.891499L 25.168001 32.200001L 25.168001 31.532499M 19.167999 24.028L 19.167999 28.528M 25.168001 28.528L 25.168001 24.028M 13.15 39.769001C 14.347955 40.259064 15.628234 40.516647 16.922501 40.528C 19.922501 40.528 22.172501 38.278 25.922501 38.278C 27.662127 38.329338 29.37776 38.69788 30.985001 39.365501M 16.167999 24.028L 28.168001 24.028M 21.990999 11.002C 21.839169 10.941126 21.665392 10.986135 21.562201 11.11306C 21.459009 11.239985 21.450417 11.41929 21.541 11.5555C 22.571682 13.078417 22.664888 15.049627 21.782499 16.663C 21.25493 16.304653 20.845636 15.797733 20.606501 15.2065C 20.568369 15.109835 20.491837 15.033324 20.395159 14.995222C 20.298483 14.95712 20.190329 14.960842 20.0965 15.0055C 18.436634 15.694323 17.360779 17.321455 17.377001 19.1185C 17.411575 21.86483 19.666176 24.063017 22.4125 24.028C 25.158493 24.062183 27.412601 21.864475 27.448 19.1185C 27.380335 15.576246 25.2458 12.401432 21.990999 11.002ZM 37.167999 28.528L 37.167999 12.028M 37.167999 45.028L 37.167999 31.528M 43.167999 31.528L 17.667999 31.528C 16.839573 31.528 16.167999 30.856426 16.167999 30.028L 16.167999 30.028C 16.167999 29.199574 16.839573 28.528 17.667999 28.528L 43.167999 28.528M 32.667999 27.028L 32.667999 33.028"/>
      </g>
    </g>
  </g>
  <g id="g-root-ic_muha_8zmtlk18q4xzc-stroke-fill" data-item-order="0" transform="translate(572, 596)">
    <g id="ic_muha_8zmtlk18q4xzc-stroke" fill="none" stroke-linecap="round" stroke-linejoin="round" stroke-miterlimit="4" stroke="#f4f4f4" stroke-width="2">
      <g>
        <path d="M 28 39.324997C 29.49115 39.324997 30.700001 38.11615 30.700001 36.625C 30.700001 35.13385 29.49115 33.924999 28 33.924999C 26.50885 33.924999 25.299999 35.13385 25.299999 36.625C 25.299999 38.11615 26.50885 39.324997 28 39.324997ZM 24.25 44.875L 24.25 43.074997C 24.25 40.974998 25.900002 39.324997 28 39.324997C 30.099998 39.324997 31.75 40.974998 31.75 43.074997L 31.75 44.875M 10 10M 23.425014 30.92515L 11.275009 38.725151M 11.275 11.125092L 13.075 11.125092C 14.725 11.125092 16.075001 12.47509 16.075001 14.12509C 18.174999 14.12509 19.825001 15.77509 19.825001 17.87509L 20.575001 17.87509C 22.224998 17.87509 23.575001 19.22509 23.575001 20.87509C 23.575001 20.87509 23.724998 23.57509 21.475 24.32509C 19.975 24.775091 18.325001 23.72509 17.875 22.07509L 17.875 21.925091C 17.725 22.07509 17.424999 22.075075 17.125 22.225075C 15.475 22.525074 13.975 21.625074 13.525 19.975075L 13.525 19.07509C 13.225 19.22509 12.925 19.37509 12.625 19.37509C 12.025 19.525089 11.575 19.525089 11.125 19.37509M 23.424999 30.92515C 21.025 30.17515 19.375 27.92515 19.375 25.225149C 19.375 24.775105 19.375 24.475105 19.525 24.175106M 14.425 26.125151C 14.425 26.125151 14.425 31.67515 18.775 33.77515M 11.275009 31.974998C 11.725015 33.325001 12.625015 35.275002 14.275015 36.625M 10 10M 32.575001 30.92515L 44.724998 38.725151M 44.724998 11.125092L 42.925003 11.125092C 41.275002 11.125092 39.925003 12.47509 39.925003 14.12509C 37.824997 14.12509 36.175003 15.77509 36.175003 17.87509L 35.425003 17.87509C 33.775002 17.87509 32.424999 19.22509 32.424999 20.87509C 32.424999 20.87509 32.275002 23.57509 34.525002 24.32509C 36.025002 24.775091 37.675003 23.72509 38.125 22.07509L 38.125 21.925091C 38.275002 22.07509 38.574997 22.075075 38.875 22.225075C 40.525002 22.525074 42.025002 21.625074 42.474998 19.975075L 42.474998 19.07509C 42.775002 19.22509 43.074997 19.37509 43.375 19.37509C 43.974998 19.525089 44.425003 19.525089 44.875 19.37509M 32.575001 30.92515C 34.974998 30.17515 36.625 27.92515 36.625 25.225149C 36.625 24.775105 36.625 24.475105 36.474998 24.175106M 41.574997 26.125151C 41.574997 26.125151 41.574997 31.67515 37.224998 33.77515M 44.724998 31.974998C 44.275002 33.325001 43.375 35.275002 41.724998 36.625"/>
      </g>
    </g>
  </g>
  <g id="g-root-ic_sign_1hegbx418q6b62-stroke-fill" data-item-order="0" transform="translate(740, 362)">
    <g id="ic_sign_1hegbx418q6b62-stroke" fill="none" stroke-linecap="round" stroke-linejoin="round" stroke-miterlimit="4" stroke="#f4f4f4" stroke-width="2">
      <g>
        <path d="M 22 23.714287C 22 30.341703 27.372585 35.714287 34 35.714287C 40.627419 35.714287 46 30.341703 46 23.714287C 46 17.086868 40.627419 11.714287 34 11.714287C 27.372585 11.714287 22 17.086868 22 23.714287M 34 35.714287L 34 56.285713M 28.857143 56.285713L 39.142857 56.285713"/>
      </g>
    </g>
  </g>
</svg>
