<?xml version='1.0' encoding='utf-8'?>
<svg xmlns="http://www.w3.org/2000/svg" xmlns:xlink="http://www.w3.org/1999/xlink" width="888" height="552" viewBox="0 0 888 552" style="fill:none;stroke:none;fill-rule:evenodd;clip-rule:evenodd;stroke-linecap:round;stroke-linejoin:round;stroke-miterlimit:1.5;" version="1.1">
  <style class="text-font-style fontImports" data-font-family="Roboto">@import url('https://fonts.googleapis.com/css2?family=Roboto:wght@400;700&amp;display=block');</style>
  <rect x="0" y="0" width="888" height="552" fill="#252a34" stroke="none" id="programmatic_background"/>
  <g id="g-root-tf_142cwns1c27287-stroke-fill" data-item-order="-449856" transform="translate(18, 12)">
    <g id="tf_142cwns1c27287-fill" stroke="none" fill="#2c2c2c">
      <g>
        <path d="M 0 0L 852 0L 852 528L 0 528Z"/>
      </g>
    </g>
    <defs>
      <pattern id="crawlingPattern-f576002d" x="0" y="0" width="12" height="12" patternUnits="userSpaceOnUse" fill="#f576002d">
        <use href="#crawlingSymbol"/>
      </pattern>
      <symbol id="crawlingSymbol">
        <g>
          <path d="M -12.5 12.5 l 13 -13 l 6 0 l -13 13 Z M -0.5 12.5 l 13 -13 l 6 0 l -13 13 Z M 11.5 12.5 l 13 -13 l 6 0 l -13 13 Z"/>
        </g>
      </symbol>
      <pattern id="crawlingPattern-8484841a" x="0" y="0" width="12" height="12" patternUnits="userSpaceOnUse" fill="#8484841a">
        <use href="#crawlingSymbol"/>
      </pattern>
      <pattern id="crawlingPattern-f908001a" x="0" y="0" width="12" height="12" patternUnits="userSpaceOnUse" fill="#f908001a">
        <use href="#crawlingSymbol"/>
      </pattern>
      <pattern id="crawlingPattern-00d16d21" x="0" y="0" width="12" height="12" patternUnits="userSpaceOnUse" fill="#00d16d21">
        <use href="#crawlingSymbol"/>
      </pattern>
      <pattern id="crawlingPattern-0060fb20" x="0" y="0" width="12" height="12" patternUnits="userSpaceOnUse" fill="#0060fb20">
        <use href="#crawlingSymbol"/>
      </pattern>
      <pattern id="crawlingPattern-0000001b" x="0" y="0" width="12" height="12" patternUnits="userSpaceOnUse" fill="#0000001b">
        <use href="#crawlingSymbol"/>
      </pattern>
      <pattern id="crawlingPattern-0059ff37" x="0" y="0" width="12" height="12" patternUnits="userSpaceOnUse" fill="#0059ff37">
        <use href="#crawlingSymbol"/>
      </pattern>
      <pattern id="crawlingPattern-ff7b003a" x="0" y="0" width="12" height="12" patternUnits="userSpaceOnUse" fill="#ff7b003a">
        <use href="#crawlingSymbol"/>
      </pattern>
      <pattern id="crawlingPattern-00ff873a" x="0" y="0" width="12" height="12" patternUnits="userSpaceOnUse" fill="#00ff873a">
        <use href="#crawlingSymbol"/>
      </pattern>
      <pattern id="crawlingPattern-ff0b0038" x="0" y="0" width="12" height="12" patternUnits="userSpaceOnUse" fill="#ff0b0038">
        <use href="#crawlingSymbol"/>
      </pattern>
      <pattern id="crawlingPattern-c1c1c11a" x="0" y="0" width="12" height="12" patternUnits="userSpaceOnUse" fill="#c1c1c11a">
        <use href="#crawlingSymbol"/>
      </pattern>
      <pattern id="crawlingPattern-5f5f5f1a" x="0" y="0" width="12" height="12" patternUnits="userSpaceOnUse" fill="#5f5f5f1a">
        <use href="#crawlingSymbol"/>
      </pattern>
    </defs>
  </g>
  <g id="g-root-cp_5_g-5_metqoo1c1x6v6-stroke-fill" data-item-order="-347318" transform="translate(248, 362)">
    <g id="cp_5_g-5_metqoo1c1x6v6-fill" stroke="none" fill="#f79438">
      <g>
        <path d="M 34 10C 34 37.7434 52.8297 61.0888 78.4063 67.9537C 84.1851 51.6652 99.7303 40 118 40C 137.026 40 153.097 52.6511 158.261 70L 196 70L 196 58L 232 82L 196 106L 196 94L 158.261 94C 153.097 111.349 137.026 124 118 124C 98.3707 124 81.8866 110.534 77.2814 92.3362C 38.8992 84.5847 10 50.6672 10 10L 34 10Z"/>
      </g>
    </g>
    <g id="cp_5_g-5_metqoo1c1x6v6-stroke" fill="none" stroke-linecap="round" stroke-linejoin="round" stroke-miterlimit="4" stroke="#2c2c2c" stroke-width="2">
      <g>
        <path d="M 34 10C 34 37.7434 52.8297 61.0888 78.4063 67.9537C 84.1851 51.6652 99.7303 40 118 40C 137.0261 40 153.0974 52.6511 158.2607 70L 196 70L 196 58L 232 82L 196 106L 196 94L 158.2607 94C 153.0974 111.3489 137.0261 124 118 124C 98.3707 124 81.8866 110.5341 77.2814 92.3362C 38.8992 84.5847 10 50.6672 10 10L 34 10Z"/>
      </g>
    </g>
  </g>
  <g id="g-root-cp_4_g-4_93d8bc1c1x8g4-stroke-fill" data-item-order="-347314" transform="translate(248, 248)">
    <g id="cp_4_g-4_93d8bc1c1x8g4-fill" stroke="none" fill="#b7b7b7">
      <g>
        <path d="M 78.4063 66.0463C 84.1851 82.3348 99.7303 94 118 94C 137.026 94 153.097 81.3489 158.261 64L 196 64L 196 40L 158.261 40C 153.097 22.6511 137.026 10 118 10C 98.3707 10 81.8866 23.4659 77.2814 41.6638C 38.8992 49.4153 10 83.3328 10 124L 34 124C 34 96.2566 52.8297 72.9112 78.4063 66.0463Z"/>
      </g>
    </g>
    <g id="cp_4_g-4_93d8bc1c1x8g4-stroke" fill="none" stroke-linecap="round" stroke-linejoin="round" stroke-miterlimit="4" stroke="#2c2c2c" stroke-width="2">
      <g>
        <path d="M 78.4063 66.0463C 84.1851 82.3348 99.7303 94 118 94C 137.0261 94 153.0974 81.3489 158.2607 64L 196 64L 196 40L 158.2607 40C 153.0974 22.6511 137.0261 10 118 10C 98.3707 10 81.8866 23.4659 77.2814 41.6638C 38.8992 49.4153 10 83.3328 10 124L 34 124C 34 96.2566 52.8297 72.9112 78.4063 66.0463Z"/>
      </g>
    </g>
  </g>
  <g id="g-root-cp_3_g-3_7q82g1c1x98u-stroke-fill" data-item-order="-347310" transform="translate(434, 218)">
    <g id="cp_3_g-3_7q82g1c1x98u-fill" stroke="none" fill="#fb6762">
      <g>
        <path d="M 128.719 92.3362C 167.101 84.5847 196 50.6672 196 10L 172 10C 172 37.7434 153.17 61.0888 127.594 67.9537C 121.815 51.6652 106.2697 40 88 40C 68.9739 40 52.9026 52.6511 47.7393 70L 10 70L 10 94L 47.7393 94C 52.9026 111.349 68.9739 124 88 124C 107.6293 124 124.113 110.534 128.719 92.3362Z"/>
      </g>
    </g>
    <g id="cp_3_g-3_7q82g1c1x98u-stroke" fill="none" stroke-linecap="round" stroke-linejoin="round" stroke-miterlimit="4" stroke="#2c2c2c" stroke-width="2">
      <g>
        <path d="M 128.7186 92.3362C 167.1008 84.5847 196 50.6672 196 10L 172 10C 172 37.7434 153.1703 61.0888 127.5937 67.9537C 121.8149 51.6652 106.2697 40 88 40C 68.9739 40 52.9026 52.6511 47.7393 70L 10 70L 10 94L 47.7393 94C 52.9026 111.3489 68.9739 124 88 124C 107.6293 124 124.1134 110.5341 128.7186 92.3362Z"/>
      </g>
    </g>
  </g>
  <g id="g-root-cp_2_g-2_1utn9081c1x6o8-stroke-fill" data-item-order="-347306" transform="translate(434, 104)">
    <g id="cp_2_g-2_1utn9081c1x6o8-fill" stroke="none" fill="#43dd93">
      <g>
        <path d="M 47.7393 64C 52.9026 81.3489 68.9739 94 88 94C 106.2697 94 121.815 82.3348 127.594 66.0463C 153.17 72.9112 172 96.2566 172 124L 196 124C 196 83.3328 167.101 49.4153 128.719 41.6638C 124.113 23.4659 107.6293 10 88 10C 68.9739 10 52.9026 22.6511 47.7393 40L 10 40L 10 64L 47.7393 64Z"/>
      </g>
    </g>
    <g id="cp_2_g-2_1utn9081c1x6o8-stroke" fill="none" stroke-linecap="round" stroke-linejoin="round" stroke-miterlimit="4" stroke="#2c2c2c" stroke-width="2">
      <g>
        <path d="M 47.7393 64C 52.9026 81.3489 68.9739 94 88 94C 106.2697 94 121.8149 82.3348 127.5937 66.0463C 153.1703 72.9112 172 96.2566 172 124L 196 124C 196 83.3328 167.1008 49.4153 128.7186 41.6638C 124.1134 23.4659 107.6293 10 88 10C 68.9739 10 52.9026 22.6511 47.7393 40L 10 40L 10 64L 47.7393 64Z"/>
      </g>
    </g>
  </g>
  <g id="g-root-cp_1_g-1_1qdtqvs1c1x7gi-stroke-fill" data-item-order="-347302" transform="translate(266, 104)">
    <g id="cp_1_g-1_1qdtqvs1c1x7gi-fill" stroke="none" fill="#4f91fc">
      <g>
        <path d="M 59.7393 64C 64.9026 81.3489 80.9739 94 100 94C 119.026 94 135.097 81.3489 140.261 64L 178 64L 178 40L 140.261 40C 135.097 22.6511 119.026 10 100 10C 80.9739 10 64.9026 22.6511 59.7393 40L 10 40L 10 64L 59.7393 64Z"/>
      </g>
    </g>
    <g id="cp_1_g-1_1qdtqvs1c1x7gi-stroke" fill="none" stroke-linecap="round" stroke-linejoin="round" stroke-miterlimit="4" stroke="#2c2c2c" stroke-width="2">
      <g>
        <path d="M 59.7393 64C 64.9026 81.3489 80.9739 94 100 94C 119.0261 94 135.0974 81.3489 140.2607 64L 178 64L 178 40L 140.2607 40C 135.0974 22.6511 119.0261 10 100 10C 80.9739 10 64.9026 22.6511 59.7393 40L 10 40L 10 64L 59.7393 64Z"/>
      </g>
    </g>
  </g>
  <g id="g-root-ic_fema_8x4hg81c1yl1j-stroke-fill" data-item-order="-2304" transform="translate(332, 266)">
    <g id="ic_fema_8x4hg81c1yl1j-fill" stroke="none" fill="#f4f4f4">
      <g>
        <path d="M 10 10M 37.664001 10.786L 37.764 10.786L 37.764 17.212L 37.664001 17.212C 34.110001 17.212 31.143999 18.251999 29.08 19.278C 28.440001 19.598 27.879999 19.917999 27.412001 20.208C 28.32 14.940001 32.498001 10.786 37.664001 10.786ZM 46.243999 19.278C 44.514683 18.41404 42.668575 17.80698 40.764 17.476L 40.764 11.284C 44.52 12.542 47.223999 16.035999 47.919998 20.212C 47.377159 19.874237 46.818527 19.56255 46.245998 19.278ZM 27.218 24.756001C 28.475552 25.567383 29.822441 26.231096 31.232 26.734001L 31.232 26.948C 31.232 30.528 34.056 33.302002 37.424 33.302002L 37.905998 33.302002C 41.274002 33.302002 44.099998 30.528 44.099998 26.948L 44.099998 26.700001C 45.504856 26.191521 46.849594 25.53022 48.109997 24.728001C 48.163136 25.325489 48.333729 25.906605 48.612003 26.438002C 48.855999 26.889999 49.195999 27.302 49.688 27.608C 50.174 27.912001 50.922001 28.181999 52.099998 28.181999C 53.204571 28.181999 54.099998 29.077431 54.099998 30.181999C 54.099998 31.28657 53.204571 32.181999 52.099998 32.181999C 50.276001 32.181999 48.776001 31.752001 47.574001 31.006001C 47.498421 30.958746 47.42374 30.91007 47.349998 30.860001C 45.832001 34.646 42.175999 37.299999 37.905998 37.299999L 37.426003 37.299999C 33.155998 37.299999 29.497999 34.646 27.98 30.860001C 27.906292 30.910122 27.831612 30.958799 27.755999 31.005999C 26.556 31.752001 25.054001 32.181999 23.23 32.181999C 22.125431 32.181999 21.23 31.28657 21.23 30.181999C 21.23 29.077431 22.125431 28.181999 23.23 28.181999C 24.408001 28.181999 25.156 27.912001 25.644001 27.608C 26.136 27.302 26.476 26.889999 26.718 26.438C 26.991987 25.914989 27.161798 25.34375 27.218 24.756001ZM 30.346001 23.098C 30.004847 22.92605 29.669964 22.741932 29.341999 22.546C 29.662001 22.360001 30.021999 22.161999 30.417999 21.964001C 32.194 21.082001 34.697998 20.212 37.666 20.212C 40.632 20.212 43.138 21.082001 44.911999 21.964001C 45.298 22.156 45.647999 22.348 45.958 22.529999C 45.61549 22.729202 45.26664 22.917299 44.911999 23.094C 43.138 23.978001 40.632 24.846001 37.666 24.846001C 35.122833 24.84416 32.615601 24.245438 30.346001 23.098ZM 14.26 45.369999C 14.26 41.89061 17.080606 39.07 20.560001 39.07C 24.039394 39.07 26.860001 41.89061 26.860001 45.370003C 26.860001 48.849396 24.039394 51.670002 20.560001 51.670002C 17.080606 51.670002 14.26 48.849396 14.26 45.370003ZM 26.368 53.875999C 21.991592 56.863964 16.062191 56.043713 12.661306 51.979866C 9.260422 47.916019 9.497978 41.934864 13.210453 38.153542C 16.922928 34.372219 22.898708 34.024811 27.024353 37.350456C 31.149998 40.676102 32.079056 46.589436 29.171999 51.02L 32.512001 54.495998C 33.244267 55.296635 33.204609 56.53511 32.422615 57.287254C 31.640627 58.039398 30.401546 58.030853 29.629999 57.268002L 26.368 53.875999ZM 56.464001 58L 35.599998 58C 36.475098 56.126839 36.107056 53.908264 34.674 52.417999L 32.832001 50.5C 33.510601 48.874966 33.858707 47.131035 33.856003 45.370003C 33.858803 43.372181 33.409592 41.399612 32.542 39.599998L 34.262001 39.599998C 34.632881 39.600121 34.990562 39.73764 35.265999 39.986L 38.264 42.681999L 41.260002 39.986C 41.535439 39.73764 41.893124 39.600121 42.264 39.599998L 52.264 39.599998C 52.814602 39.60001 53.320938 39.901672 53.583073 40.385872C 53.845207 40.870064 53.820995 41.458954 53.52 41.919998L 51.273998 45.363998C 54.616844 48.137791 56.95433 51.934277 57.925999 56.167999C 58.026936 56.612717 57.920082 57.079201 57.635632 57.435638C 57.351181 57.792076 56.920029 57.99976 56.464001 58ZM 39.658001 49.152C 39.658001 50.253258 38.765259 51.146 37.664001 51.146C 36.562744 51.146 35.669998 50.253258 35.669998 49.152C 35.704094 48.075867 36.586327 47.221142 37.663002 47.221142C 38.739677 47.221142 39.62191 48.075867 39.655998 49.152Z"/>
      </g>
    </g>
  </g>
  <g id="g-root-ic_ufo_18jfcyg1c2007f-stroke-fill" data-item-order="-2304" transform="translate(332, 410)">
    <g id="ic_ufo_18jfcyg1c2007f-fill" stroke="none" fill="#f4f4f4">
      <g>
        <path d="M 50.779999 39.48C 50.49268 38.408726 49.391396 37.77314 48.32008 38.060295C 47.24876 38.34745 46.613007 39.448639 46.899998 40.519997L 51.139999 56.52C 51.30584 57.231823 51.846767 57.796497 52.550816 57.992748C 53.25486 58.188999 54.009895 57.985573 54.520046 57.462177C 55.030201 56.938786 55.214222 56.178791 55 55.48ZM 19.82 38C 18.754391 37.720551 17.663445 38.355446 17.380001 39.419998L 13.14 55.419998C 12.925778 56.11879 13.109798 56.878784 13.619952 57.40218C 14.130106 57.925571 14.885139 58.129002 15.589186 57.932751C 16.293234 57.7365 16.83416 57.171825 17 56.459999L 21.24 40.459999C 21.380281 39.945396 21.309196 39.39608 21.042547 38.934139C 20.775898 38.472198 20.335775 38.135902 19.82 38ZM 38 49.860001C 39.203453 49.748383 40.123898 48.738621 40.123898 47.529999C 40.123898 46.321381 39.203453 45.311615 38 45.200001L 31.08 45.200001C 29.876545 45.311615 28.9561 46.321381 28.9561 47.529999C 28.9561 48.738621 29.876545 49.748383 31.08 49.860001L 32.239998 49.860001L 32.239998 50.18L 29.200001 54.299999C 28.437847 55.332775 28.657228 56.787849 29.690001 57.550003C 30.722773 58.312153 32.177849 58.092773 32.940002 57.060001L 34.599998 54.82L 36.200001 57.080002C 36.978722 58.129345 38.460663 58.348724 39.510002 57.570004C 40.559341 56.791279 40.778725 55.309341 40 54.260002L 37 50.16L 37 49.860001ZM 38 40.239998C 38.008102 38.822594 37.160507 37.540237 35.85331 36.992199C 34.546112 36.44416 33.03743 36.738647 32.032288 37.738045C 31.027142 38.73745 30.724012 40.244415 31.264553 41.554733C 31.805094 42.865051 33.082569 43.719978 34.5 43.720001C 35.426414 43.725323 36.316711 43.361034 36.973671 42.707829C 37.63063 42.054626 38.000015 41.166428 38 40.239998ZM 56.959999 29C 57.256584 29.003077 57.540375 28.879374 57.739998 28.659998C 57.943413 28.447105 58.032631 28.149708 57.98 27.860001C 57.289928 23.844007 53.774273 20.931278 49.700001 21L 18.299999 21C 14.218212 20.921293 10.691198 23.836391 10 27.860001C 9.947369 28.149708 10.036588 28.447105 10.24 28.66C 10.439621 28.879374 10.723413 29.003077 11.02 28.999998L 13.28 29C 13.484316 29.002653 13.666457 29.12936 13.74 29.32C 13.899547 29.722376 14.079787 30.116236 14.280001 30.500002C 16.065369 33.888172 19.580214 36.009026 23.41 36.009026C 27.239786 36.009026 30.754631 33.888172 32.540001 30.5C 32.740211 30.116236 32.920456 29.722376 33.080002 29.320002C 33.148697 29.125612 33.333855 28.996807 33.540001 28.999998L 34.459999 29C 34.666145 28.996807 34.851299 29.125612 34.919998 29.32C 35.079548 29.722376 35.259789 30.116236 35.459999 30.500002C 37.245369 33.888172 40.760216 36.009026 44.59 36.009026C 48.419785 36.009026 51.934631 33.888172 53.720001 30.5C 53.920216 30.116236 54.100456 29.722376 54.260002 29.320002C 54.328697 29.125612 54.513851 28.996807 54.719997 28.999998ZM 23.4 32C 21.569786 31.983295 19.832561 31.191006 18.619999 29.82C 18.522778 29.660299 18.522778 29.4597 18.619999 29.299999C 18.686577 29.141253 18.830135 29.027918 19 29L 27.799999 29C 27.999443 28.999306 28.180223 29.117207 28.26 29.299999C 28.367369 29.456707 28.367369 29.663294 28.26 29.82C 27.033712 31.218311 25.259802 32.014015 23.400002 32ZM 44.599998 32C 42.768101 31.990932 41.027901 31.197287 39.82 29.82C 39.712631 29.663294 39.712631 29.456707 39.82 29.299999C 39.899776 29.117207 40.080559 28.999306 40.279999 29L 49.080002 29C 49.272152 29.007078 49.443218 29.123714 49.52 29.299999C 49.627369 29.456707 49.627369 29.663294 49.52 29.82C 48.280025 31.234344 46.480667 32.031624 44.600002 32ZM 34 10C 28.477455 9.948547 23.296272 12.666791 20.200001 17.24C 20.121464 17.397415 20.121464 17.582584 20.200001 17.74C 20.291019 17.897736 20.457924 17.996361 20.639999 18L 47.5 18C 47.703251 18.01899 47.898815 17.917297 47.999996 17.74C 48.078533 17.582584 48.078533 17.397415 48 17.24C 44.864662 12.606876 39.593025 9.880686 34 10Z"/>
      </g>
    </g>
  </g>
  <g id="g-root-ic_crop_v7yul41c21f64-stroke-fill" data-item-order="-2304" transform="translate(488, 122)">
    <g id="ic_crop_v7yul41c21f64-fill" stroke="none" fill="#f4f4f4">
      <g>
        <path d="M 29.139999 21C 29.140001 23.761425 31.378576 26 34.139999 26C 36.901424 26 39.139999 23.761425 39.139999 21C 39.150635 20.813484 39.150635 20.626514 39.139999 20.440001C 39.130104 20.308655 39.066666 20.187149 38.964558 20.103949C 38.86245 20.020748 38.730633 19.983162 38.599998 20L 29.66 20C 29.405687 19.998163 29.190512 20.187517 29.16 20.439999C 29.142994 20.626154 29.136316 20.813107 29.139999 21ZM 42.259998 18C 43.364571 18 44.259998 17.104568 44.259998 16C 44.259998 14.895431 43.364571 14 42.259998 14L 39.32 14C 39.120556 14.000694 38.939777 13.882794 38.860001 13.7L 38.620003 13.18C 38.254036 11.892073 37.078911 11.002571 35.740002 11L 32.760002 11C 31.480558 10.982749 30.334877 11.789567 29.92 13L 29.639999 13.66C 29.568373 13.855063 29.387493 13.988758 29.179998 14L 26.26 14C 25.15543 14 24.26 14.895431 24.26 16C 24.26 17.104568 25.15543 18 26.26 18L 42.259998 18ZM 10 10M 14.96 36.940002L 16.16 38.440002C 16.217791 38.580971 16.217791 38.739025 16.16 38.879997C 15.94326 39.682423 16.146378 40.540031 16.700001 41.16C 17.165836 41.700531 17.846479 42.007915 18.560001 42C 19.173092 41.997433 19.763863 41.769665 20.220001 41.360001L 27.219999 35.059998C 27.382933 34.94915 27.597065 34.94915 27.759998 35.059998C 27.942795 35.139778 28.060694 35.320557 28.059999 35.52L 28.059999 43.060001L 25.18 55.060001C 24.859941 56.407467 25.692684 57.7593 27.040098 58.079586C 28.387512 58.399872 29.739485 57.56736 30.059999 56.220001L 32.52 45.900002C 32.637466 45.454365 33.039154 45.142853 33.5 45.139999L 34.739998 45.139999C 35.200848 45.142853 35.602535 45.454365 35.720001 45.899998L 38.260002 56C 38.580513 57.347359 39.932487 58.179874 41.2799 57.859585C 42.627316 57.539299 43.46006 56.187466 43.139999 54.84L 40.139999 42.34L 40.139999 33.540001C 40.139786 33.271484 40.3517 33.050743 40.620003 33.040001C 44.269276 33.069176 47.670952 31.197876 49.599998 28.099998L 50.880001 25.6C 51.244293 24.999006 51.331757 24.270121 51.119999 23.6C 51.099674 23.52129 51.099674 23.438709 51.119999 23.360001L 51.599998 21.52C 53.9608 21.676558 56.193172 20.431128 57.300003 18.34C 58.042793 16.929726 58.193909 15.281851 57.720001 13.76C 57.249428 12.236159 56.191532 10.962367 54.780003 10.22C 53.796932 9.706375 52.583626 10.086933 52.07 11.07C 51.556374 12.053066 51.936932 13.266375 52.919998 13.78C 53.386467 14.022793 53.738537 14.439532 53.900002 14.940001C 54.061695 15.451342 54.011253 16.006199 53.759998 16.48C 53.331528 17.277267 52.421028 17.687405 51.540001 17.48C 49.957832 17.163258 48.403843 18.137793 48 19.700001C 47.799999 20.560001 48 19.459999 47.380001 22.119999C 47.359406 22.222984 47.302654 22.315205 47.220001 22.380001C 47.023018 22.537209 46.853977 22.726536 46.720001 22.939999L 45.439999 25.459999C 44.409855 27.074034 42.614418 28.036142 40.700001 28L 30 28C 28.494099 28.10148 27.074671 28.740223 26.000002 29.800001L 23.68 31.799999C 23.517065 31.910849 23.302933 31.910849 23.139999 31.799999C 22.957287 31.72303 22.844448 31.537651 22.860001 31.34L 22.860001 29.74L 22.98 27.02C 23.007412 26.472464 22.808863 25.937677 22.430779 25.540688C 22.052692 25.1437 21.528221 24.919315 20.98 24.92C 19.875431 24.92 18.98 25.81543 18.98 26.92L 18.84 29.66L 17.780001 26.219999C 17.352135 25.321209 16.328417 24.873888 15.378203 25.170517C 14.42799 25.467144 13.840559 26.417416 14 27.4L 14.92 30.4L 13.6 28.74C 12.915226 27.867191 11.652515 27.714851 10.779811 28.399759C 9.907107 29.084665 9.75496 30.347401 10.44 31.219999Z"/>
      </g>
    </g>
  </g>
  <g id="g-root-ic_elec_1lvicew1c22upx-stroke-fill" data-item-order="-2304" transform="translate(332, 122)">
    <g id="ic_elec_1lvicew1c22upx-fill" stroke="none" fill="#f4f4f4">
      <g>
        <path d="M 10 10M 33.299999 30.799999L 41 28.6C 41.183712 28.537174 41.386887 28.60219 41.5 28.76L 46 34.279999C 46.380005 34.724274 46.935375 34.980038 47.52 34.98C 47.706093 35.000641 47.893902 35.000641 48.079998 34.98C 48.840408 34.756859 49.397343 34.105793 49.5 33.32L 50.639999 24.42C 50.783886 23.315277 50.004822 22.303133 48.900063 22.159515C 47.795303 22.015896 46.783352 22.795206 46.639999 23.9L 46.220001 27.18C 46.205029 27.379728 46.057053 27.544144 45.860001 27.58C 45.674194 27.638636 45.471252 27.583996 45.34 27.440001L 43.34 25.040001C 42.847954 24.465691 42.074051 24.218042 41.34 24.4L 36.799999 25.700001C 36.620296 25.755283 36.424862 25.700562 36.299999 25.559999C 36.181629 25.422234 36.143723 25.232693 36.199997 25.059999L 37.139999 22.540001C 37.359589 21.930279 37.270142 21.251953 36.900002 20.720001C 36.522556 20.189856 35.910774 19.876503 35.260002 19.880001L 30.24 19.880001C 30.15587 19.881538 30.078232 19.834955 30.039999 19.76C 29.992521 19.687044 29.992521 19.592957 30.039999 19.52C 30.835758 19.21233 31.34873 18.433739 31.317408 17.581148C 31.286085 16.728558 30.717365 15.989708 29.901176 15.741257C 29.084988 15.492807 28.201054 15.789467 27.700001 16.48L 22.92 20.48C 22.288832 21.019424 22.05658 21.892715 22.336393 22.674416C 22.616207 23.456118 23.349888 23.983646 24.18 24L 31.780001 23.880001C 31.942883 23.877331 32.095028 23.961012 32.18 24.1C 32.262169 24.242325 32.262169 24.417675 32.18 24.560001L 30.9 28.200001C 30.657841 28.889671 30.811209 29.656519 31.299999 30.200001C 31.801065 30.759758 32.573555 30.991505 33.299999 30.799999ZM 32.279999 36.959999C 32.235985 34.231514 29.99621 32.05106 27.267527 32.080284C 24.538841 32.109512 22.346279 34.337437 22.360714 37.066238C 22.375149 39.79504 24.59116 41.999645 27.32 42C 30.081461 41.977997 32.302181 39.721458 32.279999 36.959999ZM 14.46 57.700001C 15.214041 57.670479 15.928801 57.355984 16.460001 56.820004L 20 53.439999C 20.657894 52.814713 21.432686 52.325371 22.279999 52C 22.430428 51.921734 22.60957 51.921734 22.759998 51.999996C 22.901031 52.099953 22.977425 52.268017 22.959999 52.439999L 22.619999 55.580002C 22.563293 56.144138 22.748699 56.705837 23.130093 57.12537C 23.511486 57.544903 24.053024 57.782845 24.619999 57.779999L 31 57.779999C 31.566975 57.782845 32.108513 57.544903 32.489906 57.12537C 32.8713 56.705837 33.056705 56.144138 33 55.580002L 32.48 50.619999C 32.455685 50.357407 32.6395 50.121071 32.900002 50.080002L 34.32 49.84C 36.412148 49.544056 38.343094 48.550392 39.799999 47.02C 41.701771 44.965393 42.517853 42.131359 42 39.380001L 41.099998 34.459999C 40.846169 33.027359 39.594902 31.987453 38.139999 32C 37.73497 32.00412 37.334457 32.085579 36.959999 32.239998C 35.669617 32.848663 34.966156 34.263855 35.259998 35.66L 36.120003 40.419998C 36.260098 41.209839 36.0802 42.022968 35.619999 42.68C 35.145668 43.336868 34.422806 43.770584 33.620003 43.880001L 23.5 45.52C 20.550434 45.814487 17.794056 47.122002 15.700001 49.220001L 12.5 52.459999C 11.34264 53.567692 11.204738 55.369049 12.18 56.640003C 12.748127 57.310139 13.581452 57.697563 14.46 57.700001ZM 12 14.2L 40.200001 14.2C 40.476143 14.2 40.700001 14.423858 40.700001 14.7L 40.700001 17.18C 40.700001 18.814762 42.025238 20.139999 43.66 20.139999L 56 20.139999C 57.104568 20.139999 58 19.24457 58 18.139999C 58 17.035431 57.104568 16.139999 56 16.139999L 45.139999 16.139999C 44.871483 16.140215 44.650742 15.928302 44.639999 15.66L 44.639999 13.22C 44.640038 11.58197 43.317993 10.250994 41.68 10.24L 12 10.24C 10.895431 10.24 10 11.13543 10 12.24C 10 13.344569 10.895431 14.24 12 14.24Z"/>
      </g>
    </g>
  </g>
  <g id="g-root-ic_axe_zqa9201c249hi-stroke-fill" data-item-order="-2304" transform="translate(488, 266)">
    <g id="ic_axe_zqa9201c249hi-fill" stroke="none" fill="#f4f4f4">
      <g>
        <path d="M 45.060001 24.4C 43.594265 30.94681 37.768814 35.590527 31.060001 35.560001C 30.249086 35.56295 29.439426 35.496033 28.639999 35.360001C 28.225046 35.286072 27.861298 35.038719 27.640001 34.68C 27.403511 34.327065 27.337469 33.886787 27.459999 33.48C 27.459999 33.48 27.459999 33.48 27.459999 33.34L 27.459999 33.440002C 26.503119 35.494827 26.004923 37.733299 26 40L 26 55.599998C 26.005245 56.245342 26.26804 56.861855 26.729977 57.312527C 27.191916 57.763199 27.814728 58.010693 28.460001 58.000004L 33.080002 58C 34.411999 57.989124 35.489128 56.911999 35.5 55.579998L 35.5 50.139999C 39.497795 47.860107 44.402206 47.860107 48.400002 50.139999L 48.400002 55.599998C 48.410984 56.928715 49.491245 58.00005 50.820004 58.000004L 55.419998 58C 56.756531 58.000004 57.840004 56.916531 57.840004 55.580002L 57.84 40C 57.805626 32.431896 52.473351 25.923019 45.060001 24.4ZM 44.860001 39.279999L 51.799999 39.279999C 52.014393 39.28186 52.216805 39.379173 52.352154 39.545456C 52.487499 39.711739 52.541698 39.929691 52.5 40.139999C 52.087585 42.114407 50.347019 43.528965 48.330002 43.528965C 46.312981 43.528965 44.572418 42.114407 44.16 40.139999C 44.118301 39.929691 44.172501 39.711739 44.307846 39.545456C 44.443195 39.379173 44.645607 39.28186 44.860001 39.279999ZM 32.099998 39.279999L 39.02 39.279999C 39.235443 39.282967 39.438896 39.379692 39.577209 39.544899C 39.715523 39.710106 39.774963 39.927391 39.740002 40.139999C 39.34729 42.137699 37.595932 43.578297 35.560001 43.578297C 33.524071 43.578297 31.772709 42.137699 31.380001 40.139999C 31.345039 39.927391 31.40448 39.710106 31.542793 39.544899C 31.681108 39.379692 31.884558 39.282967 32.099998 39.279999ZM 27.379999 29.280001C 27.03297 28.296537 26.47296 27.401886 25.74 26.66C 25.007833 25.929272 24.118605 25.375214 23.140001 25.040001L 10.88 37.32C 10.033742 38.172005 9.781566 39.448711 10.240332 40.558487C 10.699097 41.668262 11.779153 42.394241 12.98 42.400002C 13.772522 42.404617 14.534672 42.095444 15.1 41.540001ZM 27.860001 24.540001C 29.955034 26.649012 31.003145 29.58079 30.720001 32.540001C 33.906109 32.654034 36.991676 31.414473 39.213417 29.127951C 41.43515 26.841431 42.585541 23.721516 42.380001 20.540001C 39.547173 20.688679 36.7845 19.627232 34.779999 17.619999C 32.774757 15.607292 31.720306 12.836635 31.880001 10C 28.700441 9.78852 25.580158 10.934157 23.292856 13.152842C 21.005554 15.371525 19.765434 18.455477 19.880001 21.639999C 22.838707 21.373373 25.762794 22.436012 27.860001 24.540001Z"/>
      </g>
    </g>
  </g>
  <g id="g-root-tx_thesonny_1hi6qmw1c1x898-stroke-fill" data-item-order="0" transform="translate(164, 50)">
    <g id="tx_thesonny_1hi6qmw1c1x898-fill" stroke="none" fill="#f4f4f4">
      <g>
        <text style="font: 20px Roboto, sans-serif; white-space: pre;" font-size="20px" font-family="Roboto, sans-serif">
          <tspan x="15" y="34" dominant-baseline="ideographic">The Sonny DesVergers UFO Encounter: A Timeline of Events</tspan>
        </text>
      </g>
    </g>
  </g>
  <g id="g-root-tx_august19_147cpco1c1x6od-stroke-fill" data-item-order="0" transform="translate(44, 98)">
    <g id="tx_august19_147cpco1c1x6od-fill" stroke="none" fill="#ebf2ff">
      <g>
        <text style="font: bold 20px Roboto, sans-serif; white-space: pre;" font-weight="bold" font-size="20px" font-family="Roboto, sans-serif">
          <tspan x="23.16" y="34" dominant-baseline="ideographic">August 19, 1952, </tspan>
          <tspan x="100.56" y="58" dominant-baseline="ideographic">9:45 PM</tspan>
        </text>
      </g>
    </g>
  </g>
  <g id="g-root-tx_desverge_qvw6zc1c1x89a-stroke-fill" data-item-order="0" transform="translate(32, 158)">
    <g id="tx_desverge_qvw6zc1c1x89a-fill" stroke="none" fill="#ebf2ff">
      <g>
        <text style="font: 15px Roboto, sans-serif; white-space: pre;" font-size="15px" font-family="Roboto, sans-serif">
          <tspan x="13.67" y="28" dominant-baseline="ideographic">DesVergers spots unusual </tspan>
          <tspan x="84.7" y="46" dominant-baseline="ideographic">lights in the sky</tspan>
        </text>
      </g>
    </g>
  </g>
  <g id="g-root-tx_august19_dl25p41c1x6of-stroke-fill" data-item-order="0" transform="translate(44, 242)">
    <g id="tx_august19_dl25p41c1x6of-fill" stroke="none" fill="#f4f4f4">
      <g>
        <text style="font: bold 20px Roboto, sans-serif; white-space: pre;" font-weight="bold" font-size="20px" font-family="Roboto, sans-serif">
          <tspan x="23.16" y="34" dominant-baseline="ideographic">August 19, 1952, </tspan>
          <tspan x="56.28" y="58" dominant-baseline="ideographic">post-incident</tspan>
        </text>
      </g>
    </g>
  </g>
  <g id="g-root-tx_airforce_4pf5g81c1x88w-stroke-fill" data-item-order="0" transform="translate(56, 302)">
    <g id="tx_airforce_4pf5g81c1x88w-fill" stroke="none" fill="#f4f4f4">
      <g>
        <text style="font: 15px Roboto, sans-serif; white-space: pre;" font-size="15px" font-family="Roboto, sans-serif">
          <tspan x="15.27" y="28" dominant-baseline="ideographic">Air Force investigation </tspan>
          <tspan x="119.52" y="46" dominant-baseline="ideographic">begins</tspan>
        </text>
      </g>
    </g>
  </g>
  <g id="g-root-tx_august19_1uuw76g1c1x8uh-stroke-fill" data-item-order="0" transform="translate(44, 386)">
    <g id="tx_august19_1uuw76g1c1x8uh-fill" stroke="none" fill="#fff0e2">
      <g>
        <text style="font: bold 20px Roboto, sans-serif; white-space: pre;" font-weight="bold" font-size="20px" font-family="Roboto, sans-serif">
          <tspan x="23.16" y="34" dominant-baseline="ideographic">August 19, 1952, </tspan>
          <tspan x="56.28" y="58" dominant-baseline="ideographic">post-incident</tspan>
        </text>
      </g>
    </g>
  </g>
  <g id="g-root-tx_ruppeltc_1ha2kig1c1ylu2-stroke-fill" data-item-order="0" transform="translate(32, 446)">
    <g id="tx_ruppeltc_1ha2kig1c1ylu2-fill" stroke="none" fill="#fff0e2">
      <g>
        <text style="font: 15px Roboto, sans-serif; white-space: pre;" font-size="15px" font-family="Roboto, sans-serif">
          <tspan x="20.5" y="28" dominant-baseline="ideographic">Ruppelt concludes it may </tspan>
          <tspan x="123.59" y="46" dominant-baseline="ideographic">be a hoax</tspan>
        </text>
      </g>
    </g>
  </g>
  <g id="g-root-tx_august19_1cu92e01c1ymmb-stroke-fill" data-item-order="0" transform="translate(656, 98)">
    <g id="tx_august19_1cu92e01c1ymmb-fill" stroke="none" fill="#dffff0">
      <g>
        <text style="font: bold 20px Roboto, sans-serif; white-space: pre;" font-weight="bold" font-size="20px" font-family="Roboto, sans-serif">
          <tspan x="12" y="34" dominant-baseline="ideographic">August 19, 1952, </tspan>
          <tspan x="12" y="58" dominant-baseline="ideographic">9:45 PM</tspan>
        </text>
      </g>
    </g>
  </g>
  <g id="g-root-tx_desverge_13ym2541c1ynf0-stroke-fill" data-item-order="0" transform="translate(656, 158)">
    <g id="tx_desverge_13ym2541c1ynf0-fill" stroke="none" fill="#dffff0">
      <g>
        <text style="font: 15px Roboto, sans-serif; white-space: pre;" font-size="15px" font-family="Roboto, sans-serif">
          <tspan x="12" y="28" dominant-baseline="ideographic">DesVergers ventures into </tspan>
          <tspan x="12" y="46" dominant-baseline="ideographic">the palmetto swamps</tspan>
        </text>
      </g>
    </g>
  </g>
  <g id="g-root-tx_august19_qns0uw1c1ylu5-stroke-fill" data-item-order="0" transform="translate(656, 242)">
    <g id="tx_august19_qns0uw1c1ylu5-fill" stroke="none" fill="#ffe9e8">
      <g>
        <text style="font: bold 20px Roboto, sans-serif; white-space: pre;" font-weight="bold" font-size="20px" font-family="Roboto, sans-serif">
          <tspan x="12" y="34" dominant-baseline="ideographic">August 19, 1952, </tspan>
          <tspan x="12" y="58" dominant-baseline="ideographic">post-incident</tspan>
        </text>
      </g>
    </g>
  </g>
  <g id="g-root-tx_desverge_m7yiqg1c1ymme-stroke-fill" data-item-order="0" transform="translate(656, 302)">
    <g id="tx_desverge_m7yiqg1c1ymme-fill" stroke="none" fill="#ffe9e8">
      <g>
        <text style="font: 15px Roboto, sans-serif; white-space: pre;" font-size="15px" font-family="Roboto, sans-serif">
          <tspan x="12" y="28" dominant-baseline="ideographic">DesVergers reemerges </tspan>
          <tspan x="12" y="46" dominant-baseline="ideographic">visibly shaken</tspan>
        </text>
      </g>
    </g>
  </g>
</svg>
