<?xml version='1.0' encoding='utf-8'?>
<svg xmlns="http://www.w3.org/2000/svg" xmlns:xlink="http://www.w3.org/1999/xlink" width="1080" height="576" viewBox="0 0 1080 576" style="fill:none;stroke:none;fill-rule:evenodd;clip-rule:evenodd;stroke-linecap:round;stroke-linejoin:round;stroke-miterlimit:1.5;" version="1.1">
  <style class="text-font-style fontImports" data-font-family="Roboto">@import url('https://fonts.googleapis.com/css2?family=Roboto:wght@400;700&amp;display=block');</style>
  <rect x="0" y="0" width="1.08E+3" height="576" fill="#252a34" stroke="none" id="programmatic_background"/>
  <g id="g-root-tf_v4v6h41aoaivi-stroke-fill" data-item-order="-576288" transform="translate(18, 12)">
    <g id="tf_v4v6h41aoaivi-fill" stroke="none" fill="#2c2c2c">
      <g>
        <path d="M 0 0L 1044 0L 1044 552L 0 552Z"/>
      </g>
    </g>
    <defs>
      <pattern id="crawlingPattern-f908001a" x="0" y="0" width="12" height="12" patternUnits="userSpaceOnUse" fill="#f908001a">
        <use href="#crawlingSymbol"/>
      </pattern>
      <symbol id="crawlingSymbol">
        <g>
          <path d="M -12.5 12.5 l 13 -13 l 6 0 l -13 13 Z M -0.5 12.5 l 13 -13 l 6 0 l -13 13 Z M 11.5 12.5 l 13 -13 l 6 0 l -13 13 Z"/>
        </g>
      </symbol>
      <pattern id="crawlingPattern-b5b5b51a" x="0" y="0" width="12" height="12" patternUnits="userSpaceOnUse" fill="#b5b5b51a">
        <use href="#crawlingSymbol"/>
      </pattern>
      <pattern id="crawlingPattern-00d16d21" x="0" y="0" width="12" height="12" patternUnits="userSpaceOnUse" fill="#00d16d21">
        <use href="#crawlingSymbol"/>
      </pattern>
      <pattern id="crawlingPattern-0000001b" x="0" y="0" width="12" height="12" patternUnits="userSpaceOnUse" fill="#0000001b">
        <use href="#crawlingSymbol"/>
      </pattern>
      <pattern id="crawlingPattern-c1c1c11a" x="0" y="0" width="12" height="12" patternUnits="userSpaceOnUse" fill="#c1c1c11a">
        <use href="#crawlingSymbol"/>
      </pattern>
      <pattern id="crawlingPattern-ffffff38" x="0" y="0" width="12" height="12" patternUnits="userSpaceOnUse" fill="#ffffff38">
        <use href="#crawlingSymbol"/>
      </pattern>
      <pattern id="crawlingPattern-5f5f5f1a" x="0" y="0" width="12" height="12" patternUnits="userSpaceOnUse" fill="#5f5f5f1a">
        <use href="#crawlingSymbol"/>
      </pattern>
    </defs>
  </g>
  <g id="g-root-cp_2_g-2_4lp0941ao22h7-stroke-fill" data-item-order="-454166" transform="translate(536, 110)">
    <g id="cp_2_g-2_4lp0941ao22h7-fill" stroke="none" fill="#fb6762">
      <g>
        <path d="M 490 10L 10 10L 10 124.227C 50.2747 127.291 82 160.941 82 202C 82 243.059 50.2747 276.709 10 279.773L 10 394L 490 394L 490 10Z"/>
      </g>
    </g>
    <g id="cp_2_g-2_4lp0941ao22h7-stroke" fill="none" stroke-linecap="round" stroke-linejoin="round" stroke-miterlimit="4" stroke="#2c2c2c" stroke-width="2">
      <g>
        <path d="M 490 10L 10 10L 10 124.2273C 50.2747 127.2911 82 160.9406 82 202C 82 243.0594 50.2747 276.7089 10 279.7727L 10 394L 490 394L 490 10Z"/>
      </g>
    </g>
  </g>
  <g id="g-root-cp_0_g-0_5vi4o1ao239h-stroke-fill" data-item-order="-454162" transform="translate(464, 236)">
    <g id="cp_0_g-0_5vi4o1ao239h-fill" stroke="none" fill="#e8e8e8">
      <g>
        <path d="M 76 142C 112.451 142 142 112.451 142 76C 142 39.5492 112.451 10 76 10C 39.5492 10 10 39.5492 10 76C 10 112.451 39.5492 142 76 142ZM 103.2699 84.8789C 103.5027 85.4801 103.6191 86.159 103.6191 86.9154C 103.6191 87.8658 103.3766 88.7192 102.8917 89.4756C 102.4262 90.2321 101.6989 90.8236 100.7097 91.2503C 99.7399 91.677 98.4986 91.8904 96.9858 91.8904C 95.7444 91.8904 94.6001 91.7643 93.5527 91.5122C 92.5248 91.26 91.6326 90.8527 90.8761 90.2902C 90.1391 89.7278 89.5669 88.9907 89.1596 88.0791C 88.7523 87.1675 88.5487 86.0523 88.5487 84.7334L 79.7915 84.7334C 79.7915 87.1191 80.2861 89.1847 81.2753 90.9303C 82.2645 92.6759 83.5834 94.1112 85.232 95.2361C 86.9 96.3611 88.7523 97.2048 90.7889 97.7673C 92.8254 98.3103 94.891 98.5819 96.9858 98.5819C 99.3132 98.5819 101.4177 98.32 103.299 97.7963C 105.1804 97.2727 106.7999 96.5065 108.1576 95.498C 109.5153 94.4894 110.553 93.2578 111.271 91.8031C 111.988 90.3484 112.347 88.6998 112.347 86.8572C 112.347 85.1116 112.046 83.5503 111.445 82.1732C 110.844 80.7961 109.9517 79.5645 108.7686 78.4783C 107.5855 77.3922 106.1114 76.4127 104.3464 75.5399C 102.6008 74.6671 100.574 73.8816 98.2659 73.1833C 96.8888 72.7566 95.6766 72.3202 94.6292 71.8741C 93.5818 71.428 92.6993 70.9528 91.9817 70.4485C 91.2641 69.9442 90.721 69.4012 90.3525 68.8193C 90.0033 68.2374 89.8288 67.5877 89.8288 66.87C 89.8288 65.9197 90.0809 65.0662 90.5852 64.3098C 91.0895 63.534 91.8459 62.923 92.8545 62.4769C 93.8631 62.0114 95.1238 61.7787 96.6366 61.7787C 98.2077 61.7787 99.5072 62.0502 100.5352 62.5933C 101.5825 63.1364 102.3583 63.8831 102.8626 64.8335C 103.3863 65.7645 103.6482 66.8506 103.6482 68.092L 112.318 68.092C 112.318 65.5705 111.668 63.3303 110.369 61.3714C 109.0886 59.4124 107.2848 57.8705 104.9574 56.7455C 102.6299 55.6206 99.9048 55.0581 96.7821 55.0581C 94.4934 55.0581 92.389 55.3393 90.4688 55.9018C 88.5681 56.4643 86.9194 57.2692 85.5229 58.3166C 84.1265 59.3445 83.0403 60.5859 82.2645 62.0405C 81.4887 63.4758 81.1008 65.0759 81.1008 66.8409C 81.1008 68.6641 81.4693 70.2643 82.2063 71.6414C 82.9627 73.0185 83.9907 74.2307 85.2902 75.278C 86.6091 76.306 88.122 77.2079 89.8288 77.9837C 91.555 78.7595 93.3782 79.4578 95.2983 80.0785C 97.0246 80.6215 98.4307 81.1452 99.5169 81.6495C 100.603 82.1538 101.4468 82.6678 102.048 83.1915C 102.6493 83.6957 103.0566 84.2582 103.2699 84.8789ZM 77.6095 55.64L 67.8923 55.64L 58.2921 87.8835L 48.7198 55.64L 39.0608 55.64L 53.7238 98L 56.4586 98L 62.8592 98L 77.6095 55.64Z"/>
      </g>
    </g>
    <g id="cp_0_g-0_5vi4o1ao239h-stroke" fill="none" stroke-linecap="round" stroke-linejoin="round" stroke-miterlimit="4" stroke="#2c2c2c" stroke-width="2">
      <g>
        <path d="M 76 142C 112.4508 142 142 112.4508 142 76C 142 39.5492 112.4508 10 76 10C 39.5492 10 10 39.5492 10 76C 10 112.4508 39.5492 142 76 142ZM 103.2699 84.8789C 103.5027 85.4801 103.6191 86.159 103.6191 86.9154C 103.6191 87.8658 103.3766 88.7192 102.8917 89.4756C 102.4262 90.2321 101.6989 90.8236 100.7097 91.2503C 99.7399 91.677 98.4986 91.8904 96.9858 91.8904C 95.7444 91.8904 94.6001 91.7643 93.5527 91.5122C 92.5248 91.26 91.6326 90.8527 90.8761 90.2902C 90.1391 89.7278 89.5669 88.9907 89.1596 88.0791C 88.7523 87.1676 88.5487 86.0523 88.5487 84.7334L 79.7915 84.7334C 79.7915 87.1191 80.2861 89.1847 81.2753 90.9303C 82.2645 92.6759 83.5834 94.1112 85.232 95.2361C 86.9 96.3611 88.7523 97.2048 90.7889 97.7673C 92.8254 98.3103 94.891 98.5819 96.9858 98.5819C 99.3132 98.5819 101.4177 98.32 103.299 97.7963C 105.1804 97.2727 106.7999 96.5065 108.1576 95.498C 109.5153 94.4894 110.553 93.2578 111.2706 91.8031C 111.9883 90.3484 112.3471 88.6998 112.3471 86.8572C 112.3471 85.1116 112.0465 83.5503 111.4452 82.1732C 110.8439 80.7961 109.9517 79.5645 108.7686 78.4783C 107.5855 77.3922 106.1114 76.4127 104.3464 75.5399C 102.6008 74.6671 100.5739 73.8816 98.2659 73.1833C 96.8888 72.7566 95.6766 72.3202 94.6292 71.8741C 93.5818 71.428 92.6993 70.9528 91.9817 70.4485C 91.2641 69.9442 90.721 69.4012 90.3525 68.8193C 90.0033 68.2374 89.8288 67.5877 89.8288 66.87C 89.8288 65.9197 90.0809 65.0662 90.5852 64.3098C 91.0895 63.534 91.8459 62.923 92.8545 62.4769C 93.8631 62.0114 95.1238 61.7787 96.6366 61.7787C 98.2077 61.7787 99.5072 62.0502 100.5352 62.5933C 101.5825 63.1364 102.3583 63.8831 102.8626 64.8335C 103.3863 65.7645 103.6482 66.8506 103.6482 68.092L 112.318 68.092C 112.318 65.5705 111.6682 63.3303 110.3687 61.3714C 109.0886 59.4124 107.2848 57.8705 104.9574 56.7455C 102.6299 55.6206 99.9048 55.0581 96.7821 55.0581C 94.4934 55.0581 92.389 55.3393 90.4688 55.9018C 88.5681 56.4643 86.9194 57.2692 85.5229 58.3166C 84.1265 59.3445 83.0403 60.5859 82.2645 62.0405C 81.4887 63.4758 81.1008 65.0759 81.1008 66.8409C 81.1008 68.6641 81.4693 70.2643 82.2063 71.6414C 82.9627 73.0184 83.9907 74.2307 85.2902 75.278C 86.6091 76.306 88.122 77.2079 89.8288 77.9837C 91.555 78.7595 93.3782 79.4578 95.2983 80.0785C 97.0246 80.6215 98.4307 81.1452 99.5169 81.6495C 100.603 82.1538 101.4468 82.6678 102.048 83.1915C 102.6493 83.6957 103.0566 84.2582 103.2699 84.8789ZM 77.6095 55.64L 67.8923 55.64L 58.2921 87.8835L 48.7198 55.64L 39.0608 55.64L 53.7238 98L 62.8592 98L 77.6095 55.64Z"/>
      </g>
    </g>
  </g>
  <g id="g-root-cp_1_g-1_1qbz0y01ao20pb-stroke-fill" data-item-order="-454158" transform="translate(44, 110)">
    <g id="cp_1_g-1_1qbz0y01ao20pb-fill" stroke="none" fill="#43dd93">
      <g>
        <path d="M 490 10L 10 10L 10 394L 490 394L 490 279.773C 449.725 276.709 418 243.059 418 202C 418 160.941 449.725 127.291 490 124.227L 490 10Z"/>
      </g>
    </g>
    <g id="cp_1_g-1_1qbz0y01ao20pb-stroke" fill="none" stroke-linecap="round" stroke-linejoin="round" stroke-miterlimit="4" stroke="#2c2c2c" stroke-width="2">
      <g>
        <path d="M 490 10L 10 10L 10 394L 490 394L 490 279.7727C 449.7253 276.7089 418 243.0594 418 202C 418 160.9406 449.7253 127.2911 490 124.2273L 490 10Z"/>
      </g>
    </g>
  </g>
  <g id="g-root-ic_ufo_v9uz601ao21hm-stroke-fill" data-item-order="-36864" transform="translate(68, 206)">
    <g id="ic_ufo_v9uz601ao21hm-fill" stroke="none" fill="#f4f4f4">
      <g>
        <path d="M 173.119995 127.919998C 171.970718 123.634903 167.565582 121.092552 163.280319 122.24118C 158.995041 123.389809 156.452026 127.794556 157.599991 132.079987L 174.559998 196.080002C 175.223358 198.927292 177.38707 201.185989 180.203262 201.970993C 183.01944 202.755997 186.039581 201.942291 188.080185 199.848709C 190.120804 197.755142 190.856888 194.715164 190 191.919998ZM 49.279999 122C 45.017563 120.882202 40.653774 123.421783 39.52 127.68L 22.560001 191.679993C 21.703114 194.475159 22.439196 197.515137 24.479809 199.608719C 26.520424 201.702286 29.540554 202.516006 32.356743 201.731003C 35.172935 200.945999 37.336639 198.687302 38 195.839996L 54.959999 131.839996C 55.521126 129.781586 55.23679 127.584328 54.170189 125.736557C 53.103592 123.888786 51.343102 122.54361 49.279999 122ZM 122 169.440002C 126.81382 168.99353 130.49559 164.954483 130.49559 160.119995C 130.49559 155.285522 126.81382 151.24646 122 150.800003L 94.32 150.800003C 89.50618 151.24646 85.824402 155.285522 85.824402 160.119995C 85.824402 164.954483 89.50618 168.99353 94.32 169.440002L 98.959999 169.440002L 98.959999 170.720001L 86.800003 187.199997C 83.751389 191.3311 84.628914 197.151398 88.760002 200.200012C 92.89109 203.248611 98.711388 202.371094 101.760002 198.240005L 108.400002 189.279999L 114.800003 198.320007C 117.914894 202.51738 123.842644 203.394897 128.040009 200.280014C 132.237366 197.165115 133.114899 191.237366 130 187.040009L 118 170.639999L 118 169.440002ZM 122 130.959991C 122.032402 125.290367 118.642029 120.160957 113.413239 117.968796C 108.184448 115.776634 102.149719 116.954582 98.129143 120.952187C 94.108566 124.949791 92.896049 130.977661 95.058212 136.218933C 97.220375 141.460205 102.330276 144.879913 108.000008 144.880005C 111.70565 144.901291 115.266846 143.444138 117.894684 140.831314C 120.522514 138.218506 122.000061 134.66571 122 130.959991ZM 197.839996 86C 199.026337 86.012306 200.161499 85.517494 200.959991 84.639992C 201.773651 83.788422 202.130524 82.598831 201.919998 81.440002C 199.159714 65.37603 185.097092 53.725109 168.800003 54.000004L 43.200001 54C 26.872849 53.685173 12.764793 65.345566 10 81.440002C 9.789474 82.598831 10.146352 83.788422 10.96 84.639999C 11.758485 85.517494 12.893648 86.012306 14.08 85.999992L 23.119999 86C 23.937262 86.010612 24.665829 86.517441 24.959999 87.279999C 25.598186 88.889503 26.319149 90.464943 27.120001 92.000008C 34.261478 105.552689 48.320854 114.036095 63.639999 114.036095C 78.959145 114.036095 93.018524 105.552689 100.159996 92C 100.960854 90.464943 101.681816 88.889503 102.320007 87.280006C 102.594788 86.502449 103.335419 85.987228 104.159996 85.999992L 107.839996 86C 108.664574 85.987228 109.405197 86.502449 109.679993 87.279999C 110.318192 88.889503 111.039154 90.464943 111.840004 92.000008C 118.981476 105.552689 133.040863 114.036095 148.360001 114.036095C 163.679138 114.036095 177.738525 105.552689 184.880005 92C 185.680862 90.464943 186.401825 88.889503 187.040009 87.280006C 187.314789 86.502449 188.055405 85.987228 188.87999 85.999992ZM 63.599998 98C 56.279144 97.933182 49.330246 94.764023 44.48 89.279999C 44.09111 88.641197 44.09111 87.838799 44.48 87.199997C 44.746311 86.56501 45.320545 86.111671 46 86L 81.199997 86C 81.997772 85.997223 82.720894 86.468826 83.040001 87.199997C 83.469475 87.826828 83.469475 88.653175 83.040001 89.279999C 78.13485 94.873245 71.039207 98.056061 63.600002 98ZM 148.399994 98C 141.072403 97.96373 134.111603 94.789146 129.279999 89.279999C 128.850525 88.653175 128.850525 87.826828 129.279999 87.199997C 129.599106 86.468826 130.322235 85.997223 131.119995 86L 166.320007 86C 167.088608 86.028313 167.772873 86.494858 168.080002 87.199997C 168.509476 87.826828 168.509476 88.653175 168.080002 89.279999C 163.120102 94.937378 155.922668 98.126488 148.400009 98ZM 106 10C 83.909821 9.794189 63.185089 20.667164 50.799999 38.959999C 50.485859 39.589661 50.485859 40.330338 50.799999 40.959999C 51.164078 41.590939 51.831692 41.985439 52.559998 42L 160 42C 160.813004 42.075958 161.595261 41.669186 161.999985 40.959999C 162.314133 40.330338 162.314133 39.589661 162 38.959999C 149.458649 20.427507 128.372101 9.522745 105.999992 10Z"/>
      </g>
    </g>
  </g>
  <g id="g-root-ic_ques_74gaw1ao7myx-stroke-fill" data-item-order="-36864" transform="translate(800, 206)">
    <g id="ic_ques_74gaw1ao7myx-fill" stroke="none" fill="#f4f4f4">
      <g>
        <path d="M 38.559998 133.679993C 38.514717 130.867783 36.995979 128.285919 34.559998 126.879997C 33.310699 126.142487 32.155579 125.256004 31.120001 124.239998C 27.493999 120.420074 25.636642 115.254295 26 110C 25.978634 104.498192 28.154764 99.215553 32.045158 95.325157C 35.935555 91.434761 41.218193 89.258629 46.720001 89.279999C 48.146553 89.285851 49.568241 89.4468 50.959999 89.760002C 53.341755 90.246689 55.81559 89.624008 57.683113 88.067741C 59.55064 86.511467 60.609219 84.190475 60.560001 81.760002C 61.200001 35.760002 126.959999 22.880001 147.119995 65.759995C 148.49144 68.645058 151.447739 70.437714 154.639999 70.32C 163.825348 69.847366 172.703766 73.694679 178.639999 80.720001C 183.951782 86.923645 186.597168 94.974838 186 103.119995C 185.641357 110.337067 182.450439 117.121368 177.119995 122C 174.68364 124.211487 173.437515 127.445473 173.759995 130.720001C 173.953278 133.406357 175.629684 135.760223 178.105225 136.821167C 180.58075 137.882111 183.441422 137.472702 185.520004 135.76001C 196.07196 127.486473 202.165115 114.767754 202.000015 101.360008C 202.568024 77.170494 184.330246 56.661724 160.240005 54.400002C 159.609955 54.338585 159.046188 53.982517 158.720001 53.439999C 145.750183 31.856138 120.936241 20.355339 96.083778 24.409286C 71.231323 28.463234 51.358456 47.253368 45.919998 71.839996C 45.768452 72.700172 45.03307 73.335274 44.16 73.360001C 32.080391 74.259827 21.191021 80.972458 14.96 91.360001C 11.459968 97.281952 9.738114 104.086052 10 110.959999C 9.83472 120.201157 13.412447 129.116623 19.92 135.680008C 21.948553 137.681854 24.235447 139.403763 26.719999 140.800003C 29.21459 142.165222 32.246403 142.103577 34.68343 140.638062C 37.120453 139.172546 38.596333 136.523499 38.559998 133.679993ZM 158 136.399994C 158 107.681198 134.718811 84.400009 106.000008 84.400009C 77.281197 84.400009 54.000008 107.681198 54.000004 136.400009C 54.000004 165.118805 77.281197 188.400009 106 188.400009C 134.700531 188.355942 157.955948 165.10054 158 136.399994ZM 100 146.399994L 100 142C 100.01799 137.26236 103.358032 133.1875 108 132.240005C 112.659966 131.271149 115.7705 126.85498 115.113258 122.140961C 114.456017 117.426949 110.256165 114.030006 105.508904 114.372734C 100.761642 114.715469 97.093292 118.680458 97.120003 123.440002C 97.120003 126.753716 94.433708 129.440002 91.120003 129.440002C 87.806297 129.440002 85.120003 126.753716 85.120003 123.440002C 84.637611 115.628098 88.531349 108.194061 95.227669 104.142159C 101.923988 100.090256 110.316017 100.090256 117.012337 104.142159C 123.708656 108.194061 127.602394 115.628098 127.120003 123.440002C 127.048859 132.215729 121.577942 140.040405 113.360008 143.12001C 112.597443 143.414169 112.090614 144.142746 112.080002 144.960007L 112.080002 146.399994C 112.080002 149.713715 109.393715 152.400009 106.080002 152.400009C 102.766296 152.400009 100.080002 149.713715 100.080002 146.400009ZM 106 160.399994C 110.418282 160.399994 114 163.98172 114 168.399994C 114 172.818283 110.418282 176.399994 106 176.399994C 101.581718 176.399994 98 172.818283 98 168.399994C 98 163.98172 101.581718 160.399994 106 160.399994Z"/>
      </g>
    </g>
  </g>
  <g id="g-root-tx_determin_1hgc0p41ao229t-stroke-fill" data-item-order="0" transform="translate(272, 50)">
    <g id="tx_determin_1hgc0p41ao229t-fill" stroke="none" fill="#f4f4f4">
      <g>
        <text style="font: 20px Roboto, sans-serif; white-space: pre;" font-size="20px" font-family="Roboto, sans-serif">
          <tspan x="11.95" y="34" dominant-baseline="ideographic">Determine the credibility of the Eagle River UFO encounter</tspan>
        </text>
      </g>
    </g>
  </g>
  <g id="g-root-tx_supporti_zjfqfc1aoagoy-stroke-fill" data-item-order="0" transform="translate(284, 236)">
    <g id="tx_supporti_zjfqfc1aoagoy-fill" stroke="none" fill="#2c2c2c">
      <g>
        <text style="font: bold 20px Roboto, sans-serif; white-space: pre;" font-weight="bold" font-size="20px" font-family="Roboto, sans-serif">
          <tspan x="12" y="34" dominant-baseline="ideographic">Supporting </tspan>
          <tspan x="12" y="58" dominant-baseline="ideographic">Evidence</tspan>
        </text>
      </g>
    </g>
  </g>
  <g id="g-root-tx_highligh_m7z8201aoai9v-stroke-fill" data-item-order="0" transform="translate(284, 296)">
    <g id="tx_highligh_m7z8201aoai9v-fill" stroke="none" fill="#2c2c2c">
      <g>
        <text style="font: 15px Roboto, sans-serif; white-space: pre;" font-size="15px" font-family="Roboto, sans-serif">
          <tspan x="12" y="31" dominant-baseline="ideographic">Highlights physical </tspan>
          <tspan x="12" y="49" dominant-baseline="ideographic">evidence and </tspan>
          <tspan x="12" y="67" dominant-baseline="ideographic">witness reliability</tspan>
        </text>
      </g>
    </g>
  </g>
  <g id="g-root-tx_skeptica_1i6iw1aoahho-stroke-fill" data-item-order="0" transform="translate(668, 218)">
    <g id="tx_skeptica_1i6iw1aoahho-fill" stroke="none" fill="#2c2c2c">
      <g>
        <text style="font: bold 20px Roboto, sans-serif; white-space: pre;" font-weight="bold" font-size="20px" font-family="Roboto, sans-serif">
          <tspan x="32.66" y="34" dominant-baseline="ideographic">Skeptical </tspan>
          <tspan x="16.41" y="58" dominant-baseline="ideographic">Arguments</tspan>
        </text>
      </g>
    </g>
  </g>
  <g id="g-root-tx_question_1lr5q4o1aoaivh-stroke-fill" data-item-order="0" transform="translate(632, 278)">
    <g id="tx_question_1lr5q4o1aoaivh-fill" stroke="none" fill="#2c2c2c">
      <g>
        <text style="font: 15px Roboto, sans-serif; white-space: pre;" font-size="15px" font-family="Roboto, sans-serif">
          <tspan x="59.73" y="31" dominant-baseline="ideographic">Questions the </tspan>
          <tspan x="74.95" y="49" dominant-baseline="ideographic">encounter's </tspan>
          <tspan x="45.47" y="67" dominant-baseline="ideographic">authenticity and </tspan>
          <tspan x="17.2" y="85" dominant-baseline="ideographic">suggests alternative </tspan>
          <tspan x="66.8" y="103" dominant-baseline="ideographic">explanations</tspan>
        </text>
      </g>
    </g>
  </g>
</svg>
