<?xml version='1.0' encoding='utf-8'?>
<svg xmlns="http://www.w3.org/2000/svg" xmlns:xlink="http://www.w3.org/1999/xlink" width="384" height="588" viewBox="0 0 384 588" style="fill:none;stroke:none;fill-rule:evenodd;clip-rule:evenodd;stroke-linecap:round;stroke-linejoin:round;stroke-miterlimit:1.5;" version="1.1">
  <style class="text-font-style fontImports" data-font-family="Roboto">@import url('https://fonts.googleapis.com/css2?family=Roboto:wght@400;700&amp;display=block');</style>
  <rect x="0" y="0" width="384" height="588" fill="#252a34" stroke="none" id="programmatic_background"/>
  <g id="g-root-tf_1qbcgp41ao68e8-stroke-fill" data-item-order="-196272" transform="translate(18, 12)"/>
  <g id="g-root-cp_1_column-1_1q7lm6g1ao6add-stroke-fill" data-item-order="-140390" transform="translate(59, 143)">
    <g id="cp_1_column-1_1q7lm6g1ao6add-fill" stroke="none" fill="none">
      <g>
        <path d="M 10 13C 10 14.656854 11.343146 16 13 16C 14.656854 16 16 14.656854 16 13C 16 11.343146 14.656854 10 13 10C 11.343146 10 10 11.343146 10 13"/>
      </g>
    </g>
    <g id="cp_1_column-1_1q7lm6g1ao6add-stroke" fill="none" stroke-linecap="round" stroke-linejoin="round" stroke-miterlimit="4" stroke="#4f91fc" stroke-width="2">
      <g>
        <path d="M 10 13C 10 14.656854 11.343146 16 13 16C 14.656854 16 16 14.656854 16 13C 16 11.343146 14.656854 10 13 10C 11.343146 10 10 11.343146 10 13"/>
      </g>
    </g>
    <g id="cp_1_column-1_1q7lm6g1ao6add-stroke" fill="none" stroke-linecap="round" stroke-linejoin="round" stroke-miterlimit="4" stroke="#4f91fc" stroke-width="2">
      <g>
        <path d="M 13 16L 13 142"/>
      </g>
    </g>
    <g id="cp_1_column-1_1q7lm6g1ao6add-fill" stroke="none" fill="none">
      <g>
        <path d="M 10 145C 10 146.656854 11.343146 148 13 148C 14.656854 148 16 146.656854 16 145C 16 143.343146 14.656854 142 13 142C 11.343146 142 10 143.343146 10 145"/>
      </g>
    </g>
    <g id="cp_1_column-1_1q7lm6g1ao6add-stroke" fill="none" stroke-linecap="round" stroke-linejoin="round" stroke-miterlimit="4" stroke="#4f91fc" stroke-width="2">
      <g>
        <path d="M 10 145C 10 146.656854 11.343146 148 13 148C 14.656854 148 16 146.656854 16 145C 16 143.343146 14.656854 142 13 142C 11.343146 142 10 143.343146 10 145"/>
      </g>
    </g>
  </g>
  <g id="g-root-cp_1_g-1_1cwrkw81ao68sj-stroke-fill" data-item-order="-140374" transform="translate(62, 290)">
    <g id="cp_1_g-1_1cwrkw81ao68sj-fill" stroke="none" fill="none">
      <g>
        <path d="M 76 10L 10 10L 28 46L 10 82L 76 82L 94 46L 76 10Z"/>
      </g>
    </g>
    <g id="cp_1_g-1_1cwrkw81ao68sj-stroke" fill="none" stroke-linecap="round" stroke-linejoin="round" stroke-miterlimit="4" stroke="#4f91fc" stroke-width="2">
      <g>
        <path d="M 76 10L 10 10L 28 46L 10 82L 76 82L 94 46L 76 10Z"/>
      </g>
    </g>
  </g>
  <g id="g-root-cp_2_g-2_1414knc1ao69l9-stroke-fill" data-item-order="-140366" transform="translate(152, 290)">
    <g id="cp_2_g-2_1414knc1ao69l9-fill" stroke="none" fill="none">
      <g>
        <path d="M 76 10L 10 10L 28 46L 10 82L 76 82L 94 46L 76 10Z"/>
      </g>
    </g>
    <g id="cp_2_g-2_1414knc1ao69l9-stroke" fill="none" stroke-linecap="round" stroke-linejoin="round" stroke-miterlimit="4" stroke="#1ac3fb" stroke-width="2">
      <g>
        <path d="M 76 10L 10 10L 28 46L 10 82L 76 82L 94 46L 76 10Z"/>
      </g>
    </g>
  </g>
  <g id="g-root-cp_2_column-2_zlb2iw1ao6adj-stroke-fill" data-item-order="-140358" transform="translate(149, 371)">
    <g id="cp_2_column-2_zlb2iw1ao6adj-fill" stroke="none" fill="none">
      <g>
        <path d="M 10 13C 10 14.656854 11.343146 16 13 16C 14.656854 16 16 14.656854 16 13C 16 11.343146 14.656854 10 13 10C 11.343146 10 10 11.343146 10 13"/>
      </g>
    </g>
    <g id="cp_2_column-2_zlb2iw1ao6adj-stroke" fill="none" stroke-linecap="round" stroke-linejoin="round" stroke-miterlimit="4" stroke="#1ac3fb" stroke-width="2">
      <g>
        <path d="M 10 13C 10 14.656854 11.343146 16 13 16C 14.656854 16 16 14.656854 16 13C 16 11.343146 14.656854 10 13 10C 11.343146 10 10 11.343146 10 13"/>
      </g>
    </g>
    <g id="cp_2_column-2_zlb2iw1ao6adj-stroke" fill="none" stroke-linecap="round" stroke-linejoin="round" stroke-miterlimit="4" stroke="#1ac3fb" stroke-width="2">
      <g>
        <path d="M 13 16L 13 130"/>
      </g>
    </g>
    <g id="cp_2_column-2_zlb2iw1ao6adj-fill" stroke="none" fill="none">
      <g>
        <path d="M 10 133C 10 134.656854 11.343146 136 13 136C 14.656854 136 16 134.656854 16 133C 16 131.343146 14.656854 130 13 130C 11.343146 130 10 131.343146 10 133"/>
      </g>
    </g>
    <g id="cp_2_column-2_zlb2iw1ao6adj-stroke" fill="none" stroke-linecap="round" stroke-linejoin="round" stroke-miterlimit="4" stroke="#1ac3fb" stroke-width="2">
      <g>
        <path d="M 10 133C 10 134.656854 11.343146 136 13 136C 14.656854 136 16 134.656854 16 133C 16 131.343146 14.656854 130 13 130C 11.343146 130 10 131.343146 10 133"/>
      </g>
    </g>
  </g>
  <g id="g-root-tx_theeagle_mah18o1ao68sp-stroke-fill" data-item-order="0" transform="translate(38, 50)">
    <g id="tx_theeagle_mah18o1ao68sp-fill" stroke="none" fill="#f4f4f4">
      <g>
        <text style="font: 20px Roboto, sans-serif; white-space: pre;" font-size="20px" font-family="Roboto, sans-serif">
          <tspan x="11.82" y="34" dominant-baseline="ideographic">The Eagle River UFO Encounter: </tspan>
          <tspan x="60.82" y="58" dominant-baseline="ideographic">A Timeline of Events</tspan>
        </text>
      </g>
    </g>
  </g>
  <g id="g-root-tx_april181_8z0ivc1ao6adm-stroke-fill" data-item-order="0" transform="translate(74, 146)">
    <g id="tx_april181_8z0ivc1ao6adm-fill" stroke="none" fill="#4f91fc">
      <g>
        <text style="font: bold 20px Roboto, sans-serif; white-space: pre;" font-weight="bold" font-size="20px" font-family="Roboto, sans-serif">
          <tspan x="12" y="34" dominant-baseline="ideographic">April 18, 1961, </tspan>
          <tspan x="12" y="58" dominant-baseline="ideographic">11:00 AM</tspan>
        </text>
      </g>
    </g>
  </g>
  <g id="g-root-tx_joesimon_1upajk81ao68ln-stroke-fill" data-item-order="0" transform="translate(74, 206)">
    <g id="tx_joesimon_1upajk81ao68ln-fill" stroke="none" fill="#f4f4f4">
      <g>
        <text style="font: 15px Roboto, sans-serif; white-space: pre;" font-size="15px" font-family="Roboto, sans-serif">
          <tspan x="12" y="31" dominant-baseline="ideographic">Joe Simonton </tspan>
          <tspan x="12" y="49" dominant-baseline="ideographic">witnesses a UFO and </tspan>
          <tspan x="12" y="67" dominant-baseline="ideographic">receives pancakes</tspan>
        </text>
      </g>
    </g>
  </g>
  <g id="g-root-tx_april271_1cy0j2g1ao6ays-stroke-fill" data-item-order="0" transform="translate(164, 386)">
    <g id="tx_april271_1cy0j2g1ao6ays-fill" stroke="none" fill="#1ac3fb">
      <g>
        <text style="font: bold 20px Roboto, sans-serif; white-space: pre;" font-weight="bold" font-size="20px" font-family="Roboto, sans-serif">
          <tspan x="12" y="34" dominant-baseline="ideographic">April 27, 1961</tspan>
        </text>
      </g>
    </g>
  </g>
  <g id="g-root-tx_sixpeopl_142zzwo1ao68lp-stroke-fill" data-item-order="0" transform="translate(164, 422)">
    <g id="tx_sixpeopl_142zzwo1ao68lp-fill" stroke="none" fill="#f4f4f4">
      <g>
        <text style="font: 15px Roboto, sans-serif; white-space: pre;" font-size="15px" font-family="Roboto, sans-serif">
          <tspan x="12" y="28" dominant-baseline="ideographic">Six people in </tspan>
          <tspan x="12" y="46" dominant-baseline="ideographic">Rhinelander report </tspan>
          <tspan x="12" y="64" dominant-baseline="ideographic">seeing a silver-</tspan>
          <tspan x="12" y="82" dominant-baseline="ideographic">shaped craft</tspan>
        </text>
      </g>
    </g>
    <defs>
      <pattern id="crawlingPattern-0000001b" x="0" y="0" width="12" height="12" patternUnits="userSpaceOnUse" fill="#0000001b">
        <use href="#crawlingSymbol"/>
      </pattern>
      <symbol id="crawlingSymbol">
        <g>
          <path d="M -12.5 12.5 l 13 -13 l 6 0 l -13 13 Z M -0.5 12.5 l 13 -13 l 6 0 l -13 13 Z M 11.5 12.5 l 13 -13 l 6 0 l -13 13 Z"/>
        </g>
      </symbol>
      <pattern id="crawlingPattern-0060fba2" x="0" y="0" width="12" height="12" patternUnits="userSpaceOnUse" fill="#0060fba2">
        <use href="#crawlingSymbol"/>
      </pattern>
      <pattern id="crawlingPattern-00a3d9d9" x="0" y="0" width="12" height="12" patternUnits="userSpaceOnUse" fill="#00a3d9d9">
        <use href="#crawlingSymbol"/>
      </pattern>
    </defs>
  </g>
</svg>
