<?xml version='1.0' encoding='utf-8'?>
<svg xmlns="http://www.w3.org/2000/svg" xmlns:xlink="http://www.w3.org/1999/xlink" width="816" height="636" viewBox="0 0 816 636" style="fill:none;stroke:none;fill-rule:evenodd;clip-rule:evenodd;stroke-linecap:round;stroke-linejoin:round;stroke-miterlimit:1.5;" version="1.1">
  <style class="text-font-style fontImports" data-font-family="Roboto">@import url('https://fonts.googleapis.com/css2?family=Roboto:wght@400;700&amp;display=block');</style>
  <rect x="0" y="0" width="816" height="636" fill="#252a34" stroke="none" id="programmatic_background"/>
  <g id="g-root-tf_1lw5ync1aohhxh-stroke-fill" data-item-order="-477360" transform="translate(18, 12)"/>
  <g id="g-root-sy_-1_cu_w59k1aohjii-stroke-fill" data-item-order="-316218" transform="translate(32, 265.00390625)">
    <g id="sy_-1_cu_w59k1aohjii-fill" stroke="none" fill="none">
      <g>
        <path d="M 10.001 143L 10 47L 67 47L 70 59L 322 59L 319 47L 367 47L 370 59L 622 59L 619 47L 646 47L 646 10L 742 95L 646.002 180L 646 143L 619 143L 622 131L 370 131L 367 143L 319.001 143L 322.001 131L 70.001 131L 67.001 143L 10.001 143Z"/>
      </g>
    </g>
    <g id="sy_-1_cu_w59k1aohjii-stroke" fill="none" stroke-linecap="round" stroke-linejoin="round" stroke-miterlimit="4" stroke="#f4f4f4" stroke-width="2">
      <g>
        <path d="M 10.001 143L 10 47L 67 47L 70 59L 322 59L 319 47L 367 47L 370 59L 622 59L 619 47L 646 47L 646 10L 742 95L 646.0017 180L 646 143L 619 143L 622 131L 370 131L 367 143L 319.001 143L 322.001 131L 70.001 131L 67.001 143L 10.001 143Z"/>
      </g>
    </g>
  </g>
  <g id="g-root-sy_4_cu_1lr65yg1aohhqj-stroke-fill" data-item-order="-316214" transform="translate(347, 386)">
    <g id="sy_4_cu_1lr65yg1aohhqj-fill" stroke="none" fill="none">
      <g>
        <path d="M 307 10L 295 58L 43 58L 55 10L 307 10ZM 291.992188 70L 279.992188 118L 27.992188 118L 39.992188 70L 291.992188 70ZM 277 130L 25 130L 10 190L 262 190L 277 130Z"/>
      </g>
    </g>
    <g id="sy_4_cu_1lr65yg1aohhqj-stroke" fill="none" stroke-linecap="round" stroke-linejoin="round" stroke-miterlimit="4" stroke="#cb68f9" stroke-width="2">
      <g>
        <path d="M 307 10L 295 58L 43 58L 55 10L 307 10ZM 291.992188 70L 279.992188 118L 27.992188 118L 39.992188 70L 291.992188 70ZM 277 130L 25 130L 10 190L 262 190L 277 130Z"/>
      </g>
    </g>
  </g>
  <g id="g-root-sy_3_cu_18fpnl41aohjbg-stroke-fill" data-item-order="-316210" transform="translate(347, 134)">
    <g id="sy_3_cu_18fpnl41aohjbg-fill" stroke="none" fill="none">
      <g>
        <path d="M 307 190L 295 142L 43 142L 55 190L 307 190ZM 291.992188 130L 279.992188 82L 27.992188 82L 39.992188 130L 291.992188 130ZM 277 70L 25 70L 10 10L 262 10L 277 70Z"/>
      </g>
    </g>
    <g id="sy_3_cu_18fpnl41aohjbg-stroke" fill="none" stroke-linecap="round" stroke-linejoin="round" stroke-miterlimit="4" stroke="#f79438" stroke-width="2">
      <g>
        <path d="M 307 190L 295 142L 43 142L 55 190L 307 190ZM 291.992188 130L 279.992188 82L 27.992188 82L 39.992188 130L 291.992188 130ZM 277 70L 25 70L 10 10L 262 10L 277 70Z"/>
      </g>
    </g>
  </g>
  <g id="g-root-sy_2_cu_140imjs1aohgxx-stroke-fill" data-item-order="-316206" transform="translate(47, 386)">
    <g id="sy_2_cu_140imjs1aohgxx-fill" stroke="none" fill="none">
      <g>
        <path d="M 307.000977 10L 295.000977 58L 43.000977 58L 55.000977 10L 307.000977 10ZM 291.993164 70L 279.993164 118L 27.993164 118L 39.993164 70L 291.993164 70ZM 277.001 130L 25.001 130L 10 190L 262 190L 277.001 130Z"/>
      </g>
    </g>
    <g id="sy_2_cu_140imjs1aohgxx-stroke" fill="none" stroke-linecap="round" stroke-linejoin="round" stroke-miterlimit="4" stroke="#ffe711" stroke-width="2">
      <g>
        <path d="M 307.000977 10L 295.000977 58L 43.000977 58L 55.000977 10L 307.000977 10ZM 291.993164 70L 279.993164 118L 27.993164 118L 39.993164 70L 291.993164 70ZM 277.001 130L 25.001 130L 10 190L 262 190L 277.001 130Z"/>
      </g>
    </g>
  </g>
  <g id="g-root-sy_1_cu_qp246g1aohiiu-stroke-fill" data-item-order="-316202" transform="translate(47, 134)">
    <g id="sy_1_cu_qp246g1aohiiu-fill" stroke="none" fill="none">
      <g>
        <path d="M 307 190L 295 142L 43 142L 55 190L 307 190ZM 291.992188 130L 279.992188 82L 27.992188 82L 39.992188 130L 291.992188 130ZM 277 70L 25 70L 10 10L 262 10L 277 70Z"/>
      </g>
    </g>
    <g id="sy_1_cu_qp246g1aohiiu-stroke" fill="none" stroke-linecap="round" stroke-linejoin="round" stroke-miterlimit="4" stroke="#b7b7b7" stroke-width="2">
      <g>
        <path d="M 307 190L 295 142L 43 142L 55 190L 307 190ZM 291.992188 130L 279.992188 82L 27.992188 82L 39.992188 130L 291.992188 130ZM 277 70L 25 70L 10 10L 262 10L 277 70Z"/>
      </g>
    </g>
  </g>
  <g id="g-root-tx_thefatim_htf3xk1aohjbj-stroke-fill" data-item-order="0" transform="translate(344, 332)">
    <g id="tx_thefatim_htf3xk1aohjbj-fill" stroke="none" fill="#4f91fc">
      <g>
        <text style="font: bold 25px Roboto, sans-serif; white-space: pre;" font-weight="bold" font-size="25px" font-family="Roboto, sans-serif">
          <tspan x="13.2" y="43" dominant-baseline="ideographic">The Fatima Apparitions of 1917</tspan>
        </text>
      </g>
    </g>
  </g>
  <g id="g-root-tx_discrepa_8yekrs1aohhq8-stroke-fill" data-item-order="0" transform="translate(452, 392)">
    <g id="tx_discrepa_8yekrs1aohhq8-fill" stroke="none" fill="#cb68f9">
      <g>
        <text style="font: 15px Roboto, sans-serif; white-space: pre;" font-size="15px" font-family="Roboto, sans-serif">
          <tspan x="13.13" y="28" dominant-baseline="ideographic">Discrepancies in original </tspan>
          <tspan x="97.5" y="46" dominant-baseline="ideographic">testimonies</tspan>
        </text>
      </g>
    </g>
  </g>
  <g id="g-root-tx_similari_1uo24dk1aohj41-stroke-fill" data-item-order="0" transform="translate(413, 458)">
    <g id="tx_similari_1uo24dk1aohj41-fill" stroke="none" fill="#cb68f9">
      <g>
        <text style="font: 15px Roboto, sans-serif; white-space: pre;" font-size="15px" font-family="Roboto, sans-serif">
          <tspan x="13.8" y="31" dominant-baseline="ideographic">Similarities to modern UFOs</tspan>
        </text>
      </g>
    </g>
  </g>
  <g id="g-root-tx_ufologic_1lsf44o1aohjwq-stroke-fill" data-item-order="0" transform="translate(458, 512)">
    <g id="tx_ufologic_1lsf44o1aohjwq-fill" stroke="none" fill="#cb68f9">
      <g>
        <text style="font: bold 20px Roboto, sans-serif; white-space: pre;" font-weight="bold" font-size="20px" font-family="Roboto, sans-serif">
          <tspan x="48.64" y="34" dominant-baseline="ideographic">Ufological </tspan>
          <tspan x="23.22" y="58" dominant-baseline="ideographic">Perspectives</tspan>
        </text>
      </g>
    </g>
  </g>
  <g id="g-root-tx_meteorol_18hl2ug1aohibv-stroke-fill" data-item-order="0" transform="translate(428, 278)">
    <g id="tx_meteorol_18hl2ug1aohibv-fill" stroke="none" fill="#f79438">
      <g>
        <text style="font: 15px Roboto, sans-serif; white-space: pre;" font-size="15px" font-family="Roboto, sans-serif">
          <tspan x="17.36" y="31" dominant-baseline="ideographic">Meteorological phenomena</tspan>
        </text>
      </g>
    </g>
  </g>
  <g id="g-root-tx_psycholo_141rkq01aohj44-stroke-fill" data-item-order="0" transform="translate(449, 218)">
    <g id="tx_psycholo_141rkq01aohj44-fill" stroke="none" fill="#f79438">
      <g>
        <text style="font: 15px Roboto, sans-serif; white-space: pre;" font-size="15px" font-family="Roboto, sans-serif">
          <tspan x="20.09" y="31" dominant-baseline="ideographic">Psychological factors</tspan>
        </text>
      </g>
    </g>
  </g>
  <g id="g-root-tx_alternat_qqxjfs1aohhj9-stroke-fill" data-item-order="0" transform="translate(470, 140)">
    <g id="tx_alternat_qqxjfs1aohhj9-fill" stroke="none" fill="#f79438">
      <g>
        <text style="font: bold 20px Roboto, sans-serif; white-space: pre;" font-weight="bold" font-size="20px" font-family="Roboto, sans-serif">
          <tspan x="29.59" y="34" dominant-baseline="ideographic">Alternative </tspan>
          <tspan x="12.58" y="58" dominant-baseline="ideographic">Explanations</tspan>
        </text>
      </g>
    </g>
  </g>
  <g id="g-root-tx_physical_dfh12g1aohj46-stroke-fill" data-item-order="0" transform="translate(140, 398)">
    <g id="tx_physical_dfh12g1aohj46-fill" stroke="none" fill="#ffe711">
      <g>
        <text style="font: 15px Roboto, sans-serif; white-space: pre;" font-size="15px" font-family="Roboto, sans-serif">
          <tspan x="21.38" y="31" dominant-baseline="ideographic">Physical effects reported</tspan>
        </text>
      </g>
    </g>
  </g>
  <g id="g-root-tx_consiste_4mzs81aohhjb-stroke-fill" data-item-order="0" transform="translate(137, 458)">
    <g id="tx_consiste_4mzs81aohhjb-fill" stroke="none" fill="#ffe711">
      <g>
        <text style="font: 15px Roboto, sans-serif; white-space: pre;" font-size="15px" font-family="Roboto, sans-serif">
          <tspan x="18.19" y="31" dominant-baseline="ideographic">Consistent descriptions</tspan>
        </text>
      </g>
    </g>
  </g>
  <g id="g-root-tx_witnessa_1upxjmw1aohi4g-stroke-fill" data-item-order="0" transform="translate(122, 524)">
    <g id="tx_witnessa_1upxjmw1aohi4g-fill" stroke="none" fill="#ffe711">
      <g>
        <text style="font: bold 20px Roboto, sans-serif; white-space: pre;" font-weight="bold" font-size="20px" font-family="Roboto, sans-serif">
          <tspan x="13.89" y="34" dominant-baseline="ideographic">Witness Accounts</tspan>
        </text>
      </g>
    </g>
  </g>
  <g id="g-root-tx_churchna_1heh19k1aohjpd-stroke-fill" data-item-order="0" transform="translate(125, 218)">
    <g id="tx_churchna_1heh19k1aohjpd-fill" stroke="none" fill="#b7b7b7">
      <g>
        <text style="font: 15px Roboto, sans-serif; white-space: pre;" font-size="15px" font-family="Roboto, sans-serif">
          <tspan x="18.38" y="31" dominant-baseline="ideographic">Church narrative changes</tspan>
        </text>
      </g>
    </g>
  </g>
  <g id="g-root-tx_children_143mzzc1aohi4i-stroke-fill" data-item-order="0" transform="translate(164, 278)">
    <g id="tx_children_143mzzc1aohi4i-fill" stroke="none" fill="#b7b7b7">
      <g>
        <text style="font: 15px Roboto, sans-serif; white-space: pre;" font-size="15px" font-family="Roboto, sans-serif">
          <tspan x="17.8" y="31" dominant-baseline="ideographic">Children's testimonies</tspan>
        </text>
      </g>
    </g>
  </g>
  <g id="g-root-tx_historic_qs6hm01aohjpf-stroke-fill" data-item-order="0" transform="translate(122, 152)">
    <g id="tx_historic_qs6hm01aohjpf-fill" stroke="none" fill="#b7b7b7">
      <g>
        <text style="font: bold 20px Roboto, sans-serif; white-space: pre;" font-weight="bold" font-size="20px" font-family="Roboto, sans-serif">
          <tspan x="14.41" y="34" dominant-baseline="ideographic">Historical Context</tspan>
        </text>
      </g>
    </g>
  </g>
  <g id="g-root-tx_analyzin_dhcgbs1aohi4k-stroke-fill" data-item-order="0" transform="translate(116, 50)">
    <g id="tx_analyzin_dhcgbs1aohi4k-fill" stroke="none" fill="#f4f4f4">
      <g>
        <text style="font: bold 20px Roboto, sans-serif; white-space: pre;" font-weight="bold" font-size="20px" font-family="Roboto, sans-serif">
          <tspan x="12.04" y="34" dominant-baseline="ideographic">Analyzing the Fatima Apparitions: Miracle or UFO Encounter?</tspan>
        </text>
      </g>
    </g>
    <defs>
      <pattern id="crawlingPattern-0060fba2" x="0" y="0" width="12" height="12" patternUnits="userSpaceOnUse" fill="#0060fba2">
        <use href="#crawlingSymbol"/>
      </pattern>
      <symbol id="crawlingSymbol">
        <g>
          <path d="M -12.5 12.5 l 13 -13 l 6 0 l -13 13 Z M -0.5 12.5 l 13 -13 l 6 0 l -13 13 Z M 11.5 12.5 l 13 -13 l 6 0 l -13 13 Z"/>
        </g>
      </symbol>
      <pattern id="crawlingPattern-a700f578" x="0" y="0" width="12" height="12" patternUnits="userSpaceOnUse" fill="#a700f578">
        <use href="#crawlingSymbol"/>
      </pattern>
      <pattern id="crawlingPattern-f17400d3" x="0" y="0" width="12" height="12" patternUnits="userSpaceOnUse" fill="#f17400d3">
        <use href="#crawlingSymbol"/>
      </pattern>
      <pattern id="crawlingPattern-ddc700ff" x="0" y="0" width="12" height="12" patternUnits="userSpaceOnUse" fill="#ddc700ff">
        <use href="#crawlingSymbol"/>
      </pattern>
      <pattern id="crawlingPattern-00000024" x="0" y="0" width="12" height="12" patternUnits="userSpaceOnUse" fill="#00000024">
        <use href="#crawlingSymbol"/>
      </pattern>
      <pattern id="crawlingPattern-0000001b" x="0" y="0" width="12" height="12" patternUnits="userSpaceOnUse" fill="#0000001b">
        <use href="#crawlingSymbol"/>
      </pattern>
    </defs>
  </g>
</svg>
