<?xml version='1.0' encoding='utf-8'?>
<svg xmlns="http://www.w3.org/2000/svg" xmlns:xlink="http://www.w3.org/1999/xlink" width="816" height="792" viewBox="0 0 816 792" style="fill:none;stroke:none;fill-rule:evenodd;clip-rule:evenodd;stroke-linecap:round;stroke-linejoin:round;stroke-miterlimit:1.5;" version="1.1">
  <style class="text-font-style fontImports" data-font-family="Roboto">@import url('https://fonts.googleapis.com/css2?family=Roboto:wght@400;700&amp;display=block');</style>
  <rect x="0" y="0" width="816" height="792" fill="#252a34" stroke="none" id="programmatic_background"/>
  <g id="g-root-tf_18lb1rc1aybhu5-stroke-fill" data-item-order="-608226" transform="translate(12.019287109375, 12)">
    <g id="tf_18lb1rc1aybhu5-fill" stroke="none" fill="#2c2c2c">
      <g>
        <path d="M 0.000713 0L 791.960713 0L 791.960713 768L 0.000713 768Z"/>
      </g>
    </g>
    <defs>
      <pattern id="crawlingPattern-b5b5b51a" x="0" y="0" width="12" height="12" patternUnits="userSpaceOnUse" fill="#b5b5b51a">
        <use href="#crawlingSymbol"/>
      </pattern>
      <symbol id="crawlingSymbol">
        <g>
          <path d="M -12.5 12.5 l 13 -13 l 6 0 l -13 13 Z M -0.5 12.5 l 13 -13 l 6 0 l -13 13 Z M 11.5 12.5 l 13 -13 l 6 0 l -13 13 Z"/>
        </g>
      </symbol>
      <pattern id="crawlingPattern-0000001b" x="0" y="0" width="12" height="12" patternUnits="userSpaceOnUse" fill="#0000001b">
        <use href="#crawlingSymbol"/>
      </pattern>
      <pattern id="crawlingPattern-5f5f5f1a" x="0" y="0" width="12" height="12" patternUnits="userSpaceOnUse" fill="#5f5f5f1a">
        <use href="#crawlingSymbol"/>
      </pattern>
    </defs>
  </g>
  <g id="g-root-sy_0c_cu_1q7l9k81aybg1t-stroke-fill" data-item-order="-199243" transform="translate(242.70925903320312, 109.9999771118164)">
    <g id="sy_0c_cu_1q7l9k81aybg1t-fill" stroke="none" fill="#e8e8e8">
      <g>
        <path d="M 118.426088 174.450175C 114.554788 175.091875 110.467888 174.770275 106.699188 173.426075C 108.982788 170.063275 110.497588 166.284975 111.225288 162.349175C 112.392988 161.739075 113.507588 161.022775 114.436488 160.253375C 115.152988 159.669775 115.842988 158.979975 116.532888 158.237175C 116.536388 158.237975 116.539888 158.238775 116.543388 158.239575C 116.408388 158.375375 116.323488 158.461075 116.311888 158.473375C 121.964388 164.126875 128.710088 169.617575 135.031888 174.763175C 138.763588 177.800575 142.347488 180.717675 145.471588 183.477075C 139.372688 185.194575 132.695388 184.916775 126.900888 182.226475C 123.553488 180.660575 120.684188 177.873875 118.426088 174.450175ZM 180.852288 181.227275C 185.932288 183.776175 191.559988 185.073075 196.771388 184.694775C 199.230188 184.509375 201.583188 184.015175 203.796888 183.254875C 203.933188 182.243575 204.159288 181.258875 204.459088 180.328375C 206.703188 173.539575 212.164188 167.472375 218.489188 164.213875C 223.658188 161.556075 229.660188 161.140275 234.926188 162.684775C 237.486188 160.565775 241.031188 159.677575 244.669188 160.812475L 244.677188 160.798275C 244.899188 160.867775 245.117188 160.945375 245.333188 161.030775C 246.150188 160.346275 246.948188 159.650075 247.726188 158.950575C 249.009188 157.799975 250.174188 156.601175 251.224188 155.362375C 250.172188 155.362875 249.097188 155.296475 248.003188 155.159775C 242.403188 154.443475 237.467188 151.843575 233.858188 148.129475C 230.806188 149.296775 226.799188 149.217175 224.331188 148.182575C 219.580188 146.166275 217.112188 141.948175 216.980188 137.358575C 212.680188 136.960675 208.514188 135.528075 206.019488 133.511875C 204.220588 132.068375 202.690388 130.254075 201.432588 128.200575L 199.636188 128.097075C 194.243488 127.858175 189.488388 125.867475 185.689688 122.735375C 184.210188 126.081175 182.207488 129.095175 179.830488 131.632575C 179.830588 131.632575 179.830488 131.632675 179.830488 131.632575C 176.914388 144.381675 176.467088 158.981975 180.252288 177.941175C 180.468588 179.023575 180.668488 180.119475 180.852288 181.227275ZM 166.751788 139.431175C 162.001688 140.522275 156.927088 140.048875 152.026788 137.526675L 151.989888 137.661875C 150.786688 141.733375 148.728488 145.526675 145.733888 148.895375C 145.735588 148.893575 145.737288 148.891775 145.738988 148.889875C 147.253388 150.965375 148.938088 153.073075 150.717588 155.299375L 150.718588 155.300575C 161.107288 168.297675 164.452688 175.643875 165.471588 175.334175C 166.467088 175.031675 165.241688 167.421675 166.194088 150.634475C 166.401288 146.982775 166.613688 143.236975 166.733088 139.435575C 166.739388 139.434075 166.745588 139.432675 166.751788 139.431175ZM 141.005688 153.245375C 136.495988 156.607675 131.419388 158.429775 126.253188 158.900875C 126.263988 158.899975 126.274588 158.898975 126.285488 158.897975C 135.990588 166.560875 144.772388 169.425975 148.245688 170.559275C 149.040788 170.818675 149.557688 170.987275 149.743788 171.101975C 149.828188 166.706675 146.493688 161.633475 142.924288 156.202775C 142.284388 155.229275 141.636988 154.244175 141.000288 153.249475C 141.002188 153.248075 141.003888 153.246775 141.005688 153.245375ZM 254.025402 55.460659C 254.609302 55.779059 255.193102 56.097359 255.776902 56.442259L 255.776902 56.389259C 265.463302 62.278759 271.301702 71.670159 269.629902 83.183859C 268.064102 93.901659 261.323402 103.186959 252.804702 109.580559C 248.134002 113.082459 243.861302 115.178259 239.615202 115.788359C 238.421002 120.882059 234.546402 125.763459 230.167702 127.540859C 224.886602 129.689759 218.570502 127.753159 215.492102 123.216659C 211.254302 126.134959 206.181202 127.946759 201.402802 128.151859C 202.666102 130.225159 204.206202 132.056559 206.019102 133.511359C 208.513702 135.527559 212.680202 136.960159 216.979302 137.358059C 217.112002 141.947659 219.580102 146.165859 224.330402 148.182059C 226.798502 149.216659 230.805702 149.296259 233.857602 148.128959C 237.466802 151.842859 242.402902 154.442859 248.002402 155.158859C 259.042302 156.538859 268.118302 150.755859 271.223302 141.443559C 274.752802 140.939559 278.335502 139.400859 281.413902 137.888659C 289.003802 134.148059 294.231802 128.338059 295.771002 119.901759C 297.310202 111.412359 296.885602 102.631159 291.365702 95.680459L 291.418802 95.653959C 290.012202 93.849959 288.207602 92.072459 286.217302 90.401159C 290.834902 76.950759 280.485102 60.767859 268.277502 54.215059C 264.153802 52.004759 258.947802 50.756559 253.641802 50.631859C 253.893402 52.243959 254.025402 53.858359 254.025402 55.460659ZM 244.668915 160.812233C 241.030762 159.6773 237.486328 160.565468 234.925903 162.684441C 229.660095 161.139916 223.657929 161.555748 218.489166 164.213524C 212.16388 167.472038 206.702637 173.539162 204.458985 180.328087C 204.078247 181.509377 203.816467 182.77816 203.706421 184.077782C 198.438507 188.211876 195.448334 195.478417 196.594757 202.331352C 197.527008 207.924645 201.962311 212.47329 207.359955 215.19207C 206.494476 220.050316 208.671295 225.510185 213.110443 228.584313C 218.460877 232.298088 227.158631 233.116753 231.750488 228.914238C 236.249664 230.319023 241.646454 229.875511 245.096893 227.323753C 250.351319 229.638023 257.882233 227.813896 262.563385 224.174126C 269.011994 219.169212 269.293457 211.701897 266.111267 205.472191C 274.494812 195.582848 268.932282 177.755242 257.973969 171.88282C 256.359375 171.02639 254.671539 170.525215 252.943237 170.322518C 251.712708 165.996025 248.69516 162.057594 244.677124 160.798027L 244.668915 160.812233ZM 255.873849 56.351423C 255.288849 56.006423 254.704849 55.687923 254.120849 55.369423C 254.120849 41.885623 244.769849 27.552423 233.532849 20.863623C 226.944849 16.935323 220.196849 16.829123 214.166849 19.138423C 207.844849 11.520623 196.873349 8.229223 186.699049 10.936623C 180.934449 12.476123 175.488749 16.377923 171.689949 21.421023C 165.234749 18.421723 157.743449 17.970523 152.483649 24.022223C 151.978849 24.606223 151.500749 25.269823 151.049149 25.986423C 132.134949 19.244523 109.581449 34.878323 104.746649 53.405223C 100.761949 68.667323 106.845349 84.035623 118.427549 93.007123C 118.161949 95.342923 118.161949 97.758323 118.533849 100.120623C 119.994849 109.331023 127.007949 112.755023 134.605549 112.224023C 135.668149 121.249023 141.406049 130.247023 148.817649 135.555023C 162.817349 145.615023 179.234349 137.334023 185.689549 122.735023C 189.488349 125.867023 194.243449 127.858023 199.636149 128.097023C 204.922849 128.336023 210.766849 126.451023 215.548849 123.160023C 218.629849 127.699023 224.951849 129.636023 230.238849 127.486023C 234.621849 125.708023 238.500849 120.824023 239.695849 115.728023C 243.945849 115.117023 248.222849 113.020023 252.898849 109.516823C 261.425849 103.119923 268.172849 93.830023 269.740849 83.106623C 271.413849 71.587023 265.569849 62.190923 255.873849 56.298423L 255.873849 56.351423ZM 106.72517 48.138551C 105.93817 49.869851 105.29957 51.646551 104.82897 53.450851C 100.84827 68.705151 106.92547 84.065651 118.49597 93.032551C 118.23097 95.367151 118.23097 97.781351 118.60197 100.142451C 120.06197 109.348151 127.06797 112.770451 134.65797 112.239851C 135.71897 121.259751 141.45197 130.253251 148.85597 135.559151C 149.90297 136.312051 150.96397 136.962151 152.03297 137.514451C 150.70697 142.088251 148.30597 146.314251 144.71597 149.986351C 136.78097 158.130351 126.27197 160.438351 116.53297 158.236351C 115.84297 158.979351 115.15297 159.669351 114.43597 160.253351C 113.50697 161.022351 112.39297 161.738351 111.22497 162.348351C 110.18997 167.946351 107.56297 173.225351 103.39647 177.444351C 102.17567 178.664351 100.84877 179.752351 99.46877 180.760351C 97.45187 190.602351 92.03817 198.906351 80.73287 201.744351C 68.76417 204.742351 57.00777 201.055351 48.86057 193.361351C 48.66157 193.401351 48.47577 193.447351 48.29007 193.494351C 48.10427 193.540351 47.91847 193.587351 47.71947 193.627351C 35.11387 196.014351 23.67597 188.241351 17.04137 178.054351C 9.84957 167.018351 7.16927 151.710351 13.77727 139.772251C 15.92677 135.898951 18.92557 132.688951 22.45517 130.327851C 20.99557 126.242351 20.80987 121.705851 22.21637 117.832551C 23.78207 113.481751 27.12587 109.237051 31.21277 106.477951C 26.70127 94.407151 28.21397 80.452651 38.00657 70.079651C 48.72797 58.725151 65.92467 53.339651 80.44097 57.663951C 84.74017 53.976351 90.02127 51.243851 95.08997 49.678651C 98.97517 48.472151 102.89837 47.986051 106.72517 48.138551ZM 98.648752 216.215859C 99.331152 220.003459 101.683452 222.606259 105.095252 224.275659C 106.477952 224.957859 108.076052 225.639959 109.656252 225.873359C 111.038952 230.055859 115.115052 232.640759 120.071152 232.030459C 122.585052 231.725259 124.793752 230.558459 126.409852 228.889059C 127.792452 229.409659 129.570152 229.373759 130.683552 228.906959C 132.802452 228.009459 133.915752 226.106659 133.987552 224.060259C 135.908952 223.880759 137.776452 223.234559 138.907652 222.337059C 142.463052 219.482859 143.684152 213.397559 142.409252 209.125259C 142.696552 208.658559 142.947952 208.191859 143.163452 207.707159C 144.905252 203.614359 144.204852 198.713859 141.996252 194.944159C 139.715752 191.030959 135.765252 188.302459 131.240152 187.817759C 129.731852 187.656159 128.115752 187.727959 126.607352 188.122959C 122.674852 184.532759 115.438252 184.425059 111.002952 186.812559C 105.526252 189.738459 100.893352 196.990559 102.958352 203.022059C 102.060552 203.775959 101.270452 204.583759 100.624052 205.373559C 98.163952 208.496959 97.966452 212.428259 98.648752 216.233759L 98.648752 216.215859Z"/>
      </g>
    </g>
    <g id="sy_0c_cu_1q7l9k81aybg1t-stroke" fill="none" stroke-linecap="round" stroke-linejoin="round" stroke-miterlimit="4" stroke="#2c2c2c" stroke-width="2">
      <g>
        <path d="M 118.426088 174.450175C 114.554788 175.091875 110.467888 174.770275 106.699188 173.426075C 108.982788 170.063275 110.497588 166.284975 111.225288 162.349175C 112.392988 161.739075 113.507588 161.022775 114.436488 160.253375C 115.152988 159.669775 115.842988 158.979975 116.532888 158.237175C 116.536388 158.237975 116.539888 158.238775 116.543388 158.239575C 116.408388 158.375375 116.323488 158.461075 116.311888 158.473375C 121.964388 164.126875 128.710088 169.617575 135.031888 174.763175C 138.763588 177.800575 142.347488 180.717675 145.471588 183.477075C 139.372688 185.194575 132.695388 184.916775 126.900888 182.226475C 123.553488 180.660575 120.684188 177.873875 118.426088 174.450175ZM 180.852288 181.227275C 185.932288 183.776175 191.559988 185.073075 196.771388 184.694775C 199.230188 184.509375 201.583188 184.015175 203.796888 183.254875C 203.933188 182.243575 204.159288 181.258875 204.459088 180.328375C 206.702788 173.539575 212.164088 167.472375 218.489388 164.213875C 223.658088 161.556075 229.660288 161.140275 234.926088 162.684775C 237.486488 160.565775 241.030888 159.677575 244.669088 160.812475L 244.677288 160.798275C 244.898888 160.867775 245.117388 160.945375 245.332788 161.030775C 246.149788 160.346275 246.947788 159.650075 247.726388 158.950575C 249.009288 157.799975 250.174388 156.601175 251.224088 155.362375C 250.172288 155.362875 249.097188 155.296475 248.002788 155.159775C 242.403288 154.443475 237.467188 151.843575 233.857988 148.129475C 230.806088 149.296775 226.798788 149.217175 224.330788 148.182575C 219.580388 146.166275 217.112388 141.948175 216.979688 137.358575C 212.680588 136.960675 208.514088 135.528075 206.019488 133.511775C 204.220588 132.068375 202.690388 130.254075 201.432588 128.200575L 199.636188 128.096975C 194.243488 127.858175 189.488388 125.867475 185.689688 122.735375C 184.210188 126.081175 182.207488 129.095175 179.830488 131.632575C 179.830488 131.632675 179.830588 131.632575 179.830488 131.632575C 176.914388 144.381675 176.467088 158.981975 180.252288 177.941175C 180.468588 179.023575 180.668488 180.119475 180.852288 181.227275ZM 166.751788 139.431175C 162.001688 140.522275 156.927088 140.048875 152.026788 137.526675L 151.989888 137.661975C 150.786688 141.733375 148.728488 145.526675 145.733888 148.895375C 145.735588 148.893575 145.737288 148.891775 145.738988 148.889875C 147.253388 150.965375 148.938088 153.073075 150.717588 155.299375L 150.718588 155.300575C 161.107288 168.297675 164.452688 175.643875 165.471588 175.334175C 166.467088 175.031675 165.241688 167.421675 166.194088 150.634475C 166.401288 146.982775 166.613688 143.236975 166.733088 139.435575C 166.739388 139.434075 166.745588 139.432675 166.751788 139.431175ZM 141.005688 153.245375C 136.495988 156.607775 131.419388 158.429775 126.253188 158.900875C 126.263988 158.899975 126.274588 158.898975 126.285488 158.897975C 135.990588 166.560875 144.772388 169.425975 148.245688 170.559275C 149.040788 170.818675 149.557688 170.987275 149.743788 171.101975C 149.828188 166.706675 146.493688 161.633475 142.924288 156.202775C 142.284388 155.229275 141.636988 154.244175 141.000288 153.249475C 141.002188 153.248075 141.003888 153.246775 141.005688 153.245375ZM 254.025402 55.460659C 254.609302 55.779059 255.193102 56.097359 255.776902 56.442259L 255.776902 56.389159C 265.463302 62.278759 271.301702 71.670159 269.629902 83.183859C 268.064102 93.901659 261.323402 103.186959 252.804702 109.580559C 248.134002 113.082359 243.861302 115.178259 239.615202 115.788359C 238.421002 120.882059 234.546402 125.763459 230.167702 127.540859C 224.886602 129.689759 218.570502 127.753159 215.492102 123.216659C 211.254302 126.134959 206.181202 127.946759 201.402802 128.151859C 202.666102 130.225159 204.206202 132.056559 206.019102 133.511359C 208.513702 135.527559 212.680202 136.960159 216.979302 137.358059C 217.112002 141.947659 219.580102 146.165859 224.330402 148.182059C 226.798502 149.216659 230.805702 149.296259 233.857602 148.128959C 237.466802 151.843059 242.402902 154.442959 248.002402 155.159259C 259.042302 156.538759 268.118302 150.755359 271.223302 141.443559C 274.752802 140.939559 278.335502 139.400859 281.413902 137.888659C 289.003802 134.148059 294.231802 128.338059 295.771002 119.901759C 297.310202 111.412359 296.885602 102.631159 291.365702 95.680459L 291.418802 95.653959C 290.012202 93.849959 288.207702 92.072459 286.217302 90.401159C 290.834902 76.950759 280.485102 60.767859 268.277502 54.215059C 264.153802 52.004759 258.947802 50.756559 253.641802 50.631859C 253.893402 52.243959 254.025402 53.858359 254.025402 55.460659ZM 244.668915 160.812233C 241.030762 159.6773 237.486328 160.565468 234.925903 162.684441C 229.660095 161.139916 223.657929 161.555748 218.489166 164.213524C 212.16388 167.472038 206.702606 173.539253 204.458985 180.328087C 204.078278 181.509285 203.816467 182.77816 203.706421 184.077782C 198.438507 188.211876 195.448334 195.478417 196.594757 202.331352C 197.527008 207.924645 201.962311 212.47329 207.359955 215.19207C 206.494476 220.050316 208.671295 225.510185 213.110443 228.584313C 218.460877 232.298088 227.158631 233.116753 231.750488 228.914238C 236.249664 230.319023 241.646454 229.875511 245.096893 227.323753C 250.351319 229.638023 257.882233 227.813896 262.563385 224.174126C 269.011994 219.169212 269.293488 211.701805 266.111267 205.472191C 274.494812 195.582848 268.932282 177.755242 257.973969 171.88282C 256.359375 171.02639 254.671539 170.525215 252.943237 170.322518C 251.712708 165.996025 248.69516 162.057594 244.677124 160.798027L 244.668915 160.812233ZM 255.873749 56.351423C 255.289349 56.006423 254.704949 55.687923 254.120449 55.369423C 254.120449 41.885623 244.769749 27.552423 233.532749 20.863623C 226.944749 16.935323 220.197249 16.829123 214.167049 19.138423C 207.844649 11.520623 196.873349 8.229223 186.699049 10.936623C 180.934449 12.476123 175.488749 16.377923 171.689949 21.421023C 165.234749 18.421723 157.743449 17.970523 152.483649 24.022223C 151.978849 24.606223 151.500749 25.269823 151.049149 25.986423C 132.134949 19.244523 109.581449 34.878323 104.746649 53.405223C 100.761949 68.667323 106.845349 84.035623 118.427549 93.007123C 118.161949 95.342923 118.161949 97.758323 118.533849 100.120623C 119.994849 109.331023 127.007949 112.755023 134.605549 112.224123C 135.668149 121.248723 141.406049 130.246823 148.817649 135.555323C 162.817349 145.615123 179.234349 137.333723 185.689549 122.735123C 189.488349 125.867223 194.243449 127.857923 199.636149 128.096823C 204.922549 128.335723 210.766749 126.451123 215.548449 123.159823C 218.629949 127.698623 224.952349 129.636323 230.238749 127.486323C 234.621949 125.707923 238.500449 120.824023 239.695849 115.727823C 243.946149 115.117323 248.223149 113.020423 252.898549 109.516823C 261.425849 103.120023 268.173249 93.830023 269.740549 83.106623C 271.414149 71.587023 265.569949 62.190923 255.873749 56.298423L 255.873749 56.351423ZM 106.72517 48.138551C 105.93817 49.869851 105.29957 51.646551 104.82897 53.450851C 100.84827 68.705151 106.92547 84.065651 118.49607 93.032551C 118.23077 95.367151 118.23077 97.781351 118.60227 100.142451C 120.06187 109.348151 127.06787 112.770451 134.65787 112.239851C 135.71937 121.259751 141.45157 130.253251 148.85567 135.559151C 149.90297 136.312051 150.96377 136.962151 152.03287 137.514451C 150.70647 142.088251 148.30587 146.314251 144.71627 149.986051C 136.78137 158.130551 126.27227 160.438651 116.53277 158.236751C 115.84287 158.979551 115.15287 159.669251 114.43627 160.252951C 113.50747 161.022251 112.39287 161.738551 111.22517 162.348751C 110.19017 167.946451 107.56297 173.225751 103.39647 177.443951C 102.17567 178.664251 100.84877 179.751951 99.46877 180.760151C 97.45187 190.602551 92.03817 198.906151 80.73287 201.744851C 68.76417 204.742651 57.00777 201.055051 48.86057 193.361551C 48.66157 193.401351 48.47577 193.447751 48.29007 193.494251C 48.10427 193.540651 47.91847 193.587051 47.71947 193.626851C 35.11387 196.014451 23.67597 188.241351 17.04137 178.054151C 9.84957 167.017951 7.16927 151.710451 13.77727 139.772251C 15.92677 135.898951 18.92557 132.688951 22.45517 130.327851C 20.99557 126.242351 20.80987 121.705851 22.21637 117.832551C 23.78207 113.481751 27.12587 109.237051 31.21277 106.477951C 26.70127 94.407151 28.21397 80.452651 38.00657 70.079651C 48.72797 58.725151 65.92467 53.339651 80.44097 57.663951C 84.74017 53.976351 90.02127 51.243851 95.08997 49.678651C 98.97517 48.472151 102.89837 47.986051 106.72517 48.138551ZM 98.648752 216.215859C 99.331152 220.003459 101.683452 222.606259 105.095252 224.275659C 106.477952 224.957859 108.076052 225.639959 109.656252 225.873359C 111.038952 230.055859 115.115052 232.640759 120.071152 232.030459C 122.585052 231.725259 124.793752 230.558459 126.409852 228.889059C 127.792452 229.409659 129.570152 229.373759 130.683552 228.906959C 132.802452 228.009459 133.915752 226.106659 133.987552 224.060259C 135.908952 223.880759 137.776452 223.234559 138.907652 222.337059C 142.463052 219.482859 143.684152 213.397559 142.409252 209.125259C 142.696552 208.658559 142.947952 208.191859 143.163452 207.707159C 144.905252 203.614359 144.204852 198.713859 141.996252 194.944159C 139.715752 191.030959 135.765252 188.302459 131.240152 187.817759C 129.731852 187.656159 128.115752 187.727959 126.607352 188.122859C 122.674852 184.532759 115.438252 184.425059 111.002952 186.812459C 105.526252 189.738459 100.893352 196.990559 102.958352 203.022059C 102.060552 203.775959 101.270452 204.583759 100.624052 205.373559C 98.163952 208.496959 97.966452 212.428259 98.648752 216.233759L 98.648752 216.215859Z"/>
      </g>
    </g>
  </g>
  <g id="g-root-sy_0b_cu_1cw4r6w1aybhmq-stroke-fill" data-item-order="-199239" transform="translate(283.523193359375, 231.6318359375)">
    <g id="sy_0b_cu_1cw4r6w1aybhmq-fill" stroke="none" fill="#e8e8e8">
      <g>
        <path d="M 75.4976 36.8409C 81.1501 42.4944 87.8958 47.9852 94.2176 53.1307C 103.9393 61.0437 112.658 68.1403 114.855 73.7569C 119.291 85.1197 116.795 99.3367 109.0013 118.472C 108.9616 118.353 105.8979 109.2531 96.733 101.5145C 95.7038 101.9829 94.4506 102.3084 93.1734 102.4277C 93.1443 103.2583 92.9436 104.0651 92.5737 104.7907C 108.9296 125.236 97.4081 129.989 94.2176 148.296C 91.0271 166.603 97.7297 173.642 88.8632 179.516C 79.9968 185.39 39.3926 171.692 11.6564 188.358C 8.7841 190.083 9.9197 192.028 12.9784 190.907C 23.7358 186.964 42.086 182.242 62.5539 189.907C 46.3252 198.917 40.1882 221.706 13.6086 227.595C 11.7833 227.999 12.2639 230.984 14.1996 230.984C 43.058 230.984 55.5061 197.301 83.3184 194.745C 90.829 193.967 89.8962 195.264 85.7431 197.783C 80.0866 201.213 74.4564 206.907 70.0495 212.706C 67.3919 214.932 69.9059 216.566 71.7195 215.327C 85.9232 205.526 107.3658 190.692 102.0494 204.643C 96.733 218.595 70.0495 225.413 60.8356 232.514C 51.6216 239.615 46.9959 246.888 45.3926 257.837C 45.0662 260.065 48.1203 259.969 49.1125 257.837C 55.4625 244.188 64.761 235.548 80.4013 232.514L 80.4372 232.514C 84.244 232.155 85.5009 232.335 85.2676 236.392C 84.0359 257.772 64.3921 266.763 58.7521 273.841C 55.8401 277.496 52.4994 281.78 50.6712 286.805C 49.8632 288.546 51.8384 289.803 53.4186 288.187C 54.7114 286.93 60.8356 276.794 70.6342 271.709C 80.4329 266.623 84.1412 263.092 88.8632 257.976C 101.7023 274.347 103.9275 288.598 98.722 311.469C 98.9016 314.09 101.5592 314.305 102.0082 311.469C 109.8546 296.736 110.419 276.635 103.9275 262.963C 94.9285 244.011 87.9418 229.297 113.697 216.492C 115.87 215.415 118.222 217.569 117.307 219.831C 112.512 231.678 109.8366 250.67 114.308 263.092C 114.99 264.977 116.786 264.438 116.624 262.643C 115.475 249.324 117.761 238.015 123.274 225.413C 123.508 231.305 126.558 235.018 128.898 239.255C 132.489 245.758 148.993 271.092 145.791 294.607C 145.531 296.512 147.645 297.033 148.414 295.368C 155.798 279.374 143.941 250.576 139.818 240.554C 138.088 236.351 133.55 227.755 134.3 219.507C 135.135 210.411 149.017 222.903 155.328 238.14C 170.455 274.669 179.781 282.081 203.038 288.598C 205.344 289.244 206.231 286.247 204.31 285.368C 184.708 276.399 174.693 261.547 172.485 248.407C 195.653 247.709 200.287 255.309 204.966 261.656C 206.214 263.35 208.532 261.604 207.89 260.065C 205.707 254.842 201.374 247.051 192.322 243.864C 183.396 240.721 166.441 244.347 162.207 228.243C 161.568 225.812 173.49 227.241 179.582 217.253C 181.036 214.869 178.304 213.995 177.25 214.869C 164.724 225.268 149.278 212.296 146.792 197.749C 146.432 195.649 148.587 194.033 150.509 194.949C 162.123 200.435 170.466 198.172 177.25 196.332C 180.766 195.378 183.864 194.538 186.781 194.949C 196.224 196.289 199.276 204.275 204.31 213.327C 212.019 227.19 222.576 227.659 233.99 226.384C 237.069 226.04 236.361 222.127 233.816 222.413C 229.863 222.857 216.684 221.37 211.561 210.034C 207.874 201.873 204.966 191.72 196.819 187.358C 208.257 186.155 231.516 187.832 241.482 193.72C 243.439 194.886 244.535 193.145 242.99 191.907C 231.462 182.644 203.038 176.859 188.092 182.242C 173.146 187.625 149.207 180.04 143.414 165.68C 135.925 147.113 142.736 102.5453 166.504 93.5195C 165.203 92.853 163.14 91.7422 161.299 89.9333C 151.144 94.8207 142.691 105.8841 140.553 109.4776C 144.991 92.6414 142.811 79.4053 140.481 62.513C 140.19 60.4042 139.843 58.3329 139.438 56.3088C 135.653 37.3495 136.1 22.7491 139.016 10C 137.053 12.0965 134.833 13.8677 132.442 15.232C 132.44 15.2517 132.437 15.2715 132.435 15.2913C 132.434 15.2735 132.433 15.2556 132.432 15.2377C 130.37 16.4129 128.181 17.2855 125.919 17.8031C 125.799 21.6045 125.587 25.3503 125.38 29.0021C 123.453 62.9718 130.443 59.3632 109.9043 33.6681C 108.1244 31.4414 106.4393 29.3333 104.9247 27.2574C 103.4972 28.8642 101.9096 30.3325 100.186 31.617C 104.374 38.1602 109.029 44.2863 108.9296 49.4695C 107.9302 48.8539 97.398 46.6826 85.4712 37.2656C 82.2165 37.566 78.9258 37.3299 75.7187 36.6048C 75.645 36.6841 75.5714 36.7629 75.4976 36.8409Z"/>
      </g>
    </g>
    <g id="sy_0b_cu_1cw4r6w1aybhmq-stroke" fill="none" stroke-linecap="round" stroke-linejoin="round" stroke-miterlimit="4" stroke="#2c2c2c" stroke-width="2">
      <g>
        <path d="M 75.4976 36.8409C 81.1501 42.4944 87.8958 47.9852 94.2176 53.1307C 103.9393 61.0437 112.658 68.1403 114.8552 73.7569C 119.2906 85.1197 116.7946 99.3367 109.0013 118.4722C 108.9616 118.3529 105.8979 109.2531 96.733 101.5145C 95.7038 101.9829 94.4506 102.3084 93.1734 102.4277C 93.1443 103.2583 92.9436 104.0651 92.5737 104.7907C 108.9296 125.2356 97.4081 129.989 94.2176 148.296C 91.0271 166.603 97.7297 173.6417 88.8632 179.5161C 79.9968 185.3905 39.3926 171.6925 11.6564 188.3577C 8.7841 190.0835 9.9197 192.0276 12.9784 190.9066C 23.7358 186.9643 42.086 182.2417 62.5539 189.9066C 46.3252 198.9175 40.1882 221.7063 13.6086 227.5946C 11.7832 227.999 12.2639 230.984 14.1996 230.984C 43.058 230.984 55.5061 197.3013 83.3184 194.7451C 90.829 193.9668 89.8962 195.2643 85.7431 197.7826C 80.0866 201.2126 74.4564 206.9073 70.0495 212.7063C 67.3919 214.9322 69.9059 216.5657 71.7195 215.3271C 85.9232 205.526 107.3658 190.6923 102.0494 204.6434C 96.733 218.5946 70.0495 225.4132 60.8356 232.5143C 51.6216 239.6153 46.9959 246.8882 45.3926 257.8367C 45.0662 260.0655 48.1203 259.9693 49.1125 257.8367C 55.4625 244.1882 64.761 235.5479 80.4013 232.5143L 80.4372 232.5143C 84.244 232.1552 85.5009 232.3348 85.2676 236.3916C 84.0359 257.7719 64.3921 266.7631 58.7521 273.8413C 55.8401 277.4958 52.4994 281.7805 50.6712 286.8048C 49.8632 288.546 51.8384 289.8026 53.4186 288.187C 54.7114 286.9304 60.8356 276.7943 70.6342 271.7086C 80.4329 266.6229 84.1412 263.0918 88.8632 257.9759C 101.7023 274.3469 103.9275 288.5981 98.722 311.4691C 98.9016 314.0899 101.5592 314.3053 102.0082 311.4691C 109.8546 296.7363 110.4191 276.635 103.9275 262.9634C 94.9285 244.0114 87.9418 229.2974 113.6973 216.4917C 115.8701 215.4147 118.2224 217.5687 117.3066 219.8305C 112.5122 231.678 109.8366 250.6699 114.3078 263.0918C 114.9902 264.9767 116.7859 264.4382 116.6243 262.6431C 115.475 249.3236 117.7611 238.0146 123.2738 225.4132C 123.5076 231.305 126.5579 235.0178 128.8977 239.255C 132.4889 245.7585 148.9925 271.0918 145.7906 294.6073C 145.5313 296.5118 147.6451 297.0335 148.4141 295.3677C 155.7979 279.3736 143.9413 250.5763 139.8176 240.5539C 138.088 236.351 133.5504 227.7546 134.3005 219.5074C 135.1353 210.4114 149.0172 222.9025 155.3275 238.1403C 170.4549 274.6689 179.7811 282.0813 203.0377 288.5981C 205.3439 289.2444 206.2313 286.2468 204.3099 285.3677C 184.7075 276.399 174.6935 261.5465 172.4848 248.4067C 195.6525 247.7089 200.287 255.3087 204.9656 261.6565C 206.2141 263.3504 208.5323 261.6036 207.8896 260.0655C 205.7072 254.8423 201.3739 247.0512 192.3216 243.864C 183.3956 240.7212 166.4412 244.3474 162.2073 228.2427C 161.5683 225.8121 173.4901 227.2414 179.5823 217.2529C 181.0361 214.8692 178.3039 213.9947 177.2504 214.8692C 164.7237 225.2677 149.278 212.296 146.7915 197.7489C 146.4325 195.6487 148.5872 194.0331 150.5087 194.9486C 162.1233 200.4348 170.466 198.172 177.2504 196.3318C 180.7661 195.3782 183.8636 194.5381 186.7811 194.9486C 196.2236 196.2893 199.2763 204.2752 204.3099 213.3271C 212.0188 227.1905 222.5758 227.6591 233.9904 226.3842C 237.0694 226.0403 236.3607 222.1274 233.8156 222.4132C 229.8626 222.8572 216.6836 221.3704 211.5611 210.0336C 207.8736 201.8726 204.9656 191.7197 196.8189 187.3577C 208.2573 186.1549 231.5162 187.8319 241.482 193.7197C 243.4393 194.8865 244.5348 193.1452 242.9904 191.9066C 231.4622 182.6441 203.0377 176.8586 188.0919 182.2417C 173.1462 187.6248 149.2065 180.0403 143.4141 165.6799C 135.9251 147.1134 142.7363 102.5453 166.5042 93.5195C 165.203 92.853 163.1402 91.7422 161.2995 89.9333C 151.1439 94.8207 142.6908 105.8841 140.5526 109.4776C 144.9906 92.6414 142.8109 79.4053 140.4807 62.513C 140.1898 60.4042 139.8426 58.3329 139.438 56.3088C 135.6529 37.3495 136.1003 22.7491 139.0164 10C 137.0525 12.0965 134.8331 13.8677 132.4422 15.2319C 132.4398 15.2517 132.4373 15.2715 132.4348 15.2913C 132.434 15.2735 132.433 15.2556 132.4321 15.2377C 130.3703 16.4129 128.1814 17.2855 125.9188 17.8031C 125.7994 21.6045 125.5869 25.3503 125.3798 29.0021C 123.4526 62.9718 130.4426 59.3632 109.9043 33.6681C 108.1244 31.4414 106.4393 29.3333 104.9247 27.2574C 103.4972 28.8642 101.9096 30.3325 100.186 31.617C 104.374 38.1602 109.029 44.2863 108.9296 49.4695C 107.9302 48.8539 97.398 46.6826 85.4712 37.2656C 82.2165 37.566 78.9258 37.3299 75.7187 36.6048C 75.645 36.6841 75.5714 36.7629 75.4976 36.8409Z"/>
      </g>
    </g>
  </g>
  <g id="g-root-sy_0a_line_140hqy01aybiff-stroke-fill" data-item-order="-199232" transform="translate(205.980712890625, 362)">
    <g id="sy_0a_line_140hqy01aybiff-stroke" fill="none" stroke-linecap="round" stroke-linejoin="round" stroke-miterlimit="4" stroke="#f4f4f4" stroke-width="2" stroke-dasharray="5.0, 7.0">
      <style>.fillAsStrokeColor-mk-dj7iy01brxnns { fill:#f4f4f4; }</style>
      <g>
        <path d="M 10 10L 46 10L 46 58L 94 58"/>
        <path d="M 8.5 10C 8.500005 10.828437 9.171578 11.50001 10.000005 11.50001C 10.828432 11.50001 11.500005 10.828437 11.500005 10.00001C 11.500005 9.171583 10.828432 8.50001 10.000005 8.50001C 9.171578 8.50001 8.500005 9.171583 8.500005 10.00001Z" stroke-dasharray="none" class="fillAsStrokeColor-mk-dj7iy01brxnns"/>
        <path d="M 92.5 58C 92.500008 58.828439 93.171581 59.500011 94.000008 59.500011C 94.828435 59.500011 95.500008 58.828439 95.500008 58.000011C 95.500008 57.171584 94.828435 56.500011 94.000008 56.500011C 93.171581 56.500011 92.500008 57.171584 92.500008 58.000011Z" stroke-dasharray="none" class="fillAsStrokeColor-mk-dj7iy01brxnns"/>
      </g>
    </g>
  </g>
  <g id="g-root-sy_0a_line_1_zlapwo1aybg1w-stroke-fill" data-item-order="-199228" transform="translate(205.980712890625, 470)">
    <g id="sy_0a_line_1_zlapwo1aybg1w-stroke" fill="none" stroke-linecap="round" stroke-linejoin="round" stroke-miterlimit="4" stroke="#f4f4f4" stroke-width="2" stroke-dasharray="5.0, 7.0">
      <style>.fillAsStrokeColor-mk-940hwo1brxlaa { fill:#f4f4f4; }</style>
      <g>
        <path d="M 10 82L 70 82L 70 10L 130 10"/>
        <path d="M 8.5 82C 8.500005 82.828443 9.171578 83.500015 10.000005 83.500015C 10.828432 83.500015 11.500005 82.828443 11.500005 82.000015C 11.500005 81.171588 10.828432 80.500015 10.000005 80.500015C 9.171578 80.500015 8.500005 81.171588 8.500005 82.000015Z" stroke-dasharray="none" class="fillAsStrokeColor-mk-940hwo1brxlaa"/>
        <path d="M 128.5 10C 128.500009 10.82844 129.171582 11.500013 130.000009 11.500013C 130.828436 11.500013 131.500009 10.82844 131.500009 10.000013C 131.500009 9.171586 130.828436 8.500013 130.000009 8.500013C 129.171582 8.500013 128.500009 9.171586 128.500009 10.000013Z" stroke-dasharray="none" class="fillAsStrokeColor-mk-940hwo1brxlaa"/>
      </g>
    </g>
  </g>
  <g id="g-root-sy_0a_line_2_zlapwo1aybg1x-stroke-fill" data-item-order="-199224" transform="translate(505.980712890625, 362)">
    <g id="sy_0a_line_2_zlapwo1aybg1x-stroke" fill="none" stroke-linecap="round" stroke-linejoin="round" stroke-miterlimit="4" stroke="#f4f4f4" stroke-width="2" stroke-dasharray="5.0, 7.0">
      <style>.fillAsStrokeColor-mk-1uto1ig1brxmo4 { fill:#f4f4f4; }</style>
      <g>
        <path d="M 94 10L 58 10L 58 58L 10 58"/>
        <path d="M 92.5 10C 92.500017 10.828437 93.17159 11.50001 94.000017 11.50001C 94.828444 11.50001 95.500017 10.828437 95.500017 10.00001C 95.500017 9.171583 94.828444 8.50001 94.000017 8.50001C 93.17159 8.50001 92.500017 9.171583 92.500017 10.00001Z" stroke-dasharray="none" class="fillAsStrokeColor-mk-1uto1ig1brxmo4"/>
        <path d="M 8.5 58C 8.500014 58.828439 9.171587 59.500011 10.000014 59.500011C 10.828441 59.500011 11.500014 58.828439 11.500014 58.000011C 11.500014 57.171584 10.828441 56.500011 10.000014 56.500011C 9.171587 56.500011 8.500014 57.171584 8.500014 58.000011Z" stroke-dasharray="none" class="fillAsStrokeColor-mk-1uto1ig1brxmo4"/>
      </g>
    </g>
  </g>
  <g id="g-root-sy_0a_line_3_m9u7jc1aybhmu-stroke-fill" data-item-order="-199220" transform="translate(469.980712890625, 470)">
    <g id="sy_0a_line_3_m9u7jc1aybhmu-stroke" fill="none" stroke-linecap="round" stroke-linejoin="round" stroke-miterlimit="4" stroke="#f4f4f4" stroke-width="2" stroke-dasharray="5.0, 7.0">
      <style>.fillAsStrokeColor-mk-1hiu0881brxl3a { fill:#f4f4f4; }</style>
      <g>
        <path d="M 130 82L 70 82L 70 10L 10 10"/>
        <path d="M 128.5 82C 128.500017 82.828443 129.17159 83.500015 130.000017 83.500015C 130.828444 83.500015 131.500017 82.828443 131.500017 82.000015C 131.500017 81.171588 130.828444 80.500015 130.000017 80.500015C 129.17159 80.500015 128.500017 81.171588 128.500017 82.000015Z" stroke-dasharray="none" class="fillAsStrokeColor-mk-1hiu0881brxl3a"/>
        <path d="M 8.5 10C 8.500013 10.82844 9.171586 11.500013 10.000013 11.500013C 10.82844 11.500013 11.500013 10.82844 11.500013 10.000013C 11.500013 9.171586 10.82844 8.500013 10.000013 8.500013C 9.171586 8.500013 8.500013 9.171586 8.500013 10.000013Z" stroke-dasharray="none" class="fillAsStrokeColor-mk-1hiu0881brxl3a"/>
      </g>
    </g>
  </g>
  <g id="g-root-sy_0a_line_4_m9u7jc1aybhmv-stroke-fill" data-item-order="-199216" transform="translate(421.480712890625, 505.5000305175781)">
    <g id="sy_0a_line_4_m9u7jc1aybhmv-stroke" fill="none" stroke-linecap="round" stroke-linejoin="round" stroke-miterlimit="4" stroke="#f4f4f4" stroke-width="2" stroke-dasharray="5.0, 7.0">
      <style>.fillAsStrokeColor-mk-1d30i3s1brxlvk { fill:#f4f4f4; }</style>
      <g>
        <path d="M 10 10L 10 34.107391L 82 34.107391L 82 130.107391"/>
        <path d="M 8.5 9.999969C 8.500012 10.828411 9.171585 11.499984 10.000012 11.499984C 10.828439 11.499984 11.500012 10.828411 11.500012 9.999984C 11.500012 9.171557 10.828439 8.499984 10.000012 8.499984C 9.171585 8.499984 8.500012 9.171557 8.500012 9.999984Z" stroke-dasharray="none" class="fillAsStrokeColor-mk-1d30i3s1brxlvk"/>
        <path d="M 80.5 130.106969C 80.500014 130.935414 81.171587 131.606987 82.000014 131.606987C 82.828441 131.606987 83.500014 130.935414 83.500014 130.106987C 83.500014 129.27856 82.828441 128.606987 82.000014 128.606987C 81.171587 128.606987 80.500014 129.27856 80.500014 130.106987Z" stroke-dasharray="none" class="fillAsStrokeColor-mk-1d30i3s1brxlvk"/>
      </g>
    </g>
  </g>
  <g id="g-root-sy_0a_cu_hu0pew1aybif4-stroke-fill" data-item-order="-199215" transform="translate(491.980712890625, 624.107421875)">
    <g id="sy_0a_cu_hu0pew1aybif4-fill" stroke="none" fill="#e8e8e8">
      <g>
        <path d="M 13 11.5C 13 12.327881 12.327911 13 11.5 13C 10.672089 13 10 12.327881 10 11.5C 10 10.672119 10.672089 10 11.5 10C 12.327911 10 13 10.672119 13 11.5Z"/>
      </g>
    </g>
    <g id="sy_0a_cu_hu0pew1aybif4-stroke" fill="none" stroke-linecap="round" stroke-linejoin="round" stroke-miterlimit="4" stroke="#2c2c2c" stroke-width="2">
      <g>
        <path d="M 13 11.5C 13 12.327881 12.327911 13 11.5 13C 10.672089 13 10 12.327881 10 11.5C 10 10.672119 10.672089 10 11.5 10C 12.327911 10 13 10.672119 13 11.5Z"/>
      </g>
    </g>
  </g>
  <g id="g-root-sy_0a_cu_1_8z06941aybg21-stroke-fill" data-item-order="-199213" transform="translate(419.980712890625, 504)">
    <g id="sy_0a_cu_1_8z06941aybg21-fill" stroke="none" fill="#e8e8e8">
      <g>
        <path d="M 10 11.5C 10 10.672089 10.672089 10 11.5 10C 12.327911 10 13 10.672089 13 11.5C 13 12.327911 12.327911 13 11.5 13C 10.672089 13 10 12.327911 10 11.5Z"/>
      </g>
    </g>
    <g id="sy_0a_cu_1_8z06941aybg21-stroke" fill="none" stroke-linecap="round" stroke-linejoin="round" stroke-miterlimit="4" stroke="#2c2c2c" stroke-width="2">
      <g>
        <path d="M 10 11.5C 10 10.672089 10.672089 10 11.5 10C 12.327911 10 13 10.672089 13 11.5C 13 12.327911 12.327911 13 11.5 13C 10.672089 13 10 12.327911 10 11.5Z"/>
      </g>
    </g>
  </g>
  <g id="g-root-tx_conflict_4j6o4o1aybgua-stroke-fill" data-item-order="0" transform="translate(157.980712890625, 50)">
    <g id="tx_conflict_4j6o4o1aybgua-fill" stroke="none" fill="#f4f4f4">
      <g>
        <text style="font: bold 20px Roboto, sans-serif; white-space: pre;" font-weight="bold" font-size="20px" font-family="Roboto, sans-serif">
          <tspan x="15.51" y="34" dominant-baseline="ideographic">Conflicting Interpretations of the Fatima Apparitions</tspan>
        </text>
      </g>
    </g>
  </g>
  <g id="g-root-tx_complica_1q8u7qg1aybi83-stroke-fill" data-item-order="0" transform="translate(601.980712890625, 386.119140625)">
    <g id="tx_complica_1q8u7qg1aybi83-fill" stroke="none" fill="#f4f4f4">
      <g>
        <text style="font: 20px Roboto, sans-serif; white-space: pre;" font-size="20px" font-family="Roboto, sans-serif">
          <tspan x="12" y="34" dominant-baseline="ideographic">Complicates </tspan>
          <tspan x="12" y="58" dominant-baseline="ideographic">understanding of </tspan>
          <tspan x="12" y="82" dominant-baseline="ideographic">phenomena.</tspan>
        </text>
      </g>
    </g>
  </g>
  <g id="g-root-tx_affectsw_1cy06g81aybgn8-stroke-fill" data-item-order="0" transform="translate(601.980712890625, 566)">
    <g id="tx_affectsw_1cy06g81aybgn8-fill" stroke="none" fill="#f4f4f4">
      <g>
        <text style="font: 20px Roboto, sans-serif; white-space: pre;" font-size="20px" font-family="Roboto, sans-serif">
          <tspan x="12" y="34" dominant-baseline="ideographic">Affects witness </tspan>
          <tspan x="12" y="58" dominant-baseline="ideographic">experiences and </tspan>
          <tspan x="12" y="82" dominant-baseline="ideographic">reports.</tspan>
        </text>
      </g>
    </g>
  </g>
  <g id="g-root-tx_leadstoc_zmjo2w1aybi85-stroke-fill" data-item-order="0" transform="translate(349.980712890625, 650)">
    <g id="tx_leadstoc_zmjo2w1aybi85-fill" stroke="none" fill="#f4f4f4">
      <g>
        <text style="font: 20px Roboto, sans-serif; white-space: pre;" font-size="20px" font-family="Roboto, sans-serif">
          <tspan x="63.42" y="34" dominant-baseline="ideographic">Leads to </tspan>
          <tspan x="13.3" y="58" dominant-baseline="ideographic">confusion and </tspan>
          <tspan x="38.02" y="82" dominant-baseline="ideographic">skepticism.</tspan>
        </text>
      </g>
    </g>
  </g>
  <g id="g-root-tx_shapespu_dg2mjs1aybhfy-stroke-fill" data-item-order="0" transform="translate(26.019287109375, 566)">
    <g id="tx_shapespu_dg2mjs1aybhfy-fill" stroke="none" fill="#f4f4f4">
      <g>
        <text style="font: 20px Roboto, sans-serif; white-space: pre;" font-size="20px" font-family="Roboto, sans-serif">
          <tspan x="51.42" y="34" dominant-baseline="ideographic">Shapes public </tspan>
          <tspan x="18.28" y="58" dominant-baseline="ideographic">interpretation and </tspan>
          <tspan x="121.59" y="82" dominant-baseline="ideographic">belief.</tspan>
        </text>
      </g>
    </g>
  </g>
  <g id="g-root-tx_influenc_4m46g1aybj0v-stroke-fill" data-item-order="0" transform="translate(61.980712890625, 386.119140625)">
    <g id="tx_influenc_4m46g1aybj0v-fill" stroke="none" fill="#f4f4f4">
      <g>
        <text style="font: 20px Roboto, sans-serif; white-space: pre;" font-size="20px" font-family="Roboto, sans-serif">
          <tspan x="48.08" y="34" dominant-baseline="ideographic">Influences </tspan>
          <tspan x="22.08" y="58" dominant-baseline="ideographic">perception of </tspan>
          <tspan x="76.17" y="82" dominant-baseline="ideographic">events.</tspan>
        </text>
      </g>
    </g>
  </g>
  <g id="g-root-tx_alternat_1qapmzs1aybh8g-stroke-fill" data-item-order="0" transform="translate(601.980712890625, 326.119140625)">
    <g id="tx_alternat_1qapmzs1aybh8g-fill" stroke="none" fill="#f4f4f4">
      <g>
        <text style="font: bold 20px Roboto, sans-serif; white-space: pre;" font-weight="bold" font-size="20px" font-family="Roboto, sans-serif">
          <tspan x="12" y="34" dominant-baseline="ideographic">Alternative </tspan>
          <tspan x="12" y="58" dominant-baseline="ideographic">Explanations</tspan>
        </text>
      </g>
    </g>
  </g>
  <g id="g-root-tx_psycholo_1448lgo1aybgg9-stroke-fill" data-item-order="0" transform="translate(601.980712890625, 506)">
    <g id="tx_psycholo_1448lgo1aybgg9-fill" stroke="none" fill="#f4f4f4">
      <g>
        <text style="font: bold 20px Roboto, sans-serif; white-space: pre;" font-weight="bold" font-size="20px" font-family="Roboto, sans-serif">
          <tspan x="12" y="34" dominant-baseline="ideographic">Psychological </tspan>
          <tspan x="12" y="58" dominant-baseline="ideographic">Factors</tspan>
        </text>
      </g>
    </g>
  </g>
  <g id="g-root-tx_inconsis_qss33c1aybi16-stroke-fill" data-item-order="0" transform="translate(361.980712890625, 590)">
    <g id="tx_inconsis_qss33c1aybi16-fill" stroke="none" fill="#f4f4f4">
      <g>
        <text style="font: bold 20px Roboto, sans-serif; white-space: pre;" font-weight="bold" font-size="20px" font-family="Roboto, sans-serif">
          <tspan x="16.63" y="34" dominant-baseline="ideographic">Inconsistent </tspan>
          <tspan x="35.02" y="58" dominant-baseline="ideographic">Narratives</tspan>
        </text>
      </g>
    </g>
  </g>
  <g id="g-root-tx_historic_mcykyw1aybitf-stroke-fill" data-item-order="0" transform="translate(26.095458984375, 530)">
    <g id="tx_historic_mcykyw1aybitf-fill" stroke="none" fill="#f4f4f4">
      <g>
        <text style="font: bold 20px Roboto, sans-serif; white-space: pre;" font-weight="bold" font-size="20px" font-family="Roboto, sans-serif">
          <tspan x="14.41" y="34" dominant-baseline="ideographic">Historical Context</tspan>
        </text>
      </g>
    </g>
  </g>
  <g id="g-root-tx_religiou_924joo1aybh8k-stroke-fill" data-item-order="0" transform="translate(61.980712890625, 350.119140625)">
    <g id="tx_religiou_924joo1aybh8k-fill" stroke="none" fill="#f4f4f4">
      <g>
        <text style="font: bold 20px Roboto, sans-serif; white-space: pre;" font-weight="bold" font-size="20px" font-family="Roboto, sans-serif">
          <tspan x="12.31" y="34" dominant-baseline="ideographic">Religious Bias</tspan>
        </text>
      </g>
    </g>
  </g>
</svg>
