<?xml version='1.0' encoding='utf-8'?>
<svg xmlns="http://www.w3.org/2000/svg" xmlns:xlink="http://www.w3.org/1999/xlink" width="1008" height="600" viewBox="0 0 1008 600" style="fill:none;stroke:none;fill-rule:evenodd;clip-rule:evenodd;stroke-linecap:round;stroke-linejoin:round;stroke-miterlimit:1.5;" version="1.1">
  <style class="text-font-style fontImports" data-font-family="Roboto">@import url('https://fonts.googleapis.com/css2?family=Roboto:wght@400;700&amp;display=block');</style>
  <rect x="0" y="0" width="1008" height="6E+2" fill="#252a34" stroke="none" id="programmatic_background"/>
  <g id="g-root-tf_1q6z1yw1aokcg8-stroke-fill" data-item-order="-566784" transform="translate(12, 12)"/>
  <g id="g-root-cp_0_g-0_4hbid41aoag3r-stroke-fill" data-item-order="-449243" transform="translate(50.131011962890625, 272.5)">
    <g id="cp_0_g-0_4hbid41aoag3r-stroke" fill="none" stroke-linecap="round" stroke-linejoin="round" stroke-miterlimit="4" stroke="#d3d3d3" stroke-width="2">
      <g>
        <path d="M 826 51L 898 51M 646 51L 802 51M 814 10L 814 39.5M 106 51L 262 51M 286 51L 442 51M 274 63.5L 274 93M 454 10L 454 39.5M 466 51L 622 51M 634 63.5L 634 93M 10 51L 82 51M 94 10L 94 39.5"/>
      </g>
    </g>
  </g>
  <g id="g-root-cp_1_g-1_1i08o1aoagw1-stroke-fill" data-item-order="-449220" transform="translate(89.13101196289062, 149)">
    <g id="cp_1_g-1_1i08o1aoagw1-fill" stroke="none" fill="none">
      <g>
        <path d="M 100 55C 100 66.244 94.5 77.5875 89 86L 55.816 132.848C 55.4175 133.411 54.5825 133.411 54.184 132.848L 21 86C 14.5 77 10 66.7284 10 55C 10 30.1472 30.1472 10 55 10C 79.8528 10 100 30.1472 100 55ZM 55 91C 74.8822 91 91 74.8822 91 55C 91 35.1177 74.8822 19 55 19C 35.1177 19 19 35.1177 19 55C 19 74.8822 35.1177 91 55 91Z"/>
      </g>
    </g>
    <g id="cp_1_g-1_1i08o1aoagw1-stroke" fill="none" stroke-linecap="round" stroke-linejoin="round" stroke-miterlimit="4" stroke="#ffe711" stroke-width="2">
      <g>
        <path d="M 100 55C 100 66.244 94.5 77.5875 89 86L 55.816 132.848C 55.4175 133.4106 54.5825 133.4106 54.184 132.848L 21 86C 14.5 77 10 66.7284 10 55C 10 30.1472 30.1472 10 55 10C 79.8528 10 100 30.1472 100 55ZM 55 91C 74.8822 91 91 74.8822 91 55C 91 35.1177 74.8822 19 55 19C 35.1177 19 19 35.1177 19 55C 19 74.8822 35.1177 91 55 91Z"/>
      </g>
    </g>
    <g id="cp_1_g-1_1i08o1aoagw1-fill" stroke="none" fill="none">
      <g>
        <path d="M 55 187C 61.6274 187 67 181.6274 67 175C 67 168.3726 61.6274 163 55 163C 48.3726 163 43 168.3726 43 175C 43 181.6274 48.3726 187 55 187ZM 55 181C 58.3137 181 61 178.3137 61 175C 61 171.6863 58.3137 169 55 169C 51.6863 169 49 171.6863 49 175C 49 178.3137 51.6863 181 55 181Z"/>
      </g>
    </g>
    <g id="cp_1_g-1_1i08o1aoagw1-stroke" fill="none" stroke-linecap="round" stroke-linejoin="round" stroke-miterlimit="4" stroke="#ffe711" stroke-width="2">
      <g>
        <path d="M 55 187C 61.6274 187 67 181.6274 67 175C 67 168.3726 61.6274 163 55 163C 48.3726 163 43 168.3726 43 175C 43 181.6274 48.3726 187 55 187ZM 55 181C 58.3137 181 61 178.3137 61 175C 61 171.6863 58.3137 169 55 169C 51.6863 169 49 171.6863 49 175C 49 178.3137 51.6863 181 55 181Z"/>
      </g>
    </g>
  </g>
  <g id="g-root-cp_2_g-2_1q6z1yw1aoahho-stroke-fill" data-item-order="-449216" transform="translate(269.1309814453125, 302)">
    <g id="cp_2_g-2_1q6z1yw1aoahho-fill" stroke="none" fill="none">
      <g>
        <path d="M 100 142.000369C 100 130.756469 94.5 119.412869 89 111.000369L 55.816 64.152469C 55.4175 63.589769 54.5825 63.589769 54.184 64.152469L 21 111.000369C 14.5 120.000369 10 130.271969 10 142.000369C 10 166.853469 30.1472 187.000469 55 187.000469C 79.8528 187.000469 100 166.853469 100 142.000369ZM 55 106.000369C 74.8822 106.000369 91 122.118169 91 142.000369C 91 161.882669 74.8822 178.000469 55 178.000469C 35.1177 178.000469 19 161.882669 19 142.000369C 19 122.118169 35.1177 106.000369 55 106.000369Z"/>
      </g>
    </g>
    <g id="cp_2_g-2_1q6z1yw1aoahho-stroke" fill="none" stroke-linecap="round" stroke-linejoin="round" stroke-miterlimit="4" stroke="#fb6762" stroke-width="2">
      <g>
        <path d="M 100 142.000369C 100 130.756469 94.5 119.412869 89 111.000369L 55.816 64.152469C 55.4175 63.589769 54.5825 63.589769 54.184 64.152469L 21 111.000369C 14.5 120.000369 10 130.271969 10 142.000369C 10 166.853269 30.1472 187.000369 55 187.000369C 79.8528 187.000369 100 166.853269 100 142.000369ZM 55 106.000369C 74.8822 106.000369 91 122.118169 91 142.000369C 91 161.882669 74.8822 178.000369 55 178.000369C 35.1177 178.000369 19 161.882669 19 142.000369C 19 122.118169 35.1177 106.000369 55 106.000369Z"/>
      </g>
    </g>
    <g id="cp_2_g-2_1q6z1yw1aoahho-fill" stroke="none" fill="none">
      <g>
        <path d="M 55 34C 61.6274 34 67 28.6274 67 22C 67 15.3726 61.6274 10 55 10C 48.3726 10 43 15.3726 43 22C 43 28.6274 48.3726 34 55 34ZM 55 28C 58.3137 28 61 25.3137 61 22C 61 18.6863 58.3137 16 55 16C 51.6863 16 49 18.6863 49 22C 49 25.3137 51.6863 28 55 28Z"/>
      </g>
    </g>
    <g id="cp_2_g-2_1q6z1yw1aoahho-stroke" fill="none" stroke-linecap="round" stroke-linejoin="round" stroke-miterlimit="4" stroke="#fb6762" stroke-width="2">
      <g>
        <path d="M 55 34C 61.6274 34 67 28.6274 67 22C 67 15.3726 61.6274 10 55 10C 48.3726 10 43 15.3726 43 22C 43 28.6274 48.3726 34 55 34ZM 55 28C 58.3137 28 61 25.3137 61 22C 61 18.6863 58.3137 16 55 16C 51.6863 16 49 18.6863 49 22C 49 25.3137 51.6863 28 55 28Z"/>
      </g>
    </g>
  </g>
  <g id="g-root-cp_3_g-3_1cvijlk1aoaj2n-stroke-fill" data-item-order="-449210" transform="translate(449.1310119628906, 149)">
    <g id="cp_3_g-3_1cvijlk1aoaj2n-fill" stroke="none" fill="none">
      <g>
        <path d="M 100 55C 100 66.244 94.5 77.5875 89 86L 55.816 132.848C 55.4175 133.411 54.5825 133.411 54.184 132.848L 21 86C 14.5 77 10 66.7284 10 55C 10 30.1472 30.1472 10 55 10C 79.8528 10 100 30.1472 100 55ZM 55 91C 74.8822 91 91 74.8822 91 55C 91 35.1177 74.8822 19 55 19C 35.1177 19 19 35.1177 19 55C 19 74.8822 35.1177 91 55 91Z"/>
      </g>
    </g>
    <g id="cp_3_g-3_1cvijlk1aoaj2n-stroke" fill="none" stroke-linecap="round" stroke-linejoin="round" stroke-miterlimit="4" stroke="#f79438" stroke-width="2">
      <g>
        <path d="M 100 55C 100 66.244 94.5 77.5875 89 86L 55.816 132.848C 55.4175 133.4106 54.5825 133.4106 54.184 132.848L 21 86C 14.5 77 10 66.7284 10 55C 10 30.1472 30.1472 10 55 10C 79.8528 10 100 30.1472 100 55ZM 55 91C 74.8822 91 91 74.8822 91 55C 91 35.1177 74.8822 19 55 19C 35.1177 19 19 35.1177 19 55C 19 74.8822 35.1177 91 55 91Z"/>
      </g>
    </g>
    <g id="cp_3_g-3_1cvijlk1aoaj2n-fill" stroke="none" fill="none">
      <g>
        <path d="M 55 187C 61.6274 187 67 181.6274 67 175C 67 168.3726 61.6274 163 55 163C 48.3726 163 43 168.3726 43 175C 43 181.6274 48.3726 187 55 187ZM 55 181C 58.3137 181 61 178.3137 61 175C 61 171.6863 58.3137 169 55 169C 51.6863 169 49 171.6863 49 175C 49 178.3137 51.6863 181 55 181Z"/>
      </g>
    </g>
    <g id="cp_3_g-3_1cvijlk1aoaj2n-stroke" fill="none" stroke-linecap="round" stroke-linejoin="round" stroke-miterlimit="4" stroke="#f79438" stroke-width="2">
      <g>
        <path d="M 55 187C 61.6274 187 67 181.6274 67 175C 67 168.3726 61.6274 163 55 163C 48.3726 163 43 168.3726 43 175C 43 181.6274 48.3726 187 55 187ZM 55 181C 58.3137 181 61 178.3137 61 175C 61 171.6863 58.3137 169 55 169C 51.6863 169 49 171.6863 49 175C 49 178.3137 51.6863 181 55 181Z"/>
      </g>
    </g>
  </g>
  <g id="g-root-cp_4_g-4_18gbik81aoagp6-stroke-fill" data-item-order="-449204" transform="translate(629.1309814453125, 302)">
    <g id="cp_4_g-4_18gbik81aoagp6-fill" stroke="none" fill="none">
      <g>
        <path d="M 100 142.000369C 100 130.756469 94.5 119.412869 89 111.000369L 55.816 64.152469C 55.4175 63.589769 54.5825 63.589769 54.184 64.152469L 21 111.000369C 14.5 120.000369 10 130.271969 10 142.000369C 10 166.853469 30.1472 187.000469 55 187.000469C 79.8528 187.000469 100 166.853469 100 142.000369ZM 55 106.000369C 74.8822 106.000369 91 122.118169 91 142.000369C 91 161.882669 74.8822 178.000469 55 178.000469C 35.1177 178.000469 19 161.882669 19 142.000369C 19 122.118169 35.1177 106.000369 55 106.000369Z"/>
      </g>
    </g>
    <g id="cp_4_g-4_18gbik81aoagp6-stroke" fill="none" stroke-linecap="round" stroke-linejoin="round" stroke-miterlimit="4" stroke="#b7b7b7" stroke-width="2">
      <g>
        <path d="M 100 142.000369C 100 130.756469 94.5 119.412869 89 111.000369L 55.816 64.152469C 55.4175 63.589769 54.5825 63.589769 54.184 64.152469L 21 111.000369C 14.5 120.000369 10 130.271969 10 142.000369C 10 166.853269 30.1472 187.000369 55 187.000369C 79.8528 187.000369 100 166.853269 100 142.000369ZM 55 106.000369C 74.8822 106.000369 91 122.118169 91 142.000369C 91 161.882669 74.8822 178.000369 55 178.000369C 35.1177 178.000369 19 161.882669 19 142.000369C 19 122.118169 35.1177 106.000369 55 106.000369Z"/>
      </g>
    </g>
    <g id="cp_4_g-4_18gbik81aoagp6-fill" stroke="none" fill="none">
      <g>
        <path d="M 55 34C 61.6274 34 67 28.6274 67 22C 67 15.3726 61.6274 10 55 10C 48.3726 10 43 15.3726 43 22C 43 28.6274 48.3726 34 55 34ZM 55 28C 58.3137 28 61 25.3137 61 22C 61 18.6863 58.3137 16 55 16C 51.6863 16 49 18.6863 49 22C 49 25.3137 51.6863 28 55 28Z"/>
      </g>
    </g>
    <g id="cp_4_g-4_18gbik81aoagp6-stroke" fill="none" stroke-linecap="round" stroke-linejoin="round" stroke-miterlimit="4" stroke="#b7b7b7" stroke-width="2">
      <g>
        <path d="M 55 34C 61.6274 34 67 28.6274 67 22C 67 15.3726 61.6274 10 55 10C 48.3726 10 43 15.3726 43 22C 43 28.6274 48.3726 34 55 34ZM 55 28C 58.3137 28 61 25.3137 61 22C 61 18.6863 58.3137 16 55 16C 51.6863 16 49 18.6863 49 22C 49 25.3137 51.6863 28 55 28Z"/>
      </g>
    </g>
  </g>
  <g id="g-root-cp_5_g-5_140i0fs1aoahhh-stroke-fill" data-item-order="-449198" transform="translate(809.1309814453125, 149)">
    <g id="cp_5_g-5_140i0fs1aoahhh-fill" stroke="none" fill="none">
      <g>
        <path d="M 100 55C 100 66.244 94.5 77.5875 89 86L 55.816 132.848C 55.4175 133.411 54.5825 133.411 54.184 132.848L 21 86C 14.5 77 10 66.7284 10 55C 10 30.1472 30.1472 10 55 10C 79.8528 10 100 30.1472 100 55ZM 55 91C 74.8822 91 91 74.8822 91 55C 91 35.1177 74.8822 19 55 19C 35.1177 19 19 35.1177 19 55C 19 74.8822 35.1177 91 55 91Z"/>
      </g>
    </g>
    <g id="cp_5_g-5_140i0fs1aoahhh-stroke" fill="none" stroke-linecap="round" stroke-linejoin="round" stroke-miterlimit="4" stroke="#4f91fc" stroke-width="2">
      <g>
        <path d="M 100 55C 100 66.244 94.5 77.5875 89 86L 55.816 132.848C 55.4175 133.4106 54.5825 133.4106 54.184 132.848L 21 86C 14.5 77 10 66.7284 10 55C 10 30.1472 30.1472 10 55 10C 79.8528 10 100 30.1472 100 55ZM 55 91C 74.8822 91 91 74.8822 91 55C 91 35.1177 74.8822 19 55 19C 35.1177 19 19 35.1177 19 55C 19 74.8822 35.1177 91 55 91Z"/>
      </g>
    </g>
    <g id="cp_5_g-5_140i0fs1aoahhh-fill" stroke="none" fill="none">
      <g>
        <path d="M 55 187C 61.6274 187 67 181.6274 67 175C 67 168.3726 61.6274 163 55 163C 48.3726 163 43 168.3726 43 175C 43 181.6274 48.3726 187 55 187ZM 55 181C 58.3137 181 61 178.3137 61 175C 61 171.6863 58.3137 169 55 169C 51.6863 169 49 171.6863 49 175C 49 178.3137 51.6863 181 55 181Z"/>
      </g>
    </g>
    <g id="cp_5_g-5_140i0fs1aoahhh-stroke" fill="none" stroke-linecap="round" stroke-linejoin="round" stroke-miterlimit="4" stroke="#4f91fc" stroke-width="2">
      <g>
        <path d="M 55 187C 61.6274 187 67 181.6274 67 175C 67 168.3726 61.6274 163 55 163C 48.3726 163 43 168.3726 43 175C 43 181.6274 48.3726 187 55 187ZM 55 181C 58.3137 181 61 178.3137 61 175C 61 171.6863 58.3137 169 55 169C 51.6863 169 49 171.6863 49 175C 49 178.3137 51.6863 181 55 181Z"/>
      </g>
    </g>
  </g>
  <g id="g-root-tx_theflatw_zkoibc1aoai9s-stroke-fill" data-item-order="0" transform="translate(248, 50)">
    <g id="tx_theflatw_zkoibc1aoai9s-fill" stroke="none" fill="#f4f4f4">
      <g>
        <text style="font: 20px Roboto, sans-serif; white-space: pre;" font-size="20px" font-family="Roboto, sans-serif">
          <tspan x="17.05" y="34" dominant-baseline="ideographic">The Flatwoods Monster Incident: A Timeline of Events</tspan>
        </text>
      </g>
    </g>
  </g>
  <g id="g-root-ic_muha_de7gs81aoahhl-stroke-fill" data-item-order="0" transform="translate(290.1310119628906, 410.0000305175781)">
    <g id="ic_muha_de7gs81aoahhl-stroke" fill="none" stroke-linecap="round" stroke-linejoin="round" stroke-miterlimit="4" stroke="#fb6762" stroke-width="2">
      <g>
        <path d="M 33.999985 49.099972C 35.988182 49.099972 37.599983 47.488178 37.599983 45.499977C 37.599983 43.511776 35.988182 41.899979 33.999985 41.899979C 32.011787 41.899979 30.399986 43.511776 30.399986 45.499977C 30.399986 47.488178 32.011787 49.099972 33.999985 49.099972ZM 28.999987 56.499969L 28.999987 54.099968C 28.999987 51.299973 31.199987 49.099972 33.999985 49.099972C 36.79998 49.099972 38.999981 51.299973 38.999981 54.099968L 38.999981 56.499969M 10 10M 27.900009 37.900181L 11.700011 48.300175M 11.699999 11.500121L 14.099998 11.500121C 16.299995 11.500121 18.099995 13.300117 18.099995 15.500116C 20.899992 15.500116 23.099991 17.700115 23.099991 20.500113L 24.099991 20.500113C 26.299988 20.500113 28.099989 22.300112 28.099989 24.500111C 28.099989 24.500111 28.299988 28.100109 25.29999 29.100107C 23.299992 29.700108 21.099993 28.300108 20.499992 26.100109L 20.499992 25.90011C 20.299994 26.100109 19.899994 26.100088 19.499994 26.300089C 17.299995 26.700089 15.299996 25.50009 14.699997 23.300091L 14.699997 22.100111C 14.299997 22.300112 13.899998 22.500113 13.499998 22.500113C 12.699998 22.700111 12.099998 22.700111 11.499999 22.500113M 27.899988 37.900181C 24.699989 36.900181 22.499992 33.900185 22.499992 30.300186C 22.499992 29.700127 22.499992 29.300127 22.699991 28.900129M 15.899996 31.500187C 15.899996 31.500187 15.899996 38.900181 21.699991 41.70018M 11.700011 39.29998C 12.300018 41.099979 13.500018 43.699978 15.700016 45.499977M 10 10M 40.099979 37.900181L 56.299969 48.300175M 56.299969 11.500121L 53.899971 11.500121C 51.699974 11.500121 49.899975 13.300117 49.899975 15.500116C 47.099976 15.500116 44.899979 17.700115 44.899979 20.500113L 43.899979 20.500113C 41.699982 20.500113 39.899979 22.300112 39.899979 24.500111C 39.899979 24.500111 39.699982 28.100109 42.699978 29.100107C 44.699978 29.700108 46.899979 28.300108 47.499977 26.100109L 47.499977 25.90011C 47.699978 26.100109 48.099972 26.100088 48.499973 26.300089C 50.699974 26.700089 52.699974 25.50009 53.299973 23.300091L 53.299973 22.100111C 53.69997 22.300112 54.099968 22.500113 54.499969 22.500113C 55.299969 22.700111 55.899971 22.700111 56.499969 22.500113M 40.099979 37.900181C 43.299976 36.900181 45.499977 33.900185 45.499977 30.300186C 45.499977 29.700127 45.499977 29.300127 45.299976 28.900129M 52.099972 31.500187C 52.099972 31.500187 52.099972 38.900181 46.299976 41.70018M 56.299969 39.29998C 55.69997 41.099979 54.499969 43.699978 52.299973 45.499977"/>
      </g>
    </g>
  </g>
  <g id="g-root-tx_septembe_4mdo81aobvgi-stroke-fill" data-item-order="0" transform="translate(254, 134)">
    <g id="tx_septembe_4mdo81aobvgi-fill" stroke="none" fill="#fb6762">
      <g>
        <text style="font: bold 20px Roboto, sans-serif; white-space: pre;" font-weight="bold" font-size="20px" font-family="Roboto, sans-serif">
          <tspan x="13.77" y="34" dominant-baseline="ideographic">September 12, </tspan>
          <tspan x="13.89" y="58" dominant-baseline="ideographic">1952, 7:15 PM</tspan>
        </text>
      </g>
    </g>
  </g>
  <g id="g-root-tx_witnesse_1qa3feg1aobw23-stroke-fill" data-item-order="0" transform="translate(230, 194)">
    <g id="tx_witnesse_1qa3feg1aobw23-fill" stroke="none" fill="#f4f4f4">
      <g>
        <text style="font: 15px Roboto, sans-serif; white-space: pre;" font-size="15px" font-family="Roboto, sans-serif">
          <tspan x="23.92" y="28" dominant-baseline="ideographic">Witnesses encounter </tspan>
          <tspan x="17.11" y="46" dominant-baseline="ideographic">the Flatwoods Monster</tspan>
        </text>
      </g>
    </g>
  </g>
  <g id="g-root-ic_1_18jfvzs1aobv9g-stroke-fill" data-item-order="0" transform="translate(650.1309814453125, 410)">
    <g id="ic_1_18jfvzs1aobv9g-stroke" fill="none" stroke-linecap="round" stroke-linejoin="round" stroke-miterlimit="4" stroke="#b7b7b7" stroke-width="2">
      <g>
        <path d="M 21.362 16.507999C 21.362 19.269424 23.600576 21.507999 26.362 21.507999C 29.123425 21.507999 31.362 19.269424 31.362 16.507999C 31.362 13.746576 29.123425 11.508 26.362 11.508C 23.600576 11.508 21.362 13.746576 21.362 16.507999M 35.057999 52.653999C 32.961998 51.754002 29.950001 50.537998 29.362 47.944C 28.92786 46.588257 27.871035 45.522213 26.519112 45.076321C 25.167191 44.630428 23.683517 44.858559 22.528 45.689999C 19.683819 47.467632 18.820408 51.215046 20.6 54.058002L 22.032 56.341999C 28.218 56.897999 33.563999 55.948002 35.057999 52.653999ZM 20.362 29.986C 20.362 31.642855 19.018854 32.986 17.362 32.986L 13.362 32.986C 11.705146 32.986 10.362 31.642855 10.362 29.986C 10.362 28.329145 11.705146 26.986 13.362 26.986L 17.362 26.986C 19.018854 26.986 20.362 28.329145 20.362 29.986ZM 17.58 32.978001C 19.15 38.262001 21.540001 44.638 22.528 45.689999M 15.362 22.216C 15.639999 23.790001 15.894 25.389999 16.15 26.986M 32.362 35.014L 32.362 42.509998M 23.362 24.51L 30.362 24.51C 33.676003 24.51 35.362 27.195999 35.362 30.51L 35.362 30.51C 35.013718 32.833191 33.437195 34.786827 31.24 35.618C 29.554001 36.327999 22.458 38.531998 22.458 38.531998C 20.885094 39.053909 19.186909 38.201904 18.665001 36.628998C 18.143091 35.056091 18.995094 33.35791 20.568001 32.835999L 26.146 30.986M 46.362 47.009998C 46.362 47.562286 46.809715 48.009998 47.362 48.009998C 47.914284 48.009998 48.362 47.562286 48.362 47.009998C 48.362 46.457714 47.914284 46.009998 47.362 46.009998C 46.809715 46.009998 46.362 46.457714 46.362 47.009998M 36.650002 47.009998C 36.650002 47.562286 37.097717 48.009998 37.650002 48.009998C 38.202286 48.009998 38.650002 47.562286 38.650002 47.009998C 38.650002 46.457714 38.202286 46.009998 37.650002 46.009998C 37.097717 46.009998 36.650002 46.457714 36.650002 47.009998M 41.931999 54.816002C 41.931999 55.368286 42.379715 55.816002 42.931999 55.816002C 43.484283 55.816002 43.931999 55.368286 43.931999 54.816002C 43.931999 54.263714 43.484283 53.816002 42.931999 53.816002C 42.379715 53.816002 41.931999 54.263714 41.931999 54.816002M 55.638 47.009998C 55.638 47.562286 56.085716 48.009998 56.638 48.009998C 57.190285 48.009998 57.638 47.562286 57.638 47.009998C 57.638 46.457714 57.190285 46.009998 56.638 46.009998C 56.085716 46.009998 55.638 46.457714 55.638 47.009998M 52.411999 54.816002C 52.411999 55.368286 52.859715 55.816002 53.411999 55.816002C 53.964283 55.816002 54.411999 55.368286 54.411999 54.816002C 54.411999 54.263714 53.964283 53.816002 53.411999 53.816002C 52.859715 53.816002 52.411999 54.263714 52.411999 54.816002"/>
      </g>
    </g>
  </g>
  <g id="g-root-tx_septembe_v7zdmg1aoda85-stroke-fill" data-item-order="0" transform="translate(614, 134)">
    <g id="tx_septembe_v7zdmg1aoda85-fill" stroke="none" fill="#b7b7b7">
      <g>
        <text style="font: bold 20px Roboto, sans-serif; white-space: pre;" font-weight="bold" font-size="20px" font-family="Roboto, sans-serif">
          <tspan x="13.77" y="34" dominant-baseline="ideographic">September 13, </tspan>
          <tspan x="56.56" y="58" dominant-baseline="ideographic">1952</tspan>
        </text>
      </g>
    </g>
  </g>
  <g id="g-root-tx_physical_mccddk1aodb0u-stroke-fill" data-item-order="0" transform="translate(626, 194)">
    <g id="tx_physical_mccddk1aodb0u-fill" stroke="none" fill="#f4f4f4">
      <g>
        <text style="font: 15px Roboto, sans-serif; white-space: pre;" font-size="15px" font-family="Roboto, sans-serif">
          <tspan x="14.7" y="28" dominant-baseline="ideographic">Physical evidence </tspan>
          <tspan x="41.6" y="46" dominant-baseline="ideographic">examined</tspan>
        </text>
      </g>
    </g>
  </g>
  <g id="g-root-tx_septembe_91ic3c1aod9fz-stroke-fill" data-item-order="0" transform="translate(74, 398)">
    <g id="tx_septembe_91ic3c1aod9fz-fill" stroke="none" fill="#ffe711">
      <g>
        <text style="font: bold 20px Roboto, sans-serif; white-space: pre;" font-weight="bold" font-size="20px" font-family="Roboto, sans-serif">
          <tspan x="13.77" y="34" dominant-baseline="ideographic">September 12, </tspan>
          <tspan x="13.89" y="58" dominant-baseline="ideographic">1952, 7:15 PM</tspan>
        </text>
      </g>
    </g>
  </g>
  <g id="g-root-tx_brightli_5vbug1aodb0g-stroke-fill" data-item-order="0" transform="translate(50, 458)">
    <g id="tx_brightli_5vbug1aodb0g-fill" stroke="none" fill="#f4f4f4">
      <g>
        <text style="font: 15px Roboto, sans-serif; white-space: pre;" font-size="15px" font-family="Roboto, sans-serif">
          <tspan x="15.57" y="28" dominant-baseline="ideographic">Bright light observed in </tspan>
          <tspan x="68.48" y="46" dominant-baseline="ideographic">the sky</tspan>
        </text>
      </g>
    </g>
  </g>
  <g id="g-root-ic_1_1lw5cjc1aod98h-stroke-fill" data-item-order="0" transform="translate(110.1309814453125, 170)">
    <g id="ic_1_1lw5cjc1aod98h-stroke" fill="none" stroke-linecap="round" stroke-linejoin="round" stroke-miterlimit="4" stroke="#ffe711" stroke-width="2">
      <g>
        <path d="M 19.5 56.5C 23.91828 56.5 27.5 52.918201 27.5 48.5C 27.5 44.081799 23.91828 40.5 19.5 40.5C 15.08172 40.5 11.5 44.081799 11.5 48.5C 11.5 52.918201 15.08172 56.5 19.5 56.5ZM 10 10M 16.5 33.5L 14.5 11.5M 10 10M 33.5 51.5L 56.5 54.299999M 10 10M 27.5 11.5L 24.5 26.299999M 10 10M 30.5 34.299999L 49.5 11.5M 10 10M 40.5 35.5L 56.5 25.5M 37.5 44.299999L 53.5 44.299999"/>
      </g>
    </g>
  </g>
  <g id="g-root-tx_septembe_hyeaig1aoeo76-stroke-fill" data-item-order="0" transform="translate(434, 398)">
    <g id="tx_septembe_hyeaig1aoeo76-fill" stroke="none" fill="#f79438">
      <g>
        <text style="font: bold 20px Roboto, sans-serif; white-space: pre;" font-weight="bold" font-size="20px" font-family="Roboto, sans-serif">
          <tspan x="13.77" y="34" dominant-baseline="ideographic">September 12, </tspan>
          <tspan x="13.89" y="58" dominant-baseline="ideographic">1952, 7:45 PM</tspan>
        </text>
      </g>
    </g>
  </g>
  <g id="g-root-tx_localaut_4mxs541aoeps3-stroke-fill" data-item-order="0" transform="translate(458, 458)">
    <g id="tx_localaut_4mxs541aoeps3-fill" stroke="none" fill="#f4f4f4">
      <g>
        <text style="font: 15px Roboto, sans-serif; white-space: pre;" font-size="15px" font-family="Roboto, sans-serif">
          <tspan x="12.55" y="28" dominant-baseline="ideographic">Local authorities </tspan>
          <tspan x="34.66" y="46" dominant-baseline="ideographic">contacted</tspan>
        </text>
      </g>
    </g>
  </g>
  <g id="g-root-ic_info_1qd7su01aoeo04-stroke-fill" data-item-order="0" transform="translate(470.1310119628906, 170)">
    <g id="ic_info_1qd7su01aoeo04-stroke" fill="none" stroke-linecap="round" stroke-linejoin="round" stroke-miterlimit="4" stroke="#f79438" stroke-width="2">
      <g>
        <path d="M 44.865978 10.999999C 40.463043 10.994943 36.403801 13.378452 34.26297 17.22588C 32.122143 21.073307 32.236614 25.779205 34.561985 29.517988L 30.999987 36.999981L 38.481983 33.435986C 42.855572 36.147251 48.464005 35.803383 52.473618 32.578121C 56.483223 29.352858 58.021019 23.948418 56.310024 19.095402C 54.59903 14.242384 50.011776 10.997407 44.865978 10.999999ZM 44.999977 26.999989C 45.276119 26.999989 45.499977 27.223846 45.499977 27.499989C 45.499977 27.776131 45.276119 27.999989 44.999977 27.999989C 44.723835 27.999989 44.499977 27.776131 44.499977 27.499989C 44.499977 27.223846 44.723835 26.999989 44.999977 26.999989M 44.999977 23.99999L 44.999977 17.999994M 27.223989 35.625984C 25.949989 34.253983 24.72599 32.853985 23.567991 31.439987L 24.98399 30.025986C 26.545517 28.463989 26.545517 25.93199 24.98399 24.369991L 20.737993 20.127995C 19.175995 18.566467 16.643995 18.566467 15.081997 20.127995L 12.755999 22.455992C 10.741374 24.470583 10.425194 27.62569 11.999999 29.999987C 18.848688 40.311657 27.688314 49.151283 37.999985 55.999973C 40.376778 57.571667 43.531162 57.25489 45.547977 55.24197L 47.875973 52.917973C 49.4375 51.355972 49.4375 48.823975 47.875973 47.261978L 43.633976 43.015976C 42.071751 41.453117 39.538208 41.453117 37.975983 43.015976L 36.561981 44.429977C 35.149982 43.271976 33.747982 42.047977 32.373985 40.773979"/>
      </g>
    </g>
  </g>
  <g id="g-root-tx_1952_1hdty2g1aohibp-stroke-fill" data-item-order="0" transform="translate(878, 398)">
    <g id="tx_1952_1hdty2g1aohibp-fill" stroke="none" fill="#4f91fc">
      <g>
        <text style="font: bold 20px Roboto, sans-serif; white-space: pre;" font-weight="bold" font-size="20px" font-family="Roboto, sans-serif">
          <tspan x="17.05" y="34" dominant-baseline="ideographic">1952</tspan>
        </text>
      </g>
    </g>
  </g>
  <g id="g-root-tx_official_142dfp41aohjwm-stroke-fill" data-item-order="0" transform="translate(758, 434)">
    <g id="tx_official_142dfp41aohjwm-fill" stroke="none" fill="#f4f4f4">
      <g>
        <text style="font: 15px Roboto, sans-serif; white-space: pre;" font-size="15px" font-family="Roboto, sans-serif">
          <tspan x="17.65" y="28" dominant-baseline="ideographic">Official investigations by </tspan>
          <tspan x="41.45" y="46" dominant-baseline="ideographic">the U.S. Air Force</tspan>
        </text>
      </g>
    </g>
    <defs>
      <pattern id="crawlingPattern-0000001b" x="0" y="0" width="12" height="12" patternUnits="userSpaceOnUse" fill="#0000001b">
        <use href="#crawlingSymbol"/>
      </pattern>
      <symbol id="crawlingSymbol">
        <g>
          <path d="M -12.5 12.5 l 13 -13 l 6 0 l -13 13 Z M -0.5 12.5 l 13 -13 l 6 0 l -13 13 Z M 11.5 12.5 l 13 -13 l 6 0 l -13 13 Z"/>
        </g>
      </symbol>
      <pattern id="crawlingPattern-f9080081" x="0" y="0" width="12" height="12" patternUnits="userSpaceOnUse" fill="#f9080081">
        <use href="#crawlingSymbol"/>
      </pattern>
      <pattern id="crawlingPattern-00000024" x="0" y="0" width="12" height="12" patternUnits="userSpaceOnUse" fill="#00000024">
        <use href="#crawlingSymbol"/>
      </pattern>
      <pattern id="crawlingPattern-ddc700ff" x="0" y="0" width="12" height="12" patternUnits="userSpaceOnUse" fill="#ddc700ff">
        <use href="#crawlingSymbol"/>
      </pattern>
      <pattern id="crawlingPattern-f17400d3" x="0" y="0" width="12" height="12" patternUnits="userSpaceOnUse" fill="#f17400d3">
        <use href="#crawlingSymbol"/>
      </pattern>
      <pattern id="crawlingPattern-0060fba2" x="0" y="0" width="12" height="12" patternUnits="userSpaceOnUse" fill="#0060fba2">
        <use href="#crawlingSymbol"/>
      </pattern>
    </defs>
  </g>
  <g id="g-root-ic_warn_qrjeew1aohibr-stroke-fill" data-item-order="0" transform="translate(830.1309814453125, 170)">
    <g id="ic_warn_qrjeew1aohibr-stroke" fill="none" stroke-linecap="round" stroke-linejoin="round" stroke-miterlimit="4" stroke="#4f91fc" stroke-width="2">
      <g>
        <path d="M 44.48 52C 44.065788 52 43.73 51.664215 43.73 51.25C 43.73 50.835789 44.065788 50.5 44.48 50.5M 44.48 52C 44.894215 52 45.23 51.664215 45.23 51.25C 45.23 50.835789 44.894215 50.5 44.48 50.5M 44.48 46L 44.48 40M 56.105999 51.366001C 56.656837 52.465778 56.5984 53.772457 55.951595 54.818676C 55.30479 55.864895 54.162014 56.501198 52.931999 56.5L 36.028 56.5C 34.797989 56.501198 33.655212 55.864895 33.008408 54.818676C 32.361603 53.772457 32.303165 52.465778 32.854 51.366001L 41.306 34.461998C 41.906776 33.259369 43.135658 32.499569 44.480003 32.499569C 45.824345 32.499569 47.053226 33.259369 47.654003 34.462002L 56.105999 51.366001ZM 38.938 29.6L 39.98 25.91L 46.380001 23.757999C 48.862289 22.876183 50.178848 20.166721 49.338127 17.670216C 48.497406 15.173708 45.810047 13.812604 43.300003 14.612L 20.436001 22.299999L 17.380001 19.254L 12.834 20.779999C 12.218837 20.986687 11.74873 21.488695 11.582821 22.116085C 11.416913 22.743477 11.577417 23.412247 12.01 23.896L 18.156 30.775999C 19.184948 31.926931 20.800703 32.354073 22.264 31.862L 28.996 29.601999L 27.49 38.118C 27.375444 38.768536 27.589481 39.433678 28.061926 39.895325C 28.534372 40.356972 29.204287 40.555569 29.851999 40.426003L 31.98 40M 36.900002 16.764L 29.743999 11.84C 29.244423 11.494997 28.611311 11.406034 28.036001 11.6L 24.596001 12.756001C 23.960726 12.968351 23.48098 13.494905 23.328518 14.147148C 23.176056 14.799393 23.372681 15.484047 23.848 15.955999L 27.752001 19.84"/>
      </g>
    </g>
  </g>
</svg>
