<?xml version='1.0' encoding='utf-8'?>
<svg xmlns="http://www.w3.org/2000/svg" xmlns:xlink="http://www.w3.org/1999/xlink" width="648" height="552" viewBox="0 0 648 552" style="fill:none;stroke:none;fill-rule:evenodd;clip-rule:evenodd;stroke-linecap:round;stroke-linejoin:round;stroke-miterlimit:1.5;" version="1.1">
  <style class="text-font-style fontImports" data-font-family="Roboto">@import url('https://fonts.googleapis.com/css2?family=Roboto:wght@400;700&amp;display=block');</style>
  <rect x="0" y="0" width="648" height="552" fill="#252a34" stroke="none" id="programmatic_background"/>
  <g id="g-root-tf_140i6rc1aod9tv-stroke-fill" data-item-order="-326304" transform="translate(15, 12)"/>
  <g id="g-root-cp_1_column-1_1ur620o1aobxfz-stroke-fill" data-item-order="-246230" transform="translate(56, 119)">
    <g id="cp_1_column-1_1ur620o1aobxfz-fill" stroke="none" fill="none">
      <g>
        <path d="M 10 13C 10 14.656854 11.343146 16 13 16C 14.656854 16 16 14.656854 16 13C 16 11.343146 14.656854 10 13 10C 11.343146 10 10 11.343146 10 13"/>
      </g>
    </g>
    <g id="cp_1_column-1_1ur620o1aobxfz-stroke" fill="none" stroke-linecap="round" stroke-linejoin="round" stroke-miterlimit="4" stroke="#ffe711" stroke-width="2">
      <g>
        <path d="M 10 13C 10 14.656854 11.343146 16 13 16C 14.656854 16 16 14.656854 16 13C 16 11.343146 14.656854 10 13 10C 11.343146 10 10 11.343146 10 13"/>
      </g>
    </g>
    <g id="cp_1_column-1_1ur620o1aobxfz-stroke" fill="none" stroke-linecap="round" stroke-linejoin="round" stroke-miterlimit="4" stroke="#ffe711" stroke-width="2">
      <g>
        <path d="M 13 16L 13 118"/>
      </g>
    </g>
    <g id="cp_1_column-1_1ur620o1aobxfz-fill" stroke="none" fill="none">
      <g>
        <path d="M 10 121C 10 122.656854 11.343146 124 13 124C 14.656854 124 16 122.656854 16 121C 16 119.343146 14.656854 118 13 118C 11.343146 118 10 119.343146 10 121"/>
      </g>
    </g>
    <g id="cp_1_column-1_1ur620o1aobxfz-stroke" fill="none" stroke-linecap="round" stroke-linejoin="round" stroke-miterlimit="4" stroke="#ffe711" stroke-width="2">
      <g>
        <path d="M 10 121C 10 122.656854 11.343146 124 13 124C 14.656854 124 16 122.656854 16 121C 16 119.343146 14.656854 118 13 118C 11.343146 118 10 119.343146 10 121"/>
      </g>
    </g>
  </g>
  <g id="g-root-cp_3_column-3_1qbz0zc1aobv2h-stroke-fill" data-item-order="-246214" transform="translate(236, 119)">
    <g id="cp_3_column-3_1qbz0zc1aobv2h-fill" stroke="none" fill="none">
      <g>
        <path d="M 10 13C 10 14.656854 11.343146 16 13 16C 14.656854 16 16 14.656854 16 13C 16 11.343146 14.656854 10 13 10C 11.343146 10 10 11.343146 10 13"/>
      </g>
    </g>
    <g id="cp_3_column-3_1qbz0zc1aobv2h-stroke" fill="none" stroke-linecap="round" stroke-linejoin="round" stroke-miterlimit="4" stroke="#f79438" stroke-width="2">
      <g>
        <path d="M 10 13C 10 14.656854 11.343146 16 13 16C 14.656854 16 16 14.656854 16 13C 16 11.343146 14.656854 10 13 10C 11.343146 10 10 11.343146 10 13"/>
      </g>
    </g>
    <g id="cp_3_column-3_1qbz0zc1aobv2h-stroke" fill="none" stroke-linecap="round" stroke-linejoin="round" stroke-miterlimit="4" stroke="#f79438" stroke-width="2">
      <g>
        <path d="M 13 16L 13 118"/>
      </g>
    </g>
    <g id="cp_3_column-3_1qbz0zc1aobv2h-fill" stroke="none" fill="none">
      <g>
        <path d="M 10 121C 10 122.656854 11.343146 124 13 124C 14.656854 124 16 122.656854 16 121C 16 119.343146 14.656854 118 13 118C 11.343146 118 10 119.343146 10 121"/>
      </g>
    </g>
    <g id="cp_3_column-3_1qbz0zc1aobv2h-stroke" fill="none" stroke-linecap="round" stroke-linejoin="round" stroke-miterlimit="4" stroke="#f79438" stroke-width="2">
      <g>
        <path d="M 10 121C 10 122.656854 11.343146 124 13 124C 14.656854 124 16 122.656854 16 121C 16 119.343146 14.656854 118 13 118C 11.343146 118 10 119.343146 10 121"/>
      </g>
    </g>
  </g>
  <g id="g-root-cp_5_column-5_1lw5iuw1aobvur-stroke-fill" data-item-order="-246198" transform="translate(416, 119)">
    <g id="cp_5_column-5_1lw5iuw1aobvur-fill" stroke="none" fill="none">
      <g>
        <path d="M 10 13C 10 14.656854 11.343146 16 13 16C 14.656854 16 16 14.656854 16 13C 16 11.343146 14.656854 10 13 10C 11.343146 10 10 11.343146 10 13"/>
      </g>
    </g>
    <g id="cp_5_column-5_1lw5iuw1aobvur-stroke" fill="none" stroke-linecap="round" stroke-linejoin="round" stroke-miterlimit="4" stroke="#4f91fc" stroke-width="2">
      <g>
        <path d="M 10 13C 10 14.656854 11.343146 16 13 16C 14.656854 16 16 14.656854 16 13C 16 11.343146 14.656854 10 13 10C 11.343146 10 10 11.343146 10 13"/>
      </g>
    </g>
    <g id="cp_5_column-5_1lw5iuw1aobvur-stroke" fill="none" stroke-linecap="round" stroke-linejoin="round" stroke-miterlimit="4" stroke="#4f91fc" stroke-width="2">
      <g>
        <path d="M 13 16L 13 118"/>
      </g>
    </g>
    <g id="cp_5_column-5_1lw5iuw1aobvur-fill" stroke="none" fill="none">
      <g>
        <path d="M 10 121C 10 122.656854 11.343146 124 13 124C 14.656854 124 16 122.656854 16 121C 16 119.343146 14.656854 118 13 118C 11.343146 118 10 119.343146 10 121"/>
      </g>
    </g>
    <g id="cp_5_column-5_1lw5iuw1aobvur-stroke" fill="none" stroke-linecap="round" stroke-linejoin="round" stroke-miterlimit="4" stroke="#4f91fc" stroke-width="2">
      <g>
        <path d="M 10 121C 10 122.656854 11.343146 124 13 124C 14.656854 124 16 122.656854 16 121C 16 119.343146 14.656854 118 13 118C 11.343146 118 10 119.343146 10 121"/>
      </g>
    </g>
  </g>
  <g id="g-root-cp_1_g-1_1d0iim01aobwnh-stroke-fill" data-item-order="-246180" transform="translate(59, 242)">
    <g id="cp_1_g-1_1d0iim01aobwnh-fill" stroke="none" fill="none">
      <g>
        <path d="M 76 10L 10 10L 28 46L 10 82L 76 82L 94 46L 76 10Z"/>
      </g>
    </g>
    <g id="cp_1_g-1_1d0iim01aobwnh-stroke" fill="none" stroke-linecap="round" stroke-linejoin="round" stroke-miterlimit="4" stroke="#ffe711" stroke-width="2">
      <g>
        <path d="M 76 10L 10 10L 28 46L 10 82L 76 82L 94 46L 76 10Z"/>
      </g>
    </g>
  </g>
  <g id="g-root-cp_2_g-2_18kp0hk1aobxfr-stroke-fill" data-item-order="-246172" transform="translate(149, 242)">
    <g id="cp_2_g-2_18kp0hk1aobxfr-fill" stroke="none" fill="none">
      <g>
        <path d="M 76 10L 10 10L 28 46L 10 82L 76 82L 94 46L 76 10Z"/>
      </g>
    </g>
    <g id="cp_2_g-2_18kp0hk1aobxfr-stroke" fill="none" stroke-linecap="round" stroke-linejoin="round" stroke-miterlimit="4" stroke="#fb6762" stroke-width="2">
      <g>
        <path d="M 76 10L 10 10L 28 46L 10 82L 76 82L 94 46L 76 10Z"/>
      </g>
    </g>
  </g>
  <g id="g-root-cp_3_g-3_145hzg81aobv29-stroke-fill" data-item-order="-246166" transform="translate(239, 242)">
    <g id="cp_3_g-3_145hzg81aobv29-fill" stroke="none" fill="none">
      <g>
        <path d="M 76 10L 10 10L 28 46L 10 82L 76 82L 94 46L 76 10Z"/>
      </g>
    </g>
    <g id="cp_3_g-3_145hzg81aobv29-stroke" fill="none" stroke-linecap="round" stroke-linejoin="round" stroke-miterlimit="4" stroke="#f79438" stroke-width="2">
      <g>
        <path d="M 76 10L 10 10L 28 46L 10 82L 76 82L 94 46L 76 10Z"/>
      </g>
    </g>
  </g>
  <g id="g-root-cp_4_g-4_v9uz7c1aobvuz-stroke-fill" data-item-order="-246160" transform="translate(329, 242)">
    <g id="cp_4_g-4_v9uz7c1aobvuz-fill" stroke="none" fill="none">
      <g>
        <path d="M 76 10L 10 10L 28 46L 10 82L 76 82L 94 46L 76 10Z"/>
      </g>
    </g>
    <g id="cp_4_g-4_v9uz7c1aobvuz-stroke" fill="none" stroke-linecap="round" stroke-linejoin="round" stroke-miterlimit="4" stroke="#b7b7b7" stroke-width="2">
      <g>
        <path d="M 76 10L 10 10L 28 46L 10 82L 76 82L 94 46L 76 10Z"/>
      </g>
    </g>
  </g>
  <g id="g-root-cp_5_g-5_qu1h2w1aobwn9-stroke-fill" data-item-order="-246154" transform="translate(419, 242)">
    <g id="cp_5_g-5_qu1h2w1aobwn9-fill" stroke="none" fill="none">
      <g>
        <path d="M 76 10L 10 10L 28 46L 10 82L 76 82L 94 46L 76 10Z"/>
      </g>
    </g>
    <g id="cp_5_g-5_qu1h2w1aobwn9-stroke" fill="none" stroke-linecap="round" stroke-linejoin="round" stroke-miterlimit="4" stroke="#4f91fc" stroke-width="2">
      <g>
        <path d="M 76 10L 10 10L 28 46L 10 82L 76 82L 94 46L 76 10Z"/>
      </g>
    </g>
  </g>
  <g id="g-root-cp_2_column-2_hyegu01aobxfz-stroke-fill" data-item-order="-246146" transform="translate(146, 323)">
    <g id="cp_2_column-2_hyegu01aobxfz-fill" stroke="none" fill="none">
      <g>
        <path d="M 10 13C 10 14.656854 11.343146 16 13 16C 14.656854 16 16 14.656854 16 13C 16 11.343146 14.656854 10 13 10C 11.343146 10 10 11.343146 10 13"/>
      </g>
    </g>
    <g id="cp_2_column-2_hyegu01aobxfz-stroke" fill="none" stroke-linecap="round" stroke-linejoin="round" stroke-miterlimit="4" stroke="#fb6762" stroke-width="2">
      <g>
        <path d="M 10 13C 10 14.656854 11.343146 16 13 16C 14.656854 16 16 14.656854 16 13C 16 11.343146 14.656854 10 13 10C 11.343146 10 10 11.343146 10 13"/>
      </g>
    </g>
    <g id="cp_2_column-2_hyegu01aobxfz-stroke" fill="none" stroke-linecap="round" stroke-linejoin="round" stroke-miterlimit="4" stroke="#fb6762" stroke-width="2">
      <g>
        <path d="M 13 16L 13 142"/>
      </g>
    </g>
    <g id="cp_2_column-2_hyegu01aobxfz-fill" stroke="none" fill="none">
      <g>
        <path d="M 10 145C 10 146.656854 11.343146 148 13 148C 14.656854 148 16 146.656854 16 145C 16 143.343146 14.656854 142 13 142C 11.343146 142 10 143.343146 10 145"/>
      </g>
    </g>
    <g id="cp_2_column-2_hyegu01aobxfz-stroke" fill="none" stroke-linecap="round" stroke-linejoin="round" stroke-miterlimit="4" stroke="#fb6762" stroke-width="2">
      <g>
        <path d="M 10 145C 10 146.656854 11.343146 148 13 148C 14.656854 148 16 146.656854 16 145C 16 143.343146 14.656854 142 13 142C 11.343146 142 10 143.343146 10 145"/>
      </g>
    </g>
  </g>
  <g id="g-root-cp_4_column-4_dj7fso1aobv2h-stroke-fill" data-item-order="-246130" transform="translate(326, 323)">
    <g id="cp_4_column-4_dj7fso1aobv2h-fill" stroke="none" fill="none">
      <g>
        <path d="M 10 13C 10 14.656854 11.343146 16 13 16C 14.656854 16 16 14.656854 16 13C 16 11.343146 14.656854 10 13 10C 11.343146 10 10 11.343146 10 13"/>
      </g>
    </g>
    <g id="cp_4_column-4_dj7fso1aobv2h-stroke" fill="none" stroke-linecap="round" stroke-linejoin="round" stroke-miterlimit="4" stroke="#b7b7b7" stroke-width="2">
      <g>
        <path d="M 10 13C 10 14.656854 11.343146 16 13 16C 14.656854 16 16 14.656854 16 13C 16 11.343146 14.656854 10 13 10C 11.343146 10 10 11.343146 10 13"/>
      </g>
    </g>
    <g id="cp_4_column-4_dj7fso1aobv2h-stroke" fill="none" stroke-linecap="round" stroke-linejoin="round" stroke-miterlimit="4" stroke="#b7b7b7" stroke-width="2">
      <g>
        <path d="M 13.000002 16L 13.000002 118"/>
      </g>
    </g>
    <g id="cp_4_column-4_dj7fso1aobv2h-fill" stroke="none" fill="none">
      <g>
        <path d="M 10 121C 10 122.656854 11.343146 124 13 124C 14.656854 124 16 122.656854 16 121C 16 119.343146 14.656854 118 13 118C 11.343146 118 10 119.343146 10 121"/>
      </g>
    </g>
    <g id="cp_4_column-4_dj7fso1aobv2h-stroke" fill="none" stroke-linecap="round" stroke-linejoin="round" stroke-miterlimit="4" stroke="#b7b7b7" stroke-width="2">
      <g>
        <path d="M 10 121C 10 122.656854 11.343146 124 13 124C 14.656854 124 16 122.656854 16 121C 16 119.343146 14.656854 118 13 118C 11.343146 118 10 119.343146 10 121"/>
      </g>
    </g>
  </g>
  <g id="g-root-tx_theflatw_93dxo81aobvur-stroke-fill" data-item-order="0" transform="translate(68, 50)">
    <g id="tx_theflatw_93dxo81aobvur-fill" stroke="none" fill="#f4f4f4">
      <g>
        <text style="font: 20px Roboto, sans-serif; white-space: pre;" font-size="20px" font-family="Roboto, sans-serif">
          <tspan x="17.05" y="34" dominant-baseline="ideographic">The Flatwoods Monster Incident: A Timeline of Events</tspan>
        </text>
      </g>
    </g>
  </g>
  <g id="g-root-tx_septembe_1ly0y481aobuvg-stroke-fill" data-item-order="0" transform="translate(71, 122)">
    <g id="tx_septembe_1ly0y481aobuvg-fill" stroke="none" fill="#ffe711">
      <g>
        <text style="font: bold 20px Roboto, sans-serif; white-space: pre;" font-weight="bold" font-size="20px" font-family="Roboto, sans-serif">
          <tspan x="12" y="34" dominant-baseline="ideographic">September 12, </tspan>
          <tspan x="12" y="58" dominant-baseline="ideographic">1952, 7:15 PM</tspan>
        </text>
      </g>
    </g>
  </g>
  <g id="g-root-tx_brightli_1hi7fzs1aobvnp-stroke-fill" data-item-order="0" transform="translate(71, 182)">
    <g id="tx_brightli_1hi7fzs1aobvnp-fill" stroke="none" fill="#f4f4f4">
      <g>
        <text style="font: 15px Roboto, sans-serif; white-space: pre;" font-size="15px" font-family="Roboto, sans-serif">
          <tspan x="12" y="28" dominant-baseline="ideographic">Bright light observed </tspan>
          <tspan x="12" y="46" dominant-baseline="ideographic">in the sky</tspan>
        </text>
      </g>
    </g>
  </g>
  <g id="g-root-tx_septembe_146qxmg1aobx8m-stroke-fill" data-item-order="0" transform="translate(251, 122)">
    <g id="tx_septembe_146qxmg1aobx8m-fill" stroke="none" fill="#f79438">
      <g>
        <text style="font: bold 20px Roboto, sans-serif; white-space: pre;" font-weight="bold" font-size="20px" font-family="Roboto, sans-serif">
          <tspan x="12" y="34" dominant-baseline="ideographic">September 12, </tspan>
          <tspan x="12" y="58" dominant-baseline="ideographic">1952, 7:45 PM</tspan>
        </text>
      </g>
    </g>
  </g>
  <g id="g-root-tx_localaut_qvwwc81aobvnr-stroke-fill" data-item-order="0" transform="translate(251, 182)">
    <g id="tx_localaut_qvwwc81aobvnr-fill" stroke="none" fill="#f4f4f4">
      <g>
        <text style="font: 15px Roboto, sans-serif; white-space: pre;" font-size="15px" font-family="Roboto, sans-serif">
          <tspan x="12" y="28" dominant-baseline="ideographic">Local authorities </tspan>
          <tspan x="12" y="46" dominant-baseline="ideographic">contacted</tspan>
        </text>
      </g>
    </g>
  </g>
  <g id="g-root-tx_1952_mg3e7s1aobwg0-stroke-fill" data-item-order="0" transform="translate(431, 122)">
    <g id="tx_1952_mg3e7s1aobwg0-fill" stroke="none" fill="#4f91fc">
      <g>
        <text style="font: bold 20px Roboto, sans-serif; white-space: pre;" font-weight="bold" font-size="20px" font-family="Roboto, sans-serif">
          <tspan x="12" y="34" dominant-baseline="ideographic">1952</tspan>
        </text>
      </g>
    </g>
  </g>
  <g id="g-root-tx_official_dkgdyw1aobx8p-stroke-fill" data-item-order="0" transform="translate(431, 158)">
    <g id="tx_official_dkgdyw1aobx8p-fill" stroke="none" fill="#f4f4f4">
      <g>
        <text style="font: 15px Roboto, sans-serif; white-space: pre;" font-size="15px" font-family="Roboto, sans-serif">
          <tspan x="12" y="31" dominant-baseline="ideographic">Official </tspan>
          <tspan x="12" y="49" dominant-baseline="ideographic">investigations by the </tspan>
          <tspan x="12" y="67" dominant-baseline="ideographic">U.S. Air Force</tspan>
        </text>
      </g>
    </g>
  </g>
  <g id="g-root-tx_septembe_1uuwwjc1aobw8y-stroke-fill" data-item-order="0" transform="translate(161, 338)">
    <g id="tx_septembe_1uuwwjc1aobw8y-fill" stroke="none" fill="#fb6762">
      <g>
        <text style="font: bold 20px Roboto, sans-serif; white-space: pre;" font-weight="bold" font-size="20px" font-family="Roboto, sans-serif">
          <tspan x="12" y="34" dominant-baseline="ideographic">September 12, </tspan>
          <tspan x="12" y="58" dominant-baseline="ideographic">1952, 7:15 PM</tspan>
        </text>
      </g>
    </g>
  </g>
  <g id="g-root-tx_witnesse_1lz9wag1aobx1n-stroke-fill" data-item-order="0" transform="translate(161, 398)">
    <g id="tx_witnesse_1lz9wag1aobx1n-fill" stroke="none" fill="#f4f4f4">
      <g>
        <text style="font: 15px Roboto, sans-serif; white-space: pre;" font-size="15px" font-family="Roboto, sans-serif">
          <tspan x="12" y="31" dominant-baseline="ideographic">Witnesses </tspan>
          <tspan x="12" y="49" dominant-baseline="ideographic">encounter the </tspan>
          <tspan x="12" y="67" dominant-baseline="ideographic">Flatwoods Monster</tspan>
        </text>
      </g>
    </g>
  </g>
  <g id="g-root-tx_septembe_18eg9mg1aoda18-stroke-fill" data-item-order="0" transform="translate(341, 338)">
    <g id="tx_septembe_18eg9mg1aoda18-fill" stroke="none" fill="#b7b7b7">
      <g>
        <text style="font: bold 20px Roboto, sans-serif; white-space: pre;" font-weight="bold" font-size="20px" font-family="Roboto, sans-serif">
          <tspan x="12" y="34" dominant-baseline="ideographic">September 13, </tspan>
          <tspan x="12" y="58" dominant-baseline="ideographic">1952</tspan>
        </text>
      </g>
    </g>
  </g>
  <g id="g-root-tx_physical_v2zr941aodbm5-stroke-fill" data-item-order="0" transform="translate(341, 398)">
    <g id="tx_physical_v2zr941aodbm5-fill" stroke="none" fill="#f4f4f4">
      <g>
        <text style="font: 15px Roboto, sans-serif; white-space: pre;" font-size="15px" font-family="Roboto, sans-serif">
          <tspan x="12" y="28" dominant-baseline="ideographic">Physical evidence </tspan>
          <tspan x="12" y="46" dominant-baseline="ideographic">examined</tspan>
        </text>
      </g>
    </g>
    <defs>
      <pattern id="crawlingPattern-0000001b" x="0" y="0" width="12" height="12" patternUnits="userSpaceOnUse" fill="#0000001b">
        <use href="#crawlingSymbol"/>
      </pattern>
      <symbol id="crawlingSymbol">
        <g>
          <path d="M -12.5 12.5 l 13 -13 l 6 0 l -13 13 Z M -0.5 12.5 l 13 -13 l 6 0 l -13 13 Z M 11.5 12.5 l 13 -13 l 6 0 l -13 13 Z"/>
        </g>
      </symbol>
      <pattern id="crawlingPattern-ddc700ff" x="0" y="0" width="12" height="12" patternUnits="userSpaceOnUse" fill="#ddc700ff">
        <use href="#crawlingSymbol"/>
      </pattern>
      <pattern id="crawlingPattern-f17400d3" x="0" y="0" width="12" height="12" patternUnits="userSpaceOnUse" fill="#f17400d3">
        <use href="#crawlingSymbol"/>
      </pattern>
      <pattern id="crawlingPattern-0060fba2" x="0" y="0" width="12" height="12" patternUnits="userSpaceOnUse" fill="#0060fba2">
        <use href="#crawlingSymbol"/>
      </pattern>
      <pattern id="crawlingPattern-f9080081" x="0" y="0" width="12" height="12" patternUnits="userSpaceOnUse" fill="#f9080081">
        <use href="#crawlingSymbol"/>
      </pattern>
      <pattern id="crawlingPattern-00000024" x="0" y="0" width="12" height="12" patternUnits="userSpaceOnUse" fill="#00000024">
        <use href="#crawlingSymbol"/>
      </pattern>
    </defs>
  </g>
</svg>
