<?xml version='1.0' encoding='utf-8'?>
<svg xmlns="http://www.w3.org/2000/svg" xmlns:xlink="http://www.w3.org/1999/xlink" width="816" height="636" viewBox="0 0 816 636" style="fill:none;stroke:none;fill-rule:evenodd;clip-rule:evenodd;stroke-linecap:round;stroke-linejoin:round;stroke-miterlimit:1.5;" version="1.1">
  <style class="text-font-style fontImports" data-font-family="Roboto">@import url('https://fonts.googleapis.com/css2?family=Roboto:wght@400;700&amp;display=block');</style>
  <rect x="0" y="0" width="816" height="636" fill="#252a34" stroke="none" id="programmatic_background"/>
  <g id="g-root-tf_93d5881c1x7gm-stroke-fill" data-item-order="-477360" transform="translate(18, 12)">
    <g id="tf_93d5881c1x7gm-fill" stroke="none" fill="#2c2c2c">
      <g>
        <path d="M 0 0L 780 0L 780 612L 0 612Z"/>
      </g>
    </g>
    <defs>
      <pattern id="crawlingPattern-7878781a" x="0" y="0" width="12" height="12" patternUnits="userSpaceOnUse" fill="#7878781a">
        <use href="#crawlingSymbol"/>
      </pattern>
      <symbol id="crawlingSymbol">
        <g>
          <path d="M -12.5 12.5 l 13 -13 l 6 0 l -13 13 Z M -0.5 12.5 l 13 -13 l 6 0 l -13 13 Z M 11.5 12.5 l 13 -13 l 6 0 l -13 13 Z"/>
        </g>
      </symbol>
      <pattern id="crawlingPattern-00d16d21" x="0" y="0" width="12" height="12" patternUnits="userSpaceOnUse" fill="#00d16d21">
        <use href="#crawlingSymbol"/>
      </pattern>
      <pattern id="crawlingPattern-0060fb20" x="0" y="0" width="12" height="12" patternUnits="userSpaceOnUse" fill="#0060fb20">
        <use href="#crawlingSymbol"/>
      </pattern>
      <pattern id="crawlingPattern-f908001a" x="0" y="0" width="12" height="12" patternUnits="userSpaceOnUse" fill="#f908001a">
        <use href="#crawlingSymbol"/>
      </pattern>
      <pattern id="crawlingPattern-f576002d" x="0" y="0" width="12" height="12" patternUnits="userSpaceOnUse" fill="#f576002d">
        <use href="#crawlingSymbol"/>
      </pattern>
      <pattern id="crawlingPattern-ffffff38" x="0" y="0" width="12" height="12" patternUnits="userSpaceOnUse" fill="#ffffff38">
        <use href="#crawlingSymbol"/>
      </pattern>
      <pattern id="crawlingPattern-0000001b" x="0" y="0" width="12" height="12" patternUnits="userSpaceOnUse" fill="#0000001b">
        <use href="#crawlingSymbol"/>
      </pattern>
      <pattern id="crawlingPattern-5f5f5f1a" x="0" y="0" width="12" height="12" patternUnits="userSpaceOnUse" fill="#5f5f5f1a">
        <use href="#crawlingSymbol"/>
      </pattern>
    </defs>
  </g>
  <g id="g-root-sy_-1_cu_1hd6uuw1c1x72j-stroke-fill" data-item-order="-316218" transform="translate(32, 265.00390625)">
    <g id="sy_-1_cu_1hd6uuw1c1x72j-fill" stroke="none" fill="#ababab">
      <g>
        <path d="M 10.001 143L 10 47L 67 47L 70 59L 322 59L 319 47L 367 47L 370 59L 622 59L 619 47L 646 47L 646 10L 742 95L 646.002 180L 646 143L 619 143L 622 131L 370 131L 367 143L 319.001 143L 322.001 131L 70.001 131L 67.001 143L 10.001 143Z"/>
      </g>
    </g>
    <g id="sy_-1_cu_1hd6uuw1c1x72j-stroke" fill="none" stroke-linecap="round" stroke-linejoin="round" stroke-miterlimit="4" stroke="#2c2c2c" stroke-width="2">
      <g>
        <path d="M 10.001 143L 10 47L 67 47L 70 59L 322 59L 319 47L 367 47L 370 59L 622 59L 619 47L 646 47L 646 10L 742 95L 646.0017 180L 646 143L 619 143L 622 131L 370 131L 367 143L 319.001 143L 322.001 131L 70.001 131L 67.001 143L 10.001 143Z"/>
      </g>
    </g>
  </g>
  <g id="g-root-sy_4_cu_1cxdcqg1c1x7us-stroke-fill" data-item-order="-316214" transform="translate(347, 386)">
    <g id="sy_4_cu_1cxdcqg1c1x7us-fill" stroke="none" fill="#43dd93">
      <g>
        <path d="M 307 10L 295 58L 43 58L 55 10L 307 10ZM 291.992188 70L 279.992188 118L 27.992188 118L 39.992188 70L 291.992188 70ZM 277 130L 25 130L 10 190L 262 190L 277 130Z"/>
      </g>
    </g>
    <g id="sy_4_cu_1cxdcqg1c1x7us-stroke" fill="none" stroke-linecap="round" stroke-linejoin="round" stroke-miterlimit="4" stroke="#2c2c2c" stroke-width="2">
      <g>
        <path d="M 307 10L 295 58L 43 58L 55 10L 307 10ZM 291.992188 70L 279.992188 118L 27.992188 118L 39.992188 70L 291.992188 70ZM 277 130L 25 130L 10 190L 262 190L 277 130Z"/>
      </g>
    </g>
  </g>
  <g id="g-root-sy_3_cu_141qchk1c1x8nh-stroke-fill" data-item-order="-316210" transform="translate(347, 134)">
    <g id="sy_3_cu_141qchk1c1x8nh-fill" stroke="none" fill="#4f91fc">
      <g>
        <path d="M 307 190L 295 142L 43 142L 55 190L 307 190ZM 291.992188 130L 279.992188 82L 27.992188 82L 39.992188 130L 291.992188 130ZM 277 70L 25 70L 10 10L 262 10L 277 70Z"/>
      </g>
    </g>
    <g id="sy_3_cu_141qchk1c1x8nh-stroke" fill="none" stroke-linecap="round" stroke-linejoin="round" stroke-miterlimit="4" stroke="#2c2c2c" stroke-width="2">
      <g>
        <path d="M 307 190L 295 142L 43 142L 55 190L 307 190ZM 291.992188 130L 279.992188 82L 27.992188 82L 39.992188 130L 291.992188 130ZM 277 70L 25 70L 10 10L 262 10L 277 70Z"/>
      </g>
    </g>
  </g>
  <g id="g-root-sy_2_cu_zlwud41c1x9fq-stroke-fill" data-item-order="-316206" transform="translate(47, 386)">
    <g id="sy_2_cu_zlwud41c1x9fq-fill" stroke="none" fill="#fb6762">
      <g>
        <path d="M 307.000977 10L 295.000977 58L 43.000977 58L 55.000977 10L 307.000977 10ZM 291.993164 70L 279.993164 118L 27.993164 118L 39.993164 70L 291.993164 70ZM 277.001 130L 25.001 130L 10 190L 262 190L 277.001 130Z"/>
      </g>
    </g>
    <g id="sy_2_cu_zlwud41c1x9fq-stroke" fill="none" stroke-linecap="round" stroke-linejoin="round" stroke-miterlimit="4" stroke="#2c2c2c" stroke-width="2">
      <g>
        <path d="M 307.000977 10L 295.000977 58L 43.000977 58L 55.000977 10L 307.000977 10ZM 291.993164 70L 279.993164 118L 27.993164 118L 39.993164 70L 291.993164 70ZM 277.001 130L 25.001 130L 10 190L 262 190L 277.001 130Z"/>
      </g>
    </g>
  </g>
  <g id="g-root-sy_1_cu_mb2t2w1c1x7uv-stroke-fill" data-item-order="-316202" transform="translate(47, 134)">
    <g id="sy_1_cu_mb2t2w1c1x7uv-fill" stroke="none" fill="#f79438">
      <g>
        <path d="M 307 190L 295 142L 43 142L 55 190L 307 190ZM 291.992188 130L 279.992188 82L 27.992188 82L 39.992188 130L 291.992188 130ZM 277 70L 25 70L 10 10L 262 10L 277 70Z"/>
      </g>
    </g>
    <g id="sy_1_cu_mb2t2w1c1x7uv-stroke" fill="none" stroke-linecap="round" stroke-linejoin="round" stroke-miterlimit="4" stroke="#2c2c2c" stroke-width="2">
      <g>
        <path d="M 307 190L 295 142L 43 142L 55 190L 307 190ZM 291.992188 130L 279.992188 82L 27.992188 82L 39.992188 130L 291.992188 130ZM 277 70L 25 70L 10 10L 262 10L 277 70Z"/>
      </g>
    </g>
  </g>
  <g id="g-root-tx_unraveli_hv9ayg1c1x8n4-stroke-fill" data-item-order="0" transform="translate(212, 332)">
    <g id="tx_unraveli_hv9ayg1c1x8n4-fill" stroke="none" fill="#2c2c2c">
      <g>
        <text style="font: bold 25px Roboto, sans-serif; white-space: pre;" font-weight="bold" font-size="25px" font-family="Roboto, sans-serif">
          <tspan x="18.33" y="43" dominant-baseline="ideographic">Unraveling the Flatwoods Monster Mystery</tspan>
        </text>
      </g>
    </g>
  </g>
  <g id="g-root-tx_environm_4kf9o81c1x729-stroke-fill" data-item-order="0" transform="translate(464, 398)">
    <g id="tx_environm_4kf9o81c1x729-fill" stroke="none" fill="#2c2c2c">
      <g>
        <text style="font: 15px Roboto, sans-serif; white-space: pre;" font-size="15px" font-family="Roboto, sans-serif">
          <tspan x="17.3" y="31" dominant-baseline="ideographic">Environmental factors</tspan>
        </text>
      </g>
    </g>
  </g>
  <g id="g-root-tx_lackofme_1upwbeg1c1x7nu-stroke-fill" data-item-order="0" transform="translate(437, 458)">
    <g id="tx_lackofme_1upwbeg1c1x7nu-fill" stroke="none" fill="#2c2c2c">
      <g>
        <text style="font: 15px Roboto, sans-serif; white-space: pre;" font-size="15px" font-family="Roboto, sans-serif">
          <tspan x="16.05" y="31" dominant-baseline="ideographic">Lack of medical records</tspan>
        </text>
      </g>
    </g>
  </g>
  <g id="g-root-tx_scientif_1qa2ta01c1x8g3-stroke-fill" data-item-order="0" transform="translate(434, 524)">
    <g id="tx_scientif_1qa2ta01c1x8g3-fill" stroke="none" fill="#2c2c2c">
      <g>
        <text style="font: bold 20px Roboto, sans-serif; white-space: pre;" font-weight="bold" font-size="20px" font-family="Roboto, sans-serif">
          <tspan x="11.91" y="34" dominant-baseline="ideographic">Scientific Inquiry</tspan>
        </text>
      </g>
    </g>
  </g>
  <g id="g-root-tx_ufomytho_1cz8rzs1c1x6v8-stroke-fill" data-item-order="0" transform="translate(416, 278)">
    <g id="tx_ufomytho_1cz8rzs1c1x6v8-fill" stroke="none" fill="#2c2c2c">
      <g>
        <text style="font: 15px Roboto, sans-serif; white-space: pre;" font-size="15px" font-family="Roboto, sans-serif">
          <tspan x="20.16" y="31" dominant-baseline="ideographic">UFO mythology development</tspan>
        </text>
      </g>
    </g>
  </g>
  <g id="g-root-tx_coldwart_143lrqw1c1x7nx-stroke-fill" data-item-order="0" transform="translate(473, 218)">
    <g id="tx_coldwart_143lrqw1c1x7nx-fill" stroke="none" fill="#2c2c2c">
      <g>
        <text style="font: 15px Roboto, sans-serif; white-space: pre;" font-size="15px" font-family="Roboto, sans-serif">
          <tspan x="18.7" y="31" dominant-baseline="ideographic">Cold War tensions</tspan>
        </text>
      </g>
    </g>
  </g>
  <g id="g-root-tx_historic_qs59dk1c1x98u-stroke-fill" data-item-order="0" transform="translate(422, 152)">
    <g id="tx_historic_qs59dk1c1x98u-fill" stroke="none" fill="#2c2c2c">
      <g>
        <text style="font: bold 20px Roboto, sans-serif; white-space: pre;" font-weight="bold" font-size="20px" font-family="Roboto, sans-serif">
          <tspan x="14.41" y="34" dominant-baseline="ideographic">Historical Context</tspan>
        </text>
      </g>
    </g>
  </g>
  <g id="g-root-tx_document_mcy8c81c1x6vb-stroke-fill" data-item-order="0" transform="translate(188, 398)">
    <g id="tx_document_mcy8c81c1x6vb-fill" stroke="none" fill="#2c2c2c">
      <g>
        <text style="font: 15px Roboto, sans-serif; white-space: pre;" font-size="15px" font-family="Roboto, sans-serif">
          <tspan x="14.13" y="31" dominant-baseline="ideographic">Documentary films</tspan>
        </text>
      </g>
    </g>
  </g>
  <g id="g-root-tx_televisi_hx4q7s1c1x7nk-stroke-fill" data-item-order="0" transform="translate(137, 458)">
    <g id="tx_televisi_hx4q7s1c1x7nk-fill" stroke="none" fill="#2c2c2c">
      <g>
        <text style="font: 15px Roboto, sans-serif; white-space: pre;" font-size="15px" font-family="Roboto, sans-serif">
          <tspan x="19.55" y="31" dominant-baseline="ideographic">Television appearances</tspan>
        </text>
      </g>
    </g>
  </g>
  <g id="g-root-tx_mediainf_4lo7ug1c1x98h-stroke-fill" data-item-order="0" transform="translate(134, 524)">
    <g id="tx_mediainf_4lo7ug1c1x98h-fill" stroke="none" fill="#2c2c2c">
      <g>
        <text style="font: bold 20px Roboto, sans-serif; white-space: pre;" font-weight="bold" font-size="20px" font-family="Roboto, sans-serif">
          <tspan x="19.7" y="34" dominant-baseline="ideographic">Media Influence</tspan>
        </text>
      </g>
    </g>
  </g>
  <g id="g-root-tx_mediacov_1urrqns1c1x6oa-stroke-fill" data-item-order="0" transform="translate(185, 218)">
    <g id="tx_mediacov_1urrqns1c1x6oa-fill" stroke="none" fill="#2c2c2c">
      <g>
        <text style="font: 15px Roboto, sans-serif; white-space: pre;" font-size="15px" font-family="Roboto, sans-serif">
          <tspan x="22.2" y="31" dominant-baseline="ideographic">Media coverage</tspan>
        </text>
      </g>
    </g>
  </g>
  <g id="g-root-tx_tourismi_1qby8jc1c1x7gj-stroke-fill" data-item-order="0" transform="translate(188, 278)">
    <g id="tx_tourismi_1qby8jc1c1x7gj-fill" stroke="none" fill="#2c2c2c">
      <g>
        <text style="font: 15px Roboto, sans-serif; white-space: pre;" font-size="15px" font-family="Roboto, sans-serif">
          <tspan x="17.89" y="31" dominant-baseline="ideographic">Tourism initiatives</tspan>
        </text>
      </g>
    </g>
  </g>
  <g id="g-root-tx_cultural_1hgb8ag1c1x898-stroke-fill" data-item-order="0" transform="translate(146, 152)">
    <g id="tx_cultural_1hgb8ag1c1x898-fill" stroke="none" fill="#2c2c2c">
      <g>
        <text style="font: bold 20px Roboto, sans-serif; white-space: pre;" font-weight="bold" font-size="20px" font-family="Roboto, sans-serif">
          <tspan x="14.16" y="34" dominant-baseline="ideographic">Cultural Impact</tspan>
        </text>
      </g>
    </g>
  </g>
  <g id="g-root-tx_analyzin_145h7081c1x6od-stroke-fill" data-item-order="0" transform="translate(200, 50)">
    <g id="tx_analyzin_145h7081c1x6od-fill" stroke="none" fill="#f4f4f4">
      <g>
        <text style="font: bold 20px Roboto, sans-serif; white-space: pre;" font-weight="bold" font-size="20px" font-family="Roboto, sans-serif">
          <tspan x="13.16" y="34" dominant-baseline="ideographic">Analyzing the Flatwoods Monster Incident</tspan>
        </text>
      </g>
    </g>
  </g>
</svg>
