<?xml version='1.0' encoding='utf-8'?>
<svg xmlns="http://www.w3.org/2000/svg" xmlns:xlink="http://www.w3.org/1999/xlink" width="624" height="552" viewBox="0 0 624 552" style="fill:none;stroke:none;fill-rule:evenodd;clip-rule:evenodd;stroke-linecap:round;stroke-linejoin:round;stroke-miterlimit:1.5;" version="1.1">
  <style class="text-font-style fontImports" data-font-family="Roboto">@import url('https://fonts.googleapis.com/css2?family=Roboto:wght@400;700&amp;display=block');</style>
  <rect x="0" y="0" width="624" height="552" fill="#252a34" stroke="none" id="programmatic_background"/>
  <g id="g-root-tf_4otako190bhmx-stroke-fill" data-item-order="-316800" transform="translate(12, 12)">
    <g id="tf_4otako190bhmx-fill" stroke="none" fill="#2c2c2c">
      <g>
        <path d="M 0 0L 600 0L 600 528L 0 528Z"/>
      </g>
    </g>
    <defs>
      <pattern id="crawlingPattern-8484841a" x="0" y="0" width="12" height="12" patternUnits="userSpaceOnUse" fill="#8484841a">
        <use href="#crawlingSymbol"/>
      </pattern>
      <symbol id="crawlingSymbol">
        <g>
          <path d="M -12.5 12.5 l 13 -13 l 6 0 l -13 13 Z M -0.5 12.5 l 13 -13 l 6 0 l -13 13 Z M 11.5 12.5 l 13 -13 l 6 0 l -13 13 Z"/>
        </g>
      </symbol>
      <pattern id="crawlingPattern-3604fc1a" x="0" y="0" width="12" height="12" patternUnits="userSpaceOnUse" fill="#3604fc1a">
        <use href="#crawlingSymbol"/>
      </pattern>
      <pattern id="crawlingPattern-00d16d21" x="0" y="0" width="12" height="12" patternUnits="userSpaceOnUse" fill="#00d16d21">
        <use href="#crawlingSymbol"/>
      </pattern>
      <pattern id="crawlingPattern-0000001b" x="0" y="0" width="12" height="12" patternUnits="userSpaceOnUse" fill="#0000001b">
        <use href="#crawlingSymbol"/>
      </pattern>
      <pattern id="crawlingPattern-5f5f5f1a" x="0" y="0" width="12" height="12" patternUnits="userSpaceOnUse" fill="#5f5f5f1a">
        <use href="#crawlingSymbol"/>
      </pattern>
    </defs>
  </g>
  <g id="g-root-sy_4_cu_94mpjc190mqdi-stroke-fill" data-item-order="-105977" transform="translate(133.95700073242188, 290.75)">
    <g id="sy_4_cu_94mpjc190mqdi-stroke" fill="none" stroke-linecap="round" stroke-linejoin="round" stroke-miterlimit="4" stroke="#f4f4f4" stroke-width="2">
      <g>
        <path d="M 340.042999 45.25C 343.356999 45.25 346.042999 42.564 346.042999 39.25C 346.042999 35.936 343.356999 33.25 340.042999 33.25C 336.728999 33.25 334.042999 35.936 334.042999 39.25C 334.042999 42.564 336.728999 45.25 340.042999 45.25ZM 16.021999 93.25C 19.346999 93.25 22.042999 90.564 22.042999 87.25C 22.042999 83.936 19.346999 81.25 16.021999 81.25C 12.695999 81.25 9.999999 83.936 9.999999 87.25C 9.999999 90.564 12.695999 93.25 16.021999 93.25ZM 340.042999 33.25L 340.042999 10M 16.042999 58.25L 16.042999 81.25M 194.062999 60.907L 334.195999 40.141M 160.540999 65.869L 21.992999 86.395"/>
      </g>
    </g>
  </g>
  <g id="g-root-sy_3_Exclude_94mpjc190mqdj-stroke-fill" data-item-order="-105974" transform="translate(255.05589294433594, 328)">
    <g id="sy_3_Exclude_94mpjc190mqdj-fill" stroke="none" fill="#b7b7b7">
      <g>
        <path d="M 56.944107 10C 49.471107 10 43.195107 15.122 41.436107 22.047L 10.134107 124.12C 9.542107 126.049 10.984107 128 13.002107 128L 100.886107 128C 102.903107 128 104.346107 126.049 103.754107 124.12L 72.454107 22.054C 70.696107 15.126 64.419107 10 56.944107 10ZM 56.944107 33C 60.810107 33 63.944107 29.866 63.944107 26C 63.944107 22.134 60.810107 19 56.944107 19C 53.078107 19 49.944107 22.134 49.944107 26C 49.944107 29.866 53.078107 33 56.944107 33Z"/>
      </g>
    </g>
    <g id="sy_3_Exclude_94mpjc190mqdj-stroke" fill="none" stroke-linecap="round" stroke-linejoin="round" stroke-miterlimit="4" stroke="#2c2c2c" stroke-width="2">
      <g>
        <path d="M 56.944107 10C 49.471107 10 43.195107 15.122 41.436107 22.047L 10.134107 124.12C 9.542107 126.049 10.984107 128 13.002107 128L 100.886107 128C 102.903107 128 104.346107 126.049 103.754107 124.12L 72.454107 22.054C 70.696107 15.126 64.419107 10 56.944107 10ZM 56.944107 33C 60.810107 33 63.944107 29.866 63.944107 26C 63.944107 22.134 60.810107 19 56.944107 19C 53.078107 19 49.944107 22.134 49.944107 26C 49.944107 29.866 53.078107 33 56.944107 33Z"/>
      </g>
    </g>
  </g>
  <g id="g-root-sy_2_right-bucket_4ot7ew190mr5s-stroke-fill" data-item-order="-105970" transform="translate(350, 254)">
    <g id="sy_2_right-bucket_4ot7ew190mr5s-fill" stroke="none" fill="#8769fd">
      <g>
        <path d="M 11.081 15.729C 10.338 14.904 10 13.826 10 12.716L 10 12.716C 10 11.216 11.216 10 12.716 10L 235.284 10C 236.784 10 238 11.216 238 12.716L 238 12.716C 238 13.826 237.662 14.904 236.919 15.729C 231.551 21.692 204.717 46 124 46C 43.283 46 16.449 21.692 11.081 15.729Z"/>
      </g>
    </g>
    <g id="sy_2_right-bucket_4ot7ew190mr5s-stroke" fill="none" stroke-linecap="round" stroke-linejoin="round" stroke-miterlimit="4" stroke="#2c2c2c" stroke-width="2">
      <g>
        <path d="M 11.081 15.729C 10.338 14.904 10 13.826 10 12.716L 10 12.716C 10 11.216 11.216 10 12.716 10L 235.284 10C 236.784 10 238 11.216 238 12.716L 238 12.716C 238 13.826 237.662 14.904 236.919 15.729C 231.551 21.692 204.717 46 124 46C 43.283 46 16.449 21.692 11.081 15.729Z"/>
      </g>
    </g>
  </g>
  <g id="g-root-sy_1_left-bucket_1uua954190mrrd-stroke-fill" data-item-order="-105966" transform="translate(26, 302)">
    <g id="sy_1_left-bucket_1uua954190mrrd-fill" stroke="none" fill="#43dd93">
      <g>
        <path d="M 11.0812 15.729C 10.3384 14.904 10 13.826 10 12.716L 10 12.716C 10 11.216 11.2158 10 12.7157 10L 235.284 10C 236.784 10 238 11.216 238 12.716L 238 12.716C 238 13.826 237.662 14.904 236.919 15.729C 231.551 21.692 204.717 46 124 46C 43.2826 46 16.4488 21.692 11.0812 15.729Z"/>
      </g>
    </g>
    <g id="sy_1_left-bucket_1uua954190mrrd-stroke" fill="none" stroke-linecap="round" stroke-linejoin="round" stroke-miterlimit="4" stroke="#2c2c2c" stroke-width="2">
      <g>
        <path d="M 11.0812 15.729C 10.3384 14.904 10 13.826 10 12.716L 10 12.716C 10 11.216 11.2158 10 12.7157 10L 235.284 10C 236.784 10 238 11.216 238 12.716L 238 12.716C 238 13.826 237.662 14.904 236.919 15.729C 231.551 21.692 204.717 46 124 46C 43.2826 46 16.4488 21.692 11.0812 15.729Z"/>
      </g>
    </g>
  </g>
  <g id="g-root-ic_sear_1uua954190mrre-stroke-fill" data-item-order="-2304" transform="translate(38, 242)">
    <g id="ic_sear_1uua954190mrre-fill" stroke="none" fill="#b7b7b7">
      <g>
        <path d="M 30.34 49.580002C 30.203321 49.395927 30.203321 49.144066 30.339998 48.959999C 33.014919 44.746304 32.517666 39.259766 29.128771 35.595642C 25.739874 31.93152 20.308769 31.008232 15.899439 33.346657C 11.490109 35.685081 9.207765 40.699089 10.34 45.560001C 11.25875 49.638027 14.42881 52.831398 18.5 53.779999C 21.398729 54.462845 24.45042 53.943409 26.960001 52.34C 27.135359 52.199596 27.38464 52.199596 27.559999 52.339996L 32.580002 57.360001C 33.360077 58.135448 34.619926 58.135448 35.400002 57.360001C 35.778625 56.984467 35.991596 56.473274 35.991596 55.939999C 35.991596 55.406723 35.778625 54.895535 35.400002 54.52ZM 21 50C 18.163326 49.999897 15.60716 48.287838 14.527302 45.664742C 13.447445 43.041649 14.057415 40.026176 16.071861 38.028996C 18.086308 36.031815 21.106918 35.44783 23.720619 36.550224C 26.334322 37.652622 28.024315 40.223434 28 43.060001C 27.967064 46.902542 24.842682 50.000145 21 50ZM 50 25C 50 23.895432 49.104568 23 48 23L 34 23C 32.895432 23 32 23.895432 32 25C 32 26.10457 32.895432 27 34 27L 48 27C 49.104568 27 50 26.10457 50 25ZM 35 32C 33.895432 32 33 32.895432 33 34C 33 35.104568 33.895432 36 35 36L 43 36C 44.104568 36 45 35.104568 45 34C 45 32.895432 44.104568 32 43 32ZM 56.82 16L 52 11.18C 51.2533 10.428824 50.239155 10.004465 49.18 10L 26 10C 23.790861 10 22 11.790861 22 14L 22 28.6C 21.99913 28.850229 22.190638 29.059147 22.439999 29.079998C 23.424524 29.1919 24.395788 29.399551 25.34 29.700001C 25.490452 29.760954 25.661522 29.741735 25.794697 29.648914C 25.927876 29.556093 26.005114 29.40225 26 29.24L 26 15C 26 14.447716 26.447716 14 27 14L 48.759998 14C 49.025208 13.996767 49.279438 14.105723 49.459999 14.3L 53.700001 18.540001C 53.894276 18.720562 54.003231 18.974792 54 19.24L 54 46C 54 46.552284 53.552284 47 53 47L 34.760002 47C 34.545113 47.00325 34.354366 47.138363 34.279999 47.339996C 34.083809 47.985378 33.836357 48.614048 33.540001 49.219997C 33.435818 49.482548 33.48172 49.780907 33.66 50L 34.400002 50.740002C 34.527443 50.897953 34.717171 50.992817 34.919998 51L 54 51C 56.209141 51 58 49.209141 58 47L 58 18.82C 57.995533 17.760845 57.571175 16.7467 56.82 16Z"/>
      </g>
    </g>
  </g>
  <g id="g-root-ic_clon_1upajm01903217-stroke-fill" data-item-order="-2304" transform="translate(38, 170)">
    <g id="ic_clon_1upajm01903217-fill" stroke="none" fill="#b7b7b7">
      <g>
        <path d="M 31.886 14.52C 31.886 12.828 32.454002 11.26 33.41 10L 20.004 10C 15.632 10 12.004 13.628 12.004 18L 12.004 47L 12.007999 47C 12.142477 50.628391 15.123116 53.50034 18.754 53.5L 20.254 53.5L 20.254 57C 20.254116 57.375587 20.464678 57.719437 20.799166 57.890266C 21.133656 58.061096 21.535658 58.030094 21.84 57.810001L 26.254 54.610001L 30.667999 57.810001C 30.972342 58.030094 31.374346 58.061096 31.708834 57.890266C 32.04332 57.719437 32.253883 57.375587 32.253998 57L 32.253998 53.5L 50.004002 53.5C 51.10857 53.5 52.004002 52.604568 52.004002 51.5C 52.004002 50.395432 51.10857 49.5 50.004002 49.5L 49.004002 49.5L 49.004002 43.962002C 50.675999 43.712002 52.004002 42.23 52.004002 40.5L 52.004002 36.125999L 38.650002 36.125999C 34.919357 36.113922 31.898075 33.09264 31.886 29.362L 31.886 14.518ZM 45.004002 44L 19.004 44C 17.396646 43.999607 16.074581 45.266109 16.006001 46.872002C 16.071285 48.342167 17.282387 49.500381 18.754002 49.5L 20.254 49.5L 20.254 47.5C 20.254 46.947716 20.701715 46.5 21.254 46.5L 31.254 46.5C 31.806284 46.5 32.253998 46.947716 32.253998 47.5L 32.253998 49.5L 45.004002 49.5L 45.004002 44ZM 21.754 35.5C 20.51136 35.5 19.504 34.492641 19.504 33.25C 19.504 32.007359 20.51136 31 21.754 31C 22.996641 31 24.004 32.007359 24.004 33.25C 24.004 34.492641 22.996641 35.5 21.754 35.5ZM 21.754 28.5C 20.51136 28.5 19.504 27.492641 19.504 26.25C 19.504 25.007359 20.51136 24 21.754 24C 22.996641 24 24.004 25.007359 24.004 26.25C 24.004 27.492641 22.996641 28.5 21.754 28.5ZM 21.754 21.5C 20.51136 21.5 19.504 20.492641 19.504 19.25C 19.504 18.007359 20.51136 17 21.754 17C 22.996641 17 24.004 18.007359 24.004 19.25C 24.004 20.492641 22.996641 21.5 21.754 21.5ZM 39.405998 10C 36.916031 10.015283 34.901283 12.030031 34.886002 14.52L 34.886002 29.360001C 34.886002 31.42 36.59 33.124001 38.650002 33.124001L 54.5 33.124001C 55.32843 33.124001 56 32.452427 56 31.624001C 56 30.795574 55.32843 30.124001 54.5 30.124001L 53.439999 30.124001L 53.439999 26.664L 53.743999 26.664C 54.973999 26.664 56 25.638 56 24.408001L 56 12.254C 56 11.026 54.973999 10 53.743999 10L 39.403999 10ZM 50.442001 26.666L 38.650002 26.666C 38.233345 26.678509 37.898506 27.013346 37.886002 27.43L 37.886002 29.362C 37.886002 29.766001 38.246002 30.125999 38.650002 30.125999L 50.442001 30.125999L 50.442001 26.666Z"/>
      </g>
    </g>
  </g>
  <g id="g-root-ic_man_v8lxvs1904ido-stroke-fill" data-item-order="-2304" transform="translate(38, 98)">
    <g id="ic_man_v8lxvs1904ido-fill" stroke="none" fill="#b7b7b7">
      <g>
        <path d="M 44.52 40.66C 43.879185 43.410954 41.338116 45.291344 38.52 45.099998C 35.644516 45.346836 33.032894 43.420227 32.419998 40.599998C 31.282413 40.74192 30.153896 40.948921 29.040001 41.220001L 29.040001 43.580002L 34.5 50.540001C 35.224968 51.547173 35.61026 52.75909 35.599998 54L 42 54L 47.16 41.18C 46.279999 40.959999 45.439999 40.799999 44.52 40.66ZM 56.34 45.220001C 54.354546 43.802067 52.152767 42.714687 49.82 42L 49.82 49.720001C 49.82 50.603657 49.103657 51.32 48.220001 51.32L 46.619999 51.32L 46.619999 54L 57.18 54C 57.654964 54 58.040001 53.614964 58.040001 53.139999L 58.040001 48.619999C 58.044758 47.281158 57.413925 46.019489 56.339996 45.219997ZM 41.879997 36.120003C 46.638233 34.560066 49.862003 30.12738 49.880001 25.119999L 49.880001 21.76C 49.857384 17.691296 47.701092 13.93297 44.199997 11.86C 43.627911 11.507155 43.025528 11.205965 42.400002 10.96L 42.259998 10.96C 41.640171 10.735491 41.005257 10.555041 40.360001 10.42L 40.220001 10.42C 39.559937 10.301184 38.890667 10.240949 38.220001 10.24C 37.549332 10.240949 36.880058 10.301184 36.220001 10.42L 36 10.42C 35.318909 10.550682 34.649918 10.737999 34 10.98C 29.541737 12.704732 26.591192 16.979849 26.560001 21.760002L 26.559999 25.119999C 26.571011 31.532984 31.767017 36.728992 38.18 36.740002C 39.43911 36.739082 40.689369 36.529579 41.879997 36.119999ZM 29.559999 25.119999L 29.559999 21.82C 31.501709 21.504091 33.31657 20.652077 34.800003 19.360001C 37.128998 21.289082 40.100487 22.267673 43.120003 22.1L 46.779999 22.1L 46.779999 25.119999C 46.933071 28.295061 45.326313 31.29669 42.599312 32.930061C 39.872311 34.563435 36.46769 34.563435 33.740688 32.930061C 31.013687 31.29669 29.406929 28.295061 29.559999 25.119999ZM 41.84 26.940001C 42.814575 26.907129 43.581287 26.096233 43.559555 25.121344C 43.537827 24.146454 42.735744 23.370525 41.76067 23.381115C 40.785595 23.391705 40.000553 24.184868 40 25.16C 39.993992 25.64444 40.187943 26.109934 40.536152 26.446787C 40.884361 26.78364 41.356026 26.962059 41.84 26.940001ZM 36.52 25.16C 36.42366 24.25498 35.660133 23.568415 34.75 23.568415C 33.839867 23.568415 33.07634 24.25498 32.98 25.16C 32.907902 25.837284 33.228619 26.496332 33.806076 26.857521C 34.38353 27.218712 35.11647 27.218712 35.693924 26.857521C 36.271378 26.496332 36.592094 25.837284 36.519997 25.16ZM 40 31.360001C 40.266159 31.269011 40.526627 31.162153 40.779999 31.039999C 41.231491 30.7862 41.460022 30.263838 41.339996 29.759998C 41.212318 29.256052 40.759865 28.902317 40.239998 28.9L 36.66 28.9C 36.14254 28.909184 35.693764 29.260044 35.559998 29.759998C 35.446873 30.263199 35.67366 30.781567 36.119999 31.039999C 36.373375 31.162153 36.633842 31.269011 36.900002 31.360001C 37.911797 31.658367 38.988205 31.658367 40 31.360001ZM 17.18 38.440002L 17.18 44.279999L 11.28 51.779999C 10.380521 52.922245 10.22452 54.482258 10.88 55.779999C 11.502308 57.077835 12.82078 57.897003 14.26 57.879997L 29.879999 57.880001C 31.31922 57.897003 32.637691 57.077835 33.259998 55.779999C 33.915482 54.482258 33.75948 52.922245 32.860001 51.779999L 26.959999 44.259998L 26.959999 38.440002L 28 38.440002C 28.360994 38.40778 28.699936 38.252434 28.960001 38C 29.251768 37.716122 29.417473 37.327072 29.42 36.919998C 29.421152 36.13287 28.805983 35.482548 28.02 35.440002L 16.119999 35.440002C 15.334019 35.482548 14.718849 36.13287 14.72 36.919998C 14.710903 37.323608 14.879 37.71096 15.18 37.98C 15.453619 38.260223 15.82835 38.418762 16.220001 38.420002ZM 23.959999 38.440002L 23.959999 44.779999C 23.961435 45.119823 24.073797 45.449883 24.279999 45.720001L 27.879999 50.279999L 16.26 50.279999L 19.860001 45.720001C 20.066204 45.449883 20.178564 45.119823 20.18 44.779999L 20.18 38.440002Z"/>
      </g>
    </g>
  </g>
  <g id="g-root-ic_1_1utnv7s1905vd9-stroke-fill" data-item-order="-2304" transform="translate(362, 194)">
    <g id="ic_1_1utnv7s1905vd9-fill" stroke="none" fill="#b7b7b7">
      <g>
        <path d="M 33.739998 21.5C 33.739998 22.604568 34.635429 23.5 35.739998 23.5C 36.84457 23.5 37.739998 22.604568 37.739998 21.5C 37.739998 20.395432 36.84457 19.5 35.739998 19.5C 34.635429 19.5 33.739998 20.395432 33.739998 21.5M 40.239998 21.5C 40.239998 22.604568 41.135429 23.5 42.240002 23.5C 43.34457 23.5 44.240002 22.604568 44.240002 21.5C 44.240002 20.395432 43.34457 19.5 42.240002 19.5C 41.135429 19.5 40.239998 20.395432 40.239998 21.5M 46.740002 21.5C 46.740002 22.604568 47.635429 23.5 48.740002 23.5C 49.84457 23.5 50.740002 22.604568 50.740002 21.5C 50.740002 20.395432 49.84457 19.5 48.740002 19.5C 47.635429 19.5 46.740002 20.395432 46.740002 21.5M 45.779999 10C 43.152847 9.954555 40.597099 10.856167 38.580002 12.54C 33.834816 10.975042 28.624844 12.706282 25.76 16.799999C 25.136005 17.711288 25.368805 18.95587 26.280001 19.58C 27.191288 20.203995 28.435869 19.971195 29.059999 19.060001C 31.100813 16.171051 34.922836 15.167032 38.120003 16.68C 38.883663 17.049795 39.797546 16.89748 40.400002 16.299999C 41.776291 14.791324 43.738426 13.952494 45.779999 14C 47.954029 13.888004 50.076347 14.687294 51.636391 16.205584C 53.196434 17.723875 54.05299 19.823734 54 22C 54.033333 23.83112 53.351784 25.603157 52.099998 26.940001C 50.452805 28.476219 48.248554 29.271196 46 29.139999C 45.359894 29.13834 44.757664 29.443172 44.380001 29.959999C 43.612854 31.102551 42.370743 31.837528 41 31.959999C 40.251099 31.962402 39.516563 31.754517 38.879997 31.360001C 37.952156 30.757822 36.711815 31.021919 36.109768 31.949848C 35.507717 32.877777 35.771988 34.11808 36.700001 34.720001C 37.986183 35.533985 39.47789 35.964149 41 35.959999C 43.322193 35.893814 45.505459 34.83857 47 33.060001C 50.00494 32.980591 52.866291 31.757366 55 29.640001C 56.950047 27.57691 58.025249 24.83873 58 22C 58.045395 18.765205 56.765175 15.652718 54.456921 13.38602C 52.14867 11.119322 49.013435 9.895852 45.780003 10ZM 38.5 41.5C 38.5 43.156857 39.843147 44.5 41.5 44.5C 43.156857 44.5 44.5 43.156857 44.5 41.5C 44.5 39.843147 43.156857 38.5 41.5 38.5C 39.843147 38.5 38.5 39.843147 38.5 41.5M 24 44.240002C 29.249306 44.23999 33.50367 39.982624 33.499977 34.733322C 33.496284 29.484015 29.235939 25.232639 23.986639 25.240009C 18.737339 25.247381 14.488949 29.510706 14.5 34.760002C 14.511029 39.998894 18.761095 44.240013 24 44.240002ZM 19.1 32.239998C 21.402821 33.821907 24.126268 34.678642 26.92 34.700001C 27.779594 34.693722 28.636696 34.606674 29.48 34.440002C 29.48 34.440002 29.48 34.599998 29.48 34.700001C 29.48 37.737564 27.017567 40.200001 23.98 40.200001C 20.942434 40.200001 18.48 37.737564 18.48 34.700001C 18.494808 33.862343 18.707241 33.040024 19.1 32.300003ZM 24.42 46C 17.778961 46.01355 11.926332 50.364464 10 56.720001C 9.911868 57.022167 9.971146 57.348194 10.16 57.599998C 10.344471 57.856998 10.643715 58.006622 10.96 57.999996L 37.82 58C 38.136284 58.006622 38.435528 57.856998 38.619999 57.599998C 38.818413 57.352459 38.878578 57.021538 38.779999 56.720001C 36.871372 50.377747 31.043169 46.026886 24.420002 46.000004Z"/>
      </g>
    </g>
  </g>
  <g id="g-root-ic_miss_qvwt6w1907aby-stroke-fill" data-item-order="-2304" transform="translate(362, 122)">
    <g id="ic_miss_qvwt6w1907aby-fill" stroke="none" fill="#b7b7b7">
      <g>
        <path d="M 46.380001 10C 46.009567 9.838783 45.577847 9.926727 45.299999 10.22L 39.879997 15.62C 39.3209 16.184517 39.00502 16.945488 39 17.74L 39 21C 38.997002 21.156654 38.923523 21.303608 38.799995 21.4L 38.580002 21.58L 28.58 31.58C 28.201374 31.955534 27.988403 32.466724 27.988403 33C 27.988403 33.533276 28.201374 34.044464 28.58 34.419998C 28.955534 34.798626 29.466724 35.011597 30 35.011597C 30.533276 35.011597 31.044466 34.798626 31.42 34.419998L 41.419998 24.42L 41.599998 24.200001C 41.696388 24.076473 41.843342 24.002998 42 24L 45.18 24C 45.97451 23.994976 46.735481 23.6791 47.299999 23.119999L 52.700001 17.700001C 52.998837 17.425266 53.087555 16.989738 52.919998 16.619999C 52.766598 16.246574 52.403702 16.002014 52 16L 47.5 16C 47.223858 16 47 15.776142 47 15.5L 47 11C 47.038692 10.565885 46.786041 10.158382 46.380001 10ZM 30 21C 23.372583 21 18 26.372583 18 33C 18 39.627419 23.372583 45 30 45C 31.10457 45 32 44.104568 32 43C 32 41.895432 31.10457 41 30 41C 25.581722 41 22 37.418278 22 33C 22 28.581722 25.581722 25 30 25C 31.10457 25 32 24.104568 32 23C 32 21.895432 31.10457 21 30 21ZM 30 53C 31.10457 53 32 52.104568 32 51C 32 49.895432 31.10457 49 30 49C 21.163445 49 14 41.836555 14 33C 14 24.163445 21.163445 17 30 17C 31.501297 17.003958 32.995049 17.212545 34.440002 17.620001C 35.500389 17.929279 36.610718 17.320387 36.919998 16.26C 37.229279 15.199614 36.620384 14.089279 35.559998 13.78C 28.051229 11.619223 19.971687 14.02902 14.873371 19.949978C 9.775053 25.870937 8.591633 34.218731 11.843376 41.323433C 15.095119 48.428131 22.18652 52.988628 30 53ZM 45 32C 37.820297 32 32 37.820297 32 45C 32 52.179703 37.820297 58 45 58C 52.179703 58 58 52.179703 58 45C 57.988987 37.824867 52.175137 32.011013 45 32ZM 47.48 45.360001L 50.299999 48.18C 50.884907 48.765636 50.884907 49.714367 50.300003 50.300003C 49.714367 50.884907 48.765636 50.884907 48.18 50.300003L 45.360001 47.48C 45.265759 47.382225 45.135799 47.326988 45 47.326988C 44.864201 47.326988 44.734241 47.382225 44.639999 47.48L 41.82 50.299999C 41.234367 50.884907 40.285637 50.884907 39.700001 50.300003C 39.115093 49.714367 39.115093 48.765636 39.700001 48.18L 42.52 45.360001C 42.617775 45.265759 42.673012 45.135799 42.673012 45C 42.673012 44.864201 42.617775 44.734241 42.52 44.639999L 39.700001 41.82C 39.298695 41.44606 39.133503 40.882889 39.26923 40.351425C 39.404961 39.819958 39.819958 39.404961 40.351425 39.26923C 40.882889 39.133503 41.44606 39.298695 41.82 39.700001L 44.639999 42.52C 44.734241 42.617775 44.864201 42.673012 45 42.673012C 45.135799 42.673012 45.265759 42.617775 45.360001 42.52L 48.18 39.700001C 48.771019 39.149284 49.69202 39.165531 50.263245 39.736755C 50.834469 40.307983 50.850719 41.228981 50.300003 41.82L 47.48 44.639999C 47.382225 44.734241 47.326988 44.864201 47.326988 45C 47.326988 45.135799 47.382225 45.265759 47.48 45.360001Z"/>
      </g>
    </g>
  </g>
  <g id="g-root-ic_48px_1q6co20190a51r-stroke-fill" data-item-order="0" transform="translate(362, 50)">
    <g id="ic_48px_1q6co20190a51r-stroke" fill="none" stroke-linecap="round" stroke-linejoin="round" stroke-miterlimit="4" stroke="#f4f4f4" stroke-width="2">
      <g>
        <path d="M 30.0008 34.7624C 30.0349 34.436 30.086 34.1096 30.1542 33.7832C 30.2565 33.1631 30.444 32.6246 30.7167 32.1676C 31.0234 31.678 31.4154 31.3027 31.8927 31.0416C 32.3699 30.7805 32.9323 30.601 33.58 30.503C 34.2617 30.4051 34.9434 30.4051 35.6252 30.503C 36.2728 30.601 36.8353 30.7805 37.3125 31.0416C 37.8238 31.3027 38.2158 31.678 38.4885 32.1676C 38.7612 32.6246 38.9487 33.1631 39.0509 33.7832C 39.1191 34.1096 39.1702 34.436 39.2043 34.7624M 32.2291 40.3418C 31.8676 41.1798 31.5061 42.0087 31.1446 42.8284C 30.4026 44.4862 30.0316 45.3333 30.0316 45.3698C 30.0126 45.4062 30.0031 45.4426 30.0031 45.4791L 30.0031 45.5884L 30.1172 45.807C 30.1553 45.8252 30.1838 45.8525 30.2029 45.889L 30.317 45.9436L 30.4312 45.9436L 30.4882 45.971L 34.6549 45.971L 33.656 49.2501L 32.6857 52.5292L 36.8809 48.7036C 39.6967 46.1713 41.1141 44.887 41.1331 44.8506C 41.1712 44.7959 41.1997 44.7504 41.2188 44.7139C 41.2378 44.6775 41.2473 44.6411 41.2473 44.6046C 41.2473 44.55 41.2378 44.5044 41.2188 44.468C 41.2188 44.4134 41.1997 44.3678 41.1617 44.3314C 41.1427 44.2767 41.1141 44.2403 41.0761 44.2221C 41.057 44.1856 41.0285 44.1583 40.9904 44.1401C 40.9334 44.1219 40.8858 44.1128 40.8478 44.1128L 40.7621 44.0854L 37.0807 44.0854L 38.0795 42.2273L 39.0498 40.3418M 27.3842 24.4188C 28.3441 24.4188 30.12 25.5174 30.744 27.2453C 29.5537 26.8613 27.7857 26.9334 26.7175 27.7733M 41.7883 24.4188C 40.8284 24.4188 39.0525 25.5174 38.4285 27.2453C 39.6189 26.8613 41.3868 26.9334 42.455 27.7733M 29.928 34.7922C 29.928 34.7922 32.0924 33.7922 34.5086 33.7922C 36.9247 33.7922 39.1276 34.731 39.1276 34.731M 33.137 33.8916L 33.137 30.5857M 36.0496 33.9083L 36.0496 30.5816M 55.3838 31.4237C 55.3521 31.1203 55.3205 30.817 55.2888 30.5137C 55.2254 29.907 55.1145 29.3306 54.9561 28.7846C 54.7661 28.2083 54.5285 27.6775 54.2434 27.1921C 53.9266 26.6764 53.5622 26.1911 53.1504 25.7361C 52.7386 25.2508 52.2792 24.8261 51.7724 24.4621C 51.2972 24.0678 50.7744 23.7493 50.2042 23.5066C 49.6657 23.2336 49.1113 23.0212 48.541 22.8696C 47.9391 22.7179 47.3214 22.6269 46.6878 22.5966C 46.0542 22.5662 45.3256 21.9292 44.5019 20.6855C 43.6466 19.44187 42.6803 18.42569 41.6032 17.63702C 40.5578 16.81801 39.3857 16.24167 38.0868 15.908C 36.7563 15.54399 35.3307 15.40749 33.8101 15.49849C 32.2578 15.58949 30.753 15.8625 29.2957 16.3175C 27.8385 16.80284 26.5713 17.43985 25.4942 18.22852C 24.4488 19.0172 23.5776 19.97271 22.8806 21.0951C 22.2154 22.2174 21.5818 24.2194 20.9799 27.1011C 19.93443 27.0101 19.15828 26.995 18.6514 27.0556C 18.14453 27.1163 17.6535 27.2225 17.17831 27.3741C 16.70311 27.5561 16.24376 27.7836 15.80025 28.0566C 15.35673 28.3296 14.9449 28.6481 14.56475 29.0121C 14.21627 29.3761 13.89948 29.7553 13.61436 30.1497C 13.36092 30.5743 13.13917 31.0142 12.94909 31.4692C 12.79069 31.9242 12.69565 32.4095 12.66397 32.9252C 12.60062 33.4105 12.60062 33.9869 12.66397 34.6542C 12.75901 35.2912 12.91741 35.8827 13.13917 36.4287C 13.3926 36.9747 13.7094 37.4752 14.08955 37.9302C 14.46971 38.3549 14.92906 38.7341 15.46761 39.0678C 16.00616 39.4014 16.27544 39.5683 16.27544 39.5683C 16.27544 39.5683 16.38632 39.5986 16.60808 39.6593C 16.79815 39.7503 16.98823 39.8261 17.17831 39.8868C 17.40006 39.9474 17.62182 40.0081 17.84358 40.0688C 18.06533 40.1294 18.28709 40.1749 18.50885 40.2053C 18.7306 40.2356 18.84148 40.2508 18.84148 40.2508C 18.84148 40.2508 18.889 40.2508 18.98404 40.2508C 19.07908 40.2811 19.17412 40.2963 19.26916 40.2963C 19.36419 40.2963 19.45923 40.2963 19.55427 40.2963C 19.68099 40.3266 19.79187 40.3418 19.88691 40.3418C 19.98195 40.3418 20.0295 40.3418 20.0295 40.3418C 20.0295 40.3418 24.528 40.3418 33.5249 40.3418C 42.5219 40.3418 47.0679 40.3266 47.163 40.2963C 47.258 40.2963 47.3689 40.2811 47.4956 40.2508C 47.5907 40.2204 47.7015 40.1901 47.8283 40.1598C 47.9233 40.1294 48.0342 40.1143 48.1609 40.1143C 48.2559 40.0839 48.3034 40.0688 48.3034 40.0688C 48.3034 40.0688 48.4302 40.0233 48.6836 39.9323C 48.937 39.8413 49.1905 39.7503 49.4439 39.6593C 49.6973 39.5683 49.9349 39.4773 50.1567 39.3863C 50.4101 39.2649 50.6477 39.1436 50.8695 39.0223C 51.0912 38.9009 51.2021 38.8402 51.2021 38.8402C 51.2021 38.8402 51.5031 38.6127 52.105 38.1577C 52.7069 37.6724 53.2296 37.1567 53.6731 36.6107C 54.1166 36.0344 54.4651 35.4125 54.7186 34.7452C 54.972 34.0779 55.1462 33.365 55.2413 32.6067C 55.3363 31.818 55.3838 31.4237 55.3838 31.4237Z"/>
      </g>
    </g>
  </g>
  <g id="g-root-tx_basedone_v98eyw190bimg-stroke-fill" data-item-order="0" transform="translate(98, 242)">
    <g id="tx_basedone_v98eyw190bimg-fill" stroke="none" fill="#f4f4f4">
      <g>
        <text style="font: 20px Roboto, sans-serif; white-space: pre;" font-size="20px" font-family="Roboto, sans-serif">
          <tspan x="12" y="34" dominant-baseline="ideographic">Based on </tspan>
          <tspan x="12" y="58" dominant-baseline="ideographic">evidence</tspan>
        </text>
      </g>
    </g>
  </g>
  <g id="g-root-tx_reliable_hxrwlk190bk7d-stroke-fill" data-item-order="0" transform="translate(98, 170)">
    <g id="tx_reliable_hxrwlk190bk7d-fill" stroke="none" fill="#f4f4f4">
      <g>
        <text style="font: 20px Roboto, sans-serif; white-space: pre;" font-size="20px" font-family="Roboto, sans-serif">
          <tspan x="12" y="34" dominant-baseline="ideographic">Reliable sources </tspan>
          <tspan x="12" y="58" dominant-baseline="ideographic">used</tspan>
        </text>
      </g>
    </g>
  </g>
  <g id="g-root-tx_scientif_dikvk8190bhtu-stroke-fill" data-item-order="0" transform="translate(98, 98)">
    <g id="tx_scientif_dikvk8190bhtu-fill" stroke="none" fill="#f4f4f4">
      <g>
        <text style="font: 20px Roboto, sans-serif; white-space: pre;" font-size="20px" font-family="Roboto, sans-serif">
          <tspan x="12" y="34" dominant-baseline="ideographic">Scientific </tspan>
          <tspan x="12" y="58" dominant-baseline="ideographic">explanations</tspan>
        </text>
      </g>
    </g>
  </g>
  <g id="g-root-tx_speculat_74d6w190bjer-stroke-fill" data-item-order="0" transform="translate(422, 194)">
    <g id="tx_speculat_74d6w190bjer-fill" stroke="none" fill="#f4f4f4">
      <g>
        <text style="font: 20px Roboto, sans-serif; white-space: pre;" font-size="20px" font-family="Roboto, sans-serif">
          <tspan x="12" y="34" dominant-baseline="ideographic">Speculative and </tspan>
          <tspan x="12" y="58" dominant-baseline="ideographic">fictional</tspan>
        </text>
      </g>
    </g>
  </g>
  <g id="g-root-tx_unreliab_1qclex4190bk0c-stroke-fill" data-item-order="0" transform="translate(422, 122)">
    <g id="tx_unreliab_1qclex4190bk0c-fill" stroke="none" fill="#f4f4f4">
      <g>
        <text style="font: 20px Roboto, sans-serif; white-space: pre;" font-size="20px" font-family="Roboto, sans-serif">
          <tspan x="12" y="34" dominant-baseline="ideographic">Unreliable </tspan>
          <tspan x="12" y="58" dominant-baseline="ideographic">sources cited</tspan>
        </text>
      </g>
    </g>
  </g>
  <g id="g-root-tx_lackssci_1lxedvs190bhmt-stroke-fill" data-item-order="0" transform="translate(422, 50)">
    <g id="tx_lackssci_1lxedvs190bhmt-fill" stroke="none" fill="#f4f4f4">
      <g>
        <text style="font: 20px Roboto, sans-serif; white-space: pre;" font-size="20px" font-family="Roboto, sans-serif">
          <tspan x="12" y="34" dominant-baseline="ideographic">Lacks scientific </tspan>
          <tspan x="12" y="58" dominant-baseline="ideographic">basis</tspan>
        </text>
      </g>
    </g>
  </g>
  <g id="g-root-tx_credible_1d1rdmw190bifi-stroke-fill" data-item-order="0" transform="translate(38, 410)">
    <g id="tx_credible_1d1rdmw190bifi-fill" stroke="none" fill="#f4f4f4">
      <g>
        <text style="font: 20px Roboto, sans-serif; white-space: pre;" font-size="20px" font-family="Roboto, sans-serif">
          <tspan x="15.8" y="34" dominant-baseline="ideographic">Credible Explanations</tspan>
        </text>
      </g>
    </g>
  </g>
  <g id="g-root-tx_ufoparan_18lxvig190bj7r-stroke-fill" data-item-order="0" transform="translate(380, 350)">
    <g id="tx_ufoparan_18lxvig190bj7r-fill" stroke="none" fill="#f4f4f4">
      <g>
        <text style="font: 20px Roboto, sans-serif; white-space: pre;" font-size="20px" font-family="Roboto, sans-serif">
          <tspan x="17.11" y="34" dominant-baseline="ideographic">UFO/Paranormal </tspan>
          <tspan x="52.95" y="58" dominant-baseline="ideographic">Theories</tspan>
        </text>
      </g>
    </g>
  </g>
  <g id="g-root-tx_evaluati_vb3u88190bhmw-stroke-fill" data-item-order="0" transform="translate(158, 458)">
    <g id="tx_evaluati_vb3u88190bhmw-fill" stroke="none" fill="#f4f4f4">
      <g>
        <text style="font: 20px Roboto, sans-serif; white-space: pre;" font-size="20px" font-family="Roboto, sans-serif">
          <tspan x="12.33" y="34" dominant-baseline="ideographic">Evaluating the Flight 19 Incident</tspan>
        </text>
      </g>
    </g>
  </g>
</svg>
