<?xml version='1.0' encoding='utf-8'?>
<svg xmlns="http://www.w3.org/2000/svg" xmlns:xlink="http://www.w3.org/1999/xlink" width="1080" height="708" viewBox="0 0 1080 708" style="fill:none;stroke:none;fill-rule:evenodd;clip-rule:evenodd;stroke-linecap:round;stroke-linejoin:round;stroke-miterlimit:1.5;" version="1.1">
  <style class="text-font-style fontImports" data-font-family="Roboto">@import url('https://fonts.googleapis.com/css2?family=Roboto:wght@400;700&amp;display=block');</style>
  <rect x="0" y="0" width="1.08E+3" height="708" fill="#252a34" stroke="none" id="programmatic_background"/>
  <g id="g-root-tf_v3lsjs1adzmz1-stroke-fill" data-item-order="-714096" transform="translate(18, 12)"/>
  <g id="g-root-sy_4_cu_m8l6881ae9gqt-stroke-fill" data-item-order="-317369" transform="translate(608, 386)">
    <g id="sy_4_cu_m8l6881ae9gqt-stroke" fill="none" stroke-linecap="round" stroke-linejoin="round" stroke-miterlimit="4" stroke="#cb68f9" stroke-width="2">
      <g>
        <path d="M 33.850586 154.000488L 45.850586 154.000488M 58.200195 70L 70.200195 70M 87.9997 10L 21.9997 238L 10 238"/>
      </g>
    </g>
  </g>
  <g id="g-root-sy_3_cu_dcy5zc1ae9hji-stroke-fill" data-item-order="-317365" transform="translate(608, 158.00048828125)">
    <g id="sy_3_cu_dcy5zc1ae9hji-stroke" fill="none" stroke-linecap="round" stroke-linejoin="round" stroke-miterlimit="4" stroke="#f79438" stroke-width="2">
      <g>
        <path d="M 33.84668 93.999512L 45.84668 93.999512M 58.195313 177.999512L 70.195313 177.999512M 87.9997 238L 21.9997 10L 10 10"/>
      </g>
    </g>
  </g>
  <g id="g-root-sy_2_cu_8x4nuw1ae9ibr-stroke-fill" data-item-order="-317361" transform="translate(296, 385.99951171875)">
    <g id="sy_2_cu_8x4nuw1ae9ibr-stroke" fill="none" stroke-linecap="round" stroke-linejoin="round" stroke-miterlimit="4" stroke="#fb6762" stroke-width="2">
      <g>
        <path d="M 33.851563 154.000488L 45.851563 154.000488M 58.200195 70.000488L 70.200195 70.000488M 87.9997 10L 21.9997 238L 10 238"/>
      </g>
    </g>
  </g>
  <g id="g-root-sy_1_cu_4hb5qg1ae9j40-stroke-fill" data-item-order="-317357" transform="translate(296, 158.00048828125)">
    <g id="sy_1_cu_4hb5qg1ae9j40-stroke" fill="none" stroke-linecap="round" stroke-linejoin="round" stroke-miterlimit="4" stroke="#b7b7b7" stroke-width="2">
      <g>
        <path d="M 33.851563 93.999512L 45.851563 93.999512M 58.200195 177.999512L 70.200195 177.999512M 87.9997 238L 21.9997 10L 10 10"/>
      </g>
    </g>
  </g>
  <g id="g-root-sy_-1_line_1uneojs1ae9gjt-stroke-fill" data-item-order="-317351" transform="translate(32, 386)">
    <g id="sy_-1_line_1uneojs1ae9gjt-stroke" fill="none" stroke-linecap="round" stroke-linejoin="round" stroke-miterlimit="4" stroke="#f4f4f4" stroke-width="2">
      <g>
        <path d="M 704 10L 10 10"/>
        <path d="M 698 16.5L 704.5 10L 698 3.5" stroke-dasharray="none"/>
      </g>
    </g>
  </g>
  <g id="g-root-tx_disappea_1hby66g1ae9i4q-stroke-fill" data-item-order="0" transform="translate(800, 362)">
    <g id="tx_disappea_1hby66g1ae9i4q-fill" stroke="none" fill="#f4f4f4">
      <g>
        <text style="font: 20px Roboto, sans-serif; white-space: pre;" font-size="20px" font-family="Roboto, sans-serif">
          <tspan x="12" y="34" dominant-baseline="ideographic">Disappearance of Flight </tspan>
          <tspan x="12" y="58" dominant-baseline="ideographic">19</tspan>
        </text>
      </g>
    </g>
  </g>
  <g id="g-root-tx_poorweat_14144w81ae9gjv-stroke-fill" data-item-order="0" transform="translate(440, 434)">
    <g id="tx_poorweat_14144w81ae9gjv-fill" stroke="none" fill="#f4f4f4">
      <g>
        <text style="font: 20px Roboto, sans-serif; white-space: pre;" font-size="20px" font-family="Roboto, sans-serif">
          <tspan x="11.52" y="34" dominant-baseline="ideographic">Poor Weather Visibility</tspan>
        </text>
      </g>
    </g>
  </g>
  <g id="g-root-tx_roughsea_zlamrs1ae9hc4-stroke-fill" data-item-order="0" transform="translate(500, 518)">
    <g id="tx_roughsea_zlamrs1ae9hc4-fill" stroke="none" fill="#f4f4f4">
      <g>
        <text style="font: 20px Roboto, sans-serif; white-space: pre;" font-size="20px" font-family="Roboto, sans-serif">
          <tspan x="22.34" y="34" dominant-baseline="ideographic">Rough Seas</tspan>
        </text>
      </g>
    </g>
  </g>
  <g id="g-root-tx_environm_m9u4eg1ae9ix1-stroke-fill" data-item-order="0" transform="translate(428, 590)">
    <g id="tx_environm_m9u4eg1ae9ix1-fill" stroke="none" fill="#f4f4f4">
      <g>
        <text style="font: 20px Roboto, sans-serif; white-space: pre;" font-size="20px" font-family="Roboto, sans-serif">
          <tspan x="12.52" y="34" dominant-baseline="ideographic">Environmental </tspan>
          <tspan x="44.2" y="58" dominant-baseline="ideographic">Conditions</tspan>
        </text>
      </g>
    </g>
  </g>
  <g id="g-root-tx_decision_detl8o1ae9gjy-stroke-fill" data-item-order="0" transform="translate(428, 314)">
    <g id="tx_decision_detl8o1ae9gjy-fill" stroke="none" fill="#f4f4f4">
      <g>
        <text style="font: 20px Roboto, sans-serif; white-space: pre;" font-size="20px" font-family="Roboto, sans-serif">
          <tspan x="17.95" y="34" dominant-baseline="ideographic">Decision-Making Errors</tspan>
        </text>
      </g>
    </g>
  </g>
  <g id="g-root-tx_pilotdis_3d2vc1ae9i4v-stroke-fill" data-item-order="0" transform="translate(440, 230)">
    <g id="tx_pilotdis_3d2vc1ae9i4v-fill" stroke="none" fill="#f4f4f4">
      <g>
        <text style="font: 20px Roboto, sans-serif; white-space: pre;" font-size="20px" font-family="Roboto, sans-serif">
          <tspan x="18.45" y="34" dominant-baseline="ideographic">Pilot Disorientation</tspan>
        </text>
      </g>
    </g>
  </g>
  <g id="g-root-tx_humanfac_1uonmq01ae9iq0-stroke-fill" data-item-order="0" transform="translate(416, 146)">
    <g id="tx_humanfac_1uonmq01ae9iq0-fill" stroke="none" fill="#f4f4f4">
      <g>
        <text style="font: 20px Roboto, sans-serif; white-space: pre;" font-size="20px" font-family="Roboto, sans-serif">
          <tspan x="15.36" y="34" dominant-baseline="ideographic">Human Factors</tspan>
        </text>
      </g>
    </g>
  </g>
  <g id="g-root-tx_visualna_1hdtlfs1ae9h55-stroke-fill" data-item-order="0" transform="translate(164, 422)">
    <g id="tx_visualna_1hdtlfs1ae9h55-fill" stroke="none" fill="#f4f4f4">
      <g>
        <text style="font: 20px Roboto, sans-serif; white-space: pre;" font-size="20px" font-family="Roboto, sans-serif">
          <tspan x="20.83" y="34" dominant-baseline="ideographic">Visual Navigation </tspan>
          <tspan x="77.55" y="58" dominant-baseline="ideographic">Challenges</tspan>
        </text>
      </g>
    </g>
  </g>
  <g id="g-root-tx_lackofti_1cy03bc1ae9hxe-stroke-fill" data-item-order="0" transform="translate(128, 518)">
    <g id="tx_lackofti_1cy03bc1ae9hxe-fill" stroke="none" fill="#f4f4f4">
      <g>
        <text style="font: 20px Roboto, sans-serif; white-space: pre;" font-size="20px" font-family="Roboto, sans-serif">
          <tspan x="14.81" y="34" dominant-baseline="ideographic">Lack of Timepieces</tspan>
        </text>
      </g>
    </g>
  </g>
  <g id="g-root-tx_equipmen_142d32g1ae9iq3-stroke-fill" data-item-order="0" transform="translate(68, 602)">
    <g id="tx_equipmen_142d32g1ae9iq3-fill" stroke="none" fill="#f4f4f4">
      <g>
        <text style="font: 20px Roboto, sans-serif; white-space: pre;" font-size="20px" font-family="Roboto, sans-serif">
          <tspan x="17.77" y="34" dominant-baseline="ideographic">Equipment Failures</tspan>
        </text>
      </g>
    </g>
  </g>
  <g id="g-root-tx_deadreck_qrj1s81ae9h58-stroke-fill" data-item-order="0" transform="translate(176, 302)">
    <g id="tx_deadreck_qrj1s81ae9h58-fill" stroke="none" fill="#f4f4f4">
      <g>
        <text style="font: 20px Roboto, sans-serif; white-space: pre;" font-size="20px" font-family="Roboto, sans-serif">
          <tspan x="20.02" y="34" dominant-baseline="ideographic">Dead Reckoning </tspan>
          <tspan x="83.06" y="58" dominant-baseline="ideographic">Mistakes</tspan>
        </text>
      </g>
    </g>
  </g>
  <g id="g-root-tx_compassm_dg2jew1ae9iq5-stroke-fill" data-item-order="0" transform="translate(104, 230)">
    <g id="tx_compassm_dg2jew1ae9iq5-fill" stroke="none" fill="#f4f4f4">
      <g>
        <text style="font: 20px Roboto, sans-serif; white-space: pre;" font-size="20px" font-family="Roboto, sans-serif">
          <tspan x="15.77" y="34" dominant-baseline="ideographic">Compass Malfunction</tspan>
        </text>
      </g>
    </g>
  </g>
  <g id="g-root-tx_navigati_90vidk1ae9gcm-stroke-fill" data-item-order="0" transform="translate(80, 146)">
    <g id="tx_navigati_90vidk1ae9gcm-fill" stroke="none" fill="#f4f4f4">
      <g>
        <text style="font: 20px Roboto, sans-serif; white-space: pre;" font-size="20px" font-family="Roboto, sans-serif">
          <tspan x="22.28" y="34" dominant-baseline="ideographic">Navigation Errors</tspan>
        </text>
      </g>
    </g>
  </g>
  <g id="g-root-tx_analyzin_1uqj1zc1ae9hqf-stroke-fill" data-item-order="0" transform="translate(338, 50)">
    <g id="tx_analyzin_1uqj1zc1ae9hqf-fill" stroke="none" fill="#f4f4f4">
      <g>
        <text style="font: 20px Roboto, sans-serif; white-space: pre;" font-size="20px" font-family="Roboto, sans-serif">
          <tspan x="14.87" y="34" dominant-baseline="ideographic">Analyzing the Disappearance of Flight 19</tspan>
        </text>
      </g>
    </g>
    <defs>
      <pattern id="crawlingPattern-0000001b" x="0" y="0" width="12" height="12" patternUnits="userSpaceOnUse" fill="#0000001b">
        <use href="#crawlingSymbol"/>
      </pattern>
      <symbol id="crawlingSymbol">
        <g>
          <path d="M -12.5 12.5 l 13 -13 l 6 0 l -13 13 Z M -0.5 12.5 l 13 -13 l 6 0 l -13 13 Z M 11.5 12.5 l 13 -13 l 6 0 l -13 13 Z"/>
        </g>
      </symbol>
    </defs>
  </g>
  <g id="g-root-ic_safa_1hfp0p41ae9g5k-stroke-fill" data-item-order="0" transform="translate(260, 140)">
    <g id="ic_safa_1hfp0p41ae9g5k-stroke" fill="none" stroke-linecap="round" stroke-linejoin="round" stroke-miterlimit="4" stroke="#f4f4f4" stroke-width="2">
      <g>
        <path d="M 10.75 28C 10.75 37.526913 18.473087 45.25 28 45.25C 37.526913 45.25 45.25 37.526913 45.25 28C 45.25 18.473087 37.526913 10.75 28 10.75C 18.473087 10.75 10.75 18.473087 10.75 28M 40.197998 15.802L 24.800499 25.201L 15.802 40.197998L 31 31L 40.197998 15.802ZM 28 10.75L 28 16.405001M 28 39.595001L 28 45.25M 45.25 28L 39.595001 28M 16.405001 28L 10.75 28M 40.197998 40.197998L 36.198997 36.198997M 19.801001 19.801001L 15.802 15.802"/>
      </g>
    </g>
  </g>
  <g id="g-root-ic_1_1cz91hk1aeaxhd-stroke-fill" data-item-order="0" transform="translate(260, 596)">
    <g id="ic_1_1cz91hk1aeaxhd-stroke" fill="none" stroke-linecap="round" stroke-linejoin="round" stroke-miterlimit="4" stroke="#f4f4f4" stroke-width="2">
      <g>
        <path d="M 19.393 40.9375L 11.125 40.9375M 44.875 40.9375L 36.607002 40.9375M 34.037498 34.9375L 44.875 34.9375M 11.125 34.9375L 21.967001 34.9375M 24.400002 32.246502C 22.441757 33.476105 21.252213 35.625217 21.25 37.9375C 21.250025 38.351559 21.28768 38.764759 21.362501 39.172005L 20.380001 39.738998C 19.302906 40.360256 18.933439 41.737083 19.554804 42.814114C 20.176168 43.891144 21.553032 44.260471 22.630001 43.639L 23.614 43.070503C 26.139507 45.229385 29.860493 45.229385 32.386002 43.070503L 33.369999 43.639C 34.446945 44.26017 35.823532 43.89077 36.444805 42.813889C 37.066082 41.737011 36.696815 40.360386 35.619999 39.738998L 34.637497 39.172001C 34.712322 38.764759 34.749977 38.351559 34.75 37.937504C 34.747219 35.625366 33.557816 33.476513 31.599998 32.246502M 25.75 37.9375C 25.75 39.180141 26.75736 40.1875 28 40.1875C 29.242641 40.1875 30.25 39.180141 30.25 37.9375C 30.25 36.694862 29.242641 35.6875 28 35.6875C 26.75736 35.6875 25.75 36.694862 25.75 37.9375M 10 10M 37.402 24.573999L 30.802 12.943C 30.229795 11.935306 29.160322 11.312726 28.001501 11.312726C 26.842678 11.312726 25.773205 11.935306 25.201 12.943L 18.601 24.573999C 18.131863 25.400099 18.137014 26.413258 18.614527 27.234543C 19.092041 28.055828 19.969984 28.561525 20.92 28.562498L 35.079998 28.5625C 36.030548 28.562593 36.90947 28.057318 37.387718 27.235838C 37.865959 26.414358 37.871399 25.400564 37.402 24.573999ZM 28 15.8125L 28 19.5625M 27.25 24.0625C 27.25 24.476713 27.585787 24.8125 28 24.8125C 28.414213 24.8125 28.75 24.476713 28.75 24.0625C 28.75 23.648287 28.414213 23.3125 28 23.3125C 27.585787 23.3125 27.25 23.648287 27.25 24.0625"/>
      </g>
    </g>
  </g>
  <g id="g-root-ic_avia_qsrzyg1aeca2y-stroke-fill" data-item-order="0" transform="translate(572, 140)">
    <g id="ic_avia_qsrzyg1aeca2y-stroke" fill="none" stroke-linecap="round" stroke-linejoin="round" stroke-miterlimit="4" stroke="#f4f4f4" stroke-width="2">
      <g>
        <path d="M 37.031502 24.25L 36.011497 24.25C 35.298599 24.250145 34.684078 23.748501 34.5415 23.049999L 34.031502 19.75L 21.907 19.75L 21.4 23.049999C 21.257307 23.749052 20.641966 24.250858 19.928499 24.25L 19.0285 24.25M 25.75 29.5C 26.309027 29.999762 27.037365 30.267927 27.786999 30.25L 28.213001 30.25C 28.962685 30.26823 29.691132 30.000025 30.25 29.5M 26.5 23.5C 26.176285 22.992825 25.599968 22.704668 25 22.75C 24.40003 22.704668 23.823715 22.992825 23.5 23.5M 32.5 23.5C 32.176285 22.992825 31.599968 22.704668 31 22.75C 30.40003 22.704668 29.823715 22.992825 29.5 23.5M 21.25 35.987503L 21.25 40.459C 21.249701 40.700214 21.365437 40.926849 21.561016 41.068039C 21.756596 41.209221 22.008144 41.247723 22.237 41.171501L 28 39.25L 22.75 35.5L 14.65 38.1325C 12.305686 39.008411 10.75125 41.247398 10.75 43.75L 10.75 45.25M 34.75 35.915501L 34.75 40.459C 34.750301 40.700214 34.634563 40.926849 34.438984 41.068039C 34.243404 41.209221 33.991856 41.247723 33.763 41.171501L 28 39.25L 33.334 35.439999L 41.349998 38.1325C 43.694313 39.008411 45.248749 41.247398 45.25 43.75L 45.25 45.25M 10 10M 28 45.25L 28 39.25M 19 22.75L 19 34M 10 10M 37 22.75L 37 34M 10 10M 37 22.764999L 36.9715 22.75C 37.343559 20.803989 37.353218 18.806019 37 16.856501M 20.973999 29.5C 22.286968 32.317856 24.925566 34.289482 28 34.75C 31.074432 34.289482 33.713028 32.317856 35.026001 29.5M 19 16.856501C 18.646782 18.806019 18.656445 20.803989 19.0285 22.75L 19 22.764999M 36.593498 15.5035C 35.564499 12.85 33.143501 10.75 28 10.75C 22.856501 10.75 20.435499 12.85 19.4065 15.5035M 19 16.75C 19 18.406855 21.014719 19.75 23.5 19.75C 25.985283 19.75 28 18.406855 28 16.75C 28 15.093145 25.985283 13.75 23.5 13.75C 21.014719 13.75 19 15.093145 19 16.75ZM 28 16.75C 28 18.406855 30.014719 19.75 32.5 19.75C 34.985283 19.75 37 18.406855 37 16.75C 37 15.093145 34.985283 13.75 32.5 13.75C 30.014719 13.75 28 15.093145 28 16.75Z"/>
      </g>
    </g>
  </g>
  <g id="g-root-ic_1_1qd7g7c1aedq8b-stroke-fill" data-item-order="0" transform="translate(572, 596)">
    <g id="ic_1_1qd7g7c1aedq8b-stroke" fill="none" stroke-linecap="round" stroke-linejoin="round" stroke-miterlimit="4" stroke="#f4f4f4" stroke-width="2">
      <g>
        <path d="M 31.6366 24.43228C 31.851849 23.934971 31.93195 23.389601 31.868649 22.851414C 31.805201 22.313215 31.600901 21.801325 31.276001 21.367556C 30.95125 20.9338 30.51745 20.593584 30.018848 20.381365C 29.52025 20.169159 28.9744 20.09248 28.436649 20.159109C 27.974499 18.976284 27.126549 17.98414 26.030201 17.343384C 24.93379 16.702644 23.653181 16.45084 22.395821 16.628769C 21.13846 16.806684 19.978001 17.40394 19.102449 18.323725C 18.226885 19.243525 17.687531 20.43199 17.571745 21.696594C 16.25518 21.808001 15.033085 22.425489 14.162334 23.419241C 13.291585 24.412991 12.839995 25.705601 12.902515 27.02545C 12.96502 28.34515 13.53676 29.589399 14.49754 30.4963C 15.45832 31.403351 16.73332 31.90255 18.05452 31.88905L 29.3293 31.88905C 30.2038 31.893999 31.05685 31.617701 31.76215 31.100649C 32.467602 30.58375 32.987949 29.853699 33.246552 29.018349C 33.50515 28.18285 33.48835 27.286449 33.198399 26.461451C 32.908451 25.636299 32.36095 24.92638 31.6366 24.436375L 31.6366 24.43228ZM 27.874001 14.452285C 28.114151 13.997126 28.417 13.573945 28.776701 13.19611C 29.652248 12.27631 30.812801 11.67907 32.070099 11.50114C 33.3274 11.323217 34.608101 11.57503 35.704449 12.21577C 36.8008 12.856525 37.64875 13.84867 38.110901 15.031495C 38.648651 14.964865 39.1945 15.041545 39.6931 15.25375C 40.191849 15.46597 40.6255 15.806185 40.950249 16.239941C 41.27515 16.67371 41.479599 17.1856 41.5429 17.723801C 41.606201 18.261986 41.5261 18.807356 41.310848 19.304665L 41.310848 19.30876C 42.035202 19.798765 42.582851 20.50873 42.87265 21.33379C 43.162601 22.15885 43.17955 23.055279 42.920799 23.890675C 42.662201 24.72607 42.14185 25.45615 41.436401 25.973049C 40.731102 26.48995 39.878201 26.766399 39.0037 26.76145L 37.121048 26.76145M 11.437195 35.9398C 11.823685 35.9398 12.205465 35.98975 12.555505 36.086201C 12.905545 36.182499 13.215281 36.323051 13.462811 36.49765L 16.005384 38.292999C 16.252914 38.467598 16.562666 38.60815 16.912704 38.704601C 17.26273 38.8009 17.64451 38.850849 18.031 38.850849C 18.417505 38.850849 18.799286 38.8009 19.149311 38.704601C 19.49935 38.60815 19.809101 38.467598 20.056629 38.292999L 22.599205 36.49765C 22.846735 36.323051 23.156469 36.182499 23.50651 36.086201C 23.85655 35.98975 24.238316 35.9398 24.624821 35.9398C 25.01125 35.9398 25.39315 35.98975 25.743101 36.086201C 26.093201 36.182499 26.40295 36.323051 26.65045 36.49765L 29.192949 38.292999C 29.440599 38.467598 29.750349 38.60815 30.1003 38.704601C 30.450401 38.8009 30.83215 38.850849 31.2187 38.850849C 31.605101 38.850849 31.986851 38.8009 32.336952 38.704601C 32.68705 38.60815 32.996651 38.467598 33.244301 38.292999L 35.7868 36.49765C 36.034298 36.323051 36.344051 36.182499 36.694153 36.086201C 37.044098 35.98975 37.426003 35.9398 37.812401 35.9398C 38.198948 35.9398 38.5807 35.98975 38.930801 36.086201C 39.28075 36.182499 39.5905 36.323051 39.838001 36.49765L 42.38065 38.292999C 42.628151 38.467598 42.937897 38.60815 43.287998 38.704601C 43.637951 38.8009 44.019699 38.850849 44.40625 38.850849M 11.437195 41.682549C 11.823685 41.682549 12.205465 41.732502 12.555505 41.828949C 12.905545 41.9254 13.215281 42.0658 13.462811 42.240551L 16.005384 44.0359C 16.252914 44.210499 16.562666 44.350899 16.912704 44.44735C 17.26273 44.5438 17.64451 44.59375 18.031 44.59375C 18.417505 44.59375 18.799286 44.5438 19.149311 44.44735C 19.49935 44.350899 19.809101 44.210499 20.056629 44.0359L 22.599205 42.240551C 22.846735 42.0658 23.156469 41.9254 23.50651 41.828949C 23.85655 41.732502 24.238316 41.682549 24.624821 41.682549C 25.01125 41.682549 25.39315 41.732502 25.743101 41.828949C 26.093201 41.9254 26.40295 42.0658 26.65045 42.240551L 29.192949 44.0359C 29.440599 44.210499 29.750349 44.350899 30.1003 44.44735C 30.450401 44.5438 30.83215 44.59375 31.2187 44.59375C 31.605101 44.59375 31.986851 44.5438 32.336952 44.44735C 32.68705 44.350899 32.996651 44.210499 33.244301 44.0359L 35.7868 42.240551C 36.034298 42.0658 36.344051 41.9254 36.694153 41.828949C 37.044098 41.732502 37.426003 41.682549 37.812401 41.682549C 38.198948 41.682549 38.5807 41.732502 38.930801 41.828949C 39.28075 41.9254 39.5905 42.0658 39.838001 42.240551L 42.38065 44.0359C 42.628151 44.210499 42.937897 44.350899 43.287998 44.44735C 43.637951 44.5438 44.019699 44.59375 44.40625 44.59375"/>
      </g>
    </g>
  </g>
  <g id="g-root-ic_2_hun3d41aejapw-stroke-fill" data-item-order="0" transform="translate(740, 362)">
    <g id="ic_2_hun3d41aejapw-stroke" fill="none" stroke-linecap="round" stroke-linejoin="round" stroke-miterlimit="4" stroke="#f4f4f4" stroke-width="2">
      <g>
        <path d="M 57 14.962C 51.987999 16 48.877998 11 48.877998 11L 48.877998 11C 47.306854 13.499234 44.587238 15.04418 41.636002 15.114C 38.706734 14.972372 36.019836 13.444748 34.400002 11L 34.400002 11C 32.829243 13.498652 30.110521 15.043516 27.160002 15.114C 24.228649 14.975855 21.53907 13.447551 19.919998 11L 19.92 11C 19.92 11 15.903999 16.084 11 15.044001M 50.436001 36.400002C 50.099121 40.20681 46.870892 43.10199 43.049999 43.023998L 28.474001 43.023998C 26.386639 43.023777 24.38203 42.207722 22.888 40.75L 14.969999 33.017998L 23.816 29.566C 24.742821 29.204086 25.729023 29.01824 26.724001 29.018L 43.445999 29.018C 45.3689 29.017883 47.207176 29.808786 48.529297 31.20505C 49.851414 32.601311 50.540936 34.479965 50.436001 36.400002ZM 38.998001 29.018L 38.998001 43.018002M 34.998001 43L 34.998001 48M 31.997999 51C 31.998001 52.656857 33.341148 54 34.998001 54C 36.654854 54 37.998001 52.656857 37.998001 51C 37.998001 49.343147 36.654854 48 34.998001 48C 33.341148 48 31.998001 49.343147 31.998001 51M 37.998001 51L 44.998001 51M 40.998001 29.018L 30.445999 29.018L 34.445999 23L 40.998001 23L 40.998001 29.018ZM 14.969999 33.017998L 13.846 27.441999C 13.531969 25.855484 14.282436 24.248446 15.700501 23.470798C 17.118567 22.69315 18.877073 22.924299 20.046001 24.042L 25.344 29.138M 27.354 43.018002L 11.998 43.018002M 14.998 39.968002L 14.998 45.967999M 55.240002 55.242001C 52.897041 57.585667 49.097725 57.586048 46.754292 55.242855C 44.410862 52.899662 44.410862 49.100342 46.754292 46.757149C 49.097725 44.413952 52.897041 44.414333 55.240002 46.757999"/>
      </g>
    </g>
  </g>
</svg>
