<?xml version='1.0' encoding='utf-8'?>
<svg xmlns="http://www.w3.org/2000/svg" xmlns:xlink="http://www.w3.org/1999/xlink" width="816" height="636" viewBox="0 0 816 636" style="fill:none;stroke:none;fill-rule:evenodd;clip-rule:evenodd;stroke-linecap:round;stroke-linejoin:round;stroke-miterlimit:1.5;" version="1.1">
  <style class="text-font-style fontImports" data-font-family="Roboto">@import url('https://fonts.googleapis.com/css2?family=Roboto:wght@400;700&amp;display=block');</style>
  <rect x="0" y="0" width="816" height="636" fill="#252a34" stroke="none" id="programmatic_background"/>
  <g id="g-root-tf_2qfh41aoiwi1-stroke-fill" data-item-order="-477360" transform="translate(18, 12)"/>
  <g id="g-root-sy_-1_cu_vb38481aohj4e-stroke-fill" data-item-order="-316218" transform="translate(32, 265.00390625)">
    <g id="sy_-1_cu_vb38481aohj4e-fill" stroke="none" fill="none">
      <g>
        <path d="M 10.001 143L 10 47L 67 47L 70 59L 322 59L 319 47L 367 47L 370 59L 622 59L 619 47L 646 47L 646 10L 742 95L 646.002 180L 646 143L 619 143L 622 131L 370 131L 367 143L 319.001 143L 322.001 131L 70.001 131L 67.001 143L 10.001 143Z"/>
      </g>
    </g>
    <g id="sy_-1_cu_vb38481aohj4e-stroke" fill="none" stroke-linecap="round" stroke-linejoin="round" stroke-miterlimit="4" stroke="#f4f4f4" stroke-width="2">
      <g>
        <path d="M 10.001 143L 10 47L 67 47L 70 59L 322 59L 319 47L 367 47L 370 59L 622 59L 619 47L 646 47L 646 10L 742 95L 646.0017 180L 646 143L 619 143L 622 131L 370 131L 367 143L 319.001 143L 322.001 131L 70.001 131L 67.001 143L 10.001 143Z"/>
      </g>
    </g>
  </g>
  <g id="g-root-sy_4_cu_qv9pzs1aohjwn-stroke-fill" data-item-order="-316214" transform="translate(347, 386)">
    <g id="sy_4_cu_qv9pzs1aohjwn-fill" stroke="none" fill="none">
      <g>
        <path d="M 307 10L 295 58L 43 58L 55 10L 307 10ZM 291.992188 70L 279.992188 118L 27.992188 118L 39.992188 70L 291.992188 70ZM 277 130L 25 130L 10 190L 262 190L 277 130Z"/>
      </g>
    </g>
    <g id="sy_4_cu_qv9pzs1aohjwn-stroke" fill="none" stroke-linecap="round" stroke-linejoin="round" stroke-miterlimit="4" stroke="#8769fd" stroke-width="2">
      <g>
        <path d="M 307 10L 295 58L 43 58L 55 10L 307 10ZM 291.992188 70L 279.992188 118L 27.992188 118L 39.992188 70L 291.992188 70ZM 277 130L 25 130L 10 190L 262 190L 277 130Z"/>
      </g>
    </g>
  </g>
  <g id="g-root-sy_3_cu_mg2oyg1aohhj4-stroke-fill" data-item-order="-316210" transform="translate(347, 134)">
    <g id="sy_3_cu_mg2oyg1aohhj4-fill" stroke="none" fill="none">
      <g>
        <path d="M 307 190L 295 142L 43 142L 55 190L 307 190ZM 291.992188 130L 279.992188 82L 27.992188 82L 39.992188 130L 291.992188 130ZM 277 70L 25 70L 10 10L 262 10L 277 70Z"/>
      </g>
    </g>
    <g id="sy_3_cu_mg2oyg1aohhj4-stroke" fill="none" stroke-linecap="round" stroke-linejoin="round" stroke-miterlimit="4" stroke="#b7b7b7" stroke-width="2">
      <g>
        <path d="M 307 190L 295 142L 43 142L 55 190L 307 190ZM 291.992188 130L 279.992188 82L 27.992188 82L 39.992188 130L 291.992188 130ZM 277 70L 25 70L 10 10L 262 10L 277 70Z"/>
      </g>
    </g>
  </g>
  <g id="g-root-sy_2_cu_dkfopk1aohibt-stroke-fill" data-item-order="-316206" transform="translate(47, 386)">
    <g id="sy_2_cu_dkfopk1aohibt-fill" stroke="none" fill="none">
      <g>
        <path d="M 307.000977 10L 295.000977 58L 43.000977 58L 55.000977 10L 307.000977 10ZM 291.993164 70L 279.993164 118L 27.993164 118L 39.993164 70L 291.993164 70ZM 277.001 130L 25.001 130L 10 190L 262 190L 277.001 130Z"/>
      </g>
    </g>
    <g id="sy_2_cu_dkfopk1aohibt-stroke" fill="none" stroke-linecap="round" stroke-linejoin="round" stroke-miterlimit="4" stroke="#fb6762" stroke-width="2">
      <g>
        <path d="M 307.000977 10L 295.000977 58L 43.000977 58L 55.000977 10L 307.000977 10ZM 291.993164 70L 279.993164 118L 27.993164 118L 39.993164 70L 291.993164 70ZM 277.001 130L 25.001 130L 10 190L 262 190L 277.001 130Z"/>
      </g>
    </g>
  </g>
  <g id="g-root-sy_1_cu_94m6l41aohj42-stroke-fill" data-item-order="-316202" transform="translate(47, 134)">
    <g id="sy_1_cu_94m6l41aohj42-fill" stroke="none" fill="none">
      <g>
        <path d="M 307 190L 295 142L 43 142L 55 190L 307 190ZM 291.992188 130L 279.992188 82L 27.992188 82L 39.992188 130L 291.992188 130ZM 277 70L 25 70L 10 10L 262 10L 277 70Z"/>
      </g>
    </g>
    <g id="sy_1_cu_94m6l41aohj42-stroke" fill="none" stroke-linecap="round" stroke-linejoin="round" stroke-miterlimit="4" stroke="#b7b7b7" stroke-width="2">
      <g>
        <path d="M 307 190L 295 142L 43 142L 55 190L 307 190ZM 291.992188 130L 279.992188 82L 27.992188 82L 39.992188 130L 291.992188 130ZM 277 70L 25 70L 10 10L 262 10L 277 70Z"/>
      </g>
    </g>
  </g>
  <g id="g-root-tx_unresolv_8z6c81aohjwr-stroke-fill" data-item-order="0" transform="translate(344, 332)">
    <g id="tx_unresolv_8z6c81aohjwr-fill" stroke="none" fill="#4f91fc">
      <g>
        <text style="font: bold 25px Roboto, sans-serif; white-space: pre;" font-weight="bold" font-size="25px" font-family="Roboto, sans-serif">
          <tspan x="22.14" y="43" dominant-baseline="ideographic">Unresolved Fort Itaipu Incident</tspan>
        </text>
      </g>
    </g>
  </g>
  <g id="g-root-tx_unstudie_1lz97141aohi4s-stroke-fill" data-item-order="0" transform="translate(428, 398)">
    <g id="tx_unstudie_1lz97141aohi4s-fill" stroke="none" fill="#8769fd">
      <g>
        <text style="font: 15px Roboto, sans-serif; white-space: pre;" font-size="15px" font-family="Roboto, sans-serif">
          <tspan x="14.94" y="31" dominant-baseline="ideographic">Unstudied Radiation Effects</tspan>
        </text>
      </g>
    </g>
  </g>
  <g id="g-root-tx_lackofmo_1hjfowo1aohix1-stroke-fill" data-item-order="0" transform="translate(437, 458)">
    <g id="tx_lackofmo_1hjfowo1aohix1-fill" stroke="none" fill="#8769fd">
      <g>
        <text style="font: 15px Roboto, sans-serif; white-space: pre;" font-size="15px" font-family="Roboto, sans-serif">
          <tspan x="11.83" y="31" dominant-baseline="ideographic">Lack of Modern Analysis</tspan>
        </text>
      </g>
    </g>
  </g>
  <g id="g-root-tx_unexplor_13ym28o1aoivwm-stroke-fill" data-item-order="0" transform="translate(386, 512)">
    <g id="tx_unexplor_13ym28o1aoivwm-fill" stroke="none" fill="#8769fd">
      <g>
        <text style="font: bold 20px Roboto, sans-serif; white-space: pre;" font-weight="bold" font-size="20px" font-family="Roboto, sans-serif">
          <tspan x="18.31" y="34" dominant-baseline="ideographic">Unexplored Technical </tspan>
          <tspan x="130.25" y="58" dominant-baseline="ideographic">Analyses</tspan>
        </text>
      </g>
    </g>
  </g>
  <g id="g-root-tx_unreleas_v2z1zs1aoiwpb-stroke-fill" data-item-order="0" transform="translate(452, 272)">
    <g id="tx_unreleas_v2z1zs1aoiwpb-fill" stroke="none" fill="#b7b7b7">
      <g>
        <text style="font: 15px Roboto, sans-serif; white-space: pre;" font-size="15px" font-family="Roboto, sans-serif">
          <tspan x="16" y="28" dominant-baseline="ideographic">Unreleased Government </tspan>
          <tspan x="123.72" y="46" dominant-baseline="ideographic">Reports</tspan>
        </text>
      </g>
    </g>
  </g>
  <g id="g-root-tx_untapped_m7c1qw1aoiy9s-stroke-fill" data-item-order="0" transform="translate(413, 218)">
    <g id="tx_untapped_m7c1qw1aoiy9s-fill" stroke="none" fill="#b7b7b7">
      <g>
        <text style="font: 15px Roboto, sans-serif; white-space: pre;" font-size="15px" font-family="Roboto, sans-serif">
          <tspan x="21.44" y="31" dominant-baseline="ideographic">Untapped Military Archives</tspan>
        </text>
      </g>
    </g>
  </g>
  <g id="g-root-tx_missingi_dcbil41aoivwp-stroke-fill" data-item-order="0" transform="translate(386, 140)">
    <g id="tx_missingi_dcbil41aoivwp-fill" stroke="none" fill="#b7b7b7">
      <g>
        <text style="font: bold 20px Roboto, sans-serif; white-space: pre;" font-weight="bold" font-size="20px" font-family="Roboto, sans-serif">
          <tspan x="18.86" y="34" dominant-baseline="ideographic">Missing Investigation </tspan>
          <tspan x="109.7" y="58" dominant-baseline="ideographic">Documents</tspan>
        </text>
      </g>
    </g>
  </g>
  <g id="g-root-tx_unverifi_8wi0go1aoiwoy-stroke-fill" data-item-order="0" transform="translate(152, 398)">
    <g id="tx_unverifi_8wi0go1aoiwoy-fill" stroke="none" fill="#fb6762">
      <g>
        <text style="font: 15px Roboto, sans-serif; white-space: pre;" font-size="15px" font-family="Roboto, sans-serif">
          <tspan x="19.31" y="31" dominant-baseline="ideographic">Unverified Injury Claims</tspan>
        </text>
      </g>
    </g>
  </g>
  <g id="g-root-tx_unavaila_1um5k2g1aoiy2r-stroke-fill" data-item-order="0" transform="translate(161, 452)">
    <g id="tx_unavaila_1um5k2g1aoiy2r-fill" stroke="none" fill="#fb6762">
      <g>
        <text style="font: 15px Roboto, sans-serif; white-space: pre;" font-size="15px" font-family="Roboto, sans-serif">
          <tspan x="15.64" y="28" dominant-baseline="ideographic">Unavailable Hospital </tspan>
          <tspan x="49.63" y="46" dominant-baseline="ideographic">Documentation</tspan>
        </text>
      </g>
    </g>
  </g>
  <g id="g-root-tx_incomple_1lr50wo1aoivpo-stroke-fill" data-item-order="0" transform="translate(98, 512)">
    <g id="tx_incomple_1lr50wo1aoivpo-fill" stroke="none" fill="#fb6762">
      <g>
        <text style="font: bold 20px Roboto, sans-serif; white-space: pre;" font-weight="bold" font-size="20px" font-family="Roboto, sans-serif">
          <tspan x="22.73" y="34" dominant-baseline="ideographic">Incomplete Medical </tspan>
          <tspan x="126" y="58" dominant-baseline="ideographic">Records</tspan>
        </text>
      </g>
    </g>
  </g>
  <g id="g-root-tx_missinga_1hbbis81aoiwhx-stroke-fill" data-item-order="0" transform="translate(173, 218)">
    <g id="tx_missinga_1hbbis81aoiwhx-fill" stroke="none" fill="#b7b7b7">
      <g>
        <text style="font: 15px Roboto, sans-serif; white-space: pre;" font-size="15px" font-family="Roboto, sans-serif">
          <tspan x="20.45" y="31" dominant-baseline="ideographic">Missing Accounts</tspan>
        </text>
      </g>
    </g>
  </g>
  <g id="g-root-tx_deceased_18foijc1aoixam-stroke-fill" data-item-order="0" transform="translate(188, 278)">
    <g id="tx_deceased_18foijc1aoixam-fill" stroke="none" fill="#b7b7b7">
      <g>
        <text style="font: 15px Roboto, sans-serif; white-space: pre;" font-size="15px" font-family="Roboto, sans-serif">
          <tspan x="22.56" y="31" dominant-baseline="ideographic">Deceased Guards</tspan>
        </text>
      </g>
    </g>
  </g>
  <g id="g-root-tx_lackofwi_v4uh941aoivpr-stroke-fill" data-item-order="0" transform="translate(134, 140)">
    <g id="tx_lackofwi_v4uh941aoivpr-fill" stroke="none" fill="#b7b7b7">
      <g>
        <text style="font: bold 20px Roboto, sans-serif; white-space: pre;" font-weight="bold" font-size="20px" font-family="Roboto, sans-serif">
          <tspan x="20.86" y="34" dominant-baseline="ideographic">Lack of Witness </tspan>
          <tspan x="53.17" y="58" dominant-baseline="ideographic">Testimonies</tspan>
        </text>
      </g>
    </g>
  </g>
  <g id="g-root-tx_unraveli_qp0z4o1aoiwi0-stroke-fill" data-item-order="0" transform="translate(236, 50)">
    <g id="tx_unraveli_qp0z4o1aoiwi0-fill" stroke="none" fill="#f4f4f4">
      <g>
        <text style="font: bold 20px Roboto, sans-serif; white-space: pre;" font-weight="bold" font-size="20px" font-family="Roboto, sans-serif">
          <tspan x="13.34" y="34" dominant-baseline="ideographic">Unraveling the Fort Itaipu Mystery</tspan>
        </text>
      </g>
    </g>
    <defs>
      <pattern id="crawlingPattern-0060fba2" x="0" y="0" width="12" height="12" patternUnits="userSpaceOnUse" fill="#0060fba2">
        <use href="#crawlingSymbol"/>
      </pattern>
      <symbol id="crawlingSymbol">
        <g>
          <path d="M -12.5 12.5 l 13 -13 l 6 0 l -13 13 Z M -0.5 12.5 l 13 -13 l 6 0 l -13 13 Z M 11.5 12.5 l 13 -13 l 6 0 l -13 13 Z"/>
        </g>
      </symbol>
      <pattern id="crawlingPattern-3300fc7a" x="0" y="0" width="12" height="12" patternUnits="userSpaceOnUse" fill="#3300fc7a">
        <use href="#crawlingSymbol"/>
      </pattern>
      <pattern id="crawlingPattern-00000024" x="0" y="0" width="12" height="12" patternUnits="userSpaceOnUse" fill="#00000024">
        <use href="#crawlingSymbol"/>
      </pattern>
      <pattern id="crawlingPattern-f9080081" x="0" y="0" width="12" height="12" patternUnits="userSpaceOnUse" fill="#f9080081">
        <use href="#crawlingSymbol"/>
      </pattern>
      <pattern id="crawlingPattern-0000001b" x="0" y="0" width="12" height="12" patternUnits="userSpaceOnUse" fill="#0000001b">
        <use href="#crawlingSymbol"/>
      </pattern>
    </defs>
  </g>
</svg>
