<?xml version='1.0' encoding='utf-8'?>
<svg xmlns="http://www.w3.org/2000/svg" xmlns:xlink="http://www.w3.org/1999/xlink" width="1056" height="708" viewBox="0 0 1056 708" style="fill:none;stroke:none;fill-rule:evenodd;clip-rule:evenodd;stroke-linecap:round;stroke-linejoin:round;stroke-miterlimit:1.5;" version="1.1">
  <style class="text-font-style fontImports" data-font-family="Roboto">@import url('https://fonts.googleapis.com/css2?family=Roboto:wght@400;700&amp;display=block');</style>
  <rect x="0" y="0" width="1056" height="708" fill="#252a34" stroke="none" id="programmatic_background"/>
  <g id="g-root-tf_18efkd41aoepe6-stroke-fill" data-item-order="-697680" transform="translate(18, 12)"/>
  <g id="g-root-sy_4_cu_13ym28o1ao68lq-stroke-fill" data-item-order="-317369" transform="translate(608, 386)">
    <g id="sy_4_cu_13ym28o1ao68lq-stroke" fill="none" stroke-linecap="round" stroke-linejoin="round" stroke-miterlimit="4" stroke="#8769fd" stroke-width="2">
      <g>
        <path d="M 33.850586 154.000488L 45.850586 154.000488M 58.200195 70L 70.200195 70M 87.9997 10L 21.9997 238L 10 238"/>
      </g>
    </g>
  </g>
  <g id="g-root-sy_3_cu_zisk481ao69dz-stroke-fill" data-item-order="-317365" transform="translate(608, 158.00048828125)">
    <g id="sy_3_cu_zisk481ao69dz-stroke" fill="none" stroke-linecap="round" stroke-linejoin="round" stroke-miterlimit="4" stroke="#b7b7b7" stroke-width="2">
      <g>
        <path d="M 33.84668 93.999512L 45.84668 93.999512M 58.195313 177.999512L 70.195313 177.999512M 87.9997 238L 21.9997 10L 10 10"/>
      </g>
    </g>
  </g>
  <g id="g-root-sy_2_cu_zisk481ao69e0-stroke-fill" data-item-order="-317361" transform="translate(296, 385.99951171875)">
    <g id="sy_2_cu_zisk481ao69e0-stroke" fill="none" stroke-linecap="round" stroke-linejoin="round" stroke-miterlimit="4" stroke="#fb6762" stroke-width="2">
      <g>
        <path d="M 33.851563 154.000488L 45.851563 154.000488M 58.200195 70.000488L 70.200195 70.000488M 87.9997 10L 21.9997 238L 10 238"/>
      </g>
    </g>
  </g>
  <g id="g-root-sy_1_cu_v2z1zs1ao6a69-stroke-fill" data-item-order="-317357" transform="translate(296, 158.00048828125)">
    <g id="sy_1_cu_v2z1zs1ao6a69-stroke" fill="none" stroke-linecap="round" stroke-linejoin="round" stroke-miterlimit="4" stroke="#b7b7b7" stroke-width="2">
      <g>
        <path d="M 33.851563 93.999512L 45.851563 93.999512M 58.200195 177.999512L 70.200195 177.999512M 87.9997 238L 21.9997 10L 10 10"/>
      </g>
    </g>
  </g>
  <g id="g-root-sy_-1_line_m7c1qw1ao6ayy-stroke-fill" data-item-order="-317351" transform="translate(32, 386)">
    <g id="sy_-1_line_m7c1qw1ao6ayy-stroke" fill="none" stroke-linecap="round" stroke-linejoin="round" stroke-miterlimit="4" stroke="#f4f4f4" stroke-width="2">
      <g>
        <path d="M 704 10L 10 10"/>
        <path d="M 698 16.5L 704.5 10L 698 3.5" stroke-dasharray="none"/>
      </g>
    </g>
  </g>
  <g id="g-root-tx_unresolv_hs50pk1ao68lf-stroke-fill" data-item-order="0" transform="translate(800, 362)">
    <g id="tx_unresolv_hs50pk1ao68lf-fill" stroke="none" fill="#f4f4f4">
      <g>
        <text style="font: 20px Roboto, sans-serif; white-space: pre;" font-size="20px" font-family="Roboto, sans-serif">
          <tspan x="12" y="34" dominant-baseline="ideographic">Unresolved Fort Itaipu </tspan>
          <tspan x="12" y="58" dominant-baseline="ideographic">Incident</tspan>
        </text>
      </g>
    </g>
  </g>
  <g id="g-root-tx_unstudie_4goic81ao6a6c-stroke-fill" data-item-order="0" transform="translate(452, 422)">
    <g id="tx_unstudie_4goic81ao6a6c-fill" stroke="none" fill="#f4f4f4">
      <g>
        <text style="font: 20px Roboto, sans-serif; white-space: pre;" font-size="20px" font-family="Roboto, sans-serif">
          <tspan x="21.02" y="34" dominant-baseline="ideographic">Unstudied Radiation </tspan>
          <tspan x="137.19" y="58" dominant-baseline="ideographic">Effects</tspan>
        </text>
      </g>
    </g>
  </g>
  <g id="g-root-tx_lackofmo_1um5k2g1ao6arx-stroke-fill" data-item-order="0" transform="translate(476, 506)">
    <g id="tx_lackofmo_1um5k2g1ao6arx-fill" stroke="none" fill="#f4f4f4">
      <g>
        <text style="font: 20px Roboto, sans-serif; white-space: pre;" font-size="20px" font-family="Roboto, sans-serif">
          <tspan x="12.88" y="34" dominant-baseline="ideographic">Lack of Modern </tspan>
          <tspan x="77.19" y="58" dominant-baseline="ideographic">Analysis</tspan>
        </text>
      </g>
    </g>
  </g>
  <g id="g-root-tx_unexplor_1q6yj141ao68ee-stroke-fill" data-item-order="0" transform="translate(356, 590)">
    <g id="tx_unexplor_1q6yj141ao68ee-fill" stroke="none" fill="#f4f4f4">
      <g>
        <text style="font: 20px Roboto, sans-serif; white-space: pre;" font-size="20px" font-family="Roboto, sans-serif">
          <tspan x="21.73" y="34" dominant-baseline="ideographic">Unexplored Technical </tspan>
          <tspan x="131.45" y="58" dominant-baseline="ideographic">Analyses</tspan>
        </text>
      </g>
    </g>
  </g>
  <g id="g-root-tx_unreleas_1hbbis81ao6973-stroke-fill" data-item-order="0" transform="translate(452, 302)">
    <g id="tx_unreleas_1hbbis81ao6973-fill" stroke="none" fill="#f4f4f4">
      <g>
        <text style="font: 20px Roboto, sans-serif; white-space: pre;" font-size="20px" font-family="Roboto, sans-serif">
          <tspan x="100.23" y="34" dominant-baseline="ideographic">Unreleased </tspan>
          <tspan x="16.73" y="58" dominant-baseline="ideographic">Government Reports</tspan>
        </text>
      </g>
    </g>
  </g>
  <g id="g-root-tx_untapped_18foijc1ao6ark-stroke-fill" data-item-order="0" transform="translate(452, 218)">
    <g id="tx_untapped_18foijc1ao6ark-fill" stroke="none" fill="#f4f4f4">
      <g>
        <text style="font: 20px Roboto, sans-serif; white-space: pre;" font-size="20px" font-family="Roboto, sans-serif">
          <tspan x="19.36" y="34" dominant-baseline="ideographic">Untapped Military </tspan>
          <tspan x="99.52" y="58" dominant-baseline="ideographic">Archives</tspan>
        </text>
      </g>
    </g>
  </g>
  <g id="g-root-tx_missingi_zknzdk1ao68eh-stroke-fill" data-item-order="0" transform="translate(356, 134)">
    <g id="tx_missingi_zknzdk1ao68eh-fill" stroke="none" fill="#f4f4f4">
      <g>
        <text style="font: 20px Roboto, sans-serif; white-space: pre;" font-size="20px" font-family="Roboto, sans-serif">
          <tspan x="22.58" y="34" dominant-baseline="ideographic">Missing Investigation </tspan>
          <tspan x="109.91" y="58" dominant-baseline="ideographic">Documents</tspan>
        </text>
      </g>
    </g>
  </g>
  <g id="g-root-tx_unverifi_m97h081ao69ze-stroke-fill" data-item-order="0" transform="translate(116, 434)">
    <g id="tx_unverifi_m97h081ao69ze-fill" stroke="none" fill="#f4f4f4">
      <g>
        <text style="font: 20px Roboto, sans-serif; white-space: pre;" font-size="20px" font-family="Roboto, sans-serif">
          <tspan x="15.09" y="34" dominant-baseline="ideographic">Unverified Injury Claims</tspan>
        </text>
      </g>
    </g>
  </g>
  <g id="g-root-tx_unavaila_htdyvs1ao6arn-stroke-fill" data-item-order="0" transform="translate(116, 506)">
    <g id="tx_unavaila_htdyvs1ao6arn-fill" stroke="none" fill="#f4f4f4">
      <g>
        <text style="font: 20px Roboto, sans-serif; white-space: pre;" font-size="20px" font-family="Roboto, sans-serif">
          <tspan x="18.19" y="34" dominant-baseline="ideographic">Unavailable Hospital </tspan>
          <tspan x="63.5" y="58" dominant-baseline="ideographic">Documentation</tspan>
        </text>
      </g>
    </g>
  </g>
  <g id="g-root-tx_incomple_8ydfq01ao68ek-stroke-fill" data-item-order="0" transform="translate(68, 590)">
    <g id="tx_incomple_8ydfq01ao68ek-fill" stroke="none" fill="#f4f4f4">
      <g>
        <text style="font: 20px Roboto, sans-serif; white-space: pre;" font-size="20px" font-family="Roboto, sans-serif">
          <tspan x="12.86" y="34" dominant-baseline="ideographic">Incomplete Medical </tspan>
          <tspan x="115" y="58" dominant-baseline="ideographic">Records</tspan>
        </text>
      </g>
    </g>
  </g>
  <g id="g-root-tx_missinga_4ijxlk1ao696t-stroke-fill" data-item-order="0" transform="translate(164, 314)">
    <g id="tx_missinga_4ijxlk1ao696t-fill" stroke="none" fill="#f4f4f4">
      <g>
        <text style="font: 20px Roboto, sans-serif; white-space: pre;" font-size="20px" font-family="Roboto, sans-serif">
          <tspan x="16.59" y="34" dominant-baseline="ideographic">Missing Accounts</tspan>
        </text>
      </g>
    </g>
  </g>
  <g id="g-root-tx_deceased_1q87h7c1ao6akm-stroke-fill" data-item-order="0" transform="translate(140, 230)">
    <g id="tx_deceased_1q87h7c1ao6akm-fill" stroke="none" fill="#f4f4f4">
      <g>
        <text style="font: 20px Roboto, sans-serif; white-space: pre;" font-size="20px" font-family="Roboto, sans-serif">
          <tspan x="19.42" y="34" dominant-baseline="ideographic">Deceased Guards</tspan>
        </text>
      </g>
    </g>
  </g>
  <g id="g-root-tx_lackofwi_1hckgyg1ao6bdb-stroke-fill" data-item-order="0" transform="translate(92, 134)">
    <g id="tx_lackofwi_1hckgyg1ao6bdb-fill" stroke="none" fill="#f4f4f4">
      <g>
        <text style="font: 20px Roboto, sans-serif; white-space: pre;" font-size="20px" font-family="Roboto, sans-serif">
          <tspan x="22.02" y="34" dominant-baseline="ideographic">Lack of Witness </tspan>
          <tspan x="54.91" y="58" dominant-baseline="ideographic">Testimonies</tspan>
        </text>
      </g>
    </g>
  </g>
  <g id="g-root-tx_unraveli_1cxdfx41ao68zs-stroke-fill" data-item-order="0" transform="translate(368, 50)">
    <g id="tx_unraveli_1cxdfx41ao68zs-fill" stroke="none" fill="#f4f4f4">
      <g>
        <text style="font: 20px Roboto, sans-serif; white-space: pre;" font-size="20px" font-family="Roboto, sans-serif">
          <tspan x="16.91" y="34" dominant-baseline="ideographic">Unraveling the Fort Itaipu Mystery</tspan>
        </text>
      </g>
    </g>
    <defs>
      <pattern id="crawlingPattern-0000001b" x="0" y="0" width="12" height="12" patternUnits="userSpaceOnUse" fill="#0000001b">
        <use href="#crawlingSymbol"/>
      </pattern>
      <symbol id="crawlingSymbol">
        <g>
          <path d="M -12.5 12.5 l 13 -13 l 6 0 l -13 13 Z M -0.5 12.5 l 13 -13 l 6 0 l -13 13 Z M 11.5 12.5 l 13 -13 l 6 0 l -13 13 Z"/>
        </g>
      </symbol>
    </defs>
  </g>
  <g id="g-root-ic_push_zlwxjs1ao6akp-stroke-fill" data-item-order="0" transform="translate(260, 140)">
    <g id="ic_push_zlwxjs1ao6akp-stroke" fill="none" stroke-linecap="round" stroke-linejoin="round" stroke-miterlimit="4" stroke="#f4f4f4" stroke-width="2">
      <g>
        <path d="M 22.75 17.5C 22.75 19.156855 24.093145 20.5 25.75 20.5C 27.406855 20.5 28.75 19.156855 28.75 17.5C 28.75 15.843145 27.406855 14.5 25.75 14.5C 24.093145 14.5 22.75 15.843145 22.75 17.5M 23.125 23.875L 17.094999 36.685001M 33.25 23.5L 27.25 23.5M 30.25 26.5L 33.25 26.5M 28 39.25L 29.049999 35.605C 29.486732 34.098423 28.689119 32.509731 27.219999 31.960001L 23.860001 30.700001L 25.809999 26.5M 19.84 39.25L 22.585001 33.43L 24.880001 34.285C 25.610895 34.55965 26.008867 35.349068 25.795 36.099998L 24.895 39.25M 10.75 28C 10.75 37.526913 18.473087 45.25 28 45.25C 37.526913 45.25 45.25 37.526913 45.25 28C 45.25 18.473087 37.526913 10.75 28 10.75C 18.473087 10.75 10.75 18.473087 10.75 28M 33.25 29.5L 33.25 19C 33.25 18.171574 33.921574 17.5 34.75 17.5L 36.25 17.5C 37.078426 17.5 37.75 18.171574 37.75 19L 37.75 34M 38.5 39.25L 19.84 39.25M 15.43 16.18L 39.82 40.57"/>
      </g>
    </g>
  </g>
  <g id="g-root-ic_2_8zmdw81ao7nyi-stroke-fill" data-item-order="0" transform="translate(260, 596)">
    <g id="ic_2_8zmdw81ao7nyi-stroke" fill="none" stroke-linecap="round" stroke-linejoin="round" stroke-miterlimit="4" stroke="#f4f4f4" stroke-width="2">
      <g>
        <path d="M 36.324997 25.974998C 38.574997 28.375 38.574997 31.974998 37.074997 34.525002C 35.724998 34.824997 34.375 33.325001 34.224998 32.275002C 32.424999 33.025002 31.075001 35.425003 31.075001 37.974998C 31.075001 41.724998 34.074997 44.875 37.974998 44.875C 41.724998 44.875 44.724998 41.875 44.875 37.974998C 45.025002 31.224998 41.125 27.625 36.324997 25.974998ZM 22.228001 19.257999C 24.45067 19.258001 26.252501 17.456171 26.252501 15.2335C 26.252501 13.01083 24.45067 11.209 22.228001 11.209C 20.005331 11.209 18.203501 13.01083 18.203501 15.2335C 18.203501 17.456171 20.005331 19.258001 22.228001 19.258001ZM 23.851 35.6875L 15.01 32.904999C 13.535501 32.413002 11.899 33.231998 11.407 34.869999C 10.9165 36.343002 11.734 37.980999 13.372 38.4715L 22.2145 41.255501C 23.6875 41.745998 25.3255 40.928497 25.816 39.290501C 26.143 37.816002 25.3255 36.179497 23.851 35.6875ZM 14.851 32.8825L 14.851 28.591C 14.851 24.566502 18.205 21.2125 22.2295 21.2125C 26.252501 21.2125 29.606501 24.566502 29.606501 28.591L 29.606501 32.474499M 18.8755 30.334L 18.8755 34.119999M 25.581999 30.334L 25.581999 33.407501"/>
      </g>
    </g>
  </g>
  <g id="g-root-ic_1_1lxdrrs1ao91j7-stroke-fill" data-item-order="0" transform="translate(572, 140)">
    <g id="ic_1_1lxdrrs1ao91j7-stroke" fill="none" stroke-linecap="round" stroke-linejoin="round" stroke-miterlimit="4" stroke="#f4f4f4" stroke-width="2">
      <g>
        <path d="M 39.25 28.75L 39.25 19.7125C 39.25 14.762648 35.23735 10.75 30.287498 10.75L 12.25 10.75C 11.421573 10.75 10.75 11.421573 10.75 12.25L 10.75 43.75C 10.75 44.578426 11.421573 45.25 12.25 45.25L 16.75 45.25M 31.75 10.87L 31.75 16.75C 31.75 17.578426 32.421574 18.25 33.25 18.25L 39.130001 18.25M 21.25 45.25L 21.25 33.25L 24.25 39.25L 27.25 33.25L 27.25 45.25M 33.25 33.25L 33.25 45.25M 30.25 45.25L 36.25 45.25M 30.25 33.25L 36.25 33.25M 39.25 33.25C 42.563709 33.25 45.25 35.936291 45.25 39.25C 45.25 42.563709 42.563709 45.25 39.25 45.25Z"/>
      </g>
    </g>
  </g>
  <g id="g-root-ic_9_dl25so1aoaioc-stroke-fill" data-item-order="0" transform="translate(572, 596)">
    <g id="ic_9_dl25so1aoaioc-stroke" fill="none" stroke-linecap="round" stroke-linejoin="round" stroke-miterlimit="4" stroke="#f4f4f4" stroke-width="2">
      <g>
        <path d="M 45.197502 31.439501L 45.197502 22.267C 45.198326 20.578321 43.829178 19.209169 42.140499 19.209999C 41.71883 19.210001 41.377003 19.55183 41.377003 19.973499L 41.376999 22.267L 36.790001 22.267L 36.790001 19.209999C 36.790398 19.007248 36.710136 18.812664 36.566906 18.669155C 36.423683 18.525646 36.229256 18.445 36.026501 18.445L 33.732998 18.445L 31.439501 15.388L 21.5035 15.388L 19.209999 17.681499L 16.15 17.681499C 15.947248 17.681103 15.752663 17.761366 15.609154 17.904593C 15.465646 18.047821 15.385 18.242247 15.385 18.445L 15.385 29.146C 15.385 29.568497 15.727502 29.910999 16.15 29.910999L 19.209999 29.910999L 22.267 35.261497L 24.560499 35.261497M 27.6175 15.388L 27.6175 10.8025M 32.968002 10.8025L 22.267 10.8025M 10.8025 17.681499L 10.8025 29.910999M 10.8025 23.7955L 15.388 23.7955M 39.586002 39.586002L 45.197502 45.197502M 29.146 35.261497C 29.145498 38.639351 31.883648 41.377911 35.261497 41.377911C 38.639351 41.377911 41.377502 38.639351 41.377003 35.261497C 41.377502 31.883648 38.639351 29.145092 35.261497 29.145092C 31.883648 29.145092 29.145498 31.883648 29.146 35.261497M 36.790001 22.267L 36.790001 26.041M 41.376999 22.267L 41.376999 26.041M 19.209999 17.681499L 19.209999 29.910999"/>
      </g>
    </g>
  </g>
  <g id="g-root-ic_1_18efkd41aodc0d-stroke-fill" data-item-order="0" transform="translate(740, 362)">
    <g id="ic_1_18efkd41aodc0d-stroke" fill="none" stroke-linecap="round" stroke-linejoin="round" stroke-miterlimit="4" stroke="#f4f4f4" stroke-width="2">
      <g>
        <path d="M 19.5 56.5C 23.91828 56.5 27.5 52.918201 27.5 48.5C 27.5 44.081799 23.91828 40.5 19.5 40.5C 15.08172 40.5 11.5 44.081799 11.5 48.5C 11.5 52.918201 15.08172 56.5 19.5 56.5ZM 10 10M 16.5 33.5L 14.5 11.5M 10 10M 33.5 51.5L 56.5 54.299999M 10 10M 27.5 11.5L 24.5 26.299999M 10 10M 30.5 34.299999L 49.5 11.5M 10 10M 40.5 35.5L 56.5 25.5M 37.5 44.299999L 53.5 44.299999"/>
      </g>
    </g>
  </g>
</svg>
