<svg width="696" height="492" viewBox="0 0 696 492" style="fill:none;stroke:none;fill-rule:evenodd;clip-rule:evenodd;stroke-linecap:round;stroke-linejoin:round;stroke-miterlimit:1.5;" version="1.1" xmlns="http://www.w3.org/2000/svg" xmlns:xlink="http://www.w3.org/1999/xlink"><style class="text-font-style fontImports" data-font-family="Roboto">@import url('https://fonts.googleapis.com/css2?family=Roboto:wght@400;700&amp;display=block');</style><g id="g-root-tf_v7yrjc18gf3lv-stroke-fill" data-item-order="-317856" transform="translate(12, 12)"></g><g id="g-root-sy_-1_Vector_1hckdt418gf4lr-stroke-fill" data-item-order="-7663" transform="translate(206, 149)"><g id="sy_-1_Vector_1hckdt418gf4lr-stroke" fill="none" stroke-linecap="round" stroke-linejoin="round" stroke-miterlimit="4" stroke="#f4f4f4" stroke-width="2"><g><path d="M 10 196L 10 106M 10 100L 10 10"></path></g></g><g id="sy_-1_Vector_1hckdt418gf4lr-stroke-overlay" fill="none" stroke-linecap="round" stroke-linejoin="round" stroke-miterlimit="4" stroke="#3131311a" stroke-width="2" stroke-dasharray="4,6"><animate attributeName="stroke-dashoffset" values="30;0" dur="1s" repeatCount="indefinite" begin="0"></animate><g><path d="M 10 196L 10 106M 10 100L 10 10"></path></g></g></g><g id="g-root-sy_-1_line_1lsdvxk18gf4lc-stroke-fill" data-item-order="-7659" transform="translate(206, 341)"><g id="sy_-1_line_1lsdvxk18gf4lc-stroke" fill="none" stroke-linecap="round" stroke-linejoin="round" stroke-miterlimit="4" stroke="#f4f4f4" stroke-width="2"><g><path d="M 10 94L 10 10"></path><path d="M 3.5 88L 10 94.5L 16.5 88" stroke-dasharray="none"></path></g></g><g id="sy_-1_line_1lsdvxk18gf4lc-stroke-overlay" fill="none" stroke-linecap="round" stroke-linejoin="round" stroke-miterlimit="4" stroke="#3131311a" stroke-width="2" stroke-dasharray="4,6"><animate attributeName="stroke-dashoffset" values="30;0" dur="1s" repeatCount="indefinite" begin="0"></animate><g><path d="M 10 94L 10 10"></path><path d="M 3.5 88L 10 94.5L 16.5 88" stroke-dasharray="none"></path></g></g></g><g id="g-root-sy_3_cu_1cwqvoo18gf5e1-stroke-fill" data-item-order="-7656" transform="translate(203, 335)"><g id="sy_3_cu_1cwqvoo18gf5e1-fill" stroke="none" fill="none"><g><path d="M 13 10L 13 10C 13 10 16 10 16 13L 16 13C 16 13 16 16 13 16L 13 16C 13 16 10 16 10 13L 10 13C 10 13 10 10 13 10"></path></g></g><g id="sy_3_cu_1cwqvoo18gf5e1-stroke" fill="none" stroke-linecap="round" stroke-linejoin="round" stroke-miterlimit="4" stroke="#43dd93" stroke-width="2"><g><path d="M 13 10L 13 10C 13 10 16 10 16 13L 16 13C 16 13 16 16 13 16L 13 16C 13 16 10 16 10 13L 10 13C 10 13 10 10 13 10"></path></g></g><g id="sy_3_cu_1cwqvoo18gf5e1-stroke-overlay" fill="none" stroke-linecap="round" stroke-linejoin="round" stroke-miterlimit="4" stroke="#00c5676e" stroke-width="2" stroke-dasharray="4,6"><animate attributeName="stroke-dashoffset" values="30;0" dur="1s" repeatCount="indefinite" begin="0"></animate><g><path d="M 13 10L 13 10C 13 10 16 10 16 13L 16 13C 16 13 16 16 13 16L 13 16C 13 16 10 16 10 13L 10 13C 10 13 10 10 13 10"></path></g></g><g id="sy_3_cu_1cwqvoo18gf5e1-stroke" fill="none" stroke-linecap="round" stroke-linejoin="round" stroke-miterlimit="4" stroke="#43dd93" stroke-width="2"><g><path d="M 37 13L 16 13"></path></g></g><g id="sy_3_cu_1cwqvoo18gf5e1-stroke-overlay" fill="none" stroke-linecap="round" stroke-linejoin="round" stroke-miterlimit="4" stroke="#00c5676e" stroke-width="2" stroke-dasharray="4,6"><animate attributeName="stroke-dashoffset" values="30;0" dur="1s" repeatCount="indefinite" begin="0"></animate><g><path d="M 37 13L 16 13"></path></g></g></g><g id="g-root-sy_2_cu_18gxdk818gf66a-stroke-fill" data-item-order="-7652" transform="translate(203, 239)"><g id="sy_2_cu_18gxdk818gf66a-fill" stroke="none" fill="none"><g><path d="M 13 10L 13 10C 13 10 16 10 16 13L 16 13C 16 13 16 16 13 16L 13 16C 13 16 10 16 10 13L 10 13C 10 13 10 10 13 10"></path></g></g><g id="sy_2_cu_18gxdk818gf66a-stroke" fill="none" stroke-linecap="round" stroke-linejoin="round" stroke-miterlimit="4" stroke="#b7b7b7" stroke-width="2"><g><path d="M 13 10L 13 10C 13 10 16 10 16 13L 16 13C 16 13 16 16 13 16L 13 16C 13 16 10 16 10 13L 10 13C 10 13 10 10 13 10"></path></g></g><g id="sy_2_cu_18gxdk818gf66a-stroke-overlay" fill="none" stroke-linecap="round" stroke-linejoin="round" stroke-miterlimit="4" stroke="#0000001b" stroke-width="2" stroke-dasharray="4,6"><animate attributeName="stroke-dashoffset" values="30;0" dur="1s" repeatCount="indefinite" begin="0"></animate><g><path d="M 13 10L 13 10C 13 10 16 10 16 13L 16 13C 16 13 16 16 13 16L 13 16C 13 16 10 16 10 13L 10 13C 10 13 10 10 13 10"></path></g></g><g id="sy_2_cu_18gxdk818gf66a-stroke" fill="none" stroke-linecap="round" stroke-linejoin="round" stroke-miterlimit="4" stroke="#b7b7b7" stroke-width="2"><g><path d="M 37 13L 16 13"></path></g></g><g id="sy_2_cu_18gxdk818gf66a-stroke-overlay" fill="none" stroke-linecap="round" stroke-linejoin="round" stroke-miterlimit="4" stroke="#0000001b" stroke-width="2" stroke-dasharray="4,6"><animate attributeName="stroke-dashoffset" values="30;0" dur="1s" repeatCount="indefinite" begin="0"></animate><g><path d="M 37 13L 16 13"></path></g></g></g><g id="g-root-sy_1_cu_zlwueg18gf3t7-stroke-fill" data-item-order="-7648" transform="translate(203, 143)"><g id="sy_1_cu_zlwueg18gf3t7-fill" stroke="none" fill="none"><g><path d="M 13 10L 13 10C 13 10 16 10 16 13L 16 13C 16 13 16 16 13 16L 13 16C 13 16 10 16 10 13L 10 13C 10 13 10 10 13 10"></path></g></g><g id="sy_1_cu_zlwueg18gf3t7-stroke" fill="none" stroke-linecap="round" stroke-linejoin="round" stroke-miterlimit="4" stroke="#4f91fc" stroke-width="2"><g><path d="M 13 10L 13 10C 13 10 16 10 16 13L 16 13C 16 13 16 16 13 16L 13 16C 13 16 10 16 10 13L 10 13C 10 13 10 10 13 10"></path></g></g><g id="sy_1_cu_zlwueg18gf3t7-stroke-overlay" fill="none" stroke-linecap="round" stroke-linejoin="round" stroke-miterlimit="4" stroke="#0060fb7c" stroke-width="2" stroke-dasharray="4,6"><animate attributeName="stroke-dashoffset" values="30;0" dur="1s" repeatCount="indefinite" begin="0"></animate><g><path d="M 13 10L 13 10C 13 10 16 10 16 13L 16 13C 16 13 16 16 13 16L 13 16C 13 16 10 16 10 13L 10 13C 10 13 10 10 13 10"></path></g></g><g id="sy_1_cu_zlwueg18gf3t7-stroke" fill="none" stroke-linecap="round" stroke-linejoin="round" stroke-miterlimit="4" stroke="#4f91fc" stroke-width="2"><g><path d="M 37 13L 16 13"></path></g></g><g id="sy_1_cu_zlwueg18gf3t7-stroke-overlay" fill="none" stroke-linecap="round" stroke-linejoin="round" stroke-miterlimit="4" stroke="#0060fb7c" stroke-width="2" stroke-dasharray="4,6"><animate attributeName="stroke-dashoffset" values="30;0" dur="1s" repeatCount="indefinite" begin="0"></animate><g><path d="M 37 13L 16 13"></path></g></g></g><g id="g-root-tx_the1947u_v63ca018gf4lg-stroke-fill" data-item-order="0" transform="translate(116, 50)"><g id="tx_the1947u_v63ca018gf4lg-fill" stroke="none" fill="#f4f4f4"><g><text style="font: 20px Roboto, sans-serif; white-space: pre;" font-size="20px" font-family="Roboto, sans-serif"><tspan x="13.39" y="34" dominant-baseline="ideographic">The 1947 UFO Sighting That Shaped History</tspan></text></g></g><g id="tx_the1947u_v63ca018gf4lg-fill-overlay" stroke="none" fill="url(#crawlingPattern-0000001b)"><g><text style="font: 20px Roboto, sans-serif; white-space: pre;" font-size="20px" font-family="Roboto, sans-serif"><tspan x="13.39" y="34" dominant-baseline="ideographic">The 1947 UFO Sighting That Shaped History</tspan></text></g></g></g><g id="g-root-tx_johnsons_magc1418gf5e5-stroke-fill" data-item-order="0" transform="translate(254, 314)"><g id="tx_johnsons_magc1418gf5e5-fill" stroke="none" fill="#f4f4f4"><g><text style="font: 20px Roboto, sans-serif; white-space: pre;" font-size="20px" font-family="Roboto, sans-serif"><tspan x="12" y="34" dominant-baseline="ideographic">Johnson's report classified as first </tspan><tspan x="12" y="58" dominant-baseline="ideographic">unexplained UFO</tspan></text></g></g><g id="tx_johnsons_magc1418gf5e5-fill-overlay" stroke="none" fill="url(#crawlingPattern-0000001b)"><g><text style="font: 20px Roboto, sans-serif; white-space: pre;" font-size="20px" font-family="Roboto, sans-serif"><tspan x="12" y="34" dominant-baseline="ideographic">Johnson's report classified as first </tspan><tspan x="12" y="58" dominant-baseline="ideographic">unexplained UFO</tspan></text></g></g></g><g id="g-root-tx_johnsons_8zmaqw18gf3ta-stroke-fill" data-item-order="0" transform="translate(254, 218)"><g id="tx_johnsons_8zmaqw18gf3ta-fill" stroke="none" fill="#f4f4f4"><g><text style="font: 20px Roboto, sans-serif; white-space: pre;" font-size="20px" font-family="Roboto, sans-serif"><tspan x="12" y="34" dominant-baseline="ideographic">Johnson's report received by Fourth Air </tspan><tspan x="12" y="58" dominant-baseline="ideographic">Force</tspan></text></g></g><g id="tx_johnsons_8zmaqw18gf3ta-fill-overlay" stroke="none" fill="url(#crawlingPattern-0000001b)"><g><text style="font: 20px Roboto, sans-serif; white-space: pre;" font-size="20px" font-family="Roboto, sans-serif"><tspan x="12" y="34" dominant-baseline="ideographic">Johnson's report received by Fourth Air </tspan><tspan x="12" y="58" dominant-baseline="ideographic">Force</tspan></text></g></g></g><g id="g-root-tx_fredmjoh_4jssmg18gf4lj-stroke-fill" data-item-order="0" transform="translate(254, 122)"><g id="tx_fredmjoh_4jssmg18gf4lj-fill" stroke="none" fill="#f4f4f4"><g><text style="font: 20px Roboto, sans-serif; white-space: pre;" font-size="20px" font-family="Roboto, sans-serif"><tspan x="12" y="34" dominant-baseline="ideographic">Fred M. Johnson observes UFOs on Mount </tspan><tspan x="12" y="58" dominant-baseline="ideographic">Adams</tspan></text></g></g><g id="tx_fredmjoh_4jssmg18gf4lj-fill-overlay" stroke="none" fill="url(#crawlingPattern-0000001b)"><g><text style="font: 20px Roboto, sans-serif; white-space: pre;" font-size="20px" font-family="Roboto, sans-serif"><tspan x="12" y="34" dominant-baseline="ideographic">Fred M. Johnson observes UFOs on Mount </tspan><tspan x="12" y="58" dominant-baseline="ideographic">Adams</tspan></text></g></g></g><g id="g-root-tx_post1947_1q9gc8818gf5zc-stroke-fill" data-item-order="0" transform="translate(74, 326)"><g id="tx_post1947_1q9gc8818gf5zc-fill" stroke="none" fill="#43dd93"><g><text style="font: bold 20px Roboto, sans-serif; white-space: pre;" font-weight="bold" font-size="20px" font-family="Roboto, sans-serif"><tspan x="21.13" y="34" dominant-baseline="ideographic">Post-1947</tspan></text></g></g><g id="tx_post1947_1q9gc8818gf5zc-fill-overlay" stroke="none" fill="url(#crawlingPattern-00b15c75)"><g><text style="font: bold 20px Roboto, sans-serif; white-space: pre;" font-weight="bold" font-size="20px" font-family="Roboto, sans-serif"><tspan x="21.13" y="34" dominant-baseline="ideographic">Post-1947</tspan></text></g></g></g><g id="g-root-tx_august22_1lu9b6w18gf3lt-stroke-fill" data-item-order="0" transform="translate(26, 230)"><g id="tx_august22_1lu9b6w18gf3lt-fill" stroke="none" fill="#b7b7b7"><g><text style="font: bold 20px Roboto, sans-serif; white-space: pre;" font-weight="bold" font-size="20px" font-family="Roboto, sans-serif"><tspan x="16.08" y="34" dominant-baseline="ideographic">August 22, 1947</tspan></text></g></g><g id="tx_august22_1lu9b6w18gf3lt-fill-overlay" stroke="none" fill="url(#crawlingPattern-00000024)"><g><text style="font: bold 20px Roboto, sans-serif; white-space: pre;" font-weight="bold" font-size="20px" font-family="Roboto, sans-serif"><tspan x="16.08" y="34" dominant-baseline="ideographic">August 22, 1947</tspan></text></g></g></g><g id="g-root-tx_june2419_1cymay018gf4ei-stroke-fill" data-item-order="0" transform="translate(50, 134)"><g id="tx_june2419_1cymay018gf4ei-fill" stroke="none" fill="#4f91fc"><g><text style="font: bold 20px Roboto, sans-serif; white-space: pre;" font-weight="bold" font-size="20px" font-family="Roboto, sans-serif"><tspan x="11.89" y="34" dominant-baseline="ideographic">June 24, 1947</tspan></text></g></g><defs><pattern id="crawlingPattern-0000001b" x="0" y="0" width="12" height="12" patternUnits="userSpaceOnUse" fill="#0000001b"><use href="#crawlingSymbol"></use></pattern><symbol id="crawlingSymbol"><g><animateTransform attributeName="transform" type="translate" from="0 0" to="-12 0" dur="0.4s" repeatCount="indefinite"></animateTransform><path d="M -12.5 12.5 l 13 -13 l 6 0 l -13 13 Z M -0.5 12.5 l 13 -13 l 6 0 l -13 13 Z M 11.5 12.5 l 13 -13 l 6 0 l -13 13 Z"></path></g></symbol><pattern id="crawlingPattern-00b15c75" x="0" y="0" width="12" height="12" patternUnits="userSpaceOnUse" fill="#00b15c75"><use href="#crawlingSymbol"></use></pattern><pattern id="crawlingPattern-00000024" x="0" y="0" width="12" height="12" patternUnits="userSpaceOnUse" fill="#00000024"><use href="#crawlingSymbol"></use></pattern><pattern id="crawlingPattern-0060fba2" x="0" y="0" width="12" height="12" patternUnits="userSpaceOnUse" fill="#0060fba2"><use href="#crawlingSymbol"></use></pattern></defs><g id="tx_june2419_1cymay018gf4ei-fill-overlay" stroke="none" fill="url(#crawlingPattern-0060fba2)"><g><text style="font: bold 20px Roboto, sans-serif; white-space: pre;" font-weight="bold" font-size="20px" font-family="Roboto, sans-serif"><tspan x="11.89" y="34" dominant-baseline="ideographic">June 24, 1947</tspan></text></g></g></g></svg>