<?xml version='1.0' encoding='utf-8'?>
<svg xmlns="http://www.w3.org/2000/svg" xmlns:xlink="http://www.w3.org/1999/xlink" width="744" height="480" viewBox="0 0 744 480" style="fill:none;stroke:none;fill-rule:evenodd;clip-rule:evenodd;stroke-linecap:round;stroke-linejoin:round;stroke-miterlimit:1.5;" version="1.1">
  <style class="text-font-style fontImports" data-font-family="Roboto">@import url('https://fonts.googleapis.com/css2?family=Roboto:wght@400;700&amp;display=block');</style>
  <rect x="0" y="0" width="744" height="4.8E+2" fill="#252a34" stroke="none" id="programmatic_background"/>
  <g id="g-root-tf_140hhig18g85jj-stroke-fill" data-item-order="-322848" transform="translate(18, 12)">
    <g id="tf_140hhig18g85jj-fill" stroke="none" fill="#2c2c2c">
      <g>
        <path d="M 0 0L 708 0L 708 456L 0 456Z"/>
      </g>
    </g>
    <defs>
      <pattern id="crawlingPattern-00d16d21" x="0" y="0" width="12" height="12" patternUnits="userSpaceOnUse" fill="#00d16d21">
        <use href="#crawlingSymbol"/>
      </pattern>
      <symbol id="crawlingSymbol">
        <g>
          <path d="M -12.5 12.5 l 13 -13 l 6 0 l -13 13 Z M -0.5 12.5 l 13 -13 l 6 0 l -13 13 Z M 11.5 12.5 l 13 -13 l 6 0 l -13 13 Z"/>
        </g>
      </symbol>
      <pattern id="crawlingPattern-8484841a" x="0" y="0" width="12" height="12" patternUnits="userSpaceOnUse" fill="#8484841a">
        <use href="#crawlingSymbol"/>
      </pattern>
      <pattern id="crawlingPattern-0060fb20" x="0" y="0" width="12" height="12" patternUnits="userSpaceOnUse" fill="#0060fb20">
        <use href="#crawlingSymbol"/>
      </pattern>
      <pattern id="crawlingPattern-0000001b" x="0" y="0" width="12" height="12" patternUnits="userSpaceOnUse" fill="#0000001b">
        <use href="#crawlingSymbol"/>
      </pattern>
      <pattern id="crawlingPattern-00ff873a" x="0" y="0" width="12" height="12" patternUnits="userSpaceOnUse" fill="#00ff873a">
        <use href="#crawlingSymbol"/>
      </pattern>
      <pattern id="crawlingPattern-0059ff37" x="0" y="0" width="12" height="12" patternUnits="userSpaceOnUse" fill="#0059ff37">
        <use href="#crawlingSymbol"/>
      </pattern>
      <pattern id="crawlingPattern-00b15c75" x="0" y="0" width="12" height="12" patternUnits="userSpaceOnUse" fill="#00b15c75">
        <use href="#crawlingSymbol"/>
      </pattern>
      <pattern id="crawlingPattern-00000024" x="0" y="0" width="12" height="12" patternUnits="userSpaceOnUse" fill="#00000024">
        <use href="#crawlingSymbol"/>
      </pattern>
      <pattern id="crawlingPattern-0060fba2" x="0" y="0" width="12" height="12" patternUnits="userSpaceOnUse" fill="#0060fba2">
        <use href="#crawlingSymbol"/>
      </pattern>
      <pattern id="crawlingPattern-c1c1c11a" x="0" y="0" width="12" height="12" patternUnits="userSpaceOnUse" fill="#c1c1c11a">
        <use href="#crawlingSymbol"/>
      </pattern>
      <pattern id="crawlingPattern-5f5f5f1a" x="0" y="0" width="12" height="12" patternUnits="userSpaceOnUse" fill="#5f5f5f1a">
        <use href="#crawlingSymbol"/>
      </pattern>
    </defs>
  </g>
  <g id="g-root-sy_-1_Vector_4pf2eg18gkrnr-stroke-fill" data-item-order="-21595" transform="translate(236, 182)">
    <g id="sy_-1_Vector_4pf2eg18gkrnr-stroke" fill="none" stroke-linecap="round" stroke-linejoin="round" stroke-miterlimit="4" stroke="#f4f4f4" stroke-width="2">
      <g>
        <path d="M 10 130L 10 106M 10 34L 10 10"/>
      </g>
    </g>
  </g>
  <g id="g-root-sy_-1_line_4pf2eg18gkrns-stroke-fill" data-item-order="-21591" transform="translate(236, 374)">
    <g id="sy_-1_line_4pf2eg18gkrns-stroke" fill="none" stroke-linecap="round" stroke-linejoin="round" stroke-miterlimit="4" stroke="#f4f4f4" stroke-width="2">
      <g>
        <path d="M 10 44L 10 10"/>
        <path d="M 3.5 38L 10 44.5L 16.5 38" stroke-dasharray="none"/>
      </g>
    </g>
  </g>
  <g id="g-root-cr_3_cr-big_9lka018gksg1-stroke-fill" data-item-order="-21588" transform="translate(200, 302)">
    <g id="cr_3_cr-big_9lka018gksg1-fill" stroke="none" fill="#43dd93">
      <g>
        <path d="M 10 46C 10 65.882251 26.117749 82 46 82C 65.882251 82 82 65.882251 82 46C 82 26.117749 65.882251 10 46 10C 26.117749 10 10 26.117749 10 46"/>
      </g>
    </g>
    <g id="cr_3_cr-big_9lka018gksg1-stroke" fill="none" stroke-linecap="round" stroke-linejoin="round" stroke-miterlimit="4" stroke="#2c2c2c" stroke-width="2">
      <g>
        <path d="M 10 46C 10 65.882251 26.117749 82 46 82C 65.882251 82 82 65.882251 82 46C 82 26.117749 65.882251 10 46 10C 26.117749 10 10 26.117749 10 46"/>
      </g>
    </g>
  </g>
  <g id="g-root-cr_2_cr-big_1q5phpk18gm4ga-stroke-fill" data-item-order="-21584" transform="translate(200, 206)">
    <g id="cr_2_cr-big_1q5phpk18gm4ga-fill" stroke="none" fill="#b7b7b7">
      <g>
        <path d="M 10 46C 10 65.882251 26.117749 82 46 82C 65.882251 82 82 65.882251 82 46C 82 26.117749 65.882251 10 46 10C 26.117749 10 10 26.117749 10 46"/>
      </g>
    </g>
    <g id="cr_2_cr-big_1q5phpk18gm4ga-stroke" fill="none" stroke-linecap="round" stroke-linejoin="round" stroke-miterlimit="4" stroke="#2c2c2c" stroke-width="2">
      <g>
        <path d="M 10 46C 10 65.882251 26.117749 82 46 82C 65.882251 82 82 65.882251 82 46C 82 26.117749 65.882251 10 46 10C 26.117749 10 10 26.117749 10 46"/>
      </g>
    </g>
  </g>
  <g id="g-root-cr_1_cr-big_1q5phpk18gm4gb-stroke-fill" data-item-order="-21580" transform="translate(200, 110)">
    <g id="cr_1_cr-big_1q5phpk18gm4gb-fill" stroke="none" fill="#4f91fc">
      <g>
        <path d="M 10 46C 10 65.882251 26.117749 82 46 82C 65.882251 82 82 65.882251 82 46C 82 26.117749 65.882251 10 46 10C 26.117749 10 10 26.117749 10 46"/>
      </g>
    </g>
    <g id="cr_1_cr-big_1q5phpk18gm4gb-stroke" fill="none" stroke-linecap="round" stroke-linejoin="round" stroke-miterlimit="4" stroke="#2c2c2c" stroke-width="2">
      <g>
        <path d="M 10 46C 10 65.882251 26.117749 82 46 82C 65.882251 82 82 65.882251 82 46C 82 26.117749 65.882251 10 46 10C 26.117749 10 10 26.117749 10 46"/>
      </g>
    </g>
  </g>
  <g id="g-root-ic_ufo_1q6yfvs18gm6mj-stroke-fill" data-item-order="-2304" transform="translate(212, 314)">
    <g id="ic_ufo_1q6yfvs18gm6mj-fill" stroke="none" fill="#f4f4f4">
      <g>
        <path d="M 50.779999 39.48C 50.49268 38.408726 49.391396 37.77314 48.32008 38.060295C 47.24876 38.34745 46.613007 39.448639 46.899998 40.519997L 51.139999 56.52C 51.30584 57.231823 51.846767 57.796497 52.550816 57.992748C 53.25486 58.188999 54.009895 57.985573 54.520046 57.462177C 55.030201 56.938786 55.214222 56.178791 55 55.48ZM 19.82 38C 18.754391 37.720551 17.663445 38.355446 17.380001 39.419998L 13.14 55.419998C 12.925778 56.11879 13.109798 56.878784 13.619952 57.40218C 14.130106 57.925571 14.885139 58.129002 15.589186 57.932751C 16.293234 57.7365 16.83416 57.171825 17 56.459999L 21.24 40.459999C 21.380281 39.945396 21.309196 39.39608 21.042547 38.934139C 20.775898 38.472198 20.335775 38.135902 19.82 38ZM 38 49.860001C 39.203453 49.748383 40.123898 48.738621 40.123898 47.529999C 40.123898 46.321381 39.203453 45.311615 38 45.200001L 31.08 45.200001C 29.876545 45.311615 28.9561 46.321381 28.9561 47.529999C 28.9561 48.738621 29.876545 49.748383 31.08 49.860001L 32.239998 49.860001L 32.239998 50.18L 29.200001 54.299999C 28.437847 55.332775 28.657228 56.787849 29.690001 57.550003C 30.722773 58.312153 32.177849 58.092773 32.940002 57.060001L 34.599998 54.82L 36.200001 57.080002C 36.978722 58.129345 38.460663 58.348724 39.510002 57.570004C 40.559341 56.791279 40.778725 55.309341 40 54.260002L 37 50.16L 37 49.860001ZM 38 40.239998C 38.008102 38.822594 37.160507 37.540237 35.85331 36.992199C 34.546112 36.44416 33.03743 36.738647 32.032288 37.738045C 31.027142 38.73745 30.724012 40.244415 31.264553 41.554733C 31.805094 42.865051 33.082569 43.719978 34.5 43.720001C 35.426414 43.725323 36.316711 43.361034 36.973671 42.707829C 37.63063 42.054626 38.000015 41.166428 38 40.239998ZM 56.959999 29C 57.256584 29.003077 57.540375 28.879374 57.739998 28.659998C 57.943413 28.447105 58.032631 28.149708 57.98 27.860001C 57.289928 23.844007 53.774273 20.931278 49.700001 21L 18.299999 21C 14.218212 20.921293 10.691198 23.836391 10 27.860001C 9.947369 28.149708 10.036588 28.447105 10.24 28.66C 10.439621 28.879374 10.723413 29.003077 11.02 28.999998L 13.28 29C 13.484316 29.002653 13.666457 29.12936 13.74 29.32C 13.899547 29.722376 14.079787 30.116236 14.280001 30.500002C 16.065369 33.888172 19.580214 36.009026 23.41 36.009026C 27.239786 36.009026 30.754631 33.888172 32.540001 30.5C 32.740211 30.116236 32.920456 29.722376 33.080002 29.320002C 33.148697 29.125612 33.333855 28.996807 33.540001 28.999998L 34.459999 29C 34.666145 28.996807 34.851299 29.125612 34.919998 29.32C 35.079548 29.722376 35.259789 30.116236 35.459999 30.500002C 37.245369 33.888172 40.760216 36.009026 44.59 36.009026C 48.419785 36.009026 51.934631 33.888172 53.720001 30.5C 53.920216 30.116236 54.100456 29.722376 54.260002 29.320002C 54.328697 29.125612 54.513851 28.996807 54.719997 28.999998ZM 23.4 32C 21.569786 31.983295 19.832561 31.191006 18.619999 29.82C 18.522778 29.660299 18.522778 29.4597 18.619999 29.299999C 18.686577 29.141253 18.830135 29.027918 19 29L 27.799999 29C 27.999443 28.999306 28.180223 29.117207 28.26 29.299999C 28.367369 29.456707 28.367369 29.663294 28.26 29.82C 27.033712 31.218311 25.259802 32.014015 23.400002 32ZM 44.599998 32C 42.768101 31.990932 41.027901 31.197287 39.82 29.82C 39.712631 29.663294 39.712631 29.456707 39.82 29.299999C 39.899776 29.117207 40.080559 28.999306 40.279999 29L 49.080002 29C 49.272152 29.007078 49.443218 29.123714 49.52 29.299999C 49.627369 29.456707 49.627369 29.663294 49.52 29.82C 48.280025 31.234344 46.480667 32.031624 44.600002 32ZM 34 10C 28.477455 9.948547 23.296272 12.666791 20.200001 17.24C 20.121464 17.397415 20.121464 17.582584 20.200001 17.74C 20.291019 17.897736 20.457924 17.996361 20.639999 18L 47.5 18C 47.703251 18.01899 47.898815 17.917297 47.999996 17.74C 48.078533 17.582584 48.078533 17.397415 48 17.24C 44.864662 12.606876 39.593025 9.880686 34 10Z"/>
      </g>
    </g>
  </g>
  <g id="g-root-ic_1_9lka018gnj7x-stroke-fill" data-item-order="-2304" transform="translate(212, 218)">
    <g id="ic_1_9lka018gnj7x-fill" stroke="none" fill="#f4f4f4">
      <g>
        <path d="M 50 48L 50 30C 50 28.89543 49.104568 28 48 28L 12 28C 10.895431 28 10 28.89543 10 30L 10 48C 10 49.104568 10.895431 50 12 50L 48 50C 49.104568 50 50 49.104568 50 48ZM 28.24 42C 28.240427 44.341988 26.34199 46.240772 24 46.240772C 21.658009 46.240772 19.759571 44.341988 19.759998 42C 19.76 41.315166 20.315166 40.760002 21 40.760002C 21.684834 40.760002 22.24 41.315166 22.24 42C 22.239864 42.972115 23.027884 43.760242 24 43.760242C 24.972115 43.760242 25.760134 42.972115 25.76 42L 25.76 33C 25.76 32.315166 26.315166 31.76 27 31.76C 27.684834 31.76 28.24 32.315166 28.24 33ZM 32.860001 36.739998L 36.540001 39.18C 37.934517 40.135845 38.549576 41.884632 38.060413 43.502979C 37.571251 45.121323 36.090492 46.236629 34.400002 46.259998L 31 46.259998C 30.370413 46.180202 29.89843 45.644623 29.89843 45.010002C 29.89843 44.375378 30.370413 43.839798 31 43.760002L 34.400002 43.759998C 35.001839 43.759285 35.531635 43.363091 35.702454 42.786007C 35.873268 42.20892 35.644482 41.588188 35.139999 41.260002L 31.459999 38.82C 30.393608 38.095718 29.756571 36.889091 29.76 35.599998C 29.759998 33.479225 31.479225 31.759998 33.599998 31.759998L 37 31.76C 37.629585 31.839796 38.10157 32.375378 38.10157 33.010002C 38.10157 33.644623 37.629585 34.180206 37 34.260002L 33.599998 34.260002C 32.856636 34.259918 32.250931 34.856712 32.239998 35.599998C 32.243965 36.059528 32.47641 36.486935 32.860001 36.739998ZM 57.419998 21.42L 46.580002 10.58C 46.207478 10.210511 45.704681 10.00221 45.18 10L 22 10C 19.790861 10 18 11.790861 18 14L 18 25.5C 18 25.776142 18.223858 26 18.5 26L 21.5 26C 21.776142 26 22 25.776142 22 25.5L 22 15C 22 14.447716 22.447716 14 23 14L 43.5 14C 43.776142 14 44 14.223858 44 14.5L 44 20C 44 22.209139 45.790859 24 48 24L 53.5 24C 53.776142 24 54 24.223858 54 24.5L 54 53C 54 53.552284 53.552284 54 53 54L 22.5 54C 22.223858 54 22 53.776142 22 53.5L 22 52.5C 22 52.223858 21.776142 52 21.5 52L 18.5 52C 18.223858 52 18 52.223858 18 52.5L 18 54C 18 56.209141 19.790861 58 22 58L 54 58C 56.209141 58 58 56.209141 58 54L 58 22.82C 57.997791 22.295321 57.78949 21.792522 57.419998 21.42Z"/>
      </g>
    </g>
  </g>
  <g id="g-root-ic_pers_3zdns18g5a1a-stroke-fill" data-item-order="-2304" transform="translate(212, 122)">
    <g id="ic_pers_3zdns18g5a1a-fill" stroke="none" fill="#f4f4f4">
      <g>
        <path d="M 16 12C 16 10.895431 15.104569 10 14 10L 12 10C 10.895431 10 10 10.895431 10 12L 10 22C 10 23.104568 10.895431 24 12 24L 14 24C 15.104569 24 16 23.104568 16 22ZM 18 20.58C 17.998692 20.723301 18.056581 20.86079 18.16 20.959999C 18.269445 21.056433 18.415546 21.100262 18.560001 21.08L 22.92 20.560001C 23.111362 20.546833 23.276512 20.421003 23.34 20.24C 23.822111 18.914991 24.849533 17.860504 26.161558 17.344109C 27.473585 16.827713 28.944113 16.899044 30.200001 17.540001C 30.3547 17.629316 30.5453 17.629316 30.700001 17.540001C 30.849852 17.453491 30.941547 17.293024 30.939999 17.119999L 30.940001 15.42C 30.942581 14.367872 30.129551 13.493647 29.08 13.42L 18.540001 12.74C 18.40144 12.717061 18.260256 12.761645 18.16 12.86C 18.063236 12.95557 18.006096 13.084133 18 13.22ZM 10 10M 18.939999 35.580002L 10.18 55.18C 9.806145 56.16835 10.265658 57.276993 11.229082 57.711063C 12.192506 58.14513 13.327366 57.754833 13.82 56.82L 18.939999 45.380001L 18.939999 56C 18.939999 57.104568 19.83543 58 20.939999 58C 22.044571 58 22.939999 57.104568 22.939999 56L 22.939999 45.259998L 28.18 56.82C 28.672634 57.754833 29.807495 58.14513 30.770918 57.711063C 31.734343 57.276993 32.193855 56.16835 31.82 55.18L 22.939999 35.559998L 22.939999 23.139999C 22.931637 22.994762 22.867081 22.858479 22.76 22.76C 22.654293 22.671125 22.517574 22.627953 22.379999 22.639999L 19.380001 23C 19.127518 23.030512 18.938164 23.245687 18.939999 23.5ZM 36.5 16.5C 36.5 18.985281 38.514717 21 41 21C 43.485283 21 45.5 18.985281 45.5 16.5C 45.5 14.014719 43.485283 12 41 12C 38.514717 12 36.5 14.014719 36.5 16.5M 48.400002 23.200001C 47.422089 21.898952 45.585133 21.614979 44.260002 22.560001L 38.639999 26.559999C 37.297207 27.523344 35.4282 27.219296 34.459999 25.880001L 30.459999 20.26C 29.491817 18.924006 27.630615 18.61232 26.280001 19.559999C 25.629128 20.018597 25.188843 20.718588 25.057339 21.50386C 24.925833 22.289133 25.114044 23.094376 25.580002 23.740002L 29.58 29.360001C 30.95923 31.308155 33.058792 32.62545 35.412971 33.019691C 37.767151 33.413933 40.181328 32.852524 42.119999 31.459999L 44.959999 29.459999C 45.188564 29.309614 45.494568 29.362072 45.659996 29.579998L 51.400002 37.200001C 51.794796 37.716484 52.005947 38.349937 52 39L 52 55C 52 56.656857 53.343147 58 55 58C 56.656857 58 58 56.656857 58 55L 58 39C 57.994286 37.053596 57.36327 35.160545 56.200001 33.599998Z"/>
      </g>
    </g>
  </g>
  <g id="g-root-tx_the1947u_1lpvzl418gm58k-stroke-fill" data-item-order="0" transform="translate(140, 50)">
    <g id="tx_the1947u_1lpvzl418gm58k-fill" stroke="none" fill="#f4f4f4">
      <g>
        <text style="font: 20px Roboto, sans-serif; white-space: pre;" font-size="20px" font-family="Roboto, sans-serif">
          <tspan x="13.39" y="34" dominant-baseline="ideographic">The 1947 UFO Sighting That Shaped History</tspan>
        </text>
      </g>
    </g>
  </g>
  <g id="g-root-tx_johnsons_18efh7s18gm6th-stroke-fill" data-item-order="0" transform="translate(296, 314)">
    <g id="tx_johnsons_18efh7s18gm6th-fill" stroke="none" fill="#dffff0">
      <g>
        <text style="font: 20px Roboto, sans-serif; white-space: pre;" font-size="20px" font-family="Roboto, sans-serif">
          <tspan x="12" y="34" dominant-baseline="ideographic">Johnson's report classified as first </tspan>
          <tspan x="12" y="58" dominant-baseline="ideographic">unexplained UFO</tspan>
        </text>
      </g>
    </g>
  </g>
  <g id="g-root-tx_johnsons_v3lfxk18gm58m-stroke-fill" data-item-order="0" transform="translate(296, 218)">
    <g id="tx_johnsons_v3lfxk18gm58m-fill" stroke="none" fill="#f4f4f4">
      <g>
        <text style="font: 20px Roboto, sans-serif; white-space: pre;" font-size="20px" font-family="Roboto, sans-serif">
          <tspan x="12" y="34" dominant-baseline="ideographic">Johnson's report received by Fourth Air </tspan>
          <tspan x="12" y="58" dominant-baseline="ideographic">Force</tspan>
        </text>
      </g>
    </g>
  </g>
  <g id="g-root-tx_fredmjoh_m7yfoo18gm61b-stroke-fill" data-item-order="0" transform="translate(296, 122)">
    <g id="tx_fredmjoh_m7yfoo18gm61b-fill" stroke="none" fill="#ebf2ff">
      <g>
        <text style="font: 20px Roboto, sans-serif; white-space: pre;" font-size="20px" font-family="Roboto, sans-serif">
          <tspan x="12" y="34" dominant-baseline="ideographic">Fred M. Johnson observes UFOs on Mount </tspan>
          <tspan x="12" y="58" dominant-baseline="ideographic">Adams</tspan>
        </text>
      </g>
    </g>
  </g>
  <g id="g-root-tx_post1947_dcxwiw18gm4g0-stroke-fill" data-item-order="0" transform="translate(80, 326)">
    <g id="tx_post1947_dcxwiw18gm4g0-fill" stroke="none" fill="#43dd93">
      <g>
        <text style="font: bold 20px Roboto, sans-serif; white-space: pre;" font-weight="bold" font-size="20px" font-family="Roboto, sans-serif">
          <tspan x="21.13" y="34" dominant-baseline="ideographic">Post-1947</tspan>
        </text>
      </g>
    </g>
  </g>
  <g id="g-root-tx_august22_4hawa018gm58p-stroke-fill" data-item-order="0" transform="translate(32, 230)">
    <g id="tx_august22_4hawa018gm58p-fill" stroke="none" fill="#b7b7b7">
      <g>
        <text style="font: bold 20px Roboto, sans-serif; white-space: pre;" font-weight="bold" font-size="20px" font-family="Roboto, sans-serif">
          <tspan x="16.08" y="34" dominant-baseline="ideographic">August 22, 1947</tspan>
        </text>
      </g>
    </g>
  </g>
  <g id="g-root-tx_june2419_1he5k18gm60y-stroke-fill" data-item-order="0" transform="translate(56, 134)">
    <g id="tx_june2419_1he5k18gm60y-fill" stroke="none" fill="#4f91fc">
      <g>
        <text style="font: bold 20px Roboto, sans-serif; white-space: pre;" font-weight="bold" font-size="20px" font-family="Roboto, sans-serif">
          <tspan x="11.89" y="34" dominant-baseline="ideographic">June 24, 1947</tspan>
        </text>
      </g>
    </g>
  </g>
</svg>
