<?xml version='1.0' encoding='utf-8'?>
<svg xmlns="http://www.w3.org/2000/svg" xmlns:xlink="http://www.w3.org/1999/xlink" width="720" height="384" viewBox="0 0 720 384" style="fill:none;stroke:none;fill-rule:evenodd;clip-rule:evenodd;stroke-linecap:round;stroke-linejoin:round;stroke-miterlimit:1.5;" version="1.1">
  <style class="text-font-style fontImports" data-font-family="Roboto">@import url('https://fonts.googleapis.com/css2?family=Roboto:wght@400;700&amp;display=block');</style>
  <rect x="0" y="0" width="7.2E+2" height="384" fill="#252a34" stroke="none" id="programmatic_background"/>
  <g id="g-root-tf_1d3n2eg1bs0ef9-stroke-fill" data-item-order="-246240" transform="translate(18, 12)">
    <g id="tf_1d3n2eg1bs0ef9-fill" stroke="none" fill="#2c2c2c">
      <g>
        <path d="M 0 0L 684 0L 684 360L 0 360Z"/>
      </g>
    </g>
    <defs>
      <pattern id="crawlingPattern-f908001a" x="0" y="0" width="12" height="12" patternUnits="userSpaceOnUse" fill="#f908001a">
        <use href="#crawlingSymbol"/>
      </pattern>
      <symbol id="crawlingSymbol">
        <g>
          <path d="M -12.5 12.5 l 13 -13 l 6 0 l -13 13 Z M -0.5 12.5 l 13 -13 l 6 0 l -13 13 Z M 11.5 12.5 l 13 -13 l 6 0 l -13 13 Z"/>
        </g>
      </symbol>
      <pattern id="crawlingPattern-0060fb20" x="0" y="0" width="12" height="12" patternUnits="userSpaceOnUse" fill="#0060fb20">
        <use href="#crawlingSymbol"/>
      </pattern>
      <pattern id="crawlingPattern-0000001b" x="0" y="0" width="12" height="12" patternUnits="userSpaceOnUse" fill="#0000001b">
        <use href="#crawlingSymbol"/>
      </pattern>
      <pattern id="crawlingPattern-ff0b0038" x="0" y="0" width="12" height="12" patternUnits="userSpaceOnUse" fill="#ff0b0038">
        <use href="#crawlingSymbol"/>
      </pattern>
      <pattern id="crawlingPattern-0059ff37" x="0" y="0" width="12" height="12" patternUnits="userSpaceOnUse" fill="#0059ff37">
        <use href="#crawlingSymbol"/>
      </pattern>
      <pattern id="crawlingPattern-f9080081" x="0" y="0" width="12" height="12" patternUnits="userSpaceOnUse" fill="#f9080081">
        <use href="#crawlingSymbol"/>
      </pattern>
      <pattern id="crawlingPattern-0060fba2" x="0" y="0" width="12" height="12" patternUnits="userSpaceOnUse" fill="#0060fba2">
        <use href="#crawlingSymbol"/>
      </pattern>
      <pattern id="crawlingPattern-c1c1c11a" x="0" y="0" width="12" height="12" patternUnits="userSpaceOnUse" fill="#c1c1c11a">
        <use href="#crawlingSymbol"/>
      </pattern>
      <pattern id="crawlingPattern-5f5f5f1a" x="0" y="0" width="12" height="12" patternUnits="userSpaceOnUse" fill="#5f5f5f1a">
        <use href="#crawlingSymbol"/>
      </pattern>
    </defs>
  </g>
  <g id="g-root-sy_-1_Vector_1upxa7c1brxlvm-stroke-fill" data-item-order="-14683" transform="translate(356, 182)">
    <g id="sy_-1_Vector_1upxa7c1brxlvm-stroke" fill="none" stroke-linecap="round" stroke-linejoin="round" stroke-miterlimit="4" stroke="#f4f4f4" stroke-width="2">
      <g>
        <path d="M 10 34L 10 10"/>
      </g>
    </g>
  </g>
  <g id="g-root-sy_-1_cu_1lua9yg1brxmob-stroke-fill" data-item-order="-14679" transform="translate(356, 278)">
    <g id="sy_-1_cu_1lua9yg1brxmob-stroke" fill="none" stroke-linecap="round" stroke-linejoin="round" stroke-miterlimit="4" stroke="#f4f4f4" stroke-width="2">
      <g>
        <path d="M 10 44L 10 10"/>
        <path d="M 3.5 38L 10 44.5L 16.5 38" stroke-dasharray="none"/>
      </g>
    </g>
  </g>
  <g id="g-root-cr_2_cr-big_1lua9yg1brxmoc-stroke-fill" data-item-order="-14676" transform="translate(320, 206)">
    <g id="cr_2_cr-big_1lua9yg1brxmoc-fill" stroke="none" fill="#fb6762">
      <g>
        <path d="M 10 46C 10 65.882251 26.117749 82 46 82C 65.882251 82 82 65.882251 82 46C 82 26.117749 65.882251 10 46 10C 26.117749 10 10 26.117749 10 46"/>
      </g>
    </g>
    <g id="cr_2_cr-big_1lua9yg1brxmoc-stroke" fill="none" stroke-linecap="round" stroke-linejoin="round" stroke-miterlimit="4" stroke="#2c2c2c" stroke-width="2">
      <g>
        <path d="M 10 46C 10 65.882251 26.117749 82 46 82C 65.882251 82 82 65.882251 82 46C 82 26.117749 65.882251 10 46 10C 26.117749 10 10 26.117749 10 46"/>
      </g>
    </g>
  </g>
  <g id="g-root-cr_1_cr-big_1hegru01brxngl-stroke-fill" data-item-order="-14672" transform="translate(320, 110)">
    <g id="cr_1_cr-big_1hegru01brxngl-fill" stroke="none" fill="#4f91fc">
      <g>
        <path d="M 10 46C 10 65.882251 26.117749 82 46 82C 65.882251 82 82 65.882251 82 46C 82 26.117749 65.882251 10 46 10C 26.117749 10 10 26.117749 10 46"/>
      </g>
    </g>
    <g id="cr_1_cr-big_1hegru01brxngl-stroke" fill="none" stroke-linecap="round" stroke-linejoin="round" stroke-miterlimit="4" stroke="#2c2c2c" stroke-width="2">
      <g>
        <path d="M 10 46C 10 65.882251 26.117749 82 46 82C 65.882251 82 82 65.882251 82 46C 82 26.117749 65.882251 10 46 10C 26.117749 10 10 26.117749 10 46"/>
      </g>
    </g>
  </g>
  <g id="g-root-ic_glob_1lw5p7s1brxlor-stroke-fill" data-item-order="-2304" transform="translate(332, 218)">
    <g id="ic_glob_1lw5p7s1brxlor-fill" stroke="none" fill="#f4f4f4">
      <g>
        <path d="M 45.599998 36L 56 36C 57.104568 36 58 35.104568 58 34C 58 32.895432 57.104568 32 56 32L 45.599998 32L 57.080002 17.219999C 57.524956 16.36902 57.302296 15.321911 56.549583 14.725607C 55.796871 14.129303 54.726597 14.152137 54 14.780001L 41.580002 30.780001L 41.580002 16C 41.580002 14.895431 40.68457 14 39.580002 14C 38.475433 14 37.580002 14.895431 37.580002 16L 37.580002 32L 35 32C 33.895432 32 33 32.895432 33 34C 33 35.104568 33.895432 36 35 36L 37.5 36L 37.5 52C 37.5 53.104568 38.395432 54 39.5 54C 40.604568 54 41.5 53.104568 41.5 52L 41.5 37.260002L 53.919998 53.259998C 54.337536 53.875786 55.062382 54.208908 55.801601 54.124744C 56.540821 54.040581 57.172226 53.55304 57.440647 52.85915C 57.709068 52.165264 57.570137 51.379726 57.080002 50.82ZM 33.879997 14.139999C 33.97757 14.048841 34.106476 13.998713 34.239998 14L 34.959999 14C 36.064568 14 36.959999 13.104569 36.959999 12C 36.959999 10.895431 36.064568 10 34.959999 10C 11.84 10 10 31.059999 10 34C 10 36.940002 11.82 58 34.959999 58C 36.064568 58 36.959999 57.104568 36.959999 56C 36.959999 54.895432 36.064568 54 34.959999 54L 34.239998 54C 34.104134 53.993904 33.975571 53.936768 33.880001 53.84C 31.85701 51.881702 30.095739 49.670033 28.640001 47.260002C 28.55512 47.104874 28.558493 46.916451 28.648865 46.764462C 28.739239 46.612469 28.903172 46.519516 29.08 46.52L 30 46.52C 31.10457 46.52 32 45.624569 32 44.52C 32 43.415432 31.10457 42.52 30 42.52L 26.98 42.52C 26.757778 42.52 26.562222 42.373333 26.5 42.16C 25.993891 40.324051 25.678883 38.440712 25.559999 36.540001C 25.545401 36.398499 25.597088 36.258205 25.700001 36.16C 25.775898 36.070313 25.883236 36.013062 26 36L 28 36C 29.10457 36 30 35.104568 30 34C 30 32.895432 29.10457 32 28 32L 26 32C 25.86208 32.003349 25.729935 31.94462 25.639999 31.84C 25.54034 31.747993 25.488684 31.615164 25.5 31.48C 25.618935 29.572721 25.933928 27.682756 26.440001 25.84C 26.502222 25.626667 26.697779 25.48 26.92 25.48L 30 25.48C 31.10457 25.48 32 24.58457 32 23.48C 32 22.375431 31.10457 21.48 30 21.48L 29.08 21.48C 28.901394 21.482227 28.737646 21.380859 28.66 21.220001C 28.559565 21.07576 28.559565 20.884239 28.66 20.74C 30.140032 18.346321 31.891644 16.131639 33.880001 14.14ZM 26.76 51.639999C 26.893333 51.81778 26.893333 52.062222 26.76 52.240002C 26.623976 52.416702 26.387381 52.481972 26.18 52.400002C 23.499746 51.243073 21.099018 49.524368 19.139999 47.360001C 19.043537 47.192924 19.043537 46.987076 19.139999 46.82C 19.219776 46.637207 19.400557 46.519306 19.6 46.52L 23.6 46.52C 23.799442 46.519306 23.980225 46.637207 24.060001 46.82C 24.788284 48.516998 25.693275 50.13258 26.759998 51.639996ZM 22.34 42C 22.407642 42.131828 22.407642 42.28817 22.34 42.419998C 22.245945 42.532932 22.106964 42.598766 21.959999 42.599998L 16.24 42.599998C 16.050999 42.601433 15.878748 42.491821 15.799999 42.32C 14.968708 40.520691 14.415726 38.605492 14.16 36.639999C 14.139738 36.495544 14.183567 36.349445 14.280001 36.239998C 14.365776 36.108582 14.504477 36.020981 14.66 36L 21.060001 36C 21.321247 35.999161 21.539101 36.199589 21.560001 36.459999C 21.663666 38.325325 21.924593 40.17857 22.34 42ZM 21.560001 31.620001C 21.539101 31.880411 21.321247 32.080837 21.060001 32.080002L 14.66 32.080002C 14.517157 32.079025 14.380518 32.021496 14.280001 31.92C 14.183567 31.810555 14.139738 31.664454 14.16 31.52C 14.407747 29.527197 14.960896 27.584431 15.799999 25.759998C 15.878748 25.588177 16.050999 25.478563 16.24 25.48L 21.860001 25.48C 22.008404 25.482933 22.147831 25.551649 22.240557 25.667555C 22.333282 25.783461 22.369717 25.934574 22.34 26.08C 21.929012 27.875217 21.668114 29.701517 21.560001 31.540001ZM 19.560001 21.619999C 19.360558 21.620693 19.179775 21.502794 19.1 21.32C 19.003538 21.152924 19.003538 20.947077 19.1 20.780001C 21.050646 18.562662 23.459465 16.795286 26.16 15.6C 26.367382 15.51803 26.603977 15.583298 26.74 15.76C 26.873333 15.937778 26.873333 16.182222 26.74 16.360001C 25.666622 17.870258 24.748625 19.48513 24 21.18C 23.920223 21.362793 23.739443 21.480694 23.540001 21.48Z"/>
      </g>
    </g>
  </g>
  <g id="g-root-ic_ufo_1d1rn541brz218-stroke-fill" data-item-order="-2304" transform="translate(332, 122)">
    <g id="ic_ufo_1d1rn541brz218-fill" stroke="none" fill="#f4f4f4">
      <g>
        <path d="M 50.779999 39.48C 50.49268 38.408726 49.391396 37.77314 48.32008 38.060295C 47.24876 38.34745 46.613007 39.448639 46.899998 40.519997L 51.139999 56.52C 51.30584 57.231823 51.846767 57.796497 52.550816 57.992748C 53.25486 58.188999 54.009895 57.985573 54.520046 57.462177C 55.030201 56.938786 55.214222 56.178791 55 55.48ZM 19.82 38C 18.754391 37.720551 17.663445 38.355446 17.380001 39.419998L 13.14 55.419998C 12.925778 56.11879 13.109798 56.878784 13.619952 57.40218C 14.130106 57.925571 14.885139 58.129002 15.589186 57.932751C 16.293234 57.7365 16.83416 57.171825 17 56.459999L 21.24 40.459999C 21.380281 39.945396 21.309196 39.39608 21.042547 38.934139C 20.775898 38.472198 20.335775 38.135902 19.82 38ZM 38 49.860001C 39.203453 49.748383 40.123898 48.738621 40.123898 47.529999C 40.123898 46.321381 39.203453 45.311615 38 45.200001L 31.08 45.200001C 29.876545 45.311615 28.9561 46.321381 28.9561 47.529999C 28.9561 48.738621 29.876545 49.748383 31.08 49.860001L 32.239998 49.860001L 32.239998 50.18L 29.200001 54.299999C 28.437847 55.332775 28.657228 56.787849 29.690001 57.550003C 30.722773 58.312153 32.177849 58.092773 32.940002 57.060001L 34.599998 54.82L 36.200001 57.080002C 36.978722 58.129345 38.460663 58.348724 39.510002 57.570004C 40.559341 56.791279 40.778725 55.309341 40 54.260002L 37 50.16L 37 49.860001ZM 38 40.239998C 38.008102 38.822594 37.160507 37.540237 35.85331 36.992199C 34.546112 36.44416 33.03743 36.738647 32.032288 37.738045C 31.027142 38.73745 30.724012 40.244415 31.264553 41.554733C 31.805094 42.865051 33.082569 43.719978 34.5 43.720001C 35.426414 43.725323 36.316711 43.361034 36.973671 42.707829C 37.63063 42.054626 38.000015 41.166428 38 40.239998ZM 56.959999 29C 57.256584 29.003077 57.540375 28.879374 57.739998 28.659998C 57.943413 28.447105 58.032631 28.149708 57.98 27.860001C 57.289928 23.844007 53.774273 20.931278 49.700001 21L 18.299999 21C 14.218212 20.921293 10.691198 23.836391 10 27.860001C 9.947369 28.149708 10.036588 28.447105 10.24 28.66C 10.439621 28.879374 10.723413 29.003077 11.02 28.999998L 13.28 29C 13.484316 29.002653 13.666457 29.12936 13.74 29.32C 13.899547 29.722376 14.079787 30.116236 14.280001 30.500002C 16.065369 33.888172 19.580214 36.009026 23.41 36.009026C 27.239786 36.009026 30.754631 33.888172 32.540001 30.5C 32.740211 30.116236 32.920456 29.722376 33.080002 29.320002C 33.148697 29.125612 33.333855 28.996807 33.540001 28.999998L 34.459999 29C 34.666145 28.996807 34.851299 29.125612 34.919998 29.32C 35.079548 29.722376 35.259789 30.116236 35.459999 30.500002C 37.245369 33.888172 40.760216 36.009026 44.59 36.009026C 48.419785 36.009026 51.934631 33.888172 53.720001 30.5C 53.920216 30.116236 54.100456 29.722376 54.260002 29.320002C 54.328697 29.125612 54.513851 28.996807 54.719997 28.999998ZM 23.4 32C 21.569786 31.983295 19.832561 31.191006 18.619999 29.82C 18.522778 29.660299 18.522778 29.4597 18.619999 29.299999C 18.686577 29.141253 18.830135 29.027918 19 29L 27.799999 29C 27.999443 28.999306 28.180223 29.117207 28.26 29.299999C 28.367369 29.456707 28.367369 29.663294 28.26 29.82C 27.033712 31.218311 25.259802 32.014015 23.400002 32ZM 44.599998 32C 42.768101 31.990932 41.027901 31.197287 39.82 29.82C 39.712631 29.663294 39.712631 29.456707 39.82 29.299999C 39.899776 29.117207 40.080559 28.999306 40.279999 29L 49.080002 29C 49.272152 29.007078 49.443218 29.123714 49.52 29.299999C 49.627369 29.456707 49.627369 29.663294 49.52 29.82C 48.280025 31.234344 46.480667 32.031624 44.600002 32ZM 34 10C 28.477455 9.948547 23.296272 12.666791 20.200001 17.24C 20.121464 17.397415 20.121464 17.582584 20.200001 17.74C 20.291019 17.897736 20.457924 17.996361 20.639999 18L 47.5 18C 47.703251 18.01899 47.898815 17.917297 47.999996 17.74C 48.078533 17.582584 48.078533 17.397415 48 17.24C 44.864662 12.606876 39.593025 9.880686 34 10Z"/>
      </g>
    </g>
  </g>
  <g id="g-root-tx_thegaryw_18jg8o81brxl3i-stroke-fill" data-item-order="0" transform="translate(116, 50)">
    <g id="tx_thegaryw_18jg8o81brxl3i-fill" stroke="none" fill="#f4f4f4">
      <g>
        <text style="font: 20px Roboto, sans-serif; white-space: pre;" font-size="20px" font-family="Roboto, sans-serif">
          <tspan x="13.67" y="34" dominant-baseline="ideographic">The Gary Wilcox UFO Encounter: A Timeline of Events</tspan>
        </text>
      </g>
    </g>
  </g>
  <g id="g-root-tx_sovietco_v7zqaw1brxmof-stroke-fill" data-item-order="0" transform="translate(416, 266)">
    <g id="tx_sovietco_v7zqaw1brxmof-fill" stroke="none" fill="#ffe9e8">
      <g>
        <text style="font: 20px Roboto, sans-serif; white-space: pre;" font-size="20px" font-family="Roboto, sans-serif">
          <tspan x="12" y="34" dominant-baseline="ideographic">Soviet cosmonaut Vladimir </tspan>
          <tspan x="12" y="58" dominant-baseline="ideographic">Komarov dies</tspan>
        </text>
      </g>
    </g>
  </g>
  <g id="g-root-tx_garywilc_mcz7541brxl34-stroke-fill" data-item-order="0" transform="translate(32, 170)">
    <g id="tx_garywilc_mcz7541brxl34-fill" stroke="none" fill="#ebf2ff">
      <g>
        <text style="font: 20px Roboto, sans-serif; white-space: pre;" font-size="20px" font-family="Roboto, sans-serif">
          <tspan x="16.78" y="34" dominant-baseline="ideographic">Gary Wilcox's UFO encounter </tspan>
          <tspan x="211.53" y="58" dominant-baseline="ideographic">occurs</tspan>
        </text>
      </g>
    </g>
  </g>
  <g id="g-root-tx_april241_dhc6w81brxlvt-stroke-fill" data-item-order="0" transform="translate(416, 230)">
    <g id="tx_april241_dhc6w81brxlvt-fill" stroke="none" fill="#fb6762">
      <g>
        <text style="font: bold 20px Roboto, sans-serif; white-space: pre;" font-weight="bold" font-size="20px" font-family="Roboto, sans-serif">
          <tspan x="12" y="34" dominant-baseline="ideographic">April 24, 1967</tspan>
        </text>
      </g>
    </g>
  </g>
  <g id="g-root-tx_april241_5voiw1brxngq-stroke-fill" data-item-order="0" transform="translate(164, 134)">
    <g id="tx_april241_5voiw1brxngq-fill" stroke="none" fill="#4f91fc">
      <g>
        <text style="font: bold 20px Roboto, sans-serif; white-space: pre;" font-weight="bold" font-size="20px" font-family="Roboto, sans-serif">
          <tspan x="14" y="34" dominant-baseline="ideographic">April 24, 1964</tspan>
        </text>
      </g>
    </g>
  </g>
</svg>
