<?xml version='1.0' encoding='utf-8'?>
<svg xmlns="http://www.w3.org/2000/svg" xmlns:xlink="http://www.w3.org/1999/xlink" width="1056" height="708" viewBox="0 0 1056 708" style="fill:none;stroke:none;fill-rule:evenodd;clip-rule:evenodd;stroke-linecap:round;stroke-linejoin:round;stroke-miterlimit:1.5;" version="1.1">
  <style class="text-font-style fontImports" data-font-family="Roboto">@import url('https://fonts.googleapis.com/css2?family=Roboto:wght@400;700&amp;display=block');</style>
  <rect x="0" y="0" width="1056" height="708" fill="#252a34" stroke="none" id="programmatic_background"/>
  <g id="g-root-tf_v8m7e01adzn5x-stroke-fill" data-item-order="-691560" transform="translate(18, 12)"/>
  <g id="g-root-sy_4_cu_znt59k1ae9ij3-stroke-fill" data-item-order="-317369" transform="translate(608, 386)">
    <g id="sy_4_cu_znt59k1ae9ij3-stroke" fill="none" stroke-linecap="round" stroke-linejoin="round" stroke-miterlimit="4" stroke="#f79438" stroke-width="2">
      <g>
        <path d="M 33.850586 154.000488L 45.850586 154.000488M 58.200195 70L 70.200195 70M 87.9997 10L 21.9997 238L 10 238"/>
      </g>
    </g>
  </g>
  <g id="g-root-sy_3_cu_v8m4881ae9g5k-stroke-fill" data-item-order="-317365" transform="translate(608, 158.00048828125)">
    <g id="sy_3_cu_v8m4881ae9g5k-stroke" fill="none" stroke-linecap="round" stroke-linejoin="round" stroke-miterlimit="4" stroke="#b7b7b7" stroke-width="2">
      <g>
        <path d="M 33.84668 93.999512L 45.84668 93.999512M 58.195313 177.999512L 70.195313 177.999512M 87.9997 238L 21.9997 10L 10 10"/>
      </g>
    </g>
  </g>
  <g id="g-root-sy_2_cu_v8m4881ae9g5l-stroke-fill" data-item-order="-317361" transform="translate(296, 385.99951171875)">
    <g id="sy_2_cu_v8m4881ae9g5l-stroke" fill="none" stroke-linecap="round" stroke-linejoin="round" stroke-miterlimit="4" stroke="#cb68f9" stroke-width="2">
      <g>
        <path d="M 33.851563 154.000488L 45.851563 154.000488M 58.200195 70.000488L 70.200195 70.000488M 87.9997 10L 21.9997 238L 10 238"/>
      </g>
    </g>
  </g>
  <g id="g-root-sy_1_cu_qssm3s1ae9gxu-stroke-fill" data-item-order="-317357" transform="translate(296, 158.00048828125)">
    <g id="sy_1_cu_qssm3s1ae9gxu-stroke" fill="none" stroke-linecap="round" stroke-linejoin="round" stroke-miterlimit="4" stroke="#43dd93" stroke-width="2">
      <g>
        <path d="M 33.851563 93.999512L 45.851563 93.999512M 58.200195 177.999512L 70.200195 177.999512M 87.9997 238L 21.9997 10L 10 10"/>
      </g>
    </g>
  </g>
  <g id="g-root-sy_-1_line_hx5luw1ae9hqj-stroke-fill" data-item-order="-317351" transform="translate(32, 386)">
    <g id="sy_-1_line_hx5luw1ae9hqj-stroke" fill="none" stroke-linecap="round" stroke-linejoin="round" stroke-miterlimit="4" stroke="#f4f4f4" stroke-width="2">
      <g>
        <path d="M 704 10L 10 10"/>
        <path d="M 698 16.5L 704.5 10L 698 3.5" stroke-dasharray="none"/>
      </g>
    </g>
  </g>
  <g id="g-root-tx_theenigm_dhc3qg1ae9iis-stroke-fill" data-item-order="0" transform="translate(800, 362)">
    <g id="tx_theenigm_dhc3qg1ae9iis-fill" stroke="none" fill="#f4f4f4">
      <g>
        <text style="font: 20px Roboto, sans-serif; white-space: pre;" font-size="20px" font-family="Roboto, sans-serif">
          <tspan x="12" y="34" dominant-baseline="ideographic">The Enigmatic Wilcox </tspan>
          <tspan x="12" y="58" dominant-baseline="ideographic">UFO Encounter</tspan>
        </text>
      </g>
    </g>
  </g>
  <g id="g-root-tx_sullivan_6i2g81ae9gxx-stroke-fill" data-item-order="0" transform="translate(500, 422)">
    <g id="tx_sullivan_6i2g81ae9gxx-fill" stroke="none" fill="#f4f4f4">
      <g>
        <text style="font: 20px Roboto, sans-serif; white-space: pre;" font-size="20px" font-family="Roboto, sans-serif">
          <tspan x="15.58" y="34" dominant-baseline="ideographic">Sullivan County </tspan>
          <tspan x="69.2" y="58" dominant-baseline="ideographic">markings</tspan>
        </text>
      </g>
    </g>
  </g>
  <g id="g-root-tx_socorroi_1qbz46g1ae9hji-stroke-fill" data-item-order="0" transform="translate(464, 518)">
    <g id="tx_socorroi_1qbz46g1ae9hji-fill" stroke="none" fill="#f4f4f4">
      <g>
        <text style="font: 20px Roboto, sans-serif; white-space: pre;" font-size="20px" font-family="Roboto, sans-serif">
          <tspan x="18.39" y="34" dominant-baseline="ideographic">Socorro incident</tspan>
        </text>
      </g>
    </g>
  </g>
  <g id="g-root-tx_concurre_1d0ilt41ae9j4f-stroke-fill" data-item-order="0" transform="translate(392, 602)">
    <g id="tx_concurre_1d0ilt41ae9j4f-fill" stroke="none" fill="#f4f4f4">
      <g>
        <text style="font: 20px Roboto, sans-serif; white-space: pre;" font-size="20px" font-family="Roboto, sans-serif">
          <tspan x="13.31" y="34" dominant-baseline="ideographic">Concurrent Events</tspan>
        </text>
      </g>
    </g>
  </g>
  <g id="g-root-tx_psycholo_18lbkrs1ae9gqw-stroke-fill" data-item-order="0" transform="translate(512, 302)">
    <g id="tx_psycholo_18lbkrs1ae9gqw-fill" stroke="none" fill="#f4f4f4">
      <g>
        <text style="font: 20px Roboto, sans-serif; white-space: pre;" font-size="20px" font-family="Roboto, sans-serif">
          <tspan x="16.25" y="34" dominant-baseline="ideographic">Psychological </tspan>
          <tspan x="26.39" y="58" dominant-baseline="ideographic">explanations</tspan>
        </text>
      </g>
    </g>
  </g>
  <g id="g-root-tx_lackofco_145i2nc1ae9hj5-stroke-fill" data-item-order="0" transform="translate(416, 218)">
    <g id="tx_lackofco_145i2nc1ae9hj5-fill" stroke="none" fill="#f4f4f4">
      <g>
        <text style="font: 20px Roboto, sans-serif; white-space: pre;" font-size="20px" font-family="Roboto, sans-serif">
          <tspan x="21.23" y="34" dominant-baseline="ideographic">Lack of corroborating </tspan>
          <tspan x="122.33" y="58" dominant-baseline="ideographic">witnesses</tspan>
        </text>
      </g>
    </g>
  </g>
  <g id="g-root-tx_credibil_qu1ka01ae9j42-stroke-fill" data-item-order="0" transform="translate(404, 146)">
    <g id="tx_credibil_qu1ka01ae9j42-fill" stroke="none" fill="#f4f4f4">
      <g>
        <text style="font: 20px Roboto, sans-serif; white-space: pre;" font-size="20px" font-family="Roboto, sans-serif">
          <tspan x="12.81" y="34" dominant-baseline="ideographic">Credibility Issues</tspan>
        </text>
      </g>
    </g>
  </g>
  <g id="g-root-tx_predicti_hz11481ae9gqz-stroke-fill" data-item-order="0" transform="translate(164, 434)">
    <g id="tx_predicti_hz11481ae9gqz-fill" stroke="none" fill="#f4f4f4">
      <g>
        <text style="font: 20px Roboto, sans-serif; white-space: pre;" font-size="20px" font-family="Roboto, sans-serif">
          <tspan x="20.13" y="34" dominant-baseline="ideographic">Predictions made</tspan>
        </text>
      </g>
    </g>
  </g>
  <g id="g-root-tx_language_dj7izs1ae9hj8-stroke-fill" data-item-order="0" transform="translate(176, 506)">
    <g id="tx_language_dj7izs1ae9hj8-fill" stroke="none" fill="#f4f4f4">
      <g>
        <text style="font: 20px Roboto, sans-serif; white-space: pre;" font-size="20px" font-family="Roboto, sans-serif">
          <tspan x="14.16" y="34" dominant-baseline="ideographic">Language and </tspan>
          <tspan x="12.05" y="58" dominant-baseline="ideographic">understanding</tspan>
        </text>
      </g>
    </g>
  </g>
  <g id="g-root-tx_communic_7r0mg1ae9j45-stroke-fill" data-item-order="0" transform="translate(92, 602)">
    <g id="tx_communic_7r0mg1ae9j45-fill" stroke="none" fill="#f4f4f4">
      <g>
        <text style="font: 20px Roboto, sans-serif; white-space: pre;" font-size="20px" font-family="Roboto, sans-serif">
          <tspan x="22.36" y="34" dominant-baseline="ideographic">Communication</tspan>
        </text>
      </g>
    </g>
  </g>
  <g id="g-root-tx_interact_1ly11bc1ae9hc6-stroke-fill" data-item-order="0" transform="translate(116, 314)">
    <g id="tx_interact_1ly11bc1ae9hc6-fill" stroke="none" fill="#f4f4f4">
      <g>
        <text style="font: 20px Roboto, sans-serif; white-space: pre;" font-size="20px" font-family="Roboto, sans-serif">
          <tspan x="22.09" y="34" dominant-baseline="ideographic">Interaction with beings</tspan>
        </text>
      </g>
    </g>
  </g>
  <g id="g-root-tx_descript_1d2e12g1ae9i4v-stroke-fill" data-item-order="0" transform="translate(104, 230)">
    <g id="tx_descript_1d2e12g1ae9i4v-fill" stroke="none" fill="#f4f4f4">
      <g>
        <text style="font: 20px Roboto, sans-serif; white-space: pre;" font-size="20px" font-family="Roboto, sans-serif">
          <tspan x="11.55" y="34" dominant-baseline="ideographic">Description of the UFO</tspan>
        </text>
      </g>
    </g>
  </g>
  <g id="g-root-tx_eventdet_147dhwo1ae9gjk-stroke-fill" data-item-order="0" transform="translate(128, 146)">
    <g id="tx_eventdet_147dhwo1ae9gjk-fill" stroke="none" fill="#f4f4f4">
      <g>
        <text style="font: 20px Roboto, sans-serif; white-space: pre;" font-size="20px" font-family="Roboto, sans-serif">
          <tspan x="12.97" y="34" dominant-baseline="ideographic">Event Details</tspan>
        </text>
      </g>
    </g>
  </g>
  <g id="g-root-tx_analyzin_vbqhns1ae9hc9-stroke-fill" data-item-order="0" transform="translate(338, 50)">
    <g id="tx_analyzin_vbqhns1ae9hc9-fill" stroke="none" fill="#f4f4f4">
      <g>
        <text style="font: 20px Roboto, sans-serif; white-space: pre;" font-size="20px" font-family="Roboto, sans-serif">
          <tspan x="12.31" y="34" dominant-baseline="ideographic">Analyzing the Gary Wilcox UFO Encounter</tspan>
        </text>
      </g>
    </g>
    <defs>
      <pattern id="crawlingPattern-0000001b" x="0" y="0" width="12" height="12" patternUnits="userSpaceOnUse" fill="#0000001b">
        <use href="#crawlingSymbol"/>
      </pattern>
      <symbol id="crawlingSymbol">
        <g>
          <path d="M -12.5 12.5 l 13 -13 l 6 0 l -13 13 Z M -0.5 12.5 l 13 -13 l 6 0 l -13 13 Z M 11.5 12.5 l 13 -13 l 6 0 l -13 13 Z"/>
        </g>
      </symbol>
    </defs>
  </g>
  <g id="g-root-ic_3_qvwzjc1ae9i4i-stroke-fill" data-item-order="0" transform="translate(260, 140)">
    <g id="ic_3_qvwzjc1ae9i4i-stroke" fill="none" stroke-linecap="round" stroke-linejoin="round" stroke-miterlimit="4" stroke="#f4f4f4" stroke-width="2">
      <g>
        <path d="M 10.75 44.470001C 10.75 38.253483 15.789483 33.214001 22.006001 33.214001C 28.222517 33.214001 33.262001 38.253483 33.262001 44.470001M 34.523502 11.5255L 34.523502 19.954C 34.491093 21.891485 35.506172 23.695827 37.17889 24.674046C 38.851612 25.652264 40.921886 25.652264 42.594604 24.674046C 44.267326 23.695827 45.282406 21.891485 45.249996 19.953999L 45.25 11.5255M 39.886002 44.474499L 39.886002 11.5255M 15.25 22.4245L 15.7165 17.983C 15.876242 16.455353 17.164022 15.295118 18.700001 15.295L 25.299999 15.295C 26.836552 15.294351 28.125198 16.454781 28.285 17.983L 28.753 22.4245M 13 23.918501C 15.675707 22.184601 18.81258 21.298958 22 21.377501C 25.192553 21.298162 28.334337 22.187149 31.011999 23.9275M 26.362 34.3405C 26.362688 36.746738 24.412239 38.697746 22.006001 38.697746C 19.59976 38.697746 17.649311 36.746738 17.65 34.3405M 15.190001 22.486C 14.915274 24.807882 13.874413 26.971941 12.232 28.636C 11.979002 28.928633 11.868335 29.318151 11.929676 29.700092C 11.991018 30.082031 12.218093 30.417309 12.55 30.616001C 12.658 30.6805 12.7735 30.7465 12.895 30.814001M 28.790501 22.486C 29.065414 24.808136 30.106846 26.972286 31.75 28.636C 32.001492 28.929127 32.110756 29.318321 32.048576 29.699511C 31.986395 30.080698 31.759109 30.414993 31.427502 30.613001C 31.352499 30.658001 31.2775 30.702999 31.192001 30.7495M 15.0505 44.470001L 15.0505 43.009003M 28.960001 44.470001L 28.960001 43.009003M 23.672501 26.950001C 22.667639 27.703751 21.28586 27.703751 20.281 26.949999M 24.237999 23.841999C 24.3528 23.842001 24.456268 23.911236 24.500059 24.017357C 24.54385 24.123478 24.51932 24.245533 24.437927 24.326496C 24.356537 24.407455 24.234352 24.431339 24.128466 24.386986C 24.022577 24.342632 23.953892 24.2388 23.954498 24.123999C 23.954498 24.048948 23.984415 23.976994 24.037624 23.924065C 24.090836 23.871136 24.162949 23.8416 24.237999 23.841999M 19.7155 23.841999C 19.830435 23.841393 19.934364 23.910242 19.978628 24.016315C 20.022892 24.122385 19.998734 24.244686 19.917459 24.32596C 19.836187 24.407234 19.713886 24.431393 19.607815 24.387127C 19.501741 24.342863 19.432892 24.238935 19.433498 24.123999C 19.43432 23.968596 19.560097 23.842819 19.7155 23.841999M 15.1945 22.4245L 15.1945 24.124001C 15.158104 26.571104 16.442776 28.848057 18.556171 30.082237C 20.669567 31.316416 23.283932 31.316416 25.397327 30.082237C 27.510725 28.848057 28.795395 26.571104 28.758999 24.123999L 28.758999 22.4245"/>
      </g>
    </g>
  </g>
  <g id="g-root-ic_4_7r0mg1aec9vv-stroke-fill" data-item-order="0" transform="translate(260, 596)">
    <g id="ic_4_7r0mg1aec9vv-stroke" fill="none" stroke-linecap="round" stroke-linejoin="round" stroke-miterlimit="4" stroke="#f4f4f4" stroke-width="2">
      <g>
        <path d="M 25.375 26.7505L 31.393 26.7505L 31.243 31.75L 37.093002 26.7505L 43.243 26.7505C 43.77486 26.752495 44.285595 26.542509 44.662243 26.166988C 45.038887 25.79147 45.250404 25.281361 45.25 24.7495L 45.25 12.7495C 45.25 11.645206 44.354794 10.75 43.2505 10.75L 25.2505 10.75C 24.145622 10.749171 23.2495 11.644621 23.2495 12.7495L 23.2495 20.5M 31 22.75L 34.75 14.5L 38.5 22.75M 31.830999 20.921501L 37.668999 20.921501M 27.25 43.75C 27.25 44.578426 26.578428 45.25 25.75 45.25L 12.25 45.25C 11.421573 45.25 10.75 44.578426 10.75 43.75L 10.75 38.5C 10.75 33.943653 14.443651 30.250002 19 30.250002C 23.556349 30.250002 27.25 33.943653 27.25 38.5ZM 10.75 40.75L 27.25 40.75M 15.25 36.625C 15.25 36.832108 15.417893 37 15.625 37C 15.832107 37 16 36.832108 16 36.625C 16 36.417892 15.832107 36.25 15.625 36.25C 15.417893 36.25 15.25 36.417892 15.25 36.625M 22 36.625C 22 36.832108 22.167892 37 22.375 37C 22.582108 37 22.75 36.832108 22.75 36.625C 22.75 36.417892 22.582108 36.25 22.375 36.25C 22.167892 36.25 22 36.417892 22 36.625M 19 30.25L 19 27.25M 16.75 25C 16.75 26.242641 17.75736 27.25 19 27.25C 20.242641 27.25 21.25 26.242641 21.25 25C 21.25 23.75736 20.242641 22.75 19 22.75C 17.75736 22.75 16.75 23.75736 16.75 25"/>
      </g>
    </g>
  </g>
  <g id="g-root-ic_phot_14306aw1aef4sl-stroke-fill" data-item-order="0" transform="translate(572, 140)">
    <g id="ic_phot_14306aw1aef4sl-stroke" fill="none" stroke-linecap="round" stroke-linejoin="round" stroke-miterlimit="4" stroke="#f4f4f4" stroke-width="2">
      <g>
        <path d="M 15.67504 30.947651L 11.242693 21.142691C 10.942693 20.54269 11.242684 19.94269 11.84269 19.642691L 30.292749 11.242691C 30.89275 10.942692 31.49275 11.242693 31.792749 11.84269L 40.50235 30.947651M 10 10M 38.692749 27.14275L 30.2551 30.977951M 10 10M 24.957161 30.839951L 26.4571 23.039934C 26.757099 21.539936 28.257099 20.789921 29.6071 21.389919L 37.857101 25.13995M 19.19269 25.942749C 20.601025 25.942749 21.74272 24.8011 21.74272 23.392765C 21.74272 21.984446 20.601025 20.842779 19.19269 20.842779C 17.78437 20.842779 16.642706 21.984446 16.642706 23.392765C 16.642706 24.8011 17.78437 25.942749 19.19269 25.942749ZM 10 10M 37.525002 14.242735L 43.824997 14.392735C 44.425003 14.392735 44.875 14.842735 44.875 15.592735L 44.724998 29.842751M 28.9627 44.788151L 28.9627 35.788151M 34.9627 35.788151L 28.9627 41.788151M 31.2127 39.538151L 35.7127 44.788151M 10 10M 44.7547 35.788151L 38.7547 35.788151L 38.7547 44.788151L 44.7547 44.788151M 38.7547 39.913151L 44.0047 39.913151M 11.2453 44.788151L 11.2453 35.788151L 17.2453 35.788151M 10 10M 11.2453 39.913151L 16.4953 39.913151M 10 10M 18.530334 44.788151L 21.293171 36.499748C 21.434799 36.074799 21.832436 35.788151 22.280334 35.788151L 22.280334 35.788151C 22.72822 35.788151 23.12587 36.074799 23.2675 36.499748L 26.03035 44.788151M 19.53034 41.788151L 25.0303 41.788151"/>
      </g>
    </g>
  </g>
  <g id="g-root-ic_nigh_mah7mw1aehwjz-stroke-fill" data-item-order="0" transform="translate(572, 596)">
    <g id="ic_nigh_mah7mw1aehwjz-stroke" fill="none" stroke-linecap="round" stroke-linejoin="round" stroke-miterlimit="4" stroke="#f4f4f4" stroke-width="2">
      <g>
        <path d="M 16.825001 36.2971C 18.89608 36.2971 20.575001 34.618149 20.575001 32.5471C 20.575001 30.476049 18.89608 28.7971 16.825001 28.7971C 14.753935 28.7971 13.075 30.476049 13.075 32.5471C 13.075 34.618149 14.753935 36.2971 16.825001 36.2971ZM 11.125012 44.846951C 11.125012 41.696949 13.675015 39.14695 16.825016 39.14695C 19.66777 39.14695 22.021839 41.223701 22.45402 43.944099M 39.175003 36.2971C 41.246048 36.2971 42.925003 34.618149 42.925003 32.5471C 42.925003 30.476049 41.246048 28.7971 39.175003 28.7971C 37.103951 28.7971 35.425003 30.476049 35.425003 32.5471C 35.425003 34.618149 37.103951 36.2971 39.175003 36.2971ZM 44.875 44.846951C 44.875 41.696949 42.324997 39.14695 39.175003 39.14695C 36.4711 39.14695 34.2094 41.0257 33.622902 43.550201M 28.075001 36.2971C 30.146049 36.2971 31.825001 34.618149 31.825001 32.5471C 31.825001 30.476049 30.146049 28.7971 28.075001 28.7971C 26.00395 28.7971 24.325001 30.476049 24.325001 32.5471C 24.325001 34.618149 26.00395 36.2971 28.075001 36.2971ZM 22.375 44.846951C 22.375 41.696949 24.924999 39.14695 28.075001 39.14695C 31.224998 39.14695 33.775002 41.696949 33.775002 44.846951M 10 10M 34.419701 16.31695L 33.213249 18.406675M 10 10M 31.582901 16.404295L 33.2131 18.406885M 10 10M 30.72835 19.493259L 33.2131 18.40687M 10 10M 33.514751 21.101965L 33.2131 18.406916M 10 10M 35.762497 18.817286L 33.2131 18.406855M 30.02425 24.086004C 29.8312 24.106945 29.6359 24.117744 29.43895 24.117744C 26.247101 24.117744 23.693636 21.56428 23.693636 18.372446C 23.693636 15.180625 26.247101 12.62716 29.43895 12.62716C 29.88595 12.62716 30.3172 12.675085 30.72835 12.76495C 29.527599 11.774665 27.951401 11.153198 26.168049 11.153198C 22.251326 11.153198 19.118006 14.28652 19.118006 18.203171C 19.118006 22.11982 22.251326 25.253201 26.168049 25.253201C 27.5599 25.253201 28.8787 24.814089 30.02425 24.086004Z"/>
      </g>
    </g>
  </g>
  <g id="g-root-ic_ufo_quo1d41aejci3-stroke-fill" data-item-order="0" transform="translate(740, 362)">
    <g id="ic_ufo_quo1d41aejci3-stroke" fill="none" stroke-linecap="round" stroke-linejoin="round" stroke-miterlimit="4" stroke="#f4f4f4" stroke-width="2">
      <g>
        <path d="M 49 22.5C 52.977859 22.499041 56.352161 25.420879 56.919998 29.358C 56.961449 29.646814 56.874687 29.939325 56.682472 30.158836C 56.490257 30.378345 56.211758 30.502958 55.919998 30.5L 12.07 30.5C 11.778242 30.502958 11.499743 30.378345 11.307528 30.158836C 11.115312 29.939325 11.028553 29.646814 11.07 29.358C 11.638377 25.417118 15.018346 22.494064 19 22.5ZM 19 22.5C 19 17.5 25.716 11.5 34 11.5C 42.284 11.5 49 17.5 49 22.5M 47.77 39.5L 52.995998 56.5M 14.996 56.5L 20.232 39.5M 34.996002 49.5L 31.996 53.652M 37.996002 53.5L 34.996002 49.5M 31.996 46.5L 37.996002 46.5M 35 41.5C 35.552284 41.5 36 41.947716 36 42.5M 34 42.5C 34 41.947716 34.447716 41.5 35 41.5M 35 43.5C 34.447716 43.5 34 43.052284 34 42.5M 36 42.5C 36 43.052284 35.552284 43.5 35 43.5M 34.996002 49.5L 34.996002 46.5M 25 30.5C 25 33.261421 22.761425 35.5 20 35.5C 17.238577 35.5 15 33.261421 15 30.5M 39 30.5C 39 33.261421 36.761425 35.5 34 35.5C 31.238577 35.5 29 33.261421 29 30.5M 53 30.5C 53 33.261421 50.761425 35.5 48 35.5C 45.238575 35.5 43 33.261421 43 30.5"/>
      </g>
    </g>
  </g>
</svg>
