<?xml version='1.0' encoding='utf-8'?>
<svg xmlns="http://www.w3.org/2000/svg" xmlns:xlink="http://www.w3.org/1999/xlink" width="1080" height="708" viewBox="0 0 1080 708" style="fill:none;stroke:none;fill-rule:evenodd;clip-rule:evenodd;stroke-linecap:round;stroke-linejoin:round;stroke-miterlimit:1.5;" version="1.1">
  <style class="text-font-style fontImports" data-font-family="Roboto">@import url('https://fonts.googleapis.com/css2?family=Roboto:wght@400;700&amp;display=block');</style>
  <rect x="0" y="0" width="1.08E+3" height="708" fill="#252a34" stroke="none" id="programmatic_background"/>
  <g id="g-root-tf_1480bh519a2o7b-stroke-fill" data-item-order="-714096" transform="translate(18, 12)"/>
  <g id="g-root-sy_4_cu_dcz1g919afcwf-stroke-fill" data-item-order="-317369" transform="translate(608, 386)">
    <g id="sy_4_cu_dcz1g919afcwf-stroke" fill="none" stroke-linecap="round" stroke-linejoin="round" stroke-miterlimit="4" stroke="#4f91fc" stroke-width="2">
      <g>
        <path d="M 33.850586 154.000488L 45.850586 154.000488M 58.200195 70L 70.200195 70M 87.9997 10L 21.9997 238L 10 238"/>
      </g>
    </g>
  </g>
  <g id="g-root-sy_3_cu_8xs0ex19afaiw-stroke-fill" data-item-order="-317365" transform="translate(608, 158.00048828125)">
    <g id="sy_3_cu_8xs0ex19afaiw-stroke" fill="none" stroke-linecap="round" stroke-linejoin="round" stroke-miterlimit="4" stroke="#ffe711" stroke-width="2">
      <g>
        <path d="M 33.84668 93.999512L 45.84668 93.999512M 58.195313 177.999512L 70.195313 177.999512M 87.9997 238L 21.9997 10L 10 10"/>
      </g>
    </g>
  </g>
  <g id="g-root-sy_2_cu_4hyiah19afbb5-stroke-fill" data-item-order="-317361" transform="translate(296, 385.99951171875)">
    <g id="sy_2_cu_4hyiah19afbb5-stroke" fill="none" stroke-linecap="round" stroke-linejoin="round" stroke-miterlimit="4" stroke="#f79438" stroke-width="2">
      <g>
        <path d="M 33.851563 154.000488L 45.851563 154.000488M 58.200195 70.000488L 70.200195 70.000488M 87.9997 10L 21.9997 238L 10 238"/>
      </g>
    </g>
  </g>
  <g id="g-root-sy_1_cu_1unfk0p19afbwq-stroke-fill" data-item-order="-317357" transform="translate(296, 158.00048828125)">
    <g id="sy_1_cu_1unfk0p19afbwq-stroke" fill="none" stroke-linecap="round" stroke-linejoin="round" stroke-miterlimit="4" stroke="#fb6762" stroke-width="2">
      <g>
        <path d="M 33.851563 93.999512L 45.851563 93.999512M 58.200195 177.999512L 70.200195 177.999512M 87.9997 238L 21.9997 10L 10 10"/>
      </g>
    </g>
  </g>
  <g id="g-root-sy_-1_line_1unfk0p19afbwr-stroke-fill" data-item-order="-317351" transform="translate(32, 386)">
    <g id="sy_-1_line_1unfk0p19afbwr-stroke" fill="none" stroke-linecap="round" stroke-linejoin="round" stroke-miterlimit="4" stroke="#f4f4f4" stroke-width="2">
      <g>
        <path d="M 704 10L 10 10"/>
        <path d="M 698 16.5L 704.5 10L 698 3.5" stroke-dasharray="none"/>
      </g>
    </g>
  </g>
  <g id="g-root-tx_credibil_1q7m1w919afcp0-stroke-fill" data-item-order="0" transform="translate(800, 362)">
    <g id="tx_credibil_1q7m1w919afcp0-fill" stroke="none" fill="#f4f4f4">
      <g>
        <text style="font: 20px Roboto, sans-serif; white-space: pre;" font-size="20px" font-family="Roboto, sans-serif">
          <tspan x="12" y="34" dominant-baseline="ideographic">Credibility of Adamski's </tspan>
          <tspan x="12" y="58" dominant-baseline="ideographic">UFO Encounters</tspan>
        </text>
      </g>
    </g>
  </g>
  <g id="g-root-tx_allegati_1cws0m119afb45-stroke-fill" data-item-order="0" transform="translate(476, 422)">
    <g id="tx_allegati_1cws0m119afb45-fill" stroke="none" fill="#f4f4f4">
      <g>
        <text style="font: 20px Roboto, sans-serif; white-space: pre;" font-size="20px" font-family="Roboto, sans-serif">
          <tspan x="12.7" y="34" dominant-baseline="ideographic">Allegations of Pre-</tspan>
          <tspan x="32.88" y="58" dominant-baseline="ideographic">planned Hoaxes</tspan>
        </text>
      </g>
    </g>
  </g>
  <g id="g-root-tx_inconsis_zlbi8p19afcp2-stroke-fill" data-item-order="0" transform="translate(428, 506)">
    <g id="tx_inconsis_zlbi8p19afcp2-fill" stroke="none" fill="#f4f4f4">
      <g>
        <text style="font: 20px Roboto, sans-serif; white-space: pre;" font-size="20px" font-family="Roboto, sans-serif">
          <tspan x="13.94" y="34" dominant-baseline="ideographic">Inconsistent Witness </tspan>
          <tspan x="97.5" y="58" dominant-baseline="ideographic">Statements</tspan>
        </text>
      </g>
    </g>
  </g>
  <g id="g-root-tx_witnesst_qqaz2x19afabz-stroke-fill" data-item-order="0" transform="translate(380, 602)">
    <g id="tx_witnesst_qqaz2x19afabz-fill" stroke="none" fill="#f4f4f4">
      <g>
        <text style="font: 20px Roboto, sans-serif; white-space: pre;" font-size="20px" font-family="Roboto, sans-serif">
          <tspan x="19.22" y="34" dominant-baseline="ideographic">Witness Testimony</tspan>
        </text>
      </g>
    </g>
  </g>
  <g id="g-root-tx_hoaxedgo_mahgyh19afb48-stroke-fill" data-item-order="0" transform="translate(452, 302)">
    <g id="tx_hoaxedgo_mahgyh19afb48-fill" stroke="none" fill="#f4f4f4">
      <g>
        <text style="font: 20px Roboto, sans-serif; white-space: pre;" font-size="20px" font-family="Roboto, sans-serif">
          <tspan x="18.27" y="34" dominant-baseline="ideographic">Hoaxed Government </tspan>
          <tspan x="137.83" y="58" dominant-baseline="ideographic">Letters</tspan>
        </text>
      </g>
    </g>
  </g>
  <g id="g-root-tx_question_8z0yl519afcp5-stroke-fill" data-item-order="0" transform="translate(488, 218)">
    <g id="tx_question_8z0yl519afcp5-fill" stroke="none" fill="#f4f4f4">
      <g>
        <text style="font: 20px Roboto, sans-serif; white-space: pre;" font-size="20px" font-family="Roboto, sans-serif">
          <tspan x="22.84" y="34" dominant-baseline="ideographic">Questionable </tspan>
          <tspan x="26.14" y="58" dominant-baseline="ideographic">Photographs</tspan>
        </text>
      </g>
    </g>
  </g>
  <g id="g-root-tx_physical_4jtxjt19afabm-stroke-fill" data-item-order="0" transform="translate(392, 146)">
    <g id="tx_physical_4jtxjt19afabm-fill" stroke="none" fill="#f4f4f4">
      <g>
        <text style="font: 20px Roboto, sans-serif; white-space: pre;" font-size="20px" font-family="Roboto, sans-serif">
          <tspan x="16.88" y="34" dominant-baseline="ideographic">Physical Evidence</tspan>
        </text>
      </g>
    </g>
  </g>
  <g id="g-root-tx_opportun_1upaza119afax7-stroke-fill" data-item-order="0" transform="translate(140, 422)">
    <g id="tx_opportun_1upaza119afax7-fill" stroke="none" fill="#f4f4f4">
      <g>
        <text style="font: 20px Roboto, sans-serif; white-space: pre;" font-size="20px" font-family="Roboto, sans-serif">
          <tspan x="79.42" y="34" dominant-baseline="ideographic">Opportunistic </tspan>
          <tspan x="15.47" y="58" dominant-baseline="ideographic">Transition to Ufology</tspan>
        </text>
      </g>
    </g>
  </g>
  <g id="g-root-tx_lackofsc_1q9hh5l19afbpg-stroke-fill" data-item-order="0" transform="translate(152, 506)">
    <g id="tx_lackofsc_1q9hh5l19afbpg-fill" stroke="none" fill="#f4f4f4">
      <g>
        <text style="font: 20px Roboto, sans-serif; white-space: pre;" font-size="20px" font-family="Roboto, sans-serif">
          <tspan x="11.64" y="34" dominant-baseline="ideographic">Lack of Scientific </tspan>
          <tspan x="63.38" y="58" dominant-baseline="ideographic">Credentials</tspan>
        </text>
      </g>
    </g>
  </g>
  <g id="g-root-tx_backgrou_1cy0ys919afdad-stroke-fill" data-item-order="0" transform="translate(92, 590)">
    <g id="tx_backgrou_1cy0ys919afdad-fill" stroke="none" fill="#f4f4f4">
      <g>
        <text style="font: 20px Roboto, sans-serif; white-space: pre;" font-size="20px" font-family="Roboto, sans-serif">
          <tspan x="19.52" y="34" dominant-baseline="ideographic">Background and </tspan>
          <tspan x="81.27" y="58" dominant-baseline="ideographic">Expertise</tspan>
        </text>
      </g>
    </g>
  </g>
  <g id="g-root-tx_lackofev_1430fmh19afaxa-stroke-fill" data-item-order="0" transform="translate(140, 302)">
    <g id="tx_lackofev_1430fmh19afaxa-fill" stroke="none" fill="#f4f4f4">
      <g>
        <text style="font: 20px Roboto, sans-serif; white-space: pre;" font-size="20px" font-family="Roboto, sans-serif">
          <tspan x="19.69" y="34" dominant-baseline="ideographic">Lack of Evidence for </tspan>
          <tspan x="87.02" y="58" dominant-baseline="ideographic">Space Travel</tspan>
        </text>
      </g>
    </g>
  </g>
  <g id="g-root-tx_misrepre_qrjx9519afci7-stroke-fill" data-item-order="0" transform="translate(116, 218)">
    <g id="tx_misrepre_qrjx9519afci7-fill" stroke="none" fill="#f4f4f4">
      <g>
        <text style="font: 20px Roboto, sans-serif; white-space: pre;" font-size="20px" font-family="Roboto, sans-serif">
          <tspan x="15.16" y="34" dominant-baseline="ideographic">Misrepresentation of </tspan>
          <tspan x="15.39" y="58" dominant-baseline="ideographic">Planetary Conditions</tspan>
        </text>
      </g>
    </g>
  </g>
  <g id="g-root-tx_scientif_mbqf4p19afdag-stroke-fill" data-item-order="0" transform="translate(104, 134)">
    <g id="tx_scientif_mbqf4p19afdag-fill" stroke="none" fill="#f4f4f4">
      <g>
        <text style="font: 20px Roboto, sans-serif; white-space: pre;" font-size="20px" font-family="Roboto, sans-serif">
          <tspan x="70.17" y="34" dominant-baseline="ideographic">Scientific </tspan>
          <tspan x="12.63" y="58" dominant-baseline="ideographic">Inconsistencies</tspan>
        </text>
      </g>
    </g>
  </g>
  <g id="g-root-tx_analyzin_90wduh19afbpl-stroke-fill" data-item-order="0" transform="translate(266, 50)">
    <g id="tx_analyzin_90wduh19afbpl-fill" stroke="none" fill="#f4f4f4">
      <g>
        <text style="font: 20px Roboto, sans-serif; white-space: pre;" font-size="20px" font-family="Roboto, sans-serif">
          <tspan x="12.88" y="34" dominant-baseline="ideographic">Analyzing the Credibility of George Adamski's UFO Claims</tspan>
        </text>
      </g>
    </g>
    <defs>
      <pattern id="crawlingPattern-0000001b" x="0" y="0" width="12" height="12" patternUnits="userSpaceOnUse" fill="#0000001b">
        <use href="#crawlingSymbol"/>
      </pattern>
      <symbol id="crawlingSymbol">
        <g>
          <path d="M -12.5 12.5 l 13 -13 l 6 0 l -13 13 Z M -0.5 12.5 l 13 -13 l 6 0 l -13 13 Z M 11.5 12.5 l 13 -13 l 6 0 l -13 13 Z"/>
        </g>
      </symbol>
    </defs>
  </g>
  <g id="g-root-ic_subt_4l2vq119afchu-stroke-fill" data-item-order="0" transform="translate(260, 140)">
    <g id="ic_subt_4l2vq119afchu-stroke" fill="none" stroke-linecap="round" stroke-linejoin="round" stroke-miterlimit="4" stroke="#f4f4f4" stroke-width="2">
      <g>
        <path d="M 25 42.175003C 16.726721 41.385479 10.490624 34.303505 10.754151 25.996819C 11.017679 17.69013 17.69013 11.017679 25.996819 10.754151C 34.303505 10.490624 41.385479 16.726721 42.175003 25M 10.99 23.755001L 19.315001 23.755001C 20.413012 23.761515 21.462049 24.210331 22.224998 25L 23.724998 26.5C 25.273071 28.036125 25.345621 30.516003 23.889999 32.139999L 22 34.239998C 21.344805 35.007732 20.997431 35.991074 21.025 37L 21.025 41.305M 37.810001 15.55L 29.875 15.55C 28.176723 15.55 26.799999 16.926725 26.799999 18.625C 26.799999 20.323275 28.176723 21.700001 29.875 21.700001L 30.460001 21.700001C 31.82859 21.693155 33.110802 22.368004 33.880001 23.5L 34.255001 24.055M 27.25 36.25C 27.250002 41.220566 31.279438 45.25 36.25 45.25C 41.220566 45.25 45.25 41.220566 45.25 36.25C 45.25 31.279438 41.220566 27.250002 36.25 27.250002C 31.279438 27.250002 27.250002 31.279438 27.250002 36.25M 40.75 36.25L 31.75 36.25"/>
      </g>
    </g>
  </g>
  <g id="g-root-ic_2_1hgyuc919ai4g3-stroke-fill" data-item-order="0" transform="translate(260, 596)">
    <g id="ic_2_1hgyuc919ai4g3-stroke" fill="none" stroke-linecap="round" stroke-linejoin="round" stroke-miterlimit="4" stroke="#f4f4f4" stroke-width="2">
      <g>
        <path d="M 10 10M 12.925014 15.325075L 22.225029 19.37509L 31.525002 15.325075L 22.225029 11.125092L 12.925014 15.325075ZM 27.625 17.575075L 27.625 23.12509C 27.625 26.125151 25.224998 28.67515 22.075075 28.67515C 18.925076 28.67515 16.525061 26.27515 16.525061 23.12509L 16.525061 17.575075M 11.875 41.125149C 11.875 35.425148 16.52503 30.92515 22.075031 30.92515C 23.27503 30.92515 24.475016 31.075001 25.525002 31.525002M 16.525061 23.12509L 27.625 23.12509M 12.925014 15.62509L 12.925014 19.37509M 39.249851 38.72485C 38.499851 37.97485 37.29985 37.97485 36.54985 38.72485L 33.54985 41.72485C 32.34985 42.92485 33.249851 44.874851 34.899849 44.874851L 40.899849 44.874851C 42.54985 44.874851 43.449852 42.774849 42.249851 41.72485L 39.249851 38.72485ZM 32.275002 35.42485C 31.943649 35.42485 31.674999 35.1562 31.674999 34.824852C 31.674999 34.4935 31.943649 34.22485 32.275002 34.22485M 32.274849 35.42485C 32.60635 35.42485 32.874851 35.1562 32.874851 34.824852C 32.874851 34.4935 32.60635 34.22485 32.274849 34.22485M 43.525002 35.42485C 43.193649 35.42485 42.925003 35.1562 42.925003 34.824852C 42.925003 34.4935 43.193649 34.22485 43.525002 34.22485M 43.524849 35.42485C 43.85635 35.42485 44.124851 35.1562 44.124851 34.824852C 44.124851 34.4935 43.85635 34.22485 43.524849 34.22485M 37.900002 33.17485C 37.568649 33.17485 37.300003 32.9062 37.300003 32.574852C 37.300003 32.2435 37.568649 31.97485 37.900002 31.97485M 37.899849 33.17485C 38.23135 33.17485 38.499851 32.9062 38.499851 32.574852C 38.499851 32.2435 38.23135 31.97485 37.899849 31.97485"/>
      </g>
    </g>
  </g>
  <g id="g-root-ic_phot_v4vj1519akyyr-stroke-fill" data-item-order="0" transform="translate(572, 140)">
    <g id="ic_phot_v4vj1519akyyr-stroke" fill="none" stroke-linecap="round" stroke-linejoin="round" stroke-miterlimit="4" stroke="#f4f4f4" stroke-width="2">
      <g>
        <path d="M 15.67504 30.947651L 11.242693 21.142691C 10.942693 20.54269 11.242684 19.94269 11.84269 19.642691L 30.292749 11.242691C 30.89275 10.942692 31.49275 11.242693 31.792749 11.84269L 40.50235 30.947651M 10 10M 38.692749 27.14275L 30.2551 30.977951M 10 10M 24.957161 30.839951L 26.4571 23.039934C 26.757099 21.539936 28.257099 20.789921 29.6071 21.389919L 37.857101 25.13995M 19.19269 25.942749C 20.601025 25.942749 21.74272 24.8011 21.74272 23.392765C 21.74272 21.984446 20.601025 20.842779 19.19269 20.842779C 17.78437 20.842779 16.642706 21.984446 16.642706 23.392765C 16.642706 24.8011 17.78437 25.942749 19.19269 25.942749ZM 10 10M 37.525002 14.242735L 43.824997 14.392735C 44.425003 14.392735 44.875 14.842735 44.875 15.592735L 44.724998 29.842751M 28.9627 44.788151L 28.9627 35.788151M 34.9627 35.788151L 28.9627 41.788151M 31.2127 39.538151L 35.7127 44.788151M 10 10M 44.7547 35.788151L 38.7547 35.788151L 38.7547 44.788151L 44.7547 44.788151M 38.7547 39.913151L 44.0047 39.913151M 11.2453 44.788151L 11.2453 35.788151L 17.2453 35.788151M 10 10M 11.2453 39.913151L 16.4953 39.913151M 10 10M 18.530334 44.788151L 21.293171 36.499748C 21.434799 36.074799 21.832436 35.788151 22.280334 35.788151L 22.280334 35.788151C 22.72822 35.788151 23.12587 36.074799 23.2675 36.499748L 26.03035 44.788151M 19.53034 41.788151L 25.0303 41.788151"/>
      </g>
    </g>
  </g>
  <g id="g-root-ic_disa_4nks2h19ambr8-stroke-fill" data-item-order="0" transform="translate(572, 596)">
    <g id="ic_disa_4nks2h19ambr8-stroke" fill="none" stroke-linecap="round" stroke-linejoin="round" stroke-miterlimit="4" stroke="#f4f4f4" stroke-width="2">
      <g>
        <path d="M 23.74 43.375C 22.400204 41.05468 19.924356 39.625328 17.244999 39.625328C 14.565644 39.625328 12.089796 41.05468 10.75 43.375M 13.375 30.594999C 15.538566 32.818375 18.847719 33.480206 21.700001 32.260002M 12.745 32.875C 12.745 35.360283 14.759719 37.375 17.244999 37.375C 19.730282 37.375 21.744999 35.360283 21.744999 32.875C 21.744999 30.389719 19.730282 28.375 17.244999 28.375C 14.759719 28.375 12.745 30.389719 12.745 32.875M 45.25 43.375C 43.910206 41.05468 41.434357 39.625328 38.755001 39.625328C 36.075645 39.625328 33.599796 41.05468 32.260002 43.375M 34.869999 30.594999C 37.036236 32.824879 40.353603 33.48716 43.209999 32.260002M 34.255001 32.875C 34.255001 35.360283 36.269718 37.375 38.755001 37.375C 41.24028 37.375 43.255001 35.360283 43.255001 32.875C 43.255001 30.389719 41.24028 28.375 38.755001 28.375C 36.269718 28.375 34.255001 30.389719 34.255001 32.875M 40 15.625L 35.5 20.125M 35.5 15.625L 40 20.125M 20.92 15.385L 18.025 19.255001C 17.889296 19.427267 17.688457 19.535828 17.469999 19.554998C 17.252117 19.565092 17.039963 19.483494 16.885 19.33L 15.385 17.83M 25.75 22.375C 25.75 23.203428 25.078428 23.875 24.25 23.875L 21.25 23.875L 21.25 26.875L 17.5 23.875L 12.25 23.875C 11.421573 23.875 10.75 23.203428 10.75 22.375L 10.75 13.375C 10.75 12.546573 11.421573 11.875 12.25 11.875L 24.25 11.875C 25.078428 11.875 25.75 12.546573 25.75 13.375ZM 30.25 22.375C 30.25 23.203428 30.921572 23.875 31.75 23.875L 34.75 23.875L 34.75 26.875L 38.5 23.875L 43.75 23.875C 44.578426 23.875 45.25 23.203428 45.25 22.375L 45.25 13.375C 45.25 12.546573 44.578426 11.875 43.75 11.875L 31.75 11.875C 30.921572 11.875 30.25 12.546573 30.25 13.375Z"/>
      </g>
    </g>
  </g>
  <g id="g-root-ic_ufo_qvauxl19a1a8d-stroke-fill" data-item-order="0" transform="translate(740, 362)">
    <g id="ic_ufo_qvauxl19a1a8d-stroke" fill="none" stroke-linecap="round" stroke-linejoin="round" stroke-miterlimit="4" stroke="#f4f4f4" stroke-width="2">
      <g>
        <path d="M 49 22.5C 52.977859 22.499041 56.352161 25.420879 56.919998 29.358C 56.961449 29.646814 56.874687 29.939325 56.682472 30.158836C 56.490257 30.378345 56.211758 30.502958 55.919998 30.5L 12.07 30.5C 11.778242 30.502958 11.499743 30.378345 11.307528 30.158836C 11.115312 29.939325 11.028553 29.646814 11.07 29.358C 11.638377 25.417118 15.018346 22.494064 19 22.5ZM 19 22.5C 19 17.5 25.716 11.5 34 11.5C 42.284 11.5 49 17.5 49 22.5M 47.77 39.5L 52.995998 56.5M 14.996 56.5L 20.232 39.5M 34.996002 49.5L 31.996 53.652M 37.996002 53.5L 34.996002 49.5M 31.996 46.5L 37.996002 46.5M 35 41.5C 35.552284 41.5 36 41.947716 36 42.5M 34 42.5C 34 41.947716 34.447716 41.5 35 41.5M 35 43.5C 34.447716 43.5 34 43.052284 34 42.5M 36 42.5C 36 43.052284 35.552284 43.5 35 43.5M 34.996002 49.5L 34.996002 46.5M 25 30.5C 25 33.261421 22.761425 35.5 20 35.5C 17.238577 35.5 15 33.261421 15 30.5M 39 30.5C 39 33.261421 36.761425 35.5 34 35.5C 31.238577 35.5 29 33.261421 29 30.5M 53 30.5C 53 33.261421 50.761425 35.5 48 35.5C 45.238575 35.5 43 33.261421 43 30.5"/>
      </g>
    </g>
  </g>
</svg>
