<?xml version='1.0' encoding='utf-8'?>
<svg xmlns="http://www.w3.org/2000/svg" xmlns:xlink="http://www.w3.org/1999/xlink" width="1032" height="708" viewBox="0 0 1032 708" style="fill:none;stroke:none;fill-rule:evenodd;clip-rule:evenodd;stroke-linecap:round;stroke-linejoin:round;stroke-miterlimit:1.5;" version="1.1">
  <style class="text-font-style fontImports" data-font-family="Roboto">@import url('https://fonts.googleapis.com/css2?family=Roboto:wght@400;700&amp;display=block');</style>
  <rect x="0" y="0" width="1032" height="708" fill="#252a34" stroke="none" id="programmatic_background"/>
  <g id="g-root-tf_18lbns91aef405-stroke-fill" data-item-order="-683424" transform="translate(12, 12)"/>
  <g id="g-root-sy_4_cu_14802091ae845p-stroke-fill" data-item-order="-317369" transform="translate(602, 386)">
    <g id="sy_4_cu_14802091ae845p-stroke" fill="none" stroke-linecap="round" stroke-linejoin="round" stroke-miterlimit="4" stroke="#ffe711" stroke-width="2">
      <g>
        <path d="M 33.850586 154.000488L 45.850586 154.000488M 58.200195 70L 70.200195 70M 87.9997 10L 21.9997 238L 10 238"/>
      </g>
    </g>
  </g>
  <g id="g-root-sy_3_cu_zitfl51ae9gcm-stroke-fill" data-item-order="-317365" transform="translate(602, 158.00048828125)">
    <g id="sy_3_cu_zitfl51ae9gcm-stroke" fill="none" stroke-linecap="round" stroke-linejoin="round" stroke-miterlimit="4" stroke="#fb6762" stroke-width="2">
      <g>
        <path d="M 33.84668 93.999512L 45.84668 93.999512M 58.195313 177.999512L 70.195313 177.999512M 87.9997 238L 21.9997 10L 10 10"/>
      </g>
    </g>
  </g>
  <g id="g-root-sy_2_cu_qn6fc91ae9h5b-stroke-fill" data-item-order="-317361" transform="translate(290, 385.99951171875)">
    <g id="sy_2_cu_qn6fc91ae9h5b-stroke" fill="none" stroke-linecap="round" stroke-linejoin="round" stroke-miterlimit="4" stroke="#b7b7b7" stroke-width="2">
      <g>
        <path d="M 33.851563 154.000488L 45.851563 154.000488M 58.200195 70.000488L 70.200195 70.000488M 87.9997 10L 21.9997 238L 10 238"/>
      </g>
    </g>
  </g>
  <g id="g-root-sy_1_cu_m7cx7t1ae9hxk-stroke-fill" data-item-order="-317357" transform="translate(290, 158.00048828125)">
    <g id="sy_1_cu_m7cx7t1ae9hxk-stroke" fill="none" stroke-linecap="round" stroke-linejoin="round" stroke-miterlimit="4" stroke="#43dd93" stroke-width="2">
      <g>
        <path d="M 33.851563 93.999512L 45.851563 93.999512M 58.200195 177.999512L 70.200195 177.999512M 87.9997 238L 21.9997 10L 10 10"/>
      </g>
    </g>
  </g>
  <g id="g-root-sy_-1_line_m7cx7t1ae9hxl-stroke-fill" data-item-order="-317351" transform="translate(26, 386)">
    <g id="sy_-1_line_m7cx7t1ae9hxl-stroke" fill="none" stroke-linecap="round" stroke-linejoin="round" stroke-miterlimit="4" stroke="#f4f4f4" stroke-width="2">
      <g>
        <path d="M 704 10L 10 10"/>
        <path d="M 698 16.5L 704.5 10L 698 3.5" stroke-dasharray="none"/>
      </g>
    </g>
  </g>
  <g id="g-root-tx_credibil_hrjf3d1ae9ipu-stroke-fill" data-item-order="0" transform="translate(794, 350)">
    <g id="tx_credibil_hrjf3d1ae9ipu-fill" stroke="none" fill="#f4f4f4">
      <g>
        <text style="font: 20px Roboto, sans-serif; white-space: pre;" font-size="20px" font-family="Roboto, sans-serif">
          <tspan x="12" y="34" dominant-baseline="ideographic">Credibility and </tspan>
          <tspan x="12" y="58" dominant-baseline="ideographic">Interpretation of </tspan>
          <tspan x="12" y="82" dominant-baseline="ideographic">Cooper's UFO Claims</tspan>
        </text>
      </g>
    </g>
  </g>
  <g id="g-root-tx_mediarep_1um6fjd1ae9hqj-stroke-fill" data-item-order="0" transform="translate(434, 434)">
    <g id="tx_mediarep_1um6fjd1ae9hqj-fill" stroke="none" fill="#f4f4f4">
      <g>
        <text style="font: 20px Roboto, sans-serif; white-space: pre;" font-size="20px" font-family="Roboto, sans-serif">
          <tspan x="23.06" y="34" dominant-baseline="ideographic">Media representation</tspan>
        </text>
      </g>
    </g>
  </g>
  <g id="g-root-tx_publicfa_1q6cxex1ae9iis-stroke-fill" data-item-order="0" transform="translate(446, 518)">
    <g id="tx_publicfa_1q6cxex1ae9iis-fill" stroke="none" fill="#f4f4f4">
      <g>
        <text style="font: 20px Roboto, sans-serif; white-space: pre;" font-size="20px" font-family="Roboto, sans-serif">
          <tspan x="16.7" y="34" dominant-baseline="ideographic">Public fascination</tspan>
        </text>
      </g>
    </g>
  </g>
  <g id="g-root-tx_cultural_1cviw4p1ae9gxx-stroke-fill" data-item-order="0" transform="translate(386, 602)">
    <g id="tx_cultural_1cviw4p1ae9gxx-fill" stroke="none" fill="#f4f4f4">
      <g>
        <text style="font: 20px Roboto, sans-serif; white-space: pre;" font-size="20px" font-family="Roboto, sans-serif">
          <tspan x="20.84" y="34" dominant-baseline="ideographic">Cultural Influence</tspan>
        </text>
      </g>
    </g>
  </g>
  <g id="g-root-tx_misquota_13zvvvt1ae9hqm-stroke-fill" data-item-order="0" transform="translate(506, 314)">
    <g id="tx_misquota_13zvvvt1ae9hqm-fill" stroke="none" fill="#f4f4f4">
      <g>
        <text style="font: 20px Roboto, sans-serif; white-space: pre;" font-size="20px" font-family="Roboto, sans-serif">
          <tspan x="11.95" y="34" dominant-baseline="ideographic">Misquotations</tspan>
        </text>
      </g>
    </g>
  </g>
  <g id="g-root-tx_naturale_zk2drd1ae9iiv-stroke-fill" data-item-order="0" transform="translate(422, 230)">
    <g id="tx_naturale_zk2drd1ae9iiv-fill" stroke="none" fill="#f4f4f4">
      <g>
        <text style="font: 20px Roboto, sans-serif; white-space: pre;" font-size="20px" font-family="Roboto, sans-serif">
          <tspan x="16.58" y="34" dominant-baseline="ideographic">Natural explanations</tspan>
        </text>
      </g>
    </g>
  </g>
  <g id="g-root-tx_skeptica_v4vcq11ae9g5c-stroke-fill" data-item-order="0" transform="translate(338, 146)">
    <g id="tx_skeptica_v4vcq11ae9g5c-fill" stroke="none" fill="#f4f4f4">
      <g>
        <text style="font: 20px Roboto, sans-serif; white-space: pre;" font-size="20px" font-family="Roboto, sans-serif">
          <tspan x="23.38" y="34" dominant-baseline="ideographic">Skeptical Perspectives</tspan>
        </text>
      </g>
    </g>
  </g>
  <g id="g-root-tx_lackofco_hteucp1ae9hq9-stroke-fill" data-item-order="0" transform="translate(122, 434)">
    <g id="tx_lackofco_hteucp1ae9hq9-fill" stroke="none" fill="#f4f4f4">
      <g>
        <text style="font: 20px Roboto, sans-serif; white-space: pre;" font-size="20px" font-family="Roboto, sans-serif">
          <tspan x="21.06" y="34" dominant-baseline="ideographic">Lack of corroboration</tspan>
        </text>
      </g>
    </g>
  </g>
  <g id="g-root-tx_disappea_8xru3t1ae9iiy-stroke-fill" data-item-order="0" transform="translate(98, 518)">
    <g id="tx_disappea_8xru3t1ae9iiy-fill" stroke="none" fill="#f4f4f4">
      <g>
        <text style="font: 20px Roboto, sans-serif; white-space: pre;" font-size="20px" font-family="Roboto, sans-serif">
          <tspan x="17.7" y="34" dominant-baseline="ideographic">Disappearance of film</tspan>
        </text>
      </g>
    </g>
  </g>
  <g id="g-root-tx_document_1uo1usp1ae9gqz-stroke-fill" data-item-order="0" transform="translate(26, 602)">
    <g id="tx_document_1uo1usp1ae9gqz-fill" stroke="none" fill="#f4f4f4">
      <g>
        <text style="font: 20px Roboto, sans-serif; white-space: pre;" font-size="20px" font-family="Roboto, sans-serif">
          <tspan x="20.31" y="34" dominant-baseline="ideographic">Documentary Evidence</tspan>
        </text>
      </g>
    </g>
  </g>
  <g id="g-root-tx_astronau_1hclcfd1ae9ibw-stroke-fill" data-item-order="0" transform="translate(158, 314)">
    <g id="tx_astronau_1hclcfd1ae9ibw-fill" stroke="none" fill="#f4f4f4">
      <g>
        <text style="font: 20px Roboto, sans-serif; white-space: pre;" font-size="20px" font-family="Roboto, sans-serif">
          <tspan x="16.78" y="34" dominant-baseline="ideographic">Astronaut training</tspan>
        </text>
      </g>
    </g>
  </g>
  <g id="g-root-tx_testpilo_1cwruax1ae9j45-stroke-fill" data-item-order="0" transform="translate(110, 230)">
    <g id="tx_testpilo_1cwruax1ae9j45-fill" stroke="none" fill="#f4f4f4">
      <g>
        <text style="font: 20px Roboto, sans-serif; white-space: pre;" font-size="20px" font-family="Roboto, sans-serif">
          <tspan x="16" y="34" dominant-baseline="ideographic">Test pilot experience</tspan>
        </text>
      </g>
    </g>
  </g>
  <g id="g-root-tx_coopersq_zlxt0p1ae9hja-stroke-fill" data-item-order="0" transform="translate(26, 146)">
    <g id="tx_coopersq_zlxt0p1ae9hja-fill" stroke="none" fill="#f4f4f4">
      <g>
        <text style="font: 20px Roboto, sans-serif; white-space: pre;" font-size="20px" font-family="Roboto, sans-serif">
          <tspan x="19.39" y="34" dominant-baseline="ideographic">Cooper's Qualifications</tspan>
        </text>
      </g>
    </g>
  </g>
  <g id="g-root-tx_analyzin_qqasrt1ae9ibz-stroke-fill" data-item-order="0" transform="translate(326, 50)">
    <g id="tx_analyzin_qqasrt1ae9ibz-fill" stroke="none" fill="#f4f4f4">
      <g>
        <text style="font: 20px Roboto, sans-serif; white-space: pre;" font-size="20px" font-family="Roboto, sans-serif">
          <tspan x="17.02" y="34" dominant-baseline="ideographic">Analyzing Gordon Cooper's UFO Sightings</tspan>
        </text>
      </g>
    </g>
    <defs>
      <pattern id="crawlingPattern-0000001b" x="0" y="0" width="12" height="12" patternUnits="userSpaceOnUse" fill="#0000001b">
        <use href="#crawlingSymbol"/>
      </pattern>
      <symbol id="crawlingSymbol">
        <g>
          <path d="M -12.5 12.5 l 13 -13 l 6 0 l -13 13 Z M -0.5 12.5 l 13 -13 l 6 0 l -13 13 Z M 11.5 12.5 l 13 -13 l 6 0 l -13 13 Z"/>
        </g>
      </symbol>
    </defs>
  </g>
  <g id="g-root-ic_astr_hva9m11ae9gqo-stroke-fill" data-item-order="0" transform="translate(254, 140)">
    <g id="ic_astr_hva9m11ae9gqo-stroke" fill="none" stroke-linecap="round" stroke-linejoin="round" stroke-miterlimit="4" stroke="#f4f4f4" stroke-width="2">
      <g>
        <path d="M 15.25 25.75C 15.25 33.206501 20.543499 37.75 28 37.75C 35.456501 37.75 40.75 33.206501 40.75 25.75L 40.75 24.25C 40.75 16.793499 35.456501 10.75 28 10.75C 20.543499 10.75 15.25 16.793499 15.25 24.25ZM 37.75 25C 37.75 30.385 33.385002 31.75 28 31.75C 22.615 31.75 18.25 30.385 18.25 25C 18.25 19.615225 22.615225 15.250001 28 15.250001C 33.384777 15.250001 37.75 19.615225 37.75 25ZM 22.27 23.218C 22.854071 21.351072 24.308289 19.883991 26.17 19.283499M 45.25 45.25L 45.25 43.75C 45.248749 41.247398 43.694313 39.008411 41.349998 38.1325L 35.102501 36.032501M 20.8915 36.0355L 14.65 38.1325C 12.305686 39.008411 10.75125 41.247398 10.75 43.75L 10.75 45.25M 43.75 36.25L 43.75 21.25C 43.75 17.936291 41.063709 15.25 37.75 15.25L 37.645 15.25M 18.355 15.25L 18.25 15.25C 14.936292 15.25 12.25 17.936291 12.25 21.25L 12.25 36.25M 22 45.25C 21.585787 45.25 21.25 44.914215 21.25 44.5L 21.25 42.25C 21.25 41.421574 21.921574 40.75 22.75 40.75L 33.25 40.75C 34.078426 40.75 34.75 41.421574 34.75 42.25L 34.75 44.5C 34.75 44.914215 34.414215 45.25 34 45.25ZM 10 10M 28.75 40.75L 28.75 45.25M 10 10M 37.75 43.75L 40.75 43.75M 10 10M 15.25 45.25L 18.25 45.25M 10 10M 16.75 42.25L 18.25 42.25"/>
      </g>
    </g>
  </g>
  <g id="g-root-ic_prin_1qd85d51ae9gy1-stroke-fill" data-item-order="0" transform="translate(254, 596)">
    <g id="ic_prin_1qd85d51ae9gy1-stroke" fill="none" stroke-linecap="round" stroke-linejoin="round" stroke-miterlimit="4" stroke="#f4f4f4" stroke-width="2">
      <g>
        <path d="M 18.25 10.75L 18.25 24.25C 18.25 25.078428 18.921574 25.75 19.75 25.75L 36.25 25.75C 37.078426 25.75 37.75 25.078428 37.75 24.25L 37.75 10.75M 18.25 45.25L 18.25 31.75C 18.25 30.921572 18.921574 30.25 19.75 30.25L 36.25 30.25C 37.078426 30.25 37.75 30.921572 37.75 31.75L 37.75 45.25M 10.75 45.25L 10.75 10.75M 15.25 12.25L 13.75 12.25M 15.25 16.75L 13.75 16.75M 15.25 21.25L 13.75 21.25M 15.25 25.75L 13.75 25.75M 15.25 30.25L 13.75 30.25M 15.25 34.75L 13.75 34.75M 15.25 39.25L 13.75 39.25M 15.25 43.75L 13.75 43.75M 45.25 45.25L 45.25 10.75M 40.75 12.25L 42.25 12.25M 40.75 16.75L 42.25 16.75M 40.75 21.25L 42.25 21.25M 40.75 25.75L 42.25 25.75M 40.75 30.25L 42.25 30.25M 40.75 34.75L 42.25 34.75M 40.75 39.25L 42.25 39.25M 40.75 43.75L 42.25 43.75"/>
      </g>
    </g>
  </g>
  <g id="g-root-ic_ques_1uualnt1aeavpm-stroke-fill" data-item-order="0" transform="translate(566, 140)">
    <g id="ic_ques_1uualnt1aeavpm-stroke" fill="none" stroke-linecap="round" stroke-linejoin="round" stroke-miterlimit="4" stroke="#f4f4f4" stroke-width="2">
      <g>
        <path d="M 40.75 30.859001C 43.105339 29.770241 44.581764 27.379015 44.499996 24.7855C 44.471603 22.866314 43.663738 21.041248 42.262142 19.729908C 40.86055 18.418568 38.985828 17.733786 37.069 17.833C 35.35989 14.393121 31.841 12.226844 28 12.25C 22.765785 12.179777 18.380125 16.193558 17.987499 21.4135C 16.424858 21.069933 14.790498 21.444935 13.533941 22.435364C 12.277384 23.425793 11.530971 24.927336 11.5 26.527C 11.375261 28.865057 12.962808 30.949186 15.25 31.450001M 19 34.75C 19 39.720566 23.029438 43.75 28 43.75C 32.970566 43.75 37 39.720566 37 34.75C 37 29.779438 32.970566 25.750002 28 25.750002C 23.029438 25.750002 19 29.779438 19 34.75ZM 25.1875 32.563C 25.187502 31.009701 26.446701 29.750502 28.000002 29.750502C 29.553303 29.750502 30.812502 31.009701 30.812502 32.563C 30.812502 34.116302 29.553303 35.375504 28.000002 35.375504L 28 36.8755M 28 39.8755C 27.792892 39.8755 27.625 40.043392 27.625 40.2505C 27.625 40.457607 27.792892 40.6255 28 40.6255C 28.207108 40.6255 28.375 40.457607 28.375 40.2505C 28.375 40.043392 28.207108 39.8755 28 39.8755L 28 39.8755"/>
      </g>
    </g>
  </g>
  <g id="g-root-ic_1_zlbbxl1aedouj-stroke-fill" data-item-order="0" transform="translate(566, 596)">
    <g id="ic_1_zlbbxl1aedouj-stroke" fill="none" stroke-linecap="round" stroke-linejoin="round" stroke-miterlimit="4" stroke="#f4f4f4" stroke-width="2">
      <g>
        <path d="M 24.889 31.8715C 15.139 31.8715 16.021 23.0035 16.021 23.0035C 26.661999 23.0035 24.889 31.8715 24.889 31.8715ZM 31.111 31.8715C 40.861 31.8715 39.979 23.0035 39.979 23.0035C 29.338001 23.0035 31.111 31.8715 31.111 31.8715ZM 43.75 25.375C 43.75 34.903 32.5 44.875 28 44.875C 23.5 44.875 12.25 34.900002 12.25 25.375C 12.25 15.85 18.472 11.125 28 11.125C 37.528 11.125 43.75 15.85 43.75 25.375Z"/>
      </g>
    </g>
  </g>
  <g id="g-root-ic_ufo_142ds891aedq8c-stroke-fill" data-item-order="0" transform="translate(734, 362)">
    <g id="ic_ufo_142ds891aedq8c-stroke" fill="none" stroke-linecap="round" stroke-linejoin="round" stroke-miterlimit="4" stroke="#f4f4f4" stroke-width="2">
      <g>
        <path d="M 49 22.5C 52.977859 22.499041 56.352161 25.420879 56.919998 29.358C 56.961449 29.646814 56.874687 29.939325 56.682472 30.158836C 56.490257 30.378345 56.211758 30.502958 55.919998 30.5L 12.07 30.5C 11.778242 30.502958 11.499743 30.378345 11.307528 30.158836C 11.115312 29.939325 11.028553 29.646814 11.07 29.358C 11.638377 25.417118 15.018346 22.494064 19 22.5ZM 19 22.5C 19 17.5 25.716 11.5 34 11.5C 42.284 11.5 49 17.5 49 22.5M 47.77 39.5L 52.995998 56.5M 14.996 56.5L 20.232 39.5M 34.996002 49.5L 31.996 53.652M 37.996002 53.5L 34.996002 49.5M 31.996 46.5L 37.996002 46.5M 35 41.5C 35.552284 41.5 36 41.947716 36 42.5M 34 42.5C 34 41.947716 34.447716 41.5 35 41.5M 35 43.5C 34.447716 43.5 34 43.052284 34 42.5M 36 42.5C 36 43.052284 35.552284 43.5 35 43.5M 34.996002 49.5L 34.996002 46.5M 25 30.5C 25 33.261421 22.761425 35.5 20 35.5C 17.238577 35.5 15 33.261421 15 30.5M 39 30.5C 39 33.261421 36.761425 35.5 34 35.5C 31.238577 35.5 29 33.261421 29 30.5M 53 30.5C 53 33.261421 50.761425 35.5 48 35.5C 45.238575 35.5 43 33.261421 43 30.5"/>
      </g>
    </g>
  </g>
</svg>
