<svg width="816" height="636" viewBox="0 0 816 636" style="fill:none;stroke:none;fill-rule:evenodd;clip-rule:evenodd;stroke-linecap:round;stroke-linejoin:round;stroke-miterlimit:1.5;" version="1.1" xmlns="http://www.w3.org/2000/svg" xmlns:xlink="http://www.w3.org/1999/xlink"><style class="text-font-style fontImports" data-font-family="Roboto">@import url('https://fonts.googleapis.com/css2?family=Roboto:wght@400;700&amp;display=block');</style><g id="g-root-tf_zrk5yh190lcsk-stroke-fill" data-item-order="-477360" transform="translate(18, 12)"><g id="tf_zrk5yh190lcsk-fill" stroke="none" fill="#2c2c2c"><g><path d="M 0 0L 780 0L 780 612L 0 612Z"></path></g></g><defs><pattern id="crawlingPattern-7878781a" x="0" y="0" width="12" height="12" patternUnits="userSpaceOnUse" fill="#7878781a"><use href="#crawlingSymbol"></use></pattern><symbol id="crawlingSymbol"><g><animateTransform attributeName="transform" type="translate" from="0 0" to="-12 0" dur="0.4s" repeatCount="indefinite"></animateTransform><path d="M -12.5 12.5 l 13 -13 l 6 0 l -13 13 Z M -0.5 12.5 l 13 -13 l 6 0 l -13 13 Z M 11.5 12.5 l 13 -13 l 6 0 l -13 13 Z"></path></g></symbol><pattern id="crawlingPattern-ffe50099" x="0" y="0" width="12" height="12" patternUnits="userSpaceOnUse" fill="#ffe50099"><use href="#crawlingSymbol"></use></pattern><pattern id="crawlingPattern-f908001a" x="0" y="0" width="12" height="12" patternUnits="userSpaceOnUse" fill="#f908001a"><use href="#crawlingSymbol"></use></pattern><pattern id="crawlingPattern-8484841a" x="0" y="0" width="12" height="12" patternUnits="userSpaceOnUse" fill="#8484841a"><use href="#crawlingSymbol"></use></pattern><pattern id="crawlingPattern-00d16d21" x="0" y="0" width="12" height="12" patternUnits="userSpaceOnUse" fill="#00d16d21"><use href="#crawlingSymbol"></use></pattern><pattern id="crawlingPattern-ffffff38" x="0" y="0" width="12" height="12" patternUnits="userSpaceOnUse" fill="#ffffff38"><use href="#crawlingSymbol"></use></pattern><pattern id="crawlingPattern-0000001b" x="0" y="0" width="12" height="12" patternUnits="userSpaceOnUse" fill="#0000001b"><use href="#crawlingSymbol"></use></pattern><pattern id="crawlingPattern-5f5f5f1a" x="0" y="0" width="12" height="12" patternUnits="userSpaceOnUse" fill="#5f5f5f1a"><use href="#crawlingSymbol"></use></pattern></defs><g id="tf_zrk5yh190lcsk-fill-overlay" stroke="none" fill="url(#crawlingPattern-5f5f5f1a)"><g><path d="M 0 0L 780 0L 780 612L 0 612Z"></path></g></g></g><g id="g-root-sy_-1_cu_909tm1190lcll-stroke-fill" data-item-order="-316218" transform="translate(32, 265.00390625)"><g id="sy_-1_cu_909tm1190lcll-fill" stroke="none" fill="#ababab"><g><path d="M 10.001 143L 10 47L 67 47L 70 59L 322 59L 319 47L 367 47L 370 59L 622 59L 619 47L 646 47L 646 10L 742 95L 646.002 180L 646 143L 619 143L 622 131L 370 131L 367 143L 319.001 143L 322.001 131L 70.001 131L 67.001 143L 10.001 143Z"></path></g></g><g id="sy_-1_cu_909tm1190lcll-fill-overlay" stroke="none" fill="url(#crawlingPattern-7878781a)"><g><path d="M 10.001 143L 10 47L 67 47L 70 59L 322 59L 319 47L 367 47L 370 59L 622 59L 619 47L 646 47L 646 10L 742 95L 646.002 180L 646 143L 619 143L 622 131L 370 131L 367 143L 319.001 143L 322.001 131L 70.001 131L 67.001 143L 10.001 143Z"></path></g></g><g id="sy_-1_cu_909tm1190lcll-stroke" fill="none" stroke-linecap="round" stroke-linejoin="round" stroke-miterlimit="4" stroke="#2c2c2c" stroke-width="2"><g><path d="M 10.001 143L 10 47L 67 47L 70 59L 322 59L 319 47L 367 47L 370 59L 622 59L 619 47L 646 47L 646 10L 742 95L 646.0017 180L 646 143L 619 143L 622 131L 370 131L 367 143L 319.001 143L 322.001 131L 70.001 131L 67.001 143L 10.001 143Z"></path></g></g><g id="sy_-1_cu_909tm1190lcll-stroke-overlay" fill="none" stroke-linecap="round" stroke-linejoin="round" stroke-miterlimit="4" stroke="#ffffff29" stroke-width="2" stroke-dasharray="4,6"><animate attributeName="stroke-dashoffset" values="30;0" dur="1s" repeatCount="indefinite" begin="0"></animate><g><path d="M 10.001 143L 10 47L 67 47L 70 59L 322 59L 319 47L 367 47L 370 59L 622 59L 619 47L 646 47L 646 10L 742 95L 646.0017 180L 646 143L 619 143L 622 131L 370 131L 367 143L 319.001 143L 322.001 131L 70.001 131L 67.001 143L 10.001 143Z"></path></g></g></g><g id="g-root-sy_4_cu_4kgbhl190lddu-stroke-fill" data-item-order="-316214" transform="translate(347, 386)"><g id="sy_4_cu_4kgbhl190lddu-fill" stroke="none" fill="#ffe711"><g><path d="M 307 10L 295 58L 43 58L 55 10L 307 10ZM 291.992188 70L 279.992188 118L 27.992188 118L 39.992188 70L 291.992188 70ZM 277 130L 25 130L 10 190L 262 190L 277 130Z"></path></g></g><g id="sy_4_cu_4kgbhl190lddu-fill-overlay" stroke="none" fill="url(#crawlingPattern-ffe50099)"><g><path d="M 307 10L 295 58L 43 58L 55 10L 307 10ZM 291.992188 70L 279.992188 118L 27.992188 118L 39.992188 70L 291.992188 70ZM 277 130L 25 130L 10 190L 262 190L 277 130Z"></path></g></g><g id="sy_4_cu_4kgbhl190lddu-stroke" fill="none" stroke-linecap="round" stroke-linejoin="round" stroke-miterlimit="4" stroke="#2c2c2c" stroke-width="2"><g><path d="M 307 10L 295 58L 43 58L 55 10L 307 10ZM 291.992188 70L 279.992188 118L 27.992188 118L 39.992188 70L 291.992188 70ZM 277 130L 25 130L 10 190L 262 190L 277 130Z"></path></g></g><g id="sy_4_cu_4kgbhl190lddu-stroke-overlay" fill="none" stroke-linecap="round" stroke-linejoin="round" stroke-miterlimit="4" stroke="#ffffff29" stroke-width="2" stroke-dasharray="4,6"><animate attributeName="stroke-dashoffset" values="30;0" dur="1s" repeatCount="indefinite" begin="0"></animate><g><path d="M 307 10L 295 58L 43 58L 55 10L 307 10ZM 291.992188 70L 279.992188 118L 27.992188 118L 39.992188 70L 291.992188 70ZM 277 130L 25 130L 10 190L 262 190L 277 130Z"></path></g></g></g><g id="g-root-sy_3_cu_1qaqc6h190lblv-stroke-fill" data-item-order="-316210" transform="translate(347, 134)"><g id="sy_3_cu_1qaqc6h190lblv-fill" stroke="none" fill="#fb6762"><g><path d="M 307 190L 295 142L 43 142L 55 190L 307 190ZM 291.992188 130L 279.992188 82L 27.992188 82L 39.992188 130L 291.992188 130ZM 277 70L 25 70L 10 10L 262 10L 277 70Z"></path></g></g><g id="sy_3_cu_1qaqc6h190lblv-fill-overlay" stroke="none" fill="url(#crawlingPattern-f908001a)"><g><path d="M 307 190L 295 142L 43 142L 55 190L 307 190ZM 291.992188 130L 279.992188 82L 27.992188 82L 39.992188 130L 291.992188 130ZM 277 70L 25 70L 10 10L 262 10L 277 70Z"></path></g></g><g id="sy_3_cu_1qaqc6h190lblv-stroke" fill="none" stroke-linecap="round" stroke-linejoin="round" stroke-miterlimit="4" stroke="#2c2c2c" stroke-width="2"><g><path d="M 307 190L 295 142L 43 142L 55 190L 307 190ZM 291.992188 130L 279.992188 82L 27.992188 82L 39.992188 130L 291.992188 130ZM 277 70L 25 70L 10 10L 262 10L 277 70Z"></path></g></g><g id="sy_3_cu_1qaqc6h190lblv-stroke-overlay" fill="none" stroke-linecap="round" stroke-linejoin="round" stroke-miterlimit="4" stroke="#ffffff29" stroke-width="2" stroke-dasharray="4,6"><animate attributeName="stroke-dashoffset" values="30;0" dur="1s" repeatCount="indefinite" begin="0"></animate><g><path d="M 307 190L 295 142L 43 142L 55 190L 307 190ZM 291.992188 130L 279.992188 82L 27.992188 82L 39.992188 130L 291.992188 130ZM 277 70L 25 70L 10 10L 262 10L 277 70Z"></path></g></g></g><g id="g-root-sy_2_cu_1hf3bxl190lcek-stroke-fill" data-item-order="-316206" transform="translate(47, 386)"><g id="sy_2_cu_1hf3bxl190lcek-fill" stroke="none" fill="#b7b7b7"><g><path d="M 307.000977 10L 295.000977 58L 43.000977 58L 55.000977 10L 307.000977 10ZM 291.993164 70L 279.993164 118L 27.993164 118L 39.993164 70L 291.993164 70ZM 277.001 130L 25.001 130L 10 190L 262 190L 277.001 130Z"></path></g></g><g id="sy_2_cu_1hf3bxl190lcek-fill-overlay" stroke="none" fill="url(#crawlingPattern-8484841a)"><g><path d="M 307.000977 10L 295.000977 58L 43.000977 58L 55.000977 10L 307.000977 10ZM 291.993164 70L 279.993164 118L 27.993164 118L 39.993164 70L 291.993164 70ZM 277.001 130L 25.001 130L 10 190L 262 190L 277.001 130Z"></path></g></g><g id="sy_2_cu_1hf3bxl190lcek-stroke" fill="none" stroke-linecap="round" stroke-linejoin="round" stroke-miterlimit="4" stroke="#2c2c2c" stroke-width="2"><g><path d="M 307.000977 10L 295.000977 58L 43.000977 58L 55.000977 10L 307.000977 10ZM 291.993164 70L 279.993164 118L 27.993164 118L 39.993164 70L 291.993164 70ZM 277.001 130L 25.001 130L 10 190L 262 190L 277.001 130Z"></path></g></g><g id="sy_2_cu_1hf3bxl190lcek-stroke-overlay" fill="none" stroke-linecap="round" stroke-linejoin="round" stroke-miterlimit="4" stroke="#ffffff29" stroke-width="2" stroke-dasharray="4,6"><animate attributeName="stroke-dashoffset" values="30;0" dur="1s" repeatCount="indefinite" begin="0"></animate><g><path d="M 307.000977 10L 295.000977 58L 43.000977 58L 55.000977 10L 307.000977 10ZM 291.993164 70L 279.993164 118L 27.993164 118L 39.993164 70L 291.993164 70ZM 277.001 130L 25.001 130L 10 190L 262 190L 277.001 130Z"></path></g></g></g><g id="g-root-sy_1_cu_143mtk9190ldzh-stroke-fill" data-item-order="-316202" transform="translate(47, 134)"><g id="sy_1_cu_143mtk9190ldzh-fill" stroke="none" fill="#43dd93"><g><path d="M 307 190L 295 142L 43 142L 55 190L 307 190ZM 291.992188 130L 279.992188 82L 27.992188 82L 39.992188 130L 291.992188 130ZM 277 70L 25 70L 10 10L 262 10L 277 70Z"></path></g></g><g id="sy_1_cu_143mtk9190ldzh-fill-overlay" stroke="none" fill="url(#crawlingPattern-00d16d21)"><g><path d="M 307 190L 295 142L 43 142L 55 190L 307 190ZM 291.992188 130L 279.992188 82L 27.992188 82L 39.992188 130L 291.992188 130ZM 277 70L 25 70L 10 10L 262 10L 277 70Z"></path></g></g><g id="sy_1_cu_143mtk9190ldzh-stroke" fill="none" stroke-linecap="round" stroke-linejoin="round" stroke-miterlimit="4" stroke="#2c2c2c" stroke-width="2"><g><path d="M 307 190L 295 142L 43 142L 55 190L 307 190ZM 291.992188 130L 279.992188 82L 27.992188 82L 39.992188 130L 291.992188 130ZM 277 70L 25 70L 10 10L 262 10L 277 70Z"></path></g></g><g id="sy_1_cu_143mtk9190ldzh-stroke-overlay" fill="none" stroke-linecap="round" stroke-linejoin="round" stroke-miterlimit="4" stroke="#ffffff29" stroke-width="2" stroke-dasharray="4,6"><animate attributeName="stroke-dashoffset" values="30;0" dur="1s" repeatCount="indefinite" begin="0"></animate><g><path d="M 307 190L 295 142L 43 142L 55 190L 307 190ZM 291.992188 130L 279.992188 82L 27.992188 82L 39.992188 130L 291.992188 130ZM 277 70L 25 70L 10 10L 262 10L 277 70Z"></path></g></g></g><g id="g-root-tx_unresolv_zofsix190lbly-stroke-fill" data-item-order="0" transform="translate(212, 332)"><g id="tx_unresolv_zofsix190lbly-fill" stroke="none" fill="#2c2c2c"><g><text style="font: bold 25px Roboto, sans-serif; white-space: pre;" font-weight="bold" font-size="25px" font-family="Roboto, sans-serif"><tspan x="12.97" y="43" dominant-baseline="ideographic">Unresolved Questions and Enduring Legacy</tspan></text></g></g><g id="tx_unresolv_zofsix190lbly-fill-overlay" stroke="none" fill="url(#crawlingPattern-ffffff38)"><g><text style="font: bold 25px Roboto, sans-serif; white-space: pre;" font-weight="bold" font-size="25px" font-family="Roboto, sans-serif"><tspan x="12.97" y="43" dominant-baseline="ideographic">Unresolved Questions and Enduring Legacy</tspan></text></g></g></g><g id="g-root-tx_timingof_mcza5l190ld6v-stroke-fill" data-item-order="0" transform="translate(464, 398)"><g id="tx_timingof_mcza5l190ld6v-fill" stroke="none" fill="#2c2c2c"><g><text style="font: 15px Roboto, sans-serif; white-space: pre;" font-size="15px" font-family="Roboto, sans-serif"><tspan x="19.8" y="31" dominant-baseline="ideographic">Timing of Statements</tspan></text></g></g><g id="tx_timingof_mcza5l190ld6v-fill-overlay" stroke="none" fill="url(#crawlingPattern-ffffff38)"><g><text style="font: 15px Roboto, sans-serif; white-space: pre;" font-size="15px" font-family="Roboto, sans-serif"><tspan x="19.8" y="31" dominant-baseline="ideographic">Timing of Statements</tspan></text></g></g></g><g id="g-root-tx_publicfa_hx5s15190ldz4-stroke-fill" data-item-order="0" transform="translate(473, 458)"><g id="tx_publicfa_hx5s15190ldz4-fill" stroke="none" fill="#2c2c2c"><g><text style="font: 15px Roboto, sans-serif; white-space: pre;" font-size="15px" font-family="Roboto, sans-serif"><tspan x="17.69" y="31" dominant-baseline="ideographic">Public Fascination</tspan></text></g></g><g id="tx_publicfa_hx5s15190ldz4-fill-overlay" stroke="none" fill="url(#crawlingPattern-ffffff38)"><g><text style="font: 15px Roboto, sans-serif; white-space: pre;" font-size="15px" font-family="Roboto, sans-serif"><tspan x="17.69" y="31" dominant-baseline="ideographic">Public Fascination</tspan></text></g></g></g><g id="g-root-tx_cultural_9258vd190lbm1-stroke-fill" data-item-order="0" transform="translate(434, 524)"><g id="tx_cultural_9258vd190lbm1-fill" stroke="none" fill="#2c2c2c"><g><text style="font: bold 20px Roboto, sans-serif; white-space: pre;" font-weight="bold" font-size="20px" font-family="Roboto, sans-serif"><tspan x="18.38" y="34" dominant-baseline="ideographic">Cultural Context</tspan></text></g></g><g id="tx_cultural_9258vd190lbm1-fill-overlay" stroke="none" fill="url(#crawlingPattern-ffffff38)"><g><text style="font: bold 20px Roboto, sans-serif; white-space: pre;" font-weight="bold" font-size="20px" font-family="Roboto, sans-serif"><tspan x="18.38" y="34" dominant-baseline="ideographic">Cultural Context</tspan></text></g></g></g><g id="g-root-tx_misattri_1urssh5190lczu-stroke-fill" data-item-order="0" transform="translate(512, 278)"><g id="tx_misattri_1urssh5190lczu-fill" stroke="none" fill="#2c2c2c"><g><text style="font: 15px Roboto, sans-serif; white-space: pre;" font-size="15px" font-family="Roboto, sans-serif"><tspan x="22.72" y="31" dominant-baseline="ideographic">Misattribution</tspan></text></g></g><g id="tx_misattri_1urssh5190lczu-fill-overlay" stroke="none" fill="url(#crawlingPattern-ffffff38)"><g><text style="font: 15px Roboto, sans-serif; white-space: pre;" font-size="15px" font-family="Roboto, sans-serif"><tspan x="22.72" y="31" dominant-baseline="ideographic">Misattribution</tspan></text></g></g></g><g id="g-root-tx_naturale_1qbzacp190lds3-stroke-fill" data-item-order="0" transform="translate(461, 218)"><g id="tx_naturale_1qbzacp190lds3-fill" stroke="none" fill="#2c2c2c"><g><text style="font: 15px Roboto, sans-serif; white-space: pre;" font-size="15px" font-family="Roboto, sans-serif"><tspan x="13.86" y="31" dominant-baseline="ideographic">Natural Explanations</tspan></text></g></g><g id="tx_naturale_1qbzacp190lds3-fill-overlay" stroke="none" fill="url(#crawlingPattern-ffffff38)"><g><text style="font: 15px Roboto, sans-serif; white-space: pre;" font-size="15px" font-family="Roboto, sans-serif"><tspan x="13.86" y="31" dominant-baseline="ideographic">Natural Explanations</tspan></text></g></g></g><g id="g-root-tx_skeptica_1d1592h190lc78-stroke-fill" data-item-order="0" transform="translate(374, 152)"><g id="tx_skeptica_1d1592h190lc78-fill" stroke="none" fill="#2c2c2c"><g><text style="font: bold 20px Roboto, sans-serif; white-space: pre;" font-weight="bold" font-size="20px" font-family="Roboto, sans-serif"><tspan x="18.92" y="34" dominant-baseline="ideographic">Skeptical Perspectives</tspan></text></g></g><g id="tx_skeptica_1d1592h190lc78-fill-overlay" stroke="none" fill="url(#crawlingPattern-ffffff38)"><g><text style="font: bold 20px Roboto, sans-serif; white-space: pre;" font-weight="bold" font-size="20px" font-family="Roboto, sans-serif"><tspan x="18.92" y="34" dominant-baseline="ideographic">Skeptical Perspectives</tspan></text></g></g></g><g id="g-root-tx_lackcorr_145i8tl190lczx-stroke-fill" data-item-order="0" transform="translate(188, 398)"><g id="tx_lackcorr_145i8tl190lczx-fill" stroke="none" fill="#2c2c2c"><g><text style="font: 15px Roboto, sans-serif; white-space: pre;" font-size="15px" font-family="Roboto, sans-serif"><tspan x="12.38" y="31" dominant-baseline="ideographic">Lack Corroboration</tspan></text></g></g><g id="tx_lackcorr_145i8tl190lczx-fill-overlay" stroke="none" fill="url(#crawlingPattern-ffffff38)"><g><text style="font: 15px Roboto, sans-serif; white-space: pre;" font-size="15px" font-family="Roboto, sans-serif"><tspan x="12.38" y="31" dominant-baseline="ideographic">Lack Corroboration</tspan></text></g></g></g><g id="g-root-tx_missingf_zpoqp5190lds6-stroke-fill" data-item-order="0" transform="translate(209, 458)"><g id="tx_missingf_zpoqp5190lds6-fill" stroke="none" fill="#2c2c2c"><g><text style="font: 15px Roboto, sans-serif; white-space: pre;" font-size="15px" font-family="Roboto, sans-serif"><tspan x="18.95" y="31" dominant-baseline="ideographic">Missing Film</tspan></text></g></g><g id="tx_missingf_zpoqp5190lds6-fill-overlay" stroke="none" fill="url(#crawlingPattern-ffffff38)"><g><text style="font: 15px Roboto, sans-serif; white-space: pre;" font-size="15px" font-family="Roboto, sans-serif"><tspan x="18.95" y="31" dominant-baseline="ideographic">Missing Film</tspan></text></g></g></g><g id="g-root-tx_document_quo7jd190lbf3-stroke-fill" data-item-order="0" transform="translate(74, 524)"><g id="tx_document_quo7jd190lbf3-fill" stroke="none" fill="#2c2c2c"><g><text style="font: bold 20px Roboto, sans-serif; white-space: pre;" font-weight="bold" font-size="20px" font-family="Roboto, sans-serif"><tspan x="17.83" y="34" dominant-baseline="ideographic">Documentary Evidence</tspan></text></g></g><g id="tx_document_quo7jd190lbf3-fill-overlay" stroke="none" fill="url(#crawlingPattern-ffffff38)"><g><text style="font: bold 20px Roboto, sans-serif; white-space: pre;" font-weight="bold" font-size="20px" font-family="Roboto, sans-serif"><tspan x="17.83" y="34" dominant-baseline="ideographic">Documentary Evidence</tspan></text></g></g></g><g id="g-root-tx_testpilo_hz17ah190lczk-stroke-fill" data-item-order="0" transform="translate(161, 218)"><g id="tx_testpilo_hz17ah190lczk-fill" stroke="none" fill="#2c2c2c"><g><text style="font: 15px Roboto, sans-serif; white-space: pre;" font-size="15px" font-family="Roboto, sans-serif"><tspan x="12.39" y="31" dominant-baseline="ideographic">Test Pilot Experience</tspan></text></g></g><g id="tx_testpilo_hz17ah190lczk-fill-overlay" stroke="none" fill="url(#crawlingPattern-ffffff38)"><g><text style="font: 15px Roboto, sans-serif; white-space: pre;" font-size="15px" font-family="Roboto, sans-serif"><tspan x="12.39" y="31" dominant-baseline="ideographic">Test Pilot Experience</tspan></text></g></g></g><g id="g-root-tx_astronau_93e71l190lds9-stroke-fill" data-item-order="0" transform="translate(164, 278)"><g id="tx_astronau_93e71l190lds9-fill" stroke="none" fill="#2c2c2c"><g><text style="font: 15px Roboto, sans-serif; white-space: pre;" font-size="15px" font-family="Roboto, sans-serif"><tspan x="14.98" y="31" dominant-baseline="ideographic">Astronaut Background</tspan></text></g></g><g id="tx_astronau_93e71l190lds9-fill-overlay" stroke="none" fill="url(#crawlingPattern-ffffff38)"><g><text style="font: 15px Roboto, sans-serif; white-space: pre;" font-size="15px" font-family="Roboto, sans-serif"><tspan x="14.98" y="31" dominant-baseline="ideographic">Astronaut Background</tspan></text></g></g></g><g id="g-root-tx_credibil_4o7609190lbeq-stroke-fill" data-item-order="0" transform="translate(86, 152)"><g id="tx_credibil_4o7609190lbeq-fill" stroke="none" fill="#2c2c2c"><g><text style="font: bold 20px Roboto, sans-serif; white-space: pre;" font-weight="bold" font-size="20px" font-family="Roboto, sans-serif"><tspan x="19.94" y="34" dominant-baseline="ideographic">Credibility of Witness</tspan></text></g></g><g id="tx_credibil_4o7609190lbeq-fill-overlay" stroke="none" fill="url(#crawlingPattern-ffffff38)"><g><text style="font: bold 20px Roboto, sans-serif; white-space: pre;" font-weight="bold" font-size="20px" font-family="Roboto, sans-serif"><tspan x="19.94" y="34" dominant-baseline="ideographic">Credibility of Witness</tspan></text></g></g></g><g id="g-root-tx_analyzin_1qdupm1190lcsj-stroke-fill" data-item-order="0" transform="translate(200, 50)"><g id="tx_analyzin_1qdupm1190lcsj-fill" stroke="none" fill="#f4f4f4"><g><text style="font: bold 20px Roboto, sans-serif; white-space: pre;" font-weight="bold" font-size="20px" font-family="Roboto, sans-serif"><tspan x="14.4" y="34" dominant-baseline="ideographic">Analyzing Gordon Cooper's UFO Sightings</tspan></text></g></g><g id="tx_analyzin_1qdupm1190lcsj-fill-overlay" stroke="none" fill="url(#crawlingPattern-0000001b)"><g><text style="font: bold 20px Roboto, sans-serif; white-space: pre;" font-weight="bold" font-size="20px" font-family="Roboto, sans-serif"><tspan x="14.4" y="34" dominant-baseline="ideographic">Analyzing Gordon Cooper's UFO Sightings</tspan></text></g></g></g></svg>