<svg width="624" height="480" viewBox="0 0 624 480" style="fill:none;stroke:none;fill-rule:evenodd;clip-rule:evenodd;stroke-linecap:round;stroke-linejoin:round;stroke-miterlimit:1.5;" version="1.1" xmlns="http://www.w3.org/2000/svg" xmlns:xlink="http://www.w3.org/1999/xlink"><style class="text-font-style fontImports" data-font-family="Roboto">@import url('https://fonts.googleapis.com/css2?family=Roboto:wght@400;700&amp;display=block');</style><g id="g-root-tf_zlxpvd190ikne-stroke-fill" data-item-order="-273600" transform="translate(12, 12)"></g><g id="g-root-sy_4_cu_qn6c6x190bhmr-stroke-fill" data-item-order="-105977" transform="translate(133.95700073242188, 219)"><g id="sy_4_cu_qn6c6x190bhmr-stroke" fill="none" stroke-linecap="round" stroke-linejoin="round" stroke-miterlimit="4" stroke="#f4f4f4" stroke-width="2"><g><path d="M 340.042999 93C 343.356999 93 346.042999 90.314 346.042999 87C 346.042999 83.686 343.356999 81 340.042999 81C 336.728999 81 334.042999 83.686 334.042999 87C 334.042999 90.314 336.728999 93 340.042999 93ZM 16.021999 45C 19.346999 45 22.042999 42.314 22.042999 39C 22.042999 35.686 19.346999 33 16.021999 33C 12.695999 33 9.999999 35.686 9.999999 39C 9.999999 42.314 12.695999 45 16.021999 45ZM 340.042999 81L 340.042999 57.75M 16.042999 10L 16.042999 33M 195.561999 65.593L 334.144999 86.11M 162.040999 60.634L 22.027999 39.904"></path></g></g><g id="sy_4_cu_qn6c6x190bhmr-stroke-overlay" fill="none" stroke-linecap="round" stroke-linejoin="round" stroke-miterlimit="4" stroke="#3131311a" stroke-width="2" stroke-dasharray="4,6"><animate attributeName="stroke-dashoffset" values="30;0" dur="1s" repeatCount="indefinite" begin="0"></animate><g><path d="M 340.042999 93C 343.356999 93 346.042999 90.314 346.042999 87C 346.042999 83.686 343.356999 81 340.042999 81C 336.728999 81 334.042999 83.686 334.042999 87C 334.042999 90.314 336.728999 93 340.042999 93ZM 16.021999 45C 19.346999 45 22.042999 42.314 22.042999 39C 22.042999 35.686 19.346999 33 16.021999 33C 12.695999 33 9.999999 35.686 9.999999 39C 9.999999 42.314 12.695999 45 16.021999 45ZM 340.042999 81L 340.042999 57.75M 16.042999 10L 16.042999 33M 195.561999 65.593L 334.144999 86.11M 162.040999 60.634L 22.027999 39.904"></path></g></g></g><g id="g-root-sy_3_Exclude_hrjby1190bifg-stroke-fill" data-item-order="-105974" transform="translate(255.05589294433594, 256)"><g id="sy_3_Exclude_hrjby1190bifg-fill" stroke="none" fill="none"><g><path d="M 56.944107 10C 49.471107 10 43.195107 15.122 41.436107 22.047L 10.134107 124.12C 9.542107 126.049 10.984107 128 13.002107 128L 100.886107 128C 102.903107 128 104.346107 126.049 103.754107 124.12L 72.454107 22.054C 70.696107 15.126 64.419107 10 56.944107 10ZM 56.944107 33C 60.810107 33 63.944107 29.866 63.944107 26C 63.944107 22.134 60.810107 19 56.944107 19C 53.078107 19 49.944107 22.134 49.944107 26C 49.944107 29.866 53.078107 33 56.944107 33Z"></path></g></g><g id="sy_3_Exclude_hrjby1190bifg-stroke" fill="none" stroke-linecap="round" stroke-linejoin="round" stroke-miterlimit="4" stroke="#f4f4f4" stroke-width="2"><g><path d="M 56.944107 10C 49.471107 10 43.195107 15.122 41.436107 22.047L 10.134107 124.12C 9.542107 126.049 10.984107 128 13.002107 128L 100.886107 128C 102.903107 128 104.346107 126.049 103.754107 124.12L 72.454107 22.054C 70.696107 15.126 64.419107 10 56.944107 10ZM 56.944107 33C 60.810107 33 63.944107 29.866 63.944107 26C 63.944107 22.134 60.810107 19 56.944107 19C 53.078107 19 49.944107 22.134 49.944107 26C 49.944107 29.866 53.078107 33 56.944107 33Z"></path></g></g><g id="sy_3_Exclude_hrjby1190bifg-stroke-overlay" fill="none" stroke-linecap="round" stroke-linejoin="round" stroke-miterlimit="4" stroke="#3131311a" stroke-width="2" stroke-dasharray="4,6"><animate attributeName="stroke-dashoffset" values="30;0" dur="1s" repeatCount="indefinite" begin="0"></animate><g><path d="M 56.944107 10C 49.471107 10 43.195107 15.122 41.436107 22.047L 10.134107 124.12C 9.542107 126.049 10.984107 128 13.002107 128L 100.886107 128C 102.903107 128 104.346107 126.049 103.754107 124.12L 72.454107 22.054C 70.696107 15.126 64.419107 10 56.944107 10ZM 56.944107 33C 60.810107 33 63.944107 29.866 63.944107 26C 63.944107 22.134 60.810107 19 56.944107 19C 53.078107 19 49.944107 22.134 49.944107 26C 49.944107 29.866 53.078107 33 56.944107 33Z"></path></g></g></g><g id="g-root-sy_2_right-bucket_dbpttl190bj7p-stroke-fill" data-item-order="-105970" transform="translate(350, 230)"><g id="sy_2_right-bucket_dbpttl190bj7p-fill" stroke="none" fill="none"><g><path d="M 11.081 15.729C 10.338 14.904 10 13.826 10 12.716L 10 12.716C 10 11.216 11.216 10 12.716 10L 235.284 10C 236.784 10 238 11.216 238 12.716L 238 12.716C 238 13.826 237.662 14.904 236.919 15.729C 231.551 21.692 204.717 46 124 46C 43.283 46 16.449 21.692 11.081 15.729Z"></path></g></g><g id="sy_2_right-bucket_dbpttl190bj7p-stroke" fill="none" stroke-linecap="round" stroke-linejoin="round" stroke-miterlimit="4" stroke="#f79438" stroke-width="2"><g><path d="M 11.081 15.729C 10.338 14.904 10 13.826 10 12.716L 10 12.716C 10 11.216 11.216 10 12.716 10L 235.284 10C 236.784 10 238 11.216 238 12.716L 238 12.716C 238 13.826 237.662 14.904 236.919 15.729C 231.551 21.692 204.717 46 124 46C 43.283 46 16.449 21.692 11.081 15.729Z"></path></g></g><g id="sy_2_right-bucket_dbpttl190bj7p-stroke-overlay" fill="none" stroke-linecap="round" stroke-linejoin="round" stroke-miterlimit="4" stroke="#f57600ab" stroke-width="2" stroke-dasharray="4,6"><animate attributeName="stroke-dashoffset" values="30;0" dur="1s" repeatCount="indefinite" begin="0"></animate><g><path d="M 11.081 15.729C 10.338 14.904 10 13.826 10 12.716L 10 12.716C 10 11.216 11.216 10 12.716 10L 235.284 10C 236.784 10 238 11.216 238 12.716L 238 12.716C 238 13.826 237.662 14.904 236.919 15.729C 231.551 21.692 204.717 46 124 46C 43.283 46 16.449 21.692 11.081 15.729Z"></path></g></g></g><g id="g-root-sy_1_left-bucket_dbpttl190bj7q-stroke-fill" data-item-order="-105966" transform="translate(26, 182)"><g id="sy_1_left-bucket_dbpttl190bj7q-fill" stroke="none" fill="none"><g><path d="M 11.0812 15.729C 10.3384 14.904 10 13.826 10 12.716L 10 12.716C 10 11.216 11.2158 10 12.7157 10L 235.284 10C 236.784 10 238 11.216 238 12.716L 238 12.716C 238 13.826 237.662 14.904 236.919 15.729C 231.551 21.692 204.717 46 124 46C 43.2826 46 16.4488 21.692 11.0812 15.729Z"></path></g></g><g id="sy_1_left-bucket_dbpttl190bj7q-stroke" fill="none" stroke-linecap="round" stroke-linejoin="round" stroke-miterlimit="4" stroke="#1ac3fb" stroke-width="2"><g><path d="M 11.0812 15.729C 10.3384 14.904 10 13.826 10 12.716L 10 12.716C 10 11.216 11.2158 10 12.7157 10L 235.284 10C 236.784 10 238 11.216 238 12.716L 238 12.716C 238 13.826 237.662 14.904 236.919 15.729C 231.551 21.692 204.717 46 124 46C 43.2826 46 16.4488 21.692 11.0812 15.729Z"></path></g></g><g id="sy_1_left-bucket_dbpttl190bj7q-stroke-overlay" fill="none" stroke-linecap="round" stroke-linejoin="round" stroke-miterlimit="4" stroke="#00ade7d7" stroke-width="2" stroke-dasharray="4,6"><animate attributeName="stroke-dashoffset" values="30;0" dur="1s" repeatCount="indefinite" begin="0"></animate><g><path d="M 11.0812 15.729C 10.3384 14.904 10 13.826 10 12.716L 10 12.716C 10 11.216 11.2158 10 12.7157 10L 235.284 10C 236.784 10 238 11.216 238 12.716L 238 12.716C 238 13.826 237.662 14.904 236.919 15.729C 231.551 21.692 204.717 46 124 46C 43.2826 46 16.4488 21.692 11.0812 15.729Z"></path></g></g></g><g id="g-root-ic_5_4g2tkp190bk0f-stroke-fill" data-item-order="0" transform="translate(38, 122)"><g id="ic_5_4g2tkp190bk0f-stroke" fill="none" stroke-linecap="round" stroke-linejoin="round" stroke-miterlimit="4" stroke="#f4f4f4" stroke-width="2"><g><path d="M 33.792198 21.63892C 40.002399 21.63892 45.036598 19.476479 45.036598 16.80896C 45.036598 14.141439 40.002399 11.979004 33.792198 11.979004C 27.58214 11.979004 22.547859 14.141439 22.547859 16.80896C 22.547859 19.476479 27.58214 21.63892 33.792198 21.63892ZM 25.595181 26.040899C 23.731979 26.763 22.594719 27.72588 22.594719 28.783239C 22.594719 31.0238 27.70142 32.840202 34.000801 32.840202C 40.300201 32.840202 45.407001 31.0238 45.407001 28.783239C 45.407001 27.72588 44.2696 26.763 42.406399 26.040899M 24.734699 19.67164L 17.42878 22.73366M 22.65148 28.270559C 21.617279 30.1332 21.02832 32.277199 21.02832 34.558601L 21.02832 39.868797C 21.02832 44.014801 22.973259 47.7066 26.00054 50.0816L 28.028021 51.244999C 31.7272 53.368 36.275002 53.368 39.973999 51.244999L 42.001598 50.0816C 45.028801 47.7066 46.973801 44.014801 46.973801 39.868797L 46.973801 34.558601C 46.973801 32.277199 46.3848 30.1332 45.350601 28.270559M 50.669201 56.1982C 47.925999 53.815399 44.667198 52.010601 41.0826 50.973202M 17.3291 56.1982C 20.07242 53.815399 23.3312 52.010601 26.915899 50.973202M 28.914841 39.418198C 28.450581 39.418198 28.074221 39.041801 28.074221 38.577599C 28.074221 38.1134 28.450581 37.737 28.914841 37.737M 28.915239 39.418198C 29.379499 39.418198 29.755859 39.041801 29.755859 38.577599C 29.755859 38.1134 29.379499 37.737 28.915239 37.737M 39.082802 39.417999C 38.618599 39.417999 38.242203 39.041801 38.242203 38.5774C 38.242203 38.113197 38.618599 37.736801 39.082802 37.736801M 39.083199 39.417999C 39.547401 39.417999 39.923798 39.041801 39.923798 38.5774C 39.923798 38.113197 39.547401 37.736801 39.083199 37.736801"></path></g></g><g id="ic_5_4g2tkp190bk0f-stroke-overlay" fill="none" stroke-linecap="round" stroke-linejoin="round" stroke-miterlimit="4" stroke="#3131311a" stroke-width="2" stroke-dasharray="4,6"><animate attributeName="stroke-dashoffset" values="30;0" dur="1s" repeatCount="indefinite" begin="0"></animate><g><path d="M 33.792198 21.63892C 40.002399 21.63892 45.036598 19.476479 45.036598 16.80896C 45.036598 14.141439 40.002399 11.979004 33.792198 11.979004C 27.58214 11.979004 22.547859 14.141439 22.547859 16.80896C 22.547859 19.476479 27.58214 21.63892 33.792198 21.63892ZM 25.595181 26.040899C 23.731979 26.763 22.594719 27.72588 22.594719 28.783239C 22.594719 31.0238 27.70142 32.840202 34.000801 32.840202C 40.300201 32.840202 45.407001 31.0238 45.407001 28.783239C 45.407001 27.72588 44.2696 26.763 42.406399 26.040899M 24.734699 19.67164L 17.42878 22.73366M 22.65148 28.270559C 21.617279 30.1332 21.02832 32.277199 21.02832 34.558601L 21.02832 39.868797C 21.02832 44.014801 22.973259 47.7066 26.00054 50.0816L 28.028021 51.244999C 31.7272 53.368 36.275002 53.368 39.973999 51.244999L 42.001598 50.0816C 45.028801 47.7066 46.973801 44.014801 46.973801 39.868797L 46.973801 34.558601C 46.973801 32.277199 46.3848 30.1332 45.350601 28.270559M 50.669201 56.1982C 47.925999 53.815399 44.667198 52.010601 41.0826 50.973202M 17.3291 56.1982C 20.07242 53.815399 23.3312 52.010601 26.915899 50.973202M 28.914841 39.418198C 28.450581 39.418198 28.074221 39.041801 28.074221 38.577599C 28.074221 38.1134 28.450581 37.737 28.914841 37.737M 28.915239 39.418198C 29.379499 39.418198 29.755859 39.041801 29.755859 38.577599C 29.755859 38.1134 29.379499 37.737 28.915239 37.737M 39.082802 39.417999C 38.618599 39.417999 38.242203 39.041801 38.242203 38.5774C 38.242203 38.113197 38.618599 37.736801 39.082802 37.736801M 39.083199 39.417999C 39.547401 39.417999 39.923798 39.041801 39.923798 38.5774C 39.923798 38.113197 39.547401 37.736801 39.083199 37.736801"></path></g></g></g><g id="g-root-ic_nigh_4j7709190cykg-stroke-fill" data-item-order="0" transform="translate(38, 50)"><g id="ic_nigh_4j7709190cykg-stroke" fill="none" stroke-linecap="round" stroke-linejoin="round" stroke-miterlimit="4" stroke="#f4f4f4" stroke-width="2"><g><path d="M 19.1 45.062801C 21.861439 45.062801 24.1 42.8242 24.1 40.062798C 24.1 37.301399 21.861439 35.062798 19.1 35.062798C 16.338581 35.062798 14.1 37.301399 14.1 40.062798C 14.1 42.8242 16.338581 45.062801 19.1 45.062801ZM 11.500016 56.462601C 11.500016 52.2626 14.900021 48.862598 19.100021 48.862598C 22.89036 48.862598 26.029119 51.631599 26.60536 55.258801M 48.900002 45.062801C 51.6614 45.062801 53.900002 42.8242 53.900002 40.062798C 53.900002 37.301399 51.6614 35.062798 48.900002 35.062798C 46.138599 35.062798 43.900002 37.301399 43.900002 40.062798C 43.900002 42.8242 46.138599 45.062801 48.900002 45.062801ZM 56.5 56.462601C 56.5 52.2626 53.099998 48.862598 48.900002 48.862598C 45.2948 48.862598 42.279202 51.367599 41.4972 54.733601M 34.099998 45.062801C 36.861401 45.062801 39.099998 42.8242 39.099998 40.062798C 39.099998 37.301399 36.861401 35.062798 34.099998 35.062798C 31.3386 35.062798 29.1 37.301399 29.1 40.062798C 29.1 42.8242 31.3386 45.062801 34.099998 45.062801ZM 26.5 56.462601C 26.5 52.2626 29.9 48.862598 34.099998 48.862598C 38.299999 48.862598 41.700001 52.2626 41.700001 56.462601M 10 10M 42.559601 18.4226L 40.951 21.2089M 10 10M 38.777199 18.539059L 40.950798 21.209179M 10 10M 37.637802 22.657681L 40.950798 21.20916M 10 10M 41.353001 24.80262L 40.950798 21.209221M 10 10M 44.349998 21.75638L 40.950798 21.209141M 36.698997 28.78134C 36.441601 28.809259 36.181198 28.82366 35.918602 28.82366C 31.6628 28.82366 28.258181 25.419041 28.258181 21.163261C 28.258181 16.907499 31.6628 13.50288 35.918602 13.50288C 36.514603 13.50288 37.0896 13.56678 37.637802 13.6866C 36.0368 12.36622 33.9352 11.537598 31.5574 11.537598C 26.3351 11.537598 22.157341 15.715361 22.157341 20.937561C 22.157341 26.15976 26.3351 30.337601 31.5574 30.337601C 33.4132 30.337601 35.1716 29.752119 36.698997 28.78134Z"></path></g></g><g id="ic_nigh_4j7709190cykg-stroke-overlay" fill="none" stroke-linecap="round" stroke-linejoin="round" stroke-miterlimit="4" stroke="#3131311a" stroke-width="2" stroke-dasharray="4,6"><animate attributeName="stroke-dashoffset" values="30;0" dur="1s" repeatCount="indefinite" begin="0"></animate><g><path d="M 19.1 45.062801C 21.861439 45.062801 24.1 42.8242 24.1 40.062798C 24.1 37.301399 21.861439 35.062798 19.1 35.062798C 16.338581 35.062798 14.1 37.301399 14.1 40.062798C 14.1 42.8242 16.338581 45.062801 19.1 45.062801ZM 11.500016 56.462601C 11.500016 52.2626 14.900021 48.862598 19.100021 48.862598C 22.89036 48.862598 26.029119 51.631599 26.60536 55.258801M 48.900002 45.062801C 51.6614 45.062801 53.900002 42.8242 53.900002 40.062798C 53.900002 37.301399 51.6614 35.062798 48.900002 35.062798C 46.138599 35.062798 43.900002 37.301399 43.900002 40.062798C 43.900002 42.8242 46.138599 45.062801 48.900002 45.062801ZM 56.5 56.462601C 56.5 52.2626 53.099998 48.862598 48.900002 48.862598C 45.2948 48.862598 42.279202 51.367599 41.4972 54.733601M 34.099998 45.062801C 36.861401 45.062801 39.099998 42.8242 39.099998 40.062798C 39.099998 37.301399 36.861401 35.062798 34.099998 35.062798C 31.3386 35.062798 29.1 37.301399 29.1 40.062798C 29.1 42.8242 31.3386 45.062801 34.099998 45.062801ZM 26.5 56.462601C 26.5 52.2626 29.9 48.862598 34.099998 48.862598C 38.299999 48.862598 41.700001 52.2626 41.700001 56.462601M 10 10M 42.559601 18.4226L 40.951 21.2089M 10 10M 38.777199 18.539059L 40.950798 21.209179M 10 10M 37.637802 22.657681L 40.950798 21.20916M 10 10M 41.353001 24.80262L 40.950798 21.209221M 10 10M 44.349998 21.75638L 40.950798 21.209141M 36.698997 28.78134C 36.441601 28.809259 36.181198 28.82366 35.918602 28.82366C 31.6628 28.82366 28.258181 25.419041 28.258181 21.163261C 28.258181 16.907499 31.6628 13.50288 35.918602 13.50288C 36.514603 13.50288 37.0896 13.56678 37.637802 13.6866C 36.0368 12.36622 33.9352 11.537598 31.5574 11.537598C 26.3351 11.537598 22.157341 15.715361 22.157341 20.937561C 22.157341 26.15976 26.3351 30.337601 31.5574 30.337601C 33.4132 30.337601 35.1716 29.752119 36.698997 28.78134Z"></path></g></g></g><g id="g-root-ic_2_1hf35mh190ed4x-stroke-fill" data-item-order="0" transform="translate(362, 170)"><g id="ic_2_1hf35mh190ed4x-stroke" fill="none" stroke-linecap="round" stroke-linejoin="round" stroke-miterlimit="4" stroke="#f4f4f4" stroke-width="2"><g><path d="M 26.3951 53.353802L 26.3951 42.819801C 26.047199 42.497398 25.71508 42.160599 25.39942 41.810402M 44.049801 53.353802L 44.049801 48.309601L 46.571999 48.309601C 47.909801 48.309601 49.192799 47.778 50.138599 46.832199C 51.084599 45.8862 51.616199 44.603199 51.616199 43.2654L 51.616199 38.221199L 54.810799 38.221199C 55.0154 38.220802 55.216999 38.170799 55.397999 38.075199C 55.578999 37.979797 55.7342 37.841599 55.849998 37.673C 55.965801 37.5042 56.038799 37.309799 56.062801 37.106598C 56.0868 36.903198 56.061001 36.697201 55.987801 36.506001C 51.708599 25.4055 49.117599 15.522221 37.113998 15.522221C 36.5214 15.521561 35.931198 15.55434 35.346397 15.61974M 23.230499 37.249802C 29.472321 37.249802 34.532402 32.1898 34.532402 25.94804C 34.532402 19.706219 29.472321 14.64624 23.230499 14.64624C 16.988701 14.64624 11.92871 19.706219 11.92871 25.94804C 11.92871 32.1898 16.988701 37.249802 23.230499 37.249802ZM 19.4144 23.761681C 18.99892 23.761681 18.6621 23.42486 18.6621 23.00938C 18.6621 22.593899 18.99892 22.25708 19.4144 22.25708M 19.4147 23.761681C 19.830181 23.761681 20.167 23.42486 20.167 23.00938C 20.167 22.593899 19.830181 22.25708 19.4147 22.25708M 27.04624 23.761681C 26.63076 23.761681 26.29394 23.42486 26.29394 23.00938C 26.29394 22.593899 26.63076 22.25708 27.04624 22.25708M 27.046539 23.761681C 27.462021 23.761681 27.79882 23.42486 27.79882 23.00938C 27.79882 22.593899 27.462021 22.25708 27.046539 22.25708M 19.761799 30.148199C 21.44924 28.56954 25.093399 28.621639 26.70002 30.148001"></path></g></g><g id="ic_2_1hf35mh190ed4x-stroke-overlay" fill="none" stroke-linecap="round" stroke-linejoin="round" stroke-miterlimit="4" stroke="#3131311a" stroke-width="2" stroke-dasharray="4,6"><animate attributeName="stroke-dashoffset" values="30;0" dur="1s" repeatCount="indefinite" begin="0"></animate><g><path d="M 26.3951 53.353802L 26.3951 42.819801C 26.047199 42.497398 25.71508 42.160599 25.39942 41.810402M 44.049801 53.353802L 44.049801 48.309601L 46.571999 48.309601C 47.909801 48.309601 49.192799 47.778 50.138599 46.832199C 51.084599 45.8862 51.616199 44.603199 51.616199 43.2654L 51.616199 38.221199L 54.810799 38.221199C 55.0154 38.220802 55.216999 38.170799 55.397999 38.075199C 55.578999 37.979797 55.7342 37.841599 55.849998 37.673C 55.965801 37.5042 56.038799 37.309799 56.062801 37.106598C 56.0868 36.903198 56.061001 36.697201 55.987801 36.506001C 51.708599 25.4055 49.117599 15.522221 37.113998 15.522221C 36.5214 15.521561 35.931198 15.55434 35.346397 15.61974M 23.230499 37.249802C 29.472321 37.249802 34.532402 32.1898 34.532402 25.94804C 34.532402 19.706219 29.472321 14.64624 23.230499 14.64624C 16.988701 14.64624 11.92871 19.706219 11.92871 25.94804C 11.92871 32.1898 16.988701 37.249802 23.230499 37.249802ZM 19.4144 23.761681C 18.99892 23.761681 18.6621 23.42486 18.6621 23.00938C 18.6621 22.593899 18.99892 22.25708 19.4144 22.25708M 19.4147 23.761681C 19.830181 23.761681 20.167 23.42486 20.167 23.00938C 20.167 22.593899 19.830181 22.25708 19.4147 22.25708M 27.04624 23.761681C 26.63076 23.761681 26.29394 23.42486 26.29394 23.00938C 26.29394 22.593899 26.63076 22.25708 27.04624 22.25708M 27.046539 23.761681C 27.462021 23.761681 27.79882 23.42486 27.79882 23.00938C 27.79882 22.593899 27.462021 22.25708 27.046539 22.25708M 19.761799 30.148199C 21.44924 28.56954 25.093399 28.621639 26.70002 30.148001"></path></g></g></g><g id="g-root-ic_2_m9uqex190h3ii-stroke-fill" data-item-order="0" transform="translate(362, 98)"><g id="ic_2_m9uqex190h3ii-stroke" fill="none" stroke-linecap="round" stroke-linejoin="round" stroke-miterlimit="4" stroke="#f4f4f4" stroke-width="2"><g><path d="M 54 28.128C 54 40.127998 41.112 44.127998 34 44.127998C 26.888 44.127998 14 40.127998 14 28.128C 14 16.128 22.218 11.128 34 11.128C 45.782001 11.128 54 16.128 54 28.128ZM 29 51.127998L 29 57.127998L 39 57.127998L 39 51.127998M 44.546001 41.756001L 39 51.127998M 23.456001 41.756001L 29 51.127998M 26 51.127998L 42 51.127998M 44.834 27.459999C 44.834 36.66 39.982002 44.127998 34 44.127998C 28.018 44.127998 23.166 36.666 23.166 27.459999C 23.166 18.254 28.018 11.128 34 11.128C 39.982002 11.128 44.834 18.256001 44.834 27.459999Z"></path></g></g><g id="ic_2_m9uqex190h3ii-stroke-overlay" fill="none" stroke-linecap="round" stroke-linejoin="round" stroke-miterlimit="4" stroke="#3131311a" stroke-width="2" stroke-dasharray="4,6"><animate attributeName="stroke-dashoffset" values="30;0" dur="1s" repeatCount="indefinite" begin="0"></animate><g><path d="M 54 28.128C 54 40.127998 41.112 44.127998 34 44.127998C 26.888 44.127998 14 40.127998 14 28.128C 14 16.128 22.218 11.128 34 11.128C 45.782001 11.128 54 16.128 54 28.128ZM 29 51.127998L 29 57.127998L 39 57.127998L 39 51.127998M 44.546001 41.756001L 39 51.127998M 23.456001 41.756001L 29 51.127998M 26 51.127998L 42 51.127998M 44.834 27.459999C 44.834 36.66 39.982002 44.127998 34 44.127998C 28.018 44.127998 23.166 36.666 23.166 27.459999C 23.166 18.254 28.018 11.128 34 11.128C 39.982002 11.128 44.834 18.256001 44.834 27.459999Z"></path></g></g></g><g id="g-root-tx_credibil_18fpaux190ikub-stroke-fill" data-item-order="0" transform="translate(98, 122)"><g id="tx_credibil_18fpaux190ikub-fill" stroke="none" fill="#f4f4f4"><g><text style="font: 20px Roboto, sans-serif; white-space: pre;" font-size="20px" font-family="Roboto, sans-serif"><tspan x="12" y="34" dominant-baseline="ideographic">Credibility of </tspan><tspan x="12" y="58" dominant-baseline="ideographic">witnesses</tspan></text></g></g><g id="tx_credibil_18fpaux190ikub-fill-overlay" stroke="none" fill="url(#crawlingPattern-0000001b)"><g><text style="font: 20px Roboto, sans-serif; white-space: pre;" font-size="20px" font-family="Roboto, sans-serif"><tspan x="12" y="34" dominant-baseline="ideographic">Credibility of </tspan><tspan x="12" y="58" dominant-baseline="ideographic">witnesses</tspan></text></g></g></g><g id="g-root-tx_extraord_v4v9kp190ij9g-stroke-fill" data-item-order="0" transform="translate(98, 50)"><g id="tx_extraord_v4v9kp190ij9g-fill" stroke="none" fill="#f4f4f4"><g><text style="font: 20px Roboto, sans-serif; white-space: pre;" font-size="20px" font-family="Roboto, sans-serif"><tspan x="12" y="34" dominant-baseline="ideographic">Extraordinary </tspan><tspan x="12" y="58" dominant-baseline="ideographic">nature of claims</tspan></text></g></g><g id="tx_extraord_v4v9kp190ij9g-fill-overlay" stroke="none" fill="url(#crawlingPattern-0000001b)"><g><text style="font: 20px Roboto, sans-serif; white-space: pre;" font-size="20px" font-family="Roboto, sans-serif"><tspan x="12" y="34" dominant-baseline="ideographic">Extraordinary </tspan><tspan x="12" y="58" dominant-baseline="ideographic">nature of claims</tspan></text></g></g></g><g id="g-root-tx_conventi_m989bt190ik25-stroke-fill" data-item-order="0" transform="translate(422, 170)"><g id="tx_conventi_m989bt190ik25-fill" stroke="none" fill="#f4f4f4"><g><text style="font: 20px Roboto, sans-serif; white-space: pre;" font-size="20px" font-family="Roboto, sans-serif"><tspan x="12" y="34" dominant-baseline="ideographic">Conventionality </tspan><tspan x="12" y="58" dominant-baseline="ideographic">of explanations</tspan></text></g></g><g id="tx_conventi_m989bt190ik25-fill-overlay" stroke="none" fill="url(#crawlingPattern-0000001b)"><g><text style="font: 20px Roboto, sans-serif; white-space: pre;" font-size="20px" font-family="Roboto, sans-serif"><tspan x="12" y="34" dominant-baseline="ideographic">Conventionality </tspan><tspan x="12" y="58" dominant-baseline="ideographic">of explanations</tspan></text></g></g></g><g id="g-root-tx_ordinary_hter7d190ikue-stroke-fill" data-item-order="0" transform="translate(422, 98)"><g id="tx_ordinary_hter7d190ikue-fill" stroke="none" fill="#f4f4f4"><g><text style="font: 20px Roboto, sans-serif; white-space: pre;" font-size="20px" font-family="Roboto, sans-serif"><tspan x="12" y="34" dominant-baseline="ideographic">Ordinary nature </tspan><tspan x="12" y="58" dominant-baseline="ideographic">of phenomena</tspan></text></g></g><g id="tx_ordinary_hter7d190ikue-fill-overlay" stroke="none" fill="url(#crawlingPattern-0000001b)"><g><text style="font: 20px Roboto, sans-serif; white-space: pre;" font-size="20px" font-family="Roboto, sans-serif"><tspan x="12" y="34" dominant-baseline="ideographic">Ordinary nature </tspan><tspan x="12" y="58" dominant-baseline="ideographic">of phenomena</tspan></text></g></g></g><g id="g-root-tx_witnessa_4ikpx5190ij9j-stroke-fill" data-item-order="0" transform="translate(56, 290)"><g id="tx_witnessa_4ikpx5190ij9j-fill" stroke="none" fill="#f4f4f4"><g><text style="font: 20px Roboto, sans-serif; white-space: pre;" font-size="20px" font-family="Roboto, sans-serif"><tspan x="13.63" y="34" dominant-baseline="ideographic">Witness Accounts</tspan></text></g></g><g id="tx_witnessa_4ikpx5190ij9j-fill-overlay" stroke="none" fill="url(#crawlingPattern-0000001b)"><g><text style="font: 20px Roboto, sans-serif; white-space: pre;" font-size="20px" font-family="Roboto, sans-serif"><tspan x="13.63" y="34" dominant-baseline="ideographic">Witness Accounts</tspan></text></g></g></g><g id="g-root-tx_official_2r7sp190ik1s-stroke-fill" data-item-order="0" transform="translate(368, 338)"><g id="tx_official_2r7sp190ik1s-fill" stroke="none" fill="#f4f4f4"><g><text style="font: 20px Roboto, sans-serif; white-space: pre;" font-size="20px" font-family="Roboto, sans-serif"><tspan x="15.38" y="34" dominant-baseline="ideographic">Official Explanations</tspan></text></g></g><g id="tx_official_2r7sp190ik1s-fill-overlay" stroke="none" fill="url(#crawlingPattern-0000001b)"><g><text style="font: 20px Roboto, sans-serif; white-space: pre;" font-size="20px" font-family="Roboto, sans-serif"><tspan x="15.38" y="34" dominant-baseline="ideographic">Official Explanations</tspan></text></g></g></g><g id="g-root-tx_balancin_1q889ix190iknd-stroke-fill" data-item-order="0" transform="translate(56, 386)"><g id="tx_balancin_1q889ix190iknd-fill" stroke="none" fill="#f4f4f4"><g><text style="font: 20px Roboto, sans-serif; white-space: pre;" font-size="20px" font-family="Roboto, sans-serif"><tspan x="15.18" y="34" dominant-baseline="ideographic">Balancing Witness Credibility and Official Explanations</tspan></text></g></g><defs><pattern id="crawlingPattern-0000001b" x="0" y="0" width="12" height="12" patternUnits="userSpaceOnUse" fill="#0000001b"><use href="#crawlingSymbol"></use></pattern><symbol id="crawlingSymbol"><g><animateTransform attributeName="transform" type="translate" from="0 0" to="-12 0" dur="0.4s" repeatCount="indefinite"></animateTransform><path d="M -12.5 12.5 l 13 -13 l 6 0 l -13 13 Z M -0.5 12.5 l 13 -13 l 6 0 l -13 13 Z M 11.5 12.5 l 13 -13 l 6 0 l -13 13 Z"></path></g></symbol></defs><g id="tx_balancin_1q889ix190iknd-fill-overlay" stroke="none" fill="url(#crawlingPattern-0000001b)"><g><text style="font: 20px Roboto, sans-serif; white-space: pre;" font-size="20px" font-family="Roboto, sans-serif"><tspan x="15.18" y="34" dominant-baseline="ideographic">Balancing Witness Credibility and Official Explanations</tspan></text></g></g></g></svg>