<?xml version='1.0' encoding='utf-8'?>
<svg xmlns="http://www.w3.org/2000/svg" xmlns:xlink="http://www.w3.org/1999/xlink" width="624" height="444" viewBox="0 0 624 444" style="fill:none;stroke:none;fill-rule:evenodd;clip-rule:evenodd;stroke-linecap:round;stroke-linejoin:round;stroke-miterlimit:1.5;" version="1.1">
  <style class="text-font-style fontImports" data-font-family="Roboto">@import url('https://fonts.googleapis.com/css2?family=Roboto:wght@400;700&amp;display=block');</style>
  <rect x="0" y="0" width="624" height="444" fill="#252a34" stroke="none" id="programmatic_background"/>
  <g id="g-root-tf_4o6wjd190fpxk-stroke-fill" data-item-order="-252000" transform="translate(12, 12)">
    <g id="tf_4o6wjd190fpxk-fill" stroke="none" fill="#2c2c2c">
      <g>
        <path d="M 0 0L 600 0L 600 420L 0 420Z"/>
      </g>
    </g>
    <defs>
      <pattern id="crawlingPattern-8484841a" x="0" y="0" width="12" height="12" patternUnits="userSpaceOnUse" fill="#8484841a">
        <use href="#crawlingSymbol"/>
      </pattern>
      <symbol id="crawlingSymbol">
        <g>
          <path d="M -12.5 12.5 l 13 -13 l 6 0 l -13 13 Z M -0.5 12.5 l 13 -13 l 6 0 l -13 13 Z M 11.5 12.5 l 13 -13 l 6 0 l -13 13 Z"/>
        </g>
      </symbol>
      <pattern id="crawlingPattern-f576002d" x="0" y="0" width="12" height="12" patternUnits="userSpaceOnUse" fill="#f576002d">
        <use href="#crawlingSymbol"/>
      </pattern>
      <pattern id="crawlingPattern-00bcfb62" x="0" y="0" width="12" height="12" patternUnits="userSpaceOnUse" fill="#00bcfb62">
        <use href="#crawlingSymbol"/>
      </pattern>
      <pattern id="crawlingPattern-0000001b" x="0" y="0" width="12" height="12" patternUnits="userSpaceOnUse" fill="#0000001b">
        <use href="#crawlingSymbol"/>
      </pattern>
      <pattern id="crawlingPattern-5f5f5f1a" x="0" y="0" width="12" height="12" patternUnits="userSpaceOnUse" fill="#5f5f5f1a">
        <use href="#crawlingSymbol"/>
      </pattern>
    </defs>
  </g>
  <g id="g-root-sy_4_cu_qs61q1190a4u9-stroke-fill" data-item-order="-31673" transform="translate(218, 201)">
    <g id="sy_4_cu_qs61q1190a4u9-stroke" fill="none" stroke-linecap="round" stroke-linejoin="round" stroke-miterlimit="4" stroke="#f4f4f4" stroke-width="2">
      <g>
        <path d="M 178 34L 178 46.961C 178 51.765 173.796 55.485 169.028 54.901L 100 46.448M 10 10L 10 27.415C 10 31.418 12.957 34.804 16.923 35.343L 88 45"/>
      </g>
    </g>
  </g>
  <g id="g-root-sy_3_cu_hwj1h5190a5my-stroke-fill" data-item-order="-31670" transform="translate(266, 230)">
    <g id="sy_3_cu_hwj1h5190a5my-fill" stroke="none" fill="#b7b7b7">
      <g>
        <path d="M 46 22C 49.314 22 52 19.314 52 16C 52 12.686 49.314 10 46 10C 42.686 10 40 12.686 40 16C 40 19.314 42.686 22 46 22ZM 43 77.995L 49 77.995L 49 21.533C 49 21.533 47.756 22.333 46.043 22.333C 44.212 22.333 43 21.533 43 21.533L 43 77.995ZM 16.4 86C 12.865 86 10 88.865 10 92.4C 10 93.284 10.716 94 11.6 94L 80.4 94C 81.284 94 82 93.284 82 92.4C 82 88.865 79.135 86 75.6 86L 16.4 86ZM 28 78C 24.686 78 22 80.686 22 84L 22 86L 70 86L 70 84C 70 80.686 67.314 78 64 78L 28 78Z"/>
      </g>
    </g>
    <g id="sy_3_cu_hwj1h5190a5my-stroke" fill="none" stroke-linecap="round" stroke-linejoin="round" stroke-miterlimit="4" stroke="#2c2c2c" stroke-width="2">
      <g>
        <path d="M 46 22C 49.314 22 52 19.314 52 16C 52 12.686 49.314 10 46 10C 42.686 10 40 12.686 40 16C 40 19.314 42.686 22 46 22ZM 43 77.995L 49 77.995L 49 21.533C 49 21.533 47.756 22.333 46.043 22.333C 44.212 22.333 43 21.533 43 21.533L 43 77.995ZM 16.4 86C 12.865 86 10 88.865 10 92.4C 10 93.284 10.716 94 11.6 94L 80.4 94C 81.284 94 82 93.284 82 92.4C 82 88.865 79.135 86 75.6 86L 16.4 86ZM 28 78C 24.686 78 22 80.686 22 84L 22 86L 70 86L 70 84C 70 80.686 67.314 78 64 78L 28 78Z"/>
      </g>
    </g>
  </g>
  <g id="g-root-sy_2_right-bucket_dhc0ft190a39f-stroke-fill" data-item-order="-31666" transform="translate(350, 206.33599853515625)">
    <g id="sy_2_right-bucket_dhc0ft190a39f-fill" stroke="none" fill="#f79438">
      <g>
        <path d="M 10 11.800001C 10 10.806001 10.806 10.000001 11.8 10.000001L 80.2 10.000001C 81.194 10.000001 82 10.806001 82 11.800001C 82 20.747001 74.747 28.000001 65.8 28.000001L 26.2 28.000001C 17.253 28.000001 10 20.747001 10 11.800001Z"/>
      </g>
    </g>
    <g id="sy_2_right-bucket_dhc0ft190a39f-stroke" fill="none" stroke-linecap="round" stroke-linejoin="round" stroke-miterlimit="4" stroke="#2c2c2c" stroke-width="2">
      <g>
        <path d="M 10 11.800001C 10 10.806001 10.806 10.000001 11.8 10.000001L 80.2 10.000001C 81.194 10.000001 82 10.806001 82 11.800001C 82 20.747001 74.747 28.000001 65.8 28.000001L 26.2 28.000001C 17.253 28.000001 10 20.747001 10 11.800001Z"/>
      </g>
    </g>
  </g>
  <g id="g-root-sy_1_left-bucket_dhc0ft190a39g-stroke-fill" data-item-order="-31662" transform="translate(182, 182)">
    <g id="sy_1_left-bucket_dhc0ft190a39g-fill" stroke="none" fill="#1ac3fb">
      <g>
        <path d="M 10 11.8C 10 10.806 10.806 10 11.8 10L 80.2 10C 81.194 10 82 10.806 82 11.8C 82 20.747 74.747 28 65.8 28L 26.2 28C 17.253 28 10 20.747 10 11.8Z"/>
      </g>
    </g>
    <g id="sy_1_left-bucket_dhc0ft190a39g-stroke" fill="none" stroke-linecap="round" stroke-linejoin="round" stroke-miterlimit="4" stroke="#2c2c2c" stroke-width="2">
      <g>
        <path d="M 10 11.8C 10 10.806 10.806 10 11.8 10L 80.2 10C 81.194 10 82 10.806 82 11.8C 82 20.747 74.747 28 65.8 28L 26.2 28C 17.253 28 10 20.747 10 11.8Z"/>
      </g>
    </g>
  </g>
  <g id="g-root-ic_5_4lp06x190a425-stroke-fill" data-item-order="-2304" transform="translate(194, 122)">
    <g id="ic_5_4lp06x190a425-fill" stroke="none" fill="#b7b7b7">
      <g>
        <path d="M 10 10M 25.628 16.540001L 25.630001 16.528C 25.629908 16.531422 25.62923 16.534805 25.627998 16.538ZM 25.83 16.26C 25.755344 16.330593 25.69194 16.412207 25.642 16.502001C 25.661999 16.546 25.714001 16.625999 25.83 16.743999C 26.09 17.006001 26.562 17.334 27.304001 17.653999C 28.780001 18.288 30.959999 18.73 33.472 18.73C 35.986 18.73 38.164001 18.288 39.641998 17.653999C 40.382 17.334 40.856003 17.006001 41.113998 16.743999C 41.189274 16.674225 41.253357 16.593277 41.304001 16.504C 41.2537 16.413307 41.189602 16.33099 41.113998 16.26C 40.856003 15.998 40.384003 15.67 39.641998 15.35C 38.164001 14.716 35.986 14.276 33.472 14.276C 30.959999 14.276 28.780001 14.716 27.304001 15.35C 26.562 15.67 26.087999 15.998 25.83 16.26ZM 41.318001 16.540001L 41.313999 16.528L 41.318001 16.538ZM 41.313999 16.476L 41.318001 16.466L 41.313999 16.476ZM 25.630001 16.476L 25.628 16.466L 25.630001 16.476ZM 33.472 10.276C 30.552 10.276 27.809999 10.78 25.723999 11.676C 24.684 12.122 23.718 12.704 22.98 13.454C 22.234001 14.212 21.632 15.243999 21.632 16.501999C 21.632 17.166 21.799999 17.765999 22.066 18.296L 18.378 19.841999C 17.359035 20.268917 16.879084 21.441034 17.306 22.459999C 17.732916 23.478966 18.905033 23.958916 19.924 23.532L 25.459999 21.212C 25.548 21.251999 25.636 21.292 25.723999 21.327999C 27.809999 22.223999 30.549999 22.728001 33.472 22.728001C 36.393997 22.728001 39.136002 22.223999 41.220001 21.327999C 42.259998 20.882 43.228001 20.299999 43.966 19.549999C 44.712002 18.793999 45.313999 17.76 45.313999 16.501999C 45.313999 15.243999 44.712002 14.212 43.966 13.454C 43.226002 12.704 42.259998 12.122 41.220001 11.674C 39.136002 10.78 36.393997 10.274 33.472 10.274ZM 24.992001 50.548C 21.841349 47.895748 20.0243 43.986382 20.028 39.868004L 20.028 34.559998C 20.028 32.120003 20.653999 29.823999 21.756001 27.826C 22.216 26.99 22.450001 26.58 22.986 26.129999C 23.726 25.507999 24.706001 25.015999 25.785999 24.630001C 27.959999 23.858 30.865999 23.41 34 23.41C 37.138 23.41 40.040001 23.858 42.216 24.630001C 43.296001 25.015999 44.276001 25.507999 45.015999 26.129999C 45.528 26.559999 46.004002 27.125999 46.243999 27.822001C 47.346001 29.822001 47.973999 32.120003 47.973999 34.562L 47.973999 39.870003C 47.978249 43.988499 46.161098 47.898087 43.009998 50.549995C 46.059151 51.657448 48.878197 53.317146 51.326 55.446003C 51.640301 55.719814 51.751785 56.159874 51.605762 56.550304C 51.45974 56.940735 51.086845 57.199635 50.669998 57.200001L 17.33 57.200001C 16.913155 57.199635 16.54026 56.940735 16.394238 56.550304C 16.248215 56.159874 16.359699 55.719814 16.674 55.445999C 19.12183 53.317181 21.940868 51.657486 24.989998 50.549999ZM 24.6 28.785999C 24.677555 28.643044 24.786232 28.519333 24.917999 28.424C 25.282 28.115999 25.897999 27.774 26.792 27.455999C 28.566 26.823999 31.114 26.406 34 26.406C 36.888 26.406 39.436001 26.826 41.209999 27.455999C 42.104 27.774 42.720001 28.115999 43.084 28.424C 43.215496 28.51881 43.324146 28.641808 43.402 28.784C 43.324444 28.926956 43.215771 29.050667 43.084 29.146C 42.720001 29.452 42.104 29.796 41.209999 30.114C 39.436001 30.743999 36.888 31.162001 34 31.162001C 31.114 31.162001 28.563999 30.743999 26.792 30.114C 25.897999 29.796 25.282 29.454 24.916 29.146C 24.785185 29.051016 24.677225 28.928024 24.6 28.785999ZM 28.914 40.271999C 27.97843 40.272003 27.220001 39.513573 27.220001 38.578003C 27.220001 37.642433 27.97843 36.884003 28.914001 36.884003C 29.849571 36.884003 30.608002 37.642433 30.608002 38.578003C 30.608002 39.513573 29.849571 40.272003 28.914001 40.272003ZM 37.594002 38.577999C 37.594002 39.514126 38.352882 40.273003 39.289001 40.273003C 40.225124 40.273003 40.984001 39.514126 40.984001 38.578003C 40.984001 37.642433 40.225571 36.884003 39.290001 36.884003C 38.354431 36.884003 37.596001 37.642433 37.596001 38.578003Z"/>
      </g>
    </g>
  </g>
  <g id="g-root-ic_nigh_92rghl190bitq-stroke-fill" data-item-order="-2304" transform="translate(194, 50)">
    <g id="ic_nigh_92rghl190bitq-fill" stroke="none" fill="#b7b7b7">
      <g>
        <path d="M 31.667999 10.75C 29.029526 10.740386 26.496372 11.784399 24.630863 13.650282C 22.765358 15.516164 21.721855 18.049528 21.731998 20.688C 21.722389 23.326126 22.766129 25.858973 24.631577 27.724422C 26.497025 29.58987 29.029873 30.63361 31.667999 30.623999C 33.648003 30.624001 35.503998 30 37.094002 28.99C 37.488503 28.74157 37.658997 28.25349 37.504982 27.813456C 37.350967 27.373421 36.913322 27.098192 36.450001 27.15C 34.680347 27.33898 32.913994 26.765049 31.593405 25.571972C 30.272812 24.378899 29.523077 22.679695 29.532001 20.900002C 29.525045 19.231625 30.185003 17.629629 31.365108 16.450275C 32.545216 15.27092 34.147629 14.611982 35.816002 14.620001C 36.309998 14.62 36.785999 14.672 37.236 14.77C 37.686935 14.868372 38.146614 14.645353 38.34845 14.230286C 38.550285 13.815219 38.441837 13.315937 38.085999 13.022C 36.277252 11.539095 34.006882 10.735375 31.668001 10.75ZM 24.248001 41.812C 24.248859 45.160557 21.534557 47.875553 18.186001 47.875553C 14.837442 47.875553 12.12314 45.160557 12.124 41.811996C 12.124859 38.464653 14.838657 35.751553 18.186001 35.751553C 21.533342 35.751553 24.247139 38.464653 24.247999 41.811996ZM 40.174 41.812C 40.174858 45.160557 37.460556 47.875553 34.112 47.875553C 30.763441 47.875553 28.049139 45.160557 28.049999 41.811996C 28.050858 38.464653 30.764656 35.751553 34.112 35.751553C 37.459343 35.751553 40.173141 38.464653 40.173996 41.811996ZM 50.037998 47.874001C 53.386555 47.874855 56.101551 45.160557 56.101551 41.811996C 56.101551 38.46344 53.386555 35.749138 50.037998 35.75C 46.690655 35.750854 43.977554 38.464653 43.977554 41.811996C 43.977554 45.15934 46.690655 47.873138 50.037998 47.873997ZM 18.186001 50.040001C 13.787471 50.036686 10.219998 53.601471 10.22 58L 58 58C 58.001106 53.602253 54.435749 50.036896 50.038002 50.038002C 45.640251 50.035789 42.074001 53.60025 42.074001 57.998001C 42.074001 53.601032 38.508968 50.036896 34.112 50.038002C 29.71347 50.035789 26.146894 53.601471 26.148001 58C 26.149105 53.602253 22.583748 50.036896 18.186001 50.038002ZM 44.34 19.209999C 44.754112 18.492039 44.507847 17.574314 43.789925 17.16013C 43.072006 16.745947 42.154259 16.992123 41.740002 17.709999L 41.220001 18.610001L 40.419998 17.630001C 40.084904 17.204205 39.546219 16.992226 39.010807 17.07547C 38.475395 17.158714 38.026497 17.52424 37.836498 18.031677C 37.6465 18.539116 37.744934 19.109579 38.094002 19.524L 39.021999 20.664L 37.517998 21.32C 36.75861 21.651371 36.411629 22.53561 36.743004 23.295002C 37.074371 24.054394 37.958611 24.401371 38.718002 24.07L 40.167999 23.436001L 40.344002 25.006001C 40.459564 25.807289 41.190125 26.372301 41.994728 26.282661C 42.799328 26.193022 43.387627 25.481075 43.324001 24.674L 43.144001 23.042L 44.591999 23.274C 45.129574 23.379229 45.681763 23.183052 46.032455 22.762249C 46.383144 22.341446 46.476566 21.762939 46.276154 21.253143C 46.075745 20.743343 45.613373 20.383331 45.07 20.313999L 43.82 20.112L 44.34 19.209999Z"/>
      </g>
    </g>
  </g>
  <g id="g-root-ic_2_zp2055190cw7j-stroke-fill" data-item-order="-2304" transform="translate(362, 146)">
    <g id="ic_2_zp2055190cw7j-fill" stroke="none" fill="#b7b7b7">
      <g>
        <path d="M 23.188 36.211998C 27.633026 36.268608 31.764837 33.929649 34.003853 30.0893C 36.242867 26.248953 36.242867 21.501047 34.003853 17.6607C 31.764837 13.820353 27.633026 11.481392 23.188 11.538C 16.435736 11.623991 11.007113 17.122189 11.007113 23.875C 11.007113 30.627811 16.435736 36.126007 23.188 36.211998ZM 18.66 23.038L 18.619999 23.038C 17.338863 23.048258 16.291916 22.018131 16.281425 20.736996C 16.270931 19.455862 17.300867 18.408726 18.582001 18.397999L 18.622 18.396C 19.903629 18.38583 20.950928 19.416378 20.961418 20.698006C 20.971912 21.97963 19.941624 23.027187 18.66 23.038ZM 27.792 23.038L 27.756001 23.038C 26.500546 23.012188 25.493504 21.992176 25.483757 20.736496C 25.47401 19.480816 26.465097 18.445297 27.719999 18.4L 27.756001 18.397999C 29.03775 18.388206 30.084793 19.419252 30.094734 20.701C 30.104673 21.98275 29.073748 23.029911 27.792 23.039999ZM 23.214001 29.139999C 22.004 29.134001 20.973999 29.493999 20.425999 30.007999C 19.820698 30.574093 18.871094 30.542305 18.305 29.937C 17.738909 29.331697 17.770697 28.382093 18.375999 27.816002C 19.67 26.606001 21.549999 26.132 23.228001 26.139999C 24.902 26.148001 26.761999 26.639999 28.007999 27.823999C 28.608887 28.39451 28.633511 29.344114 28.063 29.945C 27.492491 30.545887 26.542887 30.570511 25.942001 30C 25.436001 29.518 24.428001 29.146 23.214001 29.139999ZM 23.188 39.211998C 28.621496 39.213661 33.650257 36.340157 36.407467 31.658203C 39.164677 26.97625 39.238678 21.184875 36.602001 16.434L 37.09 16.427999C 40.25 16.427999 42.846001 17.08 45.023998 18.278C 47.198002 19.476 48.896 21.186001 50.310001 23.220001C 52.624001 26.546 54.245998 30.864 55.942001 35.375999C 56.287998 36.299999 56.638 37.232002 56.998001 38.164001L 56.998001 38.166C 57.263947 38.86293 57.170849 39.646011 56.748905 40.261158C 56.326965 40.876305 55.629944 41.245144 54.884003 41.248001L 52.669998 41.248001L 52.669998 45.32C 52.669998 48.673473 49.951473 51.391998 46.598 51.391998L 45.062 51.391998L 45.062 55.462002C 45.062 56.014286 44.614285 56.462002 44.062 56.462002L 26.313999 56.462002C 25.761715 56.462002 25.313999 56.014286 25.313999 55.462002L 25.313999 45.301998C 23.527378 43.55714 22.151451 41.43655 21.285999 39.094002C 21.908001 39.172001 22.543999 39.211998 23.188 39.211998Z"/>
      </g>
    </g>
  </g>
  <g id="g-root-ic_2_1uqjku1190ecqo-stroke-fill" data-item-order="-2304" transform="translate(362, 74)">
    <g id="ic_2_1uqjku1190ecqo-fill" stroke="none" fill="#b7b7b7">
      <g>
        <path d="M 56 29C 56 17 48 10 34 10C 20 10 12 16.92 12 29C 12.015738 35.579605 15.948275 41.517735 22 44.099998C 22.089825 44.13641 22.166521 44.199162 22.219999 44.279999L 25 49.18C 25.265871 49.603996 25.161411 50.161114 24.759998 50.459999C 24.287952 50.832909 24.008835 51.398491 24 52C 24 53.104568 24.895432 54 26 54C 26.276142 54 26.5 54.223858 26.5 54.5L 26.5 55.5C 26.5 56.880714 27.619287 58 29 58L 39 58C 40.380714 58 41.5 56.880714 41.5 55.5L 41.5 54.5C 41.5 54.223858 41.723858 54 42 54C 43.104568 54 44 53.104568 44 52C 43.991165 51.398491 43.712048 50.832909 43.240002 50.459999C 42.838585 50.161114 42.734127 49.603996 42.999996 49.179996L 45.880001 44.279999C 45.933475 44.199162 46.010174 44.13641 46.099998 44.099998C 52.112568 41.487274 56.001476 35.55571 55.999996 29ZM 52 29C 52 36.139999 46.799999 39.82 41.739998 41.580002C 41.534126 41.6548 41.30373 41.580742 41.18 41.399998C 41.042763 41.231022 41.042763 40.988979 41.18 40.82C 43.663956 37.139866 44.942924 32.778786 44.84 28.34C 44.988052 23.769032 43.577526 19.283554 40.84 15.62C 40.709988 15.448524 40.709988 15.211475 40.839996 15.039999C 40.954182 14.858437 41.171448 14.769922 41.379997 14.82C 48.419998 16.619999 52 21.360001 52 29ZM 16 29C 16 21.360001 19.58 16.619999 26.66 14.82C 26.868555 14.769922 27.085817 14.858437 27.200001 15.04C 27.330009 15.211475 27.330009 15.448524 27.199999 15.62C 24.462475 19.283554 23.051949 23.769032 23.200001 28.34C 23.097076 32.778786 24.376045 37.139866 26.860001 40.82C 26.997238 40.988979 26.997238 41.231022 26.860001 41.400002C 26.736267 41.580742 26.505871 41.6548 26.299999 41.579998C 21.200001 39.82 16 36.139999 16 29ZM 38.16 49.5C 37.982449 49.807545 37.655113 49.997856 37.299999 50L 30.719999 50C 30.3626 50.006439 30.031221 49.813778 29.859999 49.499996L 28.5 47.240002C 28.399973 47.068413 28.41099 46.853893 28.528067 46.693455C 28.645142 46.533016 28.846079 46.457085 29.040001 46.5C 30.6737 46.823814 32.334541 46.991238 34 47C 35.672081 46.991299 37.339561 46.823879 38.98 46.5C 39.171398 46.463554 39.366539 46.541607 39.48 46.700001C 39.580788 46.865891 39.580788 47.074104 39.479996 47.239998Z"/>
      </g>
    </g>
  </g>
  <g id="g-root-tx_credibil_qssit5190frpd-stroke-fill" data-item-order="0" transform="translate(62, 122)">
    <g id="tx_credibil_qssit5190frpd-fill" stroke="none" fill="#f4f4f4">
      <g>
        <text style="font: 20px Roboto, sans-serif; white-space: pre;" font-size="20px" font-family="Roboto, sans-serif">
          <tspan x="16.48" y="34" dominant-baseline="ideographic">Credibility of </tspan>
          <tspan x="38.33" y="58" dominant-baseline="ideographic">witnesses</tspan>
        </text>
      </g>
    </g>
  </g>
  <g id="g-root-tx_extraord_dhyhix190fq4i-stroke-fill" data-item-order="0" transform="translate(26, 50)">
    <g id="tx_extraord_dhyhix190fq4i-fill" stroke="none" fill="#f4f4f4">
      <g>
        <text style="font: 20px Roboto, sans-serif; white-space: pre;" font-size="20px" font-family="Roboto, sans-serif">
          <tspan x="46.42" y="34" dominant-baseline="ideographic">Extraordinary </tspan>
          <tspan x="20.09" y="58" dominant-baseline="ideographic">nature of claims</tspan>
        </text>
      </g>
    </g>
  </g>
  <g id="g-root-tx_conventi_6hz5l190frpf-stroke-fill" data-item-order="0" transform="translate(422, 146)">
    <g id="tx_conventi_6hz5l190frpf-fill" stroke="none" fill="#f4f4f4">
      <g>
        <text style="font: 20px Roboto, sans-serif; white-space: pre;" font-size="20px" font-family="Roboto, sans-serif">
          <tspan x="12" y="34" dominant-baseline="ideographic">Conventionality </tspan>
          <tspan x="12" y="58" dominant-baseline="ideographic">of explanations</tspan>
        </text>
      </g>
    </g>
  </g>
  <g id="g-root-tx_ordinary_1lwrzuh190fpxg-stroke-fill" data-item-order="0" transform="translate(422, 74)">
    <g id="tx_ordinary_1lwrzuh190fpxg-fill" stroke="none" fill="#f4f4f4">
      <g>
        <text style="font: 20px Roboto, sans-serif; white-space: pre;" font-size="20px" font-family="Roboto, sans-serif">
          <tspan x="12" y="34" dominant-baseline="ideographic">Ordinary nature </tspan>
          <tspan x="12" y="58" dominant-baseline="ideographic">of phenomena</tspan>
        </text>
      </g>
    </g>
  </g>
  <g id="g-root-tx_witnessa_1d14zll190fqq5-stroke-fill" data-item-order="0" transform="translate(50, 266)">
    <g id="tx_witnessa_1d14zll190fqq5-fill" stroke="none" fill="#f4f4f4">
      <g>
        <text style="font: 20px Roboto, sans-serif; white-space: pre;" font-size="20px" font-family="Roboto, sans-serif">
          <tspan x="13.63" y="34" dominant-baseline="ideographic">Witness Accounts</tspan>
        </text>
      </g>
    </g>
  </g>
  <g id="g-root-tx_official_18lbhh5190frie-stroke-fill" data-item-order="0" transform="translate(374, 290)">
    <g id="tx_official_18lbhh5190frie-fill" stroke="none" fill="#f4f4f4">
      <g>
        <text style="font: 20px Roboto, sans-serif; white-space: pre;" font-size="20px" font-family="Roboto, sans-serif">
          <tspan x="15.38" y="34" dominant-baseline="ideographic">Official Explanations</tspan>
        </text>
      </g>
    </g>
  </g>
  <g id="g-root-tx_balancin_zqaybd190fp5b-stroke-fill" data-item-order="0" transform="translate(56, 350)">
    <g id="tx_balancin_zqaybd190fp5b-fill" stroke="none" fill="#f4f4f4">
      <g>
        <text style="font: 20px Roboto, sans-serif; white-space: pre;" font-size="20px" font-family="Roboto, sans-serif">
          <tspan x="15.18" y="34" dominant-baseline="ideographic">Balancing Witness Credibility and Official Explanations</tspan>
        </text>
      </g>
    </g>
  </g>
</svg>
