<?xml version='1.0' encoding='utf-8'?>
<svg xmlns="http://www.w3.org/2000/svg" xmlns:xlink="http://www.w3.org/1999/xlink" width="1056" height="708" viewBox="0 0 1056 708" style="fill:none;stroke:none;fill-rule:evenodd;clip-rule:evenodd;stroke-linecap:round;stroke-linejoin:round;stroke-miterlimit:1.5;" version="1.1">
  <style class="text-font-style fontImports" data-font-family="Roboto">@import url('https://fonts.googleapis.com/css2?family=Roboto:wght@400;700&amp;display=block');</style>
  <rect x="0" y="0" width="1056" height="708" fill="#252a34" stroke="none" id="programmatic_background"/>
  <g id="g-root-tf_1lt15c918q3hmu-stroke-fill" data-item-order="-691560" transform="translate(18, 12)"/>
  <g id="g-root-sy_4_cu_91if6118qerri-stroke-fill" data-item-order="-317369" transform="translate(608, 386)">
    <g id="sy_4_cu_91if6118qerri-stroke" fill="none" stroke-linecap="round" stroke-linejoin="round" stroke-miterlimit="4" stroke="#cb68f9" stroke-width="2">
      <g>
        <path d="M 33.850586 154.000488L 45.850586 154.000488M 58.200195 70L 70.200195 70M 87.9997 10L 21.9997 238L 10 238"/>
      </g>
    </g>
  </g>
  <g id="g-root-sy_3_cu_4mbe4p18qepdz-stroke-fill" data-item-order="-317365" transform="translate(608, 158.00048828125)">
    <g id="sy_3_cu_4mbe4p18qepdz-stroke" fill="none" stroke-linecap="round" stroke-linejoin="round" stroke-miterlimit="4" stroke="#cb68f9" stroke-width="2">
      <g>
        <path d="M 33.84668 93.999512L 45.84668 93.999512M 58.195313 177.999512L 70.195313 177.999512M 87.9997 238L 21.9997 10L 10 10"/>
      </g>
    </g>
  </g>
  <g id="g-root-sy_2_cu_6hw0918qeq68-stroke-fill" data-item-order="-317361" transform="translate(296, 385.99951171875)">
    <g id="sy_2_cu_6hw0918qeq68-stroke" fill="none" stroke-linecap="round" stroke-linejoin="round" stroke-miterlimit="4" stroke="#1ac3fb" stroke-width="2">
      <g>
        <path d="M 33.851563 154.000488L 45.851563 154.000488M 58.200195 70.000488L 70.200195 70.000488M 87.9997 10L 21.9997 238L 10 238"/>
      </g>
    </g>
  </g>
  <g id="g-root-sy_1_cu_1qbyxqh18qeqrt-stroke-fill" data-item-order="-317357" transform="translate(296, 158.00048828125)">
    <g id="sy_1_cu_1qbyxqh18qeqrt-stroke" fill="none" stroke-linecap="round" stroke-linejoin="round" stroke-miterlimit="4" stroke="#b7b7b7" stroke-width="2">
      <g>
        <path d="M 33.851563 93.999512L 45.851563 93.999512M 58.200195 177.999512L 70.200195 177.999512M 87.9997 238L 21.9997 10L 10 10"/>
      </g>
    </g>
  </g>
  <g id="g-root-sy_-1_line_1qbyxqh18qeqru-stroke-fill" data-item-order="-317351" transform="translate(32, 386)">
    <g id="sy_-1_line_1qbyxqh18qeqru-stroke" fill="none" stroke-linecap="round" stroke-linejoin="round" stroke-miterlimit="4" stroke="#f4f4f4" stroke-width="2">
      <g>
        <path d="M 704 10L 10 10"/>
        <path d="M 698 16.5L 704.5 10L 698 3.5" stroke-dasharray="none"/>
      </g>
    </g>
  </g>
  <g id="g-root-tx_unresolv_1lw5fm118qerk3-stroke-fill" data-item-order="0" transform="translate(800, 350)">
    <g id="tx_unresolv_1lw5fm118qerk3-fill" stroke="none" fill="#f4f4f4">
      <g>
        <text style="font: 20px Roboto, sans-serif; white-space: pre;" font-size="20px" font-family="Roboto, sans-serif">
          <tspan x="12" y="34" dominant-baseline="ideographic">Unresolved Mysteries </tspan>
          <tspan x="12" y="58" dominant-baseline="ideographic">of the Montana UFO </tspan>
          <tspan x="12" y="82" dominant-baseline="ideographic">Film</tspan>
        </text>
      </g>
    </g>
  </g>
  <g id="g-root-tx_localcul_18lbebt18qepz8-stroke-fill" data-item-order="0" transform="translate(440, 434)">
    <g id="tx_localcul_18lbebt18qepz8-fill" stroke="none" fill="#f4f4f4">
      <g>
        <text style="font: 20px Roboto, sans-serif; white-space: pre;" font-size="20px" font-family="Roboto, sans-serif">
          <tspan x="19.3" y="34" dominant-baseline="ideographic">Local Cultural Identity</tspan>
        </text>
      </g>
    </g>
  </g>
  <g id="g-root-tx_historic_zpoe2x18qeqrx-stroke-fill" data-item-order="0" transform="translate(416, 518)">
    <g id="tx_historic_zpoe2x18qeqrx-fill" stroke="none" fill="#f4f4f4">
      <g>
        <text style="font: 20px Roboto, sans-serif; white-space: pre;" font-size="20px" font-family="Roboto, sans-serif">
          <tspan x="13.55" y="34" dominant-baseline="ideographic">Historical Significance</tspan>
        </text>
      </g>
    </g>
  </g>
  <g id="g-root-tx_cultural_v9uvyh18qerk6-stroke-fill" data-item-order="0" transform="translate(416, 602)">
    <g id="tx_cultural_v9uvyh18qerk6-fill" stroke="none" fill="#f4f4f4">
      <g>
        <text style="font: 20px Roboto, sans-serif; white-space: pre;" font-size="20px" font-family="Roboto, sans-serif">
          <tspan x="16.33" y="34" dominant-baseline="ideographic">Cultural Impact</tspan>
        </text>
      </g>
    </g>
  </g>
  <g id="g-root-tx_jetaircr_hz0uo918qepzb-stroke-fill" data-item-order="0" transform="translate(524, 302)">
    <g id="tx_jetaircr_hz0uo918qepzb-fill" stroke="none" fill="#f4f4f4">
      <g>
        <text style="font: 20px Roboto, sans-serif; white-space: pre;" font-size="20px" font-family="Roboto, sans-serif">
          <tspan x="29.11" y="34" dominant-baseline="ideographic">Jet Aircraft </tspan>
          <tspan x="13.63" y="58" dominant-baseline="ideographic">Explanations</tspan>
        </text>
      </g>
    </g>
  </g>
  <g id="g-root-tx_missingf_dj7cjt18qeqrk-stroke-fill" data-item-order="0" transform="translate(464, 218)">
    <g id="tx_missingf_dj7cjt18qeqrk-fill" stroke="none" fill="#f4f4f4">
      <g>
        <text style="font: 20px Roboto, sans-serif; white-space: pre;" font-size="20px" font-family="Roboto, sans-serif">
          <tspan x="22.39" y="34" dominant-baseline="ideographic">Missing Frames </tspan>
          <tspan x="64.33" y="58" dominant-baseline="ideographic">Allegations</tspan>
        </text>
      </g>
    </g>
  </g>
  <g id="g-root-tx_airforce_4nkcax18qerk9-stroke-fill" data-item-order="0" transform="translate(344, 146)">
    <g id="tx_airforce_4nkcax18qerk9-fill" stroke="none" fill="#f4f4f4">
      <g>
        <text style="font: 20px Roboto, sans-serif; white-space: pre;" font-size="20px" font-family="Roboto, sans-serif">
          <tspan x="14.8" y="34" dominant-baseline="ideographic">Air Force Investigations</tspan>
        </text>
      </g>
    </g>
  </g>
  <g id="g-root-tx_limitati_1qduczt18qepsa-stroke-fill" data-item-order="0" transform="translate(140, 422)">
    <g id="tx_limitati_1qduczt18qepsa-fill" stroke="none" fill="#f4f4f4">
      <g>
        <text style="font: 20px Roboto, sans-serif; white-space: pre;" font-size="20px" font-family="Roboto, sans-serif">
          <tspan x="14.52" y="34" dominant-baseline="ideographic">Limitations of 16mm </tspan>
          <tspan x="161.67" y="58" dominant-baseline="ideographic">Film</tspan>
        </text>
      </g>
    </g>
  </g>
  <g id="g-root-tx_speedand_1ly0uvd18qeqkj-stroke-fill" data-item-order="0" transform="translate(164, 506)">
    <g id="tx_speedand_1ly0uvd18qeqkj-fill" stroke="none" fill="#f4f4f4">
      <g>
        <text style="font: 20px Roboto, sans-serif; white-space: pre;" font-size="20px" font-family="Roboto, sans-serif">
          <tspan x="16.16" y="34" dominant-baseline="ideographic">Speed and Size </tspan>
          <tspan x="41.81" y="58" dominant-baseline="ideographic">Calculations</tspan>
        </text>
      </g>
    </g>
  </g>
  <g id="g-root-tx_technica_1d2dumh18qerd8-stroke-fill" data-item-order="0" transform="translate(68, 602)">
    <g id="tx_technica_1d2dumh18qerd8-fill" stroke="none" fill="#f4f4f4">
      <g>
        <text style="font: 20px Roboto, sans-serif; white-space: pre;" font-size="20px" font-family="Roboto, sans-serif">
          <tspan x="17.31" y="34" dominant-baseline="ideographic">Technical Analyses</tspan>
        </text>
      </g>
    </g>
  </g>
  <g id="g-root-tx_allegati_zrjtc918qepsd-stroke-fill" data-item-order="0" transform="translate(152, 302)">
    <g id="tx_allegati_zrjtc918qepsd-fill" stroke="none" fill="#f4f4f4">
      <g>
        <text style="font: 20px Roboto, sans-serif; white-space: pre;" font-size="20px" font-family="Roboto, sans-serif">
          <tspan x="20.22" y="34" dominant-baseline="ideographic">Allegations of Self-</tspan>
          <tspan x="94.58" y="58" dominant-baseline="ideographic">Promotion</tspan>
        </text>
      </g>
    </g>
  </g>
  <g id="g-root-tx_consiste_mg3ayx18qerda-stroke-fill" data-item-order="0" transform="translate(116, 230)">
    <g id="tx_consiste_mg3ayx18qerda-fill" stroke="none" fill="#f4f4f4">
      <g>
        <text style="font: 20px Roboto, sans-serif; white-space: pre;" font-size="20px" font-family="Roboto, sans-serif">
          <tspan x="15" y="34" dominant-baseline="ideographic">Consistent Accounts</tspan>
        </text>
      </g>
    </g>
  </g>
  <g id="g-root-tx_witnessc_i0w9xl18qeozr-stroke-fill" data-item-order="0" transform="translate(68, 146)">
    <g id="tx_witnessc_i0w9xl18qeozr-fill" stroke="none" fill="#f4f4f4">
      <g>
        <text style="font: 20px Roboto, sans-serif; white-space: pre;" font-size="20px" font-family="Roboto, sans-serif">
          <tspan x="23.41" y="34" dominant-baseline="ideographic">Witness Credibility</tspan>
        </text>
      </g>
    </g>
  </g>
  <g id="g-root-tx_analyzin_dl2rt518qeps0-stroke-fill" data-item-order="0" transform="translate(344, 50)">
    <g id="tx_analyzin_dl2rt518qeps0-fill" stroke="none" fill="#f4f4f4">
      <g>
        <text style="font: 20px Roboto, sans-serif; white-space: pre;" font-size="20px" font-family="Roboto, sans-serif">
          <tspan x="12.45" y="34" dominant-baseline="ideographic">Analyzing the Great Falls UFO Film Case</tspan>
        </text>
      </g>
    </g>
    <defs>
      <pattern id="crawlingPattern-0000001b" x="0" y="0" width="12" height="12" patternUnits="userSpaceOnUse" fill="#0000001b">
        <use href="#crawlingSymbol"/>
      </pattern>
      <symbol id="crawlingSymbol">
        <g>
          <path d="M -12.5 12.5 l 13 -13 l 6 0 l -13 13 Z M -0.5 12.5 l 13 -13 l 6 0 l -13 13 Z M 11.5 12.5 l 13 -13 l 6 0 l -13 13 Z"/>
        </g>
      </symbol>
    </defs>
  </g>
  <g id="g-root-ic_2_4pfrk918qeqkp-stroke-fill" data-item-order="0" transform="translate(260, 140)">
    <g id="ic_2_4pfrk918qeqkp-stroke" fill="none" stroke-linecap="round" stroke-linejoin="round" stroke-miterlimit="4" stroke="#f4f4f4" stroke-width="2">
      <g>
        <path d="M 24.473831 23.74258C 26.536449 23.74258 28.2085 22.070499 28.2085 20.007879C 28.2085 17.945274 26.536449 16.273195 24.473831 16.273195C 22.411211 16.273195 20.73913 17.945274 20.73913 20.007879C 20.73913 22.070499 22.411211 23.74258 24.473831 23.74258ZM 40.37545 25.8382L 42.652 25.8382C 43.0546 25.8382 43.440548 25.9981 43.72525 26.282799C 44.0098 26.56735 44.169701 26.953451 44.169701 27.3559L 44.169701 42.532902C 44.169701 42.935349 44.0098 43.321449 43.72525 43.605999C 43.440548 43.890701 43.0546 44.050598 42.652 44.050598L 30.510551 44.050598C 30.10795 44.050598 29.722 43.890701 29.437302 43.605999C 29.15275 43.321449 28.992849 42.935349 28.992849 42.532902L 28.992849 27.3559C 28.992849 26.953451 29.15275 26.56735 29.437302 26.282799C 29.722 25.9981 30.10795 25.8382 30.510551 25.8382L 32.787098 25.8382M 38.85865 23.683195L 34.30555 23.683195C 33.46735 23.683195 32.787849 24.362696 32.787849 25.20085L 32.787849 26.774351C 32.787849 27.612551 33.46735 28.292049 34.30555 28.292049L 38.85865 28.292049C 39.69685 28.292049 40.37635 27.612551 40.37635 26.774351L 40.37635 25.20085C 40.37635 24.362696 39.69685 23.683195 38.85865 23.683195ZM 10 10M 33.355148 37.66885L 35.776001 39.282852L 39.811001 32.827M 36.5704 21.364389C 37.303448 20.566481 37.303448 19.449385 36.5704 18.651489C 34.55455 16.417345 29.973101 11.949025 24.475239 11.949025C 18.97744 11.949025 14.39596 16.417345 12.380095 18.651489C 11.64706 19.449385 11.64706 20.566481 12.380095 21.364389C 14.39596 23.75812 18.97744 28.066898 24.475239 28.066898C 25.022049 28.066898 25.55995 28.02265 26.087049 27.94075"/>
      </g>
    </g>
  </g>
  <g id="g-root-ic_came_8ye1qh18qhiwy-stroke-fill" data-item-order="0" transform="translate(260, 596)">
    <g id="ic_came_8ye1qh18qhiwy-stroke" fill="none" stroke-linecap="round" stroke-linejoin="round" stroke-miterlimit="4" stroke="#f4f4f4" stroke-width="2">
      <g>
        <path d="M 14.5 18.25C 14.5 22.392136 17.857864 25.75 22 25.75C 26.142136 25.75 29.5 22.392136 29.5 18.25C 29.5 14.107864 26.142136 10.75 22 10.75C 17.857864 10.75 14.5 14.107864 14.5 18.25M 32.5 21.25C 32.5 23.735283 34.514717 25.75 37 25.75C 39.485283 25.75 41.5 23.735283 41.5 21.25C 41.5 18.764719 39.485283 16.75 37 16.75C 34.514717 16.75 32.5 18.764719 32.5 21.25M 21.25 28.75L 34.75 28.75C 34.75 28.75 35.5 28.75 35.5 29.5L 35.5 38.5C 35.5 38.5 35.5 39.25 34.75 39.25L 21.25 39.25C 21.25 39.25 20.5 39.25 20.5 38.5L 20.5 29.5C 20.5 29.5 20.5 28.75 21.25 28.75M 40 35.959C 40.000301 36.200214 39.884563 36.426849 39.688984 36.568039C 39.493404 36.709221 39.241856 36.747723 39.013 36.671501L 35.5 35.5L 35.5 32.5L 39.013 31.328499C 39.241856 31.252277 39.493404 31.290777 39.688984 31.431963C 39.884563 31.573149 40.000301 31.799786 40 32.041ZM 22.75 45.25L 28.75 39.25L 34.75 45.25"/>
      </g>
    </g>
  </g>
  <g id="g-root-ic_fema_qtewqx18qiznv-stroke-fill" data-item-order="0" transform="translate(572, 140)">
    <g id="ic_fema_qtewqx18qiznv-stroke" fill="none" stroke-linecap="round" stroke-linejoin="round" stroke-miterlimit="4" stroke="#f4f4f4" stroke-width="2">
      <g>
        <path d="M 10 10M 28.224998 33.475601L 31.224998 36.0256L 34.224998 33.475601L 41.724998 33.475601L 39.474998 36.7756C 42.175003 38.725601 44.125 41.57515 44.875 44.875149M 39.025002 22.225584C 39.025002 22.225584 39.025002 26.4256 43.525002 26.4256M 23.424925 22.225584C 23.424925 22.225584 23.424925 26.4256 18.924925 26.4256M 31.224998 11.125732L 31.224998 16.975719M 39.024849 19.975586C 39.024849 19.975586 36.202148 22.975584 31.29925 22.975584C 26.545 22.975584 23.424925 19.975586 23.424925 19.975586C 23.424925 19.975586 26.545 16.975586 31.29925 16.975586C 36.202148 16.975586 39.024849 19.975586 39.024849 19.975586ZM 23.424925 19.975719C 23.424925 15.025721 27.025002 11.125732 31.224998 11.125732C 35.574997 11.125732 39.024849 15.025721 39.024849 19.975719M 23.424925 19.975719L 23.424925 22.375599C 23.424925 26.725601 27.025002 30.1756 31.224998 30.1756C 35.574997 30.1756 39.024849 26.5756 39.024849 22.375599L 39.024849 19.975719M 17.875 43.074699C 21.602921 43.074699 24.625 40.05265 24.625 36.324699C 24.625 32.596748 21.602921 29.574699 17.875 29.574699C 14.147079 29.574699 11.125 32.596748 11.125 36.324699C 11.125 40.05265 14.147079 43.074699 17.875 43.074699ZM 26.424999 44.874397L 22.645285 41.095001M 31.22485 42.949448C 32.050751 42.949448 32.720051 42.279999 32.720051 41.45425C 32.720051 40.628349 32.050751 39.959049 31.22485 39.959049C 30.399099 39.959049 29.72965 40.628349 29.72965 41.45425C 29.72965 42.279999 30.399099 42.949448 31.22485 42.949448Z"/>
      </g>
    </g>
  </g>
  <g id="g-root-ic_merm_hunj2h18qlqto-stroke-fill" data-item-order="0" transform="translate(572, 596)">
    <g id="ic_merm_hunj2h18qlqto-stroke" fill="none" stroke-linecap="round" stroke-linejoin="round" stroke-miterlimit="4" stroke="#f4f4f4" stroke-width="2">
      <g>
        <path d="M 26.841999 19.75C 26.841999 19.957108 27.009893 20.125 27.216999 20.125C 27.424107 20.125 27.591999 19.957108 27.591999 19.75C 27.591999 19.542892 27.424107 19.375 27.216999 19.375C 27.009893 19.375 26.841999 19.542892 26.841999 19.75M 22.716999 19.75C 22.717001 22.131729 24.647772 24.0625 27.029501 24.0625C 29.411228 24.0625 31.342001 22.131729 31.342001 19.75C 31.342001 17.368273 29.411228 15.4375 27.029501 15.4375C 24.647772 15.4375 22.717001 17.368273 22.717001 19.75M 27.828999 27.431499C 26.499207 28.614613 24.597015 28.902735 22.9765 28.1665M 26.854 13.012C 25.277559 11.787321 23.337746 11.123298 21.341499 11.125L 19.555 11.125C 19.122719 11.125108 18.711498 11.311707 18.426758 11.636961C 18.142015 11.962215 18.011438 12.394501 18.068501 12.823L 19.342001 22.375L 14.8855 17.918499C 14.057073 17.041611 12.674641 17.002323 11.79775 17.83075C 10.92086 18.659178 10.881573 20.041611 11.71 20.918501L 16.342001 26.125L 16.342001 28.75L 14.842 28.75C 13.185145 28.75 11.842 30.093145 11.842 31.75L 11.842 35.5C 11.842 36.742641 12.84936 37.75 14.092 37.75C 15.334641 37.75 16.342001 36.742641 16.342001 35.5L 16.342001 41.579498L 13.820499 43.079498L 13.820499 44.879501L 20.842001 44.879501L 20.842001 43C 20.842001 41.343143 22.185146 40 23.841999 40L 23.841999 40C 25.498854 40 26.841999 41.343143 26.841999 43L 26.841999 44.875L 33.3685 44.875L 33.3685 43.074997L 31.341999 41.537498L 31.341999 35.5M 31.3465 35.5L 37.1245 30.474998C 38.062386 29.659439 38.161499 28.23797 37.345875 27.300142C 36.530247 26.362312 35.108765 26.263302 34.171001 27.078999L 30.806499 30.0655L 30.806499 26.527M 16.342001 35.5L 16.342001 32.9245M 34.352501 40.123001L 38.066502 40.123001C 39.123367 42.786263 41.593006 44.624851 44.447502 44.873497C 44.562325 44.883869 44.675201 44.838848 44.751373 44.752304C 44.827545 44.665764 44.857864 44.548077 44.833 44.435501L 43.307499 37.300003L 44.395 30.179501C 44.412468 30.065504 44.374733 29.949989 44.293335 29.868294C 44.211933 29.786598 44.096558 29.748442 43.982498 29.765499C 40.950073 30.228878 38.492596 32.468109 37.75 35.4445L 36.776501 35.195503"/>
      </g>
    </g>
  </g>
  <g id="g-root-ic_clou_8db9l18qn5z9-stroke-fill" data-item-order="0" transform="translate(740, 362)">
    <g id="ic_clou_8db9l18qn5z9-stroke" fill="none" stroke-linecap="round" stroke-linejoin="round" stroke-miterlimit="4" stroke="#f4f4f4" stroke-width="2">
      <g>
        <path d="M 34.5 49C 34.5 53.418278 38.081722 57 42.5 57C 46.918278 57 50.5 53.418278 50.5 49C 50.5 44.581722 46.918278 41 42.5 41C 38.081722 41 34.5 44.581722 34.5 49M 41.5 11C 37.081722 11 33.5 14.581722 33.5 19C 33.490437 19.166531 33.490437 19.333469 33.5 19.5C 33.597404 21.367373 32.865494 23.182505 31.5 24.459999C 30.170673 25.693495 28.35478 26.259584 26.560001 26C 26.206945 25.980104 25.853054 25.980104 25.5 26C 21.081722 26 17.5 29.581722 17.5 34C 17.5 38.418278 21.081722 42 25.5 42C 29.918278 42 33.5 38.418278 33.5 34C 33.509567 33.833473 33.509567 33.666531 33.5 33.5C 33.402596 31.632627 34.134506 29.817495 35.5 28.539999C 36.827919 27.273071 38.662659 26.683598 40.480003 26.940001C 40.833054 26.959894 41.186947 26.959894 41.540001 26.940001C 45.958279 26.940001 49.540001 23.358278 49.540001 18.939999C 49.540001 14.521722 45.958279 10.94 41.540001 10.94Z"/>
      </g>
    </g>
  </g>
</svg>
