<?xml version='1.0' encoding='utf-8'?>
<svg xmlns="http://www.w3.org/2000/svg" xmlns:xlink="http://www.w3.org/1999/xlink" width="792" height="516" viewBox="0 0 792 516" style="fill:none;stroke:none;fill-rule:evenodd;clip-rule:evenodd;stroke-linecap:round;stroke-linejoin:round;stroke-miterlimit:1.5;" version="1.1">
  <style class="text-font-style fontImports" data-font-family="Roboto">@import url('https://fonts.googleapis.com/css2?family=Roboto:wght@400;700&amp;display=block');</style>
  <rect x="0" y="0" width="792" height="516" fill="#252a34" stroke="none" id="programmatic_background"/>
  <g id="g-root-tf_6h9vt1bs1vcz-stroke-fill" data-item-order="-377946" transform="translate(16, 12)">
    <g id="tf_6h9vt1bs1vcz-fill" stroke="none" fill="#2c2c2c">
      <g>
        <path d="M 0 0L 760 0L 760 497.3L 0 497.3Z"/>
      </g>
    </g>
    <defs>
      <pattern id="crawlingPattern-b5b5b51a" x="0" y="0" width="12" height="12" patternUnits="userSpaceOnUse" fill="#b5b5b51a">
        <use href="#crawlingSymbol"/>
      </pattern>
      <symbol id="crawlingSymbol">
        <g>
          <path d="M -12.5 12.5 l 13 -13 l 6 0 l -13 13 Z M -0.5 12.5 l 13 -13 l 6 0 l -13 13 Z M 11.5 12.5 l 13 -13 l 6 0 l -13 13 Z"/>
        </g>
      </symbol>
      <pattern id="crawlingPattern-8ed00028" x="0" y="0" width="12" height="12" patternUnits="userSpaceOnUse" fill="#8ed00028">
        <use href="#crawlingSymbol"/>
      </pattern>
      <pattern id="crawlingPattern-00d16d21" x="0" y="0" width="12" height="12" patternUnits="userSpaceOnUse" fill="#00d16d21">
        <use href="#crawlingSymbol"/>
      </pattern>
      <pattern id="crawlingPattern-f908001a" x="0" y="0" width="12" height="12" patternUnits="userSpaceOnUse" fill="#f908001a">
        <use href="#crawlingSymbol"/>
      </pattern>
      <pattern id="crawlingPattern-0000001b" x="0" y="0" width="12" height="12" patternUnits="userSpaceOnUse" fill="#0000001b">
        <use href="#crawlingSymbol"/>
      </pattern>
      <pattern id="crawlingPattern-c1c1c11a" x="0" y="0" width="12" height="12" patternUnits="userSpaceOnUse" fill="#c1c1c11a">
        <use href="#crawlingSymbol"/>
      </pattern>
      <pattern id="crawlingPattern-f9080081" x="0" y="0" width="12" height="12" patternUnits="userSpaceOnUse" fill="#f9080081">
        <use href="#crawlingSymbol"/>
      </pattern>
      <pattern id="crawlingPattern-ff0b0038" x="0" y="0" width="12" height="12" patternUnits="userSpaceOnUse" fill="#ff0b0038">
        <use href="#crawlingSymbol"/>
      </pattern>
      <pattern id="crawlingPattern-00b15c75" x="0" y="0" width="12" height="12" patternUnits="userSpaceOnUse" fill="#00b15c75">
        <use href="#crawlingSymbol"/>
      </pattern>
      <pattern id="crawlingPattern-00ff873a" x="0" y="0" width="12" height="12" patternUnits="userSpaceOnUse" fill="#00ff873a">
        <use href="#crawlingSymbol"/>
      </pattern>
      <pattern id="crawlingPattern-5c87005e" x="0" y="0" width="12" height="12" patternUnits="userSpaceOnUse" fill="#5c87005e">
        <use href="#crawlingSymbol"/>
      </pattern>
      <pattern id="crawlingPattern-acff003c" x="0" y="0" width="12" height="12" patternUnits="userSpaceOnUse" fill="#acff003c">
        <use href="#crawlingSymbol"/>
      </pattern>
      <pattern id="crawlingPattern-5f5f5f1a" x="0" y="0" width="12" height="12" patternUnits="userSpaceOnUse" fill="#5f5f5f1a">
        <use href="#crawlingSymbol"/>
      </pattern>
    </defs>
  </g>
  <g id="g-root-cp_0_g-0_1hjflmx1bshatn-stroke-fill" data-item-order="-285714" transform="translate(120.26998901367188, 155.46499633789062)">
    <g id="cp_0_g-0_1hjflmx1bshatn-fill" stroke="none" fill="#e8e8e8">
      <g>
        <path d="M 67.4251 80.7868L 82.4105 106.9928L 52.0142 107.4793L 10 180.25L 90.1797 180.25L 106.6466 152L 123.565 180.25L 206.588 180.25L 165.243 108.6389L 133.506 108.5072L 149.041 80.5762L 108.2939 10L 67.4251 80.7868Z"/>
      </g>
    </g>
    <g id="cp_0_g-0_1hjflmx1bshatn-stroke" fill="none" stroke-linecap="round" stroke-linejoin="round" stroke-miterlimit="4" stroke="#2c2c2c" stroke-width="2">
      <g>
        <path d="M 67.4251 80.7868L 82.4105 106.9928L 52.0142 107.4793L 10 180.25L 90.1797 180.25L 106.6466 152L 123.5653 180.25L 206.5878 180.25L 165.2431 108.6389L 133.5057 108.5072L 149.0411 80.5762L 108.2939 10L 67.4251 80.7868Z"/>
      </g>
    </g>
  </g>
  <g id="g-root-cp_3_g-3_1d3m3ih1bshblx-stroke-fill" data-item-order="-285710" transform="translate(42, 122)">
    <g id="cp_3_g-3_1d3m3ih1bshblx-fill" stroke="none" fill="#a6da37">
      <g>
        <path d="M 160.68 140.458L 86.0805 10L 10 142.869L 160.68 140.458Z"/>
      </g>
    </g>
    <g id="cp_3_g-3_1d3m3ih1bshblx-stroke" fill="none" stroke-linecap="round" stroke-linejoin="round" stroke-miterlimit="4" stroke="#2c2c2c" stroke-width="2">
      <g>
        <path d="M 160.6799 140.4576L 86.0805 10L 10 142.8693L 160.6799 140.4576Z"/>
      </g>
    </g>
  </g>
  <g id="g-root-cp_2_g-2_13ylyyx1bsintb-stroke-fill" data-item-order="-285706" transform="translate(141.23599243164062, 297.4649963378906)">
    <g id="cp_2_g-2_13ylyyx1bsintb-fill" stroke="none" fill="#43dd93">
      <g>
        <path d="M 85.6799 10L 10 139.834L 163.108 139.287L 85.6799 10Z"/>
      </g>
    </g>
    <g id="cp_2_g-2_13ylyyx1bsintb-stroke" fill="none" stroke-linecap="round" stroke-linejoin="round" stroke-miterlimit="4" stroke="#2c2c2c" stroke-width="2">
      <g>
        <path d="M 85.6799 10L 10 139.8338L 163.1085 139.2867L 85.6799 10Z"/>
      </g>
    </g>
  </g>
  <g id="g-root-cp_1_g-1_18efh3d1bsinsx-stroke-fill" data-item-order="-285702" transform="translate(243.77499389648438, 122.27300262451172)">
    <g id="cp_1_g-1_18efh3d1bsinsx-fill" stroke="none" fill="#fb6762">
      <g>
        <path d="M 10 141.699L 160.279 142.322L 83.2513 10L 10 141.699Z"/>
      </g>
    </g>
    <g id="cp_1_g-1_18efh3d1bsinsx-stroke" fill="none" stroke-linecap="round" stroke-linejoin="round" stroke-miterlimit="4" stroke="#2c2c2c" stroke-width="2">
      <g>
        <path d="M 10 141.6985L 160.2793 142.3223L 83.2513 10L 10 141.6985Z"/>
      </g>
    </g>
  </g>
  <g id="g-root-cp_1_g-1_1_zisguh1bsioln-stroke-fill" data-item-order="-285682" transform="translate(454.052001953125, 130.64801025390625)">
    <g id="cp_1_g-1_1_zisguh1bsioln-fill" stroke="none" fill="#fb6762">
      <g>
        <path d="M 10 10L 10 39L 34 24.1778L 10 10Z"/>
      </g>
    </g>
    <g id="cp_1_g-1_1_zisguh1bsioln-stroke" fill="none" stroke-linecap="round" stroke-linejoin="round" stroke-miterlimit="4" stroke="#2c2c2c" stroke-width="2">
      <g>
        <path d="M 10 10L 10 39L 34 24.1778L 10 10Z"/>
      </g>
    </g>
  </g>
  <g id="g-root-cp_2_g-2_1_v2yyq11bsipdx-stroke-fill" data-item-order="-285666" transform="translate(454.052001953125, 250.6479949951172)">
    <g id="cp_2_g-2_1_v2yyq11bsipdx-fill" stroke="none" fill="#43dd93">
      <g>
        <path d="M 10 10L 10 39L 34 24.1778L 10 10Z"/>
      </g>
    </g>
    <g id="cp_2_g-2_1_v2yyq11bsipdx-stroke" fill="none" stroke-linecap="round" stroke-linejoin="round" stroke-miterlimit="4" stroke="#2c2c2c" stroke-width="2">
      <g>
        <path d="M 10 10L 10 39L 34 24.1778L 10 10Z"/>
      </g>
    </g>
  </g>
  <g id="g-root-cp_3_g-3_1_m7byh51bsiq6n-stroke-fill" data-item-order="-285652" transform="translate(454.0539855957031, 346.6479797363281)">
    <g id="cp_3_g-3_1_m7byh51bsiq6n-fill" stroke="none" fill="#a6da37">
      <g>
        <path d="M 10 10L 10 39L 34 24.1778L 10 10Z"/>
      </g>
    </g>
    <g id="cp_3_g-3_1_m7byh51bsiq6n-stroke" fill="none" stroke-linecap="round" stroke-linejoin="round" stroke-miterlimit="4" stroke="#2c2c2c" stroke-width="2">
      <g>
        <path d="M 10 10L 10 39L 34 24.1778L 10 10Z"/>
      </g>
    </g>
  </g>
  <g id="g-root-ic_sear_4gof2h1bsipe2-stroke-fill" data-item-order="-2304" transform="translate(94.5260009765625, 191)">
    <g id="ic_sear_4gof2h1bsipe2-fill" stroke="none" fill="#f4f4f4">
      <g>
        <path d="M 31.639999 49.740002C 30.996996 48.849091 29.755709 48.643696 28.860001 49.279999C 28.69808 49.368954 28.501923 49.368954 28.34 49.280003C 28.168737 49.232227 28.03791 49.093708 27.999998 48.919998L 28 23.32C 28.001551 22.995407 28.157499 22.690933 28.42 22.5L 37.200001 16.219999C 37.361923 16.131048 37.558079 16.131048 37.720001 16.220001C 37.891819 16.298748 38.001434 16.470997 38 16.66L 38 28C 38 29.10457 38.895432 30 40 30C 41.104568 30 42 29.10457 42 28L 42 16.619999C 41.998562 16.430998 42.108177 16.258747 42.279999 16.18C 42.441921 16.091049 42.638081 16.091049 42.799999 16.18L 51.580002 22.459999C 51.842499 22.650934 51.998447 22.955408 52 23.279999L 52 32.239998C 52 33.34457 52.895432 34.239998 54 34.239998C 55.104568 34.239998 56 33.34457 56 32.239998L 56 22.24C 56.00211 21.270082 55.532055 20.359818 54.740002 19.799999L 41.739998 10.56C 40.698509 9.818466 39.301495 9.818466 38.260002 10.56L 26.639999 18.84C 26.293093 19.110268 25.806904 19.110268 25.459999 18.84L 14.860001 10.64C 13.95008 9.933205 12.718782 9.801557 11.68 10.3C 10.653135 10.808414 10.002443 11.854169 10 13L 10 42.779999C 10.003121 43.723534 10.447047 44.611382 11.2 45.18L 24.220001 54.939999C 24.739288 55.329468 25.37089 55.540001 26.02 55.540001C 26.643101 55.532455 27.249466 55.337303 27.759998 54.979996L 31.18 52.52C 32.070911 51.876995 32.276306 50.635708 31.639999 49.740002ZM 14 16C 14 15.810614 14.107001 15.637483 14.276394 15.552786C 14.445786 15.46809 14.648491 15.486368 14.8 15.6L 23.619999 22.4C 23.878689 22.599215 24.021173 22.914181 24 23.24L 24 48.779999C 24.001434 48.968998 23.891821 49.141251 23.719999 49.219997C 23.558079 49.308952 23.361921 49.308952 23.200001 49.220001L 14.4 42.619999C 14.150623 42.429127 14.003071 42.134026 14 41.82ZM 57.419998 57.419998C 57.798626 57.044468 58.011597 56.533276 58.011597 56C 58.011597 55.466724 57.798626 54.955532 57.419998 54.580002L 52.619999 49.799999C 52.299732 49.473248 52.242073 48.970806 52.48 48.580002C 55.289021 43.807606 54.112354 37.691086 49.733173 34.301521C 45.353992 30.911963 39.13781 31.306293 35.222054 35.222054C 31.306293 39.13781 30.911963 45.353992 34.301521 49.733173C 37.691086 54.112354 43.807606 55.289021 48.580002 52.48C 48.970806 52.242073 49.473248 52.299732 49.799999 52.619999L 54.580002 57.419998C 54.955532 57.798626 55.466724 58.011597 56 58.011597C 56.533276 58.011597 57.044468 57.798626 57.419998 57.419998ZM 36 43C 36 39.13401 39.13401 36 43 36C 46.865993 36 50 39.13401 50 43C 50 46.865993 46.865993 50 43 50C 39.13401 50.000004 36 46.865993 36 43Z"/>
      </g>
    </g>
  </g>
  <g id="g-root-ic_comp_1lz93rd1bsio7f-stroke-fill" data-item-order="-2304" transform="translate(193.9759979248047, 357)">
    <g id="ic_comp_1lz93rd1bsio7f-fill" stroke="none" fill="#f4f4f4">
      <g>
        <path d="M 44 41.260002C 42.895432 41.260002 42 42.15543 42 43.259998L 42 44.259998L 14 44.259998L 14 26.26L 24 26.26C 25.104568 26.26 26 25.364571 26 24.26C 26 23.15543 25.104568 22.26 24 22.26L 14 22.26C 11.790861 22.26 10 24.050861 10 26.26L 10 47.259998C 10 49.469139 11.790861 51.259998 14 51.259998L 26 51.259998L 26 54.259998L 20 54.259998C 18.895432 54.259998 18 55.15543 18 56.259998C 18 57.364571 18.895432 58.259998 20 58.259998L 36 58.259998C 37.104568 58.259998 38 57.364571 38 56.259998C 38 55.15543 37.104568 54.259998 36 54.259998L 30 54.259998L 30 51.259998L 42 51.259998C 44.209141 51.259998 46 49.469139 46 47.259998L 46 43.259998C 46 42.15543 45.104568 41.260002 44 41.260002ZM 55.18 21.82C 52.900978 19.546741 49.632637 18.569996 46.48 19.219999L 44.939999 17.68C 44.354366 17.095093 43.405636 17.095093 42.82 17.68L 41.34 19.18L 39.200001 17.059999C 38.921425 16.774105 38.539177 16.61286 38.139999 16.61286C 37.740826 16.61286 37.358574 16.774105 37.080002 17.060001C 36.495094 17.645636 36.495094 18.594364 37.080002 19.18L 39.220001 21.299999L 37.440002 23.08C 36.855095 23.665634 36.855095 24.614365 37.440002 25.200001L 38.98 26.719999C 38.07848 31.21249 40.477505 35.71587 44.708839 37.474003C 48.94017 39.232132 53.824173 37.754875 56.371758 33.946327C 58.919342 30.137783 58.420277 25.059725 55.18 21.82ZM 40.599998 15.08C 40.809807 15.189125 41.043549 15.244123 41.279999 15.24C 41.845535 15.241126 42.363628 14.924084 42.620003 14.42L 43.619999 12.42C 43.969307 11.679015 43.668575 10.794504 42.939999 10.42C 42.199703 10.05921 41.306961 10.362741 40.940002 11.1L 39.940002 13.1C 39.57798 13.829191 39.872871 14.71386 40.599998 15.08ZM 33.220001 15.3C 33.498459 15.585217 33.881416 15.744182 34.279999 15.74C 34.678131 15.74188 35.060234 15.583273 35.34 15.3C 35.924908 14.714365 35.924908 13.765635 35.34 13.18L 33.34 11.18C 32.748981 10.629281 31.82798 10.645531 31.256756 11.216756C 30.685532 11.78798 30.669283 12.708981 31.220001 13.3ZM 30.780001 23.24C 31.010393 23.247066 31.238419 23.191788 31.439999 23.08L 33.440002 22.08C 34.177261 21.713037 34.480789 20.820301 34.120003 20.08C 33.745495 19.351425 32.860985 19.05069 32.119999 19.4L 30.120001 20.4C 29.390284 20.774174 29.09631 21.665005 29.460001 22.400002C 29.703936 22.908701 30.215864 23.234474 30.780001 23.240002ZM 32 31.76C 32 30.931574 31.328428 30.26 30.5 30.26L 19.5 30.26C 18.671574 30.26 18 30.931574 18 31.76C 18 32.588428 18.671574 33.260002 19.5 33.260002L 30.5 33.260002C 31.323923 33.249229 31.989227 32.583923 32 31.76ZM 19.5 37.260002C 18.671574 37.260002 18 37.931572 18 38.760002C 18 39.588428 18.671574 40.260002 19.5 40.260002L 25.5 40.260002C 26.328428 40.260002 27 39.588428 27 38.760002C 27 37.931572 26.328428 37.260002 25.5 37.260002Z"/>
      </g>
    </g>
  </g>
  <g id="g-root-ic_prin_vcc66h1brxnnw-stroke-fill" data-item-order="-2304" transform="translate(292.5260009765625, 191)">
    <g id="ic_prin_vcc66h1brxnnw-fill" stroke="none" fill="#f4f4f4">
      <g>
        <path d="M 56 10L 12 10C 10.895431 10 10 10.895431 10 12L 10 56C 10 57.104568 10.895431 58 12 58L 56 58C 57.104568 58 58 57.104568 58 56L 58 12C 58 10.895431 57.104568 10 56 10ZM 19.5 37C 19.525181 36.61293 19.705452 36.252388 20 36L 48 36C 48.276142 36 48.5 36.223858 48.5 36.5L 48.5 52.5C 48.5 52.776142 48.276142 53 48 53L 20 53C 19.723858 53 19.5 52.776142 19.5 52.5ZM 48.5 31C 48.5 31.276142 48.276142 31.5 48 31.5L 20 31.5C 19.723858 31.5 19.5 31.276142 19.5 31L 19.5 15.5C 19.5 15.223858 19.723858 15 20 15L 48 15C 48.276142 15 48.5 15.223858 48.5 15.5Z"/>
      </g>
    </g>
  </g>
  <g id="g-root-tx_understa_hs4xft1bsint5-stroke-fill" data-item-order="0" transform="translate(212, 50)">
    <g id="tx_understa_hs4xft1bsint5-fill" stroke="none" fill="#f4f4f4">
      <g>
        <text style="font: 20px Roboto, sans-serif; white-space: pre;" font-size="20px" font-family="Roboto, sans-serif">
          <tspan x="17.37" y="34" dominant-baseline="ideographic">Understanding the Montana Film UFO</tspan>
        </text>
      </g>
    </g>
  </g>
  <g id="g-root-tx_missingf_1q7l0091bs1tdx-stroke-fill" data-item-order="0" transform="translate(490.0539855957031, 130.6490020751953)">
    <g id="tx_missingf_1q7l0091bs1tdx-fill" stroke="none" fill="#fb6762">
      <g>
        <text style="font: bold 20px Roboto, sans-serif; white-space: pre;" font-weight="bold" font-size="20px" font-family="Roboto, sans-serif">
          <tspan x="12" y="34" dominant-baseline="ideographic">Missing Frames </tspan>
          <tspan x="12" y="58" dominant-baseline="ideographic">Controversy</tspan>
        </text>
      </g>
    </g>
  </g>
  <g id="g-root-tx_investig_1lt0g211bs1vke-stroke-fill" data-item-order="0" transform="translate(490.0539855957031, 190.6490020751953)">
    <g id="tx_investig_1lt0g211bs1vke-fill" stroke="none" fill="#ffe9e8">
      <g>
        <text style="font: 15px Roboto, sans-serif; white-space: pre;" font-size="15px" font-family="Roboto, sans-serif">
          <tspan x="12" y="28" dominant-baseline="ideographic">Investigating potential removal of </tspan>
          <tspan x="12" y="46" dominant-baseline="ideographic">film frames</tspan>
        </text>
      </g>
    </g>
  </g>
  <g id="g-root-tx_technica_hvvv491bs1tzj-stroke-fill" data-item-order="0" transform="translate(490.0539855957031, 250.6490020751953)">
    <g id="tx_technica_hvvv491bs1tzj-fill" stroke="none" fill="#43dd93">
      <g>
        <text style="font: bold 20px Roboto, sans-serif; white-space: pre;" font-weight="bold" font-size="20px" font-family="Roboto, sans-serif">
          <tspan x="12" y="34" dominant-baseline="ideographic">Technical Reanalysis</tspan>
        </text>
      </g>
    </g>
  </g>
  <g id="g-root-tx_usingmod_908uvd1bs1vk0-stroke-fill" data-item-order="0" transform="translate(490.0539855957031, 286.64898681640625)">
    <g id="tx_usingmod_908uvd1bs1vk0-fill" stroke="none" fill="#dffff0">
      <g>
        <text style="font: 15px Roboto, sans-serif; white-space: pre;" font-size="15px" font-family="Roboto, sans-serif">
          <tspan x="12" y="28" dominant-baseline="ideographic">Using modern techniques to </tspan>
          <tspan x="12" y="46" dominant-baseline="ideographic">analyze the film</tspan>
        </text>
      </g>
    </g>
  </g>
  <g id="g-root-tx_contextu_1luvvbd1bs1ukp-stroke-fill" data-item-order="0" transform="translate(490.0539855957031, 346.64898681640625)">
    <g id="tx_contextu_1luvvbd1bs1ukp-fill" stroke="none" fill="#a6da37">
      <g>
        <text style="font: bold 20px Roboto, sans-serif; white-space: pre;" font-weight="bold" font-size="20px" font-family="Roboto, sans-serif">
          <tspan x="12" y="34" dominant-baseline="ideographic">Contextual Investigation</tspan>
        </text>
      </g>
    </g>
  </g>
  <g id="g-root-tx_research_18k1u151bs1szu-stroke-fill" data-item-order="0" transform="translate(490.0539855957031, 382.64898681640625)">
    <g id="tx_research_18k1u151bs1szu-fill" stroke="none" fill="#f2ffd7">
      <g>
        <text style="font: 15px Roboto, sans-serif; white-space: pre;" font-size="15px" font-family="Roboto, sans-serif">
          <tspan x="12" y="28" dominant-baseline="ideographic">Researching historical and </tspan>
          <tspan x="12" y="46" dominant-baseline="ideographic">environmental context</tspan>
        </text>
      </g>
    </g>
  </g>
</svg>
