<?xml version='1.0' encoding='utf-8'?>
<svg xmlns="http://www.w3.org/2000/svg" xmlns:xlink="http://www.w3.org/1999/xlink" width="1032" height="708" viewBox="0 0 1032 708" style="fill:none;stroke:none;fill-rule:evenodd;clip-rule:evenodd;stroke-linecap:round;stroke-linejoin:round;stroke-miterlimit:1.5;" version="1.1">
  <style class="text-font-style fontImports" data-font-family="Roboto">@import url('https://fonts.googleapis.com/css2?family=Roboto:wght@400;700&amp;display=block');</style>
  <rect x="0" y="0" width="1032" height="708" fill="#252a34" stroke="none" id="programmatic_background"/>
  <g id="g-root-tf_58od51b841dz-stroke-fill" data-item-order="-689472" transform="translate(12, 12)"/>
  <g id="g-root-sy_4_cu_1q7l9i11b8gnpr-stroke-fill" data-item-order="-317369" transform="translate(602, 386)">
    <g id="sy_4_cu_1q7l9i11b8gnpr-stroke" fill="none" stroke-linecap="round" stroke-linejoin="round" stroke-miterlimit="4" stroke="#4f91fc" stroke-width="2">
      <g>
        <path d="M 33.850586 154.000488L 45.850586 154.000488M 58.200195 70L 70.200195 70M 87.9997 10L 21.9997 238L 10 238"/>
      </g>
    </g>
  </g>
  <g id="g-root-sy_3_cu_1lrrrdl1b8goi0-stroke-fill" data-item-order="-317365" transform="translate(602, 158.00048828125)">
    <g id="sy_3_cu_1lrrrdl1b8goi0-stroke" fill="none" stroke-linecap="round" stroke-linejoin="round" stroke-miterlimit="4" stroke="#fb6762" stroke-width="2">
      <g>
        <path d="M 33.84668 93.999512L 45.84668 93.999512M 58.195313 177.999512L 70.195313 177.999512M 87.9997 238L 21.9997 10L 10 10"/>
      </g>
    </g>
  </g>
  <g id="g-root-sy_2_cu_1hby9951b8gpa9-stroke-fill" data-item-order="-317361" transform="translate(290, 385.99951171875)">
    <g id="sy_2_cu_1hby9951b8gpa9-stroke" fill="none" stroke-linecap="round" stroke-linejoin="round" stroke-miterlimit="4" stroke="#b7b7b7" stroke-width="2">
      <g>
        <path d="M 33.851563 154.000488L 45.851563 154.000488M 58.200195 70.000488L 70.200195 70.000488M 87.9997 10L 21.9997 238L 10 238"/>
      </g>
    </g>
  </g>
  <g id="g-root-sy_1_cu_18gb9091b8gq2y-stroke-fill" data-item-order="-317357" transform="translate(290, 158.00048828125)">
    <g id="sy_1_cu_18gb9091b8gq2y-stroke" fill="none" stroke-linecap="round" stroke-linejoin="round" stroke-miterlimit="4" stroke="#b7b7b7" stroke-width="2">
      <g>
        <path d="M 33.851563 93.999512L 45.851563 93.999512M 58.200195 177.999512L 70.200195 177.999512M 87.9997 238L 21.9997 10L 10 10"/>
      </g>
    </g>
  </g>
  <g id="g-root-sy_-1_line_14147yx1b8gnpf-stroke-fill" data-item-order="-317351" transform="translate(26, 386)">
    <g id="sy_-1_line_14147yx1b8gnpf-stroke" fill="none" stroke-linecap="round" stroke-linejoin="round" stroke-miterlimit="4" stroke="#f4f4f4" stroke-width="2">
      <g>
        <path d="M 704 10L 10 10"/>
        <path d="M 698 16.5L 704.5 10L 698 3.5" stroke-dasharray="none"/>
      </g>
    </g>
  </g>
  <g id="g-root-tx_unresolv_v5h7q11b8goi4-stroke-fill" data-item-order="0" transform="translate(794, 362)">
    <g id="tx_unresolv_v5h7q11b8goi4-fill" stroke="none" fill="#f4f4f4">
      <g>
        <text style="font: 20px Roboto, sans-serif; white-space: pre;" font-size="20px" font-family="Roboto, sans-serif">
          <tspan x="12" y="34" dominant-baseline="ideographic">Unresolved Falkville </tspan>
          <tspan x="12" y="58" dominant-baseline="ideographic">Metal Man Incident</tspan>
        </text>
      </g>
    </g>
  </g>
  <g id="g-root-tx_initialr_hu0pcp1b8gq31-stroke-fill" data-item-order="0" transform="translate(482, 434)">
    <g id="tx_initialr_hu0pcp1b8gq31-fill" stroke="none" fill="#f4f4f4">
      <g>
        <text style="font: 20px Roboto, sans-serif; white-space: pre;" font-size="20px" font-family="Roboto, sans-serif">
          <tspan x="21.44" y="34" dominant-baseline="ideographic">Initial Reception</tspan>
        </text>
      </g>
    </g>
  </g>
  <g id="g-root-tx_communit_detobd1b8gnpi-stroke-fill" data-item-order="0" transform="translate(494, 506)">
    <g id="tx_communit_detobd1b8gnpi-fill" stroke="none" fill="#f4f4f4">
      <g>
        <text style="font: 20px Roboto, sans-serif; white-space: pre;" font-size="20px" font-family="Roboto, sans-serif">
          <tspan x="25.55" y="34" dominant-baseline="ideographic">Community </tspan>
          <tspan x="22.45" y="58" dominant-baseline="ideographic">Interactions</tspan>
        </text>
      </g>
    </g>
  </g>
  <g id="g-root-tx_contempo_4j6o2h1b8goi7-stroke-fill" data-item-order="0" transform="translate(422, 590)">
    <g id="tx_contempo_4j6o2h1b8goi7-fill" stroke="none" fill="#f4f4f4">
      <g>
        <text style="font: 20px Roboto, sans-serif; white-space: pre;" font-size="20px" font-family="Roboto, sans-serif">
          <tspan x="13.52" y="34" dominant-baseline="ideographic">Contemporary </tspan>
          <tspan x="47.63" y="58" dominant-baseline="ideographic">Witnesses</tspan>
        </text>
      </g>
    </g>
  </g>
  <g id="g-root-tx_connecti_1uonpsp1b8gpvk-stroke-fill" data-item-order="0" transform="translate(446, 314)">
    <g id="tx_connecti_1uonpsp1b8gpvk-fill" stroke="none" fill="#f4f4f4">
      <g>
        <text style="font: 20px Roboto, sans-serif; white-space: pre;" font-size="20px" font-family="Roboto, sans-serif">
          <tspan x="11.5" y="34" dominant-baseline="ideographic">Connection to Report</tspan>
        </text>
      </g>
    </g>
  </g>
  <g id="g-root-tx_firedeta_1hdtoih1b8goap-stroke-fill" data-item-order="0" transform="translate(506, 230)">
    <g id="tx_firedeta_1hdtoih1b8goap-fill" stroke="none" fill="#f4f4f4">
      <g>
        <text style="font: 20px Roboto, sans-serif; white-space: pre;" font-size="20px" font-family="Roboto, sans-serif">
          <tspan x="16.72" y="34" dominant-baseline="ideographic">Fire Details</tspan>
        </text>
      </g>
    </g>
  </g>
  <g id="g-root-tx_fireinve_18i6o9l1b8gp3e-stroke-fill" data-item-order="0" transform="translate(398, 146)">
    <g id="tx_fireinve_18i6o9l1b8gp3e-fill" stroke="none" fill="#f4f4f4">
      <g>
        <text style="font: 20px Roboto, sans-serif; white-space: pre;" font-size="20px" font-family="Roboto, sans-serif">
          <tspan x="11.58" y="34" dominant-baseline="ideographic">Fire Investigation</tspan>
        </text>
      </g>
    </g>
  </g>
  <g id="g-root-tx_lackofco_v6q5w91b8gqob-stroke-fill" data-item-order="0" transform="translate(182, 434)">
    <g id="tx_lackofco_v6q5w91b8gqob-fill" stroke="none" fill="#f4f4f4">
      <g>
        <text style="font: 20px Roboto, sans-serif; white-space: pre;" font-size="20px" font-family="Roboto, sans-serif">
          <tspan x="20.02" y="34" dominant-baseline="ideographic">Lack of Copies</tspan>
        </text>
      </g>
    </g>
  </g>
  <g id="g-root-tx_theftofo_qrj4ux1b8goas-stroke-fill" data-item-order="0" transform="translate(134, 518)">
    <g id="tx_theftofo_qrj4ux1b8goas-fill" stroke="none" fill="#f4f4f4">
      <g>
        <text style="font: 20px Roboto, sans-serif; white-space: pre;" font-size="20px" font-family="Roboto, sans-serif">
          <tspan x="22.06" y="34" dominant-baseline="ideographic">Theft of Originals</tspan>
        </text>
      </g>
    </g>
  </g>
  <g id="g-root-tx_missingp_hvw4m11b8gp3h-stroke-fill" data-item-order="0" transform="translate(38, 602)">
    <g id="tx_missingp_hvw4m11b8gp3h-fill" stroke="none" fill="#f4f4f4">
      <g>
        <text style="font: 20px Roboto, sans-serif; white-space: pre;" font-size="20px" font-family="Roboto, sans-serif">
          <tspan x="23.06" y="34" dominant-baseline="ideographic">Missing Photographs</tspan>
        </text>
      </g>
    </g>
  </g>
  <g id="g-root-tx_motivati_dg2mhl1b8gpvq-stroke-fill" data-item-order="0" transform="translate(206, 314)">
    <g id="tx_motivati_dg2mhl1b8gpvq-fill" stroke="none" fill="#f4f4f4">
      <g>
        <text style="font: 20px Roboto, sans-serif; white-space: pre;" font-size="20px" font-family="Roboto, sans-serif">
          <tspan x="23.13" y="34" dominant-baseline="ideographic">Motivations</tspan>
        </text>
      </g>
    </g>
  </g>
  <g id="g-root-tx_unknowni_4kfm8p1b8gqof-stroke-fill" data-item-order="0" transform="translate(134, 230)">
    <g id="tx_unknowni_4kfm8p1b8gqof-fill" stroke="none" fill="#f4f4f4">
      <g>
        <text style="font: 20px Roboto, sans-serif; white-space: pre;" font-size="20px" font-family="Roboto, sans-serif">
          <tspan x="22.58" y="34" dominant-baseline="ideographic">Unknown Identity</tspan>
        </text>
      </g>
    </g>
  </g>
  <g id="g-root-tx_anonymou_1uqj5211b8gow0-stroke-fill" data-item-order="0" transform="translate(74, 146)">
    <g id="tx_anonymou_1uqj5211b8gow0-fill" stroke="none" fill="#f4f4f4">
      <g>
        <text style="font: 20px Roboto, sans-serif; white-space: pre;" font-size="20px" font-family="Roboto, sans-serif">
          <tspan x="13.73" y="34" dominant-baseline="ideographic">Anonymous Caller</tspan>
        </text>
      </g>
    </g>
  </g>
  <g id="g-root-tx_unraveli_1hf2mop1b8gqgx-stroke-fill" data-item-order="0" transform="translate(326, 50)">
    <g id="tx_unraveli_1hf2mop1b8gqgx-fill" stroke="none" fill="#f4f4f4">
      <g>
        <text style="font: 20px Roboto, sans-serif; white-space: pre;" font-size="20px" font-family="Roboto, sans-serif">
          <tspan x="12.84" y="34" dominant-baseline="ideographic">Unraveling the Falkville Metal Man Mystery</tspan>
        </text>
      </g>
    </g>
    <defs>
      <pattern id="crawlingPattern-0000001b" x="0" y="0" width="12" height="12" patternUnits="userSpaceOnUse" fill="#0000001b">
        <use href="#crawlingSymbol"/>
      </pattern>
      <symbol id="crawlingSymbol">
        <g>
          <path d="M -12.5 12.5 l 13 -13 l 6 0 l -13 13 Z M -0.5 12.5 l 13 -13 l 6 0 l -13 13 Z M 11.5 12.5 l 13 -13 l 6 0 l -13 13 Z"/>
        </g>
      </symbol>
    </defs>
  </g>
  <g id="g-root-ic_user_18k23ix1b8go3u-stroke-fill" data-item-order="0" transform="translate(254, 140)">
    <g id="ic_user_18k23ix1b8go3u-stroke" fill="none" stroke-linecap="round" stroke-linejoin="round" stroke-miterlimit="4" stroke="#f4f4f4" stroke-width="2">
      <g>
        <path d="M 10.75 36.260498L 10.75 13.7605M 13.75 19.75L 13.75 30.2605M 16.75 18.25L 16.75 31.7605M 19.75 16.75L 19.75 33.260498M 22.75 15.25L 22.75 34.760498M 40.75 26.213501L 40.75 13.7605M 37.75 19.75L 37.75 25.747M 34.75 18.25L 34.75 25.775501M 31.75 16.75L 31.75 28.75M 28.75 15.25L 28.75 34.760498M 25.75 10.7605L 25.75 39.260498M 31.75 45.25C 31.75 41.522079 34.772079 38.5 38.5 38.5C 42.227921 38.5 45.25 41.522079 45.25 45.25ZM 34.957001 30.793001C 36.933083 32.829624 39.959568 33.438499 42.5695 32.324501M 34.375 32.875C 34.375 35.153175 36.221828 37 38.5 37C 40.778175 37 42.625 35.153175 42.625 32.875C 42.625 30.596827 40.778175 28.75 38.5 28.75C 36.221828 28.75 34.375 30.596827 34.375 32.875"/>
      </g>
    </g>
  </g>
  <g id="g-root-ic_phot_1448leh1b8i29v-stroke-fill" data-item-order="0" transform="translate(254, 596)">
    <g id="ic_phot_1448leh1b8i29v-stroke" fill="none" stroke-linecap="round" stroke-linejoin="round" stroke-miterlimit="4" stroke="#f4f4f4" stroke-width="2">
      <g>
        <path d="M 10.75 28C 10.75 37.526913 18.473087 45.25 28 45.25C 37.526913 45.25 45.25 37.526913 45.25 28C 45.25 18.473087 37.526913 10.75 28 10.75C 18.473087 10.75 10.75 18.473087 10.75 28ZM 19.6525 19.6525L 15.802 15.802M 40.196503 40.196503L 36.932499 36.933998M 36.25 33.25C 36.25 34.078426 35.578426 34.75 34.75 34.75L 19.75 34.75C 18.921574 34.75 18.25 34.078426 18.25 33.25L 18.25 24.25C 18.25 23.421572 18.921574 22.75 19.75 22.75L 25.285 22.75C 25.567295 22.750282 25.825836 22.592026 25.953999 22.3405C 26.278 21.702999 26.596001 21.25 27.427 21.25L 30.821499 21.25C 31.653999 21.25 31.970501 21.700001 32.296001 22.3405C 32.424164 22.592026 32.682705 22.750282 32.965 22.75L 34.75 22.75C 35.578426 22.75 36.25 23.421572 36.25 24.25ZM 25.75 28.75C 25.75 30.406855 27.093145 31.75 28.75 31.75C 30.406855 31.75 31.75 30.406855 31.75 28.75C 31.75 27.093145 30.406855 25.75 28.75 25.75C 27.093145 25.75 25.75 27.093145 25.75 28.75ZM 22.75 21.25L 22.75 22.75"/>
      </g>
    </g>
  </g>
  <g id="g-root-ic_exit_qss3151b8jh8k-stroke-fill" data-item-order="0" transform="translate(566, 140)">
    <g id="ic_exit_qss3151b8jh8k-stroke" fill="none" stroke-linecap="round" stroke-linejoin="round" stroke-miterlimit="4" stroke="#f4f4f4" stroke-width="2">
      <g>
        <path d="M 45.235001 13C 43.870651 11.958212 42.301262 11.216971 40.629997 10.825C 40.487762 10.805355 40.346237 10.865454 40.2616 10.98144C 40.176964 11.097425 40.162903 11.250538 40.224998 11.38C 41.56675 14.144577 41.482853 17.388474 40 20.08C 39.270466 19.235088 38.701149 18.2642 38.32 17.215C 38.287205 17.091101 38.191017 16.993979 38.067436 16.959993C 37.943859 16.92601 37.811531 16.960291 37.720001 17.049999C 34.932358 19.687479 34.033642 23.757601 35.451485 27.323687C 36.869324 30.889772 40.317394 33.231655 44.154999 33.235001C 44.5312 33.233536 44.906937 33.208488 45.279999 33.16M 45.235001 26.664999C 45.081215 26.836178 44.915825 26.996555 44.739998 27.144999C 43.937721 25.655159 44.134418 23.8253 45.235001 22.540001L 45.235001 22.24C 42.236786 23.227915 40.198921 26.013405 40.165001 29.17C 40.140862 30.234558 40.544857 31.264294 41.286442 32.028439C 42.028027 32.79258 43.045197 33.227238 44.110001 33.235001M 13.015 17.424999C 13.015 19.496067 14.693933 21.175001 16.764999 21.175001C 18.836067 21.175001 20.514999 19.496067 20.514999 17.425001C 20.514999 15.353932 18.836067 13.675 16.764999 13.675C 14.693933 13.675 13.015 15.353932 13.015 17.425001M 25.135 27.369999C 26.178242 27.704144 27.019089 28.484539 27.43 29.5C 27.685993 30.136053 28.218035 30.620674 28.875154 30.816349C 29.532274 31.012024 30.242758 30.8974 30.805 30.505001C 31.674995 29.856901 31.985447 28.69581 31.555 27.700001C 30.291803 24.668079 27.339455 22.684099 24.055 22.66L 22.825001 22.66C 20.643295 22.657784 18.596298 23.714842 17.334999 25.494999C 15.445 28.150002 14.395 28 13 28C 11.75736 28 10.75 29.00736 10.75 30.25C 10.75 31.492641 11.75736 32.5 13 32.5C 15.96336 32.724697 18.821772 31.352659 20.5 28.900002L 20.5 28.900002C 21.832121 30.522783 21.794037 32.871262 20.41 34.449997L 19.525 35.454998C 18.713421 36.404034 18.266689 37.611271 18.264999 38.860001L 18.264999 43C 18.264999 44.242641 19.27236 45.25 20.514999 45.25C 21.757641 45.25 22.764999 44.242641 22.764999 43L 22.764999 39.084999C 22.778938 38.849556 22.9007 38.633701 23.094999 38.5C 23.311346 38.38792 23.568655 38.38792 23.785 38.5L 26.514999 39.579998C 26.828104 39.733414 27.171364 39.815384 27.52 39.82C 28.61412 39.884491 29.595528 39.151234 29.843872 38.083721C 30.092216 37.016212 29.535236 35.925064 28.525002 35.5L 26.17 34.689999L 26.799999 33.985001"/>
      </g>
    </g>
  </g>
  <g id="g-root-ic_conv_1qbc76h1b7yhal-stroke-fill" data-item-order="0" transform="translate(566, 596)">
    <g id="ic_conv_1qbc76h1b7yhal-stroke" fill="none" stroke-linecap="round" stroke-linejoin="round" stroke-miterlimit="4" stroke="#f4f4f4" stroke-width="2">
      <g>
        <path d="M 40.720001 15.838C 41.03186 16.244585 41.03186 16.809914 40.720001 17.216499C 39.550003 18.747999 36.34 22.299999 31.711 22.299999C 27.081999 22.299999 23.870499 18.7465 22.702 17.215C 22.389864 16.809067 22.389864 16.243935 22.702 15.838C 23.870499 14.305 27.081999 10.75 31.711 10.75C 36.34 10.75 39.550003 14.3065 40.720001 15.838ZM 31.711 13.9735C 33.119328 13.9735 34.261002 15.115174 34.261002 16.5235C 34.261002 17.931826 33.119328 19.0735 31.711002 19.0735C 30.302675 19.0735 29.161001 17.931826 29.161001 16.5235C 29.161001 15.115174 30.302675 13.9735 31.711002 13.9735M 12.7675 33.695499C 12.767087 36.248177 14.836324 38.317749 17.389 38.317749C 19.941677 38.317749 22.010914 36.248177 22.0105 33.695499C 22.010914 31.142824 19.941677 29.073252 17.389 29.073252C 14.836324 29.073252 12.767087 31.142824 12.7675 33.695499M 23.897501 45.25C 22.924772 42.489662 20.316463 40.643291 17.38975 40.643291C 14.463037 40.643291 11.854726 42.489662 10.882 45.249996M 42.449501 31.909C 43.352097 34.071388 42.494118 36.567093 40.45269 37.717384C 38.411255 38.867676 35.832066 38.30872 34.449997 36.4165M 44.693501 45.25C 43.720772 42.489662 41.112465 40.643291 38.185749 40.643291C 35.259037 40.643291 32.650726 42.489662 31.677999 45.249996M 42.807999 10.75C 44.084362 10.75 45.118828 11.785136 45.117996 13.0615L 45.118 23.844999C 45.117996 25.120777 44.083775 26.154999 42.807999 26.154999L 35.875 26.155001L 28.943501 33.088001L 28.943501 26.155001L 20.543499 26.155001C 19.267721 26.154999 18.2335 25.120777 18.2335 23.844999L 18.2335 13.0615C 18.23267 11.785722 19.266222 10.750828 20.542 10.75M 14.0365 30.518499C 16.039194 32.784061 18.998276 33.964691 22.0105 33.699997"/>
      </g>
    </g>
  </g>
  <g id="g-root-ic_ufo_142zqe11b7zvnq-stroke-fill" data-item-order="0" transform="translate(734, 362)">
    <g id="ic_ufo_142zqe11b7zvnq-stroke" fill="none" stroke-linecap="round" stroke-linejoin="round" stroke-miterlimit="4" stroke="#f4f4f4" stroke-width="2">
      <g>
        <path d="M 49 22.5C 52.977859 22.499041 56.352161 25.420879 56.919998 29.358C 56.961449 29.646814 56.874687 29.939325 56.682472 30.158836C 56.490257 30.378345 56.211758 30.502958 55.919998 30.5L 12.07 30.5C 11.778242 30.502958 11.499743 30.378345 11.307528 30.158836C 11.115312 29.939325 11.028553 29.646814 11.07 29.358C 11.638377 25.417118 15.018346 22.494064 19 22.5ZM 19 22.5C 19 17.5 25.716 11.5 34 11.5C 42.284 11.5 49 17.5 49 22.5M 47.77 39.5L 52.995998 56.5M 14.996 56.5L 20.232 39.5M 34.996002 49.5L 31.996 53.652M 37.996002 53.5L 34.996002 49.5M 31.996 46.5L 37.996002 46.5M 35 41.5C 35.552284 41.5 36 41.947716 36 42.5M 34 42.5C 34 41.947716 34.447716 41.5 35 41.5M 35 43.5C 34.447716 43.5 34 43.052284 34 42.5M 36 42.5C 36 43.052284 35.552284 43.5 35 43.5M 34.996002 49.5L 34.996002 46.5M 25 30.5C 25 33.261421 22.761425 35.5 20 35.5C 17.238577 35.5 15 33.261421 15 30.5M 39 30.5C 39 33.261421 36.761425 35.5 34 35.5C 31.238577 35.5 29 33.261421 29 30.5M 53 30.5C 53 33.261421 50.761425 35.5 48 35.5C 45.238575 35.5 43 33.261421 43 30.5"/>
      </g>
    </g>
  </g>
</svg>
