<?xml version='1.0' encoding='utf-8'?>
<svg xmlns="http://www.w3.org/2000/svg" xmlns:xlink="http://www.w3.org/1999/xlink" width="720" height="588" viewBox="0 0 720 588" style="fill:none;stroke:none;fill-rule:evenodd;clip-rule:evenodd;stroke-linecap:round;stroke-linejoin:round;stroke-miterlimit:1.5;" version="1.1">
  <style class="text-font-style fontImports" data-font-family="Roboto">@import url('https://fonts.googleapis.com/css2?family=Roboto:wght@400;700&amp;display=block');</style>
  <rect x="0" y="0" width="7.2E+2" height="588" fill="#252a34" stroke="none" id="programmatic_background"/>
  <g id="g-root-tf_zmkmt51cchwqz-stroke-fill" data-item-order="-396024" transform="translate(12, 12)"/>
  <g id="g-root-sy_-1_Vector_zjg9dl1cchvkc-stroke-fill" data-item-order="-10255" transform="translate(230, 149)">
    <g id="sy_-1_Vector_zjg9dl1cchvkc-stroke" fill="none" stroke-linecap="round" stroke-linejoin="round" stroke-miterlimit="4" stroke="#f4f4f4" stroke-width="2">
      <g>
        <path d="M 10 292L 10 202M 10 196L 10 106M 10 100L 10 10"/>
      </g>
    </g>
  </g>
  <g id="g-root-sy_-1_line_zjg9dl1cchvkd-stroke-fill" data-item-order="-10251" transform="translate(230, 437)">
    <g id="sy_-1_line_zjg9dl1cchvkd-stroke" fill="none" stroke-linecap="round" stroke-linejoin="round" stroke-miterlimit="4" stroke="#f4f4f4" stroke-width="2">
      <g>
        <path d="M 10 94L 10 10"/>
        <path d="M 3.5 88L 10 94.5L 16.5 88" stroke-dasharray="none"/>
      </g>
    </g>
  </g>
  <g id="g-root-sy_4_cu_v3mr951cchwcm-stroke-fill" data-item-order="-10248" transform="translate(227, 431)">
    <g id="sy_4_cu_v3mr951cchwcm-fill" stroke="none" fill="none">
      <g>
        <path d="M 13 10L 13 10C 13 10 16 10 16 13L 16 13C 16 13 16 16 13 16L 13 16C 13 16 10 16 10 13L 10 13C 10 13 10 10 13 10"/>
      </g>
    </g>
    <g id="sy_4_cu_v3mr951cchwcm-stroke" fill="none" stroke-linecap="round" stroke-linejoin="round" stroke-miterlimit="4" stroke="#f79438" stroke-width="2">
      <g>
        <path d="M 13 10L 13 10C 13 10 16 10 16 13L 16 13C 16 13 16 16 13 16L 13 16C 13 16 10 16 10 13L 10 13C 10 13 10 10 13 10"/>
      </g>
    </g>
    <g id="sy_4_cu_v3mr951cchwcm-stroke" fill="none" stroke-linecap="round" stroke-linejoin="round" stroke-miterlimit="4" stroke="#f79438" stroke-width="2">
      <g>
        <path d="M 37 13L 16 13"/>
      </g>
    </g>
  </g>
  <g id="g-root-sy_3_cu_m7zr091cchx5b-stroke-fill" data-item-order="-10244" transform="translate(227, 335)">
    <g id="sy_3_cu_m7zr091cchx5b-fill" stroke="none" fill="none">
      <g>
        <path d="M 13 10L 13 10C 13 10 16 10 16 13L 16 13C 16 13 16 16 13 16L 13 16C 13 16 10 16 10 13L 10 13C 10 13 10 10 13 10"/>
      </g>
    </g>
    <g id="sy_3_cu_m7zr091cchx5b-stroke" fill="none" stroke-linecap="round" stroke-linejoin="round" stroke-miterlimit="4" stroke="#f366bb" stroke-width="2">
      <g>
        <path d="M 13 10L 13 10C 13 10 16 10 16 13L 16 13C 16 13 16 16 13 16L 13 16C 13 16 10 16 10 13L 10 13C 10 13 10 10 13 10"/>
      </g>
    </g>
    <g id="sy_3_cu_m7zr091cchx5b-stroke" fill="none" stroke-linecap="round" stroke-linejoin="round" stroke-miterlimit="4" stroke="#f366bb" stroke-width="2">
      <g>
        <path d="M 37 13L 16 13"/>
      </g>
    </g>
  </g>
  <g id="g-root-sy_2_cu_hsspyx1cchurs-stroke-fill" data-item-order="-10240" transform="translate(227, 239)">
    <g id="sy_2_cu_hsspyx1cchurs-fill" stroke="none" fill="none">
      <g>
        <path d="M 13 10L 13 10C 13 10 16 10 16 13L 16 13C 16 13 16 16 13 16L 13 16C 13 16 10 16 10 13L 10 13C 10 13 10 10 13 10"/>
      </g>
    </g>
    <g id="sy_2_cu_hsspyx1cchurs-stroke" fill="none" stroke-linecap="round" stroke-linejoin="round" stroke-miterlimit="4" stroke="#fb6762" stroke-width="2">
      <g>
        <path d="M 13 10L 13 10C 13 10 16 10 16 13L 16 13C 16 13 16 16 13 16L 13 16C 13 16 10 16 10 13L 10 13C 10 13 10 10 13 10"/>
      </g>
    </g>
    <g id="sy_2_cu_hsspyx1cchurs-stroke" fill="none" stroke-linecap="round" stroke-linejoin="round" stroke-miterlimit="4" stroke="#fb6762" stroke-width="2">
      <g>
        <path d="M 37 13L 16 13"/>
      </g>
    </g>
  </g>
  <g id="g-root-sy_1_cu_dcz7uh1cchvk1-stroke-fill" data-item-order="-10236" transform="translate(227, 143)">
    <g id="sy_1_cu_dcz7uh1cchvk1-fill" stroke="none" fill="none">
      <g>
        <path d="M 13 10L 13 10C 13 10 16 10 16 13L 16 13C 16 13 16 16 13 16L 13 16C 13 16 10 16 10 13L 10 13C 10 13 10 10 13 10"/>
      </g>
    </g>
    <g id="sy_1_cu_dcz7uh1cchvk1-stroke" fill="none" stroke-linecap="round" stroke-linejoin="round" stroke-miterlimit="4" stroke="#4f91fc" stroke-width="2">
      <g>
        <path d="M 13 10L 13 10C 13 10 16 10 16 13L 16 13C 16 13 16 16 13 16L 13 16C 13 16 10 16 10 13L 10 13C 10 13 10 10 13 10"/>
      </g>
    </g>
    <g id="sy_1_cu_dcz7uh1cchvk1-stroke" fill="none" stroke-linecap="round" stroke-linejoin="round" stroke-miterlimit="4" stroke="#4f91fc" stroke-width="2">
      <g>
        <path d="M 37 13L 16 13"/>
      </g>
    </g>
  </g>
  <g id="g-root-tx_theexete_4hc7ll1cchwcq-stroke-fill" data-item-order="0" transform="translate(152, 50)">
    <g id="tx_theexete_4hc7ll1cchwcq-fill" stroke="none" fill="#f4f4f4">
      <g>
        <text style="font: 20px Roboto, sans-serif; white-space: pre;" font-size="20px" font-family="Roboto, sans-serif">
          <tspan x="15.2" y="34" dominant-baseline="ideographic">The Exeter Incident: A Timeline of Events</tspan>
        </text>
      </g>
    </g>
  </g>
  <g id="g-root-tx_officers_1iph51cchx4z-stroke-fill" data-item-order="0" transform="translate(278, 410)">
    <g id="tx_officers_1iph51cchx4z-fill" stroke="none" fill="#f4f4f4">
      <g>
        <text style="font: 20px Roboto, sans-serif; white-space: pre;" font-size="20px" font-family="Roboto, sans-serif">
          <tspan x="12" y="34" dominant-baseline="ideographic">Officers Bertrand and Hunt witness the UFO </tspan>
          <tspan x="12" y="58" dominant-baseline="ideographic">with Muscarello</tspan>
        </text>
      </g>
    </g>
  </g>
  <g id="g-root-tx_muscarel_1lrsq611cchvd0-stroke-fill" data-item-order="0" transform="translate(278, 314)">
    <g id="tx_muscarel_1lrsq611cchvd0-fill" stroke="none" fill="#f4f4f4">
      <g>
        <text style="font: 20px Roboto, sans-serif; white-space: pre;" font-size="20px" font-family="Roboto, sans-serif">
          <tspan x="12" y="34" dominant-baseline="ideographic">Muscarello arrives at Exeter police station, </tspan>
          <tspan x="12" y="58" dominant-baseline="ideographic">visibly shaken</tspan>
        </text>
      </g>
    </g>
  </g>
  <g id="g-root-tx_normanmu_18gc7sp1cchwxx-stroke-fill" data-item-order="0" transform="translate(278, 218)">
    <g id="tx_normanmu_18gc7sp1cchwxx-fill" stroke="none" fill="#f4f4f4">
      <g>
        <text style="font: 20px Roboto, sans-serif; white-space: pre;" font-size="20px" font-family="Roboto, sans-serif">
          <tspan x="12" y="34" dominant-baseline="ideographic">Norman Muscarello observes five red lights </tspan>
          <tspan x="12" y="58" dominant-baseline="ideographic">while hitchhiking</tspan>
        </text>
      </g>
    </g>
  </g>
  <g id="g-root-tx_officere_v5i6ih1cchvd2-stroke-fill" data-item-order="0" transform="translate(278, 122)">
    <g id="tx_officere_v5i6ih1cchvd2-fill" stroke="none" fill="#f4f4f4">
      <g>
        <text style="font: 20px Roboto, sans-serif; white-space: pre;" font-size="20px" font-family="Roboto, sans-serif">
          <tspan x="12" y="34" dominant-baseline="ideographic">Officer Eugene Bertrand encounters a </tspan>
          <tspan x="12" y="58" dominant-baseline="ideographic">woman reporting a UFO</tspan>
        </text>
      </g>
    </g>
  </g>
  <g id="g-root-tx_septembe_m9v69l1cchw5r-stroke-fill" data-item-order="0" transform="translate(26, 422)">
    <g id="tx_septembe_m9v69l1cchw5r-fill" stroke="none" fill="#f79438">
      <g>
        <text style="font: bold 20px Roboto, sans-serif; white-space: pre;" font-weight="bold" font-size="20px" font-family="Roboto, sans-serif">
          <tspan x="17.13" y="34" dominant-baseline="ideographic">September 3, 1965</tspan>
        </text>
      </g>
    </g>
  </g>
  <g id="g-root-tx_septembe_deun3t1cchukg-stroke-fill" data-item-order="0" transform="translate(26, 314)">
    <g id="tx_septembe_deun3t1cchukg-fill" stroke="none" fill="#f366bb">
      <g>
        <text style="font: bold 20px Roboto, sans-serif; white-space: pre;" font-weight="bold" font-size="20px" font-family="Roboto, sans-serif">
          <tspan x="12.2" y="34" dominant-baseline="ideographic">September 3, 1965, </tspan>
          <tspan x="112.02" y="58" dominant-baseline="ideographic">2:24 AM</tspan>
        </text>
      </g>
    </g>
  </g>
  <g id="g-root-tx_septembe_4j7mux1cchvd5-stroke-fill" data-item-order="0" transform="translate(26, 218)">
    <g id="tx_septembe_4j7mux1cchvd5-fill" stroke="none" fill="#fb6762">
      <g>
        <text style="font: bold 20px Roboto, sans-serif; white-space: pre;" font-weight="bold" font-size="20px" font-family="Roboto, sans-serif">
          <tspan x="12.2" y="34" dominant-baseline="ideographic">September 3, 1965, </tspan>
          <tspan x="112.02" y="58" dominant-baseline="ideographic">2:00 AM</tspan>
        </text>
      </g>
    </g>
  </g>
  <g id="g-root-tx_septembe_1q8v6gp1cchwqy-stroke-fill" data-item-order="0" transform="translate(26, 122)">
    <g id="tx_septembe_1q8v6gp1cchwqy-fill" stroke="none" fill="#4f91fc">
      <g>
        <text style="font: bold 20px Roboto, sans-serif; white-space: pre;" font-weight="bold" font-size="20px" font-family="Roboto, sans-serif">
          <tspan x="12.2" y="34" dominant-baseline="ideographic">September 3, 1965, </tspan>
          <tspan x="100.55" y="58" dominant-baseline="ideographic">12:30 AM</tspan>
        </text>
      </g>
    </g>
    <defs>
      <pattern id="crawlingPattern-0000001b" x="0" y="0" width="12" height="12" patternUnits="userSpaceOnUse" fill="#0000001b">
        <use href="#crawlingSymbol"/>
      </pattern>
      <symbol id="crawlingSymbol">
        <g>
          <path d="M -12.5 12.5 l 13 -13 l 6 0 l -13 13 Z M -0.5 12.5 l 13 -13 l 6 0 l -13 13 Z M 11.5 12.5 l 13 -13 l 6 0 l -13 13 Z"/>
        </g>
      </symbol>
      <pattern id="crawlingPattern-f17400d3" x="0" y="0" width="12" height="12" patternUnits="userSpaceOnUse" fill="#f17400d3">
        <use href="#crawlingSymbol"/>
      </pattern>
      <pattern id="crawlingPattern-eb008e76" x="0" y="0" width="12" height="12" patternUnits="userSpaceOnUse" fill="#eb008e76">
        <use href="#crawlingSymbol"/>
      </pattern>
      <pattern id="crawlingPattern-f9080081" x="0" y="0" width="12" height="12" patternUnits="userSpaceOnUse" fill="#f9080081">
        <use href="#crawlingSymbol"/>
      </pattern>
      <pattern id="crawlingPattern-0060fba2" x="0" y="0" width="12" height="12" patternUnits="userSpaceOnUse" fill="#0060fba2">
        <use href="#crawlingSymbol"/>
      </pattern>
    </defs>
  </g>
</svg>
