<?xml version='1.0' encoding='utf-8'?>
<svg xmlns="http://www.w3.org/2000/svg" xmlns:xlink="http://www.w3.org/1999/xlink" width="840" height="648" viewBox="0 0 840 648" style="fill:none;stroke:none;fill-rule:evenodd;clip-rule:evenodd;stroke-linecap:round;stroke-linejoin:round;stroke-miterlimit:1.5;" version="1.1">
  <style class="text-font-style fontImports" data-font-family="Roboto">@import url('https://fonts.googleapis.com/css2?family=Roboto:wght@400;700&amp;display=block');</style>
  <rect x="0" y="0" width="8.4E+2" height="648" fill="#252a34" stroke="none" id="programmatic_background"/>
  <g id="g-root-tf_4il5rt1cc6olm-stroke-fill" data-item-order="-501696" transform="translate(18, 12)"/>
  <g id="g-root-cp_0_g-0_1q88pdl1cbzls7-stroke-fill" data-item-order="-399127" transform="translate(56.130859375, 296.5)">
    <g id="cp_0_g-0_1q88pdl1cbzls7-stroke" fill="none" stroke-linecap="round" stroke-linejoin="round" stroke-miterlimit="4" stroke="#d3d3d3" stroke-width="2">
      <g>
        <path d="M 645.869141 51.5L 717.869141 51.5M 106 51L 262 51M 286 51L 442 51M 274 63.5L 274 93M 454 10L 454 39.5M 466 51L 622 51M 634 63.5L 634 93M 10 51L 82 51M 94 10L 94 39.5"/>
      </g>
    </g>
  </g>
  <g id="g-root-cp_1_g-1_1lsf7951cbzmkh-stroke-fill" data-item-order="-399108" transform="translate(95.13101196289062, 173)">
    <g id="cp_1_g-1_1lsf7951cbzmkh-fill" stroke="none" fill="none">
      <g>
        <path d="M 100 55C 100 66.244 94.5 77.5875 89 86L 55.816 132.848C 55.4175 133.411 54.5825 133.411 54.184 132.848L 21 86C 14.5 77 10 66.7284 10 55C 10 30.1472 30.1472 10 55 10C 79.8528 10 100 30.1472 100 55ZM 55 91C 74.8822 91 91 74.8822 91 55C 91 35.1177 74.8822 19 55 19C 35.1177 19 19 35.1177 19 55C 19 74.8822 35.1177 91 55 91Z"/>
      </g>
    </g>
    <g id="cp_1_g-1_1lsf7951cbzmkh-stroke" fill="none" stroke-linecap="round" stroke-linejoin="round" stroke-miterlimit="4" stroke="#4f91fc" stroke-width="2">
      <g>
        <path d="M 100 55C 100 66.244 94.5 77.5875 89 86L 55.816 132.848C 55.4175 133.4106 54.5825 133.4106 54.184 132.848L 21 86C 14.5 77 10 66.7284 10 55C 10 30.1472 30.1472 10 55 10C 79.8528 10 100 30.1472 100 55ZM 55 91C 74.8822 91 91 74.8822 91 55C 91 35.1177 74.8822 19 55 19C 35.1177 19 19 35.1177 19 55C 19 74.8822 35.1177 91 55 91Z"/>
      </g>
    </g>
    <g id="cp_1_g-1_1lsf7951cbzmkh-fill" stroke="none" fill="none">
      <g>
        <path d="M 55 187C 61.6274 187 67 181.6274 67 175C 67 168.3726 61.6274 163 55 163C 48.3726 163 43 168.3726 43 175C 43 181.6274 48.3726 187 55 187ZM 55 181C 58.3137 181 61 178.3137 61 175C 61 171.6863 58.3137 169 55 169C 51.6863 169 49 171.6863 49 175C 49 178.3137 51.6863 181 55 181Z"/>
      </g>
    </g>
    <g id="cp_1_g-1_1lsf7951cbzmkh-stroke" fill="none" stroke-linecap="round" stroke-linejoin="round" stroke-miterlimit="4" stroke="#4f91fc" stroke-width="2">
      <g>
        <path d="M 55 187C 61.6274 187 67 181.6274 67 175C 67 168.3726 61.6274 163 55 163C 48.3726 163 43 168.3726 43 175C 43 181.6274 48.3726 187 55 187ZM 55 181C 58.3137 181 61 178.3137 61 175C 61 171.6863 58.3137 169 55 169C 51.6863 169 49 171.6863 49 175C 49 178.3137 51.6863 181 55 181Z"/>
      </g>
    </g>
  </g>
  <g id="g-root-cp_2_g-2_1cws7091cbznd8-stroke-fill" data-item-order="-399104" transform="translate(275.1309814453125, 326)">
    <g id="cp_2_g-2_1cws7091cbznd8-fill" stroke="none" fill="none">
      <g>
        <path d="M 100 142.000369C 100 130.756469 94.5 119.412869 89 111.000369L 55.816 64.152469C 55.4175 63.589769 54.5825 63.589769 54.184 64.152469L 21 111.000369C 14.5 120.000369 10 130.271969 10 142.000369C 10 166.853469 30.1472 187.000469 55 187.000469C 79.8528 187.000469 100 166.853469 100 142.000369ZM 55 106.000369C 74.8822 106.000369 91 122.118169 91 142.000369C 91 161.882669 74.8822 178.000469 55 178.000469C 35.1177 178.000469 19 161.882669 19 142.000369C 19 122.118169 35.1177 106.000369 55 106.000369Z"/>
      </g>
    </g>
    <g id="cp_2_g-2_1cws7091cbznd8-stroke" fill="none" stroke-linecap="round" stroke-linejoin="round" stroke-miterlimit="4" stroke="#fb6762" stroke-width="2">
      <g>
        <path d="M 100 142.000369C 100 130.756469 94.5 119.412869 89 111.000369L 55.816 64.152469C 55.4175 63.589769 54.5825 63.589769 54.184 64.152469L 21 111.000369C 14.5 120.000369 10 130.271969 10 142.000369C 10 166.853269 30.1472 187.000369 55 187.000369C 79.8528 187.000369 100 166.853269 100 142.000369ZM 55 106.000369C 74.8822 106.000369 91 122.118169 91 142.000369C 91 161.882669 74.8822 178.000369 55 178.000369C 35.1177 178.000369 19 161.882669 19 142.000369C 19 122.118169 35.1177 106.000369 55 106.000369Z"/>
      </g>
    </g>
    <g id="cp_2_g-2_1cws7091cbznd8-fill" stroke="none" fill="none">
      <g>
        <path d="M 55 34C 61.6274 34 67 28.6274 67 22C 67 15.3726 61.6274 10 55 10C 48.3726 10 43 15.3726 43 22C 43 28.6274 48.3726 34 55 34ZM 55 28C 58.3137 28 61 25.3137 61 22C 61 18.6863 58.3137 16 55 16C 51.6863 16 49 18.6863 49 22C 49 25.3137 51.6863 28 55 28Z"/>
      </g>
    </g>
    <g id="cp_2_g-2_1cws7091cbznd8-stroke" fill="none" stroke-linecap="round" stroke-linejoin="round" stroke-miterlimit="4" stroke="#fb6762" stroke-width="2">
      <g>
        <path d="M 55 34C 61.6274 34 67 28.6274 67 22C 67 15.3726 61.6274 10 55 10C 48.3726 10 43 15.3726 43 22C 43 28.6274 48.3726 34 55 34ZM 55 28C 58.3137 28 61 25.3137 61 22C 61 18.6863 58.3137 16 55 16C 51.6863 16 49 18.6863 49 22C 49 25.3137 51.6863 28 55 28Z"/>
      </g>
    </g>
  </g>
  <g id="g-root-cp_3_g-3_18hl5yx1cbzkzr-stroke-fill" data-item-order="-399098" transform="translate(455.1310119628906, 173)">
    <g id="cp_3_g-3_18hl5yx1cbzkzr-fill" stroke="none" fill="none">
      <g>
        <path d="M 100 55C 100 66.244 94.5 77.5875 89 86L 55.816 132.848C 55.4175 133.411 54.5825 133.411 54.184 132.848L 21 86C 14.5 77 10 66.7284 10 55C 10 30.1472 30.1472 10 55 10C 79.8528 10 100 30.1472 100 55ZM 55 91C 74.8822 91 91 74.8822 91 55C 91 35.1177 74.8822 19 55 19C 35.1177 19 19 35.1177 19 55C 19 74.8822 35.1177 91 55 91Z"/>
      </g>
    </g>
    <g id="cp_3_g-3_18hl5yx1cbzkzr-stroke" fill="none" stroke-linecap="round" stroke-linejoin="round" stroke-miterlimit="4" stroke="#f366bb" stroke-width="2">
      <g>
        <path d="M 100 55C 100 66.244 94.5 77.5875 89 86L 55.816 132.848C 55.4175 133.4106 54.5825 133.4106 54.184 132.848L 21 86C 14.5 77 10 66.7284 10 55C 10 30.1472 30.1472 10 55 10C 79.8528 10 100 30.1472 100 55ZM 55 91C 74.8822 91 91 74.8822 91 55C 91 35.1177 74.8822 19 55 19C 35.1177 19 19 35.1177 19 55C 19 74.8822 35.1177 91 55 91Z"/>
      </g>
    </g>
    <g id="cp_3_g-3_18hl5yx1cbzkzr-fill" stroke="none" fill="none">
      <g>
        <path d="M 55 187C 61.6274 187 67 181.6274 67 175C 67 168.3726 61.6274 163 55 163C 48.3726 163 43 168.3726 43 175C 43 181.6274 48.3726 187 55 187ZM 55 181C 58.3137 181 61 178.3137 61 175C 61 171.6863 58.3137 169 55 169C 51.6863 169 49 171.6863 49 175C 49 178.3137 51.6863 181 55 181Z"/>
      </g>
    </g>
    <g id="cp_3_g-3_18hl5yx1cbzkzr-stroke" fill="none" stroke-linecap="round" stroke-linejoin="round" stroke-miterlimit="4" stroke="#f366bb" stroke-width="2">
      <g>
        <path d="M 55 187C 61.6274 187 67 181.6274 67 175C 67 168.3726 61.6274 163 55 163C 48.3726 163 43 168.3726 43 175C 43 181.6274 48.3726 187 55 187ZM 55 181C 58.3137 181 61 178.3137 61 175C 61 171.6863 58.3137 169 55 169C 51.6863 169 49 171.6863 49 175C 49 178.3137 51.6863 181 55 181Z"/>
      </g>
    </g>
  </g>
  <g id="g-root-cp_4_g-4_v64nll1cbzmkq-stroke-fill" data-item-order="-399092" transform="translate(635.1309814453125, 326)">
    <g id="cp_4_g-4_v64nll1cbzmkq-fill" stroke="none" fill="none">
      <g>
        <path d="M 100 142.000369C 100 130.756469 94.5 119.412869 89 111.000369L 55.816 64.152469C 55.4175 63.589769 54.5825 63.589769 54.184 64.152469L 21 111.000369C 14.5 120.000369 10 130.271969 10 142.000369C 10 166.853469 30.1472 187.000469 55 187.000469C 79.8528 187.000469 100 166.853469 100 142.000369ZM 55 106.000369C 74.8822 106.000369 91 122.118169 91 142.000369C 91 161.882669 74.8822 178.000469 55 178.000469C 35.1177 178.000469 19 161.882669 19 142.000369C 19 122.118169 35.1177 106.000369 55 106.000369Z"/>
      </g>
    </g>
    <g id="cp_4_g-4_v64nll1cbzmkq-stroke" fill="none" stroke-linecap="round" stroke-linejoin="round" stroke-miterlimit="4" stroke="#f79438" stroke-width="2">
      <g>
        <path d="M 100 142.000369C 100 130.756469 94.5 119.412869 89 111.000369L 55.816 64.152469C 55.4175 63.589769 54.5825 63.589769 54.184 64.152469L 21 111.000369C 14.5 120.000369 10 130.271969 10 142.000369C 10 166.853269 30.1472 187.000369 55 187.000369C 79.8528 187.000369 100 166.853269 100 142.000369ZM 55 106.000369C 74.8822 106.000369 91 122.118169 91 142.000369C 91 161.882669 74.8822 178.000369 55 178.000369C 35.1177 178.000369 19 161.882669 19 142.000369C 19 122.118169 35.1177 106.000369 55 106.000369Z"/>
      </g>
    </g>
    <g id="cp_4_g-4_v64nll1cbzmkq-fill" stroke="none" fill="none">
      <g>
        <path d="M 55 34C 61.6274 34 67 28.6274 67 22C 67 15.3726 61.6274 10 55 10C 48.3726 10 43 15.3726 43 22C 43 28.6274 48.3726 34 55 34ZM 55 28C 58.3137 28 61 25.3137 61 22C 61 18.6863 58.3137 16 55 16C 51.6863 16 49 18.6863 49 22C 49 25.3137 51.6863 28 55 28Z"/>
      </g>
    </g>
    <g id="cp_4_g-4_v64nll1cbzmkq-stroke" fill="none" stroke-linecap="round" stroke-linejoin="round" stroke-miterlimit="4" stroke="#f79438" stroke-width="2">
      <g>
        <path d="M 55 34C 61.6274 34 67 28.6274 67 22C 67 15.3726 61.6274 10 55 10C 48.3726 10 43 15.3726 43 22C 43 28.6274 48.3726 34 55 34ZM 55 28C 58.3137 28 61 25.3137 61 22C 61 18.6863 58.3137 16 55 16C 51.6863 16 49 18.6863 49 22C 49 25.3137 51.6863 28 55 28Z"/>
      </g>
    </g>
  </g>
  <g id="g-root-tx_theexete_qqb5h51cbznd1-stroke-fill" data-item-order="0" transform="translate(224, 50)">
    <g id="tx_theexete_qqb5h51cbznd1-fill" stroke="none" fill="#f4f4f4">
      <g>
        <text style="font: 20px Roboto, sans-serif; white-space: pre;" font-size="20px" font-family="Roboto, sans-serif">
          <tspan x="15.2" y="34" dominant-baseline="ideographic">The Exeter Incident: A Timeline of Events</tspan>
        </text>
      </g>
    </g>
  </g>
  <g id="g-root-ic_1_dfh46x1cbzls6-stroke-fill" data-item-order="0" transform="translate(296.1310119628906, 434.0000305175781)">
    <g id="ic_1_dfh46x1cbzls6-stroke" fill="none" stroke-linecap="round" stroke-linejoin="round" stroke-miterlimit="4" stroke="#fb6762" stroke-width="2">
      <g>
        <path d="M 26.100008 52.000172C 24.900009 52.000172 24.100012 51.200172 24.100012 50.000172L 24.100012 47.800179C 24.100012 47.400177 24.300011 46.800179 24.70001 46.400177L 26.300009 45.000175L 41.699982 45.000175L 43.299976 46.400177C 43.699978 46.800179 43.899979 47.400177 43.899979 47.800179L 43.899979 50.000172C 43.899979 51.200172 43.099976 52.000172 41.899979 52.000172L 26.100008 52.000172ZM 10 10M 26.399969 45.000175L 26.999969 39.599979C 27.199968 38.599983 27.999969 37.800182 28.999968 37.800182L 38.999981 37.800182C 39.999981 37.800182 40.799782 38.599983 40.999779 39.599979L 41.599781 44.999977M 39.999779 52.000172L 39.999779 55.000168M 28.000109 52.000172L 28.000109 55.000168M 10 10M 44.660576 16.200035L 43.660576 12.800038M 10 10M 23.300032 16.200035L 24.300032 12.800038M 10 10M 48.660572 29.199947L 46.460579 22.199951M 10 10M 19.300034 29.199947L 21.500053 22.199951M 10 10M 52.460575 42.199978L 50.460575 35.199986M 10 10M 15.499996 42.199978L 17.499994 35.199986M 10 10M 56.460571 55.19997L 54.260571 48.199974M 10 10M 11.499999 55.19997L 13.699998 48.199974"/>
      </g>
    </g>
  </g>
  <g id="g-root-tx_septembe_5w12x1cc0zrb-stroke-fill" data-item-order="0" transform="translate(260, 134)">
    <g id="tx_septembe_5w12x1cc0zrb-fill" stroke="none" fill="#fb6762">
      <g>
        <text style="font: bold 20px Roboto, sans-serif; white-space: pre;" font-weight="bold" font-size="20px" font-family="Roboto, sans-serif">
          <tspan x="22" y="34" dominant-baseline="ideographic">September 3, </tspan>
          <tspan x="16.11" y="58" dominant-baseline="ideographic">1965, 2:00 AM</tspan>
        </text>
      </g>
    </g>
  </g>
  <g id="g-root-tx_normanmu_1lvjkop1cc1154-stroke-fill" data-item-order="0" transform="translate(236, 194)">
    <g id="tx_normanmu_1lvjkop1cc1154-fill" stroke="none" fill="#f4f4f4">
      <g>
        <text style="font: 15px Roboto, sans-serif; white-space: pre;" font-size="15px" font-family="Roboto, sans-serif">
          <tspan x="26.37" y="31" dominant-baseline="ideographic">Norman Muscarello </tspan>
          <tspan x="15.46" y="49" dominant-baseline="ideographic">observes five red lights </tspan>
          <tspan x="36.48" y="67" dominant-baseline="ideographic">while hitchhiking</tspan>
        </text>
      </g>
    </g>
  </g>
  <g id="g-root-ic_2_18kpjeh1cc0zk9-stroke-fill" data-item-order="0" transform="translate(656.1309814453125, 434)">
    <g id="ic_2_18kpjeh1cc0zk9-stroke" fill="none" stroke-linecap="round" stroke-linejoin="round" stroke-miterlimit="4" stroke="#f79438" stroke-width="2">
      <g>
        <path d="M 46.444599 49.331799C 44.4534 49.331799 42.8606 50.924801 42.8606 52.916C 42.8606 54.9072 44.4534 56.499802 46.444599 56.499802C 48.435799 56.499802 50.028599 54.9072 50.028599 52.916C 49.829601 50.924801 48.236599 49.331799 46.444599 49.331799ZM 53.015598 18.26996C 53.015598 22.05316 46.2458 42.7612 46.2458 42.7612C 46.2458 42.7612 39.4758 21.85404 39.4758 18.26996C 39.4758 14.6859 42.462601 11.5 46.2458 11.5C 50.028999 11.5 53.015598 14.48678 53.015598 18.26996ZM 21.754761 49.331799C 19.76362 49.331799 18.17066 50.924801 18.17066 52.916C 18.17066 54.9072 19.76362 56.499802 21.754761 56.499802C 23.74592 56.499802 25.338821 54.9072 25.338821 52.916C 25.1397 50.924801 23.74592 49.331799 21.754761 49.331799ZM 28.524179 18.26996C 28.524179 22.05316 21.75428 42.7612 21.75428 42.7612C 21.75428 42.7612 14.98438 21.85404 14.98438 18.26996C 14.98438 14.6859 17.9711 11.5 21.75428 11.5C 25.537479 11.5 28.524179 14.48678 28.524179 18.26996Z"/>
      </g>
    </g>
  </g>
  <g id="g-root-tx_septembe_mfhg1l1cc2ebu-stroke-fill" data-item-order="0" transform="translate(632, 134)">
    <g id="tx_septembe_mfhg1l1cc2ebu-fill" stroke="none" fill="#f79438">
      <g>
        <text style="font: bold 20px Roboto, sans-serif; white-space: pre;" font-weight="bold" font-size="20px" font-family="Roboto, sans-serif">
          <tspan x="13.51" y="34" dominant-baseline="ideographic">September 3, </tspan>
          <tspan x="50.55" y="58" dominant-baseline="ideographic">1965</tspan>
        </text>
      </g>
    </g>
  </g>
  <g id="g-root-tx_officers_4o7fjt1cc2goz-stroke-fill" data-item-order="0" transform="translate(608, 194)">
    <g id="tx_officers_4o7fjt1cc2goz-fill" stroke="none" fill="#f4f4f4">
      <g>
        <text style="font: 15px Roboto, sans-serif; white-space: pre;" font-size="15px" font-family="Roboto, sans-serif">
          <tspan x="15.4" y="31" dominant-baseline="ideographic">Officers Bertrand and </tspan>
          <tspan x="13.96" y="49" dominant-baseline="ideographic">Hunt witness the UFO </tspan>
          <tspan x="33.29" y="67" dominant-baseline="ideographic">with Muscarello</tspan>
        </text>
      </g>
    </g>
  </g>
  <g id="g-root-tx_septembe_1qehg8p1cc2ex0-stroke-fill" data-item-order="0" transform="translate(68, 422)">
    <g id="tx_septembe_1qehg8p1cc2ex0-fill" stroke="none" fill="#4f91fc">
      <g>
        <text style="font: bold 20px Roboto, sans-serif; white-space: pre;" font-weight="bold" font-size="20px" font-family="Roboto, sans-serif">
          <tspan x="28" y="34" dominant-baseline="ideographic">September 3, </tspan>
          <tspan x="16.38" y="58" dominant-baseline="ideographic">1965, 12:30 AM</tspan>
        </text>
      </g>
    </g>
  </g>
  <g id="g-root-tx_officere_1hiufzt1cc2fpp-stroke-fill" data-item-order="0" transform="translate(56, 482)">
    <g id="tx_officere_1hiufzt1cc2fpp-fill" stroke="none" fill="#f4f4f4">
      <g>
        <text style="font: 15px Roboto, sans-serif; white-space: pre;" font-size="15px" font-family="Roboto, sans-serif">
          <tspan x="13.48" y="31" dominant-baseline="ideographic">Officer Eugene Bertrand </tspan>
          <tspan x="22.55" y="49" dominant-baseline="ideographic">encounters a woman </tspan>
          <tspan x="40.26" y="67" dominant-baseline="ideographic">reporting a UFO</tspan>
        </text>
      </g>
    </g>
  </g>
  <g id="g-root-ic_ufo_1480epl1cc2e4u-stroke-fill" data-item-order="0" transform="translate(116.1309814453125, 194)">
    <g id="ic_ufo_1480epl1cc2e4u-stroke" fill="none" stroke-linecap="round" stroke-linejoin="round" stroke-miterlimit="4" stroke="#4f91fc" stroke-width="2">
      <g>
        <path d="M 49 22.5C 52.977859 22.499041 56.352161 25.420879 56.919998 29.358C 56.961449 29.646814 56.874687 29.939325 56.682472 30.158836C 56.490257 30.378345 56.211758 30.502958 55.919998 30.5L 12.07 30.5C 11.778242 30.502958 11.499743 30.378345 11.307528 30.158836C 11.115312 29.939325 11.028553 29.646814 11.07 29.358C 11.638377 25.417118 15.018346 22.494064 19 22.5ZM 19 22.5C 19 17.5 25.716 11.5 34 11.5C 42.284 11.5 49 17.5 49 22.5M 47.77 39.5L 52.995998 56.5M 14.996 56.5L 20.232 39.5M 34.996002 49.5L 31.996 53.652M 37.996002 53.5L 34.996002 49.5M 31.996 46.5L 37.996002 46.5M 35 41.5C 35.552284 41.5 36 41.947716 36 42.5M 34 42.5C 34 41.947716 34.447716 41.5 35 41.5M 35 43.5C 34.447716 43.5 34 43.052284 34 42.5M 36 42.5C 36 43.052284 35.552284 43.5 35 43.5M 34.996002 49.5L 34.996002 46.5M 25 30.5C 25 33.261421 22.761425 35.5 20 35.5C 17.238577 35.5 15 33.261421 15 30.5M 39 30.5C 39 33.261421 36.761425 35.5 34 35.5C 31.238577 35.5 29 33.261421 29 30.5M 53 30.5C 53 33.261421 50.761425 35.5 48 35.5C 45.238575 35.5 43 33.261421 43 30.5"/>
      </g>
    </g>
  </g>
  <g id="g-root-tx_septembe_1ulkb5l1cc5893-stroke-fill" data-item-order="0" transform="translate(440, 422)">
    <g id="tx_septembe_1ulkb5l1cc5893-fill" stroke="none" fill="#f366bb">
      <g>
        <text style="font: bold 20px Roboto, sans-serif; white-space: pre;" font-weight="bold" font-size="20px" font-family="Roboto, sans-serif">
          <tspan x="22" y="34" dominant-baseline="ideographic">September 3, </tspan>
          <tspan x="16.11" y="58" dominant-baseline="ideographic">1965, 2:24 AM</tspan>
        </text>
      </g>
    </g>
  </g>
  <g id="g-root-tx_muscarel_1ha3ss91cc59u0-stroke-fill" data-item-order="0" transform="translate(428, 482)">
    <g id="tx_muscarel_1ha3ss91cc59u0-fill" stroke="none" fill="#f4f4f4">
      <g>
        <text style="font: 15px Roboto, sans-serif; white-space: pre;" font-size="15px" font-family="Roboto, sans-serif">
          <tspan x="16.52" y="31" dominant-baseline="ideographic">Muscarello arrives at </tspan>
          <tspan x="16.93" y="49" dominant-baseline="ideographic">Exeter police station, </tspan>
          <tspan x="39.6" y="67" dominant-baseline="ideographic">visibly shaken</tspan>
        </text>
      </g>
    </g>
    <defs>
      <pattern id="crawlingPattern-0000001b" x="0" y="0" width="12" height="12" patternUnits="userSpaceOnUse" fill="#0000001b">
        <use href="#crawlingSymbol"/>
      </pattern>
      <symbol id="crawlingSymbol">
        <g>
          <path d="M -12.5 12.5 l 13 -13 l 6 0 l -13 13 Z M -0.5 12.5 l 13 -13 l 6 0 l -13 13 Z M 11.5 12.5 l 13 -13 l 6 0 l -13 13 Z"/>
        </g>
      </symbol>
      <pattern id="crawlingPattern-f9080081" x="0" y="0" width="12" height="12" patternUnits="userSpaceOnUse" fill="#f9080081">
        <use href="#crawlingSymbol"/>
      </pattern>
      <pattern id="crawlingPattern-f17400d3" x="0" y="0" width="12" height="12" patternUnits="userSpaceOnUse" fill="#f17400d3">
        <use href="#crawlingSymbol"/>
      </pattern>
      <pattern id="crawlingPattern-0060fba2" x="0" y="0" width="12" height="12" patternUnits="userSpaceOnUse" fill="#0060fba2">
        <use href="#crawlingSymbol"/>
      </pattern>
      <pattern id="crawlingPattern-eb008e76" x="0" y="0" width="12" height="12" patternUnits="userSpaceOnUse" fill="#eb008e76">
        <use href="#crawlingSymbol"/>
      </pattern>
    </defs>
  </g>
  <g id="g-root-ic_gate_13z9ri11cc5895-stroke-fill" data-item-order="0" transform="translate(476.1310119628906, 194)">
    <g id="ic_gate_13z9ri11cc5895-stroke" fill="none" stroke-linecap="round" stroke-linejoin="round" stroke-miterlimit="4" stroke="#f366bb" stroke-width="2">
      <g>
        <path d="M 33.021984 30.891987C 31.455179 32.951015 31.718035 35.865265 33.627987 37.610699C 35.537945 39.356136 38.464024 39.356136 40.373978 37.610699C 42.283932 35.865265 42.546783 32.951015 40.97998 30.891987ZM 40.999981 30.891987L 31.999985 30.891987L 29.999987 24.891991L 42.999977 26.891989L 40.999981 30.891987ZM 31.999985 30.891987L 28.933987 32.423985M 46.999977 56.891968L 46.999977 48.891972C 46.999977 45.025986 43.865971 41.891983 39.999981 41.891983L 39.28598 41.891979L 36.999981 45.891975L 34.655983 41.787979C 32.161888 41.575867 29.729774 40.897453 27.485989 39.787979L 25.707991 38.899982C 24.226049 38.158405 23.62606 36.355747 24.36799 34.873985L 24.99999 33.599983C 25.39069 32.810341 25.414543 31.888874 25.065218 31.080078C 24.715895 30.271278 24.028709 29.656912 23.185991 29.399988C 21.732319 29.004238 20.204145 29.708059 19.559994 31.069986L 18.999994 32.187984C 16.776413 36.63438 18.579067 42.041451 23.025991 44.263977L 29.657988 47.581978C 30.457954 47.873238 30.992935 48.630657 30.999987 49.481972L 30.999987 56.897968M 40.999981 48.891972L 40.999981 56.891968M 55.861969 21.347992L 34.861984 11.303999C 34.316814 11.043605 33.683151 11.043605 33.137985 11.303999L 12.137999 21.347992C 11.444211 21.679371 11.001809 22.379128 10.999999 23.147991L 10.999999 54.88797C 10.999999 55.992538 11.89543 56.88797 12.999998 56.88797L 54.999969 56.88797C 56.104538 56.88797 56.999969 55.992538 56.999969 54.88797L 56.999969 23.151991C 56.999699 22.381683 56.55706 21.679995 55.861969 21.347992Z"/>
      </g>
    </g>
  </g>
</svg>
