<?xml version='1.0' encoding='utf-8'?>
<svg xmlns="http://www.w3.org/2000/svg" xmlns:xlink="http://www.w3.org/1999/xlink" width="624" height="552" viewBox="0 0 624 552" style="fill:none;stroke:none;fill-rule:evenodd;clip-rule:evenodd;stroke-linecap:round;stroke-linejoin:round;stroke-miterlimit:1.5;" version="1.1">
  <style class="text-font-style fontImports" data-font-family="Roboto">@import url('https://fonts.googleapis.com/css2?family=Roboto:wght@400;700&amp;display=block');</style>
  <rect x="0" y="0" width="624" height="552" fill="#252a34" stroke="none" id="programmatic_background"/>
  <g id="g-root-tf_18k2pop1ao4vlt-stroke-fill" data-item-order="-316800" transform="translate(12, 12)"/>
  <g id="g-root-sy_4_cu_1qeh0g91aog35y-stroke-fill" data-item-order="-105977" transform="translate(133.95700073242188, 290.75)">
    <g id="sy_4_cu_1qeh0g91aog35y-stroke" fill="none" stroke-linecap="round" stroke-linejoin="round" stroke-miterlimit="4" stroke="#f4f4f4" stroke-width="2">
      <g>
        <path d="M 340.042999 45.25C 343.356999 45.25 346.042999 42.564 346.042999 39.25C 346.042999 35.936 343.356999 33.25 340.042999 33.25C 336.728999 33.25 334.042999 35.936 334.042999 39.25C 334.042999 42.564 336.728999 45.25 340.042999 45.25ZM 16.021999 93.25C 19.346999 93.25 22.042999 90.564 22.042999 87.25C 22.042999 83.936 19.346999 81.25 16.021999 81.25C 12.695999 81.25 9.999999 83.936 9.999999 87.25C 9.999999 90.564 12.695999 93.25 16.021999 93.25ZM 340.042999 33.25L 340.042999 10M 16.042999 58.25L 16.042999 81.25M 194.062999 60.907L 334.195999 40.141M 160.540999 65.869L 21.992999 86.395"/>
      </g>
    </g>
  </g>
  <g id="g-root-sy_3_Exclude_1hiu07d1aog3yn-stroke-fill" data-item-order="-105974" transform="translate(255.05589294433594, 328)">
    <g id="sy_3_Exclude_1hiu07d1aog3yn-fill" stroke="none" fill="none">
      <g>
        <path d="M 56.944107 10C 49.471107 10 43.195107 15.122 41.436107 22.047L 10.134107 124.12C 9.542107 126.049 10.984107 128 13.002107 128L 100.886107 128C 102.903107 128 104.346107 126.049 103.754107 124.12L 72.454107 22.054C 70.696107 15.126 64.419107 10 56.944107 10ZM 56.944107 33C 60.810107 33 63.944107 29.866 63.944107 26C 63.944107 22.134 60.810107 19 56.944107 19C 53.078107 19 49.944107 22.134 49.944107 26C 49.944107 29.866 53.078107 33 56.944107 33Z"/>
      </g>
    </g>
    <g id="sy_3_Exclude_1hiu07d1aog3yn-stroke" fill="none" stroke-linecap="round" stroke-linejoin="round" stroke-miterlimit="4" stroke="#f4f4f4" stroke-width="2">
      <g>
        <path d="M 56.944107 10C 49.471107 10 43.195107 15.122 41.436107 22.047L 10.134107 124.12C 9.542107 126.049 10.984107 128 13.002107 128L 100.886107 128C 102.903107 128 104.346107 126.049 103.754107 124.12L 72.454107 22.054C 70.696107 15.126 64.419107 10 56.944107 10ZM 56.944107 33C 60.810107 33 63.944107 29.866 63.944107 26C 63.944107 22.134 60.810107 19 56.944107 19C 53.078107 19 49.944107 22.134 49.944107 26C 49.944107 29.866 53.078107 33 56.944107 33Z"/>
      </g>
    </g>
  </g>
  <g id="g-root-sy_2_right-bucket_1d30i2x1aog4qw-stroke-fill" data-item-order="-105970" transform="translate(350, 254)">
    <g id="sy_2_right-bucket_1d30i2x1aog4qw-fill" stroke="none" fill="none">
      <g>
        <path d="M 11.081 15.729C 10.338 14.904 10 13.826 10 12.716L 10 12.716C 10 11.216 11.216 10 12.716 10L 235.284 10C 236.784 10 238 11.216 238 12.716L 238 12.716C 238 13.826 237.662 14.904 236.919 15.729C 231.551 21.692 204.717 46 124 46C 43.283 46 16.449 21.692 11.081 15.729Z"/>
      </g>
    </g>
    <g id="sy_2_right-bucket_1d30i2x1aog4qw-stroke" fill="none" stroke-linecap="round" stroke-linejoin="round" stroke-miterlimit="4" stroke="#8769fd" stroke-width="2">
      <g>
        <path d="M 11.081 15.729C 10.338 14.904 10 13.826 10 12.716L 10 12.716C 10 11.216 11.216 10 12.716 10L 235.284 10C 236.784 10 238 11.216 238 12.716L 238 12.716C 238 13.826 237.662 14.904 236.919 15.729C 231.551 21.692 204.717 46 124 46C 43.283 46 16.449 21.692 11.081 15.729Z"/>
      </g>
    </g>
  </g>
  <g id="g-root-sy_1_left-bucket_1d30i2x1aog4qx-stroke-fill" data-item-order="-105966" transform="translate(26, 302)">
    <g id="sy_1_left-bucket_1d30i2x1aog4qx-fill" stroke="none" fill="none">
      <g>
        <path d="M 11.0812 15.729C 10.3384 14.904 10 13.826 10 12.716L 10 12.716C 10 11.216 11.2158 10 12.7157 10L 235.284 10C 236.784 10 238 11.216 238 12.716L 238 12.716C 238 13.826 237.662 14.904 236.919 15.729C 231.551 21.692 204.717 46 124 46C 43.2826 46 16.4488 21.692 11.0812 15.729Z"/>
      </g>
    </g>
    <g id="sy_1_left-bucket_1d30i2x1aog4qx-stroke" fill="none" stroke-linecap="round" stroke-linejoin="round" stroke-miterlimit="4" stroke="#1ac3fb" stroke-width="2">
      <g>
        <path d="M 11.0812 15.729C 10.3384 14.904 10 13.826 10 12.716L 10 12.716C 10 11.216 11.2158 10 12.7157 10L 235.284 10C 236.784 10 238 11.216 238 12.716L 238 12.716C 238 13.826 237.662 14.904 236.919 15.729C 231.551 21.692 204.717 46 124 46C 43.2826 46 16.4488 21.692 11.0812 15.729Z"/>
      </g>
    </g>
  </g>
  <g id="g-root-ic_sear_18nth1l1aog2de-stroke-fill" data-item-order="0" transform="translate(38, 242)">
    <g id="ic_sear_18nth1l1aog2de-stroke" fill="none" stroke-linecap="round" stroke-linejoin="round" stroke-miterlimit="4" stroke="#f4f4f4" stroke-width="2">
      <g>
        <path d="M 35 44.057999C 35 49.060593 39.055405 53.115997 44.057999 53.115997C 49.060593 53.115997 53.115997 49.060593 53.115997 44.057999C 53.115997 39.055405 49.060593 35 44.057999 35C 39.055405 35 35 39.055405 35 44.057999ZM 57 57L 50.504002 50.504002M 19 27L 38 27M 19 33L 31 33M 19 21L 33 21M 19 39L 27 39M 19 45L 27 45M 35 57L 13 57C 11.895431 57 11 56.104568 11 55L 11 13C 11 11.895431 11.895431 11 13 11L 39.585999 11C 40.11639 11.000113 40.625015 11.210901 41 11.586L 48.414001 19C 48.789101 19.374985 48.999886 19.88361 49 20.414L 49 29"/>
      </g>
    </g>
  </g>
  <g id="g-root-ic_1_1q8uqo91aoixor-stroke-fill" data-item-order="0" transform="translate(38, 170)">
    <g id="ic_1_1q8uqo91aoixor-stroke" fill="none" stroke-linecap="round" stroke-linejoin="round" stroke-miterlimit="4" stroke="#f4f4f4" stroke-width="2">
      <g>
        <path d="M 25 53C 25 55.209141 23.209139 57 21 57L 15 57C 12.790861 57 11 55.209141 11 53C 11 50.790859 12.790861 49 15 49L 21 49C 23.209139 49 25 50.790859 25 53ZM 31.464001 49C 32.17852 47.762413 32.178532 46.23764 31.464025 45.000046C 30.749519 43.762447 29.429045 43.000038 28 43L 22 43C 20.570957 43.000038 19.250481 43.762447 18.535975 45.000046C 17.821468 46.23764 17.821478 47.762413 18.535999 49M 39 53C 39 55.209141 37.209137 57 35 57L 29 57C 26.790861 57 25 55.209141 25 53C 25 50.790859 26.790861 49 29 49L 35 49C 37.209137 49 39 50.790859 39 53ZM 57 41L 57 39C 57 33.47715 52.52285 29 47 29M 37 39L 37 45L 42 45L 43 57L 51 57L 51.166 55M 40.071999 19C 40.569725 22.443373 43.520844 24.998596 47 24.998596C 50.47916 24.998596 53.430283 22.443373 53.928001 19ZM 39 19C 39 14.581722 42.581722 11 47 11C 51.418278 11 55 14.581722 55 19ZM 47.799999 42.799999L 39.313999 34.313999C 37.752472 32.751999 37.752472 30.219999 39.313999 28.658001L 50.627998 39.972ZM 39.321999 28.666L 33.666 23.007999L 35.080002 21.594M 50.636002 39.98L 56.292 45.636002C 56.682381 46.026501 56.682381 46.6595 56.292 47.049999L 52.431999 50.911999C 52.192688 51.152096 51.848034 51.254604 51.516407 51.184319C 51.184784 51.114037 50.911343 50.880531 50.790001 50.563999L 47.799999 42.799999Z"/>
      </g>
    </g>
  </g>
  <g id="g-root-ic_watc_mb3ond1aokcng-stroke-fill" data-item-order="0" transform="translate(38, 98)">
    <g id="ic_watc_mb3ond1aokcng-stroke" fill="none" stroke-linecap="round" stroke-linejoin="round" stroke-miterlimit="4" stroke="#f4f4f4" stroke-width="2">
      <g>
        <path d="M 15.5 43.5C 15.5 45.985283 17.514719 48 20 48C 22.485281 48 24.5 45.985283 24.5 43.5C 24.5 41.014717 22.485281 39 20 39C 17.514719 39 15.5 41.014717 15.5 43.5ZM 29 57C 27.950926 52.885952 24.245701 50.006985 20 50.006985C 15.7543 50.006985 12.049074 52.885952 11 57M 43.5 43.5C 43.5 45.985283 45.514717 48 48 48C 50.485283 48 52.5 45.985283 52.5 43.5C 52.5 41.014717 50.485283 39 48 39C 45.514717 39 43.5 41.014717 43.5 43.5ZM 39 57C 40.049076 52.885952 43.754299 50.006985 48 50.006985C 52.245701 50.006985 55.950928 52.885952 57 57M 29.5 41.5C 29.5 43.985283 31.514719 46 34 46C 36.485283 46 38.5 43.985283 38.5 41.5C 38.5 39.014717 36.485283 37 34 37C 31.514719 37 29.5 39.014717 29.5 41.5ZM 41.830002 52.386002C 40.154522 49.669983 37.191231 48.016228 34 48.016228C 30.808767 48.016228 27.845474 49.669983 26.17 52.385998M 25 11L 22 14M 22 11L 25 14M 45 13L 42 16M 42 13L 45 16M 55 21L 52 24M 52 21L 55 24M 16 18L 13 21M 13 18L 16 21M 40.68 32.056C 42.285118 28.043875 45.306801 24.760302 49.172001 22.827999M 28 14L 28.788 14.4C 33.292236 16.650915 36.373741 21.003746 37 26L 37 26M 20 20L 20 20C 26.209766 21.241394 31.321966 25.632595 33.486 31.584L 34 33"/>
      </g>
    </g>
  </g>
  <g id="g-root-ic_chip_1d2e45l1anz8ct-stroke-fill" data-item-order="0" transform="translate(362, 194)">
    <g id="ic_chip_1d2e45l1anz8ct-stroke" fill="none" stroke-linecap="round" stroke-linejoin="round" stroke-miterlimit="4" stroke="#f4f4f4" stroke-width="2">
      <g>
        <path d="M 33 45C 33 51.627419 38.372581 57 45 57C 51.627419 57 57 51.627419 57 45C 57 38.372581 51.627419 33 45 33C 38.372581 33 33 38.372581 33 45ZM 39 45C 39 48.313709 41.686295 51 45 51C 48.313709 51 51 48.313709 51 45C 51 41.686295 48.313709 39 45 39C 41.686295 39 39 41.686295 39 45ZM 45 33L 45 39M 34.608002 39L 39.804001 42M 34.608002 51L 39.804001 48M 45 57L 45 51M 55.391998 51L 50.195999 48M 55.391998 39L 50.195999 42M 50.981998 30.156C 50.525223 19.339062 41.543976 10.849488 30.718466 11.001788C 19.892956 11.154087 11.154087 19.892956 11.001788 30.718466C 10.849488 41.543976 19.339062 50.525223 30.156 50.982002M 28.358 50.826C 25.237999 47.962002 23 40.166 23 31C 23 21.834 25.237999 14.038 28.358 11.174M 33.641998 11.172C 36.524002 13.818 38.653999 20.672001 38.961998 28.927999M 14.998 19L 47.001999 19M 14.998 43L 29.030001 43M 11 31L 34.986 31"/>
      </g>
    </g>
  </g>
  <g id="g-root-ic_labo_dbpx1l1ao239q-stroke-fill" data-item-order="0" transform="translate(362, 122)">
    <g id="ic_labo_dbpx1l1ao239q-stroke" fill="none" stroke-linecap="round" stroke-linejoin="round" stroke-miterlimit="4" stroke="#f4f4f4" stroke-width="2">
      <g>
        <path d="M 11.732 12.352C 19.001999 12.352 24.647999 17.978001 24.552 25.138C 25.5 27.49 27.438 29.004 28.416 31.643999C 28.546675 32.000576 28.501457 32.397903 28.294001 32.716C 28.192781 32.870064 28.05547 32.997074 27.893999 33.085999C 27.73465 33.173573 27.555828 33.21965 27.374001 33.220001L 24.552 33.220001L 24.552 37.858002C 24.552 39.085999 24.082001 40.265999 23.246 41.138C 22.423746 42.000252 21.285454 42.489948 20.094 42.493999L 17.864 42.493999L 17.864 48.414001M 37.996002 48.542L 34.950001 48.542C 32.146118 48.542683 29.872766 46.269878 29.872766 43.466C 29.872766 40.662121 32.146118 38.38932 34.950001 38.389999L 37.996002 38.389999L 37.996002 48.542ZM 37.996002 48.542C 43.952 48.542 49.776001 50.306 54.731998 53.610001L 56.268002 54.633999L 56.268002 32.299999L 54.731998 33.323997C 49.775425 36.627075 43.952332 38.389725 37.995998 38.389999L 37.996002 48.542ZM 37.996002 48.542C 37.993389 51.227852 39.093903 53.796917 41.040001 55.647999"/>
      </g>
    </g>
  </g>
  <g id="g-root-ic_2_24txl1ao3h8n-stroke-fill" data-item-order="0" transform="translate(362, 50)">
    <g id="ic_2_24txl1ao3h8n-stroke" fill="none" stroke-linecap="round" stroke-linejoin="round" stroke-miterlimit="4" stroke="#f4f4f4" stroke-width="2">
      <g>
        <path d="M 47 51L 47 31M 37 21C 37 26.522848 41.477154 31 47 31C 52.522846 31 57 26.522848 57 21C 57 15.477153 52.522846 11 47 11C 41.477154 11 37 15.477153 37 21M 12 51L 47 51L 47 51L 47 56C 47 56.552284 46.552284 57 46 57L 12 57C 11.447716 57 11 56.552284 11 56L 11 52C 11 51.447716 11.447716 51 12 51ZM 45.062 21C 45.062 22.104568 45.957432 23 47.062 23C 48.166569 23 49.062 22.104568 49.062 21C 49.062 19.895432 48.166569 19 47.062 19C 45.957432 19 45.062 19.895432 45.062 21M 48.262001 19.4L 51 15.75M 20 31L 20 29C 20.00659 26.793596 21.793596 25.00659 24 25L 26 25C 28.206404 25.00659 29.99341 26.793596 30 29L 30 31M 18 31L 18 47M 32 31L 32 47M 15 31L 35 31C 35 31 37 31 37 33L 37 45C 37 45 37 47 35 47L 15 47C 15 47 13 47 13 45L 13 33C 13 33 13 31 15 31"/>
      </g>
    </g>
  </g>
  <g id="g-root-tx_document_qpobrd1ao4wsg-stroke-fill" data-item-order="0" transform="translate(98, 230)">
    <g id="tx_document_qpobrd1ao4wsg-fill" stroke="none" fill="#f4f4f4">
      <g>
        <text style="font: 20px Roboto, sans-serif; white-space: pre;" font-size="20px" font-family="Roboto, sans-serif">
          <tspan x="12" y="34" dominant-baseline="ideographic">Documentary </tspan>
          <tspan x="12" y="58" dominant-baseline="ideographic">Evidence </tspan>
          <tspan x="12" y="82" dominant-baseline="ideographic">Needed</tspan>
        </text>
      </g>
    </g>
  </g>
  <g id="g-root-tx_military_deuah51ao4v7l-stroke-fill" data-item-order="0" transform="translate(98, 170)">
    <g id="tx_military_deuah51ao4v7l-fill" stroke="none" fill="#f4f4f4">
      <g>
        <text style="font: 20px Roboto, sans-serif; white-space: pre;" font-size="20px" font-family="Roboto, sans-serif">
          <tspan x="12" y="34" dominant-baseline="ideographic">Military Records </tspan>
          <tspan x="12" y="58" dominant-baseline="ideographic">Support</tspan>
        </text>
      </g>
    </g>
  </g>
  <g id="g-root-tx_specific_3ds3t1ao4wsi-stroke-fill" data-item-order="0" transform="translate(98, 98)">
    <g id="tx_specific_3ds3t1ao4wsi-fill" stroke="none" fill="#f4f4f4">
      <g>
        <text style="font: 20px Roboto, sans-serif; white-space: pre;" font-size="20px" font-family="Roboto, sans-serif">
          <tspan x="12" y="34" dominant-baseline="ideographic">Specific Incident </tspan>
          <tspan x="12" y="58" dominant-baseline="ideographic">Focus</tspan>
        </text>
      </g>
    </g>
  </g>
  <g id="g-root-tx_broaderc_1ltnssp1ao4v0j-stroke-fill" data-item-order="0" transform="translate(422, 194)">
    <g id="tx_broaderc_1ltnssp1ao4v0j-fill" stroke="none" fill="#f4f4f4">
      <g>
        <text style="font: 20px Roboto, sans-serif; white-space: pre;" font-size="20px" font-family="Roboto, sans-serif">
          <tspan x="12" y="34" dominant-baseline="ideographic">Broader Context </tspan>
          <tspan x="12" y="58" dominant-baseline="ideographic">Considered</tspan>
        </text>
      </g>
    </g>
  </g>
  <g id="g-root-tx_witnesst_1cy0sjt1ao4vt8-stroke-fill" data-item-order="0" transform="translate(422, 110)">
    <g id="tx_witnesst_1cy0sjt1ao4vt8-fill" stroke="none" fill="#f4f4f4">
      <g>
        <text style="font: 20px Roboto, sans-serif; white-space: pre;" font-size="20px" font-family="Roboto, sans-serif">
          <tspan x="12" y="34" dominant-baseline="ideographic">Witness </tspan>
          <tspan x="12" y="58" dominant-baseline="ideographic">Testimony </tspan>
          <tspan x="12" y="82" dominant-baseline="ideographic">Weight</tspan>
        </text>
      </g>
    </g>
  </g>
  <g id="g-root-tx_comparat_18i7afd1ao4wlh-stroke-fill" data-item-order="0" transform="translate(422, 50)">
    <g id="tx_comparat_18i7afd1ao4wlh-fill" stroke="none" fill="#f4f4f4">
      <g>
        <text style="font: 20px Roboto, sans-serif; white-space: pre;" font-size="20px" font-family="Roboto, sans-serif">
          <tspan x="12" y="34" dominant-baseline="ideographic">Comparative </tspan>
          <tspan x="12" y="58" dominant-baseline="ideographic">Analysis Scope</tspan>
        </text>
      </g>
    </g>
  </g>
  <g id="g-root-tx_kc97expl_mbq8w91ao4vta-stroke-fill" data-item-order="0" transform="translate(56, 410)">
    <g id="tx_kc97expl_mbq8w91ao4vta-fill" stroke="none" fill="#f4f4f4">
      <g>
        <text style="font: 20px Roboto, sans-serif; white-space: pre;" font-size="20px" font-family="Roboto, sans-serif">
          <tspan x="12.86" y="34" dominant-baseline="ideographic">KC-97 Explanation</tspan>
        </text>
      </g>
    </g>
  </g>
  <g id="g-root-tx_alternat_hvwqrt1ao4wlj-stroke-fill" data-item-order="0" transform="translate(404, 350)">
    <g id="tx_alternat_hvwqrt1ao4wlj-fill" stroke="none" fill="#f4f4f4">
      <g>
        <text style="font: 20px Roboto, sans-serif; white-space: pre;" font-size="20px" font-family="Roboto, sans-serif">
          <tspan x="22.33" y="34" dominant-baseline="ideographic">Alternative </tspan>
          <tspan x="12.81" y="58" dominant-baseline="ideographic">Explanations</tspan>
        </text>
      </g>
    </g>
  </g>
  <g id="g-root-tx_evaluati_4l2phl1ao4v0o-stroke-fill" data-item-order="0" transform="translate(122, 458)">
    <g id="tx_evaluati_4l2phl1ao4v0o-fill" stroke="none" fill="#f4f4f4">
      <g>
        <text style="font: 20px Roboto, sans-serif; white-space: pre;" font-size="20px" font-family="Roboto, sans-serif">
          <tspan x="15.92" y="34" dominant-baseline="ideographic">Evaluating Exeter Incident Explanations</tspan>
        </text>
      </g>
    </g>
    <defs>
      <pattern id="crawlingPattern-0000001b" x="0" y="0" width="12" height="12" patternUnits="userSpaceOnUse" fill="#0000001b">
        <use href="#crawlingSymbol"/>
      </pattern>
      <symbol id="crawlingSymbol">
        <g>
          <path d="M -12.5 12.5 l 13 -13 l 6 0 l -13 13 Z M -0.5 12.5 l 13 -13 l 6 0 l -13 13 Z M 11.5 12.5 l 13 -13 l 6 0 l -13 13 Z"/>
        </g>
      </symbol>
    </defs>
  </g>
</svg>
