<?xml version='1.0' encoding='utf-8'?>
<svg xmlns="http://www.w3.org/2000/svg" xmlns:xlink="http://www.w3.org/1999/xlink" width="1032" height="708" viewBox="0 0 1032 708" style="fill:none;stroke:none;fill-rule:evenodd;clip-rule:evenodd;stroke-linecap:round;stroke-linejoin:round;stroke-miterlimit:1.5;" version="1.1">
  <style class="text-font-style fontImports" data-font-family="Roboto">@import url('https://fonts.googleapis.com/css2?family=Roboto:wght@400;700&amp;display=block');</style>
  <rect x="0" y="0" width="1032" height="708" fill="#252a34" stroke="none" id="programmatic_background"/>
  <g id="g-root-tf_1qeh9y11b85gci-stroke-fill" data-item-order="-681264" transform="translate(18, 12)"/>
  <g id="g-root-sy_4_cu_1uqjue11b8gnwp-stroke-fill" data-item-order="-317369" transform="translate(608, 386)">
    <g id="sy_4_cu_1uqjue11b8gnwp-stroke" fill="none" stroke-linecap="round" stroke-linejoin="round" stroke-miterlimit="4" stroke="#f79438" stroke-width="2">
      <g>
        <path d="M 33.850586 154.000488L 45.850586 154.000488M 58.200195 70L 70.200195 70M 87.9997 10L 21.9997 238L 10 238"/>
      </g>
    </g>
  </g>
  <g id="g-root-sy_3_cu_1qaqc9l1b8gooy-stroke-fill" data-item-order="-317365" transform="translate(608, 158.00048828125)">
    <g id="sy_3_cu_1qaqc9l1b8gooy-stroke" fill="none" stroke-linecap="round" stroke-linejoin="round" stroke-miterlimit="4" stroke="#b7b7b7" stroke-width="2">
      <g>
        <path d="M 33.84668 93.999512L 45.84668 93.999512M 58.195313 177.999512L 70.195313 177.999512M 87.9997 238L 21.9997 10L 10 10"/>
      </g>
    </g>
  </g>
  <g id="g-root-sy_2_cu_1qaqc9l1b8gooz-stroke-fill" data-item-order="-317361" transform="translate(296, 385.99951171875)">
    <g id="sy_2_cu_1qaqc9l1b8gooz-stroke" fill="none" stroke-linecap="round" stroke-linejoin="round" stroke-miterlimit="4" stroke="#fb6762" stroke-width="2">
      <g>
        <path d="M 33.851563 154.000488L 45.851563 154.000488M 58.200195 70.000488L 70.200195 70.000488M 87.9997 10L 21.9997 238L 10 238"/>
      </g>
    </g>
  </g>
  <g id="g-root-sy_1_cu_1hf3c0p1b8gpho-stroke-fill" data-item-order="-317357" transform="translate(296, 158.00048828125)">
    <g id="sy_1_cu_1hf3c0p1b8gpho-stroke" fill="none" stroke-linecap="round" stroke-linejoin="round" stroke-miterlimit="4" stroke="#43dd93" stroke-width="2">
      <g>
        <path d="M 33.851563 93.999512L 45.851563 93.999512M 58.200195 177.999512L 70.200195 177.999512M 87.9997 238L 21.9997 10L 10 10"/>
      </g>
    </g>
  </g>
  <g id="g-root-sy_-1_line_1cz9tw91b8gq9x-stroke-fill" data-item-order="-317351" transform="translate(32, 386)">
    <g id="sy_-1_line_1cz9tw91b8gq9x-stroke" fill="none" stroke-linecap="round" stroke-linejoin="round" stroke-miterlimit="4" stroke="#f4f4f4" stroke-width="2">
      <g>
        <path d="M 704 10L 10 10"/>
        <path d="M 698 16.5L 704.5 10L 698 3.5" stroke-dasharray="none"/>
      </g>
    </g>
  </g>
  <g id="g-root-tx_unexplai_1449aqh1b8gnwu-stroke-fill" data-item-order="0" transform="translate(800, 362)">
    <g id="tx_unexplai_1449aqh1b8gnwu-fill" stroke="none" fill="#f4f4f4">
      <g>
        <text style="font: 20px Roboto, sans-serif; white-space: pre;" font-size="20px" font-family="Roboto, sans-serif">
          <tspan x="12" y="34" dominant-baseline="ideographic">Unexplained Aerial </tspan>
          <tspan x="12" y="58" dominant-baseline="ideographic">Phenomena</tspan>
        </text>
      </g>
    </g>
  </g>
  <g id="g-root-tx_experime_qsssd51b8gphr-stroke-fill" data-item-order="0" transform="translate(452, 434)">
    <g id="tx_experime_qsssd51b8gphr-fill" stroke="none" fill="#f4f4f4">
      <g>
        <text style="font: 20px Roboto, sans-serif; white-space: pre;" font-size="20px" font-family="Roboto, sans-serif">
          <tspan x="15.23" y="34" dominant-baseline="ideographic">Experimental aircraft</tspan>
        </text>
      </g>
    </g>
  </g>
  <g id="g-root-tx_astronom_mcza8p1b8gqa0-stroke-fill" data-item-order="0" transform="translate(416, 518)">
    <g id="tx_astronom_mcza8p1b8gqa0-fill" stroke="none" fill="#f4f4f4">
      <g>
        <text style="font: 20px Roboto, sans-serif; white-space: pre;" font-size="20px" font-family="Roboto, sans-serif">
          <tspan x="22.7" y="34" dominant-baseline="ideographic">Astronomical objects</tspan>
        </text>
      </g>
    </g>
  </g>
  <g id="g-root-tx_skeptica_9258yh1b8gop5-stroke-fill" data-item-order="0" transform="translate(344, 602)">
    <g id="tx_skeptica_9258yh1b8gop5-fill" stroke="none" fill="#f4f4f4">
      <g>
        <text style="font: 20px Roboto, sans-serif; white-space: pre;" font-size="20px" font-family="Roboto, sans-serif">
          <tspan x="23.39" y="34" dominant-baseline="ideographic">Skeptical Explanations</tspan>
        </text>
      </g>
    </g>
  </g>
  <g id="g-root-tx_detailed_4mbqu11b8gphe-stroke-fill" data-item-order="0" transform="translate(488, 314)">
    <g id="tx_detailed_4mbqu11b8gphe-fill" stroke="none" fill="#f4f4f4">
      <g>
        <text style="font: 20px Roboto, sans-serif; white-space: pre;" font-size="20px" font-family="Roboto, sans-serif">
          <tspan x="13.63" y="34" dominant-baseline="ideographic">Detailed debriefs</tspan>
        </text>
      </g>
    </g>
  </g>
  <g id="g-root-tx_usintell_1urssk91b8gq2z-stroke-fill" data-item-order="0" transform="translate(464, 218)">
    <g id="tx_usintell_1urssk91b8gq2z-fill" stroke="none" fill="#f4f4f4">
      <g>
        <text style="font: 20px Roboto, sans-serif; white-space: pre;" font-size="20px" font-family="Roboto, sans-serif">
          <tspan x="22.05" y="34" dominant-baseline="ideographic">U.S. intelligence </tspan>
          <tspan x="56.38" y="58" dominant-baseline="ideographic">involvement</tspan>
        </text>
      </g>
    </g>
  </g>
  <g id="g-root-tx_document_1hgyra11b8goi4-stroke-fill" data-item-order="0" transform="translate(356, 146)">
    <g id="tx_document_1hgyra11b8goi4-fill" stroke="none" fill="#f4f4f4">
      <g>
        <text style="font: 20px Roboto, sans-serif; white-space: pre;" font-size="20px" font-family="Roboto, sans-serif">
          <tspan x="13.72" y="34" dominant-baseline="ideographic">Documented Evidence</tspan>
        </text>
      </g>
    </g>
  </g>
  <g id="g-root-tx_communic_1d1595l1b8gpad-stroke-fill" data-item-order="0" transform="translate(176, 422)">
    <g id="tx_communic_1d1595l1b8gpad-fill" stroke="none" fill="#f4f4f4">
      <g>
        <text style="font: 20px Roboto, sans-serif; white-space: pre;" font-size="20px" font-family="Roboto, sans-serif">
          <tspan x="12.03" y="34" dominant-baseline="ideographic">Communications </tspan>
          <tspan x="64.31" y="58" dominant-baseline="ideographic">disruptions</tspan>
        </text>
      </g>
    </g>
  </g>
  <g id="g-root-tx_instrume_zqb7vd1b8gnpi-stroke-fill" data-item-order="0" transform="translate(128, 518)">
    <g id="tx_instrume_zqb7vd1b8gnpi-fill" stroke="none" fill="#f4f4f4">
      <g>
        <text style="font: 20px Roboto, sans-serif; white-space: pre;" font-size="20px" font-family="Roboto, sans-serif">
          <tspan x="20.05" y="34" dominant-baseline="ideographic">Instrument failures</tspan>
        </text>
      </g>
    </g>
  </g>
  <g id="g-root-tx_electrom_quo7mh1b8goi7-stroke-fill" data-item-order="0" transform="translate(92, 590)">
    <g id="tx_electrom_quo7mh1b8goi7-fill" stroke="none" fill="#f4f4f4">
      <g>
        <text style="font: 20px Roboto, sans-serif; white-space: pre;" font-size="20px" font-family="Roboto, sans-serif">
          <tspan x="18.98" y="34" dominant-baseline="ideographic">Electromagnetic </tspan>
          <tspan x="101.19" y="58" dominant-baseline="ideographic">Effects</tspan>
        </text>
      </g>
    </g>
  </g>
  <g id="g-root-tx_consiste_meupi11b8gpag-stroke-fill" data-item-order="0" transform="translate(140, 314)">
    <g id="tx_consiste_meupi11b8gpag-fill" stroke="none" fill="#f4f4f4">
      <g>
        <text style="font: 20px Roboto, sans-serif; white-space: pre;" font-size="20px" font-family="Roboto, sans-serif">
          <tspan x="17.16" y="34" dominant-baseline="ideographic">Consistent accounts</tspan>
        </text>
      </g>
    </g>
  </g>
  <g id="g-root-tx_military_940o7t1b8gnpl-stroke-fill" data-item-order="0" transform="translate(140, 230)">
    <g id="tx_military_940o7t1b8gnpl-fill" stroke="none" fill="#f4f4f4">
      <g>
        <text style="font: 20px Roboto, sans-serif; white-space: pre;" font-size="20px" font-family="Roboto, sans-serif">
          <tspan x="23.19" y="34" dominant-baseline="ideographic">Military expertise</tspan>
        </text>
      </g>
    </g>
  </g>
  <g id="g-root-tx_witnessc_4o763d1b8gohu-stroke-fill" data-item-order="0" transform="translate(68, 146)">
    <g id="tx_witnessc_4o763d1b8gohu-fill" stroke="none" fill="#f4f4f4">
      <g>
        <text style="font: 20px Roboto, sans-serif; white-space: pre;" font-size="20px" font-family="Roboto, sans-serif">
          <tspan x="23.41" y="34" dominant-baseline="ideographic">Witness Credibility</tspan>
        </text>
      </g>
    </g>
  </g>
  <g id="g-root-tx_analyzin_1uto7tl1b8gp3f-stroke-fill" data-item-order="0" transform="translate(368, 50)">
    <g id="tx_analyzin_1uto7tl1b8gp3f-fill" stroke="none" fill="#f4f4f4">
      <g>
        <text style="font: 20px Roboto, sans-serif; white-space: pre;" font-size="20px" font-family="Roboto, sans-serif">
          <tspan x="14.02" y="34" dominant-baseline="ideographic">Analyzing the Tehran UFO Incident</tspan>
        </text>
      </g>
    </g>
    <defs>
      <pattern id="crawlingPattern-0000001b" x="0" y="0" width="12" height="12" patternUnits="userSpaceOnUse" fill="#0000001b">
        <use href="#crawlingSymbol"/>
      </pattern>
      <symbol id="crawlingSymbol">
        <g>
          <path d="M -12.5 12.5 l 13 -13 l 6 0 l -13 13 Z M -0.5 12.5 l 13 -13 l 6 0 l -13 13 Z M 11.5 12.5 l 13 -13 l 6 0 l -13 13 Z"/>
        </g>
      </symbol>
    </defs>
  </g>
  <g id="g-root-ic_2_1qdupp51b8gpvo-stroke-fill" data-item-order="0" transform="translate(260, 140)">
    <g id="ic_2_1qdupp51b8gpvo-stroke" fill="none" stroke-linecap="round" stroke-linejoin="round" stroke-miterlimit="4" stroke="#f4f4f4" stroke-width="2">
      <g>
        <path d="M 28 16.636L 28 10.75M 28 45.25L 28 39.363998M 16.636 28L 10.75 28M 45.25 28L 39.363998 28M 13.723001 28C 13.723001 35.87006 20.102942 42.25 27.973 42.25C 35.843056 42.25 42.223 35.87006 42.223 28C 42.223 20.129942 35.843056 13.75 27.973 13.75C 20.102942 13.75 13.723001 20.129942 13.723001 28M 26.5 33.25L 26.5 25C 26.5 23.343145 25.156855 22 23.5 22C 21.843145 22 20.5 23.343145 20.5 25L 20.5 33.25M 20.5 28.75L 26.5 28.75M 36.25 30.25C 36.25 31.906855 34.906857 33.25 33.25 33.25L 31 33.25L 31 22L 33.25 22C 34.906857 22 36.25 23.343145 36.25 25Z"/>
      </g>
    </g>
  </g>
  <g id="g-root-ic_plan_18i7grd1b7yebx-stroke-fill" data-item-order="0" transform="translate(260, 596)">
    <g id="ic_plan_18i7grd1b7yebx-stroke" fill="none" stroke-linecap="round" stroke-linejoin="round" stroke-miterlimit="4" stroke="#f4f4f4" stroke-width="2">
      <g>
        <path d="M 34.3675 23.349998L 36.017498 20.049999L 43.067501 17.424999C 44.600426 16.79188 45.329712 15.035828 44.696293 13.503026C 44.06287 11.970224 42.306679 11.241281 40.773998 11.875L 20.269001 20.799999L 16.0795 18.700001C 15.882141 18.600828 15.651102 18.593695 15.448 18.6805L 11.536 20.3605C 11.307465 20.45874 11.142509 20.663902 11.095632 20.908201C 11.048756 21.152502 11.126058 21.404148 11.302 21.58L 16.917999 27.1975C 17.130251 27.41028 17.449028 27.475807 17.728001 27.364L 28.518999 23.049999L 24.425499 33.960999M 34.025501 14.8105L 24.3265 10.807C 24.143028 10.731162 23.936974 10.731162 23.7535 10.807L 20.171501 12.2935C 19.891129 12.409531 19.708294 12.683067 19.708294 12.9865C 19.708294 13.289932 19.891129 13.56347 20.171501 13.679501L 28.599998 17.17M 35.081501 38.5L 35.081501 34.75M 42.400002 43.031502L 36.400002 31.0315C 36.137199 30.54945 35.632034 30.249491 35.083 30.249491C 34.533966 30.249491 34.028801 30.54945 33.765999 31.0315L 27.765999 43.031502C 27.512371 43.4963 27.522585 44.060394 27.792881 44.515709C 28.063175 44.971024 28.553501 45.250099 29.083 45.25L 41.083 45.25C 41.612503 45.250099 42.102825 44.971024 42.373119 44.515709C 42.643414 44.060394 42.653629 43.4963 42.400002 43.031502ZM 35.081501 41.125C 35.288609 41.125 35.456501 41.292892 35.456501 41.5C 35.456501 41.707108 35.288609 41.875 35.081501 41.875C 34.874393 41.875 34.706501 41.707108 34.706501 41.5C 34.706501 41.292892 34.874393 41.125 35.081501 41.125"/>
      </g>
    </g>
  </g>
  <g id="g-root-ic_docs_7ra1l1b7zuha-stroke-fill" data-item-order="0" transform="translate(572, 140)">
    <g id="ic_docs_7ra1l1b7zuha-stroke" fill="none" stroke-linecap="round" stroke-linejoin="round" stroke-miterlimit="4" stroke="#f4f4f4" stroke-width="2">
      <g>
        <path d="M 42.25 42.25C 42.25 43.906857 40.906857 45.25 39.25 45.25L 16.75 45.25C 15.093145 45.25 13.75 43.906857 13.75 42.25L 13.75 13.75C 13.75 12.093145 15.093145 10.75 16.75 10.75L 32.5 10.75L 42.25 20.5ZM 42.25 20.5L 35.5 20.5C 33.843147 20.5 32.5 19.156855 32.5 17.5L 32.5 10.75ZM 36.25 25.75L 19.75 25.75M 36.25 30.505001L 19.75 30.505001M 36.25 35.244999L 19.75 35.244999M 28 40L 19.75 40"/>
      </g>
    </g>
  </g>
  <g id="g-root-ic_shop_dcckgp1b82mte-stroke-fill" data-item-order="0" transform="translate(572, 596)">
    <g id="ic_shop_dcckgp1b82mte-stroke" fill="none" stroke-linecap="round" stroke-linejoin="round" stroke-miterlimit="4" stroke="#f4f4f4" stroke-width="2">
      <g>
        <path d="M 10.75 28C 10.75 37.526913 18.473087 45.25 28 45.25C 37.526913 45.25 45.25 37.526913 45.25 28C 45.25 18.473087 37.526913 10.75 28 10.75C 18.473087 10.75 10.75 18.473087 10.75 28M 16 28C 16 34.627419 21.372583 40 28 40C 34.627419 40 40 34.627419 40 28C 40 21.372583 34.627419 16 28 16C 21.372583 16 16 21.372583 16 28M 22.645 29.275002C 27.325001 28.674999 32.77 26.275002 32.424999 23.424999C 32.110001 20.889999 28.809999 20.950001 26.83 22C 22.719999 24.205 20.695 32.5 25 34.420002C 28.389999 35.920002 31.285 31.719999 31.285 31.719999"/>
      </g>
    </g>
  </g>
  <g id="g-root-ic_muha_1upazdl1b842rq-stroke-fill" data-item-order="0" transform="translate(740, 362)">
    <g id="ic_muha_1upazdl1b842rq-stroke" fill="none" stroke-linecap="round" stroke-linejoin="round" stroke-miterlimit="4" stroke="#f4f4f4" stroke-width="2">
      <g>
        <path d="M 34 49.099998C 35.988197 49.099998 37.599998 47.488201 37.599998 45.5C 37.599998 43.511799 35.988197 41.900002 34 41.900002C 32.011803 41.900002 30.4 43.511799 30.4 45.5C 30.4 47.488201 32.011803 49.099998 34 49.099998ZM 29 56.5L 29 54.099998C 29 51.299999 31.200001 49.099998 34 49.099998C 36.799999 49.099998 39 51.299999 39 54.099998L 39 56.5M 10 10M 27.900021 37.9002L 11.700012 48.300201M 11.7 11.500122L 14.1 11.500122C 16.299999 11.500122 18.1 13.30012 18.1 15.50012C 20.9 15.50012 23.1 17.700119 23.1 20.50012L 24.1 20.50012C 26.299999 20.50012 28.1 22.300121 28.1 24.50012C 28.1 24.50012 28.299999 28.100121 25.299999 29.100121C 23.299999 29.700121 21.1 28.300119 20.5 26.100121L 20.5 25.90012C 20.299999 26.100121 19.9 26.1001 19.5 26.3001C 17.299999 26.7001 15.3 25.500099 14.7 23.3001L 14.7 22.100121C 14.3 22.300121 13.9 22.50012 13.5 22.50012C 12.7 22.700119 12.1 22.700119 11.5 22.50012M 27.9 37.9002C 24.700001 36.9002 22.5 33.9002 22.5 30.3002C 22.5 29.70014 22.5 29.30014 22.700001 28.900141M 15.9 31.5002C 15.9 31.5002 15.9 38.9002 21.700001 41.700199M 11.700012 39.299999C 12.30002 41.099998 13.50002 43.700001 15.70002 45.5M 10 10M 40.099998 37.9002L 56.299999 48.300201M 56.299999 11.500122L 53.900002 11.500122C 51.700001 11.500122 49.900002 13.30012 49.900002 15.50012C 47.099998 15.50012 44.900002 17.700119 44.900002 20.50012L 43.900002 20.50012C 41.700001 20.50012 39.900002 22.300121 39.900002 24.50012C 39.900002 24.50012 39.700001 28.100121 42.700001 29.100121C 44.700001 29.700121 46.900002 28.300119 47.5 26.100121L 47.5 25.90012C 47.700001 26.100121 48.099998 26.1001 48.5 26.3001C 50.700001 26.7001 52.700001 25.500099 53.299999 23.3001L 53.299999 22.100121C 53.700001 22.300121 54.099998 22.50012 54.5 22.50012C 55.299999 22.700119 55.900002 22.700119 56.5 22.50012M 40.099998 37.9002C 43.299999 36.9002 45.5 33.9002 45.5 30.3002C 45.5 29.70014 45.5 29.30014 45.299999 28.900141M 52.099998 31.5002C 52.099998 31.5002 52.099998 38.9002 46.299999 41.700199M 56.299999 39.299999C 55.700001 41.099998 54.5 43.700001 52.299999 45.5"/>
      </g>
    </g>
  </g>
</svg>
