<?xml version='1.0' encoding='utf-8'?>
<svg xmlns="http://www.w3.org/2000/svg" xmlns:xlink="http://www.w3.org/1999/xlink" width="840" height="624" viewBox="0 0 840 624" style="fill:none;stroke:none;fill-rule:evenodd;clip-rule:evenodd;stroke-linecap:round;stroke-linejoin:round;stroke-miterlimit:1.5;" version="1.1">
  <style class="text-font-style fontImports" data-font-family="Roboto">@import url('https://fonts.googleapis.com/css2?family=Roboto:wght@400;700&amp;display=block');</style>
  <rect x="0" y="0" width="8.4E+2" height="624" fill="#252a34" stroke="none" id="programmatic_background"/>
  <g id="g-root-tf_1hit4m11cm4ufb-stroke-fill" data-item-order="-482400" transform="translate(18, 12)">
    <g id="tf_1hit4m11cm4ufb-fill" stroke="none" fill="#2c2c2c">
      <g>
        <path d="M 0 0L 804 0L 804 600L 0 600Z"/>
      </g>
    </g>
    <defs>
      <pattern id="crawlingPattern-ffe50099" x="0" y="0" width="12" height="12" patternUnits="userSpaceOnUse" fill="#ffe50099">
        <use href="#crawlingSymbol"/>
      </pattern>
      <symbol id="crawlingSymbol">
        <g>
          <path d="M -12.5 12.5 l 13 -13 l 6 0 l -13 13 Z M -0.5 12.5 l 13 -13 l 6 0 l -13 13 Z M 11.5 12.5 l 13 -13 l 6 0 l -13 13 Z"/>
        </g>
      </symbol>
      <pattern id="crawlingPattern-f576002d" x="0" y="0" width="12" height="12" patternUnits="userSpaceOnUse" fill="#f576002d">
        <use href="#crawlingSymbol"/>
      </pattern>
      <pattern id="crawlingPattern-f908001a" x="0" y="0" width="12" height="12" patternUnits="userSpaceOnUse" fill="#f908001a">
        <use href="#crawlingSymbol"/>
      </pattern>
      <pattern id="crawlingPattern-ec07911a" x="0" y="0" width="12" height="12" patternUnits="userSpaceOnUse" fill="#ec07911a">
        <use href="#crawlingSymbol"/>
      </pattern>
      <pattern id="crawlingPattern-0000001b" x="0" y="0" width="12" height="12" patternUnits="userSpaceOnUse" fill="#0000001b">
        <use href="#crawlingSymbol"/>
      </pattern>
      <pattern id="crawlingPattern-f17400d3" x="0" y="0" width="12" height="12" patternUnits="userSpaceOnUse" fill="#f17400d3">
        <use href="#crawlingSymbol"/>
      </pattern>
      <pattern id="crawlingPattern-ff7b003a" x="0" y="0" width="12" height="12" patternUnits="userSpaceOnUse" fill="#ff7b003a">
        <use href="#crawlingSymbol"/>
      </pattern>
      <pattern id="crawlingPattern-eb008e76" x="0" y="0" width="12" height="12" patternUnits="userSpaceOnUse" fill="#eb008e76">
        <use href="#crawlingSymbol"/>
      </pattern>
      <pattern id="crawlingPattern-ff009b38" x="0" y="0" width="12" height="12" patternUnits="userSpaceOnUse" fill="#ff009b38">
        <use href="#crawlingSymbol"/>
      </pattern>
      <pattern id="crawlingPattern-ddc700ff" x="0" y="0" width="12" height="12" patternUnits="userSpaceOnUse" fill="#ddc700ff">
        <use href="#crawlingSymbol"/>
      </pattern>
      <pattern id="crawlingPattern-ffe7003d" x="0" y="0" width="12" height="12" patternUnits="userSpaceOnUse" fill="#ffe7003d">
        <use href="#crawlingSymbol"/>
      </pattern>
      <pattern id="crawlingPattern-f9080081" x="0" y="0" width="12" height="12" patternUnits="userSpaceOnUse" fill="#f9080081">
        <use href="#crawlingSymbol"/>
      </pattern>
      <pattern id="crawlingPattern-ff0b0038" x="0" y="0" width="12" height="12" patternUnits="userSpaceOnUse" fill="#ff0b0038">
        <use href="#crawlingSymbol"/>
      </pattern>
      <pattern id="crawlingPattern-5f5f5f1a" x="0" y="0" width="12" height="12" patternUnits="userSpaceOnUse" fill="#5f5f5f1a">
        <use href="#crawlingSymbol"/>
      </pattern>
    </defs>
  </g>
  <g id="g-root-cp_0_g-0_1q5phnd1clwemi-stroke-fill" data-item-order="-380983" transform="translate(56.130859375, 272.5)">
    <g id="cp_0_g-0_1q5phnd1clwemi-stroke" fill="none" stroke-linecap="round" stroke-linejoin="round" stroke-miterlimit="4" stroke="#f4f4f4" stroke-width="2">
      <g>
        <path d="M 645.869141 51.5L 717.869141 51.5M 106 51L 262 51M 286 51L 442 51M 274 63.5L 274 93M 454 10L 454 39.5M 466 51L 622 51M 634 63.5L 634 93M 10 51L 82 51M 94 10L 94 39.5"/>
      </g>
    </g>
  </g>
  <g id="g-root-cp_1_g-1_1lpvzix1clwfes-stroke-fill" data-item-order="-380964" transform="translate(95.13101196289062, 149)">
    <g id="cp_1_g-1_1lpvzix1clwfes-fill" stroke="none" fill="#ffe711">
      <g>
        <path d="M 100 55C 100 66.244 94.5 77.5875 89 86L 55.816 132.848C 55.4175 133.411 54.5825 133.411 54.184 132.848L 21 86C 14.5 77 10 66.7284 10 55C 10 30.1472 30.1472 10 55 10C 79.8528 10 100 30.1472 100 55ZM 55 91C 74.8822 91 91 74.8822 91 55C 91 35.1177 74.8822 19 55 19C 35.1177 19 19 35.1177 19 55C 19 74.8822 35.1177 91 55 91Z"/>
      </g>
    </g>
    <g id="cp_1_g-1_1lpvzix1clwfes-stroke" fill="none" stroke-linecap="round" stroke-linejoin="round" stroke-miterlimit="4" stroke="#2c2c2c" stroke-width="2">
      <g>
        <path d="M 100 55C 100 66.244 94.5 77.5875 89 86L 55.816 132.848C 55.4175 133.4106 54.5825 133.4106 54.184 132.848L 21 86C 14.5 77 10 66.7284 10 55C 10 30.1472 30.1472 10 55 10C 79.8528 10 100 30.1472 100 55ZM 55 91C 74.8822 91 91 74.8822 91 55C 91 35.1177 74.8822 19 55 19C 35.1177 19 19 35.1177 19 55C 19 74.8822 35.1177 91 55 91Z"/>
      </g>
    </g>
    <g id="cp_1_g-1_1lpvzix1clwfes-fill" stroke="none" fill="#ffe711">
      <g>
        <path d="M 55 187C 61.6274 187 67 181.6274 67 175C 67 168.3726 61.6274 163 55 163C 48.3726 163 43 168.3726 43 175C 43 181.6274 48.3726 187 55 187ZM 55 181C 58.3137 181 61 178.3137 61 175C 61 171.6863 58.3137 169 55 169C 51.6863 169 49 171.6863 49 175C 49 178.3137 51.6863 181 55 181Z"/>
      </g>
    </g>
    <g id="cp_1_g-1_1lpvzix1clwfes-stroke" fill="none" stroke-linecap="round" stroke-linejoin="round" stroke-miterlimit="4" stroke="#2c2c2c" stroke-width="2">
      <g>
        <path d="M 55 187C 61.6274 187 67 181.6274 67 175C 67 168.3726 61.6274 163 55 163C 48.3726 163 43 168.3726 43 175C 43 181.6274 48.3726 187 55 187ZM 55 181C 58.3137 181 61 178.3137 61 175C 61 171.6863 58.3137 169 55 169C 51.6863 169 49 171.6863 49 175C 49 178.3137 51.6863 181 55 181Z"/>
      </g>
    </g>
  </g>
  <g id="g-root-cp_2_g-2_18f1y8p1clwdtz-stroke-fill" data-item-order="-380960" transform="translate(275.1309814453125, 302)">
    <g id="cp_2_g-2_18f1y8p1clwdtz-fill" stroke="none" fill="#f79438">
      <g>
        <path d="M 100 142.000369C 100 130.756469 94.5 119.412869 89 111.000369L 55.816 64.152469C 55.4175 63.589769 54.5825 63.589769 54.184 64.152469L 21 111.000369C 14.5 120.000369 10 130.271969 10 142.000369C 10 166.853469 30.1472 187.000469 55 187.000469C 79.8528 187.000469 100 166.853469 100 142.000369ZM 55 106.000369C 74.8822 106.000369 91 122.118169 91 142.000369C 91 161.882669 74.8822 178.000469 55 178.000469C 35.1177 178.000469 19 161.882669 19 142.000369C 19 122.118169 35.1177 106.000369 55 106.000369Z"/>
      </g>
    </g>
    <g id="cp_2_g-2_18f1y8p1clwdtz-stroke" fill="none" stroke-linecap="round" stroke-linejoin="round" stroke-miterlimit="4" stroke="#2c2c2c" stroke-width="2">
      <g>
        <path d="M 100 142.000369C 100 130.756469 94.5 119.412869 89 111.000369L 55.816 64.152469C 55.4175 63.589769 54.5825 63.589769 54.184 64.152469L 21 111.000369C 14.5 120.000369 10 130.271969 10 142.000369C 10 166.853269 30.1472 187.000369 55 187.000369C 79.8528 187.000369 100 166.853269 100 142.000369ZM 55 106.000369C 74.8822 106.000369 91 122.118169 91 142.000369C 91 161.882669 74.8822 178.000369 55 178.000369C 35.1177 178.000369 19 161.882669 19 142.000369C 19 122.118169 35.1177 106.000369 55 106.000369Z"/>
      </g>
    </g>
    <g id="cp_2_g-2_18f1y8p1clwdtz-fill" stroke="none" fill="#f79438">
      <g>
        <path d="M 55 34C 61.6274 34 67 28.6274 67 22C 67 15.3726 61.6274 10 55 10C 48.3726 10 43 15.3726 43 22C 43 28.6274 48.3726 34 55 34ZM 55 28C 58.3137 28 61 25.3137 61 22C 61 18.6863 58.3137 16 55 16C 51.6863 16 49 18.6863 49 22C 49 25.3137 51.6863 28 55 28Z"/>
      </g>
    </g>
    <g id="cp_2_g-2_18f1y8p1clwdtz-stroke" fill="none" stroke-linecap="round" stroke-linejoin="round" stroke-miterlimit="4" stroke="#2c2c2c" stroke-width="2">
      <g>
        <path d="M 55 34C 61.6274 34 67 28.6274 67 22C 67 15.3726 61.6274 10 55 10C 48.3726 10 43 15.3726 43 22C 43 28.6274 48.3726 34 55 34ZM 55 28C 58.3137 28 61 25.3137 61 22C 61 18.6863 58.3137 16 55 16C 51.6863 16 49 18.6863 49 22C 49 25.3137 51.6863 28 55 28Z"/>
      </g>
    </g>
  </g>
  <g id="g-root-cp_3_g-3_13z8g491clwema-stroke-fill" data-item-order="-380954" transform="translate(455.1310119628906, 149)">
    <g id="cp_3_g-3_13z8g491clwema-fill" stroke="none" fill="#fb6762">
      <g>
        <path d="M 100 55C 100 66.244 94.5 77.5875 89 86L 55.816 132.848C 55.4175 133.411 54.5825 133.411 54.184 132.848L 21 86C 14.5 77 10 66.7284 10 55C 10 30.1472 30.1472 10 55 10C 79.8528 10 100 30.1472 100 55ZM 55 91C 74.8822 91 91 74.8822 91 55C 91 35.1177 74.8822 19 55 19C 35.1177 19 19 35.1177 19 55C 19 74.8822 35.1177 91 55 91Z"/>
      </g>
    </g>
    <g id="cp_3_g-3_13z8g491clwema-stroke" fill="none" stroke-linecap="round" stroke-linejoin="round" stroke-miterlimit="4" stroke="#2c2c2c" stroke-width="2">
      <g>
        <path d="M 100 55C 100 66.244 94.5 77.5875 89 86L 55.816 132.848C 55.4175 133.4106 54.5825 133.4106 54.184 132.848L 21 86C 14.5 77 10 66.7284 10 55C 10 30.1472 30.1472 10 55 10C 79.8528 10 100 30.1472 100 55ZM 55 91C 74.8822 91 91 74.8822 91 55C 91 35.1177 74.8822 19 55 19C 35.1177 19 19 35.1177 19 55C 19 74.8822 35.1177 91 55 91Z"/>
      </g>
    </g>
    <g id="cp_3_g-3_13z8g491clwema-fill" stroke="none" fill="#fb6762">
      <g>
        <path d="M 55 187C 61.6274 187 67 181.6274 67 175C 67 168.3726 61.6274 163 55 163C 48.3726 163 43 168.3726 43 175C 43 181.6274 48.3726 187 55 187ZM 55 181C 58.3137 181 61 178.3137 61 175C 61 171.6863 58.3137 169 55 169C 51.6863 169 49 171.6863 49 175C 49 178.3137 51.6863 181 55 181Z"/>
      </g>
    </g>
    <g id="cp_3_g-3_13z8g491clwema-stroke" fill="none" stroke-linecap="round" stroke-linejoin="round" stroke-miterlimit="4" stroke="#2c2c2c" stroke-width="2">
      <g>
        <path d="M 55 187C 61.6274 187 67 181.6274 67 175C 67 168.3726 61.6274 163 55 163C 48.3726 163 43 168.3726 43 175C 43 181.6274 48.3726 187 55 187ZM 55 181C 58.3137 181 61 178.3137 61 175C 61 171.6863 58.3137 169 55 169C 51.6863 169 49 171.6863 49 175C 49 178.3137 51.6863 181 55 181Z"/>
      </g>
    </g>
  </g>
  <g id="g-root-cp_4_g-4_v3lfvd1clwff1-stroke-fill" data-item-order="-380948" transform="translate(635.1309814453125, 302)">
    <g id="cp_4_g-4_v3lfvd1clwff1-fill" stroke="none" fill="#f366bb">
      <g>
        <path d="M 100 142.000369C 100 130.756469 94.5 119.412869 89 111.000369L 55.816 64.152469C 55.4175 63.589769 54.5825 63.589769 54.184 64.152469L 21 111.000369C 14.5 120.000369 10 130.271969 10 142.000369C 10 166.853469 30.1472 187.000469 55 187.000469C 79.8528 187.000469 100 166.853469 100 142.000369ZM 55 106.000369C 74.8822 106.000369 91 122.118169 91 142.000369C 91 161.882669 74.8822 178.000469 55 178.000469C 35.1177 178.000469 19 161.882669 19 142.000369C 19 122.118169 35.1177 106.000369 55 106.000369Z"/>
      </g>
    </g>
    <g id="cp_4_g-4_v3lfvd1clwff1-stroke" fill="none" stroke-linecap="round" stroke-linejoin="round" stroke-miterlimit="4" stroke="#2c2c2c" stroke-width="2">
      <g>
        <path d="M 100 142.000369C 100 130.756469 94.5 119.412869 89 111.000369L 55.816 64.152469C 55.4175 63.589769 54.5825 63.589769 54.184 64.152469L 21 111.000369C 14.5 120.000369 10 130.271969 10 142.000369C 10 166.853269 30.1472 187.000369 55 187.000369C 79.8528 187.000369 100 166.853269 100 142.000369ZM 55 106.000369C 74.8822 106.000369 91 122.118169 91 142.000369C 91 161.882669 74.8822 178.000369 55 178.000369C 35.1177 178.000369 19 161.882669 19 142.000369C 19 122.118169 35.1177 106.000369 55 106.000369Z"/>
      </g>
    </g>
    <g id="cp_4_g-4_v3lfvd1clwff1-fill" stroke="none" fill="#f366bb">
      <g>
        <path d="M 55 34C 61.6274 34 67 28.6274 67 22C 67 15.3726 61.6274 10 55 10C 48.3726 10 43 15.3726 43 22C 43 28.6274 48.3726 34 55 34ZM 55 28C 58.3137 28 61 25.3137 61 22C 61 18.6863 58.3137 16 55 16C 51.6863 16 49 18.6863 49 22C 49 25.3137 51.6863 28 55 28Z"/>
      </g>
    </g>
    <g id="cp_4_g-4_v3lfvd1clwff1-stroke" fill="none" stroke-linecap="round" stroke-linejoin="round" stroke-miterlimit="4" stroke="#2c2c2c" stroke-width="2">
      <g>
        <path d="M 55 34C 61.6274 34 67 28.6274 67 22C 67 15.3726 61.6274 10 55 10C 48.3726 10 43 15.3726 43 22C 43 28.6274 48.3726 34 55 34ZM 55 28C 58.3137 28 61 25.3137 61 22C 61 18.6863 58.3137 16 55 16C 51.6863 16 49 18.6863 49 22C 49 25.3137 51.6863 28 55 28Z"/>
      </g>
    </g>
  </g>
  <g id="g-root-ic_road_dcxwgp1clwemh-stroke-fill" data-item-order="-2304" transform="translate(296.1310119628906, 410.0000305175781)">
    <g id="ic_road_dcxwgp1clwemh-fill" stroke="none" fill="#f79438">
      <g>
        <path d="M 51.179974 37.179981C 51.046162 36.718243 50.597172 36.421738 50.119972 36.47998L 49.499973 36.47998C 47.415573 36.485405 45.422932 35.623135 43.999977 34.099983C 43.908791 33.989643 43.773117 33.925758 43.629974 33.925758C 43.486835 33.925758 43.351162 33.989643 43.259975 34.099983C 41.586357 36.105164 39.304218 37.509556 36.759983 38.099983C 36.313316 38.202873 35.997643 38.601627 35.999985 39.059982L 35.999985 42.999977C 35.999985 44.104546 35.104553 44.999977 33.999985 44.999977C 32.895416 44.999977 31.999985 44.104546 31.999985 42.999977L 31.999985 39.11998C 32.002331 38.661625 31.686651 38.262875 31.239986 38.159981C 28.695751 37.569553 26.41361 36.165165 24.73999 34.159985C 24.648413 34.057594 24.517357 33.999344 24.37999 33.999981C 24.230656 33.997845 24.086655 34.055447 23.97999 34.159985C 22.57106 35.693558 20.582518 36.564449 18.499994 36.559982L 17.879995 36.559982C 17.402796 36.50174 16.953808 36.798241 16.819996 37.259983L 11.039999 56.719971C 10.951867 57.022137 11.011145 57.348164 11.199999 57.599968C 11.38447 57.856968 11.683714 58.006592 11.999999 57.999966L 30.999987 57.999969C 31.552271 57.999969 31.999985 57.552254 31.999985 56.999969L 31.999985 50.999973C 31.999985 49.895405 32.895416 48.999973 33.999985 48.999973C 35.104553 48.999973 35.999985 49.895405 35.999985 50.999973L 35.999985 56.999969C 35.999985 57.552254 36.447697 57.999969 36.999981 57.999969L 55.999969 57.999969C 56.31625 58.006592 56.615498 57.856968 56.799965 57.599968C 56.988823 57.348164 57.048103 57.022137 56.959969 56.719971ZM 55.999969 23.99999L 43.179977 23.99999C 42.76955 24.000355 42.40237 23.744926 42.259979 23.359991C 41.303558 20.808783 39.233601 18.834587 36.63998 17.999994C 36.251205 17.862598 35.993599 17.492283 35.999981 17.079994L 35.999985 12.219998C 35.999985 11.11543 35.104553 10.22 33.999985 10.22C 32.895416 10.22 31.999985 11.11543 31.999985 12.219998L 31.999985 17.079996C 32.000751 17.502979 31.724581 17.876625 31.319984 17.999994C 28.745848 18.840721 26.692999 20.805275 25.73999 23.339991C 25.604294 23.732813 25.23558 23.997324 24.81999 23.99999L 11.999999 23.99999C 10.89543 23.99999 10 24.89542 10 25.999989C 10 27.104559 10.89543 27.999989 11.999999 27.999989L 13.999997 27.999989C 14.097188 27.966463 14.202807 27.966463 14.299997 27.999989C 14.396095 28.102531 14.446597 28.239607 14.439997 28.379988C 14.429227 28.526459 14.429227 28.673521 14.439997 28.819988C 14.596355 31.140484 16.524239 32.942833 18.849995 32.942833C 21.175751 32.942833 23.103632 31.140484 23.259991 28.819988C 23.270412 28.673506 23.270412 28.526468 23.259991 28.379988C 23.230677 28.250309 23.252148 28.114326 23.31999 27.999987C 23.436459 27.958811 23.563524 27.958811 23.679991 27.999989L 24.519991 27.999989C 24.964434 27.999989 25.355545 28.293322 25.47999 28.719988C 26.483971 32.604282 29.988041 35.317806 33.999985 35.317806C 38.011929 35.317806 41.516003 32.604282 42.519978 28.71999C 42.644421 28.293322 43.035534 27.999989 43.479977 27.999989L 44.319977 27.999989C 44.455845 28.006084 44.584408 28.063225 44.679977 28.159988C 44.768848 28.265694 44.812023 28.402411 44.799976 28.539988C 44.789555 28.686468 44.789555 28.833506 44.799976 28.979986C 44.956337 31.300484 46.88422 33.102833 49.209972 33.102833C 51.535732 33.102833 53.463615 31.300484 53.619976 28.979986C 53.630745 28.833521 53.630745 28.686459 53.619976 28.539989C 53.542416 28.359337 53.573368 28.150393 53.699966 27.999987C 53.797161 27.966463 53.902779 27.966463 53.999969 27.999989L 55.999969 27.999989C 57.104538 27.999989 57.999969 27.104559 57.999969 25.999989C 57.999969 24.89542 57.104538 23.99999 55.999969 23.99999ZM 18.819994 30.339987C 18.010361 30.340061 17.350937 29.689548 17.339994 28.87999C 17.350763 28.06711 18.007116 27.410757 18.819994 27.399988C 19.629555 27.410931 20.280067 28.070354 20.279993 28.87999C 20.279993 29.686323 19.626329 30.339987 18.819994 30.339987ZM 37.999981 24.459991L 30.219986 24.459991C 30.067924 24.46105 29.928413 24.375793 29.859987 24.23999C 29.781387 24.103855 29.781387 23.936127 29.859987 23.799992C 30.784658 22.365042 32.389488 21.514753 34.096073 21.55558C 35.802658 21.596409 37.364986 22.522467 38.219982 23.999992C 38.280716 24.105186 38.280716 24.234795 38.219982 24.339991C 38.166012 24.408236 38.086578 24.451563 37.999981 24.459991ZM 49.259972 30.339987C 48.45364 30.339987 47.79998 29.686323 47.79998 28.87999C 47.799904 28.070354 48.450413 27.410931 49.259975 27.39999C 50.072853 27.410757 50.729206 28.06711 50.739975 28.87999C 50.735115 29.283287 50.565872 29.667133 50.271393 29.942736C 49.976913 30.218338 49.58271 30.361818 49.179974 30.339987Z"/>
      </g>
    </g>
  </g>
  <g id="g-root-ic_ufo_v6ptax1clxtz9-stroke-fill" data-item-order="-2304" transform="translate(656.1309814453125, 410)">
    <g id="ic_ufo_v6ptax1clxtz9-fill" stroke="none" fill="#f366bb">
      <g>
        <path d="M 50.779999 39.48C 50.49268 38.408726 49.391396 37.77314 48.32008 38.060295C 47.24876 38.34745 46.613007 39.448639 46.899998 40.519997L 51.139999 56.52C 51.30584 57.231823 51.846767 57.796497 52.550816 57.992748C 53.25486 58.188999 54.009895 57.985573 54.520046 57.462177C 55.030201 56.938786 55.214222 56.178791 55 55.48ZM 19.82 38C 18.754391 37.720551 17.663445 38.355446 17.380001 39.419998L 13.14 55.419998C 12.925778 56.11879 13.109798 56.878784 13.619952 57.40218C 14.130106 57.925571 14.885139 58.129002 15.589186 57.932751C 16.293234 57.7365 16.83416 57.171825 17 56.459999L 21.24 40.459999C 21.380281 39.945396 21.309196 39.39608 21.042547 38.934139C 20.775898 38.472198 20.335775 38.135902 19.82 38ZM 38 49.860001C 39.203453 49.748383 40.123898 48.738621 40.123898 47.529999C 40.123898 46.321381 39.203453 45.311615 38 45.200001L 31.08 45.200001C 29.876545 45.311615 28.9561 46.321381 28.9561 47.529999C 28.9561 48.738621 29.876545 49.748383 31.08 49.860001L 32.239998 49.860001L 32.239998 50.18L 29.200001 54.299999C 28.437847 55.332775 28.657228 56.787849 29.690001 57.550003C 30.722773 58.312153 32.177849 58.092773 32.940002 57.060001L 34.599998 54.82L 36.200001 57.080002C 36.978722 58.129345 38.460663 58.348724 39.510002 57.570004C 40.559341 56.791279 40.778725 55.309341 40 54.260002L 37 50.16L 37 49.860001ZM 38 40.239998C 38.008102 38.822594 37.160507 37.540237 35.85331 36.992199C 34.546112 36.44416 33.03743 36.738647 32.032288 37.738045C 31.027142 38.73745 30.724012 40.244415 31.264553 41.554733C 31.805094 42.865051 33.082569 43.719978 34.5 43.720001C 35.426414 43.725323 36.316711 43.361034 36.973671 42.707829C 37.63063 42.054626 38.000015 41.166428 38 40.239998ZM 56.959999 29C 57.256584 29.003077 57.540375 28.879374 57.739998 28.659998C 57.943413 28.447105 58.032631 28.149708 57.98 27.860001C 57.289928 23.844007 53.774273 20.931278 49.700001 21L 18.299999 21C 14.218212 20.921293 10.691198 23.836391 10 27.860001C 9.947369 28.149708 10.036588 28.447105 10.24 28.66C 10.439621 28.879374 10.723413 29.003077 11.02 28.999998L 13.28 29C 13.484316 29.002653 13.666457 29.12936 13.74 29.32C 13.899547 29.722376 14.079787 30.116236 14.280001 30.500002C 16.065369 33.888172 19.580214 36.009026 23.41 36.009026C 27.239786 36.009026 30.754631 33.888172 32.540001 30.5C 32.740211 30.116236 32.920456 29.722376 33.080002 29.320002C 33.148697 29.125612 33.333855 28.996807 33.540001 28.999998L 34.459999 29C 34.666145 28.996807 34.851299 29.125612 34.919998 29.32C 35.079548 29.722376 35.259789 30.116236 35.459999 30.500002C 37.245369 33.888172 40.760216 36.009026 44.59 36.009026C 48.419785 36.009026 51.934631 33.888172 53.720001 30.5C 53.920216 30.116236 54.100456 29.722376 54.260002 29.320002C 54.328697 29.125612 54.513851 28.996807 54.719997 28.999998ZM 23.4 32C 21.569786 31.983295 19.832561 31.191006 18.619999 29.82C 18.522778 29.660299 18.522778 29.4597 18.619999 29.299999C 18.686577 29.141253 18.830135 29.027918 19 29L 27.799999 29C 27.999443 28.999306 28.180223 29.117207 28.26 29.299999C 28.367369 29.456707 28.367369 29.663294 28.26 29.82C 27.033712 31.218311 25.259802 32.014015 23.400002 32ZM 44.599998 32C 42.768101 31.990932 41.027901 31.197287 39.82 29.82C 39.712631 29.663294 39.712631 29.456707 39.82 29.299999C 39.899776 29.117207 40.080559 28.999306 40.279999 29L 49.080002 29C 49.272152 29.007078 49.443218 29.123714 49.52 29.299999C 49.627369 29.456707 49.627369 29.663294 49.52 29.82C 48.280025 31.234344 46.480667 32.031624 44.600002 32ZM 34 10C 28.477455 9.948547 23.296272 12.666791 20.200001 17.24C 20.121464 17.397415 20.121464 17.582584 20.200001 17.74C 20.291019 17.897736 20.457924 17.996361 20.639999 18L 47.5 18C 47.703251 18.01899 47.898815 17.917297 47.999996 17.74C 48.078533 17.582584 48.078533 17.397415 48 17.24C 44.864662 12.606876 39.593025 9.880686 34 10Z"/>
      </g>
    </g>
  </g>
  <g id="g-root-ic_prop_1hi6nix1clz7k3-stroke-fill" data-item-order="-2304" transform="translate(116.1309814453125, 170)">
    <g id="ic_prop_1hi6nix1clz7k3-fill" stroke="none" fill="#ffe711">
      <g>
        <path d="M 31.514 10.792C 28.875872 10.78292 26.343233 11.827169 24.478161 13.692993C 22.613087 15.558817 21.569859 18.091877 21.579998 20.73C 21.570389 23.368126 22.614128 25.900974 24.479576 27.766422C 26.345026 29.63187 28.877872 30.67561 31.515999 30.665998C 33.496002 30.666 35.349998 30.042 36.942001 29.032C 37.336502 28.783569 37.506996 28.295492 37.352982 27.855455C 37.198971 27.415421 36.761322 27.140192 36.298 27.191999C 34.528347 27.38098 32.761993 26.807049 31.441404 25.613974C 30.120813 24.420898 29.371078 22.721695 29.380001 20.942001C 29.373045 19.273624 30.033003 17.671629 31.21311 16.492275C 32.393215 15.31292 33.995628 14.653982 35.664001 14.662001C 36.158001 14.662001 36.634003 14.714001 37.084 14.812C 37.534935 14.910372 37.994614 14.687353 38.196449 14.272286C 38.398285 13.857219 38.289837 13.357937 37.933998 13.064C 36.124722 11.580654 33.853569 10.776908 31.514 10.792ZM 10.268 32.779999C 10.651986 31.744604 11.802474 31.216364 12.838 31.6C 19.577475 34.092033 26.706551 35.365204 33.892002 35.360001L 33.902 35.360001L 33.914001 35.360001C 41.445999 35.360001 48.59 34.042 55.161999 31.6C 56.197548 31.215549 57.348682 31.743401 57.733086 32.778969C 58.117489 33.814537 57.589584 34.965645 56.554001 35.349998C 55.448002 35.762001 54.327999 36.141998 53.194 36.489998L 53.194 41.346001C 54.618 41.972 55.667999 43.206001 56.194 44.605999C 56.200962 44.623215 56.20763 44.640549 56.213997 44.657997L 56.632 45.917999L 45.369999 45.917999L 45.790001 44.658001L 45.796001 44.638L 45.807999 44.605999C 46.380001 43.080002 47.574001 41.753998 49.194 41.194L 49.194 37.584C 44.925999 38.604 40.482002 39.197998 35.902 39.332001L 35.902 42.285999L 39.697998 45.321999C 40.104977 45.648251 40.313248 46.162495 40.248001 46.68L 40.07 48.102001L 27.733999 48.102001L 27.558001 46.68C 27.492752 46.162495 27.701025 45.648251 28.108 45.322002L 31.902 42.285999L 31.902 39.330002C 27.488707 39.19566 23.100643 38.611298 18.806 37.585999L 18.806 41.195999C 20.425999 41.753998 21.619999 43.080002 22.192001 44.605999C 22.198982 44.623211 22.20565 44.640549 22.212002 44.658001L 22.632 45.917999L 11.366 45.917999L 11.786 44.658001C 11.792347 44.640545 11.799015 44.623211 11.806 44.605999C 12.33 43.206001 13.38 41.972 14.804 41.346001L 14.804 36.492001C 13.673555 36.143513 12.553114 35.763363 11.444 35.352001C 10.407528 34.968025 9.879044 33.816109 10.264 32.779999ZM 44.717999 48.91L 44.644001 51.896L 44.644001 51.933998C 44.644001 52.858002 44.958 53.743999 45.616001 54.402C 46.276001 55.062 47.161999 55.375999 48.085999 55.375999L 53.916 55.375999C 54.838001 55.375999 55.726002 55.062 56.383999 54.402C 57.043999 53.742001 57.358002 52.858002 57.358002 51.933998L 57.358002 51.896L 57.282001 48.916L 44.860001 48.916C 44.813267 48.916061 44.766552 48.914059 44.719997 48.91ZM 23.186001 48.916L 23.282 48.914001L 23.355999 51.896L 23.355999 51.933998C 23.355999 52.858002 23.042 53.743999 22.383999 54.402C 21.723999 55.062 20.838001 55.375999 19.914 55.375999L 14.086 55.375999C 13.162 55.375999 12.274 55.062 11.616 54.402C 10.956 53.742001 10.642 52.858002 10.642 51.933998L 10.642 51.896L 10.718 48.914001C 10.749305 48.915646 10.780653 48.916313 10.812 48.916L 23.186001 48.916ZM 28.110001 51.102001L 28.530001 54.452C 28.592379 54.948738 28.898464 55.381611 29.346001 55.606003L 33.232002 57.549999C 33.653843 57.760601 34.150158 57.760601 34.571999 57.550003L 38.459999 55.605999C 38.90831 55.382118 39.21521 54.949154 39.278 54.452L 39.695999 51.102001L 28.110001 51.102001ZM 44.186001 19.251999C 44.600113 18.534039 44.353844 17.616314 43.635925 17.202131C 42.918007 16.787947 42.000256 17.034122 41.585999 17.752001L 41.066002 18.652L 40.265999 17.672001C 39.930901 17.246204 39.392216 17.034225 38.856804 17.11747C 38.321396 17.200716 37.872498 17.56624 37.682499 18.073677C 37.4925 18.581116 37.590935 19.151581 37.940002 19.566L 38.868 20.706001L 37.363998 21.362C 36.60461 21.693371 36.257629 22.57761 36.589005 23.337002C 36.920372 24.096394 37.804611 24.443371 38.564003 24.112001L 40.014 23.478001L 40.190002 25.048C 40.233025 25.593756 40.569954 26.072727 41.069057 26.297657C 41.568161 26.522587 42.150169 26.457747 42.587532 26.128485C 43.024895 25.799225 43.248146 25.257843 43.170002 24.716L 42.987999 23.084L 44.438 23.316C 44.975574 23.421228 45.527763 23.225052 45.878456 22.804249C 46.229145 22.383446 46.322567 21.804941 46.122154 21.295143C 45.921745 20.785343 45.459373 20.425331 44.916 20.355999L 43.666 20.153999L 44.186001 19.251999Z"/>
      </g>
    </g>
  </g>
  <g id="g-root-ic_plan_1qd76op1cm20p2-stroke-fill" data-item-order="-2304" transform="translate(476.1310119628906, 170)">
    <g id="ic_plan_1qd76op1cm20p2-fill" stroke="none" fill="#fb6762">
      <g>
        <path d="M 10 10M 21.739992 15.819996L 29.539988 19.059994C 29.788269 19.170378 30.071701 19.170378 30.319986 19.059994L 38.619984 15.459996C 38.804359 15.381453 38.924023 15.200406 38.924023 14.999997C 38.924023 14.799587 38.804359 14.618541 38.619984 14.539997L 27.999989 10.16C 27.513065 9.959964 26.966911 9.959964 26.479988 10.16L 21.699991 12.159999C 20.968815 12.479105 20.497215 13.202225 20.499992 13.999997C 20.512022 14.800097 20.99979 15.516015 21.739992 15.819996ZM 10 10M 41.999977 31.219986L 44.799976 25.539989C 44.90699 25.313047 45.102055 25.13966 45.339977 25.05999L 53.999969 21.819992C 55.229424 21.315254 56.20734 20.341806 56.717705 19.114679C 57.228073 17.887552 57.228886 16.507727 56.719971 15.279997C 56.207912 14.054445 55.229267 13.082996 53.999969 12.579998C 52.779541 12.060919 51.400406 12.060919 50.179974 12.579998L 23.699991 24.099991C 23.434849 24.228991 23.125132 24.228991 22.859991 24.099991L 18.099995 21.699991C 17.567144 21.45339 16.952847 21.45339 16.419996 21.699991L 11.219999 23.99999C 10.622694 24.226225 10.169367 24.72414 10 25.339991C 9.869351 25.992462 10.071768 26.667181 10.54 27.139988L 17.999994 34.639984C 18.566896 35.206009 19.416851 35.379147 20.159994 35.079983L 31.379986 30.579987C 31.568365 30.517756 31.775698 30.563829 31.919985 30.699987C 32.056877 30.835697 32.103565 31.038013 32.039986 31.219986L 28.039989 41.659981C 27.747307 42.434395 27.962004 43.30909 28.579988 43.859978C 29.193182 44.412689 30.082962 44.531857 30.819986 44.159977L 35.479984 41.999977L 39.999981 33.399982C 40.468487 32.513706 41.157257 31.762949 41.999977 31.219988ZM 47.679977 34.779984C 47.179058 33.842724 46.202698 33.257484 45.139977 33.257484C 44.077255 33.257484 43.100895 33.842724 42.599976 34.779984L 32.599987 53.85997C 32.111492 54.72226 32.111492 55.777679 32.599987 56.639969C 33.124313 57.483803 34.04652 57.997822 35.039986 57.999969L 55.03997 57.999969C 56.033432 57.997822 56.955643 57.483803 57.479969 56.639969C 57.99984 55.795361 58.037811 54.739746 57.579967 53.85997ZM 43.679977 40.77998C 43.679977 39.951553 44.351551 39.27998 45.179977 39.27998C 46.008404 39.27998 46.679977 39.951553 46.679977 40.77998L 46.679977 46.779976C 46.679977 47.608406 46.008404 48.279976 45.179977 48.279976C 44.351551 48.279976 43.679977 47.608406 43.679977 46.77998ZM 45.179977 54.779968C 44.075409 54.779968 43.179977 53.884541 43.179977 52.779972C 43.179977 51.675404 44.075409 50.779972 45.179977 50.779972C 46.284546 50.779972 47.179977 51.675404 47.179977 52.779972C 47.207867 53.33453 47.003956 53.875717 46.617062 54.273994C 46.230164 54.672268 45.69511 54.891777 45.139977 54.879971Z"/>
      </g>
    </g>
  </g>
  <g id="g-root-tx_the1976t_qnrxqx1clwg7c-stroke-fill" data-item-order="0" transform="translate(146, 50)">
    <g id="tx_the1976t_qnrxqx1clwg7c-fill" stroke="none" fill="#f4f4f4">
      <g>
        <text style="font: 20px Roboto, sans-serif; white-space: pre;" font-size="20px" font-family="Roboto, sans-serif">
          <tspan x="12.16" y="34" dominant-baseline="ideographic">The 1976 Tehran UFO Incident: A Chronological Exploration</tspan>
        </text>
      </g>
    </g>
  </g>
  <g id="g-root-tx_septembe_1q8tv2x1clxt6z-stroke-fill" data-item-order="0" transform="translate(260, 134)">
    <g id="tx_septembe_1q8tv2x1clxt6z-fill" stroke="none" fill="#f79438">
      <g>
        <text style="font: bold 20px Roboto, sans-serif; white-space: pre;" font-weight="bold" font-size="20px" font-family="Roboto, sans-serif">
          <tspan x="13.84" y="34" dominant-baseline="ideographic">September 19, </tspan>
          <tspan x="13.7" y="58" dominant-baseline="ideographic">1976, 1:30 AM</tspan>
        </text>
      </g>
    </g>
  </g>
  <g id="g-root-tx_f4phanto_18i6bo91clxsec-stroke-fill" data-item-order="0" transform="translate(236, 194)">
    <g id="tx_f4phanto_18i6bo91clxsec-fill" stroke="none" fill="#fff0e2">
      <g>
        <text style="font: 15px Roboto, sans-serif; white-space: pre;" font-size="15px" font-family="Roboto, sans-serif">
          <tspan x="45.45" y="28" dominant-baseline="ideographic">F-4 Phantom II </tspan>
          <tspan x="12.13" y="46" dominant-baseline="ideographic">scrambled to investigate</tspan>
        </text>
      </g>
    </g>
  </g>
  <g id="g-root-tx_septembe_v9u6qh1clz7rj-stroke-fill" data-item-order="0" transform="translate(620, 134)">
    <g id="tx_septembe_v9u6qh1clz7rj-fill" stroke="none" fill="#f366bb">
      <g>
        <text style="font: bold 20px Roboto, sans-serif; white-space: pre;" font-weight="bold" font-size="20px" font-family="Roboto, sans-serif">
          <tspan x="13.77" y="34" dominant-baseline="ideographic">September 19, </tspan>
          <tspan x="13.98" y="58" dominant-baseline="ideographic">1976, Morning</tspan>
        </text>
      </g>
    </g>
  </g>
  <g id="g-root-tx_debriefi_me76hl1clz9c0-stroke-fill" data-item-order="0" transform="translate(596, 194)">
    <g id="tx_debriefi_me76hl1clz9c0-fill" stroke="none" fill="#ffe8f6">
      <g>
        <text style="font: 15px Roboto, sans-serif; white-space: pre;" font-size="15px" font-family="Roboto, sans-serif">
          <tspan x="14.79" y="28" dominant-baseline="ideographic">Debriefing of pilots and </tspan>
          <tspan x="41.63" y="46" dominant-baseline="ideographic">documentation</tspan>
        </text>
      </g>
    </g>
  </g>
  <g id="g-root-tx_septembe_7q4yh1clz8jt-stroke-fill" data-item-order="0" transform="translate(68, 398)">
    <g id="tx_septembe_7q4yh1clz8jt-fill" stroke="none" fill="#ffe711">
      <g>
        <text style="font: bold 20px Roboto, sans-serif; white-space: pre;" font-weight="bold" font-size="20px" font-family="Roboto, sans-serif">
          <tspan x="22.25" y="34" dominant-baseline="ideographic">September 19, </tspan>
          <tspan x="16.38" y="58" dominant-baseline="ideographic">1976, 12:30 AM</tspan>
        </text>
      </g>
    </g>
  </g>
  <g id="g-root-tx_citizens_1ly05nd1clz6ru-stroke-fill" data-item-order="0" transform="translate(68, 458)">
    <g id="tx_citizens_1ly05nd1clz6ru-fill" stroke="none" fill="#fffbd5">
      <g>
        <text style="font: 15px Roboto, sans-serif; white-space: pre;" font-size="15px" font-family="Roboto, sans-serif">
          <tspan x="31.73" y="31" dominant-baseline="ideographic">Citizens report a </tspan>
          <tspan x="16.8" y="49" dominant-baseline="ideographic">luminous object over </tspan>
          <tspan x="63.45" y="67" dominant-baseline="ideographic">Tehran</tspan>
        </text>
      </g>
    </g>
  </g>
  <g id="g-root-tx_septembe_hydod51cm20w4-stroke-fill" data-item-order="0" transform="translate(440, 398)">
    <g id="tx_septembe_hydod51cm20w4-fill" stroke="none" fill="#fb6762">
      <g>
        <text style="font: bold 20px Roboto, sans-serif; white-space: pre;" font-weight="bold" font-size="20px" font-family="Roboto, sans-serif">
          <tspan x="13.84" y="34" dominant-baseline="ideographic">September 19, </tspan>
          <tspan x="13.7" y="58" dominant-baseline="ideographic">1976, 1:40 AM</tspan>
        </text>
      </g>
    </g>
  </g>
  <g id="g-root-tx_secondf4_4mx5zt1cm22h1-stroke-fill" data-item-order="0" transform="translate(428, 458)">
    <g id="tx_secondf4_4mx5zt1cm22h1-fill" stroke="none" fill="#ffe9e8">
      <g>
        <text style="font: 15px Roboto, sans-serif; white-space: pre;" font-size="15px" font-family="Roboto, sans-serif">
          <tspan x="16.65" y="31" dominant-baseline="ideographic">Second F-4 Phantom </tspan>
          <tspan x="18.63" y="49" dominant-baseline="ideographic">scrambled after first </tspan>
          <tspan x="65.21" y="67" dominant-baseline="ideographic">failure</tspan>
        </text>
      </g>
    </g>
  </g>
</svg>
