<?xml version='1.0' encoding='utf-8'?>
<svg xmlns="http://www.w3.org/2000/svg" xmlns:xlink="http://www.w3.org/1999/xlink" width="600" height="444" viewBox="0 0 600 444" style="fill:none;stroke:none;fill-rule:evenodd;clip-rule:evenodd;stroke-linecap:round;stroke-linejoin:round;stroke-miterlimit:1.5;" version="1.1">
  <style class="text-font-style fontImports" data-font-family="Roboto">@import url('https://fonts.googleapis.com/css2?family=Roboto:wght@400;700&amp;display=block');</style>
  <rect x="0" y="0" width="6E+2" height="444" fill="#252a34" stroke="none" id="programmatic_background"/>
  <g id="g-root-tf_dg2w151aeaux4-stroke-fill" data-item-order="-239400" transform="translate(15, 12)"/>
  <g id="g-root-sy_4_cu_18lxsbt1ae3wg9-stroke-fill" data-item-order="-31673" transform="translate(209, 201)">
    <g id="sy_4_cu_18lxsbt1ae3wg9-stroke" fill="none" stroke-linecap="round" stroke-linejoin="round" stroke-miterlimit="4" stroke="#f4f4f4" stroke-width="2">
      <g>
        <path d="M 178 34L 178 46.961C 178 51.765 173.796 55.485 169.028 54.901L 100 46.448M 10 10L 10 27.415C 10 31.418 12.957 34.804 16.923 35.343L 88 45"/>
      </g>
    </g>
  </g>
  <g id="g-root-sy_3_cu_146qrah1ae3u2q-stroke-fill" data-item-order="-31670" transform="translate(257, 230)">
    <g id="sy_3_cu_146qrah1ae3u2q-fill" stroke="none" fill="none">
      <g>
        <path d="M 46 22C 49.314 22 52 19.314 52 16C 52 12.686 49.314 10 46 10C 42.686 10 40 12.686 40 16C 40 19.314 42.686 22 46 22ZM 43 77.995L 49 77.995L 49 21.533C 49 21.533 47.756 22.333 46.043 22.333C 44.212 22.333 43 21.533 43 21.533L 43 77.995ZM 16.4 86C 12.865 86 10 88.865 10 92.4C 10 93.284 10.716 94 11.6 94L 80.4 94C 81.284 94 82 93.284 82 92.4C 82 88.865 79.135 86 75.6 86L 16.4 86ZM 28 78C 24.686 78 22 80.686 22 84L 22 86L 70 86L 70 84C 70 80.686 67.314 78 64 78L 28 78Z"/>
      </g>
    </g>
    <g id="sy_3_cu_146qrah1ae3u2q-stroke" fill="none" stroke-linecap="round" stroke-linejoin="round" stroke-miterlimit="4" stroke="#f4f4f4" stroke-width="2">
      <g>
        <path d="M 46 22C 49.314 22 52 19.314 52 16C 52 12.686 49.314 10 46 10C 42.686 10 40 12.686 40 16C 40 19.314 42.686 22 46 22ZM 43 77.995L 49 77.995L 49 21.533C 49 21.533 47.756 22.333 46.043 22.333C 44.212 22.333 43 21.533 43 21.533L 43 77.995ZM 16.4 86C 12.865 86 10 88.865 10 92.4C 10 93.284 10.716 94 11.6 94L 80.4 94C 81.284 94 82 93.284 82 92.4C 82 88.865 79.135 86 75.6 86L 16.4 86ZM 28 78C 24.686 78 22 80.686 22 84L 22 86L 70 86L 70 84C 70 80.686 67.314 78 64 78L 28 78Z"/>
      </g>
    </g>
  </g>
  <g id="g-root-sy_2_right-bucket_vb3r1l1ae3uvf-stroke-fill" data-item-order="-31666" transform="translate(341, 206.33599853515625)">
    <g id="sy_2_right-bucket_vb3r1l1ae3uvf-fill" stroke="none" fill="none">
      <g>
        <path d="M 10 11.800001C 10 10.806001 10.806 10.000001 11.8 10.000001L 80.2 10.000001C 81.194 10.000001 82 10.806001 82 11.800001C 82 20.747001 74.747 28.000001 65.8 28.000001L 26.2 28.000001C 17.253 28.000001 10 20.747001 10 11.800001Z"/>
      </g>
    </g>
    <g id="sy_2_right-bucket_vb3r1l1ae3uvf-stroke" fill="none" stroke-linecap="round" stroke-linejoin="round" stroke-miterlimit="4" stroke="#f79438" stroke-width="2">
      <g>
        <path d="M 10 11.800001C 10 10.806001 10.806 10.000001 11.8 10.000001L 80.2 10.000001C 81.194 10.000001 82 10.806001 82 11.800001C 82 20.747001 74.747 28.000001 65.8 28.000001L 26.2 28.000001C 17.253 28.000001 10 20.747001 10 11.800001Z"/>
      </g>
    </g>
  </g>
  <g id="g-root-sy_1_left-bucket_qva8x51ae3vno-stroke-fill" data-item-order="-31662" transform="translate(173, 182)">
    <g id="sy_1_left-bucket_qva8x51ae3vno-fill" stroke="none" fill="none">
      <g>
        <path d="M 10 11.8C 10 10.806 10.806 10 11.8 10L 80.2 10C 81.194 10 82 10.806 82 11.8C 82 20.747 74.747 28 65.8 28L 26.2 28C 17.253 28 10 20.747 10 11.8Z"/>
      </g>
    </g>
    <g id="sy_1_left-bucket_qva8x51ae3vno-stroke" fill="none" stroke-linecap="round" stroke-linejoin="round" stroke-miterlimit="4" stroke="#1ac3fb" stroke-width="2">
      <g>
        <path d="M 10 11.8C 10 10.806 10.806 10 11.8 10L 80.2 10C 81.194 10 82 10.806 82 11.8C 82 20.747 74.747 28 65.8 28L 26.2 28C 17.253 28 10 20.747 10 11.8Z"/>
      </g>
    </g>
  </g>
  <g id="g-root-ic_5_qva8x51ae3vnp-stroke-fill" data-item-order="0" transform="translate(185, 122)">
    <g id="ic_5_qva8x51ae3vnp-stroke" fill="none" stroke-linecap="round" stroke-linejoin="round" stroke-miterlimit="4" stroke="#f4f4f4" stroke-width="2">
      <g>
        <path d="M 33.792198 21.63892C 40.002399 21.63892 45.036598 19.476479 45.036598 16.80896C 45.036598 14.141439 40.002399 11.979004 33.792198 11.979004C 27.58214 11.979004 22.547859 14.141439 22.547859 16.80896C 22.547859 19.476479 27.58214 21.63892 33.792198 21.63892ZM 25.595181 26.040899C 23.731979 26.763 22.594719 27.72588 22.594719 28.783239C 22.594719 31.0238 27.70142 32.840202 34.000801 32.840202C 40.300201 32.840202 45.407001 31.0238 45.407001 28.783239C 45.407001 27.72588 44.2696 26.763 42.406399 26.040899M 24.734699 19.67164L 17.42878 22.73366M 22.65148 28.270559C 21.617279 30.1332 21.02832 32.277199 21.02832 34.558601L 21.02832 39.868797C 21.02832 44.014801 22.973259 47.7066 26.00054 50.0816L 28.028021 51.244999C 31.7272 53.368 36.275002 53.368 39.973999 51.244999L 42.001598 50.0816C 45.028801 47.7066 46.973801 44.014801 46.973801 39.868797L 46.973801 34.558601C 46.973801 32.277199 46.3848 30.1332 45.350601 28.270559M 50.669201 56.1982C 47.925999 53.815399 44.667198 52.010601 41.0826 50.973202M 17.3291 56.1982C 20.07242 53.815399 23.3312 52.010601 26.915899 50.973202M 28.914841 39.418198C 28.450581 39.418198 28.074221 39.041801 28.074221 38.577599C 28.074221 38.1134 28.450581 37.737 28.914841 37.737M 28.915239 39.418198C 29.379499 39.418198 29.755859 39.041801 29.755859 38.577599C 29.755859 38.1134 29.379499 37.737 28.915239 37.737M 39.082802 39.417999C 38.618599 39.417999 38.242203 39.041801 38.242203 38.5774C 38.242203 38.113197 38.618599 37.736801 39.082802 37.736801M 39.083199 39.417999C 39.547401 39.417999 39.923798 39.041801 39.923798 38.5774C 39.923798 38.113197 39.547401 37.736801 39.083199 37.736801"/>
      </g>
    </g>
  </g>
  <g id="g-root-ic_sear_qva8x51ae591i-stroke-fill" data-item-order="0" transform="translate(185, 50)">
    <g id="ic_sear_qva8x51ae591i-stroke" fill="none" stroke-linecap="round" stroke-linejoin="round" stroke-miterlimit="4" stroke="#f4f4f4" stroke-width="2">
      <g>
        <path d="M 25 20.779999L 25 52.779999M 39 31L 39 11M 31 48.720001L 25.58 52.580002C 25.237045 52.840019 24.762951 52.840019 24.419998 52.579998L 11.42 43.299999C 11.1575 43.109066 11.001551 42.804592 11 42.48L 11 12C 10.993511 11.626602 11.204156 11.28333 11.54 11.12C 11.858075 10.920883 12.261925 10.920883 12.58 11.12L 25 20.779999L 38.419998 11.18C 38.769028 10.938729 39.230972 10.938729 39.580002 11.18L 52.580002 20.48C 52.841915 20.662369 52.998619 20.960854 53 21.279999L 53 33M 53 44C 53 48.970562 48.970562 53 44 53C 39.029438 53 35 48.970562 35 44C 35 39.029438 39.029438 35 44 35C 48.970562 35 53 39.029438 53 44ZM 50.360001 50.360001L 57 57"/>
      </g>
    </g>
  </g>
  <g id="g-root-ic_sear_4o6qax1ae6osv-stroke-fill" data-item-order="0" transform="translate(353, 146)">
    <g id="ic_sear_4o6qax1ae6osv-stroke" fill="none" stroke-linecap="round" stroke-linejoin="round" stroke-miterlimit="4" stroke="#f4f4f4" stroke-width="2">
      <g>
        <path d="M 45 41L 48 41C 48 41 57 39.827999 57 31C 57.001949 28.285797 55.898548 25.687826 53.943989 23.804583C 51.989429 21.921337 49.352261 20.915218 46.640003 21.018002C 43.916687 15.236149 37.618267 12.038246 31.343361 13.251421C 25.068453 14.464594 20.415922 19.779724 20.044001 26.16C 17.832378 25.695492 15.5292 26.25271 13.774495 27.676807C 12.019791 29.100904 11.000546 31.240124 11 33.5C 10.81644 37.124275 13.439911 40.284958 17.035999 40.771996M 22 42.057999C 22 47.060593 26.055405 51.115997 31.057999 51.115997C 36.060593 51.115997 40.115997 47.060593 40.115997 42.057999C 40.115997 37.055405 36.060593 33 31.057999 33C 26.055405 33 22 37.055405 22 42.057999ZM 44 55L 37.503998 48.504002"/>
      </g>
    </g>
  </g>
  <g id="g-root-ic_open_vbq84p1ae84co-stroke-fill" data-item-order="0" transform="translate(353, 74)">
    <g id="ic_open_vbq84p1ae84co-stroke" fill="none" stroke-linecap="round" stroke-linejoin="round" stroke-miterlimit="4" stroke="#f4f4f4" stroke-width="2">
      <g>
        <path d="M 30.482 50.709999C 29.820431 50.709499 29.186485 50.444687 28.721132 49.974449C 28.255779 49.504215 27.997599 48.867538 28.004 48.206001L 28.004 48.206001C 28.018253 46.8465 29.124424 45.751926 30.484001 45.751999L 37.624001 45.751999C 38.992104 45.754208 40.100002 46.863895 40.099998 48.232002L 40.099998 48.231998C 40.0989 49.600105 38.990105 50.708897 37.622002 50.709999L 30.482 50.709999ZM 56.5 40.868L 56.5 54.023998C 56.5 55.104 55.625999 55.978001 54.546001 55.978001L 13.534 55.978001C 12.454836 55.978001 11.58 55.103165 11.58 54.023998L 11.58 40.868M 56.5 40.868L 11.58 40.868M 11.5 20.812L 11.5 13.976C 11.5 12.896 12.374001 12.022 13.454 12.022L 54.466 12.022C 55.546001 12.022 56.419998 12.896 56.419998 13.976L 56.419998 20.812M 27.504 30.493999C 26.674015 31.685698 25.500551 32.596146 24.139999 33.104L 24.116001 40.868L 19.060001 40.868L 19.086 33.087997C 16.308346 32.029343 14.476141 29.361723 14.485033 26.389175C 14.493927 23.416626 16.34206 20.760019 19.125999 19.718L 19.112 25.138L 21.632 27.674L 24.164 25.153999L 24.18 19.734001C 26.235029 20.517237 27.814951 22.203094 28.463358 24.304562C 29.111767 26.406031 28.756432 28.689011 27.5 30.493999ZM 31.875999 40.868L 31.902 33.528L 38.138 33.531998L 38.138 40.868L 31.878 40.868ZM 32.348 19.720001L 37.697998 19.720001L 37.697998 22.360001C 37.697998 23.83736 36.500359 25.035 35.022999 25.035C 33.545639 25.035 32.348 23.83736 32.348 22.360001L 32.348 19.720001ZM 35.007999 25.038L 35.007999 33.528M 50.122002 30.594C 52.726933 29.322203 54.097816 26.410728 53.41864 23.592594C 52.739464 20.77446 50.192783 18.807125 47.294476 18.861622C 44.396168 18.916119 41.92524 20.977798 41.352486 23.819471C 40.779732 26.661146 42.25909 29.519028 44.909996 30.691999L 44.896 40.868L 50.122002 40.868L 50.122002 30.594ZM 45.085999 25.038C 45.085838 26.322729 46.12727 27.364292 47.411999 27.364292C 48.696728 27.364292 49.738159 26.322729 49.737999 25.038C 49.738159 23.753271 48.696728 22.711708 47.411999 22.711708C 46.12727 22.711708 45.085838 23.753271 45.085999 25.038"/>
      </g>
    </g>
  </g>
  <g id="g-root-tx_witnessc_zkoiax1aeawox-stroke-fill" data-item-order="0" transform="translate(77, 122)">
    <g id="tx_witnessc_zkoiax1aeawox-fill" stroke="none" fill="#f4f4f4">
      <g>
        <text style="font: 20px Roboto, sans-serif; white-space: pre;" font-size="20px" font-family="Roboto, sans-serif">
          <tspan x="32.55" y="34" dominant-baseline="ideographic">Witness </tspan>
          <tspan x="15.81" y="58" dominant-baseline="ideographic">Credibility</tspan>
        </text>
      </g>
    </g>
  </g>
  <g id="g-root-tx_document_qp1i211aeaxhm-stroke-fill" data-item-order="0" transform="translate(29, 50)">
    <g id="tx_document_qp1i211aeaxhm-fill" stroke="none" fill="#f4f4f4">
      <g>
        <text style="font: 20px Roboto, sans-serif; white-space: pre;" font-size="20px" font-family="Roboto, sans-serif">
          <tspan x="15.5" y="34" dominant-baseline="ideographic">Documentation </tspan>
          <tspan x="90.59" y="58" dominant-baseline="ideographic">Quality</tspan>
        </text>
      </g>
    </g>
  </g>
  <g id="g-root-tx_plausibi_de7grt1aeavwr-stroke-fill" data-item-order="0" transform="translate(413, 146)">
    <g id="tx_plausibi_de7grt1aeavwr-fill" stroke="none" fill="#f4f4f4">
      <g>
        <text style="font: 20px Roboto, sans-serif; white-space: pre;" font-size="20px" font-family="Roboto, sans-serif">
          <tspan x="12" y="34" dominant-baseline="ideographic">Plausibility of </tspan>
          <tspan x="12" y="58" dominant-baseline="ideographic">Explanations</tspan>
        </text>
      </g>
    </g>
  </g>
  <g id="g-root-tx_explanat_2qyeh1aeaxho-stroke-fill" data-item-order="0" transform="translate(413, 74)">
    <g id="tx_explanat_2qyeh1aeaxho-fill" stroke="none" fill="#f4f4f4">
      <g>
        <text style="font: 20px Roboto, sans-serif; white-space: pre;" font-size="20px" font-family="Roboto, sans-serif">
          <tspan x="12" y="34" dominant-baseline="ideographic">Explanation </tspan>
          <tspan x="12" y="58" dominant-baseline="ideographic">Variety</tspan>
        </text>
      </g>
    </g>
  </g>
  <g id="g-root-tx_carterss_1lt0z3d1aeavpp-stroke-fill" data-item-order="0" transform="translate(47, 266)">
    <g id="tx_carterss_1lt0z3d1aeavpp-fill" stroke="none" fill="#f4f4f4">
      <g>
        <text style="font: 20px Roboto, sans-serif; white-space: pre;" font-size="20px" font-family="Roboto, sans-serif">
          <tspan x="15.04" y="34" dominant-baseline="ideographic">Carter's Sighting</tspan>
        </text>
      </g>
    </g>
  </g>
  <g id="g-root-tx_alternat_18hkgq11aeaxam-stroke-fill" data-item-order="0" transform="translate(401, 278)">
    <g id="tx_alternat_18hkgq11aeaxam-fill" stroke="none" fill="#f4f4f4">
      <g>
        <text style="font: 20px Roboto, sans-serif; white-space: pre;" font-size="20px" font-family="Roboto, sans-serif">
          <tspan x="22.33" y="34" dominant-baseline="ideographic">Alternative </tspan>
          <tspan x="12.81" y="58" dominant-baseline="ideographic">Explanations</tspan>
        </text>
      </g>
    </g>
  </g>
  <g id="g-root-tx_evaluati_v6qfft1aeavpr-stroke-fill" data-item-order="0" transform="translate(35, 350)">
    <g id="tx_evaluati_v6qfft1aeavpr-fill" stroke="none" fill="#f4f4f4">
      <g>
        <text style="font: 20px Roboto, sans-serif; white-space: pre;" font-size="20px" font-family="Roboto, sans-serif">
          <tspan x="14.37" y="34" dominant-baseline="ideographic">Evaluating Carter's UFO Sighting vs. Explanatory Theories</tspan>
        </text>
      </g>
    </g>
    <defs>
      <pattern id="crawlingPattern-0000001b" x="0" y="0" width="12" height="12" patternUnits="userSpaceOnUse" fill="#0000001b">
        <use href="#crawlingSymbol"/>
      </pattern>
      <symbol id="crawlingSymbol">
        <g>
          <path d="M -12.5 12.5 l 13 -13 l 6 0 l -13 13 Z M -0.5 12.5 l 13 -13 l 6 0 l -13 13 Z M 11.5 12.5 l 13 -13 l 6 0 l -13 13 Z"/>
        </g>
      </symbol>
    </defs>
  </g>
</svg>
