<?xml version='1.0' encoding='utf-8'?>
<svg xmlns="http://www.w3.org/2000/svg" xmlns:xlink="http://www.w3.org/1999/xlink" width="624" height="480" viewBox="0 0 624 480" style="fill:none;stroke:none;fill-rule:evenodd;clip-rule:evenodd;stroke-linecap:round;stroke-linejoin:round;stroke-miterlimit:1.5;" version="1.1">
  <style class="text-font-style fontImports" data-font-family="Roboto">@import url('https://fonts.googleapis.com/css2?family=Roboto:wght@400;700&amp;display=block');</style>
  <rect x="0" y="0" width="624" height="4.8E+2" fill="#252a34" stroke="none" id="programmatic_background"/>
  <g id="g-root-tf_4goy3t1aegh6x-stroke-fill" data-item-order="-273600" transform="translate(12, 12)">
    <g id="tf_4goy3t1aegh6x-fill" stroke="none" fill="#2c2c2c">
      <g>
        <path d="M 0 0L 600 0L 600 456L 0 456Z"/>
      </g>
    </g>
    <defs>
      <pattern id="crawlingPattern-8484841a" x="0" y="0" width="12" height="12" patternUnits="userSpaceOnUse" fill="#8484841a">
        <use href="#crawlingSymbol"/>
      </pattern>
      <symbol id="crawlingSymbol">
        <g>
          <path d="M -12.5 12.5 l 13 -13 l 6 0 l -13 13 Z M -0.5 12.5 l 13 -13 l 6 0 l -13 13 Z M 11.5 12.5 l 13 -13 l 6 0 l -13 13 Z"/>
        </g>
      </symbol>
      <pattern id="crawlingPattern-f576002d" x="0" y="0" width="12" height="12" patternUnits="userSpaceOnUse" fill="#f576002d">
        <use href="#crawlingSymbol"/>
      </pattern>
      <pattern id="crawlingPattern-00bcfb62" x="0" y="0" width="12" height="12" patternUnits="userSpaceOnUse" fill="#00bcfb62">
        <use href="#crawlingSymbol"/>
      </pattern>
      <pattern id="crawlingPattern-0000001b" x="0" y="0" width="12" height="12" patternUnits="userSpaceOnUse" fill="#0000001b">
        <use href="#crawlingSymbol"/>
      </pattern>
      <pattern id="crawlingPattern-5f5f5f1a" x="0" y="0" width="12" height="12" patternUnits="userSpaceOnUse" fill="#5f5f5f1a">
        <use href="#crawlingSymbol"/>
      </pattern>
    </defs>
  </g>
  <g id="g-root-sy_4_cu_qpnvzd1ae9i4i-stroke-fill" data-item-order="-105977" transform="translate(133.95700073242188, 219)">
    <g id="sy_4_cu_qpnvzd1ae9i4i-stroke" fill="none" stroke-linecap="round" stroke-linejoin="round" stroke-miterlimit="4" stroke="#f4f4f4" stroke-width="2">
      <g>
        <path d="M 340.042999 93C 343.356999 93 346.042999 90.314 346.042999 87C 346.042999 83.686 343.356999 81 340.042999 81C 336.728999 81 334.042999 83.686 334.042999 87C 334.042999 90.314 336.728999 93 340.042999 93ZM 16.021999 45C 19.346999 45 22.042999 42.314 22.042999 39C 22.042999 35.686 19.346999 33 16.021999 33C 12.695999 33 9.999999 35.686 9.999999 39C 9.999999 42.314 12.695999 45 16.021999 45ZM 340.042999 81L 340.042999 57.75M 16.042999 10L 16.042999 33M 195.561999 65.593L 334.144999 86.11M 162.040999 60.634L 22.027999 39.904"/>
      </g>
    </g>
  </g>
  <g id="g-root-sy_3_Exclude_qpnvzd1ae9i4j-stroke-fill" data-item-order="-105974" transform="translate(255.05589294433594, 256)">
    <g id="sy_3_Exclude_qpnvzd1ae9i4j-fill" stroke="none" fill="#b7b7b7">
      <g>
        <path d="M 56.944107 10C 49.471107 10 43.195107 15.122 41.436107 22.047L 10.134107 124.12C 9.542107 126.049 10.984107 128 13.002107 128L 100.886107 128C 102.903107 128 104.346107 126.049 103.754107 124.12L 72.454107 22.054C 70.696107 15.126 64.419107 10 56.944107 10ZM 56.944107 33C 60.810107 33 63.944107 29.866 63.944107 26C 63.944107 22.134 60.810107 19 56.944107 19C 53.078107 19 49.944107 22.134 49.944107 26C 49.944107 29.866 53.078107 33 56.944107 33Z"/>
      </g>
    </g>
    <g id="sy_3_Exclude_qpnvzd1ae9i4j-stroke" fill="none" stroke-linecap="round" stroke-linejoin="round" stroke-miterlimit="4" stroke="#2c2c2c" stroke-width="2">
      <g>
        <path d="M 56.944107 10C 49.471107 10 43.195107 15.122 41.436107 22.047L 10.134107 124.12C 9.542107 126.049 10.984107 128 13.002107 128L 100.886107 128C 102.903107 128 104.346107 126.049 103.754107 124.12L 72.454107 22.054C 70.696107 15.126 64.419107 10 56.944107 10ZM 56.944107 33C 60.810107 33 63.944107 29.866 63.944107 26C 63.944107 22.134 60.810107 19 56.944107 19C 53.078107 19 49.944107 22.134 49.944107 26C 49.944107 29.866 53.078107 33 56.944107 33Z"/>
      </g>
    </g>
  </g>
  <g id="g-root-sy_2_right-bucket_hu0vqh1ae9ix8-stroke-fill" data-item-order="-105970" transform="translate(350, 230)">
    <g id="sy_2_right-bucket_hu0vqh1ae9ix8-fill" stroke="none" fill="#f79438">
      <g>
        <path d="M 11.081 15.729C 10.338 14.904 10 13.826 10 12.716L 10 12.716C 10 11.216 11.216 10 12.716 10L 235.284 10C 236.784 10 238 11.216 238 12.716L 238 12.716C 238 13.826 237.662 14.904 236.919 15.729C 231.551 21.692 204.717 46 124 46C 43.283 46 16.449 21.692 11.081 15.729Z"/>
      </g>
    </g>
    <g id="sy_2_right-bucket_hu0vqh1ae9ix8-stroke" fill="none" stroke-linecap="round" stroke-linejoin="round" stroke-miterlimit="4" stroke="#2c2c2c" stroke-width="2">
      <g>
        <path d="M 11.081 15.729C 10.338 14.904 10 13.826 10 12.716L 10 12.716C 10 11.216 11.216 10 12.716 10L 235.284 10C 236.784 10 238 11.216 238 12.716L 238 12.716C 238 13.826 237.662 14.904 236.919 15.729C 231.551 21.692 204.717 46 124 46C 43.283 46 16.449 21.692 11.081 15.729Z"/>
      </g>
    </g>
  </g>
  <g id="g-root-sy_1_left-bucket_detup51ae9gjp-stroke-fill" data-item-order="-105966" transform="translate(26, 182)">
    <g id="sy_1_left-bucket_detup51ae9gjp-fill" stroke="none" fill="#1ac3fb">
      <g>
        <path d="M 11.0812 15.729C 10.3384 14.904 10 13.826 10 12.716L 10 12.716C 10 11.216 11.2158 10 12.7157 10L 235.284 10C 236.784 10 238 11.216 238 12.716L 238 12.716C 238 13.826 237.662 14.904 236.919 15.729C 231.551 21.692 204.717 46 124 46C 43.2826 46 16.4488 21.692 11.0812 15.729Z"/>
      </g>
    </g>
    <g id="sy_1_left-bucket_detup51ae9gjp-stroke" fill="none" stroke-linecap="round" stroke-linejoin="round" stroke-miterlimit="4" stroke="#2c2c2c" stroke-width="2">
      <g>
        <path d="M 11.0812 15.729C 10.3384 14.904 10 13.826 10 12.716L 10 12.716C 10 11.216 11.2158 10 12.7157 10L 235.284 10C 236.784 10 238 11.216 238 12.716L 238 12.716C 238 13.826 237.662 14.904 236.919 15.729C 231.551 21.692 204.717 46 124 46C 43.2826 46 16.4488 21.692 11.0812 15.729Z"/>
      </g>
    </g>
  </g>
  <g id="g-root-ic_5_4j6ug91ae9hce-stroke-fill" data-item-order="-2304" transform="translate(38, 122)">
    <g id="ic_5_4j6ug91ae9hce-fill" stroke="none" fill="#b7b7b7">
      <g>
        <path d="M 10 10M 25.628 16.540001L 25.630001 16.528C 25.629908 16.531422 25.62923 16.534805 25.627998 16.538ZM 25.83 16.26C 25.755344 16.330593 25.69194 16.412207 25.642 16.502001C 25.661999 16.546 25.714001 16.625999 25.83 16.743999C 26.09 17.006001 26.562 17.334 27.304001 17.653999C 28.780001 18.288 30.959999 18.73 33.472 18.73C 35.986 18.73 38.164001 18.288 39.641998 17.653999C 40.382 17.334 40.856003 17.006001 41.113998 16.743999C 41.189274 16.674225 41.253357 16.593277 41.304001 16.504C 41.2537 16.413307 41.189602 16.33099 41.113998 16.26C 40.856003 15.998 40.384003 15.67 39.641998 15.35C 38.164001 14.716 35.986 14.276 33.472 14.276C 30.959999 14.276 28.780001 14.716 27.304001 15.35C 26.562 15.67 26.087999 15.998 25.83 16.26ZM 41.318001 16.540001L 41.313999 16.528L 41.318001 16.538ZM 41.313999 16.476L 41.318001 16.466L 41.313999 16.476ZM 25.630001 16.476L 25.628 16.466L 25.630001 16.476ZM 33.472 10.276C 30.552 10.276 27.809999 10.78 25.723999 11.676C 24.684 12.122 23.718 12.704 22.98 13.454C 22.234001 14.212 21.632 15.243999 21.632 16.501999C 21.632 17.166 21.799999 17.765999 22.066 18.296L 18.378 19.841999C 17.359035 20.268917 16.879084 21.441034 17.306 22.459999C 17.732916 23.478966 18.905033 23.958916 19.924 23.532L 25.459999 21.212C 25.548 21.251999 25.636 21.292 25.723999 21.327999C 27.809999 22.223999 30.549999 22.728001 33.472 22.728001C 36.393997 22.728001 39.136002 22.223999 41.220001 21.327999C 42.259998 20.882 43.228001 20.299999 43.966 19.549999C 44.712002 18.793999 45.313999 17.76 45.313999 16.501999C 45.313999 15.243999 44.712002 14.212 43.966 13.454C 43.226002 12.704 42.259998 12.122 41.220001 11.674C 39.136002 10.78 36.393997 10.274 33.472 10.274ZM 24.992001 50.548C 21.841349 47.895748 20.0243 43.986382 20.028 39.868004L 20.028 34.559998C 20.028 32.120003 20.653999 29.823999 21.756001 27.826C 22.216 26.99 22.450001 26.58 22.986 26.129999C 23.726 25.507999 24.706001 25.015999 25.785999 24.630001C 27.959999 23.858 30.865999 23.41 34 23.41C 37.138 23.41 40.040001 23.858 42.216 24.630001C 43.296001 25.015999 44.276001 25.507999 45.015999 26.129999C 45.528 26.559999 46.004002 27.125999 46.243999 27.822001C 47.346001 29.822001 47.973999 32.120003 47.973999 34.562L 47.973999 39.870003C 47.978249 43.988499 46.161098 47.898087 43.009998 50.549995C 46.059151 51.657448 48.878197 53.317146 51.326 55.446003C 51.640301 55.719814 51.751785 56.159874 51.605762 56.550304C 51.45974 56.940735 51.086845 57.199635 50.669998 57.200001L 17.33 57.200001C 16.913155 57.199635 16.54026 56.940735 16.394238 56.550304C 16.248215 56.159874 16.359699 55.719814 16.674 55.445999C 19.12183 53.317181 21.940868 51.657486 24.989998 50.549999ZM 24.6 28.785999C 24.677555 28.643044 24.786232 28.519333 24.917999 28.424C 25.282 28.115999 25.897999 27.774 26.792 27.455999C 28.566 26.823999 31.114 26.406 34 26.406C 36.888 26.406 39.436001 26.826 41.209999 27.455999C 42.104 27.774 42.720001 28.115999 43.084 28.424C 43.215496 28.51881 43.324146 28.641808 43.402 28.784C 43.324444 28.926956 43.215771 29.050667 43.084 29.146C 42.720001 29.452 42.104 29.796 41.209999 30.114C 39.436001 30.743999 36.888 31.162001 34 31.162001C 31.114 31.162001 28.563999 30.743999 26.792 30.114C 25.897999 29.796 25.282 29.454 24.916 29.146C 24.785185 29.051016 24.677225 28.928024 24.6 28.785999ZM 28.914 40.271999C 27.97843 40.272003 27.220001 39.513573 27.220001 38.578003C 27.220001 37.642433 27.97843 36.884003 28.914001 36.884003C 29.849571 36.884003 30.608002 37.642433 30.608002 38.578003C 30.608002 39.513573 29.849571 40.272003 28.914001 40.272003ZM 37.594002 38.577999C 37.594002 39.514126 38.352882 40.273003 39.289001 40.273003C 40.225124 40.273003 40.984001 39.514126 40.984001 38.578003C 40.984001 37.642433 40.225571 36.884003 39.290001 36.884003C 38.354431 36.884003 37.596001 37.642433 37.596001 38.578003Z"/>
      </g>
    </g>
  </g>
  <g id="g-root-ic_sear_dj76ax1aeawhz-stroke-fill" data-item-order="-2304" transform="translate(38, 50)">
    <g id="ic_sear_dj76ax1aeawhz-fill" stroke="none" fill="#b7b7b7">
      <g>
        <path d="M 31.639999 49.740002C 30.996996 48.849091 29.755709 48.643696 28.860001 49.279999C 28.69808 49.368954 28.501923 49.368954 28.34 49.280003C 28.168737 49.232227 28.03791 49.093708 27.999998 48.919998L 28 23.32C 28.001551 22.995407 28.157499 22.690933 28.42 22.5L 37.200001 16.219999C 37.361923 16.131048 37.558079 16.131048 37.720001 16.220001C 37.891819 16.298748 38.001434 16.470997 38 16.66L 38 28C 38 29.10457 38.895432 30 40 30C 41.104568 30 42 29.10457 42 28L 42 16.619999C 41.998562 16.430998 42.108177 16.258747 42.279999 16.18C 42.441921 16.091049 42.638081 16.091049 42.799999 16.18L 51.580002 22.459999C 51.842499 22.650934 51.998447 22.955408 52 23.279999L 52 32.239998C 52 33.34457 52.895432 34.239998 54 34.239998C 55.104568 34.239998 56 33.34457 56 32.239998L 56 22.24C 56.00211 21.270082 55.532055 20.359818 54.740002 19.799999L 41.739998 10.56C 40.698509 9.818466 39.301495 9.818466 38.260002 10.56L 26.639999 18.84C 26.293093 19.110268 25.806904 19.110268 25.459999 18.84L 14.860001 10.64C 13.95008 9.933205 12.718782 9.801557 11.68 10.3C 10.653135 10.808414 10.002443 11.854169 10 13L 10 42.779999C 10.003121 43.723534 10.447047 44.611382 11.2 45.18L 24.220001 54.939999C 24.739288 55.329468 25.37089 55.540001 26.02 55.540001C 26.643101 55.532455 27.249466 55.337303 27.759998 54.979996L 31.18 52.52C 32.070911 51.876995 32.276306 50.635708 31.639999 49.740002ZM 14 16C 14 15.810614 14.107001 15.637483 14.276394 15.552786C 14.445786 15.46809 14.648491 15.486368 14.8 15.6L 23.619999 22.4C 23.878689 22.599215 24.021173 22.914181 24 23.24L 24 48.779999C 24.001434 48.968998 23.891821 49.141251 23.719999 49.219997C 23.558079 49.308952 23.361921 49.308952 23.200001 49.220001L 14.4 42.619999C 14.150623 42.429127 14.003071 42.134026 14 41.82ZM 57.419998 57.419998C 57.798626 57.044468 58.011597 56.533276 58.011597 56C 58.011597 55.466724 57.798626 54.955532 57.419998 54.580002L 52.619999 49.799999C 52.299732 49.473248 52.242073 48.970806 52.48 48.580002C 55.289021 43.807606 54.112354 37.691086 49.733173 34.301521C 45.353992 30.911963 39.13781 31.306293 35.222054 35.222054C 31.306293 39.13781 30.911963 45.353992 34.301521 49.733173C 37.691086 54.112354 43.807606 55.289021 48.580002 52.48C 48.970806 52.242073 49.473248 52.299732 49.799999 52.619999L 54.580002 57.419998C 54.955532 57.798626 55.466724 58.011597 56 58.011597C 56.533276 58.011597 57.044468 57.798626 57.419998 57.419998ZM 36 43C 36 39.13401 39.13401 36 43 36C 46.865993 36 50 39.13401 50 43C 50 46.865993 46.865993 50 43 50C 39.13401 50.000004 36 46.865993 36 43Z"/>
      </g>
    </g>
  </g>
  <g id="g-root-ic_sear_1hgbr8p1aecbgo-stroke-fill" data-item-order="-2304" transform="translate(362, 170)">
    <g id="ic_sear_1hgbr8p1aecbgo-fill" stroke="none" fill="#b7b7b7">
      <g>
        <path d="M 18.139999 41.299999C 19.131367 41.385517 20.034821 40.729233 20.26 39.760002C 20.402441 39.214149 20.307734 38.63353 19.999218 38.161236C 19.690704 37.688942 19.197079 37.368904 18.639999 37.279999C 17.386065 37.191605 16.200247 36.676338 15.280001 35.82C 14.374592 34.856262 13.910883 33.559326 14 32.240002C 14.02422 30.672029 14.760155 29.200157 16 28.24C 16.92852 27.489641 18.086187 27.080223 19.279999 27.08C 19.635464 27.084469 19.989971 27.117912 20.34 27.18C 20.906654 27.30027 21.497616 27.168943 21.959999 26.82C 22.444984 26.446728 22.732374 25.871952 22.74 25.26C 22.9 13.78 39.34 10.52 44.380001 21.26C 44.73922 22.02405 45.539539 22.480232 46.380001 22.4C 48.689926 22.301342 50.911957 23.29385 52.380001 25.08C 53.498703 26.515732 54.072647 28.301334 54 30.119999C 53.936932 33.256836 51.912827 36.016983 48.940002 37.02C 48.008205 37.351341 47.492424 38.347931 47.759998 39.299999C 47.894314 39.834114 48.242939 40.289207 48.72366 40.557961C 49.204384 40.82671 49.774654 40.88533 50.299999 40.720001C 54.927162 39.204609 58.041496 34.868813 58.000004 30.000002C 58.11013 23.975494 53.559067 18.883884 47.560001 18.32C 47.405376 18.29657 47.267597 18.209549 47.18 18.08C 43.934528 12.683994 37.727669 9.811371 31.513689 10.829406C 25.299709 11.847441 20.333967 16.550468 18.98 22.700001C 18.943527 22.919065 18.761539 23.084507 18.539999 23.099998C 15.516875 23.314987 12.790294 24.995754 11.24 27.6C 10.362353 29.072073 9.931542 30.767525 10 32.480003C 9.95868 34.790291 10.853111 37.019157 12.48 38.660004C 14.02403 40.139915 16.013882 41.068047 18.139999 41.299999ZM 45.119999 42.419998C 45.129368 37.357513 41.706261 32.932503 36.803787 31.669724C 31.901318 30.406946 26.766424 32.627594 24.328907 37.064636C 21.89139 41.501678 22.771233 47.026554 26.466425 50.486958C 30.161615 53.947361 35.732288 54.463135 40 51.739998C 40.184067 51.603321 40.435928 51.603321 40.619999 51.739998L 45.580002 56.720001C 45.955532 57.098625 46.466724 57.311596 47 57.311596C 47.533276 57.311596 48.044468 57.098625 48.419998 56.720001C 48.798626 56.344467 49.011597 55.833275 49.011597 55.299999C 49.011597 54.766724 48.798626 54.255531 48.419998 53.880001L 43.439999 48.919998C 43.303322 48.735928 43.303322 48.484066 43.439999 48.299999C 44.544514 46.538189 45.127026 44.499393 45.120003 42.420002ZM 27 42.419998C 27.000103 39.559059 28.726782 36.98101 31.372297 35.891869C 34.017811 34.802723 37.05909 35.417824 39.073433 37.449432C 41.087772 39.481033 41.676895 42.527454 40.565212 45.163578C 39.453529 47.799702 36.86084 49.504314 34 49.48C 30.124321 49.447063 26.999861 46.295818 27 42.420002Z"/>
      </g>
    </g>
  </g>
  <g id="g-root-ic_open_93do6h1aedo1t-stroke-fill" data-item-order="-2304" transform="translate(362, 98)">
    <g id="ic_open_93do6h1aedo1t-fill" stroke="none" fill="#b7b7b7">
      <g>
        <path d="M 14 14.492001L 14 17.666C 14 18.770569 13.104569 19.666 12 19.666C 10.895431 19.666 10 18.770569 10 17.666L 10 14.406C 10 12.242001 11.752 10.49 13.914 10.49L 54.088001 10.49C 56.248001 10.49 58 12.242001 58 14.402L 58 17.664C 58 18.76857 57.104568 19.664 56 19.664C 54.895432 19.664 54 18.76857 54 17.664L 54 14.492001L 14 14.492001ZM 31.860001 32.52C 31.309273 32.519997 30.862204 32.965279 30.860001 33.515999L 30.844 37.374001L 39.104 37.374001L 39.104 33.524002C 39.104004 32.972496 38.657501 32.525101 38.106003 32.524002L 36.470001 32.524002L 36.470001 25.146C 37.512238 24.595119 38.164207 23.512869 38.164001 22.334L 38.164001 19.686001C 38.164001 19.409859 37.94014 19.186001 37.664001 19.186001L 32.304001 19.186001C 32.027855 19.186001 31.804001 19.409859 31.804001 19.686001L 31.804001 22.334C 31.804001 23.542 32.478001 24.594 33.470001 25.130001L 33.470001 32.521999L 31.858 32.52ZM 24.58 33.433998L 24.57 37.374001L 18.507999 37.374001L 18.52 33.416C 15.654197 32.173222 13.830442 29.314419 13.911367 26.191795C 13.992291 23.069172 15.961673 20.308672 18.888 19.216C 19.042004 19.158829 19.214264 19.180954 19.348824 19.275185C 19.483383 19.369415 19.56307 19.523731 19.562 19.688L 19.548 24.91L 21.574001 26.948L 23.610001 24.92L 23.624001 19.698C 23.624157 19.533255 23.705456 19.37916 23.841354 19.28603C 23.977249 19.192902 24.150301 19.172691 24.304001 19.232C 27.220373 20.345407 29.169344 23.117186 29.230448 26.238274C 29.29155 29.35936 27.45256 32.205299 24.581999 33.431999ZM 51.110001 31.174L 51.110001 37.374001L 43.880001 37.374001L 43.888 31.294001C 41.049164 29.708031 39.627686 26.414507 40.420944 23.260935C 41.214203 20.107363 44.024822 17.878393 47.276184 17.824369C 50.527546 17.770344 53.410667 19.904707 54.308258 23.030186C 55.205849 26.155663 53.894577 29.494593 51.109997 31.174ZM 44.896 25.014C 44.896 23.633289 46.015289 22.514 47.396 22.514C 48.776714 22.514 49.896 23.633289 49.896 25.014C 49.896 26.394712 48.776714 27.514 47.396 27.514C 46.015289 27.514 44.896 26.394712 44.896 25.014ZM 11.5 39.374001C 10.671573 39.374001 10 40.045574 10 40.874001L 10 54.054001C 10 55.962002 11.548 57.509998 13.456 57.509998L 54.543999 57.509998C 56.452 57.509998 58 55.962002 58 54.051998L 58 40.872002C 58 40.043571 57.32843 39.372002 56.5 39.372002L 11.5 39.372002ZM 30.436001 50.731998C 29.532104 50.757656 28.685673 50.290089 28.226156 49.511292C 27.76664 48.732491 27.76664 47.765503 28.226156 46.986706C 28.685673 46.207909 29.532104 45.740341 30.435999 45.765999L 37.587997 45.765999C 38.959324 45.766003 40.070999 46.877678 40.070999 48.249001C 40.070999 49.620323 38.959324 50.732002 37.588001 50.732002L 30.436001 50.731998Z"/>
      </g>
    </g>
  </g>
  <g id="g-root-tx_witnessc_1hhkpex1aef4ea-stroke-fill" data-item-order="0" transform="translate(98, 122)">
    <g id="tx_witnessc_1hhkpex1aef4ea-fill" stroke="none" fill="#f4f4f4">
      <g>
        <text style="font: 20px Roboto, sans-serif; white-space: pre;" font-size="20px" font-family="Roboto, sans-serif">
          <tspan x="12" y="34" dominant-baseline="ideographic">Witness </tspan>
          <tspan x="12" y="58" dominant-baseline="ideographic">Credibility</tspan>
        </text>
      </g>
    </g>
  </g>
  <g id="g-root-tx_document_vb3nvt1aef3m3-stroke-fill" data-item-order="0" transform="translate(98, 50)">
    <g id="tx_document_vb3nvt1aef3m3-fill" stroke="none" fill="#f4f4f4">
      <g>
        <text style="font: 20px Roboto, sans-serif; white-space: pre;" font-size="20px" font-family="Roboto, sans-serif">
          <tspan x="12" y="34" dominant-baseline="ideographic">Documentation </tspan>
          <tspan x="12" y="58" dominant-baseline="ideographic">Quality</tspan>
        </text>
      </g>
    </g>
  </g>
  <g id="g-root-tx_plausibi_hzn5ih1aef570-stroke-fill" data-item-order="0" transform="translate(422, 170)">
    <g id="tx_plausibi_hzn5ih1aef570-fill" stroke="none" fill="#f4f4f4">
      <g>
        <text style="font: 20px Roboto, sans-serif; white-space: pre;" font-size="20px" font-family="Roboto, sans-serif">
          <tspan x="12" y="34" dominant-baseline="ideographic">Plausibility of </tspan>
          <tspan x="12" y="58" dominant-baseline="ideographic">Explanations</tspan>
        </text>
      </g>
    </g>
  </g>
  <g id="g-root-tx_explanat_4ot4891aef3m5-stroke-fill" data-item-order="0" transform="translate(422, 98)">
    <g id="tx_explanat_4ot4891aef3m5-fill" stroke="none" fill="#f4f4f4">
      <g>
        <text style="font: 20px Roboto, sans-serif; white-space: pre;" font-size="20px" font-family="Roboto, sans-serif">
          <tspan x="12" y="34" dominant-baseline="ideographic">Explanation </tspan>
          <tspan x="12" y="58" dominant-baseline="ideographic">Variety</tspan>
        </text>
      </g>
    </g>
  </g>
  <g id="g-root-tx_carterss_1qegnu11aef4zy-stroke-fill" data-item-order="0" transform="translate(62, 290)">
    <g id="tx_carterss_1qegnu11aef4zy-fill" stroke="none" fill="#f4f4f4">
      <g>
        <text style="font: 20px Roboto, sans-serif; white-space: pre;" font-size="20px" font-family="Roboto, sans-serif">
          <tspan x="15.04" y="34" dominant-baseline="ideographic">Carter's Sighting</tspan>
        </text>
      </g>
    </g>
  </g>
  <g id="g-root-tx_alternat_1d3mmjt1aef3f3-stroke-fill" data-item-order="0" transform="translate(404, 326)">
    <g id="tx_alternat_1d3mmjt1aef3f3-fill" stroke="none" fill="#f4f4f4">
      <g>
        <text style="font: 20px Roboto, sans-serif; white-space: pre;" font-size="20px" font-family="Roboto, sans-serif">
          <tspan x="22.33" y="34" dominant-baseline="ideographic">Alternative </tspan>
          <tspan x="12.81" y="58" dominant-baseline="ideographic">Explanations</tspan>
        </text>
      </g>
    </g>
  </g>
  <g id="g-root-tx_evaluati_147zmax1aef4zk-stroke-fill" data-item-order="0" transform="translate(44, 386)">
    <g id="tx_evaluati_147zmax1aef4zk-fill" stroke="none" fill="#f4f4f4">
      <g>
        <text style="font: 20px Roboto, sans-serif; white-space: pre;" font-size="20px" font-family="Roboto, sans-serif">
          <tspan x="14.37" y="34" dominant-baseline="ideographic">Evaluating Carter's UFO Sighting vs. Explanatory Theories</tspan>
        </text>
      </g>
    </g>
  </g>
</svg>
