<?xml version='1.0' encoding='utf-8'?>
<svg xmlns="http://www.w3.org/2000/svg" xmlns:xlink="http://www.w3.org/1999/xlink" width="1032" height="708" viewBox="0 0 1032 708" style="fill:none;stroke:none;fill-rule:evenodd;clip-rule:evenodd;stroke-linecap:round;stroke-linejoin:round;stroke-miterlimit:1.5;" version="1.1">
  <style class="text-font-style fontImports" data-font-family="Roboto">@import url('https://fonts.googleapis.com/css2?family=Roboto:wght@400;700&amp;display=block');</style>
  <rect x="0" y="0" width="1032" height="708" fill="#252a34" stroke="none" id="programmatic_background"/>
  <g id="g-root-tf_4o7cfd1bs7h8r-stroke-fill" data-item-order="-683424" transform="translate(12, 12)"/>
  <g id="g-root-sy_4_cu_1d0iv8p1bsfvgq-stroke-fill" data-item-order="-317369" transform="translate(602, 386)">
    <g id="sy_4_cu_1d0iv8p1bsfvgq-stroke" fill="none" stroke-linecap="round" stroke-linejoin="round" stroke-miterlimit="4" stroke="#f79438" stroke-width="2">
      <g>
        <path d="M 33.850586 154.000488L 45.850586 154.000488M 58.200195 70L 70.200195 70M 87.9997 10L 21.9997 238L 10 238"/>
      </g>
    </g>
  </g>
  <g id="g-root-sy_3_cu_18kpd491bsfw8z-stroke-fill" data-item-order="-317365" transform="translate(602, 158.00048828125)">
    <g id="sy_3_cu_18kpd491bsfw8z-stroke" fill="none" stroke-linecap="round" stroke-linejoin="round" stroke-miterlimit="4" stroke="#fb6762" stroke-width="2">
      <g>
        <path d="M 33.84668 93.999512L 45.84668 93.999512M 58.195313 177.999512L 70.195313 177.999512M 87.9997 238L 21.9997 10L 10 10"/>
      </g>
    </g>
  </g>
  <g id="g-root-sy_2_cu_zp2cvd1bsfx1o-stroke-fill" data-item-order="-317361" transform="translate(290, 385.99951171875)">
    <g id="sy_2_cu_zp2cvd1bsfx1o-stroke" fill="none" stroke-linecap="round" stroke-linejoin="round" stroke-miterlimit="4" stroke="#ffe711" stroke-width="2">
      <g>
        <path d="M 33.851563 154.000488L 45.851563 154.000488M 58.200195 70.000488L 70.200195 70.000488M 87.9997 10L 21.9997 238L 10 238"/>
      </g>
    </g>
  </g>
  <g id="g-root-sy_1_cu_zp2cvd1bsfx1p-stroke-fill" data-item-order="-317357" transform="translate(290, 158.00048828125)">
    <g id="sy_1_cu_zp2cvd1bsfx1p-stroke" fill="none" stroke-linecap="round" stroke-linejoin="round" stroke-miterlimit="4" stroke="#43dd93" stroke-width="2">
      <g>
        <path d="M 33.851563 93.999512L 45.851563 93.999512M 58.200195 177.999512L 70.200195 177.999512M 87.9997 238L 21.9997 10L 10 10"/>
      </g>
    </g>
  </g>
  <g id="g-root-sy_-1_line_v9vbu11bsfuo6-stroke-fill" data-item-order="-317351" transform="translate(26, 386)">
    <g id="sy_-1_line_v9vbu11bsfuo6-stroke" fill="none" stroke-linecap="round" stroke-linejoin="round" stroke-miterlimit="4" stroke="#f4f4f4" stroke-width="2">
      <g>
        <path d="M 704 10L 10 10"/>
        <path d="M 698 16.5L 704.5 10L 698 3.5" stroke-dasharray="none"/>
      </g>
    </g>
  </g>
  <g id="g-root-tx_jimmycar_me8bl51bsfvgv-stroke-fill" data-item-order="0" transform="translate(794, 362)">
    <g id="tx_jimmycar_me8bl51bsfvgv-fill" stroke="none" fill="#f4f4f4">
      <g>
        <text style="font: 20px Roboto, sans-serif; white-space: pre;" font-size="20px" font-family="Roboto, sans-serif">
          <tspan x="12" y="34" dominant-baseline="ideographic">Jimmy Carter's UFO </tspan>
          <tspan x="12" y="58" dominant-baseline="ideographic">Sighting</tspan>
        </text>
      </g>
    </g>
  </g>
  <g id="g-root-tx_cultural_dilbc91bsfx1c-stroke-fill" data-item-order="0" transform="translate(434, 434)">
    <g id="tx_cultural_dilbc91bsfx1c-fill" stroke="none" fill="#f4f4f4">
      <g>
        <text style="font: 20px Roboto, sans-serif; white-space: pre;" font-size="20px" font-family="Roboto, sans-serif">
          <tspan x="12.48" y="34" dominant-baseline="ideographic">Cultural Legitimization</tspan>
        </text>
      </g>
    </g>
  </g>
  <g id="g-root-tx_mediacov_4nks6h1bsfuo9-stroke-fill" data-item-order="0" transform="translate(458, 518)">
    <g id="tx_mediacov_4nks6h1bsfuo9-fill" stroke="none" fill="#f4f4f4">
      <g>
        <text style="font: 20px Roboto, sans-serif; white-space: pre;" font-size="20px" font-family="Roboto, sans-serif">
          <tspan x="20.41" y="34" dominant-baseline="ideographic">Media Coverage</tspan>
        </text>
      </g>
    </g>
  </g>
  <g id="g-root-tx_publicin_1qd8bs91bsfw22-stroke-fill" data-item-order="0" transform="translate(422, 602)">
    <g id="tx_publicin_1qd8bs91bsfw22-fill" stroke="none" fill="#f4f4f4">
      <g>
        <text style="font: 20px Roboto, sans-serif; white-space: pre;" font-size="20px" font-family="Roboto, sans-serif">
          <tspan x="12.27" y="34" dominant-baseline="ideographic">Public Interest</tspan>
        </text>
      </g>
    </g>
  </g>
  <g id="g-root-tx_governme_1lxetnt1bsfwub-stroke-fill" data-item-order="0" transform="translate(422, 314)">
    <g id="tx_governme_1lxetnt1bsfwub-fill" stroke="none" fill="#f4f4f4">
      <g>
        <text style="font: 20px Roboto, sans-serif; white-space: pre;" font-size="20px" font-family="Roboto, sans-serif">
          <tspan x="16.83" y="34" dominant-baseline="ideographic">Government Disclosure</tspan>
        </text>
      </g>
    </g>
  </g>
  <g id="g-root-tx_campaign_1d2eai11bsfuh8-stroke-fill" data-item-order="0" transform="translate(422, 230)">
    <g id="tx_campaign_1d2eai11bsfuh8-fill" stroke="none" fill="#f4f4f4">
      <g>
        <text style="font: 20px Roboto, sans-serif; white-space: pre;" font-size="20px" font-family="Roboto, sans-serif">
          <tspan x="20.09" y="34" dominant-baseline="ideographic">Campaign Promises</tspan>
        </text>
      </g>
    </g>
  </g>
  <g id="g-root-tx_politica_18mksdl1bsfv9h-stroke-fill" data-item-order="0" transform="translate(410, 146)">
    <g id="tx_politica_18mksdl1bsfv9h-fill" stroke="none" fill="#f4f4f4">
      <g>
        <text style="font: 20px Roboto, sans-serif; white-space: pre;" font-size="20px" font-family="Roboto, sans-serif">
          <tspan x="13.69" y="34" dominant-baseline="ideographic">Political Impact</tspan>
        </text>
      </g>
    </g>
  </g>
  <g id="g-root-tx_military_zqxs4p1bsfw26-stroke-fill" data-item-order="0" transform="translate(182, 422)">
    <g id="tx_military_zqxs4p1bsfw26-fill" stroke="none" fill="#f4f4f4">
      <g>
        <text style="font: 20px Roboto, sans-serif; white-space: pre;" font-size="20px" font-family="Roboto, sans-serif">
          <tspan x="15.41" y="34" dominant-baseline="ideographic">Military Aircraft </tspan>
          <tspan x="60.77" y="58" dominant-baseline="ideographic">Possibility</tspan>
        </text>
      </g>
    </g>
  </g>
  <g id="g-root-tx_venushyp_mg3quh1bsfuhb-stroke-fill" data-item-order="0" transform="translate(134, 518)">
    <g id="tx_venushyp_mg3quh1bsfuhb-fill" stroke="none" fill="#f4f4f4">
      <g>
        <text style="font: 20px Roboto, sans-serif; white-space: pre;" font-size="20px" font-family="Roboto, sans-serif">
          <tspan x="15.69" y="34" dominant-baseline="ideographic">Venus Hypothesis</tspan>
        </text>
      </g>
    </g>
  </g>
  <g id="g-root-tx_explanat_i0a8q11bsfv9k-stroke-fill" data-item-order="0" transform="translate(50, 602)">
    <g id="tx_explanat_i0a8q11bsfv9k-fill" stroke="none" fill="#f4f4f4">
      <g>
        <text style="font: 20px Roboto, sans-serif; white-space: pre;" font-size="20px" font-family="Roboto, sans-serif">
          <tspan x="13.53" y="34" dominant-baseline="ideographic">Explanatory Theories</tspan>
        </text>
      </g>
    </g>
  </g>
  <g id="g-root-tx_reputati_4otqcp1bsfwuh-stroke-fill" data-item-order="0" transform="translate(110, 314)">
    <g id="tx_reputati_4otqcp1bsfwuh-fill" stroke="none" fill="#f4f4f4">
      <g>
        <text style="font: 20px Roboto, sans-serif; white-space: pre;" font-size="20px" font-family="Roboto, sans-serif">
          <tspan x="18.81" y="34" dominant-baseline="ideographic">Reputation for Honesty</tspan>
        </text>
      </g>
    </g>
  </g>
  <g id="g-root-tx_educatio_9mpbd1bsfugy-stroke-fill" data-item-order="0" transform="translate(182, 218)">
    <g id="tx_educatio_9mpbd1bsfugy-fill" stroke="none" fill="#f4f4f4">
      <g>
        <text style="font: 20px Roboto, sans-serif; white-space: pre;" font-size="20px" font-family="Roboto, sans-serif">
          <tspan x="23.56" y="34" dominant-baseline="ideographic">Educational </tspan>
          <tspan x="21.67" y="58" dominant-baseline="ideographic">Background</tspan>
        </text>
      </g>
    </g>
  </g>
  <g id="g-root-tx_witnessc_1qf3r1l1bsfv2j-stroke-fill" data-item-order="0" transform="translate(62, 146)">
    <g id="tx_witnessc_1qf3r1l1bsfv2j-fill" stroke="none" fill="#f4f4f4">
      <g>
        <text style="font: 20px Roboto, sans-serif; white-space: pre;" font-size="20px" font-family="Roboto, sans-serif">
          <tspan x="23.41" y="34" dominant-baseline="ideographic">Witness Credibility</tspan>
        </text>
      </g>
    </g>
  </g>
  <g id="g-root-tx_analyzin_1lza8x51bsfvus-stroke-fill" data-item-order="0" transform="translate(320, 50)">
    <g id="tx_analyzin_1lza8x51bsfvus-fill" stroke="none" fill="#f4f4f4">
      <g>
        <text style="font: 20px Roboto, sans-serif; white-space: pre;" font-size="20px" font-family="Roboto, sans-serif">
          <tspan x="13.69" y="34" dominant-baseline="ideographic">Analyzing the UFO Sighting of Jimmy Carter</tspan>
        </text>
      </g>
    </g>
    <defs>
      <pattern id="crawlingPattern-0000001b" x="0" y="0" width="12" height="12" patternUnits="userSpaceOnUse" fill="#0000001b">
        <use href="#crawlingSymbol"/>
      </pattern>
      <symbol id="crawlingSymbol">
        <g>
          <path d="M -12.5 12.5 l 13 -13 l 6 0 l -13 13 Z M -0.5 12.5 l 13 -13 l 6 0 l -13 13 Z M 11.5 12.5 l 13 -13 l 6 0 l -13 13 Z"/>
        </g>
      </symbol>
    </defs>
  </g>
  <g id="g-root-ic_chec_18ntqjt1bsfxfp-stroke-fill" data-item-order="0" transform="translate(254, 140)">
    <g id="ic_chec_18ntqjt1bsfxfp-stroke" fill="none" stroke-linecap="round" stroke-linejoin="round" stroke-miterlimit="4" stroke="#f4f4f4" stroke-width="2">
      <g>
        <path d="M 44.875 25L 44.875 13.375C 44.875 12.13236 43.867641 11.125 42.625 11.125L 13.375 11.125C 12.13236 11.125 11.125 12.13236 11.125 13.375L 11.125 33.625C 11.125 34.867641 12.13236 35.875 13.375 35.875L 21.625 35.875M 18.076 18.799C 18.076 20.759058 19.664942 22.348 21.625 22.348C 23.585058 22.348 25.174 20.759058 25.174 18.799C 25.174 16.838942 23.585058 15.25 21.625 15.25C 19.664942 15.25 18.076 16.838942 18.076 18.799M 23.674 29.445999L 15.541 29.445999C 15.540647 27.024506 16.976318 24.833338 19.196548 23.866789C 21.416779 22.90024 23.998817 23.34235 25.771002 24.9925M 31.375 16.75L 38.125 16.75M 31.375 21.25L 40.375 21.25M 26.875 35.875C 26.875002 40.845566 30.904438 44.875 35.875 44.875C 40.845566 44.875 44.875 40.845566 44.875 35.875C 44.875 30.904438 40.845566 26.875002 35.875 26.875002C 30.904438 26.875002 26.875002 30.904438 26.875002 35.875M 39.886002 33.2575L 35.5285 39.068501C 35.154602 39.5662 34.447903 39.666294 33.9505 39.291996C 33.908588 39.260361 33.868988 39.225773 33.832001 39.188499L 31.581999 36.938499"/>
      </g>
    </g>
  </g>
  <g id="g-root-ic_muha_1d30rl51bsiqku-stroke-fill" data-item-order="0" transform="translate(254, 596)">
    <g id="ic_muha_1d30rl51bsiqku-stroke" fill="none" stroke-linecap="round" stroke-linejoin="round" stroke-miterlimit="4" stroke="#f4f4f4" stroke-width="2">
      <g>
        <path d="M 28 39.324997C 29.49115 39.324997 30.700001 38.11615 30.700001 36.625C 30.700001 35.13385 29.49115 33.924999 28 33.924999C 26.50885 33.924999 25.299999 35.13385 25.299999 36.625C 25.299999 38.11615 26.50885 39.324997 28 39.324997ZM 24.25 44.875L 24.25 43.074997C 24.25 40.974998 25.900002 39.324997 28 39.324997C 30.099998 39.324997 31.75 40.974998 31.75 43.074997L 31.75 44.875M 10 10M 23.425014 30.92515L 11.275009 38.725151M 11.275 11.125092L 13.075 11.125092C 14.725 11.125092 16.075001 12.47509 16.075001 14.12509C 18.174999 14.12509 19.825001 15.77509 19.825001 17.87509L 20.575001 17.87509C 22.224998 17.87509 23.575001 19.22509 23.575001 20.87509C 23.575001 20.87509 23.724998 23.57509 21.475 24.32509C 19.975 24.775091 18.325001 23.72509 17.875 22.07509L 17.875 21.925091C 17.725 22.07509 17.424999 22.075075 17.125 22.225075C 15.475 22.525074 13.975 21.625074 13.525 19.975075L 13.525 19.07509C 13.225 19.22509 12.925 19.37509 12.625 19.37509C 12.025 19.525089 11.575 19.525089 11.125 19.37509M 23.424999 30.92515C 21.025 30.17515 19.375 27.92515 19.375 25.225149C 19.375 24.775105 19.375 24.475105 19.525 24.175106M 14.425 26.125151C 14.425 26.125151 14.425 31.67515 18.775 33.77515M 11.275009 31.974998C 11.725015 33.325001 12.625015 35.275002 14.275015 36.625M 10 10M 32.575001 30.92515L 44.724998 38.725151M 44.724998 11.125092L 42.925003 11.125092C 41.275002 11.125092 39.925003 12.47509 39.925003 14.12509C 37.824997 14.12509 36.175003 15.77509 36.175003 17.87509L 35.425003 17.87509C 33.775002 17.87509 32.424999 19.22509 32.424999 20.87509C 32.424999 20.87509 32.275002 23.57509 34.525002 24.32509C 36.025002 24.775091 37.675003 23.72509 38.125 22.07509L 38.125 21.925091C 38.275002 22.07509 38.574997 22.075075 38.875 22.225075C 40.525002 22.525074 42.025002 21.625074 42.474998 19.975075L 42.474998 19.07509C 42.775002 19.22509 43.074997 19.37509 43.375 19.37509C 43.974998 19.525089 44.425003 19.525089 44.875 19.37509M 32.575001 30.92515C 34.974998 30.17515 36.625 27.92515 36.625 25.225149C 36.625 24.775105 36.625 24.475105 36.474998 24.175106M 41.574997 26.125151C 41.574997 26.125151 41.574997 31.67515 37.224998 33.77515M 44.724998 31.974998C 44.275002 33.325001 43.375 35.275002 41.724998 36.625"/>
      </g>
    </g>
  </g>
  <g id="g-root-ic_labo_1qaqill1brz1fr-stroke-fill" data-item-order="0" transform="translate(566, 140)">
    <g id="ic_labo_1qaqill1brz1fr-stroke" fill="none" stroke-linecap="round" stroke-linejoin="round" stroke-miterlimit="4" stroke="#f4f4f4" stroke-width="2">
      <g>
        <path d="M 11.299 11.764C 16.751499 11.764 20.986 15.9835 20.914 21.3535C 21.625 23.1175 23.078499 24.253 23.812 26.233C 23.910006 26.500431 23.876093 26.798429 23.720501 27.036999C 23.644587 27.152546 23.541603 27.247807 23.4205 27.314499C 23.300987 27.38018 23.16687 27.41474 23.0305 27.415001L 20.914 27.414999L 20.914 30.893499C 20.914 31.814501 20.561501 32.699501 19.9345 33.3535C 19.31781 34.000191 18.46409 34.367462 17.570499 34.370499L 15.898 34.370499L 15.898 38.810501M 30.997 38.906502L 28.712502 38.906502C 26.609591 38.907013 24.904575 37.202408 24.904575 35.099499C 24.904575 32.99659 26.609591 31.291988 28.712502 31.292501L 30.997 31.2925L 30.997 38.906502ZM 30.997 38.906502C 35.464001 38.906502 39.832001 40.2295 43.549 42.7075L 44.701 43.475498L 44.701 26.724998L 43.549 27.493C 39.83157 29.970304 35.464249 31.292295 30.996998 31.2925L 30.997 38.906502ZM 30.997 38.906502C 30.995041 40.920891 31.820425 42.847687 33.279999 44.236"/>
      </g>
    </g>
  </g>
  <g id="g-root-ic_1_v8mgtl1bs1szk-stroke-fill" data-item-order="0" transform="translate(566, 596)">
    <g id="ic_1_v8mgtl1bs1szk-stroke" fill="none" stroke-linecap="round" stroke-linejoin="round" stroke-miterlimit="4" stroke="#f4f4f4" stroke-width="2">
      <g>
        <path d="M 24.889 31.8715C 15.139 31.8715 16.021 23.0035 16.021 23.0035C 26.661999 23.0035 24.889 31.8715 24.889 31.8715ZM 31.111 31.8715C 40.861 31.8715 39.979 23.0035 39.979 23.0035C 29.338001 23.0035 31.111 31.8715 31.111 31.8715ZM 43.75 25.375C 43.75 34.903 32.5 44.875 28 44.875C 23.5 44.875 12.25 34.900002 12.25 25.375C 12.25 15.85 18.472 11.125 28 11.125C 37.528 11.125 43.75 15.85 43.75 25.375Z"/>
      </g>
    </g>
  </g>
  <g id="g-root-ic_ufo_13zw5gp1bs4o3t-stroke-fill" data-item-order="0" transform="translate(734, 362)">
    <g id="ic_ufo_13zw5gp1bs4o3t-stroke" fill="none" stroke-linecap="round" stroke-linejoin="round" stroke-miterlimit="4" stroke="#f4f4f4" stroke-width="2">
      <g>
        <path d="M 49 22.5C 52.977859 22.499041 56.352161 25.420879 56.919998 29.358C 56.961449 29.646814 56.874687 29.939325 56.682472 30.158836C 56.490257 30.378345 56.211758 30.502958 55.919998 30.5L 12.07 30.5C 11.778242 30.502958 11.499743 30.378345 11.307528 30.158836C 11.115312 29.939325 11.028553 29.646814 11.07 29.358C 11.638377 25.417118 15.018346 22.494064 19 22.5ZM 19 22.5C 19 17.5 25.716 11.5 34 11.5C 42.284 11.5 49 17.5 49 22.5M 47.77 39.5L 52.995998 56.5M 14.996 56.5L 20.232 39.5M 34.996002 49.5L 31.996 53.652M 37.996002 53.5L 34.996002 49.5M 31.996 46.5L 37.996002 46.5M 35 41.5C 35.552284 41.5 36 41.947716 36 42.5M 34 42.5C 34 41.947716 34.447716 41.5 35 41.5M 35 43.5C 34.447716 43.5 34 43.052284 34 42.5M 36 42.5C 36 43.052284 35.552284 43.5 35 43.5M 34.996002 49.5L 34.996002 46.5M 25 30.5C 25 33.261421 22.761425 35.5 20 35.5C 17.238577 35.5 15 33.261421 15 30.5M 39 30.5C 39 33.261421 36.761425 35.5 34 35.5C 31.238577 35.5 29 33.261421 29 30.5M 53 30.5C 53 33.261421 50.761425 35.5 48 35.5C 45.238575 35.5 43 33.261421 43 30.5"/>
      </g>
    </g>
  </g>
</svg>
