<?xml version='1.0' encoding='utf-8'?>
<svg xmlns="http://www.w3.org/2000/svg" xmlns:xlink="http://www.w3.org/1999/xlink" width="600" height="516" viewBox="0 0 600 516" style="fill:none;stroke:none;fill-rule:evenodd;clip-rule:evenodd;stroke-linecap:round;stroke-linejoin:round;stroke-miterlimit:1.5;" version="1.1">
  <style class="text-font-style fontImports" data-font-family="Roboto">@import url('https://fonts.googleapis.com/css2?family=Roboto:wght@400;700&amp;display=block');</style>
  <rect x="0" y="0" width="6E+2" height="516" fill="#252a34" stroke="none" id="programmatic_background"/>
  <g id="g-root-tf_meu3eh1cm7mkt-stroke-fill" data-item-order="-277488" transform="translate(18, 12)">
    <g id="tf_meu3eh1cm7mkt-fill" stroke="none" fill="#2c2c2c">
      <g>
        <path d="M 0 0L 564 0L 564 492L 0 492Z"/>
      </g>
    </g>
    <defs>
      <pattern id="crawlingPattern-8484841a" x="0" y="0" width="12" height="12" patternUnits="userSpaceOnUse" fill="#8484841a">
        <use href="#crawlingSymbol"/>
      </pattern>
      <symbol id="crawlingSymbol">
        <g>
          <path d="M -12.5 12.5 l 13 -13 l 6 0 l -13 13 Z M -0.5 12.5 l 13 -13 l 6 0 l -13 13 Z M 11.5 12.5 l 13 -13 l 6 0 l -13 13 Z"/>
        </g>
      </symbol>
      <pattern id="crawlingPattern-8ed00028" x="0" y="0" width="12" height="12" patternUnits="userSpaceOnUse" fill="#8ed00028">
        <use href="#crawlingSymbol"/>
      </pattern>
      <pattern id="crawlingPattern-0060fb20" x="0" y="0" width="12" height="12" patternUnits="userSpaceOnUse" fill="#0060fb20">
        <use href="#crawlingSymbol"/>
      </pattern>
      <pattern id="crawlingPattern-0000001b" x="0" y="0" width="12" height="12" patternUnits="userSpaceOnUse" fill="#0000001b">
        <use href="#crawlingSymbol"/>
      </pattern>
      <pattern id="crawlingPattern-5f5f5f1a" x="0" y="0" width="12" height="12" patternUnits="userSpaceOnUse" fill="#5f5f5f1a">
        <use href="#crawlingSymbol"/>
      </pattern>
    </defs>
  </g>
  <g id="g-root-sy_4_cu_1ltn6pl1cmhgqy-stroke-fill" data-item-order="-31639" transform="translate(200, 273)">
    <g id="sy_4_cu_1ltn6pl1cmhgqy-stroke" fill="none" stroke-linecap="round" stroke-linejoin="round" stroke-miterlimit="4" stroke="#f4f4f4" stroke-width="2">
      <g>
        <path d="M 10 34L 10 46.961C 10 51.765 14.204 55.485 18.972 54.901L 88 46.448M 178 10L 178 27.415C 178 31.418 175.043 34.804 171.077 35.343L 100 45"/>
      </g>
    </g>
  </g>
  <g id="g-root-sy_3_cu_1hdtol51cmhhj7-stroke-fill" data-item-order="-31636" transform="translate(248, 302)">
    <g id="sy_3_cu_1hdtol51cmhhj7-fill" stroke="none" fill="#b7b7b7">
      <g>
        <path d="M 46 22C 49.314 22 52 19.314 52 16C 52 12.686 49.314 10 46 10C 42.686 10 40 12.686 40 16C 40 19.314 42.686 22 46 22ZM 43 77.995L 49 77.995L 49 21.533C 49 21.533 47.756 22.333 46.043 22.333C 44.212 22.333 43 21.533 43 21.533L 43 77.995ZM 16.4 86C 12.865 86 10 88.865 10 92.4C 10 93.284 10.716 94 11.6 94L 80.4 94C 81.284 94 82 93.284 82 92.4C 82 88.865 79.135 86 75.6 86L 16.4 86ZM 28 78C 24.686 78 22 80.686 22 84L 22 86L 70 86L 70 84C 70 80.686 67.314 78 64 78L 28 78Z"/>
      </g>
    </g>
    <g id="sy_3_cu_1hdtol51cmhhj7-stroke" fill="none" stroke-linecap="round" stroke-linejoin="round" stroke-miterlimit="4" stroke="#2c2c2c" stroke-width="2">
      <g>
        <path d="M 46 22C 49.314 22 52 19.314 52 16C 52 12.686 49.314 10 46 10C 42.686 10 40 12.686 40 16C 40 19.314 42.686 22 46 22ZM 43 77.995L 49 77.995L 49 21.533C 49 21.533 47.756 22.333 46.043 22.333C 44.212 22.333 43 21.533 43 21.533L 43 77.995ZM 16.4 86C 12.865 86 10 88.865 10 92.4C 10 93.284 10.716 94 11.6 94L 80.4 94C 81.284 94 82 93.284 82 92.4C 82 88.865 79.135 86 75.6 86L 16.4 86ZM 28 78C 24.686 78 22 80.686 22 84L 22 86L 70 86L 70 84C 70 80.686 67.314 78 64 78L 28 78Z"/>
      </g>
    </g>
  </g>
  <g id="g-root-sy_2_right-bucket_18i6oc91cmhibw-stroke-fill" data-item-order="-31632" transform="translate(332, 254)">
    <g id="sy_2_right-bucket_18i6oc91cmhibw-fill" stroke="none" fill="#a6da37">
      <g>
        <path d="M 10 11.8C 10 10.806 10.806 10 11.8 10L 80.2 10C 81.194 10 82 10.806 82 11.8C 82 20.747 74.747 28 65.8 28L 26.2 28C 17.253 28 10 20.747 10 11.8Z"/>
      </g>
    </g>
    <g id="sy_2_right-bucket_18i6oc91cmhibw-stroke" fill="none" stroke-linecap="round" stroke-linejoin="round" stroke-miterlimit="4" stroke="#2c2c2c" stroke-width="2">
      <g>
        <path d="M 10 11.8C 10 10.806 10.806 10 11.8 10L 80.2 10C 81.194 10 82 10.806 82 11.8C 82 20.747 74.747 28 65.8 28L 26.2 28C 17.253 28 10 20.747 10 11.8Z"/>
      </g>
    </g>
  </g>
  <g id="g-root-sy_1_left-bucket_18i6oc91cmhibx-stroke-fill" data-item-order="-31628" transform="translate(164, 278)">
    <g id="sy_1_left-bucket_18i6oc91cmhibx-fill" stroke="none" fill="#4f91fc">
      <g>
        <path d="M 10 11.8C 10 10.806 10.806 10 11.8 10L 80.2 10C 81.194 10 82 10.806 82 11.8C 82 20.747 74.747 28 65.8 28L 26.2 28C 17.253 28 10 20.747 10 11.8Z"/>
      </g>
    </g>
    <g id="sy_1_left-bucket_18i6oc91cmhibx-stroke" fill="none" stroke-linecap="round" stroke-linejoin="round" stroke-miterlimit="4" stroke="#2c2c2c" stroke-width="2">
      <g>
        <path d="M 10 11.8C 10 10.806 10.806 10 11.8 10L 80.2 10C 81.194 10 82 10.806 82 11.8C 82 20.747 74.747 28 65.8 28L 26.2 28C 17.253 28 10 20.747 10 11.8Z"/>
      </g>
    </g>
  </g>
  <g id="g-root-ic_fold_142znax1cmhfye-stroke-fill" data-item-order="-2304" transform="translate(176, 218)">
    <g id="ic_fold_142znax1cmhfye-fill" stroke="none" fill="#b7b7b7">
      <g>
        <path d="M 21 19L 27.5 19C 27.5 19 30 19 30 21.5L 30 31C 30 31 30 33.5 27.5 33.5L 21 33.5C 21 33.5 18.5 33.5 18.5 31L 18.5 21.5C 18.5 21.5 18.5 19 21 19M 58 30C 58 26.686293 55.313709 24 52 24L 48 24L 48 15C 48 12.790861 46.209141 11 44 11L 14 11C 11.790861 11 10 12.790861 10 15L 10 50C 10 53.865993 13.134007 57.000004 17 57.000004L 51 57C 54.865993 57.000004 58.000004 53.865993 58.000004 50ZM 17 53C 15.343145 53 14 51.656857 14 50L 14 16C 14 15.447716 14.447716 15 15 15L 43 15C 43.552284 15 44 15.447716 44 16L 44 50C 44.000305 50.586914 44.074215 51.171474 44.219997 51.739998C 44.302525 52.045292 44.235775 52.371632 44.040001 52.619999C 43.853291 52.861134 43.564964 53.001598 43.260002 53ZM 54 50C 54 51.656857 52.656857 53 51 53C 49.343147 53 48 51.656857 48 50L 48 29C 48 28.447716 48.447716 28 49 28L 52 28C 53.104568 28 54 28.89543 54 30ZM 35.5 22.1L 39.5 22.1C 39.5 22.1 41 22.1 41 23.6L 41 24.6C 41 24.6 41 26.1 39.5 26.1L 35.5 26.1C 35.5 26.1 34 26.1 34 24.6L 34 23.6C 34 23.6 34 22.1 35.5 22.1M 35.5 30.1L 39.5 30.1C 39.5 30.1 41 30.1 41 31.6L 41 32.599998C 41 32.599998 41 34.099998 39.5 34.099998L 35.5 34.099998C 35.5 34.099998 34 34.099998 34 32.599998L 34 31.6C 34 31.6 34 30.1 35.5 30.1M 19.5 38.099998L 39.5 38.099998C 39.5 38.099998 41 38.099998 41 39.599998L 41 40.599998C 41 40.599998 41 42.099998 39.5 42.099998L 19.5 42.099998C 19.5 42.099998 18 42.099998 18 40.599998L 18 39.599998C 18 39.599998 18 38.099998 19.5 38.099998M 19.5 46.099998L 34.5 46.099998C 34.5 46.099998 36 46.099998 36 47.599998L 36 48.599998C 36 48.599998 36 50.099998 34.5 50.099998L 19.5 50.099998C 19.5 50.099998 18 50.099998 18 48.599998L 18 47.599998C 18 47.599998 18 46.099998 19.5 46.099998"/>
      </g>
    </g>
  </g>
  <g id="g-root-ic_watc_1qbyoc91clxtzb-stroke-fill" data-item-order="-2304" transform="translate(176, 146)">
    <g id="ic_watc_1qbyoc91clxtzb-fill" stroke="none" fill="#b7b7b7">
      <g>
        <path d="M 22.540001 50.919998C 22.660645 50.652996 22.660645 50.347004 22.540001 50.079998C 22.427715 49.812759 22.21089 49.603161 21.939999 49.499996C 20.987362 49.172398 19.987387 49.003483 18.98 48.999996C 14.464943 49.03389 10.670528 52.401009 10.1 56.880001C 10.067971 57.162067 10.154943 57.444725 10.34 57.66C 10.531866 57.878422 10.809288 58.002529 11.1 58L 20 58C 20.552284 58 21 57.552284 21 57C 21.014236 54.878635 21.542669 52.792358 22.540001 50.920002ZM 42 31C 41.340084 30.994051 40.725586 30.662941 40.35767 30.115068C 39.989754 29.567198 39.915794 28.873096 40.16 28.26C 41.282238 25.453629 43.033916 22.942436 45.279999 20.92C 46.130531 20.169001 47.428814 20.249634 48.179878 21.100105C 48.930943 21.950577 48.85041 23.248867 48 24C 46.247379 25.623615 44.8806 27.61911 44 29.84C 43.647011 30.611876 42.845268 31.076885 42 31ZM 26 31C 25.180393 31.000793 24.443254 30.501442 24.139999 29.74C 23.234797 27.55122 21.854931 25.590715 20.1 24C 19.249481 23.265461 19.15546 21.980518 19.889999 21.129999C 20.624538 20.27948 21.909481 20.185461 22.759998 20.919998C 25.006084 22.942436 26.757761 25.453629 27.879999 28.26C 28.126842 28.879679 28.048504 29.581631 27.671122 30.131645C 27.293739 30.68166 26.666992 31.007332 26 31ZM 44.040001 42C 44.040001 44.761425 46.278576 47 49.040001 47C 51.801426 47 54.040001 44.761425 54.040001 42C 54.040001 39.238579 51.801426 37 49.040001 37C 46.278576 37 44.040001 39.238579 44.040001 42M 47.040001 57C 47.040001 57.552284 47.487717 58 48.040001 58L 56.959999 58C 57.250713 58.002529 57.528133 57.878422 57.720001 57.66C 57.905056 57.444725 57.992027 57.162067 57.959999 56.880001C 57.627209 54.166828 56.079384 51.751945 53.753113 50.316505C 51.426838 48.881062 48.574265 48.580647 46 49.5C 45.720234 49.596333 45.494747 49.80727 45.379997 50.079998C 45.259354 50.347004 45.259354 50.652996 45.380001 50.919998C 46.421387 52.780758 46.991314 54.868206 47.040001 57ZM 14.04 42C 14.04 44.761425 16.278576 47 19.040001 47C 21.801424 47 24.040001 44.761425 24.040001 42C 24.040001 39.238579 21.801424 37 19.040001 37C 16.278576 37 14.04 39.238579 14.04 42M 38 47.799999C 37.832672 47.723007 37.718559 47.563248 37.699997 47.379997C 37.696274 47.195763 37.786751 47.022339 37.940002 46.920002C 40.825562 45.18177 42.198162 41.732887 41.296104 38.487244C 40.394043 35.2416 37.438667 32.99559 34.07 32.99559C 30.701334 32.99559 27.745958 35.2416 26.843899 38.487244C 25.941841 41.732887 27.31444 45.18177 30.200001 46.920002C 30.359522 47.016582 30.45204 47.193909 30.440001 47.380001C 30.42144 47.563248 30.307325 47.723007 30.139999 47.799999C 26.497446 49.38974 24.142048 52.985649 24.139999 56.959999C 24.119923 57.235847 24.222347 57.506538 24.42 57.700001C 24.610775 57.891438 24.869732 57.999336 25.139999 58L 43.139999 58C 43.410267 57.999336 43.669224 57.891438 43.860001 57.700001C 44.057652 57.506538 44.160076 57.235847 44.139999 56.959999C 44.146191 52.942257 41.718765 49.320885 38 47.799999ZM 34 45C 31.514719 45 29.5 42.985283 29.5 40.5C 29.501667 40.018311 29.575832 39.539612 29.720001 39.080002C 29.765665 38.930168 29.887539 38.815914 30.039999 38.779999C 30.178785 38.711998 30.341215 38.711998 30.48 38.779999C 32.110786 39.879009 34.033463 40.464172 36 40.459999C 36.631042 40.461548 37.260719 40.40126 37.879997 40.279999C 38.03743 40.246887 38.20118 40.291542 38.32 40.400002C 38.421013 40.508926 38.478027 40.651459 38.48 40.800003C 38.322342 43.159725 36.364983 44.994751 34 45ZM 10 10M 21.18 15L 20.5 15C 18.718195 14.733552 17.334398 13.308815 17.119999 11.52L 17.02 10.86C 16.948866 10.355273 16.509489 9.984818 16 10C 15.501231 10.003608 15.078227 10.367391 15 10.86L 15 11.52C 14.745993 13.296754 13.339603 14.68679 11.559999 14.92L 10.9 14.92C 10.360198 14.982766 9.964396 15.457729 10 16C 9.993624 16.495392 10.350943 16.920773 10.84 17L 11.52 17C 13.276275 17.257809 14.652557 18.642235 14.9 20.4L 14.9 21.060001C 14.920404 21.330841 15.047987 21.582359 15.254473 21.758808C 15.460957 21.935261 15.72929 22.02207 16 22C 16.494335 21.994978 16.910816 21.629494 16.98 21.139999L 17.08 20.48C 17.329666 18.715944 18.715944 17.329666 20.48 17.08L 21.139999 17.08C 21.663759 16.998177 22.037537 16.528782 22 16C 21.992332 15.516587 21.652544 15.102212 21.18 15ZM 10 10M 38.18 14L 37.639999 14C 36.305035 13.788437 35.270077 12.720881 35.099998 11.38L 35.099998 10.86C 35.099998 10.307715 34.652283 9.86 34.099998 9.86C 33.547714 9.86 33.099998 10.307715 33.099998 10.86L 33.099998 11.4C 32.913666 12.78126 31.806271 13.855597 30.42 14L 29.879999 14C 29.403679 14.095739 29.060997 14.514153 29.060997 15C 29.060997 15.485847 29.403679 15.904261 29.879999 16L 30.42 16C 31.739155 16.198673 32.771679 17.239328 32.959999 18.559999L 32.959999 19.08C 32.959999 19.632286 33.407715 20.08 33.959999 20.08C 34.512283 20.08 34.959999 19.632286 34.959999 19.08L 34.959999 18.560001C 35.169739 17.197815 36.269638 16.14716 37.639999 16L 38.18 16C 38.656319 15.904261 38.999001 15.485847 38.999001 15C 38.999001 14.514153 38.656319 14.095739 38.18 14ZM 34 30C 32.895432 30 32 29.10457 32 28L 32 24C 32 22.895432 32.895432 22 34 22C 35.104568 22 36 22.895432 36 24L 36 28C 36 29.10457 35.104568 30 34 30Z"/>
      </g>
    </g>
  </g>
  <g id="g-root-ic_2_4m7cp1cm0l54-stroke-fill" data-item-order="-2304" transform="translate(176, 74)">
    <g id="ic_2_4m7cp1cm0l54-fill" stroke="none" fill="#b7b7b7">
      <g>
        <path d="M 14.532 31.945999C 14.530405 22.12525 22.491249 14.163113 32.312 14.163113C 42.132751 14.163113 50.093597 22.12525 50.092003 31.946001C 50.090408 41.764496 42.130497 49.723114 32.312 49.723114C 22.493504 49.723114 14.533594 41.764496 14.532 31.946001ZM 32.312 10.166C 20.284 10.166 10.532 19.916 10.532 31.945999C 10.532 43.973999 20.284 53.726002 32.312 53.726002C 37.643234 53.733109 42.790531 51.77742 46.772003 48.232002L 54.568001 56.026001C 55.352757 56.783943 56.60017 56.773106 57.371635 56.001637C 58.143105 55.230171 58.153946 53.982758 57.396 53.198002L 49.507999 45.312C 52.485367 41.493385 54.099072 36.788158 54.092003 31.946001C 54.091999 19.916 44.34 10.166 32.312 10.166ZM 31.728001 17.91C 27.286318 17.904886 23.286812 20.598303 21.621601 24.716026C 19.956392 28.833748 20.959354 33.550163 24.155998 36.633999L 24.156 43.368C 24.156 43.644001 24.380001 43.868 24.656 43.868L 36.302002 43.868C 36.57814 43.868 36.802002 43.644142 36.802002 43.368L 36.802002 40.540001L 37.966 40.540001C 40.080147 40.540001 41.794003 38.826149 41.794003 36.712002L 41.793999 33.884003L 43.402 33.884003C 43.840946 33.884239 44.251831 33.668205 44.500454 33.306465C 44.749077 32.944717 44.80352 32.483711 44.646 32.074001C 44.410789 31.462969 44.17812 30.850964 43.947998 30.237999C 42.835999 27.278 41.779999 24.466 40.274002 22.299999C 39.356003 20.98 38.257999 19.878 36.858002 19.105999C 35.456001 18.334 33.778 17.91 31.728001 17.91ZM 31.643999 24.630001C 30.454 24.630001 29.57 25.598 29.57 26.704C 29.57 27.532427 28.898428 28.204 28.07 28.204C 27.241573 28.204 26.57 27.532427 26.57 26.704C 26.57 24.043999 28.695999 21.628 31.643999 21.628C 34.304001 21.628 36.720001 23.754 36.720001 26.704C 36.720001 28.884001 35.288002 30.903999 33.143997 31.558001L 33.143997 31.865999C 33.144001 32.694427 32.472427 33.366001 31.644001 33.366001C 30.815573 33.366001 30.144001 32.694427 30.144001 31.866001L 30.143999 30.278C 30.144001 29.449574 30.815573 28.778 31.644001 28.778C 32.789993 28.778002 33.719002 27.848991 33.719002 26.703001C 33.719002 25.557011 32.789993 24.628002 31.644001 24.628002ZM 31.643999 36.09C 32.384003 36.09 33.124001 36.830002 33.124001 37.57C 33.124001 38.309998 32.384003 39.048 31.643999 39.048C 30.906 39.048 30.164 38.307999 30.164 37.568001C 30.164 36.830002 30.906 36.09 31.643999 36.09Z"/>
      </g>
    </g>
  </g>
  <g id="g-root-ic_pers_hwioxl1cm21hl-stroke-fill" data-item-order="-2304" transform="translate(344, 194)">
    <g id="ic_pers_hwioxl1cm21hl-fill" stroke="none" fill="#b7b7b7">
      <g>
        <path d="M 16 12C 16 10.895431 15.104569 10 14 10L 12 10C 10.895431 10 10 10.895431 10 12L 10 22C 10 23.104568 10.895431 24 12 24L 14 24C 15.104569 24 16 23.104568 16 22ZM 18 20.58C 17.998692 20.723301 18.056581 20.86079 18.16 20.959999C 18.269445 21.056433 18.415546 21.100262 18.560001 21.08L 22.92 20.560001C 23.111362 20.546833 23.276512 20.421003 23.34 20.24C 23.822111 18.914991 24.849533 17.860504 26.161558 17.344109C 27.473585 16.827713 28.944113 16.899044 30.200001 17.540001C 30.3547 17.629316 30.5453 17.629316 30.700001 17.540001C 30.849852 17.453491 30.941547 17.293024 30.939999 17.119999L 30.940001 15.42C 30.942581 14.367872 30.129551 13.493647 29.08 13.42L 18.540001 12.74C 18.40144 12.717061 18.260256 12.761645 18.16 12.86C 18.063236 12.95557 18.006096 13.084133 18 13.22ZM 10 10M 18.939999 35.580002L 10.18 55.18C 9.806145 56.16835 10.265658 57.276993 11.229082 57.711063C 12.192506 58.14513 13.327366 57.754833 13.82 56.82L 18.939999 45.380001L 18.939999 56C 18.939999 57.104568 19.83543 58 20.939999 58C 22.044571 58 22.939999 57.104568 22.939999 56L 22.939999 45.259998L 28.18 56.82C 28.672634 57.754833 29.807495 58.14513 30.770918 57.711063C 31.734343 57.276993 32.193855 56.16835 31.82 55.18L 22.939999 35.559998L 22.939999 23.139999C 22.931637 22.994762 22.867081 22.858479 22.76 22.76C 22.654293 22.671125 22.517574 22.627953 22.379999 22.639999L 19.380001 23C 19.127518 23.030512 18.938164 23.245687 18.939999 23.5ZM 36.5 16.5C 36.5 18.985281 38.514717 21 41 21C 43.485283 21 45.5 18.985281 45.5 16.5C 45.5 14.014719 43.485283 12 41 12C 38.514717 12 36.5 14.014719 36.5 16.5M 48.400002 23.200001C 47.422089 21.898952 45.585133 21.614979 44.260002 22.560001L 38.639999 26.559999C 37.297207 27.523344 35.4282 27.219296 34.459999 25.880001L 30.459999 20.26C 29.491817 18.924006 27.630615 18.61232 26.280001 19.559999C 25.629128 20.018597 25.188843 20.718588 25.057339 21.50386C 24.925833 22.289133 25.114044 23.094376 25.580002 23.740002L 29.58 29.360001C 30.95923 31.308155 33.058792 32.62545 35.412971 33.019691C 37.767151 33.413933 40.181328 32.852524 42.119999 31.459999L 44.959999 29.459999C 45.188564 29.309614 45.494568 29.362072 45.659996 29.579998L 51.400002 37.200001C 51.794796 37.716484 52.005947 38.349937 52 39L 52 55C 52 56.656857 53.343147 58 55 58C 56.656857 58 58 56.656857 58 55L 58 39C 57.994286 37.053596 57.36327 35.160545 56.200001 33.599998Z"/>
      </g>
    </g>
  </g>
  <g id="g-root-ic_1_1czvovt1cm3g96-stroke-fill" data-item-order="-2304" transform="translate(344, 122)">
    <g id="ic_1_1czvovt1cm3g96-fill" stroke="none" fill="#b7b7b7">
      <g>
        <path d="M 58 55C 58 53.343147 56.656857 52 55 52L 53.5 52C 53.223858 52 53 51.776142 53 51.5L 53 38.5C 53 37.947716 52.552284 37.5 52 37.5L 16 37.5C 15.447716 37.5 15 37.947716 15 38.5L 15 51.5C 15 51.776142 14.776142 52 14.5 52L 13 52C 11.343145 52 10 53.343147 10 55C 10 56.656857 11.343145 58 13 58L 55 58C 56.656857 58 58 56.656857 58 55ZM 38 51C 38 51.552284 37.552284 52 37 52L 31 52C 30.447716 52 30 51.552284 30 51L 30 42.5C 30 41.947716 30.447716 41.5 31 41.5L 37 41.5C 37.552284 41.5 38 41.947716 38 42.5ZM 19 51L 19 42.5C 19 41.947716 19.447716 41.5 20 41.5L 26 41.5C 26.552284 41.5 27 41.947716 27 42.5L 27 51C 27 51.552284 26.552284 52 26 52L 20 52C 19.447716 52 19 51.552284 19 51ZM 42 52C 41.447716 52 41 51.552284 41 51L 41 42.5C 41 41.947716 41.447716 41.5 42 41.5L 48 41.5C 48.552284 41.5 49 41.947716 49 42.5L 49 51C 49 51.552284 48.552284 52 48 52ZM 12.98 31.66C 12.991355 31.712729 12.991355 31.767271 12.98 31.82C 13.144924 33.358459 14.452844 34.519131 16 34.5L 52 34.5C 53.531887 34.498528 54.816601 33.343147 54.98 31.820002C 54.968643 31.767271 54.968643 31.712729 54.98 31.66L 56.68 27.780001C 57.089188 26.976645 57.052998 26.01865 56.584362 25.248455C 56.115726 24.478264 55.281544 24.005817 54.380001 24L 44.799999 24C 44.632767 23.99847 44.476475 23.916605 44.379997 23.779999C 42.588245 20.912151 39.694832 18.908461 36.379997 18.24C 36.14344 18.191763 35.975132 17.98138 35.98 17.74L 35.98 16.5C 35.979889 16.363853 36.035305 16.233547 36.133446 16.139183C 36.231583 16.044819 36.36396 15.994555 36.5 16L 41 16C 42.104568 16 43 15.104569 43 14L 43 12C 43 10.895431 42.104568 10 41 10L 34 10C 32.895432 10 32 10.895431 32 12L 32 17.74C 32.004868 17.98138 31.836561 18.191763 31.6 18.24C 28.282316 18.901747 25.386473 20.90712 23.6 23.779999C 23.507704 23.911068 23.360115 23.992241 23.199999 24L 13.62 24C 12.173014 24 11 25.173012 11 26.619999C 11.000623 27.008217 11.089532 27.391211 11.26 27.74Z"/>
      </g>
    </g>
  </g>
  <g id="g-root-ic_chem_18i6ri11cm68sr-stroke-fill" data-item-order="-2304" transform="translate(344, 50)">
    <g id="ic_chem_18i6ri11cm68sr-fill" stroke="none" fill="#b7b7b7">
      <g>
        <path d="M 10 10M 57.040001 49.220001L 49.259998 38.360001L 49.259998 32.959999C 50.293728 32.866592 51.084213 31.997931 51.080002 30.959999C 51.080002 29.855431 50.18457 28.959999 49.080002 28.959999L 36.360001 28.959999C 35.255432 28.959999 34.360001 29.855431 34.360001 30.959999C 34.355789 31.997931 35.146271 32.866592 36.18 32.959999L 36.18 38.360001L 28.34 49.299999C 28.302225 49.350426 28.268774 49.40395 28.24 49.459999L 28.24 49.560001L 28 50L 28 50.099998L 28 50.220001L 28 50.34L 28 50.459999C 27.991327 50.499531 27.991327 50.54047 28 50.579998L 28 50.720001L 28 50.860001C 28.011354 50.912727 28.011354 50.96727 28 51.02L 28 51.18C 27.988644 51.232727 27.988644 51.28727 28 51.34C 27.705935 52.906246 28.088196 54.523796 29.052273 55.792717C 30.016348 57.061638 31.472244 57.863483 33.059998 58L 52.380001 58C 54.442417 58.004448 56.340355 56.874905 57.32 55.060001C 58.31266 53.211079 58.204994 50.965473 57.040001 49.220001ZM 34.900002 47L 37.760002 43L 39.760002 40.16C 40.004452 39.82238 40.137306 39.416817 40.139999 39L 40.139999 33L 45.220001 33L 45.220001 39C 45.222691 39.416817 45.355549 39.82238 45.599998 40.16L 47.48 42.799999L 50.5 47ZM 27.5 43C 27.776142 43 28 43.223858 28 43.5L 28 44.619999L 33.18 37.400002L 33.18 34.84C 32.87706 34.590515 32.602116 34.308861 32.360001 34L 15 34C 14.447716 34 14 33.552284 14 33L 14 15.18C 13.953836 14.579151 14.399717 14.053013 15 14L 47 14C 47.600285 14.053013 48.046165 14.579151 48.000004 15.18L 48 26L 49.080002 26C 50.126942 26.00495 51.146782 26.333256 52 26.939999L 52 15.18C 52.044601 12.370882 49.808941 10.054733 47 10L 15 10C 12.191061 10.054733 9.955397 12.370882 10 15.18L 10 37C 10 40.313709 12.686292 43 16 43ZM 16 50C 16 51.104568 16.895432 52 18 52L 24.439999 52C 24.504799 50.590981 24.909658 49.218578 25.619999 47.999996L 18 48C 16.895432 48 16 48.895432 16 50Z"/>
      </g>
    </g>
  </g>
  <g id="g-root-tx_limitedj_1luw81l1cm7mro-stroke-fill" data-item-order="0" transform="translate(56, 206)">
    <g id="tx_limitedj_1luw81l1cm7mro-fill" stroke="none" fill="#f4f4f4">
      <g>
        <text style="font: 20px Roboto, sans-serif; white-space: pre;" font-size="20px" font-family="Roboto, sans-serif">
          <tspan x="49.53" y="34" dominant-baseline="ideographic">Limited </tspan>
          <tspan x="11.91" y="58" dominant-baseline="ideographic">Journalistic </tspan>
          <tspan x="25.3" y="82" dominant-baseline="ideographic">Standards</tspan>
        </text>
      </g>
    </g>
  </g>
  <g id="g-root-tx_highridi_1cz97sp1cm7nkd-stroke-fill" data-item-order="0" transform="translate(32, 146)">
    <g id="tx_highridi_1cz97sp1cm7nkd-fill" stroke="none" fill="#f4f4f4">
      <g>
        <text style="font: 20px Roboto, sans-serif; white-space: pre;" font-size="20px" font-family="Roboto, sans-serif">
          <tspan x="23.36" y="34" dominant-baseline="ideographic">High Ridicule </tspan>
          <tspan x="83.39" y="58" dominant-baseline="ideographic">Factor</tspan>
        </text>
      </g>
    </g>
  </g>
  <g id="g-root-tx_historic_zof6ih1cm7lzi-stroke-fill" data-item-order="0" transform="translate(56, 62.000099182128906)">
    <g id="tx_historic_zof6ih1cm7lzi-fill" stroke="none" fill="#f4f4f4">
      <g>
        <text style="font: 20px Roboto, sans-serif; white-space: pre;" font-size="20px" font-family="Roboto, sans-serif">
          <tspan x="30.94" y="34" dominant-baseline="ideographic">Historical </tspan>
          <tspan x="46.91" y="58" dominant-baseline="ideographic">Context </tspan>
          <tspan x="17.55" y="82" dominant-baseline="ideographic">Challenges</tspan>
        </text>
      </g>
    </g>
  </g>
  <g id="g-root-tx_rigorous_v8loe11cm7mrr-stroke-fill" data-item-order="0" transform="translate(404, 182)">
    <g id="tx_rigorous_v8loe11cm7mrr-fill" stroke="none" fill="#f4f4f4">
      <g>
        <text style="font: 20px Roboto, sans-serif; white-space: pre;" font-size="20px" font-family="Roboto, sans-serif">
          <tspan x="12" y="34" dominant-baseline="ideographic">Rigorous </tspan>
          <tspan x="12" y="58" dominant-baseline="ideographic">Investigation </tspan>
          <tspan x="12" y="82" dominant-baseline="ideographic">Protocols</tspan>
        </text>
      </g>
    </g>
  </g>
  <g id="g-root-tx_institut_qss69l1cm7nk0-stroke-fill" data-item-order="0" transform="translate(404, 122)">
    <g id="tx_institut_qss69l1cm7nk0-fill" stroke="none" fill="#f4f4f4">
      <g>
        <text style="font: 20px Roboto, sans-serif; white-space: pre;" font-size="20px" font-family="Roboto, sans-serif">
          <tspan x="12" y="34" dominant-baseline="ideographic">Institutional </tspan>
          <tspan x="12" y="58" dominant-baseline="ideographic">Credibility</tspan>
        </text>
      </g>
    </g>
  </g>
  <g id="g-root-tx_advanced_dhy4zd1cm7lz5-stroke-fill" data-item-order="0" transform="translate(404, 50)">
    <g id="tx_advanced_dhy4zd1cm7lz5-fill" stroke="none" fill="#f4f4f4">
      <g>
        <text style="font: 20px Roboto, sans-serif; white-space: pre;" font-size="20px" font-family="Roboto, sans-serif">
          <tspan x="12" y="34" dominant-baseline="ideographic">Advanced </tspan>
          <tspan x="12" y="58" dominant-baseline="ideographic">Analytical Tools</tspan>
        </text>
      </g>
    </g>
  </g>
  <g id="g-root-tx_19thcent_4mb4qh1cm7mru-stroke-fill" data-item-order="0" transform="translate(32, 350)">
    <g id="tx_19thcent_4mb4qh1cm7mru-fill" stroke="none" fill="#f4f4f4">
      <g>
        <text style="font: 20px Roboto, sans-serif; white-space: pre;" font-size="20px" font-family="Roboto, sans-serif">
          <tspan x="13.31" y="34" dominant-baseline="ideographic">19th Century UFO </tspan>
          <tspan x="48.25" y="58" dominant-baseline="ideographic">Reporting</tspan>
        </text>
      </g>
    </g>
  </g>
  <g id="g-root-tx_modernuf_1qbyoc91cm7o5n-stroke-fill" data-item-order="0" transform="translate(386, 326)">
    <g id="tx_modernuf_1qbyoc91cm7o5n-fill" stroke="none" fill="#f4f4f4">
      <g>
        <text style="font: 20px Roboto, sans-serif; white-space: pre;" font-size="20px" font-family="Roboto, sans-serif">
          <tspan x="18.61" y="34" dominant-baseline="ideographic">Modern UFO </tspan>
          <tspan x="17.09" y="58" dominant-baseline="ideographic">Investigation</tspan>
        </text>
      </g>
    </g>
  </g>
  <g id="g-root-tx_evolutio_1lwrnax1cm7ls4-stroke-fill" data-item-order="0" transform="translate(80, 422)">
    <g id="tx_evolutio_1lwrnax1cm7ls4-fill" stroke="none" fill="#f4f4f4">
      <g>
        <text style="font: 20px Roboto, sans-serif; white-space: pre;" font-size="20px" font-family="Roboto, sans-serif">
          <tspan x="15.59" y="34" dominant-baseline="ideographic">Evolution of UFO Reporting and Investigation</tspan>
        </text>
      </g>
    </g>
  </g>
</svg>
