<?xml version='1.0' encoding='utf-8'?>
<svg xmlns="http://www.w3.org/2000/svg" xmlns:xlink="http://www.w3.org/1999/xlink" width="1032" height="708" viewBox="0 0 1032 708" style="fill:none;stroke:none;fill-rule:evenodd;clip-rule:evenodd;stroke-linecap:round;stroke-linejoin:round;stroke-miterlimit:1.5;" version="1.1">
  <style class="text-font-style fontImports" data-font-family="Roboto">@import url('https://fonts.googleapis.com/css2?family=Roboto:wght@400;700&amp;display=block');</style>
  <rect x="0" y="0" width="1032" height="708" fill="#252a34" stroke="none" id="programmatic_background"/>
  <g id="g-root-tf_1lw5m151ao3i8e-stroke-fill" data-item-order="-683424" transform="translate(12, 12)"/>
  <g id="g-root-sy_4_cu_1qbz0zt1aog4cl-stroke-fill" data-item-order="-317369" transform="translate(602, 386)">
    <g id="sy_4_cu_1qbz0zt1aog4cl-stroke" fill="none" stroke-linecap="round" stroke-linejoin="round" stroke-miterlimit="4" stroke="#cb68f9" stroke-width="2">
      <g>
        <path d="M 33.850586 154.000488L 45.850586 154.000488M 58.200195 70L 70.200195 70M 87.9997 10L 21.9997 238L 10 238"/>
      </g>
    </g>
  </g>
  <g id="g-root-sy_3_cu_1hgc0qx1aog55a-stroke-fill" data-item-order="-317365" transform="translate(602, 158.00048828125)">
    <g id="sy_3_cu_1hgc0qx1aog55a-stroke" fill="none" stroke-linecap="round" stroke-linejoin="round" stroke-miterlimit="4" stroke="#43dd93" stroke-width="2">
      <g>
        <path d="M 33.84668 93.999512L 45.84668 93.999512M 58.195313 177.999512L 70.195313 177.999512M 87.9997 238L 21.9997 10L 10 10"/>
      </g>
    </g>
  </g>
  <g id="g-root-sy_2_cu_1d14zpl1aog2rr-stroke-fill" data-item-order="-317361" transform="translate(290, 385.99951171875)">
    <g id="sy_2_cu_1d14zpl1aog2rr-stroke" fill="none" stroke-linecap="round" stroke-linejoin="round" stroke-miterlimit="4" stroke="#4f91fc" stroke-width="2">
      <g>
        <path d="M 33.851563 154.000488L 45.851563 154.000488M 58.200195 70.000488L 70.200195 70.000488M 87.9997 10L 21.9997 238L 10 238"/>
      </g>
    </g>
  </g>
  <g id="g-root-sy_1_cu_18lbhl51aog3k0-stroke-fill" data-item-order="-317357" transform="translate(290, 158.00048828125)">
    <g id="sy_1_cu_18lbhl51aog3k0-stroke" fill="none" stroke-linecap="round" stroke-linejoin="round" stroke-miterlimit="4" stroke="#b7b7b7" stroke-width="2">
      <g>
        <path d="M 33.851563 93.999512L 45.851563 93.999512M 58.200195 177.999512L 70.200195 177.999512M 87.9997 238L 21.9997 10L 10 10"/>
      </g>
    </g>
  </g>
  <g id="g-root-sy_-1_line_18lbhl51aog3k1-stroke-fill" data-item-order="-317351" transform="translate(26, 386)">
    <g id="sy_-1_line_18lbhl51aog3k1-stroke" fill="none" stroke-linecap="round" stroke-linejoin="round" stroke-miterlimit="4" stroke="#f4f4f4" stroke-width="2">
      <g>
        <path d="M 704 10L 10 10"/>
        <path d="M 698 16.5L 704.5 10L 698 3.5" stroke-dasharray="none"/>
      </g>
    </g>
  </g>
  <g id="g-root-tx_unexplai_zpohc91aog4cq-stroke-fill" data-item-order="0" transform="translate(794, 362)">
    <g id="tx_unexplai_zpohc91aog4cq-fill" stroke="none" fill="#f4f4f4">
      <g>
        <text style="font: 20px Roboto, sans-serif; white-space: pre;" font-size="20px" font-family="Roboto, sans-serif">
          <tspan x="12" y="34" dominant-baseline="ideographic">Unexplained Aerial </tspan>
          <tspan x="12" y="58" dominant-baseline="ideographic">Phenomena in 1883</tspan>
        </text>
      </g>
    </g>
  </g>
  <g id="g-root-tx_influenc_meug211aog2rv-stroke-fill" data-item-order="0" transform="translate(458, 410)">
    <g id="tx_influenc_meug211aog2rv-fill" stroke="none" fill="#f4f4f4">
      <g>
        <text style="font: 20px Roboto, sans-serif; white-space: pre;" font-size="20px" font-family="Roboto, sans-serif">
          <tspan x="78.98" y="34" dominant-baseline="ideographic">Influence on </tspan>
          <tspan x="20.69" y="58" dominant-baseline="ideographic">contemporary UAP </tspan>
          <tspan x="110.91" y="82" dominant-baseline="ideographic">research</tspan>
        </text>
      </g>
    </g>
  </g>
  <g id="g-root-tx_integrat_hz0xxl1aog3k4-stroke-fill" data-item-order="0" transform="translate(422, 506)">
    <g id="tx_integrat_hz0xxl1aog3k4-fill" stroke="none" fill="#f4f4f4">
      <g>
        <text style="font: 20px Roboto, sans-serif; white-space: pre;" font-size="20px" font-family="Roboto, sans-serif">
          <tspan x="22.64" y="34" dominant-baseline="ideographic">Integration into UFO </tspan>
          <tspan x="121.09" y="58" dominant-baseline="ideographic">literature</tspan>
        </text>
      </g>
    </g>
  </g>
  <g id="g-root-tx_cultural_93dxop1aog4ct-stroke-fill" data-item-order="0" transform="translate(410, 602)">
    <g id="tx_cultural_93dxop1aog4ct-fill" stroke="none" fill="#f4f4f4">
      <g>
        <text style="font: 20px Roboto, sans-serif; white-space: pre;" font-size="20px" font-family="Roboto, sans-serif">
          <tspan x="16.33" y="34" dominant-baseline="ideographic">Cultural Impact</tspan>
        </text>
      </g>
    </g>
  </g>
  <g id="g-root-tx_systemat_1utnydl1aog2ku-stroke-fill" data-item-order="0" transform="translate(422, 302)">
    <g id="tx_systemat_1utnydl1aog2ku-fill" stroke="none" fill="#f4f4f4">
      <g>
        <text style="font: 20px Roboto, sans-serif; white-space: pre;" font-size="20px" font-family="Roboto, sans-serif">
          <tspan x="124.89" y="34" dominant-baseline="ideographic">Systematic </tspan>
          <tspan x="13.45" y="58" dominant-baseline="ideographic">documentation process</tspan>
        </text>
      </g>
    </g>
  </g>
  <g id="g-root-tx_bonillas_1qdug951aog3d3-stroke-fill" data-item-order="0" transform="translate(446, 218)">
    <g id="tx_bonillas_1qdug951aog3d3-fill" stroke="none" fill="#f4f4f4">
      <g>
        <text style="font: 20px Roboto, sans-serif; white-space: pre;" font-size="20px" font-family="Roboto, sans-serif">
          <tspan x="18" y="34" dominant-baseline="ideographic">Bonilla's scientific </tspan>
          <tspan x="77.92" y="58" dominant-baseline="ideographic">credentials</tspan>
        </text>
      </g>
    </g>
  </g>
  <g id="g-root-tx_document_1d2dxvt1aog4y0-stroke-fill" data-item-order="0" transform="translate(410, 134)">
    <g id="tx_document_1d2dxvt1aog4y0-fill" stroke="none" fill="#f4f4f4">
      <g>
        <text style="font: 20px Roboto, sans-serif; white-space: pre;" font-size="20px" font-family="Roboto, sans-serif">
          <tspan x="15.5" y="34" dominant-baseline="ideographic">Documentation </tspan>
          <tspan x="63.81" y="58" dominant-baseline="ideographic">Credibility</tspan>
        </text>
      </g>
    </g>
  </g>
  <g id="g-root-tx_alternat_18n6wuh1aog2kh-stroke-fill" data-item-order="0" transform="translate(158, 410)">
    <g id="tx_alternat_18n6wuh1aog2kh-fill" stroke="none" fill="#f4f4f4">
      <g>
        <text style="font: 20px Roboto, sans-serif; white-space: pre;" font-size="20px" font-family="Roboto, sans-serif">
          <tspan x="80.66" y="34" dominant-baseline="ideographic">Alternative </tspan>
          <tspan x="14.27" y="58" dominant-baseline="ideographic">explanations (e.g., </tspan>
          <tspan x="56.8" y="82" dominant-baseline="ideographic">insects, dust)</tspan>
        </text>
      </g>
    </g>
  </g>
  <g id="g-root-tx_comethyp_vbqeh51aog45e-stroke-fill" data-item-order="0" transform="translate(134, 518)">
    <g id="tx_comethyp_vbqeh51aog45e-fill" stroke="none" fill="#f4f4f4">
      <g>
        <text style="font: 20px Roboto, sans-serif; white-space: pre;" font-size="20px" font-family="Roboto, sans-serif">
          <tspan x="15.14" y="34" dominant-baseline="ideographic">Comet hypothesis</tspan>
        </text>
      </g>
    </g>
  </g>
  <g id="g-root-tx_scientif_mg3e891aog4y3-stroke-fill" data-item-order="0" transform="translate(74, 602)">
    <g id="tx_scientif_mg3e891aog4y3-fill" stroke="none" fill="#f4f4f4">
      <g>
        <text style="font: 20px Roboto, sans-serif; white-space: pre;" font-size="20px" font-family="Roboto, sans-serif">
          <tspan x="12.08" y="34" dominant-baseline="ideographic">Scientific Theories</tspan>
        </text>
      </g>
    </g>
  </g>
  <g id="g-root-tx_lackofco_959cy11aog3d8-stroke-fill" data-item-order="0" transform="translate(122, 302)">
    <g id="tx_lackofco_959cy11aog3d8-fill" stroke="none" fill="#f4f4f4">
      <g>
        <text style="font: 20px Roboto, sans-serif; white-space: pre;" font-size="20px" font-family="Roboto, sans-serif">
          <tspan x="21.23" y="34" dominant-baseline="ideographic">Lack of corroborating </tspan>
          <tspan x="96.88" y="58" dominant-baseline="ideographic">observations</tspan>
        </text>
      </g>
    </g>
  </g>
  <g id="g-root-tx_limitedt_4pfutl1aog45h-stroke-fill" data-item-order="0" transform="translate(98, 218)">
    <g id="tx_limitedt_4pfutl1aog45h-fill" stroke="none" fill="#f4f4f4">
      <g>
        <text style="font: 20px Roboto, sans-serif; white-space: pre;" font-size="20px" font-family="Roboto, sans-serif">
          <tspan x="19.2" y="34" dominant-baseline="ideographic">Limited technology of </tspan>
          <tspan x="151" y="58" dominant-baseline="ideographic">the era</tspan>
        </text>
      </g>
    </g>
  </g>
  <g id="g-root-tx_historic_1uuwwjt1aog4r2-stroke-fill" data-item-order="0" transform="translate(74, 146)">
    <g id="tx_historic_1uuwwjt1aog4r2-fill" stroke="none" fill="#f4f4f4">
      <g>
        <text style="font: 20px Roboto, sans-serif; white-space: pre;" font-size="20px" font-family="Roboto, sans-serif">
          <tspan x="16.89" y="34" dominant-baseline="ideographic">Historical Context</tspan>
        </text>
      </g>
    </g>
  </g>
  <g id="g-root-tx_analyzin_1ha39vt1aohhqn-stroke-fill" data-item-order="0" transform="translate(326, 50)">
    <g id="tx_analyzin_1ha39vt1aohhqn-fill" stroke="none" fill="#f4f4f4">
      <g>
        <text style="font: 20px Roboto, sans-serif; white-space: pre;" font-size="20px" font-family="Roboto, sans-serif">
          <tspan x="16.91" y="34" dominant-baseline="ideographic">Analyzing the Bonilla Observation of 1883</tspan>
        </text>
      </g>
    </g>
    <defs>
      <pattern id="crawlingPattern-0000001b" x="0" y="0" width="12" height="12" patternUnits="userSpaceOnUse" fill="#0000001b">
        <use href="#crawlingSymbol"/>
      </pattern>
      <symbol id="crawlingSymbol">
        <g>
          <path d="M -12.5 12.5 l 13 -13 l 6 0 l -13 13 Z M -0.5 12.5 l 13 -13 l 6 0 l -13 13 Z M 11.5 12.5 l 13 -13 l 6 0 l -13 13 Z"/>
        </g>
      </symbol>
    </defs>
  </g>
  <g id="g-root-ic_file_1cu9rrd1aohiiw-stroke-fill" data-item-order="0" transform="translate(254, 140)">
    <g id="ic_file_1cu9rrd1aohiiw-stroke" fill="none" stroke-linecap="round" stroke-linejoin="round" stroke-miterlimit="4" stroke="#f4f4f4" stroke-width="2">
      <g>
        <path d="M 34.75 27.25L 34.75 34L 30.16 38.016998C 29.263922 38.800648 28.74992 39.933094 28.749998 41.123497L 28.75 41.123501C 28.749172 43.401676 30.595325 45.249172 32.873501 45.25L 41.123501 45.25C 43.401676 45.25 45.248501 43.403175 45.248501 41.125L 45.248501 41.125C 45.248726 39.935314 44.735287 38.803463 43.840004 38.02L 39.25 34L 39.25 27.25M 28.885 42.168999L 31.949501 40.649502C 33.698414 39.773834 35.769241 39.83012 37.468002 40.7995L 37.468002 40.7995C 39.060455 41.710342 40.987968 41.821404 42.6745 41.099503L 45.099998 40.029999M 25.75 40.75L 12.25 40.75C 11.421573 40.75 10.75 40.078426 10.75 39.25L 10.75 16.75C 10.75 15.921573 11.421573 15.25 12.25 15.25L 16.75 15.25M 28.75 15.25L 33.25 15.25C 34.078426 15.25 34.75 15.921573 34.75 16.75L 34.75 24.25M 25.75 13.75C 25.75 12.093145 24.406855 10.75 22.75 10.75C 21.093145 10.75 19.75 12.093145 19.75 13.75L 17.5 13.75C 17.085787 13.75 16.75 14.085787 16.75 14.5L 16.75 19C 16.75 19.414213 17.085787 19.75 17.5 19.75L 28 19.75C 28.414213 19.75 28.75 19.414213 28.75 19L 28.75 14.5C 28.75 14.085787 28.414213 13.75 28 13.75ZM 32.5 27.25L 41.5 27.25M 17.5 24.25L 28 24.25M 17.5 28.75L 23.875 28.75M 28 36.25L 13.75 36.25L 13.75 18.25L 16.75 18.25M 28.75 18.25L 31.75 18.25L 31.75 24.25"/>
      </g>
    </g>
  </g>
  <g id="g-root-ic_come_1lt15ft1aoivih-stroke-fill" data-item-order="0" transform="translate(254, 596)">
    <g id="ic_come_1lt15ft1aoivih-stroke" fill="none" stroke-linecap="round" stroke-linejoin="round" stroke-miterlimit="4" stroke="#f4f4f4" stroke-width="2">
      <g>
        <path d="M 28.150002 36.400002C 28.150002 40.956352 31.843651 44.650002 36.400002 44.650002C 40.956352 44.650002 44.650002 40.956352 44.650002 36.400002C 44.650002 31.843651 40.956352 28.150002 36.400002 28.150002C 31.843651 28.150002 28.150002 31.843651 28.150002 36.400002M 35.650002 24.880001L 27.295 11.5C 27.055 11.17 26.83 11.23 26.815001 11.635L 26.244999 20.049999L 14.875 15.43C 14.485 15.28 14.335 15.43 14.53 15.805L 20.005001 26.305L 11.695 26.83C 11.29 26.83 11.23 27.07 11.559999 27.309999L 24.700001 35.079998M 39.744999 28.855C 38.152164 29.932852 37.45248 31.926212 38.022202 33.763138C 38.591927 35.600067 40.296795 36.847652 42.220001 36.835003C 43.085197 36.837986 43.931496 36.582008 44.650002 36.099998M 36.895 44.635002C 37.532875 44.067028 37.898422 43.254097 37.900002 42.400002C 37.900002 40.743145 36.556854 39.400002 34.900002 39.400002C 33.243145 39.400002 31.900002 40.743145 31.900002 42.400002C 31.906466 42.759762 31.977598 43.115425 32.110001 43.449997"/>
      </g>
    </g>
  </g>
  <g id="g-root-ic_star_18lxyo91aokd1m-stroke-fill" data-item-order="0" transform="translate(566, 140)">
    <g id="ic_star_18lxyo91aokd1m-stroke" fill="none" stroke-linecap="round" stroke-linejoin="round" stroke-miterlimit="4" stroke="#f4f4f4" stroke-width="2">
      <g>
        <path d="M 27.091 45.119499L 12.307 45.119499C 11.447093 45.119499 10.75 44.422405 10.75 43.5625L 10.75 12.4375C 10.75 11.577593 11.447093 10.8805 12.307 10.8805L 35.650002 10.8805C 36.509907 10.8805 37.207001 11.577593 37.207001 12.4375L 37.207001 24.887501M 38.384499 29.9935L 40.379501 35.261497L 44.263 35.261497C 44.66452 35.245758 45.032734 35.483692 45.183361 35.856224C 45.333984 36.228752 45.234627 36.655746 44.934998 36.9235L 41.564499 39.274002L 43.431999 43.5625C 43.600647 43.9655 43.493076 44.431187 43.164764 44.719395C 42.836452 45.007603 42.360756 45.053936 41.982998 44.834499L 37.469498 42.296501L 32.950001 44.834499C 32.572243 45.053936 32.096542 45.007603 31.768232 44.719395C 31.439919 44.431187 31.33235 43.9655 31.500999 43.562496L 33.3685 39.274002L 29.997999 36.9235C 29.69754 36.657162 29.596725 36.230812 29.746075 35.858109C 29.895426 35.485405 30.26276 35.246655 30.664 35.261497L 34.549 35.261497L 36.550003 29.9935C 36.727028 29.650169 37.080967 29.434444 37.467251 29.434444C 37.853535 29.434444 38.207474 29.650169 38.384499 29.9935ZM 21.3895 22.0075C 21.389153 23.441751 22.551746 24.604626 23.986 24.604626C 25.420252 24.604626 26.582846 23.441751 26.582499 22.0075C 26.582846 20.573248 25.420252 19.410372 23.986 19.410372C 22.551746 19.410372 21.389153 20.573248 21.3895 22.0075M 28.6495 30.2605C 28.105827 28.128386 26.185593 26.636351 23.98525 26.636351C 21.78491 26.636351 19.864676 28.128386 19.321001 30.260502M 15.8275 23.556999C 15.826451 28.063557 19.479445 31.7174 23.986 31.7174C 28.492558 31.7174 32.145546 28.063557 32.144501 23.556999C 32.145546 19.050444 28.492558 15.396602 23.986 15.396602C 19.479445 15.396602 15.826451 19.050444 15.8275 23.556999M 15.785501 40.237L 24.3445 40.237M 18.280001 35.977001L 24.3445 35.977001"/>
      </g>
    </g>
  </g>
  <g id="g-root-ic_ufo_1unfao91ao0o3o-stroke-fill" data-item-order="0" transform="translate(566, 596)">
    <g id="ic_ufo_1unfao91ao0o3o-stroke" fill="none" stroke-linecap="round" stroke-linejoin="round" stroke-miterlimit="4" stroke="#f4f4f4" stroke-width="2">
      <g>
        <path d="M 39.25 19.375C 42.233395 19.374281 44.764122 21.565659 45.189999 24.518499C 45.221085 24.735111 45.156013 24.954494 45.011856 25.119127C 44.867691 25.28376 44.658817 25.377218 44.439999 25.375L 11.5525 25.375C 11.333681 25.377218 11.124807 25.28376 10.980646 25.119127C 10.836484 24.954494 10.771415 24.735111 10.8025 24.518499C 11.228783 21.56284 13.76376 19.370548 16.75 19.375ZM 16.75 19.375C 16.75 15.625 21.786999 11.125 28 11.125C 34.213001 11.125 39.25 15.625 39.25 19.375M 38.327499 32.125L 42.246998 44.875M 13.747 44.875L 17.674 32.125M 28.747 39.625L 26.497 42.738998M 30.997 42.625L 28.747 39.625M 26.497 37.375L 30.997 37.375M 28.75 33.625C 29.164213 33.625 29.5 33.960785 29.5 34.375M 28 34.375C 28 33.960785 28.335787 33.625 28.75 33.625M 28.75 35.125C 28.335787 35.125 28 34.789215 28 34.375M 29.5 34.375C 29.5 34.789215 29.164213 35.125 28.75 35.125M 28.747 39.625L 28.747 37.375M 21.25 25.375C 21.25 27.446068 19.571068 29.125 17.5 29.125C 15.428932 29.125 13.75 27.446068 13.75 25.375M 31.75 25.375C 31.75 27.446068 30.071068 29.125 28 29.125C 25.928932 29.125 24.25 27.446068 24.25 25.375M 42.25 25.375C 42.25 27.446068 40.571068 29.125 38.5 29.125C 36.428932 29.125 34.75 27.446068 34.75 25.375"/>
      </g>
    </g>
  </g>
  <g id="g-root-ic_seal_zmk72h1ao23nx-stroke-fill" data-item-order="0" transform="translate(734, 362)">
    <g id="ic_seal_zmk72h1ao23nx-stroke" fill="none" stroke-linecap="round" stroke-linejoin="round" stroke-miterlimit="4" stroke="#f4f4f4" stroke-width="2">
      <g>
        <path d="M 49.916 44.708C 49.707943 44.880116 49.519474 45.074623 49.354 45.287998C 48.639507 46.215763 48.428493 47.436195 48.790001 48.549999C 49.279316 50.048534 48.721825 51.69025 47.421173 52.580948C 46.120525 53.471645 44.388302 53.397949 43.167999 52.400002C 42.260208 51.660557 41.046322 51.41597 39.923004 51.74617C 38.79969 52.07637 37.911247 52.938934 37.548004 54.052002C 37.052528 55.539299 35.640633 56.525913 34.073654 56.479824C 32.506676 56.433735 31.155205 55.365849 30.748001 53.852001C 30.449711 52.719025 29.611343 51.806339 28.507711 51.413128C 27.404079 51.019917 26.177485 51.196877 25.23 51.886002C 23.955921 52.815918 22.221062 52.79364 20.971283 51.83131C 19.721504 50.86898 19.256584 49.19743 19.83 47.728001C 20.253403 46.635929 20.111214 45.405331 19.449926 44.438591C 18.788639 43.471848 17.693275 42.893257 16.521999 42.892002C 14.950143 42.888786 13.567541 41.852276 13.123714 40.344376C 12.679889 38.836475 13.280519 37.216232 14.6 36.362C 15.584072 35.727257 16.192062 34.648273 16.225245 33.477718C 16.258427 32.307167 15.712535 31.195471 14.766001 30.506001C 13.492775 29.580423 12.981099 27.926933 13.509004 26.443993C 14.036907 24.961054 15.478315 24.002831 17.049999 24.09C 18.219154 24.154774 19.345118 23.639175 20.059906 22.71171C 20.774693 21.784245 20.986462 20.564083 20.625999 19.450001C 20.138008 17.952175 20.695461 16.311913 21.995068 15.421613C 23.294674 14.531313 25.025553 14.603948 26.246 15.6C 27.154154 16.339367 28.368248 16.583899 29.491816 16.253742C 30.615383 15.923588 31.504192 15.061127 31.868 13.948C 32.361176 12.458271 33.773933 11.469081 35.342495 11.515215C 36.911057 11.561349 38.263233 12.631861 38.667999 14.148001C 38.966293 15.280979 39.804657 16.193661 40.908291 16.586872C 42.011925 16.980083 43.238518 16.803123 44.186001 16.114C 45.460541 15.187497 47.193123 15.211412 48.441601 16.172741C 49.690083 17.134071 50.156002 18.803001 49.586002 20.271999C 49.162014 21.364183 49.304203 22.595226 49.966 23.562M 41.498001 45.146C 35.382042 48.87067 27.407082 46.971222 23.62678 40.889488C 19.846478 34.807758 21.673111 26.815805 27.72011 22.98019C 33.767109 19.144575 41.775391 20.898235 45.666 26.91M 39 29.702C 41.612 29.566 41.736 31.966 44.346001 31.83C 46.956001 31.694 46.832001 29.294001 49.444 29.158001C 52.056 29.021999 52.183998 31.422001 54.798 31.285999M 39.234001 34.132C 41.834 33.996002 41.968002 36.396 44.580002 36.260002C 47.192001 36.124001 47.063999 33.723999 49.675999 33.587997C 52.287998 33.452 52.416 35.851997 55.029999 35.716M 39.143997 38.577999C 41.753998 38.442001 41.877998 40.841999 44.487999 40.706001C 47.098 40.57 46.973999 38.169998 49.585999 38.034C 52.198002 37.898003 52.326 40.298 54.939999 40.162003"/>
      </g>
    </g>
  </g>
</svg>
