<?xml version='1.0' encoding='utf-8'?>
<svg xmlns="http://www.w3.org/2000/svg" xmlns:xlink="http://www.w3.org/1999/xlink" width="624" height="456" viewBox="0 0 624 456" style="fill:none;stroke:none;fill-rule:evenodd;clip-rule:evenodd;stroke-linecap:round;stroke-linejoin:round;stroke-miterlimit:1.5;" version="1.1">
  <style class="text-font-style fontImports" data-font-family="Roboto">@import url('https://fonts.googleapis.com/css2?family=Roboto:wght@400;700&amp;display=block');</style>
  <rect x="0" y="0" width="624" height="456" fill="#252a34" stroke="none" id="programmatic_background"/>
  <g id="g-root-tf_4hbrux19amcjx-stroke-fill" data-item-order="-254016" transform="translate(18, 12)"/>
  <g id="g-root-sy_5_cu_1umstl519aciz1-stroke-fill" data-item-order="-34635" transform="translate(212, 201.33599853515625)">
    <g id="sy_5_cu_1umstl519aciz1-stroke" fill="none" stroke-linecap="round" stroke-linejoin="round" stroke-miterlimit="4" stroke="#f4f4f4" stroke-width="2">
      <g>
        <path d="M 178 34.000001L 178 47.790001C 178 52.645001 173.711 56.381001 168.902 55.714001L 106 47.000001M 10 10.000001L 10 26.060001C 10 30.053001 12.944 33.434001 16.899 33.984001L 82 43.025001"/>
      </g>
    </g>
  </g>
  <g id="g-root-sy_4_cu_1q6zbgp19acjra-stroke-fill" data-item-order="-34632" transform="translate(284, 224.33599853515625)">
    <g id="sy_4_cu_1q6zbgp19acjra-fill" stroke="none" fill="none">
      <g>
        <path d="M 34.086 22.000001C 34.086 28.627001 28.695 34.000001 22.043 34.000001C 15.392 34.000001 10 28.627001 10 22.000001C 10 15.373001 15.392 10.000001 22.043 10.000001C 28.695 10.000001 34.086 15.373001 34.086 22.000001ZM 28 22.000001C 28 25.314001 25.314 28.000001 22 28.000001C 18.686 28.000001 16 25.314001 16 22.000001C 16 18.686001 18.686 16.000001 22 16.000001C 25.314 16.000001 28 18.686001 28 22.000001Z"/>
      </g>
    </g>
    <g id="sy_4_cu_1q6zbgp19acjra-stroke" fill="none" stroke-linecap="round" stroke-linejoin="round" stroke-miterlimit="4" stroke="#f4f4f4" stroke-width="2">
      <g>
        <path d="M 34.086 22.000001C 34.086 28.627001 28.695 34.000001 22.043 34.000001C 15.392 34.000001 10 28.627001 10 22.000001C 10 15.373001 15.392 10.000001 22.043 10.000001C 28.695 10.000001 34.086 15.373001 34.086 22.000001ZM 28 22.000001C 28 25.314001 25.314 28.000001 22 28.000001C 18.686 28.000001 16 25.314001 16 22.000001C 16 18.686001 18.686 16.000001 22 16.000001C 25.314 16.000001 28 18.686001 28 22.000001Z"/>
      </g>
    </g>
  </g>
  <g id="g-root-sy_3_cu_1hbysax19ache7-stroke-fill" data-item-order="-34628" transform="translate(248, 245.32598876953125)">
    <g id="sy_3_cu_1hbysax19ache7-fill" stroke="none" fill="none">
      <g>
        <path d="M 22 78.674011L 94 78.674011C 94 78.674011 73.992 28.166011 65.959 10.058011C 63.725 11.952011 61.073 12.997011 58.043 12.997011C 54.986 12.997011 52.288 11.933011 50.072 10.000011C 42.047 28.114011 22 78.674011 22 78.674011ZM 18 79.015011C 13.582 79.015011 10 82.596011 10 87.014011L 10 89.015011C 10 90.119011 10.895 91.015011 12 91.015011L 104 91.015011C 105.105 91.015011 106 90.119011 106 89.015011L 106 87.015011C 106 82.596011 102.418 79.015011 98 79.015011L 18 79.015011Z"/>
      </g>
    </g>
    <g id="sy_3_cu_1hbysax19ache7-stroke" fill="none" stroke-linecap="round" stroke-linejoin="round" stroke-miterlimit="4" stroke="#f4f4f4" stroke-width="2">
      <g>
        <path d="M 22 78.674011L 94 78.674011C 94 78.674011 73.992 28.166011 65.959 10.058011C 63.725 11.952011 61.073 12.997011 58.043 12.997011C 54.986 12.997011 52.288 11.933011 50.072 10.000011C 42.047 28.114011 22 78.674011 22 78.674011ZM 18 79.015011C 13.582 79.015011 10 82.596011 10 87.014011L 10 89.015011C 10 90.119011 10.895 91.015011 12 91.015011L 104 91.015011C 105.105 91.015011 106 90.119011 106 89.015011L 106 87.015011C 106 82.596011 102.418 79.015011 98 79.015011L 18 79.015011Z"/>
      </g>
    </g>
    <g id="sy_3_cu_1hbysax19ache7-stroke" fill="none" stroke-linecap="round" stroke-linejoin="round" stroke-miterlimit="4" stroke="#f4f4f4" stroke-width="2">
      <g>
        <path d="M 72.143 64.875011L 72.143 70.532011L 65.73 76.945011C 65.379 75.632011 64.688 74.391011 63.658 73.360011C 62.628 72.330011 61.386 71.639011 60.073 71.289011L 66.486 64.875011L 72.143 64.875011ZM 62 72.085011C 60.823 71.404011 59.457 71.015011 58 71.015011C 56.543 71.015011 55.177 71.404011 54 72.085011C 51.609 73.468011 50 76.053011 50 79.015011L 66 79.015011C 66 76.053011 64.391 73.468011 62 72.085011ZM 58 50.015011L 58 55.815011M 78.503 58.512011L 74.404 62.610011M 37.497 58.512011L 41.596 62.610011M 64.747 53.804011L 64.003 56.598011M 44.94 56.414011L 46.4 58.927011M 71.031 56.404011L 69.59 58.908011M 51.224 53.814011L 51.978 56.607011"/>
      </g>
    </g>
  </g>
  <g id="g-root-sy_2_right-bucket_1cw5a6h19aci6g-stroke-fill" data-item-order="-34624" transform="translate(344, 206.33599853515625)">
    <g id="sy_2_right-bucket_1cw5a6h19aci6g-fill" stroke="none" fill="none">
      <g>
        <path d="M 10 11.800001C 10 10.806001 10.806 10.000001 11.8 10.000001L 80.2 10.000001C 81.194 10.000001 82 10.806001 82 11.800001C 82 20.747001 74.747 28.000001 65.8 28.000001L 26.2 28.000001C 17.253 28.000001 10 20.747001 10 11.800001Z"/>
      </g>
    </g>
    <g id="sy_2_right-bucket_1cw5a6h19aci6g-stroke" fill="none" stroke-linecap="round" stroke-linejoin="round" stroke-miterlimit="4" stroke="#4f91fc" stroke-width="2">
      <g>
        <path d="M 10 11.800001C 10 10.806001 10.806 10.000001 11.8 10.000001L 80.2 10.000001C 81.194 10.000001 82 10.806001 82 11.800001C 82 20.747001 74.747 28.000001 65.8 28.000001L 26.2 28.000001C 17.253 28.000001 10 20.747001 10 11.800001Z"/>
      </g>
    </g>
  </g>
  <g id="g-root-sy_1_left-bucket_18gbs2119aciyp-stroke-fill" data-item-order="-34620" transform="translate(176, 182)">
    <g id="sy_1_left-bucket_18gbs2119aciyp-fill" stroke="none" fill="none">
      <g>
        <path d="M 10 11.8C 10 10.806 10.806 10 11.8 10L 80.2 10C 81.194 10 82 10.806 82 11.8C 82 20.747 74.747 28 65.8 28L 26.2 28C 17.253 28 10 20.747 10 11.8Z"/>
      </g>
    </g>
    <g id="sy_1_left-bucket_18gbs2119aciyp-stroke" fill="none" stroke-linecap="round" stroke-linejoin="round" stroke-miterlimit="4" stroke="#1ac3fb" stroke-width="2">
      <g>
        <path d="M 10 11.8C 10 10.806 10.806 10 11.8 10L 80.2 10C 81.194 10 82 10.806 82 11.8C 82 20.747 74.747 28 65.8 28L 26.2 28C 17.253 28 10 20.747 10 11.8Z"/>
      </g>
    </g>
  </g>
  <g id="g-root-ic_ufo_zkort519acjre-stroke-fill" data-item-order="0" transform="translate(188, 122)">
    <g id="ic_ufo_zkort519acjre-stroke" fill="none" stroke-linecap="round" stroke-linejoin="round" stroke-miterlimit="4" stroke="#f4f4f4" stroke-width="2">
      <g>
        <path d="M 49 22.5C 52.977859 22.499041 56.352161 25.420879 56.919998 29.358C 56.961449 29.646814 56.874687 29.939325 56.682472 30.158836C 56.490257 30.378345 56.211758 30.502958 55.919998 30.5L 12.07 30.5C 11.778242 30.502958 11.499743 30.378345 11.307528 30.158836C 11.115312 29.939325 11.028553 29.646814 11.07 29.358C 11.638377 25.417118 15.018346 22.494064 19 22.5ZM 19 22.5C 19 17.5 25.716 11.5 34 11.5C 42.284 11.5 49 17.5 49 22.5M 47.77 39.5L 52.995998 56.5M 14.996 56.5L 20.232 39.5M 34.996002 49.5L 31.996 53.652M 37.996002 53.5L 34.996002 49.5M 31.996 46.5L 37.996002 46.5M 35 41.5C 35.552284 41.5 36 41.947716 36 42.5M 34 42.5C 34 41.947716 34.447716 41.5 35 41.5M 35 43.5C 34.447716 43.5 34 43.052284 34 42.5M 36 42.5C 36 43.052284 35.552284 43.5 35 43.5M 34.996002 49.5L 34.996002 46.5M 25 30.5C 25 33.261421 22.761425 35.5 20 35.5C 17.238577 35.5 15 33.261421 15 30.5M 39 30.5C 39 33.261421 36.761425 35.5 34 35.5C 31.238577 35.5 29 33.261421 29 30.5M 53 30.5C 53 33.261421 50.761425 35.5 48 35.5C 45.238575 35.5 43 33.261421 43 30.5"/>
      </g>
    </g>
  </g>
  <g id="g-root-ic_worl_qqx6tl19afabv-stroke-fill" data-item-order="0" transform="translate(188, 50)">
    <g id="ic_worl_qqx6tl19afabv-stroke" fill="none" stroke-linecap="round" stroke-linejoin="round" stroke-miterlimit="4" stroke="#f4f4f4" stroke-width="2">
      <g>
        <path d="M 34 38C 34 35.09 39.928001 31.238001 50.967999 31.011999C 51.529152 31.003094 51.991234 31.45085 52 32.012001L 52 49.012001C 52 49.564285 51.552284 50.012001 51 50.012001C 39.933998 50.231998 34 54.088001 34 57.012001C 34 54.098 28.058001 50.242001 17 50.012001C 16.447716 50.012001 16 49.564285 16 49.012001L 16 32.012001C 16.008768 31.45085 16.470852 31.003094 17.032 31.012001C 28.07 31.24 34 35.091999 34 38ZM 34 38.001999L 34 56.751999M 30 39.484001C 27.102917 38.448769 24.096573 37.749527 21.040001 37.400002M 30 45.484001C 27.076208 44.441383 24.04232 43.738106 20.958 43.388M 38 39.484001C 40.924751 38.43998 43.960133 37.736668 47.046001 37.388M 38 45.484001C 40.925461 44.440048 43.961491 43.73674 47.047997 43.387997M 19.132 28C 18.359447 22.215155 21.012398 16.507395 25.932655 13.368548C 30.852913 10.229703 37.147091 10.229703 42.067348 13.368548C 46.987606 16.507395 49.640556 22.215155 48.868004 28M 29.247999 28L 28.378 24.518C 28.155859 23.627344 27.355942 23.002254 26.438 23.001999L 19.302 23.001999M 45.98 17L 40.562 17C 39.644058 17.000254 38.844139 17.625343 38.622002 18.515999L 37.622002 22.515999C 37.47303 23.113281 37.607407 23.745892 37.986313 24.231041C 38.365211 24.716194 38.946419 24.99983 39.562 25L 41.666 25L 42.155998 27.938"/>
      </g>
    </g>
  </g>
  <g id="g-root-ic_come_1hhl22x19agqa4-stroke-fill" data-item-order="0" transform="translate(356, 146)">
    <g id="ic_come_1hhl22x19agqa4-stroke" fill="none" stroke-linecap="round" stroke-linejoin="round" stroke-miterlimit="4" stroke="#f4f4f4" stroke-width="2">
      <g>
        <path d="M 34.200001 45.200001C 34.200001 51.275135 39.12487 56.200001 45.200001 56.200001C 51.275135 56.200001 56.200001 51.275135 56.200001 45.200001C 56.200001 39.12487 51.275135 34.200001 45.200001 34.200001C 39.12487 34.200001 34.200001 39.12487 34.200001 45.200001M 44.200001 29.84L 33.059998 12C 32.739998 11.559999 32.440002 11.64 32.419998 12.18L 31.66 23.4L 16.5 17.24C 15.98 17.040001 15.780001 17.24 16.040001 17.74L 23.34 31.74L 12.26 32.440002C 11.72 32.440002 11.64 32.760002 12.08 33.080002L 29.6 43.439999M 49.66 35.139999C 47.536221 36.577133 46.603306 39.234947 47.362938 41.684185C 48.12257 44.133423 50.395725 45.796871 52.960003 45.780003C 54.113598 45.783981 55.241997 45.442677 56.200001 44.799999M 45.860001 56.18C 46.710503 55.422703 47.197899 54.338795 47.200001 53.200001C 47.200001 50.99086 45.409138 49.200001 43.200001 49.200001C 40.99086 49.200001 39.200001 50.99086 39.200001 53.200001C 39.208618 53.679684 39.303467 54.1539 39.48 54.599998"/>
      </g>
    </g>
  </g>
  <g id="g-root-ic_cast_1cuwc0919ajjf1-stroke-fill" data-item-order="0" transform="translate(356, 74)">
    <g id="ic_cast_1cuwc0919ajjf1-stroke" fill="none" stroke-linecap="round" stroke-linejoin="round" stroke-miterlimit="4" stroke="#f4f4f4" stroke-width="2">
      <g>
        <path d="M 14.414 49.799999L 49.708 14.5C 50.098499 14.109618 50.731499 14.109618 51.122002 14.5L 56.708 20.086C 57.098381 20.4765 57.098381 21.109501 56.708 21.5L 28.414 49.799999ZM 11.106 52.346001C 10.947795 52.656483 10.962624 53.026932 11.14514 53.323776C 11.327656 53.620617 11.651536 53.801044 12 53.799999L 30.764 53.799999C 31.110153 53.799641 31.431503 53.620296 31.613533 53.325871C 31.795565 53.031445 31.812384 52.663818 31.658001 52.354L 30.658001 50.354C 30.489016 50.014881 30.142889 49.800392 29.764 49.799999L 13 49.799999C 12.621112 49.800392 12.274984 50.014881 12.106 50.354ZM 45.414001 18.792L 52.414001 25.792M 32.414001 31.792L 39.414001 38.792M 36.414001 27.799999L 34.827999 26.200001C 34.452446 25.824863 34.241425 25.315819 34.241425 24.785C 34.241425 24.254181 34.452446 23.745136 34.827999 23.369999L 36.414001 21.784M 55 53.792L 48 30.212M 41 53.792L 48 30.212"/>
      </g>
    </g>
  </g>
  <g id="g-root-tx_extrater_vbqhmx19akyz2-stroke-fill" data-item-order="0" transform="translate(32, 122)">
    <g id="tx_extrater_vbqhmx19akyz2-fill" stroke="none" fill="#f4f4f4">
      <g>
        <text style="font: 20px Roboto, sans-serif; white-space: pre;" font-size="20px" font-family="Roboto, sans-serif">
          <tspan x="21.53" y="34" dominant-baseline="ideographic">Extraterrestrial </tspan>
          <tspan x="62.02" y="58" dominant-baseline="ideographic">possibility</tspan>
        </text>
      </g>
    </g>
  </g>
  <g id="g-root-tx_cultural_i0wgcp19akxe7-stroke-fill" data-item-order="0" transform="translate(32, 50)">
    <g id="tx_cultural_i0wgcp19akxe7-fill" stroke="none" fill="#f4f4f4">
      <g>
        <text style="font: 20px Roboto, sans-serif; white-space: pre;" font-size="20px" font-family="Roboto, sans-serif">
          <tspan x="16.91" y="34" dominant-baseline="ideographic">Cultural impact </tspan>
          <tspan x="45.13" y="58" dominant-baseline="ideographic">significance</tspan>
        </text>
      </g>
    </g>
  </g>
  <g id="g-root-tx_naturalp_959g3t19akyyo-stroke-fill" data-item-order="0" transform="translate(416, 134)">
    <g id="tx_naturalp_959g3t19akyyo-fill" stroke="none" fill="#f4f4f4">
      <g>
        <text style="font: 20px Roboto, sans-serif; white-space: pre;" font-size="20px" font-family="Roboto, sans-serif">
          <tspan x="12" y="34" dominant-baseline="ideographic">Natural </tspan>
          <tspan x="12" y="58" dominant-baseline="ideographic">phenomenon </tspan>
          <tspan x="12" y="82" dominant-baseline="ideographic">explanation</tspan>
        </text>
      </g>
    </g>
  </g>
  <g id="g-root-tx_scientif_9bk919amb61-stroke-fill" data-item-order="0" transform="translate(416, 74)">
    <g id="tx_scientif_9bk919amb61-fill" stroke="none" fill="#f4f4f4">
      <g>
        <text style="font: 20px Roboto, sans-serif; white-space: pre;" font-size="20px" font-family="Roboto, sans-serif">
          <tspan x="12" y="34" dominant-baseline="ideographic">Scientific </tspan>
          <tspan x="12" y="58" dominant-baseline="ideographic">analysis support</tspan>
        </text>
      </g>
    </g>
  </g>
  <g id="g-root-tx_ufointer_1lpwv6119amcju-stroke-fill" data-item-order="0" transform="translate(44, 278)">
    <g id="tx_ufointer_1lpwv6119amcju-fill" stroke="none" fill="#f4f4f4">
      <g>
        <text style="font: 20px Roboto, sans-serif; white-space: pre;" font-size="20px" font-family="Roboto, sans-serif">
          <tspan x="12.56" y="34" dominant-baseline="ideographic">UFO Interpretation</tspan>
        </text>
      </g>
    </g>
  </g>
  <g id="g-root-tx_cometfra_18egcsp19ame4r-stroke-fill" data-item-order="0" transform="translate(380, 302)">
    <g id="tx_cometfra_18egcsp19ame4r-fill" stroke="none" fill="#f4f4f4">
      <g>
        <text style="font: 20px Roboto, sans-serif; white-space: pre;" font-size="20px" font-family="Roboto, sans-serif">
          <tspan x="14.28" y="34" dominant-baseline="ideographic">Comet Fragments</tspan>
        </text>
      </g>
    </g>
  </g>
  <g id="g-root-tx_evaluati_13z9brd19ambr8-stroke-fill" data-item-order="0" transform="translate(56, 362)">
    <g id="tx_evaluati_13z9brd19ambr8-fill" stroke="none" fill="#f4f4f4">
      <g>
        <text style="font: 20px Roboto, sans-serif; white-space: pre;" font-size="20px" font-family="Roboto, sans-serif">
          <tspan x="16.43" y="34" dominant-baseline="ideographic">Evaluating Bonilla's 1883 Observation Interpretations</tspan>
        </text>
      </g>
    </g>
    <defs>
      <pattern id="crawlingPattern-0000001b" x="0" y="0" width="12" height="12" patternUnits="userSpaceOnUse" fill="#0000001b">
        <use href="#crawlingSymbol"/>
      </pattern>
      <symbol id="crawlingSymbol">
        <g>
          <path d="M -12.5 12.5 l 13 -13 l 6 0 l -13 13 Z M -0.5 12.5 l 13 -13 l 6 0 l -13 13 Z M 11.5 12.5 l 13 -13 l 6 0 l -13 13 Z"/>
        </g>
      </symbol>
    </defs>
  </g>
</svg>
