<?xml version='1.0' encoding='utf-8'?>
<svg xmlns="http://www.w3.org/2000/svg" xmlns:xlink="http://www.w3.org/1999/xlink" width="768" height="588" viewBox="0 0 768 588" style="fill:none;stroke:none;fill-rule:evenodd;clip-rule:evenodd;stroke-linecap:round;stroke-linejoin:round;stroke-miterlimit:1.5;" version="1.1">
  <style class="text-font-style fontImports" data-font-family="Roboto">@import url('https://fonts.googleapis.com/css2?family=Roboto:wght@400;700&amp;display=block');</style>
  <rect x="0" y="0" width="768" height="588" fill="#252a34" stroke="none" id="programmatic_background"/>
  <g id="g-root-tf_dcchcp1a4gxdu-stroke-fill" data-item-order="-416508" transform="translate(18, 12)"/>
  <g id="g-root-sy_-1_Vector_7r6xl1a4fj7n-stroke-fill" data-item-order="-18235" transform="translate(379.99609375, 149)">
    <g id="sy_-1_Vector_7r6xl1a4fj7n-stroke" fill="none" stroke-linecap="round" stroke-linejoin="round" stroke-miterlimit="4" stroke="#f4f4f4" stroke-width="2">
      <g>
        <path d="M 10 292L 10 202M 10 196L 10 106M 10 100L 10 10"/>
      </g>
    </g>
  </g>
  <g id="g-root-sy_-1_cu_1qd88nt1a4fjt8-stroke-fill" data-item-order="-18231" transform="translate(379.99609375, 437)">
    <g id="sy_-1_cu_1qd88nt1a4fjt8-stroke" fill="none" stroke-linecap="round" stroke-linejoin="round" stroke-miterlimit="4" stroke="#f4f4f4" stroke-width="2">
      <g>
        <path d="M 10.003906 94L 10.003906 10"/>
        <path d="M 3.503906 88L 10.003906 94.5L 16.503906 88" stroke-dasharray="none"/>
      </g>
    </g>
  </g>
  <g id="g-root-sy_4_cu_1ly17mh1a4fhfp-stroke-fill" data-item-order="-18228" transform="translate(377, 431)">
    <g id="sy_4_cu_1ly17mh1a4fhfp-fill" stroke="none" fill="none">
      <g>
        <path d="M 13 10L 13 10C 13 10 16 10 16 13L 16 13C 16 13 16 16 13 16L 13 16C 13 16 10 16 10 13L 10 13C 10 13 10 10 13 10"/>
      </g>
    </g>
    <g id="sy_4_cu_1ly17mh1a4fhfp-stroke" fill="none" stroke-linecap="round" stroke-linejoin="round" stroke-miterlimit="4" stroke="#f366bb" stroke-width="2">
      <g>
        <path d="M 13 10L 13 10C 13 10 16 10 16 13L 16 13C 16 13 16 16 13 16L 13 16C 13 16 10 16 10 13L 10 13C 10 13 10 10 13 10"/>
      </g>
    </g>
    <g id="sy_4_cu_1ly17mh1a4fhfp-stroke" fill="none" stroke-linecap="round" stroke-linejoin="round" stroke-miterlimit="4" stroke="#f366bb" stroke-width="2">
      <g>
        <path d="M 37 13L 16 13"/>
      </g>
    </g>
  </g>
  <g id="g-root-sy_3_cu_1d2e7dl1a4fi8e-stroke-fill" data-item-order="-18224" transform="translate(356, 335)">
    <g id="sy_3_cu_1d2e7dl1a4fi8e-fill" stroke="none" fill="none">
      <g>
        <path d="M 34 10L 34 10C 34 10 37 10 37 13L 37 13C 37 13 37 16 34 16L 34 16C 34 16 31 16 31 13L 31 13C 31 13 31 10 34 10"/>
      </g>
    </g>
    <g id="sy_3_cu_1d2e7dl1a4fi8e-stroke" fill="none" stroke-linecap="round" stroke-linejoin="round" stroke-miterlimit="4" stroke="#fb6762" stroke-width="2">
      <g>
        <path d="M 34 10L 34 10C 34 10 37 10 37 13L 37 13C 37 13 37 16 34 16L 34 16C 34 16 31 16 31 13L 31 13C 31 13 31 10 34 10"/>
      </g>
    </g>
    <g id="sy_3_cu_1d2e7dl1a4fi8e-stroke" fill="none" stroke-linecap="round" stroke-linejoin="round" stroke-miterlimit="4" stroke="#fb6762" stroke-width="2">
      <g>
        <path d="M 31 13L 10 13"/>
      </g>
    </g>
  </g>
  <g id="g-root-sy_2_cu_1d2e7dl1a4fi8f-stroke-fill" data-item-order="-18220" transform="translate(377, 239)">
    <g id="sy_2_cu_1d2e7dl1a4fi8f-fill" stroke="none" fill="none">
      <g>
        <path d="M 13 10L 13 10C 13 10 16 10 16 13L 16 13C 16 13 16 16 13 16L 13 16C 13 16 10 16 10 13L 10 13C 10 13 10 10 13 10"/>
      </g>
    </g>
    <g id="sy_2_cu_1d2e7dl1a4fi8f-stroke" fill="none" stroke-linecap="round" stroke-linejoin="round" stroke-miterlimit="4" stroke="#f79438" stroke-width="2">
      <g>
        <path d="M 13 10L 13 10C 13 10 16 10 16 13L 16 13C 16 13 16 16 13 16L 13 16C 13 16 10 16 10 13L 10 13C 10 13 10 10 13 10"/>
      </g>
    </g>
    <g id="sy_2_cu_1d2e7dl1a4fi8f-stroke" fill="none" stroke-linecap="round" stroke-linejoin="round" stroke-miterlimit="4" stroke="#f79438" stroke-width="2">
      <g>
        <path d="M 37 13L 16 13"/>
      </g>
    </g>
  </g>
  <g id="g-root-sy_1_cu_18mkp951a4fj0o-stroke-fill" data-item-order="-18216" transform="translate(356, 143)">
    <g id="sy_1_cu_18mkp951a4fj0o-fill" stroke="none" fill="none">
      <g>
        <path d="M 34 10L 34 10C 34 10 37 10 37 13L 37 13C 37 13 37 16 34 16L 34 16C 34 16 31 16 31 13L 31 13C 31 13 31 10 34 10"/>
      </g>
    </g>
    <g id="sy_1_cu_18mkp951a4fj0o-stroke" fill="none" stroke-linecap="round" stroke-linejoin="round" stroke-miterlimit="4" stroke="#ffe711" stroke-width="2">
      <g>
        <path d="M 34 10L 34 10C 34 10 37 10 37 13L 37 13C 37 13 37 16 34 16L 34 16C 34 16 31 16 31 13L 31 13C 31 13 31 10 34 10"/>
      </g>
    </g>
    <g id="sy_1_cu_18mkp951a4fj0o-stroke" fill="none" stroke-linecap="round" stroke-linejoin="round" stroke-miterlimit="4" stroke="#ffe711" stroke-width="2">
      <g>
        <path d="M 31 13L 10 13"/>
      </g>
    </g>
  </g>
  <g id="g-root-tx_thekelly_146r74p1a4fjsx-stroke-fill" data-item-order="0" transform="translate(134, 50)">
    <g id="tx_thekelly_146r74p1a4fjsx-fill" stroke="none" fill="#f4f4f4">
      <g>
        <text style="font: 20px Roboto, sans-serif; white-space: pre;" font-size="20px" font-family="Roboto, sans-serif">
          <tspan x="15.63" y="34" dominant-baseline="ideographic">The Kelly-Hopkinsville Encounter: A Timeline of Events</tspan>
        </text>
      </g>
    </g>
  </g>
  <g id="g-root-tx_familyfl_qvx5uh1a4fi82-stroke-fill" data-item-order="0" transform="translate(428, 458)">
    <g id="tx_familyfl_qvx5uh1a4fi82-fill" stroke="none" fill="#f4f4f4">
      <g>
        <text style="font: 20px Roboto, sans-serif; white-space: pre;" font-size="20px" font-family="Roboto, sans-serif">
          <tspan x="12" y="34" dominant-baseline="ideographic">Family flees property, claiming </tspan>
          <tspan x="12" y="58" dominant-baseline="ideographic">creatures returned</tspan>
        </text>
      </g>
    </g>
  </g>
  <g id="g-root-tx_familyre_i0a5ll1a4fj0r-stroke-fill" data-item-order="0" transform="translate(44, 362)">
    <g id="tx_familyre_i0a5ll1a4fj0r-fill" stroke="none" fill="#f4f4f4">
      <g>
        <text style="font: 20px Roboto, sans-serif; white-space: pre;" font-size="20px" font-family="Roboto, sans-serif">
          <tspan x="11.95" y="34" dominant-baseline="ideographic">Family reports incident to police</tspan>
        </text>
      </g>
    </g>
  </g>
  <g id="g-root-tx_familydo_4pg4bd1a4fhfw-stroke-fill" data-item-order="0" transform="translate(428, 266)">
    <g id="tx_familydo_4pg4bd1a4fhfw-fill" stroke="none" fill="#f4f4f4">
      <g>
        <text style="font: 20px Roboto, sans-serif; white-space: pre;" font-size="20px" font-family="Roboto, sans-serif">
          <tspan x="12" y="34" dominant-baseline="ideographic">Family dog barks frantically, </tspan>
          <tspan x="12" y="58" dominant-baseline="ideographic">creatures appear</tspan>
        </text>
      </g>
    </g>
  </g>
  <g id="g-root-tx_billyray_9mm6x1a4fi85-stroke-fill" data-item-order="0" transform="translate(32, 170)">
    <g id="tx_billyray_9mm6x1a4fi85-fill" stroke="none" fill="#f4f4f4">
      <g>
        <text style="font: 20px Roboto, sans-serif; white-space: pre;" font-size="20px" font-family="Roboto, sans-serif">
          <tspan x="12.61" y="34" dominant-baseline="ideographic">Billy Ray Taylor sees a bright light </tspan>
          <tspan x="224.08" y="58" dominant-baseline="ideographic">in the sky</tspan>
        </text>
      </g>
    </g>
  </g>
  <g id="g-root-tx_august22_1lza5sp1a4fjly-stroke-fill" data-item-order="0" transform="translate(428, 422)">
    <g id="tx_august22_1lza5sp1a4fjly-fill" stroke="none" fill="#f366bb">
      <g>
        <text style="font: bold 20px Roboto, sans-serif; white-space: pre;" font-weight="bold" font-size="20px" font-family="Roboto, sans-serif">
          <tspan x="12" y="34" dominant-baseline="ideographic">August 22, 1955, Morning</tspan>
        </text>
      </g>
    </g>
  </g>
  <g id="g-root-tx_august21_1cua1951a4gvtb-stroke-fill" data-item-order="0" transform="translate(80, 326)">
    <g id="tx_august21_1cua1951a4gvtb-fill" stroke="none" fill="#fb6762">
      <g>
        <text style="font: bold 20px Roboto, sans-serif; white-space: pre;" font-weight="bold" font-size="20px" font-family="Roboto, sans-serif">
          <tspan x="15.28" y="34" dominant-baseline="ideographic">August 21, 1955, 11:00 PM</tspan>
        </text>
      </g>
    </g>
  </g>
  <g id="g-root-tx_august21_13yn1091a4gxds-stroke-fill" data-item-order="0" transform="translate(428, 230)">
    <g id="tx_august21_13yn1091a4gxds-fill" stroke="none" fill="#f79438">
      <g>
        <text style="font: bold 20px Roboto, sans-serif; white-space: pre;" font-weight="bold" font-size="20px" font-family="Roboto, sans-serif">
          <tspan x="12" y="34" dominant-baseline="ideographic">August 21, 1955, 8:00 PM</tspan>
        </text>
      </g>
    </g>
  </g>
  <g id="g-root-tx_august21_v300rd1a4gy6h-stroke-fill" data-item-order="0" transform="translate(92, 134)">
    <g id="tx_august21_v300rd1a4gy6h-fill" stroke="none" fill="#ffe711">
      <g>
        <text style="font: bold 20px Roboto, sans-serif; white-space: pre;" font-weight="bold" font-size="20px" font-family="Roboto, sans-serif">
          <tspan x="14.77" y="34" dominant-baseline="ideographic">August 21, 1955, 7:00 PM</tspan>
        </text>
      </g>
    </g>
    <defs>
      <pattern id="crawlingPattern-0000001b" x="0" y="0" width="12" height="12" patternUnits="userSpaceOnUse" fill="#0000001b">
        <use href="#crawlingSymbol"/>
      </pattern>
      <symbol id="crawlingSymbol">
        <g>
          <path d="M -12.5 12.5 l 13 -13 l 6 0 l -13 13 Z M -0.5 12.5 l 13 -13 l 6 0 l -13 13 Z M 11.5 12.5 l 13 -13 l 6 0 l -13 13 Z"/>
        </g>
      </symbol>
      <pattern id="crawlingPattern-eb008e76" x="0" y="0" width="12" height="12" patternUnits="userSpaceOnUse" fill="#eb008e76">
        <use href="#crawlingSymbol"/>
      </pattern>
      <pattern id="crawlingPattern-f9080081" x="0" y="0" width="12" height="12" patternUnits="userSpaceOnUse" fill="#f9080081">
        <use href="#crawlingSymbol"/>
      </pattern>
      <pattern id="crawlingPattern-f17400d3" x="0" y="0" width="12" height="12" patternUnits="userSpaceOnUse" fill="#f17400d3">
        <use href="#crawlingSymbol"/>
      </pattern>
      <pattern id="crawlingPattern-ddc700ff" x="0" y="0" width="12" height="12" patternUnits="userSpaceOnUse" fill="#ddc700ff">
        <use href="#crawlingSymbol"/>
      </pattern>
    </defs>
  </g>
</svg>
