<?xml version='1.0' encoding='utf-8'?>
<svg xmlns="http://www.w3.org/2000/svg" xmlns:xlink="http://www.w3.org/1999/xlink" width="552" height="600" viewBox="0 0 552 600" style="fill:none;stroke:none;fill-rule:evenodd;clip-rule:evenodd;stroke-linecap:round;stroke-linejoin:round;stroke-miterlimit:1.5;" version="1.1">
  <style class="text-font-style fontImports" data-font-family="Roboto">@import url('https://fonts.googleapis.com/css2?family=Roboto:wght@400;700&amp;display=block');</style>
  <rect x="0" y="0" width="552" height="6E+2" fill="#252a34" stroke="none" id="programmatic_background"/>
  <g id="g-root-tf_909tqx1a4e32k-stroke-fill" data-item-order="-304128" transform="translate(12, 12)"/>
  <g id="g-root-cp_1_column-1_18egj4p1a4e3gv-stroke-fill" data-item-order="-230390" transform="translate(53, 143)">
    <g id="cp_1_column-1_18egj4p1a4e3gv-fill" stroke="none" fill="none">
      <g>
        <path d="M 10 13C 10 14.656854 11.343146 16 13 16C 14.656854 16 16 14.656854 16 13C 16 11.343146 14.656854 10 13 10C 11.343146 10 10 11.343146 10 13"/>
      </g>
    </g>
    <g id="cp_1_column-1_18egj4p1a4e3gv-stroke" fill="none" stroke-linecap="round" stroke-linejoin="round" stroke-miterlimit="4" stroke="#ffe711" stroke-width="2">
      <g>
        <path d="M 10 13C 10 14.656854 11.343146 16 13 16C 14.656854 16 16 14.656854 16 13C 16 11.343146 14.656854 10 13 10C 11.343146 10 10 11.343146 10 13"/>
      </g>
    </g>
    <g id="cp_1_column-1_18egj4p1a4e3gv-stroke" fill="none" stroke-linecap="round" stroke-linejoin="round" stroke-miterlimit="4" stroke="#ffe711" stroke-width="2">
      <g>
        <path d="M 13 16L 13 142"/>
      </g>
    </g>
    <g id="cp_1_column-1_18egj4p1a4e3gv-fill" stroke="none" fill="none">
      <g>
        <path d="M 10 145C 10 146.656854 11.343146 148 13 148C 14.656854 148 16 146.656854 16 145C 16 143.343146 14.656854 142 13 142C 11.343146 142 10 143.343146 10 145"/>
      </g>
    </g>
    <g id="cp_1_column-1_18egj4p1a4e3gv-stroke" fill="none" stroke-linecap="round" stroke-linejoin="round" stroke-miterlimit="4" stroke="#ffe711" stroke-width="2">
      <g>
        <path d="M 10 145C 10 146.656854 11.343146 148 13 148C 14.656854 148 16 146.656854 16 145C 16 143.343146 14.656854 142 13 142C 11.343146 142 10 143.343146 10 145"/>
      </g>
    </g>
  </g>
  <g id="g-root-cp_3_column-3_13yn1091a4e495-stroke-fill" data-item-order="-230374" transform="translate(233, 143)">
    <g id="cp_3_column-3_13yn1091a4e495-fill" stroke="none" fill="none">
      <g>
        <path d="M 10 13C 10 14.656854 11.343146 16 13 16C 14.656854 16 16 14.656854 16 13C 16 11.343146 14.656854 10 13 10C 11.343146 10 10 11.343146 10 13"/>
      </g>
    </g>
    <g id="cp_3_column-3_13yn1091a4e495-stroke" fill="none" stroke-linecap="round" stroke-linejoin="round" stroke-miterlimit="4" stroke="#fb6762" stroke-width="2">
      <g>
        <path d="M 10 13C 10 14.656854 11.343146 16 13 16C 14.656854 16 16 14.656854 16 13C 16 11.343146 14.656854 10 13 10C 11.343146 10 10 11.343146 10 13"/>
      </g>
    </g>
    <g id="cp_3_column-3_13yn1091a4e495-stroke" fill="none" stroke-linecap="round" stroke-linejoin="round" stroke-miterlimit="4" stroke="#fb6762" stroke-width="2">
      <g>
        <path d="M 13 16L 13 142"/>
      </g>
    </g>
    <g id="cp_3_column-3_13yn1091a4e495-fill" stroke="none" fill="none">
      <g>
        <path d="M 10 145C 10 146.656854 11.343146 148 13 148C 14.656854 148 16 146.656854 16 145C 16 143.343146 14.656854 142 13 142C 11.343146 142 10 143.343146 10 145"/>
      </g>
    </g>
    <g id="cp_3_column-3_13yn1091a4e495-stroke" fill="none" stroke-linecap="round" stroke-linejoin="round" stroke-miterlimit="4" stroke="#fb6762" stroke-width="2">
      <g>
        <path d="M 10 145C 10 146.656854 11.343146 148 13 148C 14.656854 148 16 146.656854 16 145C 16 143.343146 14.656854 142 13 142C 11.343146 142 10 143.343146 10 145"/>
      </g>
    </g>
  </g>
  <g id="g-root-cp_1_g-1_zitivt1a4e51f-stroke-fill" data-item-order="-230356" transform="translate(56, 290)">
    <g id="cp_1_g-1_zitivt1a4e51f-fill" stroke="none" fill="none">
      <g>
        <path d="M 76 10L 10 10L 28 46L 10 82L 76 82L 94 46L 76 10Z"/>
      </g>
    </g>
    <g id="cp_1_g-1_zitivt1a4e51f-stroke" fill="none" stroke-linecap="round" stroke-linejoin="round" stroke-miterlimit="4" stroke="#ffe711" stroke-width="2">
      <g>
        <path d="M 76 10L 10 10L 28 46L 10 82L 76 82L 94 46L 76 10Z"/>
      </g>
    </g>
  </g>
  <g id="g-root-cp_2_g-2_qnszq11a4e2od-stroke-fill" data-item-order="-230348" transform="translate(146, 290)">
    <g id="cp_2_g-2_qnszq11a4e2od-fill" stroke="none" fill="none">
      <g>
        <path d="M 76 10L 10 10L 28 46L 10 82L 76 82L 94 46L 76 10Z"/>
      </g>
    </g>
    <g id="cp_2_g-2_qnszq11a4e2od-stroke" fill="none" stroke-linecap="round" stroke-linejoin="round" stroke-miterlimit="4" stroke="#f79438" stroke-width="2">
      <g>
        <path d="M 76 10L 10 10L 28 46L 10 82L 76 82L 94 46L 76 10Z"/>
      </g>
    </g>
  </g>
  <g id="g-root-cp_3_g-3_m7zhll1a4e3gn-stroke-fill" data-item-order="-230342" transform="translate(236, 290)">
    <g id="cp_3_g-3_m7zhll1a4e3gn-fill" stroke="none" fill="none">
      <g>
        <path d="M 76 10L 10 10L 28 46L 10 82L 76 82L 94 46L 76 10Z"/>
      </g>
    </g>
    <g id="cp_3_g-3_m7zhll1a4e3gn-stroke" fill="none" stroke-linecap="round" stroke-linejoin="round" stroke-miterlimit="4" stroke="#fb6762" stroke-width="2">
      <g>
        <path d="M 76 10L 10 10L 28 46L 10 82L 76 82L 94 46L 76 10Z"/>
      </g>
    </g>
  </g>
  <g id="g-root-cp_4_g-4_hs5zh51a4e48x-stroke-fill" data-item-order="-230336" transform="translate(326, 290)">
    <g id="cp_4_g-4_hs5zh51a4e48x-fill" stroke="none" fill="none">
      <g>
        <path d="M 76 10L 10 10L 28 46L 10 82L 76 82L 94 46L 76 10Z"/>
      </g>
    </g>
    <g id="cp_4_g-4_hs5zh51a4e48x-stroke" fill="none" stroke-linecap="round" stroke-linejoin="round" stroke-miterlimit="4" stroke="#f366bb" stroke-width="2">
      <g>
        <path d="M 76 10L 10 10L 28 46L 10 82L 76 82L 94 46L 76 10Z"/>
      </g>
    </g>
  </g>
  <g id="g-root-cp_2_column-2_8wiz891a4e51n-stroke-fill" data-item-order="-230328" transform="translate(143, 371)">
    <g id="cp_2_column-2_8wiz891a4e51n-fill" stroke="none" fill="none">
      <g>
        <path d="M 10 13C 10 14.656854 11.343146 16 13 16C 14.656854 16 16 14.656854 16 13C 16 11.343146 14.656854 10 13 10C 11.343146 10 10 11.343146 10 13"/>
      </g>
    </g>
    <g id="cp_2_column-2_8wiz891a4e51n-stroke" fill="none" stroke-linecap="round" stroke-linejoin="round" stroke-miterlimit="4" stroke="#f79438" stroke-width="2">
      <g>
        <path d="M 10 13C 10 14.656854 11.343146 16 13 16C 14.656854 16 16 14.656854 16 13C 16 11.343146 14.656854 10 13 10C 11.343146 10 10 11.343146 10 13"/>
      </g>
    </g>
    <g id="cp_2_column-2_8wiz891a4e51n-stroke" fill="none" stroke-linecap="round" stroke-linejoin="round" stroke-miterlimit="4" stroke="#f79438" stroke-width="2">
      <g>
        <path d="M 13 16L 13 142"/>
      </g>
    </g>
    <g id="cp_2_column-2_8wiz891a4e51n-fill" stroke="none" fill="none">
      <g>
        <path d="M 10 145C 10 146.656854 11.343146 148 13 148C 14.656854 148 16 146.656854 16 145C 16 143.343146 14.656854 142 13 142C 11.343146 142 10 143.343146 10 145"/>
      </g>
    </g>
    <g id="cp_2_column-2_8wiz891a4e51n-stroke" fill="none" stroke-linecap="round" stroke-linejoin="round" stroke-miterlimit="4" stroke="#f79438" stroke-width="2">
      <g>
        <path d="M 10 145C 10 146.656854 11.343146 148 13 148C 14.656854 148 16 146.656854 16 145C 16 143.343146 14.656854 142 13 142C 11.343146 142 10 143.343146 10 145"/>
      </g>
    </g>
  </g>
  <g id="g-root-cp_4_column-4_4hby6x1a4e2o5-stroke-fill" data-item-order="-230312" transform="translate(323, 371)">
    <g id="cp_4_column-4_4hby6x1a4e2o5-fill" stroke="none" fill="none">
      <g>
        <path d="M 10 13C 10 14.656854 11.343146 16 13 16C 14.656854 16 16 14.656854 16 13C 16 11.343146 14.656854 10 13 10C 11.343146 10 10 11.343146 10 13"/>
      </g>
    </g>
    <g id="cp_4_column-4_4hby6x1a4e2o5-stroke" fill="none" stroke-linecap="round" stroke-linejoin="round" stroke-miterlimit="4" stroke="#f366bb" stroke-width="2">
      <g>
        <path d="M 10 13C 10 14.656854 11.343146 16 13 16C 14.656854 16 16 14.656854 16 13C 16 11.343146 14.656854 10 13 10C 11.343146 10 10 11.343146 10 13"/>
      </g>
    </g>
    <g id="cp_4_column-4_4hby6x1a4e2o5-stroke" fill="none" stroke-linecap="round" stroke-linejoin="round" stroke-miterlimit="4" stroke="#f366bb" stroke-width="2">
      <g>
        <path d="M 12.999996 16L 12.999996 142"/>
      </g>
    </g>
    <g id="cp_4_column-4_4hby6x1a4e2o5-fill" stroke="none" fill="none">
      <g>
        <path d="M 10 145C 10 146.656854 11.343146 148 13 148C 14.656854 148 16 146.656854 16 145C 16 143.343146 14.656854 142 13 142C 11.343146 142 10 143.343146 10 145"/>
      </g>
    </g>
    <g id="cp_4_column-4_4hby6x1a4e2o5-stroke" fill="none" stroke-linecap="round" stroke-linejoin="round" stroke-miterlimit="4" stroke="#f366bb" stroke-width="2">
      <g>
        <path d="M 10 145C 10 146.656854 11.343146 148 13 148C 14.656854 148 16 146.656854 16 145C 16 143.343146 14.656854 142 13 142C 11.343146 142 10 143.343146 10 145"/>
      </g>
    </g>
  </g>
  <g id="g-root-tx_thekelly_1umszx51a4e39r-stroke-fill" data-item-order="0" transform="translate(50, 50)">
    <g id="tx_thekelly_1umszx51a4e39r-fill" stroke="none" fill="#f4f4f4">
      <g>
        <text style="font: 20px Roboto, sans-serif; white-space: pre;" font-size="20px" font-family="Roboto, sans-serif">
          <tspan x="15.22" y="34" dominant-baseline="ideographic">The Kelly-Hopkinsville Encounter: A Timeline of </tspan>
          <tspan x="193.91" y="58" dominant-baseline="ideographic">Events</tspan>
        </text>
      </g>
    </g>
  </g>
  <g id="g-root-tx_august21_1q6zhsp1a4e420-stroke-fill" data-item-order="0" transform="translate(68, 146)">
    <g id="tx_august21_1q6zhsp1a4e420-fill" stroke="none" fill="#ffe711">
      <g>
        <text style="font: bold 20px Roboto, sans-serif; white-space: pre;" font-weight="bold" font-size="20px" font-family="Roboto, sans-serif">
          <tspan x="12" y="34" dominant-baseline="ideographic">August 21, </tspan>
          <tspan x="12" y="58" dominant-baseline="ideographic">1955, 7:00 PM</tspan>
        </text>
      </g>
    </g>
  </g>
  <g id="g-root-tx_billyray_1cw5gih1a4e2h5-stroke-fill" data-item-order="0" transform="translate(68, 206)">
    <g id="tx_billyray_1cw5gih1a4e2h5-fill" stroke="none" fill="#f4f4f4">
      <g>
        <text style="font: 15px Roboto, sans-serif; white-space: pre;" font-size="15px" font-family="Roboto, sans-serif">
          <tspan x="12" y="31" dominant-baseline="ideographic">Billy Ray Taylor sees </tspan>
          <tspan x="12" y="49" dominant-baseline="ideographic">a bright light in the </tspan>
          <tspan x="12" y="67" dominant-baseline="ideographic">sky</tspan>
        </text>
      </g>
    </g>
  </g>
  <g id="g-root-tx_august21_zkoy551a4e422-stroke-fill" data-item-order="0" transform="translate(248, 146)">
    <g id="tx_august21_zkoy551a4e422-fill" stroke="none" fill="#fb6762">
      <g>
        <text style="font: bold 20px Roboto, sans-serif; white-space: pre;" font-weight="bold" font-size="20px" font-family="Roboto, sans-serif">
          <tspan x="12" y="34" dominant-baseline="ideographic">August 21, </tspan>
          <tspan x="12" y="58" dominant-baseline="ideographic">1955, 11:00 </tspan>
          <tspan x="12" y="82" dominant-baseline="ideographic">PM</tspan>
        </text>
      </g>
    </g>
  </g>
  <g id="g-root-tx_familyre_v4vg0p1a4e4ub-stroke-fill" data-item-order="0" transform="translate(248, 230)">
    <g id="tx_familyre_v4vg0p1a4e4ub-fill" stroke="none" fill="#f4f4f4">
      <g>
        <text style="font: 15px Roboto, sans-serif; white-space: pre;" font-size="15px" font-family="Roboto, sans-serif">
          <tspan x="12" y="28" dominant-baseline="ideographic">Family reports </tspan>
          <tspan x="12" y="46" dominant-baseline="ideographic">incident to police</tspan>
        </text>
      </g>
    </g>
  </g>
  <g id="g-root-tx_august21_hu1eqh1a4e39g-stroke-fill" data-item-order="0" transform="translate(158, 386)">
    <g id="tx_august21_hu1eqh1a4e39g-fill" stroke="none" fill="#f79438">
      <g>
        <text style="font: bold 20px Roboto, sans-serif; white-space: pre;" font-weight="bold" font-size="20px" font-family="Roboto, sans-serif">
          <tspan x="12" y="34" dominant-baseline="ideographic">August 21, </tspan>
          <tspan x="12" y="58" dominant-baseline="ideographic">1955, 8:00 PM</tspan>
        </text>
      </g>
    </g>
  </g>
  <g id="g-root-tx_familydo_4ikwd51a4e4ud-stroke-fill" data-item-order="0" transform="translate(158, 446)">
    <g id="tx_familydo_4ikwd51a4e4ud-fill" stroke="none" fill="#f4f4f4">
      <g>
        <text style="font: 15px Roboto, sans-serif; white-space: pre;" font-size="15px" font-family="Roboto, sans-serif">
          <tspan x="12" y="31" dominant-baseline="ideographic">Family dog barks </tspan>
          <tspan x="12" y="49" dominant-baseline="ideographic">frantically, creatures </tspan>
          <tspan x="12" y="67" dominant-baseline="ideographic">appear</tspan>
        </text>
      </g>
    </g>
  </g>
  <g id="g-root-tx_august22_1uo1y3d1a4e5fy-stroke-fill" data-item-order="0" transform="translate(338, 386)">
    <g id="tx_august22_1uo1y3d1a4e5fy-fill" stroke="none" fill="#f366bb">
      <g>
        <text style="font: bold 20px Roboto, sans-serif; white-space: pre;" font-weight="bold" font-size="20px" font-family="Roboto, sans-serif">
          <tspan x="12" y="34" dominant-baseline="ideographic">August 22, </tspan>
          <tspan x="12" y="58" dominant-baseline="ideographic">1955, Morning</tspan>
        </text>
      </g>
    </g>
  </g>
  <g id="g-root-tx_familyfl_1q8ux211a4e32f-stroke-fill" data-item-order="0" transform="translate(338, 446)">
    <g id="tx_familyfl_1q8ux211a4e32f-fill" stroke="none" fill="#f4f4f4">
      <g>
        <text style="font: 15px Roboto, sans-serif; white-space: pre;" font-size="15px" font-family="Roboto, sans-serif">
          <tspan x="12" y="31" dominant-baseline="ideographic">Family flees </tspan>
          <tspan x="12" y="49" dominant-baseline="ideographic">property, claiming </tspan>
          <tspan x="12" y="67" dominant-baseline="ideographic">creatures returned</tspan>
        </text>
      </g>
    </g>
    <defs>
      <pattern id="crawlingPattern-0000001b" x="0" y="0" width="12" height="12" patternUnits="userSpaceOnUse" fill="#0000001b">
        <use href="#crawlingSymbol"/>
      </pattern>
      <symbol id="crawlingSymbol">
        <g>
          <path d="M -12.5 12.5 l 13 -13 l 6 0 l -13 13 Z M -0.5 12.5 l 13 -13 l 6 0 l -13 13 Z M 11.5 12.5 l 13 -13 l 6 0 l -13 13 Z"/>
        </g>
      </symbol>
      <pattern id="crawlingPattern-ddc700ff" x="0" y="0" width="12" height="12" patternUnits="userSpaceOnUse" fill="#ddc700ff">
        <use href="#crawlingSymbol"/>
      </pattern>
      <pattern id="crawlingPattern-f9080081" x="0" y="0" width="12" height="12" patternUnits="userSpaceOnUse" fill="#f9080081">
        <use href="#crawlingSymbol"/>
      </pattern>
      <pattern id="crawlingPattern-f17400d3" x="0" y="0" width="12" height="12" patternUnits="userSpaceOnUse" fill="#f17400d3">
        <use href="#crawlingSymbol"/>
      </pattern>
      <pattern id="crawlingPattern-eb008e76" x="0" y="0" width="12" height="12" patternUnits="userSpaceOnUse" fill="#eb008e76">
        <use href="#crawlingSymbol"/>
      </pattern>
    </defs>
  </g>
</svg>
