<?xml version='1.0' encoding='utf-8'?>
<svg xmlns="http://www.w3.org/2000/svg" xmlns:xlink="http://www.w3.org/1999/xlink" width="816" height="636" viewBox="0 0 816 636" style="fill:none;stroke:none;fill-rule:evenodd;clip-rule:evenodd;stroke-linecap:round;stroke-linejoin:round;stroke-miterlimit:1.5;" version="1.1">
  <style class="text-font-style fontImports" data-font-family="Roboto">@import url('https://fonts.googleapis.com/css2?family=Roboto:wght@400;700&amp;display=block');</style>
  <rect x="0" y="0" width="816" height="636" fill="#252a34" stroke="none" id="programmatic_background"/>
  <g id="g-root-tf_1464dfd1b89nuo-stroke-fill" data-item-order="-477360" transform="translate(18, 12)">
    <g id="tf_1464dfd1b89nuo-fill" stroke="none" fill="#2c2c2c">
      <g>
        <path d="M 0 0L 780 0L 780 612L 0 612Z"/>
      </g>
    </g>
    <defs>
      <pattern id="crawlingPattern-7878781a" x="0" y="0" width="12" height="12" patternUnits="userSpaceOnUse" fill="#7878781a">
        <use href="#crawlingSymbol"/>
      </pattern>
      <symbol id="crawlingSymbol">
        <g>
          <path d="M -12.5 12.5 l 13 -13 l 6 0 l -13 13 Z M -0.5 12.5 l 13 -13 l 6 0 l -13 13 Z M 11.5 12.5 l 13 -13 l 6 0 l -13 13 Z"/>
        </g>
      </symbol>
      <pattern id="crawlingPattern-00d16d21" x="0" y="0" width="12" height="12" patternUnits="userSpaceOnUse" fill="#00d16d21">
        <use href="#crawlingSymbol"/>
      </pattern>
      <pattern id="crawlingPattern-3604fc1a" x="0" y="0" width="12" height="12" patternUnits="userSpaceOnUse" fill="#3604fc1a">
        <use href="#crawlingSymbol"/>
      </pattern>
      <pattern id="crawlingPattern-8484841a" x="0" y="0" width="12" height="12" patternUnits="userSpaceOnUse" fill="#8484841a">
        <use href="#crawlingSymbol"/>
      </pattern>
      <pattern id="crawlingPattern-00bcfb62" x="0" y="0" width="12" height="12" patternUnits="userSpaceOnUse" fill="#00bcfb62">
        <use href="#crawlingSymbol"/>
      </pattern>
      <pattern id="crawlingPattern-ffffff38" x="0" y="0" width="12" height="12" patternUnits="userSpaceOnUse" fill="#ffffff38">
        <use href="#crawlingSymbol"/>
      </pattern>
      <pattern id="crawlingPattern-0000001b" x="0" y="0" width="12" height="12" patternUnits="userSpaceOnUse" fill="#0000001b">
        <use href="#crawlingSymbol"/>
      </pattern>
      <pattern id="crawlingPattern-5f5f5f1a" x="0" y="0" width="12" height="12" patternUnits="userSpaceOnUse" fill="#5f5f5f1a">
        <use href="#crawlingSymbol"/>
      </pattern>
    </defs>
  </g>
  <g id="g-root-sy_-1_cu_deu12x1b89nnp-stroke-fill" data-item-order="-316218" transform="translate(32, 265.00390625)">
    <g id="sy_-1_cu_deu12x1b89nnp-fill" stroke="none" fill="#ababab">
      <g>
        <path d="M 10.001 143L 10 47L 67 47L 70 59L 322 59L 319 47L 367 47L 370 59L 622 59L 619 47L 646 47L 646 10L 742 95L 646.002 180L 646 143L 619 143L 622 131L 370 131L 367 143L 319.001 143L 322.001 131L 70.001 131L 67.001 143L 10.001 143Z"/>
      </g>
    </g>
    <g id="sy_-1_cu_deu12x1b89nnp-stroke" fill="none" stroke-linecap="round" stroke-linejoin="round" stroke-miterlimit="4" stroke="#2c2c2c" stroke-width="2">
      <g>
        <path d="M 10.001 143L 10 47L 67 47L 70 59L 322 59L 319 47L 367 47L 370 59L 622 59L 619 47L 646 47L 646 10L 742 95L 646.0017 180L 646 143L 619 143L 622 131L 370 131L 367 143L 319.001 143L 322.001 131L 70.001 131L 67.001 143L 10.001 143Z"/>
      </g>
    </g>
  </g>
  <g id="g-root-sy_4_cu_4j70u11b89oge-stroke-fill" data-item-order="-316214" transform="translate(347, 386)">
    <g id="sy_4_cu_4j70u11b89oge-fill" stroke="none" fill="#43dd93">
      <g>
        <path d="M 307 10L 295 58L 43 58L 55 10L 307 10ZM 291.992188 70L 279.992188 118L 27.992188 118L 39.992188 70L 291.992188 70ZM 277 130L 25 130L 10 190L 262 190L 277 130Z"/>
      </g>
    </g>
    <g id="sy_4_cu_4j70u11b89oge-stroke" fill="none" stroke-linecap="round" stroke-linejoin="round" stroke-miterlimit="4" stroke="#2c2c2c" stroke-width="2">
      <g>
        <path d="M 307 10L 295 58L 43 58L 55 10L 307 10ZM 291.992188 70L 279.992188 118L 27.992188 118L 39.992188 70L 291.992188 70ZM 277 130L 25 130L 10 190L 262 190L 277 130Z"/>
      </g>
    </g>
  </g>
  <g id="g-root-sy_3_cu_3dipl1b89p8n-stroke-fill" data-item-order="-316210" transform="translate(347, 134)">
    <g id="sy_3_cu_3dipl1b89p8n-fill" stroke="none" fill="#8769fd">
      <g>
        <path d="M 307 190L 295 142L 43 142L 55 190L 307 190ZM 291.992188 130L 279.992188 82L 27.992188 82L 39.992188 130L 291.992188 130ZM 277 70L 25 70L 10 10L 262 10L 277 70Z"/>
      </g>
    </g>
    <g id="sy_3_cu_3dipl1b89p8n-stroke" fill="none" stroke-linecap="round" stroke-linejoin="round" stroke-miterlimit="4" stroke="#2c2c2c" stroke-width="2">
      <g>
        <path d="M 307 190L 295 142L 43 142L 55 190L 307 190ZM 291.992188 130L 279.992188 82L 27.992188 82L 39.992188 130L 291.992188 130ZM 277 70L 25 70L 10 10L 262 10L 277 70Z"/>
      </g>
    </g>
  </g>
  <g id="g-root-sy_2_cu_1uoo2k91b89pts-stroke-fill" data-item-order="-316206" transform="translate(47, 386)">
    <g id="sy_2_cu_1uoo2k91b89pts-fill" stroke="none" fill="#b7b7b7">
      <g>
        <path d="M 307.000977 10L 295.000977 58L 43.000977 58L 55.000977 10L 307.000977 10ZM 291.993164 70L 279.993164 118L 27.993164 118L 39.993164 70L 291.993164 70ZM 277.001 130L 25.001 130L 10 190L 262 190L 277.001 130Z"/>
      </g>
    </g>
    <g id="sy_2_cu_1uoo2k91b89pts-stroke" fill="none" stroke-linecap="round" stroke-linejoin="round" stroke-miterlimit="4" stroke="#2c2c2c" stroke-width="2">
      <g>
        <path d="M 307.000977 10L 295.000977 58L 43.000977 58L 55.000977 10L 307.000977 10ZM 291.993164 70L 279.993164 118L 27.993164 118L 39.993164 70L 291.993164 70ZM 277.001 130L 25.001 130L 10 190L 262 190L 277.001 130Z"/>
      </g>
    </g>
  </g>
  <g id="g-root-sy_1_cu_1hdu1a11b89o8x-stroke-fill" data-item-order="-316202" transform="translate(47, 134)">
    <g id="sy_1_cu_1hdu1a11b89o8x-fill" stroke="none" fill="#1ac3fb">
      <g>
        <path d="M 307 190L 295 142L 43 142L 55 190L 307 190ZM 291.992188 130L 279.992188 82L 27.992188 82L 39.992188 130L 291.992188 130ZM 277 70L 25 70L 10 10L 262 10L 277 70Z"/>
      </g>
    </g>
    <g id="sy_1_cu_1hdu1a11b89o8x-stroke" fill="none" stroke-linecap="round" stroke-linejoin="round" stroke-miterlimit="4" stroke="#2c2c2c" stroke-width="2">
      <g>
        <path d="M 307 190L 295 142L 43 142L 55 190L 307 190ZM 291.992188 130L 279.992188 82L 27.992188 82L 39.992188 130L 291.992188 130ZM 277 70L 25 70L 10 10L 262 10L 277 70Z"/>
      </g>
    </g>
  </g>
  <g id="g-root-tx_disappea_18i71151b89p1m-stroke-fill" data-item-order="0" transform="translate(284, 332)">
    <g id="tx_disappea_18i71151b89p1m-fill" stroke="none" fill="#2c2c2c">
      <g>
        <text style="font: bold 25px Roboto, sans-serif; white-space: pre;" font-weight="bold" font-size="25px" font-family="Roboto, sans-serif">
          <tspan x="15.3" y="43" dominant-baseline="ideographic">Disappearance of F-89C and its crew</tspan>
        </text>
      </g>
    </g>
  </g>
  <g id="g-root-tx_explorat_v7czqx1b89ngr-stroke-fill" data-item-order="0" transform="translate(452, 392)">
    <g id="tx_explorat_v7czqx1b89ngr-fill" stroke="none" fill="#2c2c2c">
      <g>
        <text style="font: 15px Roboto, sans-serif; white-space: pre;" font-size="15px" font-family="Roboto, sans-serif">
          <tspan x="16.94" y="28" dominant-baseline="ideographic">Exploration of Canadian </tspan>
          <tspan x="120.27" y="46" dominant-baseline="ideographic">archives</tspan>
        </text>
      </g>
    </g>
  </g>
  <g id="g-root-tx_foiarequ_qrjhmh1b89o90-stroke-fill" data-item-order="0" transform="translate(425, 452)">
    <g id="tx_foiarequ_qrjhmh1b89o90-fill" stroke="none" fill="#2c2c2c">
      <g>
        <text style="font: 15px Roboto, sans-serif; white-space: pre;" font-size="15px" font-family="Roboto, sans-serif">
          <tspan x="17.86" y="28" dominant-baseline="ideographic">FOIA requests for military </tspan>
          <tspan x="112.81" y="46" dominant-baseline="ideographic">documents</tspan>
        </text>
      </g>
    </g>
  </g>
  <g id="g-root-tx_research_hvwhdl1b89p1p-stroke-fill" data-item-order="0" transform="translate(398, 524)">
    <g id="tx_research_hvwhdl1b89p1p-fill" stroke="none" fill="#2c2c2c">
      <g>
        <text style="font: bold 20px Roboto, sans-serif; white-space: pre;" font-weight="bold" font-size="20px" font-family="Roboto, sans-serif">
          <tspan x="19.39" y="34" dominant-baseline="ideographic">Research Directions</tspan>
        </text>
      </g>
    </g>
  </g>
  <g id="g-root-tx_technolo_4l2g3d1b89ngu-stroke-fill" data-item-order="0" transform="translate(440, 272)">
    <g id="tx_technolo_4l2g3d1b89ngu-fill" stroke="none" fill="#2c2c2c">
      <g>
        <text style="font: 15px Roboto, sans-serif; white-space: pre;" font-size="15px" font-family="Roboto, sans-serif">
          <tspan x="15.98" y="28" dominant-baseline="ideographic">Technologically advanced </tspan>
          <tspan x="150.36" y="46" dominant-baseline="ideographic">origin</tspan>
        </text>
      </g>
    </g>
  </g>
  <g id="g-root-tx_absorpti_58xyx1b89o93-stroke-fill" data-item-order="0" transform="translate(401, 218)">
    <g id="tx_absorpti_58xyx1b89o93-fill" stroke="none" fill="#2c2c2c">
      <g>
        <text style="font: 15px Roboto, sans-serif; white-space: pre;" font-size="15px" font-family="Roboto, sans-serif">
          <tspan x="16.58" y="31" dominant-baseline="ideographic">Absorption by advanced craft</tspan>
        </text>
      </g>
    </g>
  </g>
  <g id="g-root-tx_speculat_1luwhkp1b89pmw-stroke-fill" data-item-order="0" transform="translate(386, 152)">
    <g id="tx_speculat_1luwhkp1b89pmw-fill" stroke="none" fill="#2c2c2c">
      <g>
        <text style="font: bold 20px Roboto, sans-serif; white-space: pre;" font-weight="bold" font-size="20px" font-family="Roboto, sans-serif">
          <tspan x="23.33" y="34" dominant-baseline="ideographic">Speculative Theories</tspan>
        </text>
      </g>
    </g>
  </g>
  <g id="g-root-tx_discrepa_1hfpgjd1b89n9d-stroke-fill" data-item-order="0" transform="translate(152, 392)">
    <g id="tx_discrepa_1hfpgjd1b89n9d-fill" stroke="none" fill="#2c2c2c">
      <g>
        <text style="font: 15px Roboto, sans-serif; white-space: pre;" font-size="15px" font-family="Roboto, sans-serif">
          <tspan x="13.11" y="28" dominant-baseline="ideographic">Discrepancies in military </tspan>
          <tspan x="63.94" y="46" dominant-baseline="ideographic">communications</tspan>
        </text>
      </g>
    </g>
  </g>
  <g id="g-root-tx_usandcan_1448y611b89oua-stroke-fill" data-item-order="0" transform="translate(173, 452)">
    <g id="tx_usandcan_1448y611b89oua-fill" stroke="none" fill="#2c2c2c">
      <g>
        <text style="font: 15px Roboto, sans-serif; white-space: pre;" font-size="15px" font-family="Roboto, sans-serif">
          <tspan x="18.19" y="28" dominant-baseline="ideographic">U.S. and Canadian </tspan>
          <tspan x="44.36" y="46" dominant-baseline="ideographic">contradictions</tspan>
        </text>
      </g>
    </g>
  </g>
  <g id="g-root-tx_official_v8lxx51b89pmz-stroke-fill" data-item-order="0" transform="translate(110, 524)">
    <g id="tx_official_v8lxx51b89pmz-fill" stroke="none" fill="#2c2c2c">
      <g>
        <text style="font: bold 20px Roboto, sans-serif; white-space: pre;" font-weight="bold" font-size="20px" font-family="Roboto, sans-serif">
          <tspan x="15.2" y="34" dominant-baseline="ideographic">Official Statements</tspan>
        </text>
      </g>
    </g>
  </g>
  <g id="g-root-tx_blipswal_qtewvt1b89n9g-stroke-fill" data-item-order="0" transform="translate(125, 218)">
    <g id="tx_blipswal_qtewvt1b89n9g-fill" stroke="none" fill="#2c2c2c">
      <g>
        <text style="font: 15px Roboto, sans-serif; white-space: pre;" font-size="15px" font-family="Roboto, sans-serif">
          <tspan x="11.86" y="31" dominant-baseline="ideographic">Blip "swallowed" the F-89C</tspan>
        </text>
      </g>
    </g>
  </g>
  <g id="g-root-tx_mergingw_hxrwmx1b89o25-stroke-fill" data-item-order="0" transform="translate(140, 272)">
    <g id="tx_mergingw_hxrwmx1b89o25-fill" stroke="none" fill="#2c2c2c">
      <g>
        <text style="font: 15px Roboto, sans-serif; white-space: pre;" font-size="15px" font-family="Roboto, sans-serif">
          <tspan x="14.7" y="28" dominant-baseline="ideographic">Merging" with unidentified </tspan>
          <tspan x="146.72" y="46" dominant-baseline="ideographic">object</tspan>
        </text>
      </g>
    </g>
  </g>
  <g id="g-root-tx_radarevi_4mbe9l1b89pn2-stroke-fill" data-item-order="0" transform="translate(146, 152)">
    <g id="tx_radarevi_4mbe9l1b89pn2-fill" stroke="none" fill="#2c2c2c">
      <g>
        <text style="font: bold 20px Roboto, sans-serif; white-space: pre;" font-weight="bold" font-size="20px" font-family="Roboto, sans-serif">
          <tspan x="13.31" y="34" dominant-baseline="ideographic">Radar Evidence</tspan>
        </text>
      </g>
    </g>
  </g>
  <g id="g-root-tx_analyzin_74d891b89n9j-stroke-fill" data-item-order="0" transform="translate(212, 50)">
    <g id="tx_analyzin_74d891b89n9j-fill" stroke="none" fill="#f4f4f4">
      <g>
        <text style="font: bold 20px Roboto, sans-serif; white-space: pre;" font-weight="bold" font-size="20px" font-family="Roboto, sans-serif">
          <tspan x="14.48" y="34" dominant-baseline="ideographic">Analyzing the Kinross Incident Mystery</tspan>
        </text>
      </g>
    </g>
  </g>
</svg>
