<?xml version='1.0' encoding='utf-8'?>
<svg xmlns="http://www.w3.org/2000/svg" xmlns:xlink="http://www.w3.org/1999/xlink" width="624" height="444" viewBox="0 0 624 444" style="fill:none;stroke:none;fill-rule:evenodd;clip-rule:evenodd;stroke-linecap:round;stroke-linejoin:round;stroke-miterlimit:1.5;" version="1.1">
  <style class="text-font-style fontImports" data-font-family="Roboto">@import url('https://fonts.googleapis.com/css2?family=Roboto:wght@400;700&amp;display=block');</style>
  <rect x="0" y="0" width="624" height="444" fill="#252a34" stroke="none" id="programmatic_background"/>
  <g id="g-root-tf_1lsel8919ud2j1-stroke-fill" data-item-order="-252000" transform="translate(12, 12)">
    <g id="tf_1lsel8919ud2j1-fill" stroke="none" fill="#2c2c2c">
      <g>
        <path d="M 0 0L 600 0L 600 420L 0 420Z"/>
      </g>
    </g>
    <defs>
      <pattern id="crawlingPattern-8484841a" x="0" y="0" width="12" height="12" patternUnits="userSpaceOnUse" fill="#8484841a">
        <use href="#crawlingSymbol"/>
      </pattern>
      <symbol id="crawlingSymbol">
        <g>
          <path d="M -12.5 12.5 l 13 -13 l 6 0 l -13 13 Z M -0.5 12.5 l 13 -13 l 6 0 l -13 13 Z M 11.5 12.5 l 13 -13 l 6 0 l -13 13 Z"/>
        </g>
      </symbol>
      <pattern id="crawlingPattern-3604fc1a" x="0" y="0" width="12" height="12" patternUnits="userSpaceOnUse" fill="#3604fc1a">
        <use href="#crawlingSymbol"/>
      </pattern>
      <pattern id="crawlingPattern-0060fb20" x="0" y="0" width="12" height="12" patternUnits="userSpaceOnUse" fill="#0060fb20">
        <use href="#crawlingSymbol"/>
      </pattern>
      <pattern id="crawlingPattern-0000001b" x="0" y="0" width="12" height="12" patternUnits="userSpaceOnUse" fill="#0000001b">
        <use href="#crawlingSymbol"/>
      </pattern>
      <pattern id="crawlingPattern-5f5f5f1a" x="0" y="0" width="12" height="12" patternUnits="userSpaceOnUse" fill="#5f5f5f1a">
        <use href="#crawlingSymbol"/>
      </pattern>
    </defs>
  </g>
  <g id="g-root-sy_4_cu_1qdud4p19u4pom-stroke-fill" data-item-order="-31673" transform="translate(218, 201)">
    <g id="sy_4_cu_1qdud4p19u4pom-stroke" fill="none" stroke-linecap="round" stroke-linejoin="round" stroke-miterlimit="4" stroke="#f4f4f4" stroke-width="2">
      <g>
        <path d="M 178 34L 178 46.961C 178 51.765 173.796 55.485 169.028 54.901L 100 46.448M 10 10L 10 27.415C 10 31.418 12.957 34.804 16.923 35.343L 88 45"/>
      </g>
    </g>
  </g>
  <g id="g-root-sy_3_cu_1hittyx19u4nbj-stroke-fill" data-item-order="-31670" transform="translate(266, 230)">
    <g id="sy_3_cu_1hittyx19u4nbj-fill" stroke="none" fill="#b7b7b7">
      <g>
        <path d="M 46 22C 49.314 22 52 19.314 52 16C 52 12.686 49.314 10 46 10C 42.686 10 40 12.686 40 16C 40 19.314 42.686 22 46 22ZM 43 77.995L 49 77.995L 49 21.533C 49 21.533 47.756 22.333 46.043 22.333C 44.212 22.333 43 21.533 43 21.533L 43 77.995ZM 16.4 86C 12.865 86 10 88.865 10 92.4C 10 93.284 10.716 94 11.6 94L 80.4 94C 81.284 94 82 93.284 82 92.4C 82 88.865 79.135 86 75.6 86L 16.4 86ZM 28 78C 24.686 78 22 80.686 22 84L 22 86L 70 86L 70 84C 70 80.686 67.314 78 64 78L 28 78Z"/>
      </g>
    </g>
    <g id="sy_3_cu_1hittyx19u4nbj-stroke" fill="none" stroke-linecap="round" stroke-linejoin="round" stroke-miterlimit="4" stroke="#2c2c2c" stroke-width="2">
      <g>
        <path d="M 46 22C 49.314 22 52 19.314 52 16C 52 12.686 49.314 10 46 10C 42.686 10 40 12.686 40 16C 40 19.314 42.686 22 46 22ZM 43 77.995L 49 77.995L 49 21.533C 49 21.533 47.756 22.333 46.043 22.333C 44.212 22.333 43 21.533 43 21.533L 43 77.995ZM 16.4 86C 12.865 86 10 88.865 10 92.4C 10 93.284 10.716 94 11.6 94L 80.4 94C 81.284 94 82 93.284 82 92.4C 82 88.865 79.135 86 75.6 86L 16.4 86ZM 28 78C 24.686 78 22 80.686 22 84L 22 86L 70 86L 70 84C 70 80.686 67.314 78 64 78L 28 78Z"/>
      </g>
    </g>
  </g>
  <g id="g-root-sy_2_right-bucket_1d30buh19u4o3s-stroke-fill" data-item-order="-31666" transform="translate(350, 206.33599853515625)">
    <g id="sy_2_right-bucket_1d30buh19u4o3s-fill" stroke="none" fill="#8769fd">
      <g>
        <path d="M 10 11.800001C 10 10.806001 10.806 10.000001 11.8 10.000001L 80.2 10.000001C 81.194 10.000001 82 10.806001 82 11.800001C 82 20.747001 74.747 28.000001 65.8 28.000001L 26.2 28.000001C 17.253 28.000001 10 20.747001 10 11.800001Z"/>
      </g>
    </g>
    <g id="sy_2_right-bucket_1d30buh19u4o3s-stroke" fill="none" stroke-linecap="round" stroke-linejoin="round" stroke-miterlimit="4" stroke="#2c2c2c" stroke-width="2">
      <g>
        <path d="M 10 11.800001C 10 10.806001 10.806 10.000001 11.8 10.000001L 80.2 10.000001C 81.194 10.000001 82 10.806001 82 11.800001C 82 20.747001 74.747 28.000001 65.8 28.000001L 26.2 28.000001C 17.253 28.000001 10 20.747001 10 11.800001Z"/>
      </g>
    </g>
  </g>
  <g id="g-root-sy_1_left-bucket_1d30buh19u4o3t-stroke-fill" data-item-order="-31662" transform="translate(182, 182)">
    <g id="sy_1_left-bucket_1d30buh19u4o3t-fill" stroke="none" fill="#4f91fc">
      <g>
        <path d="M 10 11.8C 10 10.806 10.806 10 11.8 10L 80.2 10C 81.194 10 82 10.806 82 11.8C 82 20.747 74.747 28 65.8 28L 26.2 28C 17.253 28 10 20.747 10 11.8Z"/>
      </g>
    </g>
    <g id="sy_1_left-bucket_1d30buh19u4o3t-stroke" fill="none" stroke-linecap="round" stroke-linejoin="round" stroke-miterlimit="4" stroke="#2c2c2c" stroke-width="2">
      <g>
        <path d="M 10 11.8C 10 10.806 10.806 10 11.8 10L 80.2 10C 81.194 10 82 10.806 82 11.8C 82 20.747 74.747 28 65.8 28L 26.2 28C 17.253 28 10 20.747 10 11.8Z"/>
      </g>
    </g>
  </g>
  <g id="g-root-ic_bird_18n6tq119u4ow2-stroke-fill" data-item-order="-2304" transform="translate(194, 122)">
    <g id="ic_bird_18n6tq119u4ow2-fill" stroke="none" fill="#b7b7b7">
      <g>
        <path d="M 25 17.559999C 26.10457 17.559999 27 16.66457 27 15.559999L 27 13.2C 27 12.09543 26.10457 11.2 25 11.2C 23.895432 11.2 23 12.09543 23 13.2L 23 15.559999C 23 16.66457 23.895432 17.559999 25 17.559999ZM 16.119999 20.1C 16.497437 20.474373 17.008394 20.683073 17.540001 20.68C 18.071606 20.683073 18.582561 20.474373 18.959999 20.1C 19.338625 19.724466 19.551598 19.213276 19.551598 18.68C 19.551598 18.146725 19.338625 17.635532 18.959999 17.26L 17.280001 15.6C 16.486479 14.920446 15.303612 14.966135 14.564874 15.704874C 13.826136 16.443611 13.780446 17.62648 14.46 18.42ZM 12 28.200001L 14.360001 28.200001C 15.464569 28.200001 16.360001 27.304569 16.360001 26.200001C 16.360001 25.09543 15.464569 24.200001 14.360001 24.200001L 12 24.200001C 10.895431 24.200001 10 25.09543 10 26.200001C 10 27.304569 10.895431 28.200001 12 28.200001ZM 10 10M 16.119999 32.299999L 14.46 34C 13.684553 34.780075 13.684553 36.039925 14.46 36.82C 15.240075 37.595448 16.499926 37.595448 17.280001 36.82L 18.959999 35.16C 19.744244 34.375755 19.744244 33.104244 18.959999 32.32C 18.175755 31.535755 16.904243 31.535755 16.120001 32.32ZM 23 36.84L 23 39.200001C 23 40.304569 23.895432 41.200001 25 41.200001C 26.10457 41.200001 27 40.304569 27 39.200001L 27 36.84C 27 35.735428 26.10457 34.84 25 34.84C 23.895432 34.84 23 35.735428 23 36.84ZM 31.16 32.299999C 30.781374 32.675533 30.568403 33.186726 30.568403 33.720001C 30.568403 34.253273 30.781374 34.764465 31.16 35.139999L 32.84 36.799999C 33.214142 37.181709 33.72551 37.397781 34.260002 37.400002C 35.068886 37.396606 35.796089 36.906303 36.102535 36.157707C 36.408981 35.409103 36.234322 34.549618 35.66 33.98L 34 32.299999C 33.624466 31.921375 33.113274 31.708403 32.580002 31.708403C 32.046722 31.708403 31.535534 31.921375 31.16 32.299999ZM 33.639999 26.200001C 33.639999 27.304569 34.535431 28.200001 35.639999 28.200001L 38 28.200001C 39.104568 28.200001 40 27.304569 40 26.200001C 40 25.09543 39.104568 24.200001 38 24.200001L 35.639999 24.200001C 34.535431 24.200001 33.639999 25.09543 33.639999 26.200001ZM 32.580002 20.68C 33.111607 20.683073 33.622562 20.474373 34 20.1L 35.68 18.42C 36.458721 17.635756 36.454247 16.368721 35.669998 15.59C 34.885757 14.811278 33.618721 14.815756 32.84 15.6L 31.16 17.26C 30.781374 17.635532 30.568403 18.146725 30.568403 18.68C 30.568403 19.213276 30.781374 19.724466 31.16 20.1C 31.537437 20.474373 32.048393 20.683073 32.580002 20.68ZM 25 33.059998C 28.766582 33.059998 31.82 30.006582 31.82 26.24C 31.82 22.473417 28.766582 19.419998 25 19.419998C 21.233418 19.419998 18.18 22.473417 18.18 26.24C 18.18 30.006582 21.233418 33.059998 25 33.059998ZM 45.66 32.799999C 45.906574 32.461311 46.332291 32.303635 46.739998 32.399998C 47.400764 32.52964 47.920288 33.04129 48.059998 33.699997C 48.283001 34.589779 49.082703 35.213791 50 35.213791C 50.917297 35.213791 51.716999 34.589779 51.939999 33.700001C 52.079708 33.04129 52.599232 32.52964 53.259998 32.400002C 53.667702 32.303635 54.093422 32.461311 54.339996 32.799999C 54.71711 33.437893 55.416012 33.814995 56.156212 33.779957C 56.896408 33.744919 57.556564 33.30349 57.871735 32.632828C 58.186909 31.962166 58.105427 31.172211 57.66 30.58C 56.550144 28.912327 54.546074 28.075983 52.580002 28.460001C 51.869946 28.590981 51.191246 28.855675 50.579998 29.24C 50.254131 29.461699 49.825867 29.461699 49.499996 29.24C 48.88726 28.858652 48.209137 28.594185 47.5 28.460001C 45.533928 28.075983 43.529858 28.912327 42.420002 30.58C 41.974571 31.172211 41.893093 31.962166 42.208263 32.632828C 42.523434 33.30349 43.183594 33.744919 43.92379 33.779957C 44.663986 33.814995 45.362888 33.437893 45.740002 32.799999ZM 55.740002 52.68C 52.48 53.119999 50.259998 49.68 50.240002 49.66C 49.877434 49.062283 49.229088 48.697254 48.529999 48.697254C 47.830914 48.697254 47.182564 49.062283 46.82 49.66C 45.645069 51.496391 43.639095 52.634109 41.459999 52.700001C 39.496613 52.648041 37.711174 51.549309 36.779999 49.82C 36.477036 49.184246 35.862034 48.754692 35.160847 48.689083C 34.45966 48.623474 33.775642 48.931484 33.360001 49.5C 31.895575 51.358879 29.719528 52.51944 27.360001 52.700001C 25.193132 52.591278 23.205414 51.463917 22 49.66C 21.656246 49.102333 21.061176 48.748371 20.407059 48.712475C 19.752943 48.676579 19.122713 48.963299 18.720001 49.48C 18.720001 49.48 15.7 53.220001 12.32 52.759998C 11.782529 52.668434 11.230972 52.800262 10.792994 53.124969C 10.355017 53.449677 10.068586 53.939117 10 54.48C 9.926122 55.008152 10.066234 55.543934 10.389206 55.968304C 10.712177 56.392673 11.191258 56.670483 11.72 56.740002C 12.086397 56.759903 12.453604 56.759903 12.82 56.740002C 15.258869 56.643353 17.595695 55.735371 19.459999 54.16C 19.821243 53.845814 20.358757 53.845814 20.719999 54.159996C 22.539242 55.747845 24.865414 56.634342 27.280001 56.66C 29.747948 56.624115 32.136276 55.781178 34.080002 54.260002C 34.447186 53.962128 34.972816 53.962128 35.34 54.259998C 37.006348 55.779949 39.184624 56.615551 41.440002 56.599998C 43.821289 56.664974 46.147556 55.877731 48 54.380001C 48.370781 54.071167 48.909218 54.071167 49.279999 54.380001C 51.20689 56.113457 53.785141 56.936459 56.360001 56.639999C 57.464344 56.496162 58.243084 55.484444 58.099514 54.380062C 57.955944 53.275684 56.944416 52.4967 55.84 52.639999Z"/>
      </g>
    </g>
  </g>
  <g id="g-root-ic_3_mg3b3t19u64nf-stroke-fill" data-item-order="-2304" transform="translate(194, 50)">
    <g id="ic_3_mg3b3t19u64nf-fill" stroke="none" fill="#b7b7b7">
      <g>
        <path d="M 28 24.360001C 28.721752 24.359955 29.372034 23.924076 29.646332 23.256475C 29.92063 22.588877 29.764637 21.821724 29.251406 21.314259C 28.738174 20.806793 27.969307 20.659481 27.30485 20.941303C 26.640394 21.223125 26.211889 21.878292 26.219999 22.599998C 26.230957 23.575247 27.024691 24.360062 28 24.360001ZM 16.880001 15C 16.880001 17.209139 18.67086 19 20.880001 19C 23.089138 19 24.880001 17.209139 24.880001 15C 24.880001 12.790861 23.089138 11 20.880001 11C 18.67086 11 16.880001 12.790861 16.880001 15M 34 10C 32.360344 9.995965 30.724768 10.163544 29.119999 10.5C 28.037388 10.720716 27.338852 11.777476 27.559999 12.86C 27.664608 13.397141 27.984741 13.867957 28.445795 14.16273C 28.906851 14.457502 29.468552 14.550482 30 14.42C 31.315359 14.142925 32.655777 14.002182 34 14C 42.063251 13.97693 49.351727 18.798119 52.485237 26.227634C 55.618744 33.65715 53.984333 42.241695 48.34 48C 46.700001 47.720001 45.02 47.299999 43.32 46.84C 44.17487 45.011768 44.53355 42.990753 44.360001 40.980003C 46.704075 39.627296 48.168633 37.145889 48.219997 34.439999C 48.220001 33.33543 47.32457 32.440002 46.220001 32.440002C 45.115429 32.440002 44.220001 33.33543 44.220001 34.440002C 44.20219 35.216049 43.96656 35.971451 43.540001 36.620003C 43.220001 35.419998 42.84 34.260002 42.48 33.120003L 42.119999 31.92C 44.51149 30.670141 46.068954 28.254173 46.219997 25.559999C 46.312733 24.468567 45.510262 23.505604 44.419998 23.4C 43.889103 23.350052 43.360245 23.514177 42.950905 23.855919C 42.541565 24.19766 42.285648 24.688717 42.240002 25.220001C 42.179909 26.202318 41.759789 27.128008 41.059998 27.82C 40.7645 26.550613 40.847946 25.22242 41.299999 24C 41.67411 23.004337 41.203484 21.890034 40.228912 21.463991C 39.254341 21.037949 38.116791 21.449224 37.639999 22.4C 36.908993 24.241898 36.721584 26.25481 37.099998 28.199999C 36.445847 27.800331 35.961723 27.17382 35.739998 26.440001C 35.28162 25.566456 34.254753 25.157619 33.3214 25.477057C 32.388046 25.796494 31.827019 26.748779 32 27.719999C 32.892586 30.435949 35.347054 32.336185 38.200001 32.52C 38.360001 33.059998 38.540001 33.580002 38.700001 34.099998C 39.099998 35.360001 39.5 36.599998 39.799999 37.799999C 38.84491 37.502945 38.097054 36.755089 37.799999 35.799999C 37.380127 34.778484 36.211731 34.290665 35.19014 34.710342C 34.168549 35.130024 33.680508 36.298332 34.099998 37.32C 35.06134 40.001228 37.535843 41.845284 40.379997 42C 40.403378 43.169804 40.128036 44.326244 39.580002 45.360001C 39.517971 45.496532 39.464535 45.636806 39.419998 45.780003C 36.093266 44.752998 32.655403 44.128544 29.18 43.920002C 29.197414 42.502087 29.056543 41.086662 28.76 39.699997C 30.880186 38.327324 32.194813 36.004318 32.279999 33.48C 32.312798 32.949333 32.13295 32.427444 31.780184 32.029648C 31.427422 31.631851 30.930782 31.390888 30.4 31.360001C 29.302057 31.291445 28.354868 32.122467 28.280001 33.220001C 28.24877 34.083649 27.94805 34.915871 27.42 35.599998L 27.120001 34.879997C 26.442898 33.656944 26.098114 32.277805 26.120001 30.879999C 26.211565 30.342529 26.079739 29.790972 25.755032 29.352995C 25.430323 28.915016 24.940884 28.628586 24.4 28.559999C 23.306942 28.418135 22.305145 29.18737 22.16 30.280001C 22.0156 32.360458 22.459148 34.439598 23.440001 36.279999C 23.434967 36.366592 23.434967 36.453407 23.439999 36.540001C 22.623711 36.18882 21.997379 35.504219 21.719999 34.659996C 21.481285 33.96463 20.880299 33.456291 20.154964 33.336231C 19.429628 33.216171 18.696899 33.503746 18.246855 34.085114C 17.79681 34.666481 17.702015 35.447891 18 36.120003C 19.012573 38.895164 21.645908 40.746483 24.6 40.760002L 24.82 40.760002C 25.004536 41.762573 25.091606 42.780651 25.08 43.799999C 25.08 43.799999 25.08 43.939999 25.08 44.02C 22.690701 44.402531 20.396339 45.237461 18.32 46.480003C 13.008425 39.901199 12.407887 30.692955 16.82 23.48C 17.378105 22.588867 17.150873 21.417751 16.299999 20.799999C 15.849375 20.517958 15.305004 20.426926 14.787132 20.54701C 14.269262 20.667095 13.820509 20.988419 13.54 21.439999C 7.823988 30.747215 9.113228 42.74012 16.67683 50.619774C 24.240435 58.499428 36.170555 60.278259 45.703835 54.947819C 55.237118 49.617382 59.96888 38.522232 57.216625 27.952364C 54.464367 17.382496 44.922318 10.004063 34 10Z"/>
      </g>
    </g>
  </g>
  <g id="g-root-ic_wave_1d2durd19u7i18-stroke-fill" data-item-order="-2304" transform="translate(362, 146)">
    <g id="ic_wave_1d2durd19u7i18-fill" stroke="none" fill="#b7b7b7">
      <g>
        <path d="M 56 40.5C 53.979698 40.504143 52.117325 39.40818 51.139999 37.639999C 50.833977 37.008232 50.219135 36.58316 49.52 36.52C 48.821171 36.452232 48.137985 36.755871 47.720001 37.32C 46.26162 39.183098 44.080532 40.339073 41.720001 40.5C 40.615433 40.5 39.720001 41.395432 39.720001 42.5C 39.720001 43.604568 40.615433 44.5 41.720001 44.5C 44.326202 44.464397 46.840588 43.532097 48.84 41.860001C 49.028751 41.694176 49.311245 41.694176 49.5 41.860001C 51.235336 43.56031 53.570518 44.508751 56 44.5C 57.104568 44.5 58 43.604568 58 42.5C 58 41.395432 57.104568 40.5 56 40.5ZM 18.200001 44.52C 19.952579 44.351395 21.6661 45.109592 22.720001 46.52C 23.607544 47.647606 24.912981 48.368843 26.34 48.52C 27.778614 48.370396 29.097078 47.649921 30 46.52C 30.860453 45.371113 32.169952 44.643616 33.599998 44.52C 33.822952 44.49081 33.992126 44.304718 34 44.080002L 34 40C 34 39.723858 34.223858 39.5 34.5 39.5L 37 39.5C 37.416874 39.495888 37.787457 39.233585 37.929928 38.841789C 38.072395 38.449997 37.95686 38.010925 37.639999 37.739998L 24.639999 26.74C 24.272259 26.422878 23.727741 26.422878 23.360001 26.74L 10.36 37.739998C 10.04314 38.010925 9.927603 38.449997 10.070073 38.841789C 10.212543 39.233585 10.583127 39.495888 11 39.5L 13.5 39.5C 13.776142 39.5 14 39.723858 14 40L 14 46C 14.002653 46.204315 14.12936 46.386459 14.32 46.459999C 14.517476 46.536674 14.741838 46.480583 14.88 46.32C 15.695755 45.293385 16.894564 44.643429 18.200001 44.52ZM 58 53.5C 58 52.395432 57.104568 51.5 56 51.5C 53.979698 51.504143 52.117325 50.40818 51.139999 48.639999C 50.833977 48.008236 50.219135 47.58316 49.52 47.52C 48.821171 47.452232 48.137985 47.755871 47.720001 48.32C 46.26162 50.183098 44.080532 51.339073 41.720001 51.5C 39.358757 51.34156 37.176716 50.185081 35.719997 48.319996C 35.342339 47.803173 34.740108 47.498341 34.099998 47.5C 33.459892 47.498341 32.857662 47.803173 32.48 48.32C 31.023281 50.185081 28.84124 51.34156 26.48 51.499996C 24.119469 51.339073 21.938385 50.183098 20.48 48.32C 20.064358 47.751484 19.380341 47.443474 18.679153 47.509083C 17.977966 47.574692 17.362963 48.004246 17.059999 48.639999C 16.059483 50.482964 14.094954 51.593349 12 51.5C 10.895431 51.5 10 52.395432 10 53.5C 10 54.604568 10.895431 55.5 12 55.5C 14.444521 55.535301 16.803402 54.60038 18.559999 52.899998C 18.748753 52.734177 19.031246 52.734177 19.220001 52.900002C 21.21941 54.572098 23.733797 55.504398 26.34 55.539997C 29.042009 55.491631 31.640676 54.493233 33.68 52.720001C 33.862206 52.557026 34.137791 52.557026 34.32 52.719997C 36.359322 54.493233 38.957993 55.491631 41.66 55.540001C 44.266201 55.504398 46.780586 54.572098 48.779999 52.899998C 48.968754 52.734177 49.251247 52.734177 49.439999 52.900002C 51.196594 54.60038 53.555477 55.535301 56 55.5C 57.104568 55.5 58 54.604568 58 53.5ZM 31.459999 23.66C 31.966837 23.556244 32.482658 23.502651 33 23.5C 36.865997 23.5 40 26.634007 40 30.5C 40.006325 31.575487 39.759689 32.637394 39.279999 33.599998C 39.037861 34.076805 38.996758 34.630722 39.165863 35.138046C 39.334969 35.64537 39.700203 36.063839 40.18 36.299999C 40.454266 36.432838 40.75526 36.501247 41.059998 36.5C 41.820313 36.505291 42.517868 36.07901 42.860001 35.400002C 44.545441 31.987494 44.35067 27.946833 42.344822 24.712255C 40.338978 21.477676 36.80603 19.507107 33 19.5C 32.859535 19.495415 32.734581 19.409508 32.68 19.279999C 32.633797 19.140709 32.682182 18.987495 32.799999 18.9C 34.877155 17.342134 37.403557 16.5 40 16.5C 47.731987 16.5 54.000004 22.768013 54.000004 30.5C 54 31.60457 54.895432 32.5 56 32.5C 57.104568 32.5 58 31.60457 58 30.5C 58 20.558874 49.941124 12.5 40 12.5C 35.416946 12.485553 31.047724 14.437139 28 17.860001C 26.984541 19.009079 26.824385 20.681307 27.603279 22.002239C 28.382174 23.32317 29.922989 23.992413 31.42 23.66Z"/>
      </g>
    </g>
  </g>
  <g id="g-root-ic_land_htel1519uab65-stroke-fill" data-item-order="-2304" transform="translate(362, 74)">
    <g id="ic_land_htel1519uab65-fill" stroke="none" fill="#b7b7b7">
      <g>
        <path d="M 39.34 45.48C 38.200001 45.220001 37.34 44.98 36.620003 44.740002C 35.930405 44.453152 35.138439 44.57444 34.566299 45.05452C 33.994156 45.534599 33.737183 46.293472 33.899925 47.022404C 34.062668 47.751331 34.618 48.32885 35.34 48.52C 36.200001 48.82 37.16 49.080002 38.400002 49.380001C 39.504688 49.63987 40.61084 48.954857 40.870457 47.850105C 41.130074 46.745358 40.444809 45.639362 39.34 45.380001ZM 29.799999 38.599998C 29.302874 37.611542 28.098612 37.213181 27.1101 37.710197C 26.121588 38.207214 25.723091 39.41143 26.219999 40.400002C 26.730415 41.402504 27.325933 42.359348 28 43.259998C 28.377584 43.750492 28.961006 44.038513 29.58 44.040001C 30.019575 44.044369 30.448345 43.903786 30.799999 43.639999C 31.677126 42.971149 31.847139 41.71843 31.18 40.84C 30.650705 40.138309 30.188665 39.388332 29.800001 38.599998ZM 50.419998 49.580002C 49.505177 48.816978 48.480263 48.19664 47.380001 47.740002C 46.718784 47.408417 45.928551 47.468861 45.325459 47.897148C 44.722366 48.325436 44.404907 49.05162 44.500095 49.785168C 44.59528 50.518715 45.08757 51.139824 45.779999 51.400002C 46.500099 51.720188 47.173004 52.13739 47.780003 52.639999C 48.625004 53.352333 49.887463 53.244835 50.599869 52.399891C 51.312275 51.554943 51.204884 50.292477 50.359997 49.579998ZM 16.940001 36.68C 16.780704 36.301857 16.410326 36.055977 16 36.055977C 15.589674 36.055977 15.219296 36.301857 15.059999 36.68L 10 51.68C 9.886637 51.981148 9.931692 52.319069 10.12 52.579998C 10.313031 52.840034 10.616182 52.995304 10.94 52.999996L 12.940001 53C 13.21545 52.983444 13.485499 53.081444 13.686222 53.270805C 13.886945 53.460167 14.000498 53.724052 14 54L 14 56C 14 57.104568 14.895431 58 16 58C 17.104568 58 18 57.104568 18 56L 18 54C 18 53.447716 18.447716 53 19 53L 21 53C 21.323818 52.995304 21.626968 52.840034 21.82 52.579998C 22.028812 52.329967 22.096584 51.991108 22 51.679996ZM 10 10M 58 37.68L 53 22.68C 52.840706 22.301857 52.470325 22.055981 52.059998 22.055981C 51.649673 22.055981 51.279293 22.301857 51.119999 22.68L 46 37.68C 45.886635 37.981148 45.93169 38.319069 46.119999 38.579998C 46.31303 38.840034 46.61618 38.995308 46.939999 39L 48.939999 39C 49.492283 39 49.939999 39.447716 49.939999 40L 49.939999 42C 49.939999 43.104568 50.83543 44 51.939999 44C 53.044571 44 53.939999 43.104568 53.939999 42L 53.939999 40C 53.939999 39.447716 54.387714 39 54.939999 39L 56.939999 39C 57.263813 38.995308 57.566967 38.840034 57.759998 38.579998C 57.989925 38.341503 58.080643 38.001312 57.999996 37.68ZM 42.360001 29.120001C 42.721416 29.12067 43.059216 28.940512 43.260002 28.640001C 43.420273 28.325933 43.420273 27.954069 43.260002 27.640001L 38.959999 17.639999C 38.318642 16.213135 36.904343 15.291101 35.34 15.280001C 33.925972 15.518457 32.697029 16.38681 32 17.639999L 30.280001 20.1C 30.186508 20.237759 30.025877 20.314251 29.860001 20.299999C 29.636309 20.342476 29.415199 20.214912 29.34 20L 25.439999 13.02C 24.24 11.16 23.34 10.1 21.76 10C 20.011131 9.955031 18.417545 10.99883 17.76 12.62L 10.62 27.6C 10.44933 27.918583 10.44933 28.301418 10.62 28.620001C 10.818673 28.925442 11.155704 29.11268 11.52 29.120001ZM 24.139999 18.6C 24.015202 18.799988 23.795731 18.921078 23.559999 18.92L 19.380001 18.92C 19.145237 18.917347 18.927437 18.797184 18.799999 18.6C 18.699974 18.398392 18.699974 18.16161 18.799999 17.959999L 20.42 14.16C 20.620014 13.79458 21.003422 13.567357 21.42 13.567357C 21.836578 13.567357 22.219986 13.79458 22.42 14.16L 24.18 18C 24.257626 18.195831 24.242935 18.416206 24.139999 18.6Z"/>
      </g>
    </g>
  </g>
  <g id="g-root-tx_consiste_95a119ud5am-stroke-fill" data-item-order="0" transform="translate(74, 122)">
    <g id="tx_consiste_95a119ud5am-fill" stroke="none" fill="#f4f4f4">
      <g>
        <text style="font: 20px Roboto, sans-serif; white-space: pre;" font-size="20px" font-family="Roboto, sans-serif">
          <tspan x="20.28" y="34" dominant-baseline="ideographic">Consistent </tspan>
          <tspan x="35.23" y="58" dominant-baseline="ideographic">Narrative</tspan>
        </text>
      </g>
    </g>
  </g>
  <g id="g-root-tx_limitede_1lqj5yx19ud3in-stroke-fill" data-item-order="0" transform="translate(26, 62)">
    <g id="tx_limitede_1lqj5yx19ud3in-fill" stroke="none" fill="#f4f4f4">
      <g>
        <text style="font: 20px Roboto, sans-serif; white-space: pre;" font-size="20px" font-family="Roboto, sans-serif">
          <tspan x="12.91" y="34" dominant-baseline="ideographic">Limited Evidence</tspan>
        </text>
      </g>
    </g>
  </g>
  <g id="g-root-tx_inconsis_1cuw5q119ud534-stroke-fill" data-item-order="0" transform="translate(422, 146)">
    <g id="tx_inconsis_1cuw5q119ud534-fill" stroke="none" fill="#f4f4f4">
      <g>
        <text style="font: 20px Roboto, sans-serif; white-space: pre;" font-size="20px" font-family="Roboto, sans-serif">
          <tspan x="12" y="34" dominant-baseline="ideographic">Inconsistent </tspan>
          <tspan x="12" y="58" dominant-baseline="ideographic">Accounts</tspan>
        </text>
      </g>
    </g>
  </g>
  <g id="g-root-tx_suggesti_13zvmk919ud2q1-stroke-fill" data-item-order="0" transform="translate(422, 74)">
    <g id="tx_suggesti_13zvmk919ud2q1-fill" stroke="none" fill="#f4f4f4">
      <g>
        <text style="font: 20px Roboto, sans-serif; white-space: pre;" font-size="20px" font-family="Roboto, sans-serif">
          <tspan x="12" y="34" dominant-baseline="ideographic">Suggestive </tspan>
          <tspan x="12" y="58" dominant-baseline="ideographic">Anecdotes</tspan>
        </text>
      </g>
    </g>
  </g>
  <g id="g-root-tx_official_zk24ft19ud3ia-stroke-fill" data-item-order="0" transform="translate(38, 266)">
    <g id="tx_official_zk24ft19ud3ia-fill" stroke="none" fill="#f4f4f4">
      <g>
        <text style="font: 20px Roboto, sans-serif; white-space: pre;" font-size="20px" font-family="Roboto, sans-serif">
          <tspan x="15.38" y="34" dominant-baseline="ideographic">Official Explanations</tspan>
        </text>
      </g>
    </g>
  </g>
  <g id="g-root-tx_alternat_qof46x19ud4az-stroke-fill" data-item-order="0" transform="translate(374, 290)">
    <g id="tx_alternat_qof46x19ud4az-fill" stroke="none" fill="#f4f4f4">
      <g>
        <text style="font: 20px Roboto, sans-serif; white-space: pre;" font-size="20px" font-family="Roboto, sans-serif">
          <tspan x="17.28" y="34" dominant-baseline="ideographic">Alternative Theories</tspan>
        </text>
      </g>
    </g>
  </g>
  <g id="g-root-tx_evaluati_ddl2wp19ud2q4-stroke-fill" data-item-order="0" transform="translate(26, 350)">
    <g id="tx_evaluati_ddl2wp19ud2q4-fill" stroke="none" fill="#f4f4f4">
      <g>
        <text style="font: 20px Roboto, sans-serif; white-space: pre;" font-size="20px" font-family="Roboto, sans-serif">
          <tspan x="15.67" y="34" dominant-baseline="ideographic">Evaluating Official vs. Alternative Theories in Kinross Incident</tspan>
        </text>
      </g>
    </g>
  </g>
</svg>
