<?xml version='1.0' encoding='utf-8'?>
<svg xmlns="http://www.w3.org/2000/svg" xmlns:xlink="http://www.w3.org/1999/xlink" width="816" height="552" viewBox="0 0 816 552" style="fill:none;stroke:none;fill-rule:evenodd;clip-rule:evenodd;stroke-linecap:round;stroke-linejoin:round;stroke-miterlimit:1.5;" version="1.1">
  <style class="text-font-style fontImports" data-font-family="Roboto">@import url('https://fonts.googleapis.com/css2?family=Roboto:wght@400;700&amp;display=block');</style>
  <rect x="0" y="0" width="816" height="552" fill="#252a34" stroke="none" id="programmatic_background"/>
  <g id="g-root-tf_1q7l34a1a4cq2v-stroke-fill" data-item-order="-411840" transform="translate(18, 12)">
    <g id="tf_1q7l34a1a4cq2v-fill" stroke="none" fill="#2c2c2c">
      <g>
        <path d="M 0 0L 780 0L 780 528L 0 528Z"/>
      </g>
    </g>
    <defs>
      <pattern id="crawlingPattern-0060fb20" x="0" y="0" width="12" height="12" patternUnits="userSpaceOnUse" fill="#0060fb20">
        <use href="#crawlingSymbol"/>
      </pattern>
      <symbol id="crawlingSymbol">
        <g>
          <path d="M -12.5 12.5 l 13 -13 l 6 0 l -13 13 Z M -0.5 12.5 l 13 -13 l 6 0 l -13 13 Z M 11.5 12.5 l 13 -13 l 6 0 l -13 13 Z"/>
        </g>
      </symbol>
      <pattern id="crawlingPattern-f908001a" x="0" y="0" width="12" height="12" patternUnits="userSpaceOnUse" fill="#f908001a">
        <use href="#crawlingSymbol"/>
      </pattern>
      <pattern id="crawlingPattern-00d16d21" x="0" y="0" width="12" height="12" patternUnits="userSpaceOnUse" fill="#00d16d21">
        <use href="#crawlingSymbol"/>
      </pattern>
      <pattern id="crawlingPattern-0000001b" x="0" y="0" width="12" height="12" patternUnits="userSpaceOnUse" fill="#0000001b">
        <use href="#crawlingSymbol"/>
      </pattern>
      <pattern id="crawlingPattern-f9080081" x="0" y="0" width="12" height="12" patternUnits="userSpaceOnUse" fill="#f9080081">
        <use href="#crawlingSymbol"/>
      </pattern>
      <pattern id="crawlingPattern-ff0b0038" x="0" y="0" width="12" height="12" patternUnits="userSpaceOnUse" fill="#ff0b0038">
        <use href="#crawlingSymbol"/>
      </pattern>
      <pattern id="crawlingPattern-0060fba2" x="0" y="0" width="12" height="12" patternUnits="userSpaceOnUse" fill="#0060fba2">
        <use href="#crawlingSymbol"/>
      </pattern>
      <pattern id="crawlingPattern-0059ff37" x="0" y="0" width="12" height="12" patternUnits="userSpaceOnUse" fill="#0059ff37">
        <use href="#crawlingSymbol"/>
      </pattern>
      <pattern id="crawlingPattern-00b15c75" x="0" y="0" width="12" height="12" patternUnits="userSpaceOnUse" fill="#00b15c75">
        <use href="#crawlingSymbol"/>
      </pattern>
      <pattern id="crawlingPattern-00ff873a" x="0" y="0" width="12" height="12" patternUnits="userSpaceOnUse" fill="#00ff873a">
        <use href="#crawlingSymbol"/>
      </pattern>
      <pattern id="crawlingPattern-5f5f5f1a" x="0" y="0" width="12" height="12" patternUnits="userSpaceOnUse" fill="#5f5f5f1a">
        <use href="#crawlingSymbol"/>
      </pattern>
    </defs>
  </g>
  <g id="g-root-cp_0_g-0_qq9x561a41gjo-stroke-fill" data-item-order="-248805" transform="translate(56.130859375, 248.5)">
    <g id="cp_0_g-0_qq9x561a41gjo-stroke" fill="none" stroke-linecap="round" stroke-linejoin="round" stroke-miterlimit="4" stroke="#f4f4f4" stroke-width="2">
      <g>
        <path d="M 106 51L 262 51M 286 51L 442 51M 274 63.5L 274 93M 454 10L 454 39.5M 465.869141 51.5L 537.869141 51.5M 10 51L 82 51M 94 10L 94 39.5"/>
      </g>
    </g>
  </g>
  <g id="g-root-cp_1_g-1_deteru1a41i4m-stroke-fill" data-item-order="-248790" transform="translate(95.1309814453125, 125)">
    <g id="cp_1_g-1_deteru1a41i4m-fill" stroke="none" fill="#4f91fc">
      <g>
        <path d="M 100 55C 100 66.244 94.5 77.5875 89 86L 55.816 132.848C 55.4175 133.411 54.5825 133.411 54.184 132.848L 21 86C 14.5 77 10 66.7284 10 55C 10 30.1472 30.1472 10 55 10C 79.8528 10 100 30.1472 100 55ZM 55 91C 74.8822 91 91 74.8822 91 55C 91 35.1177 74.8822 19 55 19C 35.1177 19 19 35.1177 19 55C 19 74.8822 35.1177 91 55 91Z"/>
      </g>
    </g>
    <g id="cp_1_g-1_deteru1a41i4m-stroke" fill="none" stroke-linecap="round" stroke-linejoin="round" stroke-miterlimit="4" stroke="#2c2c2c" stroke-width="2">
      <g>
        <path d="M 100 55C 100 66.244 94.5 77.5875 89 86L 55.816 132.848C 55.4175 133.4106 54.5825 133.4106 54.184 132.848L 21 86C 14.5 77 10 66.7284 10 55C 10 30.1472 30.1472 10 55 10C 79.8528 10 100 30.1472 100 55ZM 55 91C 74.8822 91 91 74.8822 91 55C 91 35.1177 74.8822 19 55 19C 35.1177 19 19 35.1177 19 55C 19 74.8822 35.1177 91 55 91Z"/>
      </g>
    </g>
    <g id="cp_1_g-1_deteru1a41i4m-fill" stroke="none" fill="#4f91fc">
      <g>
        <path d="M 55 187C 61.6274 187 67 181.6274 67 175C 67 168.3726 61.6274 163 55 163C 48.3726 163 43 168.3726 43 175C 43 181.6274 48.3726 187 55 187ZM 55 181C 58.3137 181 61 178.3137 61 175C 61 171.6863 58.3137 169 55 169C 51.6863 169 49 171.6863 49 175C 49 178.3137 51.6863 181 55 181Z"/>
      </g>
    </g>
    <g id="cp_1_g-1_deteru1a41i4m-stroke" fill="none" stroke-linecap="round" stroke-linejoin="round" stroke-miterlimit="4" stroke="#2c2c2c" stroke-width="2">
      <g>
        <path d="M 55 187C 61.6274 187 67 181.6274 67 175C 67 168.3726 61.6274 163 55 163C 48.3726 163 43 168.3726 43 175C 43 181.6274 48.3726 187 55 187ZM 55 181C 58.3137 181 61 178.3137 61 175C 61 171.6863 58.3137 169 55 169C 51.6863 169 49 171.6863 49 175C 49 178.3137 51.6863 181 55 181Z"/>
      </g>
    </g>
  </g>
  <g id="g-root-cp_2_g-2_8zmdqi1a41fr5-stroke-fill" data-item-order="-248786" transform="translate(275.1309814453125, 278)">
    <g id="cp_2_g-2_8zmdqi1a41fr5-fill" stroke="none" fill="#fb6762">
      <g>
        <path d="M 100 142.000369C 100 130.756469 94.5 119.412869 89 111.000369L 55.816 64.152469C 55.4175 63.589769 54.5825 63.589769 54.184 64.152469L 21 111.000369C 14.5 120.000369 10 130.271969 10 142.000369C 10 166.853469 30.1472 187.000469 55 187.000469C 79.8528 187.000469 100 166.853469 100 142.000369ZM 55 106.000369C 74.8822 106.000369 91 122.118169 91 142.000369C 91 161.882669 74.8822 178.000469 55 178.000469C 35.1177 178.000469 19 161.882669 19 142.000369C 19 122.118169 35.1177 106.000369 55 106.000369Z"/>
      </g>
    </g>
    <g id="cp_2_g-2_8zmdqi1a41fr5-stroke" fill="none" stroke-linecap="round" stroke-linejoin="round" stroke-miterlimit="4" stroke="#2c2c2c" stroke-width="2">
      <g>
        <path d="M 100 142.000369C 100 130.756469 94.5 119.412869 89 111.000369L 55.816 64.152469C 55.4175 63.589769 54.5825 63.589769 54.184 64.152469L 21 111.000369C 14.5 120.000369 10 130.271969 10 142.000369C 10 166.853269 30.1472 187.000369 55 187.000369C 79.8528 187.000369 100 166.853269 100 142.000369ZM 55 106.000369C 74.8822 106.000369 91 122.118169 91 142.000369C 91 161.882669 74.8822 178.000369 55 178.000369C 35.1177 178.000369 19 161.882669 19 142.000369C 19 122.118169 35.1177 106.000369 55 106.000369Z"/>
      </g>
    </g>
    <g id="cp_2_g-2_8zmdqi1a41fr5-fill" stroke="none" fill="#fb6762">
      <g>
        <path d="M 55 34C 61.6274 34 67 28.6274 67 22C 67 15.3726 61.6274 10 55 10C 48.3726 10 43 15.3726 43 22C 43 28.6274 48.3726 34 55 34ZM 55 28C 58.3137 28 61 25.3137 61 22C 61 18.6863 58.3137 16 55 16C 51.6863 16 49 18.6863 49 22C 49 25.3137 51.6863 28 55 28Z"/>
      </g>
    </g>
    <g id="cp_2_g-2_8zmdqi1a41fr5-stroke" fill="none" stroke-linecap="round" stroke-linejoin="round" stroke-miterlimit="4" stroke="#2c2c2c" stroke-width="2">
      <g>
        <path d="M 55 34C 61.6274 34 67 28.6274 67 22C 67 15.3726 61.6274 10 55 10C 48.3726 10 43 15.3726 43 22C 43 28.6274 48.3726 34 55 34ZM 55 28C 58.3137 28 61 25.3137 61 22C 61 18.6863 58.3137 16 55 16C 51.6863 16 49 18.6863 49 22C 49 25.3137 51.6863 28 55 28Z"/>
      </g>
    </g>
  </g>
  <g id="g-root-cp_3_g-3_3zdhm1a41gjw-stroke-fill" data-item-order="-248780" transform="translate(455.1310119628906, 125)">
    <g id="cp_3_g-3_3zdhm1a41gjw-fill" stroke="none" fill="#43dd93">
      <g>
        <path d="M 100 55C 100 66.244 94.5 77.5875 89 86L 55.816 132.848C 55.4175 133.411 54.5825 133.411 54.184 132.848L 21 86C 14.5 77 10 66.7284 10 55C 10 30.1472 30.1472 10 55 10C 79.8528 10 100 30.1472 100 55ZM 55 91C 74.8822 91 91 74.8822 91 55C 91 35.1177 74.8822 19 55 19C 35.1177 19 19 35.1177 19 55C 19 74.8822 35.1177 91 55 91Z"/>
      </g>
    </g>
    <g id="cp_3_g-3_3zdhm1a41gjw-stroke" fill="none" stroke-linecap="round" stroke-linejoin="round" stroke-miterlimit="4" stroke="#2c2c2c" stroke-width="2">
      <g>
        <path d="M 100 55C 100 66.244 94.5 77.5875 89 86L 55.816 132.848C 55.4175 133.4106 54.5825 133.4106 54.184 132.848L 21 86C 14.5 77 10 66.7284 10 55C 10 30.1472 30.1472 10 55 10C 79.8528 10 100 30.1472 100 55ZM 55 91C 74.8822 91 91 74.8822 91 55C 91 35.1177 74.8822 19 55 19C 35.1177 19 19 35.1177 19 55C 19 74.8822 35.1177 91 55 91Z"/>
      </g>
    </g>
    <g id="cp_3_g-3_3zdhm1a41gjw-fill" stroke="none" fill="#43dd93">
      <g>
        <path d="M 55 187C 61.6274 187 67 181.6274 67 175C 67 168.3726 61.6274 163 55 163C 48.3726 163 43 168.3726 43 175C 43 181.6274 48.3726 187 55 187ZM 55 181C 58.3137 181 61 178.3137 61 175C 61 171.6863 58.3137 169 55 169C 51.6863 169 49 171.6863 49 175C 49 178.3137 51.6863 181 55 181Z"/>
      </g>
    </g>
    <g id="cp_3_g-3_3zdhm1a41gjw-stroke" fill="none" stroke-linecap="round" stroke-linejoin="round" stroke-miterlimit="4" stroke="#2c2c2c" stroke-width="2">
      <g>
        <path d="M 55 187C 61.6274 187 67 181.6274 67 175C 67 168.3726 61.6274 163 55 163C 48.3726 163 43 168.3726 43 175C 43 181.6274 48.3726 187 55 187ZM 55 181C 58.3137 181 61 178.3137 61 175C 61 171.6863 58.3137 169 55 169C 51.6863 169 49 171.6863 49 175C 49 178.3137 51.6863 181 55 181Z"/>
      </g>
    </g>
  </g>
  <g id="g-root-ic_fema_1cymdxm1a41gcg-stroke-fill" data-item-order="-2304" transform="translate(296.1310119628906, 386.0000305175781)">
    <g id="ic_fema_1cymdxm1a41gcg-fill" stroke="none" fill="#fb6762">
      <g>
        <path d="M 18.967995 15.199996L 15.007997 11.239999C 14.163998 10.398 13.005998 10.348 12.127998 10.73C 11.249999 11.11 10.5 11.979999 10.5 13.145998L 10.5 25.745991C 10.5 33.519985 16.767996 39.545979 24.49999 39.545979C 32.241985 39.545979 38.499981 33.309982 38.499981 25.745991L 38.499981 13.145998C 38.499981 11.981998 37.747982 11.11 36.873981 10.73C 35.993984 10.348 34.833984 10.398 33.993984 11.239999L 30.027987 15.199996C 28.535988 14.185997 26.443989 13.745997 24.497992 13.745997C 22.551992 13.745997 20.457993 14.185997 18.965994 15.201997ZM 21.231993 30.643986C 21.380077 30.347046 21.640148 30.121168 21.954901 30.016125C 22.269651 29.911083 22.613255 29.935495 22.909992 30.083986L 24.73999 30.997986L 26.567989 30.083986C 27.185442 29.774706 27.936708 30.024532 28.245989 30.641987C 28.555267 31.259439 28.305443 32.010704 27.687988 32.319984L 25.297991 33.513985C 24.946091 33.689926 24.531891 33.689926 24.179991 33.513985L 21.791992 32.319984C 21.174757 32.01162 20.924107 31.261461 21.231993 30.643988ZM 16.079996 22.733992C 15.396268 22.831745 14.921243 23.465261 15.018997 24.148991C 15.116751 24.832718 15.750268 25.307743 16.433996 25.20999C 16.739996 25.165991 17.353994 25.127991 18.017994 25.22999C 18.687994 25.331989 19.291994 25.557989 19.715994 25.94199C 20.229557 26.382259 21.000177 26.334105 21.454937 25.833328C 21.909697 25.33255 21.883575 24.560869 21.395992 24.091991C 20.475992 23.255991 19.335995 22.901993 18.395994 22.757992C 17.628937 22.641472 16.849304 22.633392 16.079996 22.733992ZM 33.985985 24.147991C 34.083508 23.464874 33.609039 22.831953 32.925987 22.733992C 32.155365 22.632988 31.374355 22.641068 30.605988 22.757992C 29.665987 22.901993 28.525988 23.257992 27.607988 24.091991C 27.120405 24.560869 27.094284 25.33255 27.549046 25.833328C 28.003805 26.334105 28.774426 26.382259 29.287987 25.94199C 29.711987 25.557989 30.313986 25.331989 30.985987 25.22999C 31.649986 25.127991 32.263985 25.165991 32.569984 25.20999C 32.898354 25.257399 33.232101 25.172319 33.4977 24.973495C 33.763298 24.774672 33.938961 24.478416 33.985985 24.149992ZM 51.779972 33.657986C 51.19902 33.093021 50.274376 33.091621 49.691715 33.654823C 49.109055 34.218025 49.07906 35.142185 49.623974 35.741985L 51.449974 37.631981L 48.999973 40.079979C 45.583977 37.679981 40.867981 37.707981 37.483982 40.16198L 35.759983 38.439983C 35.168964 37.889263 34.247963 37.905514 33.676739 38.476738C 33.105518 39.047962 33.089268 39.96896 33.639984 40.559982L 36.331982 43.253979L 36.339981 43.259975L 36.345982 43.267979L 48.127972 55.049969L 48.139973 55.059971L 48.149975 55.069969L 50.639973 57.559971C 51.230995 58.110691 52.151993 58.09444 52.723221 57.523216C 53.294445 56.951992 53.310692 56.030991 52.759975 55.439972L 51.237972 53.91597C 53.747971 50.455975 53.719971 45.599976 51.151974 42.169975L 53.531975 39.789982L 55.42197 41.741982C 56.002926 42.306942 56.927567 42.308346 57.510231 41.745144C 58.092892 41.181938 58.122887 40.257782 57.577972 39.657982L 55.653969 37.66798L 57.559971 35.759983C 57.961277 35.386044 58.126469 34.822872 57.990742 34.291409C 57.855015 33.759941 57.440014 33.34494 56.908546 33.209217C 56.377083 33.07349 55.813911 33.238682 55.439972 33.639984L 53.569973 35.509983L 51.777973 33.657986ZM 49.079975 51.755974L 39.645981 42.323978C 42.275978 40.69598 45.889977 41.009979 48.141972 43.259975C 50.391972 45.511978 50.705975 49.125973 49.077972 51.755974ZM 44.573978 54.91597C 42.338581 55.263657 40.070766 54.530472 38.461983 52.939976C 36.871037 51.331394 36.137146 49.063671 36.483982 46.827976C 36.581722 46.291092 36.380173 45.743484 35.957703 45.398067C 35.535229 45.052647 34.958492 44.963917 34.451733 45.166378C 33.944969 45.368839 33.588142 45.830544 33.519985 46.371979C 33.027546 49.551426 34.074135 52.775818 36.339981 55.059967C 38.624207 57.327156 41.849541 58.374554 45.029976 57.881969C 45.82925 57.736465 46.367413 56.981098 46.243881 56.178139C 46.12035 55.375179 45.380024 54.816502 44.573978 54.917973Z"/>
      </g>
    </g>
  </g>
  <g id="g-root-ic_ufo_1hefz7u1a473m2-stroke-fill" data-item-order="-2304" transform="translate(116.1309814453125, 146)">
    <g id="ic_ufo_1hefz7u1a473m2-fill" stroke="none" fill="#4f91fc">
      <g>
        <path d="M 50.779999 39.48C 50.49268 38.408726 49.391396 37.77314 48.32008 38.060295C 47.24876 38.34745 46.613007 39.448639 46.899998 40.519997L 51.139999 56.52C 51.30584 57.231823 51.846767 57.796497 52.550816 57.992748C 53.25486 58.188999 54.009895 57.985573 54.520046 57.462177C 55.030201 56.938786 55.214222 56.178791 55 55.48ZM 19.82 38C 18.754391 37.720551 17.663445 38.355446 17.380001 39.419998L 13.14 55.419998C 12.925778 56.11879 13.109798 56.878784 13.619952 57.40218C 14.130106 57.925571 14.885139 58.129002 15.589186 57.932751C 16.293234 57.7365 16.83416 57.171825 17 56.459999L 21.24 40.459999C 21.380281 39.945396 21.309196 39.39608 21.042547 38.934139C 20.775898 38.472198 20.335775 38.135902 19.82 38ZM 38 49.860001C 39.203453 49.748383 40.123898 48.738621 40.123898 47.529999C 40.123898 46.321381 39.203453 45.311615 38 45.200001L 31.08 45.200001C 29.876545 45.311615 28.9561 46.321381 28.9561 47.529999C 28.9561 48.738621 29.876545 49.748383 31.08 49.860001L 32.239998 49.860001L 32.239998 50.18L 29.200001 54.299999C 28.437847 55.332775 28.657228 56.787849 29.690001 57.550003C 30.722773 58.312153 32.177849 58.092773 32.940002 57.060001L 34.599998 54.82L 36.200001 57.080002C 36.978722 58.129345 38.460663 58.348724 39.510002 57.570004C 40.559341 56.791279 40.778725 55.309341 40 54.260002L 37 50.16L 37 49.860001ZM 38 40.239998C 38.008102 38.822594 37.160507 37.540237 35.85331 36.992199C 34.546112 36.44416 33.03743 36.738647 32.032288 37.738045C 31.027142 38.73745 30.724012 40.244415 31.264553 41.554733C 31.805094 42.865051 33.082569 43.719978 34.5 43.720001C 35.426414 43.725323 36.316711 43.361034 36.973671 42.707829C 37.63063 42.054626 38.000015 41.166428 38 40.239998ZM 56.959999 29C 57.256584 29.003077 57.540375 28.879374 57.739998 28.659998C 57.943413 28.447105 58.032631 28.149708 57.98 27.860001C 57.289928 23.844007 53.774273 20.931278 49.700001 21L 18.299999 21C 14.218212 20.921293 10.691198 23.836391 10 27.860001C 9.947369 28.149708 10.036588 28.447105 10.24 28.66C 10.439621 28.879374 10.723413 29.003077 11.02 28.999998L 13.28 29C 13.484316 29.002653 13.666457 29.12936 13.74 29.32C 13.899547 29.722376 14.079787 30.116236 14.280001 30.500002C 16.065369 33.888172 19.580214 36.009026 23.41 36.009026C 27.239786 36.009026 30.754631 33.888172 32.540001 30.5C 32.740211 30.116236 32.920456 29.722376 33.080002 29.320002C 33.148697 29.125612 33.333855 28.996807 33.540001 28.999998L 34.459999 29C 34.666145 28.996807 34.851299 29.125612 34.919998 29.32C 35.079548 29.722376 35.259789 30.116236 35.459999 30.500002C 37.245369 33.888172 40.760216 36.009026 44.59 36.009026C 48.419785 36.009026 51.934631 33.888172 53.720001 30.5C 53.920216 30.116236 54.100456 29.722376 54.260002 29.320002C 54.328697 29.125612 54.513851 28.996807 54.719997 28.999998ZM 23.4 32C 21.569786 31.983295 19.832561 31.191006 18.619999 29.82C 18.522778 29.660299 18.522778 29.4597 18.619999 29.299999C 18.686577 29.141253 18.830135 29.027918 19 29L 27.799999 29C 27.999443 28.999306 28.180223 29.117207 28.26 29.299999C 28.367369 29.456707 28.367369 29.663294 28.26 29.82C 27.033712 31.218311 25.259802 32.014015 23.400002 32ZM 44.599998 32C 42.768101 31.990932 41.027901 31.197287 39.82 29.82C 39.712631 29.663294 39.712631 29.456707 39.82 29.299999C 39.899776 29.117207 40.080559 28.999306 40.279999 29L 49.080002 29C 49.272152 29.007078 49.443218 29.123714 49.52 29.299999C 49.627369 29.456707 49.627369 29.663294 49.52 29.82C 48.280025 31.234344 46.480667 32.031624 44.600002 32ZM 34 10C 28.477455 9.948547 23.296272 12.666791 20.200001 17.24C 20.121464 17.397415 20.121464 17.582584 20.200001 17.74C 20.291019 17.897736 20.457924 17.996361 20.639999 18L 47.5 18C 47.703251 18.01899 47.898815 17.917297 47.999996 17.74C 48.078533 17.582584 48.078533 17.397415 48 17.24C 44.864662 12.606876 39.593025 9.880686 34 10Z"/>
      </g>
    </g>
  </g>
  <g id="g-root-ic_play_v63ife1a49vd9-stroke-fill" data-item-order="-2304" transform="translate(476.1310119628906, 146)">
    <g id="ic_play_v63ife1a49vd9-fill" stroke="none" fill="#43dd93">
      <g>
        <path d="M 50.299973 17.999994C 49.834309 17.904942 49.499878 17.495264 49.499973 17.019995L 49.499973 13.999997C 49.499973 11.79086 47.709118 10 45.499977 10L 20.499992 10C 17.186287 10 14.499997 12.68629 14.499997 15.999996L 14.499997 51.999973C 14.499997 55.313679 17.186287 57.999969 20.499992 57.999969L 49.499973 57.999969C 51.709114 57.999969 53.499973 56.20911 53.499973 53.999969L 53.499973 21.999992C 53.538918 20.068951 52.192467 18.385889 50.299973 17.999994ZM 45.499977 44.999977C 45.499977 47.209118 43.709118 48.999973 41.499981 48.999973L 27.499989 48.999973C 25.290852 48.999973 23.49999 47.209118 23.49999 44.999977L 23.49999 30.999987C 23.49999 28.79085 25.290852 26.999989 27.499989 26.999989L 41.499981 26.999989C 43.709118 26.999989 45.499977 28.79085 45.499977 30.999987ZM 45.499977 17.499994C 45.499977 17.776138 45.276119 17.999994 44.999977 17.999994L 20.499992 17.999994C 19.395424 17.999994 18.499994 17.104565 18.499994 15.999996C 18.499994 14.895428 19.395424 13.999997 20.499992 13.999997L 44.999977 13.999997C 45.276119 13.999997 45.499977 14.223855 45.499977 14.499997ZM 31.439987 33.619984C 31.165213 33.763626 30.994955 34.049969 30.999987 34.359985L 30.999987 41.63998C 31.011396 41.944321 31.179358 42.221123 31.444035 42.371784C 31.708712 42.522446 32.032475 42.525547 32.299984 42.379978L 38.29998 38.739983C 38.561447 38.585159 38.721802 38.303848 38.721802 37.999981C 38.721802 37.696114 38.561447 37.414803 38.29998 37.259983L 32.299984 33.619984C 32.035053 33.462109 31.704916 33.462109 31.439985 33.619984Z"/>
      </g>
    </g>
  </g>
  <g id="g-root-tx_theladys_1ltmx3e1a41hxr-stroke-fill" data-item-order="0" transform="translate(38, 50)">
    <g id="tx_theladys_1ltmx3e1a41hxr-fill" stroke="none" fill="#f4f4f4">
      <g>
        <text style="font: 20px Roboto, sans-serif; white-space: pre;" font-size="20px" font-family="Roboto, sans-serif">
          <tspan x="16.2" y="34" dominant-baseline="ideographic">The Lady/Snippy Case: A Timeline of Unexplained Phenomena</tspan>
        </text>
      </g>
    </g>
  </g>
  <g id="g-root-tx_septembe_4ik0lm1a472f7-stroke-fill" data-item-order="0" transform="translate(248, 134)">
    <g id="tx_septembe_4ik0lm1a472f7-fill" stroke="none" fill="#fb6762">
      <g>
        <text style="font: bold 20px Roboto, sans-serif; white-space: pre;" font-weight="bold" font-size="20px" font-family="Roboto, sans-serif">
          <tspan x="13.24" y="34" dominant-baseline="ideographic">September 1967</tspan>
        </text>
      </g>
    </g>
  </g>
  <g id="g-root-tx_ladysnip_1q87k7e1a473t0-stroke-fill" data-item-order="0" transform="translate(272, 170)">
    <g id="tx_ladysnip_1q87k7e1a473t0-fill" stroke="none" fill="#ffe9e8">
      <g>
        <text style="font: 15px Roboto, sans-serif; white-space: pre;" font-size="15px" font-family="Roboto, sans-serif">
          <tspan x="15.07" y="28" dominant-baseline="ideographic">Lady/Snippy case </tspan>
          <tspan x="51.45" y="46" dominant-baseline="ideographic">occurs</tspan>
        </text>
      </g>
    </g>
  </g>
  <g id="g-root-tx_1961_8zmgwa1a473t4-stroke-fill" data-item-order="0" transform="translate(164, 374)">
    <g id="tx_1961_8zmgwa1a473t4-fill" stroke="none" fill="#4f91fc">
      <g>
        <text style="font: bold 20px Roboto, sans-serif; white-space: pre;" font-weight="bold" font-size="20px" font-family="Roboto, sans-serif">
          <tspan x="17.05" y="34" dominant-baseline="ideographic">1961</tspan>
        </text>
      </g>
    </g>
  </g>
  <g id="g-root-tx_bettyand_1upwhl61a47215-stroke-fill" data-item-order="0" transform="translate(68, 410)">
    <g id="tx_bettyand_1upwhl61a47215-fill" stroke="none" fill="#ebf2ff">
      <g>
        <text style="font: 15px Roboto, sans-serif; white-space: pre;" font-size="15px" font-family="Roboto, sans-serif">
          <tspan x="12.37" y="28" dominant-baseline="ideographic">Betty and Barney Hill's </tspan>
          <tspan x="15.05" y="46" dominant-baseline="ideographic">alien abduction claim</tspan>
        </text>
      </g>
    </g>
  </g>
  <g id="g-root-tx_2023_1unel8q1a49xqb-stroke-fill" data-item-order="0" transform="translate(524, 374)">
    <g id="tx_2023_1unel8q1a49xqb-fill" stroke="none" fill="#43dd93">
      <g>
        <text style="font: bold 20px Roboto, sans-serif; white-space: pre;" font-weight="bold" font-size="20px" font-family="Roboto, sans-serif">
          <tspan x="17.05" y="34" dominant-baseline="ideographic">2023</tspan>
        </text>
      </g>
    </g>
  </g>
  <g id="g-root-tx_document_1hckjyi1a49w5g-stroke-fill" data-item-order="0" transform="translate(416, 410)">
    <g id="tx_document_1hckjyi1a49w5g-fill" stroke="none" fill="#dffff0">
      <g>
        <text style="font: 15px Roboto, sans-serif; white-space: pre;" font-size="15px" font-family="Roboto, sans-serif">
          <tspan x="13.43" y="28" dominant-baseline="ideographic">Documentary on Snippy </tspan>
          <tspan x="46.45" y="46" dominant-baseline="ideographic">case released</tspan>
        </text>
      </g>
    </g>
  </g>
</svg>
