<?xml version='1.0' encoding='utf-8'?>
<svg xmlns="http://www.w3.org/2000/svg" xmlns:xlink="http://www.w3.org/1999/xlink" width="816" height="636" viewBox="0 0 816 636" style="fill:none;stroke:none;fill-rule:evenodd;clip-rule:evenodd;stroke-linecap:round;stroke-linejoin:round;stroke-miterlimit:1.5;" version="1.1">
  <style class="text-font-style fontImports" data-font-family="Roboto">@import url('https://fonts.googleapis.com/css2?family=Roboto:wght@400;700&amp;display=block');</style>
  <rect x="0" y="0" width="816" height="636" fill="#252a34" stroke="none" id="programmatic_background"/>
  <g id="g-root-tf_zrj76218qn4sn-stroke-fill" data-item-order="-477360" transform="translate(18, 12)">
    <g id="tf_zrj76218qn4sn-fill" stroke="none" fill="#2c2c2c">
      <g>
        <path d="M 0 0L 780 0L 780 612L 0 612Z"/>
      </g>
    </g>
    <defs>
      <pattern id="crawlingPattern-7878781a" x="0" y="0" width="12" height="12" patternUnits="userSpaceOnUse" fill="#7878781a">
        <use href="#crawlingSymbol"/>
      </pattern>
      <symbol id="crawlingSymbol">
        <g>
          <path d="M -12.5 12.5 l 13 -13 l 6 0 l -13 13 Z M -0.5 12.5 l 13 -13 l 6 0 l -13 13 Z M 11.5 12.5 l 13 -13 l 6 0 l -13 13 Z"/>
        </g>
      </symbol>
      <pattern id="crawlingPattern-ffe50099" x="0" y="0" width="12" height="12" patternUnits="userSpaceOnUse" fill="#ffe50099">
        <use href="#crawlingSymbol"/>
      </pattern>
      <pattern id="crawlingPattern-f908001a" x="0" y="0" width="12" height="12" patternUnits="userSpaceOnUse" fill="#f908001a">
        <use href="#crawlingSymbol"/>
      </pattern>
      <pattern id="crawlingPattern-00d16d21" x="0" y="0" width="12" height="12" patternUnits="userSpaceOnUse" fill="#00d16d21">
        <use href="#crawlingSymbol"/>
      </pattern>
      <pattern id="crawlingPattern-a906f51a" x="0" y="0" width="12" height="12" patternUnits="userSpaceOnUse" fill="#a906f51a">
        <use href="#crawlingSymbol"/>
      </pattern>
      <pattern id="crawlingPattern-ffffff38" x="0" y="0" width="12" height="12" patternUnits="userSpaceOnUse" fill="#ffffff38">
        <use href="#crawlingSymbol"/>
      </pattern>
      <pattern id="crawlingPattern-0000001b" x="0" y="0" width="12" height="12" patternUnits="userSpaceOnUse" fill="#0000001b">
        <use href="#crawlingSymbol"/>
      </pattern>
      <pattern id="crawlingPattern-5f5f5f1a" x="0" y="0" width="12" height="12" patternUnits="userSpaceOnUse" fill="#5f5f5f1a">
        <use href="#crawlingSymbol"/>
      </pattern>
    </defs>
  </g>
  <g id="g-root-sy_-1_cu_v6pwcq18qn5dw-stroke-fill" data-item-order="-316218" transform="translate(32, 265.00390625)">
    <g id="sy_-1_cu_v6pwcq18qn5dw-fill" stroke="none" fill="#ababab">
      <g>
        <path d="M 10.001 143L 10 47L 67 47L 70 59L 322 59L 319 47L 367 47L 370 59L 622 59L 619 47L 646 47L 646 10L 742 95L 646.002 180L 646 143L 619 143L 622 131L 370 131L 367 143L 319.001 143L 322.001 131L 70.001 131L 67.001 143L 10.001 143Z"/>
      </g>
    </g>
    <g id="sy_-1_cu_v6pwcq18qn5dw-stroke" fill="none" stroke-linecap="round" stroke-linejoin="round" stroke-miterlimit="4" stroke="#2c2c2c" stroke-width="2">
      <g>
        <path d="M 10.001 143L 10 47L 67 47L 70 59L 322 59L 319 47L 367 47L 370 59L 622 59L 619 47L 646 47L 646 10L 742 95L 646.0017 180L 646 143L 619 143L 622 131L 370 131L 367 143L 319.001 143L 322.001 131L 70.001 131L 67.001 143L 10.001 143Z"/>
      </g>
    </g>
  </g>
  <g id="g-root-sy_4_cu_mb2w3u18qn66l-stroke-fill" data-item-order="-316214" transform="translate(347, 386)">
    <g id="sy_4_cu_mb2w3u18qn66l-fill" stroke="none" fill="#ffe711">
      <g>
        <path d="M 307 10L 295 58L 43 58L 55 10L 307 10ZM 291.992188 70L 279.992188 118L 27.992188 118L 39.992188 70L 291.992188 70ZM 277 130L 25 130L 10 190L 262 190L 277 130Z"/>
      </g>
    </g>
    <g id="sy_4_cu_mb2w3u18qn66l-stroke" fill="none" stroke-linecap="round" stroke-linejoin="round" stroke-miterlimit="4" stroke="#2c2c2c" stroke-width="2">
      <g>
        <path d="M 307 10L 295 58L 43 58L 55 10L 307 10ZM 291.992188 70L 279.992188 118L 27.992188 118L 39.992188 70L 291.992188 70ZM 277 130L 25 130L 10 190L 262 190L 277 130Z"/>
      </g>
    </g>
  </g>
  <g id="g-root-sy_3_cu_hv9dze18qn6yu-stroke-fill" data-item-order="-316210" transform="translate(347, 134)">
    <g id="sy_3_cu_hv9dze18qn6yu-fill" stroke="none" fill="#fb6762">
      <g>
        <path d="M 307 190L 295 142L 43 142L 55 190L 307 190ZM 291.992188 130L 279.992188 82L 27.992188 82L 39.992188 130L 291.992188 130ZM 277 70L 25 70L 10 10L 262 10L 277 70Z"/>
      </g>
    </g>
    <g id="sy_3_cu_hv9dze18qn6yu-stroke" fill="none" stroke-linecap="round" stroke-linejoin="round" stroke-miterlimit="4" stroke="#2c2c2c" stroke-width="2">
      <g>
        <path d="M 307 190L 295 142L 43 142L 55 190L 307 190ZM 291.992188 130L 279.992188 82L 27.992188 82L 39.992188 130L 291.992188 130ZM 277 70L 25 70L 10 10L 262 10L 277 70Z"/>
      </g>
    </g>
  </g>
  <g id="g-root-sy_2_cu_4kfcp618qn5dz-stroke-fill" data-item-order="-316206" transform="translate(47, 386)">
    <g id="sy_2_cu_4kfcp618qn5dz-fill" stroke="none" fill="#43dd93">
      <g>
        <path d="M 307.000977 10L 295.000977 58L 43.000977 58L 55.000977 10L 307.000977 10ZM 291.993164 70L 279.993164 118L 27.993164 118L 39.993164 70L 291.993164 70ZM 277.001 130L 25.001 130L 10 190L 262 190L 277.001 130Z"/>
      </g>
    </g>
    <g id="sy_2_cu_4kfcp618qn5dz-stroke" fill="none" stroke-linecap="round" stroke-linejoin="round" stroke-miterlimit="4" stroke="#2c2c2c" stroke-width="2">
      <g>
        <path d="M 307.000977 10L 295.000977 58L 43.000977 58L 55.000977 10L 307.000977 10ZM 291.993164 70L 279.993164 118L 27.993164 118L 39.993164 70L 291.993164 70ZM 277.001 130L 25.001 130L 10 190L 262 190L 277.001 130Z"/>
      </g>
    </g>
  </g>
  <g id="g-root-sy_1_cu_4lukq18qn668-stroke-fill" data-item-order="-316202" transform="translate(47, 134)">
    <g id="sy_1_cu_4lukq18qn668-fill" stroke="none" fill="#cb68f9">
      <g>
        <path d="M 307 190L 295 142L 43 142L 55 190L 307 190ZM 291.992188 130L 279.992188 82L 27.992188 82L 39.992188 130L 291.992188 130ZM 277 70L 25 70L 10 10L 262 10L 277 70Z"/>
      </g>
    </g>
    <g id="sy_1_cu_4lukq18qn668-stroke" fill="none" stroke-linecap="round" stroke-linejoin="round" stroke-miterlimit="4" stroke="#2c2c2c" stroke-width="2">
      <g>
        <path d="M 307 190L 295 142L 43 142L 55 190L 307 190ZM 291.992188 130L 279.992188 82L 27.992188 82L 39.992188 130L 291.992188 130ZM 277 70L 25 70L 10 10L 262 10L 277 70Z"/>
      </g>
    </g>
  </g>
  <g id="g-root-tx_unexplai_1cz8v0q18qn56x-stroke-fill" data-item-order="0" transform="translate(356, 332)">
    <g id="tx_unexplai_1cz8v0q18qn56x-fill" stroke="none" fill="#2c2c2c">
      <g>
        <text style="font: bold 25px Roboto, sans-serif; white-space: pre;" font-weight="bold" font-size="25px" font-family="Roboto, sans-serif">
          <tspan x="23.17" y="43" dominant-baseline="ideographic">Unexplained Horse Mutilation</tspan>
        </text>
      </g>
    </g>
  </g>
  <g id="g-root-tx_publicfa_znscne18qn6ru-stroke-fill" data-item-order="0" transform="translate(464, 392)">
    <g id="tx_publicfa_znscne18qn6ru-fill" stroke="none" fill="#2c2c2c">
      <g>
        <text style="font: 15px Roboto, sans-serif; white-space: pre;" font-size="15px" font-family="Roboto, sans-serif">
          <tspan x="15.89" y="28" dominant-baseline="ideographic">Public fascination and </tspan>
          <tspan x="86.55" y="46" dominant-baseline="ideographic">speculation</tspan>
        </text>
      </g>
    </g>
  </g>
  <g id="g-root-tx_sensatio_v8lbm218qn4eb-stroke-fill" data-item-order="0" transform="translate(389, 458)">
    <g id="tx_sensatio_v8lbm218qn4eb-fill" stroke="none" fill="#2c2c2c">
      <g>
        <text style="font: 15px Roboto, sans-serif; white-space: pre;" font-size="15px" font-family="Roboto, sans-serif">
          <tspan x="13.38" y="31" dominant-baseline="ideographic">Sensationalized press coverage</tspan>
        </text>
      </g>
    </g>
  </g>
  <g id="g-root-tx_mediainf_mcybd618qn570-stroke-fill" data-item-order="0" transform="translate(434, 524)">
    <g id="tx_mediainf_mcybd618qn570-fill" stroke="none" fill="#2c2c2c">
      <g>
        <text style="font: bold 20px Roboto, sans-serif; white-space: pre;" font-weight="bold" font-size="20px" font-family="Roboto, sans-serif">
          <tspan x="19.7" y="34" dominant-baseline="ideographic">Media Influence</tspan>
        </text>
      </g>
    </g>
  </g>
  <g id="g-root-tx_possible_91hszu18qn6rx-stroke-fill" data-item-order="0" transform="translate(476, 272)">
    <g id="tx_possible_91hszu18qn6rx-fill" stroke="none" fill="#2c2c2c">
      <g>
        <text style="font: 15px Roboto, sans-serif; white-space: pre;" font-size="15px" font-family="Roboto, sans-serif">
          <tspan x="11.53" y="28" dominant-baseline="ideographic">Possible government </tspan>
          <tspan x="71.28" y="46" dominant-baseline="ideographic">involvement</tspan>
        </text>
      </g>
    </g>
  </g>
  <g id="g-root-tx_reported_4maryi18qn4ee-stroke-fill" data-item-order="0" transform="translate(401, 218)">
    <g id="tx_reported_4maryi18qn4ee-fill" stroke="none" fill="#2c2c2c">
      <g>
        <text style="font: 15px Roboto, sans-serif; white-space: pre;" font-size="15px" font-family="Roboto, sans-serif">
          <tspan x="11.69" y="31" dominant-baseline="ideographic">Reported student confessions</tspan>
        </text>
      </g>
    </g>
  </g>
  <g id="g-root-tx_humanint_1qbybka18qn5s7-stroke-fill" data-item-order="0" transform="translate(398, 152)">
    <g id="tx_humanint_1qbybka18qn5s7-fill" stroke="none" fill="#2c2c2c">
      <g>
        <text style="font: bold 20px Roboto, sans-serif; white-space: pre;" font-weight="bold" font-size="20px" font-family="Roboto, sans-serif">
          <tspan x="21.77" y="34" dominant-baseline="ideographic">Human Intervention</tspan>
        </text>
      </g>
    </g>
  </g>
  <g id="g-root-tx_scavenge_1lw4tfu18qn6kg-stroke-fill" data-item-order="0" transform="translate(188, 398)">
    <g id="tx_scavenge_1lw4tfu18qn6kg-fill" stroke="none" fill="#2c2c2c">
      <g>
        <text style="font: 15px Roboto, sans-serif; white-space: pre;" font-size="15px" font-family="Roboto, sans-serif">
          <tspan x="19.11" y="31" dominant-baseline="ideographic">Scavenger activity</tspan>
        </text>
      </g>
    </g>
  </g>
  <g id="g-root-tx_decompos_1d0ht6y18qn7d5-stroke-fill" data-item-order="0" transform="translate(125, 458)">
    <g id="tx_decompos_1d0ht6y18qn7d5-fill" stroke="none" fill="#2c2c2c">
      <g>
        <text style="font: 15px Roboto, sans-serif; white-space: pre;" font-size="15px" font-family="Roboto, sans-serif">
          <tspan x="14.25" y="31" dominant-baseline="ideographic">Decomposition processes</tspan>
        </text>
      </g>
    </g>
  </g>
  <g id="g-root-tx_naturalc_18las5m18qn4zm-stroke-fill" data-item-order="0" transform="translate(146, 524)">
    <g id="tx_naturalc_18las5m18qn4zm-fill" stroke="none" fill="#2c2c2c">
      <g>
        <text style="font: bold 20px Roboto, sans-serif; white-space: pre;" font-weight="bold" font-size="20px" font-family="Roboto, sans-serif">
          <tspan x="14.91" y="34" dominant-baseline="ideographic">Natural Causes</tspan>
        </text>
      </g>
    </g>
  </g>
  <g id="g-root-tx_absenceo_zpnrwq18qn5sb-stroke-fill" data-item-order="0" transform="translate(173, 218)">
    <g id="tx_absenceo_zpnrwq18qn5sb-fill" stroke="none" fill="#2c2c2c">
      <g>
        <text style="font: 15px Roboto, sans-serif; white-space: pre;" font-size="15px" font-family="Roboto, sans-serif">
          <tspan x="23.16" y="31" dominant-baseline="ideographic">Absence of blood</tspan>
        </text>
      </g>
    </g>
  </g>
  <g id="g-root-tx_surgical_me79je18qn7d8-stroke-fill" data-item-order="0" transform="translate(140, 278)">
    <g id="tx_surgical_me79je18qn7d8-fill" stroke="none" fill="#2c2c2c">
      <g>
        <text style="font: 15px Roboto, sans-serif; white-space: pre;" font-size="15px" font-family="Roboto, sans-serif">
          <tspan x="19.39" y="31" dominant-baseline="ideographic">Surgical precision of cuts</tspan>
        </text>
      </g>
    </g>
  </g>
  <g id="g-root-tx_extrater_hz08i218qn4zp-stroke-fill" data-item-order="0" transform="translate(146, 140)">
    <g id="tx_extrater_hz08i218qn4zp-fill" stroke="none" fill="#2c2c2c">
      <g>
        <text style="font: bold 20px Roboto, sans-serif; white-space: pre;" font-weight="bold" font-size="20px" font-family="Roboto, sans-serif">
          <tspan x="17.61" y="34" dominant-baseline="ideographic">Extraterrestrial </tspan>
          <tspan x="50.66" y="58" dominant-baseline="ideographic">Hypothesis</tspan>
        </text>
      </g>
    </g>
  </g>
  <g id="g-root-tx_analyzin_1ut0ruy18qn766-stroke-fill" data-item-order="0" transform="translate(188, 50)">
    <g id="tx_analyzin_1ut0ruy18qn766-fill" stroke="none" fill="#f4f4f4">
      <g>
        <text style="font: bold 20px Roboto, sans-serif; white-space: pre;" font-weight="bold" font-size="20px" font-family="Roboto, sans-serif">
          <tspan x="17.3" y="34" dominant-baseline="ideographic">Analyzing the Snippy Horse Mutilation Case</tspan>
        </text>
      </g>
    </g>
  </g>
</svg>
