<?xml version='1.0' encoding='utf-8'?>
<svg xmlns="http://www.w3.org/2000/svg" xmlns:xlink="http://www.w3.org/1999/xlink" width="1008" height="600" viewBox="0 0 1008 600" style="fill:none;stroke:none;fill-rule:evenodd;clip-rule:evenodd;stroke-linecap:round;stroke-linejoin:round;stroke-miterlimit:1.5;" version="1.1">
  <style class="text-font-style fontImports" data-font-family="Roboto">@import url('https://fonts.googleapis.com/css2?family=Roboto:wght@400;700&amp;display=block');</style>
  <rect x="0" y="0" width="1008" height="6E+2" fill="#252a34" stroke="none" id="programmatic_background"/>
  <g id="g-root-tf_18lxfka18q94b0-stroke-fill" data-item-order="-566784" transform="translate(12, 12)">
    <g id="tf_18lxfka18q94b0-fill" stroke="none" fill="#2c2c2c">
      <g>
        <path d="M 0 0L 984 0L 984 576L 0 576Z"/>
      </g>
    </g>
    <defs>
      <pattern id="crawlingPattern-f908001a" x="0" y="0" width="12" height="12" patternUnits="userSpaceOnUse" fill="#f908001a">
        <use href="#crawlingSymbol"/>
      </pattern>
      <symbol id="crawlingSymbol">
        <g>
          <path d="M -12.5 12.5 l 13 -13 l 6 0 l -13 13 Z M -0.5 12.5 l 13 -13 l 6 0 l -13 13 Z M 11.5 12.5 l 13 -13 l 6 0 l -13 13 Z"/>
        </g>
      </symbol>
      <pattern id="crawlingPattern-f576002d" x="0" y="0" width="12" height="12" patternUnits="userSpaceOnUse" fill="#f576002d">
        <use href="#crawlingSymbol"/>
      </pattern>
      <pattern id="crawlingPattern-ffe50099" x="0" y="0" width="12" height="12" patternUnits="userSpaceOnUse" fill="#ffe50099">
        <use href="#crawlingSymbol"/>
      </pattern>
      <pattern id="crawlingPattern-00d16d21" x="0" y="0" width="12" height="12" patternUnits="userSpaceOnUse" fill="#00d16d21">
        <use href="#crawlingSymbol"/>
      </pattern>
      <pattern id="crawlingPattern-0060fb20" x="0" y="0" width="12" height="12" patternUnits="userSpaceOnUse" fill="#0060fb20">
        <use href="#crawlingSymbol"/>
      </pattern>
      <pattern id="crawlingPattern-0000001b" x="0" y="0" width="12" height="12" patternUnits="userSpaceOnUse" fill="#0000001b">
        <use href="#crawlingSymbol"/>
      </pattern>
      <pattern id="crawlingPattern-f17400d3" x="0" y="0" width="12" height="12" patternUnits="userSpaceOnUse" fill="#f17400d3">
        <use href="#crawlingSymbol"/>
      </pattern>
      <pattern id="crawlingPattern-ff7b003a" x="0" y="0" width="12" height="12" patternUnits="userSpaceOnUse" fill="#ff7b003a">
        <use href="#crawlingSymbol"/>
      </pattern>
      <pattern id="crawlingPattern-00b15c75" x="0" y="0" width="12" height="12" patternUnits="userSpaceOnUse" fill="#00b15c75">
        <use href="#crawlingSymbol"/>
      </pattern>
      <pattern id="crawlingPattern-00ff873a" x="0" y="0" width="12" height="12" patternUnits="userSpaceOnUse" fill="#00ff873a">
        <use href="#crawlingSymbol"/>
      </pattern>
      <pattern id="crawlingPattern-f9080081" x="0" y="0" width="12" height="12" patternUnits="userSpaceOnUse" fill="#f9080081">
        <use href="#crawlingSymbol"/>
      </pattern>
      <pattern id="crawlingPattern-ff0b0038" x="0" y="0" width="12" height="12" patternUnits="userSpaceOnUse" fill="#ff0b0038">
        <use href="#crawlingSymbol"/>
      </pattern>
      <pattern id="crawlingPattern-ddc700ff" x="0" y="0" width="12" height="12" patternUnits="userSpaceOnUse" fill="#ddc700ff">
        <use href="#crawlingSymbol"/>
      </pattern>
      <pattern id="crawlingPattern-ffe7003d" x="0" y="0" width="12" height="12" patternUnits="userSpaceOnUse" fill="#ffe7003d">
        <use href="#crawlingSymbol"/>
      </pattern>
      <pattern id="crawlingPattern-0060fba2" x="0" y="0" width="12" height="12" patternUnits="userSpaceOnUse" fill="#0060fba2">
        <use href="#crawlingSymbol"/>
      </pattern>
      <pattern id="crawlingPattern-0059ff37" x="0" y="0" width="12" height="12" patternUnits="userSpaceOnUse" fill="#0059ff37">
        <use href="#crawlingSymbol"/>
      </pattern>
      <pattern id="crawlingPattern-5f5f5f1a" x="0" y="0" width="12" height="12" patternUnits="userSpaceOnUse" fill="#5f5f5f1a">
        <use href="#crawlingSymbol"/>
      </pattern>
    </defs>
  </g>
  <g id="g-root-cp_0_g-0_4j6kui18q22a3-stroke-fill" data-item-order="-449243" transform="translate(50.131011962890625, 248.5)">
    <g id="cp_0_g-0_4j6kui18q22a3-stroke" fill="none" stroke-linecap="round" stroke-linejoin="round" stroke-miterlimit="4" stroke="#f4f4f4" stroke-width="2">
      <g>
        <path d="M 826 51L 898 51M 646 51L 802 51M 814 10L 814 39.5M 106 51L 262 51M 286 51L 442 51M 274 63.5L 274 93M 454 10L 454 39.5M 466 51L 622 51M 634 63.5L 634 93M 10 51L 82 51M 94 10L 94 39.5"/>
      </g>
    </g>
  </g>
  <g id="g-root-cp_1_g-1_3d2q218q232d-stroke-fill" data-item-order="-449220" transform="translate(89.13101196289062, 125)">
    <g id="cp_1_g-1_3d2q218q232d-fill" stroke="none" fill="#fb6762">
      <g>
        <path d="M 100 55C 100 66.244 94.5 77.5875 89 86L 55.816 132.848C 55.4175 133.411 54.5825 133.411 54.184 132.848L 21 86C 14.5 77 10 66.7284 10 55C 10 30.1472 30.1472 10 55 10C 79.8528 10 100 30.1472 100 55ZM 55 91C 74.8822 91 91 74.8822 91 55C 91 35.1177 74.8822 19 55 19C 35.1177 19 19 35.1177 19 55C 19 74.8822 35.1177 91 55 91Z"/>
      </g>
    </g>
    <g id="cp_1_g-1_3d2q218q232d-stroke" fill="none" stroke-linecap="round" stroke-linejoin="round" stroke-miterlimit="4" stroke="#2c2c2c" stroke-width="2">
      <g>
        <path d="M 100 55C 100 66.244 94.5 77.5875 89 86L 55.816 132.848C 55.4175 133.4106 54.5825 133.4106 54.184 132.848L 21 86C 14.5 77 10 66.7284 10 55C 10 30.1472 30.1472 10 55 10C 79.8528 10 100 30.1472 100 55ZM 55 91C 74.8822 91 91 74.8822 91 55C 91 35.1177 74.8822 19 55 19C 35.1177 19 19 35.1177 19 55C 19 74.8822 35.1177 91 55 91Z"/>
      </g>
    </g>
    <g id="cp_1_g-1_3d2q218q232d-fill" stroke="none" fill="#fb6762">
      <g>
        <path d="M 55 187C 61.6274 187 67 181.6274 67 175C 67 168.3726 61.6274 163 55 163C 48.3726 163 43 168.3726 43 175C 43 181.6274 48.3726 187 55 187ZM 55 181C 58.3137 181 61 178.3137 61 175C 61 171.6863 58.3137 169 55 169C 51.6863 169 49 171.6863 49 175C 49 178.3137 51.6863 181 55 181Z"/>
      </g>
    </g>
    <g id="cp_1_g-1_3d2q218q232d-stroke" fill="none" stroke-linecap="round" stroke-linejoin="round" stroke-miterlimit="4" stroke="#2c2c2c" stroke-width="2">
      <g>
        <path d="M 55 187C 61.6274 187 67 181.6274 67 175C 67 168.3726 61.6274 163 55 163C 48.3726 163 43 168.3726 43 175C 43 181.6274 48.3726 187 55 187ZM 55 181C 58.3137 181 61 178.3137 61 175C 61 171.6863 58.3137 169 55 169C 51.6863 169 49 171.6863 49 175C 49 178.3137 51.6863 181 55 181Z"/>
      </g>
    </g>
  </g>
  <g id="g-root-cp_2_g-2_1uonmkq18q23nk-stroke-fill" data-item-order="-449216" transform="translate(269.1309814453125, 278)">
    <g id="cp_2_g-2_1uonmkq18q23nk-fill" stroke="none" fill="#f79438">
      <g>
        <path d="M 100 142.000369C 100 130.756469 94.5 119.412869 89 111.000369L 55.816 64.152469C 55.4175 63.589769 54.5825 63.589769 54.184 64.152469L 21 111.000369C 14.5 120.000369 10 130.271969 10 142.000369C 10 166.853469 30.1472 187.000469 55 187.000469C 79.8528 187.000469 100 166.853469 100 142.000369ZM 55 106.000369C 74.8822 106.000369 91 122.118169 91 142.000369C 91 161.882669 74.8822 178.000469 55 178.000469C 35.1177 178.000469 19 161.882669 19 142.000369C 19 122.118169 35.1177 106.000369 55 106.000369Z"/>
      </g>
    </g>
    <g id="cp_2_g-2_1uonmkq18q23nk-stroke" fill="none" stroke-linecap="round" stroke-linejoin="round" stroke-miterlimit="4" stroke="#2c2c2c" stroke-width="2">
      <g>
        <path d="M 100 142.000369C 100 130.756469 94.5 119.412869 89 111.000369L 55.816 64.152469C 55.4175 63.589769 54.5825 63.589769 54.184 64.152469L 21 111.000369C 14.5 120.000369 10 130.271969 10 142.000369C 10 166.853269 30.1472 187.000369 55 187.000369C 79.8528 187.000369 100 166.853269 100 142.000369ZM 55 106.000369C 74.8822 106.000369 91 122.118169 91 142.000369C 91 161.882669 74.8822 178.000369 55 178.000369C 35.1177 178.000369 19 161.882669 19 142.000369C 19 122.118169 35.1177 106.000369 55 106.000369Z"/>
      </g>
    </g>
    <g id="cp_2_g-2_1uonmkq18q23nk-fill" stroke="none" fill="#f79438">
      <g>
        <path d="M 55 34C 61.6274 34 67 28.6274 67 22C 67 15.3726 61.6274 10 55 10C 48.3726 10 43 15.3726 43 22C 43 28.6274 48.3726 34 55 34ZM 55 28C 58.3137 28 61 25.3137 61 22C 61 18.6863 58.3137 16 55 16C 51.6863 16 49 18.6863 49 22C 49 25.3137 51.6863 28 55 28Z"/>
      </g>
    </g>
    <g id="cp_2_g-2_1uonmkq18q23nk-stroke" fill="none" stroke-linecap="round" stroke-linejoin="round" stroke-miterlimit="4" stroke="#2c2c2c" stroke-width="2">
      <g>
        <path d="M 55 34C 61.6274 34 67 28.6274 67 22C 67 15.3726 61.6274 10 55 10C 48.3726 10 43 15.3726 43 22C 43 28.6274 48.3726 34 55 34ZM 55 28C 58.3137 28 61 25.3137 61 22C 61 18.6863 58.3137 16 55 16C 51.6863 16 49 18.6863 49 22C 49 25.3137 51.6863 28 55 28Z"/>
      </g>
    </g>
  </g>
  <g id="g-root-cp_3_g-3_1lt0mbu18q24gb-stroke-fill" data-item-order="-449210" transform="translate(449.1310119628906, 125)">
    <g id="cp_3_g-3_1lt0mbu18q24gb-fill" stroke="none" fill="#ffe711">
      <g>
        <path d="M 100 55C 100 66.244 94.5 77.5875 89 86L 55.816 132.848C 55.4175 133.411 54.5825 133.411 54.184 132.848L 21 86C 14.5 77 10 66.7284 10 55C 10 30.1472 30.1472 10 55 10C 79.8528 10 100 30.1472 100 55ZM 55 91C 74.8822 91 91 74.8822 91 55C 91 35.1177 74.8822 19 55 19C 35.1177 19 19 35.1177 19 55C 19 74.8822 35.1177 91 55 91Z"/>
      </g>
    </g>
    <g id="cp_3_g-3_1lt0mbu18q24gb-stroke" fill="none" stroke-linecap="round" stroke-linejoin="round" stroke-miterlimit="4" stroke="#2c2c2c" stroke-width="2">
      <g>
        <path d="M 100 55C 100 66.244 94.5 77.5875 89 86L 55.816 132.848C 55.4175 133.4106 54.5825 133.4106 54.184 132.848L 21 86C 14.5 77 10 66.7284 10 55C 10 30.1472 30.1472 10 55 10C 79.8528 10 100 30.1472 100 55ZM 55 91C 74.8822 91 91 74.8822 91 55C 91 35.1177 74.8822 19 55 19C 35.1177 19 19 35.1177 19 55C 19 74.8822 35.1177 91 55 91Z"/>
      </g>
    </g>
    <g id="cp_3_g-3_1lt0mbu18q24gb-fill" stroke="none" fill="#ffe711">
      <g>
        <path d="M 55 187C 61.6274 187 67 181.6274 67 175C 67 168.3726 61.6274 163 55 163C 48.3726 163 43 168.3726 43 175C 43 181.6274 48.3726 187 55 187ZM 55 181C 58.3137 181 61 178.3137 61 175C 61 171.6863 58.3137 169 55 169C 51.6863 169 49 171.6863 49 175C 49 178.3137 51.6863 181 55 181Z"/>
      </g>
    </g>
    <g id="cp_3_g-3_1lt0mbu18q24gb-stroke" fill="none" stroke-linecap="round" stroke-linejoin="round" stroke-miterlimit="4" stroke="#2c2c2c" stroke-width="2">
      <g>
        <path d="M 55 187C 61.6274 187 67 181.6274 67 175C 67 168.3726 61.6274 163 55 163C 48.3726 163 43 168.3726 43 175C 43 181.6274 48.3726 187 55 187ZM 55 181C 58.3137 181 61 178.3137 61 175C 61 171.6863 58.3137 169 55 169C 51.6863 169 49 171.6863 49 175C 49 178.3137 51.6863 181 55 181Z"/>
      </g>
    </g>
  </g>
  <g id="g-root-cp_4_g-4_18i6l1m18q22vi-stroke-fill" data-item-order="-449204" transform="translate(629.1309814453125, 278)">
    <g id="cp_4_g-4_18i6l1m18q22vi-fill" stroke="none" fill="#43dd93">
      <g>
        <path d="M 100 142.000369C 100 130.756469 94.5 119.412869 89 111.000369L 55.816 64.152469C 55.4175 63.589769 54.5825 63.589769 54.184 64.152469L 21 111.000369C 14.5 120.000369 10 130.271969 10 142.000369C 10 166.853469 30.1472 187.000469 55 187.000469C 79.8528 187.000469 100 166.853469 100 142.000369ZM 55 106.000369C 74.8822 106.000369 91 122.118169 91 142.000369C 91 161.882669 74.8822 178.000469 55 178.000469C 35.1177 178.000469 19 161.882669 19 142.000369C 19 122.118169 35.1177 106.000369 55 106.000369Z"/>
      </g>
    </g>
    <g id="cp_4_g-4_18i6l1m18q22vi-stroke" fill="none" stroke-linecap="round" stroke-linejoin="round" stroke-miterlimit="4" stroke="#2c2c2c" stroke-width="2">
      <g>
        <path d="M 100 142.000369C 100 130.756469 94.5 119.412869 89 111.000369L 55.816 64.152469C 55.4175 63.589769 54.5825 63.589769 54.184 64.152469L 21 111.000369C 14.5 120.000369 10 130.271969 10 142.000369C 10 166.853269 30.1472 187.000369 55 187.000369C 79.8528 187.000369 100 166.853269 100 142.000369ZM 55 106.000369C 74.8822 106.000369 91 122.118169 91 142.000369C 91 161.882669 74.8822 178.000369 55 178.000369C 35.1177 178.000369 19 161.882669 19 142.000369C 19 122.118169 35.1177 106.000369 55 106.000369Z"/>
      </g>
    </g>
    <g id="cp_4_g-4_18i6l1m18q22vi-fill" stroke="none" fill="#43dd93">
      <g>
        <path d="M 55 34C 61.6274 34 67 28.6274 67 22C 67 15.3726 61.6274 10 55 10C 48.3726 10 43 15.3726 43 22C 43 28.6274 48.3726 34 55 34ZM 55 28C 58.3137 28 61 25.3137 61 22C 61 18.6863 58.3137 16 55 16C 51.6863 16 49 18.6863 49 22C 49 25.3137 51.6863 28 55 28Z"/>
      </g>
    </g>
    <g id="cp_4_g-4_18i6l1m18q22vi-stroke" fill="none" stroke-linecap="round" stroke-linejoin="round" stroke-miterlimit="4" stroke="#2c2c2c" stroke-width="2">
      <g>
        <path d="M 55 34C 61.6274 34 67 28.6274 67 22C 67 15.3726 61.6274 10 55 10C 48.3726 10 43 15.3726 43 22C 43 28.6274 48.3726 34 55 34ZM 55 28C 58.3137 28 61 25.3137 61 22C 61 18.6863 58.3137 16 55 16C 51.6863 16 49 18.6863 49 22C 49 25.3137 51.6863 28 55 28Z"/>
      </g>
    </g>
  </g>
  <g id="g-root-cp_5_g-5_142d2x618q23nt-stroke-fill" data-item-order="-449198" transform="translate(809.1309814453125, 125)">
    <g id="cp_5_g-5_142d2x618q23nt-fill" stroke="none" fill="#4f91fc">
      <g>
        <path d="M 100 55C 100 66.244 94.5 77.5875 89 86L 55.816 132.848C 55.4175 133.411 54.5825 133.411 54.184 132.848L 21 86C 14.5 77 10 66.7284 10 55C 10 30.1472 30.1472 10 55 10C 79.8528 10 100 30.1472 100 55ZM 55 91C 74.8822 91 91 74.8822 91 55C 91 35.1177 74.8822 19 55 19C 35.1177 19 19 35.1177 19 55C 19 74.8822 35.1177 91 55 91Z"/>
      </g>
    </g>
    <g id="cp_5_g-5_142d2x618q23nt-stroke" fill="none" stroke-linecap="round" stroke-linejoin="round" stroke-miterlimit="4" stroke="#2c2c2c" stroke-width="2">
      <g>
        <path d="M 100 55C 100 66.244 94.5 77.5875 89 86L 55.816 132.848C 55.4175 133.4106 54.5825 133.4106 54.184 132.848L 21 86C 14.5 77 10 66.7284 10 55C 10 30.1472 30.1472 10 55 10C 79.8528 10 100 30.1472 100 55ZM 55 91C 74.8822 91 91 74.8822 91 55C 91 35.1177 74.8822 19 55 19C 35.1177 19 19 35.1177 19 55C 19 74.8822 35.1177 91 55 91Z"/>
      </g>
    </g>
    <g id="cp_5_g-5_142d2x618q23nt-fill" stroke="none" fill="#4f91fc">
      <g>
        <path d="M 55 187C 61.6274 187 67 181.6274 67 175C 67 168.3726 61.6274 163 55 163C 48.3726 163 43 168.3726 43 175C 43 181.6274 48.3726 187 55 187ZM 55 181C 58.3137 181 61 178.3137 61 175C 61 171.6863 58.3137 169 55 169C 51.6863 169 49 171.6863 49 175C 49 178.3137 51.6863 181 55 181Z"/>
      </g>
    </g>
    <g id="cp_5_g-5_142d2x618q23nt-stroke" fill="none" stroke-linecap="round" stroke-linejoin="round" stroke-miterlimit="4" stroke="#2c2c2c" stroke-width="2">
      <g>
        <path d="M 55 187C 61.6274 187 67 181.6274 67 175C 67 168.3726 61.6274 163 55 163C 48.3726 163 43 168.3726 43 175C 43 181.6274 48.3726 187 55 187ZM 55 181C 58.3137 181 61 178.3137 61 175C 61 171.6863 58.3137 169 55 169C 51.6863 169 49 171.6863 49 175C 49 178.3137 51.6863 181 55 181Z"/>
      </g>
    </g>
  </g>
  <g id="g-root-ic_scri_mbpjii18q22v9-stroke-fill" data-item-order="-2304" transform="translate(290.1310119628906, 386.0000305175781)">
    <g id="ic_scri_mbpjii18q22v9-fill" stroke="none" fill="#f79438">
      <g>
        <path d="M 27.999989 45.999977L 13.999997 45.999977L 13.999997 21.999992L 45.999977 21.999992L 45.999977 25.999989C 45.999977 27.104559 46.895409 27.999989 47.999973 27.999989C 49.104542 27.999989 49.999973 27.104559 49.999973 25.999989L 49.999973 21.999992C 49.999973 19.790855 48.209114 17.999994 45.999977 17.999994L 13.999997 17.999994C 11.79086 17.999994 10 19.790855 10 21.999992L 10 45.999977C 10 48.209114 11.79086 49.999973 13.999997 49.999973L 27.999989 49.999973C 29.104557 49.999973 29.999987 49.104542 29.999987 47.999973C 29.999987 46.895409 29.104557 45.999977 27.999989 45.999977ZM 55.01997 49.139973C 56.901016 47.400928 57.979507 44.961655 57.999966 42.399975C 57.999969 36.324852 53.075108 31.399988 46.999977 31.399988C 40.92485 31.399988 35.999985 36.324852 35.999985 42.399979C 36.024868 44.970623 37.110462 47.416828 38.999981 49.159973L 38.999981 54.999969C 38.999981 55.552254 39.447697 55.999969 39.999981 55.999969L 41.999977 55.999969C 42.276119 55.999969 42.499977 55.776112 42.499977 55.499969L 42.499977 51.999973C 42.499977 51.171547 43.171551 50.499973 43.999977 50.499973C 44.828403 50.499973 45.499977 51.171547 45.499977 51.999973L 45.499977 55.499969C 45.499977 55.776112 45.723835 55.999969 45.999977 55.999969L 47.999973 55.999969C 48.276115 55.999969 48.499973 55.776112 48.499973 55.499969L 48.499973 51.999973C 48.499973 51.171547 49.171547 50.499973 49.999973 50.499973C 50.828403 50.499973 51.499973 51.171547 51.499973 51.999973L 51.499973 55.499969C 51.507114 55.631817 51.556164 55.757938 51.639973 55.85997C 51.740452 55.946396 51.8675 55.995804 51.999969 55.999966L 53.999969 55.999969C 54.265179 56.003201 54.519409 55.894245 54.69997 55.69997C 54.886593 55.514118 54.994095 55.263283 54.999969 54.999969L 54.999969 49.839973C 55.03997 49.579975 55.03997 49.359974 55.01997 49.139973ZM 43.339977 43.839977C 41.95927 43.839977 40.839981 42.720688 40.839981 41.339981C 40.839981 39.95927 41.95927 38.839981 43.339977 38.839981C 44.720688 38.839981 45.839977 39.95927 45.839977 41.339981C 45.839977 42.720688 44.720688 43.839977 43.339977 43.839977ZM 50.659973 43.839977C 49.279263 43.839977 48.159973 42.720688 48.159973 41.339981C 48.159973 39.95927 49.279263 38.839981 50.659973 38.839981C 52.040688 38.839981 53.159973 39.95927 53.159973 41.339981C 53.159973 42.720688 52.040688 43.839977 50.659973 43.839977ZM 19.999994 13.999997L 53.999969 13.999997L 53.999969 27.999989C 53.999969 29.104557 54.895401 29.999987 55.999969 29.999987C 57.104538 29.999987 57.999969 29.104557 57.999969 27.999989L 57.999969 13.999997C 57.999969 11.79086 56.20911 10 53.999969 10L 19.999994 10C 18.895424 10 17.999994 10.89543 17.999994 11.999999C 17.999994 13.104568 18.895424 13.999997 19.999994 13.999997ZM 30.499987 27.999989L 19.499994 27.999989C 18.671568 27.999989 17.999994 28.671562 17.999994 29.499987C 17.999994 30.328415 18.671568 30.999987 19.499994 30.999987L 30.499987 30.999987C 31.328415 30.999987 31.999985 30.328415 31.999985 29.499987C 31.999985 28.671562 31.328415 27.999989 30.499987 27.999989ZM 25.49999 39.999981C 26.328417 39.999981 26.999989 39.328407 26.999989 38.499981C 26.999989 37.671555 26.328417 36.999981 25.49999 36.999981L 19.499994 36.999981C 18.671568 36.999981 17.999994 37.671555 17.999994 38.499981C 17.999994 39.328407 18.671568 39.999981 19.499994 39.999981Z"/>
      </g>
    </g>
  </g>
  <g id="g-root-ic_knif_1upwkqy18q3j7s-stroke-fill" data-item-order="-2304" transform="translate(650.1309814453125, 386)">
    <g id="ic_knif_1upwkqy18q3j7s-fill" stroke="none" fill="#43dd93">
      <g>
        <path d="M 10 10M 20.959999 42L 15.559999 47.400002C 13.355883 47.316593 11.333827 48.617207 10.495666 50.657444C 9.657503 52.697685 10.181278 55.044163 11.807485 56.534313C 13.433691 58.02446 15.816889 58.341743 17.776318 57.32896C 19.735746 56.316177 20.855183 54.188465 20.58 52L 25.779999 46.799999ZM 48.139999 36.82C 45.467957 36.815487 42.912891 37.915688 41.080002 39.860001L 40.919998 40.02L 40.620003 40.379997L 40.32 40.739998C 40.18 40.940002 40.040001 41.120003 39.919998 41.32C 39.51535 41.948559 39.180058 42.619144 38.919998 43.32L 38.919998 43.459999C 38.590675 44.446674 38.42186 45.479816 38.419998 46.52L 38.419998 49.779999C 38.422714 50.185326 38.571884 50.576004 38.839996 50.879997C 39.140289 51.186356 39.551018 51.359295 39.98 51.360001L 40.239998 51.360001C 40.430885 51.362389 40.620083 51.396172 40.799999 51.459999L 41.02 51.459999C 41.154716 51.541889 41.281883 51.63559 41.400002 51.740002C 41.627342 51.985538 41.779972 52.290802 41.84 52.619999L 42.18 56.099998L 42.18 56.419998L 42.18 56.639999C 42.169224 56.692791 42.169224 56.747211 42.18 56.799999C 42.250786 56.97541 42.360157 57.132629 42.5 57.260002C 42.608284 57.38131 42.736874 57.482826 42.880001 57.560001L 43 57.560001C 43.20269 57.646309 43.419785 57.693798 43.639999 57.700001L 44.52 57.700001L 44.52 55C 44.52 54.447716 44.967716 54 45.52 54C 46.072285 54 46.52 54.447716 46.52 55L 46.52 58L 49.400002 58L 49.400002 55C 49.400002 54.447716 49.847713 54 50.400002 54C 50.952286 54 51.400002 54.447716 51.400002 55L 51.400002 58L 52.279999 58C 52.717449 57.99271 53.134331 57.813019 53.440002 57.5C 53.670712 57.264751 53.824207 56.964741 53.880001 56.639999L 54.200001 53.18L 54.200001 52.84C 54.221325 52.695328 54.261677 52.554104 54.32 52.420002L 54.32 52.299999C 54.388729 52.174011 54.476418 52.059338 54.580002 51.959999C 54.665489 51.888596 54.759548 51.828129 54.860001 51.779999L 55 51.779999C 55.196793 51.699715 55.407463 51.658939 55.619999 51.66L 56.200001 51.66L 56.360001 51.66C 56.552464 51.584301 56.734047 51.483421 56.899998 51.360001L 57.02 51.240002L 57.02 51.119999C 57.118652 50.998783 57.199471 50.86409 57.260002 50.720001C 57.279343 50.54052 57.279343 50.359482 57.260002 50.18L 57.259998 46.580002C 57.271084 41.430054 53.278873 37.157692 48.139999 36.82ZM 44.139999 48.220001C 43.234253 48.220001 42.5 47.485748 42.5 46.580002C 42.510952 45.682076 43.242008 44.959934 44.139999 44.959999C 45.034702 44.959999 45.759998 45.685299 45.759998 46.579998C 45.761223 47.036568 45.572067 47.47298 45.238037 47.784233C 44.904007 48.09549 44.455345 48.25341 44 48.220001ZM 52.259998 48.220001C 51.362072 48.209049 50.639935 47.477993 50.639999 46.580002C 50.639999 45.685299 51.365299 44.959999 52.259998 44.959999C 53.157993 44.959934 53.88905 45.682076 53.900002 46.580002C 53.900299 47.025555 53.719303 47.452053 53.39864 47.761395C 53.07798 48.07074 52.645256 48.236301 52.200001 48.220001ZM 53.580002 32.779999C 54.700844 32.785347 55.777328 32.342461 56.569893 31.549896C 57.362461 30.75733 57.805347 29.680845 57.799999 28.559999C 57.799999 24.939999 53.580002 20.700001 53.580002 20.700001C 53.580002 20.700001 49.360001 24.939999 49.360001 28.559999C 49.354649 29.680845 49.797535 30.75733 50.590103 31.549896C 51.382668 32.342461 52.459152 32.785347 53.579998 32.779999ZM 24.1 36.66L 24 36.66L 21.24 33.82C 20.589317 33.156685 19.699184 32.782951 18.77 32.782951C 17.840816 32.782951 16.950684 33.156685 16.299999 33.82C 16.014105 34.098576 15.85286 34.480827 15.85286 34.880001C 15.85286 35.279175 16.014105 35.661423 16.299999 35.940002C 16.581036 36.221386 16.962309 36.37965 17.360001 36.380001C 17.748013 36.387814 18.125328 36.252548 18.42 36C 18.508221 35.904488 18.630175 35.847099 18.76 35.84C 18.896839 35.84182 19.026953 35.899647 19.119999 36L 31.84 48.720001C 32.119766 49.003273 32.501869 49.16188 32.900002 49.16C 33.299503 49.169014 33.684319 49.009281 33.959999 48.720001C 34.245895 48.441425 34.407143 48.059177 34.407143 47.66C 34.407143 47.260826 34.245895 46.878578 33.959999 46.600002L 30.92 43.560001C 31.700001 43.099998 32.580002 42.560001 33.540001 41.919998C 40 37.440002 49.860001 28.52 47.639999 15.58C 47.367302 13.994926 46.938549 12.440701 46.360001 10.94C 46.220821 10.587044 45.897236 10.340505 45.52 10.3C 45.147007 10.29658 44.795937 10.475851 44.579998 10.78C 39.078888 19.157452 32.926533 27.08864 26.18 34.5C 25.459999 35.279999 24.76 36 24.1 36.66Z"/>
      </g>
    </g>
  </g>
  <g id="g-root-ic_hors_91hzbe18q4xdx-stroke-fill" data-item-order="-2304" transform="translate(110.1309814453125, 146)">
    <g id="ic_hors_91hzbe18q4xdx-fill" stroke="none" fill="#fb6762">
      <g>
        <path d="M 13.1 41.459999C 12.355255 41.94466 11.904278 42.77145 11.9 43.66L 11.9 50C 12.018566 51.353165 13.151649 52.391304 14.51 52.391304C 15.86835 52.391304 17.001434 51.353165 17.119999 49.999996L 17.119999 45.080002L 20 43.240002C 18.747589 41.982506 17.880259 40.393559 17.5 38.66ZM 36.5 54C 36.776146 55.413853 38.146152 56.336147 39.560005 56.060005C 40.973854 55.783863 41.896145 54.413853 41.620003 53.000004L 40 45.119999L 34.760002 45.119999ZM 57.68 43.400002L 54.98 36C 53.948997 33.218098 51.446285 31.248369 48.5 30.9C 47.383522 29.337326 45.55949 28.436571 43.639999 28.5C 42.711891 28.515652 41.79018 28.656937 40.900002 28.92C 39.034462 29.505632 37.094929 29.822153 35.139999 29.859999C 33.820496 30.012003 32.490833 29.677811 31.400002 28.92L 29.040001 18.299999C 28.699379 16.802444 27.797462 15.492518 26.52 14.64L 24.880001 10.48C 24.779053 10.261459 24.560726 10.121108 24.32 10.12C 24.105503 10.119863 23.907249 10.234241 23.799999 10.42L 20.98 15.12L 12.98 19.279999C 12.79091 19.36718 12.615696 19.481745 12.46 19.619999L 12.32 19.76L 12.18 20L 12 20.139999L 12 20.32C 11.956882 20.477804 11.923487 20.638105 11.9 20.799999C 11.880067 20.899006 11.880067 21.000992 11.9 21.099998C 11.811584 21.392593 11.804668 21.703766 11.88 22L 12.42 23.380001C 12.638 23.911865 13.064487 24.331121 13.6 24.539999C 13.844363 24.652218 14.111191 24.706951 14.38 24.700001C 14.676465 24.704489 14.97022 24.643005 15.24 24.52L 17.24 23.6C 17.454523 23.803148 17.689051 23.98407 17.940001 24.139999C 18.541649 24.506767 19.235516 24.694111 19.939999 24.68C 20.413893 24.677895 20.882761 24.582762 21.32 24.4L 21.439999 24.4L 21.700001 24.279999L 22 24L 19.4 35.18C 19.390362 35.353199 19.390362 35.526802 19.4 35.699997C 19.390095 35.859848 19.390095 36.020153 19.4 36.18C 19.390459 36.333183 19.390459 36.486816 19.4 36.639999L 19.4 37.099998C 19.390142 37.166302 19.390142 37.233696 19.4 37.299999C 19.411106 37.575588 19.44455 37.849823 19.5 38.120003C 19.5 38.120003 19.5 38.260002 19.5 38.32C 20.086927 40.21804 21.237995 41.892319 22.799999 43.119999L 21.619999 49.380001C 21.489998 49.824017 21.489998 50.29599 21.620001 50.740002L 23.139999 56C 23.229342 56.306477 23.378927 56.592049 23.58 56.84C 23.615604 56.902084 23.663193 56.95647 23.720001 57C 23.805031 57.108181 23.906216 57.202621 24.02 57.279999C 24.089848 57.352463 24.170879 57.413235 24.26 57.459999C 24.468006 57.584526 24.689407 57.685165 24.92 57.759998L 25.119999 57.759998L 25.540001 57.759998C 25.726147 57.779705 25.913853 57.779705 26.1 57.760002L 26.280001 57.759998C 26.695736 57.64513 27.07468 57.424652 27.380001 57.119999L 27.639999 56.82C 27.783482 56.613644 27.904186 56.392353 28 56.16L 28 55.919998L 28 55.68C 28.04003 55.428249 28.04003 55.171753 28 54.920002C 28.009401 54.786831 28.009401 54.653168 28 54.52L 26.780001 50C 26.780001 50 26.92 49.48 27.139999 48.740002L 27.280001 48.220001L 27.280001 47.860001L 27.280001 47.68L 27.4 47.279999L 27.4 47.080002L 27.4 46.68L 28 46C 28 45.740002 28.139999 45.48 28.219999 45.220001C 28.245178 45.101967 28.285513 44.987686 28.34 44.880001L 28.440001 44.68C 28.934105 43.721851 29.921951 43.119884 31 43.119999L 39.379997 43.119999C 37.4785 41.406143 36.512001 38.885818 36.779999 36.34C 36.795444 36.074608 36.915924 35.82629 37.114822 35.64991C 37.313721 35.473526 37.574669 35.383598 37.84 35.400002C 38.105392 35.415443 38.35371 35.535927 38.53009 35.734825C 38.706474 35.933723 38.796402 36.194664 38.779999 36.459999C 38.538689 38.985775 39.798298 41.418938 42 42.68C 42.205105 42.810471 42.399094 42.957634 42.580002 43.119999L 42.900002 43.119999L 43.639999 45.84L 43.639999 46L 43.900002 46.98L 43.900002 47.16L 43.900002 47.48C 43.900002 47.700001 44.040001 47.919998 44.099998 48.119999L 44.580002 49.84C 44.580002 50 44.68 50.139999 44.720001 50.279999L 44.98 51.099998L 47.700001 56C 48.156593 56.858219 49.04789 57.396069 50.02 57.400002L 50.52 57.400002C 50.765026 57.35936 51.001587 57.278255 51.220001 57.16C 51.83416 56.840618 52.295605 56.289505 52.502083 55.628777C 52.708561 54.968044 52.643024 54.252251 52.32 53.639999L 50.099998 49.380001L 50.400002 37.379997C 50.374935 36.401466 50.240772 35.428783 50 34.480003C 50.925705 35.068207 51.629341 35.947754 52 36.98L 52.220001 37.620003L 54.700001 44.419998C 54.912598 45.021328 55.482204 45.422459 56.120003 45.420002C 56.291199 45.415844 56.460377 45.382011 56.620003 45.32C 57.023209 45.218555 57.366222 44.9543 57.567173 44.590313C 57.768124 44.226326 57.808983 43.795261 57.68 43.400002Z"/>
      </g>
    </g>
  </g>
  <g id="g-root-ic_2_1qbyhvu18q69s0-stroke-fill" data-item-order="-2304" transform="translate(470.1310119628906, 146)">
    <g id="ic_2_1qbyhvu18q69s0-fill" stroke="none" fill="#ffe711">
      <g>
        <path d="M 53.999969 44.999977C 52.343121 44.999977 50.999973 46.343124 50.999973 47.999973L 50.999973 49.999973L 46.999977 49.999973L 46.999977 47.999973C 46.999977 46.343124 45.656834 44.999977 43.999977 44.999977C 42.343124 44.999977 40.999981 46.343124 40.999981 47.999973L 40.999981 49.999973L 36.999981 49.999973L 36.999981 47.999973C 36.999981 46.343124 35.656837 44.999977 33.999985 44.999977C 32.343132 44.999977 30.999987 46.343124 30.999987 47.999973L 30.999987 49.999973L 26.999989 49.999973L 26.999989 47.999973C 26.999989 46.343124 25.656845 44.999977 23.99999 44.999977C 22.343138 44.999977 20.999992 46.343124 20.999992 47.999973L 20.999992 49.999973L 16.999996 49.999973L 16.999996 47.999973C 16.999996 46.343124 15.656851 44.999977 13.999997 44.999977C 12.343144 44.999977 10.999999 46.343124 10.999999 47.999973L 10.999999 56.999969C 10.999999 57.552254 11.447715 57.999969 11.999999 57.999969L 15.999996 57.999969C 16.55228 57.999969 16.999996 57.552254 16.999996 56.999969L 16.999996 53.999969L 20.999992 53.999969L 20.999992 56.999969C 20.999992 57.552254 21.447708 57.999969 21.999992 57.999969L 25.999989 57.999969C 26.552273 57.999969 26.999989 57.552254 26.999989 56.999969L 26.999989 53.999969L 30.999987 53.999969L 30.999987 56.999969C 30.999987 57.552254 31.447702 57.999969 31.999985 57.999969L 35.999985 57.999969C 36.552265 57.999969 36.999981 57.552254 36.999981 56.999969L 36.999981 53.999969L 40.999981 53.999969L 40.999981 56.999969C 40.999981 57.552254 41.447697 57.999969 41.999977 57.999969L 45.999977 57.999969C 46.552261 57.999969 46.999977 57.552254 46.999977 56.999969L 46.999977 53.999969L 50.999973 53.999969L 50.999973 56.999969C 50.999973 57.552254 51.447689 57.999969 51.999973 57.999969L 55.999969 57.999969C 56.552254 57.999969 56.999969 57.552254 56.999969 56.999969L 56.999969 47.999973C 56.999969 46.343124 55.656826 44.999977 53.999969 44.999977ZM 43.879978 19.199993C 45.004208 19.235922 46.108227 19.50852 47.119976 19.999994C 47.459312 19.650484 47.754822 19.26095 47.999973 18.839994C 49.259972 16.839996 49.219975 13.999997 47.999973 10.639999C 47.864162 10.301006 47.560513 10.058082 47.199974 10C 46.849205 9.96585 46.504402 10.108269 46.279976 10.38C 44.604103 12.416769 42.415665 13.970077 39.93998 14.879997C 41.589405 15.973124 42.942909 17.457172 43.879978 19.199993ZM 26.959988 14.879997C 24.421762 13.993157 22.169455 12.43865 20.439993 10.38C 20.228073 10.091824 19.873507 9.945372 19.519993 10C 19.162838 10.040535 18.860067 10.281199 18.739994 10.62C 17.415752 13.1973 17.371365 16.245224 18.619995 18.859993C 18.86762 19.267929 19.155745 19.64986 19.479994 19.999994C 20.538975 19.479235 21.70005 19.199211 22.879992 19.179995C 23.851244 17.422329 25.255705 15.942135 26.959988 14.879996ZM 20.739992 26.899988C 21.937054 26.880638 23.124115 26.678299 24.259991 26.299988C 24.461523 27.988403 24.906122 29.638809 25.579988 31.199986C 27.797102 29.280895 30.648399 28.254429 33.579983 28.319988C 36.368488 28.258995 39.091148 29.171263 41.27998 30.899988C 41.876095 29.425941 42.272926 27.878967 42.459976 26.299988C 43.595852 26.678299 44.782913 26.880638 45.979977 26.899988C 46.920998 26.937695 47.858189 26.759832 48.719971 26.379988C 48.865875 24.961136 48.365093 23.552011 47.356525 22.543442C 46.347954 21.53487 44.938828 21.03409 43.519974 21.179993C 43.200611 21.151491 42.879341 21.151491 42.559978 21.179993C 41.098175 17.383802 37.406605 14.917417 33.339985 15.019997C 29.267544 14.946853 25.590422 17.446335 24.15999 21.259993C 23.840626 21.231491 23.519356 21.231491 23.199991 21.259993C 21.796368 21.117945 20.402416 21.608519 19.397133 22.598337C 18.39185 23.588154 17.879723 24.974331 17.999994 26.379988C 18.861774 26.759832 19.798969 26.937695 20.739992 26.899988ZM 36.95998 23.359991C 37.78841 23.359991 38.459984 24.031565 38.459984 24.859991C 38.459984 25.688417 37.78841 26.359989 36.959984 26.359989C 36.131557 26.359989 35.459984 25.688417 35.459984 24.859991C 35.459984 24.031565 36.131557 23.359991 36.959984 23.359991ZM 31.299986 24.859989C 31.299988 25.688417 30.628414 26.359989 29.799988 26.359989C 28.97156 26.359989 28.29999 25.688417 28.29999 24.859991C 28.29999 24.031565 28.97156 23.359991 29.799988 23.359991C 30.628414 23.359991 31.299988 24.031565 31.299988 24.859991ZM 33.619984 30.319986C 28.979986 30.319986 25.21999 33.019985 25.21999 36.319981C 25.21999 39.61998 28.979986 42.319977 33.619984 42.319977C 38.259983 42.319977 42.019978 39.61998 42.019978 36.319981C 42.019978 33.019985 38.259983 30.319986 33.619984 30.319986ZM 32.719986 37.099983C 32.719986 37.652267 32.27227 38.099983 31.719986 38.099983C 31.167702 38.099983 30.719986 37.652267 30.719986 37.099983L 30.719986 35.739983C 30.719986 35.187698 31.167702 34.739983 31.719986 34.739983C 32.27227 34.739983 32.719986 35.187698 32.719986 35.739983ZM 36.279984 37.099983C 36.279984 37.652267 35.832268 38.099983 35.279984 38.099983C 34.727699 38.099983 34.279984 37.652267 34.279984 37.099983L 34.279984 35.739983C 34.290623 35.192165 34.732166 34.750622 35.279984 34.739983C 35.832268 34.739983 36.279984 35.187698 36.279984 35.739983Z"/>
      </g>
    </g>
  </g>
  <g id="g-root-ic_forb_hwiih618q7qir-stroke-fill" data-item-order="-2304" transform="translate(830.1309814453125, 146)">
    <g id="ic_forb_hwiih618q7qir-fill" stroke="none" fill="#4f91fc">
      <g>
        <path d="M 42.200001 37.459999C 41.804375 37.076431 41.175629 37.076431 40.779999 37.459999L 39.360001 38.879997C 39.178917 39.067867 39.07843 39.319073 39.080002 39.580002C 39.081367 39.846313 39.181087 40.10273 39.360001 40.300003L 44.959999 45.880001C 45.753521 46.559555 46.93639 46.513866 47.675125 45.775127C 48.413864 45.036388 48.459553 43.853519 47.779999 43.060001ZM 34 10C 20.745167 10 10.000001 20.745167 10.000002 34C 10.000002 47.254833 20.745167 58 34 58C 47.254833 58 58 47.254833 58 34C 58 20.745167 47.254837 10 34 10ZM 20.139999 48C 19.868359 48.006397 19.606728 47.897385 19.419998 47.699997C 12.027957 39.828339 12.219262 27.510189 19.85218 19.871868C 27.4851 12.233547 39.803108 12.033527 47.68 19.42C 47.871437 19.610775 47.979336 19.869732 47.98 20.139999C 47.986881 20.407818 47.886013 20.667196 47.700001 20.860001L 37.34 31.200001C 37.152233 31.389313 36.896637 31.495798 36.629997 31.495798C 36.363365 31.495798 36.107765 31.389313 35.919998 31.200001L 33.220001 28.5C 33.028561 28.309223 32.920662 28.050266 32.919998 27.779999C 32.918724 27.505266 33.035217 27.243153 33.239998 27.059999C 33.559998 26.76 33.900002 26.48 34.279999 26.18C 34.692825 25.825243 34.943222 25.317551 34.973412 24.774078C 35.003609 24.230606 34.810986 23.698303 34.440002 23.299999L 30.860001 19.720001C 30.453669 19.314655 29.892776 19.103409 29.32 19.139999C 28.757154 19.172676 28.234241 19.441395 27.879999 19.880001C 24.5 24 21.380001 24.66 20.200001 24.720001C 19.214308 24.763451 18.407574 25.519234 18.299999 26.5C 18.043083 29.105667 18.967894 31.689264 20.82 33.540001C 22.3598 35.095245 24.451546 35.979385 26.640001 36L 27.459999 36C 28.426554 35.895058 29.177624 35.110229 29.24 34.139999C 29.312021 33.328384 29.507612 32.532539 29.82 31.780001C 29.882809 31.626476 30.017666 31.514093 30.18 31.48C 30.347338 31.440966 30.522778 31.49436 30.639999 31.619999L 33.099998 34C 33.289314 34.187767 33.395798 34.443363 33.395798 34.709999C 33.395798 34.976639 33.289314 35.232231 33.099998 35.419998L 20.860001 47.700001C 20.670502 47.893337 20.410713 48.001579 20.139999 48ZM 34 54C 30.664831 54.006485 27.3825 53.166981 24.459999 51.560001C 24.202431 51.40522 24.032196 51.138763 24 50.839996C 23.947342 50.541313 24.027691 50.234524 24.219999 49.999996L 50 24.220001C 50.234524 24.027691 50.541313 23.947342 50.839996 24C 51.15057 24.045219 51.419426 24.239395 51.559998 24.52C 53.157181 27.424698 53.996368 30.685148 54 34C 54 45.045696 45.045696 54 34 54Z"/>
      </g>
    </g>
  </g>
  <g id="g-root-tx_theladys_qrj1my18q2230-stroke-fill" data-item-order="0" transform="translate(242, 50)">
    <g id="tx_theladys_qrj1my18q2230-fill" stroke="none" fill="#f4f4f4">
      <g>
        <text style="font: 20px Roboto, sans-serif; white-space: pre;" font-size="20px" font-family="Roboto, sans-serif">
          <tspan x="15.62" y="34" dominant-baseline="ideographic">The Lady/Snippy Horse Mutilation: A Timeline of Events</tspan>
        </text>
      </g>
    </g>
  </g>
  <g id="g-root-tx_october5_mb32fe18q3jeu-stroke-fill" data-item-order="0" transform="translate(242, 134)">
    <g id="tx_october5_mb32fe18q3jeu-fill" stroke="none" fill="#f79438">
      <g>
        <text style="font: bold 20px Roboto, sans-serif; white-space: pre;" font-weight="bold" font-size="20px" font-family="Roboto, sans-serif">
          <tspan x="16.19" y="34" dominant-baseline="ideographic">October 5, 1967</tspan>
        </text>
      </g>
    </g>
  </g>
  <g id="g-root-tx_sensatio_90915618q3htz-stroke-fill" data-item-order="0" transform="translate(254, 170)">
    <g id="tx_sensatio_90915618q3htz-fill" stroke="none" fill="#fff0e2">
      <g>
        <text style="font: 15px Roboto, sans-serif; white-space: pre;" font-size="15px" font-family="Roboto, sans-serif">
          <tspan x="20.34" y="28" dominant-baseline="ideographic">Sensational media </tspan>
          <tspan x="12.74" y="46" dominant-baseline="ideographic">coverage of the case</tspan>
        </text>
      </g>
    </g>
  </g>
  <g id="g-root-tx_late1970_1hf2jgq18q4v0p-stroke-fill" data-item-order="0" transform="translate(650, 134)">
    <g id="tx_late1970_1hf2jgq18q4v0p-fill" stroke="none" fill="#43dd93">
      <g>
        <text style="font: bold 20px Roboto, sans-serif; white-space: pre;" font-weight="bold" font-size="20px" font-family="Roboto, sans-serif">
          <tspan x="13.88" y="34" dominant-baseline="ideographic">Late 1970s</tspan>
        </text>
      </g>
    </g>
  </g>
  <g id="g-root-tx_fbisoper_143m13e18q4wlm-stroke-fill" data-item-order="0" transform="translate(590, 170)">
    <g id="tx_fbisoper_143m13e18q4wlm-fill" stroke="none" fill="#dffff0">
      <g>
        <text style="font: 15px Roboto, sans-serif; white-space: pre;" font-size="15px" font-family="Roboto, sans-serif">
          <tspan x="14.4" y="28" dominant-baseline="ideographic">FBI's "Operation Animal </tspan>
          <tspan x="58.57" y="46" dominant-baseline="ideographic">Mutilation</tspan>
        </text>
      </g>
    </g>
  </g>
  <g id="g-root-tx_septembe_qsrzt618q4v0r-stroke-fill" data-item-order="0" transform="translate(86, 374)">
    <g id="tx_septembe_qsrzt618q4v0r-fill" stroke="none" fill="#fb6762">
      <g>
        <text style="font: bold 20px Roboto, sans-serif; white-space: pre;" font-weight="bold" font-size="20px" font-family="Roboto, sans-serif">
          <tspan x="13.51" y="34" dominant-baseline="ideographic">September 9, </tspan>
          <tspan x="50.55" y="58" dominant-baseline="ideographic">1967</tspan>
        </text>
      </g>
    </g>
  </g>
  <g id="g-root-tx_discover_mcyhoq18q4vt0-stroke-fill" data-item-order="0" transform="translate(50, 434)">
    <g id="tx_discover_mcyhoq18q4vt0-fill" stroke="none" fill="#ffe9e8">
      <g>
        <text style="font: 15px Roboto, sans-serif; white-space: pre;" font-size="15px" font-family="Roboto, sans-serif">
          <tspan x="28.69" y="31" dominant-baseline="ideographic">Discovery of Lady's </tspan>
          <tspan x="13.38" y="49" dominant-baseline="ideographic">mutilated body by Harry </tspan>
          <tspan x="77.73" y="67" dominant-baseline="ideographic">King</tspan>
        </text>
      </g>
    </g>
  </g>
  <g id="g-root-tx_1975_dhbhfu18q69zi-stroke-fill" data-item-order="0" transform="translate(518, 374)">
    <g id="tx_1975_dhbhfu18q69zi-fill" stroke="none" fill="#ffe711">
      <g>
        <text style="font: bold 20px Roboto, sans-serif; white-space: pre;" font-weight="bold" font-size="20px" font-family="Roboto, sans-serif">
          <tspan x="17.05" y="34" dominant-baseline="ideographic">1975</tspan>
        </text>
      </g>
    </g>
  </g>
  <g id="g-root-tx_colorado_5uz2i18q6bkf-stroke-fill" data-item-order="0" transform="translate(422, 410)">
    <g id="tx_colorado_5uz2i18q6bkf-fill" stroke="none" fill="#fffbd5">
      <g>
        <text style="font: 15px Roboto, sans-serif; white-space: pre;" font-size="15px" font-family="Roboto, sans-serif">
          <tspan x="16.63" y="31" dominant-baseline="ideographic">Colorado Associated </tspan>
          <tspan x="26.63" y="49" dominant-baseline="ideographic">Press votes cattle </tspan>
          <tspan x="17.41" y="67" dominant-baseline="ideographic">mutilations top story</tspan>
        </text>
      </g>
    </g>
  </g>
  <g id="g-root-tx_2019_znsiyy18q7o5l-stroke-fill" data-item-order="0" transform="translate(878, 374)">
    <g id="tx_2019_znsiyy18q7o5l-fill" stroke="none" fill="#4f91fc">
      <g>
        <text style="font: bold 20px Roboto, sans-serif; white-space: pre;" font-weight="bold" font-size="20px" font-family="Roboto, sans-serif">
          <tspan x="17.05" y="34" dominant-baseline="ideographic">2019</tspan>
        </text>
      </g>
    </g>
  </g>
  <g id="g-root-tx_mutilati_mcc0lm18q7pqi-stroke-fill" data-item-order="0" transform="translate(782, 410)">
    <g id="tx_mutilati_mcc0lm18q7pqi-fill" stroke="none" fill="#ebf2ff">
      <g>
        <text style="font: 15px Roboto, sans-serif; white-space: pre;" font-size="15px" font-family="Roboto, sans-serif">
          <tspan x="15.8" y="31" dominant-baseline="ideographic">Mutilation incident at </tspan>
          <tspan x="18.81" y="49" dominant-baseline="ideographic">Silvies Valley Ranch, </tspan>
          <tspan x="61.89" y="67" dominant-baseline="ideographic">Oregon</tspan>
        </text>
      </g>
    </g>
  </g>
</svg>
