<?xml version='1.0' encoding='utf-8'?>
<svg xmlns="http://www.w3.org/2000/svg" xmlns:xlink="http://www.w3.org/1999/xlink" width="1008" height="600" viewBox="0 0 1008 600" style="fill:none;stroke:none;fill-rule:evenodd;clip-rule:evenodd;stroke-linecap:round;stroke-linejoin:round;stroke-miterlimit:1.5;" version="1.1">
  <style class="text-font-style fontImports" data-font-family="Roboto">@import url('https://fonts.googleapis.com/css2?family=Roboto:wght@400;700&amp;display=block');</style>
  <rect x="0" y="0" width="1008" height="6E+2" fill="#252a34" stroke="none" id="programmatic_background"/>
  <g id="g-root-tf_1d2eak91cbwt1i-stroke-fill" data-item-order="-566784" transform="translate(12, 12)"/>
  <g id="g-root-cp_0_g-0_18lbr3t1cc80ed-stroke-fill" data-item-order="-449243" transform="translate(50.131011962890625, 248.5)">
    <g id="cp_0_g-0_18lbr3t1cc80ed-stroke" fill="none" stroke-linecap="round" stroke-linejoin="round" stroke-miterlimit="4" stroke="#d3d3d3" stroke-width="2">
      <g>
        <path d="M 826 51L 898 51M 646 51L 802 51M 814 10L 814 39.5M 106 51L 262 51M 286 51L 442 51M 274 63.5L 274 93M 454 10L 454 39.5M 466 51L 622 51M 634 63.5L 634 93M 10 51L 82 51M 94 10L 94 39.5"/>
      </g>
    </g>
  </g>
  <g id="g-root-cp_1_g-1_v9v8qh1cc81zb-stroke-fill" data-item-order="-449220" transform="translate(89.13101196289062, 125)">
    <g id="cp_1_g-1_v9v8qh1cc81zb-fill" stroke="none" fill="none">
      <g>
        <path d="M 100 55C 100 66.244 94.5 77.5875 89 86L 55.816 132.848C 55.4175 133.411 54.5825 133.411 54.184 132.848L 21 86C 14.5 77 10 66.7284 10 55C 10 30.1472 30.1472 10 55 10C 79.8528 10 100 30.1472 100 55ZM 55 91C 74.8822 91 91 74.8822 91 55C 91 35.1177 74.8822 19 55 19C 35.1177 19 19 35.1177 19 55C 19 74.8822 35.1177 91 55 91Z"/>
      </g>
    </g>
    <g id="cp_1_g-1_v9v8qh1cc81zb-stroke" fill="none" stroke-linecap="round" stroke-linejoin="round" stroke-miterlimit="4" stroke="#fb6762" stroke-width="2">
      <g>
        <path d="M 100 55C 100 66.244 94.5 77.5875 89 86L 55.816 132.848C 55.4175 133.4106 54.5825 133.4106 54.184 132.848L 21 86C 14.5 77 10 66.7284 10 55C 10 30.1472 30.1472 10 55 10C 79.8528 10 100 30.1472 100 55ZM 55 91C 74.8822 91 91 74.8822 91 55C 91 35.1177 74.8822 19 55 19C 35.1177 19 19 35.1177 19 55C 19 74.8822 35.1177 91 55 91Z"/>
      </g>
    </g>
    <g id="cp_1_g-1_v9v8qh1cc81zb-fill" stroke="none" fill="none">
      <g>
        <path d="M 55 187C 61.6274 187 67 181.6274 67 175C 67 168.3726 61.6274 163 55 163C 48.3726 163 43 168.3726 43 175C 43 181.6274 48.3726 187 55 187ZM 55 181C 58.3137 181 61 178.3137 61 175C 61 171.6863 58.3137 169 55 169C 51.6863 169 49 171.6863 49 175C 49 178.3137 51.6863 181 55 181Z"/>
      </g>
    </g>
    <g id="cp_1_g-1_v9v8qh1cc81zb-stroke" fill="none" stroke-linecap="round" stroke-linejoin="round" stroke-miterlimit="4" stroke="#fb6762" stroke-width="2">
      <g>
        <path d="M 55 187C 61.6274 187 67 181.6274 67 175C 67 168.3726 61.6274 163 55 163C 48.3726 163 43 168.3726 43 175C 43 181.6274 48.3726 187 55 187ZM 55 181C 58.3137 181 61 178.3137 61 175C 61 171.6863 58.3137 169 55 169C 51.6863 169 49 171.6863 49 175C 49 178.3137 51.6863 181 55 181Z"/>
      </g>
    </g>
  </g>
  <g id="g-root-cp_2_g-2_qu1qm11cc82rm-stroke-fill" data-item-order="-449216" transform="translate(269.1309814453125, 278)">
    <g id="cp_2_g-2_qu1qm11cc82rm-fill" stroke="none" fill="none">
      <g>
        <path d="M 100 142.000369C 100 130.756469 94.5 119.412869 89 111.000369L 55.816 64.152469C 55.4175 63.589769 54.5825 63.589769 54.184 64.152469L 21 111.000369C 14.5 120.000369 10 130.271969 10 142.000369C 10 166.853469 30.1472 187.000469 55 187.000469C 79.8528 187.000469 100 166.853469 100 142.000369ZM 55 106.000369C 74.8822 106.000369 91 122.118169 91 142.000369C 91 161.882669 74.8822 178.000469 55 178.000469C 35.1177 178.000469 19 161.882669 19 142.000369C 19 122.118169 35.1177 106.000369 55 106.000369Z"/>
      </g>
    </g>
    <g id="cp_2_g-2_qu1qm11cc82rm-stroke" fill="none" stroke-linecap="round" stroke-linejoin="round" stroke-miterlimit="4" stroke="#f79438" stroke-width="2">
      <g>
        <path d="M 100 142.000369C 100 130.756469 94.5 119.412869 89 111.000369L 55.816 64.152469C 55.4175 63.589769 54.5825 63.589769 54.184 64.152469L 21 111.000369C 14.5 120.000369 10 130.271969 10 142.000369C 10 166.853269 30.1472 187.000369 55 187.000369C 79.8528 187.000369 100 166.853269 100 142.000369ZM 55 106.000369C 74.8822 106.000369 91 122.118169 91 142.000369C 91 161.882669 74.8822 178.000369 55 178.000369C 35.1177 178.000369 19 161.882669 19 142.000369C 19 122.118169 35.1177 106.000369 55 106.000369Z"/>
      </g>
    </g>
    <g id="cp_2_g-2_qu1qm11cc82rm-fill" stroke="none" fill="none">
      <g>
        <path d="M 55 34C 61.6274 34 67 28.6274 67 22C 67 15.3726 61.6274 10 55 10C 48.3726 10 43 15.3726 43 22C 43 28.6274 48.3726 34 55 34ZM 55 28C 58.3137 28 61 25.3137 61 22C 61 18.6863 58.3137 16 55 16C 51.6863 16 49 18.6863 49 22C 49 25.3137 51.6863 28 55 28Z"/>
      </g>
    </g>
    <g id="cp_2_g-2_qu1qm11cc82rm-stroke" fill="none" stroke-linecap="round" stroke-linejoin="round" stroke-miterlimit="4" stroke="#f79438" stroke-width="2">
      <g>
        <path d="M 55 34C 61.6274 34 67 28.6274 67 22C 67 15.3726 61.6274 10 55 10C 48.3726 10 43 15.3726 43 22C 43 28.6274 48.3726 34 55 34ZM 55 28C 58.3137 28 61 25.3137 61 22C 61 18.6863 58.3137 16 55 16C 51.6863 16 49 18.6863 49 22C 49 25.3137 51.6863 28 55 28Z"/>
      </g>
    </g>
  </g>
  <g id="g-root-cp_3_g-3_hz17g91cc80el-stroke-fill" data-item-order="-449210" transform="translate(449.1310119628906, 125)">
    <g id="cp_3_g-3_hz17g91cc80el-fill" stroke="none" fill="none">
      <g>
        <path d="M 100 55C 100 66.244 94.5 77.5875 89 86L 55.816 132.848C 55.4175 133.411 54.5825 133.411 54.184 132.848L 21 86C 14.5 77 10 66.7284 10 55C 10 30.1472 30.1472 10 55 10C 79.8528 10 100 30.1472 100 55ZM 55 91C 74.8822 91 91 74.8822 91 55C 91 35.1177 74.8822 19 55 19C 35.1177 19 19 35.1177 19 55C 19 74.8822 35.1177 91 55 91Z"/>
      </g>
    </g>
    <g id="cp_3_g-3_hz17g91cc80el-stroke" fill="none" stroke-linecap="round" stroke-linejoin="round" stroke-miterlimit="4" stroke="#ffe711" stroke-width="2">
      <g>
        <path d="M 100 55C 100 66.244 94.5 77.5875 89 86L 55.816 132.848C 55.4175 133.4106 54.5825 133.4106 54.184 132.848L 21 86C 14.5 77 10 66.7284 10 55C 10 30.1472 30.1472 10 55 10C 79.8528 10 100 30.1472 100 55ZM 55 91C 74.8822 91 91 74.8822 91 55C 91 35.1177 74.8822 19 55 19C 35.1177 19 19 35.1177 19 55C 19 74.8822 35.1177 91 55 91Z"/>
      </g>
    </g>
    <g id="cp_3_g-3_hz17g91cc80el-fill" stroke="none" fill="none">
      <g>
        <path d="M 55 187C 61.6274 187 67 181.6274 67 175C 67 168.3726 61.6274 163 55 163C 48.3726 163 43 168.3726 43 175C 43 181.6274 48.3726 187 55 187ZM 55 181C 58.3137 181 61 178.3137 61 175C 61 171.6863 58.3137 169 55 169C 51.6863 169 49 171.6863 49 175C 49 178.3137 51.6863 181 55 181Z"/>
      </g>
    </g>
    <g id="cp_3_g-3_hz17g91cc80el-stroke" fill="none" stroke-linecap="round" stroke-linejoin="round" stroke-miterlimit="4" stroke="#ffe711" stroke-width="2">
      <g>
        <path d="M 55 187C 61.6274 187 67 181.6274 67 175C 67 168.3726 61.6274 163 55 163C 48.3726 163 43 168.3726 43 175C 43 181.6274 48.3726 187 55 187ZM 55 181C 58.3137 181 61 178.3137 61 175C 61 171.6863 58.3137 169 55 169C 51.6863 169 49 171.6863 49 175C 49 178.3137 51.6863 181 55 181Z"/>
      </g>
    </g>
  </g>
  <g id="g-root-cp_4_g-4_dj7pbt1cc816w-stroke-fill" data-item-order="-449204" transform="translate(629.1309814453125, 278)">
    <g id="cp_4_g-4_dj7pbt1cc816w-fill" stroke="none" fill="none">
      <g>
        <path d="M 100 142.000369C 100 130.756469 94.5 119.412869 89 111.000369L 55.816 64.152469C 55.4175 63.589769 54.5825 63.589769 54.184 64.152469L 21 111.000369C 14.5 120.000369 10 130.271969 10 142.000369C 10 166.853469 30.1472 187.000469 55 187.000469C 79.8528 187.000469 100 166.853469 100 142.000369ZM 55 106.000369C 74.8822 106.000369 91 122.118169 91 142.000369C 91 161.882669 74.8822 178.000469 55 178.000469C 35.1177 178.000469 19 161.882669 19 142.000369C 19 122.118169 35.1177 106.000369 55 106.000369Z"/>
      </g>
    </g>
    <g id="cp_4_g-4_dj7pbt1cc816w-stroke" fill="none" stroke-linecap="round" stroke-linejoin="round" stroke-miterlimit="4" stroke="#43dd93" stroke-width="2">
      <g>
        <path d="M 100 142.000369C 100 130.756469 94.5 119.412869 89 111.000369L 55.816 64.152469C 55.4175 63.589769 54.5825 63.589769 54.184 64.152469L 21 111.000369C 14.5 120.000369 10 130.271969 10 142.000369C 10 166.853269 30.1472 187.000369 55 187.000369C 79.8528 187.000369 100 166.853269 100 142.000369ZM 55 106.000369C 74.8822 106.000369 91 122.118169 91 142.000369C 91 161.882669 74.8822 178.000369 55 178.000369C 35.1177 178.000369 19 161.882669 19 142.000369C 19 122.118169 35.1177 106.000369 55 106.000369Z"/>
      </g>
    </g>
    <g id="cp_4_g-4_dj7pbt1cc816w-fill" stroke="none" fill="none">
      <g>
        <path d="M 55 34C 61.6274 34 67 28.6274 67 22C 67 15.3726 61.6274 10 55 10C 48.3726 10 43 15.3726 43 22C 43 28.6274 48.3726 34 55 34ZM 55 28C 58.3137 28 61 25.3137 61 22C 61 18.6863 58.3137 16 55 16C 51.6863 16 49 18.6863 49 22C 49 25.3137 51.6863 28 55 28Z"/>
      </g>
    </g>
    <g id="cp_4_g-4_dj7pbt1cc816w-stroke" fill="none" stroke-linecap="round" stroke-linejoin="round" stroke-miterlimit="4" stroke="#43dd93" stroke-width="2">
      <g>
        <path d="M 55 34C 61.6274 34 67 28.6274 67 22C 67 15.3726 61.6274 10 55 10C 48.3726 10 43 15.3726 43 22C 43 28.6274 48.3726 34 55 34ZM 55 28C 58.3137 28 61 25.3137 61 22C 61 18.6863 58.3137 16 55 16C 51.6863 16 49 18.6863 49 22C 49 25.3137 51.6863 28 55 28Z"/>
      </g>
    </g>
  </g>
  <g id="g-root-cp_5_g-5_1ut1qt51cc83cz-stroke-fill" data-item-order="-449198" transform="translate(809.1309814453125, 125)">
    <g id="cp_5_g-5_1ut1qt51cc83cz-fill" stroke="none" fill="none">
      <g>
        <path d="M 100 55C 100 66.244 94.5 77.5875 89 86L 55.816 132.848C 55.4175 133.411 54.5825 133.411 54.184 132.848L 21 86C 14.5 77 10 66.7284 10 55C 10 30.1472 30.1472 10 55 10C 79.8528 10 100 30.1472 100 55ZM 55 91C 74.8822 91 91 74.8822 91 55C 91 35.1177 74.8822 19 55 19C 35.1177 19 19 35.1177 19 55C 19 74.8822 35.1177 91 55 91Z"/>
      </g>
    </g>
    <g id="cp_5_g-5_1ut1qt51cc83cz-stroke" fill="none" stroke-linecap="round" stroke-linejoin="round" stroke-miterlimit="4" stroke="#4f91fc" stroke-width="2">
      <g>
        <path d="M 100 55C 100 66.244 94.5 77.5875 89 86L 55.816 132.848C 55.4175 133.4106 54.5825 133.4106 54.184 132.848L 21 86C 14.5 77 10 66.7284 10 55C 10 30.1472 30.1472 10 55 10C 79.8528 10 100 30.1472 100 55ZM 55 91C 74.8822 91 91 74.8822 91 55C 91 35.1177 74.8822 19 55 19C 35.1177 19 19 35.1177 19 55C 19 74.8822 35.1177 91 55 91Z"/>
      </g>
    </g>
    <g id="cp_5_g-5_1ut1qt51cc83cz-fill" stroke="none" fill="none">
      <g>
        <path d="M 55 187C 61.6274 187 67 181.6274 67 175C 67 168.3726 61.6274 163 55 163C 48.3726 163 43 168.3726 43 175C 43 181.6274 48.3726 187 55 187ZM 55 181C 58.3137 181 61 178.3137 61 175C 61 171.6863 58.3137 169 55 169C 51.6863 169 49 171.6863 49 175C 49 178.3137 51.6863 181 55 181Z"/>
      </g>
    </g>
    <g id="cp_5_g-5_1ut1qt51cc83cz-stroke" fill="none" stroke-linecap="round" stroke-linejoin="round" stroke-miterlimit="4" stroke="#4f91fc" stroke-width="2">
      <g>
        <path d="M 55 187C 61.6274 187 67 181.6274 67 175C 67 168.3726 61.6274 163 55 163C 48.3726 163 43 168.3726 43 175C 43 181.6274 48.3726 187 55 187ZM 55 181C 58.3137 181 61 178.3137 61 175C 61 171.6863 58.3137 169 55 169C 51.6863 169 49 171.6863 49 175C 49 178.3137 51.6863 181 55 181Z"/>
      </g>
    </g>
  </g>
  <g id="g-root-tx_theladys_1hi7pix1cc81s6-stroke-fill" data-item-order="0" transform="translate(242, 50)">
    <g id="tx_theladys_1hi7pix1cc81s6-fill" stroke="none" fill="#f4f4f4">
      <g>
        <text style="font: 20px Roboto, sans-serif; white-space: pre;" font-size="20px" font-family="Roboto, sans-serif">
          <tspan x="15.62" y="34" dominant-baseline="ideographic">The Lady/Snippy Horse Mutilation: A Timeline of Events</tspan>
        </text>
      </g>
    </g>
  </g>
  <g id="g-root-ic_cnn_vbqnzt1cc80zz-stroke-fill" data-item-order="0" transform="translate(290.1310119628906, 386.0000305175781)">
    <g id="ic_cnn_vbqnzt1cc80zz-stroke" fill="none" stroke-linecap="round" stroke-linejoin="round" stroke-miterlimit="4" stroke="#f79438" stroke-width="2">
      <g>
        <path d="M 22.999992 23.99999L 20.999992 23.99999C 15.477149 23.99999 10.999999 28.47714 10.999999 33.999985M 52.999973 23.99999L 52.999973 36.999981L 45.999977 25.519991C 45.261219 24.255123 43.761837 23.648266 42.35128 24.043221C 40.940731 24.438175 39.974495 25.735407 39.999981 27.199989L 39.999981 36.999981L 32.939987 25.519991C 32.201225 24.255123 30.701845 23.648266 29.29129 24.043221C 27.880739 24.438175 26.914501 25.735407 26.939989 27.199989L 26.939989 37.999981C 26.939989 39.104549 26.044558 39.999981 24.939989 39.999981L 20.939993 39.999981C 17.626287 39.999981 14.939998 37.31369 14.939998 33.999985C 14.939998 30.686279 17.626287 27.999989 20.939993 27.999989L 22.939991 27.999989M 56.999969 23.99999L 56.999969 40.79998C 57.025455 42.264561 56.059219 43.561794 54.648666 43.956749C 53.238113 44.351704 51.738731 43.744843 50.999973 42.479977L 43.999977 30.999987L 43.999977 40.79998C 44.025463 42.264561 43.059227 43.561794 41.648674 43.956749C 40.238121 44.351704 38.738743 43.744843 37.999981 42.479977L 30.999987 30.999987L 30.999987 39.999981C 30.999987 42.209118 29.209126 43.999977 26.999989 43.999977L 20.999992 43.999977C 15.477149 43.999977 10.999999 39.522827 10.999999 33.999985"/>
      </g>
    </g>
  </g>
  <g id="g-root-tx_october5_1upxddl1ccatq8-stroke-fill" data-item-order="0" transform="translate(242, 134)">
    <g id="tx_october5_1upxddl1ccatq8-fill" stroke="none" fill="#f79438">
      <g>
        <text style="font: bold 20px Roboto, sans-serif; white-space: pre;" font-weight="bold" font-size="20px" font-family="Roboto, sans-serif">
          <tspan x="16.19" y="34" dominant-baseline="ideographic">October 5, 1967</tspan>
        </text>
      </g>
    </g>
  </g>
  <g id="g-root-tx_sensatio_1hegv091ccavb5-stroke-fill" data-item-order="0" transform="translate(254, 170)">
    <g id="tx_sensatio_1hegv091ccavb5-fill" stroke="none" fill="#f4f4f4">
      <g>
        <text style="font: 15px Roboto, sans-serif; white-space: pre;" font-size="15px" font-family="Roboto, sans-serif">
          <tspan x="20.34" y="28" dominant-baseline="ideographic">Sensational media </tspan>
          <tspan x="12.74" y="46" dominant-baseline="ideographic">coverage of the case</tspan>
        </text>
      </g>
    </g>
  </g>
  <g id="g-root-ic_3_143mtq11ccatqa-stroke-fill" data-item-order="0" transform="translate(650.1309814453125, 386)">
    <g id="ic_3_143mtq11ccatqa-stroke" fill="none" stroke-linecap="round" stroke-linejoin="round" stroke-miterlimit="4" stroke="#43dd93" stroke-width="2">
      <g>
        <path d="M 22.610001 25.880001C 22.610001 26.31741 22.964592 26.672001 23.402 26.672001C 23.839409 26.672001 24.194 26.31741 24.194 25.880001C 24.194 25.442591 23.839409 25.088001 23.402 25.088001C 22.964592 25.088001 22.610001 25.442591 22.610001 25.880001M 29.993999 25.880001C 29.993999 26.31741 30.348591 26.672001 30.786001 26.672001C 31.22341 26.672001 31.578001 26.31741 31.578001 25.880001C 31.578001 25.442591 31.22341 25.088001 30.786001 25.088001C 30.348591 25.088001 29.993999 25.442591 29.993999 25.880001M 36.543999 21.48C 36.543999 21.48 44.812 20.630001 41.048 11.112C 38.779652 13.766628 35.800041 15.717876 32.459999 16.736M 17.684 21.897999C 17.684 21.897999 9.214 20.630001 12.978 11.112C 15.31531 13.771955 18.353682 15.720839 21.746 16.736M 20.104 33.799999C 18.807915 31.68853 17.991982 29.317886 17.714001 26.856001C 15.655352 27.703371 13.350563 27.731277 11.272 26.934C 11.272 20.6 17.6 21.66 17.6 21.66C 19.110226 17.756948 22.910347 15.224068 27.094 15.332001C 31.277655 15.224068 35.077774 17.756948 36.588001 21.66C 36.587997 21.66 42.916 20.605999 42.916 26.934C 40.836769 27.731401 38.531319 27.703495 36.472 26.856001C 36.204178 29.19857 35.455185 31.460529 34.271999 33.5M 56.354 51.754002C 56.903629 52.853874 56.844624 54.159901 56.198059 55.205727C 55.551498 56.251556 54.409557 56.888077 53.180004 56.888004L 36.278 56.888C 35.047989 56.889198 33.905212 56.252895 33.258408 55.206676C 32.611603 54.160458 32.553165 52.853779 33.104 51.754002L 41.556 34.849998C 42.156124 33.647175 43.384777 32.887093 44.729 32.887093C 46.073223 32.887093 47.30188 33.647175 47.902 34.849998ZM 44.728001 50.888C 45.142216 50.888 45.478001 51.223789 45.478001 51.638C 45.478001 52.052216 45.142216 52.388 44.728001 52.388C 44.313789 52.388 43.978001 52.052216 43.978001 51.638C 43.97747 51.438927 44.056316 51.247852 44.197083 51.107086C 44.337852 50.966316 44.528927 50.88747 44.728001 50.888004M 44.728001 46.388L 44.728001 40.388M 18.704 37.188C 18.703129 40.612606 22.571644 43.38913 27.344 43.38913C 32.116356 43.38913 35.984871 40.612606 35.984001 37.187996C 35.984871 33.76339 32.116356 30.986866 27.344 30.986866C 22.571644 30.986866 18.703129 33.76339 18.704 37.187996M 25.386 36.571999L 25.386 37.968002M 29.058001 36.571999L 29.058001 37.968002"/>
      </g>
    </g>
  </g>
  <g id="g-root-tx_2019_1cuwid51ccdouj-stroke-fill" data-item-order="0" transform="translate(698, 134)">
    <g id="tx_2019_1cuwid51ccdouj-fill" stroke="none" fill="#43dd93">
      <g>
        <text style="font: bold 20px Roboto, sans-serif; white-space: pre;" font-weight="bold" font-size="20px" font-family="Roboto, sans-serif">
          <tspan x="17.05" y="34" dominant-baseline="ideographic">2019</tspan>
        </text>
      </g>
    </g>
  </g>
  <g id="g-root-tx_mutilati_zk2h2x1ccdn9o-stroke-fill" data-item-order="0" transform="translate(602, 170)">
    <g id="tx_mutilati_zk2h2x1ccdn9o-fill" stroke="none" fill="#f4f4f4">
      <g>
        <text style="font: 15px Roboto, sans-serif; white-space: pre;" font-size="15px" font-family="Roboto, sans-serif">
          <tspan x="17.7" y="28" dominant-baseline="ideographic">Mutilation of bulls at </tspan>
          <tspan x="20.3" y="46" dominant-baseline="ideographic">Silvies Valley Ranch</tspan>
        </text>
      </g>
    </g>
  </g>
  <g id="g-root-tx_septembe_hssgl51ccdpmt-stroke-fill" data-item-order="0" transform="translate(86, 374)">
    <g id="tx_septembe_hssgl51ccdpmt-fill" stroke="none" fill="#fb6762">
      <g>
        <text style="font: bold 20px Roboto, sans-serif; white-space: pre;" font-weight="bold" font-size="20px" font-family="Roboto, sans-serif">
          <tspan x="13.51" y="34" dominant-baseline="ideographic">September 9, </tspan>
          <tspan x="50.55" y="58" dominant-baseline="ideographic">1967</tspan>
        </text>
      </g>
    </g>
  </g>
  <g id="g-root-tx_discover_4hyfax1ccdo1y-stroke-fill" data-item-order="0" transform="translate(50, 434)">
    <g id="tx_discover_4hyfax1ccdo1y-fill" stroke="none" fill="#f4f4f4">
      <g>
        <text style="font: 15px Roboto, sans-serif; white-space: pre;" font-size="15px" font-family="Roboto, sans-serif">
          <tspan x="28.69" y="31" dominant-baseline="ideographic">Discovery of Lady's </tspan>
          <tspan x="13.38" y="49" dominant-baseline="ideographic">mutilated body by Harry </tspan>
          <tspan x="77.73" y="67" dominant-baseline="ideographic">King</tspan>
        </text>
      </g>
    </g>
  </g>
  <g id="g-root-ic_hors_1q7lywp1ccdpfr-stroke-fill" data-item-order="0" transform="translate(110.1309814453125, 146)">
    <g id="ic_hors_1q7lywp1ccdpfr-stroke" fill="none" stroke-linecap="round" stroke-linejoin="round" stroke-miterlimit="4" stroke="#fb6762" stroke-width="2">
      <g>
        <path d="M 18.75 43.722L 17.35 44.624001L 17.35 49.332001C 17.35 50.712711 16.230713 51.832001 14.85 51.832001C 13.469288 51.832001 12.35 50.712711 12.35 49.332001L 12.35 43.262001C 12.349861 42.412086 12.78153 41.620316 13.496 41.16L 16.200001 39.416M 39.924 47.599998L 40.832001 52.220001C 41.084938 53.568771 40.203384 54.869305 38.856853 55.133892C 37.510319 55.398479 36.202213 54.528198 35.926003 53.184002L 34.756001 47.226002M 46.716 29.858L 47.515999 29.858C 50.069584 29.858309 52.349728 31.457287 53.219997 33.858002L 55.82 40.989998M 37.492001 36.164001C 37.6012 39.133163 39.375732 41.786835 42.077999 43.021996C 42.077999 43.021999 44.014 50.001999 44.217999 50.394001L 46.666 55.068001C 47.1786 56.047161 48.272915 56.57399 49.358002 56.364002C 49.595505 56.316536 49.825111 56.235737 50.039997 56.123997C 50.627964 55.816597 51.069618 55.288082 51.267689 54.654861C 51.465755 54.021641 51.403992 53.335655 51.096001 52.748001L 48.959999 48.672001C 48.959999 48.672001 49.282001 40.384003 49.243999 40.190002M 49.243999 40.200001L 49.243999 37.200001C 49.243999 33.152 47.222 27.084 40.139999 29.108C 33.057999 31.132 31.035999 29.108 31.035999 29.108L 28.768 18.950001C 28.447388 17.514601 27.588381 16.256872 26.368 15.436L 26.368 15.436L 24.788 11.436C 24.693844 11.242112 24.500244 11.116138 24.284836 11.108594C 24.069427 11.10105 23.867489 11.213174 23.76 11.4L 21.049999 15.894L 13.366 19.894001C 12.379021 20.342333 11.91982 21.488132 12.324 22.493999L 12.85 23.807999C 13.054729 24.318026 13.457873 24.722996 13.966969 24.930029C 14.476063 25.137062 15.047422 25.128387 15.55 24.906L 17.414 24.026001C 18.630455 25.227139 20.532524 25.384663 21.93 24.4L 19.529999 35.139999C 19.067951 38.074539 20.299843 41.018852 22.714001 42.75L 21.582001 48.75C 21.479156 49.180164 21.490879 49.629776 21.615999 50.053997L 23.122 55.110001C 23.438068 56.171513 24.414433 56.898907 25.521999 56.898003C 25.764395 56.897511 26.005484 56.862495 26.237999 56.793999C 26.873785 56.605125 27.408358 56.171162 27.723877 55.587772C 28.039394 55.004379 28.109953 54.319462 27.92 53.683998L 26.6 49.265999C 26.6 49.265999 27.35 46.678001 27.889999 44.764C 28.224623 43.572067 29.311987 42.748775 30.549999 42.75L 41.113998 42.75"/>
      </g>
    </g>
  </g>
  <g id="g-root-tx_1975_74pvd1ccf1mo-stroke-fill" data-item-order="0" transform="translate(518, 374)">
    <g id="tx_1975_74pvd1ccf1mo-fill" stroke="none" fill="#ffe711">
      <g>
        <text style="font: bold 20px Roboto, sans-serif; white-space: pre;" font-weight="bold" font-size="20px" font-family="Roboto, sans-serif">
          <tspan x="17.05" y="34" dominant-baseline="ideographic">1975</tspan>
        </text>
      </g>
    </g>
  </g>
  <g id="g-root-tx_colorado_1lws9h51ccf30h-stroke-fill" data-item-order="0" transform="translate(422, 410)">
    <g id="tx_colorado_1lws9h51ccf30h-fill" stroke="none" fill="#f4f4f4">
      <g>
        <text style="font: 15px Roboto, sans-serif; white-space: pre;" font-size="15px" font-family="Roboto, sans-serif">
          <tspan x="16.63" y="31" dominant-baseline="ideographic">Colorado Associated </tspan>
          <tspan x="26.63" y="49" dominant-baseline="ideographic">Press votes cattle </tspan>
          <tspan x="17.41" y="67" dominant-baseline="ideographic">mutilations top story</tspan>
        </text>
      </g>
    </g>
  </g>
  <g id="g-root-ic_2_18ly86x1ccf1fm-stroke-fill" data-item-order="0" transform="translate(470.1310119628906, 146)">
    <g id="ic_2_18ly86x1ccf1fm-stroke" fill="none" stroke-linecap="round" stroke-linejoin="round" stroke-miterlimit="4" stroke="#ffe711" stroke-width="2">
      <g>
        <path d="M 29.367987 24.99999C 29.367987 25.552275 29.815702 25.999989 30.367987 25.999989C 30.920271 25.999989 31.367987 25.552275 31.367987 24.99999C 31.367987 24.447706 30.920271 23.99999 30.367987 23.99999C 29.815702 23.99999 29.367987 24.447706 29.367987 24.99999M 36.367981 24.99999C 36.367981 25.552275 36.815697 25.999989 37.367981 25.999989C 37.920265 25.999989 38.367981 25.552275 38.367981 24.99999C 38.367981 24.447706 37.920265 23.99999 37.367981 23.99999C 36.815697 23.99999 36.367981 24.447706 36.367981 24.99999M 24.90999 20.827993C 24.90999 20.827993 16.867996 19.999994 18.867994 10.999999C 21.867992 13.999997 24.817989 16.999996 27.933989 16.905996M 42.827976 20.827993C 42.827976 20.827993 50.867973 19.999994 48.867973 10.999999C 45.867977 13.999997 42.919975 16.999996 39.803982 16.905996M 33.867985 14.999997C 37.83345 14.900703 41.434456 17.301373 42.867977 20.999992C 42.867977 20.999992 48.867973 19.999994 48.867973 25.999989C 46.897247 26.756311 44.711803 26.729834 42.759979 25.925991C 42.759975 25.925989 41.867981 40.999981 33.867985 40.999981C 25.86799 40.999981 24.977989 25.925989 24.977989 25.925989C 23.025454 26.729757 20.839424 26.756231 18.867994 25.999989C 18.867994 19.999994 24.86799 20.999992 24.86799 20.999992C 26.301514 17.301373 29.902517 14.900703 33.867985 14.999997ZM 26.599989 33.999985C 31.332537 32.544018 36.393433 32.544018 41.12598 33.999985M 10.999999 47.999973L 56.999969 47.999973M 13.883998 44.999977L 13.883998 56.999969M 23.883991 44.999977L 23.883991 56.999969M 33.883984 44.999977L 33.883984 56.999969M 43.883976 44.999977L 43.883976 56.999969M 53.883968 44.999977L 53.883968 56.999969M 10.999999 53.999969L 56.999969 53.999969"/>
      </g>
    </g>
  </g>
  <g id="g-root-tx_2023_zmkdfd1cchvr7-stroke-fill" data-item-order="0" transform="translate(878, 374)">
    <g id="tx_2023_zmkdfd1cchvr7-fill" stroke="none" fill="#4f91fc">
      <g>
        <text style="font: bold 20px Roboto, sans-serif; white-space: pre;" font-weight="bold" font-size="20px" font-family="Roboto, sans-serif">
          <tspan x="17.05" y="34" dominant-baseline="ideographic">2023</tspan>
        </text>
      </g>
    </g>
  </g>
  <g id="g-root-tx_document_mb3v211cchxc4-stroke-fill" data-item-order="0" transform="translate(770, 410)">
    <g id="tx_document_mb3v211cchxc4-fill" stroke="none" fill="#f4f4f4">
      <g>
        <text style="font: 15px Roboto, sans-serif; white-space: pre;" font-size="15px" font-family="Roboto, sans-serif">
          <tspan x="17" y="31" dominant-baseline="ideographic">Documentary by Weird </tspan>
          <tspan x="24.91" y="49" dominant-baseline="ideographic">Reads examines the </tspan>
          <tspan x="52.06" y="67" dominant-baseline="ideographic">Snippy case</tspan>
        </text>
      </g>
    </g>
    <defs>
      <pattern id="crawlingPattern-0000001b" x="0" y="0" width="12" height="12" patternUnits="userSpaceOnUse" fill="#0000001b">
        <use href="#crawlingSymbol"/>
      </pattern>
      <symbol id="crawlingSymbol">
        <g>
          <path d="M -12.5 12.5 l 13 -13 l 6 0 l -13 13 Z M -0.5 12.5 l 13 -13 l 6 0 l -13 13 Z M 11.5 12.5 l 13 -13 l 6 0 l -13 13 Z"/>
        </g>
      </symbol>
      <pattern id="crawlingPattern-f17400d3" x="0" y="0" width="12" height="12" patternUnits="userSpaceOnUse" fill="#f17400d3">
        <use href="#crawlingSymbol"/>
      </pattern>
      <pattern id="crawlingPattern-00b15c75" x="0" y="0" width="12" height="12" patternUnits="userSpaceOnUse" fill="#00b15c75">
        <use href="#crawlingSymbol"/>
      </pattern>
      <pattern id="crawlingPattern-f9080081" x="0" y="0" width="12" height="12" patternUnits="userSpaceOnUse" fill="#f9080081">
        <use href="#crawlingSymbol"/>
      </pattern>
      <pattern id="crawlingPattern-ddc700ff" x="0" y="0" width="12" height="12" patternUnits="userSpaceOnUse" fill="#ddc700ff">
        <use href="#crawlingSymbol"/>
      </pattern>
      <pattern id="crawlingPattern-0060fba2" x="0" y="0" width="12" height="12" patternUnits="userSpaceOnUse" fill="#0060fba2">
        <use href="#crawlingSymbol"/>
      </pattern>
    </defs>
  </g>
  <g id="g-root-ic_2_909trt1cchvr9-stroke-fill" data-item-order="0" transform="translate(830.1309814453125, 146)">
    <g id="ic_2_909trt1cchvr9-stroke" fill="none" stroke-linecap="round" stroke-linejoin="round" stroke-miterlimit="4" stroke="#4f91fc" stroke-width="2">
      <g>
        <path d="M 13 11L 55 11C 55 11 57 11 57 13L 57 55C 57 55 57 57 55 57L 13 57C 13 57 11 57 11 55L 11 13C 11 13 11 11 13 11M 33 47L 33 37L 37 47L 37 37M 37 31L 37 23C 37 21.895432 37.895432 21 39 21C 40.104568 21 41 21.895432 41 23L 41 31M 37 27L 41 27M 21 31C 23.209139 31 25 29.209139 25 27L 25 25C 25 22.790861 23.209139 21 21 21ZM 41 47C 43.209141 47 45 45.209141 45 43L 45 41C 45 38.790863 43.209141 37 41 37ZM 45 31C 47.209141 31 49 29.209139 49 27L 49 25C 49 22.790861 47.209141 21 45 21ZM 33 31L 31 31C 29.89543 31 29 30.10457 29 29L 29 23C 29 21.895432 29.89543 21 31 21L 33 21M 29 27L 33 27M 29 47L 27 47C 25.895432 47 25 46.104568 25 45L 25 39C 25 37.895432 25.895432 37 27 37L 29 37M 25 43L 29 43"/>
      </g>
    </g>
  </g>
</svg>
