<svg width="912" height="696" viewBox="0 0 912 696" style="fill:none;stroke:none;fill-rule:evenodd;clip-rule:evenodd;stroke-linecap:round;stroke-linejoin:round;stroke-miterlimit:1.5;" version="1.1" xmlns="http://www.w3.org/2000/svg" xmlns:xlink="http://www.w3.org/1999/xlink"><style class="text-font-style fontImports" data-font-family="Roboto">@import url('https://fonts.googleapis.com/css2?family=Roboto:wght@400;700&amp;display=block');</style><g id="g-root-tf_1lxewpm19uhc7g-stroke-fill" data-item-order="-596736" transform="translate(12.000213623046875, 12)"></g><g id="g-root-sy_4_cu_141rkm219uhb7r-stroke-fill" data-item-order="-377561" transform="translate(601.9998168945312, 392.0119934082031)"><g id="sy_4_cu_141rkm219uhb7r-stroke" fill="none" stroke-linecap="round" stroke-linejoin="round" stroke-miterlimit="4" stroke="#8769fd" stroke-width="2"><g><path d="M 33.850976 147.988007L 45.850976 147.988007M 58.200976 63.988007L 70.200976 63.988007M 9.999976 231.988007L 21.999976 231.988007L 86.259976 10.000007"></path></g></g><g id="sy_4_cu_141rkm219uhb7r-stroke-overlay" fill="none" stroke-linecap="round" stroke-linejoin="round" stroke-miterlimit="4" stroke="#3300fc5e" stroke-width="2" stroke-dasharray="4,6"><animate attributeName="stroke-dashoffset" values="30;0" dur="1s" repeatCount="indefinite" begin="0"></animate><g><path d="M 33.850976 147.988007L 45.850976 147.988007M 58.200976 63.988007L 70.200976 63.988007M 9.999976 231.988007L 21.999976 231.988007L 86.259976 10.000007"></path></g></g></g><g id="g-root-sy_3_cu_141rkm219uhb7s-stroke-fill" data-item-order="-377557" transform="translate(601.9998168945312, 158)"><g id="sy_3_cu_141rkm219uhb7s-stroke" fill="none" stroke-linecap="round" stroke-linejoin="round" stroke-miterlimit="4" stroke="#cb68f9" stroke-width="2"><g><path d="M 33.846976 94L 45.846976 94M 58.195976 178L 70.195976 178M 9.999976 10L 21.999976 10L 86.264976 232.006"></path></g></g><g id="sy_3_cu_141rkm219uhb7s-stroke-overlay" fill="none" stroke-linecap="round" stroke-linejoin="round" stroke-miterlimit="4" stroke="#a700f55c" stroke-width="2" stroke-dasharray="4,6"><animate attributeName="stroke-dashoffset" values="30;0" dur="1s" repeatCount="indefinite" begin="0"></animate><g><path d="M 33.846976 94L 45.846976 94M 58.195976 178L 70.195976 178M 9.999976 10L 21.999976 10L 86.264976 232.006"></path></g></g></g><g id="g-root-sy_2_cu_zly2hm19uhc01-stroke-fill" data-item-order="-377553" transform="translate(337.9997863769531, 391.99798583984375)"><g id="sy_2_cu_zly2hm19uhc01-stroke" fill="none" stroke-linecap="round" stroke-linejoin="round" stroke-miterlimit="4" stroke="#1ac3fb" stroke-width="2"><g><path d="M 33.852006 148.002014L 45.852006 148.002014M 58.201006 64.002014L 70.201006 64.002014M 10.000006 232.002014L 22.000006 232.002014L 86.264006 10.000014"></path></g></g><g id="sy_2_cu_zly2hm19uhc01-stroke-overlay" fill="none" stroke-linecap="round" stroke-linejoin="round" stroke-miterlimit="4" stroke="#00ade7d7" stroke-width="2" stroke-dasharray="4,6"><animate attributeName="stroke-dashoffset" values="30;0" dur="1s" repeatCount="indefinite" begin="0"></animate><g><path d="M 33.852006 148.002014L 45.852006 148.002014M 58.201006 64.002014L 70.201006 64.002014M 10.000006 232.002014L 22.000006 232.002014L 86.264006 10.000014"></path></g></g></g><g id="g-root-sy_1_cu_qqb28q19uhcsq-stroke-fill" data-item-order="-377549" transform="translate(337.9997863769531, 158)"><g id="sy_1_cu_qqb28q19uhcsq-stroke" fill="none" stroke-linecap="round" stroke-linejoin="round" stroke-miterlimit="4" stroke="#b7b7b7" stroke-width="2"><g><path d="M 33.852006 94L 45.852006 94M 58.201006 178L 70.201006 178M 10.000006 10L 22.000006 10L 86.265006 232.006"></path></g></g><g id="sy_1_cu_qqb28q19uhcsq-stroke-overlay" fill="none" stroke-linecap="round" stroke-linejoin="round" stroke-miterlimit="4" stroke="#0000001b" stroke-width="2" stroke-dasharray="4,6"><animate attributeName="stroke-dashoffset" values="30;0" dur="1s" repeatCount="indefinite" begin="0"></animate><g><path d="M 33.852006 94L 45.852006 94M 58.201006 178L 70.201006 178M 10.000006 10L 22.000006 10L 86.265006 232.006"></path></g></g></g><g id="g-root-sy_0_cu_mb417e19uhaf7-stroke-fill" data-item-order="-377546" transform="translate(721.9998168945312, 301.9996643066406)"><g id="sy_0_cu_mb417e19uhaf7-fill" stroke="none" fill="none"><g><path d="M 24.440976 173.852336C 19.857976 164.112336 9.999976 137.992336 9.999976 93.474336C 9.999976 50.532336 19.171976 24.708336 23.934976 14.192336C 25.467976 10.808336 29.134976 9.241336 32.670976 10.355336C 42.075976 13.318336 61.681976 20.789336 84.423976 36.956336C 111.181976 55.977336 134.216976 81.301336 140.984976 89.014336C 142.207976 90.408336 142.364976 92.403336 141.244976 93.882336C 138.129976 97.996336 130.614976 106.367336 116.801976 113.455336L 132.539976 113.455336C 133.970976 113.455336 134.774976 115.038336 133.882976 116.160336C 128.268976 123.220336 111.324976 142.742336 84.423976 158.381336C 59.929976 172.621336 40.388976 176.660336 31.670976 177.802336C 28.609976 178.203336 25.757976 176.651336 24.440976 173.852336ZM 77.764976 95.682336C 87.979976 95.682336 96.260976 87.379336 96.260976 77.137336C 96.260976 66.895336 87.979976 58.592336 77.764976 58.592336C 67.549976 58.592336 59.268976 66.895336 59.268976 77.137336C 59.268976 87.379336 67.549976 95.682336 77.764976 95.682336ZM 74.242946 77.136336C 74.242987 79.087208 75.820301 80.668699 77.766017 80.668699C 79.711733 80.668699 81.289047 79.087208 81.289047 77.136339C 81.289047 75.185471 79.711733 73.603979 77.766017 73.603979C 75.820301 73.603979 74.242987 75.185471 74.242987 77.136339"></path></g></g><g id="sy_0_cu_mb417e19uhaf7-stroke" fill="none" stroke-linecap="round" stroke-linejoin="round" stroke-miterlimit="4" stroke="#d3d3d3" stroke-width="2"><g><path d="M 24.440976 173.852336C 19.857976 164.112336 9.999976 137.992336 9.999976 93.474336C 9.999976 50.532336 19.171976 24.708336 23.934976 14.192336C 25.467976 10.808336 29.134976 9.241336 32.670976 10.355336C 42.075976 13.318336 61.681976 20.789336 84.423976 36.956336C 111.181976 55.977336 134.216976 81.301336 140.984976 89.014336C 142.207976 90.408336 142.364976 92.403336 141.244976 93.882336C 138.129976 97.996336 130.614976 106.367336 116.801976 113.455336L 132.539976 113.455336C 133.970976 113.455336 134.774976 115.038336 133.882976 116.160336C 128.268976 123.220336 111.324976 142.742336 84.423976 158.381336C 59.929976 172.621336 40.388976 176.660336 31.670976 177.802336C 28.609976 178.203336 25.757976 176.651336 24.440976 173.852336ZM 77.764976 95.682336C 87.979976 95.682336 96.260976 87.379336 96.260976 77.137336C 96.260976 66.895336 87.979976 58.592336 77.764976 58.592336C 67.549976 58.592336 59.268976 66.895336 59.268976 77.137336C 59.268976 87.379336 67.549976 95.682336 77.764976 95.682336ZM 74.242946 77.136336C 74.242987 79.087208 75.820301 80.668699 77.766017 80.668699C 79.711733 80.668699 81.289047 79.087208 81.289047 77.136339C 81.289047 75.185471 79.711733 73.603979 77.766017 73.603979C 75.820301 73.603979 74.242987 75.185471 74.242987 77.136339"></path></g></g><g id="sy_0_cu_mb417e19uhaf7-stroke-overlay" fill="none" stroke-linecap="round" stroke-linejoin="round" stroke-miterlimit="4" stroke="#1010101a" stroke-width="2" stroke-dasharray="4,6"><animate attributeName="stroke-dashoffset" values="30;0" dur="1s" repeatCount="indefinite" begin="0"></animate><g><path d="M 24.440976 173.852336C 19.857976 164.112336 9.999976 137.992336 9.999976 93.474336C 9.999976 50.532336 19.171976 24.708336 23.934976 14.192336C 25.467976 10.808336 29.134976 9.241336 32.670976 10.355336C 42.075976 13.318336 61.681976 20.789336 84.423976 36.956336C 111.181976 55.977336 134.216976 81.301336 140.984976 89.014336C 142.207976 90.408336 142.364976 92.403336 141.244976 93.882336C 138.129976 97.996336 130.614976 106.367336 116.801976 113.455336L 132.539976 113.455336C 133.970976 113.455336 134.774976 115.038336 133.882976 116.160336C 128.268976 123.220336 111.324976 142.742336 84.423976 158.381336C 59.929976 172.621336 40.388976 176.660336 31.670976 177.802336C 28.609976 178.203336 25.757976 176.651336 24.440976 173.852336ZM 77.764976 95.682336C 87.979976 95.682336 96.260976 87.379336 96.260976 77.137336C 96.260976 66.895336 87.979976 58.592336 77.764976 58.592336C 67.549976 58.592336 59.268976 66.895336 59.268976 77.137336C 59.268976 87.379336 67.549976 95.682336 77.764976 95.682336ZM 74.242946 77.136336C 74.242987 79.087208 75.820301 80.668699 77.766017 80.668699C 79.711733 80.668699 81.289047 79.087208 81.289047 77.136339C 81.289047 75.185471 79.711733 73.603979 77.766017 73.603979C 75.820301 73.603979 74.242987 75.185471 74.242987 77.136339"></path></g></g><g id="sy_0_cu_mb417e19uhaf7-stroke" fill="none" stroke-linecap="round" stroke-linejoin="round" stroke-miterlimit="4" stroke="#d3d3d3" stroke-width="2"><g><path d="M 34.333976 146.459336C 16.539976 113.641336 16.555976 73.693336 34.379976 40.887336"></path></g></g><g id="sy_0_cu_mb417e19uhaf7-stroke-overlay" fill="none" stroke-linecap="round" stroke-linejoin="round" stroke-miterlimit="4" stroke="#1010101a" stroke-width="2" stroke-dasharray="4,6"><animate attributeName="stroke-dashoffset" values="30;0" dur="1s" repeatCount="indefinite" begin="0"></animate><g><path d="M 34.333976 146.459336C 16.539976 113.641336 16.555976 73.693336 34.379976 40.887336"></path></g></g></g><g id="g-root-sy_0_cu_1_dfh0yi19uhb7w-stroke-fill" data-item-order="-377544" transform="translate(26.000213623046875, 289.999755859375)"><g id="sy_0_cu_1_dfh0yi19uhb7w-fill" stroke="none" fill="none"><g><path d="M 76.372179 41.008244C 50.965679 22.519244 29.057279 13.958244 18.516479 10.554244C -8.304021 1.893244 36.423879 97.486244 40.539479 105.747244L 40.539479 106.255244C 36.510379 114.515244 -8.241241 210.089244 18.516479 201.448244C 29.057279 198.044244 50.965679 189.484244 76.372179 170.994244C 109.078579 147.191244 126.841579 112.514244 129.614579 106.811244C 129.869579 106.287244 129.869579 105.721244 129.614579 105.197244C 126.841579 99.493244 109.079579 64.811244 76.372179 41.008244Z"></path></g></g><g id="sy_0_cu_1_dfh0yi19uhb7w-stroke" fill="none" stroke-linecap="round" stroke-linejoin="round" stroke-miterlimit="4" stroke="#d3d3d3" stroke-width="2"><g><path d="M 76.372179 41.008244C 50.965679 22.519244 29.057279 13.958244 18.516479 10.554244C -8.304021 1.893244 36.423879 97.486244 40.539479 105.747244L 40.539479 106.255244C 36.510379 114.515244 -8.241241 210.089244 18.516479 201.448244C 29.057279 198.044244 50.965679 189.484244 76.372179 170.994244C 109.078579 147.191244 126.841579 112.514244 129.614579 106.811244C 129.869579 106.287244 129.869579 105.721244 129.614579 105.197244C 126.841579 99.493244 109.079579 64.811244 76.372179 41.008244Z"></path></g></g><g id="sy_0_cu_1_dfh0yi19uhb7w-stroke-overlay" fill="none" stroke-linecap="round" stroke-linejoin="round" stroke-miterlimit="4" stroke="#1010101a" stroke-width="2" stroke-dasharray="4,6"><animate attributeName="stroke-dashoffset" values="30;0" dur="1s" repeatCount="indefinite" begin="0"></animate><g><path d="M 76.372179 41.008244C 50.965679 22.519244 29.057279 13.958244 18.516479 10.554244C -8.304021 1.893244 36.423879 97.486244 40.539479 105.747244L 40.539479 106.255244C 36.510379 114.515244 -8.241241 210.089244 18.516479 201.448244C 29.057279 198.044244 50.965679 189.484244 76.372179 170.994244C 109.078579 147.191244 126.841579 112.514244 129.614579 106.811244C 129.869579 106.287244 129.869579 105.721244 129.614579 105.197244C 126.841579 99.493244 109.079579 64.811244 76.372179 41.008244Z"></path></g></g><g id="sy_0_cu_1_dfh0yi19uhb7w-stroke" fill="none" stroke-linecap="round" stroke-linejoin="round" stroke-miterlimit="4" stroke="#d3d3d3" stroke-width="2"><g><path d="M 22.273379 16.467244C 30.982979 19.660244 49.085179 27.690244 70.077779 45.035244C 98.336579 68.382244 113.093579 102.668244 114.306579 105.566244C 114.367579 105.711244 114.388579 105.844244 114.388579 106.001244L 114.388579 106.001244C 114.388579 106.159244 114.367579 106.291244 114.306579 106.436244C 113.093579 109.335244 98.336579 143.620244 70.077779 166.968244C 49.085179 184.312244 30.982979 192.343244 22.273379 195.536244"></path></g></g><g id="sy_0_cu_1_dfh0yi19uhb7w-stroke-overlay" fill="none" stroke-linecap="round" stroke-linejoin="round" stroke-miterlimit="4" stroke="#1010101a" stroke-width="2" stroke-dasharray="4,6"><animate attributeName="stroke-dashoffset" values="30;0" dur="1s" repeatCount="indefinite" begin="0"></animate><g><path d="M 22.273379 16.467244C 30.982979 19.660244 49.085179 27.690244 70.077779 45.035244C 98.336579 68.382244 113.093579 102.668244 114.306579 105.566244C 114.367579 105.711244 114.388579 105.844244 114.388579 106.001244L 114.388579 106.001244C 114.388579 106.159244 114.367579 106.291244 114.306579 106.436244C 113.093579 109.335244 98.336579 143.620244 70.077779 166.968244C 49.085179 184.312244 30.982979 192.343244 22.273379 195.536244"></path></g></g></g><g id="g-root-sy_0_cu_2_8zniu219uhc05-stroke-fill" data-item-order="-377542" transform="translate(144.52178955078125, 380)"><g id="sy_0_cu_2_8zniu219uhc05-fill" stroke="none" fill="none"><g><path d="M 587.478003 22L 587.478003 10L 266.879003 10L 10.000003 13L 11.483003 16L 10.000003 19L 267.207003 22L 587.478003 22Z"></path></g></g><g id="sy_0_cu_2_8zniu219uhc05-stroke" fill="none" stroke-linecap="round" stroke-linejoin="round" stroke-miterlimit="4" stroke="#d3d3d3" stroke-width="2"><g><path d="M 587.478003 22L 587.478003 10L 266.879003 10L 10.000003 13L 11.483003 16L 10.000003 19L 267.207003 22L 587.478003 22Z"></path></g></g><g id="sy_0_cu_2_8zniu219uhc05-stroke-overlay" fill="none" stroke-linecap="round" stroke-linejoin="round" stroke-miterlimit="4" stroke="#1010101a" stroke-width="2" stroke-dasharray="4,6"><animate attributeName="stroke-dashoffset" values="30;0" dur="1s" repeatCount="indefinite" begin="0"></animate><g><path d="M 587.478003 22L 587.478003 10L 266.879003 10L 10.000003 13L 11.483003 16L 10.000003 19L 267.207003 22L 587.478003 22Z"></path></g></g></g><g id="g-root-tx_unresolv_40il619uhcsu-stroke-fill" data-item-order="0" transform="translate(709.9998168945312, 158)"><g id="tx_unresolv_40il619uhcsu-fill" stroke="none" fill="#f4f4f4"><g><text style="font: 20px Roboto, sans-serif; white-space: pre;" font-size="20px" font-family="Roboto, sans-serif"><tspan x="35.9" y="34" dominant-baseline="ideographic">Unresolved </tspan><tspan x="13.8" y="58" dominant-baseline="ideographic">Mysteries of the </tspan><tspan x="31.1" y="82" dominant-baseline="ideographic">Lakenheath-</tspan><tspan x="35.12" y="106" dominant-baseline="ideographic">Bentwaters </tspan><tspan x="49.87" y="130" dominant-baseline="ideographic">Incident</tspan></text></g></g><g id="tx_unresolv_40il619uhcsu-fill-overlay" stroke="none" fill="url(#crawlingPattern-0000001b)"><g><text style="font: 20px Roboto, sans-serif; white-space: pre;" font-size="20px" font-family="Roboto, sans-serif"><tspan x="35.9" y="34" dominant-baseline="ideographic">Unresolved </tspan><tspan x="13.8" y="58" dominant-baseline="ideographic">Mysteries of the </tspan><tspan x="31.1" y="82" dominant-baseline="ideographic">Lakenheath-</tspan><tspan x="35.12" y="106" dominant-baseline="ideographic">Bentwaters </tspan><tspan x="49.87" y="130" dominant-baseline="ideographic">Incident</tspan></text></g></g></g><g id="g-root-tx_insuffic_1luaja219uhb0v-stroke-fill" data-item-order="0" transform="translate(421.99981689453125, 422)"><g id="tx_insuffic_1luaja219uhb0v-fill" stroke="none" fill="#f4f4f4"><g><text style="font: 20px Roboto, sans-serif; white-space: pre;" font-size="20px" font-family="Roboto, sans-serif"><tspan x="125.56" y="34" dominant-baseline="ideographic">Insufficient </tspan><tspan x="16.66" y="58" dominant-baseline="ideographic">Declassification Efforts</tspan></text></g></g><g id="tx_insuffic_1luaja219uhb0v-fill-overlay" stroke="none" fill="url(#crawlingPattern-0000001b)"><g><text style="font: 20px Roboto, sans-serif; white-space: pre;" font-size="20px" font-family="Roboto, sans-serif"><tspan x="125.56" y="34" dominant-baseline="ideographic">Insufficient </tspan><tspan x="16.66" y="58" dominant-baseline="ideographic">Declassification Efforts</tspan></text></g></g></g><g id="g-root-tx_limitedm_1heh15m19uhbt4-stroke-fill" data-item-order="0" transform="translate(397.99981689453125, 506)"><g id="tx_limitedm_1heh15m19uhbt4-fill" stroke="none" fill="#f4f4f4"><g><text style="font: 20px Roboto, sans-serif; white-space: pre;" font-size="20px" font-family="Roboto, sans-serif"><tspan x="19.39" y="34" dominant-baseline="ideographic">Limited Meteorological </tspan><tspan x="149.19" y="58" dominant-baseline="ideographic">Analysis</tspan></text></g></g><g id="tx_limitedm_1heh15m19uhbt4-fill-overlay" stroke="none" fill="url(#crawlingPattern-0000001b)"><g><text style="font: 20px Roboto, sans-serif; white-space: pre;" font-size="20px" font-family="Roboto, sans-serif"><tspan x="19.39" y="34" dominant-baseline="ideographic">Limited Meteorological </tspan><tspan x="149.19" y="58" dominant-baseline="ideographic">Analysis</tspan></text></g></g></g><g id="g-root-tx_analytic_143mzve19uha89-stroke-fill" data-item-order="0" transform="translate(385.99981689453125, 602)"><g id="tx_analytic_143mzve19uha89-fill" stroke="none" fill="#f4f4f4"><g><text style="font: 20px Roboto, sans-serif; white-space: pre;" font-size="20px" font-family="Roboto, sans-serif"><tspan x="20.48" y="34" dominant-baseline="ideographic">Analytical Limitations</tspan></text></g></g><g id="tx_analytic_143mzve19uha89-fill-overlay" stroke="none" fill="url(#crawlingPattern-0000001b)"><g><text style="font: 20px Roboto, sans-serif; white-space: pre;" font-size="20px" font-family="Roboto, sans-serif"><tspan x="20.48" y="34" dominant-baseline="ideographic">Analytical Limitations</tspan></text></g></g></g><g id="g-root-tx_historic_znthqy19uhb0i-stroke-fill" data-item-order="0" transform="translate(469.99981689453125, 314)"><g id="tx_historic_znthqy19uhb0i-fill" stroke="none" fill="#f4f4f4"><g><text style="font: 20px Roboto, sans-serif; white-space: pre;" font-size="20px" font-family="Roboto, sans-serif"><tspan x="17.39" y="34" dominant-baseline="ideographic">Historical Neglect</tspan></text></g></g><g id="tx_historic_znthqy19uhb0i-fill-overlay" stroke="none" fill="url(#crawlingPattern-0000001b)"><g><text style="font: 20px Roboto, sans-serif; white-space: pre;" font-size="20px" font-family="Roboto, sans-serif"><tspan x="17.39" y="34" dominant-baseline="ideographic">Historical Neglect</tspan></text></g></g></g><g id="g-root-tx_governme_qs6hi219uhbt7-stroke-fill" data-item-order="0" transform="translate(481.99981689453125, 206)"><g id="tx_governme_qs6hi219uhbt7-fill" stroke="none" fill="#f4f4f4"><g><text style="font: 20px Roboto, sans-serif; white-space: pre;" font-size="20px" font-family="Roboto, sans-serif"><tspan x="31.39" y="34" dominant-baseline="ideographic">Government </tspan><tspan x="36.09" y="58" dominant-baseline="ideographic">Information </tspan><tspan x="22.16" y="82" dominant-baseline="ideographic">Management</tspan></text></g></g><g id="tx_governme_qs6hi219uhbt7-fill-overlay" stroke="none" fill="url(#crawlingPattern-0000001b)"><g><text style="font: 20px Roboto, sans-serif; white-space: pre;" font-size="20px" font-family="Roboto, sans-serif"><tspan x="31.39" y="34" dominant-baseline="ideographic">Government </tspan><tspan x="36.09" y="58" dominant-baseline="ideographic">Information </tspan><tspan x="22.16" y="82" dominant-baseline="ideographic">Management</tspan></text></g></g></g><g id="g-root-tx_historic_dhcg7u19uha8c-stroke-fill" data-item-order="0" transform="translate(421.99981689453125, 146)"><g id="tx_historic_dhcg7u19uha8c-fill" stroke="none" fill="#f4f4f4"><g><text style="font: 20px Roboto, sans-serif; white-space: pre;" font-size="20px" font-family="Roboto, sans-serif"><tspan x="16.89" y="34" dominant-baseline="ideographic">Historical Context</tspan></text></g></g><g id="tx_historic_dhcg7u19uha8c-fill-overlay" stroke="none" fill="url(#crawlingPattern-0000001b)"><g><text style="font: 20px Roboto, sans-serif; white-space: pre;" font-size="20px" font-family="Roboto, sans-serif"><tspan x="16.89" y="34" dominant-baseline="ideographic">Historical Context</tspan></text></g></g></g><g id="g-root-tx_lackofco_91iy3e19uhb0l-stroke-fill" data-item-order="0" transform="translate(181.99978637695312, 422)"><g id="tx_lackofco_91iy3e19uhb0l-fill" stroke="none" fill="#f4f4f4"><g><text style="font: 20px Roboto, sans-serif; white-space: pre;" font-size="20px" font-family="Roboto, sans-serif"><tspan x="16.55" y="34" dominant-baseline="ideographic">Lack of Comparative </tspan><tspan x="133.48" y="58" dominant-baseline="ideographic">Studies</tspan></text></g></g><g id="tx_lackofco_91iy3e19uhb0l-fill-overlay" stroke="none" fill="url(#crawlingPattern-0000001b)"><g><text style="font: 20px Roboto, sans-serif; white-space: pre;" font-size="20px" font-family="Roboto, sans-serif"><tspan x="16.55" y="34" dominant-baseline="ideographic">Lack of Comparative </tspan><tspan x="133.48" y="58" dominant-baseline="ideographic">Studies</tspan></text></g></g></g><g id="g-root-tx_needform_5vxui19uhbta-stroke-fill" data-item-order="0" transform="translate(157.99978637695312, 506)"><g id="tx_needform_5vxui19uhbta-fill" stroke="none" fill="#f4f4f4"><g><text style="font: 20px Roboto, sans-serif; white-space: pre;" font-size="20px" font-family="Roboto, sans-serif"><tspan x="16.19" y="34" dominant-baseline="ideographic">Need for Modern Re-</tspan><tspan x="127.36" y="58" dominant-baseline="ideographic">analysis</tspan></text></g></g><g id="tx_needform_5vxui19uhbta-fill-overlay" stroke="none" fill="url(#crawlingPattern-0000001b)"><g><text style="font: 20px Roboto, sans-serif; white-space: pre;" font-size="20px" font-family="Roboto, sans-serif"><tspan x="16.19" y="34" dominant-baseline="ideographic">Need for Modern Re-</tspan><tspan x="127.36" y="58" dominant-baseline="ideographic">analysis</tspan></text></g></g></g><g id="g-root-tx_technica_1lvjhga19uhd73-stroke-fill" data-item-order="0" transform="translate(121.99978637695312, 602)"><g id="tx_technica_1lvjhga19uhd73-fill" stroke="none" fill="#f4f4f4"><g><text style="font: 20px Roboto, sans-serif; white-space: pre;" font-size="20px" font-family="Roboto, sans-serif"><tspan x="23.41" y="34" dominant-baseline="ideographic">Technical Challenges</tspan></text></g></g><g id="tx_technica_1lvjhga19uhd73-fill-overlay" stroke="none" fill="url(#crawlingPattern-0000001b)"><g><text style="font: 20px Roboto, sans-serif; white-space: pre;" font-size="20px" font-family="Roboto, sans-serif"><tspan x="23.41" y="34" dominant-baseline="ideographic">Technical Challenges</tspan></text></g></g></g><g id="g-root-tx_incomple_1hgcgey19uhatk-stroke-fill" data-item-order="0" transform="translate(253.99978637695312, 302)"><g id="tx_incomple_1hgcgey19uhatk-fill" stroke="none" fill="#f4f4f4"><g><text style="font: 20px Roboto, sans-serif; white-space: pre;" font-size="20px" font-family="Roboto, sans-serif"><tspan x="28.25" y="34" dominant-baseline="ideographic">Incomplete </tspan><tspan x="16.02" y="58" dominant-baseline="ideographic">Preservation</tspan></text></g></g><g id="tx_incomple_1hgcgey19uhatk-fill-overlay" stroke="none" fill="url(#crawlingPattern-0000001b)"><g><text style="font: 20px Roboto, sans-serif; white-space: pre;" font-size="20px" font-family="Roboto, sans-serif"><tspan x="28.25" y="34" dominant-baseline="ideographic">Incomplete </tspan><tspan x="16.02" y="58" dominant-baseline="ideographic">Preservation</tspan></text></g></g></g><g id="g-root-tx_missingo_144vy1m19uhceh-stroke-fill" data-item-order="0" transform="translate(205.99978637695312, 218)"><g id="tx_missingo_144vy1m19uhceh-fill" stroke="none" fill="#f4f4f4"><g><text style="font: 20px Roboto, sans-serif; white-space: pre;" font-size="20px" font-family="Roboto, sans-serif"><tspan x="15.02" y="34" dominant-baseline="ideographic">Missing Official </tspan><tspan x="79" y="58" dominant-baseline="ideographic">Records</tspan></text></g></g><g id="tx_missingo_144vy1m19uhceh-fill-overlay" stroke="none" fill="url(#crawlingPattern-0000001b)"><g><text style="font: 20px Roboto, sans-serif; white-space: pre;" font-size="20px" font-family="Roboto, sans-serif"><tspan x="15.02" y="34" dominant-baseline="ideographic">Missing Official </tspan><tspan x="79" y="58" dominant-baseline="ideographic">Records</tspan></text></g></g></g><g id="g-root-tx_document_zp2fx619uhd6q-stroke-fill" data-item-order="0" transform="translate(121.99978637695312, 146)"><g id="tx_document_zp2fx619uhd6q-fill" stroke="none" fill="#f4f4f4"><g><text style="font: 20px Roboto, sans-serif; white-space: pre;" font-size="20px" font-family="Roboto, sans-serif"><tspan x="12.5" y="34" dominant-baseline="ideographic">Documentation Issues</tspan></text></g></g><g id="tx_document_zp2fx619uhd6q-fill-overlay" stroke="none" fill="url(#crawlingPattern-0000001b)"><g><text style="font: 20px Roboto, sans-serif; white-space: pre;" font-size="20px" font-family="Roboto, sans-serif"><tspan x="12.5" y="34" dominant-baseline="ideographic">Documentation Issues</tspan></text></g></g></g><g id="g-root-tx_analyzin_me8emy19uhblv-stroke-fill" data-item-order="0" transform="translate(211.99981689453125, 50)"><g id="tx_analyzin_me8emy19uhblv-fill" stroke="none" fill="#f4f4f4"><g><text style="font: 20px Roboto, sans-serif; white-space: pre;" font-size="20px" font-family="Roboto, sans-serif"><tspan x="17.46" y="34" dominant-baseline="ideographic">Analyzing the Lakenheath-Bentwaters UFO Incident</tspan></text></g></g><defs><pattern id="crawlingPattern-0000001b" x="0" y="0" width="12" height="12" patternUnits="userSpaceOnUse" fill="#0000001b"><use href="#crawlingSymbol"></use></pattern><symbol id="crawlingSymbol"><g><animateTransform attributeName="transform" type="translate" from="0 0" to="-12 0" dur="0.4s" repeatCount="indefinite"></animateTransform><path d="M -12.5 12.5 l 13 -13 l 6 0 l -13 13 Z M -0.5 12.5 l 13 -13 l 6 0 l -13 13 Z M 11.5 12.5 l 13 -13 l 6 0 l -13 13 Z"></path></g></symbol></defs><g id="tx_analyzin_me8emy19uhblv-fill-overlay" stroke="none" fill="url(#crawlingPattern-0000001b)"><g><text style="font: 20px Roboto, sans-serif; white-space: pre;" font-size="20px" font-family="Roboto, sans-serif"><tspan x="17.46" y="34" dominant-baseline="ideographic">Analyzing the Lakenheath-Bentwaters UFO Incident</tspan></text></g></g></g></svg>