<svg width="768" height="672" viewBox="0 0 768 672" style="fill:none;stroke:none;fill-rule:evenodd;clip-rule:evenodd;stroke-linecap:round;stroke-linejoin:round;stroke-miterlimit:1.5;" version="1.1" xmlns="http://www.w3.org/2000/svg" xmlns:xlink="http://www.w3.org/1999/xlink"><style class="text-font-style fontImports" data-font-family="Roboto">@import url('https://fonts.googleapis.com/css2?family=Roboto:wght@400;700&amp;display=block');</style><g id="g-root-tf_dikcgq18qepdz-stroke-fill" data-item-order="-482112" transform="translate(12, 12)"><g id="tf_dikcgq18qepdz-fill" stroke="none" fill="#2c2c2c"><g><path d="M 0 0L 744 0L 744 648L 0 648Z"></path></g></g><defs><pattern id="crawlingPattern-ffe50099" x="0" y="0" width="12" height="12" patternUnits="userSpaceOnUse" fill="#ffe50099"><use href="#crawlingSymbol"></use></pattern><symbol id="crawlingSymbol"><g><animateTransform attributeName="transform" type="translate" from="0 0" to="-12 0" dur="0.4s" repeatCount="indefinite"></animateTransform><path d="M -12.5 12.5 l 13 -13 l 6 0 l -13 13 Z M -0.5 12.5 l 13 -13 l 6 0 l -13 13 Z M 11.5 12.5 l 13 -13 l 6 0 l -13 13 Z"></path></g></symbol><pattern id="crawlingPattern-8ed00028" x="0" y="0" width="12" height="12" patternUnits="userSpaceOnUse" fill="#8ed00028"><use href="#crawlingSymbol"></use></pattern><pattern id="crawlingPattern-00d16d21" x="0" y="0" width="12" height="12" patternUnits="userSpaceOnUse" fill="#00d16d21"><use href="#crawlingSymbol"></use></pattern><pattern id="crawlingPattern-00bcfb62" x="0" y="0" width="12" height="12" patternUnits="userSpaceOnUse" fill="#00bcfb62"><use href="#crawlingSymbol"></use></pattern><pattern id="crawlingPattern-0060fb20" x="0" y="0" width="12" height="12" patternUnits="userSpaceOnUse" fill="#0060fb20"><use href="#crawlingSymbol"></use></pattern><pattern id="crawlingPattern-0000001b" x="0" y="0" width="12" height="12" patternUnits="userSpaceOnUse" fill="#0000001b"><use href="#crawlingSymbol"></use></pattern><pattern id="crawlingPattern-ffe7003d" x="0" y="0" width="12" height="12" patternUnits="userSpaceOnUse" fill="#ffe7003d"><use href="#crawlingSymbol"></use></pattern><pattern id="crawlingPattern-acff003c" x="0" y="0" width="12" height="12" patternUnits="userSpaceOnUse" fill="#acff003c"><use href="#crawlingSymbol"></use></pattern><pattern id="crawlingPattern-00ff873a" x="0" y="0" width="12" height="12" patternUnits="userSpaceOnUse" fill="#00ff873a"><use href="#crawlingSymbol"></use></pattern><pattern id="crawlingPattern-00baff39" x="0" y="0" width="12" height="12" patternUnits="userSpaceOnUse" fill="#00baff39"><use href="#crawlingSymbol"></use></pattern><pattern id="crawlingPattern-0059ff37" x="0" y="0" width="12" height="12" patternUnits="userSpaceOnUse" fill="#0059ff37"><use href="#crawlingSymbol"></use></pattern><pattern id="crawlingPattern-ddc700ff" x="0" y="0" width="12" height="12" patternUnits="userSpaceOnUse" fill="#ddc700ff"><use href="#crawlingSymbol"></use></pattern><pattern id="crawlingPattern-5c87005e" x="0" y="0" width="12" height="12" patternUnits="userSpaceOnUse" fill="#5c87005e"><use href="#crawlingSymbol"></use></pattern><pattern id="crawlingPattern-00b15c75" x="0" y="0" width="12" height="12" patternUnits="userSpaceOnUse" fill="#00b15c75"><use href="#crawlingSymbol"></use></pattern><pattern id="crawlingPattern-00a3d9d9" x="0" y="0" width="12" height="12" patternUnits="userSpaceOnUse" fill="#00a3d9d9"><use href="#crawlingSymbol"></use></pattern><pattern id="crawlingPattern-0060fba2" x="0" y="0" width="12" height="12" patternUnits="userSpaceOnUse" fill="#0060fba2"><use href="#crawlingSymbol"></use></pattern><pattern id="crawlingPattern-c1c1c11a" x="0" y="0" width="12" height="12" patternUnits="userSpaceOnUse" fill="#c1c1c11a"><use href="#crawlingSymbol"></use></pattern><pattern id="crawlingPattern-5f5f5f1a" x="0" y="0" width="12" height="12" patternUnits="userSpaceOnUse" fill="#5f5f5f1a"><use href="#crawlingSymbol"></use></pattern></defs><g id="tf_dikcgq18qepdz-fill-overlay" stroke="none" fill="url(#crawlingPattern-5f5f5f1a)"><g><path d="M 0 0L 744 0L 744 648L 0 648Z"></path></g></g></g><g id="g-root-sy_-1_Vector_hun02i18q69sf-stroke-fill" data-item-order="-35419" transform="translate(374, 182)"><g id="sy_-1_Vector_hun02i18q69sf-stroke" fill="none" stroke-linecap="round" stroke-linejoin="round" stroke-miterlimit="4" stroke="#f4f4f4" stroke-width="2"><g><path d="M 10 322L 10 298M 10 226L 10 202M 10 130L 10 106M 10 34L 10 10"></path></g></g><g id="sy_-1_Vector_hun02i18q69sf-stroke-overlay" fill="none" stroke-linecap="round" stroke-linejoin="round" stroke-miterlimit="4" stroke="#3131311a" stroke-width="2" stroke-dasharray="4,6"><animate attributeName="stroke-dashoffset" values="30;0" dur="1s" repeatCount="indefinite" begin="0"></animate><g><path d="M 10 322L 10 298M 10 226L 10 202M 10 130L 10 106M 10 34L 10 10"></path></g></g></g><g id="g-root-sy_-1_cu_magi6y18q69s0-stroke-fill" data-item-order="-35415" transform="translate(374, 566)"><g id="sy_-1_cu_magi6y18q69s0-stroke" fill="none" stroke-linecap="round" stroke-linejoin="round" stroke-miterlimit="4" stroke="#f4f4f4" stroke-width="2"><g><path d="M 10 44L 10 10"></path><path d="M 3.5 38L 10 44.5L 16.5 38" stroke-dasharray="none"></path></g></g><g id="sy_-1_cu_magi6y18q69s0-stroke-overlay" fill="none" stroke-linecap="round" stroke-linejoin="round" stroke-miterlimit="4" stroke="#3131311a" stroke-width="2" stroke-dasharray="4,6"><animate attributeName="stroke-dashoffset" values="30;0" dur="1s" repeatCount="indefinite" begin="0"></animate><g><path d="M 10 44L 10 10"></path><path d="M 3.5 38L 10 44.5L 16.5 38" stroke-dasharray="none"></path></g></g></g><g id="g-root-cr_5_cr-big_dethy218q6akp-stroke-fill" data-item-order="-35412" transform="translate(338, 494)"><g id="cr_5_cr-big_dethy218q6akp-fill" stroke="none" fill="#ffe711"><g><path d="M 10 46C 10 65.882251 26.117749 82 46 82C 65.882251 82 82 65.882251 82 46C 82 26.117749 65.882251 10 46 10C 26.117749 10 10 26.117749 10 46"></path></g></g><g id="cr_5_cr-big_dethy218q6akp-fill-overlay" stroke="none" fill="url(#crawlingPattern-ffe50099)"><g><path d="M 10 46C 10 65.882251 26.117749 82 46 82C 65.882251 82 82 65.882251 82 46C 82 26.117749 65.882251 10 46 10C 26.117749 10 10 26.117749 10 46"></path></g></g><g id="cr_5_cr-big_dethy218q6akp-stroke" fill="none" stroke-linecap="round" stroke-linejoin="round" stroke-miterlimit="4" stroke="#2c2c2c" stroke-width="2"><g><path d="M 10 46C 10 65.882251 26.117749 82 46 82C 65.882251 82 82 65.882251 82 46C 82 26.117749 65.882251 10 46 10C 26.117749 10 10 26.117749 10 46"></path></g></g><g id="cr_5_cr-big_dethy218q6akp-stroke-overlay" fill="none" stroke-linecap="round" stroke-linejoin="round" stroke-miterlimit="4" stroke="#ffffff29" stroke-width="2" stroke-dasharray="4,6"><animate attributeName="stroke-dashoffset" values="30;0" dur="1s" repeatCount="indefinite" begin="0"></animate><g><path d="M 10 46C 10 65.882251 26.117749 82 46 82C 65.882251 82 82 65.882251 82 46C 82 26.117749 65.882251 10 46 10C 26.117749 10 10 26.117749 10 46"></path></g></g></g><g id="g-root-cr_4_cr-big_8yzztm18q6bcy-stroke-fill" data-item-order="-35408" transform="translate(338, 398)"><g id="cr_4_cr-big_8yzztm18q6bcy-fill" stroke="none" fill="#a6da37"><g><path d="M 10 46C 10 65.882251 26.117749 82 46 82C 65.882251 82 82 65.882251 82 46C 82 26.117749 65.882251 10 46 10C 26.117749 10 10 26.117749 10 46"></path></g></g><g id="cr_4_cr-big_8yzztm18q6bcy-fill-overlay" stroke="none" fill="url(#crawlingPattern-8ed00028)"><g><path d="M 10 46C 10 65.882251 26.117749 82 46 82C 65.882251 82 82 65.882251 82 46C 82 26.117749 65.882251 10 46 10C 26.117749 10 10 26.117749 10 46"></path></g></g><g id="cr_4_cr-big_8yzztm18q6bcy-stroke" fill="none" stroke-linecap="round" stroke-linejoin="round" stroke-miterlimit="4" stroke="#2c2c2c" stroke-width="2"><g><path d="M 10 46C 10 65.882251 26.117749 82 46 82C 65.882251 82 82 65.882251 82 46C 82 26.117749 65.882251 10 46 10C 26.117749 10 10 26.117749 10 46"></path></g></g><g id="cr_4_cr-big_8yzztm18q6bcy-stroke-overlay" fill="none" stroke-linecap="round" stroke-linejoin="round" stroke-miterlimit="4" stroke="#ffffff29" stroke-width="2" stroke-dasharray="4,6"><animate attributeName="stroke-dashoffset" values="30;0" dur="1s" repeatCount="indefinite" begin="0"></animate><g><path d="M 10 46C 10 65.882251 26.117749 82 46 82C 65.882251 82 82 65.882251 82 46C 82 26.117749 65.882251 10 46 10C 26.117749 10 10 26.117749 10 46"></path></g></g></g><g id="g-root-cr_3_cr-big_8yzztm18q6bcz-stroke-fill" data-item-order="-35404" transform="translate(338, 302)"><g id="cr_3_cr-big_8yzztm18q6bcz-fill" stroke="none" fill="#43dd93"><g><path d="M 10 46C 10 65.882251 26.117749 82 46 82C 65.882251 82 82 65.882251 82 46C 82 26.117749 65.882251 10 46 10C 26.117749 10 10 26.117749 10 46"></path></g></g><g id="cr_3_cr-big_8yzztm18q6bcz-fill-overlay" stroke="none" fill="url(#crawlingPattern-00d16d21)"><g><path d="M 10 46C 10 65.882251 26.117749 82 46 82C 65.882251 82 82 65.882251 82 46C 82 26.117749 65.882251 10 46 10C 26.117749 10 10 26.117749 10 46"></path></g></g><g id="cr_3_cr-big_8yzztm18q6bcz-stroke" fill="none" stroke-linecap="round" stroke-linejoin="round" stroke-miterlimit="4" stroke="#2c2c2c" stroke-width="2"><g><path d="M 10 46C 10 65.882251 26.117749 82 46 82C 65.882251 82 82 65.882251 82 46C 82 26.117749 65.882251 10 46 10C 26.117749 10 10 26.117749 10 46"></path></g></g><g id="cr_3_cr-big_8yzztm18q6bcz-stroke-overlay" fill="none" stroke-linecap="round" stroke-linejoin="round" stroke-miterlimit="4" stroke="#ffffff29" stroke-width="2" stroke-dasharray="4,6"><animate attributeName="stroke-dashoffset" values="30;0" dur="1s" repeatCount="indefinite" begin="0"></animate><g><path d="M 10 46C 10 65.882251 26.117749 82 46 82C 65.882251 82 82 65.882251 82 46C 82 26.117749 65.882251 10 46 10C 26.117749 10 10 26.117749 10 46"></path></g></g></g><g id="g-root-cr_2_cr-big_3czkq18q6c5o-stroke-fill" data-item-order="-35400" transform="translate(338, 206)"><g id="cr_2_cr-big_3czkq18q6c5o-fill" stroke="none" fill="#1ac3fb"><g><path d="M 10 46C 10 65.882251 26.117749 82 46 82C 65.882251 82 82 65.882251 82 46C 82 26.117749 65.882251 10 46 10C 26.117749 10 10 26.117749 10 46"></path></g></g><g id="cr_2_cr-big_3czkq18q6c5o-fill-overlay" stroke="none" fill="url(#crawlingPattern-00bcfb62)"><g><path d="M 10 46C 10 65.882251 26.117749 82 46 82C 65.882251 82 82 65.882251 82 46C 82 26.117749 65.882251 10 46 10C 26.117749 10 10 26.117749 10 46"></path></g></g><g id="cr_2_cr-big_3czkq18q6c5o-stroke" fill="none" stroke-linecap="round" stroke-linejoin="round" stroke-miterlimit="4" stroke="#2c2c2c" stroke-width="2"><g><path d="M 10 46C 10 65.882251 26.117749 82 46 82C 65.882251 82 82 65.882251 82 46C 82 26.117749 65.882251 10 46 10C 26.117749 10 10 26.117749 10 46"></path></g></g><g id="cr_2_cr-big_3czkq18q6c5o-stroke-overlay" fill="none" stroke-linecap="round" stroke-linejoin="round" stroke-miterlimit="4" stroke="#ffffff29" stroke-width="2" stroke-dasharray="4,6"><animate attributeName="stroke-dashoffset" values="30;0" dur="1s" repeatCount="indefinite" begin="0"></animate><g><path d="M 10 46C 10 65.882251 26.117749 82 46 82C 65.882251 82 82 65.882251 82 46C 82 26.117749 65.882251 10 46 10C 26.117749 10 10 26.117749 10 46"></path></g></g></g><g id="g-root-cr_1_cr-big_3czkq18q6c5p-stroke-fill" data-item-order="-35396" transform="translate(338, 110)"><g id="cr_1_cr-big_3czkq18q6c5p-fill" stroke="none" fill="#4f91fc"><g><path d="M 10 46C 10 65.882251 26.117749 82 46 82C 65.882251 82 82 65.882251 82 46C 82 26.117749 65.882251 10 46 10C 26.117749 10 10 26.117749 10 46"></path></g></g><g id="cr_1_cr-big_3czkq18q6c5p-fill-overlay" stroke="none" fill="url(#crawlingPattern-0060fb20)"><g><path d="M 10 46C 10 65.882251 26.117749 82 46 82C 65.882251 82 82 65.882251 82 46C 82 26.117749 65.882251 10 46 10C 26.117749 10 10 26.117749 10 46"></path></g></g><g id="cr_1_cr-big_3czkq18q6c5p-stroke" fill="none" stroke-linecap="round" stroke-linejoin="round" stroke-miterlimit="4" stroke="#2c2c2c" stroke-width="2"><g><path d="M 10 46C 10 65.882251 26.117749 82 46 82C 65.882251 82 82 65.882251 82 46C 82 26.117749 65.882251 10 46 10C 26.117749 10 10 26.117749 10 46"></path></g></g><g id="cr_1_cr-big_3czkq18q6c5p-stroke-overlay" fill="none" stroke-linecap="round" stroke-linejoin="round" stroke-miterlimit="4" stroke="#ffffff29" stroke-width="2" stroke-dasharray="4,6"><animate attributeName="stroke-dashoffset" values="30;0" dur="1s" repeatCount="indefinite" begin="0"></animate><g><path d="M 10 46C 10 65.882251 26.117749 82 46 82C 65.882251 82 82 65.882251 82 46C 82 26.117749 65.882251 10 46 10C 26.117749 10 10 26.117749 10 46"></path></g></g></g><g id="g-root-ic_text_mdkvmi18q6ayp-stroke-fill" data-item-order="-2304" transform="translate(350, 506)"><g id="ic_text_mdkvmi18q6ayp-fill" stroke="none" fill="#f4f4f4"><g><path d="M 56.919998 56.419998C 57.695446 55.639927 57.695446 54.380074 56.919998 53.599998L 47.580002 44.259998C 47.259911 43.885777 47.259911 43.334225 47.580002 42.959999C 53.25489 35.460754 53.124279 25.068623 47.262707 17.714371C 41.401134 10.360121 31.299934 7.914864 22.723846 11.774103C 14.147758 15.633343 9.278756 24.815191 10.895573 34.079582C 12.512388 43.343971 20.203665 50.333809 29.58 51.060001C 29.84041 51.080898 30.040836 51.298752 30.040001 51.560001L 30.040001 53.560001C 30.040001 53.836143 29.816143 54.060001 29.540001 54.060001L 27.16 54.060001C 26.055431 54.060001 25.16 54.955429 25.16 56.060001C 25.16 57.16457 26.055431 58.060001 27.16 58.060001L 36.940002 58.060001C 38.044571 58.060001 38.940002 57.16457 38.940002 56.060001C 38.940002 54.955429 38.044571 54.060001 36.940002 54.060001L 34.540001 54.060001C 34.263855 54.060001 34.040001 53.836143 34.040001 53.560001L 34.040001 51.34C 34.036812 51.092304 34.215469 50.879616 34.459999 50.84C 37.720779 50.308311 40.802956 48.990318 43.440002 47C 43.842247 46.695648 44.408192 46.738525 44.759998 47.099998L 54 56.419998C 54.375534 56.798626 54.886726 57.011597 55.419998 57.011597C 55.953274 57.011597 56.464466 56.798626 56.84 56.419998ZM 14.5 30.58C 14.487484 23.071716 19.522194 16.492188 26.772696 14.541626C 34.023201 12.591063 41.679512 15.756394 45.435867 22.257494C 49.192219 28.758595 48.110889 36.972557 42.799999 42.279999C 38.068001 47.036606 30.933493 48.467857 24.733017 45.904411C 18.532543 43.340961 14.491607 37.289474 14.5 30.58ZM 32 43.32C 33.104568 43.32 34 42.424568 34 41.32L 34 30.620001C 34 30.067715 34.447716 29.620001 35 29.620001L 39.799999 29.620001C 40.065208 29.616766 40.319439 29.725723 40.5 29.92C 40.686623 30.10585 40.794125 30.356686 40.799999 30.619999L 40.799999 33.52C 40.799999 34.624569 41.695431 35.52 42.799999 35.52C 43.904568 35.52 44.799999 34.624569 44.799999 33.52L 44.799999 29.6C 44.799999 27.390862 43.00914 25.6 40.799999 25.6L 23.24 25.6C 21.030861 25.6 19.24 27.390862 19.24 29.6L 19.24 33.5C 19.24 34.604568 20.135429 35.5 21.24 35.5C 22.34457 35.5 23.24 34.604568 23.24 33.5L 23.24 30.66C 23.234627 30.391335 23.337605 30.131813 23.525726 29.939928C 23.713848 29.748045 23.971283 29.639946 24.24 29.639999L 29.040001 29.639999C 29.308588 29.648697 29.564703 29.755411 29.76 29.940001C 29.941086 30.127867 30.041567 30.379072 30.040001 30.639999L 30.040001 41.34C 30.050598 42.421349 30.918814 43.298424 32 43.32Z"></path></g></g><g id="ic_text_mdkvmi18q6ayp-fill-overlay" stroke="none" fill="url(#crawlingPattern-c1c1c11a)"><g><path d="M 56.919998 56.419998C 57.695446 55.639927 57.695446 54.380074 56.919998 53.599998L 47.580002 44.259998C 47.259911 43.885777 47.259911 43.334225 47.580002 42.959999C 53.25489 35.460754 53.124279 25.068623 47.262707 17.714371C 41.401134 10.360121 31.299934 7.914864 22.723846 11.774103C 14.147758 15.633343 9.278756 24.815191 10.895573 34.079582C 12.512388 43.343971 20.203665 50.333809 29.58 51.060001C 29.84041 51.080898 30.040836 51.298752 30.040001 51.560001L 30.040001 53.560001C 30.040001 53.836143 29.816143 54.060001 29.540001 54.060001L 27.16 54.060001C 26.055431 54.060001 25.16 54.955429 25.16 56.060001C 25.16 57.16457 26.055431 58.060001 27.16 58.060001L 36.940002 58.060001C 38.044571 58.060001 38.940002 57.16457 38.940002 56.060001C 38.940002 54.955429 38.044571 54.060001 36.940002 54.060001L 34.540001 54.060001C 34.263855 54.060001 34.040001 53.836143 34.040001 53.560001L 34.040001 51.34C 34.036812 51.092304 34.215469 50.879616 34.459999 50.84C 37.720779 50.308311 40.802956 48.990318 43.440002 47C 43.842247 46.695648 44.408192 46.738525 44.759998 47.099998L 54 56.419998C 54.375534 56.798626 54.886726 57.011597 55.419998 57.011597C 55.953274 57.011597 56.464466 56.798626 56.84 56.419998ZM 14.5 30.58C 14.487484 23.071716 19.522194 16.492188 26.772696 14.541626C 34.023201 12.591063 41.679512 15.756394 45.435867 22.257494C 49.192219 28.758595 48.110889 36.972557 42.799999 42.279999C 38.068001 47.036606 30.933493 48.467857 24.733017 45.904411C 18.532543 43.340961 14.491607 37.289474 14.5 30.58ZM 32 43.32C 33.104568 43.32 34 42.424568 34 41.32L 34 30.620001C 34 30.067715 34.447716 29.620001 35 29.620001L 39.799999 29.620001C 40.065208 29.616766 40.319439 29.725723 40.5 29.92C 40.686623 30.10585 40.794125 30.356686 40.799999 30.619999L 40.799999 33.52C 40.799999 34.624569 41.695431 35.52 42.799999 35.52C 43.904568 35.52 44.799999 34.624569 44.799999 33.52L 44.799999 29.6C 44.799999 27.390862 43.00914 25.6 40.799999 25.6L 23.24 25.6C 21.030861 25.6 19.24 27.390862 19.24 29.6L 19.24 33.5C 19.24 34.604568 20.135429 35.5 21.24 35.5C 22.34457 35.5 23.24 34.604568 23.24 33.5L 23.24 30.66C 23.234627 30.391335 23.337605 30.131813 23.525726 29.939928C 23.713848 29.748045 23.971283 29.639946 24.24 29.639999L 29.040001 29.639999C 29.308588 29.648697 29.564703 29.755411 29.76 29.940001C 29.941086 30.127867 30.041567 30.379072 30.040001 30.639999L 30.040001 41.34C 30.050598 42.421349 30.918814 43.298424 32 43.32Z"></path></g></g></g><g id="g-root-ic_circ_qsrwnu18q7qq2-stroke-fill" data-item-order="-2304" transform="translate(350, 410)"><g id="ic_circ_qsrwnu18q7qq2-fill" stroke="none" fill="#f4f4f4"><g><path d="M 34 10C 27.575695 10.100238 21.448326 12.722149 16.940001 17.299999C 12.406286 21.83308 9.902507 28.009552 10 34.420002C 9.994678 40.678902 12.48003 46.682693 16.907619 51.106529C 21.335209 55.530365 27.341105 58.010628 33.599998 58L 34 58C 47.368694 57.879025 58.110947 46.94878 58 33.580002C 58.011967 27.249346 55.473557 21.180702 50.95776 16.743933C 46.441967 12.307165 40.329456 9.87628 34 10ZM 31 43.080002C 30.966946 42.267387 31.269699 41.476974 31.837162 40.894379C 32.404625 40.311783 33.186798 39.988338 34 40C 35.636467 40.009438 36.975853 41.304768 37.040001 42.939999C 37.072693 43.740314 36.777439 44.519318 36.222496 45.096909C 35.667557 45.6745 34.900978 46.000668 34.099998 46C 32.447758 46.023323 31.075436 44.730686 31 43.080002ZM 32 35.080002L 32 23.08C 32 21.97543 32.895432 21.08 34 21.08C 35.104568 21.08 36 21.97543 36 23.08L 36 35.080002C 36 36.18457 35.104568 37.080002 34 37.080002C 32.895432 37.080002 32 36.18457 32 35.080002Z"></path></g></g><g id="ic_circ_qsrwnu18q7qq2-fill-overlay" stroke="none" fill="url(#crawlingPattern-c1c1c11a)"><g><path d="M 34 10C 27.575695 10.100238 21.448326 12.722149 16.940001 17.299999C 12.406286 21.83308 9.902507 28.009552 10 34.420002C 9.994678 40.678902 12.48003 46.682693 16.907619 51.106529C 21.335209 55.530365 27.341105 58.010628 33.599998 58L 34 58C 47.368694 57.879025 58.110947 46.94878 58 33.580002C 58.011967 27.249346 55.473557 21.180702 50.95776 16.743933C 46.441967 12.307165 40.329456 9.87628 34 10ZM 31 43.080002C 30.966946 42.267387 31.269699 41.476974 31.837162 40.894379C 32.404625 40.311783 33.186798 39.988338 34 40C 35.636467 40.009438 36.975853 41.304768 37.040001 42.939999C 37.072693 43.740314 36.777439 44.519318 36.222496 45.096909C 35.667557 45.6745 34.900978 46.000668 34.099998 46C 32.447758 46.023323 31.075436 44.730686 31 43.080002ZM 32 35.080002L 32 23.08C 32 21.97543 32.895432 21.08 34 21.08C 35.104568 21.08 36 21.97543 36 23.08L 36 35.080002C 36 36.18457 35.104568 37.080002 34 37.080002C 32.895432 37.080002 32 36.18457 32 35.080002Z"></path></g></g></g><g id="g-root-ic_ufo_1q5pnve18qahab-stroke-fill" data-item-order="-2304" transform="translate(350, 314)"><g id="ic_ufo_1q5pnve18qahab-fill" stroke="none" fill="#f4f4f4"><g><path d="M 50.779999 39.48C 50.49268 38.408726 49.391396 37.77314 48.32008 38.060295C 47.24876 38.34745 46.613007 39.448639 46.899998 40.519997L 51.139999 56.52C 51.30584 57.231823 51.846767 57.796497 52.550816 57.992748C 53.25486 58.188999 54.009895 57.985573 54.520046 57.462177C 55.030201 56.938786 55.214222 56.178791 55 55.48ZM 19.82 38C 18.754391 37.720551 17.663445 38.355446 17.380001 39.419998L 13.14 55.419998C 12.925778 56.11879 13.109798 56.878784 13.619952 57.40218C 14.130106 57.925571 14.885139 58.129002 15.589186 57.932751C 16.293234 57.7365 16.83416 57.171825 17 56.459999L 21.24 40.459999C 21.380281 39.945396 21.309196 39.39608 21.042547 38.934139C 20.775898 38.472198 20.335775 38.135902 19.82 38ZM 38 49.860001C 39.203453 49.748383 40.123898 48.738621 40.123898 47.529999C 40.123898 46.321381 39.203453 45.311615 38 45.200001L 31.08 45.200001C 29.876545 45.311615 28.9561 46.321381 28.9561 47.529999C 28.9561 48.738621 29.876545 49.748383 31.08 49.860001L 32.239998 49.860001L 32.239998 50.18L 29.200001 54.299999C 28.437847 55.332775 28.657228 56.787849 29.690001 57.550003C 30.722773 58.312153 32.177849 58.092773 32.940002 57.060001L 34.599998 54.82L 36.200001 57.080002C 36.978722 58.129345 38.460663 58.348724 39.510002 57.570004C 40.559341 56.791279 40.778725 55.309341 40 54.260002L 37 50.16L 37 49.860001ZM 38 40.239998C 38.008102 38.822594 37.160507 37.540237 35.85331 36.992199C 34.546112 36.44416 33.03743 36.738647 32.032288 37.738045C 31.027142 38.73745 30.724012 40.244415 31.264553 41.554733C 31.805094 42.865051 33.082569 43.719978 34.5 43.720001C 35.426414 43.725323 36.316711 43.361034 36.973671 42.707829C 37.63063 42.054626 38.000015 41.166428 38 40.239998ZM 56.959999 29C 57.256584 29.003077 57.540375 28.879374 57.739998 28.659998C 57.943413 28.447105 58.032631 28.149708 57.98 27.860001C 57.289928 23.844007 53.774273 20.931278 49.700001 21L 18.299999 21C 14.218212 20.921293 10.691198 23.836391 10 27.860001C 9.947369 28.149708 10.036588 28.447105 10.24 28.66C 10.439621 28.879374 10.723413 29.003077 11.02 28.999998L 13.28 29C 13.484316 29.002653 13.666457 29.12936 13.74 29.32C 13.899547 29.722376 14.079787 30.116236 14.280001 30.500002C 16.065369 33.888172 19.580214 36.009026 23.41 36.009026C 27.239786 36.009026 30.754631 33.888172 32.540001 30.5C 32.740211 30.116236 32.920456 29.722376 33.080002 29.320002C 33.148697 29.125612 33.333855 28.996807 33.540001 28.999998L 34.459999 29C 34.666145 28.996807 34.851299 29.125612 34.919998 29.32C 35.079548 29.722376 35.259789 30.116236 35.459999 30.500002C 37.245369 33.888172 40.760216 36.009026 44.59 36.009026C 48.419785 36.009026 51.934631 33.888172 53.720001 30.5C 53.920216 30.116236 54.100456 29.722376 54.260002 29.320002C 54.328697 29.125612 54.513851 28.996807 54.719997 28.999998ZM 23.4 32C 21.569786 31.983295 19.832561 31.191006 18.619999 29.82C 18.522778 29.660299 18.522778 29.4597 18.619999 29.299999C 18.686577 29.141253 18.830135 29.027918 19 29L 27.799999 29C 27.999443 28.999306 28.180223 29.117207 28.26 29.299999C 28.367369 29.456707 28.367369 29.663294 28.26 29.82C 27.033712 31.218311 25.259802 32.014015 23.400002 32ZM 44.599998 32C 42.768101 31.990932 41.027901 31.197287 39.82 29.82C 39.712631 29.663294 39.712631 29.456707 39.82 29.299999C 39.899776 29.117207 40.080559 28.999306 40.279999 29L 49.080002 29C 49.272152 29.007078 49.443218 29.123714 49.52 29.299999C 49.627369 29.456707 49.627369 29.663294 49.52 29.82C 48.280025 31.234344 46.480667 32.031624 44.600002 32ZM 34 10C 28.477455 9.948547 23.296272 12.666791 20.200001 17.24C 20.121464 17.397415 20.121464 17.582584 20.200001 17.74C 20.291019 17.897736 20.457924 17.996361 20.639999 18L 47.5 18C 47.703251 18.01899 47.898815 17.917297 47.999996 17.74C 48.078533 17.582584 48.078533 17.397415 48 17.24C 44.864662 12.606876 39.593025 9.880686 34 10Z"></path></g></g><g id="ic_ufo_1q5pnve18qahab-fill-overlay" stroke="none" fill="url(#crawlingPattern-c1c1c11a)"><g><path d="M 50.779999 39.48C 50.49268 38.408726 49.391396 37.77314 48.32008 38.060295C 47.24876 38.34745 46.613007 39.448639 46.899998 40.519997L 51.139999 56.52C 51.30584 57.231823 51.846767 57.796497 52.550816 57.992748C 53.25486 58.188999 54.009895 57.985573 54.520046 57.462177C 55.030201 56.938786 55.214222 56.178791 55 55.48ZM 19.82 38C 18.754391 37.720551 17.663445 38.355446 17.380001 39.419998L 13.14 55.419998C 12.925778 56.11879 13.109798 56.878784 13.619952 57.40218C 14.130106 57.925571 14.885139 58.129002 15.589186 57.932751C 16.293234 57.7365 16.83416 57.171825 17 56.459999L 21.24 40.459999C 21.380281 39.945396 21.309196 39.39608 21.042547 38.934139C 20.775898 38.472198 20.335775 38.135902 19.82 38ZM 38 49.860001C 39.203453 49.748383 40.123898 48.738621 40.123898 47.529999C 40.123898 46.321381 39.203453 45.311615 38 45.200001L 31.08 45.200001C 29.876545 45.311615 28.9561 46.321381 28.9561 47.529999C 28.9561 48.738621 29.876545 49.748383 31.08 49.860001L 32.239998 49.860001L 32.239998 50.18L 29.200001 54.299999C 28.437847 55.332775 28.657228 56.787849 29.690001 57.550003C 30.722773 58.312153 32.177849 58.092773 32.940002 57.060001L 34.599998 54.82L 36.200001 57.080002C 36.978722 58.129345 38.460663 58.348724 39.510002 57.570004C 40.559341 56.791279 40.778725 55.309341 40 54.260002L 37 50.16L 37 49.860001ZM 38 40.239998C 38.008102 38.822594 37.160507 37.540237 35.85331 36.992199C 34.546112 36.44416 33.03743 36.738647 32.032288 37.738045C 31.027142 38.73745 30.724012 40.244415 31.264553 41.554733C 31.805094 42.865051 33.082569 43.719978 34.5 43.720001C 35.426414 43.725323 36.316711 43.361034 36.973671 42.707829C 37.63063 42.054626 38.000015 41.166428 38 40.239998ZM 56.959999 29C 57.256584 29.003077 57.540375 28.879374 57.739998 28.659998C 57.943413 28.447105 58.032631 28.149708 57.98 27.860001C 57.289928 23.844007 53.774273 20.931278 49.700001 21L 18.299999 21C 14.218212 20.921293 10.691198 23.836391 10 27.860001C 9.947369 28.149708 10.036588 28.447105 10.24 28.66C 10.439621 28.879374 10.723413 29.003077 11.02 28.999998L 13.28 29C 13.484316 29.002653 13.666457 29.12936 13.74 29.32C 13.899547 29.722376 14.079787 30.116236 14.280001 30.500002C 16.065369 33.888172 19.580214 36.009026 23.41 36.009026C 27.239786 36.009026 30.754631 33.888172 32.540001 30.5C 32.740211 30.116236 32.920456 29.722376 33.080002 29.320002C 33.148697 29.125612 33.333855 28.996807 33.540001 28.999998L 34.459999 29C 34.666145 28.996807 34.851299 29.125612 34.919998 29.32C 35.079548 29.722376 35.259789 30.116236 35.459999 30.500002C 37.245369 33.888172 40.760216 36.009026 44.59 36.009026C 48.419785 36.009026 51.934631 33.888172 53.720001 30.5C 53.920216 30.116236 54.100456 29.722376 54.260002 29.320002C 54.328697 29.125612 54.513851 28.996807 54.719997 28.999998ZM 23.4 32C 21.569786 31.983295 19.832561 31.191006 18.619999 29.82C 18.522778 29.660299 18.522778 29.4597 18.619999 29.299999C 18.686577 29.141253 18.830135 29.027918 19 29L 27.799999 29C 27.999443 28.999306 28.180223 29.117207 28.26 29.299999C 28.367369 29.456707 28.367369 29.663294 28.26 29.82C 27.033712 31.218311 25.259802 32.014015 23.400002 32ZM 44.599998 32C 42.768101 31.990932 41.027901 31.197287 39.82 29.82C 39.712631 29.663294 39.712631 29.456707 39.82 29.299999C 39.899776 29.117207 40.080559 28.999306 40.279999 29L 49.080002 29C 49.272152 29.007078 49.443218 29.123714 49.52 29.299999C 49.627369 29.456707 49.627369 29.663294 49.52 29.82C 48.280025 31.234344 46.480667 32.031624 44.600002 32ZM 34 10C 28.477455 9.948547 23.296272 12.666791 20.200001 17.24C 20.121464 17.397415 20.121464 17.582584 20.200001 17.74C 20.291019 17.897736 20.457924 17.996361 20.639999 18L 47.5 18C 47.703251 18.01899 47.898815 17.917297 47.999996 17.74C 48.078533 17.582584 48.078533 17.397415 48 17.24C 44.864662 12.606876 39.593025 9.880686 34 10Z"></path></g></g></g><g id="g-root-ic_dete_m7ylui18qbw90-stroke-fill" data-item-order="-2304" transform="translate(350, 218)"><g id="ic_dete_m7ylui18qbw90-fill" stroke="none" fill="#f4f4f4"><g><path d="M 41.487999 33.785999L 56.388 33.785999C 57.256001 33.785999 58.504002 33.021999 57.787998 31.586L 47.787998 11.586C 47.388 10.986 46.787998 10.586 46.188 10.586L 46.172001 10.586C 46.025051 10.586469 45.879154 10.610785 45.740002 10.658C 45.299999 10.798 44.886002 11.138 44.585999 11.586L 37.512001 25.736L 34.585999 31.586C 33.870003 33.021999 35.118 33.785999 35.986 33.785999L 41.487999 33.785999ZM 35.440002 24.288C 34.233749 23.622318 32.914993 23.184992 31.549999 22.998001L 31.549999 32.849998L 31.9 32.849998L 31.896 32.806C 31.818453 31.99918 31.976131 31.187162 32.349998 30.467999L 35.440002 24.288ZM 33.251999 35.299999C 34.023743 35.931679 34.98872 36.279694 35.986 36.286003L 41.321999 36.285999C 40.459999 41.077999 36.538002 44.967999 31.549999 45.608002L 31.549999 35.349998L 32.900002 35.349998C 33.019089 35.349789 33.137566 35.332962 33.251999 35.299999ZM 29.049999 22.952L 29.049999 32.849998L 18.798 32.849998C 19.493999 27.690001 23.841999 23.458 29.049999 22.950001ZM 29.049999 35.349998L 18.75 35.349998C 19.251999 40.692001 23.548 45.144001 29.049999 45.652L 29.049999 35.349998ZM 30.1 49.700001C 24.416 49.700001 19.366001 52.02 15.592 55.792C 15.305246 56.07803 15.219339 56.508778 15.374432 56.882927C 15.529523 57.257072 15.894982 57.500725 16.299999 57.5L 43.900002 57.5C 44.305019 57.500725 44.670479 57.257072 44.825569 56.882927C 44.980659 56.508778 44.894753 56.07803 44.608002 55.792C 40.834 52.02 35.784 49.700001 30.1 49.700001ZM 47.124001 24.788L 47.824001 19.588001C 47.976002 18.462 47.124001 17.608 46.188 17.608C 45.251999 17.608 44.400002 18.462 44.549999 19.588001L 45.25 24.788C 45.25 25.188 45.720001 25.588001 46.188 25.588001C 46.655998 25.588001 47.124001 25.188 47.124001 24.788ZM 47.444 27.528C 47.112644 27.189821 46.661392 26.995811 46.188 26.988001C 45.714607 26.995811 45.263355 27.189821 44.931999 27.528C 44.591385 27.859676 44.395821 28.312639 44.388 28.788C 44.39687 29.261967 44.59235 29.713303 44.931999 30.044001C 45.263027 30.382914 45.714321 30.577662 46.188 30.586C 46.662376 30.578184 47.114483 30.383398 47.445999 30.044001C 47.785397 29.712484 47.980186 29.260376 47.987999 28.786001C 47.97966 28.312321 47.784916 27.861027 47.445999 27.530001ZM 14.016 27.9L 14.016 21.5L 20.416 21.5C 21.520569 21.5 22.416 20.604568 22.416 19.5C 22.416 18.395432 21.520569 17.5 20.416 17.5L 14.016 17.5C 12.962 17.5 11.927999 17.860001 11.152 18.636C 10.376 19.411999 10.016 20.445999 10.016 21.5L 10.016 27.9C 10.016 29.00457 10.91143 29.9 12.016 29.9C 13.120569 29.9 14.016 29.00457 14.016 27.9ZM 14.016 38.900002C 14.016 37.795433 13.120569 36.900002 12.016 36.900002C 10.91143 36.900002 10.016 37.795433 10.016 38.900002L 10.016 45.299999C 10.016 46.354 10.376 47.388 11.152 48.164001C 11.927999 48.939999 12.962 49.299999 14.016 49.299999L 20.416 49.299999C 21.520569 49.299999 22.416 48.404568 22.416 47.299999C 22.416 46.195431 21.520569 45.299999 20.416 45.299999L 14.016 45.299999L 14.016 38.900002ZM 48.787998 36.900002C 49.89257 36.900002 50.787998 37.795433 50.787998 38.900002L 50.787998 45.299999C 50.787998 46.354 50.428001 47.388 49.652 48.164001C 48.875999 48.939999 47.841999 49.299999 46.787998 49.299999L 40.188 49.299999C 39.083431 49.299999 38.188 48.404568 38.188 47.299999C 38.188 46.195431 39.083431 45.299999 40.188 45.299999L 46.787998 45.299999L 46.787998 38.900002C 46.787998 37.795433 47.68343 36.900002 48.787998 36.900002Z"></path></g></g><g id="ic_dete_m7ylui18qbw90-fill-overlay" stroke="none" fill="url(#crawlingPattern-c1c1c11a)"><g><path d="M 41.487999 33.785999L 56.388 33.785999C 57.256001 33.785999 58.504002 33.021999 57.787998 31.586L 47.787998 11.586C 47.388 10.986 46.787998 10.586 46.188 10.586L 46.172001 10.586C 46.025051 10.586469 45.879154 10.610785 45.740002 10.658C 45.299999 10.798 44.886002 11.138 44.585999 11.586L 37.512001 25.736L 34.585999 31.586C 33.870003 33.021999 35.118 33.785999 35.986 33.785999L 41.487999 33.785999ZM 35.440002 24.288C 34.233749 23.622318 32.914993 23.184992 31.549999 22.998001L 31.549999 32.849998L 31.9 32.849998L 31.896 32.806C 31.818453 31.99918 31.976131 31.187162 32.349998 30.467999L 35.440002 24.288ZM 33.251999 35.299999C 34.023743 35.931679 34.98872 36.279694 35.986 36.286003L 41.321999 36.285999C 40.459999 41.077999 36.538002 44.967999 31.549999 45.608002L 31.549999 35.349998L 32.900002 35.349998C 33.019089 35.349789 33.137566 35.332962 33.251999 35.299999ZM 29.049999 22.952L 29.049999 32.849998L 18.798 32.849998C 19.493999 27.690001 23.841999 23.458 29.049999 22.950001ZM 29.049999 35.349998L 18.75 35.349998C 19.251999 40.692001 23.548 45.144001 29.049999 45.652L 29.049999 35.349998ZM 30.1 49.700001C 24.416 49.700001 19.366001 52.02 15.592 55.792C 15.305246 56.07803 15.219339 56.508778 15.374432 56.882927C 15.529523 57.257072 15.894982 57.500725 16.299999 57.5L 43.900002 57.5C 44.305019 57.500725 44.670479 57.257072 44.825569 56.882927C 44.980659 56.508778 44.894753 56.07803 44.608002 55.792C 40.834 52.02 35.784 49.700001 30.1 49.700001ZM 47.124001 24.788L 47.824001 19.588001C 47.976002 18.462 47.124001 17.608 46.188 17.608C 45.251999 17.608 44.400002 18.462 44.549999 19.588001L 45.25 24.788C 45.25 25.188 45.720001 25.588001 46.188 25.588001C 46.655998 25.588001 47.124001 25.188 47.124001 24.788ZM 47.444 27.528C 47.112644 27.189821 46.661392 26.995811 46.188 26.988001C 45.714607 26.995811 45.263355 27.189821 44.931999 27.528C 44.591385 27.859676 44.395821 28.312639 44.388 28.788C 44.39687 29.261967 44.59235 29.713303 44.931999 30.044001C 45.263027 30.382914 45.714321 30.577662 46.188 30.586C 46.662376 30.578184 47.114483 30.383398 47.445999 30.044001C 47.785397 29.712484 47.980186 29.260376 47.987999 28.786001C 47.97966 28.312321 47.784916 27.861027 47.445999 27.530001ZM 14.016 27.9L 14.016 21.5L 20.416 21.5C 21.520569 21.5 22.416 20.604568 22.416 19.5C 22.416 18.395432 21.520569 17.5 20.416 17.5L 14.016 17.5C 12.962 17.5 11.927999 17.860001 11.152 18.636C 10.376 19.411999 10.016 20.445999 10.016 21.5L 10.016 27.9C 10.016 29.00457 10.91143 29.9 12.016 29.9C 13.120569 29.9 14.016 29.00457 14.016 27.9ZM 14.016 38.900002C 14.016 37.795433 13.120569 36.900002 12.016 36.900002C 10.91143 36.900002 10.016 37.795433 10.016 38.900002L 10.016 45.299999C 10.016 46.354 10.376 47.388 11.152 48.164001C 11.927999 48.939999 12.962 49.299999 14.016 49.299999L 20.416 49.299999C 21.520569 49.299999 22.416 48.404568 22.416 47.299999C 22.416 46.195431 21.520569 45.299999 20.416 45.299999L 14.016 45.299999L 14.016 38.900002ZM 48.787998 36.900002C 49.89257 36.900002 50.787998 37.795433 50.787998 38.900002L 50.787998 45.299999C 50.787998 46.354 50.428001 47.388 49.652 48.164001C 48.875999 48.939999 47.841999 49.299999 46.787998 49.299999L 40.188 49.299999C 39.083431 49.299999 38.188 48.404568 38.188 47.299999C 38.188 46.195431 39.083431 45.299999 40.188 45.299999L 46.787998 45.299999L 46.787998 38.900002C 46.787998 37.795433 47.68343 36.900002 48.787998 36.900002Z"></path></g></g></g><g id="g-root-ic_sign_qs5fkq18qdbf2-stroke-fill" data-item-order="-2304" transform="translate(350, 122)"><g id="ic_sign_qs5fkq18qdbf2-fill" stroke="none" fill="#f4f4f4"><g><path d="M 42.380001 51.259998C 37.87513 54.937218 31.404869 54.937218 26.9 51.260002C 26.038418 50.564384 24.776089 50.698803 24.080307 51.560246C 23.384525 52.421688 23.518692 53.684044 24.379999 54.379997C 30.350861 59.256432 38.929138 59.256432 44.899998 54.379997C 45.761303 53.684044 45.89547 52.421688 45.199688 51.560246C 44.503906 50.698803 43.241577 50.564384 42.379997 51.259998ZM 41.139999 46.779999C 41.879265 46.059792 41.949097 44.895332 41.301201 44.091938C 40.653297 43.288544 39.500477 43.110092 38.639999 43.68C 36.312675 45.582539 32.967323 45.582539 30.639999 43.68C 30.096096 43.150116 29.29903 42.973957 28.582474 43.225262C 27.865919 43.476566 27.353483 44.111984 27.259689 44.865517C 27.165894 45.619045 27.506918 46.360699 28.139999 46.779999C 31.920513 49.875519 37.359489 49.875519 41.139999 46.780003ZM 57.299999 17.32C 56.666424 16.490803 55.683537 16.003056 54.639999 16C 52.485218 15.996964 50.528648 17.256992 49.639999 19.220001L 48.5 21.720001C 48.461464 21.817181 48.414623 21.910862 48.360004 22L 46.799999 22L 46 26.540001C 45.736099 27.983278 44.46701 29.02393 43 29L 33 29C 31.987194 29.010939 31.041061 28.496243 30.5 27.640001C 29.936573 26.798948 29.838654 25.729378 30.240002 24.800001L 31.459999 22L 28.219999 22L 28 21.720001C 26.663305 19.437069 24.225359 18.024429 21.58 18L 18.939999 18C 15.97959 18.006424 13.299949 19.753677 12.1 22.460001L 10.96 25L 22 25C 22.828426 25 23.5 25.671574 23.5 26.5C 23.5 27.328428 22.828426 28 22 28L 10 28C 10.02475 29.023712 10.491581 29.986551 11.28 30.639999L 12.34 31.48C 14.390312 33.116165 16.936872 34.004993 19.559999 34L 45.84 34L 49.400002 38.440002C 49.676971 38.798843 50.106743 39.006317 50.560001 39L 56 39C 56.493443 39.003616 56.9571 38.764309 57.240002 38.360001C 57.519329 37.955162 57.579288 37.438011 57.400002 36.980003L 55.040001 30.68L 57.82 20.24C 58.115231 19.239037 57.92263 18.157509 57.299999 17.32ZM 33 26L 43 26L 45.740002 11.2C 45.806694 10.910419 45.732533 10.606355 45.540001 10.38C 45.353291 10.138868 45.064964 9.998402 44.760002 10L 40.620003 10C 40.238945 10.00389 39.891838 10.219868 39.720001 10.56Z"></path></g></g><g id="ic_sign_qs5fkq18qdbf2-fill-overlay" stroke="none" fill="url(#crawlingPattern-c1c1c11a)"><g><path d="M 42.380001 51.259998C 37.87513 54.937218 31.404869 54.937218 26.9 51.260002C 26.038418 50.564384 24.776089 50.698803 24.080307 51.560246C 23.384525 52.421688 23.518692 53.684044 24.379999 54.379997C 30.350861 59.256432 38.929138 59.256432 44.899998 54.379997C 45.761303 53.684044 45.89547 52.421688 45.199688 51.560246C 44.503906 50.698803 43.241577 50.564384 42.379997 51.259998ZM 41.139999 46.779999C 41.879265 46.059792 41.949097 44.895332 41.301201 44.091938C 40.653297 43.288544 39.500477 43.110092 38.639999 43.68C 36.312675 45.582539 32.967323 45.582539 30.639999 43.68C 30.096096 43.150116 29.29903 42.973957 28.582474 43.225262C 27.865919 43.476566 27.353483 44.111984 27.259689 44.865517C 27.165894 45.619045 27.506918 46.360699 28.139999 46.779999C 31.920513 49.875519 37.359489 49.875519 41.139999 46.780003ZM 57.299999 17.32C 56.666424 16.490803 55.683537 16.003056 54.639999 16C 52.485218 15.996964 50.528648 17.256992 49.639999 19.220001L 48.5 21.720001C 48.461464 21.817181 48.414623 21.910862 48.360004 22L 46.799999 22L 46 26.540001C 45.736099 27.983278 44.46701 29.02393 43 29L 33 29C 31.987194 29.010939 31.041061 28.496243 30.5 27.640001C 29.936573 26.798948 29.838654 25.729378 30.240002 24.800001L 31.459999 22L 28.219999 22L 28 21.720001C 26.663305 19.437069 24.225359 18.024429 21.58 18L 18.939999 18C 15.97959 18.006424 13.299949 19.753677 12.1 22.460001L 10.96 25L 22 25C 22.828426 25 23.5 25.671574 23.5 26.5C 23.5 27.328428 22.828426 28 22 28L 10 28C 10.02475 29.023712 10.491581 29.986551 11.28 30.639999L 12.34 31.48C 14.390312 33.116165 16.936872 34.004993 19.559999 34L 45.84 34L 49.400002 38.440002C 49.676971 38.798843 50.106743 39.006317 50.560001 39L 56 39C 56.493443 39.003616 56.9571 38.764309 57.240002 38.360001C 57.519329 37.955162 57.579288 37.438011 57.400002 36.980003L 55.040001 30.68L 57.82 20.24C 58.115231 19.239037 57.92263 18.157509 57.299999 17.32ZM 33 26L 43 26L 45.740002 11.2C 45.806694 10.910419 45.732533 10.606355 45.540001 10.38C 45.353291 10.138868 45.064964 9.998402 44.760002 10L 40.620003 10C 40.238945 10.00389 39.891838 10.219868 39.720001 10.56Z"></path></g></g></g><g id="g-root-tx_thelaken_1ltn09m18q6adq-stroke-fill" data-item-order="0" transform="translate(92, 50)"><g id="tx_thelaken_1ltn09m18q6adq-fill" stroke="none" fill="#f4f4f4"><g><text style="font: 20px Roboto, sans-serif; white-space: pre;" font-size="20px" font-family="Roboto, sans-serif"><tspan x="12.82" y="34" dominant-baseline="ideographic">The Lakenheath-Bentwaters UFO Incident: A Timeline of Events</tspan></text></g></g><g id="tx_thelaken_1ltn09m18q6adq-fill-overlay" stroke="none" fill="url(#crawlingPattern-0000001b)"><g><text style="font: 20px Roboto, sans-serif; white-space: pre;" font-size="20px" font-family="Roboto, sans-serif"><tspan x="12.82" y="34" dominant-baseline="ideographic">The Lakenheath-Bentwaters UFO Incident: A Timeline of Events</tspan></text></g></g></g><g id="g-root-tx_scientif_18i6hwa18q6byn-stroke-fill" data-item-order="0" transform="translate(50, 554)"><g id="tx_scientif_18i6hwa18q6byn-fill" stroke="none" fill="#fffbd5"><g><text style="font: 20px Roboto, sans-serif; white-space: pre;" font-size="20px" font-family="Roboto, sans-serif"><tspan x="16.72" y="34" dominant-baseline="ideographic">Scientific analysis by Gordon </tspan><tspan x="211.59" y="58" dominant-baseline="ideographic">Thayer</tspan></text></g></g><g id="tx_scientif_18i6hwa18q6byn-fill-overlay" stroke="none" fill="url(#crawlingPattern-ffe7003d)"><g><text style="font: 20px Roboto, sans-serif; white-space: pre;" font-size="20px" font-family="Roboto, sans-serif"><tspan x="16.72" y="34" dominant-baseline="ideographic">Scientific analysis by Gordon </tspan><tspan x="211.59" y="58" dominant-baseline="ideographic">Thayer</tspan></text></g></g></g><g id="g-root-tx_incident_zn5yqi18q6adc-stroke-fill" data-item-order="0" transform="translate(434, 458)"><g id="tx_incident_zn5yqi18q6adc-fill" stroke="none" fill="#f2ffd7"><g><text style="font: 20px Roboto, sans-serif; white-space: pre;" font-size="20px" font-family="Roboto, sans-serif"><tspan x="12" y="34" dominant-baseline="ideographic">Incident listed as "unexplained" </tspan><tspan x="12" y="58" dominant-baseline="ideographic">in UK briefing</tspan></text></g></g><g id="tx_incident_zn5yqi18q6adc-fill-overlay" stroke="none" fill="url(#crawlingPattern-acff003c)"><g><text style="font: 20px Roboto, sans-serif; white-space: pre;" font-size="20px" font-family="Roboto, sans-serif"><tspan x="12" y="34" dominant-baseline="ideographic">Incident listed as "unexplained" </tspan><tspan x="12" y="58" dominant-baseline="ideographic">in UK briefing</tspan></text></g></g></g><g id="g-root-tx_intercep_mbpgd618q6by9-stroke-fill" data-item-order="0" transform="translate(26, 362)"><g id="tx_intercep_mbpgd618q6by9-fill" stroke="none" fill="#dffff0"><g><text style="font: 20px Roboto, sans-serif; white-space: pre;" font-size="20px" font-family="Roboto, sans-serif"><tspan x="17.08" y="34" dominant-baseline="ideographic">Interceptor response and visual </tspan><tspan x="182.94" y="58" dominant-baseline="ideographic">confirmation</tspan></text></g></g><g id="tx_intercep_mbpgd618q6by9-fill-overlay" stroke="none" fill="url(#crawlingPattern-00ff873a)"><g><text style="font: 20px Roboto, sans-serif; white-space: pre;" font-size="20px" font-family="Roboto, sans-serif"><tspan x="17.08" y="34" dominant-baseline="ideographic">Interceptor response and visual </tspan><tspan x="182.94" y="58" dominant-baseline="ideographic">confirmation</tspan></text></g></g></g><g id="g-root-tx_detectio_dgox7e18q69l6-stroke-fill" data-item-order="0" transform="translate(434, 266)"><g id="tx_detectio_dgox7e18q69l6-fill" stroke="none" fill="#e5f8ff"><g><text style="font: 20px Roboto, sans-serif; white-space: pre;" font-size="20px" font-family="Roboto, sans-serif"><tspan x="12" y="34" dominant-baseline="ideographic">Detection of multiple UREs</tspan></text></g></g><g id="tx_detectio_dgox7e18q69l6-fill-overlay" stroke="none" fill="url(#crawlingPattern-00baff39)"><g><text style="font: 20px Roboto, sans-serif; white-space: pre;" font-size="20px" font-family="Roboto, sans-serif"><tspan x="12" y="34" dominant-baseline="ideographic">Detection of multiple UREs</tspan></text></g></g></g><g id="g-root-tx_initialr_58eu218q6b63-stroke-fill" data-item-order="0" transform="translate(74, 170)"><g id="tx_initialr_58eu218q6b63-fill" stroke="none" fill="#ebf2ff"><g><text style="font: 20px Roboto, sans-serif; white-space: pre;" font-size="20px" font-family="Roboto, sans-serif"><tspan x="12.25" y="34" dominant-baseline="ideographic">Initial radar contact at RAF </tspan><tspan x="147.19" y="58" dominant-baseline="ideographic">Bentwaters</tspan></text></g></g><g id="tx_initialr_58eu218q6b63-fill-overlay" stroke="none" fill="url(#crawlingPattern-0059ff37)"><g><text style="font: 20px Roboto, sans-serif; white-space: pre;" font-size="20px" font-family="Roboto, sans-serif"><tspan x="12.25" y="34" dominant-baseline="ideographic">Initial radar contact at RAF </tspan><tspan x="147.19" y="58" dominant-baseline="ideographic">Bentwaters</tspan></text></g></g></g><g id="g-root-tx_septembe_1uqiyoq18q6br8-stroke-fill" data-item-order="0" transform="translate(158, 518)"><g id="tx_septembe_1uqiyoq18q6br8-fill" stroke="none" fill="#ffe711"><g><text style="font: bold 20px Roboto, sans-serif; white-space: pre;" font-weight="bold" font-size="20px" font-family="Roboto, sans-serif"><tspan x="14.48" y="34" dominant-baseline="ideographic">September 1971</tspan></text></g></g><g id="tx_septembe_1uqiyoq18q6br8-fill-overlay" stroke="none" fill="url(#crawlingPattern-ddc700ff)"><g><text style="font: bold 20px Roboto, sans-serif; white-space: pre;" font-weight="bold" font-size="20px" font-family="Roboto, sans-serif"><tspan x="14.48" y="34" dominant-baseline="ideographic">September 1971</tspan></text></g></g></g><g id="g-root-tx_1957_1hfoxei18q6a6d-stroke-fill" data-item-order="0" transform="translate(434, 422)"><g id="tx_1957_1hfoxei18q6a6d-fill" stroke="none" fill="#a6da37"><g><text style="font: bold 20px Roboto, sans-serif; white-space: pre;" font-weight="bold" font-size="20px" font-family="Roboto, sans-serif"><tspan x="12" y="34" dominant-baseline="ideographic">1957</tspan></text></g></g><g id="tx_1957_1hfoxei18q6a6d-fill-overlay" stroke="none" fill="url(#crawlingPattern-5c87005e)"><g><text style="font: bold 20px Roboto, sans-serif; white-space: pre;" font-weight="bold" font-size="20px" font-family="Roboto, sans-serif"><tspan x="12" y="34" dominant-baseline="ideographic">1957</tspan></text></g></g></g><g id="g-root-tx_august13_18k1x5m18q6az2-stroke-fill" data-item-order="0" transform="translate(122, 326)"><g id="tx_august13_18k1x5m18q6az2-fill" stroke="none" fill="#43dd93"><g><text style="font: bold 20px Roboto, sans-serif; white-space: pre;" font-weight="bold" font-size="20px" font-family="Roboto, sans-serif"><tspan x="21.25" y="34" dominant-baseline="ideographic">August 13-14, 1956</tspan></text></g></g><g id="tx_august13_18k1x5m18q6az2-fill-overlay" stroke="none" fill="url(#crawlingPattern-00b15c75)"><g><text style="font: bold 20px Roboto, sans-serif; white-space: pre;" font-weight="bold" font-size="20px" font-family="Roboto, sans-serif"><tspan x="21.25" y="34" dominant-baseline="ideographic">August 13-14, 1956</tspan></text></g></g></g><g id="g-root-tx_august13_v8lesa18q6cjz-stroke-fill" data-item-order="0" transform="translate(434, 230)"><g id="tx_august13_v8lesa18q6cjz-fill" stroke="none" fill="#1ac3fb"><g><text style="font: bold 20px Roboto, sans-serif; white-space: pre;" font-weight="bold" font-size="20px" font-family="Roboto, sans-serif"><tspan x="12" y="34" dominant-baseline="ideographic">August 13, 1956, 21:35 GMT</tspan></text></g></g><g id="tx_august13_v8lesa18q6cjz-fill-overlay" stroke="none" fill="url(#crawlingPattern-00a3d9d9)"><g><text style="font: bold 20px Roboto, sans-serif; white-space: pre;" font-weight="bold" font-size="20px" font-family="Roboto, sans-serif"><tspan x="12" y="34" dominant-baseline="ideographic">August 13, 1956, 21:35 GMT</tspan></text></g></g></g><g id="g-root-tx_august13_qtedqy18q6a6g-stroke-fill" data-item-order="0" transform="translate(50, 134)"><g id="tx_august13_qtedqy18q6a6g-fill" stroke="none" fill="#4f91fc"><g><text style="font: bold 20px Roboto, sans-serif; white-space: pre;" font-weight="bold" font-size="20px" font-family="Roboto, sans-serif"><tspan x="14.44" y="34" dominant-baseline="ideographic">August 13, 1956, 21:30 GMT</tspan></text></g></g><g id="tx_august13_qtedqy18q6a6g-fill-overlay" stroke="none" fill="url(#crawlingPattern-0060fba2)"><g><text style="font: bold 20px Roboto, sans-serif; white-space: pre;" font-weight="bold" font-size="20px" font-family="Roboto, sans-serif"><tspan x="14.44" y="34" dominant-baseline="ideographic">August 13, 1956, 21:30 GMT</tspan></text></g></g></g></svg>