<?xml version='1.0' encoding='utf-8'?>
<svg xmlns="http://www.w3.org/2000/svg" xmlns:xlink="http://www.w3.org/1999/xlink" width="792" height="600" viewBox="0 0 792 600" style="fill:none;stroke:none;fill-rule:evenodd;clip-rule:evenodd;stroke-linecap:round;stroke-linejoin:round;stroke-miterlimit:1.5;" version="1.1">
  <style class="text-font-style fontImports" data-font-family="Roboto">@import url('https://fonts.googleapis.com/css2?family=Roboto:wght@400;700&amp;display=block');</style>
  <rect x="0" y="0" width="792" height="6E+2" fill="#252a34" stroke="none" id="programmatic_background"/>
  <g id="g-root-tf_1q7m5221ayh4p3-stroke-fill" data-item-order="-435456" transform="translate(18, 12)">
    <g id="tf_1q7m5221ayh4p3-fill" stroke="none" fill="#2c2c2c">
      <g>
        <path d="M 0 0L 756 0L 756 576L 0 576Z"/>
      </g>
    </g>
    <defs>
      <pattern id="crawlingPattern-8ed00028" x="0" y="0" width="12" height="12" patternUnits="userSpaceOnUse" fill="#8ed00028">
        <use href="#crawlingSymbol"/>
      </pattern>
      <symbol id="crawlingSymbol">
        <g>
          <path d="M -12.5 12.5 l 13 -13 l 6 0 l -13 13 Z M -0.5 12.5 l 13 -13 l 6 0 l -13 13 Z M 11.5 12.5 l 13 -13 l 6 0 l -13 13 Z"/>
        </g>
      </symbol>
      <pattern id="crawlingPattern-00d16d21" x="0" y="0" width="12" height="12" patternUnits="userSpaceOnUse" fill="#00d16d21">
        <use href="#crawlingSymbol"/>
      </pattern>
      <pattern id="crawlingPattern-00bcfb62" x="0" y="0" width="12" height="12" patternUnits="userSpaceOnUse" fill="#00bcfb62">
        <use href="#crawlingSymbol"/>
      </pattern>
      <pattern id="crawlingPattern-0060fb20" x="0" y="0" width="12" height="12" patternUnits="userSpaceOnUse" fill="#0060fb20">
        <use href="#crawlingSymbol"/>
      </pattern>
      <pattern id="crawlingPattern-0000001b" x="0" y="0" width="12" height="12" patternUnits="userSpaceOnUse" fill="#0000001b">
        <use href="#crawlingSymbol"/>
      </pattern>
      <pattern id="crawlingPattern-acff003c" x="0" y="0" width="12" height="12" patternUnits="userSpaceOnUse" fill="#acff003c">
        <use href="#crawlingSymbol"/>
      </pattern>
      <pattern id="crawlingPattern-00ff873a" x="0" y="0" width="12" height="12" patternUnits="userSpaceOnUse" fill="#00ff873a">
        <use href="#crawlingSymbol"/>
      </pattern>
      <pattern id="crawlingPattern-00baff39" x="0" y="0" width="12" height="12" patternUnits="userSpaceOnUse" fill="#00baff39">
        <use href="#crawlingSymbol"/>
      </pattern>
      <pattern id="crawlingPattern-0059ff37" x="0" y="0" width="12" height="12" patternUnits="userSpaceOnUse" fill="#0059ff37">
        <use href="#crawlingSymbol"/>
      </pattern>
      <pattern id="crawlingPattern-5c87005e" x="0" y="0" width="12" height="12" patternUnits="userSpaceOnUse" fill="#5c87005e">
        <use href="#crawlingSymbol"/>
      </pattern>
      <pattern id="crawlingPattern-00b15c75" x="0" y="0" width="12" height="12" patternUnits="userSpaceOnUse" fill="#00b15c75">
        <use href="#crawlingSymbol"/>
      </pattern>
      <pattern id="crawlingPattern-00a3d9d9" x="0" y="0" width="12" height="12" patternUnits="userSpaceOnUse" fill="#00a3d9d9">
        <use href="#crawlingSymbol"/>
      </pattern>
      <pattern id="crawlingPattern-0060fba2" x="0" y="0" width="12" height="12" patternUnits="userSpaceOnUse" fill="#0060fba2">
        <use href="#crawlingSymbol"/>
      </pattern>
      <pattern id="crawlingPattern-c1c1c11a" x="0" y="0" width="12" height="12" patternUnits="userSpaceOnUse" fill="#c1c1c11a">
        <use href="#crawlingSymbol"/>
      </pattern>
      <pattern id="crawlingPattern-5f5f5f1a" x="0" y="0" width="12" height="12" patternUnits="userSpaceOnUse" fill="#5f5f5f1a">
        <use href="#crawlingSymbol"/>
      </pattern>
    </defs>
  </g>
  <g id="g-root-sy_-1_Vector_1uqk0m21ay8nik-stroke-fill" data-item-order="-28507" transform="translate(392, 182)">
    <g id="sy_-1_Vector_1uqk0m21ay8nik-stroke" fill="none" stroke-linecap="round" stroke-linejoin="round" stroke-miterlimit="4" stroke="#f4f4f4" stroke-width="2">
      <g>
        <path d="M 10 226L 10 202M 10 130L 10 106M 10 34L 10 10"/>
      </g>
    </g>
  </g>
  <g id="g-root-sy_-1_cu_1qaqihm1ay8oat-stroke-fill" data-item-order="-28503" transform="translate(392, 470)">
    <g id="sy_-1_cu_1qaqihm1ay8oat-stroke" fill="none" stroke-linecap="round" stroke-linejoin="round" stroke-miterlimit="4" stroke="#f4f4f4" stroke-width="2">
      <g>
        <path d="M 10 44L 10 10"/>
        <path d="M 3.5 38L 10 44.5L 16.5 38" stroke-dasharray="none"/>
      </g>
    </g>
  </g>
  <g id="g-root-cr_4_cr-big_1qaqihm1ay8oau-stroke-fill" data-item-order="-28500" transform="translate(356, 398)">
    <g id="cr_4_cr-big_1qaqihm1ay8oau-fill" stroke="none" fill="#a6da37">
      <g>
        <path d="M 10 46C 10 65.882251 26.117749 82 46 82C 65.882251 82 82 65.882251 82 46C 82 26.117749 65.882251 10 46 10C 26.117749 10 10 26.117749 10 46"/>
      </g>
    </g>
    <g id="cr_4_cr-big_1qaqihm1ay8oau-stroke" fill="none" stroke-linecap="round" stroke-linejoin="round" stroke-miterlimit="4" stroke="#2c2c2c" stroke-width="2">
      <g>
        <path d="M 10 46C 10 65.882251 26.117749 82 46 82C 65.882251 82 82 65.882251 82 46C 82 26.117749 65.882251 10 46 10C 26.117749 10 10 26.117749 10 46"/>
      </g>
    </g>
  </g>
  <g id="g-root-cr_3_cr-big_1hf3i8q1ay8p3j-stroke-fill" data-item-order="-28496" transform="translate(356, 302)">
    <g id="cr_3_cr-big_1hf3i8q1ay8p3j-fill" stroke="none" fill="#43dd93">
      <g>
        <path d="M 10 46C 10 65.882251 26.117749 82 46 82C 65.882251 82 82 65.882251 82 46C 82 26.117749 65.882251 10 46 10C 26.117749 10 10 26.117749 10 46"/>
      </g>
    </g>
    <g id="cr_3_cr-big_1hf3i8q1ay8p3j-stroke" fill="none" stroke-linecap="round" stroke-linejoin="round" stroke-miterlimit="4" stroke="#2c2c2c" stroke-width="2">
      <g>
        <path d="M 10 46C 10 65.882251 26.117749 82 46 82C 65.882251 82 82 65.882251 82 46C 82 26.117749 65.882251 10 46 10C 26.117749 10 10 26.117749 10 46"/>
      </g>
    </g>
  </g>
  <g id="g-root-cr_2_cr-big_1cza04a1ay8pvs-stroke-fill" data-item-order="-28492" transform="translate(356, 206)">
    <g id="cr_2_cr-big_1cza04a1ay8pvs-fill" stroke="none" fill="#1ac3fb">
      <g>
        <path d="M 10 46C 10 65.882251 26.117749 82 46 82C 65.882251 82 82 65.882251 82 46C 82 26.117749 65.882251 10 46 10C 26.117749 10 10 26.117749 10 46"/>
      </g>
    </g>
    <g id="cr_2_cr-big_1cza04a1ay8pvs-stroke" fill="none" stroke-linecap="round" stroke-linejoin="round" stroke-miterlimit="4" stroke="#2c2c2c" stroke-width="2">
      <g>
        <path d="M 10 46C 10 65.882251 26.117749 82 46 82C 65.882251 82 82 65.882251 82 46C 82 26.117749 65.882251 10 46 10C 26.117749 10 10 26.117749 10 46"/>
      </g>
    </g>
  </g>
  <g id="g-root-cr_1_cr-big_18k2z2y1ay8ni9-stroke-fill" data-item-order="-28488" transform="translate(356, 110)">
    <g id="cr_1_cr-big_18k2z2y1ay8ni9-fill" stroke="none" fill="#4f91fc">
      <g>
        <path d="M 10 46C 10 65.882251 26.117749 82 46 82C 65.882251 82 82 65.882251 82 46C 82 26.117749 65.882251 10 46 10C 26.117749 10 10 26.117749 10 46"/>
      </g>
    </g>
    <g id="cr_1_cr-big_18k2z2y1ay8ni9-stroke" fill="none" stroke-linecap="round" stroke-linejoin="round" stroke-miterlimit="4" stroke="#2c2c2c" stroke-width="2">
      <g>
        <path d="M 10 46C 10 65.882251 26.117749 82 46 82C 65.882251 82 82 65.882251 82 46C 82 26.117749 65.882251 10 46 10C 26.117749 10 10 26.117749 10 46"/>
      </g>
    </g>
  </g>
  <g id="g-root-ic_1_1utoe1m1ay8op7-stroke-fill" data-item-order="-2304" transform="translate(368, 410)">
    <g id="ic_1_1utoe1m1ay8op7-fill" stroke="none" fill="#f4f4f4">
      <g>
        <path d="M 34 10.5C 20 10.5 12 17.780001 12 30.5C 12 43.66 27.26 57.5 34 57.5C 40.739998 57.5 56 43.66 56 30.5C 56 17.780001 48 10.5 34 10.5ZM 37.16 39.360001C 36.612923 36.196518 37.378441 32.946693 39.279999 30.360001C 41.48 27.700001 45.080002 26.360001 49.98 26.360001C 50.491478 26.358294 50.918251 26.750227 50.959999 27.26C 51.191189 30.586864 50.131023 33.874809 48 36.440002C 45.400784 39.064995 41.784687 40.423767 38.099998 40.159996C 37.642563 40.134697 37.258114 39.80751 37.16 39.360001ZM 30.84 39.360001C 30.738121 39.821503 30.332556 40.152576 29.859999 40.16C 26.188894 40.411873 22.589855 39.054016 20 36.439999C 17.878387 33.863705 16.832439 30.568249 17.08 27.24C 17.119104 26.752451 17.511709 26.36838 18 26.34C 22.9 26.34 26.5 27.700001 28.700001 30.34C 30.613977 32.928825 31.387051 36.187294 30.84 39.360001Z"/>
      </g>
    </g>
  </g>
  <g id="g-root-ic_top_hu1kwq1aya3no-stroke-fill" data-item-order="-2304" transform="translate(368, 314)">
    <g id="ic_top_hu1kwq1aya3no-fill" stroke="none" fill="#f4f4f4">
      <g>
        <path d="M 24.200001 22.799999C 27.734623 22.799999 30.6 19.934624 30.6 16.4C 30.6 12.865377 27.734623 10 24.200001 10C 20.665379 10 17.799999 12.865377 17.799999 16.4C 17.799999 19.934624 20.665379 22.799999 24.200001 22.799999ZM 31.200001 43.200001C 31.200001 42.916 31.212 42.636002 31.238001 42.360001C 26.761999 45.276001 23.082001 49.560001 23.200001 53C 23.200001 57.124001 25.130001 57.549999 36.337997 57.594002C 35.92141 56.792622 35.702652 55.903187 35.700001 55C 35.700001 53.779999 36.134003 52.618 36.849998 51.664001C 33.559998 50.248001 31.200001 46.948002 31.200001 43.200001ZM 40.764 52.391998C 39.643997 52.716 38.700001 53.844002 38.700001 55C 38.700001 56.183998 39.517998 57.271999 40.676003 57.599998C 55.608002 57.599998 58 57.591999 58 53C 58 49.466 54.139999 45.040001 49.537998 42.122002C 49.578876 42.479885 49.599575 42.83979 49.600002 43.200001C 49.599998 48.077999 45.602001 52.194 40.764 52.391998ZM 40.400002 49.362C 36.924 49.362 34.237999 46.675999 34.237999 43.200001C 34.237999 39.723999 36.924 37.038002 40.400002 37.038002C 43.875999 37.038002 46.562 39.723999 46.562 43.200001C 46.562 46.675999 43.875999 49.362 40.400002 49.362ZM 10.514 33.970001L 10.514 45.880001L 25.133999 45.880001L 25.133999 37.148003L 26.554001 38.652C 28.004 40.302002 30.18 39.933998 31.450001 38.835999C 32.720001 37.736 32.900002 35.720001 31.812 34.436001C 30.724001 32.972 28.827999 30.672001 27.016001 28.472C 25.02 25.723999 21.756001 24.074001 18.130001 24.624001C 13.78 25.174 10.514 29.388 10.514 33.970001Z"/>
      </g>
    </g>
  </g>
  <g id="g-root-ic_cloc_zrkc9m1aybg91-stroke-fill" data-item-order="-2304" transform="translate(368, 218)">
    <g id="ic_cloc_zrkc9m1aybg91-fill" stroke="none" fill="#f4f4f4">
      <g>
        <path d="M 47.5 10C 41.701012 10 37 14.70101 37 20.5C 37 26.29899 41.701012 31 47.5 31C 53.298992 31 58 26.29899 58 20.5C 57.988995 14.705575 53.294426 10.011005 47.5 10ZM 47.5 28C 43.357868 28 40 24.642136 40 20.5C 40 16.357864 43.357868 13.000001 47.500004 13.000001C 51.642139 13.000001 55.000004 16.357864 55.000004 20.5C 55.000004 24.642136 51.642139 28.000002 47.500004 28ZM 49 19.880001L 49 17.540001C 49 16.711573 48.328426 16.040001 47.5 16.040001C 46.671574 16.040001 46 16.711573 46 17.540001L 46 20.5C 46.000351 20.89769 46.158615 21.278965 46.440002 21.560001L 48.119999 23.24C 48.711021 23.790718 49.632023 23.774469 50.203247 23.203245C 50.774471 22.632019 50.790718 21.71102 50.240002 21.119999ZM 16 19.060001C 16 21.821423 18.238577 24.060001 21 24.060001C 23.761425 24.060001 26 21.821423 26 19.060001C 26 16.298576 23.761425 14.059999 21 14.059999C 18.238577 14.059999 16 16.298576 16 19.060001M 41.700001 46.799999C 41.056808 42.373421 37.273003 39.082787 32.800003 39.059998L 29.68 39.059998C 28.305941 39.071114 27.104914 38.135139 26.780001 36.800003L 24.92 29.34C 24.507435 27.739849 22.885414 26.768419 21.279999 27.16C 20.505306 27.348759 19.838568 27.840105 19.428883 28.524166C 19.019196 29.208227 18.90074 30.027941 19.1 30.800001L 20.959999 38.260002C 21.954536 42.263882 25.554462 45.071163 29.68 45.060001L 32.799999 45.060001C 34.287399 45.073689 35.543346 46.1684 35.760002 47.639999L 37.02 55.419998C 37.247478 57.070721 38.768974 58.225269 40.419998 58C 41.206184 57.891048 41.91642 57.472973 42.393234 56.838467C 42.870052 56.203964 43.074051 55.40546 42.960003 54.620003ZM 31.280001 51.759998C 31.139502 50.765968 30.283865 50.030121 29.280001 50.040001C 22.975845 49.906399 17.538944 45.57489 16 39.459999C 15.24 36.419998 14.280001 32.52 14.280001 32.52C 14.054369 31.605633 13.221395 30.972572 12.28 31L 11 31C 10.447715 31 10 31.447716 10 32L 10 56C 10 57.104568 10.895431 58 12 58L 30 58C 30.586752 58.006645 31.14682 57.75528 31.531858 57.312485C 31.916897 56.86969 32.088058 56.280144 32 55.700001C 32 55.419998 31.540001 53.599998 31.280001 51.759998Z"/>
      </g>
    </g>
  </g>
  <g id="g-root-ic_ufo_4mye561ayebye-stroke-fill" data-item-order="-2304" transform="translate(368, 122)">
    <g id="ic_ufo_4mye561ayebye-fill" stroke="none" fill="#f4f4f4">
      <g>
        <path d="M 50.779999 39.48C 50.49268 38.408726 49.391396 37.77314 48.32008 38.060295C 47.24876 38.34745 46.613007 39.448639 46.899998 40.519997L 51.139999 56.52C 51.30584 57.231823 51.846767 57.796497 52.550816 57.992748C 53.25486 58.188999 54.009895 57.985573 54.520046 57.462177C 55.030201 56.938786 55.214222 56.178791 55 55.48ZM 19.82 38C 18.754391 37.720551 17.663445 38.355446 17.380001 39.419998L 13.14 55.419998C 12.925778 56.11879 13.109798 56.878784 13.619952 57.40218C 14.130106 57.925571 14.885139 58.129002 15.589186 57.932751C 16.293234 57.7365 16.83416 57.171825 17 56.459999L 21.24 40.459999C 21.380281 39.945396 21.309196 39.39608 21.042547 38.934139C 20.775898 38.472198 20.335775 38.135902 19.82 38ZM 38 49.860001C 39.203453 49.748383 40.123898 48.738621 40.123898 47.529999C 40.123898 46.321381 39.203453 45.311615 38 45.200001L 31.08 45.200001C 29.876545 45.311615 28.9561 46.321381 28.9561 47.529999C 28.9561 48.738621 29.876545 49.748383 31.08 49.860001L 32.239998 49.860001L 32.239998 50.18L 29.200001 54.299999C 28.437847 55.332775 28.657228 56.787849 29.690001 57.550003C 30.722773 58.312153 32.177849 58.092773 32.940002 57.060001L 34.599998 54.82L 36.200001 57.080002C 36.978722 58.129345 38.460663 58.348724 39.510002 57.570004C 40.559341 56.791279 40.778725 55.309341 40 54.260002L 37 50.16L 37 49.860001ZM 38 40.239998C 38.008102 38.822594 37.160507 37.540237 35.85331 36.992199C 34.546112 36.44416 33.03743 36.738647 32.032288 37.738045C 31.027142 38.73745 30.724012 40.244415 31.264553 41.554733C 31.805094 42.865051 33.082569 43.719978 34.5 43.720001C 35.426414 43.725323 36.316711 43.361034 36.973671 42.707829C 37.63063 42.054626 38.000015 41.166428 38 40.239998ZM 56.959999 29C 57.256584 29.003077 57.540375 28.879374 57.739998 28.659998C 57.943413 28.447105 58.032631 28.149708 57.98 27.860001C 57.289928 23.844007 53.774273 20.931278 49.700001 21L 18.299999 21C 14.218212 20.921293 10.691198 23.836391 10 27.860001C 9.947369 28.149708 10.036588 28.447105 10.24 28.66C 10.439621 28.879374 10.723413 29.003077 11.02 28.999998L 13.28 29C 13.484316 29.002653 13.666457 29.12936 13.74 29.32C 13.899547 29.722376 14.079787 30.116236 14.280001 30.500002C 16.065369 33.888172 19.580214 36.009026 23.41 36.009026C 27.239786 36.009026 30.754631 33.888172 32.540001 30.5C 32.740211 30.116236 32.920456 29.722376 33.080002 29.320002C 33.148697 29.125612 33.333855 28.996807 33.540001 28.999998L 34.459999 29C 34.666145 28.996807 34.851299 29.125612 34.919998 29.32C 35.079548 29.722376 35.259789 30.116236 35.459999 30.500002C 37.245369 33.888172 40.760216 36.009026 44.59 36.009026C 48.419785 36.009026 51.934631 33.888172 53.720001 30.5C 53.920216 30.116236 54.100456 29.722376 54.260002 29.320002C 54.328697 29.125612 54.513851 28.996807 54.719997 28.999998ZM 23.4 32C 21.569786 31.983295 19.832561 31.191006 18.619999 29.82C 18.522778 29.660299 18.522778 29.4597 18.619999 29.299999C 18.686577 29.141253 18.830135 29.027918 19 29L 27.799999 29C 27.999443 28.999306 28.180223 29.117207 28.26 29.299999C 28.367369 29.456707 28.367369 29.663294 28.26 29.82C 27.033712 31.218311 25.259802 32.014015 23.400002 32ZM 44.599998 32C 42.768101 31.990932 41.027901 31.197287 39.82 29.82C 39.712631 29.663294 39.712631 29.456707 39.82 29.299999C 39.899776 29.117207 40.080559 28.999306 40.279999 29L 49.080002 29C 49.272152 29.007078 49.443218 29.123714 49.52 29.299999C 49.627369 29.456707 49.627369 29.663294 49.52 29.82C 48.280025 31.234344 46.480667 32.031624 44.600002 32ZM 34 10C 28.477455 9.948547 23.296272 12.666791 20.200001 17.24C 20.121464 17.397415 20.121464 17.582584 20.200001 17.74C 20.291019 17.897736 20.457924 17.996361 20.639999 18L 47.5 18C 47.703251 18.01899 47.898815 17.917297 47.999996 17.74C 48.078533 17.582584 48.078533 17.397415 48 17.24C 44.864662 12.606876 39.593025 9.880686 34 10Z"/>
      </g>
    </g>
  </g>
  <g id="g-root-tx_the1975s_zofyu21ay8oay-stroke-fill" data-item-order="0" transform="translate(146, 50)">
    <g id="tx_the1975s_zofyu21ay8oay-fill" stroke="none" fill="#f4f4f4">
      <g>
        <text style="font: 20px Roboto, sans-serif; white-space: pre;" font-size="20px" font-family="Roboto, sans-serif">
          <tspan x="12.88" y="34" dominant-baseline="ideographic">The 1975 Sandra Larson UFO Abduction Case Timeline</tspan>
        </text>
      </g>
    </g>
  </g>
  <g id="g-root-tx_caserefe_hxsffe1ay8nib-stroke-fill" data-item-order="0" transform="translate(452, 458)">
    <g id="tx_caserefe_hxsffe1ay8nib-fill" stroke="none" fill="#f2ffd7">
      <g>
        <text style="font: 20px Roboto, sans-serif; white-space: pre;" font-size="20px" font-family="Roboto, sans-serif">
          <tspan x="12" y="34" dominant-baseline="ideographic">Case referenced in media as </tspan>
          <tspan x="12" y="58" dominant-baseline="ideographic">notable North Dakota UFO </tspan>
          <tspan x="12" y="82" dominant-baseline="ideographic">encounter</tspan>
        </text>
      </g>
    </g>
  </g>
  <g id="g-root-tx_sandraan_925f6i1ay8ob0-stroke-fill" data-item-order="0" transform="translate(32, 362)">
    <g id="tx_sandraan_925f6i1ay8ob0-fill" stroke="none" fill="#dffff0">
      <g>
        <text style="font: 20px Roboto, sans-serif; white-space: pre;" font-size="20px" font-family="Roboto, sans-serif">
          <tspan x="66.39" y="34" dominant-baseline="ideographic">Sandra and Jackie undergo </tspan>
          <tspan x="20.31" y="58" dominant-baseline="ideographic">hypnosis with Dr. R. Leo Sprinkle</tspan>
        </text>
      </g>
    </g>
  </g>
  <g id="g-root-tx_witnesse_1ursysa1ay8pot-stroke-fill" data-item-order="0" transform="translate(452, 266)">
    <g id="tx_witnesse_1ursysa1ay8pot-fill" stroke="none" fill="#e5f8ff">
      <g>
        <text style="font: 20px Roboto, sans-serif; white-space: pre;" font-size="20px" font-family="Roboto, sans-serif">
          <tspan x="12" y="34" dominant-baseline="ideographic">Witnesses experience missing </tspan>
          <tspan x="12" y="58" dominant-baseline="ideographic">time and Jackie finds herself in </tspan>
          <tspan x="12" y="82" dominant-baseline="ideographic">the back seat</tspan>
        </text>
      </g>
    </g>
  </g>
  <g id="g-root-tx_sandrala_1qclxqy1ay8nba-stroke-fill" data-item-order="0" transform="translate(32, 170)">
    <g id="tx_sandrala_1qclxqy1ay8nba-fill" stroke="none" fill="#ebf2ff">
      <g>
        <text style="font: 20px Roboto, sans-serif; white-space: pre;" font-size="20px" font-family="Roboto, sans-serif">
          <tspan x="57.88" y="34" dominant-baseline="ideographic">Sandra Larson, her daughter </tspan>
          <tspan x="12.03" y="58" dominant-baseline="ideographic">Jackie, and Terry O'Leary observe </tspan>
          <tspan x="259.89" y="82" dominant-baseline="ideographic">UFOs</tspan>
        </text>
      </g>
    </g>
  </g>
  <g id="g-root-tx_20242025_zqbe3e1ay8nbb-stroke-fill" data-item-order="0" transform="translate(452, 422)">
    <g id="tx_20242025_zqbe3e1ay8nbb-fill" stroke="none" fill="#a6da37">
      <g>
        <text style="font: bold 20px Roboto, sans-serif; white-space: pre;" font-weight="bold" font-size="20px" font-family="Roboto, sans-serif">
          <tspan x="12" y="34" dominant-baseline="ideographic">2024-2025</tspan>
        </text>
      </g>
    </g>
  </g>
  <g id="g-root-tx_december_meuvq21ay8ow8-stroke-fill" data-item-order="0" transform="translate(176, 326)">
    <g id="tx_december_meuvq21ay8ow8-fill" stroke="none" fill="#43dd93">
      <g>
        <text style="font: bold 20px Roboto, sans-serif; white-space: pre;" font-weight="bold" font-size="20px" font-family="Roboto, sans-serif">
          <tspan x="21.41" y="34" dominant-baseline="ideographic">December 1975</tspan>
        </text>
      </g>
    </g>
  </g>
  <g id="g-root-tx_august26_hz1dlm1ay8poh-stroke-fill" data-item-order="0" transform="translate(452, 230)">
    <g id="tx_august26_hz1dlm1ay8poh-fill" stroke="none" fill="#1ac3fb">
      <g>
        <text style="font: bold 20px Roboto, sans-serif; white-space: pre;" font-weight="bold" font-size="20px" font-family="Roboto, sans-serif">
          <tspan x="12" y="34" dominant-baseline="ideographic">August 26, 1975</tspan>
        </text>
      </g>
    </g>
  </g>
  <g id="g-root-tx_august26_4o7cbe1ay8o3m-stroke-fill" data-item-order="0" transform="translate(176, 134)">
    <g id="tx_august26_4o7cbe1ay8o3m-fill" stroke="none" fill="#4f91fc">
      <g>
        <text style="font: bold 20px Roboto, sans-serif; white-space: pre;" font-weight="bold" font-size="20px" font-family="Roboto, sans-serif">
          <tspan x="16.08" y="34" dominant-baseline="ideographic">August 26, 1975</tspan>
        </text>
      </g>
    </g>
  </g>
</svg>
