<?xml version='1.0' encoding='utf-8'?>
<svg xmlns="http://www.w3.org/2000/svg" xmlns:xlink="http://www.w3.org/1999/xlink" width="1056" height="708" viewBox="0 0 1056 708" style="fill:none;stroke:none;fill-rule:evenodd;clip-rule:evenodd;stroke-linecap:round;stroke-linejoin:round;stroke-miterlimit:1.5;" version="1.1">
  <style class="text-font-style fontImports" data-font-family="Roboto">@import url('https://fonts.googleapis.com/css2?family=Roboto:wght@400;700&amp;display=block');</style>
  <rect x="0" y="0" width="1056" height="708" fill="#252a34" stroke="none" id="programmatic_background"/>
  <g id="g-root-tf_18i777e1brxmva-stroke-fill" data-item-order="-705888" transform="translate(12, 12)"/>
  <g id="g-root-sy_4_cu_dkgdve1bs4mby-stroke-fill" data-item-order="-317369" transform="translate(602, 386)">
    <g id="sy_4_cu_dkgdve1bs4mby-stroke" fill="none" stroke-linecap="round" stroke-linejoin="round" stroke-miterlimit="4" stroke="#f79438" stroke-width="2">
      <g>
        <path d="M 33.850586 154.000488L 45.850586 154.000488M 58.200195 70L 70.200195 70M 87.9997 10L 21.9997 238L 10 238"/>
      </g>
    </g>
  </g>
  <g id="g-root-sy_3_cu_94mvqy1bs4n47-stroke-fill" data-item-order="-317365" transform="translate(602, 158.00048828125)">
    <g id="sy_3_cu_94mvqy1bs4n47-stroke" fill="none" stroke-linecap="round" stroke-linejoin="round" stroke-miterlimit="4" stroke="#b7b7b7" stroke-width="2">
      <g>
        <path d="M 33.84668 93.999512L 45.84668 93.999512M 58.195313 177.999512L 70.195313 177.999512M 87.9997 238L 21.9997 10L 10 10"/>
      </g>
    </g>
  </g>
  <g id="g-root-sy_2_cu_4otdmi1bs4nwg-stroke-fill" data-item-order="-317361" transform="translate(290, 385.99951171875)">
    <g id="sy_2_cu_4otdmi1bs4nwg-stroke" fill="none" stroke-linecap="round" stroke-linejoin="round" stroke-miterlimit="4" stroke="#b7b7b7" stroke-width="2">
      <g>
        <path d="M 33.851563 154.000488L 45.851563 154.000488M 58.200195 70.000488L 70.200195 70.000488M 87.9997 10L 21.9997 238L 10 238"/>
      </g>
    </g>
  </g>
  <g id="g-root-sy_1_cu_1uuafcq1bs4oi1-stroke-fill" data-item-order="-317357" transform="translate(290, 158.00048828125)">
    <g id="sy_1_cu_1uuafcq1bs4oi1-stroke" fill="none" stroke-linecap="round" stroke-linejoin="round" stroke-miterlimit="4" stroke="#43dd93" stroke-width="2">
      <g>
        <path d="M 33.851563 93.999512L 45.851563 93.999512M 58.200195 177.999512L 70.200195 177.999512M 87.9997 238L 21.9997 10L 10 10"/>
      </g>
    </g>
  </g>
  <g id="g-root-sy_-1_line_1qf3ebe1bs4m4i-stroke-fill" data-item-order="-317351" transform="translate(26, 386)">
    <g id="sy_-1_line_1qf3ebe1bs4m4i-stroke" fill="none" stroke-linecap="round" stroke-linejoin="round" stroke-miterlimit="4" stroke="#f4f4f4" stroke-width="2">
      <g>
        <path d="M 704 10L 10 10"/>
        <path d="M 698 16.5L 704.5 10L 698 3.5" stroke-dasharray="none"/>
      </g>
    </g>
  </g>
  <g id="g-root-tx_unexplai_1hjge2i1bs4mx7-stroke-fill" data-item-order="0" transform="translate(794, 362)">
    <g id="tx_unexplai_1hjge2i1bs4mx7-fill" stroke="none" fill="#f4f4f4">
      <g>
        <text style="font: 20px Roboto, sans-serif; white-space: pre;" font-size="20px" font-family="Roboto, sans-serif">
          <tspan x="12" y="34" dominant-baseline="ideographic">Unexplained UFO </tspan>
          <tspan x="12" y="58" dominant-baseline="ideographic">Encounter in Livingston</tspan>
        </text>
      </g>
    </g>
  </g>
  <g id="g-root-tx_environm_147zvp61bs4oi4-stroke-fill" data-item-order="0" transform="translate(434, 434)">
    <g id="tx_environm_147zvp61bs4oi4-fill" stroke="none" fill="#f4f4f4">
      <g>
        <text style="font: 20px Roboto, sans-serif; white-space: pre;" font-size="20px" font-family="Roboto, sans-serif">
          <tspan x="12.64" y="34" dominant-baseline="ideographic">Environmental Factors</tspan>
        </text>
      </g>
    </g>
  </g>
  <g id="g-root-tx_medicalc_qn69161bs61hp-stroke-fill" data-item-order="0" transform="translate(434, 518)">
    <g id="tx_medicalc_qn69161bs61hp-fill" stroke="none" fill="#f4f4f4">
      <g>
        <text style="font: 20px Roboto, sans-serif; white-space: pre;" font-size="20px" font-family="Roboto, sans-serif">
          <tspan x="16.83" y="34" dominant-baseline="ideographic">Medical Conditions</tspan>
        </text>
      </g>
    </g>
  </g>
  <g id="g-root-tx_alternat_dbpqnu1bs632m-stroke-fill" data-item-order="0" transform="translate(434, 590)">
    <g id="tx_alternat_dbpqnu1bs632m-fill" stroke="none" fill="#f4f4f4">
      <g>
        <text style="font: 20px Roboto, sans-serif; white-space: pre;" font-size="20px" font-family="Roboto, sans-serif">
          <tspan x="32.66" y="34" dominant-baseline="ideographic">Alternative </tspan>
          <tspan x="13.63" y="58" dominant-baseline="ideographic">Explanations</tspan>
        </text>
      </g>
    </g>
  </g>
  <g id="g-root-tx_forensic_8wipmi1bs60p3-stroke-fill" data-item-order="0" transform="translate(470, 314)">
    <g id="tx_forensic_8wipmi1bs60p3-fill" stroke="none" fill="#f4f4f4">
      <g>
        <text style="font: 20px Roboto, sans-serif; white-space: pre;" font-size="20px" font-family="Roboto, sans-serif">
          <tspan x="20.08" y="34" dominant-baseline="ideographic">Forensic Analysis</tspan>
        </text>
      </g>
    </g>
  </g>
  <g id="g-root-tx_official_4gp7i21bs61hc-stroke-fill" data-item-order="0" transform="translate(482, 218)">
    <g id="tx_official_4gp7i21bs61hc-fill" stroke="none" fill="#f4f4f4">
      <g>
        <text style="font: 20px Roboto, sans-serif; white-space: pre;" font-size="20px" font-family="Roboto, sans-serif">
          <tspan x="18.44" y="34" dominant-baseline="ideographic">Official Police </tspan>
          <tspan x="52.13" y="58" dominant-baseline="ideographic">Response</tspan>
        </text>
      </g>
    </g>
  </g>
  <g id="g-root-tx_investig_1q6cr3u1bs62v5-stroke-fill" data-item-order="0" transform="translate(350, 146)">
    <g id="tx_investig_1q6cr3u1bs62v5-fill" stroke="none" fill="#f4f4f4">
      <g>
        <text style="font: 20px Roboto, sans-serif; white-space: pre;" font-size="20px" font-family="Roboto, sans-serif">
          <tspan x="16.98" y="34" dominant-baseline="ideographic">Investigation Findings</tspan>
        </text>
      </g>
    </g>
  </g>
  <g id="g-root-tx_tornclot_1cviptm1bs61aa-stroke-fill" data-item-order="0" transform="translate(194, 434)">
    <g id="tx_tornclot_1cviptm1bs61aa-fill" stroke="none" fill="#f4f4f4">
      <g>
        <text style="font: 20px Roboto, sans-serif; white-space: pre;" font-size="20px" font-family="Roboto, sans-serif">
          <tspan x="20.86" y="34" dominant-baseline="ideographic">Torn Clothing</tspan>
        </text>
      </g>
    </g>
  </g>
  <g id="g-root-tx_groundin_13zvpkq1bs622z-stroke-fill" data-item-order="0" transform="translate(110, 518)">
    <g id="tx_groundin_13zvpkq1bs622z-fill" stroke="none" fill="#f4f4f4">
      <g>
        <text style="font: 20px Roboto, sans-serif; white-space: pre;" font-size="20px" font-family="Roboto, sans-serif">
          <tspan x="19.06" y="34" dominant-baseline="ideographic">Ground Indentations</tspan>
        </text>
      </g>
    </g>
  </g>
  <g id="g-root-tx_physical_zk27ga1bs62v8-stroke-fill" data-item-order="0" transform="translate(74, 602)">
    <g id="tx_physical_zk27ga1bs62v8-fill" stroke="none" fill="#f4f4f4">
      <g>
        <text style="font: 20px Roboto, sans-serif; white-space: pre;" font-size="20px" font-family="Roboto, sans-serif">
          <tspan x="16.88" y="34" dominant-baseline="ideographic">Physical Evidence</tspan>
        </text>
      </g>
    </g>
  </g>
  <g id="g-root-tx_consiste_m986621bs61ad-stroke-fill" data-item-order="0" transform="translate(146, 302)">
    <g id="tx_consiste_m986621bs61ad-fill" stroke="none" fill="#f4f4f4">
      <g>
        <text style="font: 20px Roboto, sans-serif; white-space: pre;" font-size="20px" font-family="Roboto, sans-serif">
          <tspan x="13.31" y="34" dominant-baseline="ideographic">Consistent Account </tspan>
          <tspan x="97.78" y="58" dominant-baseline="ideographic">Over Time</tspan>
        </text>
      </g>
    </g>
  </g>
  <g id="g-root-tx_robertta_ddl5x61bs6232-stroke-fill" data-item-order="0" transform="translate(158, 218)">
    <g id="tx_robertta_ddl5x61bs6232-fill" stroke="none" fill="#f4f4f4">
      <g>
        <text style="font: 20px Roboto, sans-serif; white-space: pre;" font-size="20px" font-family="Roboto, sans-serif">
          <tspan x="20.78" y="34" dominant-baseline="ideographic">Robert Taylor's </tspan>
          <tspan x="63.81" y="58" dominant-baseline="ideographic">Credibility</tspan>
        </text>
      </g>
    </g>
  </g>
  <g id="g-root-tx_witnesst_2r4my1bs60i7-stroke-fill" data-item-order="0" transform="translate(62, 146)">
    <g id="tx_witnesst_2r4my1bs60i7-fill" stroke="none" fill="#f4f4f4">
      <g>
        <text style="font: 20px Roboto, sans-serif; white-space: pre;" font-size="20px" font-family="Roboto, sans-serif">
          <tspan x="19.22" y="34" dominant-baseline="ideographic">Witness Testimony</tspan>
        </text>
      </g>
    </g>
  </g>
  <g id="g-root-tx_analyzin_1q886d61bs61vk-stroke-fill" data-item-order="0" transform="translate(344, 50)">
    <g id="tx_analyzin_1q886d61bs61vk-fill" stroke="none" fill="#f4f4f4">
      <g>
        <text style="font: 20px Roboto, sans-serif; white-space: pre;" font-size="20px" font-family="Roboto, sans-serif">
          <tspan x="16.48" y="34" dominant-baseline="ideographic">Analyzing the Livingston UFO Incident</tspan>
        </text>
      </g>
    </g>
    <defs>
      <pattern id="crawlingPattern-0000001b" x="0" y="0" width="12" height="12" patternUnits="userSpaceOnUse" fill="#0000001b">
        <use href="#crawlingSymbol"/>
      </pattern>
      <symbol id="crawlingSymbol">
        <g>
          <path d="M -12.5 12.5 l 13 -13 l 6 0 l -13 13 Z M -0.5 12.5 l 13 -13 l 6 0 l -13 13 Z M 11.5 12.5 l 13 -13 l 6 0 l -13 13 Z"/>
        </g>
      </symbol>
    </defs>
  </g>
  <g id="g-root-ic_phot_1hcl64a1bs62o9-stroke-fill" data-item-order="0" transform="translate(254, 140)">
    <g id="ic_phot_1hcl64a1bs62o9-stroke" fill="none" stroke-linecap="round" stroke-linejoin="round" stroke-miterlimit="4" stroke="#f4f4f4" stroke-width="2">
      <g>
        <path d="M 28 10.75C 31.246286 10.745233 34.426628 11.666241 37.167999 13.405C 44.292999 17.921501 44.818001 27.25 39.140499 34.070503C 35.776024 38.129238 32.046955 41.871361 28 45.25C 23.953045 41.871361 20.223976 38.129238 16.859501 34.070503C 11.1835 27.25 11.707 17.921501 18.832001 13.405C 21.573372 11.666241 24.753712 10.745233 28 10.75ZM 26.5 18.254499C 26.5 19.911354 27.843145 21.254499 29.5 21.254499C 31.156855 21.254499 32.5 19.911354 32.5 18.254499C 32.5 16.597645 31.156855 15.2545 29.5 15.2545C 27.843145 15.2545 26.5 16.597645 26.5 18.254499ZM 32.5 36.25C 31.671572 36.25 31 35.578426 31 34.75L 31 29.4715L 29.650002 24.7285C 29.3876 23.941433 29.813026 23.090687 30.600151 22.828451C 31.387274 22.566216 32.23793 22.991821 32.5 23.778999L 33.922001 28.754501C 33.973297 28.907284 33.999634 29.067337 34 29.2285L 34 34.75C 34 35.578426 33.328426 36.25 32.5 36.25ZM 25 19.75L 19.843 20.395C 19.630354 20.421577 19.416496 20.355921 19.255398 20.214602C 19.094297 20.07328 19.001345 19.869797 19 19.6555L 19 17.6035C 18.998331 17.387373 19.089981 17.181034 19.251457 17.037373C 19.412933 16.893709 19.628536 16.826693 19.843 16.8535L 25 17.5ZM 22 20.129499L 22 34.754501M 24.901001 22.75C 24.900822 24.001177 25.524658 25.170023 26.564215 25.866274C 27.603769 26.562523 28.922091 26.694448 30.079 26.218"/>
      </g>
    </g>
  </g>
  <g id="g-root-ic_5_1upamnu1bs8u0y-stroke-fill" data-item-order="0" transform="translate(254, 596)">
    <g id="ic_5_1upamnu1bs8u0y-stroke" fill="none" stroke-linecap="round" stroke-linejoin="round" stroke-miterlimit="4" stroke="#f4f4f4" stroke-width="2">
      <g>
        <path d="M 35.294502 38.3965C 37.365566 38.3965 39.044502 36.717567 39.044502 34.6465C 39.044502 32.575432 37.365566 30.896502 35.294502 30.896502C 33.223434 30.896502 31.5445 32.575432 31.5445 34.6465C 31.5445 36.717567 33.223434 38.3965 35.294502 38.3965ZM 41.045502 28C 43.11657 28 44.795502 26.321068 44.795502 24.25C 44.795502 22.178932 43.11657 20.5 41.045502 20.5C 38.974434 20.5 37.295502 22.178932 37.295502 24.25C 37.295502 26.321068 38.974434 28 41.045502 28ZM 16.225 43.375L 12.775 38.875C 12.475 38.574997 12.475 37.974998 12.475 37.675003C 12.625 37.224998 12.925 36.925003 13.375 36.625L 19.225 33.924999C 19.674999 33.775002 20.125 33.625 20.725 33.625L 27.325001 34.224998C 27.775002 34.224998 28.075001 34.074997 28.525002 33.775002C 28.825001 33.474998 28.974998 33.025002 28.974998 32.724998L 28.974998 23.125M 11.125 23.125C 11.125 23.125 17.125 23.125 20.424999 25.825001C 21.174999 26.424999 22.224998 26.875 23.275002 26.875L 25.0945 26.875M 17.275 14.725C 17.275 14.725 22.224998 16.674999 22.974998 21.475M 38.060501 14.4745L 32.968002 25.5865C 32.429501 26.429501 31.5865 26.875 30.880001 26.875L 28.974998 26.875M 24.025002 43.375L 19.225 38.875"/>
      </g>
    </g>
  </g>
  <g id="g-root-ic_1_4mjwa1bsbpj7-stroke-fill" data-item-order="0" transform="translate(566, 140)">
    <g id="ic_1_4mjwa1bsbpj7-stroke" fill="none" stroke-linecap="round" stroke-linejoin="round" stroke-miterlimit="4" stroke="#f4f4f4" stroke-width="2">
      <g>
        <path d="M 28 10.861C 31.246286 10.856233 34.426628 11.777241 37.167999 13.516C 44.292999 18.032499 44.818001 27.361 39.140499 34.181499C 35.900826 38.0723 32.334877 41.679401 28.481499 44.963497C 28.202888 45.196796 27.797112 45.196796 27.518499 44.963501C 23.665222 41.678749 20.099285 38.071159 16.859501 34.18C 11.1835 27.361 11.707 18.032499 18.832001 13.516C 21.573372 11.777241 24.753712 10.856233 28 10.861ZM 35.5975 21.1C 35.754417 20.963425 35.847561 20.767811 35.854671 20.559904C 35.861782 20.351997 35.782219 20.150476 35.635002 20.0035L 33.608501 17.971001C 33.391781 17.754486 33.065166 17.691538 32.783501 17.812L 28 19.862499L 23.216499 17.812C 22.934835 17.691538 22.608221 17.754486 22.391499 17.971001L 20.365 19.997499C 20.217781 20.144476 20.138218 20.345997 20.145329 20.553904C 20.152439 20.76181 20.245583 20.957424 20.4025 21.094C 21.385283 21.899105 21.968531 23.092436 22.000002 24.362501C 22 26.837502 20.5 27.962502 20.5 29.612499C 20.5 31.262501 25.525002 34.862503 28 34.862503C 30.474998 34.862503 35.5 31.262501 35.5 29.612499C 35.5 27.962502 34 26.837502 34 24.362499C 34.033199 23.094551 34.616283 21.903748 35.5975 21.1ZM 22 24.362499L 34 24.362499M 28 27.362499L 28 30.362499"/>
      </g>
    </g>
  </g>
  <g id="g-root-ic_shop_1cyn3961bseih8-stroke-fill" data-item-order="0" transform="translate(566, 596)">
    <g id="ic_shop_1cyn3961bseih8-stroke" fill="none" stroke-linecap="round" stroke-linejoin="round" stroke-miterlimit="4" stroke="#f4f4f4" stroke-width="2">
      <g>
        <path d="M 10.75 28C 10.75 37.526913 18.473087 45.25 28 45.25C 37.526913 45.25 45.25 37.526913 45.25 28C 45.25 18.473087 37.526913 10.75 28 10.75C 18.473087 10.75 10.75 18.473087 10.75 28M 16 28C 16 34.627419 21.372583 40 28 40C 34.627419 40 40 34.627419 40 28C 40 21.372583 34.627419 16 28 16C 21.372583 16 16 21.372583 16 28M 22.645 29.275002C 27.325001 28.674999 32.77 26.275002 32.424999 23.424999C 32.110001 20.889999 28.809999 20.950001 26.83 22C 22.719999 24.205 20.695 32.5 25 34.420002C 28.389999 35.920002 31.285 31.719999 31.285 31.719999"/>
      </g>
    </g>
  </g>
  <g id="g-root-ic_ufo_ddl5x61bsh9n1-stroke-fill" data-item-order="0" transform="translate(734, 362)">
    <g id="ic_ufo_ddl5x61bsh9n1-stroke" fill="none" stroke-linecap="round" stroke-linejoin="round" stroke-miterlimit="4" stroke="#f4f4f4" stroke-width="2">
      <g>
        <path d="M 49 22.5C 52.977859 22.499041 56.352161 25.420879 56.919998 29.358C 56.961449 29.646814 56.874687 29.939325 56.682472 30.158836C 56.490257 30.378345 56.211758 30.502958 55.919998 30.5L 12.07 30.5C 11.778242 30.502958 11.499743 30.378345 11.307528 30.158836C 11.115312 29.939325 11.028553 29.646814 11.07 29.358C 11.638377 25.417118 15.018346 22.494064 19 22.5ZM 19 22.5C 19 17.5 25.716 11.5 34 11.5C 42.284 11.5 49 17.5 49 22.5M 47.77 39.5L 52.995998 56.5M 14.996 56.5L 20.232 39.5M 34.996002 49.5L 31.996 53.652M 37.996002 53.5L 34.996002 49.5M 31.996 46.5L 37.996002 46.5M 35 41.5C 35.552284 41.5 36 41.947716 36 42.5M 34 42.5C 34 41.947716 34.447716 41.5 35 41.5M 35 43.5C 34.447716 43.5 34 43.052284 34 42.5M 36 42.5C 36 43.052284 35.552284 43.5 35 43.5M 34.996002 49.5L 34.996002 46.5M 25 30.5C 25 33.261421 22.761425 35.5 20 35.5C 17.238577 35.5 15 33.261421 15 30.5M 39 30.5C 39 33.261421 36.761425 35.5 34 35.5C 31.238577 35.5 29 33.261421 29 30.5M 53 30.5C 53 33.261421 50.761425 35.5 48 35.5C 45.238575 35.5 43 33.261421 43 30.5"/>
      </g>
    </g>
  </g>
</svg>
