<?xml version='1.0' encoding='utf-8'?>
<svg xmlns="http://www.w3.org/2000/svg" xmlns:xlink="http://www.w3.org/1999/xlink" width="744" height="684" viewBox="0 0 744 684" style="fill:none;stroke:none;fill-rule:evenodd;clip-rule:evenodd;stroke-linecap:round;stroke-linejoin:round;stroke-miterlimit:1.5;" version="1.1">
  <style class="text-font-style fontImports" data-font-family="Roboto">@import url('https://fonts.googleapis.com/css2?family=Roboto:wght@400;700&amp;display=block');</style>
  <rect x="0" y="0" width="744" height="684" fill="#252a34" stroke="none" id="programmatic_background"/>
  <g id="g-root-tf_8vnu1bi0u8a-stroke-fill" data-item-order="-478800" transform="translate(12, 12)"/>
  <g id="g-root-sy_-1_Vector_qten9m1bhzeh4-stroke-fill" data-item-order="-22843" transform="translate(361.99609375, 149)">
    <g id="sy_-1_Vector_qten9m1bhzeh4-stroke" fill="none" stroke-linecap="round" stroke-linejoin="round" stroke-miterlimit="4" stroke="#f4f4f4" stroke-width="2">
      <g>
        <path d="M 10 388L 10 298M 10 292L 10 202M 10 196L 10 106M 10 100L 10 10"/>
      </g>
    </g>
  </g>
  <g id="g-root-sy_-1_cu_mdl5561bhzf9d-stroke-fill" data-item-order="-22839" transform="translate(361.99609375, 533)">
    <g id="sy_-1_cu_mdl5561bhzf9d-stroke" fill="none" stroke-linecap="round" stroke-linejoin="round" stroke-miterlimit="4" stroke="#f4f4f4" stroke-width="2">
      <g>
        <path d="M 10.003906 94L 10.003906 10"/>
        <path d="M 3.503906 88L 10.003906 94.5L 16.503906 88" stroke-dasharray="none"/>
      </g>
    </g>
  </g>
  <g id="g-root-sy_5_cu_mdl5561bhzf9e-stroke-fill" data-item-order="-22836" transform="translate(338, 527)">
    <g id="sy_5_cu_mdl5561bhzf9e-fill" stroke="none" fill="none">
      <g>
        <path d="M 34 10L 34 10C 34 10 37 10 37 13L 37 13C 37 13 37 16 34 16L 34 16C 34 16 31 16 31 13L 31 13C 31 13 31 10 34 10"/>
      </g>
    </g>
    <g id="sy_5_cu_mdl5561bhzf9e-stroke" fill="none" stroke-linecap="round" stroke-linejoin="round" stroke-miterlimit="4" stroke="#f79438" stroke-width="2">
      <g>
        <path d="M 34 10L 34 10C 34 10 37 10 37 13L 37 13C 37 13 37 16 34 16L 34 16C 34 16 31 16 31 13L 31 13C 31 13 31 10 34 10"/>
      </g>
    </g>
    <g id="sy_5_cu_mdl5561bhzf9e-stroke" fill="none" stroke-linecap="round" stroke-linejoin="round" stroke-miterlimit="4" stroke="#f79438" stroke-width="2">
      <g>
        <path d="M 31 13L 10 13"/>
      </g>
    </g>
  </g>
  <g id="g-root-sy_4_cu_dhy4wa1bhzg23-stroke-fill" data-item-order="-22832" transform="translate(359, 431)">
    <g id="sy_4_cu_dhy4wa1bhzg23-fill" stroke="none" fill="none">
      <g>
        <path d="M 13 10L 13 10C 13 10 16 10 16 13L 16 13C 16 13 16 16 13 16L 13 16C 13 16 10 16 10 13L 10 13C 10 13 10 10 13 10"/>
      </g>
    </g>
    <g id="sy_4_cu_dhy4wa1bhzg23-stroke" fill="none" stroke-linecap="round" stroke-linejoin="round" stroke-miterlimit="4" stroke="#43dd93" stroke-width="2">
      <g>
        <path d="M 13 10L 13 10C 13 10 16 10 16 13L 16 13C 16 13 16 16 13 16L 13 16C 13 16 10 16 10 13L 10 13C 10 13 10 10 13 10"/>
      </g>
    </g>
    <g id="sy_4_cu_dhy4wa1bhzg23-stroke" fill="none" stroke-linecap="round" stroke-linejoin="round" stroke-miterlimit="4" stroke="#43dd93" stroke-width="2">
      <g>
        <path d="M 37 13L 16 13"/>
      </g>
    </g>
  </g>
  <g id="g-root-sy_3_cu_924mru1bhzguc-stroke-fill" data-item-order="-22828" transform="translate(338, 335)">
    <g id="sy_3_cu_924mru1bhzguc-fill" stroke="none" fill="none">
      <g>
        <path d="M 34 10L 34 10C 34 10 37 10 37 13L 37 13C 37 13 37 16 34 16L 34 16C 34 16 31 16 31 13L 31 13C 31 13 31 10 34 10"/>
      </g>
    </g>
    <g id="sy_3_cu_924mru1bhzguc-stroke" fill="none" stroke-linecap="round" stroke-linejoin="round" stroke-miterlimit="4" stroke="#f366bb" stroke-width="2">
      <g>
        <path d="M 34 10L 34 10C 34 10 37 10 37 13L 37 13C 37 13 37 16 34 16L 34 16C 34 16 31 16 31 13L 31 13C 31 13 31 10 34 10"/>
      </g>
    </g>
    <g id="sy_3_cu_924mru1bhzguc-stroke" fill="none" stroke-linecap="round" stroke-linejoin="round" stroke-miterlimit="4" stroke="#f366bb" stroke-width="2">
      <g>
        <path d="M 31 13L 10 13"/>
      </g>
    </g>
  </g>
  <g id="g-root-sy_2_cu_1usengq1bhzf2d-stroke-fill" data-item-order="-22824" transform="translate(359, 239)">
    <g id="sy_2_cu_1usengq1bhzf2d-fill" stroke="none" fill="none">
      <g>
        <path d="M 13 10L 13 10C 13 10 16 10 16 13L 16 13C 16 13 16 16 13 16L 13 16C 13 16 10 16 10 13L 10 13C 10 13 10 10 13 10"/>
      </g>
    </g>
    <g id="sy_2_cu_1usengq1bhzf2d-stroke" fill="none" stroke-linecap="round" stroke-linejoin="round" stroke-miterlimit="4" stroke="#fb6762" stroke-width="2">
      <g>
        <path d="M 13 10L 13 10C 13 10 16 10 16 13L 16 13C 16 13 16 16 13 16L 13 16C 13 16 10 16 10 13L 10 13C 10 13 10 10 13 10"/>
      </g>
    </g>
    <g id="sy_2_cu_1usengq1bhzf2d-stroke" fill="none" stroke-linecap="round" stroke-linejoin="round" stroke-miterlimit="4" stroke="#fb6762" stroke-width="2">
      <g>
        <path d="M 37 13L 16 13"/>
      </g>
    </g>
  </g>
  <g id="g-root-sy_1_cu_1lwrn7u1bhzfv2-stroke-fill" data-item-order="-22820" transform="translate(338, 143)">
    <g id="sy_1_cu_1lwrn7u1bhzfv2-fill" stroke="none" fill="none">
      <g>
        <path d="M 34 10L 34 10C 34 10 37 10 37 13L 37 13C 37 13 37 16 34 16L 34 16C 34 16 31 16 31 13L 31 13C 31 13 31 10 34 10"/>
      </g>
    </g>
    <g id="sy_1_cu_1lwrn7u1bhzfv2-stroke" fill="none" stroke-linecap="round" stroke-linejoin="round" stroke-miterlimit="4" stroke="#4f91fc" stroke-width="2">
      <g>
        <path d="M 34 10L 34 10C 34 10 37 10 37 13L 37 13C 37 13 37 16 34 16L 34 16C 34 16 31 16 31 13L 31 13C 31 13 31 10 34 10"/>
      </g>
    </g>
    <g id="sy_1_cu_1lwrn7u1bhzfv2-stroke" fill="none" stroke-linecap="round" stroke-linejoin="round" stroke-miterlimit="4" stroke="#4f91fc" stroke-width="2">
      <g>
        <path d="M 31 13L 10 13"/>
      </g>
    </g>
  </g>
  <g id="g-root-tx_thelochr_1hgy53e1bhzgnb-stroke-fill" data-item-order="0" transform="translate(110, 50)">
    <g id="tx_thelochr_1hgy53e1bhzgnb-fill" stroke="none" fill="#f4f4f4">
      <g>
        <text style="font: 20px Roboto, sans-serif; white-space: pre;" font-size="20px" font-family="Roboto, sans-serif">
          <tspan x="12.94" y="34" dominant-baseline="ideographic">The Loch Raven Dam UFO Incident: A Timeline of Events</tspan>
        </text>
      </g>
    </g>
  </g>
  <g id="g-root-tx_witnesse_1d1r4221bhze9s-stroke-fill" data-item-order="0" transform="translate(86, 554)">
    <g id="tx_witnesse_1d1r4221bhze9s-fill" stroke="none" fill="#f4f4f4">
      <g>
        <text style="font: 20px Roboto, sans-serif; white-space: pre;" font-size="20px" font-family="Roboto, sans-serif">
          <tspan x="21.53" y="34" dominant-baseline="ideographic">Witnesses seek medical </tspan>
          <tspan x="71.06" y="58" dominant-baseline="ideographic">attention for burns</tspan>
        </text>
      </g>
    </g>
  </g>
  <g id="g-root-tx_witnesse_zqaloq1bhzfup-stroke-fill" data-item-order="0" transform="translate(410, 458)">
    <g id="tx_witnesse_zqaloq1bhzfup-fill" stroke="none" fill="#f4f4f4">
      <g>
        <text style="font: 20px Roboto, sans-serif; white-space: pre;" font-size="20px" font-family="Roboto, sans-serif">
          <tspan x="12" y="34" dominant-baseline="ideographic">Witnesses report incident to </tspan>
          <tspan x="12" y="58" dominant-baseline="ideographic">authorities</tspan>
        </text>
      </g>
    </g>
  </g>
  <g id="g-root-tx_ufoemits_qunlfu1bhzgne-stroke-fill" data-item-order="0" transform="translate(74, 362)">
    <g id="tx_ufoemits_qunlfu1bhzgne-fill" stroke="none" fill="#f4f4f4">
      <g>
        <text style="font: 20px Roboto, sans-serif; white-space: pre;" font-size="20px" font-family="Roboto, sans-serif">
          <tspan x="12.06" y="34" dominant-baseline="ideographic">UFO emits bright flash and </tspan>
          <tspan x="173.08" y="58" dominant-baseline="ideographic">ascends</tspan>
        </text>
      </g>
    </g>
  </g>
  <g id="g-root-tx_theircar_djtk5m1bhzf2j-stroke-fill" data-item-order="0" transform="translate(410, 266)">
    <g id="tx_theircar_djtk5m1bhzf2j-fill" stroke="none" fill="#f4f4f4">
      <g>
        <text style="font: 20px Roboto, sans-serif; white-space: pre;" font-size="20px" font-family="Roboto, sans-serif">
          <tspan x="12" y="34" dominant-baseline="ideographic">Their car experiences electrical </tspan>
          <tspan x="12" y="58" dominant-baseline="ideographic">failure</tspan>
        </text>
      </g>
    </g>
  </g>
  <g id="g-root-tx_phillips_8d1sa1bhzgng-stroke-fill" data-item-order="0" transform="translate(26, 170)">
    <g id="tx_phillips_8d1sa1bhzgng-fill" stroke="none" fill="#f4f4f4">
      <g>
        <text style="font: 20px Roboto, sans-serif; white-space: pre;" font-size="20px" font-family="Roboto, sans-serif">
          <tspan x="38.02" y="34" dominant-baseline="ideographic">Phillip Small and Alvin Cohen </tspan>
          <tspan x="14.61" y="58" dominant-baseline="ideographic">observe a UFO near Loch Raven </tspan>
          <tspan x="254.45" y="82" dominant-baseline="ideographic">Dam</tspan>
        </text>
      </g>
    </g>
  </g>
  <g id="g-root-tx_october2_1lyn2h61bhzevh-stroke-fill" data-item-order="0" transform="translate(50, 518)">
    <g id="tx_october2_1lyn2h61bhzevh-fill" stroke="none" fill="#f79438">
      <g>
        <text style="font: bold 20px Roboto, sans-serif; white-space: pre;" font-weight="bold" font-size="20px" font-family="Roboto, sans-serif">
          <tspan x="20.08" y="34" dominant-baseline="ideographic">October 26, 1958, Post-UFO</tspan>
        </text>
      </g>
    </g>
  </g>
  <g id="g-root-tx_october2_1hitkcq1bhzfnq-stroke-fill" data-item-order="0" transform="translate(410, 422)">
    <g id="tx_october2_1hitkcq1bhzfnq-fill" stroke="none" fill="#43dd93">
      <g>
        <text style="font: bold 20px Roboto, sans-serif; white-space: pre;" font-weight="bold" font-size="20px" font-family="Roboto, sans-serif">
          <tspan x="12" y="34" dominant-baseline="ideographic">October 26, 1958, Post-UFO</tspan>
        </text>
      </g>
    </g>
  </g>
  <g id="g-root-tx_october2_18n6k3u1bhzggf-stroke-fill" data-item-order="0" transform="translate(50, 326)">
    <g id="tx_october2_18n6k3u1bhzggf-fill" stroke="none" fill="#f366bb">
      <g>
        <text style="font: bold 20px Roboto, sans-serif; white-space: pre;" font-weight="bold" font-size="20px" font-family="Roboto, sans-serif">
          <tspan x="20.11" y="34" dominant-baseline="ideographic">October 26, 1958, 10:30 PM</tspan>
        </text>
      </g>
    </g>
  </g>
  <g id="g-root-tx_october2_zs60y21bhzev4-stroke-fill" data-item-order="0" transform="translate(410, 230)">
    <g id="tx_october2_zs60y21bhzev4-fill" stroke="none" fill="#fb6762">
      <g>
        <text style="font: bold 20px Roboto, sans-serif; white-space: pre;" font-weight="bold" font-size="20px" font-family="Roboto, sans-serif">
          <tspan x="12" y="34" dominant-baseline="ideographic">October 26, 1958, 10:30 PM</tspan>
        </text>
      </g>
    </g>
  </g>
  <g id="g-root-tx_october2_qwj0p61bhzfnt-stroke-fill" data-item-order="0" transform="translate(50, 134)">
    <g id="tx_october2_qwj0p61bhzfnt-fill" stroke="none" fill="#4f91fc">
      <g>
        <text style="font: bold 20px Roboto, sans-serif; white-space: pre;" font-weight="bold" font-size="20px" font-family="Roboto, sans-serif">
          <tspan x="20.11" y="34" dominant-baseline="ideographic">October 26, 1958, 10:30 PM</tspan>
        </text>
      </g>
    </g>
    <defs>
      <pattern id="crawlingPattern-0000001b" x="0" y="0" width="12" height="12" patternUnits="userSpaceOnUse" fill="#0000001b">
        <use href="#crawlingSymbol"/>
      </pattern>
      <symbol id="crawlingSymbol">
        <g>
          <path d="M -12.5 12.5 l 13 -13 l 6 0 l -13 13 Z M -0.5 12.5 l 13 -13 l 6 0 l -13 13 Z M 11.5 12.5 l 13 -13 l 6 0 l -13 13 Z"/>
        </g>
      </symbol>
      <pattern id="crawlingPattern-f17400d3" x="0" y="0" width="12" height="12" patternUnits="userSpaceOnUse" fill="#f17400d3">
        <use href="#crawlingSymbol"/>
      </pattern>
      <pattern id="crawlingPattern-00b15c75" x="0" y="0" width="12" height="12" patternUnits="userSpaceOnUse" fill="#00b15c75">
        <use href="#crawlingSymbol"/>
      </pattern>
      <pattern id="crawlingPattern-eb008e76" x="0" y="0" width="12" height="12" patternUnits="userSpaceOnUse" fill="#eb008e76">
        <use href="#crawlingSymbol"/>
      </pattern>
      <pattern id="crawlingPattern-f9080081" x="0" y="0" width="12" height="12" patternUnits="userSpaceOnUse" fill="#f9080081">
        <use href="#crawlingSymbol"/>
      </pattern>
      <pattern id="crawlingPattern-0060fba2" x="0" y="0" width="12" height="12" patternUnits="userSpaceOnUse" fill="#0060fba2">
        <use href="#crawlingSymbol"/>
      </pattern>
    </defs>
  </g>
</svg>
