<svg width="816" height="636" viewBox="0 0 816 636" style="fill:none;stroke:none;fill-rule:evenodd;clip-rule:evenodd;stroke-linecap:round;stroke-linejoin:round;stroke-miterlimit:1.5;" version="1.1" xmlns="http://www.w3.org/2000/svg" xmlns:xlink="http://www.w3.org/1999/xlink"><style class="text-font-style fontImports" data-font-family="Roboto">@import url('https://fonts.googleapis.com/css2?family=Roboto:wght@400;700&amp;display=block');</style><g id="g-root-tf_v7cwga1bihqfe-stroke-fill" data-item-order="-477360" transform="translate(18, 12)"><g id="tf_v7cwga1bihqfe-fill" stroke="none" fill="#2c2c2c"><g><path d="M 0 0L 780 0L 780 612L 0 612Z"></path></g></g><defs><pattern id="crawlingPattern-7878781a" x="0" y="0" width="12" height="12" patternUnits="userSpaceOnUse" fill="#7878781a"><use href="#crawlingSymbol"></use></pattern><symbol id="crawlingSymbol"><g><animateTransform attributeName="transform" type="translate" from="0 0" to="-12 0" dur="0.4s" repeatCount="indefinite"></animateTransform><path d="M -12.5 12.5 l 13 -13 l 6 0 l -13 13 Z M -0.5 12.5 l 13 -13 l 6 0 l -13 13 Z M 11.5 12.5 l 13 -13 l 6 0 l -13 13 Z"></path></g></symbol><pattern id="crawlingPattern-f576002d" x="0" y="0" width="12" height="12" patternUnits="userSpaceOnUse" fill="#f576002d"><use href="#crawlingSymbol"></use></pattern><pattern id="crawlingPattern-8484841a" x="0" y="0" width="12" height="12" patternUnits="userSpaceOnUse" fill="#8484841a"><use href="#crawlingSymbol"></use></pattern><pattern id="crawlingPattern-f908001a" x="0" y="0" width="12" height="12" patternUnits="userSpaceOnUse" fill="#f908001a"><use href="#crawlingSymbol"></use></pattern><pattern id="crawlingPattern-00d16d21" x="0" y="0" width="12" height="12" patternUnits="userSpaceOnUse" fill="#00d16d21"><use href="#crawlingSymbol"></use></pattern><pattern id="crawlingPattern-ffffff38" x="0" y="0" width="12" height="12" patternUnits="userSpaceOnUse" fill="#ffffff38"><use href="#crawlingSymbol"></use></pattern><pattern id="crawlingPattern-0000001b" x="0" y="0" width="12" height="12" patternUnits="userSpaceOnUse" fill="#0000001b"><use href="#crawlingSymbol"></use></pattern><pattern id="crawlingPattern-5f5f5f1a" x="0" y="0" width="12" height="12" patternUnits="userSpaceOnUse" fill="#5f5f5f1a"><use href="#crawlingSymbol"></use></pattern></defs><g id="tf_v7cwga1bihqfe-fill-overlay" stroke="none" fill="url(#crawlingPattern-5f5f5f1a)"><g><path d="M 0 0L 780 0L 780 612L 0 612Z"></path></g></g></g><g id="g-root-sy_-1_cu_8zp6y1bigaa7-stroke-fill" data-item-order="-316218" transform="translate(32, 265.00390625)"><g id="sy_-1_cu_8zp6y1bigaa7-fill" stroke="none" fill="#ababab"><g><path d="M 10.001 143L 10 47L 67 47L 70 59L 322 59L 319 47L 367 47L 370 59L 622 59L 619 47L 646 47L 646 10L 742 95L 646.002 180L 646 143L 619 143L 622 131L 370 131L 367 143L 319.001 143L 322.001 131L 70.001 131L 67.001 143L 10.001 143Z"></path></g></g><g id="sy_-1_cu_8zp6y1bigaa7-fill-overlay" stroke="none" fill="url(#crawlingPattern-7878781a)"><g><path d="M 10.001 143L 10 47L 67 47L 70 59L 322 59L 319 47L 367 47L 370 59L 622 59L 619 47L 646 47L 646 10L 742 95L 646.002 180L 646 143L 619 143L 622 131L 370 131L 367 143L 319.001 143L 322.001 131L 70.001 131L 67.001 143L 10.001 143Z"></path></g></g><g id="sy_-1_cu_8zp6y1bigaa7-stroke" fill="none" stroke-linecap="round" stroke-linejoin="round" stroke-miterlimit="4" stroke="#2c2c2c" stroke-width="2"><g><path d="M 10.001 143L 10 47L 67 47L 70 59L 322 59L 319 47L 367 47L 370 59L 622 59L 619 47L 646 47L 646 10L 742 95L 646.0017 180L 646 143L 619 143L 622 131L 370 131L 367 143L 319.001 143L 322.001 131L 70.001 131L 67.001 143L 10.001 143Z"></path></g></g><g id="sy_-1_cu_8zp6y1bigaa7-stroke-overlay" fill="none" stroke-linecap="round" stroke-linejoin="round" stroke-miterlimit="4" stroke="#ffffff29" stroke-width="2" stroke-dasharray="4,6"><animate attributeName="stroke-dashoffset" values="30;0" dur="1s" repeatCount="indefinite" begin="0"></animate><g><path d="M 10.001 143L 10 47L 67 47L 70 59L 322 59L 319 47L 367 47L 370 59L 622 59L 619 47L 646 47L 646 10L 742 95L 646.0017 180L 646 143L 619 143L 622 131L 370 131L 367 143L 319.001 143L 322.001 131L 70.001 131L 67.001 143L 10.001 143Z"></path></g></g></g><g id="g-root-sy_4_cu_1uua91m1bigavc-stroke-fill" data-item-order="-316214" transform="translate(347, 386)"><g id="sy_4_cu_1uua91m1bigavc-fill" stroke="none" fill="#f79438"><g><path d="M 307 10L 295 58L 43 58L 55 10L 307 10ZM 291.992188 70L 279.992188 118L 27.992188 118L 39.992188 70L 291.992188 70ZM 277 130L 25 130L 10 190L 262 190L 277 130Z"></path></g></g><g id="sy_4_cu_1uua91m1bigavc-fill-overlay" stroke="none" fill="url(#crawlingPattern-f576002d)"><g><path d="M 307 10L 295 58L 43 58L 55 10L 307 10ZM 291.992188 70L 279.992188 118L 27.992188 118L 39.992188 70L 291.992188 70ZM 277 130L 25 130L 10 190L 262 190L 277 130Z"></path></g></g><g id="sy_4_cu_1uua91m1bigavc-stroke" fill="none" stroke-linecap="round" stroke-linejoin="round" stroke-miterlimit="4" stroke="#2c2c2c" stroke-width="2"><g><path d="M 307 10L 295 58L 43 58L 55 10L 307 10ZM 291.992188 70L 279.992188 118L 27.992188 118L 39.992188 70L 291.992188 70ZM 277 130L 25 130L 10 190L 262 190L 277 130Z"></path></g></g><g id="sy_4_cu_1uua91m1bigavc-stroke-overlay" fill="none" stroke-linecap="round" stroke-linejoin="round" stroke-miterlimit="4" stroke="#ffffff29" stroke-width="2" stroke-dasharray="4,6"><animate attributeName="stroke-dashoffset" values="30;0" dur="1s" repeatCount="indefinite" begin="0"></animate><g><path d="M 307 10L 295 58L 43 58L 55 10L 307 10ZM 291.992188 70L 279.992188 118L 27.992188 118L 39.992188 70L 291.992188 70ZM 277 130L 25 130L 10 190L 262 190L 277 130Z"></path></g></g></g><g id="g-root-sy_3_cu_1qegqx61bigbnl-stroke-fill" data-item-order="-316210" transform="translate(347, 134)"><g id="sy_3_cu_1qegqx61bigbnl-fill" stroke="none" fill="#b7b7b7"><g><path d="M 307 190L 295 142L 43 142L 55 190L 307 190ZM 291.992188 130L 279.992188 82L 27.992188 82L 39.992188 130L 291.992188 130ZM 277 70L 25 70L 10 10L 262 10L 277 70Z"></path></g></g><g id="sy_3_cu_1qegqx61bigbnl-fill-overlay" stroke="none" fill="url(#crawlingPattern-8484841a)"><g><path d="M 307 190L 295 142L 43 142L 55 190L 307 190ZM 291.992188 130L 279.992188 82L 27.992188 82L 39.992188 130L 291.992188 130ZM 277 70L 25 70L 10 10L 262 10L 277 70Z"></path></g></g><g id="sy_3_cu_1qegqx61bigbnl-stroke" fill="none" stroke-linecap="round" stroke-linejoin="round" stroke-miterlimit="4" stroke="#2c2c2c" stroke-width="2"><g><path d="M 307 190L 295 142L 43 142L 55 190L 307 190ZM 291.992188 130L 279.992188 82L 27.992188 82L 39.992188 130L 291.992188 130ZM 277 70L 25 70L 10 10L 262 10L 277 70Z"></path></g></g><g id="sy_3_cu_1qegqx61bigbnl-stroke-overlay" fill="none" stroke-linecap="round" stroke-linejoin="round" stroke-miterlimit="4" stroke="#ffffff29" stroke-width="2" stroke-dasharray="4,6"><animate attributeName="stroke-dashoffset" values="30;0" dur="1s" repeatCount="indefinite" begin="0"></animate><g><path d="M 307 190L 295 142L 43 142L 55 190L 307 190ZM 291.992188 130L 279.992188 82L 27.992188 82L 39.992188 130L 291.992188 130ZM 277 70L 25 70L 10 10L 262 10L 277 70Z"></path></g></g></g><g id="g-root-sy_2_cu_1d3mpmy1biga2q-stroke-fill" data-item-order="-316206" transform="translate(47, 386)"><g id="sy_2_cu_1d3mpmy1biga2q-fill" stroke="none" fill="#fb6762"><g><path d="M 307.000977 10L 295.000977 58L 43.000977 58L 55.000977 10L 307.000977 10ZM 291.993164 70L 279.993164 118L 27.993164 118L 39.993164 70L 291.993164 70ZM 277.001 130L 25.001 130L 10 190L 262 190L 277.001 130Z"></path></g></g><g id="sy_2_cu_1d3mpmy1biga2q-fill-overlay" stroke="none" fill="url(#crawlingPattern-f908001a)"><g><path d="M 307.000977 10L 295.000977 58L 43.000977 58L 55.000977 10L 307.000977 10ZM 291.993164 70L 279.993164 118L 27.993164 118L 39.993164 70L 291.993164 70ZM 277.001 130L 25.001 130L 10 190L 262 190L 277.001 130Z"></path></g></g><g id="sy_2_cu_1d3mpmy1biga2q-stroke" fill="none" stroke-linecap="round" stroke-linejoin="round" stroke-miterlimit="4" stroke="#2c2c2c" stroke-width="2"><g><path d="M 307.000977 10L 295.000977 58L 43.000977 58L 55.000977 10L 307.000977 10ZM 291.993164 70L 279.993164 118L 27.993164 118L 39.993164 70L 291.993164 70ZM 277.001 130L 25.001 130L 10 190L 262 190L 277.001 130Z"></path></g></g><g id="sy_2_cu_1d3mpmy1biga2q-stroke-overlay" fill="none" stroke-linecap="round" stroke-linejoin="round" stroke-miterlimit="4" stroke="#ffffff29" stroke-width="2" stroke-dasharray="4,6"><animate attributeName="stroke-dashoffset" values="30;0" dur="1s" repeatCount="indefinite" begin="0"></animate><g><path d="M 307.000977 10L 295.000977 58L 43.000977 58L 55.000977 10L 307.000977 10ZM 291.993164 70L 279.993164 118L 27.993164 118L 39.993164 70L 291.993164 70ZM 277.001 130L 25.001 130L 10 190L 262 190L 277.001 130Z"></path></g></g></g><g id="g-root-sy_1_cu_zs679m1bigbnn-stroke-fill" data-item-order="-316202" transform="translate(47, 134)"><g id="sy_1_cu_zs679m1bigbnn-fill" stroke="none" fill="#43dd93"><g><path d="M 307 190L 295 142L 43 142L 55 190L 307 190ZM 291.992188 130L 279.992188 82L 27.992188 82L 39.992188 130L 291.992188 130ZM 277 70L 25 70L 10 10L 262 10L 277 70Z"></path></g></g><g id="sy_1_cu_zs679m1bigbnn-fill-overlay" stroke="none" fill="url(#crawlingPattern-00d16d21)"><g><path d="M 307 190L 295 142L 43 142L 55 190L 307 190ZM 291.992188 130L 279.992188 82L 27.992188 82L 39.992188 130L 291.992188 130ZM 277 70L 25 70L 10 10L 262 10L 277 70Z"></path></g></g><g id="sy_1_cu_zs679m1bigbnn-stroke" fill="none" stroke-linecap="round" stroke-linejoin="round" stroke-miterlimit="4" stroke="#2c2c2c" stroke-width="2"><g><path d="M 307 190L 295 142L 43 142L 55 190L 307 190ZM 291.992188 130L 279.992188 82L 27.992188 82L 39.992188 130L 291.992188 130ZM 277 70L 25 70L 10 10L 262 10L 277 70Z"></path></g></g><g id="sy_1_cu_zs679m1bigbnn-stroke-overlay" fill="none" stroke-linecap="round" stroke-linejoin="round" stroke-miterlimit="4" stroke="#ffffff29" stroke-width="2" stroke-dasharray="4,6"><animate attributeName="stroke-dashoffset" values="30;0" dur="1s" repeatCount="indefinite" begin="0"></animate><g><path d="M 307 190L 295 142L 43 142L 55 190L 307 190ZM 291.992188 130L 279.992188 82L 27.992188 82L 39.992188 130L 291.992188 130ZM 277 70L 25 70L 10 10L 262 10L 277 70Z"></path></g></g></g><g id="g-root-tx_unexplai_qn62q21bihnv0-stroke-fill" data-item-order="0" transform="translate(164, 332)"><g id="tx_unexplai_qn62q21bihnv0-fill" stroke="none" fill="#2c2c2c"><g><text style="font: bold 25px Roboto, sans-serif; white-space: pre;" font-weight="bold" font-size="25px" font-family="Roboto, sans-serif"><tspan x="12.95" y="43" dominant-baseline="ideographic">Unexplained UFO Encounter at Loch Raven Dam</tspan></text></g></g><g id="tx_unexplai_qn62q21bihnv0-fill-overlay" stroke="none" fill="url(#crawlingPattern-ffffff38)"><g><text style="font: bold 25px Roboto, sans-serif; white-space: pre;" font-weight="bold" font-size="25px" font-family="Roboto, sans-serif"><tspan x="12.95" y="43" dominant-baseline="ideographic">Unexplained UFO Encounter at Loch Raven Dam</tspan></text></g></g></g><g id="g-root-tx_experime_dbpkcq1bihpfx-stroke-fill" data-item-order="0" transform="translate(476, 398)"><g id="tx_experime_dbpkcq1bihpfx-fill" stroke="none" fill="#2c2c2c"><g><text style="font: 15px Roboto, sans-serif; white-space: pre;" font-size="15px" font-family="Roboto, sans-serif"><tspan x="11.8" y="31" dominant-baseline="ideographic">Experimental Aircraft</tspan></text></g></g><g id="tx_experime_dbpkcq1bihpfx-fill-overlay" stroke="none" fill="url(#crawlingPattern-ffffff38)"><g><text style="font: 15px Roboto, sans-serif; white-space: pre;" font-size="15px" font-family="Roboto, sans-serif"><tspan x="11.8" y="31" dominant-baseline="ideographic">Experimental Aircraft</tspan></text></g></g></g><g id="g-root-tx_atmosphe_vj2i1bihnv2-stroke-fill" data-item-order="0" transform="translate(425, 458)"><g id="tx_atmosphe_vj2i1bihnv2-fill" stroke="none" fill="#2c2c2c"><g><text style="font: 15px Roboto, sans-serif; white-space: pre;" font-size="15px" font-family="Roboto, sans-serif"><tspan x="18.97" y="31" dominant-baseline="ideographic">Atmospheric Phenomena</tspan></text></g></g><g id="tx_atmosphe_vj2i1bihnv2-fill-overlay" stroke="none" fill="url(#crawlingPattern-ffffff38)"><g><text style="font: 15px Roboto, sans-serif; white-space: pre;" font-size="15px" font-family="Roboto, sans-serif"><tspan x="18.97" y="31" dominant-baseline="ideographic">Atmospheric Phenomena</tspan></text></g></g></g><g id="g-root-tx_alternat_1um62x61bihog7-stroke-fill" data-item-order="0" transform="translate(470, 512)"><g id="tx_alternat_1um62x61bihog7-fill" stroke="none" fill="#2c2c2c"><g><text style="font: bold 20px Roboto, sans-serif; white-space: pre;" font-weight="bold" font-size="20px" font-family="Roboto, sans-serif"><tspan x="29.59" y="34" dominant-baseline="ideographic">Alternative </tspan><tspan x="12.58" y="58" dominant-baseline="ideographic">Explanations</tspan></text></g></g><g id="tx_alternat_1um62x61bihog7-fill-overlay" stroke="none" fill="url(#crawlingPattern-ffffff38)"><g><text style="font: bold 20px Roboto, sans-serif; white-space: pre;" font-weight="bold" font-size="20px" font-family="Roboto, sans-serif"><tspan x="29.59" y="34" dominant-baseline="ideographic">Alternative </tspan><tspan x="12.58" y="58" dominant-baseline="ideographic">Explanations</tspan></text></g></g></g><g id="g-root-tx_lackofex_1hapkju1bihq14-stroke-fill" data-item-order="0" transform="translate(476, 278)"><g id="tx_lackofex_1hapkju1bihq14-fill" stroke="none" fill="#2c2c2c"><g><text style="font: 15px Roboto, sans-serif; white-space: pre;" font-size="15px" font-family="Roboto, sans-serif"><tspan x="21.06" y="31" dominant-baseline="ideographic">Lack of Explanation</tspan></text></g></g><g id="tx_lackofex_1hapkju1bihq14-fill-overlay" stroke="none" fill="url(#crawlingPattern-ffffff38)"><g><text style="font: 15px Roboto, sans-serif; white-space: pre;" font-size="15px" font-family="Roboto, sans-serif"><tspan x="21.06" y="31" dominant-baseline="ideographic">Lack of Explanation</tspan></text></g></g></g><g id="g-root-tx_unidenti_13zvj9m1bihog9-stroke-fill" data-item-order="0" transform="translate(425, 218)"><g id="tx_unidenti_13zvj9m1bihog9-fill" stroke="none" fill="#2c2c2c"><g><text style="font: 15px Roboto, sans-serif; white-space: pre;" font-size="15px" font-family="Roboto, sans-serif"><tspan x="14.22" y="31" dominant-baseline="ideographic">Unidentified Classification</tspan></text></g></g><g id="tx_unidenti_13zvj9m1bihog9-fill-overlay" stroke="none" fill="url(#crawlingPattern-ffffff38)"><g><text style="font: 15px Roboto, sans-serif; white-space: pre;" font-size="15px" font-family="Roboto, sans-serif"><tspan x="14.22" y="31" dominant-baseline="ideographic">Unidentified Classification</tspan></text></g></g></g><g id="g-root-tx_official_qof0wa1bihq16-stroke-fill" data-item-order="0" transform="translate(398, 152)"><g id="tx_official_qof0wa1bihq16-fill" stroke="none" fill="#2c2c2c"><g><text style="font: bold 20px Roboto, sans-serif; white-space: pre;" font-weight="bold" font-size="20px" font-family="Roboto, sans-serif"><tspan x="14.05" y="34" dominant-baseline="ideographic">Official Investigation</tspan></text></g></g><g id="tx_official_qof0wa1bihq16-fill-overlay" stroke="none" fill="url(#crawlingPattern-ffffff38)"><g><text style="font: bold 20px Roboto, sans-serif; white-space: pre;" font-weight="bold" font-size="20px" font-family="Roboto, sans-serif"><tspan x="14.05" y="34" dominant-baseline="ideographic">Official Investigation</tspan></text></g></g></g><g id="g-root-tx_medicals_m97zuy1bihnnn-stroke-fill" data-item-order="0" transform="translate(188, 398)"><g id="tx_medicals_m97zuy1bihnnn-fill" stroke="none" fill="#2c2c2c"><g><text style="font: 15px Roboto, sans-serif; white-space: pre;" font-size="15px" font-family="Roboto, sans-serif"><tspan x="11.67" y="31" dominant-baseline="ideographic">Medical Symptoms</tspan></text></g></g><g id="tx_medicals_m97zuy1bihnnn-fill-overlay" stroke="none" fill="url(#crawlingPattern-ffffff38)"><g><text style="font: 15px Roboto, sans-serif; white-space: pre;" font-size="15px" font-family="Roboto, sans-serif"><tspan x="11.67" y="31" dominant-baseline="ideographic">Medical Symptoms</tspan></text></g></g></g><g id="g-root-tx_vehiclem_ddkzm21bihogc-stroke-fill" data-item-order="0" transform="translate(161, 458)"><g id="tx_vehiclem_ddkzm21bihogc-fill" stroke="none" fill="#2c2c2c"><g><text style="font: 15px Roboto, sans-serif; white-space: pre;" font-size="15px" font-family="Roboto, sans-serif"><tspan x="19.81" y="31" dominant-baseline="ideographic">Vehicle Malfunction</tspan></text></g></g><g id="tx_vehiclem_ddkzm21bihogc-fill-overlay" stroke="none" fill="url(#crawlingPattern-ffffff38)"><g><text style="font: 15px Roboto, sans-serif; white-space: pre;" font-size="15px" font-family="Roboto, sans-serif"><tspan x="19.81" y="31" dominant-baseline="ideographic">Vehicle Malfunction</tspan></text></g></g></g><g id="g-root-tx_physical_24h8q1bihq19-stroke-fill" data-item-order="0" transform="translate(122, 524)"><g id="tx_physical_24h8q1bihq19-fill" stroke="none" fill="#2c2c2c"><g><text style="font: bold 20px Roboto, sans-serif; white-space: pre;" font-weight="bold" font-size="20px" font-family="Roboto, sans-serif"><tspan x="13.97" y="34" dominant-baseline="ideographic">Physical Evidence</tspan></text></g></g><g id="tx_physical_24h8q1bihq19-fill-overlay" stroke="none" fill="url(#crawlingPattern-ffffff38)"><g><text style="font: bold 20px Roboto, sans-serif; white-space: pre;" font-weight="bold" font-size="20px" font-family="Roboto, sans-serif"><tspan x="13.97" y="34" dominant-baseline="ideographic">Physical Evidence</tspan></text></g></g></g><g id="g-root-tx_immediat_1lsehxm1biho9a-stroke-fill" data-item-order="0" transform="translate(161, 218)"><g id="tx_immediat_1lsehxm1biho9a-fill" stroke="none" fill="#2c2c2c"><g><text style="font: 15px Roboto, sans-serif; white-space: pre;" font-size="15px" font-family="Roboto, sans-serif"><tspan x="11.92" y="31" dominant-baseline="ideographic">Immediate Reporting</tspan></text></g></g><g id="tx_immediat_1lsehxm1biho9a-fill-overlay" stroke="none" fill="url(#crawlingPattern-ffffff38)"><g><text style="font: 15px Roboto, sans-serif; white-space: pre;" font-size="15px" font-family="Roboto, sans-serif"><tspan x="11.92" y="31" dominant-baseline="ideographic">Immediate Reporting</tspan></text></g></g></g><g id="g-root-tx_consiste_18gxzka1bihpu7-stroke-fill" data-item-order="0" transform="translate(164, 278)"><g id="tx_consiste_18gxzka1bihpu7-fill" stroke="none" fill="#2c2c2c"><g><text style="font: 15px Roboto, sans-serif; white-space: pre;" font-size="15px" font-family="Roboto, sans-serif"><tspan x="19.22" y="31" dominant-baseline="ideographic">Consistent Testimony</tspan></text></g></g><g id="tx_consiste_18gxzka1bihpu7-fill-overlay" stroke="none" fill="url(#crawlingPattern-ffffff38)"><g><text style="font: 15px Roboto, sans-serif; white-space: pre;" font-size="15px" font-family="Roboto, sans-serif"><tspan x="19.22" y="31" dominant-baseline="ideographic">Consistent Testimony</tspan></text></g></g></g><g id="g-root-tx_witnessc_zlxgei1biho8w-stroke-fill" data-item-order="0" transform="translate(110, 152)"><g id="tx_witnessc_zlxgei1biho8w-fill" stroke="none" fill="#2c2c2c"><g><text style="font: bold 20px Roboto, sans-serif; white-space: pre;" font-weight="bold" font-size="20px" font-family="Roboto, sans-serif"><tspan x="19.36" y="34" dominant-baseline="ideographic">Witness Credibility</tspan></text></g></g><g id="tx_witnessc_zlxgei1biho8w-fill-overlay" stroke="none" fill="url(#crawlingPattern-ffffff38)"><g><text style="font: bold 20px Roboto, sans-serif; white-space: pre;" font-weight="bold" font-size="20px" font-family="Roboto, sans-serif"><tspan x="19.36" y="34" dominant-baseline="ideographic">Witness Credibility</tspan></text></g></g></g><g id="g-root-tx_analyzin_magy161bihptt-stroke-fill" data-item-order="0" transform="translate(188, 50)"><g id="tx_analyzin_magy161bihptt-fill" stroke="none" fill="#f4f4f4"><g><text style="font: bold 20px Roboto, sans-serif; white-space: pre;" font-weight="bold" font-size="20px" font-family="Roboto, sans-serif"><tspan x="15" y="34" dominant-baseline="ideographic">Analyzing the Loch Raven Dam UFO Incident</tspan></text></g></g><g id="tx_analyzin_magy161bihptt-fill-overlay" stroke="none" fill="url(#crawlingPattern-0000001b)"><g><text style="font: bold 20px Roboto, sans-serif; white-space: pre;" font-weight="bold" font-size="20px" font-family="Roboto, sans-serif"><tspan x="15" y="34" dominant-baseline="ideographic">Analyzing the Loch Raven Dam UFO Incident</tspan></text></g></g></g></svg>