<?xml version='1.0' encoding='utf-8'?>
<svg xmlns="http://www.w3.org/2000/svg" xmlns:xlink="http://www.w3.org/1999/xlink" width="816" height="552" viewBox="0 0 816 552" style="fill:none;stroke:none;fill-rule:evenodd;clip-rule:evenodd;stroke-linecap:round;stroke-linejoin:round;stroke-miterlimit:1.5;" version="1.1">
  <style class="text-font-style fontImports" data-font-family="Roboto">@import url('https://fonts.googleapis.com/css2?family=Roboto:wght@400;700&amp;display=block');</style>
  <rect x="0" y="0" width="816" height="552" fill="#252a34" stroke="none" id="programmatic_background"/>
  <g id="g-root-tf_93dht61c29udk-stroke-fill" data-item-order="-411840" transform="translate(18, 12)"/>
  <g id="g-root-cp_0_g-0_58l7u1c25mob-stroke-fill" data-item-order="-248805" transform="translate(56.130859375, 248.5)">
    <g id="cp_0_g-0_58l7u1c25mob-stroke" fill="none" stroke-linecap="round" stroke-linejoin="round" stroke-miterlimit="4" stroke="#d3d3d3" stroke-width="2">
      <g>
        <path d="M 106 51L 262 51M 286 51L 442 51M 274 63.5L 274 93M 454 10L 454 39.5M 465.869141 51.5L 537.869141 51.5M 10 51L 82 51M 94 10L 94 39.5"/>
      </g>
    </g>
  </g>
  <g id="g-root-cp_1_g-1_1luw4tm1c25o25-stroke-fill" data-item-order="-248790" transform="translate(95.1309814453125, 125)">
    <g id="cp_1_g-1_1luw4tm1c25o25-fill" stroke="none" fill="none">
      <g>
        <path d="M 100 55C 100 66.244 94.5 77.5875 89 86L 55.816 132.848C 55.4175 133.411 54.5825 133.411 54.184 132.848L 21 86C 14.5 77 10 66.7284 10 55C 10 30.1472 30.1472 10 55 10C 79.8528 10 100 30.1472 100 55ZM 55 91C 74.8822 91 91 74.8822 91 55C 91 35.1177 74.8822 19 55 19C 35.1177 19 19 35.1177 19 55C 19 74.8822 35.1177 91 55 91Z"/>
      </g>
    </g>
    <g id="cp_1_g-1_1luw4tm1c25o25-stroke" fill="none" stroke-linecap="round" stroke-linejoin="round" stroke-miterlimit="4" stroke="#4f91fc" stroke-width="2">
      <g>
        <path d="M 100 55C 100 66.244 94.5 77.5875 89 86L 55.816 132.848C 55.4175 133.4106 54.5825 133.4106 54.184 132.848L 21 86C 14.5 77 10 66.7284 10 55C 10 30.1472 30.1472 10 55 10C 79.8528 10 100 30.1472 100 55ZM 55 91C 74.8822 91 91 74.8822 91 55C 91 35.1177 74.8822 19 55 19C 35.1177 19 19 35.1177 19 55C 19 74.8822 35.1177 91 55 91Z"/>
      </g>
    </g>
    <g id="cp_1_g-1_1luw4tm1c25o25-fill" stroke="none" fill="none">
      <g>
        <path d="M 55 187C 61.6274 187 67 181.6274 67 175C 67 168.3726 61.6274 163 55 163C 48.3726 163 43 168.3726 43 175C 43 181.6274 48.3726 187 55 187ZM 55 181C 58.3137 181 61 178.3137 61 175C 61 171.6863 58.3137 169 55 169C 51.6863 169 49 171.6863 49 175C 49 178.3137 51.6863 181 55 181Z"/>
      </g>
    </g>
    <g id="cp_1_g-1_1luw4tm1c25o25-stroke" fill="none" stroke-linecap="round" stroke-linejoin="round" stroke-miterlimit="4" stroke="#4f91fc" stroke-width="2">
      <g>
        <path d="M 55 187C 61.6274 187 67 181.6274 67 175C 67 168.3726 61.6274 163 55 163C 48.3726 163 43 168.3726 43 175C 43 181.6274 48.3726 187 55 187ZM 55 181C 58.3137 181 61 178.3137 61 175C 61 171.6863 58.3137 169 55 169C 51.6863 169 49 171.6863 49 175C 49 178.3137 51.6863 181 55 181Z"/>
      </g>
    </g>
  </g>
  <g id="g-root-cp_2_g-2_1hf2mp61c25oug-stroke-fill" data-item-order="-248786" transform="translate(275.1309814453125, 278)">
    <g id="cp_2_g-2_1hf2mp61c25oug-fill" stroke="none" fill="none">
      <g>
        <path d="M 100 142.000369C 100 130.756469 94.5 119.412869 89 111.000369L 55.816 64.152469C 55.4175 63.589769 54.5825 63.589769 54.184 64.152469L 21 111.000369C 14.5 120.000369 10 130.271969 10 142.000369C 10 166.853469 30.1472 187.000469 55 187.000469C 79.8528 187.000469 100 166.853469 100 142.000369ZM 55 106.000369C 74.8822 106.000369 91 122.118169 91 142.000369C 91 161.882669 74.8822 178.000469 55 178.000469C 35.1177 178.000469 19 161.882669 19 142.000369C 19 122.118169 35.1177 106.000369 55 106.000369Z"/>
      </g>
    </g>
    <g id="cp_2_g-2_1hf2mp61c25oug-stroke" fill="none" stroke-linecap="round" stroke-linejoin="round" stroke-miterlimit="4" stroke="#1ac3fb" stroke-width="2">
      <g>
        <path d="M 100 142.000369C 100 130.756469 94.5 119.412869 89 111.000369L 55.816 64.152469C 55.4175 63.589769 54.5825 63.589769 54.184 64.152469L 21 111.000369C 14.5 120.000369 10 130.271969 10 142.000369C 10 166.853269 30.1472 187.000369 55 187.000369C 79.8528 187.000369 100 166.853269 100 142.000369ZM 55 106.000369C 74.8822 106.000369 91 122.118169 91 142.000369C 91 161.882669 74.8822 178.000369 55 178.000369C 35.1177 178.000369 19 161.882669 19 142.000369C 19 122.118169 35.1177 106.000369 55 106.000369Z"/>
      </g>
    </g>
    <g id="cp_2_g-2_1hf2mp61c25oug-fill" stroke="none" fill="none">
      <g>
        <path d="M 55 34C 61.6274 34 67 28.6274 67 22C 67 15.3726 61.6274 10 55 10C 48.3726 10 43 15.3726 43 22C 43 28.6274 48.3726 34 55 34ZM 55 28C 58.3137 28 61 25.3137 61 22C 61 18.6863 58.3137 16 55 16C 51.6863 16 49 18.6863 49 22C 49 25.3137 51.6863 28 55 28Z"/>
      </g>
    </g>
    <g id="cp_2_g-2_1hf2mp61c25oug-stroke" fill="none" stroke-linecap="round" stroke-linejoin="round" stroke-miterlimit="4" stroke="#1ac3fb" stroke-width="2">
      <g>
        <path d="M 55 34C 61.6274 34 67 28.6274 67 22C 67 15.3726 61.6274 10 55 10C 48.3726 10 43 15.3726 43 22C 43 28.6274 48.3726 34 55 34ZM 55 28C 58.3137 28 61 25.3137 61 22C 61 18.6863 58.3137 16 55 16C 51.6863 16 49 18.6863 49 22C 49 25.3137 51.6863 28 55 28Z"/>
      </g>
    </g>
  </g>
  <g id="g-root-cp_3_g-3_1czvlnu1c25mgz-stroke-fill" data-item-order="-248780" transform="translate(455.1310119628906, 125)">
    <g id="cp_3_g-3_1czvlnu1c25mgz-fill" stroke="none" fill="none">
      <g>
        <path d="M 100 55C 100 66.244 94.5 77.5875 89 86L 55.816 132.848C 55.4175 133.411 54.5825 133.411 54.184 132.848L 21 86C 14.5 77 10 66.7284 10 55C 10 30.1472 30.1472 10 55 10C 79.8528 10 100 30.1472 100 55ZM 55 91C 74.8822 91 91 74.8822 91 55C 91 35.1177 74.8822 19 55 19C 35.1177 19 19 35.1177 19 55C 19 74.8822 35.1177 91 55 91Z"/>
      </g>
    </g>
    <g id="cp_3_g-3_1czvlnu1c25mgz-stroke" fill="none" stroke-linecap="round" stroke-linejoin="round" stroke-miterlimit="4" stroke="#43dd93" stroke-width="2">
      <g>
        <path d="M 100 55C 100 66.244 94.5 77.5875 89 86L 55.816 132.848C 55.4175 133.4106 54.5825 133.4106 54.184 132.848L 21 86C 14.5 77 10 66.7284 10 55C 10 30.1472 30.1472 10 55 10C 79.8528 10 100 30.1472 100 55ZM 55 91C 74.8822 91 91 74.8822 91 55C 91 35.1177 74.8822 19 55 19C 35.1177 19 19 35.1177 19 55C 19 74.8822 35.1177 91 55 91Z"/>
      </g>
    </g>
    <g id="cp_3_g-3_1czvlnu1c25mgz-fill" stroke="none" fill="none">
      <g>
        <path d="M 55 187C 61.6274 187 67 181.6274 67 175C 67 168.3726 61.6274 163 55 163C 48.3726 163 43 168.3726 43 175C 43 181.6274 48.3726 187 55 187ZM 55 181C 58.3137 181 61 178.3137 61 175C 61 171.6863 58.3137 169 55 169C 51.6863 169 49 171.6863 49 175C 49 178.3137 51.6863 181 55 181Z"/>
      </g>
    </g>
    <g id="cp_3_g-3_1czvlnu1c25mgz-stroke" fill="none" stroke-linecap="round" stroke-linejoin="round" stroke-miterlimit="4" stroke="#43dd93" stroke-width="2">
      <g>
        <path d="M 55 187C 61.6274 187 67 181.6274 67 175C 67 168.3726 61.6274 163 55 163C 48.3726 163 43 168.3726 43 175C 43 181.6274 48.3726 187 55 187ZM 55 181C 58.3137 181 61 178.3137 61 175C 61 171.6863 58.3137 169 55 169C 51.6863 169 49 171.6863 49 175C 49 178.3137 51.6863 181 55 181Z"/>
      </g>
    </g>
  </g>
  <g id="g-root-tx_themaure_zof3ai1c25o1y-stroke-fill" data-item-order="0" transform="translate(116, 50)">
    <g id="tx_themaure_zof3ai1c25o1y-fill" stroke="none" fill="#f4f4f4">
      <g>
        <text style="font: 20px Roboto, sans-serif; white-space: pre;" font-size="20px" font-family="Roboto, sans-serif">
          <tspan x="15.88" y="34" dominant-baseline="ideographic">The Maureen Puddy UFO Encounter Timeline</tspan>
        </text>
      </g>
    </g>
  </g>
  <g id="g-root-ic_1_mdl20a1c25mh3-stroke-fill" data-item-order="0" transform="translate(296.1310119628906, 386.0000305175781)">
    <g id="ic_1_mdl20a1c25mh3-stroke" fill="none" stroke-linecap="round" stroke-linejoin="round" stroke-miterlimit="4" stroke="#1ac3fb" stroke-width="2">
      <g>
        <path d="M 48.999973 34.999985L 48.999973 22.949991C 48.999973 16.350193 43.64978 10.999999 37.04998 10.999999L 12.999998 10.999999C 11.89543 10.999999 10.999999 11.89543 10.999999 12.999998L 10.999999 54.999969C 10.999999 56.104538 11.89543 56.999969 12.999998 56.999969L 18.999994 56.999969M 38.999981 11.159999L 38.999981 18.999994C 38.999981 20.104563 39.895409 20.999992 40.999981 20.999992L 48.839973 20.999992M 56.999969 40.999981L 56.999969 45.599976C 56.999729 49.743919 55.589039 53.764378 52.999969 56.999966C 50.4109 53.764378 49.00021 49.743919 48.999969 45.599976L 48.999973 40.999981M 36.999981 40.999981L 36.999981 53.999969C 36.999981 55.656826 38.343128 56.999969 39.999981 56.999969L 44.999977 56.999969M 24.99999 56.999969L 24.99999 43.999977C 24.99999 42.343124 26.343134 40.999981 27.999989 40.999981L 32.999985 40.999981M 24.99999 48.999973L 29.999987 48.999973"/>
      </g>
    </g>
  </g>
  <g id="g-root-tx_1983_zof3ai1c271fs-stroke-fill" data-item-order="0" transform="translate(344, 134)">
    <g id="tx_1983_zof3ai1c271fs-fill" stroke="none" fill="#1ac3fb">
      <g>
        <text style="font: bold 20px Roboto, sans-serif; white-space: pre;" font-weight="bold" font-size="20px" font-family="Roboto, sans-serif">
          <tspan x="17.05" y="34" dominant-baseline="ideographic">1983</tspan>
        </text>
      </g>
    </g>
  </g>
  <g id="g-root-tx_publicat_mcykx61c2730p-stroke-fill" data-item-order="0" transform="translate(236, 170)">
    <g id="tx_publicat_mcykx61c2730p-fill" stroke="none" fill="#f4f4f4">
      <g>
        <text style="font: 15px Roboto, sans-serif; white-space: pre;" font-size="15px" font-family="Roboto, sans-serif">
          <tspan x="17" y="28" dominant-baseline="ideographic">Publication in VUFORS </tspan>
          <tspan x="66.11" y="46" dominant-baseline="ideographic">"Review</tspan>
        </text>
      </g>
    </g>
  </g>
  <g id="g-root-tx_19721973_924jmy1c271fu-stroke-fill" data-item-order="0" transform="translate(116, 374)">
    <g id="tx_19721973_924jmy1c271fu-fill" stroke="none" fill="#4f91fc">
      <g>
        <text style="font: bold 20px Roboto, sans-serif; white-space: pre;" font-weight="bold" font-size="20px" font-family="Roboto, sans-serif">
          <tspan x="14.16" y="34" dominant-baseline="ideographic">1972-1973</tspan>
        </text>
      </g>
    </g>
  </g>
  <g id="g-root-tx_document_4mb1ii1c27283-stroke-fill" data-item-order="0" transform="translate(92, 410)">
    <g id="tx_document_4mb1ii1c27283-fill" stroke="none" fill="#f4f4f4">
      <g>
        <text style="font: 15px Roboto, sans-serif; white-space: pre;" font-size="15px" font-family="Roboto, sans-serif">
          <tspan x="13.37" y="28" dominant-baseline="ideographic">Documentation by </tspan>
          <tspan x="46.1" y="46" dominant-baseline="ideographic">VUFORS</tspan>
        </text>
      </g>
    </g>
  </g>
  <g id="g-root-ic_ufo_1qcl27e1c270g4-stroke-fill" data-item-order="0" transform="translate(116.1309814453125, 146)">
    <g id="ic_ufo_1qcl27e1c270g4-stroke" fill="none" stroke-linecap="round" stroke-linejoin="round" stroke-miterlimit="4" stroke="#4f91fc" stroke-width="2">
      <g>
        <path d="M 49 22.5C 52.977859 22.499041 56.352161 25.420879 56.919998 29.358C 56.961449 29.646814 56.874687 29.939325 56.682472 30.158836C 56.490257 30.378345 56.211758 30.502958 55.919998 30.5L 12.07 30.5C 11.778242 30.502958 11.499743 30.378345 11.307528 30.158836C 11.115312 29.939325 11.028553 29.646814 11.07 29.358C 11.638377 25.417118 15.018346 22.494064 19 22.5ZM 19 22.5C 19 17.5 25.716 11.5 34 11.5C 42.284 11.5 49 17.5 49 22.5M 47.77 39.5L 52.995998 56.5M 14.996 56.5L 20.232 39.5M 34.996002 49.5L 31.996 53.652M 37.996002 53.5L 34.996002 49.5M 31.996 46.5L 37.996002 46.5M 35 41.5C 35.552284 41.5 36 41.947716 36 42.5M 34 42.5C 34 41.947716 34.447716 41.5 35 41.5M 35 43.5C 34.447716 43.5 34 43.052284 34 42.5M 36 42.5C 36 43.052284 35.552284 43.5 35 43.5M 34.996002 49.5L 34.996002 46.5M 25 30.5C 25 33.261421 22.761425 35.5 20 35.5C 17.238577 35.5 15 33.261421 15 30.5M 39 30.5C 39 33.261421 36.761425 35.5 34 35.5C 31.238577 35.5 29 33.261421 29 30.5M 53 30.5C 53 33.261421 50.761425 35.5 48 35.5C 45.238575 35.5 43 33.261421 43 30.5"/>
      </g>
    </g>
  </g>
  <g id="g-root-tx_1995_1qbyl4a1c28gzp-stroke-fill" data-item-order="0" transform="translate(524, 374)">
    <g id="tx_1995_1qbyl4a1c28gzp-fill" stroke="none" fill="#43dd93">
      <g>
        <text style="font: bold 20px Roboto, sans-serif; white-space: pre;" font-weight="bold" font-size="20px" font-family="Roboto, sans-serif">
          <tspan x="17.05" y="34" dominant-baseline="ideographic">1995</tspan>
        </text>
      </g>
    </g>
  </g>
  <g id="g-root-tx_publicsp_1d14ju21c28feu-stroke-fill" data-item-order="0" transform="translate(452, 410)">
    <g id="tx_publicsp_1d14ju21c28feu-fill" stroke="none" fill="#f4f4f4">
      <g>
        <text style="font: 15px Roboto, sans-serif; white-space: pre;" font-size="15px" font-family="Roboto, sans-serif">
          <tspan x="12.52" y="28" dominant-baseline="ideographic">Public Speaking at </tspan>
          <tspan x="17.12" y="46" dominant-baseline="ideographic">VUFORS Meeting</tspan>
        </text>
      </g>
    </g>
    <defs>
      <pattern id="crawlingPattern-0000001b" x="0" y="0" width="12" height="12" patternUnits="userSpaceOnUse" fill="#0000001b">
        <use href="#crawlingSymbol"/>
      </pattern>
      <symbol id="crawlingSymbol">
        <g>
          <path d="M -12.5 12.5 l 13 -13 l 6 0 l -13 13 Z M -0.5 12.5 l 13 -13 l 6 0 l -13 13 Z M 11.5 12.5 l 13 -13 l 6 0 l -13 13 Z"/>
        </g>
      </symbol>
      <pattern id="crawlingPattern-00a3d9d9" x="0" y="0" width="12" height="12" patternUnits="userSpaceOnUse" fill="#00a3d9d9">
        <use href="#crawlingSymbol"/>
      </pattern>
      <pattern id="crawlingPattern-0060fba2" x="0" y="0" width="12" height="12" patternUnits="userSpaceOnUse" fill="#0060fba2">
        <use href="#crawlingSymbol"/>
      </pattern>
      <pattern id="crawlingPattern-00b15c75" x="0" y="0" width="12" height="12" patternUnits="userSpaceOnUse" fill="#00b15c75">
        <use href="#crawlingSymbol"/>
      </pattern>
    </defs>
  </g>
  <g id="g-root-ic_2_145hjl61c28g7j-stroke-fill" data-item-order="0" transform="translate(476.1310119628906, 146)">
    <g id="ic_2_145hjl61c28g7j-stroke" fill="none" stroke-linecap="round" stroke-linejoin="round" stroke-miterlimit="4" stroke="#43dd93" stroke-width="2">
      <g>
        <path d="M 10 10M 41.999977 37.750183L 41.176979 36.104183C 40.474178 34.698383 40.74958 33.000587 41.860981 31.889185C 43.230576 30.519587 43.999977 28.662109 43.999977 26.725229L 43.999977 21.750233C 43.999977 16.227396 39.522781 11.750243 33.999985 11.750243C 28.477148 11.750243 23.99999 16.227396 23.99999 21.750233L 23.99999 26.725229C 23.99999 28.662109 24.769409 30.519587 26.138988 31.889185C 27.250368 33.000587 27.525888 34.698383 26.822989 36.104183L 25.999989 37.750183M 24.21191 19.750235L 43.788177 19.750235M 43.952976 20.750233C 43.952976 24.063951 41.279381 26.750229 37.981182 26.750229L 30.018787 26.750229C 26.720549 26.750229 24.046871 24.063951 24.046871 20.750233M 16.749996 48.750172C 19.649494 48.750172 21.999992 46.399776 21.999992 43.500175C 21.999992 40.60078 19.649494 38.250183 16.749996 38.250183C 13.850497 38.250183 11.499999 40.60078 11.499999 43.500175C 11.499999 46.399776 13.850497 48.750172 16.749996 48.750172ZM 25.02799 55.715771C 24.49761 54.47657 23.69565 53.372372 22.681332 52.484573C 21.666992 51.596775 20.466213 50.948174 19.167654 50.586773C 17.869076 50.225174 16.505896 50.159973 15.178757 50.395973C 13.851618 50.631973 12.594419 51.162971 11.499999 51.949772M 51.249973 48.750172C 54.149368 48.750172 56.499969 46.399776 56.499969 43.500175C 56.499969 40.60078 54.149368 38.250183 51.249973 38.250183C 48.350574 38.250183 45.999977 40.60078 45.999977 43.500175C 45.999977 46.399776 48.350574 48.750172 51.249973 48.750172ZM 42.972176 55.715771C 43.502579 54.47657 44.304577 53.372372 45.318779 52.484573C 46.333176 51.596775 47.533978 50.948174 48.832573 50.586773C 50.130974 50.225174 51.494175 50.159973 52.821373 50.395973C 54.148571 50.631973 55.405769 51.162971 56.500168 51.949772M 34.446182 48.750172C 37.345783 48.750172 39.696178 46.399776 39.696178 43.500175C 39.696178 40.60078 37.345783 38.250183 34.446182 38.250183C 31.546787 38.250183 29.196266 40.60078 29.196266 43.500175C 29.196266 46.399776 31.546787 48.750172 34.446182 48.750172ZM 42.897976 56.249969C 42.286575 54.496571 41.144779 52.976772 39.630779 51.901375C 38.116982 50.825974 36.305981 50.248173 34.448982 50.248173C 32.591984 50.248173 30.780987 50.825974 29.267166 51.901375C 27.753269 52.976772 26.611448 54.496571 25.999989 56.249969"/>
      </g>
    </g>
  </g>
</svg>
