<?xml version='1.0' encoding='utf-8'?>
<svg xmlns="http://www.w3.org/2000/svg" xmlns:xlink="http://www.w3.org/1999/xlink" width="1056" height="708" viewBox="0 0 1056 708" style="fill:none;stroke:none;fill-rule:evenodd;clip-rule:evenodd;stroke-linecap:round;stroke-linejoin:round;stroke-miterlimit:1.5;" version="1.1">
  <style class="text-font-style fontImports" data-font-family="Roboto">@import url('https://fonts.googleapis.com/css2?family=Roboto:wght@400;700&amp;display=block');</style>
  <rect x="0" y="0" width="1056" height="708" fill="#252a34" stroke="none" id="programmatic_background"/>
  <g id="g-root-tf_90wk8q1aedogf-stroke-fill" data-item-order="-691560" transform="translate(18, 12)"/>
  <g id="g-root-sy_4_cu_hs62ka1aecbnp-stroke-fill" data-item-order="-317369" transform="translate(608, 386)">
    <g id="sy_4_cu_hs62ka1aecbnp-stroke" fill="none" stroke-linecap="round" stroke-linejoin="round" stroke-miterlimit="4" stroke="#fb6762" stroke-width="2">
      <g>
        <path d="M 33.850586 154.000488L 45.850586 154.000488M 58.200195 70L 70.200195 70M 87.9997 10L 21.9997 238L 10 238"/>
      </g>
    </g>
  </g>
  <g id="g-root-sy_3_cu_8x5jei1aec9am-stroke-fill" data-item-order="-317365" transform="translate(608, 158.00048828125)">
    <g id="sy_3_cu_8x5jei1aec9am-stroke" fill="none" stroke-linecap="round" stroke-linejoin="round" stroke-miterlimit="4" stroke="#43dd93" stroke-width="2">
      <g>
        <path d="M 33.84668 93.999512L 45.84668 93.999512M 58.195313 177.999512L 70.195313 177.999512M 87.9997 238L 21.9997 10L 10 10"/>
      </g>
    </g>
  </g>
  <g id="g-root-sy_2_cu_4hc1a21aeca2v-stroke-fill" data-item-order="-317361" transform="translate(296, 385.99951171875)">
    <g id="sy_2_cu_4hc1a21aeca2v-stroke" fill="none" stroke-linecap="round" stroke-linejoin="round" stroke-miterlimit="4" stroke="#b7b7b7" stroke-width="2">
      <g>
        <path d="M 33.851563 154.000488L 45.851563 154.000488M 58.200195 70.000488L 70.200195 70.000488M 87.9997 10L 21.9997 238L 10 238"/>
      </g>
    </g>
  </g>
  <g id="g-root-sy_1_cu_1ij5m1aecav4-stroke-fill" data-item-order="-317357" transform="translate(296, 158.00048828125)">
    <g id="sy_1_cu_1ij5m1aecav4-stroke" fill="none" stroke-linecap="round" stroke-linejoin="round" stroke-miterlimit="4" stroke="#b7b7b7" stroke-width="2">
      <g>
        <path d="M 33.851563 93.999512L 45.851563 93.999512M 58.200195 177.999512L 70.200195 177.999512M 87.9997 238L 21.9997 10L 10 10"/>
      </g>
    </g>
  </g>
  <g id="g-root-sy_-1_line_1q6zkvu1aecbgp-stroke-fill" data-item-order="-317351" transform="translate(32, 386)">
    <g id="sy_-1_line_1q6zkvu1aecbgp-stroke" fill="none" stroke-linecap="round" stroke-linejoin="round" stroke-miterlimit="4" stroke="#f4f4f4" stroke-width="2">
      <g>
        <path d="M 704 10L 10 10"/>
        <path d="M 698 16.5L 704.5 10L 698 3.5" stroke-dasharray="none"/>
      </g>
    </g>
  </g>
  <g id="g-root-tx_unraveli_1lr62re1aecc8y-stroke-fill" data-item-order="0" transform="translate(800, 350)">
    <g id="tx_unraveli_1lr62re1aecc8y-fill" stroke="none" fill="#f4f4f4">
      <g>
        <text style="font: 20px Roboto, sans-serif; white-space: pre;" font-size="20px" font-family="Roboto, sans-serif">
          <tspan x="12" y="34" dominant-baseline="ideographic">Unraveling the </tspan>
          <tspan x="12" y="58" dominant-baseline="ideographic">complexities of the </tspan>
          <tspan x="12" y="82" dominant-baseline="ideographic">Maury Island Incident</tspan>
        </text>
      </g>
    </g>
  </g>
  <g id="g-root-tx_mediacov_zkp18a1aecbgr-stroke-fill" data-item-order="0" transform="translate(488, 434)">
    <g id="tx_mediacov_zkp18a1aecbgr-fill" stroke="none" fill="#f4f4f4">
      <g>
        <text style="font: 20px Roboto, sans-serif; white-space: pre;" font-size="20px" font-family="Roboto, sans-serif">
          <tspan x="20.41" y="34" dominant-baseline="ideographic">Media Coverage</tspan>
        </text>
      </g>
    </g>
  </g>
  <g id="g-root-tx_coldwara_v4vj3u1aecc90-stroke-fill" data-item-order="0" transform="translate(440, 518)">
    <g id="tx_coldwara_v4vj3u1aecc90-fill" stroke="none" fill="#f4f4f4">
      <g>
        <text style="font: 20px Roboto, sans-serif; white-space: pre;" font-size="20px" font-family="Roboto, sans-serif">
          <tspan x="20.61" y="34" dominant-baseline="ideographic">Cold War Anxieties</tspan>
        </text>
      </g>
    </g>
  </g>
  <g id="g-root-tx_historic_hu1htm1aecao5-stroke-fill" data-item-order="0" transform="translate(392, 602)">
    <g id="tx_historic_hu1htm1aecao5-fill" stroke="none" fill="#f4f4f4">
      <g>
        <text style="font: 20px Roboto, sans-serif; white-space: pre;" font-size="20px" font-family="Roboto, sans-serif">
          <tspan x="16.89" y="34" dominant-baseline="ideographic">Historical Context</tspan>
        </text>
      </g>
    </g>
  </g>
  <g id="g-root-tx_meteoric_4ikzga1aecc92-stroke-fill" data-item-order="0" transform="translate(452, 314)">
    <g id="tx_meteoric_4ikzga1aecc92-fill" stroke="none" fill="#f4f4f4">
      <g>
        <text style="font: 20px Roboto, sans-serif; white-space: pre;" font-size="20px" font-family="Roboto, sans-serif">
          <tspan x="12.27" y="34" dominant-baseline="ideographic">Meteoric Explanation</tspan>
        </text>
      </g>
    </g>
  </g>
  <g id="g-root-tx_hoaxtheo_1uooi9m1aec9ov-stroke-fill" data-item-order="0" transform="translate(500, 230)">
    <g id="tx_hoaxtheo_1uooi9m1aec9ov-fill" stroke="none" fill="#f4f4f4">
      <g>
        <text style="font: 20px Roboto, sans-serif; white-space: pre;" font-size="20px" font-family="Roboto, sans-serif">
          <tspan x="15.58" y="34" dominant-baseline="ideographic">Hoax Theory</tspan>
        </text>
      </g>
    </g>
  </g>
  <g id="g-root-tx_alternat_1cxehru1aecc20-stroke-fill" data-item-order="0" transform="translate(440, 134)">
    <g id="tx_alternat_1cxehru1aecc20-fill" stroke="none" fill="#f4f4f4">
      <g>
        <text style="font: 20px Roboto, sans-serif; white-space: pre;" font-size="20px" font-family="Roboto, sans-serif">
          <tspan x="32.66" y="34" dominant-baseline="ideographic">Alternative </tspan>
          <tspan x="13.63" y="58" dominant-baseline="ideographic">Explanations</tspan>
        </text>
      </g>
    </g>
  </g>
  <g id="g-root-tx_meteoric_zmkghm1aecah5-stroke-fill" data-item-order="0" transform="translate(188, 422)">
    <g id="tx_meteoric_zmkghm1aecah5-fill" stroke="none" fill="#f4f4f4">
      <g>
        <text style="font: 20px Roboto, sans-serif; white-space: pre;" font-size="20px" font-family="Roboto, sans-serif">
          <tspan x="15.77" y="34" dominant-baseline="ideographic">Meteoric Origin </tspan>
          <tspan x="51.95" y="58" dominant-baseline="ideographic">Hypothesis</tspan>
        </text>
      </g>
    </g>
  </g>
  <g id="g-root-tx_identifi_v6qyd61aecb9e-stroke-fill" data-item-order="0" transform="translate(152, 506)">
    <g id="tx_identifi_v6qyd61aecb9e-fill" stroke="none" fill="#f4f4f4">
      <g>
        <text style="font: 20px Roboto, sans-serif; white-space: pre;" font-size="20px" font-family="Roboto, sans-serif">
          <tspan x="21.77" y="34" dominant-baseline="ideographic">Identification as </tspan>
          <tspan x="37.14" y="58" dominant-baseline="ideographic">Industrial Slag</tspan>
        </text>
      </g>
    </g>
  </g>
  <g id="g-root-tx_physical_hvwx2y1aec9oj-stroke-fill" data-item-order="0" transform="translate(80, 602)">
    <g id="tx_physical_hvwx2y1aec9oj-fill" stroke="none" fill="#f4f4f4">
      <g>
        <text style="font: 20px Roboto, sans-serif; white-space: pre;" font-size="20px" font-family="Roboto, sans-serif">
          <tspan x="16.88" y="34" dominant-baseline="ideographic">Physical Evidence</tspan>
        </text>
      </g>
    </g>
  </g>
  <g id="g-root-tx_lackofev_909wu21aecah8-stroke-fill" data-item-order="0" transform="translate(176, 314)">
    <g id="tx_lackofev_909wu21aecah8-fill" stroke="none" fill="#f4f4f4">
      <g>
        <text style="font: 20px Roboto, sans-serif; white-space: pre;" font-size="20px" font-family="Roboto, sans-serif">
          <tspan x="13.78" y="34" dominant-baseline="ideographic">Lack of Evidence</tspan>
        </text>
      </g>
    </g>
  </g>
  <g id="g-root-tx_contradi_1upxgfu1aecbv1-stroke-fill" data-item-order="0" transform="translate(176, 218)">
    <g id="tx_contradi_1upxgfu1aecbv1-fill" stroke="none" fill="#f4f4f4">
      <g>
        <text style="font: 20px Roboto, sans-serif; white-space: pre;" font-size="20px" font-family="Roboto, sans-serif">
          <tspan x="19.94" y="34" dominant-baseline="ideographic">Contradictory </tspan>
          <tspan x="37.5" y="58" dominant-baseline="ideographic">Statements</tspan>
        </text>
      </g>
    </g>
  </g>
  <g id="g-root-tx_witnessc_1hf3f5m1aecaa6-stroke-fill" data-item-order="0" transform="translate(68, 146)">
    <g id="tx_witnessc_1hf3f5m1aecaa6-fill" stroke="none" fill="#f4f4f4">
      <g>
        <text style="font: 20px Roboto, sans-serif; white-space: pre;" font-size="20px" font-family="Roboto, sans-serif">
          <tspan x="23.41" y="34" dominant-baseline="ideographic">Witness Credibility</tspan>
        </text>
      </g>
    </g>
  </g>
  <g id="g-root-tx_analyzin_1cz9x161aecb2f-stroke-fill" data-item-order="0" transform="translate(362, 50)">
    <g id="tx_analyzin_1cz9x161aecb2f-fill" stroke="none" fill="#f4f4f4">
      <g>
        <text style="font: 20px Roboto, sans-serif; white-space: pre;" font-size="20px" font-family="Roboto, sans-serif">
          <tspan x="14.37" y="34" dominant-baseline="ideographic">Analyzing the Maury Island Incident</tspan>
        </text>
      </g>
    </g>
    <defs>
      <pattern id="crawlingPattern-0000001b" x="0" y="0" width="12" height="12" patternUnits="userSpaceOnUse" fill="#0000001b">
        <use href="#crawlingSymbol"/>
      </pattern>
      <symbol id="crawlingSymbol">
        <g>
          <path d="M -12.5 12.5 l 13 -13 l 6 0 l -13 13 Z M -0.5 12.5 l 13 -13 l 6 0 l -13 13 Z M 11.5 12.5 l 13 -13 l 6 0 l -13 13 Z"/>
        </g>
      </symbol>
    </defs>
  </g>
  <g id="g-root-ic_iden_zofvqy1aec9hk-stroke-fill" data-item-order="0" transform="translate(260, 140)">
    <g id="ic_iden_zofvqy1aec9hk-stroke" fill="none" stroke-linecap="round" stroke-linejoin="round" stroke-miterlimit="4" stroke="#f4f4f4" stroke-width="2">
      <g>
        <path d="M 34.381001 28.921001C 38.129059 24.500801 37.818813 17.934292 33.6707 13.887162C 29.522585 9.840033 22.950424 9.691685 18.623924 13.547523C 14.297423 17.403362 13.691203 23.949184 17.236 28.533998L 13.786 36.145L 20.7295 31.494999C 25.316734 33.969368 31.009789 32.895939 34.381001 28.921001ZM 42.25 35.431C 42.295662 32.380859 39.973904 29.815176 36.934372 29.556913C 33.894844 29.298649 31.173491 31.435827 30.703884 34.449947C 30.234278 37.464066 32.176468 40.327835 35.150497 41.0065L 36.293499 45.25L 37.563999 41.050003C 40.257389 40.519379 42.211754 38.175892 42.25 35.431Z"/>
      </g>
    </g>
  </g>
  <g id="g-root-ic_file_1cws70a1ae13pf-stroke-fill" data-item-order="0" transform="translate(260, 596)">
    <g id="ic_file_1cws70a1ae13pf-stroke" fill="none" stroke-linecap="round" stroke-linejoin="round" stroke-miterlimit="4" stroke="#f4f4f4" stroke-width="2">
      <g>
        <path d="M 34.75 27.25L 34.75 34L 30.16 38.016998C 29.263922 38.800648 28.74992 39.933094 28.749998 41.123497L 28.75 41.123501C 28.749172 43.401676 30.595325 45.249172 32.873501 45.25L 41.123501 45.25C 43.401676 45.25 45.248501 43.403175 45.248501 41.125L 45.248501 41.125C 45.248726 39.935314 44.735287 38.803463 43.840004 38.02L 39.25 34L 39.25 27.25M 28.885 42.168999L 31.949501 40.649502C 33.698414 39.773834 35.769241 39.83012 37.468002 40.7995L 37.468002 40.7995C 39.060455 41.710342 40.987968 41.821404 42.6745 41.099503L 45.099998 40.029999M 25.75 40.75L 12.25 40.75C 11.421573 40.75 10.75 40.078426 10.75 39.25L 10.75 16.75C 10.75 15.921573 11.421573 15.25 12.25 15.25L 16.75 15.25M 28.75 15.25L 33.25 15.25C 34.078426 15.25 34.75 15.921573 34.75 16.75L 34.75 24.25M 25.75 13.75C 25.75 12.093145 24.406855 10.75 22.75 10.75C 21.093145 10.75 19.75 12.093145 19.75 13.75L 17.5 13.75C 17.085787 13.75 16.75 14.085787 16.75 14.5L 16.75 19C 16.75 19.414213 17.085787 19.75 17.5 19.75L 28 19.75C 28.414213 19.75 28.75 19.414213 28.75 19L 28.75 14.5C 28.75 14.085787 28.414213 13.75 28 13.75ZM 32.5 27.25L 41.5 27.25M 17.5 24.25L 28 24.25M 17.5 28.75L 23.875 28.75M 28 36.25L 13.75 36.25L 13.75 18.25L 16.75 18.25M 28.75 18.25L 31.75 18.25L 31.75 24.25"/>
      </g>
    </g>
  </g>
  <g id="g-root-ic_muha_1q7m8ai1ae3w1w-stroke-fill" data-item-order="0" transform="translate(572, 140)">
    <g id="ic_muha_1q7m8ai1ae3w1w-stroke" fill="none" stroke-linecap="round" stroke-linejoin="round" stroke-miterlimit="4" stroke="#f4f4f4" stroke-width="2">
      <g>
        <path d="M 28 39.324997C 29.49115 39.324997 30.700001 38.11615 30.700001 36.625C 30.700001 35.13385 29.49115 33.924999 28 33.924999C 26.50885 33.924999 25.299999 35.13385 25.299999 36.625C 25.299999 38.11615 26.50885 39.324997 28 39.324997ZM 24.25 44.875L 24.25 43.074997C 24.25 40.974998 25.900002 39.324997 28 39.324997C 30.099998 39.324997 31.75 40.974998 31.75 43.074997L 31.75 44.875M 10 10M 23.425014 30.92515L 11.275009 38.725151M 11.275 11.125092L 13.075 11.125092C 14.725 11.125092 16.075001 12.47509 16.075001 14.12509C 18.174999 14.12509 19.825001 15.77509 19.825001 17.87509L 20.575001 17.87509C 22.224998 17.87509 23.575001 19.22509 23.575001 20.87509C 23.575001 20.87509 23.724998 23.57509 21.475 24.32509C 19.975 24.775091 18.325001 23.72509 17.875 22.07509L 17.875 21.925091C 17.725 22.07509 17.424999 22.075075 17.125 22.225075C 15.475 22.525074 13.975 21.625074 13.525 19.975075L 13.525 19.07509C 13.225 19.22509 12.925 19.37509 12.625 19.37509C 12.025 19.525089 11.575 19.525089 11.125 19.37509M 23.424999 30.92515C 21.025 30.17515 19.375 27.92515 19.375 25.225149C 19.375 24.775105 19.375 24.475105 19.525 24.175106M 14.425 26.125151C 14.425 26.125151 14.425 31.67515 18.775 33.77515M 11.275009 31.974998C 11.725015 33.325001 12.625015 35.275002 14.275015 36.625M 10 10M 32.575001 30.92515L 44.724998 38.725151M 44.724998 11.125092L 42.925003 11.125092C 41.275002 11.125092 39.925003 12.47509 39.925003 14.12509C 37.824997 14.12509 36.175003 15.77509 36.175003 17.87509L 35.425003 17.87509C 33.775002 17.87509 32.424999 19.22509 32.424999 20.87509C 32.424999 20.87509 32.275002 23.57509 34.525002 24.32509C 36.025002 24.775091 37.675003 23.72509 38.125 22.07509L 38.125 21.925091C 38.275002 22.07509 38.574997 22.075075 38.875 22.225075C 40.525002 22.525074 42.025002 21.625074 42.474998 19.975075L 42.474998 19.07509C 42.775002 19.22509 43.074997 19.37509 43.375 19.37509C 43.974998 19.525089 44.425003 19.525089 44.875 19.37509M 32.575001 30.92515C 34.974998 30.17515 36.625 27.92515 36.625 25.225149C 36.625 24.775105 36.625 24.475105 36.474998 24.175106M 41.574997 26.125151C 41.574997 26.125151 41.574997 31.67515 37.224998 33.77515M 44.724998 31.974998C 44.275002 33.325001 43.375 35.275002 41.724998 36.625"/>
      </g>
    </g>
  </g>
  <g id="g-root-ic_disa_8dxfe1ae59n1-stroke-fill" data-item-order="0" transform="translate(572, 596)">
    <g id="ic_disa_8dxfe1ae59n1-stroke" fill="none" stroke-linecap="round" stroke-linejoin="round" stroke-miterlimit="4" stroke="#f4f4f4" stroke-width="2">
      <g>
        <path d="M 16.75 10.75L 24.25 18.25M 33.25 10.75L 25.75 18.25M 13.75 18.25L 42.25 18.25C 42.25 18.25 45.25 18.25 45.25 21.25L 45.25 42.25C 45.25 42.25 45.25 45.25 42.25 45.25L 13.75 45.25C 13.75 45.25 10.75 45.25 10.75 42.25L 10.75 21.25C 10.75 21.25 10.75 18.25 13.75 18.25M 19.75 21.25L 30.25 21.25C 30.25 21.25 36.25 21.25 36.25 27.25L 36.25 36.25C 36.25 36.25 36.25 42.25 30.25 42.25L 19.75 42.25C 19.75 42.25 13.75 42.25 13.75 36.25L 13.75 27.25C 13.75 27.25 13.75 21.25 19.75 21.25M 29.244999 27.505001L 20.755001 35.994999M 31 31.75C 31 35.063709 28.313709 37.75 25 37.75C 21.686291 37.75 19 35.063709 19 31.75C 19 28.436291 21.686291 25.75 25 25.75C 28.313709 25.75 31 28.436291 31 31.75ZM 40.75 22.75L 40.75 34.75M 39.25 39.985001C 39.25 40.813427 39.921574 41.485001 40.75 41.485001C 41.578426 41.485001 42.25 40.813427 42.25 39.985001C 42.25 39.156574 41.578426 38.485001 40.75 38.485001C 39.921574 38.485001 39.25 39.156574 39.25 39.985001"/>
      </g>
    </g>
  </g>
  <g id="g-root-ic_ufo_1uoool61ae81l2-stroke-fill" data-item-order="0" transform="translate(740, 362)">
    <g id="ic_ufo_1uoool61ae81l2-stroke" fill="none" stroke-linecap="round" stroke-linejoin="round" stroke-miterlimit="4" stroke="#f4f4f4" stroke-width="2">
      <g>
        <path d="M 49 22.5C 52.977859 22.499041 56.352161 25.420879 56.919998 29.358C 56.961449 29.646814 56.874687 29.939325 56.682472 30.158836C 56.490257 30.378345 56.211758 30.502958 55.919998 30.5L 12.07 30.5C 11.778242 30.502958 11.499743 30.378345 11.307528 30.158836C 11.115312 29.939325 11.028553 29.646814 11.07 29.358C 11.638377 25.417118 15.018346 22.494064 19 22.5ZM 19 22.5C 19 17.5 25.716 11.5 34 11.5C 42.284 11.5 49 17.5 49 22.5M 47.77 39.5L 52.995998 56.5M 14.996 56.5L 20.232 39.5M 34.996002 49.5L 31.996 53.652M 37.996002 53.5L 34.996002 49.5M 31.996 46.5L 37.996002 46.5M 35 41.5C 35.552284 41.5 36 41.947716 36 42.5M 34 42.5C 34 41.947716 34.447716 41.5 35 41.5M 35 43.5C 34.447716 43.5 34 43.052284 34 42.5M 36 42.5C 36 43.052284 35.552284 43.5 35 43.5M 34.996002 49.5L 34.996002 46.5M 25 30.5C 25 33.261421 22.761425 35.5 20 35.5C 17.238577 35.5 15 33.261421 15 30.5M 39 30.5C 39 33.261421 36.761425 35.5 34 35.5C 31.238577 35.5 29 33.261421 29 30.5M 53 30.5C 53 33.261421 50.761425 35.5 48 35.5C 45.238575 35.5 43 33.261421 43 30.5"/>
      </g>
    </g>
  </g>
</svg>
