<svg width="816" height="552" viewBox="0 0 816 552" style="fill:none;stroke:none;fill-rule:evenodd;clip-rule:evenodd;stroke-linecap:round;stroke-linejoin:round;stroke-miterlimit:1.5;" version="1.1" xmlns="http://www.w3.org/2000/svg" xmlns:xlink="http://www.w3.org/1999/xlink"><style class="text-font-style fontImports" data-font-family="Roboto">@import url('https://fonts.googleapis.com/css2?family=Roboto:wght@400;700&amp;display=block');</style><g id="g-root-tf_147z3ay1aoaivb-stroke-fill" data-item-order="-411840" transform="translate(18, 12)"></g><g id="g-root-cp_0_g-0_18n64ca1ao3htt-stroke-fill" data-item-order="-248805" transform="translate(56.130859375, 248.5)"><g id="cp_0_g-0_18n64ca1ao3htt-stroke" fill="none" stroke-linecap="round" stroke-linejoin="round" stroke-miterlimit="4" stroke="#d3d3d3" stroke-width="2"><g><path d="M 106 51L 262 51M 286 51L 442 51M 274 63.5L 274 93M 454 10L 454 39.5M 465.869141 51.5L 537.869141 51.5M 10 51L 82 51M 94 10L 94 39.5"></path></g></g><g id="cp_0_g-0_18n64ca1ao3htt-stroke-overlay" fill="none" stroke-linecap="round" stroke-linejoin="round" stroke-miterlimit="4" stroke="#1010101a" stroke-width="2" stroke-dasharray="4,6"><animate attributeName="stroke-dashoffset" values="30;0" dur="1s" repeatCount="indefinite" begin="0"></animate><g><path d="M 106 51L 262 51M 286 51L 442 51M 274 63.5L 274 93M 454 10L 454 39.5M 465.869141 51.5L 537.869141 51.5M 10 51L 82 51M 94 10L 94 39.5"></path></g></g></g><g id="g-root-cp_1_g-1_vcc3221ao3g8z-stroke-fill" data-item-order="-248790" transform="translate(95.1309814453125, 125)"><g id="cp_1_g-1_vcc3221ao3g8z-fill" stroke="none" fill="none"><g><path d="M 100 55C 100 66.244 94.5 77.5875 89 86L 55.816 132.848C 55.4175 133.411 54.5825 133.411 54.184 132.848L 21 86C 14.5 77 10 66.7284 10 55C 10 30.1472 30.1472 10 55 10C 79.8528 10 100 30.1472 100 55ZM 55 91C 74.8822 91 91 74.8822 91 55C 91 35.1177 74.8822 19 55 19C 35.1177 19 19 35.1177 19 55C 19 74.8822 35.1177 91 55 91Z"></path></g></g><g id="cp_1_g-1_vcc3221ao3g8z-stroke" fill="none" stroke-linecap="round" stroke-linejoin="round" stroke-miterlimit="4" stroke="#4f91fc" stroke-width="2"><g><path d="M 100 55C 100 66.244 94.5 77.5875 89 86L 55.816 132.848C 55.4175 133.4106 54.5825 133.4106 54.184 132.848L 21 86C 14.5 77 10 66.7284 10 55C 10 30.1472 30.1472 10 55 10C 79.8528 10 100 30.1472 100 55ZM 55 91C 74.8822 91 91 74.8822 91 55C 91 35.1177 74.8822 19 55 19C 35.1177 19 19 35.1177 19 55C 19 74.8822 35.1177 91 55 91Z"></path></g></g><g id="cp_1_g-1_vcc3221ao3g8z-stroke-overlay" fill="none" stroke-linecap="round" stroke-linejoin="round" stroke-miterlimit="4" stroke="#0060fb7c" stroke-width="2" stroke-dasharray="4,6"><animate attributeName="stroke-dashoffset" values="30;0" dur="1s" repeatCount="indefinite" begin="0"></animate><g><path d="M 100 55C 100 66.244 94.5 77.5875 89 86L 55.816 132.848C 55.4175 133.4106 54.5825 133.4106 54.184 132.848L 21 86C 14.5 77 10 66.7284 10 55C 10 30.1472 30.1472 10 55 10C 79.8528 10 100 30.1472 100 55ZM 55 91C 74.8822 91 91 74.8822 91 55C 91 35.1177 74.8822 19 55 19C 35.1177 19 19 35.1177 19 55C 19 74.8822 35.1177 91 55 91Z"></path></g></g><g id="cp_1_g-1_vcc3221ao3g8z-fill" stroke="none" fill="none"><g><path d="M 55 187C 61.6274 187 67 181.6274 67 175C 67 168.3726 61.6274 163 55 163C 48.3726 163 43 168.3726 43 175C 43 181.6274 48.3726 187 55 187ZM 55 181C 58.3137 181 61 178.3137 61 175C 61 171.6863 58.3137 169 55 169C 51.6863 169 49 171.6863 49 175C 49 178.3137 51.6863 181 55 181Z"></path></g></g><g id="cp_1_g-1_vcc3221ao3g8z-stroke" fill="none" stroke-linecap="round" stroke-linejoin="round" stroke-miterlimit="4" stroke="#4f91fc" stroke-width="2"><g><path d="M 55 187C 61.6274 187 67 181.6274 67 175C 67 168.3726 61.6274 163 55 163C 48.3726 163 43 168.3726 43 175C 43 181.6274 48.3726 187 55 187ZM 55 181C 58.3137 181 61 178.3137 61 175C 61 171.6863 58.3137 169 55 169C 51.6863 169 49 171.6863 49 175C 49 178.3137 51.6863 181 55 181Z"></path></g></g><g id="cp_1_g-1_vcc3221ao3g8z-stroke-overlay" fill="none" stroke-linecap="round" stroke-linejoin="round" stroke-miterlimit="4" stroke="#0060fb7c" stroke-width="2" stroke-dasharray="4,6"><animate attributeName="stroke-dashoffset" values="30;0" dur="1s" repeatCount="indefinite" begin="0"></animate><g><path d="M 55 187C 61.6274 187 67 181.6274 67 175C 67 168.3726 61.6274 163 55 163C 48.3726 163 43 168.3726 43 175C 43 181.6274 48.3726 187 55 187ZM 55 181C 58.3137 181 61 178.3137 61 175C 61 171.6863 58.3137 169 55 169C 51.6863 169 49 171.6863 49 175C 49 178.3137 51.6863 181 55 181Z"></path></g></g></g><g id="g-root-cp_2_g-2_i0vkoq1ao3hty-stroke-fill" data-item-order="-248786" transform="translate(275.1309814453125, 278)"><g id="cp_2_g-2_i0vkoq1ao3hty-fill" stroke="none" fill="none"><g><path d="M 100 142.000369C 100 130.756469 94.5 119.412869 89 111.000369L 55.816 64.152469C 55.4175 63.589769 54.5825 63.589769 54.184 64.152469L 21 111.000369C 14.5 120.000369 10 130.271969 10 142.000369C 10 166.853469 30.1472 187.000469 55 187.000469C 79.8528 187.000469 100 166.853469 100 142.000369ZM 55 106.000369C 74.8822 106.000369 91 122.118169 91 142.000369C 91 161.882669 74.8822 178.000469 55 178.000469C 35.1177 178.000469 19 161.882669 19 142.000369C 19 122.118169 35.1177 106.000369 55 106.000369Z"></path></g></g><g id="cp_2_g-2_i0vkoq1ao3hty-stroke" fill="none" stroke-linecap="round" stroke-linejoin="round" stroke-miterlimit="4" stroke="#1ac3fb" stroke-width="2"><g><path d="M 100 142.000369C 100 130.756469 94.5 119.412869 89 111.000369L 55.816 64.152469C 55.4175 63.589769 54.5825 63.589769 54.184 64.152469L 21 111.000369C 14.5 120.000369 10 130.271969 10 142.000369C 10 166.853269 30.1472 187.000369 55 187.000369C 79.8528 187.000369 100 166.853269 100 142.000369ZM 55 106.000369C 74.8822 106.000369 91 122.118169 91 142.000369C 91 161.882669 74.8822 178.000369 55 178.000369C 35.1177 178.000369 19 161.882669 19 142.000369C 19 122.118169 35.1177 106.000369 55 106.000369Z"></path></g></g><g id="cp_2_g-2_i0vkoq1ao3hty-stroke-overlay" fill="none" stroke-linecap="round" stroke-linejoin="round" stroke-miterlimit="4" stroke="#00ade7d7" stroke-width="2" stroke-dasharray="4,6"><animate attributeName="stroke-dashoffset" values="30;0" dur="1s" repeatCount="indefinite" begin="0"></animate><g><path d="M 100 142.000369C 100 130.756469 94.5 119.412869 89 111.000369L 55.816 64.152469C 55.4175 63.589769 54.5825 63.589769 54.184 64.152469L 21 111.000369C 14.5 120.000369 10 130.271969 10 142.000369C 10 166.853269 30.1472 187.000369 55 187.000369C 79.8528 187.000369 100 166.853269 100 142.000369ZM 55 106.000369C 74.8822 106.000369 91 122.118169 91 142.000369C 91 161.882669 74.8822 178.000369 55 178.000369C 35.1177 178.000369 19 161.882669 19 142.000369C 19 122.118169 35.1177 106.000369 55 106.000369Z"></path></g></g><g id="cp_2_g-2_i0vkoq1ao3hty-fill" stroke="none" fill="none"><g><path d="M 55 34C 61.6274 34 67 28.6274 67 22C 67 15.3726 61.6274 10 55 10C 48.3726 10 43 15.3726 43 22C 43 28.6274 48.3726 34 55 34ZM 55 28C 58.3137 28 61 25.3137 61 22C 61 18.6863 58.3137 16 55 16C 51.6863 16 49 18.6863 49 22C 49 25.3137 51.6863 28 55 28Z"></path></g></g><g id="cp_2_g-2_i0vkoq1ao3hty-stroke" fill="none" stroke-linecap="round" stroke-linejoin="round" stroke-miterlimit="4" stroke="#1ac3fb" stroke-width="2"><g><path d="M 55 34C 61.6274 34 67 28.6274 67 22C 67 15.3726 61.6274 10 55 10C 48.3726 10 43 15.3726 43 22C 43 28.6274 48.3726 34 55 34ZM 55 28C 58.3137 28 61 25.3137 61 22C 61 18.6863 58.3137 16 55 16C 51.6863 16 49 18.6863 49 22C 49 25.3137 51.6863 28 55 28Z"></path></g></g><g id="cp_2_g-2_i0vkoq1ao3hty-stroke-overlay" fill="none" stroke-linecap="round" stroke-linejoin="round" stroke-miterlimit="4" stroke="#00ade7d7" stroke-width="2" stroke-dasharray="4,6"><animate attributeName="stroke-dashoffset" values="30;0" dur="1s" repeatCount="indefinite" begin="0"></animate><g><path d="M 55 34C 61.6274 34 67 28.6274 67 22C 67 15.3726 61.6274 10 55 10C 48.3726 10 43 15.3726 43 22C 43 28.6274 48.3726 34 55 34ZM 55 28C 58.3137 28 61 25.3137 61 22C 61 18.6863 58.3137 16 55 16C 51.6863 16 49 18.6863 49 22C 49 25.3137 51.6863 28 55 28Z"></path></g></g></g><g id="g-root-cp_3_g-3_dboy9m1ao4u0x-stroke-fill" data-item-order="-248780" transform="translate(455.1310119628906, 125)"><g id="cp_3_g-3_dboy9m1ao4u0x-fill" stroke="none" fill="none"><g><path d="M 100 55C 100 66.244 94.5 77.5875 89 86L 55.816 132.848C 55.4175 133.411 54.5825 133.411 54.184 132.848L 21 86C 14.5 77 10 66.7284 10 55C 10 30.1472 30.1472 10 55 10C 79.8528 10 100 30.1472 100 55ZM 55 91C 74.8822 91 91 74.8822 91 55C 91 35.1177 74.8822 19 55 19C 35.1177 19 19 35.1177 19 55C 19 74.8822 35.1177 91 55 91Z"></path></g></g><g id="cp_3_g-3_dboy9m1ao4u0x-stroke" fill="none" stroke-linecap="round" stroke-linejoin="round" stroke-miterlimit="4" stroke="#fb6762" stroke-width="2"><g><path d="M 100 55C 100 66.244 94.5 77.5875 89 86L 55.816 132.848C 55.4175 133.4106 54.5825 133.4106 54.184 132.848L 21 86C 14.5 77 10 66.7284 10 55C 10 30.1472 30.1472 10 55 10C 79.8528 10 100 30.1472 100 55ZM 55 91C 74.8822 91 91 74.8822 91 55C 91 35.1177 74.8822 19 55 19C 35.1177 19 19 35.1177 19 55C 19 74.8822 35.1177 91 55 91Z"></path></g></g><g id="cp_3_g-3_dboy9m1ao4u0x-stroke-overlay" fill="none" stroke-linecap="round" stroke-linejoin="round" stroke-miterlimit="4" stroke="#f9080063" stroke-width="2" stroke-dasharray="4,6"><animate attributeName="stroke-dashoffset" values="30;0" dur="1s" repeatCount="indefinite" begin="0"></animate><g><path d="M 100 55C 100 66.244 94.5 77.5875 89 86L 55.816 132.848C 55.4175 133.4106 54.5825 133.4106 54.184 132.848L 21 86C 14.5 77 10 66.7284 10 55C 10 30.1472 30.1472 10 55 10C 79.8528 10 100 30.1472 100 55ZM 55 91C 74.8822 91 91 74.8822 91 55C 91 35.1177 74.8822 19 55 19C 35.1177 19 19 35.1177 19 55C 19 74.8822 35.1177 91 55 91Z"></path></g></g><g id="cp_3_g-3_dboy9m1ao4u0x-fill" stroke="none" fill="none"><g><path d="M 55 187C 61.6274 187 67 181.6274 67 175C 67 168.3726 61.6274 163 55 163C 48.3726 163 43 168.3726 43 175C 43 181.6274 48.3726 187 55 187ZM 55 181C 58.3137 181 61 178.3137 61 175C 61 171.6863 58.3137 169 55 169C 51.6863 169 49 171.6863 49 175C 49 178.3137 51.6863 181 55 181Z"></path></g></g><g id="cp_3_g-3_dboy9m1ao4u0x-stroke" fill="none" stroke-linecap="round" stroke-linejoin="round" stroke-miterlimit="4" stroke="#fb6762" stroke-width="2"><g><path d="M 55 187C 61.6274 187 67 181.6274 67 175C 67 168.3726 61.6274 163 55 163C 48.3726 163 43 168.3726 43 175C 43 181.6274 48.3726 187 55 187ZM 55 181C 58.3137 181 61 178.3137 61 175C 61 171.6863 58.3137 169 55 169C 51.6863 169 49 171.6863 49 175C 49 178.3137 51.6863 181 55 181Z"></path></g></g><g id="cp_3_g-3_dboy9m1ao4u0x-stroke-overlay" fill="none" stroke-linecap="round" stroke-linejoin="round" stroke-miterlimit="4" stroke="#f9080063" stroke-width="2" stroke-dasharray="4,6"><animate attributeName="stroke-dashoffset" values="30;0" dur="1s" repeatCount="indefinite" begin="0"></animate><g><path d="M 55 187C 61.6274 187 67 181.6274 67 175C 67 168.3726 61.6274 163 55 163C 48.3726 163 43 168.3726 43 175C 43 181.6274 48.3726 187 55 187ZM 55 181C 58.3137 181 61 178.3137 61 175C 61 171.6863 58.3137 169 55 169C 51.6863 169 49 171.6863 49 175C 49 178.3137 51.6863 181 55 181Z"></path></g></g></g><g id="g-root-tx_themaury_8fwa1ao4vlw-stroke-fill" data-item-order="0" transform="translate(104, 50)"><g id="tx_themaury_8fwa1ao4vlw-fill" stroke="none" fill="#f4f4f4"><g><text style="font: 20px Roboto, sans-serif; white-space: pre;" font-size="20px" font-family="Roboto, sans-serif"><tspan x="15.73" y="34" dominant-baseline="ideographic">The Maury Island Incident: A Timeline of Events</tspan></text></g></g><g id="tx_themaury_8fwa1ao4vlw-fill-overlay" stroke="none" fill="url(#crawlingPattern-0000001b)"><g><text style="font: 20px Roboto, sans-serif; white-space: pre;" font-size="20px" font-family="Roboto, sans-serif"><tspan x="15.73" y="34" dominant-baseline="ideographic">The Maury Island Incident: A Timeline of Events</tspan></text></g></g></g><g id="g-root-ic_floc_1lqigl61ao4ttx-stroke-fill" data-item-order="0" transform="translate(296.1310119628906, 386.0000305175781)"><g id="ic_floc_1lqigl61ao4ttx-stroke" fill="none" stroke-linecap="round" stroke-linejoin="round" stroke-miterlimit="4" stroke="#1ac3fb" stroke-width="2"><g><path d="M 54.65197 34.371983C 53.399166 36.218956 51.80695 37.811172 49.959976 39.063984C 47.604553 40.527992 44.740147 40.928455 42.073524 40.166565C 39.406906 39.404675 37.186428 37.551384 35.959984 35.063984C 38.602383 35.489971 41.305908 35.334351 43.881977 34.607983C 41.881981 33.593983 37.713982 30.607986 36.95998 23.063992C 39.723492 23.783773 42.404594 24.789186 44.959976 26.063988C 47.657978 27.411989 47.939972 32.089985 47.959972 33.587982C 48.659973 33.399982 49.337975 33.217987 49.959972 33.063984C 52.407211 32.599705 54.863049 33.827625 55.959969 36.063984M 51.959972 32.935986C 53.057289 30.823172 53.409626 28.401917 52.959976 26.06399C 52.319496 24.2064 51.297623 22.503281 49.959976 21.063993C 49.959972 21.063993 48.959972 21.063993 47.959972 23.063992M 33.653984 49.843975C 32.400097 51.690727 30.807276 53.282871 28.959986 54.535969C 26.604567 55.999981 23.740158 56.400444 21.07354 55.638554C 18.406921 54.876663 16.186443 53.023376 14.959997 50.535973C 17.602253 50.962608 20.305775 50.807674 22.88199 50.08197C 20.881992 49.067974 16.713995 46.081978 15.959996 38.53598C 18.723507 39.25576 21.404612 40.261177 23.95999 41.53598C 26.65799 42.885979 26.939989 47.563976 26.959988 49.059975C 27.659988 48.871975 28.337988 48.691975 28.959986 48.535973C 31.407227 48.071693 33.863064 49.299614 34.959984 51.535973M 30.959986 48.419971C 32.05685 46.302696 32.409096 43.877834 31.959986 41.53598C 31.31951 39.678391 30.297636 37.975273 28.959988 36.535984C 28.959986 36.53598 27.959988 36.53598 26.959988 38.53598M 30.727987 25.301991C 29.476637 27.147713 27.885714 28.73864 26.039988 29.989986C 23.684568 31.453997 20.82016 31.854462 18.153542 31.092571C 15.486923 30.330681 13.266446 28.47739 12.039999 25.98999C 14.681603 26.41633 17.384411 26.261396 19.959993 25.53599C 17.959995 24.521992 13.793998 21.535994 13.039998 13.989998C 15.803509 14.70978 18.484613 15.715194 21.039991 16.989996C 23.737991 18.339994 24.019991 23.017992 24.039991 24.51399C 24.741989 24.325991 25.419991 24.14599 26.039989 23.98999C 28.487228 23.525711 30.943068 24.75363 32.039986 26.989988M 28.039989 23.887991C 29.134008 21.768358 29.48609 19.343224 29.039986 16.999996C 28.399511 15.142406 27.377638 13.439286 26.039989 11.999999C 26.039989 11.999999 25.039989 11.999999 24.039991 13.999997"></path></g></g><g id="ic_floc_1lqigl61ao4ttx-stroke-overlay" fill="none" stroke-linecap="round" stroke-linejoin="round" stroke-miterlimit="4" stroke="#00ade7d7" stroke-width="2" stroke-dasharray="4,6"><animate attributeName="stroke-dashoffset" values="30;0" dur="1s" repeatCount="indefinite" begin="0"></animate><g><path d="M 54.65197 34.371983C 53.399166 36.218956 51.80695 37.811172 49.959976 39.063984C 47.604553 40.527992 44.740147 40.928455 42.073524 40.166565C 39.406906 39.404675 37.186428 37.551384 35.959984 35.063984C 38.602383 35.489971 41.305908 35.334351 43.881977 34.607983C 41.881981 33.593983 37.713982 30.607986 36.95998 23.063992C 39.723492 23.783773 42.404594 24.789186 44.959976 26.063988C 47.657978 27.411989 47.939972 32.089985 47.959972 33.587982C 48.659973 33.399982 49.337975 33.217987 49.959972 33.063984C 52.407211 32.599705 54.863049 33.827625 55.959969 36.063984M 51.959972 32.935986C 53.057289 30.823172 53.409626 28.401917 52.959976 26.06399C 52.319496 24.2064 51.297623 22.503281 49.959976 21.063993C 49.959972 21.063993 48.959972 21.063993 47.959972 23.063992M 33.653984 49.843975C 32.400097 51.690727 30.807276 53.282871 28.959986 54.535969C 26.604567 55.999981 23.740158 56.400444 21.07354 55.638554C 18.406921 54.876663 16.186443 53.023376 14.959997 50.535973C 17.602253 50.962608 20.305775 50.807674 22.88199 50.08197C 20.881992 49.067974 16.713995 46.081978 15.959996 38.53598C 18.723507 39.25576 21.404612 40.261177 23.95999 41.53598C 26.65799 42.885979 26.939989 47.563976 26.959988 49.059975C 27.659988 48.871975 28.337988 48.691975 28.959986 48.535973C 31.407227 48.071693 33.863064 49.299614 34.959984 51.535973M 30.959986 48.419971C 32.05685 46.302696 32.409096 43.877834 31.959986 41.53598C 31.31951 39.678391 30.297636 37.975273 28.959988 36.535984C 28.959986 36.53598 27.959988 36.53598 26.959988 38.53598M 30.727987 25.301991C 29.476637 27.147713 27.885714 28.73864 26.039988 29.989986C 23.684568 31.453997 20.82016 31.854462 18.153542 31.092571C 15.486923 30.330681 13.266446 28.47739 12.039999 25.98999C 14.681603 26.41633 17.384411 26.261396 19.959993 25.53599C 17.959995 24.521992 13.793998 21.535994 13.039998 13.989998C 15.803509 14.70978 18.484613 15.715194 21.039991 16.989996C 23.737991 18.339994 24.019991 23.017992 24.039991 24.51399C 24.741989 24.325991 25.419991 24.14599 26.039989 23.98999C 28.487228 23.525711 30.943068 24.75363 32.039986 26.989988M 28.039989 23.887991C 29.134008 21.768358 29.48609 19.343224 29.039986 16.999996C 28.399511 15.142406 27.377638 13.439286 26.039989 11.999999C 26.039989 11.999999 25.039989 11.999999 24.039991 13.999997"></path></g></g></g><g id="g-root-tx_june2419_qpncze1ao69e7-stroke-fill" data-item-order="0" transform="translate(272, 134)"><g id="tx_june2419_qpncze1ao69e7-fill" stroke="none" fill="#1ac3fb"><g><text style="font: bold 20px Roboto, sans-serif; white-space: pre;" font-weight="bold" font-size="20px" font-family="Roboto, sans-serif"><tspan x="11.95" y="34" dominant-baseline="ideographic">June 24, 1947</tspan></text></g></g><g id="tx_june2419_qpncze1ao69e7-fill-overlay" stroke="none" fill="url(#crawlingPattern-00a3d9d9)"><g><text style="font: bold 20px Roboto, sans-serif; white-space: pre;" font-weight="bold" font-size="20px" font-family="Roboto, sans-serif"><tspan x="11.95" y="34" dominant-baseline="ideographic">June 24, 1947</tspan></text></g></g></g><g id="g-root-tx_kennetha_hu0cqi1ao6ayo-stroke-fill" data-item-order="0" transform="translate(284, 170)"><g id="tx_kennetha_hu0cqi1ao6ayo-fill" stroke="none" fill="#f4f4f4"><g><text style="font: 15px Roboto, sans-serif; white-space: pre;" font-size="15px" font-family="Roboto, sans-serif"><tspan x="12.04" y="28" dominant-baseline="ideographic">Kenneth Arnold's </tspan><tspan x="40.88" y="46" dominant-baseline="ideographic">Sighting</tspan></text></g></g><g id="tx_kennetha_hu0cqi1ao6ayo-fill-overlay" stroke="none" fill="url(#crawlingPattern-0000001b)"><g><text style="font: 15px Roboto, sans-serif; white-space: pre;" font-size="15px" font-family="Roboto, sans-serif"><tspan x="12.04" y="28" dominant-baseline="ideographic">Kenneth Arnold's </tspan><tspan x="40.88" y="46" dominant-baseline="ideographic">Sighting</tspan></text></g></g></g><g id="g-root-tx_june2119_1uond6i1ao69zd-stroke-fill" data-item-order="0" transform="translate(92, 374)"><g id="tx_june2119_1uond6i1ao69zd-fill" stroke="none" fill="#4f91fc"><g><text style="font: bold 20px Roboto, sans-serif; white-space: pre;" font-weight="bold" font-size="20px" font-family="Roboto, sans-serif"><tspan x="11.95" y="34" dominant-baseline="ideographic">June 21, 1947</tspan></text></g></g><g id="tx_june2119_1uond6i1ao69zd-fill-overlay" stroke="none" fill="url(#crawlingPattern-0060fba2)"><g><text style="font: bold 20px Roboto, sans-serif; white-space: pre;" font-weight="bold" font-size="20px" font-family="Roboto, sans-serif"><tspan x="11.95" y="34" dominant-baseline="ideographic">June 21, 1947</tspan></text></g></g></g><g id="g-root-tx_haroldda_1hdtbwa1ao68ei-stroke-fill" data-item-order="0" transform="translate(92, 410)"><g id="tx_haroldda_1hdtbwa1ao68ei-fill" stroke="none" fill="#f4f4f4"><g><text style="font: 15px Roboto, sans-serif; white-space: pre;" font-size="15px" font-family="Roboto, sans-serif"><tspan x="14.16" y="28" dominant-baseline="ideographic">Harold Dahl's UFO </tspan><tspan x="46.88" y="46" dominant-baseline="ideographic">Sighting</tspan></text></g></g><g id="tx_haroldda_1hdtbwa1ao68ei-fill-overlay" stroke="none" fill="url(#crawlingPattern-0000001b)"><g><text style="font: 15px Roboto, sans-serif; white-space: pre;" font-size="15px" font-family="Roboto, sans-serif"><tspan x="14.16" y="28" dominant-baseline="ideographic">Harold Dahl's UFO </tspan><tspan x="46.88" y="46" dominant-baseline="ideographic">Sighting</tspan></text></g></g></g><g id="g-root-ic_ufo_zmjbei1ao6arn-stroke-fill" data-item-order="0" transform="translate(116.1309814453125, 146)"><g id="ic_ufo_zmjbei1ao6arn-stroke" fill="none" stroke-linecap="round" stroke-linejoin="round" stroke-miterlimit="4" stroke="#4f91fc" stroke-width="2"><g><path d="M 49 22.5C 52.977859 22.499041 56.352161 25.420879 56.919998 29.358C 56.961449 29.646814 56.874687 29.939325 56.682472 30.158836C 56.490257 30.378345 56.211758 30.502958 55.919998 30.5L 12.07 30.5C 11.778242 30.502958 11.499743 30.378345 11.307528 30.158836C 11.115312 29.939325 11.028553 29.646814 11.07 29.358C 11.638377 25.417118 15.018346 22.494064 19 22.5ZM 19 22.5C 19 17.5 25.716 11.5 34 11.5C 42.284 11.5 49 17.5 49 22.5M 47.77 39.5L 52.995998 56.5M 14.996 56.5L 20.232 39.5M 34.996002 49.5L 31.996 53.652M 37.996002 53.5L 34.996002 49.5M 31.996 46.5L 37.996002 46.5M 35 41.5C 35.552284 41.5 36 41.947716 36 42.5M 34 42.5C 34 41.947716 34.447716 41.5 35 41.5M 35 43.5C 34.447716 43.5 34 43.052284 34 42.5M 36 42.5C 36 43.052284 35.552284 43.5 35 43.5M 34.996002 49.5L 34.996002 46.5M 25 30.5C 25 33.261421 22.761425 35.5 20 35.5C 17.238577 35.5 15 33.261421 15 30.5M 39 30.5C 39 33.261421 36.761425 35.5 34 35.5C 31.238577 35.5 29 33.261421 29 30.5M 53 30.5C 53 33.261421 50.761425 35.5 48 35.5C 45.238575 35.5 43 33.261421 43 30.5"></path></g></g><g id="ic_ufo_zmjbei1ao6arn-stroke-overlay" fill="none" stroke-linecap="round" stroke-linejoin="round" stroke-miterlimit="4" stroke="#0060fb7c" stroke-width="2" stroke-dasharray="4,6"><animate attributeName="stroke-dashoffset" values="30;0" dur="1s" repeatCount="indefinite" begin="0"></animate><g><path d="M 49 22.5C 52.977859 22.499041 56.352161 25.420879 56.919998 29.358C 56.961449 29.646814 56.874687 29.939325 56.682472 30.158836C 56.490257 30.378345 56.211758 30.502958 55.919998 30.5L 12.07 30.5C 11.778242 30.502958 11.499743 30.378345 11.307528 30.158836C 11.115312 29.939325 11.028553 29.646814 11.07 29.358C 11.638377 25.417118 15.018346 22.494064 19 22.5ZM 19 22.5C 19 17.5 25.716 11.5 34 11.5C 42.284 11.5 49 17.5 49 22.5M 47.77 39.5L 52.995998 56.5M 14.996 56.5L 20.232 39.5M 34.996002 49.5L 31.996 53.652M 37.996002 53.5L 34.996002 49.5M 31.996 46.5L 37.996002 46.5M 35 41.5C 35.552284 41.5 36 41.947716 36 42.5M 34 42.5C 34 41.947716 34.447716 41.5 35 41.5M 35 43.5C 34.447716 43.5 34 43.052284 34 42.5M 36 42.5C 36 43.052284 35.552284 43.5 35 43.5M 34.996002 49.5L 34.996002 46.5M 25 30.5C 25 33.261421 22.761425 35.5 20 35.5C 17.238577 35.5 15 33.261421 15 30.5M 39 30.5C 39 33.261421 36.761425 35.5 34 35.5C 31.238577 35.5 29 33.261421 29 30.5M 53 30.5C 53 33.261421 50.761425 35.5 48 35.5C 45.238575 35.5 43 33.261421 43 30.5"></path></g></g></g><g id="g-root-tx_august11_6h6re1ao7nyc-stroke-fill" data-item-order="0" transform="translate(440, 374)"><g id="tx_august11_6h6re1ao7nyc-fill" stroke="none" fill="#fb6762"><g><text style="font: bold 20px Roboto, sans-serif; white-space: pre;" font-weight="bold" font-size="20px" font-family="Roboto, sans-serif"><tspan x="13.78" y="34" dominant-baseline="ideographic">August 1, 1947</tspan></text></g></g><g id="tx_august11_6h6re1ao7nyc-fill-overlay" stroke="none" fill="url(#crawlingPattern-f9080081)"><g><text style="font: bold 20px Roboto, sans-serif; white-space: pre;" font-weight="bold" font-size="20px" font-family="Roboto, sans-serif"><tspan x="13.78" y="34" dominant-baseline="ideographic">August 1, 1947</tspan></text></g></g></g><g id="g-root-tx_b25bombe_1d1477e1ao7mz1-stroke-fill" data-item-order="0" transform="translate(440, 410)"><g id="tx_b25bombe_1d1477e1ao7mz1-fill" stroke="none" fill="#f4f4f4"><g><text style="font: 15px Roboto, sans-serif; white-space: pre;" font-size="15px" font-family="Roboto, sans-serif"><tspan x="17.48" y="31" dominant-baseline="ideographic">B-25 Bomber Crash</tspan></text></g></g><defs><pattern id="crawlingPattern-0000001b" x="0" y="0" width="12" height="12" patternUnits="userSpaceOnUse" fill="#0000001b"><use href="#crawlingSymbol"></use></pattern><symbol id="crawlingSymbol"><g><animateTransform attributeName="transform" type="translate" from="0 0" to="-12 0" dur="0.4s" repeatCount="indefinite"></animateTransform><path d="M -12.5 12.5 l 13 -13 l 6 0 l -13 13 Z M -0.5 12.5 l 13 -13 l 6 0 l -13 13 Z M 11.5 12.5 l 13 -13 l 6 0 l -13 13 Z"></path></g></symbol><pattern id="crawlingPattern-00a3d9d9" x="0" y="0" width="12" height="12" patternUnits="userSpaceOnUse" fill="#00a3d9d9"><use href="#crawlingSymbol"></use></pattern><pattern id="crawlingPattern-0060fba2" x="0" y="0" width="12" height="12" patternUnits="userSpaceOnUse" fill="#0060fba2"><use href="#crawlingSymbol"></use></pattern><pattern id="crawlingPattern-f9080081" x="0" y="0" width="12" height="12" patternUnits="userSpaceOnUse" fill="#f9080081"><use href="#crawlingSymbol"></use></pattern></defs><g id="tx_b25bombe_1d1477e1ao7mz1-fill-overlay" stroke="none" fill="url(#crawlingPattern-0000001b)"><g><text style="font: 15px Roboto, sans-serif; white-space: pre;" font-size="15px" font-family="Roboto, sans-serif"><tspan x="17.48" y="31" dominant-baseline="ideographic">B-25 Bomber Crash</tspan></text></g></g></g><g id="g-root-ic_plan_zpnou21ao7ojy-stroke-fill" data-item-order="0" transform="translate(476.1310119628906, 146)"><g id="ic_plan_zpnou21ao7ojy-stroke" fill="none" stroke-linecap="round" stroke-linejoin="round" stroke-miterlimit="4" stroke="#fb6762" stroke-width="2"><g><path d="M 45.999977 32.999985C 39.924847 32.999985 34.999985 37.92485 34.999985 43.999977L 34.999985 48.999973C 34.999985 50.104542 35.895412 50.999973 36.999981 50.999973L 37.305981 50.999973C 38.283619 51.000423 39.117649 51.707573 39.277981 52.671974L 39.721981 55.327969C 39.882313 56.29237 40.716343 56.999519 41.693981 56.999969L 50.305973 56.999969C 51.283607 56.999519 52.117641 56.29237 52.277973 55.327969L 52.721973 52.671974C 52.882305 51.707573 53.716335 51.000423 54.69397 50.999973L 54.999969 50.999973C 56.104538 50.999973 56.999969 50.104542 56.999969 48.999973L 56.999969 43.999977C 56.999969 37.92485 52.075108 32.999985 45.999977 32.999985ZM 38.999981 44.999977C 38.999981 46.104546 39.895409 46.999977 40.999981 46.999977C 42.104546 46.999977 42.999977 46.104546 42.999977 44.999977C 42.999977 43.895409 42.104546 42.999977 40.999981 42.999977C 39.895409 42.999977 38.999981 43.895409 38.999981 44.999977M 48.999973 44.999977C 48.999973 46.104546 49.895405 46.999977 50.999973 46.999977C 52.104542 46.999977 52.999973 46.104546 52.999973 44.999977C 52.999973 43.895409 52.104542 42.999977 50.999973 42.999977C 49.895405 42.999977 48.999973 43.895409 48.999973 44.999977M 42.999977 56.999969L 42.999977 51.999973M 48.999973 56.999969L 48.999973 51.999973M 42.047977 27.799988L 44.247978 23.39999L 53.647968 19.899994C 55.691422 19.054998 56.662964 16.713449 55.817966 14.669996C 54.972973 12.626545 52.631424 11.655004 50.587971 12.499998L 23.247992 24.39999L 17.663996 21.599993C 17.400848 21.467764 17.092798 21.458252 16.821995 21.573994L 11.599999 23.813992C 11.294976 23.944561 11.074577 24.21792 11.011666 24.543695C 10.948755 24.869471 11.051525 25.205236 11.285999 25.439989L 18.775993 32.929985C 19.058622 33.21286 19.482594 33.300171 19.853994 33.151985L 34.247982 27.399988L 28.799988 41.947979M 41.599979 16.413996L 28.659988 11.075999C 28.415359 10.974882 28.140617 10.974882 27.895988 11.075999L 23.11799 13.057998C 22.744164 13.212705 22.500385 13.577421 22.500385 13.981997C 22.500385 14.386574 22.744164 14.751289 23.11799 14.905997L 34.365982 19.559994"></path></g></g><g id="ic_plan_zpnou21ao7ojy-stroke-overlay" fill="none" stroke-linecap="round" stroke-linejoin="round" stroke-miterlimit="4" stroke="#f9080063" stroke-width="2" stroke-dasharray="4,6"><animate attributeName="stroke-dashoffset" values="30;0" dur="1s" repeatCount="indefinite" begin="0"></animate><g><path d="M 45.999977 32.999985C 39.924847 32.999985 34.999985 37.92485 34.999985 43.999977L 34.999985 48.999973C 34.999985 50.104542 35.895412 50.999973 36.999981 50.999973L 37.305981 50.999973C 38.283619 51.000423 39.117649 51.707573 39.277981 52.671974L 39.721981 55.327969C 39.882313 56.29237 40.716343 56.999519 41.693981 56.999969L 50.305973 56.999969C 51.283607 56.999519 52.117641 56.29237 52.277973 55.327969L 52.721973 52.671974C 52.882305 51.707573 53.716335 51.000423 54.69397 50.999973L 54.999969 50.999973C 56.104538 50.999973 56.999969 50.104542 56.999969 48.999973L 56.999969 43.999977C 56.999969 37.92485 52.075108 32.999985 45.999977 32.999985ZM 38.999981 44.999977C 38.999981 46.104546 39.895409 46.999977 40.999981 46.999977C 42.104546 46.999977 42.999977 46.104546 42.999977 44.999977C 42.999977 43.895409 42.104546 42.999977 40.999981 42.999977C 39.895409 42.999977 38.999981 43.895409 38.999981 44.999977M 48.999973 44.999977C 48.999973 46.104546 49.895405 46.999977 50.999973 46.999977C 52.104542 46.999977 52.999973 46.104546 52.999973 44.999977C 52.999973 43.895409 52.104542 42.999977 50.999973 42.999977C 49.895405 42.999977 48.999973 43.895409 48.999973 44.999977M 42.999977 56.999969L 42.999977 51.999973M 48.999973 56.999969L 48.999973 51.999973M 42.047977 27.799988L 44.247978 23.39999L 53.647968 19.899994C 55.691422 19.054998 56.662964 16.713449 55.817966 14.669996C 54.972973 12.626545 52.631424 11.655004 50.587971 12.499998L 23.247992 24.39999L 17.663996 21.599993C 17.400848 21.467764 17.092798 21.458252 16.821995 21.573994L 11.599999 23.813992C 11.294976 23.944561 11.074577 24.21792 11.011666 24.543695C 10.948755 24.869471 11.051525 25.205236 11.285999 25.439989L 18.775993 32.929985C 19.058622 33.21286 19.482594 33.300171 19.853994 33.151985L 34.247982 27.399988L 28.799988 41.947979M 41.599979 16.413996L 28.659988 11.075999C 28.415359 10.974882 28.140617 10.974882 27.895988 11.075999L 23.11799 13.057998C 22.744164 13.212705 22.500385 13.577421 22.500385 13.981997C 22.500385 14.386574 22.744164 14.751289 23.11799 14.905997L 34.365982 19.559994"></path></g></g></g></svg>