<?xml version='1.0' encoding='utf-8'?>
<svg xmlns="http://www.w3.org/2000/svg" xmlns:xlink="http://www.w3.org/1999/xlink" width="624" height="456" viewBox="0 0 624 456" style="fill:none;stroke:none;fill-rule:evenodd;clip-rule:evenodd;stroke-linecap:round;stroke-linejoin:round;stroke-miterlimit:1.5;" version="1.1">
  <style class="text-font-style fontImports" data-font-family="Roboto">@import url('https://fonts.googleapis.com/css2?family=Roboto:wght@400;700&amp;display=block');</style>
  <rect x="0" y="0" width="624" height="456" fill="#252a34" stroke="none" id="programmatic_background"/>
  <g id="g-root-tf_metqpm1aohibn-stroke-fill" data-item-order="-254016" transform="translate(18, 12)">
    <g id="tf_metqpm1aohibn-fill" stroke="none" fill="#2c2c2c">
      <g>
        <path d="M 0 0L 588 0L 588 432L 0 432Z"/>
      </g>
    </g>
    <defs>
      <pattern id="crawlingPattern-8484841a" x="0" y="0" width="12" height="12" patternUnits="userSpaceOnUse" fill="#8484841a">
        <use href="#crawlingSymbol"/>
      </pattern>
      <symbol id="crawlingSymbol">
        <g>
          <path d="M -12.5 12.5 l 13 -13 l 6 0 l -13 13 Z M -0.5 12.5 l 13 -13 l 6 0 l -13 13 Z M 11.5 12.5 l 13 -13 l 6 0 l -13 13 Z"/>
        </g>
      </symbol>
      <pattern id="crawlingPattern-00bcfb62" x="0" y="0" width="12" height="12" patternUnits="userSpaceOnUse" fill="#00bcfb62">
        <use href="#crawlingSymbol"/>
      </pattern>
      <pattern id="crawlingPattern-f908001a" x="0" y="0" width="12" height="12" patternUnits="userSpaceOnUse" fill="#f908001a">
        <use href="#crawlingSymbol"/>
      </pattern>
      <pattern id="crawlingPattern-0000001b" x="0" y="0" width="12" height="12" patternUnits="userSpaceOnUse" fill="#0000001b">
        <use href="#crawlingSymbol"/>
      </pattern>
      <pattern id="crawlingPattern-5f5f5f1a" x="0" y="0" width="12" height="12" patternUnits="userSpaceOnUse" fill="#5f5f5f1a">
        <use href="#crawlingSymbol"/>
      </pattern>
    </defs>
  </g>
  <g id="g-root-sy_5_cu_18gazju1ao924r-stroke-fill" data-item-order="-34635" transform="translate(224, 201.33599853515625)">
    <g id="sy_5_cu_18gazju1ao924r-stroke" fill="none" stroke-linecap="round" stroke-linejoin="round" stroke-miterlimit="4" stroke="#f4f4f4" stroke-width="2">
      <g>
        <path d="M 178 34.000001L 178 47.790001C 178 52.645001 173.711 56.381001 168.902 55.714001L 106 47.000001M 10 10.000001L 10 26.060001C 10 30.053001 12.944 33.434001 16.899 33.984001L 82 43.025001"/>
      </g>
    </g>
  </g>
  <g id="g-root-sy_4_cu_18gazju1ao924s-stroke-fill" data-item-order="-34632" transform="translate(296, 224.33599853515625)">
    <g id="sy_4_cu_18gazju1ao924s-fill" stroke="none" fill="#b7b7b7">
      <g>
        <path d="M 34.086 22.000001C 34.086 28.627001 28.695 34.000001 22.043 34.000001C 15.392 34.000001 10 28.627001 10 22.000001C 10 15.373001 15.392 10.000001 22.043 10.000001C 28.695 10.000001 34.086 15.373001 34.086 22.000001ZM 28 22.000001C 28 25.314001 25.314 28.000001 22 28.000001C 18.686 28.000001 16 25.314001 16 22.000001C 16 18.686001 18.686 16.000001 22 16.000001C 25.314 16.000001 28 18.686001 28 22.000001Z"/>
      </g>
    </g>
    <g id="sy_4_cu_18gazju1ao924s-stroke" fill="none" stroke-linecap="round" stroke-linejoin="round" stroke-miterlimit="4" stroke="#2c2c2c" stroke-width="2">
      <g>
        <path d="M 34.086 22.000001C 34.086 28.627001 28.695 34.000001 22.043 34.000001C 15.392 34.000001 10 28.627001 10 22.000001C 10 15.373001 15.392 10.000001 22.043 10.000001C 28.695 10.000001 34.086 15.373001 34.086 22.000001ZM 28 22.000001C 28 25.314001 25.314 28.000001 22 28.000001C 18.686 28.000001 16 25.314001 16 22.000001C 16 18.686001 18.686 16.000001 22 16.000001C 25.314 16.000001 28 18.686001 28 22.000001Z"/>
      </g>
    </g>
  </g>
  <g id="g-root-sy_3_cu_140hhfe1ao92x1-stroke-fill" data-item-order="-34628" transform="translate(260, 245.32598876953125)">
    <g id="sy_3_cu_140hhfe1ao92x1-fill" stroke="none" fill="#b7b7b7">
      <g>
        <path d="M 22 78.674011L 94 78.674011C 94 78.674011 73.992 28.166011 65.959 10.058011C 63.725 11.952011 61.073 12.997011 58.043 12.997011C 54.986 12.997011 52.288 11.933011 50.072 10.000011C 42.047 28.114011 22 78.674011 22 78.674011ZM 18 79.015011C 13.582 79.015011 10 82.596011 10 87.014011L 10 89.015011C 10 90.119011 10.895 91.015011 12 91.015011L 104 91.015011C 105.105 91.015011 106 90.119011 106 89.015011L 106 87.015011C 106 82.596011 102.418 79.015011 98 79.015011L 18 79.015011Z"/>
      </g>
    </g>
    <g id="sy_3_cu_140hhfe1ao92x1-stroke" fill="none" stroke-linecap="round" stroke-linejoin="round" stroke-miterlimit="4" stroke="#2c2c2c" stroke-width="2">
      <g>
        <path d="M 22 78.674011L 94 78.674011C 94 78.674011 73.992 28.166011 65.959 10.058011C 63.725 11.952011 61.073 12.997011 58.043 12.997011C 54.986 12.997011 52.288 11.933011 50.072 10.000011C 42.047 28.114011 22 78.674011 22 78.674011ZM 18 79.015011C 13.582 79.015011 10 82.596011 10 87.014011L 10 89.015011C 10 90.119011 10.895 91.015011 12 91.015011L 104 91.015011C 105.105 91.015011 106 90.119011 106 89.015011L 106 87.015011C 106 82.596011 102.418 79.015011 98 79.015011L 18 79.015011Z"/>
      </g>
    </g>
    <g id="sy_3_cu_140hhfe1ao92x1-stroke" fill="none" stroke-linecap="round" stroke-linejoin="round" stroke-miterlimit="4" stroke="#2c2c2c" stroke-width="2">
      <g>
        <path d="M 72.143 64.875011L 72.143 70.532011L 65.73 76.945011C 65.379 75.632011 64.688 74.391011 63.658 73.360011C 62.628 72.330011 61.386 71.639011 60.073 71.289011L 66.486 64.875011L 72.143 64.875011ZM 62 72.085011C 60.823 71.404011 59.457 71.015011 58 71.015011C 56.543 71.015011 55.177 71.404011 54 72.085011C 51.609 73.468011 50 76.053011 50 79.015011L 66 79.015011C 66 76.053011 64.391 73.468011 62 72.085011ZM 58 50.015011L 58 55.815011M 78.503 58.512011L 74.404 62.610011M 37.497 58.512011L 41.596 62.610011M 64.747 53.804011L 64.003 56.598011M 44.94 56.414011L 46.4 58.927011M 71.031 56.404011L 69.59 58.908011M 51.224 53.814011L 51.978 56.607011"/>
      </g>
    </g>
  </g>
  <g id="g-root-sy_2_right-bucket_v4uh6i1ao93pq-stroke-fill" data-item-order="-34624" transform="translate(356, 206.33599853515625)">
    <g id="sy_2_right-bucket_v4uh6i1ao93pq-fill" stroke="none" fill="#1ac3fb">
      <g>
        <path d="M 10 11.800001C 10 10.806001 10.806 10.000001 11.8 10.000001L 80.2 10.000001C 81.194 10.000001 82 10.806001 82 11.800001C 82 20.747001 74.747 28.000001 65.8 28.000001L 26.2 28.000001C 17.253 28.000001 10 20.747001 10 11.800001Z"/>
      </g>
    </g>
    <g id="sy_2_right-bucket_v4uh6i1ao93pq-stroke" fill="none" stroke-linecap="round" stroke-linejoin="round" stroke-miterlimit="4" stroke="#2c2c2c" stroke-width="2">
      <g>
        <path d="M 10 11.800001C 10 10.806001 10.806 10.000001 11.8 10.000001L 80.2 10.000001C 81.194 10.000001 82 10.806001 82 11.800001C 82 20.747001 74.747 28.000001 65.8 28.000001L 26.2 28.000001C 17.253 28.000001 10 20.747001 10 11.800001Z"/>
      </g>
    </g>
  </g>
  <g id="g-root-sy_1_left-bucket_qp0z221ao94hz-stroke-fill" data-item-order="-34620" transform="translate(188, 182)">
    <g id="sy_1_left-bucket_qp0z221ao94hz-fill" stroke="none" fill="#fb6762">
      <g>
        <path d="M 10 11.8C 10 10.806 10.806 10 11.8 10L 80.2 10C 81.194 10 82 10.806 82 11.8C 82 20.747 74.747 28 65.8 28L 26.2 28C 17.253 28 10 20.747 10 11.8Z"/>
      </g>
    </g>
    <g id="sy_1_left-bucket_qp0z221ao94hz-stroke" fill="none" stroke-linecap="round" stroke-linejoin="round" stroke-miterlimit="4" stroke="#2c2c2c" stroke-width="2">
      <g>
        <path d="M 10 11.8C 10 10.806 10.806 10 11.8 10L 80.2 10C 81.194 10 82 10.806 82 11.8C 82 20.747 74.747 28 65.8 28L 26.2 28C 17.253 28 10 20.747 10 11.8Z"/>
      </g>
    </g>
  </g>
  <g id="g-root-ic_scoo_qp0z221ao94i0-stroke-fill" data-item-order="-2304" transform="translate(200, 122)">
    <g id="ic_scoo_qp0z221ao94i0-fill" stroke="none" fill="#b7b7b7">
      <g>
        <path d="M 55.32 12.68C 52.132008 9.486526 47.087917 9.104505 43.455326 11.781414C 39.822731 14.458323 38.693863 19.389294 40.799999 23.380001C 41.003838 23.763807 40.930561 24.236013 40.620003 24.540001L 38.200001 26.98C 37.930218 27.241875 37.538246 27.334105 37.18 27.219999C 35.980724 26.810091 34.679276 26.810091 33.48 27.219999L 12 35.220001C 10.882284 35.486717 10.015119 36.368446 9.767058 37.490448C 9.518998 38.612453 9.933632 39.777573 10.834735 40.490623C 11.735839 41.203671 12.965073 41.339352 14 40.84L 23.200001 37.48C 23.680374 37.305241 24.215214 37.520901 24.439999 37.98C 25.013992 39.195587 25.799553 40.299431 26.76 41.239998C 27.698349 42.194134 28.794464 42.979004 30 43.560001C 30.459099 43.784786 30.674759 44.319626 30.5 44.799999L 27.16 54C 26.66065 55.034927 26.796331 56.264164 27.50938 57.165268C 28.222427 58.066368 29.387548 58.481003 30.509552 58.232944C 31.631556 57.984882 32.513287 57.117718 32.779999 56L 40.779999 34.48C 41.189907 33.280724 41.189907 31.979273 40.779999 30.779999C 40.665894 30.421753 40.758125 30.029781 41.019997 29.76L 43.459999 27.34C 43.763988 27.029438 44.236195 26.956165 44.619999 27.16C 48.610706 29.266138 53.541676 28.137264 56.218586 24.504673C 58.895496 20.872084 58.513474 15.82799 55.32 12.639999ZM 32.419998 39.68C 32.371307 39.809273 32.269276 39.911304 32.139999 39.959999C 32.013645 40.021004 31.866356 40.021004 31.74 39.959999C 30.111856 39.183575 28.793888 37.8797 28 36.260002C 27.938995 36.133644 27.938995 35.986355 28 35.860001C 28.043688 35.72757 28.14757 35.623688 28.279999 35.580002L 32.620003 34C 33.01498 33.860523 33.454781 33.95311 33.760002 34.239998C 34.043396 34.538948 34.136017 34.97118 34 35.360001ZM 48.880001 15.559999C 46.913864 15.559999 45.32 17.153866 45.32 19.119999C 45.32 19.672285 44.872284 20.119999 44.32 20.119999C 43.767715 20.119999 43.32 19.672285 43.32 19.119999C 43.32 16.049297 45.809299 13.559999 48.880001 13.56C 49.432285 13.559999 49.880001 14.007715 49.880001 14.559999C 49.880001 15.112285 49.432285 15.559999 48.880001 15.559999Z"/>
      </g>
    </g>
  </g>
  <g id="g-root-ic_card_1cyme0q1aoaj2h-stroke-fill" data-item-order="-2304" transform="translate(200, 50)">
    <g id="ic_card_1cyme0q1aoaj2h-fill" stroke="none" fill="#b7b7b7">
      <g>
        <path d="M 13.774 10.844C 11.841003 10.844 10.274 12.411003 10.274 14.344L 10.274 37.444C 10.274 39.377998 11.84 40.944 13.774 40.944L 36.188 40.944L 39.295998 35.012001C 40.449276 32.856438 42.701359 31.516735 45.146 31.532C 47.650002 31.532 49.869999 32.891998 50.993999 35.003998L 54.18 40.944L 54.228001 40.944C 56.160999 40.944 57.728001 39.376999 57.728001 37.444L 57.728001 14.346001C 57.728001 12.413004 56.160999 10.846 54.228001 10.846L 13.774 10.846ZM 36.91 19.875999C 36.91 19.047573 37.581573 18.375999 38.410004 18.375999L 49.321999 18.375999C 50.150429 18.375999 50.822002 19.047573 50.822002 19.875999C 50.822002 20.704428 50.150429 21.375999 49.322002 21.375999L 38.41 21.375999C 37.581573 21.375999 36.91 20.704428 36.910004 19.875999ZM 42.669998 24.389999C 41.841576 24.389999 41.169998 25.061573 41.169998 25.889999C 41.169998 26.718428 41.841576 27.390001 42.670002 27.390001L 49.321999 27.389999C 50.150429 27.390001 50.822002 26.718428 50.822002 25.889999C 50.822002 25.061573 50.150429 24.389999 49.322002 24.389999L 42.669998 24.389999ZM 25.102001 25.15C 27.523216 25.15 29.486 23.187216 29.486 20.765999C 29.486 18.344784 27.523216 16.382 25.101999 16.382C 22.680233 16.382 20.717001 18.345232 20.717001 20.767C 20.717001 23.18877 22.680233 25.152 25.102001 25.152ZM 17.282 33.304001C 18.188 29.84 21.397999 27.204 25.104 27.204C 28.809999 27.204 32.021999 29.84 32.928001 33.304001C 33.208 34.372002 32.288002 35.281998 31.181999 35.281998L 19.026001 35.281998C 17.92 35.281998 17 34.372002 17.280001 33.302002ZM 56.745998 55.655998C 57.346001 54.712002 57.546001 53.391998 56.945999 52.448002L 48.346001 36.417999C 47.745998 35.285999 46.546001 34.531998 45.146 34.531998C 43.745998 34.531998 42.546001 35.285999 41.945999 36.417999L 33.545998 52.448002C 32.945999 53.391998 33.146 54.712002 33.746002 55.655998C 34.346001 56.598 35.545998 57.164001 36.746002 57.164001L 53.745998 57.164001C 54.945999 57.164001 56.146 56.598 56.745998 55.655998ZM 46.745998 40.585999C 46.746002 39.757576 46.074429 39.085999 45.246002 39.085999C 44.417572 39.085999 43.746002 39.757576 43.746002 40.585999L 43.745998 46.585999C 43.746002 47.414429 44.417572 48.086002 45.246002 48.086002C 46.074429 48.086002 46.746002 47.414429 46.746002 46.586002L 46.745998 40.585999ZM 45.245998 54.105999C 46.317684 54.106358 47.186649 53.237686 47.186649 52.166C 47.186649 51.094315 46.317684 50.225639 45.245998 50.225998C 44.17482 50.226357 43.306648 51.094822 43.306648 52.166C 43.306648 53.237179 44.17482 54.10564 45.245998 54.105999Z"/>
      </g>
    </g>
  </g>
  <g id="g-root-ic_moti_91ht2y1aobuve-stroke-fill" data-item-order="-2304" transform="translate(368, 146)">
    <g id="ic_moti_91ht2y1aobuve-fill" stroke="none" fill="#b7b7b7">
      <g>
        <path d="M 26.431999 24.824001C 26.431999 25.92857 25.53657 26.823999 24.431999 26.823999L 12.559999 26.823999C 11.455431 26.823999 10.56 25.92857 10.56 24.824001C 10.56 23.719431 11.455431 22.824001 12.559999 22.824001L 24.431999 22.824001C 25.53657 22.824001 26.431999 23.719431 26.431999 24.824001ZM 57.439999 34C 57.439999 27.827665 52.436333 22.823999 46.263996 22.823999L 31.806 22.824001C 30.701431 22.824001 29.806 23.719431 29.806 24.824001C 29.806 25.92857 30.701431 26.823999 31.806 26.823999L 37.695999 26.823999C 36.449142 28.308323 35.611511 30.092516 35.265999 31.999998L 25.924 32C 24.819431 32 23.924 32.895432 23.924 34C 23.924 35.104568 24.819431 36 25.924 36L 35.265999 36C 35.610977 37.907654 36.448669 39.691978 37.695999 41.176003L 22.208 41.176003C 21.103432 41.176003 20.208 42.07143 20.208 43.175999C 20.208 44.280571 21.103432 45.175999 22.208 45.175999L 46.264 45.175999C 52.436333 45.175999 57.439999 40.172333 57.439999 34ZM 18.493999 36C 19.59857 36 20.493999 35.104568 20.493999 34C 20.493999 32.895432 19.59857 32 18.493999 32L 12.559999 32C 11.455431 32 10.56 32.895432 10.56 34C 10.56 35.104568 11.455431 36 12.559999 36L 18.493999 36ZM 16.940001 43.175999C 16.940001 44.280571 16.044569 45.175999 14.940001 45.175999L 12.559999 45.175999C 11.455431 45.175999 10.56 44.280571 10.56 43.175999C 10.56 42.07143 11.455431 41.176003 12.559999 41.176003L 14.940001 41.176003C 16.044569 41.176003 16.940001 42.07143 16.940001 43.175999Z"/>
      </g>
    </g>
  </g>
  <g id="g-root-ic_smok_dcxzlm1aog45n-stroke-fill" data-item-order="-2304" transform="translate(368, 74)">
    <g id="ic_smok_dcxzlm1aog45n-fill" stroke="none" fill="#b7b7b7">
      <g>
        <path d="M 56.419998 56.099998C 50.779999 53.48 41.82 48.360001 41.059998 41.879997C 40.990669 41.379456 40.565296 41.005127 40.059998 41L 28 41C 27.494703 41.005127 27.069332 41.379456 27 41.879997C 26.24 48.360001 17.299999 53.48 11.64 56.099998C 11.230247 56.29554 11.003647 56.74258 11.088167 57.188663C 11.172688 57.634747 11.547117 57.967907 12 58L 56 58C 56.463211 57.992756 56.860798 57.668312 56.960793 57.215965C 57.060783 56.763618 56.836998 56.301815 56.419998 56.099998ZM 12.64 28.4C 13.798212 29.025749 15.156473 29.169481 16.42 28.800001C 16.619797 28.719812 16.848276 28.795971 16.959999 28.98C 19.42 32.34 25.68 32.620003 28.84 31.200001C 28.968786 31.150757 29.111214 31.150757 29.24 31.200001C 29.624739 31.346556 30.018976 31.466833 30.42 31.560001C 30.573259 31.602718 30.698528 31.713249 30.759998 31.859999C 30.919619 32.218784 31.001413 32.607315 31 33L 31 36C 31 36.552284 31.447716 37 32 37L 36 37C 36.552284 37 37 36.552284 37 36L 37 33C 36.998589 32.607315 37.080383 32.218784 37.239998 31.860001C 37.301468 31.713249 37.426739 31.602718 37.579998 31.559999C 37.981026 31.466833 38.375267 31.346556 38.760002 31.200001C 38.888786 31.150757 39.031212 31.150757 39.16 31.200001C 42.32 32.620003 48.580002 32.32 51.040001 28.98C 51.161167 28.808231 51.380001 28.735287 51.579998 28.799999C 52.843529 29.169481 54.20179 29.025749 55.360001 28.4C 56.998985 27.548164 58.019669 25.847027 58.000004 24C 57.988987 21.246391 55.753632 19.019978 53 19.02C 50.923058 19.024172 49.116257 20.443211 48.619999 22.459999C 48.422707 23.257896 47.620041 23.748417 46.82 23.560001C 46.019341 23.353508 45.530605 22.544876 45.719997 21.74C 46.148026 19.934349 47.240578 18.35622 48.779999 17.32C 48.928627 17.224915 49.013107 17.055954 48.999996 16.879999C 48.997547 16.702726 48.897579 16.541241 48.739998 16.459999C 47.439056 15.783228 46.005188 15.400864 44.540001 15.34C 44.378094 15.338821 44.227695 15.256102 44.139999 15.12C 41.806831 11.850611 38.016037 9.936519 34 10C 29.983965 9.936519 26.193165 11.850611 23.860001 15.12C 23.772305 15.256102 23.621902 15.338821 23.459999 15.34C 21.994814 15.400864 20.560944 15.783228 19.26 16.459999C 19.102419 16.541241 19.002451 16.702726 19 16.879999C 18.976837 17.057791 19.063869 17.231855 19.220001 17.32C 20.759424 18.35622 21.851976 19.934349 22.279999 21.74C 22.465469 22.2768 22.331861 22.872313 21.934845 23.278427C 21.537827 23.684542 20.945492 23.831604 20.404631 23.658342C 19.863768 23.485081 19.46714 23.021212 19.380001 22.459999C 18.883743 20.443211 17.076942 19.024172 15 19.02C 13.67576 19.014683 12.403934 19.53701 11.465672 20.471519C 10.527411 21.406027 9.99999 22.675751 10 24C 9.980335 25.847027 11.001017 27.548164 12.64 28.400002Z"/>
      </g>
    </g>
  </g>
  <g id="g-root-tx_fabricat_1cz8v3u1aohjb8-stroke-fill" data-item-order="0" transform="translate(32, 122)">
    <g id="tx_fabricat_1cz8v3u1aohjb8-fill" stroke="none" fill="#f4f4f4">
      <g>
        <text style="font: 20px Roboto, sans-serif; white-space: pre;" font-size="20px" font-family="Roboto, sans-serif">
          <tspan x="20.3" y="34" dominant-baseline="ideographic">Fabricated story </tspan>
          <tspan x="81.86" y="58" dominant-baseline="ideographic">elements</tspan>
        </text>
      </g>
    </g>
  </g>
  <g id="g-root-tx_credibil_zoettm1aohhqd-stroke-fill" data-item-order="0" transform="translate(56, 50)">
    <g id="tx_credibil_zoettm1aohhqd-fill" stroke="none" fill="#f4f4f4">
      <g>
        <text style="font: 20px Roboto, sans-serif; white-space: pre;" font-size="20px" font-family="Roboto, sans-serif">
          <tspan x="28.48" y="34" dominant-baseline="ideographic">Credibility of </tspan>
          <tspan x="14.08" y="58" dominant-baseline="ideographic">witnesses low</tspan>
        </text>
      </g>
    </g>
  </g>
  <g id="g-root-tx_naturalp_mcybga1aohjba-stroke-fill" data-item-order="0" transform="translate(428, 134)">
    <g id="tx_naturalp_mcybga1aohjba-fill" stroke="none" fill="#f4f4f4">
      <g>
        <text style="font: 20px Roboto, sans-serif; white-space: pre;" font-size="20px" font-family="Roboto, sans-serif">
          <tspan x="12" y="34" dominant-baseline="ideographic">Natural </tspan>
          <tspan x="12" y="58" dominant-baseline="ideographic">phenomenon </tspan>
          <tspan x="12" y="82" dominant-baseline="ideographic">potential</tspan>
        </text>
      </g>
    </g>
  </g>
  <g id="g-root-tx_scientif_dhxsai1aohgy7-stroke-fill" data-item-order="0" transform="translate(428, 62)">
    <g id="tx_scientif_dhxsai1aohgy7-fill" stroke="none" fill="#f4f4f4">
      <g>
        <text style="font: 20px Roboto, sans-serif; white-space: pre;" font-size="20px" font-family="Roboto, sans-serif">
          <tspan x="12" y="34" dominant-baseline="ideographic">Scientific </tspan>
          <tspan x="12" y="58" dominant-baseline="ideographic">explanation </tspan>
          <tspan x="12" y="82" dominant-baseline="ideographic">validity</tspan>
        </text>
      </g>
    </g>
  </g>
  <g id="g-root-tx_hoaxtheo_4mas1m1aohiio-stroke-fill" data-item-order="0" transform="translate(80, 278)">
    <g id="tx_hoaxtheo_4mas1m1aohiio-fill" stroke="none" fill="#f4f4f4">
      <g>
        <text style="font: 20px Roboto, sans-serif; white-space: pre;" font-size="20px" font-family="Roboto, sans-serif">
          <tspan x="13.79" y="34" dominant-baseline="ideographic">Hoax Theory</tspan>
        </text>
      </g>
    </g>
  </g>
  <g id="g-root-tx_meteoric_1urrtru1aohj49-stroke-fill" data-item-order="0" transform="translate(380, 302)">
    <g id="tx_meteoric_1urrtru1aohj49-fill" stroke="none" fill="#f4f4f4">
      <g>
        <text style="font: 20px Roboto, sans-serif; white-space: pre;" font-size="20px" font-family="Roboto, sans-serif">
          <tspan x="12.13" y="34" dominant-baseline="ideographic">Meteoric Explanation</tspan>
        </text>
      </g>
    </g>
  </g>
  <g id="g-root-tx_evaluati_1hgxshm1aohhje-stroke-fill" data-item-order="0" transform="translate(74, 362)">
    <g id="tx_evaluati_1hgxshm1aohhje-fill" stroke="none" fill="#f4f4f4">
      <g>
        <text style="font: 20px Roboto, sans-serif; white-space: pre;" font-size="20px" font-family="Roboto, sans-serif">
          <tspan x="17.37" y="34" dominant-baseline="ideographic">Evaluating the Maury Island Incident's Explanations</tspan>
        </text>
      </g>
    </g>
  </g>
</svg>
