<?xml version='1.0' encoding='utf-8'?>
<svg xmlns="http://www.w3.org/2000/svg" xmlns:xlink="http://www.w3.org/1999/xlink" width="744" height="540" viewBox="0 0 744 540" style="fill:none;stroke:none;fill-rule:evenodd;clip-rule:evenodd;stroke-linecap:round;stroke-linejoin:round;stroke-miterlimit:1.5;" version="1.1">
  <style class="text-font-style fontImports" data-font-family="Roboto">@import url('https://fonts.googleapis.com/css2?family=Roboto:wght@400;700&amp;display=block');</style>
  <rect x="0" y="0" width="744" height="5.4E+2" fill="#252a34" stroke="none" id="programmatic_background"/>
  <g id="g-root-tf_1hhkvpm19u0h6q-stroke-fill" data-item-order="-365328" transform="translate(18, 12)"/>
  <g id="g-root-cp_1_column-1_1qegqyy19uljwv-stroke-fill" data-item-order="-277190" transform="translate(59, 143)">
    <g id="cp_1_column-1_1qegqyy19uljwv-fill" stroke="none" fill="none">
      <g>
        <path d="M 10 13C 10 14.656854 11.343146 16 13 16C 14.656854 16 16 14.656854 16 13C 16 11.343146 14.656854 10 13 10C 11.343146 10 10 11.343146 10 13"/>
      </g>
    </g>
    <g id="cp_1_column-1_1qegqyy19uljwv-stroke" fill="none" stroke-linecap="round" stroke-linejoin="round" stroke-miterlimit="4" stroke="#4f91fc" stroke-width="2">
      <g>
        <path d="M 10 13C 10 14.656854 11.343146 16 13 16C 14.656854 16 16 14.656854 16 13C 16 11.343146 14.656854 10 13 10C 11.343146 10 10 11.343146 10 13"/>
      </g>
    </g>
    <g id="cp_1_column-1_1qegqyy19uljwv-stroke" fill="none" stroke-linecap="round" stroke-linejoin="round" stroke-miterlimit="4" stroke="#4f91fc" stroke-width="2">
      <g>
        <path d="M 13 16L 13 94"/>
      </g>
    </g>
    <g id="cp_1_column-1_1qegqyy19uljwv-fill" stroke="none" fill="none">
      <g>
        <path d="M 10 97C 10 98.656854 11.343146 100 13 100C 14.656854 100 16 98.656854 16 97C 16 95.343146 14.656854 94 13 94C 11.343146 94 10 95.343146 10 97"/>
      </g>
    </g>
    <g id="cp_1_column-1_1qegqyy19uljwv-stroke" fill="none" stroke-linecap="round" stroke-linejoin="round" stroke-miterlimit="4" stroke="#4f91fc" stroke-width="2">
      <g>
        <path d="M 10 97C 10 98.656854 11.343146 100 13 100C 14.656854 100 16 98.656854 16 97C 16 95.343146 14.656854 94 13 94C 11.343146 94 10 95.343146 10 97"/>
      </g>
    </g>
  </g>
  <g id="g-root-cp_3_column-3_1hjg7t619ulibl-stroke-fill" data-item-order="-277174" transform="translate(239, 119)">
    <g id="cp_3_column-3_1hjg7t619ulibl-fill" stroke="none" fill="none">
      <g>
        <path d="M 10 13C 10 14.656854 11.343146 16 13 16C 14.656854 16 16 14.656854 16 13C 16 11.343146 14.656854 10 13 10C 11.343146 10 10 11.343146 10 13"/>
      </g>
    </g>
    <g id="cp_3_column-3_1hjg7t619ulibl-stroke" fill="none" stroke-linecap="round" stroke-linejoin="round" stroke-miterlimit="4" stroke="#43dd93" stroke-width="2">
      <g>
        <path d="M 10 13C 10 14.656854 11.343146 16 13 16C 14.656854 16 16 14.656854 16 13C 16 11.343146 14.656854 10 13 10C 11.343146 10 10 11.343146 10 13"/>
      </g>
    </g>
    <g id="cp_3_column-3_1hjg7t619ulibl-stroke" fill="none" stroke-linecap="round" stroke-linejoin="round" stroke-miterlimit="4" stroke="#43dd93" stroke-width="2">
      <g>
        <path d="M 13 16L 13 118"/>
      </g>
    </g>
    <g id="cp_3_column-3_1hjg7t619ulibl-fill" stroke="none" fill="none">
      <g>
        <path d="M 10 121C 10 122.656854 11.343146 124 13 124C 14.656854 124 16 122.656854 16 121C 16 119.343146 14.656854 118 13 118C 11.343146 118 10 119.343146 10 121"/>
      </g>
    </g>
    <g id="cp_3_column-3_1hjg7t619ulibl-stroke" fill="none" stroke-linecap="round" stroke-linejoin="round" stroke-miterlimit="4" stroke="#43dd93" stroke-width="2">
      <g>
        <path d="M 10 121C 10 122.656854 11.343146 124 13 124C 14.656854 124 16 122.656854 16 121C 16 119.343146 14.656854 118 13 118C 11.343146 118 10 119.343146 10 121"/>
      </g>
    </g>
  </g>
  <g id="g-root-cp_5_column-5_18nt7ka19ulj4b-stroke-fill" data-item-order="-277158" transform="translate(419, 119)">
    <g id="cp_5_column-5_18nt7ka19ulj4b-fill" stroke="none" fill="none">
      <g>
        <path d="M 10 13C 10 14.656854 11.343146 16 13 16C 14.656854 16 16 14.656854 16 13C 16 11.343146 14.656854 10 13 10C 11.343146 10 10 11.343146 10 13"/>
      </g>
    </g>
    <g id="cp_5_column-5_18nt7ka19ulj4b-stroke" fill="none" stroke-linecap="round" stroke-linejoin="round" stroke-miterlimit="4" stroke="#ffe711" stroke-width="2">
      <g>
        <path d="M 10 13C 10 14.656854 11.343146 16 13 16C 14.656854 16 16 14.656854 16 13C 16 11.343146 14.656854 10 13 10C 11.343146 10 10 11.343146 10 13"/>
      </g>
    </g>
    <g id="cp_5_column-5_18nt7ka19ulj4b-stroke" fill="none" stroke-linecap="round" stroke-linejoin="round" stroke-miterlimit="4" stroke="#ffe711" stroke-width="2">
      <g>
        <path d="M 13 16L 13 118"/>
      </g>
    </g>
    <g id="cp_5_column-5_18nt7ka19ulj4b-fill" stroke="none" fill="none">
      <g>
        <path d="M 10 121C 10 122.656854 11.343146 124 13 124C 14.656854 124 16 122.656854 16 121C 16 119.343146 14.656854 118 13 118C 11.343146 118 10 119.343146 10 121"/>
      </g>
    </g>
    <g id="cp_5_column-5_18nt7ka19ulj4b-stroke" fill="none" stroke-linecap="round" stroke-linejoin="round" stroke-miterlimit="4" stroke="#ffe711" stroke-width="2">
      <g>
        <path d="M 10 121C 10 122.656854 11.343146 124 13 124C 14.656854 124 16 122.656854 16 121C 16 119.343146 14.656854 118 13 118C 11.343146 118 10 119.343146 10 121"/>
      </g>
    </g>
  </g>
  <g id="g-root-cp_1_g-1_vccp6y19ulkp9-stroke-fill" data-item-order="-277140" transform="translate(62, 242)">
    <g id="cp_1_g-1_vccp6y19ulkp9-fill" stroke="none" fill="none">
      <g>
        <path d="M 76 10L 10 10L 28 46L 10 82L 76 82L 94 46L 76 10Z"/>
      </g>
    </g>
    <g id="cp_1_g-1_vccp6y19ulkp9-stroke" fill="none" stroke-linecap="round" stroke-linejoin="round" stroke-miterlimit="4" stroke="#4f91fc" stroke-width="2">
      <g>
        <path d="M 76 10L 10 10L 28 46L 10 82L 76 82L 94 46L 76 10Z"/>
      </g>
    </g>
  </g>
  <g id="g-root-cp_2_g-2_hrj5oq19u0glr-stroke-fill" data-item-order="-277132" transform="translate(152, 242)">
    <g id="cp_2_g-2_hrj5oq19u0glr-fill" stroke="none" fill="none">
      <g>
        <path d="M 76 10L 10 10L 28 46L 10 82L 76 82L 94 46L 76 10Z"/>
      </g>
    </g>
    <g id="cp_2_g-2_hrj5oq19u0glr-stroke" fill="none" stroke-linecap="round" stroke-linejoin="round" stroke-miterlimit="4" stroke="#1ac3fb" stroke-width="2">
      <g>
        <path d="M 76 10L 10 10L 28 46L 10 82L 76 82L 94 46L 76 10Z"/>
      </g>
    </g>
  </g>
  <g id="g-root-cp_3_g-3_dbpnka19u0he1-stroke-fill" data-item-order="-277126" transform="translate(242, 242)">
    <g id="cp_3_g-3_dbpnka19u0he1-fill" stroke="none" fill="none">
      <g>
        <path d="M 76 10L 10 10L 28 46L 10 82L 76 82L 94 46L 76 10Z"/>
      </g>
    </g>
    <g id="cp_3_g-3_dbpnka19u0he1-stroke" fill="none" stroke-linecap="round" stroke-linejoin="round" stroke-miterlimit="4" stroke="#43dd93" stroke-width="2">
      <g>
        <path d="M 76 10L 10 10L 28 46L 10 82L 76 82L 94 46L 76 10Z"/>
      </g>
    </g>
  </g>
  <g id="g-root-cp_4_g-4_8vw5fu19u0i6b-stroke-fill" data-item-order="-277120" transform="translate(332, 242)">
    <g id="cp_4_g-4_8vw5fu19u0i6b-fill" stroke="none" fill="none">
      <g>
        <path d="M 76 10L 10 10L 28 46L 10 82L 76 82L 94 46L 76 10Z"/>
      </g>
    </g>
    <g id="cp_4_g-4_8vw5fu19u0i6b-stroke" fill="none" stroke-linecap="round" stroke-linejoin="round" stroke-miterlimit="4" stroke="#a6da37" stroke-width="2">
      <g>
        <path d="M 76 10L 10 10L 28 46L 10 82L 76 82L 94 46L 76 10Z"/>
      </g>
    </g>
  </g>
  <g id="g-root-cp_5_g-5_vma219u0ft9-stroke-fill" data-item-order="-277114" transform="translate(422, 242)">
    <g id="cp_5_g-5_vma219u0ft9-fill" stroke="none" fill="none">
      <g>
        <path d="M 76 10L 10 10L 28 46L 10 82L 76 82L 94 46L 76 10Z"/>
      </g>
    </g>
    <g id="cp_5_g-5_vma219u0ft9-stroke" fill="none" stroke-linecap="round" stroke-linejoin="round" stroke-miterlimit="4" stroke="#ffe711" stroke-width="2">
      <g>
        <path d="M 76 10L 10 10L 28 46L 10 82L 76 82L 94 46L 76 10Z"/>
      </g>
    </g>
  </g>
  <g id="g-root-cp_6_g-6_1um664q19u0gef-stroke-fill" data-item-order="-277108" transform="translate(512, 242)">
    <g id="cp_6_g-6_1um664q19u0gef-fill" stroke="none" fill="none">
      <g>
        <path d="M 76 10L 10 10L 28 46L 10 82L 76 82L 94 46L 76 10Z"/>
      </g>
    </g>
    <g id="cp_6_g-6_1um664q19u0gef-stroke" fill="none" stroke-linecap="round" stroke-linejoin="round" stroke-miterlimit="4" stroke="#f79438" stroke-width="2">
      <g>
        <path d="M 76 10L 10 10L 28 46L 10 82L 76 82L 94 46L 76 10Z"/>
      </g>
    </g>
  </g>
  <g id="g-root-cp_2_column-2_1q6co0a19u0h6p-stroke-fill" data-item-order="-277100" transform="translate(149, 323)">
    <g id="cp_2_column-2_1q6co0a19u0h6p-fill" stroke="none" fill="none">
      <g>
        <path d="M 10 13C 10 14.656854 11.343146 16 13 16C 14.656854 16 16 14.656854 16 13C 16 11.343146 14.656854 10 13 10C 11.343146 10 10 11.343146 10 13"/>
      </g>
    </g>
    <g id="cp_2_column-2_1q6co0a19u0h6p-stroke" fill="none" stroke-linecap="round" stroke-linejoin="round" stroke-miterlimit="4" stroke="#1ac3fb" stroke-width="2">
      <g>
        <path d="M 10 13C 10 14.656854 11.343146 16 13 16C 14.656854 16 16 14.656854 16 13C 16 11.343146 14.656854 10 13 10C 11.343146 10 10 11.343146 10 13"/>
      </g>
    </g>
    <g id="cp_2_column-2_1q6co0a19u0h6p-stroke" fill="none" stroke-linecap="round" stroke-linejoin="round" stroke-miterlimit="4" stroke="#1ac3fb" stroke-width="2">
      <g>
        <path d="M 13 16L 13 130"/>
      </g>
    </g>
    <g id="cp_2_column-2_1q6co0a19u0h6p-fill" stroke="none" fill="none">
      <g>
        <path d="M 10 133C 10 134.656854 11.343146 136 13 136C 14.656854 136 16 134.656854 16 133C 16 131.343146 14.656854 130 13 130C 11.343146 130 10 131.343146 10 133"/>
      </g>
    </g>
    <g id="cp_2_column-2_1q6co0a19u0h6p-stroke" fill="none" stroke-linecap="round" stroke-linejoin="round" stroke-miterlimit="4" stroke="#1ac3fb" stroke-width="2">
      <g>
        <path d="M 10 133C 10 134.656854 11.343146 136 13 136C 14.656854 136 16 134.656854 16 133C 16 131.343146 14.656854 130 13 130C 11.343146 130 10 131.343146 10 133"/>
      </g>
    </g>
  </g>
  <g id="g-root-cp_4_column-4_1hapnre19u0hzf-stroke-fill" data-item-order="-277084" transform="translate(329, 323)">
    <g id="cp_4_column-4_1hapnre19u0hzf-fill" stroke="none" fill="none">
      <g>
        <path d="M 10 13C 10 14.656854 11.343146 16 13 16C 14.656854 16 16 14.656854 16 13C 16 11.343146 14.656854 10 13 10C 11.343146 10 10 11.343146 10 13"/>
      </g>
    </g>
    <g id="cp_4_column-4_1hapnre19u0hzf-stroke" fill="none" stroke-linecap="round" stroke-linejoin="round" stroke-miterlimit="4" stroke="#a6da37" stroke-width="2">
      <g>
        <path d="M 10 13C 10 14.656854 11.343146 16 13 16C 14.656854 16 16 14.656854 16 13C 16 11.343146 14.656854 10 13 10C 11.343146 10 10 11.343146 10 13"/>
      </g>
    </g>
    <g id="cp_4_column-4_1hapnre19u0hzf-stroke" fill="none" stroke-linecap="round" stroke-linejoin="round" stroke-miterlimit="4" stroke="#a6da37" stroke-width="2">
      <g>
        <path d="M 13 16L 13 130"/>
      </g>
    </g>
    <g id="cp_4_column-4_1hapnre19u0hzf-fill" stroke="none" fill="none">
      <g>
        <path d="M 10 133C 10 134.656854 11.343146 136 13 136C 14.656854 136 16 134.656854 16 133C 16 131.343146 14.656854 130 13 130C 11.343146 130 10 131.343146 10 133"/>
      </g>
    </g>
    <g id="cp_4_column-4_1hapnre19u0hzf-stroke" fill="none" stroke-linecap="round" stroke-linejoin="round" stroke-miterlimit="4" stroke="#a6da37" stroke-width="2">
      <g>
        <path d="M 10 133C 10 134.656854 11.343146 136 13 136C 14.656854 136 16 134.656854 16 133C 16 131.343146 14.656854 130 13 130C 11.343146 130 10 131.343146 10 133"/>
      </g>
    </g>
  </g>
  <g id="g-root-cp_6_column-6_13zvmh619u0gel-stroke-fill" data-item-order="-277068" transform="translate(509, 323)">
    <g id="cp_6_column-6_13zvmh619u0gel-fill" stroke="none" fill="none">
      <g>
        <path d="M 10 13C 10 14.656854 11.343146 16 13 16C 14.656854 16 16 14.656854 16 13C 16 11.343146 14.656854 10 13 10C 11.343146 10 10 11.343146 10 13"/>
      </g>
    </g>
    <g id="cp_6_column-6_13zvmh619u0gel-stroke" fill="none" stroke-linecap="round" stroke-linejoin="round" stroke-miterlimit="4" stroke="#f79438" stroke-width="2">
      <g>
        <path d="M 10 13C 10 14.656854 11.343146 16 13 16C 14.656854 16 16 14.656854 16 13C 16 11.343146 14.656854 10 13 10C 11.343146 10 10 11.343146 10 13"/>
      </g>
    </g>
    <g id="cp_6_column-6_13zvmh619u0gel-stroke" fill="none" stroke-linecap="round" stroke-linejoin="round" stroke-miterlimit="4" stroke="#f79438" stroke-width="2">
      <g>
        <path d="M 13 16L 13 118"/>
      </g>
    </g>
    <g id="cp_6_column-6_13zvmh619u0gel-fill" stroke="none" fill="none">
      <g>
        <path d="M 10 121C 10 122.656854 11.343146 124 13 124C 14.656854 124 16 122.656854 16 121C 16 119.343146 14.656854 118 13 118C 11.343146 118 10 119.343146 10 121"/>
      </g>
    </g>
    <g id="cp_6_column-6_13zvmh619u0gel-stroke" fill="none" stroke-linecap="round" stroke-linejoin="round" stroke-miterlimit="4" stroke="#f79438" stroke-width="2">
      <g>
        <path d="M 10 121C 10 122.656854 11.343146 124 13 124C 14.656854 124 16 122.656854 16 121C 16 119.343146 14.656854 118 13 118C 11.343146 118 10 119.343146 10 121"/>
      </g>
    </g>
  </g>
  <g id="g-root-tx_themcmin_qof43u19u0hzj-stroke-fill" data-item-order="0" transform="translate(140, 50)">
    <g id="tx_themcmin_qof43u19u0hzj-fill" stroke="none" fill="#f4f4f4">
      <g>
        <text style="font: 20px Roboto, sans-serif; white-space: pre;" font-size="20px" font-family="Roboto, sans-serif">
          <tspan x="17.26" y="34" dominant-baseline="ideographic">The McMinnville UFO Case: A Timeline of Events</tspan>
        </text>
      </g>
    </g>
  </g>
  <g id="g-root-tx_may11195_hteky219u0ge8-stroke-fill" data-item-order="0" transform="translate(74, 146)">
    <g id="tx_may11195_hteky219u0ge8-fill" stroke="none" fill="#4f91fc">
      <g>
        <text style="font: bold 20px Roboto, sans-serif; white-space: pre;" font-weight="bold" font-size="20px" font-family="Roboto, sans-serif">
          <tspan x="12" y="34" dominant-baseline="ideographic">May 11, 1950</tspan>
        </text>
      </g>
    </g>
  </g>
  <g id="g-root-tx_paulande_4hy2kq19u0hz5-stroke-fill" data-item-order="0" transform="translate(74, 182)">
    <g id="tx_paulande_4hy2kq19u0hz5-fill" stroke="none" fill="#f4f4f4">
      <g>
        <text style="font: 15px Roboto, sans-serif; white-space: pre;" font-size="15px" font-family="Roboto, sans-serif">
          <tspan x="12" y="28" dominant-baseline="ideographic">Paul and Evelyn </tspan>
          <tspan x="12" y="46" dominant-baseline="ideographic">Trent observe a UFO</tspan>
        </text>
      </g>
    </g>
  </g>
  <g id="g-root-tx_1967_1q8839m19u0g76-stroke-fill" data-item-order="0" transform="translate(254, 122)">
    <g id="tx_1967_1q8839m19u0g76-fill" stroke="none" fill="#43dd93">
      <g>
        <text style="font: bold 20px Roboto, sans-serif; white-space: pre;" font-weight="bold" font-size="20px" font-family="Roboto, sans-serif">
          <tspan x="12" y="34" dominant-baseline="ideographic">1967</tspan>
        </text>
      </g>
    </g>
  </g>
  <g id="g-root-tx_drwillia_1cwrkwa19u0hs3-stroke-fill" data-item-order="0" transform="translate(254, 158)">
    <g id="tx_drwillia_1cwrkwa19u0hs3-fill" stroke="none" fill="#f4f4f4">
      <g>
        <text style="font: 15px Roboto, sans-serif; white-space: pre;" font-size="15px" font-family="Roboto, sans-serif">
          <tspan x="12" y="31" dominant-baseline="ideographic">Dr. William K. </tspan>
          <tspan x="12" y="49" dominant-baseline="ideographic">Hartmann analyzes </tspan>
          <tspan x="12" y="67" dominant-baseline="ideographic">the photographs</tspan>
        </text>
      </g>
    </g>
  </g>
  <g id="g-root-tx_2013_mah18q19u0hs4-stroke-fill" data-item-order="0" transform="translate(434, 122)">
    <g id="tx_2013_mah18q19u0hs4-fill" stroke="none" fill="#ffe711">
      <g>
        <text style="font: bold 20px Roboto, sans-serif; white-space: pre;" font-weight="bold" font-size="20px" font-family="Roboto, sans-serif">
          <tspan x="12" y="34" dominant-baseline="ideographic">2013</tspan>
        </text>
      </g>
    </g>
  </g>
  <g id="g-root-tx_ipacopub_8zmzyi19u0g79-stroke-fill" data-item-order="0" transform="translate(434, 158)">
    <g id="tx_ipacopub_8zmzyi19u0g79-fill" stroke="none" fill="#f4f4f4">
      <g>
        <text style="font: 15px Roboto, sans-serif; white-space: pre;" font-size="15px" font-family="Roboto, sans-serif">
          <tspan x="12" y="31" dominant-baseline="ideographic">IPACO publishes </tspan>
          <tspan x="12" y="49" dominant-baseline="ideographic">studies on the </tspan>
          <tspan x="12" y="67" dominant-baseline="ideographic">photographs</tspan>
        </text>
      </g>
    </g>
  </g>
  <g id="g-root-tx_june8195_1ltnjbe19u0idq-stroke-fill" data-item-order="0" transform="translate(164, 338)">
    <g id="tx_june8195_1ltnjbe19u0idq-fill" stroke="none" fill="#1ac3fb">
      <g>
        <text style="font: bold 20px Roboto, sans-serif; white-space: pre;" font-weight="bold" font-size="20px" font-family="Roboto, sans-serif">
          <tspan x="12" y="34" dominant-baseline="ideographic">June 8, 1950</tspan>
        </text>
      </g>
    </g>
  </g>
  <g id="g-root-tx_ufophoto_18iti1619u0gsv-stroke-fill" data-item-order="0" transform="translate(164, 374)">
    <g id="tx_ufophoto_18iti1619u0gsv-fill" stroke="none" fill="#f4f4f4">
      <g>
        <text style="font: 15px Roboto, sans-serif; white-space: pre;" font-size="15px" font-family="Roboto, sans-serif">
          <tspan x="12" y="28" dominant-baseline="ideographic">UFO photographs </tspan>
          <tspan x="12" y="46" dominant-baseline="ideographic">published in </tspan>
          <tspan x="12" y="64" dominant-baseline="ideographic">McMinnville </tspan>
          <tspan x="12" y="82" dominant-baseline="ideographic">Telephone-Register</tspan>
        </text>
      </g>
    </g>
  </g>
  <g id="g-root-tx_1975_zn6hsa19u0idc-stroke-fill" data-item-order="0" transform="translate(344, 338)">
    <g id="tx_1975_zn6hsa19u0idc-fill" stroke="none" fill="#a6da37">
      <g>
        <text style="font: bold 20px Roboto, sans-serif; white-space: pre;" font-weight="bold" font-size="20px" font-family="Roboto, sans-serif">
          <tspan x="12" y="34" dominant-baseline="ideographic">1975</tspan>
        </text>
      </g>
    </g>
  </g>
  <g id="g-root-tx_drbrucem_mccgi219u0gsh-stroke-fill" data-item-order="0" transform="translate(344, 374)">
    <g id="tx_drbrucem_mccgi219u0gsh-fill" stroke="none" fill="#f4f4f4">
      <g>
        <text style="font: 15px Roboto, sans-serif; white-space: pre;" font-size="15px" font-family="Roboto, sans-serif">
          <tspan x="12" y="28" dominant-baseline="ideographic">Dr. Bruce Maccabee </tspan>
          <tspan x="12" y="46" dominant-baseline="ideographic">acquires the </tspan>
          <tspan x="12" y="64" dominant-baseline="ideographic">negatives for </tspan>
          <tspan x="12" y="82" dominant-baseline="ideographic">analysis</tspan>
        </text>
      </g>
    </g>
  </g>
  <g id="g-root-tx_2024_dgpg9619u0hl6-stroke-fill" data-item-order="0" transform="translate(524, 338)">
    <g id="tx_2024_dgpg9619u0hl6-fill" stroke="none" fill="#f79438">
      <g>
        <text style="font: bold 20px Roboto, sans-serif; white-space: pre;" font-weight="bold" font-size="20px" font-family="Roboto, sans-serif">
          <tspan x="12" y="34" dominant-baseline="ideographic">2024</tspan>
        </text>
      </g>
    </g>
  </g>
  <g id="g-root-tx_mcminnvi_5veyy19u0g0b-stroke-fill" data-item-order="0" transform="translate(524, 374)">
    <g id="tx_mcminnvi_5veyy19u0g0b-fill" stroke="none" fill="#f4f4f4">
      <g>
        <text style="font: 15px Roboto, sans-serif; white-space: pre;" font-size="15px" font-family="Roboto, sans-serif">
          <tspan x="12" y="31" dominant-baseline="ideographic">McMinnville UFO </tspan>
          <tspan x="12" y="49" dominant-baseline="ideographic">Festival continues </tspan>
          <tspan x="12" y="67" dominant-baseline="ideographic">tradition</tspan>
        </text>
      </g>
    </g>
    <defs>
      <pattern id="crawlingPattern-0000001b" x="0" y="0" width="12" height="12" patternUnits="userSpaceOnUse" fill="#0000001b">
        <use href="#crawlingSymbol"/>
      </pattern>
      <symbol id="crawlingSymbol">
        <g>
          <path d="M -12.5 12.5 l 13 -13 l 6 0 l -13 13 Z M -0.5 12.5 l 13 -13 l 6 0 l -13 13 Z M 11.5 12.5 l 13 -13 l 6 0 l -13 13 Z"/>
        </g>
      </symbol>
      <pattern id="crawlingPattern-0060fba2" x="0" y="0" width="12" height="12" patternUnits="userSpaceOnUse" fill="#0060fba2">
        <use href="#crawlingSymbol"/>
      </pattern>
      <pattern id="crawlingPattern-00b15c75" x="0" y="0" width="12" height="12" patternUnits="userSpaceOnUse" fill="#00b15c75">
        <use href="#crawlingSymbol"/>
      </pattern>
      <pattern id="crawlingPattern-ddc700ff" x="0" y="0" width="12" height="12" patternUnits="userSpaceOnUse" fill="#ddc700ff">
        <use href="#crawlingSymbol"/>
      </pattern>
      <pattern id="crawlingPattern-00a3d9d9" x="0" y="0" width="12" height="12" patternUnits="userSpaceOnUse" fill="#00a3d9d9">
        <use href="#crawlingSymbol"/>
      </pattern>
      <pattern id="crawlingPattern-5c87005e" x="0" y="0" width="12" height="12" patternUnits="userSpaceOnUse" fill="#5c87005e">
        <use href="#crawlingSymbol"/>
      </pattern>
      <pattern id="crawlingPattern-f17400d3" x="0" y="0" width="12" height="12" patternUnits="userSpaceOnUse" fill="#f17400d3">
        <use href="#crawlingSymbol"/>
      </pattern>
    </defs>
  </g>
</svg>
