<?xml version='1.0' encoding='utf-8'?>
<svg xmlns="http://www.w3.org/2000/svg" xmlns:xlink="http://www.w3.org/1999/xlink" width="1008" height="600" viewBox="0 0 1008 600" style="fill:none;stroke:none;fill-rule:evenodd;clip-rule:evenodd;stroke-linecap:round;stroke-linejoin:round;stroke-miterlimit:1.5;" version="1.1">
  <style class="text-font-style fontImports" data-font-family="Roboto">@import url('https://fonts.googleapis.com/css2?family=Roboto:wght@400;700&amp;display=block');</style>
  <rect x="0" y="0" width="1008" height="6E+2" fill="#252a34" stroke="none" id="programmatic_background"/>
  <g id="g-root-tf_18lxiu2190jxmp-stroke-fill" data-item-order="-566784" transform="translate(12, 12)">
    <g id="tf_18lxiu2190jxmp-fill" stroke="none" fill="#2c2c2c">
      <g>
        <path d="M 0 0L 984 0L 984 576L 0 576Z"/>
      </g>
    </g>
    <defs>
      <pattern id="crawlingPattern-0060fb20" x="0" y="0" width="12" height="12" patternUnits="userSpaceOnUse" fill="#0060fb20">
        <use href="#crawlingSymbol"/>
      </pattern>
      <symbol id="crawlingSymbol">
        <g>
          <path d="M -12.5 12.5 l 13 -13 l 6 0 l -13 13 Z M -0.5 12.5 l 13 -13 l 6 0 l -13 13 Z M 11.5 12.5 l 13 -13 l 6 0 l -13 13 Z"/>
        </g>
      </symbol>
      <pattern id="crawlingPattern-00bcfb62" x="0" y="0" width="12" height="12" patternUnits="userSpaceOnUse" fill="#00bcfb62">
        <use href="#crawlingSymbol"/>
      </pattern>
      <pattern id="crawlingPattern-00d16d21" x="0" y="0" width="12" height="12" patternUnits="userSpaceOnUse" fill="#00d16d21">
        <use href="#crawlingSymbol"/>
      </pattern>
      <pattern id="crawlingPattern-8ed00028" x="0" y="0" width="12" height="12" patternUnits="userSpaceOnUse" fill="#8ed00028">
        <use href="#crawlingSymbol"/>
      </pattern>
      <pattern id="crawlingPattern-ffe50099" x="0" y="0" width="12" height="12" patternUnits="userSpaceOnUse" fill="#ffe50099">
        <use href="#crawlingSymbol"/>
      </pattern>
      <pattern id="crawlingPattern-0000001b" x="0" y="0" width="12" height="12" patternUnits="userSpaceOnUse" fill="#0000001b">
        <use href="#crawlingSymbol"/>
      </pattern>
      <pattern id="crawlingPattern-00a3d9d9" x="0" y="0" width="12" height="12" patternUnits="userSpaceOnUse" fill="#00a3d9d9">
        <use href="#crawlingSymbol"/>
      </pattern>
      <pattern id="crawlingPattern-00baff39" x="0" y="0" width="12" height="12" patternUnits="userSpaceOnUse" fill="#00baff39">
        <use href="#crawlingSymbol"/>
      </pattern>
      <pattern id="crawlingPattern-5c87005e" x="0" y="0" width="12" height="12" patternUnits="userSpaceOnUse" fill="#5c87005e">
        <use href="#crawlingSymbol"/>
      </pattern>
      <pattern id="crawlingPattern-acff003c" x="0" y="0" width="12" height="12" patternUnits="userSpaceOnUse" fill="#acff003c">
        <use href="#crawlingSymbol"/>
      </pattern>
      <pattern id="crawlingPattern-0060fba2" x="0" y="0" width="12" height="12" patternUnits="userSpaceOnUse" fill="#0060fba2">
        <use href="#crawlingSymbol"/>
      </pattern>
      <pattern id="crawlingPattern-0059ff37" x="0" y="0" width="12" height="12" patternUnits="userSpaceOnUse" fill="#0059ff37">
        <use href="#crawlingSymbol"/>
      </pattern>
      <pattern id="crawlingPattern-00b15c75" x="0" y="0" width="12" height="12" patternUnits="userSpaceOnUse" fill="#00b15c75">
        <use href="#crawlingSymbol"/>
      </pattern>
      <pattern id="crawlingPattern-00ff873a" x="0" y="0" width="12" height="12" patternUnits="userSpaceOnUse" fill="#00ff873a">
        <use href="#crawlingSymbol"/>
      </pattern>
      <pattern id="crawlingPattern-ddc700ff" x="0" y="0" width="12" height="12" patternUnits="userSpaceOnUse" fill="#ddc700ff">
        <use href="#crawlingSymbol"/>
      </pattern>
      <pattern id="crawlingPattern-ffe7003d" x="0" y="0" width="12" height="12" patternUnits="userSpaceOnUse" fill="#ffe7003d">
        <use href="#crawlingSymbol"/>
      </pattern>
      <pattern id="crawlingPattern-5f5f5f1a" x="0" y="0" width="12" height="12" patternUnits="userSpaceOnUse" fill="#5f5f5f1a">
        <use href="#crawlingSymbol"/>
      </pattern>
    </defs>
  </g>
  <g id="g-root-cp_0_g-0_hz0i3e190cvt8-stroke-fill" data-item-order="-449243" transform="translate(50.131011962890625, 272.5)">
    <g id="cp_0_g-0_hz0i3e190cvt8-stroke" fill="none" stroke-linecap="round" stroke-linejoin="round" stroke-miterlimit="4" stroke="#f4f4f4" stroke-width="2">
      <g>
        <path d="M 826 51L 898 51M 646 51L 802 51M 814 10L 814 39.5M 106 51L 262 51M 286 51L 442 51M 274 63.5L 274 93M 454 10L 454 39.5M 466 51L 622 51M 634 63.5L 634 93M 10 51L 82 51M 94 10L 94 39.5"/>
      </g>
    </g>
  </g>
  <g id="g-root-cp_1_g-1_dj6zyy190cwli-stroke-fill" data-item-order="-449220" transform="translate(89.13101196289062, 149)">
    <g id="cp_1_g-1_dj6zyy190cwli-fill" stroke="none" fill="#4f91fc">
      <g>
        <path d="M 100 55C 100 66.244 94.5 77.5875 89 86L 55.816 132.848C 55.4175 133.411 54.5825 133.411 54.184 132.848L 21 86C 14.5 77 10 66.7284 10 55C 10 30.1472 30.1472 10 55 10C 79.8528 10 100 30.1472 100 55ZM 55 91C 74.8822 91 91 74.8822 91 55C 91 35.1177 74.8822 19 55 19C 35.1177 19 19 35.1177 19 55C 19 74.8822 35.1177 91 55 91Z"/>
      </g>
    </g>
    <g id="cp_1_g-1_dj6zyy190cwli-stroke" fill="none" stroke-linecap="round" stroke-linejoin="round" stroke-miterlimit="4" stroke="#2c2c2c" stroke-width="2">
      <g>
        <path d="M 100 55C 100 66.244 94.5 77.5875 89 86L 55.816 132.848C 55.4175 133.4106 54.5825 133.4106 54.184 132.848L 21 86C 14.5 77 10 66.7284 10 55C 10 30.1472 30.1472 10 55 10C 79.8528 10 100 30.1472 100 55ZM 55 91C 74.8822 91 91 74.8822 91 55C 91 35.1177 74.8822 19 55 19C 35.1177 19 19 35.1177 19 55C 19 74.8822 35.1177 91 55 91Z"/>
      </g>
    </g>
    <g id="cp_1_g-1_dj6zyy190cwli-fill" stroke="none" fill="#4f91fc">
      <g>
        <path d="M 55 187C 61.6274 187 67 181.6274 67 175C 67 168.3726 61.6274 163 55 163C 48.3726 163 43 168.3726 43 175C 43 181.6274 48.3726 187 55 187ZM 55 181C 58.3137 181 61 178.3137 61 175C 61 171.6863 58.3137 169 55 169C 51.6863 169 49 171.6863 49 175C 49 178.3137 51.6863 181 55 181Z"/>
      </g>
    </g>
    <g id="cp_1_g-1_dj6zyy190cwli-stroke" fill="none" stroke-linecap="round" stroke-linejoin="round" stroke-miterlimit="4" stroke="#2c2c2c" stroke-width="2">
      <g>
        <path d="M 55 187C 61.6274 187 67 181.6274 67 175C 67 168.3726 61.6274 163 55 163C 48.3726 163 43 168.3726 43 175C 43 181.6274 48.3726 187 55 187ZM 55 181C 58.3137 181 61 178.3137 61 175C 61 171.6863 58.3137 169 55 169C 51.6863 169 49 171.6863 49 175C 49 178.3137 51.6863 181 55 181Z"/>
      </g>
    </g>
  </g>
  <g id="g-root-cp_2_g-2_7qhlm190cy6h-stroke-fill" data-item-order="-449216" transform="translate(269.1309814453125, 302)">
    <g id="cp_2_g-2_7qhlm190cy6h-fill" stroke="none" fill="#1ac3fb">
      <g>
        <path d="M 100 142.000369C 100 130.756469 94.5 119.412869 89 111.000369L 55.816 64.152469C 55.4175 63.589769 54.5825 63.589769 54.184 64.152469L 21 111.000369C 14.5 120.000369 10 130.271969 10 142.000369C 10 166.853469 30.1472 187.000469 55 187.000469C 79.8528 187.000469 100 166.853469 100 142.000369ZM 55 106.000369C 74.8822 106.000369 91 122.118169 91 142.000369C 91 161.882669 74.8822 178.000469 55 178.000469C 35.1177 178.000469 19 161.882669 19 142.000369C 19 122.118169 35.1177 106.000369 55 106.000369Z"/>
      </g>
    </g>
    <g id="cp_2_g-2_7qhlm190cy6h-stroke" fill="none" stroke-linecap="round" stroke-linejoin="round" stroke-miterlimit="4" stroke="#2c2c2c" stroke-width="2">
      <g>
        <path d="M 100 142.000369C 100 130.756469 94.5 119.412869 89 111.000369L 55.816 64.152469C 55.4175 63.589769 54.5825 63.589769 54.184 64.152469L 21 111.000369C 14.5 120.000369 10 130.271969 10 142.000369C 10 166.853269 30.1472 187.000369 55 187.000369C 79.8528 187.000369 100 166.853269 100 142.000369ZM 55 106.000369C 74.8822 106.000369 91 122.118169 91 142.000369C 91 161.882669 74.8822 178.000369 55 178.000369C 35.1177 178.000369 19 161.882669 19 142.000369C 19 122.118169 35.1177 106.000369 55 106.000369Z"/>
      </g>
    </g>
    <g id="cp_2_g-2_7qhlm190cy6h-fill" stroke="none" fill="#1ac3fb">
      <g>
        <path d="M 55 34C 61.6274 34 67 28.6274 67 22C 67 15.3726 61.6274 10 55 10C 48.3726 10 43 15.3726 43 22C 43 28.6274 48.3726 34 55 34ZM 55 28C 58.3137 28 61 25.3137 61 22C 61 18.6863 58.3137 16 55 16C 51.6863 16 49 18.6863 49 22C 49 25.3137 51.6863 28 55 28Z"/>
      </g>
    </g>
    <g id="cp_2_g-2_7qhlm190cy6h-stroke" fill="none" stroke-linecap="round" stroke-linejoin="round" stroke-miterlimit="4" stroke="#2c2c2c" stroke-width="2">
      <g>
        <path d="M 55 34C 61.6274 34 67 28.6274 67 22C 67 15.3726 61.6274 10 55 10C 48.3726 10 43 15.3726 43 22C 43 28.6274 48.3726 34 55 34ZM 55 28C 58.3137 28 61 25.3137 61 22C 61 18.6863 58.3137 16 55 16C 51.6863 16 49 18.6863 49 22C 49 25.3137 51.6863 28 55 28Z"/>
      </g>
    </g>
  </g>
  <g id="g-root-cp_3_g-3_1ut11ga190cyro-stroke-fill" data-item-order="-449210" transform="translate(449.1310119628906, 149)">
    <g id="cp_3_g-3_1ut11ga190cyro-fill" stroke="none" fill="#43dd93">
      <g>
        <path d="M 100 55C 100 66.244 94.5 77.5875 89 86L 55.816 132.848C 55.4175 133.411 54.5825 133.411 54.184 132.848L 21 86C 14.5 77 10 66.7284 10 55C 10 30.1472 30.1472 10 55 10C 79.8528 10 100 30.1472 100 55ZM 55 91C 74.8822 91 91 74.8822 91 55C 91 35.1177 74.8822 19 55 19C 35.1177 19 19 35.1177 19 55C 19 74.8822 35.1177 91 55 91Z"/>
      </g>
    </g>
    <g id="cp_3_g-3_1ut11ga190cyro-stroke" fill="none" stroke-linecap="round" stroke-linejoin="round" stroke-miterlimit="4" stroke="#2c2c2c" stroke-width="2">
      <g>
        <path d="M 100 55C 100 66.244 94.5 77.5875 89 86L 55.816 132.848C 55.4175 133.4106 54.5825 133.4106 54.184 132.848L 21 86C 14.5 77 10 66.7284 10 55C 10 30.1472 30.1472 10 55 10C 79.8528 10 100 30.1472 100 55ZM 55 91C 74.8822 91 91 74.8822 91 55C 91 35.1177 74.8822 19 55 19C 35.1177 19 19 35.1177 19 55C 19 74.8822 35.1177 91 55 91Z"/>
      </g>
    </g>
    <g id="cp_3_g-3_1ut11ga190cyro-fill" stroke="none" fill="#43dd93">
      <g>
        <path d="M 55 187C 61.6274 187 67 181.6274 67 175C 67 168.3726 61.6274 163 55 163C 48.3726 163 43 168.3726 43 175C 43 181.6274 48.3726 187 55 187ZM 55 181C 58.3137 181 61 178.3137 61 175C 61 171.6863 58.3137 169 55 169C 51.6863 169 49 171.6863 49 175C 49 178.3137 51.6863 181 55 181Z"/>
      </g>
    </g>
    <g id="cp_3_g-3_1ut11ga190cyro-stroke" fill="none" stroke-linecap="round" stroke-linejoin="round" stroke-miterlimit="4" stroke="#2c2c2c" stroke-width="2">
      <g>
        <path d="M 55 187C 61.6274 187 67 181.6274 67 175C 67 168.3726 61.6274 163 55 163C 48.3726 163 43 168.3726 43 175C 43 181.6274 48.3726 187 55 187ZM 55 181C 58.3137 181 61 178.3137 61 175C 61 171.6863 58.3137 169 55 169C 51.6863 169 49 171.6863 49 175C 49 178.3137 51.6863 181 55 181Z"/>
      </g>
    </g>
  </g>
  <g id="g-root-cp_4_g-4_1ly0iai190cwen-stroke-fill" data-item-order="-449204" transform="translate(629.1309814453125, 302)">
    <g id="cp_4_g-4_1ly0iai190cwen-fill" stroke="none" fill="#a6da37">
      <g>
        <path d="M 100 142.000369C 100 130.756469 94.5 119.412869 89 111.000369L 55.816 64.152469C 55.4175 63.589769 54.5825 63.589769 54.184 64.152469L 21 111.000369C 14.5 120.000369 10 130.271969 10 142.000369C 10 166.853469 30.1472 187.000469 55 187.000469C 79.8528 187.000469 100 166.853469 100 142.000369ZM 55 106.000369C 74.8822 106.000369 91 122.118169 91 142.000369C 91 161.882669 74.8822 178.000469 55 178.000469C 35.1177 178.000469 19 161.882669 19 142.000369C 19 122.118169 35.1177 106.000369 55 106.000369Z"/>
      </g>
    </g>
    <g id="cp_4_g-4_1ly0iai190cwen-stroke" fill="none" stroke-linecap="round" stroke-linejoin="round" stroke-miterlimit="4" stroke="#2c2c2c" stroke-width="2">
      <g>
        <path d="M 100 142.000369C 100 130.756469 94.5 119.412869 89 111.000369L 55.816 64.152469C 55.4175 63.589769 54.5825 63.589769 54.184 64.152469L 21 111.000369C 14.5 120.000369 10 130.271969 10 142.000369C 10 166.853269 30.1472 187.000369 55 187.000369C 79.8528 187.000369 100 166.853269 100 142.000369ZM 55 106.000369C 74.8822 106.000369 91 122.118169 91 142.000369C 91 161.882669 74.8822 178.000369 55 178.000369C 35.1177 178.000369 19 161.882669 19 142.000369C 19 122.118169 35.1177 106.000369 55 106.000369Z"/>
      </g>
    </g>
    <g id="cp_4_g-4_1ly0iai190cwen-fill" stroke="none" fill="#a6da37">
      <g>
        <path d="M 55 34C 61.6274 34 67 28.6274 67 22C 67 15.3726 61.6274 10 55 10C 48.3726 10 43 15.3726 43 22C 43 28.6274 48.3726 34 55 34ZM 55 28C 58.3137 28 61 25.3137 61 22C 61 18.6863 58.3137 16 55 16C 51.6863 16 49 18.6863 49 22C 49 25.3137 51.6863 28 55 28Z"/>
      </g>
    </g>
    <g id="cp_4_g-4_1ly0iai190cwen-stroke" fill="none" stroke-linecap="round" stroke-linejoin="round" stroke-miterlimit="4" stroke="#2c2c2c" stroke-width="2">
      <g>
        <path d="M 55 34C 61.6274 34 67 28.6274 67 22C 67 15.3726 61.6274 10 55 10C 48.3726 10 43 15.3726 43 22C 43 28.6274 48.3726 34 55 34ZM 55 28C 58.3137 28 61 25.3137 61 22C 61 18.6863 58.3137 16 55 16C 51.6863 16 49 18.6863 49 22C 49 25.3137 51.6863 28 55 28Z"/>
      </g>
    </g>
  </g>
  <g id="g-root-cp_5_g-5_1hi7062190cx6y-stroke-fill" data-item-order="-449198" transform="translate(809.1309814453125, 149)">
    <g id="cp_5_g-5_1hi7062190cx6y-fill" stroke="none" fill="#ffe711">
      <g>
        <path d="M 100 55C 100 66.244 94.5 77.5875 89 86L 55.816 132.848C 55.4175 133.411 54.5825 133.411 54.184 132.848L 21 86C 14.5 77 10 66.7284 10 55C 10 30.1472 30.1472 10 55 10C 79.8528 10 100 30.1472 100 55ZM 55 91C 74.8822 91 91 74.8822 91 55C 91 35.1177 74.8822 19 55 19C 35.1177 19 19 35.1177 19 55C 19 74.8822 35.1177 91 55 91Z"/>
      </g>
    </g>
    <g id="cp_5_g-5_1hi7062190cx6y-stroke" fill="none" stroke-linecap="round" stroke-linejoin="round" stroke-miterlimit="4" stroke="#2c2c2c" stroke-width="2">
      <g>
        <path d="M 100 55C 100 66.244 94.5 77.5875 89 86L 55.816 132.848C 55.4175 133.4106 54.5825 133.4106 54.184 132.848L 21 86C 14.5 77 10 66.7284 10 55C 10 30.1472 30.1472 10 55 10C 79.8528 10 100 30.1472 100 55ZM 55 91C 74.8822 91 91 74.8822 91 55C 91 35.1177 74.8822 19 55 19C 35.1177 19 19 35.1177 19 55C 19 74.8822 35.1177 91 55 91Z"/>
      </g>
    </g>
    <g id="cp_5_g-5_1hi7062190cx6y-fill" stroke="none" fill="#ffe711">
      <g>
        <path d="M 55 187C 61.6274 187 67 181.6274 67 175C 67 168.3726 61.6274 163 55 163C 48.3726 163 43 168.3726 43 175C 43 181.6274 48.3726 187 55 187ZM 55 181C 58.3137 181 61 178.3137 61 175C 61 171.6863 58.3137 169 55 169C 51.6863 169 49 171.6863 49 175C 49 178.3137 51.6863 181 55 181Z"/>
      </g>
    </g>
    <g id="cp_5_g-5_1hi7062190cx6y-stroke" fill="none" stroke-linecap="round" stroke-linejoin="round" stroke-miterlimit="4" stroke="#2c2c2c" stroke-width="2">
      <g>
        <path d="M 55 187C 61.6274 187 67 181.6274 67 175C 67 168.3726 61.6274 163 55 163C 48.3726 163 43 168.3726 43 175C 43 181.6274 48.3726 187 55 187ZM 55 181C 58.3137 181 61 178.3137 61 175C 61 171.6863 58.3137 169 55 169C 51.6863 169 49 171.6863 49 175C 49 178.3137 51.6863 181 55 181Z"/>
      </g>
    </g>
  </g>
  <g id="g-root-ic_1_zrjgre190cwee-stroke-fill" data-item-order="-2304" transform="translate(290.1310119628906, 410.0000305175781)">
    <g id="ic_1_zrjgre190cwee-fill" stroke="none" fill="#1ac3fb">
      <g>
        <path d="M 55.999969 34.999985L 42.799976 34.999985C 42.588371 35.00568 42.396107 34.877502 42.319977 34.679985C 41.282585 32.04739 39.055149 30.064972 36.319981 29.339987C 36.126205 29.259245 35.999981 29.06991 35.999981 28.859987L 35.999985 22.999992C 35.999985 21.895422 35.104553 20.999992 33.999985 20.999992C 32.895416 20.999992 31.999985 21.895422 31.999985 22.999992L 31.999985 28.859989C 31.9937 29.080063 31.849499 29.272331 31.639986 29.339985C 28.904819 30.064972 26.677383 32.04739 25.63999 34.679985C 25.56386 34.877502 25.371597 35.00568 25.15999 34.999985L 11.999999 34.999985C 10.89543 34.999985 10 35.895412 10 36.999981C 10 38.104553 10.89543 38.999981 11.999999 38.999981L 13.119998 38.999981C 13.293022 38.998432 13.453488 39.090126 13.539997 39.239979C 13.629314 39.39468 13.629314 39.585278 13.539998 39.739979C 13.176848 40.437431 12.991368 41.213699 12.999998 41.999977C 12.999998 44.761402 15.238573 46.999977 17.999994 46.999977C 20.761417 46.999977 22.999992 44.761402 22.999992 41.999977C 23.002459 41.212006 22.810085 40.435642 22.439993 39.739979C 22.350676 39.585278 22.350676 39.39468 22.439991 39.239979C 22.526501 39.090126 22.686966 38.998432 22.859991 38.999981L 24.63999 38.999981C 24.887686 38.996796 25.100376 39.175449 25.13999 39.419979C 25.79961 43.792995 29.557499 47.026562 33.979984 47.026562C 38.40247 47.026562 42.160355 43.792995 42.819977 39.419979C 42.859592 39.175449 43.072281 38.996796 43.319977 38.999981L 45.099976 38.999981C 45.272999 38.998432 45.433468 39.090126 45.519974 39.239979C 45.609295 39.39468 45.609295 39.585278 45.519978 39.739979C 45.163761 40.439209 44.985172 41.215385 44.999977 41.999977C 44.999977 44.761402 47.238552 46.999977 49.999973 46.999977C 52.761398 46.999977 54.999969 44.761402 54.999969 41.999977C 55.002438 41.212006 54.810062 40.435642 54.439972 39.739979C 54.350655 39.585278 54.350655 39.39468 54.439968 39.239979C 54.526474 39.090126 54.686943 38.998432 54.859966 38.999981L 55.999969 38.999981C 57.104538 38.999981 57.999969 38.104553 57.999969 36.999981C 57.999969 35.895412 57.104538 34.999985 55.999969 34.999985ZM 38.159981 36.29998C 37.187088 37.616657 35.647102 38.393536 34.009983 38.393536C 32.372868 38.393536 30.832882 37.616657 29.859987 36.29998C 29.602852 35.940212 29.482311 35.500595 29.519987 35.059986C 29.54319 34.659397 29.714233 34.281677 29.999987 33.999985C 31.106037 33.026939 32.526855 32.48703 33.999985 32.479984C 35.471779 32.494152 36.890194 33.03315 37.999981 33.999981C 38.310669 34.290756 38.490936 34.694553 38.499981 35.119984C 38.530209 35.541195 38.409698 35.959435 38.159981 36.29998Z"/>
      </g>
    </g>
  </g>
  <g id="g-root-ic_grou_8wi9wa190fqis-stroke-fill" data-item-order="-2304" transform="translate(650.1309814453125, 410)">
    <g id="ic_grou_8wi9wa190fqis-fill" stroke="none" fill="#a6da37">
      <g>
        <path d="M 27.414 10.586C 26.629242 9.828055 25.38183 9.838895 24.610363 10.610363C 23.838894 11.38183 23.828056 12.629242 24.586 13.414L 31.172001 20L 24.586 26.586C 23.828056 27.370758 23.838894 28.61817 24.610363 29.389637C 25.38183 30.161104 26.629242 30.171944 27.414 29.414L 34 22.827999L 40.585999 29.414C 41.370758 30.171944 42.618168 30.161104 43.389637 29.389637C 44.161106 28.61817 44.171944 27.370758 43.414001 26.586L 36.827999 20L 43.414001 13.414C 44.171944 12.629242 44.161106 11.38183 43.389637 10.610363C 42.618168 9.838895 41.370758 9.828055 40.585999 10.586L 34 17.172001L 27.414 10.586ZM 22 43C 22 45.761425 19.761425 48 17 48C 14.238577 48 12 45.761425 12 43C 12 40.238579 14.238577 38 17 38C 19.761425 38 22 40.238579 22 43ZM 17 50C 14.381598 49.996948 11.867135 51.024284 10 52.860001L 10 57C 10 57.552284 10.447715 58 11 58L 20.223999 58C 20.009274 57.113678 20.122213 56.179604 20.542 55.369999C 21.161999 54.110001 21.958 52.950001 22.892 51.919998C 21.182259 50.669506 19.118242 49.996914 17 50.000004ZM 47.723999 58C 47.938 57.155998 47.855999 56.208 47.352001 55.259998C 46.719223 54.072514 45.939789 52.969212 45.032001 51.976002C 46.755646 50.689934 48.849442 49.996681 51 50C 53.618572 49.996086 56.13335 51.023552 58.000004 52.860001L 58 57C 58 57.552284 57.552284 58 57 58L 47.723999 58ZM 56 43C 56 45.761425 53.761425 48 51 48C 48.238575 48 46 45.761425 46 43C 46 40.238579 48.238575 38 51 38C 53.761425 38 56 40.238579 56 43ZM 34 50C 29.427738 49.99892 25.252178 52.596237 23.232 56.698002C 22.925999 57.318001 23.406 58 24.096001 58L 43.902 58C 44.594002 58 45.074001 57.316002 44.768002 56.698002C 42.747822 52.596237 38.572262 49.99892 34 50ZM 34 48C 37.589851 48 40.5 45.089851 40.5 41.5C 40.5 37.910149 37.589851 35 34 35C 30.410151 35 27.5 37.910149 27.5 41.5C 27.5 45.089851 30.410151 48 34 48Z"/>
      </g>
    </g>
  </g>
  <g id="g-root-ic_targ_1cymniy190h4wc-stroke-fill" data-item-order="-2304" transform="translate(110.1309814453125, 170)">
    <g id="ic_targ_1cymniy190h4wc-fill" stroke="none" fill="#4f91fc">
      <g>
        <path d="M 56 32L 51.880001 32C 50.942665 23.648693 44.351307 17.057337 36 16.119999L 36 12C 36 10.895431 35.104568 10 34 10C 32.895432 10 32 10.895431 32 12L 32 16.119999C 23.648693 17.057337 17.057337 23.648693 16.119999 32L 12 32C 10.895431 32 10 32.895432 10 34C 10 35.104568 10.895431 36 12 36L 16.119999 36C 17.057337 44.351307 23.648693 50.942665 32 51.880001L 32 56C 32 57.104568 32.895432 58 34 58C 35.104568 58 36 57.104568 36 56L 36 51.880001C 44.351307 50.942665 50.942665 44.351307 51.880001 36L 56 36C 57.104568 36 58 35.104568 58 34C 58 32.895432 57.104568 32 56 32ZM 47.740002 31.4C 47.766518 31.547815 47.730286 31.699997 47.639999 31.82C 47.541523 31.927082 47.405239 31.991636 47.259998 32L 43.139999 32C 42.914486 31.990921 42.720577 31.83741 42.659996 31.619999C 41.817158 28.560541 39.422119 26.173107 36.360001 25.34C 36.143551 25.270016 35.997715 25.067467 36 24.84L 36 20.84C 36.001236 20.693035 36.06707 20.554056 36.18 20.459999C 36.311829 20.392357 36.46817 20.392357 36.599998 20.459999C 42.190853 21.505207 46.593693 25.828999 47.740002 31.400002ZM 34 39C 31.238577 39 29 36.761425 29 34C 29 31.238577 31.238577 29 34 29C 36.761425 29 39 31.238577 39 34C 39 36.761425 36.761425 39 34 39ZM 31.4 20.26C 31.53183 20.192356 31.688171 20.192356 31.82 20.26C 31.932932 20.354057 31.998764 20.493034 32 20.639999L 32 24.84C 32.002281 25.067467 31.856447 25.270016 31.639999 25.34C 28.577877 26.173107 26.18284 28.560541 25.34 31.619999C 25.279419 31.83741 25.08551 31.990921 24.859999 31.999998L 20.74 32C 20.594761 31.991636 20.458477 31.927082 20.360001 31.82C 20.303326 31.685736 20.303326 31.534266 20.360001 31.4C 21.419449 25.780416 25.790197 21.370075 31.400002 20.26ZM 20.26 36.580002C 20.229397 36.436501 20.266106 36.286888 20.359653 36.173851C 20.453201 36.060814 20.593309 35.996773 20.74 36L 24.860001 36C 25.082222 36 25.277779 36.146667 25.34 36.360001C 26.183928 39.42297 28.577032 41.816074 31.640001 42.66C 31.849514 42.727654 31.993715 42.919922 31.999998 43.139999L 32 47.240002C 32.004807 47.39394 31.938404 47.541504 31.82 47.639999C 31.697258 47.724293 31.547558 47.759937 31.4 47.740002C 25.74559 46.663742 21.326115 42.236336 20.26 36.580002ZM 36.599998 47.740002C 36.452442 47.759937 36.302742 47.724293 36.18 47.639999C 36.061596 47.541504 35.995193 47.39394 36 47.240002L 36 43.139999C 36.006283 42.919922 36.150482 42.727654 36.360001 42.659996C 39.42297 41.816074 41.816074 39.42297 42.66 36.360001C 42.722221 36.146667 42.917778 36 43.139999 36L 47.259998 36C 47.406689 35.996773 47.546795 36.060814 47.640343 36.173851C 47.733891 36.286888 47.770599 36.436501 47.739998 36.579998C 46.673885 42.236336 42.254414 46.663742 36.599998 47.740002Z"/>
      </g>
    </g>
  </g>
  <g id="g-root-ic_ufo_147zfyy190h5vm-stroke-fill" data-item-order="-2304" transform="translate(470.1310119628906, 170)">
    <g id="ic_ufo_147zfyy190h5vm-fill" stroke="none" fill="#43dd93">
      <g>
        <path d="M 50.779972 39.47998C 50.492653 38.408707 49.391369 37.773121 48.320053 38.060276C 47.248737 38.347435 46.612984 39.44862 46.899975 40.519978L 51.139973 56.51997C 51.305813 57.231792 51.846741 57.796467 52.550789 57.992718C 53.254833 58.188969 54.009865 57.985542 54.520016 57.462147C 55.03017 56.938755 55.214191 56.178761 54.999969 55.479969ZM 19.819994 37.999981C 18.754385 37.720531 17.663439 38.355427 17.379995 39.419979L 13.139998 55.419968C 12.925776 56.118759 13.109797 56.878754 13.61995 57.402149C 14.130103 57.925541 14.885136 58.128971 15.589183 57.93272C 16.29323 57.736469 16.834156 57.171795 16.999996 56.459969L 21.239992 40.45998C 21.380274 39.945377 21.309191 39.396061 21.04254 38.93412C 20.77589 38.472179 20.335768 38.135883 19.819994 37.999981ZM 37.999981 49.859974C 39.203434 49.748356 40.123878 48.738594 40.123878 47.529976C 40.123878 46.321358 39.203434 45.311592 37.999981 45.199978L 31.079987 45.199978C 29.876532 45.311592 28.956087 46.321358 28.956087 47.529976C 28.956087 48.738594 29.876532 49.748356 31.079987 49.859974L 32.239986 49.859974L 32.239986 50.179974L 29.199987 54.299969C 28.437836 55.332745 28.657217 56.787819 29.689987 57.549973C 30.722759 58.312122 32.177834 58.092743 32.939987 57.059971L 34.599983 54.819969L 36.199982 57.079971C 36.978706 58.129314 38.460644 58.348694 39.509983 57.569973C 40.559322 56.791248 40.778702 55.309311 39.999981 54.259972L 36.999981 50.159973L 36.999981 49.859974ZM 37.999981 40.239979C 38.008083 38.822575 37.160488 37.540222 35.853294 36.99218C 34.546097 36.444141 33.037415 36.738628 32.032272 37.738029C 31.027128 38.737431 30.723999 40.244396 31.26454 41.554714C 31.80508 42.865028 33.082554 43.719955 34.499985 43.719978C 35.426395 43.7253 36.316692 43.361012 36.973652 42.707806C 37.630611 42.054604 37.999996 41.166409 37.999981 40.239979ZM 56.959969 28.999987C 57.256554 29.003063 57.540344 28.879362 57.739967 28.659986C 57.943382 28.447094 58.0326 28.149696 57.979969 27.859989C 57.289898 23.843998 53.774242 20.931271 49.699974 20.999994L 18.299995 20.999992C 14.218209 20.921286 10.691197 23.836382 10 27.859989C 9.947369 28.149696 10.036588 28.447094 10.24 28.659988C 10.439621 28.879362 10.723412 29.003063 11.02 28.999985L 13.279998 28.999987C 13.484313 29.00264 13.666455 29.129347 13.739998 29.319986C 13.899545 29.722363 14.079784 30.116222 14.279998 30.499989C 16.065365 33.888157 19.580208 36.009007 23.40999 36.009007C 27.239775 36.009007 30.754618 33.888157 32.539986 30.499987C 32.7402 30.116222 32.920441 29.722363 33.079987 29.319988C 33.148682 29.125599 33.333839 28.996794 33.539982 28.999985L 34.459984 28.999987C 34.666126 28.996794 34.851284 29.125599 34.919983 29.319986C 35.079533 29.722363 35.259773 30.116222 35.459984 30.499989C 37.24535 33.888157 40.760193 36.009007 44.589977 36.009007C 48.419758 36.009007 51.934605 33.888157 53.719971 30.499987C 53.920185 30.116222 54.100426 29.722363 54.259972 29.319988C 54.328667 29.125599 54.513821 28.996794 54.719967 28.999985ZM 23.39999 31.999985C 21.569778 31.98328 19.832556 31.190992 18.619995 29.819986C 18.522772 29.660286 18.522772 29.459686 18.619995 29.299986C 18.686573 29.141239 18.83013 29.027905 18.999994 28.999987L 27.799988 28.999987C 27.999432 28.999292 28.180212 29.117193 28.259989 29.299986C 28.367357 29.456694 28.367357 29.66328 28.259989 29.819986C 27.033701 31.218298 25.259792 32.014 23.399992 31.999985ZM 44.599976 31.999985C 42.768078 31.990917 41.027882 31.197273 39.819981 29.819986C 39.712612 29.66328 39.712612 29.456694 39.819981 29.299986C 39.899757 29.117193 40.080536 28.999292 40.27998 28.999987L 49.079975 28.999987C 49.272125 29.007065 49.443192 29.123701 49.519974 29.299986C 49.627342 29.456694 49.627342 29.66328 49.519974 29.819986C 48.279999 31.234331 46.480644 32.031609 44.599979 31.999985ZM 33.999985 10C 28.477444 9.948547 23.296263 12.666789 20.199993 17.239996C 20.121458 17.397409 20.121458 17.582581 20.199993 17.739994C 20.291012 17.89773 20.457916 17.996355 20.639992 17.999994L 47.499977 17.999994C 47.703228 18.018984 47.898788 17.917292 47.999969 17.739994C 48.078506 17.582581 48.078506 17.397409 47.999973 17.239996C 44.864639 12.606875 39.593002 9.880687 33.999981 10Z"/>
      </g>
    </g>
  </g>
  <g id="g-root-ic_road_1q7l9ju190jz0o-stroke-fill" data-item-order="-2304" transform="translate(830.1309814453125, 170)">
    <g id="ic_road_1q7l9ju190jz0o-fill" stroke="none" fill="#ffe711">
      <g>
        <path d="M 51.18 37.18C 51.046188 36.718262 50.597198 36.421757 50.119999 36.48L 49.5 36.48C 47.415596 36.48542 45.422955 35.623154 44 34.099998C 43.908813 33.989662 43.77314 33.925774 43.629997 33.925774C 43.486858 33.925774 43.351185 33.989662 43.259998 34.099998C 41.58638 36.105179 39.304237 37.509575 36.760002 38.099998C 36.313335 38.202892 35.997658 38.601646 36 39.059998L 36 43C 36 44.104568 35.104568 45 34 45C 32.895432 45 32 44.104568 32 43L 32 39.120003C 32.002342 38.661644 31.686665 38.262894 31.24 38.16C 28.695763 37.569572 26.413622 36.16518 24.740002 34.16C 24.648422 34.05761 24.517365 33.999359 24.379999 34C 24.230665 33.99786 24.086662 34.055462 23.98 34.16C 22.571068 35.693573 20.582525 36.564468 18.5 36.559998L 17.880001 36.559998C 17.402802 36.501755 16.953814 36.79826 16.82 37.260002L 11.04 56.720001C 10.951868 57.022167 11.011146 57.348194 11.2 57.599998C 11.38447 57.856998 11.683715 58.006622 12 57.999996L 31 58C 31.552284 58 32 57.552284 32 57L 32 51C 32 49.895432 32.895432 49 34 49C 35.104568 49 36 49.895432 36 51L 36 57C 36 57.552284 36.447716 58 37 58L 56 58C 56.31628 58.006622 56.615528 57.856998 56.799995 57.599998C 56.988853 57.348194 57.048134 57.022167 56.959999 56.720001ZM 56 24L 43.18 24C 42.769573 24.000364 42.402393 23.744936 42.260002 23.360001C 41.303581 20.808788 39.23362 18.834595 36.639999 18C 36.251225 17.862602 35.993614 17.492289 36 17.08L 36 12.22C 36 11.115431 35.104568 10.22 34 10.22C 32.895432 10.22 32 11.115431 32 12.22L 32 17.08C 32.000763 17.502985 31.724594 17.876629 31.319998 18C 28.745859 18.840729 26.69301 20.805283 25.74 23.34C 25.604303 23.732822 25.23559 23.997334 24.82 24L 12 24C 10.895431 24 10 24.895432 10 26C 10 27.10457 10.895431 28 12 28L 14 28C 14.097191 27.966475 14.20281 27.966475 14.3 28C 14.396099 28.102543 14.4466 28.239618 14.44 28.379999C 14.42923 28.52647 14.42923 28.673532 14.440001 28.82C 14.596359 31.140497 16.524242 32.942848 18.85 32.942848C 21.175758 32.942848 23.103642 31.140497 23.26 28.82C 23.27042 28.673517 23.27042 28.52648 23.259998 28.379999C 23.230686 28.25032 23.252155 28.114338 23.32 27.999998C 23.436468 27.958822 23.563534 27.958822 23.68 28L 24.52 28C 24.964443 28 25.355556 28.293333 25.48 28.719999C 26.483982 32.604294 29.988054 35.317822 34 35.317822C 38.011948 35.317822 41.516022 32.604294 42.52 28.720001C 42.644444 28.293333 43.035557 28 43.48 28L 44.32 28C 44.455868 28.006096 44.584431 28.063236 44.68 28.16C 44.768871 28.265705 44.812046 28.402422 44.799999 28.539999C 44.789577 28.68648 44.789577 28.833517 44.799999 28.98C 44.95636 31.300497 46.884243 33.102848 49.209999 33.102848C 51.535759 33.102848 53.463642 31.300497 53.620003 28.98C 53.630772 28.833532 53.630772 28.68647 53.620003 28.540001C 53.542442 28.359348 53.573395 28.150404 53.699997 27.999998C 53.797192 27.966475 53.902809 27.966475 54 28L 56 28C 57.104568 28 58 27.10457 58 26C 58 24.895432 57.104568 24 56 24ZM 18.82 30.34C 18.010366 30.340075 17.350941 29.689562 17.34 28.880001C 17.350769 28.067122 18.007122 27.410769 18.82 27.4C 19.62956 27.410942 20.280075 28.070366 20.280001 28.880001C 20.280001 29.686337 19.626335 30.34 18.82 30.34ZM 38 24.459999L 30.219999 24.459999C 30.067938 24.46106 29.928427 24.375801 29.860001 24.24C 29.781401 24.103863 29.781401 23.936136 29.860001 23.799999C 30.784672 22.365051 32.389503 21.514761 34.096088 21.555588C 35.802673 21.596416 37.365005 22.522474 38.220001 24C 38.280735 24.105196 38.280735 24.234802 38.220001 24.34C 38.166031 24.408245 38.086597 24.451572 38 24.459999ZM 49.259998 30.34C 48.453667 30.34 47.800003 29.686337 47.800003 28.880001C 47.799927 28.070366 48.450439 27.410942 49.260002 27.400002C 50.07288 27.410769 50.729233 28.067122 50.740002 28.880001C 50.735142 29.2833 50.565899 29.667147 50.27142 29.942749C 49.97694 30.218351 49.582737 30.361832 49.18 30.34Z"/>
      </g>
    </g>
  </g>
  <g id="g-root-tx_keyevent_146qhsq190cyrx-stroke-fill" data-item-order="0" transform="translate(290, 50)">
    <g id="tx_keyevent_146qhsq190cyrx-fill" stroke="none" fill="#f4f4f4">
      <g>
        <text style="font: 20px Roboto, sans-serif; white-space: pre;" font-size="20px" font-family="Roboto, sans-serif">
          <tspan x="17.47" y="34" dominant-baseline="ideographic">Key Events of the Muroc Field UFO Sightings</tspan>
        </text>
      </g>
    </g>
  </g>
  <g id="g-root-tx_july1942_qn5tay190frbe-stroke-fill" data-item-order="0" transform="translate(302, 158)">
    <g id="tx_july1942_qn5tay190frbe-fill" stroke="none" fill="#1ac3fb">
      <g>
        <text style="font: bold 20px Roboto, sans-serif; white-space: pre;" font-weight="bold" font-size="20px" font-family="Roboto, sans-serif">
          <tspan x="13.7" y="34" dominant-baseline="ideographic">July 1942</tspan>
        </text>
      </g>
    </g>
  </g>
  <g id="g-root-tx_activati_m7ys9m190foxv-stroke-fill" data-item-order="0" transform="translate(254, 194)">
    <g id="tx_activati_m7ys9m190foxv-fill" stroke="none" fill="#e5f8ff">
      <g>
        <text style="font: 15px Roboto, sans-serif; white-space: pre;" font-size="15px" font-family="Roboto, sans-serif">
          <tspan x="14.72" y="28" dominant-baseline="ideographic">Activation of Muroc </tspan>
          <tspan x="33" y="46" dominant-baseline="ideographic">Army Air Base</tspan>
        </text>
      </g>
    </g>
  </g>
  <g id="g-root-tx_july8194_v63ouy190h53c-stroke-fill" data-item-order="0" transform="translate(626, 134)">
    <g id="tx_july8194_v63ouy190h53c-fill" stroke="none" fill="#a6da37">
      <g>
        <text style="font: bold 20px Roboto, sans-serif; white-space: pre;" font-weight="bold" font-size="20px" font-family="Roboto, sans-serif">
          <tspan x="16.05" y="34" dominant-baseline="ideographic">July 8, 1947, </tspan>
          <tspan x="51.01" y="58" dominant-baseline="ideographic">noon</tspan>
        </text>
      </g>
    </g>
  </g>
  <g id="g-root-tx_multiple_hv9nkq190h3ih-stroke-fill" data-item-order="0" transform="translate(626, 194)">
    <g id="tx_multiple_hv9nkq190h3ih-fill" stroke="none" fill="#f2ffd7">
      <g>
        <text style="font: 15px Roboto, sans-serif; white-space: pre;" font-size="15px" font-family="Roboto, sans-serif">
          <tspan x="11.85" y="28" dominant-baseline="ideographic">Multiple witnesses </tspan>
          <tspan x="31.59" y="46" dominant-baseline="ideographic">observe UFO</tspan>
        </text>
      </g>
    </g>
  </g>
  <g id="g-root-tx_septembe_4jt57e190h53e-stroke-fill" data-item-order="0" transform="translate(62, 398)">
    <g id="tx_septembe_4jt57e190h53e-fill" stroke="none" fill="#4f91fc">
      <g>
        <text style="font: bold 20px Roboto, sans-serif; white-space: pre;" font-weight="bold" font-size="20px" font-family="Roboto, sans-serif">
          <tspan x="13.24" y="34" dominant-baseline="ideographic">September 1933</tspan>
        </text>
      </g>
    </g>
  </g>
  <g id="g-root-tx_establis_1q9got6190h6h7-stroke-fill" data-item-order="0" transform="translate(50, 434)">
    <g id="tx_establis_1q9got6190h6h7-fill" stroke="none" fill="#ebf2ff">
      <g>
        <text style="font: 15px Roboto, sans-serif; white-space: pre;" font-size="15px" font-family="Roboto, sans-serif">
          <tspan x="13.18" y="31" dominant-baseline="ideographic">Establishment of Muroc </tspan>
          <tspan x="19.07" y="49" dominant-baseline="ideographic">Bombing and Gunnery </tspan>
          <tspan x="71.77" y="67" dominant-baseline="ideographic">Range</tspan>
        </text>
      </g>
    </g>
  </g>
  <g id="g-root-tx_july7194_1lz9ggq190h3ig-stroke-fill" data-item-order="0" transform="translate(446, 398)">
    <g id="tx_july7194_1lz9ggq190h3ig-fill" stroke="none" fill="#43dd93">
      <g>
        <text style="font: bold 20px Roboto, sans-serif; white-space: pre;" font-weight="bold" font-size="20px" font-family="Roboto, sans-serif">
          <tspan x="16.05" y="34" dominant-baseline="ideographic">July 7, 1947, </tspan>
          <tspan x="25.43" y="58" dominant-baseline="ideographic">10:10 a.m.</tspan>
        </text>
      </g>
    </g>
  </g>
  <g id="g-root-tx_firstrep_18nsy3e190h53d-stroke-fill" data-item-order="0" transform="translate(446, 458)">
    <g id="tx_firstrep_18nsy3e190h53d-fill" stroke="none" fill="#dffff0">
      <g>
        <text style="font: 15px Roboto, sans-serif; white-space: pre;" font-size="15px" font-family="Roboto, sans-serif">
          <tspan x="13.08" y="28" dominant-baseline="ideographic">First reported UFO </tspan>
          <tspan x="15.86" y="46" dominant-baseline="ideographic">sighting at Muroc</tspan>
        </text>
      </g>
    </g>
  </g>
  <g id="g-root-tx_july8194_hsrr8a190jz7q-stroke-fill" data-item-order="0" transform="translate(770, 398)">
    <g id="tx_july8194_hsrr8a190jz7q-fill" stroke="none" fill="#ffe711">
      <g>
        <text style="font: bold 20px Roboto, sans-serif; white-space: pre;" font-weight="bold" font-size="20px" font-family="Roboto, sans-serif">
          <tspan x="12.77" y="34" dominant-baseline="ideographic">July 8, 1947, 4:00 </tspan>
          <tspan x="72.64" y="58" dominant-baseline="ideographic">p.m.</tspan>
        </text>
      </g>
    </g>
  </g>
  <g id="g-root-tx_f51pilot_4hxpy2190jxmv-stroke-fill" data-item-order="0" transform="translate(782, 458)">
    <g id="tx_f51pilot_4hxpy2190jxmv-fill" stroke="none" fill="#fffbd5">
      <g>
        <text style="font: 15px Roboto, sans-serif; white-space: pre;" font-size="15px" font-family="Roboto, sans-serif">
          <tspan x="15.02" y="31" dominant-baseline="ideographic">F-51 pilot reports UFO</tspan>
        </text>
      </g>
    </g>
  </g>
</svg>
