<?xml version='1.0' encoding='utf-8'?>
<svg xmlns="http://www.w3.org/2000/svg" xmlns:xlink="http://www.w3.org/1999/xlink" width="696" height="492" viewBox="0 0 696 492" style="fill:none;stroke:none;fill-rule:evenodd;clip-rule:evenodd;stroke-linecap:round;stroke-linejoin:round;stroke-miterlimit:1.5;" version="1.1">
  <style class="text-font-style fontImports" data-font-family="Roboto">@import url('https://fonts.googleapis.com/css2?family=Roboto:wght@400;700&amp;display=block');</style>
  <rect x="0" y="0" width="696" height="492" fill="#252a34" stroke="none" id="programmatic_background"/>
  <g id="g-root-tf_znsm9618qiyh4-stroke-fill" data-item-order="-312180" transform="translate(18, 12)"/>
  <g id="g-root-sy_-1_Vector_4ik71m18qiy2s-stroke-fill" data-item-order="-7663" transform="translate(212, 149)">
    <g id="sy_-1_Vector_4ik71m18qiy2s-stroke" fill="none" stroke-linecap="round" stroke-linejoin="round" stroke-miterlimit="4" stroke="#f4f4f4" stroke-width="2">
      <g>
        <path d="M 10 196L 10 106M 10 100L 10 10"/>
      </g>
    </g>
  </g>
  <g id="g-root-sy_-1_line_1uo18ru18qiyod-stroke-fill" data-item-order="-7659" transform="translate(212, 341)">
    <g id="sy_-1_line_1uo18ru18qiyod-stroke" fill="none" stroke-linecap="round" stroke-linejoin="round" stroke-miterlimit="4" stroke="#f4f4f4" stroke-width="2">
      <g>
        <path d="M 10 94L 10 10"/>
        <path d="M 3.5 88L 10 94.5L 16.5 88" stroke-dasharray="none"/>
      </g>
    </g>
  </g>
  <g id="g-root-sy_3_cu_1q87qne18qizgm-stroke-fill" data-item-order="-7656" transform="translate(209, 335)">
    <g id="sy_3_cu_1q87qne18qizgm-fill" stroke="none" fill="none">
      <g>
        <path d="M 13 10L 13 10C 13 10 16 10 16 13L 16 13C 16 13 16 16 13 16L 13 16C 13 16 10 16 10 13L 10 13C 10 13 10 10 13 10"/>
      </g>
    </g>
    <g id="sy_3_cu_1q87qne18qizgm-stroke" fill="none" stroke-linecap="round" stroke-linejoin="round" stroke-miterlimit="4" stroke="#43dd93" stroke-width="2">
      <g>
        <path d="M 13 10L 13 10C 13 10 16 10 16 13L 16 13C 16 13 16 16 13 16L 13 16C 13 16 10 16 10 13L 10 13C 10 13 10 10 13 10"/>
      </g>
    </g>
    <g id="sy_3_cu_1q87qne18qizgm-stroke" fill="none" stroke-linecap="round" stroke-linejoin="round" stroke-miterlimit="4" stroke="#43dd93" stroke-width="2">
      <g>
        <path d="M 37 13L 16 13"/>
      </g>
    </g>
  </g>
  <g id="g-root-sy_2_cu_1hd77hm18qix3j-stroke-fill" data-item-order="-7652" transform="translate(209, 239)">
    <g id="sy_2_cu_1hd77hm18qix3j-fill" stroke="none" fill="none">
      <g>
        <path d="M 13 10L 13 10C 13 10 16 10 16 13L 16 13C 16 13 16 16 13 16L 13 16C 13 16 10 16 10 13L 10 13C 10 13 10 10 13 10"/>
      </g>
    </g>
    <g id="sy_2_cu_1hd77hm18qix3j-stroke" fill="none" stroke-linecap="round" stroke-linejoin="round" stroke-miterlimit="4" stroke="#4f91fc" stroke-width="2">
      <g>
        <path d="M 13 10L 13 10C 13 10 16 10 16 13L 16 13C 16 13 16 16 13 16L 13 16C 13 16 10 16 10 13L 10 13C 10 13 10 10 13 10"/>
      </g>
    </g>
    <g id="sy_2_cu_1hd77hm18qix3j-stroke" fill="none" stroke-linecap="round" stroke-linejoin="round" stroke-miterlimit="4" stroke="#4f91fc" stroke-width="2">
      <g>
        <path d="M 37 13L 16 13"/>
      </g>
    </g>
  </g>
  <g id="g-root-sy_1_cu_1cxdpd618qixvs-stroke-fill" data-item-order="-7648" transform="translate(209, 143)">
    <g id="sy_1_cu_1cxdpd618qixvs-fill" stroke="none" fill="none">
      <g>
        <path d="M 13 10L 13 10C 13 10 16 10 16 13L 16 13C 16 13 16 16 13 16L 13 16C 13 16 10 16 10 13L 10 13C 10 13 10 10 13 10"/>
      </g>
    </g>
    <g id="sy_1_cu_1cxdpd618qixvs-stroke" fill="none" stroke-linecap="round" stroke-linejoin="round" stroke-miterlimit="4" stroke="#fb6762" stroke-width="2">
      <g>
        <path d="M 13 10L 13 10C 13 10 16 10 16 13L 16 13C 16 13 16 16 13 16L 13 16C 13 16 10 16 10 13L 10 13C 10 13 10 10 13 10"/>
      </g>
    </g>
    <g id="sy_1_cu_1cxdpd618qixvs-stroke" fill="none" stroke-linecap="round" stroke-linejoin="round" stroke-miterlimit="4" stroke="#fb6762" stroke-width="2">
      <g>
        <path d="M 37 13L 16 13"/>
      </g>
    </g>
  </g>
  <g id="g-root-tx_the1952n_18hk78q18qiyo1-stroke-fill" data-item-order="0" transform="translate(62, 50)">
    <g id="tx_the1952n_18hk78q18qiyo1-fill" stroke="none" fill="#f4f4f4">
      <g>
        <text style="font: 20px Roboto, sans-serif; white-space: pre;" font-size="20px" font-family="Roboto, sans-serif">
          <tspan x="16.48" y="34" dominant-baseline="ideographic">The 1952 Nash-Fortenberry UFO Sighting and Its Context</tspan>
        </text>
      </g>
    </g>
  </g>
  <g id="g-root-tx_pentagon_v6q5yi18qix36-stroke-fill" data-item-order="0" transform="translate(260, 326)">
    <g id="tx_pentagon_v6q5yi18qix36-fill" stroke="none" fill="#f4f4f4">
      <g>
        <text style="font: 20px Roboto, sans-serif; white-space: pre;" font-size="20px" font-family="Roboto, sans-serif">
          <tspan x="12" y="34" dominant-baseline="ideographic">Pentagon press conference on UFOs</tspan>
        </text>
      </g>
    </g>
  </g>
  <g id="g-root-tx_washingt_hv9nl618qiyo3-stroke-fill" data-item-order="0" transform="translate(260, 218)">
    <g id="tx_washingt_hv9nl618qiyo3-fill" stroke="none" fill="#f4f4f4">
      <g>
        <text style="font: 20px Roboto, sans-serif; white-space: pre;" font-size="20px" font-family="Roboto, sans-serif">
          <tspan x="12" y="34" dominant-baseline="ideographic">Washington flap and National Airport </tspan>
          <tspan x="12" y="58" dominant-baseline="ideographic">sightings</tspan>
        </text>
      </g>
    </g>
  </g>
  <g id="g-root-tx_nashandf_8zmnca18qizgs-stroke-fill" data-item-order="0" transform="translate(260, 122)">
    <g id="tx_nashandf_8zmnca18qizgs-fill" stroke="none" fill="#f4f4f4">
      <g>
        <text style="font: 20px Roboto, sans-serif; white-space: pre;" font-size="20px" font-family="Roboto, sans-serif">
          <tspan x="12" y="34" dominant-baseline="ideographic">Nash and Fortenberry's UFO sighting over </tspan>
          <tspan x="12" y="58" dominant-baseline="ideographic">Chesapeake Bay</tspan>
        </text>
      </g>
    </g>
  </g>
  <g id="g-root-tx_july2919_1upwo1618qixot-stroke-fill" data-item-order="0" transform="translate(56, 326)">
    <g id="tx_july2919_1upwo1618qixot-fill" stroke="none" fill="#43dd93">
      <g>
        <text style="font: bold 20px Roboto, sans-serif; white-space: pre;" font-weight="bold" font-size="20px" font-family="Roboto, sans-serif">
          <tspan x="18.55" y="34" dominant-baseline="ideographic">July 29, 1952</tspan>
        </text>
      </g>
    </g>
  </g>
  <g id="g-root-tx_july1229_1qa35wq18qiyh2-stroke-fill" data-item-order="0" transform="translate(32, 230)">
    <g id="tx_july1229_1qa35wq18qiyh2-fill" stroke="none" fill="#4f91fc">
      <g>
        <text style="font: bold 20px Roboto, sans-serif; white-space: pre;" font-weight="bold" font-size="20px" font-family="Roboto, sans-serif">
          <tspan x="11.72" y="34" dominant-baseline="ideographic">July 12-29, 1952</tspan>
        </text>
      </g>
    </g>
  </g>
  <g id="g-root-tx_july1419_1heg5nu18qiz9r-stroke-fill" data-item-order="0" transform="translate(56, 134)">
    <g id="tx_july1419_1heg5nu18qiz9r-fill" stroke="none" fill="#fb6762">
      <g>
        <text style="font: bold 20px Roboto, sans-serif; white-space: pre;" font-weight="bold" font-size="20px" font-family="Roboto, sans-serif">
          <tspan x="18.55" y="34" dominant-baseline="ideographic">July 14, 1952</tspan>
        </text>
      </g>
    </g>
    <defs>
      <pattern id="crawlingPattern-0000001b" x="0" y="0" width="12" height="12" patternUnits="userSpaceOnUse" fill="#0000001b">
        <use href="#crawlingSymbol"/>
      </pattern>
      <symbol id="crawlingSymbol">
        <g>
          <path d="M -12.5 12.5 l 13 -13 l 6 0 l -13 13 Z M -0.5 12.5 l 13 -13 l 6 0 l -13 13 Z M 11.5 12.5 l 13 -13 l 6 0 l -13 13 Z"/>
        </g>
      </symbol>
      <pattern id="crawlingPattern-00b15c75" x="0" y="0" width="12" height="12" patternUnits="userSpaceOnUse" fill="#00b15c75">
        <use href="#crawlingSymbol"/>
      </pattern>
      <pattern id="crawlingPattern-0060fba2" x="0" y="0" width="12" height="12" patternUnits="userSpaceOnUse" fill="#0060fba2">
        <use href="#crawlingSymbol"/>
      </pattern>
      <pattern id="crawlingPattern-f9080081" x="0" y="0" width="12" height="12" patternUnits="userSpaceOnUse" fill="#f9080081">
        <use href="#crawlingSymbol"/>
      </pattern>
    </defs>
  </g>
</svg>
