<?xml version='1.0' encoding='utf-8'?>
<svg xmlns="http://www.w3.org/2000/svg" xmlns:xlink="http://www.w3.org/1999/xlink" width="648" height="552" viewBox="0 0 648 552" style="fill:none;stroke:none;fill-rule:evenodd;clip-rule:evenodd;stroke-linecap:round;stroke-linejoin:round;stroke-miterlimit:1.5;" version="1.1">
  <style class="text-font-style fontImports" data-font-family="Roboto">@import url('https://fonts.googleapis.com/css2?family=Roboto:wght@400;700&amp;display=block');</style>
  <rect x="0" y="0" width="648" height="552" fill="#252a34" stroke="none" id="programmatic_background"/>
  <g id="g-root-tf_1lr694a1b8jitm-stroke-fill" data-item-order="-323136" transform="translate(18, 12)">
    <g id="tf_1lr694a1b8jitm-fill" stroke="none" fill="#2c2c2c">
      <g>
        <path d="M 0 0L 612 0L 612 528L 0 528Z"/>
      </g>
    </g>
    <defs>
      <pattern id="crawlingPattern-8484841a" x="0" y="0" width="12" height="12" patternUnits="userSpaceOnUse" fill="#8484841a">
        <use href="#crawlingSymbol"/>
      </pattern>
      <symbol id="crawlingSymbol">
        <g>
          <path d="M -12.5 12.5 l 13 -13 l 6 0 l -13 13 Z M -0.5 12.5 l 13 -13 l 6 0 l -13 13 Z M 11.5 12.5 l 13 -13 l 6 0 l -13 13 Z"/>
        </g>
      </symbol>
      <pattern id="crawlingPattern-8ed00028" x="0" y="0" width="12" height="12" patternUnits="userSpaceOnUse" fill="#8ed00028">
        <use href="#crawlingSymbol"/>
      </pattern>
      <pattern id="crawlingPattern-00bcfb62" x="0" y="0" width="12" height="12" patternUnits="userSpaceOnUse" fill="#00bcfb62">
        <use href="#crawlingSymbol"/>
      </pattern>
      <pattern id="crawlingPattern-0000001b" x="0" y="0" width="12" height="12" patternUnits="userSpaceOnUse" fill="#0000001b">
        <use href="#crawlingSymbol"/>
      </pattern>
      <pattern id="crawlingPattern-5f5f5f1a" x="0" y="0" width="12" height="12" patternUnits="userSpaceOnUse" fill="#5f5f5f1a">
        <use href="#crawlingSymbol"/>
      </pattern>
    </defs>
  </g>
  <g id="g-root-sy_4_cu_w59m1b8dwjz-stroke-fill" data-item-order="-105977" transform="translate(139.95700073242188, 290.75)">
    <g id="sy_4_cu_w59m1b8dwjz-stroke" fill="none" stroke-linecap="round" stroke-linejoin="round" stroke-miterlimit="4" stroke="#f4f4f4" stroke-width="2">
      <g>
        <path d="M 340.042999 45.25C 343.356999 45.25 346.042999 42.564 346.042999 39.25C 346.042999 35.936 343.356999 33.25 340.042999 33.25C 336.728999 33.25 334.042999 35.936 334.042999 39.25C 334.042999 42.564 336.728999 45.25 340.042999 45.25ZM 16.021999 93.25C 19.346999 93.25 22.042999 90.564 22.042999 87.25C 22.042999 83.936 19.346999 81.25 16.021999 81.25C 12.695999 81.25 9.999999 83.936 9.999999 87.25C 9.999999 90.564 12.695999 93.25 16.021999 93.25ZM 340.042999 33.25L 340.042999 10M 16.042999 58.25L 16.042999 81.25M 194.062999 60.907L 334.195999 40.141M 160.540999 65.869L 21.992999 86.395"/>
      </g>
    </g>
  </g>
  <g id="g-root-sy_3_Exclude_1um6p4a1b8dx54-stroke-fill" data-item-order="-105974" transform="translate(261.055908203125, 328)">
    <g id="sy_3_Exclude_1um6p4a1b8dx54-fill" stroke="none" fill="#b7b7b7">
      <g>
        <path d="M 56.944107 10C 49.471107 10 43.195107 15.122 41.436107 22.047L 10.134107 124.12C 9.542107 126.049 10.984107 128 13.002107 128L 100.886107 128C 102.903107 128 104.346107 126.049 103.754107 124.12L 72.454107 22.054C 70.696107 15.126 64.419107 10 56.944107 10ZM 56.944107 33C 60.810107 33 63.944107 29.866 63.944107 26C 63.944107 22.134 60.810107 19 56.944107 19C 53.078107 19 49.944107 22.134 49.944107 26C 49.944107 29.866 53.078107 33 56.944107 33Z"/>
      </g>
    </g>
    <g id="sy_3_Exclude_1um6p4a1b8dx54-stroke" fill="none" stroke-linecap="round" stroke-linejoin="round" stroke-miterlimit="4" stroke="#2c2c2c" stroke-width="2">
      <g>
        <path d="M 56.944107 10C 49.471107 10 43.195107 15.122 41.436107 22.047L 10.134107 124.12C 9.542107 126.049 10.984107 128 13.002107 128L 100.886107 128C 102.903107 128 104.346107 126.049 103.754107 124.12L 72.454107 22.054C 70.696107 15.126 64.419107 10 56.944107 10ZM 56.944107 33C 60.810107 33 63.944107 29.866 63.944107 26C 63.944107 22.134 60.810107 19 56.944107 19C 53.078107 19 49.944107 22.134 49.944107 26C 49.944107 29.866 53.078107 33 56.944107 33Z"/>
      </g>
    </g>
  </g>
  <g id="g-root-sy_2_right-bucket_1hbcnu21b8dvk9-stroke-fill" data-item-order="-105970" transform="translate(356, 254)">
    <g id="sy_2_right-bucket_1hbcnu21b8dvk9-fill" stroke="none" fill="#a6da37">
      <g>
        <path d="M 11.081 15.729C 10.338 14.904 10 13.826 10 12.716L 10 12.716C 10 11.216 11.216 10 12.716 10L 235.284 10C 236.784 10 238 11.216 238 12.716L 238 12.716C 238 13.826 237.662 14.904 236.919 15.729C 231.551 21.692 204.717 46 124 46C 43.283 46 16.449 21.692 11.081 15.729Z"/>
      </g>
    </g>
    <g id="sy_2_right-bucket_1hbcnu21b8dvk9-stroke" fill="none" stroke-linecap="round" stroke-linejoin="round" stroke-miterlimit="4" stroke="#2c2c2c" stroke-width="2">
      <g>
        <path d="M 11.081 15.729C 10.338 14.904 10 13.826 10 12.716L 10 12.716C 10 11.216 11.216 10 12.716 10L 235.284 10C 236.784 10 238 11.216 238 12.716L 238 12.716C 238 13.826 237.662 14.904 236.919 15.729C 231.551 21.692 204.717 46 124 46C 43.283 46 16.449 21.692 11.081 15.729Z"/>
      </g>
    </g>
  </g>
  <g id="g-root-sy_1_left-bucket_1cvj5pm1b8dwci-stroke-fill" data-item-order="-105966" transform="translate(32, 302)">
    <g id="sy_1_left-bucket_1cvj5pm1b8dwci-fill" stroke="none" fill="#1ac3fb">
      <g>
        <path d="M 11.0812 15.729C 10.3384 14.904 10 13.826 10 12.716L 10 12.716C 10 11.216 11.2158 10 12.7157 10L 235.284 10C 236.784 10 238 11.216 238 12.716L 238 12.716C 238 13.826 237.662 14.904 236.919 15.729C 231.551 21.692 204.717 46 124 46C 43.2826 46 16.4488 21.692 11.0812 15.729Z"/>
      </g>
    </g>
    <g id="sy_1_left-bucket_1cvj5pm1b8dwci-stroke" fill="none" stroke-linecap="round" stroke-linejoin="round" stroke-miterlimit="4" stroke="#2c2c2c" stroke-width="2">
      <g>
        <path d="M 11.0812 15.729C 10.3384 14.904 10 13.826 10 12.716L 10 12.716C 10 11.216 11.2158 10 12.7157 10L 235.284 10C 236.784 10 238 11.216 238 12.716L 238 12.716C 238 13.826 237.662 14.904 236.919 15.729C 231.551 21.692 204.717 46 124 46C 43.2826 46 16.4488 21.692 11.0812 15.729Z"/>
      </g>
    </g>
  </g>
  <g id="g-root-ic_1_13zw5gq1b8dx57-stroke-fill" data-item-order="-2304" transform="translate(44, 242)">
    <g id="ic_1_13zw5gq1b8dx57-fill" stroke="none" fill="#b7b7b7">
      <g>
        <path d="M 46.220001 45.299999C 42.079945 46.45668 37.798508 47.028885 33.5 47C 29.201494 47.028885 24.920057 46.45668 20.779999 45.299999C 20.477425 45.220901 20.155367 45.279457 19.9 45.459999C 19.642998 45.64447 19.493374 45.943714 19.5 46.259998L 19.5 53.52C 19.501076 54.174446 19.822275 54.786964 20.360001 55.16C 21.58 56 25.34 58 33.5 58C 41.66 58 45.400002 56 46.639999 55.16C 47.177723 54.786964 47.498924 54.174446 47.5 53.52L 47.5 46.259998C 47.506622 45.943714 47.357002 45.64447 47.099998 45.459999C 46.844631 45.279457 46.522572 45.220901 46.219997 45.299999ZM 14.5 15.559999C 14.5 15.283857 14.723858 15.059999 15 15.059999L 15.5 15.059999C 16.052284 15.059999 16.5 14.612285 16.5 14.059999C 16.5 13.507715 16.052284 13.059999 15.5 13.059999L 15 13.059999C 14.723858 13.059999 14.5 12.836143 14.5 12.559999L 14.5 12C 14.5 11.447716 14.052284 11 13.5 11C 12.947716 11 12.5 11.447716 12.5 12L 12.5 12.5C 12.517247 12.642654 12.472286 12.785834 12.376583 12.893021C 12.280881 13.000208 12.14369 13.061039 12 13.059999L 11.5 13.059999C 10.947715 13.059999 10.5 13.507715 10.5 14.059999C 10.5 14.612285 10.947715 15.059999 11.5 15.059999L 12 15.059999C 12.276142 15.059999 12.5 15.283857 12.5 15.559999L 12.5 16C 12.5 16.552284 12.947716 17 13.5 17C 14.052284 17 14.5 16.552284 14.5 16ZM 53.5 23.040001C 53.5 22.487717 53.052284 22.040001 52.5 22.040001L 52 22.040001C 51.723858 22.040001 51.5 21.816143 51.5 21.540001L 51.5 21.040001C 51.5 20.487717 51.052284 20.040001 50.5 20.040001C 49.947716 20.040001 49.5 20.487717 49.5 21.040001L 49.5 21.540001C 49.479103 21.800411 49.261246 22.000837 49 22L 48.5 22C 47.947716 22 47.5 22.447716 47.5 23C 47.5 23.552284 47.947716 24 48.5 24L 49 24C 49.276142 24 49.5 24.223858 49.5 24.5L 49.5 25C 49.5 25.552284 49.947716 26 50.5 26C 51.052284 26 51.5 25.552284 51.5 25L 51.5 24.540001C 51.488811 24.400608 51.53651 24.262901 51.631516 24.160294C 51.726524 24.057686 51.860161 23.999552 52 24L 52.5 24C 53.037033 24.000431 53.478519 23.576603 53.5 23.040001ZM 57.34 11.2C 57.129181 10.710844 56.731949 10.325992 56.236366 10.130762C 55.740784 9.935533 55.187798 9.946056 54.700001 10.16L 35.120003 18.16C 34.225475 18.537525 33.731308 19.502979 33.948193 20.449371C 34.165077 21.395767 35.030346 22.049683 36 22C 36.274826 22.002201 36.547157 21.947735 36.799999 21.84L 56.380001 13.84C 57.36816 13.370649 57.795868 12.194452 57.34 11.2ZM 13.26 21.74C 12.619963 22.054352 12.215977 22.706944 12.22 23.420002C 12.239552 24.13133 12.63559 24.778702 13.26 25.119999L 16.24 26.6C 17.218573 27.088194 18.011806 27.881428 18.5 28.860001L 20 31.82C 20.314976 32.466331 20.971004 32.876411 21.689999 32.876411C 22.408995 32.876411 23.065022 32.466331 23.380001 31.82L 24.860001 28.860001C 25.343029 27.884542 26.128876 27.091679 27.1 26.6L 30 25.119999C 30.624411 24.778702 31.020449 24.13133 31.040001 23.42C 31.044024 22.706944 30.640039 22.054352 30.000002 21.740002L 27.1 20.24C 26.127052 19.753468 25.335163 18.968584 24.84 18L 23.360001 15.02C 22.991592 14.449655 22.358982 14.105173 21.68 14.105173C 21.001019 14.105173 20.368408 14.449655 20 15.02L 18.5 18C 18.004837 18.968584 17.212948 19.753468 16.24 20.24ZM 33.5 28C 32.440002 28 31.5 28 30.42 28.1C 30.354528 28.082142 30.285471 28.082142 30.219999 28.1L 28.219999 29.08C 27.572826 29.407234 27.047235 29.932825 26.720001 30.580002L 25.200001 33.779999C 25.178562 33.817127 25.178562 33.862869 25.199999 33.899998C 25.200001 33.900002 25.200001 33.900002 25.32 33.900002C 27.995749 33.240925 30.744497 32.925056 33.5 32.959999C 40.940002 32.959999 45.5 34.959999 45.5 35.959999C 45.5 36.959999 40.940002 38.959999 33.5 38.959999C 20.9 39 18 33.84 17.119999 32C 17.062202 31.874102 16.952833 31.779314 16.82 31.739998C 16.686787 31.678349 16.533213 31.678349 16.4 31.74C 14.76157 32.562817 13.664764 34.173988 13.5 36C 13.5 40.419998 22.459999 44 33.5 44C 44.540001 44 53.5 40.419998 53.5 36C 53.5 31.58 44.540001 28 33.5 28Z"/>
      </g>
    </g>
  </g>
  <g id="g-root-ic_jell_mgqb3e1b8gq30-stroke-fill" data-item-order="-2304" transform="translate(44, 170)">
    <g id="ic_jell_mgqb3e1b8gq30-fill" stroke="none" fill="#b7b7b7">
      <g>
        <path d="M 49.119999 19.4C 46.449638 13.492973 40.478874 9.780992 34 10C 27.521124 9.780992 21.550362 13.492973 18.880001 19.4C 16.18737 20.435596 14.612926 23.240873 15.131577 26.078781C 15.650229 28.916689 18.115133 30.98374 21 31L 47 31C 49.884869 30.98374 52.349773 28.916689 52.868423 26.078781C 53.387077 23.240873 51.812634 20.435596 49.120003 19.400002ZM 31.440001 17.299999C 29.662954 17.640537 28.031065 18.512272 26.76 19.799999C 26.513111 20.112572 26.149233 20.310703 25.752712 20.348465C 25.35619 20.38623 24.961454 20.260349 24.66 20C 24.075092 19.414364 24.075092 18.465635 24.66 17.880001C 26.335043 16.11375 28.526524 14.92349 30.92 14.48C 31.464622 14.306179 32.060696 14.457047 32.457047 14.869032C 32.853401 15.281017 32.981106 15.882479 32.786354 16.419971C 32.591606 16.957466 32.108265 17.337524 31.540001 17.4ZM 35.379997 37.360001C 35.945671 36.614086 36.047211 35.614647 35.643112 34.77021C 35.239014 33.925774 34.396999 33.377861 33.461258 33.350437C 32.525513 33.323013 31.652857 33.820679 31.200001 34.639999C 27.719999 39.940002 29.639999 43.759998 31.200001 46.82C 32.459999 49.34 33.48 51.34 32.16 54.560001C 31.748234 55.399212 31.839056 56.398037 32.395435 57.149216C 32.951813 57.900394 33.880791 58.278419 34.803585 58.129154C 35.726379 57.979889 36.488808 57.328278 36.779999 56.440002C 38.356911 52.532925 37.939327 48.103523 35.66 44.559998C 34.239998 41.799999 33.48 40.260002 35.379997 37.360001ZM 46.619999 37.360001C 47.185673 36.614086 47.287209 35.614647 46.88311 34.77021C 46.479012 33.925774 45.637001 33.377861 44.701256 33.350437C 43.765511 33.323013 42.892857 33.820679 42.439999 34.639999C 38.959999 39.940002 40.879997 43.759998 42.439999 46.82C 43.720001 49.34 44.720001 51.34 43.419998 54.560001C 43.008232 55.399212 43.099056 56.398037 43.655437 57.149216C 44.211815 57.900394 45.140789 58.278419 46.063583 58.129154C 46.986378 57.979889 47.748806 57.328278 48.040001 56.440002C 49.606705 52.531445 49.189575 48.106892 46.920002 44.560001C 45.5 41.799999 44.740002 40.260002 46.619999 37.360001ZM 24.119999 37.360001C 24.78846 36.631683 24.964964 35.577866 24.570301 34.671486C 24.17564 33.765106 23.283943 33.176411 22.295389 33.169601C 21.306835 33.162788 20.407112 33.739143 20 34.639999C 16.459999 40 18.380001 43.759998 20 46.82C 21.26 49.34 22.279999 51.34 20.959999 54.560001C 20.548233 55.399212 20.639055 56.398037 21.195435 57.149216C 21.751816 57.900394 22.68079 58.278419 23.603584 58.129154C 24.526379 57.979889 25.288807 57.328278 25.58 56.440002C 27.156914 52.532925 26.739326 48.103523 24.459999 44.559998C 22.98 41.799999 22.220001 40.260002 24.119999 37.360001Z"/>
      </g>
    </g>
  </g>
  <g id="g-root-ic_ufo_zitsbu1b82m85-stroke-fill" data-item-order="-2304" transform="translate(44, 98)">
    <g id="ic_ufo_zitsbu1b82m85-fill" stroke="none" fill="#b7b7b7">
      <g>
        <path d="M 50.779999 39.48C 50.49268 38.408726 49.391396 37.77314 48.32008 38.060295C 47.24876 38.34745 46.613007 39.448639 46.899998 40.519997L 51.139999 56.52C 51.30584 57.231823 51.846767 57.796497 52.550816 57.992748C 53.25486 58.188999 54.009895 57.985573 54.520046 57.462177C 55.030201 56.938786 55.214222 56.178791 55 55.48ZM 19.82 38C 18.754391 37.720551 17.663445 38.355446 17.380001 39.419998L 13.14 55.419998C 12.925778 56.11879 13.109798 56.878784 13.619952 57.40218C 14.130106 57.925571 14.885139 58.129002 15.589186 57.932751C 16.293234 57.7365 16.83416 57.171825 17 56.459999L 21.24 40.459999C 21.380281 39.945396 21.309196 39.39608 21.042547 38.934139C 20.775898 38.472198 20.335775 38.135902 19.82 38ZM 38 49.860001C 39.203453 49.748383 40.123898 48.738621 40.123898 47.529999C 40.123898 46.321381 39.203453 45.311615 38 45.200001L 31.08 45.200001C 29.876545 45.311615 28.9561 46.321381 28.9561 47.529999C 28.9561 48.738621 29.876545 49.748383 31.08 49.860001L 32.239998 49.860001L 32.239998 50.18L 29.200001 54.299999C 28.437847 55.332775 28.657228 56.787849 29.690001 57.550003C 30.722773 58.312153 32.177849 58.092773 32.940002 57.060001L 34.599998 54.82L 36.200001 57.080002C 36.978722 58.129345 38.460663 58.348724 39.510002 57.570004C 40.559341 56.791279 40.778725 55.309341 40 54.260002L 37 50.16L 37 49.860001ZM 38 40.239998C 38.008102 38.822594 37.160507 37.540237 35.85331 36.992199C 34.546112 36.44416 33.03743 36.738647 32.032288 37.738045C 31.027142 38.73745 30.724012 40.244415 31.264553 41.554733C 31.805094 42.865051 33.082569 43.719978 34.5 43.720001C 35.426414 43.725323 36.316711 43.361034 36.973671 42.707829C 37.63063 42.054626 38.000015 41.166428 38 40.239998ZM 56.959999 29C 57.256584 29.003077 57.540375 28.879374 57.739998 28.659998C 57.943413 28.447105 58.032631 28.149708 57.98 27.860001C 57.289928 23.844007 53.774273 20.931278 49.700001 21L 18.299999 21C 14.218212 20.921293 10.691198 23.836391 10 27.860001C 9.947369 28.149708 10.036588 28.447105 10.24 28.66C 10.439621 28.879374 10.723413 29.003077 11.02 28.999998L 13.28 29C 13.484316 29.002653 13.666457 29.12936 13.74 29.32C 13.899547 29.722376 14.079787 30.116236 14.280001 30.500002C 16.065369 33.888172 19.580214 36.009026 23.41 36.009026C 27.239786 36.009026 30.754631 33.888172 32.540001 30.5C 32.740211 30.116236 32.920456 29.722376 33.080002 29.320002C 33.148697 29.125612 33.333855 28.996807 33.540001 28.999998L 34.459999 29C 34.666145 28.996807 34.851299 29.125612 34.919998 29.32C 35.079548 29.722376 35.259789 30.116236 35.459999 30.500002C 37.245369 33.888172 40.760216 36.009026 44.59 36.009026C 48.419785 36.009026 51.934631 33.888172 53.720001 30.5C 53.920216 30.116236 54.100456 29.722376 54.260002 29.320002C 54.328697 29.125612 54.513851 28.996807 54.719997 28.999998ZM 23.4 32C 21.569786 31.983295 19.832561 31.191006 18.619999 29.82C 18.522778 29.660299 18.522778 29.4597 18.619999 29.299999C 18.686577 29.141253 18.830135 29.027918 19 29L 27.799999 29C 27.999443 28.999306 28.180223 29.117207 28.26 29.299999C 28.367369 29.456707 28.367369 29.663294 28.26 29.82C 27.033712 31.218311 25.259802 32.014015 23.400002 32ZM 44.599998 32C 42.768101 31.990932 41.027901 31.197287 39.82 29.82C 39.712631 29.663294 39.712631 29.456707 39.82 29.299999C 39.899776 29.117207 40.080559 28.999306 40.279999 29L 49.080002 29C 49.272152 29.007078 49.443218 29.123714 49.52 29.299999C 49.627369 29.456707 49.627369 29.663294 49.52 29.82C 48.280025 31.234344 46.480667 32.031624 44.600002 32ZM 34 10C 28.477455 9.948547 23.296272 12.666791 20.200001 17.24C 20.121464 17.397415 20.121464 17.582584 20.200001 17.74C 20.291019 17.897736 20.457924 17.996361 20.639999 18L 47.5 18C 47.703251 18.01899 47.898815 17.917297 47.999996 17.74C 48.078533 17.582584 48.078533 17.397415 48 17.24C 44.864662 12.606876 39.593025 9.880686 34 10Z"/>
      </g>
    </g>
  </g>
  <g id="g-root-ic_web_18lc0iy1b8893a-stroke-fill" data-item-order="-2304" transform="translate(368, 194)">
    <g id="ic_web_18lc0iy1b8893a-fill" stroke="none" fill="#b7b7b7">
      <g>
        <path d="M 10 10M 56.200001 46.68L 54.200001 45.32L 54.200001 22.639999L 56.200001 21.26C 56.936073 20.939901 57.409473 20.210754 57.402328 19.408123C 57.395187 18.605492 56.90889 17.884886 56.167236 17.577936C 55.425579 17.270988 54.572266 17.437168 54 18L 52 19.32L 36 12.54L 36 12C 36 10.895431 35.104568 10 34 10C 32.895432 10 32 10.895431 32 12L 32 12.54L 16 19.279999L 14 18C 13.116096 17.615614 12.083767 17.916351 11.544594 18.715309C 11.005421 19.514265 11.112802 20.584133 11.8 21.26L 13.8 22.639999L 13.8 45.32L 11.8 46.68C 10.888805 47.304131 10.656006 48.54871 11.28 49.459999C 11.894438 50.341385 13.095469 50.579823 14 50L 16 48.68L 32 55.419998L 32 56C 32 57.104568 32.895432 58 34 58C 35.104568 58 36 57.104568 36 56L 36 55.419998L 52 48.68L 54 50C 54.91679 50.623932 56.165783 50.386597 56.789818 49.469875C 57.413849 48.553154 57.176655 47.304134 56.260002 46.68ZM 50.200001 42.68L 47.5 40.84L 47.5 27.200001L 50.200001 25.360001ZM 34 44.34L 24.5 40.34L 24.5 27.66L 34 23.66L 43.5 27.66L 43.5 40.299999ZM 48 22L 45.099998 24L 36 20.200001L 36 16.880001ZM 32 16.880001L 32 20.200001L 22.9 24L 20 22ZM 17.799999 25.360001L 20.5 27.200001L 20.5 40.760002L 17.799999 42.599998ZM 20 46L 22.98 44L 32 47.759998L 32 51.080002ZM 36 51.080002L 36 47.759998L 45.099998 44L 48 46ZM 40.739998 30.219999C 40.380356 29.475159 39.485641 29.162008 38.740002 29.52L 36.900002 30.379999C 36.663734 28.962362 35.437191 27.923323 34 27.923323C 32.562809 27.923323 31.336267 28.962362 31.1 30.380001L 29.26 29.52C 28.768406 29.216221 28.146021 29.221853 27.660006 29.534479C 27.173988 29.847105 26.91078 30.411121 26.983362 30.984426C 27.055944 31.557732 27.451408 32.038361 28 32.220001L 31.799999 34C 31.494467 34.216209 31.21876 34.471741 30.980001 34.760002L 28.26 35.66C 27.859127 35.785484 27.529238 36.073303 27.350563 36.453465C 27.171888 36.833626 27.160801 37.271286 27.32 37.660004C 27.513371 38.281044 28.089558 38.703041 28.74 38.700001C 28.892744 38.719032 29.047258 38.719032 29.200001 38.700001L 30.32 38.32C 30.780064 39.972233 32.284912 41.115303 34 41.115303C 35.715088 41.115303 37.219936 39.972233 37.68 38.32L 38.799999 38.700001C 38.952744 38.719032 39.107262 38.719032 39.260002 38.700001C 39.910446 38.703041 40.486633 38.281044 40.68 37.660004C 40.839199 37.271286 40.828114 36.833626 40.649437 36.453465C 40.470764 36.073303 40.140877 35.785484 39.740002 35.66L 37.02 34.760002C 36.781242 34.471741 36.505535 34.216209 36.200001 34L 40 32.220001C 40.364819 32.054569 40.648315 31.750092 40.787315 31.374407C 40.926319 30.998724 40.909283 30.583048 40.740002 30.220001Z"/>
      </g>
    </g>
  </g>
  <g id="g-root-ic_web_1heh4fe1b8b37r-stroke-fill" data-item-order="-2304" transform="translate(368, 122)">
    <g id="ic_web_1heh4fe1b8b37r-fill" stroke="none" fill="#b7b7b7">
      <g>
        <path d="M 10 10M 56.82 41.379997L 55.080002 40.66C 53.580307 36.346638 53.580307 31.653362 55.080002 27.34L 56.82 26.620001C 57.763828 26.18371 58.215908 25.096981 57.860001 24.119999C 57.422962 23.165861 56.322762 22.711809 55.34 23.08L 53.619999 23.799999C 49.501411 21.820793 46.179207 18.498589 44.200001 14.38L 44.919998 12.66C 45.288189 11.677239 44.834141 10.577038 43.880001 10.14C 42.903019 9.784092 41.816292 10.236172 41.379997 11.18L 40.66 12.92C 36.346638 14.419695 31.653362 14.419695 27.34 12.92L 26.620001 11.18C 26.18371 10.236172 25.096981 9.784092 24.119999 10.14C 23.165861 10.577038 22.711809 11.677239 23.08 12.66L 23.799999 14.4C 21.814495 18.509254 18.493464 21.823233 14.38 23.799999L 12.66 23.08C 11.677239 22.711809 10.577038 23.165861 10.14 24.119999C 9.784092 25.096981 10.236172 26.18371 11.18 26.620001L 12.92 27.34C 14.419695 31.653362 14.419695 36.346638 12.92 40.66L 11.18 41.379997C 10.462273 41.829796 10.10572 42.682938 10.289941 43.509686C 10.474162 44.336437 11.159203 44.957481 12 45.060001C 12.253306 45.060616 12.504425 45.013107 12.74 44.919998L 14.46 44.200001C 18.543587 46.191387 21.834803 49.503746 23.799999 53.599998L 23.08 55.34C 22.711809 56.322762 23.165861 57.422962 24.119999 57.860001C 24.354698 57.9561 24.606415 58.003723 24.860001 58C 25.623951 57.975296 26.307016 57.517334 26.620001 56.82L 27.34 55.080002C 31.653362 53.580307 36.346638 53.580307 40.66 55.080002L 41.379997 56.82C 41.692986 57.517334 42.376049 57.975296 43.139999 58C 43.393585 58.003723 43.645302 57.9561 43.880001 57.860001C 44.834141 57.422962 45.288189 56.322762 44.919998 55.34L 44.200001 53.599998C 46.185505 49.490746 49.506538 46.176769 53.619999 44.200001L 55.34 44.919998C 56.322762 45.288189 57.422962 44.834141 57.860001 43.880001C 58.215908 42.903019 57.763828 41.816292 56.82 41.379997ZM 51.66 39.239998L 48.360001 37.860001C 47.580421 35.33889 47.580421 32.641109 48.360001 30.120001L 51.66 28.76C 50.859955 32.207527 50.859955 35.792473 51.66 39.239998ZM 40 24.380001C 41.013443 25.765549 42.234451 26.986559 43.619999 28L 37.620003 30.52ZM 34 28.98L 31.48 22.98C 33.148323 23.260094 34.851673 23.260094 36.519997 22.98ZM 30.459999 30.459999L 24.380001 28C 25.765549 26.986559 26.986559 25.765549 28 24.380001ZM 28.98 34L 22.98 36.52C 23.260094 34.851673 23.260094 33.148323 22.98 31.48ZM 30.459999 37.540001L 28 43.619999C 26.986559 42.234451 25.765549 41.013443 24.380001 40ZM 34 39.02L 36.52 45.02C 34.852806 44.726608 33.14719 44.726608 31.48 45.019997ZM 37.540001 37.540001L 43.540001 40.059998C 42.187351 41.061504 40.993866 42.26173 40 43.619999ZM 39.02 34L 45.02 31.48C 44.739906 33.148323 44.739906 34.851673 45.02 36.519997ZM 50.200001 25.220001L 46.880001 26.58C 44.546089 25.349705 42.641758 23.438396 41.420002 21.1L 42.779999 17.799999C 44.650246 20.810692 47.189308 23.349756 50.200001 25.220001ZM 39.239998 16.34L 37.879997 19.639999C 35.358891 20.41958 32.66111 20.41958 30.140001 19.639999L 28.76 16.34C 32.207527 17.140047 35.792473 17.140047 39.239998 16.34ZM 25.24 17.799999L 26.6 21.1C 25.378178 23.44516 23.46516 25.358177 21.119999 26.58L 17.799999 25.220001C 20.810692 23.349756 23.349756 20.810692 25.220001 17.799999ZM 16.34 28.76L 19.639999 30.120001C 20.41958 32.641109 20.41958 35.33889 19.639999 37.860001L 16.34 39.239998C 17.140047 35.792473 17.140047 32.207527 16.34 28.76ZM 17.799999 42.759998L 21.1 41.400002C 23.442205 42.61655 25.354893 44.522259 26.58 46.860001L 25.220001 50.200001C 23.349756 47.189308 20.810692 44.650246 17.799999 42.779999ZM 28.76 51.639999L 30.139999 48.34C 32.66111 47.560421 35.358891 47.560421 37.880001 48.34L 39.239998 51.639999C 35.790947 50.846531 32.206001 50.853374 28.76 51.66ZM 42.759998 50.18L 41.400002 46.860001C 42.630299 44.526089 44.541607 42.621758 46.880001 41.400002L 50.18 42.759998C 47.174347 44.638355 44.642128 47.184265 42.779999 50.200001Z"/>
      </g>
    </g>
  </g>
  <g id="g-root-ic_1_meuyzu1b8fbpk-stroke-fill" data-item-order="-2304" transform="translate(368, 50)">
    <g id="ic_1_meuyzu1b8fbpk-fill" stroke="none" fill="#b7b7b7">
      <g>
        <path d="M 28 36.379997C 28.117832 36.20462 28.117832 35.97538 27.999998 35.799999C 27.860556 35.641949 27.641895 35.579475 27.440001 35.639999C 26.618896 35.898842 25.747097 35.953758 24.900002 35.800003C 27.040001 33.68 26.02 29.799999 25.040001 27.799999C 24.964399 27.643484 24.812939 27.537462 24.639999 27.52C 24.467304 27.498037 24.297005 27.575445 24.200001 27.719999L 19.68 34L 18.66 33.620003C 15.280001 32.48 13.14 36.700001 13.059999 36.879997C 12.969904 37.027317 12.969904 37.212685 13.059999 37.360001C 13.146509 37.50985 13.306975 37.601547 13.48 37.599998L 16.200001 37.599998C 17.242002 39.413986 19.18837 40.517441 21.279999 40.48C 24.092293 40.41433 26.655079 38.850727 28 36.379997ZM 25.5 25.5L 28.200001 25.5C 29.242002 27.313986 31.18837 28.417439 33.279999 28.379999C 36.096504 28.310289 38.660278 26.738453 40 24.259998C 40.130009 24.088524 40.130009 23.851475 40 23.68C 39.87001 23.520721 39.655777 23.457245 39.459999 23.52C 38.640625 23.787991 37.766525 23.843052 36.919998 23.68C 39.059998 21.68 38.040001 17.68 37.059998 15.780001C 36.984398 15.623484 36.832939 15.517462 36.66 15.5C 36.487305 15.478037 36.317005 15.555445 36.220001 15.7L 31.68 22L 30.66 21.619999C 27.280001 20.4 25.139999 24.6 25.060001 24.779999C 24.969906 24.927317 24.969906 25.112682 25.060001 25.26C 25.142319 25.423878 25.31765 25.519512 25.5 25.5ZM 54.880001 18.68C 54.750011 18.520721 54.535778 18.457245 54.34 18.52C 53.520622 18.787991 52.646526 18.843052 51.799999 18.68C 53.939999 16.68 52.919998 12.68 51.939999 10.78C 51.864399 10.623485 51.71294 10.517462 51.540001 10.5C 51.367306 10.478037 51.197006 10.555446 51.099998 10.7L 46.68 16.9L 45.66 16.52C 42.279999 15.4 40.139999 19.6 40 19.779999C 39.909904 19.927317 39.909904 20.112682 40 20.26C 40.079521 20.416685 40.244637 20.511036 40.419998 20.5L 43.200001 20.5C 44.242001 22.313986 46.18837 23.417439 48.279999 23.380001C 51.067581 23.282127 53.59449 21.714226 54.919998 19.259998C 55.038578 19.07966 55.022213 18.842352 54.879997 18.68ZM 36.919998 45.380001C 37.037834 45.20462 37.037834 44.975376 36.919998 44.799999C 36.780556 44.641949 36.561897 44.579475 36.360001 44.639999C 35.538895 44.898842 34.667099 44.953758 33.82 44.800003C 35.959999 42.68 34.940002 38.799999 33.959999 36.900002C 33.884399 36.743484 33.732941 36.637459 33.559998 36.620003C 33.38657 36.592934 33.213646 36.671535 33.119999 36.82L 28.700001 43.02L 27.68 42.639999C 24.279999 41.52 22.139999 45.720001 22 46C 21.909904 46.147316 21.909904 46.332684 22 46.48C 22.086508 46.629852 22.246975 46.721546 22.419998 46.719997L 25.200001 46.720001C 26.242002 48.533985 28.18837 49.63744 30.279999 49.599998C 33.088737 49.481983 35.62059 47.872883 36.919998 45.379997ZM 48.34 52.639999C 47.518898 52.898846 46.647099 52.953762 45.800003 52.800003C 47.939999 50.68 46.919998 46.799999 45.939999 44.900002C 45.864399 44.743484 45.71294 44.637463 45.540001 44.619999C 45.36657 44.592934 45.193642 44.671535 45.099998 44.82L 40.68 51.02L 39.66 50.639999C 36.279999 49.5 34.139999 53.720001 34.059998 53.900002C 33.969902 54.047318 33.969902 54.232681 34.059998 54.380001C 34.146507 54.52985 34.306976 54.621548 34.479996 54.619999L 37.200001 54.619999C 38.242004 56.433987 40.18837 57.537437 42.279999 57.5C 45.067581 57.402126 47.594494 55.834225 48.919998 53.379997C 49.03783 53.204617 49.03783 52.975376 48.919998 52.799995C 48.777039 52.633926 48.54789 52.570713 48.34 52.639999Z"/>
      </g>
    </g>
  </g>
  <g id="g-root-tx_material_zrkfje1b8i329-stroke-fill" data-item-order="0" transform="translate(104, 242)">
    <g id="tx_material_zrkfje1b8i329-fill" stroke="none" fill="#f4f4f4">
      <g>
        <text style="font: 20px Roboto, sans-serif; white-space: pre;" font-size="20px" font-family="Roboto, sans-serif">
          <tspan x="12" y="34" dominant-baseline="ideographic">Material </tspan>
          <tspan x="12" y="58" dominant-baseline="ideographic">vanishes quickly</tspan>
        </text>
      </g>
    </g>
  </g>
  <g id="g-root-tx_gelatino_mg3x621b8i4n6-stroke-fill" data-item-order="0" transform="translate(104, 170)">
    <g id="tx_gelatino_mg3x621b8i4n6-fill" stroke="none" fill="#f4f4f4">
      <g>
        <text style="font: 20px Roboto, sans-serif; white-space: pre;" font-size="20px" font-family="Roboto, sans-serif">
          <tspan x="12" y="34" dominant-baseline="ideographic">Gelatinous </tspan>
          <tspan x="12" y="58" dominant-baseline="ideographic">transformation</tspan>
        </text>
      </g>
    </g>
  </g>
  <g id="g-root-tx_associat_959vvu1b8i32b-stroke-fill" data-item-order="0" transform="translate(104, 98)">
    <g id="tx_associat_959vvu1b8i32b-fill" stroke="none" fill="#f4f4f4">
      <g>
        <text style="font: 20px Roboto, sans-serif; white-space: pre;" font-size="20px" font-family="Roboto, sans-serif">
          <tspan x="12" y="34" dominant-baseline="ideographic">Associated with </tspan>
          <tspan x="12" y="58" dominant-baseline="ideographic">UFOs</tspan>
        </text>
      </g>
    </g>
  </g>
  <g id="g-root-tx_material_9mvmy1b8i3v0-stroke-fill" data-item-order="0" transform="translate(428, 194)">
    <g id="tx_material_9mvmy1b8i3v0-fill" stroke="none" fill="#f4f4f4">
      <g>
        <text style="font: 20px Roboto, sans-serif; white-space: pre;" font-size="20px" font-family="Roboto, sans-serif">
          <tspan x="12" y="34" dominant-baseline="ideographic">Material remains </tspan>
          <tspan x="12" y="58" dominant-baseline="ideographic">visible</tspan>
        </text>
      </g>
    </g>
  </g>
  <g id="g-root-tx_notransf_1lzaf8q1b8i58t-stroke-fill" data-item-order="0" transform="translate(428, 110)">
    <g id="tx_notransf_1lzaf8q1b8i58t-fill" stroke="none" fill="#f4f4f4">
      <g>
        <text style="font: 20px Roboto, sans-serif; white-space: pre;" font-size="20px" font-family="Roboto, sans-serif">
          <tspan x="12" y="34" dominant-baseline="ideographic">No </tspan>
          <tspan x="12" y="58" dominant-baseline="ideographic">transformation </tspan>
          <tspan x="12" y="82" dominant-baseline="ideographic">occurs</tspan>
        </text>
      </g>
    </g>
  </g>
  <g id="g-root-tx_naturalp_18egskq1b8ji8e-stroke-fill" data-item-order="0" transform="translate(428, 50)">
    <g id="tx_naturalp_18egskq1b8ji8e-fill" stroke="none" fill="#f4f4f4">
      <g>
        <text style="font: 20px Roboto, sans-serif; white-space: pre;" font-size="20px" font-family="Roboto, sans-serif">
          <tspan x="12" y="34" dominant-baseline="ideographic">Natural </tspan>
          <tspan x="12" y="58" dominant-baseline="ideographic">phenomenon</tspan>
        </text>
      </g>
    </g>
  </g>
  <g id="g-root-tx_ufoexpla_13ynaga1b8jj0n-stroke-fill" data-item-order="0" transform="translate(68, 410)">
    <g id="tx_ufoexpla_13ynaga1b8jj0n-fill" stroke="none" fill="#f4f4f4">
      <g>
        <text style="font: 20px Roboto, sans-serif; white-space: pre;" font-size="20px" font-family="Roboto, sans-serif">
          <tspan x="14.6" y="34" dominant-baseline="ideographic">UFO Explanation</tspan>
        </text>
      </g>
    </g>
  </g>
  <g id="g-root-tx_spiderwe_qnt9621b8jhfs-stroke-fill" data-item-order="0" transform="translate(380, 362)">
    <g id="tx_spiderwe_qnt9621b8jhfs-fill" stroke="none" fill="#f4f4f4">
      <g>
        <text style="font: 20px Roboto, sans-serif; white-space: pre;" font-size="20px" font-family="Roboto, sans-serif">
          <tspan x="16.59" y="34" dominant-baseline="ideographic">Spider Web Theory</tspan>
        </text>
      </g>
    </g>
  </g>
  <g id="g-root-tx_evaluati_dccqsq1b8jj0p-stroke-fill" data-item-order="0" transform="translate(74, 458)">
    <g id="tx_evaluati_dccqsq1b8jj0p-fill" stroke="none" fill="#f4f4f4">
      <g>
        <text style="font: 20px Roboto, sans-serif; white-space: pre;" font-size="20px" font-family="Roboto, sans-serif">
          <tspan x="12.9" y="34" dominant-baseline="ideographic">Evaluating Explanations for Angel Hair Phenomenon</tspan>
        </text>
      </g>
    </g>
  </g>
</svg>
