<svg width="552" height="588" viewBox="0 0 552 588" style="fill:none;stroke:none;fill-rule:evenodd;clip-rule:evenodd;stroke-linecap:round;stroke-linejoin:round;stroke-miterlimit:1.5;" version="1.1" xmlns="http://www.w3.org/2000/svg" xmlns:xlink="http://www.w3.org/1999/xlink"><style class="text-font-style fontImports" data-font-family="Roboto">@import url('https://fonts.googleapis.com/css2?family=Roboto:wght@400;700&amp;display=block');</style><g id="g-root-tf_13zv9ve1ay07po-stroke-fill" data-item-order="-297792" transform="translate(12, 12)"></g><g id="g-root-cp_1_column-1_hxrjy21axyvbj-stroke-fill" data-item-order="-224630" transform="translate(53, 131)"><g id="cp_1_column-1_hxrjy21axyvbj-fill" stroke="none" fill="none"><g><path d="M 10 13C 10 14.656854 11.343146 16 13 16C 14.656854 16 16 14.656854 16 13C 16 11.343146 14.656854 10 13 10C 11.343146 10 10 11.343146 10 13"></path></g></g><g id="cp_1_column-1_hxrjy21axyvbj-stroke" fill="none" stroke-linecap="round" stroke-linejoin="round" stroke-miterlimit="4" stroke="#4f91fc" stroke-width="2"><g><path d="M 10 13C 10 14.656854 11.343146 16 13 16C 14.656854 16 16 14.656854 16 13C 16 11.343146 14.656854 10 13 10C 11.343146 10 10 11.343146 10 13"></path></g></g><g id="cp_1_column-1_hxrjy21axyvbj-stroke-overlay" fill="none" stroke-linecap="round" stroke-linejoin="round" stroke-miterlimit="4" stroke="#0060fb7c" stroke-width="2" stroke-dasharray="4,6"><animate attributeName="stroke-dashoffset" values="30;0" dur="1s" repeatCount="indefinite" begin="0"></animate><g><path d="M 10 13C 10 14.656854 11.343146 16 13 16C 14.656854 16 16 14.656854 16 13C 16 11.343146 14.656854 10 13 10C 11.343146 10 10 11.343146 10 13"></path></g></g><g id="cp_1_column-1_hxrjy21axyvbj-stroke" fill="none" stroke-linecap="round" stroke-linejoin="round" stroke-miterlimit="4" stroke="#4f91fc" stroke-width="2"><g><path d="M 13 16L 13 142"></path></g></g><g id="cp_1_column-1_hxrjy21axyvbj-stroke-overlay" fill="none" stroke-linecap="round" stroke-linejoin="round" stroke-miterlimit="4" stroke="#0060fb7c" stroke-width="2" stroke-dasharray="4,6"><animate attributeName="stroke-dashoffset" values="30;0" dur="1s" repeatCount="indefinite" begin="0"></animate><g><path d="M 13 16L 13 142"></path></g></g><g id="cp_1_column-1_hxrjy21axyvbj-fill" stroke="none" fill="none"><g><path d="M 10 145C 10 146.656854 11.343146 148 13 148C 14.656854 148 16 146.656854 16 145C 16 143.343146 14.656854 142 13 142C 11.343146 142 10 143.343146 10 145"></path></g></g><g id="cp_1_column-1_hxrjy21axyvbj-stroke" fill="none" stroke-linecap="round" stroke-linejoin="round" stroke-miterlimit="4" stroke="#4f91fc" stroke-width="2"><g><path d="M 10 145C 10 146.656854 11.343146 148 13 148C 14.656854 148 16 146.656854 16 145C 16 143.343146 14.656854 142 13 142C 11.343146 142 10 143.343146 10 145"></path></g></g><g id="cp_1_column-1_hxrjy21axyvbj-stroke-overlay" fill="none" stroke-linecap="round" stroke-linejoin="round" stroke-miterlimit="4" stroke="#0060fb7c" stroke-width="2" stroke-dasharray="4,6"><animate attributeName="stroke-dashoffset" values="30;0" dur="1s" repeatCount="indefinite" begin="0"></animate><g><path d="M 10 145C 10 146.656854 11.343146 148 13 148C 14.656854 148 16 146.656854 16 145C 16 143.343146 14.656854 142 13 142C 11.343146 142 10 143.343146 10 145"></path></g></g></g><g id="g-root-cp_3_column-3_92r0sa1axytq9-stroke-fill" data-item-order="-224614" transform="translate(233, 119)"><g id="cp_3_column-3_92r0sa1axytq9-fill" stroke="none" fill="none"><g><path d="M 10 13C 10 14.656854 11.343146 16 13 16C 14.656854 16 16 14.656854 16 13C 16 11.343146 14.656854 10 13 10C 11.343146 10 10 11.343146 10 13"></path></g></g><g id="cp_3_column-3_92r0sa1axytq9-stroke" fill="none" stroke-linecap="round" stroke-linejoin="round" stroke-miterlimit="4" stroke="#43dd93" stroke-width="2"><g><path d="M 10 13C 10 14.656854 11.343146 16 13 16C 14.656854 16 16 14.656854 16 13C 16 11.343146 14.656854 10 13 10C 11.343146 10 10 11.343146 10 13"></path></g></g><g id="cp_3_column-3_92r0sa1axytq9-stroke-overlay" fill="none" stroke-linecap="round" stroke-linejoin="round" stroke-miterlimit="4" stroke="#00c5676e" stroke-width="2" stroke-dasharray="4,6"><animate attributeName="stroke-dashoffset" values="30;0" dur="1s" repeatCount="indefinite" begin="0"></animate><g><path d="M 10 13C 10 14.656854 11.343146 16 13 16C 14.656854 16 16 14.656854 16 13C 16 11.343146 14.656854 10 13 10C 11.343146 10 10 11.343146 10 13"></path></g></g><g id="cp_3_column-3_92r0sa1axytq9-stroke" fill="none" stroke-linecap="round" stroke-linejoin="round" stroke-miterlimit="4" stroke="#43dd93" stroke-width="2"><g><path d="M 13 16L 13 154"></path></g></g><g id="cp_3_column-3_92r0sa1axytq9-stroke-overlay" fill="none" stroke-linecap="round" stroke-linejoin="round" stroke-miterlimit="4" stroke="#00c5676e" stroke-width="2" stroke-dasharray="4,6"><animate attributeName="stroke-dashoffset" values="30;0" dur="1s" repeatCount="indefinite" begin="0"></animate><g><path d="M 13 16L 13 154"></path></g></g><g id="cp_3_column-3_92r0sa1axytq9-fill" stroke="none" fill="none"><g><path d="M 10 157C 10 158.656854 11.343146 160 13 160C 14.656854 160 16 158.656854 16 157C 16 155.343146 14.656854 154 13 154C 11.343146 154 10 155.343146 10 157"></path></g></g><g id="cp_3_column-3_92r0sa1axytq9-stroke" fill="none" stroke-linecap="round" stroke-linejoin="round" stroke-miterlimit="4" stroke="#43dd93" stroke-width="2"><g><path d="M 10 157C 10 158.656854 11.343146 160 13 160C 14.656854 160 16 158.656854 16 157C 16 155.343146 14.656854 154 13 154C 11.343146 154 10 155.343146 10 157"></path></g></g><g id="cp_3_column-3_92r0sa1axytq9-stroke-overlay" fill="none" stroke-linecap="round" stroke-linejoin="round" stroke-miterlimit="4" stroke="#00c5676e" stroke-width="2" stroke-dasharray="4,6"><animate attributeName="stroke-dashoffset" values="30;0" dur="1s" repeatCount="indefinite" begin="0"></animate><g><path d="M 10 157C 10 158.656854 11.343146 160 13 160C 14.656854 160 16 158.656854 16 157C 16 155.343146 14.656854 154 13 154C 11.343146 154 10 155.343146 10 157"></path></g></g></g><g id="g-root-cp_1_g-1_740je1axyuiz-stroke-fill" data-item-order="-224596" transform="translate(56, 278)"><g id="cp_1_g-1_740je1axyuiz-fill" stroke="none" fill="none"><g><path d="M 76 10L 10 10L 28 46L 10 82L 76 82L 94 46L 76 10Z"></path></g></g><g id="cp_1_g-1_740je1axyuiz-stroke" fill="none" stroke-linecap="round" stroke-linejoin="round" stroke-miterlimit="4" stroke="#4f91fc" stroke-width="2"><g><path d="M 76 10L 10 10L 28 46L 10 82L 76 82L 94 46L 76 10Z"></path></g></g><g id="cp_1_g-1_740je1axyuiz-stroke-overlay" fill="none" stroke-linecap="round" stroke-linejoin="round" stroke-miterlimit="4" stroke="#0060fb7c" stroke-width="2" stroke-dasharray="4,6"><animate attributeName="stroke-dashoffset" values="30;0" dur="1s" repeatCount="indefinite" begin="0"></animate><g><path d="M 76 10L 10 10L 28 46L 10 82L 76 82L 94 46L 76 10Z"></path></g></g></g><g id="g-root-cp_2_g-2_740je1axyuj1-stroke-fill" data-item-order="-224588" transform="translate(146, 278)"><g id="cp_2_g-2_740je1axyuj1-fill" stroke="none" fill="none"><g><path d="M 76 10L 10 10L 28 46L 10 82L 76 82L 94 46L 76 10Z"></path></g></g><g id="cp_2_g-2_740je1axyuj1-stroke" fill="none" stroke-linecap="round" stroke-linejoin="round" stroke-miterlimit="4" stroke="#1ac3fb" stroke-width="2"><g><path d="M 76 10L 10 10L 28 46L 10 82L 76 82L 94 46L 76 10Z"></path></g></g><g id="cp_2_g-2_740je1axyuj1-stroke-overlay" fill="none" stroke-linecap="round" stroke-linejoin="round" stroke-miterlimit="4" stroke="#00ade7d7" stroke-width="2" stroke-dasharray="4,6"><animate attributeName="stroke-dashoffset" values="30;0" dur="1s" repeatCount="indefinite" begin="0"></animate><g><path d="M 76 10L 10 10L 28 46L 10 82L 76 82L 94 46L 76 10Z"></path></g></g></g><g id="g-root-cp_3_g-3_1useke21axyv47-stroke-fill" data-item-order="-224582" transform="translate(236, 278)"><g id="cp_3_g-3_1useke21axyv47-fill" stroke="none" fill="none"><g><path d="M 76 10L 10 10L 28 46L 10 82L 76 82L 94 46L 76 10Z"></path></g></g><g id="cp_3_g-3_1useke21axyv47-stroke" fill="none" stroke-linecap="round" stroke-linejoin="round" stroke-miterlimit="4" stroke="#43dd93" stroke-width="2"><g><path d="M 76 10L 10 10L 28 46L 10 82L 76 82L 94 46L 76 10Z"></path></g></g><g id="cp_3_g-3_1useke21axyv47-stroke-overlay" fill="none" stroke-linecap="round" stroke-linejoin="round" stroke-miterlimit="4" stroke="#00c5676e" stroke-width="2" stroke-dasharray="4,6"><animate attributeName="stroke-dashoffset" values="30;0" dur="1s" repeatCount="indefinite" begin="0"></animate><g><path d="M 76 10L 10 10L 28 46L 10 82L 76 82L 94 46L 76 10Z"></path></g></g></g><g id="g-root-cp_4_g-4_1qcl29m1axyvwh-stroke-fill" data-item-order="-224576" transform="translate(326, 278)"><g id="cp_4_g-4_1qcl29m1axyvwh-fill" stroke="none" fill="none"><g><path d="M 76 10L 10 10L 28 46L 10 82L 76 82L 94 46L 76 10Z"></path></g></g><g id="cp_4_g-4_1qcl29m1axyvwh-stroke" fill="none" stroke-linecap="round" stroke-linejoin="round" stroke-miterlimit="4" stroke="#a6da37" stroke-width="2"><g><path d="M 76 10L 10 10L 28 46L 10 82L 76 82L 94 46L 76 10Z"></path></g></g><g id="cp_4_g-4_1qcl29m1axyvwh-stroke-overlay" fill="none" stroke-linecap="round" stroke-linejoin="round" stroke-miterlimit="4" stroke="#6b9d0056" stroke-width="2" stroke-dasharray="4,6"><animate attributeName="stroke-dashoffset" values="30;0" dur="1s" repeatCount="indefinite" begin="0"></animate><g><path d="M 76 10L 10 10L 28 46L 10 82L 76 82L 94 46L 76 10Z"></path></g></g></g><g id="g-root-cp_2_column-2_1hhkj3u1axytjf-stroke-fill" data-item-order="-224568" transform="translate(143, 359)"><g id="cp_2_column-2_1hhkj3u1axytjf-fill" stroke="none" fill="none"><g><path d="M 10 13C 10 14.656854 11.343146 16 13 16C 14.656854 16 16 14.656854 16 13C 16 11.343146 14.656854 10 13 10C 11.343146 10 10 11.343146 10 13"></path></g></g><g id="cp_2_column-2_1hhkj3u1axytjf-stroke" fill="none" stroke-linecap="round" stroke-linejoin="round" stroke-miterlimit="4" stroke="#1ac3fb" stroke-width="2"><g><path d="M 10 13C 10 14.656854 11.343146 16 13 16C 14.656854 16 16 14.656854 16 13C 16 11.343146 14.656854 10 13 10C 11.343146 10 10 11.343146 10 13"></path></g></g><g id="cp_2_column-2_1hhkj3u1axytjf-stroke-overlay" fill="none" stroke-linecap="round" stroke-linejoin="round" stroke-miterlimit="4" stroke="#00ade7d7" stroke-width="2" stroke-dasharray="4,6"><animate attributeName="stroke-dashoffset" values="30;0" dur="1s" repeatCount="indefinite" begin="0"></animate><g><path d="M 10 13C 10 14.656854 11.343146 16 13 16C 14.656854 16 16 14.656854 16 13C 16 11.343146 14.656854 10 13 10C 11.343146 10 10 11.343146 10 13"></path></g></g><g id="cp_2_column-2_1hhkj3u1axytjf-stroke" fill="none" stroke-linecap="round" stroke-linejoin="round" stroke-miterlimit="4" stroke="#1ac3fb" stroke-width="2"><g><path d="M 13 16L 13 142"></path></g></g><g id="cp_2_column-2_1hhkj3u1axytjf-stroke-overlay" fill="none" stroke-linecap="round" stroke-linejoin="round" stroke-miterlimit="4" stroke="#00ade7d7" stroke-width="2" stroke-dasharray="4,6"><animate attributeName="stroke-dashoffset" values="30;0" dur="1s" repeatCount="indefinite" begin="0"></animate><g><path d="M 13 16L 13 142"></path></g></g><g id="cp_2_column-2_1hhkj3u1axytjf-fill" stroke="none" fill="none"><g><path d="M 10 145C 10 146.656854 11.343146 148 13 148C 14.656854 148 16 146.656854 16 145C 16 143.343146 14.656854 142 13 142C 11.343146 142 10 143.343146 10 145"></path></g></g><g id="cp_2_column-2_1hhkj3u1axytjf-stroke" fill="none" stroke-linecap="round" stroke-linejoin="round" stroke-miterlimit="4" stroke="#1ac3fb" stroke-width="2"><g><path d="M 10 145C 10 146.656854 11.343146 148 13 148C 14.656854 148 16 146.656854 16 145C 16 143.343146 14.656854 142 13 142C 11.343146 142 10 143.343146 10 145"></path></g></g><g id="cp_2_column-2_1hhkj3u1axytjf-stroke-overlay" fill="none" stroke-linecap="round" stroke-linejoin="round" stroke-miterlimit="4" stroke="#00ade7d7" stroke-width="2" stroke-dasharray="4,6"><animate attributeName="stroke-dashoffset" values="30;0" dur="1s" repeatCount="indefinite" begin="0"></animate><g><path d="M 10 145C 10 146.656854 11.343146 148 13 148C 14.656854 148 16 146.656854 16 145C 16 143.343146 14.656854 142 13 142C 11.343146 142 10 143.343146 10 145"></path></g></g></g><g id="g-root-cp_4_column-4_1d1r0ze1axyubp-stroke-fill" data-item-order="-224552" transform="translate(323, 359)"><g id="cp_4_column-4_1d1r0ze1axyubp-fill" stroke="none" fill="none"><g><path d="M 10 13C 10 14.656854 11.343146 16 13 16C 14.656854 16 16 14.656854 16 13C 16 11.343146 14.656854 10 13 10C 11.343146 10 10 11.343146 10 13"></path></g></g><g id="cp_4_column-4_1d1r0ze1axyubp-stroke" fill="none" stroke-linecap="round" stroke-linejoin="round" stroke-miterlimit="4" stroke="#a6da37" stroke-width="2"><g><path d="M 10 13C 10 14.656854 11.343146 16 13 16C 14.656854 16 16 14.656854 16 13C 16 11.343146 14.656854 10 13 10C 11.343146 10 10 11.343146 10 13"></path></g></g><g id="cp_4_column-4_1d1r0ze1axyubp-stroke-overlay" fill="none" stroke-linecap="round" stroke-linejoin="round" stroke-miterlimit="4" stroke="#6b9d0056" stroke-width="2" stroke-dasharray="4,6"><animate attributeName="stroke-dashoffset" values="30;0" dur="1s" repeatCount="indefinite" begin="0"></animate><g><path d="M 10 13C 10 14.656854 11.343146 16 13 16C 14.656854 16 16 14.656854 16 13C 16 11.343146 14.656854 10 13 10C 11.343146 10 10 11.343146 10 13"></path></g></g><g id="cp_4_column-4_1d1r0ze1axyubp-stroke" fill="none" stroke-linecap="round" stroke-linejoin="round" stroke-miterlimit="4" stroke="#a6da37" stroke-width="2"><g><path d="M 12.999996 16L 12.999996 142"></path></g></g><g id="cp_4_column-4_1d1r0ze1axyubp-stroke-overlay" fill="none" stroke-linecap="round" stroke-linejoin="round" stroke-miterlimit="4" stroke="#6b9d0056" stroke-width="2" stroke-dasharray="4,6"><animate attributeName="stroke-dashoffset" values="30;0" dur="1s" repeatCount="indefinite" begin="0"></animate><g><path d="M 12.999996 16L 12.999996 142"></path></g></g><g id="cp_4_column-4_1d1r0ze1axyubp-fill" stroke="none" fill="none"><g><path d="M 10 145C 10 146.656854 11.343146 148 13 148C 14.656854 148 16 146.656854 16 145C 16 143.343146 14.656854 142 13 142C 11.343146 142 10 143.343146 10 145"></path></g></g><g id="cp_4_column-4_1d1r0ze1axyubp-stroke" fill="none" stroke-linecap="round" stroke-linejoin="round" stroke-miterlimit="4" stroke="#a6da37" stroke-width="2"><g><path d="M 10 145C 10 146.656854 11.343146 148 13 148C 14.656854 148 16 146.656854 16 145C 16 143.343146 14.656854 142 13 142C 11.343146 142 10 143.343146 10 145"></path></g></g><g id="cp_4_column-4_1d1r0ze1axyubp-stroke-overlay" fill="none" stroke-linecap="round" stroke-linejoin="round" stroke-miterlimit="4" stroke="#6b9d0056" stroke-width="2" stroke-dasharray="4,6"><animate attributeName="stroke-dashoffset" values="30;0" dur="1s" repeatCount="indefinite" begin="0"></animate><g><path d="M 10 145C 10 146.656854 11.343146 148 13 148C 14.656854 148 16 146.656854 16 145C 16 143.343146 14.656854 142 13 142C 11.343146 142 10 143.343146 10 145"></path></g></g></g><g id="g-root-tx_keyufosi_14640qi1axyv4f-stroke-fill" data-item-order="0" transform="translate(56, 50)"><g id="tx_keyufosi_14640qi1axyv4f-fill" stroke="none" fill="#f4f4f4"><g><text style="font: 20px Roboto, sans-serif; white-space: pre;" font-size="20px" font-family="Roboto, sans-serif"><tspan x="11.79" y="34" dominant-baseline="ideographic">Key UFO Sightings During Operation Mainbrace</tspan></text></g></g><g id="tx_keyufosi_14640qi1axyv4f-fill-overlay" stroke="none" fill="url(#crawlingPattern-0000001b)"><g><text style="font: 20px Roboto, sans-serif; white-space: pre;" font-size="20px" font-family="Roboto, sans-serif"><tspan x="11.79" y="34" dominant-baseline="ideographic">Key UFO Sightings During Operation Mainbrace</tspan></text></g></g></g><g id="g-root-tx_septembe_vb3hkq1axytj4-stroke-fill" data-item-order="0" transform="translate(68, 134)"><g id="tx_septembe_vb3hkq1axytj4-fill" stroke="none" fill="#4f91fc"><g><text style="font: bold 20px Roboto, sans-serif; white-space: pre;" font-weight="bold" font-size="20px" font-family="Roboto, sans-serif"><tspan x="12" y="34" dominant-baseline="ideographic">September 13, </tspan><tspan x="12" y="58" dominant-baseline="ideographic">1952</tspan></text></g></g><g id="tx_septembe_vb3hkq1axytj4-fill-overlay" stroke="none" fill="url(#crawlingPattern-0060fba2)"><g><text style="font: bold 20px Roboto, sans-serif; white-space: pre;" font-weight="bold" font-size="20px" font-family="Roboto, sans-serif"><tspan x="12" y="34" dominant-baseline="ideographic">September 13, </tspan><tspan x="12" y="58" dominant-baseline="ideographic">1952</tspan></text></g></g></g><g id="g-root-tx_danishde_hzmz7e1axyv41-stroke-fill" data-item-order="0" transform="translate(68, 194)"><g id="tx_danishde_hzmz7e1axyv41-fill" stroke="none" fill="#f4f4f4"><g><text style="font: 15px Roboto, sans-serif; white-space: pre;" font-size="15px" font-family="Roboto, sans-serif"><tspan x="12" y="31" dominant-baseline="ideographic">Danish Destroyer </tspan><tspan x="12" y="49" dominant-baseline="ideographic">Incident: Triangular </tspan><tspan x="12" y="67" dominant-baseline="ideographic">object observed</tspan></text></g></g><g id="tx_danishde_hzmz7e1axyv41-fill-overlay" stroke="none" fill="url(#crawlingPattern-0000001b)"><g><text style="font: 15px Roboto, sans-serif; white-space: pre;" font-size="15px" font-family="Roboto, sans-serif"><tspan x="12" y="31" dominant-baseline="ideographic">Danish Destroyer </tspan><tspan x="12" y="49" dominant-baseline="ideographic">Incident: Triangular </tspan><tspan x="12" y="67" dominant-baseline="ideographic">object observed</tspan></text></g></g></g><g id="g-root-tx_septembe_93zyyi1axyvwq-stroke-fill" data-item-order="0" transform="translate(248, 122)"><g id="tx_septembe_93zyyi1axyvwq-fill" stroke="none" fill="#43dd93"><g><text style="font: bold 20px Roboto, sans-serif; white-space: pre;" font-weight="bold" font-size="20px" font-family="Roboto, sans-serif"><tspan x="12" y="34" dominant-baseline="ideographic">September 20, </tspan><tspan x="12" y="58" dominant-baseline="ideographic">1952</tspan></text></g></g><g id="tx_septembe_93zyyi1axyvwq-fill-overlay" stroke="none" fill="url(#crawlingPattern-00b15c75)"><g><text style="font: bold 20px Roboto, sans-serif; white-space: pre;" font-weight="bold" font-size="20px" font-family="Roboto, sans-serif"><tspan x="12" y="34" dominant-baseline="ideographic">September 20, </tspan><tspan x="12" y="58" dominant-baseline="ideographic">1952</tspan></text></g></g></g><g id="g-root-tx_ussfrank_1uu9zne1axyu4r-stroke-fill" data-item-order="0" transform="translate(248, 182)"><g id="tx_ussfrank_1uu9zne1axyu4r-fill" stroke="none" fill="#f4f4f4"><g><text style="font: 15px Roboto, sans-serif; white-space: pre;" font-size="15px" font-family="Roboto, sans-serif"><tspan x="12" y="28" dominant-baseline="ideographic">USS Franklin D. </tspan><tspan x="12" y="46" dominant-baseline="ideographic">Roosevelt Sighting: </tspan><tspan x="12" y="64" dominant-baseline="ideographic">Spherical object </tspan><tspan x="12" y="82" dominant-baseline="ideographic">photographed</tspan></text></g></g><g id="tx_ussfrank_1uu9zne1axyu4r-fill-overlay" stroke="none" fill="url(#crawlingPattern-0000001b)"><g><text style="font: 15px Roboto, sans-serif; white-space: pre;" font-size="15px" font-family="Roboto, sans-serif"><tspan x="12" y="28" dominant-baseline="ideographic">USS Franklin D. </tspan><tspan x="12" y="46" dominant-baseline="ideographic">Roosevelt Sighting: </tspan><tspan x="12" y="64" dominant-baseline="ideographic">Spherical object </tspan><tspan x="12" y="82" dominant-baseline="ideographic">photographed</tspan></text></g></g></g><g id="g-root-tx_septembe_1hitha21axyvpo-stroke-fill" data-item-order="0" transform="translate(158, 374)"><g id="tx_septembe_1hitha21axyvpo-fill" stroke="none" fill="#1ac3fb"><g><text style="font: bold 20px Roboto, sans-serif; white-space: pre;" font-weight="bold" font-size="20px" font-family="Roboto, sans-serif"><tspan x="12" y="34" dominant-baseline="ideographic">September 19, </tspan><tspan x="12" y="58" dominant-baseline="ideographic">1952</tspan></text></g></g><g id="tx_septembe_1hitha21axyvpo-fill-overlay" stroke="none" fill="url(#crawlingPattern-00a3d9d9)"><g><text style="font: bold 20px Roboto, sans-serif; white-space: pre;" font-weight="bold" font-size="20px" font-family="Roboto, sans-serif"><tspan x="12" y="34" dominant-baseline="ideographic">September 19, </tspan><tspan x="12" y="58" dominant-baseline="ideographic">1952</tspan></text></g></g></g><g id="g-root-tx_topcliff_1d3mg8q1axytc5-stroke-fill" data-item-order="0" transform="translate(158, 434)"><g id="tx_topcliff_1d3mg8q1axytc5-fill" stroke="none" fill="#f4f4f4"><g><text style="font: 15px Roboto, sans-serif; white-space: pre;" font-size="15px" font-family="Roboto, sans-serif"><tspan x="12" y="31" dominant-baseline="ideographic">Topcliffe Airfield </tspan><tspan x="12" y="49" dominant-baseline="ideographic">Encounter: Silvery </tspan><tspan x="12" y="67" dominant-baseline="ideographic">object follows jet</tspan></text></g></g><g id="tx_topcliff_1d3mg8q1axytc5-fill-overlay" stroke="none" fill="url(#crawlingPattern-0000001b)"><g><text style="font: 15px Roboto, sans-serif; white-space: pre;" font-size="15px" font-family="Roboto, sans-serif"><tspan x="12" y="31" dominant-baseline="ideographic">Topcliffe Airfield </tspan><tspan x="12" y="49" dominant-baseline="ideographic">Encounter: Silvery </tspan><tspan x="12" y="67" dominant-baseline="ideographic">object follows jet</tspan></text></g></g></g><g id="g-root-tx_septembe_zs5xve1axyux2-stroke-fill" data-item-order="0" transform="translate(338, 374)"><g id="tx_septembe_zs5xve1axyux2-fill" stroke="none" fill="#a6da37"><g><text style="font: bold 20px Roboto, sans-serif; white-space: pre;" font-weight="bold" font-size="20px" font-family="Roboto, sans-serif"><tspan x="12" y="34" dominant-baseline="ideographic">September 21, </tspan><tspan x="12" y="58" dominant-baseline="ideographic">1952</tspan></text></g></g><g id="tx_septembe_zs5xve1axyux2-fill-overlay" stroke="none" fill="url(#crawlingPattern-5c87005e)"><g><text style="font: bold 20px Roboto, sans-serif; white-space: pre;" font-weight="bold" font-size="20px" font-family="Roboto, sans-serif"><tspan x="12" y="34" dominant-baseline="ideographic">September 21, </tspan><tspan x="12" y="58" dominant-baseline="ideographic">1952</tspan></text></g></g></g><g id="g-root-tx_rafpilot_qwixmi1axyvpr-stroke-fill" data-item-order="0" transform="translate(338, 434)"><g id="tx_rafpilot_qwixmi1axyvpr-fill" stroke="none" fill="#f4f4f4"><g><text style="font: 15px Roboto, sans-serif; white-space: pre;" font-size="15px" font-family="Roboto, sans-serif"><tspan x="12" y="31" dominant-baseline="ideographic">RAF Pilots' </tspan><tspan x="12" y="49" dominant-baseline="ideographic">Encounter: Shiny </tspan><tspan x="12" y="67" dominant-baseline="ideographic">sphere reported</tspan></text></g></g><defs><pattern id="crawlingPattern-0000001b" x="0" y="0" width="12" height="12" patternUnits="userSpaceOnUse" fill="#0000001b"><use href="#crawlingSymbol"></use></pattern><symbol id="crawlingSymbol"><g><animateTransform attributeName="transform" type="translate" from="0 0" to="-12 0" dur="0.4s" repeatCount="indefinite"></animateTransform><path d="M -12.5 12.5 l 13 -13 l 6 0 l -13 13 Z M -0.5 12.5 l 13 -13 l 6 0 l -13 13 Z M 11.5 12.5 l 13 -13 l 6 0 l -13 13 Z"></path></g></symbol><pattern id="crawlingPattern-0060fba2" x="0" y="0" width="12" height="12" patternUnits="userSpaceOnUse" fill="#0060fba2"><use href="#crawlingSymbol"></use></pattern><pattern id="crawlingPattern-00b15c75" x="0" y="0" width="12" height="12" patternUnits="userSpaceOnUse" fill="#00b15c75"><use href="#crawlingSymbol"></use></pattern><pattern id="crawlingPattern-00a3d9d9" x="0" y="0" width="12" height="12" patternUnits="userSpaceOnUse" fill="#00a3d9d9"><use href="#crawlingSymbol"></use></pattern><pattern id="crawlingPattern-5c87005e" x="0" y="0" width="12" height="12" patternUnits="userSpaceOnUse" fill="#5c87005e"><use href="#crawlingSymbol"></use></pattern></defs><g id="tx_rafpilot_qwixmi1axyvpr-fill-overlay" stroke="none" fill="url(#crawlingPattern-0000001b)"><g><text style="font: 15px Roboto, sans-serif; white-space: pre;" font-size="15px" font-family="Roboto, sans-serif"><tspan x="12" y="31" dominant-baseline="ideographic">RAF Pilots' </tspan><tspan x="12" y="49" dominant-baseline="ideographic">Encounter: Shiny </tspan><tspan x="12" y="67" dominant-baseline="ideographic">sphere reported</tspan></text></g></g></g></svg>