<?xml version='1.0' encoding='utf-8'?>
<svg xmlns="http://www.w3.org/2000/svg" xmlns:xlink="http://www.w3.org/1999/xlink" width="792" height="684" viewBox="0 0 792 684" style="fill:none;stroke:none;fill-rule:evenodd;clip-rule:evenodd;stroke-linecap:round;stroke-linejoin:round;stroke-miterlimit:1.5;" version="1.1">
  <style class="text-font-style fontImports" data-font-family="Roboto">@import url('https://fonts.googleapis.com/css2?family=Roboto:wght@400;700&amp;display=block');</style>
  <rect x="0" y="0" width="792" height="684" fill="#252a34" stroke="none" id="programmatic_background"/>
  <g id="g-root-tf_1hjflqi1bsfv9i-stroke-fill" data-item-order="-502740" transform="translate(18, 12)"/>
  <g id="g-root-sy_-1_Vector_142zaoa1bsfwng-stroke-fill" data-item-order="-22843" transform="translate(379.99609375, 149)">
    <g id="sy_-1_Vector_142zaoa1bsfwng-stroke" fill="none" stroke-linecap="round" stroke-linejoin="round" stroke-miterlimit="4" stroke="#f4f4f4" stroke-width="2">
      <g>
        <path d="M 10 388L 10 298M 10 292L 10 202M 10 196L 10 106M 10 100L 10 10"/>
      </g>
    </g>
  </g>
  <g id="g-root-sy_-1_cu_zn5sju1bsfxfp-stroke-fill" data-item-order="-22839" transform="translate(379.99609375, 533)">
    <g id="sy_-1_cu_zn5sju1bsfxfp-stroke" fill="none" stroke-linecap="round" stroke-linejoin="round" stroke-miterlimit="4" stroke="#f4f4f4" stroke-width="2">
      <g>
        <path d="M 10.003906 94L 10.003906 10"/>
        <path d="M 3.503906 88L 10.003906 94.5L 16.503906 88" stroke-dasharray="none"/>
      </g>
    </g>
  </g>
  <g id="g-root-sy_5_cu_qs59e21bsfv2m-stroke-fill" data-item-order="-22836" transform="translate(356, 527)">
    <g id="sy_5_cu_qs59e21bsfv2m-fill" stroke="none" fill="none">
      <g>
        <path d="M 34 10L 34 10C 34 10 37 10 37 13L 37 13C 37 13 37 16 34 16L 34 16C 34 16 31 16 31 13L 31 13C 31 13 31 10 34 10"/>
      </g>
    </g>
    <g id="sy_5_cu_qs59e21bsfv2m-stroke" fill="none" stroke-linecap="round" stroke-linejoin="round" stroke-miterlimit="4" stroke="#43dd93" stroke-width="2">
      <g>
        <path d="M 34 10L 34 10C 34 10 37 10 37 13L 37 13C 37 13 37 16 34 16L 34 16C 34 16 31 16 31 13L 31 13C 31 13 31 10 34 10"/>
      </g>
    </g>
    <g id="sy_5_cu_qs59e21bsfv2m-stroke" fill="none" stroke-linecap="round" stroke-linejoin="round" stroke-miterlimit="4" stroke="#43dd93" stroke-width="2">
      <g>
        <path d="M 31 13L 10 13"/>
      </g>
    </g>
  </g>
  <g id="g-root-sy_4_cu_mcbr9m1bsfvuv-stroke-fill" data-item-order="-22832" transform="translate(377, 431)">
    <g id="sy_4_cu_mcbr9m1bsfvuv-fill" stroke="none" fill="none">
      <g>
        <path d="M 13 10L 13 10C 13 10 16 10 16 13L 16 13C 16 13 16 16 13 16L 13 16C 13 16 10 16 10 13L 10 13C 10 13 10 10 13 10"/>
      </g>
    </g>
    <g id="sy_4_cu_mcbr9m1bsfvuv-stroke" fill="none" stroke-linecap="round" stroke-linejoin="round" stroke-miterlimit="4" stroke="#8769fd" stroke-width="2">
      <g>
        <path d="M 13 10L 13 10C 13 10 16 10 16 13L 16 13C 16 13 16 16 13 16L 13 16C 13 16 10 16 10 13L 10 13C 10 13 10 10 13 10"/>
      </g>
    </g>
    <g id="sy_4_cu_mcbr9m1bsfvuv-stroke" fill="none" stroke-linecap="round" stroke-linejoin="round" stroke-miterlimit="4" stroke="#8769fd" stroke-width="2">
      <g>
        <path d="M 37 13L 16 13"/>
      </g>
    </g>
  </g>
  <g id="g-root-sy_3_cu_hwi9561bsfwn4-stroke-fill" data-item-order="-22828" transform="translate(356, 335)">
    <g id="sy_3_cu_hwi9561bsfwn4-fill" stroke="none" fill="none">
      <g>
        <path d="M 34 10L 34 10C 34 10 37 10 37 13L 37 13C 37 13 37 16 34 16L 34 16C 34 16 31 16 31 13L 31 13C 31 13 31 10 34 10"/>
      </g>
    </g>
    <g id="sy_3_cu_hwi9561bsfwn4-stroke" fill="none" stroke-linecap="round" stroke-linejoin="round" stroke-miterlimit="4" stroke="#f366bb" stroke-width="2">
      <g>
        <path d="M 34 10L 34 10C 34 10 37 10 37 13L 37 13C 37 13 37 16 34 16L 34 16C 34 16 31 16 31 13L 31 13C 31 13 31 10 34 10"/>
      </g>
    </g>
    <g id="sy_3_cu_hwi9561bsfwn4-stroke" fill="none" stroke-linecap="round" stroke-linejoin="round" stroke-miterlimit="4" stroke="#f366bb" stroke-width="2">
      <g>
        <path d="M 31 13L 10 13"/>
      </g>
    </g>
  </g>
  <g id="g-root-sy_2_cu_4lo7uy1bsfv29-stroke-fill" data-item-order="-22824" transform="translate(377, 239)">
    <g id="sy_2_cu_4lo7uy1bsfv29-fill" stroke="none" fill="none">
      <g>
        <path d="M 13 10L 13 10C 13 10 16 10 16 13L 16 13C 16 13 16 16 13 16L 13 16C 13 16 10 16 10 13L 10 13C 10 13 10 10 13 10"/>
      </g>
    </g>
    <g id="sy_2_cu_4lo7uy1bsfv29-stroke" fill="none" stroke-linecap="round" stroke-linejoin="round" stroke-miterlimit="4" stroke="#fb6762" stroke-width="2">
      <g>
        <path d="M 13 10L 13 10C 13 10 16 10 16 13L 16 13C 16 13 16 16 13 16L 13 16C 13 16 10 16 10 13L 10 13C 10 13 10 10 13 10"/>
      </g>
    </g>
    <g id="sy_2_cu_4lo7uy1bsfv29-stroke" fill="none" stroke-linecap="round" stroke-linejoin="round" stroke-miterlimit="4" stroke="#fb6762" stroke-width="2">
      <g>
        <path d="M 37 13L 16 13"/>
      </g>
    </g>
  </g>
  <g id="g-root-sy_1_cu_1qbbrgq1bsfwg2-stroke-fill" data-item-order="-22820" transform="translate(356, 143)">
    <g id="sy_1_cu_1qbbrgq1bsfwg2-fill" stroke="none" fill="none">
      <g>
        <path d="M 34 10L 34 10C 34 10 37 10 37 13L 37 13C 37 13 37 16 34 16L 34 16C 34 16 31 16 31 13L 31 13C 31 13 31 10 34 10"/>
      </g>
    </g>
    <g id="sy_1_cu_1qbbrgq1bsfwg2-stroke" fill="none" stroke-linecap="round" stroke-linejoin="round" stroke-miterlimit="4" stroke="#4f91fc" stroke-width="2">
      <g>
        <path d="M 34 10L 34 10C 34 10 37 10 37 13L 37 13C 37 13 37 16 34 16L 34 16C 34 16 31 16 31 13L 31 13C 31 13 31 10 34 10"/>
      </g>
    </g>
    <g id="sy_1_cu_1qbbrgq1bsfwg2-stroke" fill="none" stroke-linecap="round" stroke-linejoin="round" stroke-miterlimit="4" stroke="#4f91fc" stroke-width="2">
      <g>
        <path d="M 31 13L 10 13"/>
      </g>
    </g>
  </g>
  <g id="g-root-tx_orfeoang_1hfor7u1bsfx8r-stroke-fill" data-item-order="0" transform="translate(98, 50)">
    <g id="tx_orfeoang_1hfor7u1bsfx8r-fill" stroke="none" fill="#f4f4f4">
      <g>
        <text style="font: 20px Roboto, sans-serif; white-space: pre;" font-size="20px" font-family="Roboto, sans-serif">
          <tspan x="16.5" y="34" dominant-baseline="ideographic">Orfeo Angelucci's Journey Through Extraterrestrial Encounters</tspan>
        </text>
      </g>
    </g>
  </g>
  <g id="g-root-tx_publicat_144upxm1bsfvnw-stroke-fill" data-item-order="0" transform="translate(32, 554)">
    <g id="tx_publicat_144upxm1bsfvnw-fill" stroke="none" fill="#f4f4f4">
      <g>
        <text style="font: 20px Roboto, sans-serif; white-space: pre;" font-size="20px" font-family="Roboto, sans-serif">
          <tspan x="21.84" y="34" dominant-baseline="ideographic">Publication of "The Secret of the </tspan>
          <tspan x="236.05" y="58" dominant-baseline="ideographic">Saucers</tspan>
        </text>
      </g>
    </g>
  </g>
  <g id="g-root-tx_facetofa_qte7ka1bsfx8t-stroke-fill" data-item-order="0" transform="translate(428, 458)">
    <g id="tx_facetofa_qte7ka1bsfx8t-fill" stroke="none" fill="#f4f4f4">
      <g>
        <text style="font: 20px Roboto, sans-serif; white-space: pre;" font-size="20px" font-family="Roboto, sans-serif">
          <tspan x="12" y="34" dominant-baseline="ideographic">Face-to-Face Meeting with Space </tspan>
          <tspan x="12" y="58" dominant-baseline="ideographic">People</tspan>
        </text>
      </g>
    </g>
  </g>
  <g id="g-root-tx_seconden_dik6a21bsfvny-stroke-fill" data-item-order="0" transform="translate(128, 362)">
    <g id="tx_seconden_dik6a21bsfvny-fill" stroke="none" fill="#f4f4f4">
      <g>
        <text style="font: 20px Roboto, sans-serif; white-space: pre;" font-size="20px" font-family="Roboto, sans-serif">
          <tspan x="11.91" y="34" dominant-baseline="ideographic">Second Encounter and </tspan>
          <tspan x="13.25" y="58" dominant-baseline="ideographic">Spacecraft Experience</tspan>
        </text>
      </g>
    </g>
  </g>
  <g id="g-root-tx_firstenc_92qo5m1bsfwg7-stroke-fill" data-item-order="0" transform="translate(428, 266)">
    <g id="tx_firstenc_92qo5m1bsfwg7-fill" stroke="none" fill="#f4f4f4">
      <g>
        <text style="font: 20px Roboto, sans-serif; white-space: pre;" font-size="20px" font-family="Roboto, sans-serif">
          <tspan x="12" y="34" dominant-baseline="ideographic">First Encounter with </tspan>
          <tspan x="12" y="58" dominant-baseline="ideographic">Extraterrestrials</tspan>
        </text>
      </g>
    </g>
  </g>
  <g id="g-root-tx_angelucc_4mx6161bsfx8g-stroke-fill" data-item-order="0" transform="translate(68, 170)">
    <g id="tx_angelucc_4mx6161bsfx8g-fill" stroke="none" fill="#f4f4f4">
      <g>
        <text style="font: 20px Roboto, sans-serif; white-space: pre;" font-size="20px" font-family="Roboto, sans-serif">
          <tspan x="20.63" y="34" dominant-baseline="ideographic">Angelucci's Weather Balloon </tspan>
          <tspan x="171.5" y="58" dominant-baseline="ideographic">Experiment</tspan>
        </text>
      </g>
    </g>
  </g>
  <g id="g-root-tx_1955_1qd76q21bsfvgh-stroke-fill" data-item-order="0" transform="translate(272, 518)">
    <g id="tx_1955_1qd76q21bsfvgh-fill" stroke="none" fill="#43dd93">
      <g>
        <text style="font: bold 20px Roboto, sans-serif; white-space: pre;" font-weight="bold" font-size="20px" font-family="Roboto, sans-serif">
          <tspan x="22.09" y="34" dominant-baseline="ideographic">1955</tspan>
        </text>
      </g>
    </g>
  </g>
  <g id="g-root-tx_august31_1d1qocq1bsfx1e-stroke-fill" data-item-order="0" transform="translate(428, 422)">
    <g id="tx_august31_1d1qocq1bsfx1e-fill" stroke="none" fill="#8769fd">
      <g>
        <text style="font: bold 20px Roboto, sans-serif; white-space: pre;" font-weight="bold" font-size="20px" font-family="Roboto, sans-serif">
          <tspan x="12" y="34" dominant-baseline="ideographic">August 3, 1952</tspan>
        </text>
      </g>
    </g>
  </g>
  <g id="g-root-tx_july2319_zqwn2i1bsfvgj-stroke-fill" data-item-order="0" transform="translate(200, 326)">
    <g id="tx_july2319_zqwn2i1bsfvgj-fill" stroke="none" fill="#f366bb">
      <g>
        <text style="font: bold 20px Roboto, sans-serif; white-space: pre;" font-weight="bold" font-size="20px" font-family="Roboto, sans-serif">
          <tspan x="18.55" y="34" dominant-baseline="ideographic">July 23, 1952</tspan>
        </text>
      </g>
    </g>
  </g>
  <g id="g-root-tx_may23241_qv9mtm1bsfw98-stroke-fill" data-item-order="0" transform="translate(428, 230)">
    <g id="tx_may23241_qv9mtm1bsfw98-fill" stroke="none" fill="#fb6762">
      <g>
        <text style="font: bold 20px Roboto, sans-serif; white-space: pre;" font-weight="bold" font-size="20px" font-family="Roboto, sans-serif">
          <tspan x="12" y="34" dominant-baseline="ideographic">May 23/24, 1952</tspan>
        </text>
      </g>
    </g>
  </g>
  <g id="g-root-tx_1946_dkflje1bsfuod-stroke-fill" data-item-order="0" transform="translate(272, 134)">
    <g id="tx_1946_dkflje1bsfuod-fill" stroke="none" fill="#4f91fc">
      <g>
        <text style="font: bold 20px Roboto, sans-serif; white-space: pre;" font-weight="bold" font-size="20px" font-family="Roboto, sans-serif">
          <tspan x="22.09" y="34" dominant-baseline="ideographic">1946</tspan>
        </text>
      </g>
    </g>
    <defs>
      <pattern id="crawlingPattern-0000001b" x="0" y="0" width="12" height="12" patternUnits="userSpaceOnUse" fill="#0000001b">
        <use href="#crawlingSymbol"/>
      </pattern>
      <symbol id="crawlingSymbol">
        <g>
          <path d="M -12.5 12.5 l 13 -13 l 6 0 l -13 13 Z M -0.5 12.5 l 13 -13 l 6 0 l -13 13 Z M 11.5 12.5 l 13 -13 l 6 0 l -13 13 Z"/>
        </g>
      </symbol>
      <pattern id="crawlingPattern-00b15c75" x="0" y="0" width="12" height="12" patternUnits="userSpaceOnUse" fill="#00b15c75">
        <use href="#crawlingSymbol"/>
      </pattern>
      <pattern id="crawlingPattern-3300fc7a" x="0" y="0" width="12" height="12" patternUnits="userSpaceOnUse" fill="#3300fc7a">
        <use href="#crawlingSymbol"/>
      </pattern>
      <pattern id="crawlingPattern-eb008e76" x="0" y="0" width="12" height="12" patternUnits="userSpaceOnUse" fill="#eb008e76">
        <use href="#crawlingSymbol"/>
      </pattern>
      <pattern id="crawlingPattern-f9080081" x="0" y="0" width="12" height="12" patternUnits="userSpaceOnUse" fill="#f9080081">
        <use href="#crawlingSymbol"/>
      </pattern>
      <pattern id="crawlingPattern-0060fba2" x="0" y="0" width="12" height="12" patternUnits="userSpaceOnUse" fill="#0060fba2">
        <use href="#crawlingSymbol"/>
      </pattern>
    </defs>
  </g>
</svg>
