<?xml version='1.0' encoding='utf-8'?>
<svg xmlns="http://www.w3.org/2000/svg" xmlns:xlink="http://www.w3.org/1999/xlink" width="1008" height="552" viewBox="0 0 1008 552" style="fill:none;stroke:none;fill-rule:evenodd;clip-rule:evenodd;stroke-linecap:round;stroke-linejoin:round;stroke-miterlimit:1.5;" version="1.1">
  <style class="text-font-style fontImports" data-font-family="Roboto">@import url('https://fonts.googleapis.com/css2?family=Roboto:wght@400;700&amp;display=block');</style>
  <rect x="0" y="0" width="1008" height="552" fill="#252a34" stroke="none" id="programmatic_background"/>
  <g id="g-root-tf_diksei1a48glk-stroke-fill" data-item-order="-519552" transform="translate(12, 12)"/>
  <g id="g-root-cp_0_g-0_6hsy21a403rb-stroke-fill" data-item-order="-404315" transform="translate(50.131011962890625, 248.5)">
    <g id="cp_0_g-0_6hsy21a403rb-stroke" fill="none" stroke-linecap="round" stroke-linejoin="round" stroke-miterlimit="4" stroke="#d3d3d3" stroke-width="2">
      <g>
        <path d="M 826 51L 898 51M 646 51L 802 51M 814 10L 814 39.5M 106 51L 262 51M 286 51L 442 51M 274 63.5L 274 93M 454 10L 454 39.5M 466 51L 622 51M 634 63.5L 634 93M 10 51L 82 51M 94 10L 94 39.5"/>
      </g>
    </g>
  </g>
  <g id="g-root-cp_1_g-1_1lwrtmy1a401zd-stroke-fill" data-item-order="-404292" transform="translate(89.13101196289062, 125)">
    <g id="cp_1_g-1_1lwrtmy1a401zd-fill" stroke="none" fill="none">
      <g>
        <path d="M 100 55C 100 66.244 94.5 77.5875 89 86L 55.816 132.848C 55.4175 133.411 54.5825 133.411 54.184 132.848L 21 86C 14.5 77 10 66.7284 10 55C 10 30.1472 30.1472 10 55 10C 79.8528 10 100 30.1472 100 55ZM 55 91C 74.8822 91 91 74.8822 91 55C 91 35.1177 74.8822 19 55 19C 35.1177 19 19 35.1177 19 55C 19 74.8822 35.1177 91 55 91Z"/>
      </g>
    </g>
    <g id="cp_1_g-1_1lwrtmy1a401zd-stroke" fill="none" stroke-linecap="round" stroke-linejoin="round" stroke-miterlimit="4" stroke="#4f91fc" stroke-width="2">
      <g>
        <path d="M 100 55C 100 66.244 94.5 77.5875 89 86L 55.816 132.848C 55.4175 133.4106 54.5825 133.4106 54.184 132.848L 21 86C 14.5 77 10 66.7284 10 55C 10 30.1472 30.1472 10 55 10C 79.8528 10 100 30.1472 100 55ZM 55 91C 74.8822 91 91 74.8822 91 55C 91 35.1177 74.8822 19 55 19C 35.1177 19 19 35.1177 19 55C 19 74.8822 35.1177 91 55 91Z"/>
      </g>
    </g>
    <g id="cp_1_g-1_1lwrtmy1a401zd-fill" stroke="none" fill="none">
      <g>
        <path d="M 55 187C 61.6274 187 67 181.6274 67 175C 67 168.3726 61.6274 163 55 163C 48.3726 163 43 168.3726 43 175C 43 181.6274 48.3726 187 55 187ZM 55 181C 58.3137 181 61 178.3137 61 175C 61 171.6863 58.3137 169 55 169C 51.6863 169 49 171.6863 49 175C 49 178.3137 51.6863 181 55 181Z"/>
      </g>
    </g>
    <g id="cp_1_g-1_1lwrtmy1a401zd-stroke" fill="none" stroke-linecap="round" stroke-linejoin="round" stroke-miterlimit="4" stroke="#4f91fc" stroke-width="2">
      <g>
        <path d="M 55 187C 61.6274 187 67 181.6274 67 175C 67 168.3726 61.6274 163 55 163C 48.3726 163 43 168.3726 43 175C 43 181.6274 48.3726 187 55 187ZM 55 181C 58.3137 181 61 178.3137 61 175C 61 171.6863 58.3137 169 55 169C 51.6863 169 49 171.6863 49 175C 49 178.3137 51.6863 181 55 181Z"/>
      </g>
    </g>
  </g>
  <g id="g-root-cp_2_g-2_18lbb9m1a403kc-stroke-fill" data-item-order="-404288" transform="translate(269.1309814453125, 278)">
    <g id="cp_2_g-2_18lbb9m1a403kc-fill" stroke="none" fill="none">
      <g>
        <path d="M 100 142.000369C 100 130.756469 94.5 119.412869 89 111.000369L 55.816 64.152469C 55.4175 63.589769 54.5825 63.589769 54.184 64.152469L 21 111.000369C 14.5 120.000369 10 130.271969 10 142.000369C 10 166.853469 30.1472 187.000469 55 187.000469C 79.8528 187.000469 100 166.853469 100 142.000369ZM 55 106.000369C 74.8822 106.000369 91 122.118169 91 142.000369C 91 161.882669 74.8822 178.000469 55 178.000469C 35.1177 178.000469 19 161.882669 19 142.000369C 19 122.118169 35.1177 106.000369 55 106.000369Z"/>
      </g>
    </g>
    <g id="cp_2_g-2_18lbb9m1a403kc-stroke" fill="none" stroke-linecap="round" stroke-linejoin="round" stroke-miterlimit="4" stroke="#fb6762" stroke-width="2">
      <g>
        <path d="M 100 142.000369C 100 130.756469 94.5 119.412869 89 111.000369L 55.816 64.152469C 55.4175 63.589769 54.5825 63.589769 54.184 64.152469L 21 111.000369C 14.5 120.000369 10 130.271969 10 142.000369C 10 166.853269 30.1472 187.000369 55 187.000369C 79.8528 187.000369 100 166.853269 100 142.000369ZM 55 106.000369C 74.8822 106.000369 91 122.118169 91 142.000369C 91 161.882669 74.8822 178.000369 55 178.000369C 35.1177 178.000369 19 161.882669 19 142.000369C 19 122.118169 35.1177 106.000369 55 106.000369Z"/>
      </g>
    </g>
    <g id="cp_2_g-2_18lbb9m1a403kc-fill" stroke="none" fill="none">
      <g>
        <path d="M 55 34C 61.6274 34 67 28.6274 67 22C 67 15.3726 61.6274 10 55 10C 48.3726 10 43 15.3726 43 22C 43 28.6274 48.3726 34 55 34ZM 55 28C 58.3137 28 61 25.3137 61 22C 61 18.6863 58.3137 16 55 16C 51.6863 16 49 18.6863 49 22C 49 25.3137 51.6863 28 55 28Z"/>
      </g>
    </g>
    <g id="cp_2_g-2_18lbb9m1a403kc-stroke" fill="none" stroke-linecap="round" stroke-linejoin="round" stroke-miterlimit="4" stroke="#fb6762" stroke-width="2">
      <g>
        <path d="M 55 34C 61.6274 34 67 28.6274 67 22C 67 15.3726 61.6274 10 55 10C 48.3726 10 43 15.3726 43 22C 43 28.6274 48.3726 34 55 34ZM 55 28C 58.3137 28 61 25.3137 61 22C 61 18.6863 58.3137 16 55 16C 51.6863 16 49 18.6863 49 22C 49 25.3137 51.6863 28 55 28Z"/>
      </g>
    </g>
  </g>
  <g id="g-root-cp_3_g-3_1464a8a1a4016v-stroke-fill" data-item-order="-404282" transform="translate(449.1310119628906, 125)">
    <g id="cp_3_g-3_1464a8a1a4016v-fill" stroke="none" fill="none">
      <g>
        <path d="M 100 55C 100 66.244 94.5 77.5875 89 86L 55.816 132.848C 55.4175 133.411 54.5825 133.411 54.184 132.848L 21 86C 14.5 77 10 66.7284 10 55C 10 30.1472 30.1472 10 55 10C 79.8528 10 100 30.1472 100 55ZM 55 91C 74.8822 91 91 74.8822 91 55C 91 35.1177 74.8822 19 55 19C 35.1177 19 19 35.1177 19 55C 19 74.8822 35.1177 91 55 91Z"/>
      </g>
    </g>
    <g id="cp_3_g-3_1464a8a1a4016v-stroke" fill="none" stroke-linecap="round" stroke-linejoin="round" stroke-miterlimit="4" stroke="#f366bb" stroke-width="2">
      <g>
        <path d="M 100 55C 100 66.244 94.5 77.5875 89 86L 55.816 132.848C 55.4175 133.4106 54.5825 133.4106 54.184 132.848L 21 86C 14.5 77 10 66.7284 10 55C 10 30.1472 30.1472 10 55 10C 79.8528 10 100 30.1472 100 55ZM 55 91C 74.8822 91 91 74.8822 91 55C 91 35.1177 74.8822 19 55 19C 35.1177 19 19 35.1177 19 55C 19 74.8822 35.1177 91 55 91Z"/>
      </g>
    </g>
    <g id="cp_3_g-3_1464a8a1a4016v-fill" stroke="none" fill="none">
      <g>
        <path d="M 55 187C 61.6274 187 67 181.6274 67 175C 67 168.3726 61.6274 163 55 163C 48.3726 163 43 168.3726 43 175C 43 181.6274 48.3726 187 55 187ZM 55 181C 58.3137 181 61 178.3137 61 175C 61 171.6863 58.3137 169 55 169C 51.6863 169 49 171.6863 49 175C 49 178.3137 51.6863 181 55 181Z"/>
      </g>
    </g>
    <g id="cp_3_g-3_1464a8a1a4016v-stroke" fill="none" stroke-linecap="round" stroke-linejoin="round" stroke-miterlimit="4" stroke="#f366bb" stroke-width="2">
      <g>
        <path d="M 55 187C 61.6274 187 67 181.6274 67 175C 67 168.3726 61.6274 163 55 163C 48.3726 163 43 168.3726 43 175C 43 181.6274 48.3726 187 55 187ZM 55 181C 58.3137 181 61 178.3137 61 175C 61 171.6863 58.3137 169 55 169C 51.6863 169 49 171.6863 49 175C 49 178.3137 51.6863 181 55 181Z"/>
      </g>
    </g>
  </g>
  <g id="g-root-cp_4_g-4_qunruy1a402ru-stroke-fill" data-item-order="-404276" transform="translate(629.1309814453125, 278)">
    <g id="cp_4_g-4_qunruy1a402ru-fill" stroke="none" fill="none">
      <g>
        <path d="M 100 142.000369C 100 130.756469 94.5 119.412869 89 111.000369L 55.816 64.152469C 55.4175 63.589769 54.5825 63.589769 54.184 64.152469L 21 111.000369C 14.5 120.000369 10 130.271969 10 142.000369C 10 166.853469 30.1472 187.000469 55 187.000469C 79.8528 187.000469 100 166.853469 100 142.000369ZM 55 106.000369C 74.8822 106.000369 91 122.118169 91 142.000369C 91 161.882669 74.8822 178.000469 55 178.000469C 35.1177 178.000469 19 161.882669 19 142.000369C 19 122.118169 35.1177 106.000369 55 106.000369Z"/>
      </g>
    </g>
    <g id="cp_4_g-4_qunruy1a402ru-stroke" fill="none" stroke-linecap="round" stroke-linejoin="round" stroke-miterlimit="4" stroke="#8769fd" stroke-width="2">
      <g>
        <path d="M 100 142.000369C 100 130.756469 94.5 119.412869 89 111.000369L 55.816 64.152469C 55.4175 63.589769 54.5825 63.589769 54.184 64.152469L 21 111.000369C 14.5 120.000369 10 130.271969 10 142.000369C 10 166.853269 30.1472 187.000369 55 187.000369C 79.8528 187.000369 100 166.853269 100 142.000369ZM 55 106.000369C 74.8822 106.000369 91 122.118169 91 142.000369C 91 161.882669 74.8822 178.000369 55 178.000369C 35.1177 178.000369 19 161.882669 19 142.000369C 19 122.118169 35.1177 106.000369 55 106.000369Z"/>
      </g>
    </g>
    <g id="cp_4_g-4_qunruy1a402ru-fill" stroke="none" fill="none">
      <g>
        <path d="M 55 34C 61.6274 34 67 28.6274 67 22C 67 15.3726 61.6274 10 55 10C 48.3726 10 43 15.3726 43 22C 43 28.6274 48.3726 34 55 34ZM 55 28C 58.3137 28 61 25.3137 61 22C 61 18.6863 58.3137 16 55 16C 51.6863 16 49 18.6863 49 22C 49 25.3137 51.6863 28 55 28Z"/>
      </g>
    </g>
    <g id="cp_4_g-4_qunruy1a402ru-stroke" fill="none" stroke-linecap="round" stroke-linejoin="round" stroke-miterlimit="4" stroke="#8769fd" stroke-width="2">
      <g>
        <path d="M 55 34C 61.6274 34 67 28.6274 67 22C 67 15.3726 61.6274 10 55 10C 48.3726 10 43 15.3726 43 22C 43 28.6274 48.3726 34 55 34ZM 55 28C 58.3137 28 61 25.3137 61 22C 61 18.6863 58.3137 16 55 16C 51.6863 16 49 18.6863 49 22C 49 25.3137 51.6863 28 55 28Z"/>
      </g>
    </g>
  </g>
  <g id="g-root-cp_5_g-5_meu9qi1a403k5-stroke-fill" data-item-order="-404270" transform="translate(809.1309814453125, 125)">
    <g id="cp_5_g-5_meu9qi1a403k5-fill" stroke="none" fill="none">
      <g>
        <path d="M 100 55C 100 66.244 94.5 77.5875 89 86L 55.816 132.848C 55.4175 133.411 54.5825 133.411 54.184 132.848L 21 86C 14.5 77 10 66.7284 10 55C 10 30.1472 30.1472 10 55 10C 79.8528 10 100 30.1472 100 55ZM 55 91C 74.8822 91 91 74.8822 91 55C 91 35.1177 74.8822 19 55 19C 35.1177 19 19 35.1177 19 55C 19 74.8822 35.1177 91 55 91Z"/>
      </g>
    </g>
    <g id="cp_5_g-5_meu9qi1a403k5-stroke" fill="none" stroke-linecap="round" stroke-linejoin="round" stroke-miterlimit="4" stroke="#43dd93" stroke-width="2">
      <g>
        <path d="M 100 55C 100 66.244 94.5 77.5875 89 86L 55.816 132.848C 55.4175 133.4106 54.5825 133.4106 54.184 132.848L 21 86C 14.5 77 10 66.7284 10 55C 10 30.1472 30.1472 10 55 10C 79.8528 10 100 30.1472 100 55ZM 55 91C 74.8822 91 91 74.8822 91 55C 91 35.1177 74.8822 19 55 19C 35.1177 19 19 35.1177 19 55C 19 74.8822 35.1177 91 55 91Z"/>
      </g>
    </g>
    <g id="cp_5_g-5_meu9qi1a403k5-fill" stroke="none" fill="none">
      <g>
        <path d="M 55 187C 61.6274 187 67 181.6274 67 175C 67 168.3726 61.6274 163 55 163C 48.3726 163 43 168.3726 43 175C 43 181.6274 48.3726 187 55 187ZM 55 181C 58.3137 181 61 178.3137 61 175C 61 171.6863 58.3137 169 55 169C 51.6863 169 49 171.6863 49 175C 49 178.3137 51.6863 181 55 181Z"/>
      </g>
    </g>
    <g id="cp_5_g-5_meu9qi1a403k5-stroke" fill="none" stroke-linecap="round" stroke-linejoin="round" stroke-miterlimit="4" stroke="#43dd93" stroke-width="2">
      <g>
        <path d="M 55 187C 61.6274 187 67 181.6274 67 175C 67 168.3726 61.6274 163 55 163C 48.3726 163 43 168.3726 43 175C 43 181.6274 48.3726 187 55 187ZM 55 181C 58.3137 181 61 178.3137 61 175C 61 171.6863 58.3137 169 55 169C 51.6863 169 49 171.6863 49 175C 49 178.3137 51.6863 181 55 181Z"/>
      </g>
    </g>
  </g>
  <g id="g-root-tx_orfeoang_9408ga1a401zc-stroke-fill" data-item-order="0" transform="translate(212, 50)">
    <g id="tx_orfeoang_9408ga1a401zc-fill" stroke="none" fill="#f4f4f4">
      <g>
        <text style="font: 20px Roboto, sans-serif; white-space: pre;" font-size="20px" font-family="Roboto, sans-serif">
          <tspan x="16.5" y="34" dominant-baseline="ideographic">Orfeo Angelucci's Journey Through Extraterrestrial Encounters</tspan>
        </text>
      </g>
    </g>
  </g>
  <g id="g-root-ic_ufo_1qegr0q1a400zl-stroke-fill" data-item-order="0" transform="translate(290.1310119628906, 386.0000305175781)">
    <g id="ic_ufo_1qegr0q1a400zl-stroke" fill="none" stroke-linecap="round" stroke-linejoin="round" stroke-miterlimit="4" stroke="#fb6762" stroke-width="2">
      <g>
        <path d="M 48.999973 22.499992C 52.977833 22.499033 56.352131 25.42087 56.919968 29.357986C 56.961418 29.646801 56.874657 29.939312 56.682442 30.158823C 56.490227 30.378332 56.211727 30.502945 55.919968 30.499987L 12.069999 30.499987C 11.778241 30.502945 11.499742 30.378332 11.307527 30.158823C 11.115312 29.939312 11.028553 29.646801 11.07 29.357986C 11.638376 25.417109 15.018343 22.494055 18.999994 22.499992ZM 18.999994 22.499992C 18.999994 17.499994 25.71599 11.499999 33.999985 11.499999C 42.283978 11.499999 48.999973 17.499994 48.999973 22.499992M 47.769978 39.499981L 52.995972 56.499969M 14.995996 56.499969L 20.231993 39.499981M 34.995983 49.499973L 31.995985 53.65197M 37.995983 53.499973L 34.995983 49.499973M 31.995985 46.499977L 37.995983 46.499977M 34.999985 41.499981C 35.552269 41.499981 35.999985 41.947697 35.999985 42.499977M 33.999985 42.499977C 33.999985 41.947697 34.447701 41.499981 34.999985 41.499981M 34.999985 43.499977C 34.447701 43.499977 33.999985 43.052261 33.999985 42.499977M 35.999985 42.499977C 35.999985 43.052261 35.552269 43.499977 34.999985 43.499977M 34.995983 49.499973L 34.995983 46.499977M 24.99999 30.499987C 24.99999 33.26141 22.761415 35.499985 19.999994 35.499985C 17.238571 35.499985 14.999997 33.26141 14.999997 30.499987M 38.999981 30.499987C 38.999981 33.26141 36.761406 35.499985 33.999985 35.499985C 31.238564 35.499985 28.999987 33.26141 28.999987 30.499987M 52.999973 30.499987C 52.999973 33.26141 50.761398 35.499985 47.999973 35.499985C 45.238552 35.499985 42.999977 33.26141 42.999977 30.499987"/>
      </g>
    </g>
  </g>
  <g id="g-root-tx_may23241_1hi79oq1a41ibu-stroke-fill" data-item-order="0" transform="translate(242, 134)">
    <g id="tx_may23241_1hi79oq1a41ibu-fill" stroke="none" fill="#fb6762">
      <g>
        <text style="font: bold 20px Roboto, sans-serif; white-space: pre;" font-weight="bold" font-size="20px" font-family="Roboto, sans-serif">
          <tspan x="11.89" y="34" dominant-baseline="ideographic">May 23/24, 1952</tspan>
        </text>
      </g>
    </g>
  </g>
  <g id="g-root-tx_firstenc_147d8ei1a41gqz-stroke-fill" data-item-order="0" transform="translate(254, 170)">
    <g id="tx_firstenc_147d8ei1a41gqz-fill" stroke="none" fill="#f4f4f4">
      <g>
        <text style="font: 15px Roboto, sans-serif; white-space: pre;" font-size="15px" font-family="Roboto, sans-serif">
          <tspan x="13.67" y="28" dominant-baseline="ideographic">First Encounter with </tspan>
          <tspan x="27.34" y="46" dominant-baseline="ideographic">Extraterrestrials</tspan>
        </text>
      </g>
    </g>
  </g>
  <g id="g-root-ic_spac_qvwq161a41ibw-stroke-fill" data-item-order="0" transform="translate(650.1309814453125, 386)">
    <g id="ic_spac_qvwq161a41ibw-stroke" fill="none" stroke-linecap="round" stroke-linejoin="round" stroke-miterlimit="4" stroke="#8769fd" stroke-width="2">
      <g>
        <path d="M 55 38.778C 55.277088 35.387177 53.624859 32.128418 50.725849 30.347918C 47.826839 28.567417 44.173161 28.567417 41.274147 30.347918C 38.375137 32.128418 36.722908 35.387177 37 38.778L 37 57L 55 57ZM 39.006001 18C 39.006004 21.865993 42.140007 25 46.006001 25C 49.871994 25 53.006001 21.865993 53.006001 18C 53.006001 14.134007 49.871994 11 46.006001 11C 42.140007 11 39.006004 14.134007 39.006004 18ZM 25.006001 18C 25.006001 20.761425 27.244577 23 30.006001 23C 32.767426 23 35.006001 20.761425 35.006001 18C 35.006001 15.238577 32.767426 13 30.006001 13C 27.244577 13 25.006001 15.238577 25.006001 18ZM 15.006001 18C 15.006001 19.656855 16.349146 21 18.006001 21C 19.662853 21 21.006001 19.656855 21.006001 18C 21.006001 16.343145 19.662853 15 18.006001 15C 16.349146 15 15.006001 16.343145 15.006001 18ZM 23 34C 23 30.134008 26.134008 27.000002 30 27.000002C 33.865993 27.000002 37 30.134008 37 34L 37 49L 23 49ZM 13 30C 13 27.238577 15.238577 25 18 25C 20.761425 25 23 27.238577 23 30L 23 39L 13 39Z"/>
      </g>
    </g>
  </g>
  <g id="g-root-tx_august31_dl2oqy1a42u4t-stroke-fill" data-item-order="0" transform="translate(614, 134)">
    <g id="tx_august31_dl2oqy1a42u4t-fill" stroke="none" fill="#8769fd">
      <g>
        <text style="font: bold 20px Roboto, sans-serif; white-space: pre;" font-weight="bold" font-size="20px" font-family="Roboto, sans-serif">
          <tspan x="13.78" y="34" dominant-baseline="ideographic">August 3, 1952</tspan>
        </text>
      </g>
    </g>
  </g>
  <g id="g-root-tx_facetofa_9m6dm1a42vpq-stroke-fill" data-item-order="0" transform="translate(602, 170)">
    <g id="tx_facetofa_9m6dm1a42vpq-fill" stroke="none" fill="#f4f4f4">
      <g>
        <text style="font: 15px Roboto, sans-serif; white-space: pre;" font-size="15px" font-family="Roboto, sans-serif">
          <tspan x="14.33" y="28" dominant-baseline="ideographic">Face-to-Face Meeting </tspan>
          <tspan x="24.77" y="46" dominant-baseline="ideographic">with Space People</tspan>
        </text>
      </g>
    </g>
  </g>
  <g id="g-root-tx_1946_1ha33ka1a449af-stroke-fill" data-item-order="0" transform="translate(158, 374)">
    <g id="tx_1946_1ha33ka1a449af-fill" stroke="none" fill="#4f91fc">
      <g>
        <text style="font: bold 20px Roboto, sans-serif; white-space: pre;" font-weight="bold" font-size="20px" font-family="Roboto, sans-serif">
          <tspan x="17.05" y="34" dominant-baseline="ideographic">1946</tspan>
        </text>
      </g>
    </g>
  </g>
  <g id="g-root-tx_angelucc_13yml6y1a44avc-stroke-fill" data-item-order="0" transform="translate(74, 410)">
    <g id="tx_angelucc_13yml6y1a44avc-fill" stroke="none" fill="#f4f4f4">
      <g>
        <text style="font: 15px Roboto, sans-serif; white-space: pre;" font-size="15px" font-family="Roboto, sans-serif">
          <tspan x="12.82" y="28" dominant-baseline="ideographic">Angelucci's Weather </tspan>
          <tspan x="15.48" y="46" dominant-baseline="ideographic">Balloon Experiment</tspan>
        </text>
      </g>
    </g>
  </g>
  <g id="g-root-ic_tree_qnsjwq1a449ah-stroke-fill" data-item-order="0" transform="translate(110.1309814453125, 146)">
    <g id="ic_tree_qnsjwq1a449ah-stroke" fill="none" stroke-linecap="round" stroke-linejoin="round" stroke-miterlimit="4" stroke="#4f91fc" stroke-width="2">
      <g>
        <path d="M 41.720001 49C 42.02779 49.000084 42.318394 49.141903 42.507843 49.38448C 42.697296 49.627056 42.764484 49.943359 42.689999 50.242001L 42.514 50.939999C 41.623878 54.501038 38.424599 56.999443 34.753998 57L 28.246 57C 24.575401 56.999443 21.376122 54.501038 20.486 50.939999L 20.310001 50.242001C 20.235516 49.943359 20.302704 49.627056 20.492157 49.38448C 20.681606 49.141903 20.97221 49.000084 21.279999 49ZM 57 26C 56.96265 22.649437 54.216572 19.963346 50.865997 20C 49.666992 19.999687 48.493614 20.347046 47.487999 21C 46.54134 17.729162 43.53904 15.483764 40.134003 15.5C 38.806366 15.5063 37.502892 15.855594 36.349998 16.514C 34.82843 13.066254 31.366613 10.886992 27.599911 11.005691C 23.833208 11.124389 20.515476 13.517292 19.214001 17.054001C 19.029999 17.042 18.854 17 18.666 17C 14.478147 16.954464 11.04614 20.312153 11 24.5C 11.027463 27.01296 13.087044 29.027767 15.6 29L 53.933998 29C 55.608894 29.017771 56.981323 27.674887 57 26ZM 31 49L 32.538002 43.616001L 42.813999 39.762001C 44.096863 39.28009 44.917461 38.020134 44.839542 36.651962C 44.761623 35.283783 43.80328 34.125141 42.473999 33.792L 38.599998 32.823997C 36.846024 32.384567 35.615913 30.808182 35.615997 28.999998M 32.538002 43.616001L 25.24 40M 17.812 40L 25.24 40C 26.192822 38.571991 26.249292 36.726036 25.385544 35.242455C 24.521793 33.758873 22.888603 32.896648 21.176355 33.02026C 19.464108 33.143867 17.971699 34.231735 17.33 35.823997C 16.86426 35.302513 16.199181 35.003044 15.5 35C 14.119288 35 13 36.119289 13 37.5C 13 38.880714 14.119288 40 15.5 40Z"/>
      </g>
    </g>
  </g>
  <g id="g-root-tx_july2319_1umsk3u1a45n9e-stroke-fill" data-item-order="0" transform="translate(446, 374)">
    <g id="tx_july2319_1umsk3u1a45n9e-fill" stroke="none" fill="#f366bb">
      <g>
        <text style="font: bold 20px Roboto, sans-serif; white-space: pre;" font-weight="bold" font-size="20px" font-family="Roboto, sans-serif">
          <tspan x="15.27" y="34" dominant-baseline="ideographic">July 23, 1952</tspan>
        </text>
      </g>
    </g>
  </g>
  <g id="g-root-tx_seconden_18fp1hm1a45pmz-stroke-fill" data-item-order="0" transform="translate(410, 410)">
    <g id="tx_seconden_18fp1hm1a45pmz-fill" stroke="none" fill="#f4f4f4">
      <g>
        <text style="font: 15px Roboto, sans-serif; white-space: pre;" font-size="15px" font-family="Roboto, sans-serif">
          <tspan x="17.09" y="28" dominant-baseline="ideographic">Second Encounter and </tspan>
          <tspan x="17.61" y="46" dominant-baseline="ideographic">Spacecraft Experience</tspan>
        </text>
      </g>
    </g>
  </g>
  <g id="g-root-ic_laun_v4v07e1a45o24-stroke-fill" data-item-order="0" transform="translate(470.1310119628906, 146)">
    <g id="ic_laun_v4v07e1a45o24-stroke" fill="none" stroke-linecap="round" stroke-linejoin="round" stroke-miterlimit="4" stroke="#f366bb" stroke-width="2">
      <g>
        <path d="M 19.999994 18.219995L 11.999999 11.02L 11.999999 56.999969L 19.999994 56.999969L 19.999994 18.219995ZM 19.999994 27.019989L 27.999989 27.019989M 41.999977 46.979977C 41.999977 46.979977 39.999981 22.979992 39.999981 20.979992C 39.999981 17.999994 44.999977 10.98 44.999977 10.98C 44.999977 10.98 49.999973 17.999994 49.999973 20.979992C 49.999973 24.97999 47.999973 46.979977 47.999973 46.979977ZM 48.979973 35.719982L 49.999973 36.999981C 51.814121 39.224365 53.484196 41.562466 54.999966 43.999973C 55.645096 45.588829 55.984371 47.285221 55.999969 48.999973L 55.999969 52.639973C 56.002342 53.043682 55.76173 53.409218 55.38998 53.566666C 55.01823 53.724106 54.588272 53.642578 54.299969 53.359974L 47.999973 46.979977M 41.079979 35.679985L 39.999981 36.999981C 38.15321 39.218014 36.456123 41.556519 34.919983 43.999977C 34.2999 45.593475 33.987713 47.290131 33.999985 48.999977L 33.999985 52.619972C 34.001999 53.023674 34.246559 53.38657 34.619984 53.539974C 34.99102 53.695206 35.419239 53.607979 35.699986 53.319973L 41.999977 46.979977M 46.999977 51.999973C 46.532814 53.739674 45.861481 55.418003 44.999977 56.999969C 44.138474 55.418003 43.467144 53.739674 42.999977 51.999973C 42.999977 50.895405 43.895409 49.999973 44.999977 49.999973C 46.104546 49.999973 46.999977 50.895405 46.999977 51.999973ZM 19.999994 21.219994L 11.999999 29.219986L 19.999994 36.719982L 11.999999 44.219978L 19.999994 52.219975M 32.999985 32.219986C 30.238564 32.219986 27.999989 29.981411 27.999989 27.219988C 27.999989 24.458567 30.238564 22.219992 32.999985 22.219992"/>
      </g>
    </g>
  </g>
  <g id="g-root-tx_1955_magy4q1a474el-stroke-fill" data-item-order="0" transform="translate(878, 374)">
    <g id="tx_1955_magy4q1a474el-fill" stroke="none" fill="#43dd93">
      <g>
        <text style="font: bold 20px Roboto, sans-serif; white-space: pre;" font-weight="bold" font-size="20px" font-family="Roboto, sans-serif">
          <tspan x="17.05" y="34" dominant-baseline="ideographic">1955</tspan>
        </text>
      </g>
    </g>
  </g>
  <g id="g-root-tx_publicat_8zmwui1a472tq-stroke-fill" data-item-order="0" transform="translate(782, 410)">
    <g id="tx_publicat_8zmwui1a472tq-fill" stroke="none" fill="#f4f4f4">
      <g>
        <text style="font: 15px Roboto, sans-serif; white-space: pre;" font-size="15px" font-family="Roboto, sans-serif">
          <tspan x="24.98" y="28" dominant-baseline="ideographic">Publication of "The </tspan>
          <tspan x="16.73" y="46" dominant-baseline="ideographic">Secret of the Saucers</tspan>
        </text>
      </g>
    </g>
    <defs>
      <pattern id="crawlingPattern-0000001b" x="0" y="0" width="12" height="12" patternUnits="userSpaceOnUse" fill="#0000001b">
        <use href="#crawlingSymbol"/>
      </pattern>
      <symbol id="crawlingSymbol">
        <g>
          <path d="M -12.5 12.5 l 13 -13 l 6 0 l -13 13 Z M -0.5 12.5 l 13 -13 l 6 0 l -13 13 Z M 11.5 12.5 l 13 -13 l 6 0 l -13 13 Z"/>
        </g>
      </symbol>
      <pattern id="crawlingPattern-f9080081" x="0" y="0" width="12" height="12" patternUnits="userSpaceOnUse" fill="#f9080081">
        <use href="#crawlingSymbol"/>
      </pattern>
      <pattern id="crawlingPattern-3300fc7a" x="0" y="0" width="12" height="12" patternUnits="userSpaceOnUse" fill="#3300fc7a">
        <use href="#crawlingSymbol"/>
      </pattern>
      <pattern id="crawlingPattern-0060fba2" x="0" y="0" width="12" height="12" patternUnits="userSpaceOnUse" fill="#0060fba2">
        <use href="#crawlingSymbol"/>
      </pattern>
      <pattern id="crawlingPattern-eb008e76" x="0" y="0" width="12" height="12" patternUnits="userSpaceOnUse" fill="#eb008e76">
        <use href="#crawlingSymbol"/>
      </pattern>
      <pattern id="crawlingPattern-00b15c75" x="0" y="0" width="12" height="12" patternUnits="userSpaceOnUse" fill="#00b15c75">
        <use href="#crawlingSymbol"/>
      </pattern>
    </defs>
  </g>
  <g id="g-root-ic_circ_1qa3fey1a471tz-stroke-fill" data-item-order="0" transform="translate(830.1309814453125, 146)">
    <g id="ic_circ_1qa3fey1a471tz-stroke" fill="none" stroke-linecap="round" stroke-linejoin="round" stroke-miterlimit="4" stroke="#43dd93" stroke-width="2">
      <g>
        <path d="M 11 34C 11 46.702549 21.297451 57 34 57C 46.702549 57 57 46.702549 57 34C 57 21.297451 46.702549 11 34 11C 21.297451 11 11 21.297451 11 34M 30.139999 30C 32.860001 32.779999 38.139999 32 41.5 30C 44.860001 28 47.740002 24.360001 46.139999 21.58C 44.98 19.58 40.700001 15.58 31.52 20.639999C 22.34 25.700001 19.200001 30.9 21.860001 33.879997C 24.52 36.860001 33.080002 40.52 30 45.400002C 26.92 50.279999 24.439999 50.119999 23.360001 49.400002C 22.279999 48.68 21.220001 45.619999 25.82 42.779999C 30.42 39.940002 34.82 39.419998 37.18 40.779999C 39.540001 42.139999 40.279999 45.34 37.879997 46.779999"/>
      </g>
    </g>
  </g>
</svg>
