<svg width="792" height="588" viewBox="0 0 792 588" style="fill:none;stroke:none;fill-rule:evenodd;clip-rule:evenodd;stroke-linecap:round;stroke-linejoin:round;stroke-miterlimit:1.5;" version="1.1" xmlns="http://www.w3.org/2000/svg" xmlns:xlink="http://www.w3.org/1999/xlink"><style class="text-font-style fontImports" data-font-family="Roboto">@import url('https://fonts.googleapis.com/css2?family=Roboto:wght@400;700&amp;display=block');</style><g id="g-root-tf_deun6y19uk4xu-stroke-fill" data-item-order="-430164" transform="translate(18, 12)"></g><g id="g-root-sy_-1_Vector_4g39ii19uk4jv-stroke-fill" data-item-order="-18235" transform="translate(379.99609375, 149)"><g id="sy_-1_Vector_4g39ii19uk4jv-stroke" fill="none" stroke-linecap="round" stroke-linejoin="round" stroke-miterlimit="4" stroke="#f4f4f4" stroke-width="2"><g><path d="M 10 292L 10 202M 10 196L 10 106M 10 100L 10 10"></path></g></g><g id="sy_-1_Vector_4g39ii19uk4jv-stroke-overlay" fill="none" stroke-linecap="round" stroke-linejoin="round" stroke-miterlimit="4" stroke="#3131311a" stroke-width="2" stroke-dasharray="4,6"><animate attributeName="stroke-dashoffset" values="30;0" dur="1s" repeatCount="indefinite" begin="0"></animate><g><path d="M 10 292L 10 202M 10 196L 10 106M 10 100L 10 10"></path></g></g></g><g id="g-root-sy_-1_cu_9re219uk5c4-stroke-fill" data-item-order="-18231" transform="translate(379.99609375, 437)"><g id="sy_-1_cu_9re219uk5c4-stroke" fill="none" stroke-linecap="round" stroke-linejoin="round" stroke-miterlimit="4" stroke="#f4f4f4" stroke-width="2"><g><path d="M 10.003906 94L 10.003906 10"></path><path d="M 3.503906 88L 10.003906 94.5L 16.503906 88" stroke-dasharray="none"></path></g></g><g id="sy_-1_cu_9re219uk5c4-stroke-overlay" fill="none" stroke-linecap="round" stroke-linejoin="round" stroke-miterlimit="4" stroke="#3131311a" stroke-width="2" stroke-dasharray="4,6"><animate attributeName="stroke-dashoffset" values="30;0" dur="1s" repeatCount="indefinite" begin="0"></animate><g><path d="M 10.003906 94L 10.003906 10"></path><path d="M 3.503906 88L 10.003906 94.5L 16.503906 88" stroke-dasharray="none"></path></g></g></g><g id="g-root-sy_4_cu_9re219uk5c5-stroke-fill" data-item-order="-18228" transform="translate(377, 431)"><g id="sy_4_cu_9re219uk5c5-fill" stroke="none" fill="none"><g><path d="M 13 10L 13 10C 13 10 16 10 16 13L 16 13C 16 13 16 16 13 16L 13 16C 13 16 10 16 10 13L 10 13C 10 13 10 10 13 10"></path></g></g><g id="sy_4_cu_9re219uk5c5-stroke" fill="none" stroke-linecap="round" stroke-linejoin="round" stroke-miterlimit="4" stroke="#a6da37" stroke-width="2"><g><path d="M 13 10L 13 10C 13 10 16 10 16 13L 16 13C 16 13 16 16 13 16L 13 16C 13 16 10 16 10 13L 10 13C 10 13 10 10 13 10"></path></g></g><g id="sy_4_cu_9re219uk5c5-stroke-overlay" fill="none" stroke-linecap="round" stroke-linejoin="round" stroke-miterlimit="4" stroke="#6b9d0056" stroke-width="2" stroke-dasharray="4,6"><animate attributeName="stroke-dashoffset" values="30;0" dur="1s" repeatCount="indefinite" begin="0"></animate><g><path d="M 13 10L 13 10C 13 10 16 10 16 13L 16 13C 16 13 16 16 13 16L 13 16C 13 16 10 16 10 13L 10 13C 10 13 10 10 13 10"></path></g></g><g id="sy_4_cu_9re219uk5c5-stroke" fill="none" stroke-linecap="round" stroke-linejoin="round" stroke-miterlimit="4" stroke="#a6da37" stroke-width="2"><g><path d="M 37 13L 16 13"></path></g></g><g id="sy_4_cu_9re219uk5c5-stroke-overlay" fill="none" stroke-linecap="round" stroke-linejoin="round" stroke-miterlimit="4" stroke="#6b9d0056" stroke-width="2" stroke-dasharray="4,6"><animate attributeName="stroke-dashoffset" values="30;0" dur="1s" repeatCount="indefinite" begin="0"></animate><g><path d="M 37 13L 16 13"></path></g></g></g><g id="g-root-sy_3_cu_1q5qt4a19uk5xq-stroke-fill" data-item-order="-18224" transform="translate(356, 335)"><g id="sy_3_cu_1q5qt4a19uk5xq-fill" stroke="none" fill="none"><g><path d="M 34 10L 34 10C 34 10 37 10 37 13L 37 13C 37 13 37 16 34 16L 34 16C 34 16 31 16 31 13L 31 13C 31 13 31 10 34 10"></path></g></g><g id="sy_3_cu_1q5qt4a19uk5xq-stroke" fill="none" stroke-linecap="round" stroke-linejoin="round" stroke-miterlimit="4" stroke="#43dd93" stroke-width="2"><g><path d="M 34 10L 34 10C 34 10 37 10 37 13L 37 13C 37 13 37 16 34 16L 34 16C 34 16 31 16 31 13L 31 13C 31 13 31 10 34 10"></path></g></g><g id="sy_3_cu_1q5qt4a19uk5xq-stroke-overlay" fill="none" stroke-linecap="round" stroke-linejoin="round" stroke-miterlimit="4" stroke="#00c5676e" stroke-width="2" stroke-dasharray="4,6"><animate attributeName="stroke-dashoffset" values="30;0" dur="1s" repeatCount="indefinite" begin="0"></animate><g><path d="M 34 10L 34 10C 34 10 37 10 37 13L 37 13C 37 13 37 16 34 16L 34 16C 34 16 31 16 31 13L 31 13C 31 13 31 10 34 10"></path></g></g><g id="sy_3_cu_1q5qt4a19uk5xq-stroke" fill="none" stroke-linecap="round" stroke-linejoin="round" stroke-miterlimit="4" stroke="#43dd93" stroke-width="2"><g><path d="M 31 13L 10 13"></path></g></g><g id="sy_3_cu_1q5qt4a19uk5xq-stroke-overlay" fill="none" stroke-linecap="round" stroke-linejoin="round" stroke-miterlimit="4" stroke="#00c5676e" stroke-width="2" stroke-dasharray="4,6"><animate attributeName="stroke-dashoffset" values="30;0" dur="1s" repeatCount="indefinite" begin="0"></animate><g><path d="M 31 13L 10 13"></path></g></g></g><g id="g-root-sy_2_cu_1lqjs2y19uk3k7-stroke-fill" data-item-order="-18220" transform="translate(377, 239)"><g id="sy_2_cu_1lqjs2y19uk3k7-fill" stroke="none" fill="none"><g><path d="M 13 10L 13 10C 13 10 16 10 16 13L 16 13C 16 13 16 16 13 16L 13 16C 13 16 10 16 10 13L 10 13C 10 13 10 10 13 10"></path></g></g><g id="sy_2_cu_1lqjs2y19uk3k7-stroke" fill="none" stroke-linecap="round" stroke-linejoin="round" stroke-miterlimit="4" stroke="#1ac3fb" stroke-width="2"><g><path d="M 13 10L 13 10C 13 10 16 10 16 13L 16 13C 16 13 16 16 13 16L 13 16C 13 16 10 16 10 13L 10 13C 10 13 10 10 13 10"></path></g></g><g id="sy_2_cu_1lqjs2y19uk3k7-stroke-overlay" fill="none" stroke-linecap="round" stroke-linejoin="round" stroke-miterlimit="4" stroke="#00ade7d7" stroke-width="2" stroke-dasharray="4,6"><animate attributeName="stroke-dashoffset" values="30;0" dur="1s" repeatCount="indefinite" begin="0"></animate><g><path d="M 13 10L 13 10C 13 10 16 10 16 13L 16 13C 16 13 16 16 13 16L 13 16C 13 16 10 16 10 13L 10 13C 10 13 10 10 13 10"></path></g></g><g id="sy_2_cu_1lqjs2y19uk3k7-stroke" fill="none" stroke-linecap="round" stroke-linejoin="round" stroke-miterlimit="4" stroke="#1ac3fb" stroke-width="2"><g><path d="M 37 13L 16 13"></path></g></g><g id="sy_2_cu_1lqjs2y19uk3k7-stroke-overlay" fill="none" stroke-linecap="round" stroke-linejoin="round" stroke-miterlimit="4" stroke="#00ade7d7" stroke-width="2" stroke-dasharray="4,6"><animate attributeName="stroke-dashoffset" values="30;0" dur="1s" repeatCount="indefinite" begin="0"></animate><g><path d="M 37 13L 16 13"></path></g></g></g><g id="g-root-sy_1_cu_1haq9yi19uk4cg-stroke-fill" data-item-order="-18216" transform="translate(356, 143)"><g id="sy_1_cu_1haq9yi19uk4cg-fill" stroke="none" fill="none"><g><path d="M 34 10L 34 10C 34 10 37 10 37 13L 37 13C 37 13 37 16 34 16L 34 16C 34 16 31 16 31 13L 31 13C 31 13 31 10 34 10"></path></g></g><g id="sy_1_cu_1haq9yi19uk4cg-stroke" fill="none" stroke-linecap="round" stroke-linejoin="round" stroke-miterlimit="4" stroke="#4f91fc" stroke-width="2"><g><path d="M 34 10L 34 10C 34 10 37 10 37 13L 37 13C 37 13 37 16 34 16L 34 16C 34 16 31 16 31 13L 31 13C 31 13 31 10 34 10"></path></g></g><g id="sy_1_cu_1haq9yi19uk4cg-stroke-overlay" fill="none" stroke-linecap="round" stroke-linejoin="round" stroke-miterlimit="4" stroke="#0060fb7c" stroke-width="2" stroke-dasharray="4,6"><animate attributeName="stroke-dashoffset" values="30;0" dur="1s" repeatCount="indefinite" begin="0"></animate><g><path d="M 34 10L 34 10C 34 10 37 10 37 13L 37 13C 37 13 37 16 34 16L 34 16C 34 16 31 16 31 13L 31 13C 31 13 31 10 34 10"></path></g></g><g id="sy_1_cu_1haq9yi19uk4cg-stroke" fill="none" stroke-linecap="round" stroke-linejoin="round" stroke-miterlimit="4" stroke="#4f91fc" stroke-width="2"><g><path d="M 31 13L 10 13"></path></g></g><g id="sy_1_cu_1haq9yi19uk4cg-stroke-overlay" fill="none" stroke-linecap="round" stroke-linejoin="round" stroke-miterlimit="4" stroke="#0060fb7c" stroke-width="2" stroke-dasharray="4,6"><animate attributeName="stroke-dashoffset" values="30;0" dur="1s" repeatCount="indefinite" begin="0"></animate><g><path d="M 31 13L 10 13"></path></g></g></g><g id="g-root-tx_the1957r_18f39pm19uk555-stroke-fill" data-item-order="0" transform="translate(122, 50)"><g id="tx_the1957r_18f39pm19uk555-fill" stroke="none" fill="#f4f4f4"><g><text style="font: 20px Roboto, sans-serif; white-space: pre;" font-size="20px" font-family="Roboto, sans-serif"><tspan x="13.08" y="34" dominant-baseline="ideographic">The 1957 RB-47 UFO Encounter: A Chronological Analysis</tspan></text></g></g><g id="tx_the1957r_18f39pm19uk555-fill-overlay" stroke="none" fill="url(#crawlingPattern-0000001b)"><g><text style="font: 20px Roboto, sans-serif; white-space: pre;" font-size="20px" font-family="Roboto, sans-serif"><tspan x="13.08" y="34" dominant-baseline="ideographic">The 1957 RB-47 UFO Encounter: A Chronological Analysis</tspan></text></g></g></g><g id="g-root-tx_finalcon_v498fe19uk3ka-stroke-fill" data-item-order="0" transform="translate(428, 458)"><g id="tx_finalcon_v498fe19uk3ka-fill" stroke="none" fill="#f4f4f4"><g><text style="font: 20px Roboto, sans-serif; white-space: pre;" font-size="20px" font-family="Roboto, sans-serif"><tspan x="12" y="34" dominant-baseline="ideographic">Final contact with the object near </tspan><tspan x="12" y="58" dominant-baseline="ideographic">Oklahoma City</tspan></text></g></g><g id="tx_finalcon_v498fe19uk3ka-fill-overlay" stroke="none" fill="url(#crawlingPattern-0000001b)"><g><text style="font: 20px Roboto, sans-serif; white-space: pre;" font-size="20px" font-family="Roboto, sans-serif"><tspan x="12" y="34" dominant-baseline="ideographic">Final contact with the object near </tspan><tspan x="12" y="58" dominant-baseline="ideographic">Oklahoma City</tspan></text></g></g></g><g id="g-root-tx_groundra_hssq2219uk557-stroke-fill" data-item-order="0" transform="translate(68, 362)"><g id="tx_groundra_hssq2219uk557-fill" stroke="none" fill="#f4f4f4"><g><text style="font: 20px Roboto, sans-serif; white-space: pre;" font-size="20px" font-family="Roboto, sans-serif"><tspan x="14.53" y="34" dominant-baseline="ideographic">Ground radar confirmation of </tspan><tspan x="110.41" y="58" dominant-baseline="ideographic">unidentified target</tspan></text></g></g><g id="tx_groundra_hssq2219uk557-fill-overlay" stroke="none" fill="url(#crawlingPattern-0000001b)"><g><text style="font: 20px Roboto, sans-serif; white-space: pre;" font-size="20px" font-family="Roboto, sans-serif"><tspan x="14.53" y="34" dominant-baseline="ideographic">Ground radar confirmation of </tspan><tspan x="110.41" y="58" dominant-baseline="ideographic">unidentified target</tspan></text></g></g></g><g id="g-root-tx_visualsi_dcz7xm19uk5xg-stroke-fill" data-item-order="0" transform="translate(428, 266)"><g id="tx_visualsi_dcz7xm19uk5xg-fill" stroke="none" fill="#f4f4f4"><g><text style="font: 20px Roboto, sans-serif; white-space: pre;" font-size="20px" font-family="Roboto, sans-serif"><tspan x="12" y="34" dominant-baseline="ideographic">Visual sighting of a bluish-white </tspan><tspan x="12" y="58" dominant-baseline="ideographic">light by pilot Lewis Chase</tspan></text></g></g><g id="tx_visualsi_dcz7xm19uk5xg-fill-overlay" stroke="none" fill="url(#crawlingPattern-0000001b)"><g><text style="font: 20px Roboto, sans-serif; white-space: pre;" font-size="20px" font-family="Roboto, sans-serif"><tspan x="12" y="34" dominant-baseline="ideographic">Visual sighting of a bluish-white </tspan><tspan x="12" y="58" dominant-baseline="ideographic">light by pilot Lewis Chase</tspan></text></g></g></g><g id="g-root-tx_detectio_256ne19uk4cl-stroke-fill" data-item-order="0" transform="translate(32, 170)"><g id="tx_detectio_256ne19uk4cl-fill" stroke="none" fill="#f4f4f4"><g><text style="font: 20px Roboto, sans-serif; white-space: pre;" font-size="20px" font-family="Roboto, sans-serif"><tspan x="15" y="34" dominant-baseline="ideographic">Detection of unusual radar signal </tspan><tspan x="81.25" y="58" dominant-baseline="ideographic">near Gulfport, Mississippi</tspan></text></g></g><g id="tx_detectio_256ne19uk4cl-fill-overlay" stroke="none" fill="url(#crawlingPattern-0000001b)"><g><text style="font: 20px Roboto, sans-serif; white-space: pre;" font-size="20px" font-family="Roboto, sans-serif"><tspan x="15" y="34" dominant-baseline="ideographic">Detection of unusual radar signal </tspan><tspan x="81.25" y="58" dominant-baseline="ideographic">near Gulfport, Mississippi</tspan></text></g></g></g><g id="g-root-tx_july1719_1lrsq9619uk5qe-stroke-fill" data-item-order="0" transform="translate(428, 422)"><g id="tx_july1719_1lrsq9619uk5qe-fill" stroke="none" fill="#a6da37"><g><text style="font: bold 20px Roboto, sans-serif; white-space: pre;" font-weight="bold" font-size="20px" font-family="Roboto, sans-serif"><tspan x="12" y="34" dominant-baseline="ideographic">July 17, 1957, 1.5 hours later</tspan></text></g></g><g id="tx_july1719_1lrsq9619uk5qe-fill-overlay" stroke="none" fill="url(#crawlingPattern-5c87005e)"><g><text style="font: bold 20px Roboto, sans-serif; white-space: pre;" font-weight="bold" font-size="20px" font-family="Roboto, sans-serif"><tspan x="12" y="34" dominant-baseline="ideographic">July 17, 1957, 1.5 hours later</tspan></text></g></g></g><g id="g-root-tx_july1719_1cws73e19uk3db-stroke-fill" data-item-order="0" transform="translate(68, 326)"><g id="tx_july1719_1cws73e19uk3db-fill" stroke="none" fill="#43dd93"><g><text style="font: bold 20px Roboto, sans-serif; white-space: pre;" font-weight="bold" font-size="20px" font-family="Roboto, sans-serif"><tspan x="21.92" y="34" dominant-baseline="ideographic">July 17, 1957, 4:30 AM CST</tspan></text></g></g><g id="tx_july1719_1cws73e19uk3db-fill-overlay" stroke="none" fill="url(#crawlingPattern-00b15c75)"><g><text style="font: bold 20px Roboto, sans-serif; white-space: pre;" font-weight="bold" font-size="20px" font-family="Roboto, sans-serif"><tspan x="21.92" y="34" dominant-baseline="ideographic">July 17, 1957, 4:30 AM CST</tspan></text></g></g></g><g id="g-root-tx_july1719_14156ui19uk4xs-stroke-fill" data-item-order="0" transform="translate(428, 230)"><g id="tx_july1719_14156ui19uk4xs-fill" stroke="none" fill="#1ac3fb"><g><text style="font: bold 20px Roboto, sans-serif; white-space: pre;" font-weight="bold" font-size="20px" font-family="Roboto, sans-serif"><tspan x="12" y="34" dominant-baseline="ideographic">July 17, 1957, 4:10 AM CST</tspan></text></g></g><g id="tx_july1719_14156ui19uk4xs-fill-overlay" stroke="none" fill="url(#crawlingPattern-00a3d9d9)"><g><text style="font: bold 20px Roboto, sans-serif; white-space: pre;" font-weight="bold" font-size="20px" font-family="Roboto, sans-serif"><tspan x="12" y="34" dominant-baseline="ideographic">July 17, 1957, 4:10 AM CST</tspan></text></g></g></g><g id="g-root-tx_july1719_v5i6lm19uk5qh-stroke-fill" data-item-order="0" transform="translate(68, 134)"><g id="tx_july1719_v5i6lm19uk5qh-fill" stroke="none" fill="#4f91fc"><g><text style="font: bold 20px Roboto, sans-serif; white-space: pre;" font-weight="bold" font-size="20px" font-family="Roboto, sans-serif"><tspan x="21.92" y="34" dominant-baseline="ideographic">July 17, 1957, 4:00 AM CST</tspan></text></g></g><defs><pattern id="crawlingPattern-0000001b" x="0" y="0" width="12" height="12" patternUnits="userSpaceOnUse" fill="#0000001b"><use href="#crawlingSymbol"></use></pattern><symbol id="crawlingSymbol"><g><animateTransform attributeName="transform" type="translate" from="0 0" to="-12 0" dur="0.4s" repeatCount="indefinite"></animateTransform><path d="M -12.5 12.5 l 13 -13 l 6 0 l -13 13 Z M -0.5 12.5 l 13 -13 l 6 0 l -13 13 Z M 11.5 12.5 l 13 -13 l 6 0 l -13 13 Z"></path></g></symbol><pattern id="crawlingPattern-5c87005e" x="0" y="0" width="12" height="12" patternUnits="userSpaceOnUse" fill="#5c87005e"><use href="#crawlingSymbol"></use></pattern><pattern id="crawlingPattern-00b15c75" x="0" y="0" width="12" height="12" patternUnits="userSpaceOnUse" fill="#00b15c75"><use href="#crawlingSymbol"></use></pattern><pattern id="crawlingPattern-00a3d9d9" x="0" y="0" width="12" height="12" patternUnits="userSpaceOnUse" fill="#00a3d9d9"><use href="#crawlingSymbol"></use></pattern><pattern id="crawlingPattern-0060fba2" x="0" y="0" width="12" height="12" patternUnits="userSpaceOnUse" fill="#0060fba2"><use href="#crawlingSymbol"></use></pattern></defs><g id="tx_july1719_v5i6lm19uk5qh-fill-overlay" stroke="none" fill="url(#crawlingPattern-0060fba2)"><g><text style="font: bold 20px Roboto, sans-serif; white-space: pre;" font-weight="bold" font-size="20px" font-family="Roboto, sans-serif"><tspan x="21.92" y="34" dominant-baseline="ideographic">July 17, 1957, 4:00 AM CST</tspan></text></g></g></g></svg>