<svg width="1056" height="708" viewBox="0 0 1056 708" style="fill:none;stroke:none;fill-rule:evenodd;clip-rule:evenodd;stroke-linecap:round;stroke-linejoin:round;stroke-miterlimit:1.5;" version="1.1" xmlns="http://www.w3.org/2000/svg" xmlns:xlink="http://www.w3.org/1999/xlink"><style class="text-font-style fontImports" data-font-family="Roboto">@import url('https://fonts.googleapis.com/css2?family=Roboto:wght@400;700&amp;display=block');</style><g id="g-root-tf_1hdu1a219ufw8y-stroke-fill" data-item-order="-699696" transform="translate(12, 12)"></g><g id="g-root-sy_4_cu_1lu9r0a19ud3ig-stroke-fill" data-item-order="-317369" transform="translate(602, 386)"><g id="sy_4_cu_1lu9r0a19ud3ig-stroke" fill="none" stroke-linecap="round" stroke-linejoin="round" stroke-miterlimit="4" stroke="#b7b7b7" stroke-width="2"><g><path d="M 33.850586 154.000488L 45.850586 154.000488M 58.200195 70L 70.200195 70M 87.9997 10L 21.9997 238L 10 238"></path></g></g><g id="sy_4_cu_1lu9r0a19ud3ig-stroke-overlay" fill="none" stroke-linecap="round" stroke-linejoin="round" stroke-miterlimit="4" stroke="#0000001b" stroke-width="2" stroke-dasharray="4,6"><animate attributeName="stroke-dashoffset" values="30;0" dur="1s" repeatCount="indefinite" begin="0"></animate><g><path d="M 33.850586 154.000488L 45.850586 154.000488M 58.200195 70L 70.200195 70M 87.9997 10L 21.9997 238L 10 238"></path></g></g></g><g id="g-root-sy_3_cu_18it8my19ud53d-stroke-fill" data-item-order="-317365" transform="translate(602, 158.00048828125)"><g id="sy_3_cu_18it8my19ud53d-stroke" fill="none" stroke-linecap="round" stroke-linejoin="round" stroke-miterlimit="4" stroke="#cb68f9" stroke-width="2"><g><path d="M 33.84668 93.999512L 45.84668 93.999512M 58.195313 177.999512L 70.195313 177.999512M 87.9997 238L 21.9997 10L 10 10"></path></g></g><g id="sy_3_cu_18it8my19ud53d-stroke-overlay" fill="none" stroke-linecap="round" stroke-linejoin="round" stroke-miterlimit="4" stroke="#a700f55c" stroke-width="2" stroke-dasharray="4,6"><animate attributeName="stroke-dashoffset" values="30;0" dur="1s" repeatCount="indefinite" begin="0"></animate><g><path d="M 33.84668 93.999512L 45.84668 93.999512M 58.195313 177.999512L 70.195313 177.999512M 87.9997 238L 21.9997 10L 10 10"></path></g></g></g><g id="g-root-sy_2_cu_143m7lm19ud2pu-stroke-fill" data-item-order="-317361" transform="translate(290, 385.99951171875)"><g id="sy_2_cu_143m7lm19ud2pu-stroke" fill="none" stroke-linecap="round" stroke-linejoin="round" stroke-miterlimit="4" stroke="#fb6762" stroke-width="2"><g><path d="M 33.851563 154.000488L 45.851563 154.000488M 58.200195 70.000488L 70.200195 70.000488M 87.9997 10L 21.9997 238L 10 238"></path></g></g><g id="sy_2_cu_143m7lm19ud2pu-stroke-overlay" fill="none" stroke-linecap="round" stroke-linejoin="round" stroke-miterlimit="4" stroke="#f9080063" stroke-width="2" stroke-dasharray="4,6"><animate attributeName="stroke-dashoffset" values="30;0" dur="1s" repeatCount="indefinite" begin="0"></animate><g><path d="M 33.851563 154.000488L 45.851563 154.000488M 58.200195 70.000488L 70.200195 70.000488M 87.9997 10L 21.9997 238L 10 238"></path></g></g></g><g id="g-root-sy_1_cu_v7z7cq19ud3ij-stroke-fill" data-item-order="-317357" transform="translate(290, 158.00048828125)"><g id="sy_1_cu_v7z7cq19ud3ij-stroke" fill="none" stroke-linecap="round" stroke-linejoin="round" stroke-miterlimit="4" stroke="#43dd93" stroke-width="2"><g><path d="M 33.851563 93.999512L 45.851563 93.999512M 58.200195 177.999512L 70.200195 177.999512M 87.9997 238L 21.9997 10L 10 10"></path></g></g><g id="sy_1_cu_v7z7cq19ud3ij-stroke-overlay" fill="none" stroke-linecap="round" stroke-linejoin="round" stroke-miterlimit="4" stroke="#00c5676e" stroke-width="2" stroke-dasharray="4,6"><animate attributeName="stroke-dashoffset" values="30;0" dur="1s" repeatCount="indefinite" begin="0"></animate><g><path d="M 33.851563 93.999512L 45.851563 93.999512M 58.200195 177.999512L 70.200195 177.999512M 87.9997 238L 21.9997 10L 10 10"></path></g></g></g><g id="g-root-sy_-1_line_qs5p8a19ud4as-stroke-fill" data-item-order="-317351" transform="translate(26, 386)"><g id="sy_-1_line_qs5p8a19ud4as-stroke" fill="none" stroke-linecap="round" stroke-linejoin="round" stroke-miterlimit="4" stroke="#f4f4f4" stroke-width="2"><g><path d="M 704 10L 10 10"></path><path d="M 698 16.5L 704.5 10L 698 3.5" stroke-dasharray="none"></path></g></g><g id="sy_-1_line_qs5p8a19ud4as-stroke-overlay" fill="none" stroke-linecap="round" stroke-linejoin="round" stroke-miterlimit="4" stroke="#3131311a" stroke-width="2" stroke-dasharray="4,6"><animate attributeName="stroke-dashoffset" values="30;0" dur="1s" repeatCount="indefinite" begin="0"></animate><g><path d="M 704 10L 10 10"></path><path d="M 698 16.5L 704.5 10L 698 3.5" stroke-dasharray="none"></path></g></g></g><g id="g-root-tx_unexplai_hwioze19ud53h-stroke-fill" data-item-order="0" transform="translate(794, 350)"><g id="tx_unexplai_hwioze19ud53h-fill" stroke="none" fill="#f4f4f4"><g><text style="font: 20px Roboto, sans-serif; white-space: pre;" font-size="20px" font-family="Roboto, sans-serif"><tspan x="12" y="34" dominant-baseline="ideographic">Unexplained aerial </tspan><tspan x="12" y="58" dominant-baseline="ideographic">phenomena and </tspan><tspan x="12" y="82" dominant-baseline="ideographic">institutional responses</tspan></text></g></g><g id="tx_unexplai_hwioze19ud53h-fill-overlay" stroke="none" fill="url(#crawlingPattern-0000001b)"><g><text style="font: 20px Roboto, sans-serif; white-space: pre;" font-size="20px" font-family="Roboto, sans-serif"><tspan x="12" y="34" dominant-baseline="ideographic">Unexplained aerial </tspan><tspan x="12" y="58" dominant-baseline="ideographic">phenomena and </tspan><tspan x="12" y="82" dominant-baseline="ideographic">institutional responses</tspan></text></g></g></g><g id="g-root-tx_atmosphe_5v5kq19ud4au-stroke-fill" data-item-order="0" transform="translate(518, 422)"><g id="tx_atmosphe_5v5kq19ud4au-fill" stroke="none" fill="#f4f4f4"><g><text style="font: 20px Roboto, sans-serif; white-space: pre;" font-size="20px" font-family="Roboto, sans-serif"><tspan x="14.34" y="34" dominant-baseline="ideographic">Atmospheric </tspan><tspan x="22.63" y="58" dominant-baseline="ideographic">phenomena</tspan></text></g></g><g id="tx_atmosphe_5v5kq19ud4au-fill-overlay" stroke="none" fill="url(#crawlingPattern-0000001b)"><g><text style="font: 20px Roboto, sans-serif; white-space: pre;" font-size="20px" font-family="Roboto, sans-serif"><tspan x="14.34" y="34" dominant-baseline="ideographic">Atmospheric </tspan><tspan x="22.63" y="58" dominant-baseline="ideographic">phenomena</tspan></text></g></g></g><g id="g-root-tx_misident_1lw569m19ud2iv-stroke-fill" data-item-order="0" transform="translate(434, 506)"><g id="tx_misident_1lw569m19ud2iv-fill" stroke="none" fill="#f4f4f4"><g><text style="font: 20px Roboto, sans-serif; white-space: pre;" font-size="20px" font-family="Roboto, sans-serif"><tspan x="16.53" y="34" dominant-baseline="ideographic">Misidentification of </tspan><tspan x="53.5" y="58" dominant-baseline="ideographic">military aircraft</tspan></text></g></g><g id="tx_misident_1lw569m19ud2iv-fill-overlay" stroke="none" fill="url(#crawlingPattern-0000001b)"><g><text style="font: 20px Roboto, sans-serif; white-space: pre;" font-size="20px" font-family="Roboto, sans-serif"><tspan x="16.53" y="34" dominant-baseline="ideographic">Misidentification of </tspan><tspan x="53.5" y="58" dominant-baseline="ideographic">military aircraft</tspan></text></g></g></g><g id="g-root-tx_skeptica_1hgbo5619ud3b4-stroke-fill" data-item-order="0" transform="translate(338, 602)"><g id="tx_skeptica_1hgbo5619ud3b4-fill" stroke="none" fill="#f4f4f4"><g><text style="font: 20px Roboto, sans-serif; white-space: pre;" font-size="20px" font-family="Roboto, sans-serif"><tspan x="23.38" y="34" dominant-baseline="ideographic">Skeptical Perspectives</tspan></text></g></g><g id="tx_skeptica_1hgbo5619ud3b4-fill-overlay" stroke="none" fill="url(#crawlingPattern-0000001b)"><g><text style="font: 20px Roboto, sans-serif; white-space: pre;" font-size="20px" font-family="Roboto, sans-serif"><tspan x="23.38" y="34" dominant-baseline="ideographic">Skeptical Perspectives</tspan></text></g></g></g><g id="g-root-tx_initialr_144v5ru19ud4w1-stroke-fill" data-item-order="0" transform="translate(518, 302)"><g id="tx_initialr_144v5ru19ud4w1-fill" stroke="none" fill="#f4f4f4"><g><text style="font: 20px Roboto, sans-serif; white-space: pre;" font-size="20px" font-family="Roboto, sans-serif"><tspan x="28.33" y="34" dominant-baseline="ideographic">Initial radar </tspan><tspan x="14.94" y="58" dominant-baseline="ideographic">confirmation</tspan></text></g></g><g id="tx_initialr_144v5ru19ud4w1-fill-overlay" stroke="none" fill="url(#crawlingPattern-0000001b)"><g><text style="font: 20px Roboto, sans-serif; white-space: pre;" font-size="20px" font-family="Roboto, sans-serif"><tspan x="28.33" y="34" dominant-baseline="ideographic">Initial radar </tspan><tspan x="14.94" y="58" dominant-baseline="ideographic">confirmation</tspan></text></g></g></g><g id="g-root-tx_radioint_qu14hm19ud3b6-stroke-fill" data-item-order="0" transform="translate(446, 230)"><g id="tx_radioint_qu14hm19ud3b6-fill" stroke="none" fill="#f4f4f4"><g><text style="font: 20px Roboto, sans-serif; white-space: pre;" font-size="20px" font-family="Roboto, sans-serif"><tspan x="13.66" y="34" dominant-baseline="ideographic">Radio interference</tspan></text></g></g><g id="tx_radioint_qu14hm19ud3b6-fill-overlay" stroke="none" fill="url(#crawlingPattern-0000001b)"><g><text style="font: 20px Roboto, sans-serif; white-space: pre;" font-size="20px" font-family="Roboto, sans-serif"><tspan x="13.66" y="34" dominant-baseline="ideographic">Radio interference</tspan></text></g></g></g><g id="g-root-tx_physical_hye48q19ud43v-stroke-fill" data-item-order="0" transform="translate(386, 146)"><g id="tx_physical_hye48q19ud43v-fill" stroke="none" fill="#f4f4f4"><g><text style="font: 20px Roboto, sans-serif; white-space: pre;" font-size="20px" font-family="Roboto, sans-serif"><tspan x="16.88" y="34" dominant-baseline="ideographic">Physical Evidence</tspan></text></g></g><g id="tx_physical_hye48q19ud43v-fill-overlay" stroke="none" fill="url(#crawlingPattern-0000001b)"><g><text style="font: 20px Roboto, sans-serif; white-space: pre;" font-size="20px" font-family="Roboto, sans-serif"><tspan x="16.88" y="34" dominant-baseline="ideographic">Physical Evidence</tspan></text></g></g></g><g id="g-root-tx_misident_dikm4a19ud4w4-stroke-fill" data-item-order="0" transform="translate(146, 422)"><g id="tx_misident_dikm4a19ud4w4-fill" stroke="none" fill="#f4f4f4"><g><text style="font: 20px Roboto, sans-serif; white-space: pre;" font-size="20px" font-family="Roboto, sans-serif"><tspan x="16.53" y="34" dominant-baseline="ideographic">Misidentification of </tspan><tspan x="43.66" y="58" dominant-baseline="ideographic">celestial objects</tspan></text></g></g><g id="tx_misident_dikm4a19ud4w4-fill-overlay" stroke="none" fill="url(#crawlingPattern-0000001b)"><g><text style="font: 20px Roboto, sans-serif; white-space: pre;" font-size="20px" font-family="Roboto, sans-serif"><tspan x="16.53" y="34" dominant-baseline="ideographic">Misidentification of </tspan><tspan x="43.66" y="58" dominant-baseline="ideographic">celestial objects</tspan></text></g></g></g><g id="g-root-tx_denialof_7qku219ud3b9-stroke-fill" data-item-order="0" transform="translate(158, 506)"><g id="tx_denialof_7qku219ud3b9-fill" stroke="none" fill="#f4f4f4"><g><text style="font: 20px Roboto, sans-serif; white-space: pre;" font-size="20px" font-family="Roboto, sans-serif"><tspan x="22.13" y="34" dominant-baseline="ideographic">Denial of radar </tspan><tspan x="38.94" y="58" dominant-baseline="ideographic">confirmation</tspan></text></g></g><g id="tx_denialof_7qku219ud3b9-fill-overlay" stroke="none" fill="url(#crawlingPattern-0000001b)"><g><text style="font: 20px Roboto, sans-serif; white-space: pre;" font-size="20px" font-family="Roboto, sans-serif"><tspan x="22.13" y="34" dominant-baseline="ideographic">Denial of radar </tspan><tspan x="38.94" y="58" dominant-baseline="ideographic">confirmation</tspan></text></g></g></g><g id="g-root-tx_official_1lxe4fu19ud4p2-stroke-fill" data-item-order="0" transform="translate(50, 602)"><g id="tx_official_1lxe4fu19ud4p2-fill" stroke="none" fill="#f4f4f4"><g><text style="font: 20px Roboto, sans-serif; white-space: pre;" font-size="20px" font-family="Roboto, sans-serif"><tspan x="18.77" y="34" dominant-baseline="ideographic">Official Explanations</tspan></text></g></g><g id="tx_official_1lxe4fu19ud4p2-fill-overlay" stroke="none" fill="url(#crawlingPattern-0000001b)"><g><text style="font: 20px Roboto, sans-serif; white-space: pre;" font-size="20px" font-family="Roboto, sans-serif"><tspan x="18.77" y="34" dominant-baseline="ideographic">Official Explanations</tspan></text></g></g></g><g id="g-root-tx_consiste_1d1r46y19ud5hr-stroke-fill" data-item-order="0" transform="translate(110, 302)"><g id="tx_consiste_1d1r46y19ud5hr-fill" stroke="none" fill="#f4f4f4"><g><text style="font: 20px Roboto, sans-serif; white-space: pre;" font-size="20px" font-family="Roboto, sans-serif"><tspan x="14.23" y="34" dominant-baseline="ideographic">Consistent and detailed </tspan><tspan x="160.03" y="58" dominant-baseline="ideographic">reports</tspan></text></g></g><g id="tx_consiste_1d1r46y19ud5hr-fill-overlay" stroke="none" fill="url(#crawlingPattern-0000001b)"><g><text style="font: 20px Roboto, sans-serif; white-space: pre;" font-size="20px" font-family="Roboto, sans-serif"><tspan x="14.23" y="34" dominant-baseline="ideographic">Consistent and detailed </tspan><tspan x="160.03" y="58" dominant-baseline="ideographic">reports</tspan></text></g></g></g><g id="g-root-tx_professi_146ql1619ud3wg-stroke-fill" data-item-order="0" transform="translate(110, 218)"><g id="tx_professi_146ql1619ud3wg-fill" stroke="none" fill="#f4f4f4"><g><text style="font: 20px Roboto, sans-serif; white-space: pre;" font-size="20px" font-family="Roboto, sans-serif"><tspan x="16.55" y="34" dominant-baseline="ideographic">Professional training </tspan><tspan x="65.09" y="58" dominant-baseline="ideographic">and experience</tspan></text></g></g><g id="tx_professi_146ql1619ud3wg-fill-overlay" stroke="none" fill="url(#crawlingPattern-0000001b)"><g><text style="font: 20px Roboto, sans-serif; white-space: pre;" font-size="20px" font-family="Roboto, sans-serif"><tspan x="16.55" y="34" dominant-baseline="ideographic">Professional training </tspan><tspan x="65.09" y="58" dominant-baseline="ideographic">and experience</tspan></text></g></g></g><g id="g-root-tx_witnessc_qva2nu19ud5hd-stroke-fill" data-item-order="0" transform="translate(62, 146)"><g id="tx_witnessc_qva2nu19ud5hd-fill" stroke="none" fill="#f4f4f4"><g><text style="font: 20px Roboto, sans-serif; white-space: pre;" font-size="20px" font-family="Roboto, sans-serif"><tspan x="23.41" y="34" dominant-baseline="ideographic">Witness Credibility</tspan></text></g></g><g id="tx_witnessc_qva2nu19ud5hd-fill-overlay" stroke="none" fill="url(#crawlingPattern-0000001b)"><g><text style="font: 20px Roboto, sans-serif; white-space: pre;" font-size="20px" font-family="Roboto, sans-serif"><tspan x="23.41" y="34" dominant-baseline="ideographic">Witness Credibility</tspan></text></g></g></g><g id="g-root-tx_analyzin_dkg1dm19ud3wi-stroke-fill" data-item-order="0" transform="translate(350, 50)"><g id="tx_analyzin_dkg1dm19ud3wi-fill" stroke="none" fill="#f4f4f4"><g><text style="font: 20px Roboto, sans-serif; white-space: pre;" font-size="20px" font-family="Roboto, sans-serif"><tspan x="15.56" y="34" dominant-baseline="ideographic">Analyzing the Red Bluff UFO Incident</tspan></text></g></g><defs><pattern id="crawlingPattern-0000001b" x="0" y="0" width="12" height="12" patternUnits="userSpaceOnUse" fill="#0000001b"><use href="#crawlingSymbol"></use></pattern><symbol id="crawlingSymbol"><g><animateTransform attributeName="transform" type="translate" from="0 0" to="-12 0" dur="0.4s" repeatCount="indefinite"></animateTransform><path d="M -12.5 12.5 l 13 -13 l 6 0 l -13 13 Z M -0.5 12.5 l 13 -13 l 6 0 l -13 13 Z M 11.5 12.5 l 13 -13 l 6 0 l -13 13 Z"></path></g></symbol></defs><g id="tx_analyzin_dkg1dm19ud3wi-fill-overlay" stroke="none" fill="url(#crawlingPattern-0000001b)"><g><text style="font: 20px Roboto, sans-serif; white-space: pre;" font-size="20px" font-family="Roboto, sans-serif"><tspan x="15.56" y="34" dominant-baseline="ideographic">Analyzing the Red Bluff UFO Incident</tspan></text></g></g></g><g id="g-root-ic_2_8zj0a19ud5hf-stroke-fill" data-item-order="0" transform="translate(254, 140)"><g id="ic_2_8zj0a19ud5hf-stroke" fill="none" stroke-linecap="round" stroke-linejoin="round" stroke-miterlimit="4" stroke="#f4f4f4" stroke-width="2"><g><path d="M 13 19.6C 22.879438 21.796017 33.12056 21.796017 43 19.6M 10 10M 37 20.661999L 36.046001 14.6215C 35.732773 12.400795 33.832188 10.749698 31.5895 10.75L 24.4105 10.75C 22.167814 10.749698 20.267229 12.400795 19.954 14.6215L 19 20.661999M 10 10M 28 39.25L 28 45.25M 45.25 45.25C 45.248749 42.747398 43.694313 40.508411 41.349998 39.6325L 34 37.163498M 10 10M 22 37.163498L 14.65 39.6325C 12.305686 40.508411 10.75125 42.747398 10.75 45.25M 37.105 41.5C 37.276184 41.499599 37.440475 41.567425 37.561523 41.688473C 37.682571 41.809521 37.750397 41.973812 37.749996 42.144997C 37.749817 43.148121 37.24828 44.08477 36.413498 44.640999L 35.5 45.25L 34.586502 44.640999C 33.75172 44.08477 33.250183 43.148121 33.25 42.145C 33.249599 41.973812 33.317425 41.809521 33.438473 41.688473C 33.559521 41.567425 33.723812 41.499599 33.895 41.499996ZM 25.75 31C 26.309027 31.499762 27.037365 31.767927 27.786999 31.75L 28.213001 31.75C 28.962685 31.76823 29.691132 31.500025 30.25 31M 19.0285 24.25C 17.722 24.9055 18.1285 27.849998 19.743999 28.5835C 20.198421 28.790443 20.520075 29.209942 20.601999 29.702499C 21.264999 33.668499 25.9195 36.25 28 36.25C 30.0805 36.25 34.735001 33.668499 35.397999 29.702499C 35.479923 29.209942 35.801579 28.790443 36.256001 28.5835C 37.873001 27.848499 38.278 24.9055 36.9715 24.25M 29.5 13.75C 29.914213 13.75 30.25 14.085787 30.25 14.5L 30.25 15.145C 30.249815 16.148121 29.74828 17.08477 28.9135 17.640999L 28 18.25L 27.0865 17.640999C 26.25172 17.08477 25.750185 16.148121 25.75 15.145L 25.75 14.5C 25.75 14.085787 26.085787 13.75 26.5 13.75ZM 25 22.75L 22 22.75C 21.171574 22.75 20.5 23.421572 20.5 24.25C 20.5 25.906855 21.843145 27.25 23.5 27.25C 25.156855 27.25 26.5 25.906855 26.5 24.25C 26.5 23.421572 25.828428 22.75 25 22.75ZM 10 10M 32.5 27.25L 32.5 27.25C 30.843145 27.25 29.5 25.906855 29.5 24.25L 29.5 24.25C 29.5 23.421572 30.171572 22.75 31 22.75L 34 22.75C 34.828426 22.75 35.5 23.421572 35.5 24.25L 35.5 24.25C 35.5 25.906855 34.156857 27.25 32.5 27.25ZM 10 10M 26.5 24.25L 29.5 24.25"></path></g></g><g id="ic_2_8zj0a19ud5hf-stroke-overlay" fill="none" stroke-linecap="round" stroke-linejoin="round" stroke-miterlimit="4" stroke="#3131311a" stroke-width="2" stroke-dasharray="4,6"><animate attributeName="stroke-dashoffset" values="30;0" dur="1s" repeatCount="indefinite" begin="0"></animate><g><path d="M 13 19.6C 22.879438 21.796017 33.12056 21.796017 43 19.6M 10 10M 37 20.661999L 36.046001 14.6215C 35.732773 12.400795 33.832188 10.749698 31.5895 10.75L 24.4105 10.75C 22.167814 10.749698 20.267229 12.400795 19.954 14.6215L 19 20.661999M 10 10M 28 39.25L 28 45.25M 45.25 45.25C 45.248749 42.747398 43.694313 40.508411 41.349998 39.6325L 34 37.163498M 10 10M 22 37.163498L 14.65 39.6325C 12.305686 40.508411 10.75125 42.747398 10.75 45.25M 37.105 41.5C 37.276184 41.499599 37.440475 41.567425 37.561523 41.688473C 37.682571 41.809521 37.750397 41.973812 37.749996 42.144997C 37.749817 43.148121 37.24828 44.08477 36.413498 44.640999L 35.5 45.25L 34.586502 44.640999C 33.75172 44.08477 33.250183 43.148121 33.25 42.145C 33.249599 41.973812 33.317425 41.809521 33.438473 41.688473C 33.559521 41.567425 33.723812 41.499599 33.895 41.499996ZM 25.75 31C 26.309027 31.499762 27.037365 31.767927 27.786999 31.75L 28.213001 31.75C 28.962685 31.76823 29.691132 31.500025 30.25 31M 19.0285 24.25C 17.722 24.9055 18.1285 27.849998 19.743999 28.5835C 20.198421 28.790443 20.520075 29.209942 20.601999 29.702499C 21.264999 33.668499 25.9195 36.25 28 36.25C 30.0805 36.25 34.735001 33.668499 35.397999 29.702499C 35.479923 29.209942 35.801579 28.790443 36.256001 28.5835C 37.873001 27.848499 38.278 24.9055 36.9715 24.25M 29.5 13.75C 29.914213 13.75 30.25 14.085787 30.25 14.5L 30.25 15.145C 30.249815 16.148121 29.74828 17.08477 28.9135 17.640999L 28 18.25L 27.0865 17.640999C 26.25172 17.08477 25.750185 16.148121 25.75 15.145L 25.75 14.5C 25.75 14.085787 26.085787 13.75 26.5 13.75ZM 25 22.75L 22 22.75C 21.171574 22.75 20.5 23.421572 20.5 24.25C 20.5 25.906855 21.843145 27.25 23.5 27.25C 25.156855 27.25 26.5 25.906855 26.5 24.25C 26.5 23.421572 25.828428 22.75 25 22.75ZM 10 10M 32.5 27.25L 32.5 27.25C 30.843145 27.25 29.5 25.906855 29.5 24.25L 29.5 24.25C 29.5 23.421572 30.171572 22.75 31 22.75L 34 22.75C 34.828426 22.75 35.5 23.421572 35.5 24.25L 35.5 24.25C 35.5 25.906855 34.156857 27.25 32.5 27.25ZM 10 10M 26.5 24.25L 29.5 24.25"></path></g></g></g><g id="g-root-ic_user_8wimm219u8we9-stroke-fill" data-item-order="0" transform="translate(254, 596)"><g id="ic_user_8wimm219u8we9-stroke" fill="none" stroke-linecap="round" stroke-linejoin="round" stroke-miterlimit="4" stroke="#f4f4f4" stroke-width="2"><g><path d="M 36.149502 10.75C 33.756657 10.758009 31.467106 11.725895 29.794098 13.436687C 28.121092 15.147481 27.204573 17.458075 27.25 19.8505C 27.182514 21.525383 27.588543 23.185364 28.421501 24.639999L 25.75 30.25L 31.3615 27.577C 34.641697 29.610451 38.848022 29.352551 41.855232 26.933601C 44.862442 24.514652 46.015785 20.461321 44.73254 16.821556C 43.449295 13.18179 40.00885 10.748056 36.149502 10.75ZM 36.25 22.75C 36.457108 22.75 36.625 22.917892 36.625 23.125C 36.625 23.332108 36.457108 23.5 36.25 23.5C 36.042892 23.5 35.875 23.332108 35.875 23.125C 35.875 22.917892 36.042892 22.75 36.25 22.75M 36.25 20.501499L 36.25 16.001499M 34.75 31.751501L 34.75 45.251499M 10.75 45.25L 10.75 18.25C 10.75 16.593145 12.093145 15.25 13.75 15.25L 25 15.25M 24.25 21.251499L 10.75 21.251499M 18.625 35.126499C 18.625 36.990463 20.13604 38.501499 22 38.501499C 23.86396 38.501499 25.375 36.990463 25.375 35.126499C 25.375 33.262539 23.86396 31.751501 22 31.751501C 20.13604 31.751501 18.625 33.262539 18.625 35.126499ZM 28.75 45.25C 27.963194 42.164463 25.184277 40.005238 22 40.005238C 18.815725 40.005238 16.036806 42.164463 15.25 45.25M 20.5 18.251499L 24.25 18.251499"></path></g></g><g id="ic_user_8wimm219u8we9-stroke-overlay" fill="none" stroke-linecap="round" stroke-linejoin="round" stroke-miterlimit="4" stroke="#3131311a" stroke-width="2" stroke-dasharray="4,6"><animate attributeName="stroke-dashoffset" values="30;0" dur="1s" repeatCount="indefinite" begin="0"></animate><g><path d="M 36.149502 10.75C 33.756657 10.758009 31.467106 11.725895 29.794098 13.436687C 28.121092 15.147481 27.204573 17.458075 27.25 19.8505C 27.182514 21.525383 27.588543 23.185364 28.421501 24.639999L 25.75 30.25L 31.3615 27.577C 34.641697 29.610451 38.848022 29.352551 41.855232 26.933601C 44.862442 24.514652 46.015785 20.461321 44.73254 16.821556C 43.449295 13.18179 40.00885 10.748056 36.149502 10.75ZM 36.25 22.75C 36.457108 22.75 36.625 22.917892 36.625 23.125C 36.625 23.332108 36.457108 23.5 36.25 23.5C 36.042892 23.5 35.875 23.332108 35.875 23.125C 35.875 22.917892 36.042892 22.75 36.25 22.75M 36.25 20.501499L 36.25 16.001499M 34.75 31.751501L 34.75 45.251499M 10.75 45.25L 10.75 18.25C 10.75 16.593145 12.093145 15.25 13.75 15.25L 25 15.25M 24.25 21.251499L 10.75 21.251499M 18.625 35.126499C 18.625 36.990463 20.13604 38.501499 22 38.501499C 23.86396 38.501499 25.375 36.990463 25.375 35.126499C 25.375 33.262539 23.86396 31.751501 22 31.751501C 20.13604 31.751501 18.625 33.262539 18.625 35.126499ZM 28.75 45.25C 27.963194 42.164463 25.184277 40.005238 22 40.005238C 18.815725 40.005238 16.036806 42.164463 15.25 45.25M 20.5 18.251499L 24.25 18.251499"></path></g></g></g><g id="g-root-ic_5g_dikvlm19uaaki-stroke-fill" data-item-order="0" transform="translate(566, 140)"><g id="ic_5g_dikvlm19uaaki-stroke" fill="none" stroke-linecap="round" stroke-linejoin="round" stroke-miterlimit="4" stroke="#f4f4f4" stroke-width="2"><g><path d="M 20.574986 44.875L 28.075001 18.625L 35.574997 44.875M 28.075001 18.325001C 30.06325 18.325001 31.674999 16.713221 31.674999 14.725C 31.674999 12.736765 30.06325 11.125 28.075001 11.125C 26.08675 11.125 24.475029 12.736765 24.475029 14.725C 24.475029 16.713221 26.08675 18.325001 28.075001 18.325001ZM 10 10M 34.525002 41.125301L 23.875 33.775299M 18.625 17.575075L 11.125 25.075001L 18.625 25.075001L 11.125 32.575001M 10 10M 37.375 17.575075L 44.875 25.075001L 37.375 25.075001L 44.875 32.575001"></path></g></g><g id="ic_5g_dikvlm19uaaki-stroke-overlay" fill="none" stroke-linecap="round" stroke-linejoin="round" stroke-miterlimit="4" stroke="#3131311a" stroke-width="2" stroke-dasharray="4,6"><animate attributeName="stroke-dashoffset" values="30;0" dur="1s" repeatCount="indefinite" begin="0"></animate><g><path d="M 20.574986 44.875L 28.075001 18.625L 35.574997 44.875M 28.075001 18.325001C 30.06325 18.325001 31.674999 16.713221 31.674999 14.725C 31.674999 12.736765 30.06325 11.125 28.075001 11.125C 26.08675 11.125 24.475029 12.736765 24.475029 14.725C 24.475029 16.713221 26.08675 18.325001 28.075001 18.325001ZM 10 10M 34.525002 41.125301L 23.875 33.775299M 18.625 17.575075L 11.125 25.075001L 18.625 25.075001L 11.125 32.575001M 10 10M 37.375 17.575075L 44.875 25.075001L 37.375 25.075001L 44.875 32.575001"></path></g></g></g><g id="g-root-ic_2_8xrksa19ud3ib-stroke-fill" data-item-order="0" transform="translate(566, 596)"><g id="ic_2_8xrksa19ud3ib-stroke" fill="none" stroke-linecap="round" stroke-linejoin="round" stroke-miterlimit="4" stroke="#f4f4f4" stroke-width="2"><g><path d="M 26.328701 41.570351C 34.521698 41.570351 41.163399 34.928799 41.163399 26.7358C 41.163399 18.54286 34.521698 11.90119 26.328701 11.90119C 18.13582 11.90119 11.494141 18.54286 11.494141 26.7358C 11.494141 34.928799 18.13582 41.570351 26.328701 41.570351ZM 10 10M 37.1362 36.890198L 44.505398 44.0989M 20.58721 35.302299L 20.58721 30.090401C 19.437731 29.025549 18.63607 27.6388 18.28693 26.1112C 17.937775 24.58366 18.057384 22.986324 18.6301 21.5278C 19.202816 20.06926 20.20204 18.817329 21.49729 17.93548C 22.792542 17.053631 24.323589 16.582855 25.890551 16.58461C 31.8295 16.58461 33.111401 21.474491 35.2285 26.96665C 35.264801 27.06115 35.27755 27.163149 35.265701 27.2638C 35.253849 27.3643 35.217701 27.460449 35.1604 27.544001C 35.1031 27.627399 35.026299 27.695801 34.936752 27.74305C 34.847198 27.7903 34.747452 27.81505 34.646198 27.815199L 33.065651 27.815199L 33.065651 30.3109C 33.065651 30.972851 32.8027 31.6075 32.334702 32.075649C 31.866699 32.543652 31.231899 32.806599 30.56995 32.806599L 29.3221 32.806599L 29.3221 35.302299M 23.636965 23.33758C 23.636965 22.184336 24.55957 21.146456 25.82815 21.146456C 26.98135 21.146456 28.01935 22.069016 28.01935 23.33758C 28.01935 24.490839 27.096701 25.528749 25.82815 25.528749L 25.82815 26.50135M 25.828751 29.696051C 25.677999 29.696051 25.527399 29.8468 25.527399 29.997551C 25.527399 30.1483 25.677999 30.298901 25.828751 30.298901M 25.8286 29.696051C 25.979349 29.696051 26.1301 29.8468 26.1301 29.997551C 26.1301 30.1483 25.979349 30.298901 25.8286 30.298901"></path></g></g><g id="ic_2_8xrksa19ud3ib-stroke-overlay" fill="none" stroke-linecap="round" stroke-linejoin="round" stroke-miterlimit="4" stroke="#3131311a" stroke-width="2" stroke-dasharray="4,6"><animate attributeName="stroke-dashoffset" values="30;0" dur="1s" repeatCount="indefinite" begin="0"></animate><g><path d="M 26.328701 41.570351C 34.521698 41.570351 41.163399 34.928799 41.163399 26.7358C 41.163399 18.54286 34.521698 11.90119 26.328701 11.90119C 18.13582 11.90119 11.494141 18.54286 11.494141 26.7358C 11.494141 34.928799 18.13582 41.570351 26.328701 41.570351ZM 10 10M 37.1362 36.890198L 44.505398 44.0989M 20.58721 35.302299L 20.58721 30.090401C 19.437731 29.025549 18.63607 27.6388 18.28693 26.1112C 17.937775 24.58366 18.057384 22.986324 18.6301 21.5278C 19.202816 20.06926 20.20204 18.817329 21.49729 17.93548C 22.792542 17.053631 24.323589 16.582855 25.890551 16.58461C 31.8295 16.58461 33.111401 21.474491 35.2285 26.96665C 35.264801 27.06115 35.27755 27.163149 35.265701 27.2638C 35.253849 27.3643 35.217701 27.460449 35.1604 27.544001C 35.1031 27.627399 35.026299 27.695801 34.936752 27.74305C 34.847198 27.7903 34.747452 27.81505 34.646198 27.815199L 33.065651 27.815199L 33.065651 30.3109C 33.065651 30.972851 32.8027 31.6075 32.334702 32.075649C 31.866699 32.543652 31.231899 32.806599 30.56995 32.806599L 29.3221 32.806599L 29.3221 35.302299M 23.636965 23.33758C 23.636965 22.184336 24.55957 21.146456 25.82815 21.146456C 26.98135 21.146456 28.01935 22.069016 28.01935 23.33758C 28.01935 24.490839 27.096701 25.528749 25.82815 25.528749L 25.82815 26.50135M 25.828751 29.696051C 25.677999 29.696051 25.527399 29.8468 25.527399 29.997551C 25.527399 30.1483 25.677999 30.298901 25.828751 30.298901M 25.8286 29.696051C 25.979349 29.696051 26.1301 29.8468 26.1301 29.997551C 26.1301 30.1483 25.979349 30.298901 25.8286 30.298901"></path></g></g></g><g id="g-root-ic_ufo_1lviynu19ueh34-stroke-fill" data-item-order="0" transform="translate(734, 362)"><g id="ic_ufo_1lviynu19ueh34-stroke" fill="none" stroke-linecap="round" stroke-linejoin="round" stroke-miterlimit="4" stroke="#f4f4f4" stroke-width="2"><g><path d="M 49 22.5C 52.977859 22.499041 56.352161 25.420879 56.919998 29.358C 56.961449 29.646814 56.874687 29.939325 56.682472 30.158836C 56.490257 30.378345 56.211758 30.502958 55.919998 30.5L 12.07 30.5C 11.778242 30.502958 11.499743 30.378345 11.307528 30.158836C 11.115312 29.939325 11.028553 29.646814 11.07 29.358C 11.638377 25.417118 15.018346 22.494064 19 22.5ZM 19 22.5C 19 17.5 25.716 11.5 34 11.5C 42.284 11.5 49 17.5 49 22.5M 47.77 39.5L 52.995998 56.5M 14.996 56.5L 20.232 39.5M 34.996002 49.5L 31.996 53.652M 37.996002 53.5L 34.996002 49.5M 31.996 46.5L 37.996002 46.5M 35 41.5C 35.552284 41.5 36 41.947716 36 42.5M 34 42.5C 34 41.947716 34.447716 41.5 35 41.5M 35 43.5C 34.447716 43.5 34 43.052284 34 42.5M 36 42.5C 36 43.052284 35.552284 43.5 35 43.5M 34.996002 49.5L 34.996002 46.5M 25 30.5C 25 33.261421 22.761425 35.5 20 35.5C 17.238577 35.5 15 33.261421 15 30.5M 39 30.5C 39 33.261421 36.761425 35.5 34 35.5C 31.238577 35.5 29 33.261421 29 30.5M 53 30.5C 53 33.261421 50.761425 35.5 48 35.5C 45.238575 35.5 43 33.261421 43 30.5"></path></g></g><g id="ic_ufo_1lviynu19ueh34-stroke-overlay" fill="none" stroke-linecap="round" stroke-linejoin="round" stroke-miterlimit="4" stroke="#3131311a" stroke-width="2" stroke-dasharray="4,6"><animate attributeName="stroke-dashoffset" values="30;0" dur="1s" repeatCount="indefinite" begin="0"></animate><g><path d="M 49 22.5C 52.977859 22.499041 56.352161 25.420879 56.919998 29.358C 56.961449 29.646814 56.874687 29.939325 56.682472 30.158836C 56.490257 30.378345 56.211758 30.502958 55.919998 30.5L 12.07 30.5C 11.778242 30.502958 11.499743 30.378345 11.307528 30.158836C 11.115312 29.939325 11.028553 29.646814 11.07 29.358C 11.638377 25.417118 15.018346 22.494064 19 22.5ZM 19 22.5C 19 17.5 25.716 11.5 34 11.5C 42.284 11.5 49 17.5 49 22.5M 47.77 39.5L 52.995998 56.5M 14.996 56.5L 20.232 39.5M 34.996002 49.5L 31.996 53.652M 37.996002 53.5L 34.996002 49.5M 31.996 46.5L 37.996002 46.5M 35 41.5C 35.552284 41.5 36 41.947716 36 42.5M 34 42.5C 34 41.947716 34.447716 41.5 35 41.5M 35 43.5C 34.447716 43.5 34 43.052284 34 42.5M 36 42.5C 36 43.052284 35.552284 43.5 35 43.5M 34.996002 49.5L 34.996002 46.5M 25 30.5C 25 33.261421 22.761425 35.5 20 35.5C 17.238577 35.5 15 33.261421 15 30.5M 39 30.5C 39 33.261421 36.761425 35.5 34 35.5C 31.238577 35.5 29 33.261421 29 30.5M 53 30.5C 53 33.261421 50.761425 35.5 48 35.5C 45.238575 35.5 43 33.261421 43 30.5"></path></g></g></g></svg>