<svg width="624" height="480" viewBox="0 0 624 480" style="fill:none;stroke:none;fill-rule:evenodd;clip-rule:evenodd;stroke-linecap:round;stroke-linejoin:round;stroke-miterlimit:1.5;" version="1.1" xmlns="http://www.w3.org/2000/svg" xmlns:xlink="http://www.w3.org/1999/xlink"><style class="text-font-style fontImports" data-font-family="Roboto">@import url('https://fonts.googleapis.com/css2?family=Roboto:wght@400;700&amp;display=block');</style><g id="g-root-tf_zof9jf1ao696q-stroke-fill" data-item-order="-273600" transform="translate(12, 12)"></g><g id="g-root-sy_4_cu_1useqkr1ao0p3f-stroke-fill" data-item-order="-105977" transform="translate(133.95700073242188, 219)"><g id="sy_4_cu_1useqkr1ao0p3f-stroke" fill="none" stroke-linecap="round" stroke-linejoin="round" stroke-miterlimit="4" stroke="#f4f4f4" stroke-width="2"><g><path d="M 340.042999 93C 343.356999 93 346.042999 90.314 346.042999 87C 346.042999 83.686 343.356999 81 340.042999 81C 336.728999 81 334.042999 83.686 334.042999 87C 334.042999 90.314 336.728999 93 340.042999 93ZM 16.021999 45C 19.346999 45 22.042999 42.314 22.042999 39C 22.042999 35.686 19.346999 33 16.021999 33C 12.695999 33 9.999999 35.686 9.999999 39C 9.999999 42.314 12.695999 45 16.021999 45ZM 340.042999 81L 340.042999 57.75M 16.042999 10L 16.042999 33M 195.561999 65.593L 334.144999 86.11M 162.040999 60.634L 22.027999 39.904"></path></g></g><g id="sy_4_cu_1useqkr1ao0p3f-stroke-overlay" fill="none" stroke-linecap="round" stroke-linejoin="round" stroke-miterlimit="4" stroke="#3131311a" stroke-width="2" stroke-dasharray="4,6"><animate attributeName="stroke-dashoffset" values="30;0" dur="1s" repeatCount="indefinite" begin="0"></animate><g><path d="M 340.042999 93C 343.356999 93 346.042999 90.314 346.042999 87C 346.042999 83.686 343.356999 81 340.042999 81C 336.728999 81 334.042999 83.686 334.042999 87C 334.042999 90.314 336.728999 93 340.042999 93ZM 16.021999 45C 19.346999 45 22.042999 42.314 22.042999 39C 22.042999 35.686 19.346999 33 16.021999 33C 12.695999 33 9.999999 35.686 9.999999 39C 9.999999 42.314 12.695999 45 16.021999 45ZM 340.042999 81L 340.042999 57.75M 16.042999 10L 16.042999 33M 195.561999 65.593L 334.144999 86.11M 162.040999 60.634L 22.027999 39.904"></path></g></g></g><g id="g-root-sy_3_Exclude_1qd7pjf1ao0mpw-stroke-fill" data-item-order="-105974" transform="translate(255.05589294433594, 256)"><g id="sy_3_Exclude_1qd7pjf1ao0mpw-fill" stroke="none" fill="none"><g><path d="M 56.944107 10C 49.471107 10 43.195107 15.122 41.436107 22.047L 10.134107 124.12C 9.542107 126.049 10.984107 128 13.002107 128L 100.886107 128C 102.903107 128 104.346107 126.049 103.754107 124.12L 72.454107 22.054C 70.696107 15.126 64.419107 10 56.944107 10ZM 56.944107 33C 60.810107 33 63.944107 29.866 63.944107 26C 63.944107 22.134 60.810107 19 56.944107 19C 53.078107 19 49.944107 22.134 49.944107 26C 49.944107 29.866 53.078107 33 56.944107 33Z"></path></g></g><g id="sy_3_Exclude_1qd7pjf1ao0mpw-stroke" fill="none" stroke-linecap="round" stroke-linejoin="round" stroke-miterlimit="4" stroke="#f4f4f4" stroke-width="2"><g><path d="M 56.944107 10C 49.471107 10 43.195107 15.122 41.436107 22.047L 10.134107 124.12C 9.542107 126.049 10.984107 128 13.002107 128L 100.886107 128C 102.903107 128 104.346107 126.049 103.754107 124.12L 72.454107 22.054C 70.696107 15.126 64.419107 10 56.944107 10ZM 56.944107 33C 60.810107 33 63.944107 29.866 63.944107 26C 63.944107 22.134 60.810107 19 56.944107 19C 53.078107 19 49.944107 22.134 49.944107 26C 49.944107 29.866 53.078107 33 56.944107 33Z"></path></g></g><g id="sy_3_Exclude_1qd7pjf1ao0mpw-stroke-overlay" fill="none" stroke-linecap="round" stroke-linejoin="round" stroke-miterlimit="4" stroke="#3131311a" stroke-width="2" stroke-dasharray="4,6"><animate attributeName="stroke-dashoffset" values="30;0" dur="1s" repeatCount="indefinite" begin="0"></animate><g><path d="M 56.944107 10C 49.471107 10 43.195107 15.122 41.436107 22.047L 10.134107 124.12C 9.542107 126.049 10.984107 128 13.002107 128L 100.886107 128C 102.903107 128 104.346107 126.049 103.754107 124.12L 72.454107 22.054C 70.696107 15.126 64.419107 10 56.944107 10ZM 56.944107 33C 60.810107 33 63.944107 29.866 63.944107 26C 63.944107 22.134 60.810107 19 56.944107 19C 53.078107 19 49.944107 22.134 49.944107 26C 49.944107 29.866 53.078107 33 56.944107 33Z"></path></g></g></g><g id="g-root-sy_2_right-bucket_1qd7pjf1ao0mpx-stroke-fill" data-item-order="-105970" transform="translate(350, 230)"><g id="sy_2_right-bucket_1qd7pjf1ao0mpx-fill" stroke="none" fill="none"><g><path d="M 11.081 15.729C 10.338 14.904 10 13.826 10 12.716L 10 12.716C 10 11.216 11.216 10 12.716 10L 235.284 10C 236.784 10 238 11.216 238 12.716L 238 12.716C 238 13.826 237.662 14.904 236.919 15.729C 231.551 21.692 204.717 46 124 46C 43.283 46 16.449 21.692 11.081 15.729Z"></path></g></g><g id="sy_2_right-bucket_1qd7pjf1ao0mpx-stroke" fill="none" stroke-linecap="round" stroke-linejoin="round" stroke-miterlimit="4" stroke="#fb6762" stroke-width="2"><g><path d="M 11.081 15.729C 10.338 14.904 10 13.826 10 12.716L 10 12.716C 10 11.216 11.216 10 12.716 10L 235.284 10C 236.784 10 238 11.216 238 12.716L 238 12.716C 238 13.826 237.662 14.904 236.919 15.729C 231.551 21.692 204.717 46 124 46C 43.283 46 16.449 21.692 11.081 15.729Z"></path></g></g><g id="sy_2_right-bucket_1qd7pjf1ao0mpx-stroke-overlay" fill="none" stroke-linecap="round" stroke-linejoin="round" stroke-miterlimit="4" stroke="#f9080063" stroke-width="2" stroke-dasharray="4,6"><animate attributeName="stroke-dashoffset" values="30;0" dur="1s" repeatCount="indefinite" begin="0"></animate><g><path d="M 11.081 15.729C 10.338 14.904 10 13.826 10 12.716L 10 12.716C 10 11.216 11.216 10 12.716 10L 235.284 10C 236.784 10 238 11.216 238 12.716L 238 12.716C 238 13.826 237.662 14.904 236.919 15.729C 231.551 21.692 204.717 46 124 46C 43.283 46 16.449 21.692 11.081 15.729Z"></path></g></g></g><g id="g-root-sy_1_left-bucket_1hhkpaj1ao0nim-stroke-fill" data-item-order="-105966" transform="translate(26, 182)"><g id="sy_1_left-bucket_1hhkpaj1ao0nim-fill" stroke="none" fill="none"><g><path d="M 11.0812 15.729C 10.3384 14.904 10 13.826 10 12.716L 10 12.716C 10 11.216 11.2158 10 12.7157 10L 235.284 10C 236.784 10 238 11.216 238 12.716L 238 12.716C 238 13.826 237.662 14.904 236.919 15.729C 231.551 21.692 204.717 46 124 46C 43.2826 46 16.4488 21.692 11.0812 15.729Z"></path></g></g><g id="sy_1_left-bucket_1hhkpaj1ao0nim-stroke" fill="none" stroke-linecap="round" stroke-linejoin="round" stroke-miterlimit="4" stroke="#43dd93" stroke-width="2"><g><path d="M 11.0812 15.729C 10.3384 14.904 10 13.826 10 12.716L 10 12.716C 10 11.216 11.2158 10 12.7157 10L 235.284 10C 236.784 10 238 11.216 238 12.716L 238 12.716C 238 13.826 237.662 14.904 236.919 15.729C 231.551 21.692 204.717 46 124 46C 43.2826 46 16.4488 21.692 11.0812 15.729Z"></path></g></g><g id="sy_1_left-bucket_1hhkpaj1ao0nim-stroke-overlay" fill="none" stroke-linecap="round" stroke-linejoin="round" stroke-miterlimit="4" stroke="#00c5676e" stroke-width="2" stroke-dasharray="4,6"><animate attributeName="stroke-dashoffset" values="30;0" dur="1s" repeatCount="indefinite" begin="0"></animate><g><path d="M 11.0812 15.729C 10.3384 14.904 10 13.826 10 12.716L 10 12.716C 10 11.216 11.2158 10 12.7157 10L 235.284 10C 236.784 10 238 11.216 238 12.716L 238 12.716C 238 13.826 237.662 14.904 236.919 15.729C 231.551 21.692 204.717 46 124 46C 43.2826 46 16.4488 21.692 11.0812 15.729Z"></path></g></g></g><g id="g-root-ic_2_1d1r7631ao0oav-stroke-fill" data-item-order="0" transform="translate(38, 122)"><g id="ic_2_1d1r7631ao0oav-stroke" fill="none" stroke-linecap="round" stroke-linejoin="round" stroke-miterlimit="4" stroke="#f4f4f4" stroke-width="2"><g><path d="M 14 22.799999C 27.172585 25.728024 40.827415 25.728024 54 22.799999M 10 10M 46 24.216L 44.728001 16.162001C 44.310364 13.20106 41.776249 10.999597 38.786003 11L 29.214001 11C 26.223753 10.999597 23.689638 13.20106 23.271999 16.162001L 22 24.216M 10 10M 34 49L 34 57M 57 57C 56.998333 53.663197 54.925751 50.677883 51.799999 49.509998L 42 46.217999M 10 10M 26 46.217999L 16.200001 49.509998C 13.074248 50.677883 11.001667 53.663197 11 57M 46.139999 52C 46.368248 51.999466 46.587299 52.089901 46.748699 52.251297C 46.910095 52.412693 47.00053 52.631748 46.999996 52.859997C 46.999756 54.197495 46.331039 55.446362 45.217999 56.188L 44 57L 42.782001 56.188C 41.668961 55.446362 41.000244 54.197495 41 52.860001C 40.999466 52.631748 41.089901 52.412693 41.251297 52.251297C 41.412697 52.089901 41.631748 51.999466 41.860001 51.999996ZM 31 38C 31.745369 38.666351 32.716484 39.023903 33.716 39L 34.284 39C 35.283577 39.024307 36.254841 38.666702 37 38M 22.038 29C 20.296 29.874001 20.838001 33.799999 22.992001 34.778C 23.597895 35.053925 24.026766 35.613258 24.136 36.27C 25.02 41.557999 31.226 45 34 45C 36.774002 45 42.98 41.557999 43.863998 36.27C 43.973232 35.613258 44.402103 35.053925 45.007999 34.778C 47.164001 33.798 47.703999 29.874001 45.962002 29M 36 15C 36.552284 15 37 15.447716 37 16L 37 16.860001C 36.999756 18.197495 36.331039 19.44636 35.218002 20.188L 34 21L 32.781998 20.188C 31.668961 19.44636 31.000246 18.197495 31 16.860001L 31 16C 31 15.447716 31.447716 15 32 15ZM 30 27L 26 27C 24.895432 27 24 27.89543 24 29C 24 31.209139 25.790861 33 28 33C 30.209139 33 32 31.209139 32 29C 32 27.89543 31.10457 27 30 27ZM 10 10M 40 33L 40 33C 37.790863 33 36 31.209139 36 29L 36 29C 36 27.89543 36.895432 27 38 27L 42 27C 43.104568 27 44 27.89543 44 29L 44 29C 44 31.209139 42.209141 33 40 33ZM 10 10M 32 29L 36 29"></path></g></g><g id="ic_2_1d1r7631ao0oav-stroke-overlay" fill="none" stroke-linecap="round" stroke-linejoin="round" stroke-miterlimit="4" stroke="#3131311a" stroke-width="2" stroke-dasharray="4,6"><animate attributeName="stroke-dashoffset" values="30;0" dur="1s" repeatCount="indefinite" begin="0"></animate><g><path d="M 14 22.799999C 27.172585 25.728024 40.827415 25.728024 54 22.799999M 10 10M 46 24.216L 44.728001 16.162001C 44.310364 13.20106 41.776249 10.999597 38.786003 11L 29.214001 11C 26.223753 10.999597 23.689638 13.20106 23.271999 16.162001L 22 24.216M 10 10M 34 49L 34 57M 57 57C 56.998333 53.663197 54.925751 50.677883 51.799999 49.509998L 42 46.217999M 10 10M 26 46.217999L 16.200001 49.509998C 13.074248 50.677883 11.001667 53.663197 11 57M 46.139999 52C 46.368248 51.999466 46.587299 52.089901 46.748699 52.251297C 46.910095 52.412693 47.00053 52.631748 46.999996 52.859997C 46.999756 54.197495 46.331039 55.446362 45.217999 56.188L 44 57L 42.782001 56.188C 41.668961 55.446362 41.000244 54.197495 41 52.860001C 40.999466 52.631748 41.089901 52.412693 41.251297 52.251297C 41.412697 52.089901 41.631748 51.999466 41.860001 51.999996ZM 31 38C 31.745369 38.666351 32.716484 39.023903 33.716 39L 34.284 39C 35.283577 39.024307 36.254841 38.666702 37 38M 22.038 29C 20.296 29.874001 20.838001 33.799999 22.992001 34.778C 23.597895 35.053925 24.026766 35.613258 24.136 36.27C 25.02 41.557999 31.226 45 34 45C 36.774002 45 42.98 41.557999 43.863998 36.27C 43.973232 35.613258 44.402103 35.053925 45.007999 34.778C 47.164001 33.798 47.703999 29.874001 45.962002 29M 36 15C 36.552284 15 37 15.447716 37 16L 37 16.860001C 36.999756 18.197495 36.331039 19.44636 35.218002 20.188L 34 21L 32.781998 20.188C 31.668961 19.44636 31.000246 18.197495 31 16.860001L 31 16C 31 15.447716 31.447716 15 32 15ZM 30 27L 26 27C 24.895432 27 24 27.89543 24 29C 24 31.209139 25.790861 33 28 33C 30.209139 33 32 31.209139 32 29C 32 27.89543 31.10457 27 30 27ZM 10 10M 40 33L 40 33C 37.790863 33 36 31.209139 36 29L 36 29C 36 27.89543 36.895432 27 38 27L 42 27C 43.104568 27 44 27.89543 44 29L 44 29C 44 31.209139 42.209141 33 40 33ZM 10 10M 32 29L 36 29"></path></g></g></g><g id="g-root-ic_road_13z8yyz1ao3i80-stroke-fill" data-item-order="0" transform="translate(38, 50)"><g id="ic_road_13z8yyz1ao3i80-stroke" fill="none" stroke-linecap="round" stroke-linejoin="round" stroke-miterlimit="4" stroke="#f4f4f4" stroke-width="2"><g><path d="M 38.610001 35.610001C 37.597809 36.509056 36.291817 37.006981 34.938 37.009998C 32.097672 36.972958 29.710005 34.867393 29.318001 32.054001L 29.254 31.562C 27.288733 30.675159 26.01874 28.726271 26.001123 26.570244C 25.983509 24.414215 27.221487 22.444836 29.172001 21.526001L 29.25 21.074001C 29.211016 18.792166 31.030138 16.911243 33.312 16.874001L 33.711998 16.455999C 33.659111 14.534267 34.654129 12.73544 36.310143 11.758982C 37.966156 10.782523 40.021843 10.782523 41.677856 11.758982C 43.33387 12.73544 44.328888 14.534267 44.276001 16.456001L 44.675999 16.874001C 46.957867 16.911243 48.776985 18.792166 48.738003 21.074001L 49.223999 21.734001C 51.015457 22.768219 52.079926 24.715786 51.983097 26.782076C 51.886265 28.848364 50.644325 30.687849 48.764 31.549999L 48.669998 32.054001C 48.277199 34.866966 45.890007 36.972115 43.049999 37.010002C 41.711052 37.009075 40.417305 36.52552 39.405998 35.647999ZM 39 24L 39 45M 39 31C 41.858765 31.000643 44.500618 29.475765 45.93 27M 39 29C 35.686295 29 33 26.313709 33 23M 27.016001 35.639999L 26.958 35.950001C 26.717047 37.681305 25.247845 38.977161 23.5 39C 22.676254 38.999115 21.880375 38.701637 21.257999 38.162003L 20.76 38.146C 20.135363 38.695656 19.332043 38.999214 18.5 39C 16.751829 38.978008 15.282156 37.68174 15.042 35.950001L 15.002 35.648003C 13.792212 35.102539 13.010352 33.903038 12.999609 32.576012C 12.988865 31.248981 13.751202 30.036982 14.952 29.472002L 15 29.200001C 14.987696 28.525108 15.244322 27.873032 15.713298 27.387548C 16.182274 26.902063 16.825085 26.623041 17.5 26.612001L 17.75 26.354C 17.721054 24.530266 19.176258 23.028494 21 23C 21.339771 22.999191 21.677444 23.053219 22 23.16M 21 33L 21 45M 11 45L 57 45M 11 57L 57 57M 15 51L 23 51M 29 51L 37 51M 43 51L 51 51"></path></g></g><g id="ic_road_13z8yyz1ao3i80-stroke-overlay" fill="none" stroke-linecap="round" stroke-linejoin="round" stroke-miterlimit="4" stroke="#3131311a" stroke-width="2" stroke-dasharray="4,6"><animate attributeName="stroke-dashoffset" values="30;0" dur="1s" repeatCount="indefinite" begin="0"></animate><g><path d="M 38.610001 35.610001C 37.597809 36.509056 36.291817 37.006981 34.938 37.009998C 32.097672 36.972958 29.710005 34.867393 29.318001 32.054001L 29.254 31.562C 27.288733 30.675159 26.01874 28.726271 26.001123 26.570244C 25.983509 24.414215 27.221487 22.444836 29.172001 21.526001L 29.25 21.074001C 29.211016 18.792166 31.030138 16.911243 33.312 16.874001L 33.711998 16.455999C 33.659111 14.534267 34.654129 12.73544 36.310143 11.758982C 37.966156 10.782523 40.021843 10.782523 41.677856 11.758982C 43.33387 12.73544 44.328888 14.534267 44.276001 16.456001L 44.675999 16.874001C 46.957867 16.911243 48.776985 18.792166 48.738003 21.074001L 49.223999 21.734001C 51.015457 22.768219 52.079926 24.715786 51.983097 26.782076C 51.886265 28.848364 50.644325 30.687849 48.764 31.549999L 48.669998 32.054001C 48.277199 34.866966 45.890007 36.972115 43.049999 37.010002C 41.711052 37.009075 40.417305 36.52552 39.405998 35.647999ZM 39 24L 39 45M 39 31C 41.858765 31.000643 44.500618 29.475765 45.93 27M 39 29C 35.686295 29 33 26.313709 33 23M 27.016001 35.639999L 26.958 35.950001C 26.717047 37.681305 25.247845 38.977161 23.5 39C 22.676254 38.999115 21.880375 38.701637 21.257999 38.162003L 20.76 38.146C 20.135363 38.695656 19.332043 38.999214 18.5 39C 16.751829 38.978008 15.282156 37.68174 15.042 35.950001L 15.002 35.648003C 13.792212 35.102539 13.010352 33.903038 12.999609 32.576012C 12.988865 31.248981 13.751202 30.036982 14.952 29.472002L 15 29.200001C 14.987696 28.525108 15.244322 27.873032 15.713298 27.387548C 16.182274 26.902063 16.825085 26.623041 17.5 26.612001L 17.75 26.354C 17.721054 24.530266 19.176258 23.028494 21 23C 21.339771 22.999191 21.677444 23.053219 22 23.16M 21 33L 21 45M 11 45L 57 45M 11 57L 57 57M 15 51L 23 51M 29 51L 37 51M 43 51L 51 51"></path></g></g></g><g id="g-root-ic_can_qoexor1ao4u0x-stroke-fill" data-item-order="0" transform="translate(362, 170)"><g id="ic_can_qoexor1ao4u0x-stroke" fill="none" stroke-linecap="round" stroke-linejoin="round" stroke-miterlimit="4" stroke="#f4f4f4" stroke-width="2"><g><path d="M 55.34 55C 55.34 56.104568 54.444569 57 53.34 57L 17.34 57C 16.235432 57 15.34 56.104568 15.34 55L 15.34 26C 15.34 25.447716 15.787716 25 16.34 25L 26.34 25C 27.545897 24.934727 28.636015 24.261219 29.234001 23.212002L 33.445999 14.788C 34.043987 13.738781 35.134106 13.065273 36.340004 13L 51.34 13C 53.549137 13 55.34 14.790861 55.34 17ZM 39.34 17C 38.134106 17.065273 37.043987 17.738781 36.445999 18.788L 35.234001 21.212C 34.758003 22.287479 34.961956 23.542576 35.753998 24.411999L 36.34 24.998001L 49.34 24.998001C 50.444569 24.998001 51.34 24.10257 51.34 22.998001L 51.34 18.998001C 51.34 17.893431 50.444569 16.998001 49.34 16.998001ZM 25.543999 32.200001L 45.34 52M 45.34 32.200001L 25.543999 52M 27.222 24.846001L 17.922001 11.814C 17.532795 11.332032 16.95842 11.036494 16.34 11L 13.34 11C 13.108438 10.97188 12.881029 11.077838 12.753605 11.273221C 12.626182 11.468604 12.620906 11.719432 12.74 11.92L 18.34 25"></path></g></g><g id="ic_can_qoexor1ao4u0x-stroke-overlay" fill="none" stroke-linecap="round" stroke-linejoin="round" stroke-miterlimit="4" stroke="#3131311a" stroke-width="2" stroke-dasharray="4,6"><animate attributeName="stroke-dashoffset" values="30;0" dur="1s" repeatCount="indefinite" begin="0"></animate><g><path d="M 55.34 55C 55.34 56.104568 54.444569 57 53.34 57L 17.34 57C 16.235432 57 15.34 56.104568 15.34 55L 15.34 26C 15.34 25.447716 15.787716 25 16.34 25L 26.34 25C 27.545897 24.934727 28.636015 24.261219 29.234001 23.212002L 33.445999 14.788C 34.043987 13.738781 35.134106 13.065273 36.340004 13L 51.34 13C 53.549137 13 55.34 14.790861 55.34 17ZM 39.34 17C 38.134106 17.065273 37.043987 17.738781 36.445999 18.788L 35.234001 21.212C 34.758003 22.287479 34.961956 23.542576 35.753998 24.411999L 36.34 24.998001L 49.34 24.998001C 50.444569 24.998001 51.34 24.10257 51.34 22.998001L 51.34 18.998001C 51.34 17.893431 50.444569 16.998001 49.34 16.998001ZM 25.543999 32.200001L 45.34 52M 45.34 32.200001L 25.543999 52M 27.222 24.846001L 17.922001 11.814C 17.532795 11.332032 16.95842 11.036494 16.34 11L 13.34 11C 13.108438 10.97188 12.881029 11.077838 12.753605 11.273221C 12.626182 11.468604 12.620906 11.719432 12.74 11.92L 18.34 25"></path></g></g></g><g id="g-root-ic_2_142dcej1ao4w0a-stroke-fill" data-item-order="0" transform="translate(362, 98)"><g id="ic_2_142dcej1ao4w0a-stroke" fill="none" stroke-linecap="round" stroke-linejoin="round" stroke-miterlimit="4" stroke="#f4f4f4" stroke-width="2"><g><path d="M 54 28.128C 54 40.127998 41.112 44.127998 34 44.127998C 26.888 44.127998 14 40.127998 14 28.128C 14 16.128 22.218 11.128 34 11.128C 45.782001 11.128 54 16.128 54 28.128ZM 29 51.127998L 29 57.127998L 39 57.127998L 39 51.127998M 44.546001 41.756001L 39 51.127998M 23.456001 41.756001L 29 51.127998M 26 51.127998L 42 51.127998M 44.834 27.459999C 44.834 36.66 39.982002 44.127998 34 44.127998C 28.018 44.127998 23.166 36.666 23.166 27.459999C 23.166 18.254 28.018 11.128 34 11.128C 39.982002 11.128 44.834 18.256001 44.834 27.459999Z"></path></g></g><g id="ic_2_142dcej1ao4w0a-stroke-overlay" fill="none" stroke-linecap="round" stroke-linejoin="round" stroke-miterlimit="4" stroke="#3131311a" stroke-width="2" stroke-dasharray="4,6"><animate attributeName="stroke-dashoffset" values="30;0" dur="1s" repeatCount="indefinite" begin="0"></animate><g><path d="M 54 28.128C 54 40.127998 41.112 44.127998 34 44.127998C 26.888 44.127998 14 40.127998 14 28.128C 14 16.128 22.218 11.128 34 11.128C 45.782001 11.128 54 16.128 54 28.128ZM 29 51.127998L 29 57.127998L 39 57.127998L 39 51.127998M 44.546001 41.756001L 39 51.127998M 23.456001 41.756001L 29 51.127998M 26 51.127998L 42 51.127998M 44.834 27.459999C 44.834 36.66 39.982002 44.127998 34 44.127998C 28.018 44.127998 23.166 36.666 23.166 27.459999C 23.166 18.254 28.018 11.128 34 11.128C 39.982002 11.128 44.834 18.256001 44.834 27.459999Z"></path></g></g></g><g id="g-root-tx_initialp_1uonw231ao69e3-stroke-fill" data-item-order="0" transform="translate(98, 122)"><g id="tx_initialp_1uonw231ao69e3-fill" stroke="none" fill="#f4f4f4"><g><text style="font: 20px Roboto, sans-serif; white-space: pre;" font-size="20px" font-family="Roboto, sans-serif"><tspan x="12" y="34" dominant-baseline="ideographic">Initial police </tspan><tspan x="12" y="58" dominant-baseline="ideographic">validation</tspan></text></g></g><g id="tx_initialp_1uonw231ao69e3-fill-overlay" stroke="none" fill="url(#crawlingPattern-0000001b)"><g><text style="font: 20px Roboto, sans-serif; white-space: pre;" font-size="20px" font-family="Roboto, sans-serif"><tspan x="12" y="34" dominant-baseline="ideographic">Initial police </tspan><tspan x="12" y="58" dominant-baseline="ideographic">validation</tspan></text></g></g></g><g id="g-root-tx_consiste_1hd7dor1ao6az0-stroke-fill" data-item-order="0" transform="translate(98, 50)"><g id="tx_consiste_1hd7dor1ao6az0-fill" stroke="none" fill="#f4f4f4"><g><text style="font: 20px Roboto, sans-serif; white-space: pre;" font-size="20px" font-family="Roboto, sans-serif"><tspan x="12" y="34" dominant-baseline="ideographic">Consistent initial </tspan><tspan x="12" y="58" dominant-baseline="ideographic">narrative</tspan></text></g></g><g id="tx_consiste_1hd7dor1ao6az0-fill-overlay" stroke="none" fill="url(#crawlingPattern-0000001b)"><g><text style="font: 20px Roboto, sans-serif; white-space: pre;" font-size="20px" font-family="Roboto, sans-serif"><tspan x="12" y="34" dominant-baseline="ideographic">Consistent initial </tspan><tspan x="12" y="58" dominant-baseline="ideographic">narrative</tspan></text></g></g></g><g id="g-root-tx_manufact_zmjua31ao6a6d-stroke-fill" data-item-order="0" transform="translate(422, 170)"><g id="tx_manufact_zmjua31ao6a6d-fill" stroke="none" fill="#f4f4f4"><g><text style="font: 20px Roboto, sans-serif; white-space: pre;" font-size="20px" font-family="Roboto, sans-serif"><tspan x="12" y="34" dominant-baseline="ideographic">Manufactured </tspan><tspan x="12" y="58" dominant-baseline="ideographic">evidence</tspan></text></g></g><g id="tx_manufact_zmjua31ao6a6d-fill-overlay" stroke="none" fill="url(#crawlingPattern-0000001b)"><g><text style="font: 20px Roboto, sans-serif; white-space: pre;" font-size="20px" font-family="Roboto, sans-serif"><tspan x="12" y="34" dominant-baseline="ideographic">Manufactured </tspan><tspan x="12" y="58" dominant-baseline="ideographic">evidence</tspan></text></g></g></g><g id="g-root-tx_escalati_mbpszv1ao68li-stroke-fill" data-item-order="0" transform="translate(422, 98)"><g id="tx_escalati_mbpszv1ao68li-fill" stroke="none" fill="#f4f4f4"><g><text style="font: 20px Roboto, sans-serif; white-space: pre;" font-size="20px" font-family="Roboto, sans-serif"><tspan x="12" y="34" dominant-baseline="ideographic">Escalating </tspan><tspan x="12" y="58" dominant-baseline="ideographic">narrative</tspan></text></g></g><g id="tx_escalati_mbpszv1ao68li-fill-overlay" stroke="none" fill="url(#crawlingPattern-0000001b)"><g><text style="font: 20px Roboto, sans-serif; white-space: pre;" font-size="20px" font-family="Roboto, sans-serif"><tspan x="12" y="34" dominant-baseline="ideographic">Escalating </tspan><tspan x="12" y="58" dominant-baseline="ideographic">narrative</tspan></text></g></g></g><g id="g-root-tx_supporti_909amj1ao6a6f-stroke-fill" data-item-order="0" transform="translate(44, 290)"><g id="tx_supporti_909amj1ao6a6f-fill" stroke="none" fill="#f4f4f4"><g><text style="font: 20px Roboto, sans-serif; white-space: pre;" font-size="20px" font-family="Roboto, sans-serif"><tspan x="14.27" y="34" dominant-baseline="ideographic">Supportive Elements</tspan></text></g></g><g id="tx_supporti_909amj1ao6a6f-fill-overlay" stroke="none" fill="url(#crawlingPattern-0000001b)"><g><text style="font: 20px Roboto, sans-serif; white-space: pre;" font-size="20px" font-family="Roboto, sans-serif"><tspan x="14.27" y="34" dominant-baseline="ideographic">Supportive Elements</tspan></text></g></g></g><g id="g-root-tx_undermin_4kfsi31ao6ayo-stroke-fill" data-item-order="0" transform="translate(398, 326)"><g id="tx_undermin_4kfsi31ao6ayo-fill" stroke="none" fill="#f4f4f4"><g><text style="font: 20px Roboto, sans-serif; white-space: pre;" font-size="20px" font-family="Roboto, sans-serif"><tspan x="16.88" y="34" dominant-baseline="ideographic">Undermining </tspan><tspan x="29.43" y="58" dominant-baseline="ideographic">Credibility</tspan></text></g></g><g id="tx_undermin_4kfsi31ao6ayo-fill-overlay" stroke="none" fill="url(#crawlingPattern-0000001b)"><g><text style="font: 20px Roboto, sans-serif; white-space: pre;" font-size="20px" font-family="Roboto, sans-serif"><tspan x="16.88" y="34" dominant-baseline="ideographic">Undermining </tspan><tspan x="29.43" y="58" dominant-baseline="ideographic">Credibility</tspan></text></g></g></g><g id="g-root-tx_balancin_1hf2sy31ao69zd-stroke-fill" data-item-order="0" transform="translate(98, 386)"><g id="tx_balancin_1hf2sy31ao69zd-fill" stroke="none" fill="#f4f4f4"><g><text style="font: 20px Roboto, sans-serif; white-space: pre;" font-size="20px" font-family="Roboto, sans-serif"><tspan x="12.73" y="34" dominant-baseline="ideographic">Balancing Credibility in Schmidt's UFO Claims</tspan></text></g></g><defs><pattern id="crawlingPattern-0000001b" x="0" y="0" width="12" height="12" patternUnits="userSpaceOnUse" fill="#0000001b"><use href="#crawlingSymbol"></use></pattern><symbol id="crawlingSymbol"><g><animateTransform attributeName="transform" type="translate" from="0 0" to="-12 0" dur="0.4s" repeatCount="indefinite"></animateTransform><path d="M -12.5 12.5 l 13 -13 l 6 0 l -13 13 Z M -0.5 12.5 l 13 -13 l 6 0 l -13 13 Z M 11.5 12.5 l 13 -13 l 6 0 l -13 13 Z"></path></g></symbol></defs><g id="tx_balancin_1hf2sy31ao69zd-fill-overlay" stroke="none" fill="url(#crawlingPattern-0000001b)"><g><text style="font: 20px Roboto, sans-serif; white-space: pre;" font-size="20px" font-family="Roboto, sans-serif"><tspan x="12.73" y="34" dominant-baseline="ideographic">Balancing Credibility in Schmidt's UFO Claims</tspan></text></g></g></g></svg>