<svg width="912" height="576" viewBox="0 0 912 576" style="fill:none;stroke:none;fill-rule:evenodd;clip-rule:evenodd;stroke-linecap:round;stroke-linejoin:round;stroke-miterlimit:1.5;" version="1.1" xmlns="http://www.w3.org/2000/svg" xmlns:xlink="http://www.w3.org/1999/xlink"><style class="text-font-style fontImports" data-font-family="Roboto">@import url('https://fonts.googleapis.com/css2?family=Roboto:wght@400;700&amp;display=block');</style><g id="g-root-tf_htf6zf1aog3yd-stroke-fill" data-item-order="-490176" transform="translate(12, 12)"><g id="tf_htf6zf1aog3yd-fill" stroke="none" fill="#2c2c2c"><g><path d="M 0 0L 888 0L 888 552L 0 552Z"></path></g></g><defs><pattern id="crawlingPattern-ffe50099" x="0" y="0" width="12" height="12" patternUnits="userSpaceOnUse" fill="#ffe50099"><use href="#crawlingSymbol"></use></pattern><symbol id="crawlingSymbol"><g><animateTransform attributeName="transform" type="translate" from="0 0" to="-12 0" dur="0.4s" repeatCount="indefinite"></animateTransform><path d="M -12.5 12.5 l 13 -13 l 6 0 l -13 13 Z M -0.5 12.5 l 13 -13 l 6 0 l -13 13 Z M 11.5 12.5 l 13 -13 l 6 0 l -13 13 Z"></path></g></symbol><pattern id="crawlingPattern-8ed00028" x="0" y="0" width="12" height="12" patternUnits="userSpaceOnUse" fill="#8ed00028"><use href="#crawlingSymbol"></use></pattern><pattern id="crawlingPattern-00d16d21" x="0" y="0" width="12" height="12" patternUnits="userSpaceOnUse" fill="#00d16d21"><use href="#crawlingSymbol"></use></pattern><pattern id="crawlingPattern-00bcfb62" x="0" y="0" width="12" height="12" patternUnits="userSpaceOnUse" fill="#00bcfb62"><use href="#crawlingSymbol"></use></pattern><pattern id="crawlingPattern-0060fb20" x="0" y="0" width="12" height="12" patternUnits="userSpaceOnUse" fill="#0060fb20"><use href="#crawlingSymbol"></use></pattern><pattern id="crawlingPattern-0000001b" x="0" y="0" width="12" height="12" patternUnits="userSpaceOnUse" fill="#0000001b"><use href="#crawlingSymbol"></use></pattern><pattern id="crawlingPattern-c1c1c11a" x="0" y="0" width="12" height="12" patternUnits="userSpaceOnUse" fill="#c1c1c11a"><use href="#crawlingSymbol"></use></pattern><pattern id="crawlingPattern-0059ff37" x="0" y="0" width="12" height="12" patternUnits="userSpaceOnUse" fill="#0059ff37"><use href="#crawlingSymbol"></use></pattern><pattern id="crawlingPattern-acff003c" x="0" y="0" width="12" height="12" patternUnits="userSpaceOnUse" fill="#acff003c"><use href="#crawlingSymbol"></use></pattern><pattern id="crawlingPattern-ffe7003d" x="0" y="0" width="12" height="12" patternUnits="userSpaceOnUse" fill="#ffe7003d"><use href="#crawlingSymbol"></use></pattern><pattern id="crawlingPattern-00baff39" x="0" y="0" width="12" height="12" patternUnits="userSpaceOnUse" fill="#00baff39"><use href="#crawlingSymbol"></use></pattern><pattern id="crawlingPattern-00ff873a" x="0" y="0" width="12" height="12" patternUnits="userSpaceOnUse" fill="#00ff873a"><use href="#crawlingSymbol"></use></pattern><pattern id="crawlingPattern-5f5f5f1a" x="0" y="0" width="12" height="12" patternUnits="userSpaceOnUse" fill="#5f5f5f1a"><use href="#crawlingSymbol"></use></pattern></defs><g id="tf_htf6zf1aog3yd-fill-overlay" stroke="none" fill="url(#crawlingPattern-5f5f5f1a)"><g><path d="M 0 0L 888 0L 888 552L 0 552Z"></path></g></g></g><g id="g-root-cp_5_g-5_ddlouz1ao69s3-stroke-fill" data-item-order="-383030" transform="translate(230, 362)"><g id="cp_5_g-5_ddlouz1ao69s3-fill" stroke="none" fill="#ffe711"><g><path d="M 226 34L 226 10L 305.5 82L 226 154L 226 130L 131 130C 61.9645 130 10 79.0356 10 10.000008L 106.0001 10C 106.0001 23.8071 117.193 33.9999 131 34L 226 34Z"></path></g></g><g id="cp_5_g-5_ddlouz1ao69s3-fill-overlay" stroke="none" fill="url(#crawlingPattern-ffe50099)"><g><path d="M 226 34L 226 10L 305.5 82L 226 154L 226 130L 131 130C 61.9645 130 10 79.0356 10 10.000008L 106.0001 10C 106.0001 23.8071 117.193 33.9999 131 34L 226 34Z"></path></g></g><g id="cp_5_g-5_ddlouz1ao69s3-stroke" fill="none" stroke-linecap="round" stroke-linejoin="round" stroke-miterlimit="4" stroke="#2c2c2c" stroke-width="2"><g><path d="M 226.0001 34L 226.0001 10L 305.5002 82L 226.0001 154L 226.0001 130.0001L 131.0001 130C 61.9645 130 10 79.0356 10 10L 106.0001 10C 106.0001 23.8071 117.1931 33.9999 131.0001 34L 226.0001 34Z"></path></g></g><g id="cp_5_g-5_ddlouz1ao69s3-stroke-overlay" fill="none" stroke-linecap="round" stroke-linejoin="round" stroke-miterlimit="4" stroke="#ffffff29" stroke-width="2" stroke-dasharray="4,6"><animate attributeName="stroke-dashoffset" values="30;0" dur="1s" repeatCount="indefinite" begin="0"></animate><g><path d="M 226.0001 34L 226.0001 10L 305.5002 82L 226.0001 154L 226.0001 130.0001L 131.0001 130C 61.9645 130 10 79.0356 10 10L 106.0001 10C 106.0001 23.8071 117.1931 33.9999 131.0001 34L 226.0001 34Z"></path></g></g></g><g id="g-root-cp_4_g-4_4hyom31ao6akt-stroke-fill" data-item-order="-383026" transform="translate(230, 242)"><g id="cp_4_g-4_4hyom31ao6akt-fill" stroke="none" fill="#a6da37"><g><path d="M 226 10.000008L 131 10C 61.9645 9.999991 10.000006 60.9644 10 130L 106.0001 130C 106.0001 116.193 117.193 106.0001 131 106L 226 106L 226 10.000008Z"></path></g></g><g id="cp_4_g-4_4hyom31ao6akt-fill-overlay" stroke="none" fill="url(#crawlingPattern-8ed00028)"><g><path d="M 226 10.000008L 131 10C 61.9645 9.999991 10.000006 60.9644 10 130L 106.0001 130C 106.0001 116.193 117.193 106.0001 131 106L 226 106L 226 10.000008Z"></path></g></g><g id="cp_4_g-4_4hyom31ao6akt-stroke" fill="none" stroke-linecap="round" stroke-linejoin="round" stroke-miterlimit="4" stroke="#2c2c2c" stroke-width="2"><g><path d="M 226.0001 10L 131.0001 10C 61.9645 10 10 60.9644 10 130L 106.0001 130C 106.0001 116.1929 117.1931 106.0001 131.0001 106L 226.0001 106L 226.0001 10Z"></path></g></g><g id="cp_4_g-4_4hyom31ao6akt-stroke-overlay" fill="none" stroke-linecap="round" stroke-linejoin="round" stroke-miterlimit="4" stroke="#ffffff29" stroke-width="2" stroke-dasharray="4,6"><animate attributeName="stroke-dashoffset" values="30;0" dur="1s" repeatCount="indefinite" begin="0"></animate><g><path d="M 226.0001 10L 131.0001 10C 61.9645 10 10 60.9644 10 130L 106.0001 130C 106.0001 116.1929 117.1931 106.0001 131.0001 106L 226.0001 106L 226.0001 10Z"></path></g></g></g><g id="g-root-cp_3_g-3_256hn1ao6bd3-stroke-fill" data-item-order="-383022" transform="translate(446, 218)"><g id="cp_3_g-3_256hn1ao6bd3-fill" stroke="none" fill="#43dd93"><g><path d="M 10 130L 105 130C 174.036 130 226 79.0356 226 10.000008L 130 10C 130 23.8071 118.807 33.9999 105 34L 10 34L 10 130Z"></path></g></g><g id="cp_3_g-3_256hn1ao6bd3-fill-overlay" stroke="none" fill="url(#crawlingPattern-00d16d21)"><g><path d="M 10 130L 105 130C 174.036 130 226 79.0356 226 10.000008L 130 10C 130 23.8071 118.807 33.9999 105 34L 10 34L 10 130Z"></path></g></g><g id="cp_3_g-3_256hn1ao6bd3-stroke" fill="none" stroke-linecap="round" stroke-linejoin="round" stroke-miterlimit="4" stroke="#2c2c2c" stroke-width="2"><g><path d="M 10 130L 105 130C 174.0356 130 226.0001 79.0356 226.0001 10L 130 10C 130 23.8071 118.8071 33.9999 105 34L 10 34L 10 130Z"></path></g></g><g id="cp_3_g-3_256hn1ao6bd3-stroke-overlay" fill="none" stroke-linecap="round" stroke-linejoin="round" stroke-miterlimit="4" stroke="#ffffff29" stroke-width="2" stroke-dasharray="4,6"><animate attributeName="stroke-dashoffset" values="30;0" dur="1s" repeatCount="indefinite" begin="0"></animate><g><path d="M 10 130L 105 130C 174.0356 130 226.0001 79.0356 226.0001 10L 130 10C 130 23.8071 118.8071 33.9999 105 34L 10 34L 10 130Z"></path></g></g></g><g id="g-root-cp_2_g-2_1uo27ff1ao68sh-stroke-fill" data-item-order="-383018" transform="translate(446, 98)"><g id="cp_2_g-2_1uo27ff1ao68sh-fill" stroke="none" fill="#1ac3fb"><g><path d="M 10 10L 105 10C 174.036 9.999997 226 60.9644 226 130L 130 130C 130 116.193 118.807 106.0001 105 106L 10 106L 10 10Z"></path></g></g><g id="cp_2_g-2_1uo27ff1ao68sh-fill-overlay" stroke="none" fill="url(#crawlingPattern-00bcfb62)"><g><path d="M 10 10L 105 10C 174.036 9.999997 226 60.9644 226 130L 130 130C 130 116.193 118.807 106.0001 105 106L 10 106L 10 10Z"></path></g></g><g id="cp_2_g-2_1uo27ff1ao68sh-stroke" fill="none" stroke-linecap="round" stroke-linejoin="round" stroke-miterlimit="4" stroke="#2c2c2c" stroke-width="2"><g><path d="M 10 10L 105 10C 174.0356 10 226.0001 60.9644 226.0001 130L 130 130C 130 116.1929 118.8071 106.0001 105 106L 10 106L 10 10Z"></path></g></g><g id="cp_2_g-2_1uo27ff1ao68sh-stroke-overlay" fill="none" stroke-linecap="round" stroke-linejoin="round" stroke-miterlimit="4" stroke="#ffffff29" stroke-width="2" stroke-dasharray="4,6"><animate attributeName="stroke-dashoffset" values="30;0" dur="1s" repeatCount="indefinite" begin="0"></animate><g><path d="M 10 10L 105 10C 174.0356 10 226.0001 60.9644 226.0001 130L 130 130C 130 116.1929 118.8071 106.0001 105 106L 10 106L 10 10Z"></path></g></g></g><g id="g-root-cp_1_g-1_1lsf76j1ao69l7-stroke-fill" data-item-order="-383014" transform="translate(230, 98)"><g id="cp_1_g-1_1lsf76j1ao69l7-fill" stroke="none" fill="#4f91fc"><g><path d="M 10 10L 226 10L 226 106L 10 106L 10 10Z"></path></g></g><g id="cp_1_g-1_1lsf76j1ao69l7-fill-overlay" stroke="none" fill="url(#crawlingPattern-0060fb20)"><g><path d="M 10 10L 226 10L 226 106L 10 106L 10 10Z"></path></g></g><g id="cp_1_g-1_1lsf76j1ao69l7-stroke" fill="none" stroke-linecap="round" stroke-linejoin="round" stroke-miterlimit="4" stroke="#2c2c2c" stroke-width="2"><g><path d="M 10 10L 226 10L 226 106L 10 106L 10 10Z"></path></g></g><g id="cp_1_g-1_1lsf76j1ao69l7-stroke-overlay" fill="none" stroke-linecap="round" stroke-linejoin="round" stroke-miterlimit="4" stroke="#ffffff29" stroke-width="2" stroke-dasharray="4,6"><animate attributeName="stroke-dashoffset" values="30;0" dur="1s" repeatCount="indefinite" begin="0"></animate><g><path d="M 10 10L 226 10L 226 106L 10 106L 10 10Z"></path></g></g></g><g id="g-root-ic_top_141rnrv1ao68sm-stroke-fill" data-item-order="-3600" transform="translate(308, 116)"><g id="ic_top_141rnrv1ao68sm-fill" stroke="none" fill="#f4f4f4"><g><path d="M 18.709999 15.54C 19.430481 16.684402 19.110352 18.194267 17.987453 18.947826C 16.864557 19.701385 15.345995 19.425436 14.56 18.325001L 12.36 15.0575C 11.589922 13.91081 11.895387 12.356947 13.042227 11.587093C 14.189067 10.81724 15.742871 11.123009 16.512501 12.27L 18.709999 15.54ZM 61.9725 19.0075C 60.827042 18.238091 60.521564 16.686115 61.290001 15.54L 63.484997 12.27C 64.264839 11.150908 65.797775 10.863468 66.930069 11.624014C 68.062355 12.38456 68.376022 13.912338 67.635002 15.0575L 65.442497 18.325001C 64.672974 19.472015 63.119102 19.777639 61.9725 19.0075ZM 24.922501 25.342501C 25.692579 26.489189 25.387114 28.043053 24.240273 28.812906C 23.093433 29.58276 21.539629 29.276991 20.77 28.129999L 18.575001 24.859999C 17.854519 23.715599 18.17465 22.205732 19.297546 21.452175C 20.420443 20.698616 21.939005 20.974564 22.725 22.075001L 24.922501 25.342501ZM 55.359997 28.8125C 54.212986 28.042976 53.90736 26.489101 54.677502 25.342501L 56.872501 22.075001C 57.658497 20.974564 59.177055 20.698616 60.299953 21.452175C 61.422848 22.205732 61.742981 23.715599 61.022499 24.859999L 58.829998 28.129999C 58.060474 29.277016 56.506599 29.58264 55.359997 28.8125ZM 39.565002 68.837502C 48.724998 68.837502 56.149998 63.105003 56.149998 53.577499C 57.7425 54.109997 58.5825 53.357502 58.805 52.915001C 59.467503 51.59 57.700001 48.935001 56.149998 46.945C 56.149998 38.599998 50.452499 31.637499 42.8825 30.039999C 42.8825 30.039999 42.217499 27.040001 39.565002 27.040001C 36.912502 27.040001 36.247498 30.039999 36.247498 30.039999C 28.6775 31.639999 22.98 38.599998 22.98 46.945C 21.43 48.935001 19.6625 51.587502 20.325001 52.915001C 20.547501 53.357502 21.387499 54.109997 22.98 53.577499C 22.98 63.102497 30.404999 68.837502 39.565002 68.837502Z"></path></g></g><g id="ic_top_141rnrv1ao68sm-fill-overlay" stroke="none" fill="url(#crawlingPattern-c1c1c11a)"><g><path d="M 18.709999 15.54C 19.430481 16.684402 19.110352 18.194267 17.987453 18.947826C 16.864557 19.701385 15.345995 19.425436 14.56 18.325001L 12.36 15.0575C 11.589922 13.91081 11.895387 12.356947 13.042227 11.587093C 14.189067 10.81724 15.742871 11.123009 16.512501 12.27L 18.709999 15.54ZM 61.9725 19.0075C 60.827042 18.238091 60.521564 16.686115 61.290001 15.54L 63.484997 12.27C 64.264839 11.150908 65.797775 10.863468 66.930069 11.624014C 68.062355 12.38456 68.376022 13.912338 67.635002 15.0575L 65.442497 18.325001C 64.672974 19.472015 63.119102 19.777639 61.9725 19.0075ZM 24.922501 25.342501C 25.692579 26.489189 25.387114 28.043053 24.240273 28.812906C 23.093433 29.58276 21.539629 29.276991 20.77 28.129999L 18.575001 24.859999C 17.854519 23.715599 18.17465 22.205732 19.297546 21.452175C 20.420443 20.698616 21.939005 20.974564 22.725 22.075001L 24.922501 25.342501ZM 55.359997 28.8125C 54.212986 28.042976 53.90736 26.489101 54.677502 25.342501L 56.872501 22.075001C 57.658497 20.974564 59.177055 20.698616 60.299953 21.452175C 61.422848 22.205732 61.742981 23.715599 61.022499 24.859999L 58.829998 28.129999C 58.060474 29.277016 56.506599 29.58264 55.359997 28.8125ZM 39.565002 68.837502C 48.724998 68.837502 56.149998 63.105003 56.149998 53.577499C 57.7425 54.109997 58.5825 53.357502 58.805 52.915001C 59.467503 51.59 57.700001 48.935001 56.149998 46.945C 56.149998 38.599998 50.452499 31.637499 42.8825 30.039999C 42.8825 30.039999 42.217499 27.040001 39.565002 27.040001C 36.912502 27.040001 36.247498 30.039999 36.247498 30.039999C 28.6775 31.639999 22.98 38.599998 22.98 46.945C 21.43 48.935001 19.6625 51.587502 20.325001 52.915001C 20.547501 53.357502 21.387499 54.109997 22.98 53.577499C 22.98 63.102497 30.404999 68.837502 39.565002 68.837502Z"></path></g></g></g><g id="g-root-ic_edit_qtfiu31ao7o5r-stroke-fill" data-item-order="-3600" transform="translate(308, 260)"><g id="ic_edit_qtfiu31ao7o5r-fill" stroke="none" fill="#f4f4f4"><g><path d="M 60 28.75C 60 27.369287 58.880711 26.25 57.5 26.25L 40 26.25C 38.619286 26.25 37.5 27.369287 37.5 28.75C 37.5 30.130713 38.619286 31.25 40 31.25L 57.5 31.25C 58.880711 31.25 60 30.130713 60 28.75ZM 68.525002 17.5L 62.5 11.475C 61.560509 10.529902 60.282612 9.998944 58.950001 10L 30 10C 27.238577 10 25 12.238576 25 15L 25 38.950001C 25.003244 39.197018 25.151684 39.418945 25.378746 39.516258C 25.60581 39.613571 25.868889 39.568008 26.049999 39.400002L 29.575001 36.025002C 29.87923 35.775955 30.038742 35.391251 30 35L 30 16.25C 30 15.559644 30.559645 15 31.25 15L 58.449997 15C 58.781509 14.995958 59.099297 15.132154 59.324997 15.375L 64.625 20.674999C 64.867844 20.900702 65.004036 21.218491 65 21.549999L 65 55C 65 55.690353 64.440353 56.25 63.75 56.25L 38.75 56.25C 38.418491 56.245956 38.1007 56.382156 37.875 56.625L 34.375 60.174999C 34.212841 60.361668 34.170635 60.624176 34.266113 60.852261C 34.361595 61.080353 34.578217 61.234512 34.824997 61.249996L 65 61.25C 67.761429 61.25 70 59.011425 70 56.25L 70 21.049999C 70.001053 19.717388 69.4701 18.439491 68.525002 17.5ZM 45 37.5C 44.775696 37.503162 44.570293 37.626297 44.461788 37.822636C 44.353287 38.018974 44.358326 38.258404 44.474998 38.450001C 45.191631 39.526802 45.692551 40.73241 45.950001 42C 46.008419 42.286495 46.257664 42.494198 46.549999 42.5L 51.25 42.5C 52.630711 42.5 53.75 41.380714 53.75 40C 53.75 38.619286 52.630711 37.5 51.25 37.5ZM 12.65 60.324997C 12.486005 60.164619 12.247333 60.10696 12.028207 60.174786C 11.809081 60.242611 11.644716 60.425018 11.6 60.650002L 10 68.5C 9.92602 68.909653 10.056677 69.32962 10.35 69.625C 10.581533 69.874443 10.909848 70.011238 11.25 70L 11.5 70L 19.35 68.425003C 19.574982 68.380287 19.757391 68.215919 19.825216 67.996796C 19.89304 67.777664 19.835381 67.538994 19.674999 67.375ZM 40 38.974998C 37.261528 36.889778 33.396801 37.179634 31 39.649998L 14.625 56.100002C 14.50278 56.217804 14.433734 56.380249 14.433734 56.550003C 14.433734 56.719749 14.50278 56.882202 14.625 57L 23 65.375C 23.117802 65.497223 23.280251 65.566269 23.450001 65.566269C 23.619749 65.566269 23.782198 65.497223 23.9 65.375L 40.599998 48.674999C 41.887318 47.347111 42.555855 45.538452 42.441673 43.692528C 42.327492 41.8466 41.441154 40.134121 40 38.974998Z"></path></g></g><g id="ic_edit_qtfiu31ao7o5r-fill-overlay" stroke="none" fill="url(#crawlingPattern-c1c1c11a)"><g><path d="M 60 28.75C 60 27.369287 58.880711 26.25 57.5 26.25L 40 26.25C 38.619286 26.25 37.5 27.369287 37.5 28.75C 37.5 30.130713 38.619286 31.25 40 31.25L 57.5 31.25C 58.880711 31.25 60 30.130713 60 28.75ZM 68.525002 17.5L 62.5 11.475C 61.560509 10.529902 60.282612 9.998944 58.950001 10L 30 10C 27.238577 10 25 12.238576 25 15L 25 38.950001C 25.003244 39.197018 25.151684 39.418945 25.378746 39.516258C 25.60581 39.613571 25.868889 39.568008 26.049999 39.400002L 29.575001 36.025002C 29.87923 35.775955 30.038742 35.391251 30 35L 30 16.25C 30 15.559644 30.559645 15 31.25 15L 58.449997 15C 58.781509 14.995958 59.099297 15.132154 59.324997 15.375L 64.625 20.674999C 64.867844 20.900702 65.004036 21.218491 65 21.549999L 65 55C 65 55.690353 64.440353 56.25 63.75 56.25L 38.75 56.25C 38.418491 56.245956 38.1007 56.382156 37.875 56.625L 34.375 60.174999C 34.212841 60.361668 34.170635 60.624176 34.266113 60.852261C 34.361595 61.080353 34.578217 61.234512 34.824997 61.249996L 65 61.25C 67.761429 61.25 70 59.011425 70 56.25L 70 21.049999C 70.001053 19.717388 69.4701 18.439491 68.525002 17.5ZM 45 37.5C 44.775696 37.503162 44.570293 37.626297 44.461788 37.822636C 44.353287 38.018974 44.358326 38.258404 44.474998 38.450001C 45.191631 39.526802 45.692551 40.73241 45.950001 42C 46.008419 42.286495 46.257664 42.494198 46.549999 42.5L 51.25 42.5C 52.630711 42.5 53.75 41.380714 53.75 40C 53.75 38.619286 52.630711 37.5 51.25 37.5ZM 12.65 60.324997C 12.486005 60.164619 12.247333 60.10696 12.028207 60.174786C 11.809081 60.242611 11.644716 60.425018 11.6 60.650002L 10 68.5C 9.92602 68.909653 10.056677 69.32962 10.35 69.625C 10.581533 69.874443 10.909848 70.011238 11.25 70L 11.5 70L 19.35 68.425003C 19.574982 68.380287 19.757391 68.215919 19.825216 67.996796C 19.89304 67.777664 19.835381 67.538994 19.674999 67.375ZM 40 38.974998C 37.261528 36.889778 33.396801 37.179634 31 39.649998L 14.625 56.100002C 14.50278 56.217804 14.433734 56.380249 14.433734 56.550003C 14.433734 56.719749 14.50278 56.882202 14.625 57L 23 65.375C 23.117802 65.497223 23.280251 65.566269 23.450001 65.566269C 23.619749 65.566269 23.782198 65.497223 23.9 65.375L 40.599998 48.674999C 41.887318 47.347111 42.555855 45.538452 42.441673 43.692528C 42.327492 41.8466 41.441154 40.134121 40 38.974998Z"></path></g></g></g><g id="g-root-ic_sear_1hiufx71ao92ps-stroke-fill" data-item-order="-3600" transform="translate(308, 404)"><g id="ic_sear_1hiufx71ao92ps-fill" stroke="none" fill="#f4f4f4"><g><path d="M 35.424999 59.475002C 35.25415 59.244911 35.25415 58.930084 35.424999 58.699997C 38.76865 53.43288 38.147083 46.574711 33.910965 41.994556C 29.674843 37.414402 22.885962 36.260292 17.3743 39.183319C 11.862637 42.106354 9.009706 48.373863 10.425 54.450001C 11.573437 59.547535 15.536014 63.539246 20.625 64.724998C 24.248411 65.578552 28.063026 64.92926 31.200001 62.924999C 31.419199 62.749496 31.730801 62.749496 31.949999 62.924995L 38.224998 69.199997C 39.200092 70.169312 40.774906 70.169312 41.75 69.199997C 42.223282 68.730583 42.489494 68.091591 42.489494 67.424995C 42.489494 66.758408 42.223282 66.119415 41.75 65.650002ZM 23.75 60C 20.204159 59.99987 17.008949 57.859798 15.659128 54.580925C 14.309306 51.302063 15.071769 47.532719 17.589827 45.036243C 20.107883 42.539772 23.88365 41.809784 27.150776 43.187782C 30.417902 44.565777 32.530396 47.779289 32.5 51.325001C 32.458832 56.128178 28.553354 60.000183 23.750002 60ZM 60 28.75C 60 27.369287 58.880711 26.25 57.5 26.25L 40 26.25C 38.619286 26.25 37.5 27.369287 37.5 28.75C 37.5 30.130713 38.619286 31.25 40 31.25L 57.5 31.25C 58.880711 31.25 60 30.130713 60 28.75ZM 41.25 37.5C 39.869286 37.5 38.75 38.619286 38.75 40C 38.75 41.380714 39.869286 42.5 41.25 42.5L 51.25 42.5C 52.630711 42.5 53.75 41.380714 53.75 40C 53.75 38.619286 52.630711 37.5 51.25 37.5ZM 68.525002 17.5L 62.5 11.475C 61.566624 10.536031 60.298943 10.005582 58.974998 10L 30 10C 27.238577 10 25 12.238576 25 15L 25 33.25C 24.998911 33.562786 25.238297 33.823933 25.549999 33.849998C 26.780655 33.989876 27.994736 34.249439 29.174999 34.625C 29.363066 34.701191 29.5769 34.67717 29.743372 34.561142C 29.909843 34.445118 30.006392 34.252811 29.999998 34.049999L 30 16.25C 30 15.559644 30.559645 15 31.25 15L 58.449997 15C 58.781509 14.995958 59.099297 15.132154 59.324997 15.375L 64.625 20.674999C 64.867844 20.900702 65.004036 21.218491 65 21.549999L 65 55C 65 55.690353 64.440353 56.25 63.75 56.25L 40.950001 56.25C 40.681389 56.254063 40.442959 56.422955 40.349998 56.674995C 40.104763 57.481724 39.795448 58.267559 39.424999 59.024998C 39.294773 59.353184 39.352146 59.726135 39.575001 60L 40.5 60.925003C 40.659306 61.12244 40.896461 61.24102 41.150002 61.25L 65 61.25C 67.761429 61.25 70 59.011425 70 56.25L 70 21.025C 69.994415 19.701057 69.463966 18.433376 68.525002 17.5Z"></path></g></g><g id="ic_sear_1hiufx71ao92ps-fill-overlay" stroke="none" fill="url(#crawlingPattern-c1c1c11a)"><g><path d="M 35.424999 59.475002C 35.25415 59.244911 35.25415 58.930084 35.424999 58.699997C 38.76865 53.43288 38.147083 46.574711 33.910965 41.994556C 29.674843 37.414402 22.885962 36.260292 17.3743 39.183319C 11.862637 42.106354 9.009706 48.373863 10.425 54.450001C 11.573437 59.547535 15.536014 63.539246 20.625 64.724998C 24.248411 65.578552 28.063026 64.92926 31.200001 62.924999C 31.419199 62.749496 31.730801 62.749496 31.949999 62.924995L 38.224998 69.199997C 39.200092 70.169312 40.774906 70.169312 41.75 69.199997C 42.223282 68.730583 42.489494 68.091591 42.489494 67.424995C 42.489494 66.758408 42.223282 66.119415 41.75 65.650002ZM 23.75 60C 20.204159 59.99987 17.008949 57.859798 15.659128 54.580925C 14.309306 51.302063 15.071769 47.532719 17.589827 45.036243C 20.107883 42.539772 23.88365 41.809784 27.150776 43.187782C 30.417902 44.565777 32.530396 47.779289 32.5 51.325001C 32.458832 56.128178 28.553354 60.000183 23.750002 60ZM 60 28.75C 60 27.369287 58.880711 26.25 57.5 26.25L 40 26.25C 38.619286 26.25 37.5 27.369287 37.5 28.75C 37.5 30.130713 38.619286 31.25 40 31.25L 57.5 31.25C 58.880711 31.25 60 30.130713 60 28.75ZM 41.25 37.5C 39.869286 37.5 38.75 38.619286 38.75 40C 38.75 41.380714 39.869286 42.5 41.25 42.5L 51.25 42.5C 52.630711 42.5 53.75 41.380714 53.75 40C 53.75 38.619286 52.630711 37.5 51.25 37.5ZM 68.525002 17.5L 62.5 11.475C 61.566624 10.536031 60.298943 10.005582 58.974998 10L 30 10C 27.238577 10 25 12.238576 25 15L 25 33.25C 24.998911 33.562786 25.238297 33.823933 25.549999 33.849998C 26.780655 33.989876 27.994736 34.249439 29.174999 34.625C 29.363066 34.701191 29.5769 34.67717 29.743372 34.561142C 29.909843 34.445118 30.006392 34.252811 29.999998 34.049999L 30 16.25C 30 15.559644 30.559645 15 31.25 15L 58.449997 15C 58.781509 14.995958 59.099297 15.132154 59.324997 15.375L 64.625 20.674999C 64.867844 20.900702 65.004036 21.218491 65 21.549999L 65 55C 65 55.690353 64.440353 56.25 63.75 56.25L 40.950001 56.25C 40.681389 56.254063 40.442959 56.422955 40.349998 56.674995C 40.104763 57.481724 39.795448 58.267559 39.424999 59.024998C 39.294773 59.353184 39.352146 59.726135 39.575001 60L 40.5 60.925003C 40.659306 61.12244 40.896461 61.24102 41.150002 61.25L 65 61.25C 67.761429 61.25 70 59.011425 70 56.25L 70 21.025C 69.994415 19.701057 69.463966 18.433376 68.525002 17.5Z"></path></g></g></g><g id="g-root-ic_wood_hvx3bv1aobuvd-stroke-fill" data-item-order="-3600" transform="translate(524, 116)"><g id="ic_wood_hvx3bv1aobuvd-fill" stroke="none" fill="#f4f4f4"><g><path d="M 53.875 14.0175C 53.894161 14.01705 53.913338 14.01705 53.932499 14.0175C 54.864998 14.0375 55.989998 14.41 56.6325 15.38C 56.66 15.42 56.682503 15.4625 56.7075 15.505L 62.722504 27.465C 62.913147 27.844414 62.893711 28.295492 62.671143 28.657104C 62.448574 29.018715 62.054615 29.239277 61.630001 29.24L 59.907497 29.24L 66.910004 39.73C 67.160698 40.105652 67.184372 40.588772 66.971596 40.987133C 66.75882 41.385494 66.344124 41.634472 65.892502 41.635002L 64.167496 41.635002L 69.412498 49.509998C 70.1175 50.537498 69.952499 51.735001 69.387497 52.584999C 68.770683 53.493927 67.740929 54.035065 66.642502 54.0275L 57.23 54.0275L 57.23 66.1875C 57.187759 67.50946 56.103882 68.55925 54.78125 68.55925C 53.458618 68.55925 52.374744 67.50946 52.3325 66.1875L 52.3325 60.282501C 52.355 60.075001 52.364998 59.864998 52.364998 59.6525L 52.364998 52.927498C 54.3325 53.685001 57.022499 53.357502 58.435001 50.887497C 59.25 49.462502 60.592499 46.695 60.592499 43.532501C 60.592499 40.557499 59.404999 37.939999 58.605 36.477501C 57.834862 35.081768 56.426548 34.155048 54.839996 34C 53.52359 33.864655 52.204079 34.225739 51.140003 35.012501C 50.475002 35.504997 49.035 36.325001 46.537498 36.384998C 44.849106 36.300987 43.201508 36.921097 41.987499 38.0975L 47.900002 29.24L 46.18 29.24C 45.754936 29.240143 45.360188 29.019928 45.137016 28.658165C 44.913841 28.296404 44.894157 27.84481 45.084999 27.465L 51.102501 15.5075C 51.124924 15.463537 51.149971 15.42096 51.177502 15.38C 51.82 14.41 52.945 14.0375 53.877502 14.0175ZM 32.337502 55.275002L 32.337502 62.154999L 32.3325 62.154999L 32.3325 68.854996L 18.26 68.854996L 18.26 66.230003L 18.255001 66.230003L 18.255001 55.275002C 18.25486 54.260277 17.432224 53.437752 16.4175 53.437752C 15.402776 53.437752 14.58014 54.260277 14.58 55.275002L 14.58 66.230003L 13.5175 66.230003C 11.5075 66.230003 10 64.722504 10 62.712498L 10 52.965004C 10 47.1875 14.775 42.415001 20.5525 42.415001L 30.615002 42.415001C 36.392502 42.415001 41.1675 47.1875 41.1675 52.965004L 41.1675 56.224998C 41.291325 56.246647 41.416794 56.257523 41.5425 56.2575L 44.949997 56.2575C 46.586327 56.257233 47.912975 57.583664 47.912975 59.220001C 47.912975 60.856327 46.586327 62.182762 44.949997 62.182499L 39.695 62.182499C 37.665352 62.182503 36.02 60.537148 36.02 58.5075L 36.02 56.8825L 36.0075 56.887497L 36.0075 55.275002C 35.971046 54.28722 35.159702 53.505268 34.171249 53.505268C 33.182796 53.505268 32.371452 54.28722 32.334999 55.275002ZM 48.695 53.737503L 48.695 47.275002C 50.77 47.735001 52.4375 48.685001 53.447498 49.380001C 54.047501 49.790001 54.889999 49.695 55.247501 49.065002C 55.955002 47.827499 56.922497 45.732502 56.922497 43.532501C 56.922497 41.467499 56.072502 39.5 55.384998 38.2425C 54.9925 37.525002 53.985001 37.477501 53.327499 37.965C 52.102501 38.872498 49.887501 40.014999 46.4575 40.060001C 45.773495 40.00045 45.09589 40.230644 44.589706 40.694527C 44.083523 41.158413 43.795216 41.813408 43.795002 42.5L 43.794998 47.637501C 44.440662 49.208614 44.793961 50.884441 44.837498 52.582497L 44.952499 52.582504C 46.34 52.582504 47.627499 53.0075 48.695 53.737503ZM 32.035 31.68C 32.035633 35.303436 29.098436 38.241146 25.475 38.241146C 21.851564 38.241146 18.914368 35.303436 18.915001 31.68C 18.915632 28.057459 21.852459 25.121147 25.475 25.121147C 29.09754 25.121147 32.03437 28.057459 32.035 31.68Z"></path></g></g><g id="ic_wood_hvx3bv1aobuvd-fill-overlay" stroke="none" fill="url(#crawlingPattern-c1c1c11a)"><g><path d="M 53.875 14.0175C 53.894161 14.01705 53.913338 14.01705 53.932499 14.0175C 54.864998 14.0375 55.989998 14.41 56.6325 15.38C 56.66 15.42 56.682503 15.4625 56.7075 15.505L 62.722504 27.465C 62.913147 27.844414 62.893711 28.295492 62.671143 28.657104C 62.448574 29.018715 62.054615 29.239277 61.630001 29.24L 59.907497 29.24L 66.910004 39.73C 67.160698 40.105652 67.184372 40.588772 66.971596 40.987133C 66.75882 41.385494 66.344124 41.634472 65.892502 41.635002L 64.167496 41.635002L 69.412498 49.509998C 70.1175 50.537498 69.952499 51.735001 69.387497 52.584999C 68.770683 53.493927 67.740929 54.035065 66.642502 54.0275L 57.23 54.0275L 57.23 66.1875C 57.187759 67.50946 56.103882 68.55925 54.78125 68.55925C 53.458618 68.55925 52.374744 67.50946 52.3325 66.1875L 52.3325 60.282501C 52.355 60.075001 52.364998 59.864998 52.364998 59.6525L 52.364998 52.927498C 54.3325 53.685001 57.022499 53.357502 58.435001 50.887497C 59.25 49.462502 60.592499 46.695 60.592499 43.532501C 60.592499 40.557499 59.404999 37.939999 58.605 36.477501C 57.834862 35.081768 56.426548 34.155048 54.839996 34C 53.52359 33.864655 52.204079 34.225739 51.140003 35.012501C 50.475002 35.504997 49.035 36.325001 46.537498 36.384998C 44.849106 36.300987 43.201508 36.921097 41.987499 38.0975L 47.900002 29.24L 46.18 29.24C 45.754936 29.240143 45.360188 29.019928 45.137016 28.658165C 44.913841 28.296404 44.894157 27.84481 45.084999 27.465L 51.102501 15.5075C 51.124924 15.463537 51.149971 15.42096 51.177502 15.38C 51.82 14.41 52.945 14.0375 53.877502 14.0175ZM 32.337502 55.275002L 32.337502 62.154999L 32.3325 62.154999L 32.3325 68.854996L 18.26 68.854996L 18.26 66.230003L 18.255001 66.230003L 18.255001 55.275002C 18.25486 54.260277 17.432224 53.437752 16.4175 53.437752C 15.402776 53.437752 14.58014 54.260277 14.58 55.275002L 14.58 66.230003L 13.5175 66.230003C 11.5075 66.230003 10 64.722504 10 62.712498L 10 52.965004C 10 47.1875 14.775 42.415001 20.5525 42.415001L 30.615002 42.415001C 36.392502 42.415001 41.1675 47.1875 41.1675 52.965004L 41.1675 56.224998C 41.291325 56.246647 41.416794 56.257523 41.5425 56.2575L 44.949997 56.2575C 46.586327 56.257233 47.912975 57.583664 47.912975 59.220001C 47.912975 60.856327 46.586327 62.182762 44.949997 62.182499L 39.695 62.182499C 37.665352 62.182503 36.02 60.537148 36.02 58.5075L 36.02 56.8825L 36.0075 56.887497L 36.0075 55.275002C 35.971046 54.28722 35.159702 53.505268 34.171249 53.505268C 33.182796 53.505268 32.371452 54.28722 32.334999 55.275002ZM 48.695 53.737503L 48.695 47.275002C 50.77 47.735001 52.4375 48.685001 53.447498 49.380001C 54.047501 49.790001 54.889999 49.695 55.247501 49.065002C 55.955002 47.827499 56.922497 45.732502 56.922497 43.532501C 56.922497 41.467499 56.072502 39.5 55.384998 38.2425C 54.9925 37.525002 53.985001 37.477501 53.327499 37.965C 52.102501 38.872498 49.887501 40.014999 46.4575 40.060001C 45.773495 40.00045 45.09589 40.230644 44.589706 40.694527C 44.083523 41.158413 43.795216 41.813408 43.795002 42.5L 43.794998 47.637501C 44.440662 49.208614 44.793961 50.884441 44.837498 52.582497L 44.952499 52.582504C 46.34 52.582504 47.627499 53.0075 48.695 53.737503ZM 32.035 31.68C 32.035633 35.303436 29.098436 38.241146 25.475 38.241146C 21.851564 38.241146 18.914368 35.303436 18.915001 31.68C 18.915632 28.057459 21.852459 25.121147 25.475 25.121147C 29.09754 25.121147 32.03437 28.057459 32.035 31.68Z"></path></g></g></g><g id="g-root-ic_1_1hgcjkr1aodb0q-stroke-fill" data-item-order="-3600" transform="translate(524, 260)"><g id="ic_1_1hgcjkr1aodb0q-fill" stroke="none" fill="#f4f4f4"><g><path d="M 48.599998 25.25C 48.669456 24.880381 48.578571 24.498657 48.349998 24.199999C 48.133026 23.948833 47.829693 23.788244 47.499996 23.749998L 35.25 23.75C 34.876057 23.755678 34.521927 23.919123 34.274998 24.199999C 34.046425 24.498657 33.95554 24.880381 34.024998 25.249998C 34.734787 28.745487 37.808178 31.257519 41.375 31.257519C 44.941822 31.257519 48.015213 28.745487 48.725002 25.25ZM 32.5 20L 50 20C 50.364094 20.006578 50.712242 19.850828 50.950005 19.575001C 51.194149 19.303099 51.304161 18.936394 51.25 18.575001C 50.547787 13.646916 46.327862 9.985674 41.349998 9.985674C 36.372139 9.985674 32.152214 13.646916 31.450001 18.575001C 31.395838 18.936394 31.505852 19.303099 31.75 19.575001C 31.94025 19.802856 32.206764 19.953882 32.5 20ZM 69.775002 66.474998L 65 56.224998C 64.962059 56.052055 64.962059 55.872948 65 55.700001L 65 42.5C 65.11689 40.957581 64.721443 39.419704 63.875 38.125C 63.800549 38.013428 63.757385 37.88393 63.75 37.75L 63.75 28.75C 63.736534 27.720095 62.904907 26.888464 61.875 26.875L 58.125 26.875C 57.089466 26.875 56.25 27.714466 56.25 28.75C 56.25 29.785534 57.089466 30.625 58.125 30.625L 59.375 30.625C 59.720177 30.625 60 30.904823 60 31.25L 60 35.724998C 59.995926 35.993607 59.827042 36.232037 59.574997 36.325001C 59.080067 36.503937 58.750225 36.973713 58.75 37.5L 58.75 67.5C 58.75 68.880707 59.869289 70 61.25 70L 67.5 70C 68.345161 70.004082 69.135162 69.580864 69.599998 68.875C 70.064842 68.157539 70.130852 67.252304 69.775002 66.474998ZM 23.125 61.25L 14.375 61.25C 11.958755 61.250004 10 63.208755 10 65.625008C 10 68.041245 11.958755 70.000008 14.375 70.000008L 23.125 70C 25.541246 70.000008 27.5 68.041245 27.5 65.625008C 27.5 63.208755 25.541246 61.250004 23.125 61.250004ZM 44.375 61.25L 35.625 61.25C 33.208755 61.250004 31.25 63.208755 31.25 65.625008C 31.25 68.041245 33.208755 70.000008 35.625 70.000008L 44.375 70C 46.791248 70.000008 48.750004 68.041245 48.750004 65.625008C 48.750004 63.208755 46.791248 61.250004 44.375004 61.250004ZM 41.25 31.25C 38.264278 31.243341 35.398926 32.426468 33.287697 34.537697C 31.17647 36.648926 29.993341 39.514278 29.999998 42.499996L 30 44.375C 30 44.720177 30.279823 45 30.625 45L 34.375 45C 37.013134 44.992786 39.489494 46.270786 41.012043 48.42524C 42.534584 50.579685 42.912533 53.34063 42.024998 55.825001C 41.89941 56.211376 41.954506 56.633766 42.174999 56.975002C 42.416286 57.300041 42.795227 57.494129 43.199997 57.499996L 44.375 57.5C 47.239014 57.369556 49.926819 58.883266 51.300003 61.400002C 51.438431 61.64703 51.725651 61.770126 52 61.700001C 52.271763 61.624268 52.46365 61.381882 52.474998 61.099998L 52.474998 42.5C 52.481636 39.518616 51.301941 36.657063 49.196125 34.546558C 47.090309 32.436054 44.231392 31.249992 41.249996 31.25ZM 25.625 57.5L 34.375 57.5C 36.791245 57.5 38.75 55.541248 38.75 53.125C 38.75 50.708755 36.791245 48.750004 34.375 48.750004L 25.625 48.75C 23.208755 48.750004 21.250002 50.708755 21.250002 53.125C 21.250002 55.541248 23.208755 57.5 25.625002 57.5Z"></path></g></g><g id="ic_1_1hgcjkr1aodb0q-fill-overlay" stroke="none" fill="url(#crawlingPattern-c1c1c11a)"><g><path d="M 48.599998 25.25C 48.669456 24.880381 48.578571 24.498657 48.349998 24.199999C 48.133026 23.948833 47.829693 23.788244 47.499996 23.749998L 35.25 23.75C 34.876057 23.755678 34.521927 23.919123 34.274998 24.199999C 34.046425 24.498657 33.95554 24.880381 34.024998 25.249998C 34.734787 28.745487 37.808178 31.257519 41.375 31.257519C 44.941822 31.257519 48.015213 28.745487 48.725002 25.25ZM 32.5 20L 50 20C 50.364094 20.006578 50.712242 19.850828 50.950005 19.575001C 51.194149 19.303099 51.304161 18.936394 51.25 18.575001C 50.547787 13.646916 46.327862 9.985674 41.349998 9.985674C 36.372139 9.985674 32.152214 13.646916 31.450001 18.575001C 31.395838 18.936394 31.505852 19.303099 31.75 19.575001C 31.94025 19.802856 32.206764 19.953882 32.5 20ZM 69.775002 66.474998L 65 56.224998C 64.962059 56.052055 64.962059 55.872948 65 55.700001L 65 42.5C 65.11689 40.957581 64.721443 39.419704 63.875 38.125C 63.800549 38.013428 63.757385 37.88393 63.75 37.75L 63.75 28.75C 63.736534 27.720095 62.904907 26.888464 61.875 26.875L 58.125 26.875C 57.089466 26.875 56.25 27.714466 56.25 28.75C 56.25 29.785534 57.089466 30.625 58.125 30.625L 59.375 30.625C 59.720177 30.625 60 30.904823 60 31.25L 60 35.724998C 59.995926 35.993607 59.827042 36.232037 59.574997 36.325001C 59.080067 36.503937 58.750225 36.973713 58.75 37.5L 58.75 67.5C 58.75 68.880707 59.869289 70 61.25 70L 67.5 70C 68.345161 70.004082 69.135162 69.580864 69.599998 68.875C 70.064842 68.157539 70.130852 67.252304 69.775002 66.474998ZM 23.125 61.25L 14.375 61.25C 11.958755 61.250004 10 63.208755 10 65.625008C 10 68.041245 11.958755 70.000008 14.375 70.000008L 23.125 70C 25.541246 70.000008 27.5 68.041245 27.5 65.625008C 27.5 63.208755 25.541246 61.250004 23.125 61.250004ZM 44.375 61.25L 35.625 61.25C 33.208755 61.250004 31.25 63.208755 31.25 65.625008C 31.25 68.041245 33.208755 70.000008 35.625 70.000008L 44.375 70C 46.791248 70.000008 48.750004 68.041245 48.750004 65.625008C 48.750004 63.208755 46.791248 61.250004 44.375004 61.250004ZM 41.25 31.25C 38.264278 31.243341 35.398926 32.426468 33.287697 34.537697C 31.17647 36.648926 29.993341 39.514278 29.999998 42.499996L 30 44.375C 30 44.720177 30.279823 45 30.625 45L 34.375 45C 37.013134 44.992786 39.489494 46.270786 41.012043 48.42524C 42.534584 50.579685 42.912533 53.34063 42.024998 55.825001C 41.89941 56.211376 41.954506 56.633766 42.174999 56.975002C 42.416286 57.300041 42.795227 57.494129 43.199997 57.499996L 44.375 57.5C 47.239014 57.369556 49.926819 58.883266 51.300003 61.400002C 51.438431 61.64703 51.725651 61.770126 52 61.700001C 52.271763 61.624268 52.46365 61.381882 52.474998 61.099998L 52.474998 42.5C 52.481636 39.518616 51.301941 36.657063 49.196125 34.546558C 47.090309 32.436054 44.231392 31.249992 41.249996 31.25ZM 25.625 57.5L 34.375 57.5C 36.791245 57.5 38.75 55.541248 38.75 53.125C 38.75 50.708755 36.791245 48.750004 34.375 48.750004L 25.625 48.75C 23.208755 48.750004 21.250002 50.708755 21.250002 53.125C 21.250002 55.541248 23.208755 57.5 25.625002 57.5Z"></path></g></g></g><g id="g-root-tx_therendl_1hclp231ao6adh-stroke-fill" data-item-order="0" transform="translate(200, 50)"><g id="tx_therendl_1hclp231ao6adh-fill" stroke="none" fill="#f4f4f4"><g><text style="font: 20px Roboto, sans-serif; white-space: pre;" font-size="20px" font-family="Roboto, sans-serif"><tspan x="17.13" y="34" dominant-baseline="ideographic">The Rendlesham Forest Incident: A Timeline of Events</tspan></text></g></g><g id="tx_therendl_1hclp231ao6adh-fill-overlay" stroke="none" fill="url(#crawlingPattern-0000001b)"><g><text style="font: 20px Roboto, sans-serif; white-space: pre;" font-size="20px" font-family="Roboto, sans-serif"><tspan x="17.13" y="34" dominant-baseline="ideographic">The Rendlesham Forest Incident: A Timeline of Events</tspan></text></g></g></g><g id="g-root-tx_december_18mkyl71aoeo7f-stroke-fill" data-item-order="0" transform="translate(26, 98)"><g id="tx_december_18mkyl71aoeo7f-fill" stroke="none" fill="#ebf2ff"><g><text style="font: bold 20px Roboto, sans-serif; white-space: pre;" font-weight="bold" font-size="20px" font-family="Roboto, sans-serif"><tspan x="12.56" y="34" dominant-baseline="ideographic">December 26, 1980</tspan></text></g></g><g id="tx_december_18mkyl71aoeo7f-fill-overlay" stroke="none" fill="url(#crawlingPattern-0059ff37)"><g><text style="font: bold 20px Roboto, sans-serif; white-space: pre;" font-weight="bold" font-size="20px" font-family="Roboto, sans-serif"><tspan x="12.56" y="34" dominant-baseline="ideographic">December 26, 1980</tspan></text></g></g></g><g id="g-root-tx_security_vb4g7v1aoepsc-stroke-fill" data-item-order="0" transform="translate(26, 134)"><g id="tx_security_vb4g7v1aoepsc-fill" stroke="none" fill="#ebf2ff"><g><text style="font: 15px Roboto, sans-serif; white-space: pre;" font-size="15px" font-family="Roboto, sans-serif"><tspan x="16.8" y="31" dominant-baseline="ideographic">Security personnel at RAF </tspan><tspan x="50.63" y="49" dominant-baseline="ideographic">Woodbridge observe </tspan><tspan x="95" y="67" dominant-baseline="ideographic">unusual lights</tspan></text></g></g><g id="tx_security_vb4g7v1aoepsc-fill-overlay" stroke="none" fill="url(#crawlingPattern-0059ff37)"><g><text style="font: 15px Roboto, sans-serif; white-space: pre;" font-size="15px" font-family="Roboto, sans-serif"><tspan x="16.8" y="31" dominant-baseline="ideographic">Security personnel at RAF </tspan><tspan x="50.63" y="49" dominant-baseline="ideographic">Woodbridge observe </tspan><tspan x="95" y="67" dominant-baseline="ideographic">unusual lights</tspan></text></g></g></g><g id="g-root-tx_january1_i0aexn1aoeo7h-stroke-fill" data-item-order="0" transform="translate(38, 242)"><g id="tx_january1_i0aexn1aoeo7h-fill" stroke="none" fill="#f2ffd7"><g><text style="font: bold 20px Roboto, sans-serif; white-space: pre;" font-weight="bold" font-size="20px" font-family="Roboto, sans-serif"><tspan x="19.72" y="34" dominant-baseline="ideographic">January 13, 1981</tspan></text></g></g><g id="tx_january1_i0aexn1aoeo7h-fill-overlay" stroke="none" fill="url(#crawlingPattern-acff003c)"><g><text style="font: bold 20px Roboto, sans-serif; white-space: pre;" font-weight="bold" font-size="20px" font-family="Roboto, sans-serif"><tspan x="19.72" y="34" dominant-baseline="ideographic">January 13, 1981</tspan></text></g></g></g><g id="g-root-tx_haltprep_4otwkb1aoepse-stroke-fill" data-item-order="0" transform="translate(50, 278)"><g id="tx_haltprep_4otwkb1aoepse-fill" stroke="none" fill="#f2ffd7"><g><text style="font: 15px Roboto, sans-serif; white-space: pre;" font-size="15px" font-family="Roboto, sans-serif"><tspan x="62.44" y="31" dominant-baseline="ideographic">Halt prepares a </tspan><tspan x="22.64" y="49" dominant-baseline="ideographic">memorandum for the </tspan><tspan x="132.5" y="67" dominant-baseline="ideographic">MoD</tspan></text></g></g><g id="tx_haltprep_4otwkb1aoepse-fill-overlay" stroke="none" fill="url(#crawlingPattern-acff003c)"><g><text style="font: 15px Roboto, sans-serif; white-space: pre;" font-size="15px" font-family="Roboto, sans-serif"><tspan x="62.44" y="31" dominant-baseline="ideographic">Halt prepares a </tspan><tspan x="22.64" y="49" dominant-baseline="ideographic">memorandum for the </tspan><tspan x="132.5" y="67" dominant-baseline="ideographic">MoD</tspan></text></g></g></g><g id="g-root-tx_2011_1qf3x971aoeo0f-stroke-fill" data-item-order="0" transform="translate(146, 398)"><g id="tx_2011_1qf3x971aoeo0f-fill" stroke="none" fill="#fffbd5"><g><text style="font: bold 20px Roboto, sans-serif; white-space: pre;" font-weight="bold" font-size="20px" font-family="Roboto, sans-serif"><tspan x="22.09" y="34" dominant-baseline="ideographic">2011</tspan></text></g></g><g id="tx_2011_1qf3x971aoeo0f-fill-overlay" stroke="none" fill="url(#crawlingPattern-ffe7003d)"><g><text style="font: bold 20px Roboto, sans-serif; white-space: pre;" font-weight="bold" font-size="20px" font-family="Roboto, sans-serif"><tspan x="22.09" y="34" dominant-baseline="ideographic">2011</tspan></text></g></g></g><g id="g-root-tx_discover_1lzaf4r1aoeoso-stroke-fill" data-item-order="0" transform="translate(62, 434)"><g id="tx_discover_1lzaf4r1aoeoso-fill" stroke="none" fill="#fffbd5"><g><text style="font: 15px Roboto, sans-serif; white-space: pre;" font-size="15px" font-family="Roboto, sans-serif"><tspan x="13.17" y="28" dominant-baseline="ideographic">Discovery of missing </tspan><tspan x="26.28" y="46" dominant-baseline="ideographic">intelligence papers</tspan></text></g></g><g id="tx_discover_1lzaf4r1aoeoso-fill-overlay" stroke="none" fill="url(#crawlingPattern-ffe7003d)"><g><text style="font: 15px Roboto, sans-serif; white-space: pre;" font-size="15px" font-family="Roboto, sans-serif"><tspan x="13.17" y="28" dominant-baseline="ideographic">Discovery of missing </tspan><tspan x="26.28" y="46" dominant-baseline="ideographic">intelligence papers</tspan></text></g></g></g><g id="g-root-tx_december_13ynacb1aog2kh-stroke-fill" data-item-order="0" transform="translate(686, 98)"><g id="tx_december_13ynacb1aog2kh-fill" stroke="none" fill="#e5f8ff"><g><text style="font: bold 20px Roboto, sans-serif; white-space: pre;" font-weight="bold" font-size="20px" font-family="Roboto, sans-serif"><tspan x="12" y="34" dominant-baseline="ideographic">December 26, 1980</tspan></text></g></g><g id="tx_december_13ynacb1aog2kh-fill-overlay" stroke="none" fill="url(#crawlingPattern-00baff39)"><g><text style="font: bold 20px Roboto, sans-serif; white-space: pre;" font-weight="bold" font-size="20px" font-family="Roboto, sans-serif"><tspan x="12" y="34" dominant-baseline="ideographic">December 26, 1980</tspan></text></g></g></g><g id="g-root-tx_investig_qn6ryz1aog45e-stroke-fill" data-item-order="0" transform="translate(686, 134)"><g id="tx_investig_qn6ryz1aog45e-fill" stroke="none" fill="#e5f8ff"><g><text style="font: 15px Roboto, sans-serif; white-space: pre;" font-size="15px" font-family="Roboto, sans-serif"><tspan x="12" y="31" dominant-baseline="ideographic">Investigation team </tspan><tspan x="12" y="49" dominant-baseline="ideographic">encounters a triangular </tspan><tspan x="12" y="67" dominant-baseline="ideographic">craft</tspan></text></g></g><g id="tx_investig_qn6ryz1aog45e-fill-overlay" stroke="none" fill="url(#crawlingPattern-00baff39)"><g><text style="font: 15px Roboto, sans-serif; white-space: pre;" font-size="15px" font-family="Roboto, sans-serif"><tspan x="12" y="31" dominant-baseline="ideographic">Investigation team </tspan><tspan x="12" y="49" dominant-baseline="ideographic">encounters a triangular </tspan><tspan x="12" y="67" dominant-baseline="ideographic">craft</tspan></text></g></g></g><g id="g-root-tx_december_dccqor1aog2kj-stroke-fill" data-item-order="0" transform="translate(686, 242)"><g id="tx_december_dccqor1aog2kj-fill" stroke="none" fill="#dffff0"><g><text style="font: bold 20px Roboto, sans-serif; white-space: pre;" font-weight="bold" font-size="20px" font-family="Roboto, sans-serif"><tspan x="12" y="34" dominant-baseline="ideographic">December 27-28, </tspan><tspan x="12" y="58" dominant-baseline="ideographic">1980</tspan></text></g></g><g id="tx_december_dccqor1aog2kj-fill-overlay" stroke="none" fill="url(#crawlingPattern-00ff873a)"><g><text style="font: bold 20px Roboto, sans-serif; white-space: pre;" font-weight="bold" font-size="20px" font-family="Roboto, sans-serif"><tspan x="12" y="34" dominant-baseline="ideographic">December 27-28, </tspan><tspan x="12" y="58" dominant-baseline="ideographic">1980</tspan></text></g></g></g><g id="g-root-tx_ltcolhal_w8bf1aog45g-stroke-fill" data-item-order="0" transform="translate(686, 302)"><g id="tx_ltcolhal_w8bf1aog45g-fill" stroke="none" fill="#dffff0"><g><text style="font: 15px Roboto, sans-serif; white-space: pre;" font-size="15px" font-family="Roboto, sans-serif"><tspan x="12" y="28" dominant-baseline="ideographic">Lt. Col. Halt leads a </tspan><tspan x="12" y="46" dominant-baseline="ideographic">second investigation</tspan></text></g></g><g id="tx_ltcolhal_w8bf1aog45g-fill-overlay" stroke="none" fill="url(#crawlingPattern-00ff873a)"><g><text style="font: 15px Roboto, sans-serif; white-space: pre;" font-size="15px" font-family="Roboto, sans-serif"><tspan x="12" y="28" dominant-baseline="ideographic">Lt. Col. Halt leads a </tspan><tspan x="12" y="46" dominant-baseline="ideographic">second investigation</tspan></text></g></g></g></svg>