<svg width="840" height="648" viewBox="0 0 840 648" style="fill:none;stroke:none;fill-rule:evenodd;clip-rule:evenodd;stroke-linecap:round;stroke-linejoin:round;stroke-miterlimit:1.5;" version="1.1" xmlns="http://www.w3.org/2000/svg" xmlns:xlink="http://www.w3.org/1999/xlink"><style class="text-font-style fontImports" data-font-family="Roboto">@import url('https://fonts.googleapis.com/css2?family=Roboto:wght@400;700&amp;display=block');</style><g id="g-root-tf_hzni1n19aji84-stroke-fill" data-item-order="-501696" transform="translate(18, 12)"><g id="tf_hzni1n19aji84-fill" stroke="none" fill="#2c2c2c"><g><path d="M 0 0L 804 0L 804 624L 0 624Z"></path></g></g><defs><pattern id="crawlingPattern-0060fb20" x="0" y="0" width="12" height="12" patternUnits="userSpaceOnUse" fill="#0060fb20"><use href="#crawlingSymbol"></use></pattern><symbol id="crawlingSymbol"><g><animateTransform attributeName="transform" type="translate" from="0 0" to="-12 0" dur="0.4s" repeatCount="indefinite"></animateTransform><path d="M -12.5 12.5 l 13 -13 l 6 0 l -13 13 Z M -0.5 12.5 l 13 -13 l 6 0 l -13 13 Z M 11.5 12.5 l 13 -13 l 6 0 l -13 13 Z"></path></g></symbol><pattern id="crawlingPattern-00d16d21" x="0" y="0" width="12" height="12" patternUnits="userSpaceOnUse" fill="#00d16d21"><use href="#crawlingSymbol"></use></pattern><pattern id="crawlingPattern-8ed00028" x="0" y="0" width="12" height="12" patternUnits="userSpaceOnUse" fill="#8ed00028"><use href="#crawlingSymbol"></use></pattern><pattern id="crawlingPattern-00bcfb62" x="0" y="0" width="12" height="12" patternUnits="userSpaceOnUse" fill="#00bcfb62"><use href="#crawlingSymbol"></use></pattern><pattern id="crawlingPattern-0000001b" x="0" y="0" width="12" height="12" patternUnits="userSpaceOnUse" fill="#0000001b"><use href="#crawlingSymbol"></use></pattern><pattern id="crawlingPattern-00b15c75" x="0" y="0" width="12" height="12" patternUnits="userSpaceOnUse" fill="#00b15c75"><use href="#crawlingSymbol"></use></pattern><pattern id="crawlingPattern-00ff873a" x="0" y="0" width="12" height="12" patternUnits="userSpaceOnUse" fill="#00ff873a"><use href="#crawlingSymbol"></use></pattern><pattern id="crawlingPattern-00a3d9d9" x="0" y="0" width="12" height="12" patternUnits="userSpaceOnUse" fill="#00a3d9d9"><use href="#crawlingSymbol"></use></pattern><pattern id="crawlingPattern-00baff39" x="0" y="0" width="12" height="12" patternUnits="userSpaceOnUse" fill="#00baff39"><use href="#crawlingSymbol"></use></pattern><pattern id="crawlingPattern-0060fba2" x="0" y="0" width="12" height="12" patternUnits="userSpaceOnUse" fill="#0060fba2"><use href="#crawlingSymbol"></use></pattern><pattern id="crawlingPattern-0059ff37" x="0" y="0" width="12" height="12" patternUnits="userSpaceOnUse" fill="#0059ff37"><use href="#crawlingSymbol"></use></pattern><pattern id="crawlingPattern-5c87005e" x="0" y="0" width="12" height="12" patternUnits="userSpaceOnUse" fill="#5c87005e"><use href="#crawlingSymbol"></use></pattern><pattern id="crawlingPattern-acff003c" x="0" y="0" width="12" height="12" patternUnits="userSpaceOnUse" fill="#acff003c"><use href="#crawlingSymbol"></use></pattern><pattern id="crawlingPattern-5f5f5f1a" x="0" y="0" width="12" height="12" patternUnits="userSpaceOnUse" fill="#5f5f5f1a"><use href="#crawlingSymbol"></use></pattern></defs><g id="tf_hzni1n19aji84-fill-overlay" stroke="none" fill="url(#crawlingPattern-5f5f5f1a)"><g><path d="M 0 0L 804 0L 804 624L 0 624Z"></path></g></g></g><g id="g-root-cp_0_g-0_1unfajf19a9on5-stroke-fill" data-item-order="-399127" transform="translate(56.130859375, 296.5)"><g id="cp_0_g-0_1unfajf19a9on5-stroke" fill="none" stroke-linecap="round" stroke-linejoin="round" stroke-miterlimit="4" stroke="#f4f4f4" stroke-width="2"><g><path d="M 645.869141 51.5L 717.869141 51.5M 106 51L 262 51M 286 51L 442 51M 274 63.5L 274 93M 454 10L 454 39.5M 466 51L 622 51M 634 63.5L 634 93M 10 51L 82 51M 94 10L 94 39.5"></path></g></g><g id="cp_0_g-0_1unfajf19a9on5-stroke-overlay" fill="none" stroke-linecap="round" stroke-linejoin="round" stroke-miterlimit="4" stroke="#3131311a" stroke-width="2" stroke-dasharray="4,6"><animate attributeName="stroke-dashoffset" values="30;0" dur="1s" repeatCount="indefinite" begin="0"></animate><g><path d="M 645.869141 51.5L 717.869141 51.5M 106 51L 262 51M 286 51L 442 51M 274 63.5L 274 93M 454 10L 454 39.5M 466 51L 622 51M 634 63.5L 634 93M 10 51L 82 51M 94 10L 94 39.5"></path></g></g></g><g id="g-root-cp_1_g-1_1lrsaaj19a9pfv-stroke-fill" data-item-order="-399108" transform="translate(95.13101196289062, 173)"><g id="cp_1_g-1_1lrsaaj19a9pfv-fill" stroke="none" fill="#4f91fc"><g><path d="M 100 55C 100 66.244 94.5 77.5875 89 86L 55.816 132.848C 55.4175 133.411 54.5825 133.411 54.184 132.848L 21 86C 14.5 77 10 66.7284 10 55C 10 30.1472 30.1472 10 55 10C 79.8528 10 100 30.1472 100 55ZM 55 91C 74.8822 91 91 74.8822 91 55C 91 35.1177 74.8822 19 55 19C 35.1177 19 19 35.1177 19 55C 19 74.8822 35.1177 91 55 91Z"></path></g></g><g id="cp_1_g-1_1lrsaaj19a9pfv-fill-overlay" stroke="none" fill="url(#crawlingPattern-0060fb20)"><g><path d="M 100 55C 100 66.244 94.5 77.5875 89 86L 55.816 132.848C 55.4175 133.411 54.5825 133.411 54.184 132.848L 21 86C 14.5 77 10 66.7284 10 55C 10 30.1472 30.1472 10 55 10C 79.8528 10 100 30.1472 100 55ZM 55 91C 74.8822 91 91 74.8822 91 55C 91 35.1177 74.8822 19 55 19C 35.1177 19 19 35.1177 19 55C 19 74.8822 35.1177 91 55 91Z"></path></g></g><g id="cp_1_g-1_1lrsaaj19a9pfv-stroke" fill="none" stroke-linecap="round" stroke-linejoin="round" stroke-miterlimit="4" stroke="#2c2c2c" stroke-width="2"><g><path d="M 100 55C 100 66.244 94.5 77.5875 89 86L 55.816 132.848C 55.4175 133.4106 54.5825 133.4106 54.184 132.848L 21 86C 14.5 77 10 66.7284 10 55C 10 30.1472 30.1472 10 55 10C 79.8528 10 100 30.1472 100 55ZM 55 91C 74.8822 91 91 74.8822 91 55C 91 35.1177 74.8822 19 55 19C 35.1177 19 19 35.1177 19 55C 19 74.8822 35.1177 91 55 91Z"></path></g></g><g id="cp_1_g-1_1lrsaaj19a9pfv-stroke-overlay" fill="none" stroke-linecap="round" stroke-linejoin="round" stroke-miterlimit="4" stroke="#ffffff29" stroke-width="2" stroke-dasharray="4,6"><animate attributeName="stroke-dashoffset" values="30;0" dur="1s" repeatCount="indefinite" begin="0"></animate><g><path d="M 100 55C 100 66.244 94.5 77.5875 89 86L 55.816 132.848C 55.4175 133.4106 54.5825 133.4106 54.184 132.848L 21 86C 14.5 77 10 66.7284 10 55C 10 30.1472 30.1472 10 55 10C 79.8528 10 100 30.1472 100 55ZM 55 91C 74.8822 91 91 74.8822 91 55C 91 35.1177 74.8822 19 55 19C 35.1177 19 19 35.1177 19 55C 19 74.8822 35.1177 91 55 91Z"></path></g></g><g id="cp_1_g-1_1lrsaaj19a9pfv-fill" stroke="none" fill="#4f91fc"><g><path d="M 55 187C 61.6274 187 67 181.6274 67 175C 67 168.3726 61.6274 163 55 163C 48.3726 163 43 168.3726 43 175C 43 181.6274 48.3726 187 55 187ZM 55 181C 58.3137 181 61 178.3137 61 175C 61 171.6863 58.3137 169 55 169C 51.6863 169 49 171.6863 49 175C 49 178.3137 51.6863 181 55 181Z"></path></g></g><g id="cp_1_g-1_1lrsaaj19a9pfv-fill-overlay" stroke="none" fill="url(#crawlingPattern-0060fb20)"><g><path d="M 55 187C 61.6274 187 67 181.6274 67 175C 67 168.3726 61.6274 163 55 163C 48.3726 163 43 168.3726 43 175C 43 181.6274 48.3726 187 55 187ZM 55 181C 58.3137 181 61 178.3137 61 175C 61 171.6863 58.3137 169 55 169C 51.6863 169 49 171.6863 49 175C 49 178.3137 51.6863 181 55 181Z"></path></g></g><g id="cp_1_g-1_1lrsaaj19a9pfv-stroke" fill="none" stroke-linecap="round" stroke-linejoin="round" stroke-miterlimit="4" stroke="#2c2c2c" stroke-width="2"><g><path d="M 55 187C 61.6274 187 67 181.6274 67 175C 67 168.3726 61.6274 163 55 163C 48.3726 163 43 168.3726 43 175C 43 181.6274 48.3726 187 55 187ZM 55 181C 58.3137 181 61 178.3137 61 175C 61 171.6863 58.3137 169 55 169C 51.6863 169 49 171.6863 49 175C 49 178.3137 51.6863 181 55 181Z"></path></g></g><g id="cp_1_g-1_1lrsaaj19a9pfv-stroke-overlay" fill="none" stroke-linecap="round" stroke-linejoin="round" stroke-miterlimit="4" stroke="#ffffff29" stroke-width="2" stroke-dasharray="4,6"><animate attributeName="stroke-dashoffset" values="30;0" dur="1s" repeatCount="indefinite" begin="0"></animate><g><path d="M 55 187C 61.6274 187 67 181.6274 67 175C 67 168.3726 61.6274 163 55 163C 48.3726 163 43 168.3726 43 175C 43 181.6274 48.3726 187 55 187ZM 55 181C 58.3137 181 61 178.3137 61 175C 61 171.6863 58.3137 169 55 169C 51.6863 169 49 171.6863 49 175C 49 178.3137 51.6863 181 55 181Z"></path></g></g></g><g id="g-root-cp_2_g-2_18gbrx719a9r0u-stroke-fill" data-item-order="-399104" transform="translate(275.1309814453125, 326)"><g id="cp_2_g-2_18gbrx719a9r0u-fill" stroke="none" fill="#43dd93"><g><path d="M 100 142.000369C 100 130.756469 94.5 119.412869 89 111.000369L 55.816 64.152469C 55.4175 63.589769 54.5825 63.589769 54.184 64.152469L 21 111.000369C 14.5 120.000369 10 130.271969 10 142.000369C 10 166.853469 30.1472 187.000469 55 187.000469C 79.8528 187.000469 100 166.853469 100 142.000369ZM 55 106.000369C 74.8822 106.000369 91 122.118169 91 142.000369C 91 161.882669 74.8822 178.000469 55 178.000469C 35.1177 178.000469 19 161.882669 19 142.000369C 19 122.118169 35.1177 106.000369 55 106.000369Z"></path></g></g><g id="cp_2_g-2_18gbrx719a9r0u-fill-overlay" stroke="none" fill="url(#crawlingPattern-00d16d21)"><g><path d="M 100 142.000369C 100 130.756469 94.5 119.412869 89 111.000369L 55.816 64.152469C 55.4175 63.589769 54.5825 63.589769 54.184 64.152469L 21 111.000369C 14.5 120.000369 10 130.271969 10 142.000369C 10 166.853469 30.1472 187.000469 55 187.000469C 79.8528 187.000469 100 166.853469 100 142.000369ZM 55 106.000369C 74.8822 106.000369 91 122.118169 91 142.000369C 91 161.882669 74.8822 178.000469 55 178.000469C 35.1177 178.000469 19 161.882669 19 142.000369C 19 122.118169 35.1177 106.000369 55 106.000369Z"></path></g></g><g id="cp_2_g-2_18gbrx719a9r0u-stroke" fill="none" stroke-linecap="round" stroke-linejoin="round" stroke-miterlimit="4" stroke="#2c2c2c" stroke-width="2"><g><path d="M 100 142.000369C 100 130.756469 94.5 119.412869 89 111.000369L 55.816 64.152469C 55.4175 63.589769 54.5825 63.589769 54.184 64.152469L 21 111.000369C 14.5 120.000369 10 130.271969 10 142.000369C 10 166.853269 30.1472 187.000369 55 187.000369C 79.8528 187.000369 100 166.853269 100 142.000369ZM 55 106.000369C 74.8822 106.000369 91 122.118169 91 142.000369C 91 161.882669 74.8822 178.000369 55 178.000369C 35.1177 178.000369 19 161.882669 19 142.000369C 19 122.118169 35.1177 106.000369 55 106.000369Z"></path></g></g><g id="cp_2_g-2_18gbrx719a9r0u-stroke-overlay" fill="none" stroke-linecap="round" stroke-linejoin="round" stroke-miterlimit="4" stroke="#ffffff29" stroke-width="2" stroke-dasharray="4,6"><animate attributeName="stroke-dashoffset" values="30;0" dur="1s" repeatCount="indefinite" begin="0"></animate><g><path d="M 100 142.000369C 100 130.756469 94.5 119.412869 89 111.000369L 55.816 64.152469C 55.4175 63.589769 54.5825 63.589769 54.184 64.152469L 21 111.000369C 14.5 120.000369 10 130.271969 10 142.000369C 10 166.853269 30.1472 187.000369 55 187.000369C 79.8528 187.000369 100 166.853269 100 142.000369ZM 55 106.000369C 74.8822 106.000369 91 122.118169 91 142.000369C 91 161.882669 74.8822 178.000369 55 178.000369C 35.1177 178.000369 19 161.882669 19 142.000369C 19 122.118169 35.1177 106.000369 55 106.000369Z"></path></g></g><g id="cp_2_g-2_18gbrx719a9r0u-fill" stroke="none" fill="#43dd93"><g><path d="M 55 34C 61.6274 34 67 28.6274 67 22C 67 15.3726 61.6274 10 55 10C 48.3726 10 43 15.3726 43 22C 43 28.6274 48.3726 34 55 34ZM 55 28C 58.3137 28 61 25.3137 61 22C 61 18.6863 58.3137 16 55 16C 51.6863 16 49 18.6863 49 22C 49 25.3137 51.6863 28 55 28Z"></path></g></g><g id="cp_2_g-2_18gbrx719a9r0u-fill-overlay" stroke="none" fill="url(#crawlingPattern-00d16d21)"><g><path d="M 55 34C 61.6274 34 67 28.6274 67 22C 67 15.3726 61.6274 10 55 10C 48.3726 10 43 15.3726 43 22C 43 28.6274 48.3726 34 55 34ZM 55 28C 58.3137 28 61 25.3137 61 22C 61 18.6863 58.3137 16 55 16C 51.6863 16 49 18.6863 49 22C 49 25.3137 51.6863 28 55 28Z"></path></g></g><g id="cp_2_g-2_18gbrx719a9r0u-stroke" fill="none" stroke-linecap="round" stroke-linejoin="round" stroke-miterlimit="4" stroke="#2c2c2c" stroke-width="2"><g><path d="M 55 34C 61.6274 34 67 28.6274 67 22C 67 15.3726 61.6274 10 55 10C 48.3726 10 43 15.3726 43 22C 43 28.6274 48.3726 34 55 34ZM 55 28C 58.3137 28 61 25.3137 61 22C 61 18.6863 58.3137 16 55 16C 51.6863 16 49 18.6863 49 22C 49 25.3137 51.6863 28 55 28Z"></path></g></g><g id="cp_2_g-2_18gbrx719a9r0u-stroke-overlay" fill="none" stroke-linecap="round" stroke-linejoin="round" stroke-miterlimit="4" stroke="#ffffff29" stroke-width="2" stroke-dasharray="4,6"><animate attributeName="stroke-dashoffset" values="30;0" dur="1s" repeatCount="indefinite" begin="0"></animate><g><path d="M 55 34C 61.6274 34 67 28.6274 67 22C 67 15.3726 61.6274 10 55 10C 48.3726 10 43 15.3726 43 22C 43 28.6274 48.3726 34 55 34ZM 55 28C 58.3137 28 61 25.3137 61 22C 61 18.6863 58.3137 16 55 16C 51.6863 16 49 18.6863 49 22C 49 25.3137 51.6863 28 55 28Z"></path></g></g></g><g id="g-root-cp_3_g-3_zlb8rf19a9pfl-stroke-fill" data-item-order="-399098" transform="translate(455.1310119628906, 173)"><g id="cp_3_g-3_zlb8rf19a9pfl-fill" stroke="none" fill="#a6da37"><g><path d="M 100 55C 100 66.244 94.5 77.5875 89 86L 55.816 132.848C 55.4175 133.411 54.5825 133.411 54.184 132.848L 21 86C 14.5 77 10 66.7284 10 55C 10 30.1472 30.1472 10 55 10C 79.8528 10 100 30.1472 100 55ZM 55 91C 74.8822 91 91 74.8822 91 55C 91 35.1177 74.8822 19 55 19C 35.1177 19 19 35.1177 19 55C 19 74.8822 35.1177 91 55 91Z"></path></g></g><g id="cp_3_g-3_zlb8rf19a9pfl-fill-overlay" stroke="none" fill="url(#crawlingPattern-8ed00028)"><g><path d="M 100 55C 100 66.244 94.5 77.5875 89 86L 55.816 132.848C 55.4175 133.411 54.5825 133.411 54.184 132.848L 21 86C 14.5 77 10 66.7284 10 55C 10 30.1472 30.1472 10 55 10C 79.8528 10 100 30.1472 100 55ZM 55 91C 74.8822 91 91 74.8822 91 55C 91 35.1177 74.8822 19 55 19C 35.1177 19 19 35.1177 19 55C 19 74.8822 35.1177 91 55 91Z"></path></g></g><g id="cp_3_g-3_zlb8rf19a9pfl-stroke" fill="none" stroke-linecap="round" stroke-linejoin="round" stroke-miterlimit="4" stroke="#2c2c2c" stroke-width="2"><g><path d="M 100 55C 100 66.244 94.5 77.5875 89 86L 55.816 132.848C 55.4175 133.4106 54.5825 133.4106 54.184 132.848L 21 86C 14.5 77 10 66.7284 10 55C 10 30.1472 30.1472 10 55 10C 79.8528 10 100 30.1472 100 55ZM 55 91C 74.8822 91 91 74.8822 91 55C 91 35.1177 74.8822 19 55 19C 35.1177 19 19 35.1177 19 55C 19 74.8822 35.1177 91 55 91Z"></path></g></g><g id="cp_3_g-3_zlb8rf19a9pfl-stroke-overlay" fill="none" stroke-linecap="round" stroke-linejoin="round" stroke-miterlimit="4" stroke="#ffffff29" stroke-width="2" stroke-dasharray="4,6"><animate attributeName="stroke-dashoffset" values="30;0" dur="1s" repeatCount="indefinite" begin="0"></animate><g><path d="M 100 55C 100 66.244 94.5 77.5875 89 86L 55.816 132.848C 55.4175 133.4106 54.5825 133.4106 54.184 132.848L 21 86C 14.5 77 10 66.7284 10 55C 10 30.1472 30.1472 10 55 10C 79.8528 10 100 30.1472 100 55ZM 55 91C 74.8822 91 91 74.8822 91 55C 91 35.1177 74.8822 19 55 19C 35.1177 19 19 35.1177 19 55C 19 74.8822 35.1177 91 55 91Z"></path></g></g><g id="cp_3_g-3_zlb8rf19a9pfl-fill" stroke="none" fill="#a6da37"><g><path d="M 55 187C 61.6274 187 67 181.6274 67 175C 67 168.3726 61.6274 163 55 163C 48.3726 163 43 168.3726 43 175C 43 181.6274 48.3726 187 55 187ZM 55 181C 58.3137 181 61 178.3137 61 175C 61 171.6863 58.3137 169 55 169C 51.6863 169 49 171.6863 49 175C 49 178.3137 51.6863 181 55 181Z"></path></g></g><g id="cp_3_g-3_zlb8rf19a9pfl-fill-overlay" stroke="none" fill="url(#crawlingPattern-8ed00028)"><g><path d="M 55 187C 61.6274 187 67 181.6274 67 175C 67 168.3726 61.6274 163 55 163C 48.3726 163 43 168.3726 43 175C 43 181.6274 48.3726 187 55 187ZM 55 181C 58.3137 181 61 178.3137 61 175C 61 171.6863 58.3137 169 55 169C 51.6863 169 49 171.6863 49 175C 49 178.3137 51.6863 181 55 181Z"></path></g></g><g id="cp_3_g-3_zlb8rf19a9pfl-stroke" fill="none" stroke-linecap="round" stroke-linejoin="round" stroke-miterlimit="4" stroke="#2c2c2c" stroke-width="2"><g><path d="M 55 187C 61.6274 187 67 181.6274 67 175C 67 168.3726 61.6274 163 55 163C 48.3726 163 43 168.3726 43 175C 43 181.6274 48.3726 187 55 187ZM 55 181C 58.3137 181 61 178.3137 61 175C 61 171.6863 58.3137 169 55 169C 51.6863 169 49 171.6863 49 175C 49 178.3137 51.6863 181 55 181Z"></path></g></g><g id="cp_3_g-3_zlb8rf19a9pfl-stroke-overlay" fill="none" stroke-linecap="round" stroke-linejoin="round" stroke-miterlimit="4" stroke="#ffffff29" stroke-width="2" stroke-dasharray="4,6"><animate attributeName="stroke-dashoffset" values="30;0" dur="1s" repeatCount="indefinite" begin="0"></animate><g><path d="M 55 187C 61.6274 187 67 181.6274 67 175C 67 168.3726 61.6274 163 55 163C 48.3726 163 43 168.3726 43 175C 43 181.6274 48.3726 187 55 187ZM 55 181C 58.3137 181 61 178.3137 61 175C 61 171.6863 58.3137 169 55 169C 51.6863 169 49 171.6863 49 175C 49 178.3137 51.6863 181 55 181Z"></path></g></g></g><g id="g-root-cp_4_g-4_qpo8ij19a9q8c-stroke-fill" data-item-order="-399092" transform="translate(635.1309814453125, 326)"><g id="cp_4_g-4_qpo8ij19a9q8c-fill" stroke="none" fill="#1ac3fb"><g><path d="M 100 142.000369C 100 130.756469 94.5 119.412869 89 111.000369L 55.816 64.152469C 55.4175 63.589769 54.5825 63.589769 54.184 64.152469L 21 111.000369C 14.5 120.000369 10 130.271969 10 142.000369C 10 166.853469 30.1472 187.000469 55 187.000469C 79.8528 187.000469 100 166.853469 100 142.000369ZM 55 106.000369C 74.8822 106.000369 91 122.118169 91 142.000369C 91 161.882669 74.8822 178.000469 55 178.000469C 35.1177 178.000469 19 161.882669 19 142.000369C 19 122.118169 35.1177 106.000369 55 106.000369Z"></path></g></g><g id="cp_4_g-4_qpo8ij19a9q8c-fill-overlay" stroke="none" fill="url(#crawlingPattern-00bcfb62)"><g><path d="M 100 142.000369C 100 130.756469 94.5 119.412869 89 111.000369L 55.816 64.152469C 55.4175 63.589769 54.5825 63.589769 54.184 64.152469L 21 111.000369C 14.5 120.000369 10 130.271969 10 142.000369C 10 166.853469 30.1472 187.000469 55 187.000469C 79.8528 187.000469 100 166.853469 100 142.000369ZM 55 106.000369C 74.8822 106.000369 91 122.118169 91 142.000369C 91 161.882669 74.8822 178.000469 55 178.000469C 35.1177 178.000469 19 161.882669 19 142.000369C 19 122.118169 35.1177 106.000369 55 106.000369Z"></path></g></g><g id="cp_4_g-4_qpo8ij19a9q8c-stroke" fill="none" stroke-linecap="round" stroke-linejoin="round" stroke-miterlimit="4" stroke="#2c2c2c" stroke-width="2"><g><path d="M 100 142.000369C 100 130.756469 94.5 119.412869 89 111.000369L 55.816 64.152469C 55.4175 63.589769 54.5825 63.589769 54.184 64.152469L 21 111.000369C 14.5 120.000369 10 130.271969 10 142.000369C 10 166.853269 30.1472 187.000369 55 187.000369C 79.8528 187.000369 100 166.853269 100 142.000369ZM 55 106.000369C 74.8822 106.000369 91 122.118169 91 142.000369C 91 161.882669 74.8822 178.000369 55 178.000369C 35.1177 178.000369 19 161.882669 19 142.000369C 19 122.118169 35.1177 106.000369 55 106.000369Z"></path></g></g><g id="cp_4_g-4_qpo8ij19a9q8c-stroke-overlay" fill="none" stroke-linecap="round" stroke-linejoin="round" stroke-miterlimit="4" stroke="#ffffff29" stroke-width="2" stroke-dasharray="4,6"><animate attributeName="stroke-dashoffset" values="30;0" dur="1s" repeatCount="indefinite" begin="0"></animate><g><path d="M 100 142.000369C 100 130.756469 94.5 119.412869 89 111.000369L 55.816 64.152469C 55.4175 63.589769 54.5825 63.589769 54.184 64.152469L 21 111.000369C 14.5 120.000369 10 130.271969 10 142.000369C 10 166.853269 30.1472 187.000369 55 187.000369C 79.8528 187.000369 100 166.853269 100 142.000369ZM 55 106.000369C 74.8822 106.000369 91 122.118169 91 142.000369C 91 161.882669 74.8822 178.000369 55 178.000369C 35.1177 178.000369 19 161.882669 19 142.000369C 19 122.118169 35.1177 106.000369 55 106.000369Z"></path></g></g><g id="cp_4_g-4_qpo8ij19a9q8c-fill" stroke="none" fill="#1ac3fb"><g><path d="M 55 34C 61.6274 34 67 28.6274 67 22C 67 15.3726 61.6274 10 55 10C 48.3726 10 43 15.3726 43 22C 43 28.6274 48.3726 34 55 34ZM 55 28C 58.3137 28 61 25.3137 61 22C 61 18.6863 58.3137 16 55 16C 51.6863 16 49 18.6863 49 22C 49 25.3137 51.6863 28 55 28Z"></path></g></g><g id="cp_4_g-4_qpo8ij19a9q8c-fill-overlay" stroke="none" fill="url(#crawlingPattern-00bcfb62)"><g><path d="M 55 34C 61.6274 34 67 28.6274 67 22C 67 15.3726 61.6274 10 55 10C 48.3726 10 43 15.3726 43 22C 43 28.6274 48.3726 34 55 34ZM 55 28C 58.3137 28 61 25.3137 61 22C 61 18.6863 58.3137 16 55 16C 51.6863 16 49 18.6863 49 22C 49 25.3137 51.6863 28 55 28Z"></path></g></g><g id="cp_4_g-4_qpo8ij19a9q8c-stroke" fill="none" stroke-linecap="round" stroke-linejoin="round" stroke-miterlimit="4" stroke="#2c2c2c" stroke-width="2"><g><path d="M 55 34C 61.6274 34 67 28.6274 67 22C 67 15.3726 61.6274 10 55 10C 48.3726 10 43 15.3726 43 22C 43 28.6274 48.3726 34 55 34ZM 55 28C 58.3137 28 61 25.3137 61 22C 61 18.6863 58.3137 16 55 16C 51.6863 16 49 18.6863 49 22C 49 25.3137 51.6863 28 55 28Z"></path></g></g><g id="cp_4_g-4_qpo8ij19a9q8c-stroke-overlay" fill="none" stroke-linecap="round" stroke-linejoin="round" stroke-miterlimit="4" stroke="#ffffff29" stroke-width="2" stroke-dasharray="4,6"><animate attributeName="stroke-dashoffset" values="30;0" dur="1s" repeatCount="indefinite" begin="0"></animate><g><path d="M 55 34C 61.6274 34 67 28.6274 67 22C 67 15.3726 61.6274 10 55 10C 48.3726 10 43 15.3726 43 22C 43 28.6274 48.3726 34 55 34ZM 55 28C 58.3137 28 61 25.3137 61 22C 61 18.6863 58.3137 16 55 16C 51.6863 16 49 18.6863 49 22C 49 25.3137 51.6863 28 55 28Z"></path></g></g></g><g id="g-root-ic_wood_4j76zf19a9q80-stroke-fill" data-item-order="-2304" transform="translate(296.1310119628906, 434.0000305175781)"><g id="ic_wood_4j76zf19a9q80-fill" stroke="none" fill="#43dd93"><g><path d="M 45.099976 13.213998C 45.115307 13.213638 45.130646 13.213638 45.145977 13.213998C 45.891975 13.229998 46.791977 13.527998 47.305977 14.303997C 47.327976 14.335998 47.345978 14.369997 47.365978 14.403996L 52.177975 23.971991C 52.33049 24.275522 52.314941 24.636383 52.136887 24.925673C 51.958832 25.214962 51.643665 25.391411 51.303974 25.391991L 49.925972 25.391991L 55.527969 33.783985C 55.728527 34.084507 55.747467 34.471001 55.577248 34.789692C 55.407028 35.108379 55.075268 35.30756 54.71397 35.307983L 53.333973 35.307983L 57.529968 41.607979C 58.093971 42.429977 57.961971 43.387978 57.509968 44.067978C 57.016514 44.79512 56.192715 45.228027 55.313969 45.221977L 47.783978 45.221977L 47.783978 54.94997C 47.750183 56.007538 46.883083 56.847366 45.824978 56.847366C 44.766872 56.847366 43.899773 56.007538 43.865978 54.94997L 43.865978 50.225975C 43.883976 50.059975 43.891975 49.891972 43.891975 49.721973L 43.891975 44.341976C 45.465977 44.947979 47.617977 44.685978 48.747974 42.709976C 49.399975 41.569981 50.473972 39.35598 50.473972 36.825981C 50.473972 34.445984 49.523972 32.351986 48.883972 31.181986C 48.267864 30.065401 47.141216 29.324024 45.871975 29.199986C 44.818848 29.091711 43.763241 29.380577 42.91198 30.009987C 42.379978 30.403986 41.227982 31.059986 39.22998 31.107986C 37.879269 31.040775 36.561188 31.536865 35.589985 32.477985L 40.319981 25.391991L 38.943981 25.391991C 38.603931 25.392105 38.288132 25.215933 38.109592 24.926523C 37.931057 24.637114 37.915306 24.275839 38.067982 23.971991L 42.881977 14.405997C 42.899918 14.370827 42.919952 14.336765 42.941978 14.303997C 43.455978 13.527998 44.355976 13.229998 45.101978 13.213998ZM 27.869989 46.219978L 27.869989 51.723972L 27.865988 51.723972L 27.865988 57.083969L 16.607996 57.083969L 16.607996 54.983971L 16.603996 54.983971L 16.603996 46.219978C 16.603884 45.408199 15.945775 44.750179 15.133996 44.750179C 14.322218 44.750179 13.664109 45.408199 13.663998 46.219978L 13.663998 54.983971L 12.813998 54.983971C 11.205999 54.983971 10 53.777969 10 52.169971L 10 44.371979C 10 39.749981 13.819998 35.931984 18.441996 35.931984L 26.491989 35.931984C 31.113987 35.931984 34.933983 39.749981 34.933983 44.371979L 34.933983 46.979977C 35.033043 46.997295 35.133419 47.005997 35.233982 47.005978L 37.95998 47.005978C 39.269043 47.005764 40.33036 48.066906 40.33036 49.375973C 40.33036 50.685036 39.269043 51.746181 37.95998 51.745972L 33.755985 51.745972C 32.132267 51.745975 30.815987 50.429691 30.815987 48.805973L 30.815987 47.505978L 30.805986 47.509975L 30.805986 46.219978C 30.776823 45.429752 30.127748 44.804192 29.336987 44.804192C 28.546227 44.804192 27.897152 45.429752 27.867989 46.219978ZM 40.955978 44.989979L 40.955978 39.819981C 42.615978 40.187981 43.949978 40.947979 44.757977 41.503979C 45.237976 41.831982 45.911976 41.755981 46.197979 41.25198C 46.763977 40.261978 47.537975 38.585983 47.537975 36.825981C 47.537975 35.173985 46.857979 33.599983 46.307976 32.593987C 45.993977 32.019985 45.187977 31.981985 44.661976 32.371986C 43.681976 33.097984 41.909981 34.011982 39.165981 34.047985C 38.618778 34.000343 38.076694 34.184502 37.671745 34.555607C 37.2668 34.926712 37.036156 35.45071 37.035984 35.999985L 37.03598 40.109982C 37.552513 41.366871 37.835152 42.707531 37.86998 44.065975L 37.961983 44.065979C 39.071983 44.065979 40.101978 44.405975 40.955978 44.989979ZM 27.627989 27.343988C 27.628494 30.242735 25.278738 32.592903 22.379992 32.592903C 19.481245 32.592903 17.131489 30.242735 17.131996 27.343988C 17.132502 24.445959 19.481962 22.096909 22.379992 22.096909C 25.278023 22.096909 27.627483 24.445959 27.627989 27.343988Z"></path></g></g><g id="ic_wood_4j76zf19a9q80-fill-overlay" stroke="none" fill="url(#crawlingPattern-00d16d21)"><g><path d="M 45.099976 13.213998C 45.115307 13.213638 45.130646 13.213638 45.145977 13.213998C 45.891975 13.229998 46.791977 13.527998 47.305977 14.303997C 47.327976 14.335998 47.345978 14.369997 47.365978 14.403996L 52.177975 23.971991C 52.33049 24.275522 52.314941 24.636383 52.136887 24.925673C 51.958832 25.214962 51.643665 25.391411 51.303974 25.391991L 49.925972 25.391991L 55.527969 33.783985C 55.728527 34.084507 55.747467 34.471001 55.577248 34.789692C 55.407028 35.108379 55.075268 35.30756 54.71397 35.307983L 53.333973 35.307983L 57.529968 41.607979C 58.093971 42.429977 57.961971 43.387978 57.509968 44.067978C 57.016514 44.79512 56.192715 45.228027 55.313969 45.221977L 47.783978 45.221977L 47.783978 54.94997C 47.750183 56.007538 46.883083 56.847366 45.824978 56.847366C 44.766872 56.847366 43.899773 56.007538 43.865978 54.94997L 43.865978 50.225975C 43.883976 50.059975 43.891975 49.891972 43.891975 49.721973L 43.891975 44.341976C 45.465977 44.947979 47.617977 44.685978 48.747974 42.709976C 49.399975 41.569981 50.473972 39.35598 50.473972 36.825981C 50.473972 34.445984 49.523972 32.351986 48.883972 31.181986C 48.267864 30.065401 47.141216 29.324024 45.871975 29.199986C 44.818848 29.091711 43.763241 29.380577 42.91198 30.009987C 42.379978 30.403986 41.227982 31.059986 39.22998 31.107986C 37.879269 31.040775 36.561188 31.536865 35.589985 32.477985L 40.319981 25.391991L 38.943981 25.391991C 38.603931 25.392105 38.288132 25.215933 38.109592 24.926523C 37.931057 24.637114 37.915306 24.275839 38.067982 23.971991L 42.881977 14.405997C 42.899918 14.370827 42.919952 14.336765 42.941978 14.303997C 43.455978 13.527998 44.355976 13.229998 45.101978 13.213998ZM 27.869989 46.219978L 27.869989 51.723972L 27.865988 51.723972L 27.865988 57.083969L 16.607996 57.083969L 16.607996 54.983971L 16.603996 54.983971L 16.603996 46.219978C 16.603884 45.408199 15.945775 44.750179 15.133996 44.750179C 14.322218 44.750179 13.664109 45.408199 13.663998 46.219978L 13.663998 54.983971L 12.813998 54.983971C 11.205999 54.983971 10 53.777969 10 52.169971L 10 44.371979C 10 39.749981 13.819998 35.931984 18.441996 35.931984L 26.491989 35.931984C 31.113987 35.931984 34.933983 39.749981 34.933983 44.371979L 34.933983 46.979977C 35.033043 46.997295 35.133419 47.005997 35.233982 47.005978L 37.95998 47.005978C 39.269043 47.005764 40.33036 48.066906 40.33036 49.375973C 40.33036 50.685036 39.269043 51.746181 37.95998 51.745972L 33.755985 51.745972C 32.132267 51.745975 30.815987 50.429691 30.815987 48.805973L 30.815987 47.505978L 30.805986 47.509975L 30.805986 46.219978C 30.776823 45.429752 30.127748 44.804192 29.336987 44.804192C 28.546227 44.804192 27.897152 45.429752 27.867989 46.219978ZM 40.955978 44.989979L 40.955978 39.819981C 42.615978 40.187981 43.949978 40.947979 44.757977 41.503979C 45.237976 41.831982 45.911976 41.755981 46.197979 41.25198C 46.763977 40.261978 47.537975 38.585983 47.537975 36.825981C 47.537975 35.173985 46.857979 33.599983 46.307976 32.593987C 45.993977 32.019985 45.187977 31.981985 44.661976 32.371986C 43.681976 33.097984 41.909981 34.011982 39.165981 34.047985C 38.618778 34.000343 38.076694 34.184502 37.671745 34.555607C 37.2668 34.926712 37.036156 35.45071 37.035984 35.999985L 37.03598 40.109982C 37.552513 41.366871 37.835152 42.707531 37.86998 44.065975L 37.961983 44.065979C 39.071983 44.065979 40.101978 44.405975 40.955978 44.989979ZM 27.627989 27.343988C 27.628494 30.242735 25.278738 32.592903 22.379992 32.592903C 19.481245 32.592903 17.131489 30.242735 17.131996 27.343988C 17.132502 24.445959 19.481962 22.096909 22.379992 22.096909C 25.278023 22.096909 27.627483 24.445959 27.627989 27.343988Z"></path></g></g></g><g id="g-root-ic_edit_143mn8b19acjr7-stroke-fill" data-item-order="-2304" transform="translate(656.1309814453125, 434)"><g id="ic_edit_143mn8b19acjr7-fill" stroke="none" fill="#1ac3fb"><g><path d="M 50 25C 50 23.895432 49.104568 23 48 23L 34 23C 32.895432 23 32 23.895432 32 25C 32 26.10457 32.895432 27 34 27L 48 27C 49.104568 27 50 26.10457 50 25ZM 56.82 16L 52 11.18C 51.248405 10.423922 50.226089 9.999155 49.16 10L 26 10C 23.790861 10 22 11.790861 22 14L 22 33.16C 22.002594 33.357613 22.121346 33.535156 22.302998 33.613007C 22.48465 33.690857 22.69511 33.654404 22.84 33.52L 25.66 30.82C 25.903385 30.620764 26.030994 30.313002 26 30L 26 15C 26 14.447716 26.447716 14 27 14L 48.759998 14C 49.025208 13.996767 49.279438 14.105723 49.459999 14.3L 53.700001 18.540001C 53.894276 18.720562 54.003231 18.974792 54 19.24L 54 46C 54 46.552284 53.552284 47 53 47L 33 47C 32.734795 46.996765 32.48056 47.105724 32.299999 47.299999L 29.5 50.139999C 29.370272 50.289333 29.336508 50.49934 29.412891 50.681808C 29.489275 50.864281 29.662573 50.98761 29.859999 50.999996L 54 51C 56.209141 51 58 49.209141 58 47L 58 18.84C 58.000843 17.773911 57.57608 16.751593 56.82 16ZM 38 32C 37.820557 32.002533 37.656235 32.101036 37.569431 32.25811C 37.482628 32.415176 37.486664 32.60672 37.580002 32.760002C 38.153305 33.621445 38.554039 34.58593 38.760002 35.599998C 38.806736 35.829197 39.006134 35.995361 39.239998 36L 43 36C 44.104568 36 45 35.104568 45 34C 45 32.895432 44.104568 32 43 32ZM 12.12 50.259998C 11.988804 50.131695 11.797867 50.085567 11.622565 50.139828C 11.447265 50.194088 11.315773 50.340015 11.28 50.52L 10 56.799999C 9.940816 57.12772 10.045341 57.463696 10.28 57.700001C 10.465227 57.899555 10.727879 58.008991 11 58L 11.2 58L 17.48 56.740002C 17.659985 56.704227 17.805912 56.572735 17.860172 56.397434C 17.914433 56.222134 17.868305 56.031197 17.74 55.900002ZM 34 33.18C 31.809223 31.511822 28.717442 31.743706 26.799999 33.720001L 13.7 46.880001C 13.602224 46.974243 13.546988 47.104198 13.546988 47.240002C 13.546988 47.375801 13.602224 47.50576 13.7 47.599998L 20.4 54.299999C 20.494242 54.397778 20.624199 54.453014 20.76 54.453014C 20.8958 54.453014 21.025759 54.397778 21.119999 54.299999L 34.48 40.940002C 35.509857 39.877689 36.044685 38.430763 35.953339 36.954021C 35.861992 35.47728 35.152924 34.107296 34 33.18Z"></path></g></g><g id="ic_edit_143mn8b19acjr7-fill-overlay" stroke="none" fill="url(#crawlingPattern-00bcfb62)"><g><path d="M 50 25C 50 23.895432 49.104568 23 48 23L 34 23C 32.895432 23 32 23.895432 32 25C 32 26.10457 32.895432 27 34 27L 48 27C 49.104568 27 50 26.10457 50 25ZM 56.82 16L 52 11.18C 51.248405 10.423922 50.226089 9.999155 49.16 10L 26 10C 23.790861 10 22 11.790861 22 14L 22 33.16C 22.002594 33.357613 22.121346 33.535156 22.302998 33.613007C 22.48465 33.690857 22.69511 33.654404 22.84 33.52L 25.66 30.82C 25.903385 30.620764 26.030994 30.313002 26 30L 26 15C 26 14.447716 26.447716 14 27 14L 48.759998 14C 49.025208 13.996767 49.279438 14.105723 49.459999 14.3L 53.700001 18.540001C 53.894276 18.720562 54.003231 18.974792 54 19.24L 54 46C 54 46.552284 53.552284 47 53 47L 33 47C 32.734795 46.996765 32.48056 47.105724 32.299999 47.299999L 29.5 50.139999C 29.370272 50.289333 29.336508 50.49934 29.412891 50.681808C 29.489275 50.864281 29.662573 50.98761 29.859999 50.999996L 54 51C 56.209141 51 58 49.209141 58 47L 58 18.84C 58.000843 17.773911 57.57608 16.751593 56.82 16ZM 38 32C 37.820557 32.002533 37.656235 32.101036 37.569431 32.25811C 37.482628 32.415176 37.486664 32.60672 37.580002 32.760002C 38.153305 33.621445 38.554039 34.58593 38.760002 35.599998C 38.806736 35.829197 39.006134 35.995361 39.239998 36L 43 36C 44.104568 36 45 35.104568 45 34C 45 32.895432 44.104568 32 43 32ZM 12.12 50.259998C 11.988804 50.131695 11.797867 50.085567 11.622565 50.139828C 11.447265 50.194088 11.315773 50.340015 11.28 50.52L 10 56.799999C 9.940816 57.12772 10.045341 57.463696 10.28 57.700001C 10.465227 57.899555 10.727879 58.008991 11 58L 11.2 58L 17.48 56.740002C 17.659985 56.704227 17.805912 56.572735 17.860172 56.397434C 17.914433 56.222134 17.868305 56.031197 17.74 55.900002ZM 34 33.18C 31.809223 31.511822 28.717442 31.743706 26.799999 33.720001L 13.7 46.880001C 13.602224 46.974243 13.546988 47.104198 13.546988 47.240002C 13.546988 47.375801 13.602224 47.50576 13.7 47.599998L 20.4 54.299999C 20.494242 54.397778 20.624199 54.453014 20.76 54.453014C 20.8958 54.453014 21.025759 54.397778 21.119999 54.299999L 34.48 40.940002C 35.509857 39.877689 36.044685 38.430763 35.953339 36.954021C 35.861992 35.47728 35.152924 34.107296 34 33.18Z"></path></g></g></g><g id="g-root-ic_top_1cyn6e319afcw0-stroke-fill" data-item-order="-2304" transform="translate(116.1309814453125, 194)"><g id="ic_top_1cyn6e319afcw0-fill" stroke="none" fill="#4f91fc"><g><path d="M 16.968 14.432C 17.544384 15.347522 17.28828 16.555414 16.389963 17.15826C 15.491646 17.761108 14.276796 17.540348 13.648 16.66L 11.888 14.046C 11.271937 13.128649 11.51631 11.885557 12.433782 11.269674C 13.351254 10.653791 14.594297 10.898407 15.21 11.816L 16.968 14.432ZM 51.577999 17.205999C 50.661633 16.590473 50.417252 15.348892 51.032001 14.432L 52.787998 11.816C 53.411873 10.920727 54.638218 10.690775 55.544052 11.299212C 56.449886 11.907648 56.700821 13.129871 56.108002 14.046L 54.354 16.66C 53.73838 17.577612 52.495281 17.822113 51.577999 17.205999ZM 21.938 22.274C 22.554062 23.191351 22.30969 24.434443 21.39222 25.050325C 20.474747 25.666208 19.231703 25.421593 18.616001 24.504L 16.860001 21.888C 16.283615 20.972479 16.539719 19.764587 17.438038 19.161739C 18.336353 18.558891 19.551205 18.779652 20.18 19.66L 21.938 22.274ZM 46.287998 25.049999C 45.370388 24.43438 45.125889 23.19128 45.742001 22.274L 47.498001 19.66C 48.126797 18.779652 49.341644 18.558891 50.239964 19.161739C 51.138279 19.764587 51.394386 20.972479 50.818001 21.888L 49.063999 24.504C 48.44838 25.421612 47.20528 25.666111 46.287998 25.049999ZM 33.652 57.07C 40.98 57.07 46.919998 52.484001 46.919998 44.862C 48.194 45.287998 48.866001 44.686001 49.043999 44.332001C 49.574001 43.271999 48.16 41.148003 46.919998 39.556C 46.919998 32.879997 42.362 27.309999 36.306 26.032C 36.306 26.032 35.774002 23.632 33.652 23.632C 31.530001 23.632 30.997999 26.032 30.997999 26.032C 24.942001 27.312 20.383999 32.879997 20.383999 39.556C 19.144001 41.148003 17.73 43.27 18.26 44.332001C 18.438 44.686001 19.110001 45.287998 20.383999 44.862C 20.383999 52.481998 26.323999 57.07 33.652 57.07Z"></path></g></g><g id="ic_top_1cyn6e319afcw0-fill-overlay" stroke="none" fill="url(#crawlingPattern-0060fb20)"><g><path d="M 16.968 14.432C 17.544384 15.347522 17.28828 16.555414 16.389963 17.15826C 15.491646 17.761108 14.276796 17.540348 13.648 16.66L 11.888 14.046C 11.271937 13.128649 11.51631 11.885557 12.433782 11.269674C 13.351254 10.653791 14.594297 10.898407 15.21 11.816L 16.968 14.432ZM 51.577999 17.205999C 50.661633 16.590473 50.417252 15.348892 51.032001 14.432L 52.787998 11.816C 53.411873 10.920727 54.638218 10.690775 55.544052 11.299212C 56.449886 11.907648 56.700821 13.129871 56.108002 14.046L 54.354 16.66C 53.73838 17.577612 52.495281 17.822113 51.577999 17.205999ZM 21.938 22.274C 22.554062 23.191351 22.30969 24.434443 21.39222 25.050325C 20.474747 25.666208 19.231703 25.421593 18.616001 24.504L 16.860001 21.888C 16.283615 20.972479 16.539719 19.764587 17.438038 19.161739C 18.336353 18.558891 19.551205 18.779652 20.18 19.66L 21.938 22.274ZM 46.287998 25.049999C 45.370388 24.43438 45.125889 23.19128 45.742001 22.274L 47.498001 19.66C 48.126797 18.779652 49.341644 18.558891 50.239964 19.161739C 51.138279 19.764587 51.394386 20.972479 50.818001 21.888L 49.063999 24.504C 48.44838 25.421612 47.20528 25.666111 46.287998 25.049999ZM 33.652 57.07C 40.98 57.07 46.919998 52.484001 46.919998 44.862C 48.194 45.287998 48.866001 44.686001 49.043999 44.332001C 49.574001 43.271999 48.16 41.148003 46.919998 39.556C 46.919998 32.879997 42.362 27.309999 36.306 26.032C 36.306 26.032 35.774002 23.632 33.652 23.632C 31.530001 23.632 30.997999 26.032 30.997999 26.032C 24.942001 27.312 20.383999 32.879997 20.383999 39.556C 19.144001 41.148003 17.73 43.27 18.26 44.332001C 18.438 44.686001 19.110001 45.287998 20.383999 44.862C 20.383999 52.481998 26.323999 57.07 33.652 57.07Z"></path></g></g></g><g id="g-root-ic_male_147zyu319agqh7-stroke-fill" data-item-order="-2304" transform="translate(476.1310119628906, 194)"><g id="ic_male_147zyu319agqh7-fill" stroke="none" fill="#a6da37"><g><path d="M 10 10M 37.523983 10.785999L 37.623981 10.785999L 37.623981 17.211996L 37.523983 17.211996C 33.969982 17.211996 31.003986 18.251995 28.939987 19.277994C 28.299988 19.597994 27.739988 19.917994 27.271988 20.207993C 28.179989 14.939997 32.357986 10.785999 37.523983 10.785999ZM 28.853989 25.77799C 28.247292 25.472412 27.657745 25.133907 27.087988 24.76399L 27.087988 26.947989C 27.087988 32.685986 31.653986 37.301983 37.281982 37.301983L 37.763981 37.301983C 43.391975 37.301983 47.957973 32.685986 47.957973 26.947989L 47.957973 24.735991C 46.702026 25.537718 45.360355 26.196476 43.957977 26.699989L 43.957977 26.947989C 43.957977 30.527987 41.131981 33.301983 37.763981 33.301983L 37.283981 33.301983C 33.913982 33.301983 31.087986 30.527987 31.087986 26.947989L 31.087986 26.733988C 30.324131 26.462172 29.578011 26.142881 28.853989 25.77799ZM 40.623981 11.283999C 44.379978 12.541999 47.083977 16.035995 47.779976 20.211992C 47.23719 19.874144 46.678551 19.562454 46.105976 19.277994C 44.376034 18.413851 42.52924 17.806787 40.623978 17.475994L 40.623981 11.283999ZM 30.203987 23.09799C 29.86282 22.926069 29.527939 22.741951 29.199987 22.545992C 29.519987 22.359991 29.877987 22.161991 30.275986 21.963991C 32.051987 21.081993 34.555984 20.211992 37.523983 20.211992C 40.489979 20.211992 42.993977 21.081993 44.769978 21.963991C 45.155975 22.155993 45.505978 22.347992 45.815979 22.529991C 45.473465 22.729193 45.124619 22.917292 44.769978 23.09399C 42.993977 23.977991 40.489979 24.845989 37.523983 24.845989C 34.980816 24.844151 32.473587 24.24543 30.203987 23.09799ZM 14.119997 45.369976C 14.119998 41.890587 16.940601 39.069984 20.419994 39.069984C 23.899385 39.069984 26.71999 41.890587 26.71999 45.36998C 26.71999 48.849369 23.899385 51.669975 20.419994 51.669975C 16.940601 51.669975 14.119998 48.849369 14.119998 45.36998ZM 26.227989 53.875969C 21.851585 56.863934 15.922187 56.043682 12.521304 51.979839C 9.120422 47.915993 9.357978 41.934845 13.070451 38.153522C 16.782923 34.372204 22.758699 34.024796 26.884342 37.350437C 31.009985 40.676083 31.939037 46.589413 29.031986 51.019974L 32.371986 54.495968C 33.104252 55.296604 33.064594 56.53508 32.282604 57.287224C 31.500612 58.039368 30.261532 58.030823 29.489986 57.267971L 26.227989 53.875969ZM 35.459984 57.999969C 36.335079 56.126808 35.967041 53.908234 34.533985 52.417973L 32.689987 50.499973C 33.36927 48.87508 33.718056 47.131145 33.715984 45.36998C 33.718784 43.372158 33.269577 41.39959 32.401985 39.599979L 34.121983 39.599979C 34.492863 39.600101 34.850544 39.737617 35.125984 39.985981L 38.123981 42.681976L 41.11998 39.985981C 41.39542 39.737617 41.753101 39.600101 42.123978 39.599979L 52.123974 39.599979C 52.674572 39.599991 53.180912 39.901653 53.443047 40.385849C 53.705177 40.870045 53.680965 41.458935 53.379974 41.919979L 51.133972 45.363976C 54.476814 48.137764 56.814301 51.93425 57.785969 56.167969C 57.886906 56.612686 57.780052 57.07917 57.495602 57.435608C 57.211151 57.792046 56.779999 57.999729 56.323971 57.999969L 35.459984 57.999969ZM 37.523983 51.145973C 38.251068 51.16901 38.933002 50.794262 39.303352 50.168148C 39.67371 49.542034 39.67371 48.763916 39.303352 48.137802C 38.933002 47.511688 38.251068 47.136944 37.523983 47.159977C 36.447849 47.194073 35.593124 48.076302 35.593124 49.152973C 35.593124 50.229649 36.447849 51.111881 37.523983 51.145973Z"></path></g></g><g id="ic_male_147zyu319agqh7-fill-overlay" stroke="none" fill="url(#crawlingPattern-8ed00028)"><g><path d="M 10 10M 37.523983 10.785999L 37.623981 10.785999L 37.623981 17.211996L 37.523983 17.211996C 33.969982 17.211996 31.003986 18.251995 28.939987 19.277994C 28.299988 19.597994 27.739988 19.917994 27.271988 20.207993C 28.179989 14.939997 32.357986 10.785999 37.523983 10.785999ZM 28.853989 25.77799C 28.247292 25.472412 27.657745 25.133907 27.087988 24.76399L 27.087988 26.947989C 27.087988 32.685986 31.653986 37.301983 37.281982 37.301983L 37.763981 37.301983C 43.391975 37.301983 47.957973 32.685986 47.957973 26.947989L 47.957973 24.735991C 46.702026 25.537718 45.360355 26.196476 43.957977 26.699989L 43.957977 26.947989C 43.957977 30.527987 41.131981 33.301983 37.763981 33.301983L 37.283981 33.301983C 33.913982 33.301983 31.087986 30.527987 31.087986 26.947989L 31.087986 26.733988C 30.324131 26.462172 29.578011 26.142881 28.853989 25.77799ZM 40.623981 11.283999C 44.379978 12.541999 47.083977 16.035995 47.779976 20.211992C 47.23719 19.874144 46.678551 19.562454 46.105976 19.277994C 44.376034 18.413851 42.52924 17.806787 40.623978 17.475994L 40.623981 11.283999ZM 30.203987 23.09799C 29.86282 22.926069 29.527939 22.741951 29.199987 22.545992C 29.519987 22.359991 29.877987 22.161991 30.275986 21.963991C 32.051987 21.081993 34.555984 20.211992 37.523983 20.211992C 40.489979 20.211992 42.993977 21.081993 44.769978 21.963991C 45.155975 22.155993 45.505978 22.347992 45.815979 22.529991C 45.473465 22.729193 45.124619 22.917292 44.769978 23.09399C 42.993977 23.977991 40.489979 24.845989 37.523983 24.845989C 34.980816 24.844151 32.473587 24.24543 30.203987 23.09799ZM 14.119997 45.369976C 14.119998 41.890587 16.940601 39.069984 20.419994 39.069984C 23.899385 39.069984 26.71999 41.890587 26.71999 45.36998C 26.71999 48.849369 23.899385 51.669975 20.419994 51.669975C 16.940601 51.669975 14.119998 48.849369 14.119998 45.36998ZM 26.227989 53.875969C 21.851585 56.863934 15.922187 56.043682 12.521304 51.979839C 9.120422 47.915993 9.357978 41.934845 13.070451 38.153522C 16.782923 34.372204 22.758699 34.024796 26.884342 37.350437C 31.009985 40.676083 31.939037 46.589413 29.031986 51.019974L 32.371986 54.495968C 33.104252 55.296604 33.064594 56.53508 32.282604 57.287224C 31.500612 58.039368 30.261532 58.030823 29.489986 57.267971L 26.227989 53.875969ZM 35.459984 57.999969C 36.335079 56.126808 35.967041 53.908234 34.533985 52.417973L 32.689987 50.499973C 33.36927 48.87508 33.718056 47.131145 33.715984 45.36998C 33.718784 43.372158 33.269577 41.39959 32.401985 39.599979L 34.121983 39.599979C 34.492863 39.600101 34.850544 39.737617 35.125984 39.985981L 38.123981 42.681976L 41.11998 39.985981C 41.39542 39.737617 41.753101 39.600101 42.123978 39.599979L 52.123974 39.599979C 52.674572 39.599991 53.180912 39.901653 53.443047 40.385849C 53.705177 40.870045 53.680965 41.458935 53.379974 41.919979L 51.133972 45.363976C 54.476814 48.137764 56.814301 51.93425 57.785969 56.167969C 57.886906 56.612686 57.780052 57.07917 57.495602 57.435608C 57.211151 57.792046 56.779999 57.999729 56.323971 57.999969L 35.459984 57.999969ZM 37.523983 51.145973C 38.251068 51.16901 38.933002 50.794262 39.303352 50.168148C 39.67371 49.542034 39.67371 48.763916 39.303352 48.137802C 38.933002 47.511688 38.251068 47.136944 37.523983 47.159977C 36.447849 47.194073 35.593124 48.076302 35.593124 49.152973C 35.593124 50.229649 36.447849 51.111881 37.523983 51.145973Z"></path></g></g></g><g id="g-root-tx_therendl_deu78b19a9onj-stroke-fill" data-item-order="0" transform="translate(164, 50)"><g id="tx_therendl_deu78b19a9onj-fill" stroke="none" fill="#f4f4f4"><g><text style="font: 20px Roboto, sans-serif; white-space: pre;" font-size="20px" font-family="Roboto, sans-serif"><tspan x="17.13" y="34" dominant-baseline="ideographic">The Rendlesham Forest Incident: A Timeline of Events</tspan></text></g></g><g id="tx_therendl_deu78b19a9onj-fill-overlay" stroke="none" fill="url(#crawlingPattern-0000001b)"><g><text style="font: 20px Roboto, sans-serif; white-space: pre;" font-size="20px" font-family="Roboto, sans-serif"><tspan x="17.13" y="34" dominant-baseline="ideographic">The Rendlesham Forest Incident: A Timeline of Events</tspan></text></g></g></g><g id="g-root-tx_december_909na319acidd-stroke-fill" data-item-order="0" transform="translate(260, 134)"><g id="tx_december_909na319acidd-fill" stroke="none" fill="#43dd93"><g><text style="font: bold 20px Roboto, sans-serif; white-space: pre;" font-weight="bold" font-size="20px" font-family="Roboto, sans-serif"><tspan x="17.23" y="34" dominant-baseline="ideographic">December 26, </tspan><tspan x="56.55" y="58" dominant-baseline="ideographic">1980</tspan></text></g></g><g id="tx_december_909na319acidd-fill-overlay" stroke="none" fill="url(#crawlingPattern-00b15c75)"><g><text style="font: bold 20px Roboto, sans-serif; white-space: pre;" font-weight="bold" font-size="20px" font-family="Roboto, sans-serif"><tspan x="17.23" y="34" dominant-baseline="ideographic">December 26, </tspan><tspan x="56.55" y="58" dominant-baseline="ideographic">1980</tspan></text></g></g></g><g id="g-root-tx_investig_1upx6vv19acjr6-stroke-fill" data-item-order="0" transform="translate(236, 194)"><g id="tx_investig_1upx6vv19acjr6-fill" stroke="none" fill="#dffff0"><g><text style="font: 15px Roboto, sans-serif; white-space: pre;" font-size="15px" font-family="Roboto, sans-serif"><tspan x="30.3" y="31" dominant-baseline="ideographic">Investigation team </tspan><tspan x="15.05" y="49" dominant-baseline="ideographic">encounters a triangular </tspan><tspan x="76.66" y="67" dominant-baseline="ideographic">craft</tspan></text></g></g><g id="tx_investig_1upx6vv19acjr6-fill-overlay" stroke="none" fill="url(#crawlingPattern-00ff873a)"><g><text style="font: 15px Roboto, sans-serif; white-space: pre;" font-size="15px" font-family="Roboto, sans-serif"><tspan x="30.3" y="31" dominant-baseline="ideographic">Investigation team </tspan><tspan x="15.05" y="49" dominant-baseline="ideographic">encounters a triangular </tspan><tspan x="76.66" y="67" dominant-baseline="ideographic">craft</tspan></text></g></g></g><g id="g-root-tx_january1_mb3okb19afapw-stroke-fill" data-item-order="0" transform="translate(596, 158)"><g id="tx_january1_mb3okb19afapw-fill" stroke="none" fill="#1ac3fb"><g><text style="font: bold 20px Roboto, sans-serif; white-space: pre;" font-weight="bold" font-size="20px" font-family="Roboto, sans-serif"><tspan x="15.86" y="34" dominant-baseline="ideographic">January 13, 1981</tspan></text></g></g><g id="tx_january1_mb3okb19afapw-fill-overlay" stroke="none" fill="url(#crawlingPattern-00a3d9d9)"><g><text style="font: bold 20px Roboto, sans-serif; white-space: pre;" font-weight="bold" font-size="20px" font-family="Roboto, sans-serif"><tspan x="15.86" y="34" dominant-baseline="ideographic">January 13, 1981</tspan></text></g></g></g><g id="g-root-tx_haltprep_8zn66z19afcat-stroke-fill" data-item-order="0" transform="translate(608, 194)"><g id="tx_haltprep_8zn66z19afcat-fill" stroke="none" fill="#e5f8ff"><g><text style="font: 15px Roboto, sans-serif; white-space: pre;" font-size="15px" font-family="Roboto, sans-serif"><tspan x="35.36" y="31" dominant-baseline="ideographic">Halt prepares a </tspan><tspan x="15.45" y="49" dominant-baseline="ideographic">memorandum for the </tspan><tspan x="70.39" y="67" dominant-baseline="ideographic">MoD</tspan></text></g></g><g id="tx_haltprep_8zn66z19afcat-fill-overlay" stroke="none" fill="url(#crawlingPattern-00baff39)"><g><text style="font: 15px Roboto, sans-serif; white-space: pre;" font-size="15px" font-family="Roboto, sans-serif"><tspan x="35.36" y="31" dominant-baseline="ideographic">Halt prepares a </tspan><tspan x="15.45" y="49" dominant-baseline="ideographic">memorandum for the </tspan><tspan x="70.39" y="67" dominant-baseline="ideographic">MoD</tspan></text></g></g></g><g id="g-root-tx_december_1upx6vv19afaiu-stroke-fill" data-item-order="0" transform="translate(80, 422)"><g id="tx_december_1upx6vv19afaiu-fill" stroke="none" fill="#4f91fc"><g><text style="font: bold 20px Roboto, sans-serif; white-space: pre;" font-weight="bold" font-size="20px" font-family="Roboto, sans-serif"><tspan x="17.23" y="34" dominant-baseline="ideographic">December 26, </tspan><tspan x="56.55" y="58" dominant-baseline="ideographic">1980</tspan></text></g></g><g id="tx_december_1upx6vv19afaiu-fill-overlay" stroke="none" fill="url(#crawlingPattern-0060fba2)"><g><text style="font: bold 20px Roboto, sans-serif; white-space: pre;" font-weight="bold" font-size="20px" font-family="Roboto, sans-serif"><tspan x="17.23" y="34" dominant-baseline="ideographic">December 26, </tspan><tspan x="56.55" y="58" dominant-baseline="ideographic">1980</tspan></text></g></g></g><g id="g-root-tx_security_1lua6mz19afbbj-stroke-fill" data-item-order="0" transform="translate(68, 482)"><g id="tx_security_1lua6mz19afbbj-fill" stroke="none" fill="#ebf2ff"><g><text style="font: 15px Roboto, sans-serif; white-space: pre;" font-size="15px" font-family="Roboto, sans-serif"><tspan x="17.93" y="31" dominant-baseline="ideographic">Security personnel at </tspan><tspan x="32.16" y="49" dominant-baseline="ideographic">RAF Woodbridge </tspan><tspan x="13.13" y="67" dominant-baseline="ideographic">observe unusual lights</tspan></text></g></g><g id="tx_security_1lua6mz19afbbj-fill-overlay" stroke="none" fill="url(#crawlingPattern-0059ff37)"><g><text style="font: 15px Roboto, sans-serif; white-space: pre;" font-size="15px" font-family="Roboto, sans-serif"><tspan x="17.93" y="31" dominant-baseline="ideographic">Security personnel at </tspan><tspan x="32.16" y="49" dominant-baseline="ideographic">RAF Woodbridge </tspan><tspan x="13.13" y="67" dominant-baseline="ideographic">observe unusual lights</tspan></text></g></g></g><g id="g-root-tx_december_4otgrf19agpvl-stroke-fill" data-item-order="0" transform="translate(416, 422)"><g id="tx_december_4otgrf19agpvl-fill" stroke="none" fill="#a6da37"><g><text style="font: bold 20px Roboto, sans-serif; white-space: pre;" font-weight="bold" font-size="20px" font-family="Roboto, sans-serif"><tspan x="14.15" y="34" dominant-baseline="ideographic">December 27-28, </tspan><tspan x="68.9" y="58" dominant-baseline="ideographic">1980</tspan></text></g></g><g id="tx_december_4otgrf19agpvl-fill-overlay" stroke="none" fill="url(#crawlingPattern-5c87005e)"><g><text style="font: bold 20px Roboto, sans-serif; white-space: pre;" font-weight="bold" font-size="20px" font-family="Roboto, sans-serif"><tspan x="14.15" y="34" dominant-baseline="ideographic">December 27-28, </tspan><tspan x="68.9" y="58" dominant-baseline="ideographic">1980</tspan></text></g></g></g><g id="g-root-tx_ltcolhal_1qeh0d719agr9e-stroke-fill" data-item-order="0" transform="translate(440, 482)"><g id="tx_ltcolhal_1qeh0d719agr9e-fill" stroke="none" fill="#f2ffd7"><g><text style="font: 15px Roboto, sans-serif; white-space: pre;" font-size="15px" font-family="Roboto, sans-serif"><tspan x="17.36" y="28" dominant-baseline="ideographic">Lt. Col. Halt leads a </tspan><tspan x="13.05" y="46" dominant-baseline="ideographic">second investigation</tspan></text></g></g><g id="tx_ltcolhal_1qeh0d719agr9e-fill-overlay" stroke="none" fill="url(#crawlingPattern-acff003c)"><g><text style="font: 15px Roboto, sans-serif; white-space: pre;" font-size="15px" font-family="Roboto, sans-serif"><tspan x="17.36" y="28" dominant-baseline="ideographic">Lt. Col. Halt leads a </tspan><tspan x="13.05" y="46" dominant-baseline="ideographic">second investigation</tspan></text></g></g></g></svg>