<?xml version='1.0' encoding='utf-8'?>
<svg xmlns="http://www.w3.org/2000/svg" xmlns:xlink="http://www.w3.org/1999/xlink" width="624" height="492" viewBox="0 0 624 492" style="fill:none;stroke:none;fill-rule:evenodd;clip-rule:evenodd;stroke-linecap:round;stroke-linejoin:round;stroke-miterlimit:1.5;" version="1.1">
  <style class="text-font-style fontImports" data-font-family="Roboto">@import url('https://fonts.googleapis.com/css2?family=Roboto:wght@400;700&amp;display=block');</style>
  <rect x="0" y="0" width="624" height="492" fill="#252a34" stroke="none" id="programmatic_background"/>
  <g id="g-root-tf_hzn2971b8f9j6-stroke-fill" data-item-order="-280800" transform="translate(12, 12)"/>
  <g id="g-root-sy_4_cu_meu3aj1b85hqb-stroke-fill" data-item-order="-105977" transform="translate(133.95700073242188, 231)">
    <g id="sy_4_cu_meu3aj1b85hqb-stroke" fill="none" stroke-linecap="round" stroke-linejoin="round" stroke-miterlimit="4" stroke="#f4f4f4" stroke-width="2">
      <g>
        <path d="M 340.042999 93C 343.356999 93 346.042999 90.314 346.042999 87C 346.042999 83.686 343.356999 81 340.042999 81C 336.728999 81 334.042999 83.686 334.042999 87C 334.042999 90.314 336.728999 93 340.042999 93ZM 16.021999 45C 19.346999 45 22.042999 42.314 22.042999 39C 22.042999 35.686 19.346999 33 16.021999 33C 12.695999 33 9.999999 35.686 9.999999 39C 9.999999 42.314 12.695999 45 16.021999 45ZM 340.042999 81L 340.042999 57.75M 16.042999 10L 16.042999 33M 195.561999 65.593L 334.144999 86.11M 162.040999 60.634L 22.027999 39.904"/>
      </g>
    </g>
  </g>
  <g id="g-root-sy_3_Exclude_djtk4r1b85fd8-stroke-fill" data-item-order="-105974" transform="translate(255.05589294433594, 268)">
    <g id="sy_3_Exclude_djtk4r1b85fd8-fill" stroke="none" fill="none">
      <g>
        <path d="M 56.944107 10C 49.471107 10 43.195107 15.122 41.436107 22.047L 10.134107 124.12C 9.542107 126.049 10.984107 128 13.002107 128L 100.886107 128C 102.903107 128 104.346107 126.049 103.754107 124.12L 72.454107 22.054C 70.696107 15.126 64.419107 10 56.944107 10ZM 56.944107 33C 60.810107 33 63.944107 29.866 63.944107 26C 63.944107 22.134 60.810107 19 56.944107 19C 53.078107 19 49.944107 22.134 49.944107 26C 49.944107 29.866 53.078107 33 56.944107 33Z"/>
      </g>
    </g>
    <g id="sy_3_Exclude_djtk4r1b85fd8-stroke" fill="none" stroke-linecap="round" stroke-linejoin="round" stroke-miterlimit="4" stroke="#f4f4f4" stroke-width="2">
      <g>
        <path d="M 56.944107 10C 49.471107 10 43.195107 15.122 41.436107 22.047L 10.134107 124.12C 9.542107 126.049 10.984107 128 13.002107 128L 100.886107 128C 102.903107 128 104.346107 126.049 103.754107 124.12L 72.454107 22.054C 70.696107 15.126 64.419107 10 56.944107 10ZM 56.944107 33C 60.810107 33 63.944107 29.866 63.944107 26C 63.944107 22.134 60.810107 19 56.944107 19C 53.078107 19 49.944107 22.134 49.944107 26C 49.944107 29.866 53.078107 33 56.944107 33Z"/>
      </g>
    </g>
  </g>
  <g id="g-root-sy_2_right-bucket_94020b1b85g5h-stroke-fill" data-item-order="-105970" transform="translate(350, 242)">
    <g id="sy_2_right-bucket_94020b1b85g5h-fill" stroke="none" fill="none">
      <g>
        <path d="M 11.081 15.729C 10.338 14.904 10 13.826 10 12.716L 10 12.716C 10 11.216 11.216 10 12.716 10L 235.284 10C 236.784 10 238 11.216 238 12.716L 238 12.716C 238 13.826 237.662 14.904 236.919 15.729C 231.551 21.692 204.717 46 124 46C 43.283 46 16.449 21.692 11.081 15.729Z"/>
      </g>
    </g>
    <g id="sy_2_right-bucket_94020b1b85g5h-stroke" fill="none" stroke-linecap="round" stroke-linejoin="round" stroke-miterlimit="4" stroke="#fb6762" stroke-width="2">
      <g>
        <path d="M 11.081 15.729C 10.338 14.904 10 13.826 10 12.716L 10 12.716C 10 11.216 11.216 10 12.716 10L 235.284 10C 236.784 10 238 11.216 238 12.716L 238 12.716C 238 13.826 237.662 14.904 236.919 15.729C 231.551 21.692 204.717 46 124 46C 43.283 46 16.449 21.692 11.081 15.729Z"/>
      </g>
    </g>
  </g>
  <g id="g-root-sy_1_left-bucket_8d1rf1b85gy6-stroke-fill" data-item-order="-105966" transform="translate(26, 194)">
    <g id="sy_1_left-bucket_8d1rf1b85gy6-fill" stroke="none" fill="none">
      <g>
        <path d="M 11.0812 15.729C 10.3384 14.904 10 13.826 10 12.716L 10 12.716C 10 11.216 11.2158 10 12.7157 10L 235.284 10C 236.784 10 238 11.216 238 12.716L 238 12.716C 238 13.826 237.662 14.904 236.919 15.729C 231.551 21.692 204.717 46 124 46C 43.2826 46 16.4488 21.692 11.0812 15.729Z"/>
      </g>
    </g>
    <g id="sy_1_left-bucket_8d1rf1b85gy6-stroke" fill="none" stroke-linecap="round" stroke-linejoin="round" stroke-miterlimit="4" stroke="#43dd93" stroke-width="2">
      <g>
        <path d="M 11.0812 15.729C 10.3384 14.904 10 13.826 10 12.716L 10 12.716C 10 11.216 11.2158 10 12.7157 10L 235.284 10C 236.784 10 238 11.216 238 12.716L 238 12.716C 238 13.826 237.662 14.904 236.919 15.729C 231.551 21.692 204.717 46 124 46C 43.2826 46 16.4488 21.692 11.0812 15.729Z"/>
      </g>
    </g>
  </g>
  <g id="g-root-ic_quil_8d1rf1b85gy7-stroke-fill" data-item-order="0" transform="translate(38, 134)">
    <g id="ic_quil_8d1rf1b85gy7-stroke" fill="none" stroke-linecap="round" stroke-linejoin="round" stroke-miterlimit="4" stroke="#f4f4f4" stroke-width="2">
      <g>
        <path d="M 27.18 57L 13.18 57C 12.07543 57 11.18 56.104568 11.18 55L 11.18 13C 11.18 11.895431 12.07543 11 13.18 11L 39.765999 11C 40.296391 11.000113 40.805016 11.210901 41.18 11.586L 48.599998 19C 48.975098 19.374985 49.185886 19.88361 49.186001 20.414L 49.186001 27M 17.18 27.542L 19.346001 29.705999C 19.553581 29.913752 19.841993 30.019751 20.134705 29.995872C 20.427418 29.971992 20.694836 29.82065 20.866001 29.582001L 25.18 23.542M 31.18 27L 39.18 27M 17.18 37.542L 19.346001 39.706001C 19.553581 39.91375 19.841993 40.019753 20.134705 39.995872C 20.427418 39.971992 20.694836 39.820648 20.866001 39.582001L 25.18 33.542M 31.18 37L 34.18 37M 31.18 57L 45.998001 42.181999M 42.284 36.038002C 40.624001 36.237999 31.384001 45.023998 37.216 50.852001C 39.251999 52.889999 43.801998 52.568001 49.285999 47.088001C 53.486 42.877998 55.886002 35.650002 56.782001 32.517998C 56.873272 32.184708 56.785995 31.827909 56.551186 31.574377C 56.316372 31.320845 55.967304 31.206512 55.627998 31.271999C 52.626179 31.848417 49.692883 32.737251 46.875999 33.924C 46.875999 33.924 45.602001 39.870003 42.276001 39.870003Z"/>
      </g>
    </g>
  </g>
  <g id="g-root-ic_watc_meu3aj1b888i0-stroke-fill" data-item-order="0" transform="translate(38, 62)">
    <g id="ic_watc_meu3aj1b888i0-stroke" fill="none" stroke-linecap="round" stroke-linejoin="round" stroke-miterlimit="4" stroke="#f4f4f4" stroke-width="2">
      <g>
        <path d="M 15.5 43.5C 15.5 45.985283 17.514719 48 20 48C 22.485281 48 24.5 45.985283 24.5 43.5C 24.5 41.014717 22.485281 39 20 39C 17.514719 39 15.5 41.014717 15.5 43.5ZM 29 57C 27.950926 52.885952 24.245701 50.006985 20 50.006985C 15.7543 50.006985 12.049074 52.885952 11 57M 43.5 43.5C 43.5 45.985283 45.514717 48 48 48C 50.485283 48 52.5 45.985283 52.5 43.5C 52.5 41.014717 50.485283 39 48 39C 45.514717 39 43.5 41.014717 43.5 43.5ZM 39 57C 40.049076 52.885952 43.754299 50.006985 48 50.006985C 52.245701 50.006985 55.950928 52.885952 57 57M 29.5 41.5C 29.5 43.985283 31.514719 46 34 46C 36.485283 46 38.5 43.985283 38.5 41.5C 38.5 39.014717 36.485283 37 34 37C 31.514719 37 29.5 39.014717 29.5 41.5ZM 41.830002 52.386002C 40.154522 49.669983 37.191231 48.016228 34 48.016228C 30.808767 48.016228 27.845474 49.669983 26.17 52.385998M 25 11L 22 14M 22 11L 25 14M 45 13L 42 16M 42 13L 45 16M 55 21L 52 24M 52 21L 55 24M 16 18L 13 21M 13 18L 16 21M 40.68 32.056C 42.285118 28.043875 45.306801 24.760302 49.172001 22.827999M 28 14L 28.788 14.4C 33.292236 16.650915 36.373741 21.003746 37 26L 37 26M 20 20L 20 20C 26.209766 21.241394 31.321966 25.632595 33.486 31.584L 34 33"/>
      </g>
    </g>
  </g>
  <g id="g-root-ic_1_htebe31b8b3sx-stroke-fill" data-item-order="0" transform="translate(362, 182)">
    <g id="ic_1_htebe31b8b3sx-stroke" fill="none" stroke-linecap="round" stroke-linejoin="round" stroke-miterlimit="4" stroke="#f4f4f4" stroke-width="2">
      <g>
        <path d="M 24.79324 56.121399L 24.79324 45.269199C 23.17436 43.769402 21.88682 41.962997 20.998039 39.966801M 42.981201 56.121399L 42.981201 50.924801L 45.579601 50.924801C 46.957802 50.924801 48.279598 50.377201 49.2542 49.402599C 50.2286 48.4282 50.776199 47.1064 50.776199 45.728199L 50.776199 40.531601L 54.067402 40.531601C 54.278198 40.5312 54.485802 40.479599 54.672199 40.381203C 54.858799 40.282799 55.0186 40.140602 55.137798 39.966801C 55.257198 39.792999 55.332401 39.592598 55.357201 39.383202C 55.382 39.173798 55.3554 38.961601 55.2798 38.764801C 51.349602 28.569361 48.8018 19.370781 39.532799 17.494999M 23.945099 34.503201C 30.192801 34.503201 35.257401 29.43856 35.257401 23.19096C 35.257401 16.94334 30.192801 11.878662 23.945099 11.878662C 17.6975 11.878662 12.63282 16.94334 12.63282 23.19096C 12.63282 29.43856 17.6975 34.503201 23.945099 34.503201ZM 10 10M 32.215797 30.9338L 38.982399 37.607399M 20.81348 19.783241C 20.81348 18.1355 22.13168 16.65258 23.94418 16.65258C 25.591919 16.65258 27.0749 17.97072 27.0749 19.783241C 27.0749 21.430981 25.756699 22.913979 23.94418 22.913979L 23.94418 24.30356M 23.94438 28.868099C 23.729019 28.868099 23.51368 29.083481 23.51368 29.29884C 23.51368 29.5142 23.729019 29.729521 23.94438 29.729521M 23.944279 28.868099C 24.159641 28.868099 24.375 29.083481 24.375 29.29884C 24.375 29.5142 24.159641 29.729521 23.944279 29.729521"/>
      </g>
    </g>
  </g>
  <g id="g-root-ic_1_v7z76z1b8cg0a-stroke-fill" data-item-order="0" transform="translate(362, 110)">
    <g id="ic_1_v7z76z1b8cg0a-stroke" fill="none" stroke-linecap="round" stroke-linejoin="round" stroke-miterlimit="4" stroke="#f4f4f4" stroke-width="2">
      <g>
        <path d="M 47.917999 14.5L 53.917999 14.5M 41.917999 46.5C 41.917999 47.052284 42.365715 47.5 42.917999 47.5C 43.470284 47.5 43.917999 47.052284 43.917999 46.5C 43.917999 45.947716 43.470284 45.5 42.917999 45.5C 42.365715 45.5 41.917999 45.947716 41.917999 46.5M 45.917999 26.5C 45.917999 27.052284 46.365715 27.5 46.917999 27.5C 47.470284 27.5 47.917999 27.052284 47.917999 26.5C 47.917999 25.947716 47.470284 25.5 46.917999 25.5C 46.365715 25.5 45.917999 25.947716 45.917999 26.5M 33.917999 16.5C 33.917999 17.052284 34.365715 17.5 34.917999 17.5C 35.470284 17.5 35.917999 17.052284 35.917999 16.5C 35.917999 15.947716 35.470284 15.5 34.917999 15.5C 34.365715 15.5 33.917999 15.947716 33.917999 16.5M 23.917999 44.5C 23.917999 45.052284 24.365715 45.5 24.917999 45.5C 25.470284 45.5 25.917999 45.052284 25.917999 44.5C 25.917999 43.947716 25.470284 43.5 24.917999 43.5C 24.365715 43.5 23.917999 43.947716 23.917999 44.5M 43.104 36.346001C 43.160088 36.110798 43.196213 35.871281 43.212002 35.629997C 43.212002 32.071999 38.886002 29.188 33.548 29.188C 28.209999 29.188 23.883999 32.071999 23.883999 35.629997C 23.902412 35.87151 23.941219 36.111031 24 36.346001C 15.288 36.346001 11 38.515999 11 43.146C 11 47.776001 16.577999 50.546001 29.924 50.546001C 32.886135 54.273476 37.376976 56.458965 42.138 56.490002C 50.938 56.490002 57 52.007999 57 46.183998C 57 40.987999 54.728001 36.346001 43.104 36.346001ZM 24 36.346001C 26.905499 38.941196 30.746597 40.234093 34.629997 39.924M 12.918 19.5L 24.917999 19.5M 18.917999 13.5L 18.917999 25.5M 50.917999 11.5L 50.917999 17.5"/>
      </g>
    </g>
  </g>
  <g id="g-root-tx_detailed_v8loa31b8fc3n-stroke-fill" data-item-order="0" transform="translate(98, 122)">
    <g id="tx_detailed_v8loa31b8fc3n-fill" stroke="none" fill="#f4f4f4">
      <g>
        <text style="font: 20px Roboto, sans-serif; white-space: pre;" font-size="20px" font-family="Roboto, sans-serif">
          <tspan x="12" y="34" dominant-baseline="ideographic">Detailed </tspan>
          <tspan x="12" y="58" dominant-baseline="ideographic">Documentation </tspan>
          <tspan x="12" y="82" dominant-baseline="ideographic">Quality</tspan>
        </text>
      </g>
    </g>
  </g>
  <g id="g-root-tx_educated_hxrmzv1b8fais-stroke-fill" data-item-order="0" transform="translate(98, 50)">
    <g id="tx_educated_hxrmzv1b8fais-fill" stroke="none" fill="#f4f4f4">
      <g>
        <text style="font: 20px Roboto, sans-serif; white-space: pre;" font-size="20px" font-family="Roboto, sans-serif">
          <tspan x="12" y="34" dominant-baseline="ideographic">Educated </tspan>
          <tspan x="12" y="58" dominant-baseline="ideographic">Witness </tspan>
          <tspan x="12" y="82" dominant-baseline="ideographic">Credibility</tspan>
        </text>
      </g>
    </g>
  </g>
  <g id="g-root-tx_plausibl_924mqz1b8fbbh-stroke-fill" data-item-order="0" transform="translate(422, 170)">
    <g id="tx_plausibl_924mqz1b8fbbh-fill" stroke="none" fill="#f4f4f4">
      <g>
        <text style="font: 20px Roboto, sans-serif; white-space: pre;" font-size="20px" font-family="Roboto, sans-serif">
          <tspan x="12" y="34" dominant-baseline="ideographic">Plausible </tspan>
          <tspan x="12" y="58" dominant-baseline="ideographic">Alternative </tspan>
          <tspan x="12" y="82" dominant-baseline="ideographic">Theories</tspan>
        </text>
      </g>
    </g>
  </g>
  <g id="g-root-tx_naturalp_1usenfv1b8f9ji-stroke-fill" data-item-order="0" transform="translate(422, 98)">
    <g id="tx_naturalp_1usenfv1b8f9ji-fill" stroke="none" fill="#f4f4f4">
      <g>
        <text style="font: 20px Roboto, sans-serif; white-space: pre;" font-size="20px" font-family="Roboto, sans-serif">
          <tspan x="12" y="34" dominant-baseline="ideographic">Natural </tspan>
          <tspan x="12" y="58" dominant-baseline="ideographic">Phenomena </tspan>
          <tspan x="12" y="82" dominant-baseline="ideographic">Explanation</tspan>
        </text>
      </g>
    </g>
  </g>
  <g id="g-root-tx_gillscre_1qcl5bf1b8fabr-stroke-fill" data-item-order="0" transform="translate(68, 302)">
    <g id="tx_gillscre_1qcl5bf1b8fabr-fill" stroke="none" fill="#f4f4f4">
      <g>
        <text style="font: 20px Roboto, sans-serif; white-space: pre;" font-size="20px" font-family="Roboto, sans-serif">
          <tspan x="14.8" y="34" dominant-baseline="ideographic">Gill's Credibility</tspan>
        </text>
      </g>
    </g>
  </g>
  <g id="g-root-tx_skeptica_1lwrn6z1b8fb40-stroke-fill" data-item-order="0" transform="translate(404, 338)">
    <g id="tx_skeptica_1lwrn6z1b8fb40-fill" stroke="none" fill="#f4f4f4">
      <g>
        <text style="font: 20px Roboto, sans-serif; white-space: pre;" font-size="20px" font-family="Roboto, sans-serif">
          <tspan x="29.36" y="34" dominant-baseline="ideographic">Skeptical </tspan>
          <tspan x="12.81" y="58" dominant-baseline="ideographic">Explanations</tspan>
        </text>
      </g>
    </g>
  </g>
  <g id="g-root-tx_balancin_1d14my31b8fbwp-stroke-fill" data-item-order="0" transform="translate(56, 398)">
    <g id="tx_balancin_1d14my31b8fbwp-fill" stroke="none" fill="#f4f4f4">
      <g>
        <text style="font: 20px Roboto, sans-serif; white-space: pre;" font-size="20px" font-family="Roboto, sans-serif">
          <tspan x="15.06" y="34" dominant-baseline="ideographic">Balancing Credibility and Skepticism in Gill's UFO Case</tspan>
        </text>
      </g>
    </g>
    <defs>
      <pattern id="crawlingPattern-0000001b" x="0" y="0" width="12" height="12" patternUnits="userSpaceOnUse" fill="#0000001b">
        <use href="#crawlingSymbol"/>
      </pattern>
      <symbol id="crawlingSymbol">
        <g>
          <path d="M -12.5 12.5 l 13 -13 l 6 0 l -13 13 Z M -0.5 12.5 l 13 -13 l 6 0 l -13 13 Z M 11.5 12.5 l 13 -13 l 6 0 l -13 13 Z"/>
        </g>
      </symbol>
    </defs>
  </g>
</svg>
