<svg width="744" height="768" viewBox="0 0 744 768" style="fill:none;stroke:none;fill-rule:evenodd;clip-rule:evenodd;stroke-linecap:round;stroke-linejoin:round;stroke-miterlimit:1.5;" version="1.1" xmlns="http://www.w3.org/2000/svg" xmlns:xlink="http://www.w3.org/1999/xlink"><style class="text-font-style fontImports" data-font-family="Roboto">@import url('https://fonts.googleapis.com/css2?family=Roboto:wght@400;700&amp;display=block');</style><g id="g-root-tf_1lr5q2319klzbi-stroke-fill" data-item-order="-535680" transform="translate(12, 12)"><g id="tf_1lr5q2319klzbi-fill" stroke="none" fill="#2c2c2c"><g><path d="M 0 0L 720 0L 720 744L 0 744Z"></path></g></g><defs><pattern id="crawlingPattern-f576002d" x="0" y="0" width="12" height="12" patternUnits="userSpaceOnUse" fill="#f576002d"><use href="#crawlingSymbol"></use></pattern><symbol id="crawlingSymbol"><g><animateTransform attributeName="transform" type="translate" from="0 0" to="-12 0" dur="0.4s" repeatCount="indefinite"></animateTransform><path d="M -12.5 12.5 l 13 -13 l 6 0 l -13 13 Z M -0.5 12.5 l 13 -13 l 6 0 l -13 13 Z M 11.5 12.5 l 13 -13 l 6 0 l -13 13 Z"></path></g></symbol><pattern id="crawlingPattern-ffe50099" x="0" y="0" width="12" height="12" patternUnits="userSpaceOnUse" fill="#ffe50099"><use href="#crawlingSymbol"></use></pattern><pattern id="crawlingPattern-8ed00028" x="0" y="0" width="12" height="12" patternUnits="userSpaceOnUse" fill="#8ed00028"><use href="#crawlingSymbol"></use></pattern><pattern id="crawlingPattern-00d16d21" x="0" y="0" width="12" height="12" patternUnits="userSpaceOnUse" fill="#00d16d21"><use href="#crawlingSymbol"></use></pattern><pattern id="crawlingPattern-00bcfb62" x="0" y="0" width="12" height="12" patternUnits="userSpaceOnUse" fill="#00bcfb62"><use href="#crawlingSymbol"></use></pattern><pattern id="crawlingPattern-0060fb20" x="0" y="0" width="12" height="12" patternUnits="userSpaceOnUse" fill="#0060fb20"><use href="#crawlingSymbol"></use></pattern><pattern id="crawlingPattern-0000001b" x="0" y="0" width="12" height="12" patternUnits="userSpaceOnUse" fill="#0000001b"><use href="#crawlingSymbol"></use></pattern><pattern id="crawlingPattern-ff7b003a" x="0" y="0" width="12" height="12" patternUnits="userSpaceOnUse" fill="#ff7b003a"><use href="#crawlingSymbol"></use></pattern><pattern id="crawlingPattern-ffe7003d" x="0" y="0" width="12" height="12" patternUnits="userSpaceOnUse" fill="#ffe7003d"><use href="#crawlingSymbol"></use></pattern><pattern id="crawlingPattern-acff003c" x="0" y="0" width="12" height="12" patternUnits="userSpaceOnUse" fill="#acff003c"><use href="#crawlingSymbol"></use></pattern><pattern id="crawlingPattern-00ff873a" x="0" y="0" width="12" height="12" patternUnits="userSpaceOnUse" fill="#00ff873a"><use href="#crawlingSymbol"></use></pattern><pattern id="crawlingPattern-00baff39" x="0" y="0" width="12" height="12" patternUnits="userSpaceOnUse" fill="#00baff39"><use href="#crawlingSymbol"></use></pattern><pattern id="crawlingPattern-0059ff37" x="0" y="0" width="12" height="12" patternUnits="userSpaceOnUse" fill="#0059ff37"><use href="#crawlingSymbol"></use></pattern><pattern id="crawlingPattern-f17400d3" x="0" y="0" width="12" height="12" patternUnits="userSpaceOnUse" fill="#f17400d3"><use href="#crawlingSymbol"></use></pattern><pattern id="crawlingPattern-ddc700ff" x="0" y="0" width="12" height="12" patternUnits="userSpaceOnUse" fill="#ddc700ff"><use href="#crawlingSymbol"></use></pattern><pattern id="crawlingPattern-5c87005e" x="0" y="0" width="12" height="12" patternUnits="userSpaceOnUse" fill="#5c87005e"><use href="#crawlingSymbol"></use></pattern><pattern id="crawlingPattern-00b15c75" x="0" y="0" width="12" height="12" patternUnits="userSpaceOnUse" fill="#00b15c75"><use href="#crawlingSymbol"></use></pattern><pattern id="crawlingPattern-00a3d9d9" x="0" y="0" width="12" height="12" patternUnits="userSpaceOnUse" fill="#00a3d9d9"><use href="#crawlingSymbol"></use></pattern><pattern id="crawlingPattern-0060fba2" x="0" y="0" width="12" height="12" patternUnits="userSpaceOnUse" fill="#0060fba2"><use href="#crawlingSymbol"></use></pattern><pattern id="crawlingPattern-c1c1c11a" x="0" y="0" width="12" height="12" patternUnits="userSpaceOnUse" fill="#c1c1c11a"><use href="#crawlingSymbol"></use></pattern><pattern id="crawlingPattern-5f5f5f1a" x="0" y="0" width="12" height="12" patternUnits="userSpaceOnUse" fill="#5f5f5f1a"><use href="#crawlingSymbol"></use></pattern></defs><g id="tf_1lr5q2319klzbi-fill-overlay" stroke="none" fill="url(#crawlingPattern-5f5f5f1a)"><g><path d="M 0 0L 720 0L 720 744L 0 744Z"></path></g></g></g><g id="g-root-sy_-1_Vector_v7d2qz19k7w23-stroke-fill" data-item-order="-42331" transform="translate(242, 182)"><g id="sy_-1_Vector_v7d2qz19k7w23-stroke" fill="none" stroke-linecap="round" stroke-linejoin="round" stroke-miterlimit="4" stroke="#f4f4f4" stroke-width="2"><g><path d="M 10 418L 10 394M 10 322L 10 298M 10 226L 10 202M 10 130L 10 106M 10 34L 10 10"></path></g></g><g id="sy_-1_Vector_v7d2qz19k7w23-stroke-overlay" fill="none" stroke-linecap="round" stroke-linejoin="round" stroke-miterlimit="4" stroke="#3131311a" stroke-width="2" stroke-dasharray="4,6"><animate attributeName="stroke-dashoffset" values="30;0" dur="1s" repeatCount="indefinite" begin="0"></animate><g><path d="M 10 418L 10 394M 10 322L 10 298M 10 226L 10 202M 10 130L 10 106M 10 34L 10 10"></path></g></g></g><g id="g-root-sy_-1_line_qrjkmj19k7wuc-stroke-fill" data-item-order="-42327" transform="translate(242, 662)"><g id="sy_-1_line_qrjkmj19k7wuc-stroke" fill="none" stroke-linecap="round" stroke-linejoin="round" stroke-miterlimit="4" stroke="#f4f4f4" stroke-width="2"><g><path d="M 10 44L 10 10"></path><path d="M 3.5 38L 10 44.5L 16.5 38" stroke-dasharray="none"></path></g></g><g id="sy_-1_line_qrjkmj19k7wuc-stroke-overlay" fill="none" stroke-linecap="round" stroke-linejoin="round" stroke-miterlimit="4" stroke="#3131311a" stroke-width="2" stroke-dasharray="4,6"><animate attributeName="stroke-dashoffset" values="30;0" dur="1s" repeatCount="indefinite" begin="0"></animate><g><path d="M 10 44L 10 10"></path><path d="M 3.5 38L 10 44.5L 16.5 38" stroke-dasharray="none"></path></g></g></g><g id="g-root-cr_6_cr-big_hvwkdn19k7xn1-stroke-fill" data-item-order="-42324" transform="translate(206, 590)"><g id="cr_6_cr-big_hvwkdn19k7xn1-fill" stroke="none" fill="#f79438"><g><path d="M 10 46C 10 65.882251 26.117749 82 46 82C 65.882251 82 82 65.882251 82 46C 82 26.117749 65.882251 10 46 10C 26.117749 10 10 26.117749 10 46"></path></g></g><g id="cr_6_cr-big_hvwkdn19k7xn1-fill-overlay" stroke="none" fill="url(#crawlingPattern-f576002d)"><g><path d="M 10 46C 10 65.882251 26.117749 82 46 82C 65.882251 82 82 65.882251 82 46C 82 26.117749 65.882251 10 46 10C 26.117749 10 10 26.117749 10 46"></path></g></g><g id="cr_6_cr-big_hvwkdn19k7xn1-stroke" fill="none" stroke-linecap="round" stroke-linejoin="round" stroke-miterlimit="4" stroke="#2c2c2c" stroke-width="2"><g><path d="M 10 46C 10 65.882251 26.117749 82 46 82C 65.882251 82 82 65.882251 82 46C 82 26.117749 65.882251 10 46 10C 26.117749 10 10 26.117749 10 46"></path></g></g><g id="cr_6_cr-big_hvwkdn19k7xn1-stroke-overlay" fill="none" stroke-linecap="round" stroke-linejoin="round" stroke-miterlimit="4" stroke="#ffffff29" stroke-width="2" stroke-dasharray="4,6"><animate attributeName="stroke-dashoffset" values="30;0" dur="1s" repeatCount="indefinite" begin="0"></animate><g><path d="M 10 46C 10 65.882251 26.117749 82 46 82C 65.882251 82 82 65.882251 82 46C 82 26.117749 65.882251 10 46 10C 26.117749 10 10 26.117749 10 46"></path></g></g></g><g id="g-root-cr_5_cr-big_dgpjcb19k7v9i-stroke-fill" data-item-order="-42320" transform="translate(206, 494)"><g id="cr_5_cr-big_dgpjcb19k7v9i-fill" stroke="none" fill="#ffe711"><g><path d="M 10 46C 10 65.882251 26.117749 82 46 82C 65.882251 82 82 65.882251 82 46C 82 26.117749 65.882251 10 46 10C 26.117749 10 10 26.117749 10 46"></path></g></g><g id="cr_5_cr-big_dgpjcb19k7v9i-fill-overlay" stroke="none" fill="url(#crawlingPattern-ffe50099)"><g><path d="M 10 46C 10 65.882251 26.117749 82 46 82C 65.882251 82 82 65.882251 82 46C 82 26.117749 65.882251 10 46 10C 26.117749 10 10 26.117749 10 46"></path></g></g><g id="cr_5_cr-big_dgpjcb19k7v9i-stroke" fill="none" stroke-linecap="round" stroke-linejoin="round" stroke-miterlimit="4" stroke="#2c2c2c" stroke-width="2"><g><path d="M 10 46C 10 65.882251 26.117749 82 46 82C 65.882251 82 82 65.882251 82 46C 82 26.117749 65.882251 10 46 10C 26.117749 10 10 26.117749 10 46"></path></g></g><g id="cr_5_cr-big_dgpjcb19k7v9i-stroke-overlay" fill="none" stroke-linecap="round" stroke-linejoin="round" stroke-miterlimit="4" stroke="#ffffff29" stroke-width="2" stroke-dasharray="4,6"><animate attributeName="stroke-dashoffset" values="30;0" dur="1s" repeatCount="indefinite" begin="0"></animate><g><path d="M 10 46C 10 65.882251 26.117749 82 46 82C 65.882251 82 82 65.882251 82 46C 82 26.117749 65.882251 10 46 10C 26.117749 10 10 26.117749 10 46"></path></g></g></g><g id="g-root-cr_4_cr-big_590yz19k7wuf-stroke-fill" data-item-order="-42316" transform="translate(206, 398)"><g id="cr_4_cr-big_590yz19k7wuf-fill" stroke="none" fill="#a6da37"><g><path d="M 10 46C 10 65.882251 26.117749 82 46 82C 65.882251 82 82 65.882251 82 46C 82 26.117749 65.882251 10 46 10C 26.117749 10 10 26.117749 10 46"></path></g></g><g id="cr_4_cr-big_590yz19k7wuf-fill-overlay" stroke="none" fill="url(#crawlingPattern-8ed00028)"><g><path d="M 10 46C 10 65.882251 26.117749 82 46 82C 65.882251 82 82 65.882251 82 46C 82 26.117749 65.882251 10 46 10C 26.117749 10 10 26.117749 10 46"></path></g></g><g id="cr_4_cr-big_590yz19k7wuf-stroke" fill="none" stroke-linecap="round" stroke-linejoin="round" stroke-miterlimit="4" stroke="#2c2c2c" stroke-width="2"><g><path d="M 10 46C 10 65.882251 26.117749 82 46 82C 65.882251 82 82 65.882251 82 46C 82 26.117749 65.882251 10 46 10C 26.117749 10 10 26.117749 10 46"></path></g></g><g id="cr_4_cr-big_590yz19k7wuf-stroke-overlay" fill="none" stroke-linecap="round" stroke-linejoin="round" stroke-miterlimit="4" stroke="#ffffff29" stroke-width="2" stroke-dasharray="4,6"><animate attributeName="stroke-dashoffset" values="30;0" dur="1s" repeatCount="indefinite" begin="0"></animate><g><path d="M 10 46C 10 65.882251 26.117749 82 46 82C 65.882251 82 82 65.882251 82 46C 82 26.117749 65.882251 10 46 10C 26.117749 10 10 26.117749 10 46"></path></g></g></g><g id="g-root-cr_3_cr-big_1lvj1nv19k7v2g-stroke-fill" data-item-order="-42312" transform="translate(206, 302)"><g id="cr_3_cr-big_1lvj1nv19k7v2g-fill" stroke="none" fill="#43dd93"><g><path d="M 10 46C 10 65.882251 26.117749 82 46 82C 65.882251 82 82 65.882251 82 46C 82 26.117749 65.882251 10 46 10C 26.117749 10 10 26.117749 10 46"></path></g></g><g id="cr_3_cr-big_1lvj1nv19k7v2g-fill-overlay" stroke="none" fill="url(#crawlingPattern-00d16d21)"><g><path d="M 10 46C 10 65.882251 26.117749 82 46 82C 65.882251 82 82 65.882251 82 46C 82 26.117749 65.882251 10 46 10C 26.117749 10 10 26.117749 10 46"></path></g></g><g id="cr_3_cr-big_1lvj1nv19k7v2g-stroke" fill="none" stroke-linecap="round" stroke-linejoin="round" stroke-miterlimit="4" stroke="#2c2c2c" stroke-width="2"><g><path d="M 10 46C 10 65.882251 26.117749 82 46 82C 65.882251 82 82 65.882251 82 46C 82 26.117749 65.882251 10 46 10C 26.117749 10 10 26.117749 10 46"></path></g></g><g id="cr_3_cr-big_1lvj1nv19k7v2g-stroke-overlay" fill="none" stroke-linecap="round" stroke-linejoin="round" stroke-miterlimit="4" stroke="#ffffff29" stroke-width="2" stroke-dasharray="4,6"><animate attributeName="stroke-dashoffset" values="30;0" dur="1s" repeatCount="indefinite" begin="0"></animate><g><path d="M 10 46C 10 65.882251 26.117749 82 46 82C 65.882251 82 82 65.882251 82 46C 82 26.117749 65.882251 10 46 10C 26.117749 10 10 26.117749 10 46"></path></g></g></g><g id="g-root-cr_2_cr-big_1hfpjjf19k7vup-stroke-fill" data-item-order="-42308" transform="translate(206, 206)"><g id="cr_2_cr-big_1hfpjjf19k7vup-fill" stroke="none" fill="#1ac3fb"><g><path d="M 10 46C 10 65.882251 26.117749 82 46 82C 65.882251 82 82 65.882251 82 46C 82 26.117749 65.882251 10 46 10C 26.117749 10 10 26.117749 10 46"></path></g></g><g id="cr_2_cr-big_1hfpjjf19k7vup-fill-overlay" stroke="none" fill="url(#crawlingPattern-00bcfb62)"><g><path d="M 10 46C 10 65.882251 26.117749 82 46 82C 65.882251 82 82 65.882251 82 46C 82 26.117749 65.882251 10 46 10C 26.117749 10 10 26.117749 10 46"></path></g></g><g id="cr_2_cr-big_1hfpjjf19k7vup-stroke" fill="none" stroke-linecap="round" stroke-linejoin="round" stroke-miterlimit="4" stroke="#2c2c2c" stroke-width="2"><g><path d="M 10 46C 10 65.882251 26.117749 82 46 82C 65.882251 82 82 65.882251 82 46C 82 26.117749 65.882251 10 46 10C 26.117749 10 10 26.117749 10 46"></path></g></g><g id="cr_2_cr-big_1hfpjjf19k7vup-stroke-overlay" fill="none" stroke-linecap="round" stroke-linejoin="round" stroke-miterlimit="4" stroke="#ffffff29" stroke-width="2" stroke-dasharray="4,6"><animate attributeName="stroke-dashoffset" values="30;0" dur="1s" repeatCount="indefinite" begin="0"></animate><g><path d="M 10 46C 10 65.882251 26.117749 82 46 82C 65.882251 82 82 65.882251 82 46C 82 26.117749 65.882251 10 46 10C 26.117749 10 10 26.117749 10 46"></path></g></g></g><g id="g-root-cr_1_cr-big_144916319k7xfm-stroke-fill" data-item-order="-42304" transform="translate(206, 110)"><g id="cr_1_cr-big_144916319k7xfm-fill" stroke="none" fill="#4f91fc"><g><path d="M 10 46C 10 65.882251 26.117749 82 46 82C 65.882251 82 82 65.882251 82 46C 82 26.117749 65.882251 10 46 10C 26.117749 10 10 26.117749 10 46"></path></g></g><g id="cr_1_cr-big_144916319k7xfm-fill-overlay" stroke="none" fill="url(#crawlingPattern-0060fb20)"><g><path d="M 10 46C 10 65.882251 26.117749 82 46 82C 65.882251 82 82 65.882251 82 46C 82 26.117749 65.882251 10 46 10C 26.117749 10 10 26.117749 10 46"></path></g></g><g id="cr_1_cr-big_144916319k7xfm-stroke" fill="none" stroke-linecap="round" stroke-linejoin="round" stroke-miterlimit="4" stroke="#2c2c2c" stroke-width="2"><g><path d="M 10 46C 10 65.882251 26.117749 82 46 82C 65.882251 82 82 65.882251 82 46C 82 26.117749 65.882251 10 46 10C 26.117749 10 10 26.117749 10 46"></path></g></g><g id="cr_1_cr-big_144916319k7xfm-stroke-overlay" fill="none" stroke-linecap="round" stroke-linejoin="round" stroke-miterlimit="4" stroke="#ffffff29" stroke-width="2" stroke-dasharray="4,6"><animate attributeName="stroke-dashoffset" values="30;0" dur="1s" repeatCount="indefinite" begin="0"></animate><g><path d="M 10 46C 10 65.882251 26.117749 82 46 82C 65.882251 82 82 65.882251 82 46C 82 26.117749 65.882251 10 46 10C 26.117749 10 10 26.117749 10 46"></path></g></g></g><g id="g-root-ic_helm_zjfqcr19k9c7c-stroke-fill" data-item-order="-2304" transform="translate(218, 602)"><g id="ic_helm_zjfqcr19k9c7c-fill" stroke="none" fill="#f4f4f4"><g><path d="M 42.695999 14.746C 38.998455 14.746 36.000999 17.743454 36.000999 21.441002C 36.000999 25.138546 38.998455 28.136002 42.696003 28.136002C 46.393547 28.136002 49.391003 25.138546 49.391003 21.441002C 49.391003 17.743454 46.393547 14.746 42.696003 14.746ZM 32 21.439999C 32.00135 16.862595 34.915825 12.79362 39.249252 11.319148C 43.58268 9.844675 48.374012 11.291705 51.166843 14.918379C 53.959671 18.545052 54.134624 23.547064 51.602001 27.360001L 56.689999 32.608002C 57.448463 33.402664 57.424023 34.660324 56.635258 35.424919C 55.846497 36.189514 54.588684 36.17482 53.818001 35.391998L 48.804001 30.219999C 45.534977 32.495785 41.272026 32.766136 37.741692 30.921555C 34.211357 29.076975 31.998753 25.42318 32 21.440001ZM 44.487999 58C 45.779999 58 46.641998 57.138 46.641998 55.844002L 46.641998 53.688C 46.641998 52.396 45.782001 51.534 44.486 51.534L 12.158 51.534C 10.864 51.534 10.002 52.394001 10.002 53.689999L 10.002 55.844002C 10 57.139999 10.862 58 12.156 58L 44.487999 58ZM 25.32 34.015999L 25.32 48.5L 31.32 48.5L 31.32 34.015999C 31.32 32.816002 30.52 32.015999 29.32 32.015999L 27.32 32.015999C 26.120001 32.015999 25.32 32.816002 25.32 34.015999ZM 22.32 48.5L 22.32 48.534L 13.83 48.534C 14.016 42.981998 17.41 38.124001 22.321999 35.874001L 22.321999 48.5ZM 42.812 48.534L 34.32 48.534L 34.32 48.5L 34.32 35.874001C 39.23 38.124001 42.624001 42.981998 42.812 48.534Z"></path></g></g><g id="ic_helm_zjfqcr19k9c7c-fill-overlay" stroke="none" fill="url(#crawlingPattern-c1c1c11a)"><g><path d="M 42.695999 14.746C 38.998455 14.746 36.000999 17.743454 36.000999 21.441002C 36.000999 25.138546 38.998455 28.136002 42.696003 28.136002C 46.393547 28.136002 49.391003 25.138546 49.391003 21.441002C 49.391003 17.743454 46.393547 14.746 42.696003 14.746ZM 32 21.439999C 32.00135 16.862595 34.915825 12.79362 39.249252 11.319148C 43.58268 9.844675 48.374012 11.291705 51.166843 14.918379C 53.959671 18.545052 54.134624 23.547064 51.602001 27.360001L 56.689999 32.608002C 57.448463 33.402664 57.424023 34.660324 56.635258 35.424919C 55.846497 36.189514 54.588684 36.17482 53.818001 35.391998L 48.804001 30.219999C 45.534977 32.495785 41.272026 32.766136 37.741692 30.921555C 34.211357 29.076975 31.998753 25.42318 32 21.440001ZM 44.487999 58C 45.779999 58 46.641998 57.138 46.641998 55.844002L 46.641998 53.688C 46.641998 52.396 45.782001 51.534 44.486 51.534L 12.158 51.534C 10.864 51.534 10.002 52.394001 10.002 53.689999L 10.002 55.844002C 10 57.139999 10.862 58 12.156 58L 44.487999 58ZM 25.32 34.015999L 25.32 48.5L 31.32 48.5L 31.32 34.015999C 31.32 32.816002 30.52 32.015999 29.32 32.015999L 27.32 32.015999C 26.120001 32.015999 25.32 32.816002 25.32 34.015999ZM 22.32 48.5L 22.32 48.534L 13.83 48.534C 14.016 42.981998 17.41 38.124001 22.321999 35.874001L 22.321999 48.5ZM 42.812 48.534L 34.32 48.534L 34.32 48.5L 34.32 35.874001C 39.23 38.124001 42.624001 42.981998 42.812 48.534Z"></path></g></g></g><g id="g-root-ic_line_18i741719kap6x-stroke-fill" data-item-order="-2304" transform="translate(218, 506)"><g id="ic_line_18i741719kap6x-fill" stroke="none" fill="#f4f4f4"><g><path d="M 10 34C 10 36.209137 11.790861 38 14 38C 16.209139 38 18 36.209137 18 34C 18 31.790861 16.209139 30 14 30C 11.790861 30 10 31.790861 10 34M 50 34C 50 36.209137 51.790859 38 54 38C 56.209141 38 58 36.209137 58 34C 58 31.790861 56.209141 30 54 30C 51.790859 30 50 31.790861 50 34M 20 34C 20 36.761425 22.238577 39 25 39C 27.761423 39 30 36.761425 30 34C 30 31.238577 27.761423 29 25 29C 22.238577 29 20 31.238577 20 34M 32 34C 32 38.418278 35.581722 42 40 42C 44.418278 42 48 38.418278 48 34C 48 29.581722 44.418278 26 40 26C 35.581722 26 32 29.581722 32 34"></path></g></g><g id="ic_line_18i741719kap6x-fill-overlay" stroke="none" fill="url(#crawlingPattern-c1c1c11a)"><g><path d="M 10 34C 10 36.209137 11.790861 38 14 38C 16.209139 38 18 36.209137 18 34C 18 31.790861 16.209139 30 14 30C 11.790861 30 10 31.790861 10 34M 50 34C 50 36.209137 51.790859 38 54 38C 56.209141 38 58 36.209137 58 34C 58 31.790861 56.209141 30 54 30C 51.790859 30 50 31.790861 50 34M 20 34C 20 36.761425 22.238577 39 25 39C 27.761423 39 30 36.761425 30 34C 30 31.238577 27.761423 29 25 29C 22.238577 29 20 31.238577 20 34M 32 34C 32 38.418278 35.581722 42 40 42C 44.418278 42 48 38.418278 48 34C 48 29.581722 44.418278 26 40 26C 35.581722 26 32 29.581722 32 34"></path></g></g></g><g id="g-root-ic_nigh_qvww8b19kc4ci-stroke-fill" data-item-order="-2304" transform="translate(218, 410)"><g id="ic_nigh_qvww8b19kc4ci-fill" stroke="none" fill="#f4f4f4"><g><path d="M 31.667999 10.75C 29.029526 10.740386 26.496372 11.784399 24.630863 13.650282C 22.765358 15.516164 21.721855 18.049528 21.731998 20.688C 21.722389 23.326126 22.766129 25.858973 24.631577 27.724422C 26.497025 29.58987 29.029873 30.63361 31.667999 30.623999C 33.648003 30.624001 35.503998 30 37.094002 28.99C 37.488503 28.74157 37.658997 28.25349 37.504982 27.813456C 37.350967 27.373421 36.913322 27.098192 36.450001 27.15C 34.680347 27.33898 32.913994 26.765049 31.593405 25.571972C 30.272812 24.378899 29.523077 22.679695 29.532001 20.900002C 29.525045 19.231625 30.185003 17.629629 31.365108 16.450275C 32.545216 15.27092 34.147629 14.611982 35.816002 14.620001C 36.309998 14.62 36.785999 14.672 37.236 14.77C 37.686935 14.868372 38.146614 14.645353 38.34845 14.230286C 38.550285 13.815219 38.441837 13.315937 38.085999 13.022C 36.277252 11.539095 34.006882 10.735375 31.668001 10.75ZM 24.248001 41.812C 24.248859 45.160557 21.534557 47.875553 18.186001 47.875553C 14.837442 47.875553 12.12314 45.160557 12.124 41.811996C 12.124859 38.464653 14.838657 35.751553 18.186001 35.751553C 21.533342 35.751553 24.247139 38.464653 24.247999 41.811996ZM 40.174 41.812C 40.174858 45.160557 37.460556 47.875553 34.112 47.875553C 30.763441 47.875553 28.049139 45.160557 28.049999 41.811996C 28.050858 38.464653 30.764656 35.751553 34.112 35.751553C 37.459343 35.751553 40.173141 38.464653 40.173996 41.811996ZM 50.037998 47.874001C 53.386555 47.874855 56.101551 45.160557 56.101551 41.811996C 56.101551 38.46344 53.386555 35.749138 50.037998 35.75C 46.690655 35.750854 43.977554 38.464653 43.977554 41.811996C 43.977554 45.15934 46.690655 47.873138 50.037998 47.873997ZM 18.186001 50.040001C 13.787471 50.036686 10.219998 53.601471 10.22 58L 58 58C 58.001106 53.602253 54.435749 50.036896 50.038002 50.038002C 45.640251 50.035789 42.074001 53.60025 42.074001 57.998001C 42.074001 53.601032 38.508968 50.036896 34.112 50.038002C 29.71347 50.035789 26.146894 53.601471 26.148001 58C 26.149105 53.602253 22.583748 50.036896 18.186001 50.038002ZM 44.34 19.209999C 44.754112 18.492039 44.507847 17.574314 43.789925 17.16013C 43.072006 16.745947 42.154259 16.992123 41.740002 17.709999L 41.220001 18.610001L 40.419998 17.630001C 40.084904 17.204205 39.546219 16.992226 39.010807 17.07547C 38.475395 17.158714 38.026497 17.52424 37.836498 18.031677C 37.6465 18.539116 37.744934 19.109579 38.094002 19.524L 39.021999 20.664L 37.517998 21.32C 36.75861 21.651371 36.411629 22.53561 36.743004 23.295002C 37.074371 24.054394 37.958611 24.401371 38.718002 24.07L 40.167999 23.436001L 40.344002 25.006001C 40.459564 25.807289 41.190125 26.372301 41.994728 26.282661C 42.799328 26.193022 43.387627 25.481075 43.324001 24.674L 43.144001 23.042L 44.591999 23.274C 45.129574 23.379229 45.681763 23.183052 46.032455 22.762249C 46.383144 22.341446 46.476566 21.762939 46.276154 21.253143C 46.075745 20.743343 45.613373 20.383331 45.07 20.313999L 43.82 20.112L 44.34 19.209999Z"></path></g></g><g id="ic_nigh_qvww8b19kc4ci-fill-overlay" stroke="none" fill="url(#crawlingPattern-c1c1c11a)"><g><path d="M 31.667999 10.75C 29.029526 10.740386 26.496372 11.784399 24.630863 13.650282C 22.765358 15.516164 21.721855 18.049528 21.731998 20.688C 21.722389 23.326126 22.766129 25.858973 24.631577 27.724422C 26.497025 29.58987 29.029873 30.63361 31.667999 30.623999C 33.648003 30.624001 35.503998 30 37.094002 28.99C 37.488503 28.74157 37.658997 28.25349 37.504982 27.813456C 37.350967 27.373421 36.913322 27.098192 36.450001 27.15C 34.680347 27.33898 32.913994 26.765049 31.593405 25.571972C 30.272812 24.378899 29.523077 22.679695 29.532001 20.900002C 29.525045 19.231625 30.185003 17.629629 31.365108 16.450275C 32.545216 15.27092 34.147629 14.611982 35.816002 14.620001C 36.309998 14.62 36.785999 14.672 37.236 14.77C 37.686935 14.868372 38.146614 14.645353 38.34845 14.230286C 38.550285 13.815219 38.441837 13.315937 38.085999 13.022C 36.277252 11.539095 34.006882 10.735375 31.668001 10.75ZM 24.248001 41.812C 24.248859 45.160557 21.534557 47.875553 18.186001 47.875553C 14.837442 47.875553 12.12314 45.160557 12.124 41.811996C 12.124859 38.464653 14.838657 35.751553 18.186001 35.751553C 21.533342 35.751553 24.247139 38.464653 24.247999 41.811996ZM 40.174 41.812C 40.174858 45.160557 37.460556 47.875553 34.112 47.875553C 30.763441 47.875553 28.049139 45.160557 28.049999 41.811996C 28.050858 38.464653 30.764656 35.751553 34.112 35.751553C 37.459343 35.751553 40.173141 38.464653 40.173996 41.811996ZM 50.037998 47.874001C 53.386555 47.874855 56.101551 45.160557 56.101551 41.811996C 56.101551 38.46344 53.386555 35.749138 50.037998 35.75C 46.690655 35.750854 43.977554 38.464653 43.977554 41.811996C 43.977554 45.15934 46.690655 47.873138 50.037998 47.873997ZM 18.186001 50.040001C 13.787471 50.036686 10.219998 53.601471 10.22 58L 58 58C 58.001106 53.602253 54.435749 50.036896 50.038002 50.038002C 45.640251 50.035789 42.074001 53.60025 42.074001 57.998001C 42.074001 53.601032 38.508968 50.036896 34.112 50.038002C 29.71347 50.035789 26.146894 53.601471 26.148001 58C 26.149105 53.602253 22.583748 50.036896 18.186001 50.038002ZM 44.34 19.209999C 44.754112 18.492039 44.507847 17.574314 43.789925 17.16013C 43.072006 16.745947 42.154259 16.992123 41.740002 17.709999L 41.220001 18.610001L 40.419998 17.630001C 40.084904 17.204205 39.546219 16.992226 39.010807 17.07547C 38.475395 17.158714 38.026497 17.52424 37.836498 18.031677C 37.6465 18.539116 37.744934 19.109579 38.094002 19.524L 39.021999 20.664L 37.517998 21.32C 36.75861 21.651371 36.411629 22.53561 36.743004 23.295002C 37.074371 24.054394 37.958611 24.401371 38.718002 24.07L 40.167999 23.436001L 40.344002 25.006001C 40.459564 25.807289 41.190125 26.372301 41.994728 26.282661C 42.799328 26.193022 43.387627 25.481075 43.324001 24.674L 43.144001 23.042L 44.591999 23.274C 45.129574 23.379229 45.681763 23.183052 46.032455 22.762249C 46.383144 22.341446 46.476566 21.762939 46.276154 21.253143C 46.075745 20.743343 45.613373 20.383331 45.07 20.313999L 43.82 20.112L 44.34 19.209999Z"></path></g></g></g><g id="g-root-ic_ligh_1uo1oh719kexab-stroke-fill" data-item-order="-2304" transform="translate(218, 314)"><g id="ic_ligh_1uo1oh719kexab-fill" stroke="none" fill="#f4f4f4"><g><path d="M 31 20L 31 21C 31 23.761425 33.238579 26 36 26C 38.761425 26 41 23.761425 41 21L 41 20ZM 42 18C 42.552284 18 43 17.552284 43 17C 43 13.134007 39.865993 10 36 10C 32.13401 10 29.000002 13.134007 29.000002 17C 29 17.552284 29.447716 18 30 18ZM 10 10M 16.5 33.139999L 24.360001 25.459999C 24.936703 24.914024 25.262365 24.154148 25.26 23.360001C 25.279766 22.562626 24.976892 21.791023 24.42 21.220001L 23.02 19.799999C 22.460133 19.233257 21.696651 18.914278 20.900002 18.914278C 20.103352 18.914278 19.339869 19.233257 18.780001 19.799999L 10.9 27.42C 9.730186 28.59127 9.730186 30.488731 10.9 31.66L 12.28 33.099998C 12.841276 33.666435 13.602644 33.989658 14.4 34C 15.186026 34.001511 15.940815 33.692406 16.5 33.139999ZM 42.759998 40.18C 43.086792 39.44072 43.103596 38.601288 42.806648 37.849525C 42.509701 37.097755 41.92379 36.496399 41.18 36.18L 36.379997 34.18C 35.679577 33.878723 35.121277 33.320427 34.82 32.620003L 32.82 27.82C 32.419033 26.880087 31.567209 26.20891 30.559576 26.038948C 29.551941 25.868986 28.52709 26.223614 27.84 26.980001L 17.84 37.98C 17.333738 38.522346 17.054594 39.238106 17.060001 39.980003L 17.059999 46.380001C 17.057823 46.906071 16.920057 47.422699 16.66 47.880001L 13.4 53.52C 12.772381 54.453743 12.719958 55.660156 13.264217 56.644817C 13.808477 57.629482 14.857916 58.226856 15.98245 58.19212C 17.106983 58.157383 18.11755 57.49638 18.6 56.48L 21.82 50.880001C 22.586573 49.510773 22.992615 47.969193 23 46.400002L 23 45.18L 25.66 46.720001C 26.500057 47.273697 27.004004 48.213894 27 49.220001L 27 55C 27 56.656857 28.343147 58 30 58C 31.656855 58 33 56.656857 33 55L 33 49.220001C 32.988628 46.140965 31.414249 43.278458 28.820002 41.620003L 25.26 39.620003C 25.135002 39.536999 25.04854 39.407307 25.02 39.260002C 24.996408 39.109169 25.040287 38.955597 25.139999 38.839996L 28.559999 35.080002C 28.663763 34.946587 28.834776 34.884399 29 34.919998C 29.164047 34.932476 29.308943 35.031616 29.379999 35.18C 30.284153 37.222843 31.937864 38.840759 34 39.700001L 38.799999 41.700001C 40.31356 42.361588 42.077827 41.684395 42.759998 40.18ZM 10 10M 49.380001 17.200001L 56.82 13.82C 57.754833 13.327366 58.14513 12.192506 57.711063 11.229082C 57.276993 10.265658 56.16835 9.806145 55.18 10.18L 47.720001 13.559999C 46.715084 14.018538 46.272053 15.204817 46.730381 16.209827C 47.188709 17.214836 48.374893 17.658119 49.379997 17.200001ZM 10 10M 56.82 24.18L 49.299999 20.76C 48.641804 20.413147 47.84547 20.460318 47.232826 20.88245C 46.620178 21.304581 46.292488 22.031895 46.382179 22.770466C 46.471874 23.509037 46.964123 24.136776 47.66 24.4L 55.18 27.82C 56.16835 28.193855 57.276993 27.734343 57.711063 26.770918C 58.14513 25.807495 57.754833 24.672634 56.82 24.18Z"></path></g></g><g id="ic_ligh_1uo1oh719kexab-fill-overlay" stroke="none" fill="url(#crawlingPattern-c1c1c11a)"><g><path d="M 31 20L 31 21C 31 23.761425 33.238579 26 36 26C 38.761425 26 41 23.761425 41 21L 41 20ZM 42 18C 42.552284 18 43 17.552284 43 17C 43 13.134007 39.865993 10 36 10C 32.13401 10 29.000002 13.134007 29.000002 17C 29 17.552284 29.447716 18 30 18ZM 10 10M 16.5 33.139999L 24.360001 25.459999C 24.936703 24.914024 25.262365 24.154148 25.26 23.360001C 25.279766 22.562626 24.976892 21.791023 24.42 21.220001L 23.02 19.799999C 22.460133 19.233257 21.696651 18.914278 20.900002 18.914278C 20.103352 18.914278 19.339869 19.233257 18.780001 19.799999L 10.9 27.42C 9.730186 28.59127 9.730186 30.488731 10.9 31.66L 12.28 33.099998C 12.841276 33.666435 13.602644 33.989658 14.4 34C 15.186026 34.001511 15.940815 33.692406 16.5 33.139999ZM 42.759998 40.18C 43.086792 39.44072 43.103596 38.601288 42.806648 37.849525C 42.509701 37.097755 41.92379 36.496399 41.18 36.18L 36.379997 34.18C 35.679577 33.878723 35.121277 33.320427 34.82 32.620003L 32.82 27.82C 32.419033 26.880087 31.567209 26.20891 30.559576 26.038948C 29.551941 25.868986 28.52709 26.223614 27.84 26.980001L 17.84 37.98C 17.333738 38.522346 17.054594 39.238106 17.060001 39.980003L 17.059999 46.380001C 17.057823 46.906071 16.920057 47.422699 16.66 47.880001L 13.4 53.52C 12.772381 54.453743 12.719958 55.660156 13.264217 56.644817C 13.808477 57.629482 14.857916 58.226856 15.98245 58.19212C 17.106983 58.157383 18.11755 57.49638 18.6 56.48L 21.82 50.880001C 22.586573 49.510773 22.992615 47.969193 23 46.400002L 23 45.18L 25.66 46.720001C 26.500057 47.273697 27.004004 48.213894 27 49.220001L 27 55C 27 56.656857 28.343147 58 30 58C 31.656855 58 33 56.656857 33 55L 33 49.220001C 32.988628 46.140965 31.414249 43.278458 28.820002 41.620003L 25.26 39.620003C 25.135002 39.536999 25.04854 39.407307 25.02 39.260002C 24.996408 39.109169 25.040287 38.955597 25.139999 38.839996L 28.559999 35.080002C 28.663763 34.946587 28.834776 34.884399 29 34.919998C 29.164047 34.932476 29.308943 35.031616 29.379999 35.18C 30.284153 37.222843 31.937864 38.840759 34 39.700001L 38.799999 41.700001C 40.31356 42.361588 42.077827 41.684395 42.759998 40.18ZM 10 10M 49.380001 17.200001L 56.82 13.82C 57.754833 13.327366 58.14513 12.192506 57.711063 11.229082C 57.276993 10.265658 56.16835 9.806145 55.18 10.18L 47.720001 13.559999C 46.715084 14.018538 46.272053 15.204817 46.730381 16.209827C 47.188709 17.214836 48.374893 17.658119 49.379997 17.200001ZM 10 10M 56.82 24.18L 49.299999 20.76C 48.641804 20.413147 47.84547 20.460318 47.232826 20.88245C 46.620178 21.304581 46.292488 22.031895 46.382179 22.770466C 46.471874 23.509037 46.964123 24.136776 47.66 24.4L 55.18 27.82C 56.16835 28.193855 57.276993 27.734343 57.711063 26.770918C 58.14513 25.807495 57.754833 24.672634 56.82 24.18Z"></path></g></g></g><g id="g-root-ic_ufo_vccvfv19kgd1g-stroke-fill" data-item-order="-2304" transform="translate(218, 218)"><g id="ic_ufo_vccvfv19kgd1g-fill" stroke="none" fill="#f4f4f4"><g><path d="M 50.779999 39.48C 50.49268 38.408726 49.391396 37.77314 48.32008 38.060295C 47.24876 38.34745 46.613007 39.448639 46.899998 40.519997L 51.139999 56.52C 51.30584 57.231823 51.846767 57.796497 52.550816 57.992748C 53.25486 58.188999 54.009895 57.985573 54.520046 57.462177C 55.030201 56.938786 55.214222 56.178791 55 55.48ZM 19.82 38C 18.754391 37.720551 17.663445 38.355446 17.380001 39.419998L 13.14 55.419998C 12.925778 56.11879 13.109798 56.878784 13.619952 57.40218C 14.130106 57.925571 14.885139 58.129002 15.589186 57.932751C 16.293234 57.7365 16.83416 57.171825 17 56.459999L 21.24 40.459999C 21.380281 39.945396 21.309196 39.39608 21.042547 38.934139C 20.775898 38.472198 20.335775 38.135902 19.82 38ZM 38 49.860001C 39.203453 49.748383 40.123898 48.738621 40.123898 47.529999C 40.123898 46.321381 39.203453 45.311615 38 45.200001L 31.08 45.200001C 29.876545 45.311615 28.9561 46.321381 28.9561 47.529999C 28.9561 48.738621 29.876545 49.748383 31.08 49.860001L 32.239998 49.860001L 32.239998 50.18L 29.200001 54.299999C 28.437847 55.332775 28.657228 56.787849 29.690001 57.550003C 30.722773 58.312153 32.177849 58.092773 32.940002 57.060001L 34.599998 54.82L 36.200001 57.080002C 36.978722 58.129345 38.460663 58.348724 39.510002 57.570004C 40.559341 56.791279 40.778725 55.309341 40 54.260002L 37 50.16L 37 49.860001ZM 38 40.239998C 38.008102 38.822594 37.160507 37.540237 35.85331 36.992199C 34.546112 36.44416 33.03743 36.738647 32.032288 37.738045C 31.027142 38.73745 30.724012 40.244415 31.264553 41.554733C 31.805094 42.865051 33.082569 43.719978 34.5 43.720001C 35.426414 43.725323 36.316711 43.361034 36.973671 42.707829C 37.63063 42.054626 38.000015 41.166428 38 40.239998ZM 56.959999 29C 57.256584 29.003077 57.540375 28.879374 57.739998 28.659998C 57.943413 28.447105 58.032631 28.149708 57.98 27.860001C 57.289928 23.844007 53.774273 20.931278 49.700001 21L 18.299999 21C 14.218212 20.921293 10.691198 23.836391 10 27.860001C 9.947369 28.149708 10.036588 28.447105 10.24 28.66C 10.439621 28.879374 10.723413 29.003077 11.02 28.999998L 13.28 29C 13.484316 29.002653 13.666457 29.12936 13.74 29.32C 13.899547 29.722376 14.079787 30.116236 14.280001 30.500002C 16.065369 33.888172 19.580214 36.009026 23.41 36.009026C 27.239786 36.009026 30.754631 33.888172 32.540001 30.5C 32.740211 30.116236 32.920456 29.722376 33.080002 29.320002C 33.148697 29.125612 33.333855 28.996807 33.540001 28.999998L 34.459999 29C 34.666145 28.996807 34.851299 29.125612 34.919998 29.32C 35.079548 29.722376 35.259789 30.116236 35.459999 30.500002C 37.245369 33.888172 40.760216 36.009026 44.59 36.009026C 48.419785 36.009026 51.934631 33.888172 53.720001 30.5C 53.920216 30.116236 54.100456 29.722376 54.260002 29.320002C 54.328697 29.125612 54.513851 28.996807 54.719997 28.999998ZM 23.4 32C 21.569786 31.983295 19.832561 31.191006 18.619999 29.82C 18.522778 29.660299 18.522778 29.4597 18.619999 29.299999C 18.686577 29.141253 18.830135 29.027918 19 29L 27.799999 29C 27.999443 28.999306 28.180223 29.117207 28.26 29.299999C 28.367369 29.456707 28.367369 29.663294 28.26 29.82C 27.033712 31.218311 25.259802 32.014015 23.400002 32ZM 44.599998 32C 42.768101 31.990932 41.027901 31.197287 39.82 29.82C 39.712631 29.663294 39.712631 29.456707 39.82 29.299999C 39.899776 29.117207 40.080559 28.999306 40.279999 29L 49.080002 29C 49.272152 29.007078 49.443218 29.123714 49.52 29.299999C 49.627369 29.456707 49.627369 29.663294 49.52 29.82C 48.280025 31.234344 46.480667 32.031624 44.600002 32ZM 34 10C 28.477455 9.948547 23.296272 12.666791 20.200001 17.24C 20.121464 17.397415 20.121464 17.582584 20.200001 17.74C 20.291019 17.897736 20.457924 17.996361 20.639999 18L 47.5 18C 47.703251 18.01899 47.898815 17.917297 47.999996 17.74C 48.078533 17.582584 48.078533 17.397415 48 17.24C 44.864662 12.606876 39.593025 9.880686 34 10Z"></path></g></g><g id="ic_ufo_vccvfv19kgd1g-fill-overlay" stroke="none" fill="url(#crawlingPattern-c1c1c11a)"><g><path d="M 50.779999 39.48C 50.49268 38.408726 49.391396 37.77314 48.32008 38.060295C 47.24876 38.34745 46.613007 39.448639 46.899998 40.519997L 51.139999 56.52C 51.30584 57.231823 51.846767 57.796497 52.550816 57.992748C 53.25486 58.188999 54.009895 57.985573 54.520046 57.462177C 55.030201 56.938786 55.214222 56.178791 55 55.48ZM 19.82 38C 18.754391 37.720551 17.663445 38.355446 17.380001 39.419998L 13.14 55.419998C 12.925778 56.11879 13.109798 56.878784 13.619952 57.40218C 14.130106 57.925571 14.885139 58.129002 15.589186 57.932751C 16.293234 57.7365 16.83416 57.171825 17 56.459999L 21.24 40.459999C 21.380281 39.945396 21.309196 39.39608 21.042547 38.934139C 20.775898 38.472198 20.335775 38.135902 19.82 38ZM 38 49.860001C 39.203453 49.748383 40.123898 48.738621 40.123898 47.529999C 40.123898 46.321381 39.203453 45.311615 38 45.200001L 31.08 45.200001C 29.876545 45.311615 28.9561 46.321381 28.9561 47.529999C 28.9561 48.738621 29.876545 49.748383 31.08 49.860001L 32.239998 49.860001L 32.239998 50.18L 29.200001 54.299999C 28.437847 55.332775 28.657228 56.787849 29.690001 57.550003C 30.722773 58.312153 32.177849 58.092773 32.940002 57.060001L 34.599998 54.82L 36.200001 57.080002C 36.978722 58.129345 38.460663 58.348724 39.510002 57.570004C 40.559341 56.791279 40.778725 55.309341 40 54.260002L 37 50.16L 37 49.860001ZM 38 40.239998C 38.008102 38.822594 37.160507 37.540237 35.85331 36.992199C 34.546112 36.44416 33.03743 36.738647 32.032288 37.738045C 31.027142 38.73745 30.724012 40.244415 31.264553 41.554733C 31.805094 42.865051 33.082569 43.719978 34.5 43.720001C 35.426414 43.725323 36.316711 43.361034 36.973671 42.707829C 37.63063 42.054626 38.000015 41.166428 38 40.239998ZM 56.959999 29C 57.256584 29.003077 57.540375 28.879374 57.739998 28.659998C 57.943413 28.447105 58.032631 28.149708 57.98 27.860001C 57.289928 23.844007 53.774273 20.931278 49.700001 21L 18.299999 21C 14.218212 20.921293 10.691198 23.836391 10 27.860001C 9.947369 28.149708 10.036588 28.447105 10.24 28.66C 10.439621 28.879374 10.723413 29.003077 11.02 28.999998L 13.28 29C 13.484316 29.002653 13.666457 29.12936 13.74 29.32C 13.899547 29.722376 14.079787 30.116236 14.280001 30.500002C 16.065369 33.888172 19.580214 36.009026 23.41 36.009026C 27.239786 36.009026 30.754631 33.888172 32.540001 30.5C 32.740211 30.116236 32.920456 29.722376 33.080002 29.320002C 33.148697 29.125612 33.333855 28.996807 33.540001 28.999998L 34.459999 29C 34.666145 28.996807 34.851299 29.125612 34.919998 29.32C 35.079548 29.722376 35.259789 30.116236 35.459999 30.500002C 37.245369 33.888172 40.760216 36.009026 44.59 36.009026C 48.419785 36.009026 51.934631 33.888172 53.720001 30.5C 53.920216 30.116236 54.100456 29.722376 54.260002 29.320002C 54.328697 29.125612 54.513851 28.996807 54.719997 28.999998ZM 23.4 32C 21.569786 31.983295 19.832561 31.191006 18.619999 29.82C 18.522778 29.660299 18.522778 29.4597 18.619999 29.299999C 18.686577 29.141253 18.830135 29.027918 19 29L 27.799999 29C 27.999443 28.999306 28.180223 29.117207 28.26 29.299999C 28.367369 29.456707 28.367369 29.663294 28.26 29.82C 27.033712 31.218311 25.259802 32.014015 23.400002 32ZM 44.599998 32C 42.768101 31.990932 41.027901 31.197287 39.82 29.82C 39.712631 29.663294 39.712631 29.456707 39.82 29.299999C 39.899776 29.117207 40.080559 28.999306 40.279999 29L 49.080002 29C 49.272152 29.007078 49.443218 29.123714 49.52 29.299999C 49.627369 29.456707 49.627369 29.663294 49.52 29.82C 48.280025 31.234344 46.480667 32.031624 44.600002 32ZM 34 10C 28.477455 9.948547 23.296272 12.666791 20.200001 17.24C 20.121464 17.397415 20.121464 17.582584 20.200001 17.74C 20.291019 17.897736 20.457924 17.996361 20.639999 18L 47.5 18C 47.703251 18.01899 47.898815 17.917297 47.999996 17.74C 48.078533 17.582584 48.078533 17.397415 48 17.24C 44.864662 12.606876 39.593025 9.880686 34 10Z"></path></g></g></g><g id="g-root-ic_1_hvwkdn19kj5z9-stroke-fill" data-item-order="-2304" transform="translate(218, 122)"><g id="ic_1_hvwkdn19kj5z9-fill" stroke="none" fill="#f4f4f4"><g><path d="M 27.392 10.04C 28.474897 10.256142 29.17771 11.309016 28.962 12.392L 25.962 27.392C 25.745502 28.475582 24.691582 29.178495 23.608 28.962C 22.524418 28.745504 21.821503 27.691582 22.038 26.608L 25.038 11.608C 25.254108 10.524158 26.308327 9.821049 27.392 10.038ZM 13.82 10.006C 14.348635 9.958248 14.874571 10.122595 15.281963 10.462839C 15.689356 10.803083 15.944789 11.291317 15.992001 11.82L 17.992001 33.82C 18.092102 34.920231 17.281265 35.893265 16.181021 35.993233C 15.080778 36.093208 14.107841 35.282257 14.007999 34.181999L 12.007999 12.182C 11.908523 11.081828 12.719816 10.10935 13.82 10.01ZM 20 58C 25.522846 58 30 53.522846 30 48C 30 42.477154 25.522846 38 20 38C 14.477153 38 10 42.477154 10 48C 10 53.522846 14.477153 58 20 58ZM 33.260002 50.015999C 32.164162 49.872208 31.159285 50.644096 31.015675 51.739956C 30.872065 52.835815 31.644115 53.840565 32.739998 53.983997L 55.740002 56.984001C 56.835835 57.127789 57.84071 56.3559 57.984322 55.26004C 58.127934 54.164181 57.355881 53.159428 56.259998 53.015999L 33.260002 50.015999ZM 50.540001 13.274C 51.212036 12.420759 51.080269 11.18712 50.243179 10.49507C 49.406094 9.803019 48.169678 9.905535 47.458 10.726L 28.458 33.725998C 27.754391 34.577621 27.874378 35.83839 28.726002 36.542C 29.577623 37.245613 30.83839 37.125626 31.542002 36.274002L 50.542 13.274ZM 57.694 24.939999C 58.279423 25.876675 57.994678 27.11058 57.057999 27.695999L 41.057999 37.695999C 40.121346 38.281113 38.887718 37.996277 38.302391 37.059753C 37.717064 36.123234 38.00161 34.889542 38.938 34.304001L 54.938 24.304001C 55.874676 23.718575 57.108578 24.003323 57.694 24.939999ZM 37 43C 35.895432 43 35 43.895432 35 45C 35 46.104568 35.895432 47 37 47L 53 47C 54.104568 47 55 46.104568 55 45C 55 43.895432 54.104568 43 53 43L 37 43Z"></path></g></g><g id="ic_1_hvwkdn19kj5z9-fill-overlay" stroke="none" fill="url(#crawlingPattern-c1c1c11a)"><g><path d="M 27.392 10.04C 28.474897 10.256142 29.17771 11.309016 28.962 12.392L 25.962 27.392C 25.745502 28.475582 24.691582 29.178495 23.608 28.962C 22.524418 28.745504 21.821503 27.691582 22.038 26.608L 25.038 11.608C 25.254108 10.524158 26.308327 9.821049 27.392 10.038ZM 13.82 10.006C 14.348635 9.958248 14.874571 10.122595 15.281963 10.462839C 15.689356 10.803083 15.944789 11.291317 15.992001 11.82L 17.992001 33.82C 18.092102 34.920231 17.281265 35.893265 16.181021 35.993233C 15.080778 36.093208 14.107841 35.282257 14.007999 34.181999L 12.007999 12.182C 11.908523 11.081828 12.719816 10.10935 13.82 10.01ZM 20 58C 25.522846 58 30 53.522846 30 48C 30 42.477154 25.522846 38 20 38C 14.477153 38 10 42.477154 10 48C 10 53.522846 14.477153 58 20 58ZM 33.260002 50.015999C 32.164162 49.872208 31.159285 50.644096 31.015675 51.739956C 30.872065 52.835815 31.644115 53.840565 32.739998 53.983997L 55.740002 56.984001C 56.835835 57.127789 57.84071 56.3559 57.984322 55.26004C 58.127934 54.164181 57.355881 53.159428 56.259998 53.015999L 33.260002 50.015999ZM 50.540001 13.274C 51.212036 12.420759 51.080269 11.18712 50.243179 10.49507C 49.406094 9.803019 48.169678 9.905535 47.458 10.726L 28.458 33.725998C 27.754391 34.577621 27.874378 35.83839 28.726002 36.542C 29.577623 37.245613 30.83839 37.125626 31.542002 36.274002L 50.542 13.274ZM 57.694 24.939999C 58.279423 25.876675 57.994678 27.11058 57.057999 27.695999L 41.057999 37.695999C 40.121346 38.281113 38.887718 37.996277 38.302391 37.059753C 37.717064 36.123234 38.00161 34.889542 38.938 34.304001L 54.938 24.304001C 55.874676 23.718575 57.108578 24.003323 57.694 24.939999ZM 37 43C 35.895432 43 35 43.895432 35 45C 35 46.104568 35.895432 47 37 47L 53 47C 54.104568 47 55 46.104568 55 45C 55 43.895432 54.104568 43 53 43L 37 43Z"></path></g></g></g><g id="g-root-tx_thegillu_qtezvv19k7vur-stroke-fill" data-item-order="0" transform="translate(146, 50)"><g id="tx_thegillu_qtezvv19k7vur-fill" stroke="none" fill="#f4f4f4"><g><text style="font: 20px Roboto, sans-serif; white-space: pre;" font-size="20px" font-family="Roboto, sans-serif"><tspan x="13.68" y="34" dominant-baseline="ideographic">The Gill UFO Sightings: A Timeline of Events</tspan></text></g></g><g id="tx_thegillu_qtezvv19k7vur-fill-overlay" stroke="none" fill="url(#crawlingPattern-0000001b)"><g><text style="font: 20px Roboto, sans-serif; white-space: pre;" font-size="20px" font-family="Roboto, sans-serif"><tspan x="13.68" y="34" dominant-baseline="ideographic">The Gill UFO Sightings: A Timeline of Events</tspan></text></g></g></g><g id="g-root-tx_official_4mxycr19k7v2k-stroke-fill" data-item-order="0" transform="translate(302, 602)"><g id="tx_official_4mxycr19k7v2k-fill" stroke="none" fill="#fff0e2"><g><text style="font: 20px Roboto, sans-serif; white-space: pre;" font-size="20px" font-family="Roboto, sans-serif"><tspan x="12" y="34" dominant-baseline="ideographic">Official investigation by the Australian </tspan><tspan x="12" y="58" dominant-baseline="ideographic">government</tspan></text></g></g><g id="tx_official_4mxycr19k7v2k-fill-overlay" stroke="none" fill="url(#crawlingPattern-ff7b003a)"><g><text style="font: 20px Roboto, sans-serif; white-space: pre;" font-size="20px" font-family="Roboto, sans-serif"><tspan x="12" y="34" dominant-baseline="ideographic">Official investigation by the Australian </tspan><tspan x="12" y="58" dominant-baseline="ideographic">government</tspan></text></g></g></g><g id="g-root-tx_continue_1qclhyj19k7wgd-stroke-fill" data-item-order="0" transform="translate(302, 506)"><g id="tx_continue_1qclhyj19k7wgd-fill" stroke="none" fill="#fffbd5"><g><text style="font: 20px Roboto, sans-serif; white-space: pre;" font-size="20px" font-family="Roboto, sans-serif"><tspan x="12" y="34" dominant-baseline="ideographic">Continued observations, including multiple </tspan><tspan x="12" y="58" dominant-baseline="ideographic">UFOs in formation</tspan></text></g></g><g id="tx_continue_1qclhyj19k7wgd-fill-overlay" stroke="none" fill="url(#crawlingPattern-ffe7003d)"><g><text style="font: 20px Roboto, sans-serif; white-space: pre;" font-size="20px" font-family="Roboto, sans-serif"><tspan x="12" y="34" dominant-baseline="ideographic">Continued observations, including multiple </tspan><tspan x="12" y="58" dominant-baseline="ideographic">UFOs in formation</tspan></text></g></g></g><g id="g-root-tx_similarp_1d1rgob19k7uvi-stroke-fill" data-item-order="0" transform="translate(302, 410)"><g id="tx_similarp_1d1rgob19k7uvi-fill" stroke="none" fill="#f2ffd7"><g><text style="font: 20px Roboto, sans-serif; white-space: pre;" font-size="20px" font-family="Roboto, sans-serif"><tspan x="12" y="34" dominant-baseline="ideographic">Similar phenomena observed, confirming </tspan><tspan x="12" y="58" dominant-baseline="ideographic">the previous night's events</tspan></text></g></g><g id="tx_similarp_1d1rgob19k7uvi-fill-overlay" stroke="none" fill="url(#crawlingPattern-acff003c)"><g><text style="font: 20px Roboto, sans-serif; white-space: pre;" font-size="20px" font-family="Roboto, sans-serif"><tspan x="12" y="34" dominant-baseline="ideographic">Similar phenomena observed, confirming </tspan><tspan x="12" y="58" dominant-baseline="ideographic">the previous night's events</tspan></text></g></g></g><g id="g-root-tx_craftres_zqayaz19k7wgf-stroke-fill" data-item-order="0" transform="translate(302, 314)"><g id="tx_craftres_zqayaz19k7wgf-fill" stroke="none" fill="#dffff0"><g><text style="font: 20px Roboto, sans-serif; white-space: pre;" font-size="20px" font-family="Roboto, sans-serif"><tspan x="12" y="34" dominant-baseline="ideographic">Craft responds to flashlight signals from </tspan><tspan x="12" y="58" dominant-baseline="ideographic">witnesses</tspan></text></g></g><g id="tx_craftres_zqayaz19k7wgf-fill-overlay" stroke="none" fill="url(#crawlingPattern-00ff873a)"><g><text style="font: 20px Roboto, sans-serif; white-space: pre;" font-size="20px" font-family="Roboto, sans-serif"><tspan x="12" y="34" dominant-baseline="ideographic">Craft responds to flashlight signals from </tspan><tspan x="12" y="58" dominant-baseline="ideographic">witnesses</tspan></text></g></g></g><g id="g-root-tx_witnesse_qvaf5719k7uv4-stroke-fill" data-item-order="0" transform="translate(302, 218)"><g id="tx_witnesse_qvaf5719k7uv4-fill" stroke="none" fill="#e5f8ff"><g><text style="font: 20px Roboto, sans-serif; white-space: pre;" font-size="20px" font-family="Roboto, sans-serif"><tspan x="12" y="34" dominant-baseline="ideographic">Witnesses observe a disc-shaped craft with </tspan><tspan x="12" y="58" dominant-baseline="ideographic">humanoid figures</tspan></text></g></g><g id="tx_witnesse_qvaf5719k7uv4-fill-overlay" stroke="none" fill="url(#crawlingPattern-00baff39)"><g><text style="font: 20px Roboto, sans-serif; white-space: pre;" font-size="20px" font-family="Roboto, sans-serif"><tspan x="12" y="34" dominant-baseline="ideographic">Witnesses observe a disc-shaped craft with </tspan><tspan x="12" y="58" dominant-baseline="ideographic">humanoid figures</tspan></text></g></g></g><g id="g-root-tx_initials_djtwrv19k7wg1-stroke-fill" data-item-order="0" transform="translate(302, 122)"><g id="tx_initials_djtwrv19k7wg1-fill" stroke="none" fill="#ebf2ff"><g><text style="font: 20px Roboto, sans-serif; white-space: pre;" font-size="20px" font-family="Roboto, sans-serif"><tspan x="12" y="34" dominant-baseline="ideographic">Initial sighting of a bright white light by </tspan><tspan x="12" y="58" dominant-baseline="ideographic">Reverend Gill</tspan></text></g></g><g id="tx_initials_djtwrv19k7wg1-fill-overlay" stroke="none" fill="url(#crawlingPattern-0059ff37)"><g><text style="font: 20px Roboto, sans-serif; white-space: pre;" font-size="20px" font-family="Roboto, sans-serif"><tspan x="12" y="34" dominant-baseline="ideographic">Initial sighting of a bright white light by </tspan><tspan x="12" y="58" dominant-baseline="ideographic">Reverend Gill</tspan></text></g></g></g><g id="g-root-tx_1959_1qegx7v19k7vgq-stroke-fill" data-item-order="0" transform="translate(134, 614)"><g id="tx_1959_1qegx7v19k7vgq-fill" stroke="none" fill="#f79438"><g><text style="font: bold 20px Roboto, sans-serif; white-space: pre;" font-weight="bold" font-size="20px" font-family="Roboto, sans-serif"><tspan x="22.09" y="34" dominant-baseline="ideographic">1959</tspan></text></g></g><g id="tx_1959_1qegx7v19k7vgq-fill-overlay" stroke="none" fill="url(#crawlingPattern-f17400d3)"><g><text style="font: bold 20px Roboto, sans-serif; white-space: pre;" font-weight="bold" font-size="20px" font-family="Roboto, sans-serif"><tspan x="22.09" y="34" dominant-baseline="ideographic">1959</tspan></text></g></g></g><g id="g-root-tx_june2829_1lynf3f19k7w8z-stroke-fill" data-item-order="0" transform="translate(26, 518)"><g id="tx_june2829_1lynf3f19k7w8z-fill" stroke="none" fill="#ffe711"><g><text style="font: bold 20px Roboto, sans-serif; white-space: pre;" font-weight="bold" font-size="20px" font-family="Roboto, sans-serif"><tspan x="17.06" y="34" dominant-baseline="ideographic">June 28-29, 1959</tspan></text></g></g><g id="tx_june2829_1lynf3f19k7w8z-fill-overlay" stroke="none" fill="url(#crawlingPattern-ddc700ff)"><g><text style="font: bold 20px Roboto, sans-serif; white-space: pre;" font-weight="bold" font-size="20px" font-family="Roboto, sans-serif"><tspan x="17.06" y="34" dominant-baseline="ideographic">June 28-29, 1959</tspan></text></g></g></g><g id="g-root-tx_june2719_18n6wq319k7xtw-stroke-fill" data-item-order="0" transform="translate(62, 422)"><g id="tx_june2719_18n6wq319k7xtw-fill" stroke="none" fill="#a6da37"><g><text style="font: bold 20px Roboto, sans-serif; white-space: pre;" font-weight="bold" font-size="20px" font-family="Roboto, sans-serif"><tspan x="11.89" y="34" dominant-baseline="ideographic">June 27, 1959</tspan></text></g></g><g id="tx_june2719_18n6wq319k7xtw-fill-overlay" stroke="none" fill="url(#crawlingPattern-5c87005e)"><g><text style="font: bold 20px Roboto, sans-serif; white-space: pre;" font-weight="bold" font-size="20px" font-family="Roboto, sans-serif"><tspan x="11.89" y="34" dominant-baseline="ideographic">June 27, 1959</tspan></text></g></g></g><g id="g-root-tx_june2619_vccvfv19k7w91-stroke-fill" data-item-order="0" transform="translate(62, 326)"><g id="tx_june2619_vccvfv19k7w91-fill" stroke="none" fill="#43dd93"><g><text style="font: bold 20px Roboto, sans-serif; white-space: pre;" font-weight="bold" font-size="20px" font-family="Roboto, sans-serif"><tspan x="11.89" y="34" dominant-baseline="ideographic">June 26, 1959</tspan></text></g></g><g id="tx_june2619_vccvfv19k7w91-fill-overlay" stroke="none" fill="url(#crawlingPattern-00b15c75)"><g><text style="font: bold 20px Roboto, sans-serif; white-space: pre;" font-weight="bold" font-size="20px" font-family="Roboto, sans-serif"><tspan x="11.89" y="34" dominant-baseline="ideographic">June 26, 1959</tspan></text></g></g></g><g id="g-root-tx_june2619_4g2qej19k9ati-stroke-fill" data-item-order="0" transform="translate(62, 230)"><g id="tx_june2619_4g2qej19k9ati-fill" stroke="none" fill="#1ac3fb"><g><text style="font: bold 20px Roboto, sans-serif; white-space: pre;" font-weight="bold" font-size="20px" font-family="Roboto, sans-serif"><tspan x="11.89" y="34" dominant-baseline="ideographic">June 26, 1959</tspan></text></g></g><g id="tx_june2619_4g2qej19k9ati-fill-overlay" stroke="none" fill="url(#crawlingPattern-00a3d9d9)"><g><text style="font: bold 20px Roboto, sans-serif; white-space: pre;" font-weight="bold" font-size="20px" font-family="Roboto, sans-serif"><tspan x="11.89" y="34" dominant-baseline="ideographic">June 26, 1959</tspan></text></g></g></g><g id="g-root-tx_june2619_1hapquj19k99u7-stroke-fill" data-item-order="0" transform="translate(62, 134)"><g id="tx_june2619_1hapquj19k99u7-fill" stroke="none" fill="#4f91fc"><g><text style="font: bold 20px Roboto, sans-serif; white-space: pre;" font-weight="bold" font-size="20px" font-family="Roboto, sans-serif"><tspan x="11.89" y="34" dominant-baseline="ideographic">June 26, 1959</tspan></text></g></g><g id="tx_june2619_1hapquj19k99u7-fill-overlay" stroke="none" fill="url(#crawlingPattern-0060fba2)"><g><text style="font: bold 20px Roboto, sans-serif; white-space: pre;" font-weight="bold" font-size="20px" font-family="Roboto, sans-serif"><tspan x="11.89" y="34" dominant-baseline="ideographic">June 26, 1959</tspan></text></g></g></g></svg>