<svg width="624" height="564" viewBox="0 0 624 564" style="fill:none;stroke:none;fill-rule:evenodd;clip-rule:evenodd;stroke-linecap:round;stroke-linejoin:round;stroke-miterlimit:1.5;" version="1.1" xmlns="http://www.w3.org/2000/svg" xmlns:xlink="http://www.w3.org/1999/xlink"><style class="text-font-style fontImports" data-font-family="Roboto">@import url('https://fonts.googleapis.com/css2?family=Roboto:wght@400;700&amp;display=block');</style><g id="g-root-tf_1ur61x71ccdon5-stroke-fill" data-item-order="-324000" transform="translate(12, 12)"></g><g id="g-root-sy_4_cu_1cviptn1cc3thi-stroke-fill" data-item-order="-105977" transform="translate(133.95700073242188, 302.75)"><g id="sy_4_cu_1cviptn1cc3thi-stroke" fill="none" stroke-linecap="round" stroke-linejoin="round" stroke-miterlimit="4" stroke="#f4f4f4" stroke-width="2"><g><path d="M 340.042999 45.25C 343.356999 45.25 346.042999 42.564 346.042999 39.25C 346.042999 35.936 343.356999 33.25 340.042999 33.25C 336.728999 33.25 334.042999 35.936 334.042999 39.25C 334.042999 42.564 336.728999 45.25 340.042999 45.25ZM 16.021999 93.25C 19.346999 93.25 22.042999 90.564 22.042999 87.25C 22.042999 83.936 19.346999 81.25 16.021999 81.25C 12.695999 81.25 9.999999 83.936 9.999999 87.25C 9.999999 90.564 12.695999 93.25 16.021999 93.25ZM 340.042999 33.25L 340.042999 10M 16.042999 58.25L 16.042999 81.25M 194.062999 60.907L 334.195999 40.141M 160.540999 65.869L 21.992999 86.395"></path></g></g><g id="sy_4_cu_1cviptn1cc3thi-stroke-overlay" fill="none" stroke-linecap="round" stroke-linejoin="round" stroke-miterlimit="4" stroke="#3131311a" stroke-width="2" stroke-dasharray="4,6"><animate attributeName="stroke-dashoffset" values="30;0" dur="1s" repeatCount="indefinite" begin="0"></animate><g><path d="M 340.042999 45.25C 343.356999 45.25 346.042999 42.564 346.042999 39.25C 346.042999 35.936 343.356999 33.25 340.042999 33.25C 336.728999 33.25 334.042999 35.936 334.042999 39.25C 334.042999 42.564 336.728999 45.25 340.042999 45.25ZM 16.021999 93.25C 19.346999 93.25 22.042999 90.564 22.042999 87.25C 22.042999 83.936 19.346999 81.25 16.021999 81.25C 12.695999 81.25 9.999999 83.936 9.999999 87.25C 9.999999 90.564 12.695999 93.25 16.021999 93.25ZM 340.042999 33.25L 340.042999 10M 16.042999 58.25L 16.042999 81.25M 194.062999 60.907L 334.195999 40.141M 160.540999 65.869L 21.992999 86.395"></path></g></g></g><g id="g-root-sy_3_Exclude_13zvpkr1cc3ua7-stroke-fill" data-item-order="-105974" transform="translate(255.05589294433594, 340)"><g id="sy_3_Exclude_13zvpkr1cc3ua7-fill" stroke="none" fill="none"><g><path d="M 56.944107 10C 49.471107 10 43.195107 15.122 41.436107 22.047L 10.134107 124.12C 9.542107 126.049 10.984107 128 13.002107 128L 100.886107 128C 102.903107 128 104.346107 126.049 103.754107 124.12L 72.454107 22.054C 70.696107 15.126 64.419107 10 56.944107 10ZM 56.944107 33C 60.810107 33 63.944107 29.866 63.944107 26C 63.944107 22.134 60.810107 19 56.944107 19C 53.078107 19 49.944107 22.134 49.944107 26C 49.944107 29.866 53.078107 33 56.944107 33Z"></path></g></g><g id="sy_3_Exclude_13zvpkr1cc3ua7-stroke" fill="none" stroke-linecap="round" stroke-linejoin="round" stroke-miterlimit="4" stroke="#f4f4f4" stroke-width="2"><g><path d="M 56.944107 10C 49.471107 10 43.195107 15.122 41.436107 22.047L 10.134107 124.12C 9.542107 126.049 10.984107 128 13.002107 128L 100.886107 128C 102.903107 128 104.346107 126.049 103.754107 124.12L 72.454107 22.054C 70.696107 15.126 64.419107 10 56.944107 10ZM 56.944107 33C 60.810107 33 63.944107 29.866 63.944107 26C 63.944107 22.134 60.810107 19 56.944107 19C 53.078107 19 49.944107 22.134 49.944107 26C 49.944107 29.866 53.078107 33 56.944107 33Z"></path></g></g><g id="sy_3_Exclude_13zvpkr1cc3ua7-stroke-overlay" fill="none" stroke-linecap="round" stroke-linejoin="round" stroke-miterlimit="4" stroke="#3131311a" stroke-width="2" stroke-dasharray="4,6"><animate attributeName="stroke-dashoffset" values="30;0" dur="1s" repeatCount="indefinite" begin="0"></animate><g><path d="M 56.944107 10C 49.471107 10 43.195107 15.122 41.436107 22.047L 10.134107 124.12C 9.542107 126.049 10.984107 128 13.002107 128L 100.886107 128C 102.903107 128 104.346107 126.049 103.754107 124.12L 72.454107 22.054C 70.696107 15.126 64.419107 10 56.944107 10ZM 56.944107 33C 60.810107 33 63.944107 29.866 63.944107 26C 63.944107 22.134 60.810107 19 56.944107 19C 53.078107 19 49.944107 22.134 49.944107 26C 49.944107 29.866 53.078107 33 56.944107 33Z"></path></g></g></g><g id="g-root-sy_2_right-bucket_18fp7p71cc3u9s-stroke-fill" data-item-order="-105970" transform="translate(350, 266)"><g id="sy_2_right-bucket_18fp7p71cc3u9s-fill" stroke="none" fill="none"><g><path d="M 11.081 15.729C 10.338 14.904 10 13.826 10 12.716L 10 12.716C 10 11.216 11.216 10 12.716 10L 235.284 10C 236.784 10 238 11.216 238 12.716L 238 12.716C 238 13.826 237.662 14.904 236.919 15.729C 231.551 21.692 204.717 46 124 46C 43.283 46 16.449 21.692 11.081 15.729Z"></path></g></g><g id="sy_2_right-bucket_18fp7p71cc3u9s-stroke" fill="none" stroke-linecap="round" stroke-linejoin="round" stroke-miterlimit="4" stroke="#fb6762" stroke-width="2"><g><path d="M 11.081 15.729C 10.338 14.904 10 13.826 10 12.716L 10 12.716C 10 11.216 11.216 10 12.716 10L 235.284 10C 236.784 10 238 11.216 238 12.716L 238 12.716C 238 13.826 237.662 14.904 236.919 15.729C 231.551 21.692 204.717 46 124 46C 43.283 46 16.449 21.692 11.081 15.729Z"></path></g></g><g id="sy_2_right-bucket_18fp7p71cc3u9s-stroke-overlay" fill="none" stroke-linecap="round" stroke-linejoin="round" stroke-miterlimit="4" stroke="#f9080063" stroke-width="2" stroke-dasharray="4,6"><animate attributeName="stroke-dashoffset" values="30;0" dur="1s" repeatCount="indefinite" begin="0"></animate><g><path d="M 11.081 15.729C 10.338 14.904 10 13.826 10 12.716L 10 12.716C 10 11.216 11.216 10 12.716 10L 235.284 10C 236.784 10 238 11.216 238 12.716L 238 12.716C 238 13.826 237.662 14.904 236.919 15.729C 231.551 21.692 204.717 46 124 46C 43.283 46 16.449 21.692 11.081 15.729Z"></path></g></g></g><g id="g-root-sy_1_left-bucket_zk27gb1cc3v2h-stroke-fill" data-item-order="-105966" transform="translate(26, 314)"><g id="sy_1_left-bucket_zk27gb1cc3v2h-fill" stroke="none" fill="none"><g><path d="M 11.0812 15.729C 10.3384 14.904 10 13.826 10 12.716L 10 12.716C 10 11.216 11.2158 10 12.7157 10L 235.284 10C 236.784 10 238 11.216 238 12.716L 238 12.716C 238 13.826 237.662 14.904 236.919 15.729C 231.551 21.692 204.717 46 124 46C 43.2826 46 16.4488 21.692 11.0812 15.729Z"></path></g></g><g id="sy_1_left-bucket_zk27gb1cc3v2h-stroke" fill="none" stroke-linecap="round" stroke-linejoin="round" stroke-miterlimit="4" stroke="#43dd93" stroke-width="2"><g><path d="M 11.0812 15.729C 10.3384 14.904 10 13.826 10 12.716L 10 12.716C 10 11.216 11.2158 10 12.7157 10L 235.284 10C 236.784 10 238 11.216 238 12.716L 238 12.716C 238 13.826 237.662 14.904 236.919 15.729C 231.551 21.692 204.717 46 124 46C 43.2826 46 16.4488 21.692 11.0812 15.729Z"></path></g></g><g id="sy_1_left-bucket_zk27gb1cc3v2h-stroke-overlay" fill="none" stroke-linecap="round" stroke-linejoin="round" stroke-miterlimit="4" stroke="#00c5676e" stroke-width="2" stroke-dasharray="4,6"><animate attributeName="stroke-dashoffset" values="30;0" dur="1s" repeatCount="indefinite" begin="0"></animate><g><path d="M 11.0812 15.729C 10.3384 14.904 10 13.826 10 12.716L 10 12.716C 10 11.216 11.2158 10 12.7157 10L 235.284 10C 236.784 10 238 11.216 238 12.716L 238 12.716C 238 13.826 237.662 14.904 236.919 15.729C 231.551 21.692 204.717 46 124 46C 43.2826 46 16.4488 21.692 11.0812 15.729Z"></path></g></g></g><g id="g-root-ic_5_v4v6ez1cc3soy-stroke-fill" data-item-order="0" transform="translate(38, 254)"><g id="ic_5_v4v6ez1cc3soy-stroke" fill="none" stroke-linecap="round" stroke-linejoin="round" stroke-miterlimit="4" stroke="#f4f4f4" stroke-width="2"><g><path d="M 33.792198 21.63892C 40.002399 21.63892 45.036598 19.476479 45.036598 16.80896C 45.036598 14.141439 40.002399 11.979004 33.792198 11.979004C 27.58214 11.979004 22.547859 14.141439 22.547859 16.80896C 22.547859 19.476479 27.58214 21.63892 33.792198 21.63892ZM 25.595181 26.040899C 23.731979 26.763 22.594719 27.72588 22.594719 28.783239C 22.594719 31.0238 27.70142 32.840202 34.000801 32.840202C 40.300201 32.840202 45.407001 31.0238 45.407001 28.783239C 45.407001 27.72588 44.2696 26.763 42.406399 26.040899M 24.734699 19.67164L 17.42878 22.73366M 22.65148 28.270559C 21.617279 30.1332 21.02832 32.277199 21.02832 34.558601L 21.02832 39.868797C 21.02832 44.014801 22.973259 47.7066 26.00054 50.0816L 28.028021 51.244999C 31.7272 53.368 36.275002 53.368 39.973999 51.244999L 42.001598 50.0816C 45.028801 47.7066 46.973801 44.014801 46.973801 39.868797L 46.973801 34.558601C 46.973801 32.277199 46.3848 30.1332 45.350601 28.270559M 50.669201 56.1982C 47.925999 53.815399 44.667198 52.010601 41.0826 50.973202M 17.3291 56.1982C 20.07242 53.815399 23.3312 52.010601 26.915899 50.973202M 28.914841 39.418198C 28.450581 39.418198 28.074221 39.041801 28.074221 38.577599C 28.074221 38.1134 28.450581 37.737 28.914841 37.737M 28.915239 39.418198C 29.379499 39.418198 29.755859 39.041801 29.755859 38.577599C 29.755859 38.1134 29.379499 37.737 28.915239 37.737M 39.082802 39.417999C 38.618599 39.417999 38.242203 39.041801 38.242203 38.5774C 38.242203 38.113197 38.618599 37.736801 39.082802 37.736801M 39.083199 39.417999C 39.547401 39.417999 39.923798 39.041801 39.923798 38.5774C 39.923798 38.113197 39.547401 37.736801 39.083199 37.736801"></path></g></g><g id="ic_5_v4v6ez1cc3soy-stroke-overlay" fill="none" stroke-linecap="round" stroke-linejoin="round" stroke-miterlimit="4" stroke="#3131311a" stroke-width="2" stroke-dasharray="4,6"><animate attributeName="stroke-dashoffset" values="30;0" dur="1s" repeatCount="indefinite" begin="0"></animate><g><path d="M 33.792198 21.63892C 40.002399 21.63892 45.036598 19.476479 45.036598 16.80896C 45.036598 14.141439 40.002399 11.979004 33.792198 11.979004C 27.58214 11.979004 22.547859 14.141439 22.547859 16.80896C 22.547859 19.476479 27.58214 21.63892 33.792198 21.63892ZM 25.595181 26.040899C 23.731979 26.763 22.594719 27.72588 22.594719 28.783239C 22.594719 31.0238 27.70142 32.840202 34.000801 32.840202C 40.300201 32.840202 45.407001 31.0238 45.407001 28.783239C 45.407001 27.72588 44.2696 26.763 42.406399 26.040899M 24.734699 19.67164L 17.42878 22.73366M 22.65148 28.270559C 21.617279 30.1332 21.02832 32.277199 21.02832 34.558601L 21.02832 39.868797C 21.02832 44.014801 22.973259 47.7066 26.00054 50.0816L 28.028021 51.244999C 31.7272 53.368 36.275002 53.368 39.973999 51.244999L 42.001598 50.0816C 45.028801 47.7066 46.973801 44.014801 46.973801 39.868797L 46.973801 34.558601C 46.973801 32.277199 46.3848 30.1332 45.350601 28.270559M 50.669201 56.1982C 47.925999 53.815399 44.667198 52.010601 41.0826 50.973202M 17.3291 56.1982C 20.07242 53.815399 23.3312 52.010601 26.915899 50.973202M 28.914841 39.418198C 28.450581 39.418198 28.074221 39.041801 28.074221 38.577599C 28.074221 38.1134 28.450581 37.737 28.914841 37.737M 28.915239 39.418198C 29.379499 39.418198 29.755859 39.041801 29.755859 38.577599C 29.755859 38.1134 29.379499 37.737 28.915239 37.737M 39.082802 39.417999C 38.618599 39.417999 38.242203 39.041801 38.242203 38.5774C 38.242203 38.113197 38.618599 37.736801 39.082802 37.736801M 39.083199 39.417999C 39.547401 39.417999 39.923798 39.041801 39.923798 38.5774C 39.923798 38.113197 39.547401 37.736801 39.083199 37.736801"></path></g></g></g><g id="g-root-ic_buil_qqamgr1cc5897-stroke-fill" data-item-order="0" transform="translate(38, 182)"><g id="ic_buil_qqamgr1cc5897-stroke" fill="none" stroke-linecap="round" stroke-linejoin="round" stroke-miterlimit="4" stroke="#f4f4f4" stroke-width="2"><g><path d="M 10 10M 45.125999 45.104L 57.037998 57.014M 10.962 30.986C 10.962 42.031696 19.916306 50.986 30.962 50.986C 42.007694 50.986 50.962002 42.031696 50.962002 30.986C 50.962002 19.940306 42.007694 10.986 30.962 10.986C 19.916306 10.986 10.962 19.940306 10.962 30.986ZM 30.962 40.986L 21.962 40.986C 21.409716 40.986 20.962 40.538284 20.962 39.986L 20.962 22.6C 20.964392 22.256493 21.142933 21.938255 21.434849 21.757177C 21.726765 21.576099 22.09119 21.557531 22.4 21.708L 30.954 25.986ZM 30.962 28.986L 39.961998 28.986C 40.514282 28.986 40.961998 29.433716 40.961998 29.986L 40.961998 39.986C 40.961998 40.538284 40.514282 40.986 39.961998 40.986L 30.962 40.986M 20.962 28.986L 25.962 28.986M 20.962 32.986L 25.962 32.986M 30.962 25.986L 30.962 20.986M 38.961998 28.986L 38.961998 23.986M 30.962 32.986L 35.961998 32.986M 30.962 36.986L 35.961998 36.986"></path></g></g><g id="ic_buil_qqamgr1cc5897-stroke-overlay" fill="none" stroke-linecap="round" stroke-linejoin="round" stroke-miterlimit="4" stroke="#3131311a" stroke-width="2" stroke-dasharray="4,6"><animate attributeName="stroke-dashoffset" values="30;0" dur="1s" repeatCount="indefinite" begin="0"></animate><g><path d="M 10 10M 45.125999 45.104L 57.037998 57.014M 10.962 30.986C 10.962 42.031696 19.916306 50.986 30.962 50.986C 42.007694 50.986 50.962002 42.031696 50.962002 30.986C 50.962002 19.940306 42.007694 10.986 30.962 10.986C 19.916306 10.986 10.962 19.940306 10.962 30.986ZM 30.962 40.986L 21.962 40.986C 21.409716 40.986 20.962 40.538284 20.962 39.986L 20.962 22.6C 20.964392 22.256493 21.142933 21.938255 21.434849 21.757177C 21.726765 21.576099 22.09119 21.557531 22.4 21.708L 30.954 25.986ZM 30.962 28.986L 39.961998 28.986C 40.514282 28.986 40.961998 29.433716 40.961998 29.986L 40.961998 39.986C 40.961998 40.538284 40.514282 40.986 39.961998 40.986L 30.962 40.986M 20.962 28.986L 25.962 28.986M 20.962 32.986L 25.962 32.986M 30.962 25.986L 30.962 20.986M 38.961998 28.986L 38.961998 23.986M 30.962 32.986L 35.961998 32.986M 30.962 36.986L 35.961998 36.986"></path></g></g></g><g id="g-root-ic_pen_1qclhyz1cc6nes-stroke-fill" data-item-order="0" transform="translate(38, 110)"><g id="ic_pen_1qclhyz1cc6nes-stroke" fill="none" stroke-linecap="round" stroke-linejoin="round" stroke-miterlimit="4" stroke="#f4f4f4" stroke-width="2"><g><path d="M 24 19.998001L 18 25.998001L 15 22.998001M 24 30.997999L 18 36.998001L 15 33.998001M 29 53L 13 53C 11.895431 53 11 52.104568 11 51L 11 17C 11 15.895431 11.895431 15 13 15L 37 15C 38.104568 15 39 15.895431 39 17L 39 43ZM 29 52.998001L 29 42.998001L 39 42.998001M 44.995998 26.997999L 52.997997 26.997999L 52.997997 47.998001L 44.995998 47.998001ZM 53 13C 55.209141 13 57 14.790861 57 17L 57 33M 49 51.998001L 49 56.998001M 44.998001 10.998L 52.998001 10.998L 52.998001 26.997999L 44.998001 26.997999ZM 47 47.998001L 51 47.998001L 51 51.998001L 47 51.998001ZM 27 24.998001L 34 24.998001M 27 34.998001L 34 34.998001"></path></g></g><g id="ic_pen_1qclhyz1cc6nes-stroke-overlay" fill="none" stroke-linecap="round" stroke-linejoin="round" stroke-miterlimit="4" stroke="#3131311a" stroke-width="2" stroke-dasharray="4,6"><animate attributeName="stroke-dashoffset" values="30;0" dur="1s" repeatCount="indefinite" begin="0"></animate><g><path d="M 24 19.998001L 18 25.998001L 15 22.998001M 24 30.997999L 18 36.998001L 15 33.998001M 29 53L 13 53C 11.895431 53 11 52.104568 11 51L 11 17C 11 15.895431 11.895431 15 13 15L 37 15C 38.104568 15 39 15.895431 39 17L 39 43ZM 29 52.998001L 29 42.998001L 39 42.998001M 44.995998 26.997999L 52.997997 26.997999L 52.997997 47.998001L 44.995998 47.998001ZM 53 13C 55.209141 13 57 14.790861 57 17L 57 33M 49 51.998001L 49 56.998001M 44.998001 10.998L 52.998001 10.998L 52.998001 26.997999L 44.998001 26.997999ZM 47 47.998001L 51 47.998001L 51 51.998001L 47 51.998001ZM 27 24.998001L 34 24.998001M 27 34.998001L 34 34.998001"></path></g></g></g><g id="g-root-ic_flu_98aj1cc9f5x-stroke-fill" data-item-order="0" transform="translate(362, 206)"><g id="ic_flu_98aj1cc9f5x-stroke" fill="none" stroke-linecap="round" stroke-linejoin="round" stroke-miterlimit="4" stroke="#f4f4f4" stroke-width="2"><g><path d="M 26.799999 42.014C 27.075039 42.012894 27.298897 42.234959 27.299999 42.509998M 26.309999 42.509998C 26.311102 42.234959 26.534962 42.012894 26.809999 42.014M 26.799999 43C 26.524961 43.001106 26.301102 42.779037 26.299999 42.503998M 27.309999 42.509998C 27.308897 42.785038 27.085039 43.007107 26.809999 43.006001M 32.809998 34.653999C 33.085365 34.653999 33.308899 34.87664 33.309998 35.152M 32.309998 35.152C 32.311104 34.87664 32.534637 34.653999 32.809998 34.653999M 32.809998 35.648003C 32.534958 35.649105 32.311104 35.42704 32.309998 35.152M 33.309998 35.152C 33.308899 35.42704 33.085037 35.649105 32.809998 35.647999M 35.809998 45.014C 36.085037 45.012894 36.308899 45.234959 36.309998 45.509998M 35.309998 45.509998C 35.311104 45.234959 35.534958 45.012894 35.809998 45.014M 35.809998 46C 35.534958 46.001106 35.311104 45.779037 35.309998 45.503998M 36.309998 45.509998C 36.308899 45.785038 36.085037 46.007107 35.809998 46.006001M 20.810001 33.571999C 21.085037 33.570892 21.308897 33.792961 21.309999 34.068001M 20.310001 34.068001C 20.311102 33.792961 20.534962 33.570892 20.809999 33.571999M 20.810001 34.566002C 20.677576 34.566528 20.550392 34.514297 20.456566 34.420845C 20.36274 34.327396 20.309998 34.200424 20.309999 34.068001M 21.310001 34.068001C 21.310001 34.200424 21.257259 34.327396 21.163433 34.420845C 21.069607 34.514297 20.942425 34.566528 20.809999 34.566002M 26.799999 25.716C 26.932423 25.715467 27.059607 25.7677 27.153433 25.861153C 27.247259 25.954601 27.300001 26.081575 27.299999 26.213999M 26.309999 26.214001C 26.309998 26.081575 26.362741 25.954601 26.456566 25.861153C 26.550392 25.7677 26.677576 25.715467 26.809999 25.716M 26.799999 26.709999C 26.524961 26.711105 26.301102 26.489038 26.299999 26.213999M 27.309999 26.214001C 27.308897 26.489038 27.085039 26.711105 26.809999 26.709999M 27.309999 57L 27.309999 51L 25.310001 51C 21.996292 51 19.310001 48.313709 19.310001 45L 19.310001 39L 13.690001 39C 13.369975 39.000198 13.069187 38.847214 12.880864 38.588467C 12.69254 38.32972 12.639433 37.996468 12.738 37.692001C 16.880001 24.869999 19.76 11 35.809998 11C 44.247063 10.991527 51.730766 16.414856 54.349426 24.435247C 56.96809 32.455635 54.126522 41.250175 47.310001 46.222L 47.310001 57"></path></g></g><g id="ic_flu_98aj1cc9f5x-stroke-overlay" fill="none" stroke-linecap="round" stroke-linejoin="round" stroke-miterlimit="4" stroke="#3131311a" stroke-width="2" stroke-dasharray="4,6"><animate attributeName="stroke-dashoffset" values="30;0" dur="1s" repeatCount="indefinite" begin="0"></animate><g><path d="M 26.799999 42.014C 27.075039 42.012894 27.298897 42.234959 27.299999 42.509998M 26.309999 42.509998C 26.311102 42.234959 26.534962 42.012894 26.809999 42.014M 26.799999 43C 26.524961 43.001106 26.301102 42.779037 26.299999 42.503998M 27.309999 42.509998C 27.308897 42.785038 27.085039 43.007107 26.809999 43.006001M 32.809998 34.653999C 33.085365 34.653999 33.308899 34.87664 33.309998 35.152M 32.309998 35.152C 32.311104 34.87664 32.534637 34.653999 32.809998 34.653999M 32.809998 35.648003C 32.534958 35.649105 32.311104 35.42704 32.309998 35.152M 33.309998 35.152C 33.308899 35.42704 33.085037 35.649105 32.809998 35.647999M 35.809998 45.014C 36.085037 45.012894 36.308899 45.234959 36.309998 45.509998M 35.309998 45.509998C 35.311104 45.234959 35.534958 45.012894 35.809998 45.014M 35.809998 46C 35.534958 46.001106 35.311104 45.779037 35.309998 45.503998M 36.309998 45.509998C 36.308899 45.785038 36.085037 46.007107 35.809998 46.006001M 20.810001 33.571999C 21.085037 33.570892 21.308897 33.792961 21.309999 34.068001M 20.310001 34.068001C 20.311102 33.792961 20.534962 33.570892 20.809999 33.571999M 20.810001 34.566002C 20.677576 34.566528 20.550392 34.514297 20.456566 34.420845C 20.36274 34.327396 20.309998 34.200424 20.309999 34.068001M 21.310001 34.068001C 21.310001 34.200424 21.257259 34.327396 21.163433 34.420845C 21.069607 34.514297 20.942425 34.566528 20.809999 34.566002M 26.799999 25.716C 26.932423 25.715467 27.059607 25.7677 27.153433 25.861153C 27.247259 25.954601 27.300001 26.081575 27.299999 26.213999M 26.309999 26.214001C 26.309998 26.081575 26.362741 25.954601 26.456566 25.861153C 26.550392 25.7677 26.677576 25.715467 26.809999 25.716M 26.799999 26.709999C 26.524961 26.711105 26.301102 26.489038 26.299999 26.213999M 27.309999 26.214001C 27.308897 26.489038 27.085039 26.711105 26.809999 26.709999M 27.309999 57L 27.309999 51L 25.310001 51C 21.996292 51 19.310001 48.313709 19.310001 45L 19.310001 39L 13.690001 39C 13.369975 39.000198 13.069187 38.847214 12.880864 38.588467C 12.69254 38.32972 12.639433 37.996468 12.738 37.692001C 16.880001 24.869999 19.76 11 35.809998 11C 44.247063 10.991527 51.730766 16.414856 54.349426 24.435247C 56.96809 32.455635 54.126522 41.250175 47.310001 46.222L 47.310001 57"></path></g></g></g><g id="g-root-ic_boxe_1hbc7y31ccaw3y-stroke-fill" data-item-order="0" transform="translate(362, 134)"><g id="ic_boxe_1hbc7y31ccaw3y-stroke" fill="none" stroke-linecap="round" stroke-linejoin="round" stroke-miterlimit="4" stroke="#f4f4f4" stroke-width="2"><g><path d="M 29.1 45L 28 45C 25.790861 45 24 46.790859 24 49L 24 53L 50 53L 50 49C 50 46.790859 48.209141 45 46 45L 38.900002 45M 29 44C 29 46.761425 31.238577 49 34 49C 36.761425 49 39 46.761425 39 44C 39 41.238579 36.761425 39 34 39C 31.238577 39 29 41.238579 29 44M 26 53L 26 57M 48 53L 48 57M 34 43.5C 34.276142 43.5 34.5 43.723858 34.5 44C 34.5 44.276142 34.276142 44.5 34 44.5C 33.723858 44.5 33.5 44.276142 33.5 44C 33.5 43.723858 33.723858 43.5 34 43.5M 12 16.68L 12 30M 34 16.68L 23 22.380001L 12 16.68M 12 16.68L 23 11L 34 16.68M 34 30L 23 35.68L 12 30M 34 16.68L 34 30M 23 22.380001L 23 35.68M 34 16.68L 34 30M 56 16.68L 45 22.380001L 34 16.68M 34 16.68L 45 11L 56 16.68M 56 30L 45 35.68L 34 30M 56 16.68L 56 30M 45 22.380001L 45 35.68"></path></g></g><g id="ic_boxe_1hbc7y31ccaw3y-stroke-overlay" fill="none" stroke-linecap="round" stroke-linejoin="round" stroke-miterlimit="4" stroke="#3131311a" stroke-width="2" stroke-dasharray="4,6"><animate attributeName="stroke-dashoffset" values="30;0" dur="1s" repeatCount="indefinite" begin="0"></animate><g><path d="M 29.1 45L 28 45C 25.790861 45 24 46.790859 24 49L 24 53L 50 53L 50 49C 50 46.790859 48.209141 45 46 45L 38.900002 45M 29 44C 29 46.761425 31.238577 49 34 49C 36.761425 49 39 46.761425 39 44C 39 41.238579 36.761425 39 34 39C 31.238577 39 29 41.238579 29 44M 26 53L 26 57M 48 53L 48 57M 34 43.5C 34.276142 43.5 34.5 43.723858 34.5 44C 34.5 44.276142 34.276142 44.5 34 44.5C 33.723858 44.5 33.5 44.276142 33.5 44C 33.5 43.723858 33.723858 43.5 34 43.5M 12 16.68L 12 30M 34 16.68L 23 22.380001L 12 16.68M 12 16.68L 23 11L 34 16.68M 34 30L 23 35.68L 12 30M 34 16.68L 34 30M 23 22.380001L 23 35.68M 34 16.68L 34 30M 56 16.68L 45 22.380001L 34 16.68M 34 16.68L 45 11L 56 16.68M 56 30L 45 35.68L 34 30M 56 16.68L 56 30M 45 22.380001L 45 35.68"></path></g></g></g><g id="g-root-ic_mead_v644l71cccavj-stroke-fill" data-item-order="0" transform="translate(362, 62)"><g id="ic_mead_v644l71cccavj-stroke" fill="none" stroke-linecap="round" stroke-linejoin="round" stroke-miterlimit="4" stroke="#f4f4f4" stroke-width="2"><g><path d="M 13 43L 13 57M 27 43L 27 57M 41 43L 41 57M 55 43L 55 57M 55 47L 13 47M 55 53L 13 53M 11 35.599998L 19.251999 29C 21.443249 27.247133 24.556751 27.247133 26.748001 29L 38 38M 31.448 32.757999L 40.956001 27.639999C 42.83989 26.62554 45.121452 26.691076 46.944 27.812L 57 34M 35 16C 35 18.761425 37.238579 21 40 21C 42.761425 21 45 18.761425 45 16C 45 13.238577 42.761425 11 40 11C 37.238579 11 35 13.238577 35 16Z"></path></g></g><g id="ic_mead_v644l71cccavj-stroke-overlay" fill="none" stroke-linecap="round" stroke-linejoin="round" stroke-miterlimit="4" stroke="#3131311a" stroke-width="2" stroke-dasharray="4,6"><animate attributeName="stroke-dashoffset" values="30;0" dur="1s" repeatCount="indefinite" begin="0"></animate><g><path d="M 13 43L 13 57M 27 43L 27 57M 41 43L 41 57M 55 43L 55 57M 55 47L 13 47M 55 53L 13 53M 11 35.599998L 19.251999 29C 21.443249 27.247133 24.556751 27.247133 26.748001 29L 38 38M 31.448 32.757999L 40.956001 27.639999C 42.83989 26.62554 45.121452 26.691076 46.944 27.812L 57 34M 35 16C 35 18.761425 37.238579 21 40 21C 42.761425 21 45 18.761425 45 16C 45 13.238577 42.761425 11 40 11C 37.238579 11 35 13.238577 35 16Z"></path></g></g></g><g id="g-root-tx_credible_1hcl64b1ccdp1k-stroke-fill" data-item-order="0" transform="translate(98, 266)"><g id="tx_credible_1hcl64b1ccdp1k-fill" stroke="none" fill="#f4f4f4"><g><text style="font: 20px Roboto, sans-serif; white-space: pre;" font-size="20px" font-family="Roboto, sans-serif"><tspan x="12" y="34" dominant-baseline="ideographic">Credible Witness</tspan></text></g></g><g id="tx_credible_1hcl64b1ccdp1k-fill-overlay" stroke="none" fill="url(#crawlingPattern-0000001b)"><g><text style="font: 20px Roboto, sans-serif; white-space: pre;" font-size="20px" font-family="Roboto, sans-serif"><tspan x="12" y="34" dominant-baseline="ideographic">Credible Witness</tspan></text></g></g></g><g id="g-root-tx_technica_141r4u31ccdngp-stroke-fill" data-item-order="0" transform="translate(98, 182)"><g id="tx_technica_141r4u31ccdngp-fill" stroke="none" fill="#f4f4f4"><g><text style="font: 20px Roboto, sans-serif; white-space: pre;" font-size="20px" font-family="Roboto, sans-serif"><tspan x="12" y="34" dominant-baseline="ideographic">Technical </tspan><tspan x="12" y="58" dominant-baseline="ideographic">Authenticity</tspan></text></g></g><g id="tx_technica_141r4u31ccdngp-fill-overlay" stroke="none" fill="url(#crawlingPattern-0000001b)"><g><text style="font: 20px Roboto, sans-serif; white-space: pre;" font-size="20px" font-family="Roboto, sans-serif"><tspan x="12" y="34" dominant-baseline="ideographic">Technical </tspan><tspan x="12" y="58" dominant-baseline="ideographic">Authenticity</tspan></text></g></g></g><g id="g-root-tx_detailed_qqamgr1ccdp1m-stroke-fill" data-item-order="0" transform="translate(98, 98)"><g id="tx_detailed_qqamgr1ccdp1m-fill" stroke="none" fill="#f4f4f4"><g><text style="font: 20px Roboto, sans-serif; white-space: pre;" font-size="20px" font-family="Roboto, sans-serif"><tspan x="12" y="34" dominant-baseline="ideographic">Detailed </tspan><tspan x="12" y="58" dominant-baseline="ideographic">Investigation </tspan><tspan x="12" y="82" dominant-baseline="ideographic">Process</tspan></text></g></g><g id="tx_detailed_qqamgr1ccdp1m-fill-overlay" stroke="none" fill="url(#crawlingPattern-0000001b)"><g><text style="font: 20px Roboto, sans-serif; white-space: pre;" font-size="20px" font-family="Roboto, sans-serif"><tspan x="12" y="34" dominant-baseline="ideographic">Detailed </tspan><tspan x="12" y="58" dominant-baseline="ideographic">Investigation </tspan><tspan x="12" y="82" dominant-baseline="ideographic">Process</tspan></text></g></g></g><g id="g-root-tx_plausibl_dfgl6j1ccdngr-stroke-fill" data-item-order="0" transform="translate(422, 206)"><g id="tx_plausibl_dfgl6j1ccdngr-fill" stroke="none" fill="#f4f4f4"><g><text style="font: 20px Roboto, sans-serif; white-space: pre;" font-size="20px" font-family="Roboto, sans-serif"><tspan x="12" y="34" dominant-baseline="ideographic">Plausible Hoax </tspan><tspan x="12" y="58" dominant-baseline="ideographic">Methods</tspan></text></g></g><g id="tx_plausibl_dfgl6j1ccdngr-fill-overlay" stroke="none" fill="url(#crawlingPattern-0000001b)"><g><text style="font: 20px Roboto, sans-serif; white-space: pre;" font-size="20px" font-family="Roboto, sans-serif"><tspan x="12" y="34" dominant-baseline="ideographic">Plausible Hoax </tspan><tspan x="12" y="58" dominant-baseline="ideographic">Methods</tspan></text></g></g></g><g id="g-root-tx_stereosc_402t71ccdp1o-stroke-fill" data-item-order="0" transform="translate(422, 134)"><g id="tx_stereosc_402t71ccdp1o-fill" stroke="none" fill="#f4f4f4"><g><text style="font: 20px Roboto, sans-serif; white-space: pre;" font-size="20px" font-family="Roboto, sans-serif"><tspan x="12" y="34" dominant-baseline="ideographic">Stereoscopic </tspan><tspan x="12" y="58" dominant-baseline="ideographic">Model Claim</tspan></text></g></g><g id="tx_stereosc_402t71ccdp1o-fill-overlay" stroke="none" fill="url(#crawlingPattern-0000001b)"><g><text style="font: 20px Roboto, sans-serif; white-space: pre;" font-size="20px" font-family="Roboto, sans-serif"><tspan x="12" y="34" dominant-baseline="ideographic">Stereoscopic </tspan><tspan x="12" y="58" dominant-baseline="ideographic">Model Claim</tspan></text></g></g></g><g id="g-root-tx_lackofad_1upamnv1ccdpmt-stroke-fill" data-item-order="0" transform="translate(422, 50)"><g id="tx_lackofad_1upamnv1ccdpmt-fill" stroke="none" fill="#f4f4f4"><g><text style="font: 20px Roboto, sans-serif; white-space: pre;" font-size="20px" font-family="Roboto, sans-serif"><tspan x="12" y="34" dominant-baseline="ideographic">Lack of </tspan><tspan x="12" y="58" dominant-baseline="ideographic">Additional </tspan><tspan x="12" y="82" dominant-baseline="ideographic">Witnesses</tspan></text></g></g><g id="tx_lackofad_1upamnv1ccdpmt-fill-overlay" stroke="none" fill="url(#crawlingPattern-0000001b)"><g><text style="font: 20px Roboto, sans-serif; white-space: pre;" font-size="20px" font-family="Roboto, sans-serif"><tspan x="12" y="34" dominant-baseline="ideographic">Lack of </tspan><tspan x="12" y="58" dominant-baseline="ideographic">Additional </tspan><tspan x="12" y="82" dominant-baseline="ideographic">Witnesses</tspan></text></g></g></g><g id="g-root-tx_supporti_18itl4r1ccdoum-stroke-fill" data-item-order="0" transform="translate(44, 422)"><g id="tx_supporti_18itl4r1ccdoum-fill" stroke="none" fill="#f4f4f4"><g><text style="font: 20px Roboto, sans-serif; white-space: pre;" font-size="20px" font-family="Roboto, sans-serif"><tspan x="14.83" y="34" dominant-baseline="ideographic">Supporting Evidence</tspan></text></g></g><g id="tx_supporti_18itl4r1ccdoum-fill-overlay" stroke="none" fill="url(#crawlingPattern-0000001b)"><g><text style="font: 20px Roboto, sans-serif; white-space: pre;" font-size="20px" font-family="Roboto, sans-serif"><tspan x="14.83" y="34" dominant-baseline="ideographic">Supporting Evidence</tspan></text></g></g></g><g id="g-root-tx_skeptica_v7zjuj1ccdn9r-stroke-fill" data-item-order="0" transform="translate(374, 374)"><g id="tx_skeptica_v7zjuj1ccdn9r-fill" stroke="none" fill="#f4f4f4"><g><text style="font: 20px Roboto, sans-serif; white-space: pre;" font-size="20px" font-family="Roboto, sans-serif"><tspan x="16.61" y="34" dominant-baseline="ideographic">Skeptical Analyses</tspan></text></g></g><g id="tx_skeptica_v7zjuj1ccdn9r-fill-overlay" stroke="none" fill="url(#crawlingPattern-0000001b)"><g><text style="font: 20px Roboto, sans-serif; white-space: pre;" font-size="20px" font-family="Roboto, sans-serif"><tspan x="16.61" y="34" dominant-baseline="ideographic">Skeptical Analyses</tspan></text></g></g></g><g id="g-root-tx_balancin_mccjln1ccdou8-stroke-fill" data-item-order="0" transform="translate(110, 470)"><g id="tx_balancin_mccjln1ccdou8-fill" stroke="none" fill="#f4f4f4"><g><text style="font: 20px Roboto, sans-serif; white-space: pre;" font-size="20px" font-family="Roboto, sans-serif"><tspan x="14" y="34" dominant-baseline="ideographic">Balancing Evidence in the Heflin UFO Case</tspan></text></g></g><defs><pattern id="crawlingPattern-0000001b" x="0" y="0" width="12" height="12" patternUnits="userSpaceOnUse" fill="#0000001b"><use href="#crawlingSymbol"></use></pattern><symbol id="crawlingSymbol"><g><animateTransform attributeName="transform" type="translate" from="0 0" to="-12 0" dur="0.4s" repeatCount="indefinite"></animateTransform><path d="M -12.5 12.5 l 13 -13 l 6 0 l -13 13 Z M -0.5 12.5 l 13 -13 l 6 0 l -13 13 Z M 11.5 12.5 l 13 -13 l 6 0 l -13 13 Z"></path></g></symbol></defs><g id="tx_balancin_mccjln1ccdou8-fill-overlay" stroke="none" fill="url(#crawlingPattern-0000001b)"><g><text style="font: 20px Roboto, sans-serif; white-space: pre;" font-size="20px" font-family="Roboto, sans-serif"><tspan x="14" y="34" dominant-baseline="ideographic">Balancing Evidence in the Heflin UFO Case</tspan></text></g></g></g></svg>