<?xml version='1.0' encoding='utf-8'?>
<svg xmlns="http://www.w3.org/2000/svg" xmlns:xlink="http://www.w3.org/1999/xlink" width="792" height="672" viewBox="0 0 792 672" style="fill:none;stroke:none;fill-rule:evenodd;clip-rule:evenodd;stroke-linecap:round;stroke-linejoin:round;stroke-miterlimit:1.5;" version="1.1">
  <style class="text-font-style fontImports" data-font-family="Roboto">@import url('https://fonts.googleapis.com/css2?family=Roboto:wght@400;700&amp;display=block');</style>
  <rect x="0" y="0" width="792" height="672" fill="#252a34" stroke="none" id="programmatic_background"/>
  <g id="g-root-tf_vb3ebf19kgd8r-stroke-fill" data-item-order="-497664" transform="translate(12, 12)">
    <g id="tf_vb3ebf19kgd8r-fill" stroke="none" fill="#2c2c2c">
      <g>
        <path d="M 0 0L 768 0L 768 648L 0 648Z"/>
      </g>
    </g>
    <defs>
      <pattern id="crawlingPattern-ffe50099" x="0" y="0" width="12" height="12" patternUnits="userSpaceOnUse" fill="#ffe50099">
        <use href="#crawlingSymbol"/>
      </pattern>
      <symbol id="crawlingSymbol">
        <g>
          <path d="M -12.5 12.5 l 13 -13 l 6 0 l -13 13 Z M -0.5 12.5 l 13 -13 l 6 0 l -13 13 Z M 11.5 12.5 l 13 -13 l 6 0 l -13 13 Z"/>
        </g>
      </symbol>
      <pattern id="crawlingPattern-8ed00028" x="0" y="0" width="12" height="12" patternUnits="userSpaceOnUse" fill="#8ed00028">
        <use href="#crawlingSymbol"/>
      </pattern>
      <pattern id="crawlingPattern-00d16d21" x="0" y="0" width="12" height="12" patternUnits="userSpaceOnUse" fill="#00d16d21">
        <use href="#crawlingSymbol"/>
      </pattern>
      <pattern id="crawlingPattern-00bcfb62" x="0" y="0" width="12" height="12" patternUnits="userSpaceOnUse" fill="#00bcfb62">
        <use href="#crawlingSymbol"/>
      </pattern>
      <pattern id="crawlingPattern-0060fb20" x="0" y="0" width="12" height="12" patternUnits="userSpaceOnUse" fill="#0060fb20">
        <use href="#crawlingSymbol"/>
      </pattern>
      <pattern id="crawlingPattern-0000001b" x="0" y="0" width="12" height="12" patternUnits="userSpaceOnUse" fill="#0000001b">
        <use href="#crawlingSymbol"/>
      </pattern>
      <pattern id="crawlingPattern-ffe7003d" x="0" y="0" width="12" height="12" patternUnits="userSpaceOnUse" fill="#ffe7003d">
        <use href="#crawlingSymbol"/>
      </pattern>
      <pattern id="crawlingPattern-acff003c" x="0" y="0" width="12" height="12" patternUnits="userSpaceOnUse" fill="#acff003c">
        <use href="#crawlingSymbol"/>
      </pattern>
      <pattern id="crawlingPattern-00ff873a" x="0" y="0" width="12" height="12" patternUnits="userSpaceOnUse" fill="#00ff873a">
        <use href="#crawlingSymbol"/>
      </pattern>
      <pattern id="crawlingPattern-00baff39" x="0" y="0" width="12" height="12" patternUnits="userSpaceOnUse" fill="#00baff39">
        <use href="#crawlingSymbol"/>
      </pattern>
      <pattern id="crawlingPattern-0059ff37" x="0" y="0" width="12" height="12" patternUnits="userSpaceOnUse" fill="#0059ff37">
        <use href="#crawlingSymbol"/>
      </pattern>
      <pattern id="crawlingPattern-ddc700ff" x="0" y="0" width="12" height="12" patternUnits="userSpaceOnUse" fill="#ddc700ff">
        <use href="#crawlingSymbol"/>
      </pattern>
      <pattern id="crawlingPattern-5c87005e" x="0" y="0" width="12" height="12" patternUnits="userSpaceOnUse" fill="#5c87005e">
        <use href="#crawlingSymbol"/>
      </pattern>
      <pattern id="crawlingPattern-00b15c75" x="0" y="0" width="12" height="12" patternUnits="userSpaceOnUse" fill="#00b15c75">
        <use href="#crawlingSymbol"/>
      </pattern>
      <pattern id="crawlingPattern-00a3d9d9" x="0" y="0" width="12" height="12" patternUnits="userSpaceOnUse" fill="#00a3d9d9">
        <use href="#crawlingSymbol"/>
      </pattern>
      <pattern id="crawlingPattern-0060fba2" x="0" y="0" width="12" height="12" patternUnits="userSpaceOnUse" fill="#0060fba2">
        <use href="#crawlingSymbol"/>
      </pattern>
      <pattern id="crawlingPattern-c1c1c11a" x="0" y="0" width="12" height="12" patternUnits="userSpaceOnUse" fill="#c1c1c11a">
        <use href="#crawlingSymbol"/>
      </pattern>
      <pattern id="crawlingPattern-5f5f5f1a" x="0" y="0" width="12" height="12" patternUnits="userSpaceOnUse" fill="#5f5f5f1a">
        <use href="#crawlingSymbol"/>
      </pattern>
    </defs>
  </g>
  <g id="g-root-sy_-1_Vector_18it26319k7wuk-stroke-fill" data-item-order="-35419" transform="translate(278, 182)">
    <g id="sy_-1_Vector_18it26319k7wuk-stroke" fill="none" stroke-linecap="round" stroke-linejoin="round" stroke-miterlimit="4" stroke="#f4f4f4" stroke-width="2">
      <g>
        <path d="M 10 322L 10 298M 10 226L 10 202M 10 130L 10 106M 10 34L 10 10"/>
      </g>
    </g>
  </g>
  <g id="g-root-sy_-1_line_18it26319k7wul-stroke-fill" data-item-order="-35415" transform="translate(278, 566)">
    <g id="sy_-1_line_18it26319k7wul-stroke" fill="none" stroke-linecap="round" stroke-linejoin="round" stroke-miterlimit="4" stroke="#f4f4f4" stroke-width="2">
      <g>
        <path d="M 10 44L 10 10"/>
        <path d="M 3.5 38L 10 44.5L 16.5 38" stroke-dasharray="none"/>
      </g>
    </g>
  </g>
  <g id="g-root-cr_5_cr-big_142zk1n19k7xmu-stroke-fill" data-item-order="-35412" transform="translate(242, 494)">
    <g id="cr_5_cr-big_142zk1n19k7xmu-fill" stroke="none" fill="#ffe711">
      <g>
        <path d="M 10 46C 10 65.882251 26.117749 82 46 82C 65.882251 82 82 65.882251 82 46C 82 26.117749 65.882251 10 46 10C 26.117749 10 10 26.117749 10 46"/>
      </g>
    </g>
    <g id="cr_5_cr-big_142zk1n19k7xmu-stroke" fill="none" stroke-linecap="round" stroke-linejoin="round" stroke-miterlimit="4" stroke="#2c2c2c" stroke-width="2">
      <g>
        <path d="M 10 46C 10 65.882251 26.117749 82 46 82C 65.882251 82 82 65.882251 82 46C 82 26.117749 65.882251 10 46 10C 26.117749 10 10 26.117749 10 46"/>
      </g>
    </g>
  </g>
  <g id="g-root-cr_4_cr-big_142zk1n19k7xmv-stroke-fill" data-item-order="-35408" transform="translate(242, 398)">
    <g id="cr_4_cr-big_142zk1n19k7xmv-fill" stroke="none" fill="#a6da37">
      <g>
        <path d="M 10 46C 10 65.882251 26.117749 82 46 82C 65.882251 82 82 65.882251 82 46C 82 26.117749 65.882251 10 46 10C 26.117749 10 10 26.117749 10 46"/>
      </g>
    </g>
    <g id="cr_4_cr-big_142zk1n19k7xmv-stroke" fill="none" stroke-linecap="round" stroke-linejoin="round" stroke-miterlimit="4" stroke="#2c2c2c" stroke-width="2">
      <g>
        <path d="M 10 46C 10 65.882251 26.117749 82 46 82C 65.882251 82 82 65.882251 82 46C 82 26.117749 65.882251 10 46 10C 26.117749 10 10 26.117749 10 46"/>
      </g>
    </g>
  </g>
  <g id="g-root-cr_3_cr-big_znsj0b19k7v9c-stroke-fill" data-item-order="-35404" transform="translate(242, 302)">
    <g id="cr_3_cr-big_znsj0b19k7v9c-fill" stroke="none" fill="#43dd93">
      <g>
        <path d="M 10 46C 10 65.882251 26.117749 82 46 82C 65.882251 82 82 65.882251 82 46C 82 26.117749 65.882251 10 46 10C 26.117749 10 10 26.117749 10 46"/>
      </g>
    </g>
    <g id="cr_3_cr-big_znsj0b19k7v9c-stroke" fill="none" stroke-linecap="round" stroke-linejoin="round" stroke-miterlimit="4" stroke="#2c2c2c" stroke-width="2">
      <g>
        <path d="M 10 46C 10 65.882251 26.117749 82 46 82C 65.882251 82 82 65.882251 82 46C 82 26.117749 65.882251 10 46 10C 26.117749 10 10 26.117749 10 46"/>
      </g>
    </g>
  </g>
  <g id="g-root-cr_2_cr-big_qs5irf19k7w21-stroke-fill" data-item-order="-35400" transform="translate(242, 206)">
    <g id="cr_2_cr-big_qs5irf19k7w21-fill" stroke="none" fill="#1ac3fb">
      <g>
        <path d="M 10 46C 10 65.882251 26.117749 82 46 82C 65.882251 82 82 65.882251 82 46C 82 26.117749 65.882251 10 46 10C 26.117749 10 10 26.117749 10 46"/>
      </g>
    </g>
    <g id="cr_2_cr-big_qs5irf19k7w21-stroke" fill="none" stroke-linecap="round" stroke-linejoin="round" stroke-miterlimit="4" stroke="#2c2c2c" stroke-width="2">
      <g>
        <path d="M 10 46C 10 65.882251 26.117749 82 46 82C 65.882251 82 82 65.882251 82 46C 82 26.117749 65.882251 10 46 10C 26.117749 10 10 26.117749 10 46"/>
      </g>
    </g>
  </g>
  <g id="g-root-cr_1_cr-big_qs5irf19k7w22-stroke-fill" data-item-order="-35396" transform="translate(242, 110)">
    <g id="cr_1_cr-big_qs5irf19k7w22-fill" stroke="none" fill="#4f91fc">
      <g>
        <path d="M 10 46C 10 65.882251 26.117749 82 46 82C 65.882251 82 82 65.882251 82 46C 82 26.117749 65.882251 10 46 10C 26.117749 10 10 26.117749 10 46"/>
      </g>
    </g>
    <g id="cr_1_cr-big_qs5irf19k7w22-stroke" fill="none" stroke-linecap="round" stroke-linejoin="round" stroke-miterlimit="4" stroke="#2c2c2c" stroke-width="2">
      <g>
        <path d="M 10 46C 10 65.882251 26.117749 82 46 82C 65.882251 82 82 65.882251 82 46C 82 26.117749 65.882251 10 46 10C 26.117749 10 10 26.117749 10 46"/>
      </g>
    </g>
  </g>
  <g id="g-root-ic_phot_146qekb19k7vnq-stroke-fill" data-item-order="-2304" transform="translate(254, 506)">
    <g id="ic_phot_146qekb19k7vnq-fill" stroke="none" fill="#f4f4f4">
      <g>
        <path d="M 21.84 28.5L 19.52 28.5L 10.58 44C 10.201913 44.642654 10.001724 45.374374 10 46.119999L 10 55C 10.024174 55.75127 10.331358 56.465656 10.86 57.000004L 12.02 55L 27.360001 28.5ZM 35.440002 25.5L 29.5 15.219999L 28.360001 13.22L 21.26 25.5L 23.58 25.5L 35.440002 25.5ZM 42 31L 53.060001 12L 54.200001 10L 31.780001 10C 31.226749 9.99989 30.687666 10.174917 30.24 10.5L 31.26 12.26ZM 10 10M 25.92 37L 14.96 55.98L 13.8 58L 38.040001 58L 36.879997 56L 25.92 37ZM 32.559998 42.5L 40.34 56L 41.5 58L 55 58C 56.656857 58 58 56.656857 58 55L 58 42.5L 32.559998 42.5ZM 10 10M 57.139999 10.94L 55.98 12.940001L 40.639999 39.5L 58 39.5L 58 13C 57.991066 12.227843 57.682747 11.489305 57.140003 10.940001Z"/>
      </g>
    </g>
  </g>
  <g id="g-root-ic_comm_1hhkfuj19k9amf-stroke-fill" data-item-order="-2304" transform="translate(254, 410)">
    <g id="ic_comm_1hhkfuj19k9amf-fill" stroke="none" fill="#f4f4f4">
      <g>
        <path d="M 34 10C 20.745167 10 10.000001 20.745167 10.000002 34C 10.000002 47.254833 20.745167 58 34 58C 47.254833 58 58 47.254833 58 34C 58 20.745167 47.254837 10 34 10ZM 43 40C 44.270069 39.977867 45.473351 39.426971 46.32 38.48C 46.790688 37.899536 47.545723 37.629913 48.277622 37.780933C 49.009518 37.931953 49.596165 38.478416 49.798645 39.197781C 50.001129 39.917145 49.785664 40.689381 49.240002 41.200001C 47.642345 42.963871 45.379772 43.97913 43 44C 37.760185 43.70945 33.738907 39.241367 34 34C 33.738907 28.758633 37.760185 24.29055 43 24C 45.379772 24.020874 47.642345 25.036131 49.240002 26.800001C 49.785664 27.310619 50.001129 28.082857 49.798645 28.802219C 49.596165 29.521582 49.009518 30.068047 48.277622 30.219067C 47.545723 30.370085 46.790688 30.100462 46.32 29.52C 45.473351 28.573029 44.270069 28.022129 43 28C 39.978142 28.305883 37.755943 30.972521 38 34C 37.755943 37.027481 39.978142 39.694115 43 40ZM 25 40C 26.270071 39.977867 27.473349 39.426971 28.32 38.48C 28.790686 37.899536 29.545723 37.629913 30.27762 37.780933C 31.009518 37.931953 31.596165 38.478416 31.798647 39.197781C 32.001129 39.917145 31.785664 40.689381 31.24 41.200001C 29.642345 42.963871 27.37977 43.97913 25 44C 19.760183 43.70945 15.738909 39.241367 16 34C 15.738909 28.758633 19.760183 24.29055 25 24C 27.37977 24.020874 29.642345 25.036131 31.24 26.800001C 31.785664 27.310619 32.001129 28.082857 31.798647 28.802219C 31.596165 29.521582 31.009518 30.068047 30.27762 30.219067C 29.545723 30.370085 28.790686 30.100462 28.32 29.52C 27.473349 28.573029 26.270071 28.022129 25 28C 21.978142 28.305883 19.755943 30.972521 20 34C 19.755943 37.027481 21.978142 39.694115 25 40Z"/>
      </g>
    </g>
  </g>
  <g id="g-root-ic_name_magldn19kc2rk-stroke-fill" data-item-order="-2304" transform="translate(254, 314)">
    <g id="ic_name_magldn19kc2rk-fill" stroke="none" fill="#f4f4f4">
      <g>
        <path d="M 40.379997 36.879997C 40.476463 36.712925 40.476463 36.507076 40.380001 36.34L 31.1 26.34C 30.988907 26.217052 30.824118 26.157129 30.66 26.18C 30.490135 26.207918 30.346579 26.321253 30.280001 26.48L 28.719999 30.16C 28.623539 30.327078 28.623539 30.532925 28.720001 30.700001L 38 40.700001C 38.111092 40.822948 38.275879 40.882874 38.440002 40.860001C 38.609863 40.832085 38.753422 40.718746 38.82 40.559998ZM 34 12C 21.849735 12 12.000001 21.849735 12.000002 34C 12.000002 46.150265 21.849737 56 34 56C 46.150265 56 56 46.150265 56 34C 56 21.849735 46.150265 12 34 12ZM 48.380001 25.58L 40.379997 44.580002C 40.180054 45.040958 39.762592 45.371185 39.26799 45.459652C 38.773384 45.548119 38.267334 45.383068 37.919998 45.02C 37.700001 44.82 39.540001 46.799999 27.76 34.02C 27.638336 33.900345 27.46571 33.848 27.29808 33.879929C 27.130453 33.911858 26.989157 34.023998 26.919998 34.18L 23.380001 42.580002C 23.230553 42.959347 22.931229 43.260239 22.552666 43.411663C 22.174103 43.563087 21.74984 43.551632 21.380001 43.380001C 21.004459 43.225925 20.707397 42.926228 20.556644 42.549343C 20.40589 42.172459 20.414316 41.750565 20.58 41.380001L 28.58 22.439999C 28.767765 21.923286 29.233356 21.558571 29.780001 21.5C 30.260145 21.413616 30.75102 21.579758 31.08 21.939999L 41.220001 32.940002C 41.339355 33.062172 41.512817 33.114964 41.68 33.080002C 41.848331 33.04866 41.990448 32.936462 42.059998 32.779999L 45.599998 24.380001C 45.783138 23.852036 46.244583 23.469646 46.797379 23.387766C 47.350174 23.305885 47.902653 23.538086 48.230976 23.990292C 48.559299 24.442497 48.609024 25.039726 48.360001 25.540001Z"/>
      </g>
    </g>
  </g>
  <g id="g-root-ic_publ_1cw4ny319kdjb5-stroke-fill" data-item-order="-2304" transform="translate(254, 218)">
    <g id="ic_publ_1cw4ny319kdjb5-fill" stroke="none" fill="#f4f4f4">
      <g>
        <path d="M 26.82 16L 23.66 21.74L 44.919998 57.880001L 44.919998 58L 51.48 58ZM 58 44.959999L 58 13.5C 58.000004 11.567003 56.432999 10 54.500004 10L 37.440002 10ZM 34 10L 32.220001 10C 30.930256 9.989132 29.739054 10.688482 29.120001 11.82L 28.5 12.940001L 54.919998 57.880001C 56.638348 57.66441 57.944592 56.230934 58 54.5L 58 50.860001ZM 10 10M 22 24.799999L 18.6 30.959999L 34.419998 57.880001L 34.419998 58L 41.48 58ZM 16.92 34L 10.44 45.82C 10.154475 46.341347 10.00326 46.925591 10 47.519997L 10 54.5C 10.010926 56.428452 11.571548 57.989075 13.5 58L 31.02 58Z"/>
      </g>
    </g>
  </g>
  <g id="g-root-ic_ufo_dg2jaz19kewhu-stroke-fill" data-item-order="-2304" transform="translate(254, 122)">
    <g id="ic_ufo_dg2jaz19kewhu-fill" stroke="none" fill="#f4f4f4">
      <g>
        <path d="M 50.779999 39.48C 50.49268 38.408726 49.391396 37.77314 48.32008 38.060295C 47.24876 38.34745 46.613007 39.448639 46.899998 40.519997L 51.139999 56.52C 51.30584 57.231823 51.846767 57.796497 52.550816 57.992748C 53.25486 58.188999 54.009895 57.985573 54.520046 57.462177C 55.030201 56.938786 55.214222 56.178791 55 55.48ZM 19.82 38C 18.754391 37.720551 17.663445 38.355446 17.380001 39.419998L 13.14 55.419998C 12.925778 56.11879 13.109798 56.878784 13.619952 57.40218C 14.130106 57.925571 14.885139 58.129002 15.589186 57.932751C 16.293234 57.7365 16.83416 57.171825 17 56.459999L 21.24 40.459999C 21.380281 39.945396 21.309196 39.39608 21.042547 38.934139C 20.775898 38.472198 20.335775 38.135902 19.82 38ZM 38 49.860001C 39.203453 49.748383 40.123898 48.738621 40.123898 47.529999C 40.123898 46.321381 39.203453 45.311615 38 45.200001L 31.08 45.200001C 29.876545 45.311615 28.9561 46.321381 28.9561 47.529999C 28.9561 48.738621 29.876545 49.748383 31.08 49.860001L 32.239998 49.860001L 32.239998 50.18L 29.200001 54.299999C 28.437847 55.332775 28.657228 56.787849 29.690001 57.550003C 30.722773 58.312153 32.177849 58.092773 32.940002 57.060001L 34.599998 54.82L 36.200001 57.080002C 36.978722 58.129345 38.460663 58.348724 39.510002 57.570004C 40.559341 56.791279 40.778725 55.309341 40 54.260002L 37 50.16L 37 49.860001ZM 38 40.239998C 38.008102 38.822594 37.160507 37.540237 35.85331 36.992199C 34.546112 36.44416 33.03743 36.738647 32.032288 37.738045C 31.027142 38.73745 30.724012 40.244415 31.264553 41.554733C 31.805094 42.865051 33.082569 43.719978 34.5 43.720001C 35.426414 43.725323 36.316711 43.361034 36.973671 42.707829C 37.63063 42.054626 38.000015 41.166428 38 40.239998ZM 56.959999 29C 57.256584 29.003077 57.540375 28.879374 57.739998 28.659998C 57.943413 28.447105 58.032631 28.149708 57.98 27.860001C 57.289928 23.844007 53.774273 20.931278 49.700001 21L 18.299999 21C 14.218212 20.921293 10.691198 23.836391 10 27.860001C 9.947369 28.149708 10.036588 28.447105 10.24 28.66C 10.439621 28.879374 10.723413 29.003077 11.02 28.999998L 13.28 29C 13.484316 29.002653 13.666457 29.12936 13.74 29.32C 13.899547 29.722376 14.079787 30.116236 14.280001 30.500002C 16.065369 33.888172 19.580214 36.009026 23.41 36.009026C 27.239786 36.009026 30.754631 33.888172 32.540001 30.5C 32.740211 30.116236 32.920456 29.722376 33.080002 29.320002C 33.148697 29.125612 33.333855 28.996807 33.540001 28.999998L 34.459999 29C 34.666145 28.996807 34.851299 29.125612 34.919998 29.32C 35.079548 29.722376 35.259789 30.116236 35.459999 30.500002C 37.245369 33.888172 40.760216 36.009026 44.59 36.009026C 48.419785 36.009026 51.934631 33.888172 53.720001 30.5C 53.920216 30.116236 54.100456 29.722376 54.260002 29.320002C 54.328697 29.125612 54.513851 28.996807 54.719997 28.999998ZM 23.4 32C 21.569786 31.983295 19.832561 31.191006 18.619999 29.82C 18.522778 29.660299 18.522778 29.4597 18.619999 29.299999C 18.686577 29.141253 18.830135 29.027918 19 29L 27.799999 29C 27.999443 28.999306 28.180223 29.117207 28.26 29.299999C 28.367369 29.456707 28.367369 29.663294 28.26 29.82C 27.033712 31.218311 25.259802 32.014015 23.400002 32ZM 44.599998 32C 42.768101 31.990932 41.027901 31.197287 39.82 29.82C 39.712631 29.663294 39.712631 29.456707 39.82 29.299999C 39.899776 29.117207 40.080559 28.999306 40.279999 29L 49.080002 29C 49.272152 29.007078 49.443218 29.123714 49.52 29.299999C 49.627369 29.456707 49.627369 29.663294 49.52 29.82C 48.280025 31.234344 46.480667 32.031624 44.600002 32ZM 34 10C 28.477455 9.948547 23.296272 12.666791 20.200001 17.24C 20.121464 17.397415 20.121464 17.582584 20.200001 17.74C 20.291019 17.897736 20.457924 17.996361 20.639999 18L 47.5 18C 47.703251 18.01899 47.898815 17.917297 47.999996 17.74C 48.078533 17.582584 48.078533 17.397415 48 17.24C 44.864662 12.606876 39.593025 9.880686 34 10Z"/>
      </g>
    </g>
  </g>
  <g id="g-root-tx_therexhe_mcc0mz19k7wub-stroke-fill" data-item-order="0" transform="translate(122, 50)">
    <g id="tx_therexhe_mcc0mz19k7wub-fill" stroke="none" fill="#f4f4f4">
      <g>
        <text style="font: 20px Roboto, sans-serif; white-space: pre;" font-size="20px" font-family="Roboto, sans-serif">
          <tspan x="16.4" y="34" dominant-baseline="ideographic">The Rex Heflin UFO Incident: A Chronological Exploration</tspan>
        </text>
      </g>
    </g>
  </g>
  <g id="g-root-tx_heflinso_91hzcr19k7v9g-stroke-fill" data-item-order="0" transform="translate(338, 506)">
    <g id="tx_heflinso_91hzcr19k7v9g-fill" stroke="none" fill="#fffbd5">
      <g>
        <text style="font: 20px Roboto, sans-serif; white-space: pre;" font-size="20px" font-family="Roboto, sans-serif">
          <tspan x="12" y="34" dominant-baseline="ideographic">Heflin's original photos resurface for </tspan>
          <tspan x="12" y="58" dominant-baseline="ideographic">reanalysis</tspan>
        </text>
      </g>
    </g>
  </g>
  <g id="g-root-tx_captainc_1ur5iyj19k7wn9-stroke-fill" data-item-order="0" transform="translate(338, 410)">
    <g id="tx_captainc_1ur5iyj19k7wn9-fill" stroke="none" fill="#f2ffd7">
      <g>
        <text style="font: 20px Roboto, sans-serif; white-space: pre;" font-size="20px" font-family="Roboto, sans-serif">
          <tspan x="12" y="34" dominant-baseline="ideographic">Captain C.H. Edmonds inquires about the </tspan>
          <tspan x="12" y="58" dominant-baseline="ideographic">borrowed photos</tspan>
        </text>
      </g>
    </g>
  </g>
  <g id="g-root-tx_noradrep_1lviipn19k7xfy-stroke-fill" data-item-order="0" transform="translate(338, 314)">
    <g id="tx_noradrep_1lviipn19k7xfy-fill" stroke="none" fill="#dffff0">
      <g>
        <text style="font: 20px Roboto, sans-serif; white-space: pre;" font-size="20px" font-family="Roboto, sans-serif">
          <tspan x="12" y="34" dominant-baseline="ideographic">NORAD representatives borrow Heflin's </tspan>
          <tspan x="12" y="58" dominant-baseline="ideographic">original photos</tspan>
        </text>
      </g>
    </g>
  </g>
  <g id="g-root-tx_santaana_18kohff19k7vv3-stroke-fill" data-item-order="0" transform="translate(338, 218)">
    <g id="tx_santaana_18kohff19k7vv3-fill" stroke="none" fill="#e5f8ff">
      <g>
        <text style="font: 20px Roboto, sans-serif; white-space: pre;" font-size="20px" font-family="Roboto, sans-serif">
          <tspan x="12" y="34" dominant-baseline="ideographic">Santa Ana Register publishes Heflin's </tspan>
          <tspan x="12" y="58" dominant-baseline="ideographic">photos</tspan>
        </text>
      </g>
    </g>
  </g>
  <g id="g-root-tx_rexhefli_zp1h6j19k7xfk-stroke-fill" data-item-order="0" transform="translate(338, 122)">
    <g id="tx_rexhefli_zp1h6j19k7xfk-fill" stroke="none" fill="#ebf2ff">
      <g>
        <text style="font: 20px Roboto, sans-serif; white-space: pre;" font-size="20px" font-family="Roboto, sans-serif">
          <tspan x="12" y="34" dominant-baseline="ideographic">Rex Heflin observes a silvery craft and takes </tspan>
          <tspan x="12" y="58" dominant-baseline="ideographic">photos</tspan>
        </text>
      </g>
    </g>
  </g>
  <g id="g-root-tx_1993_me7fwb19k7vup-stroke-fill" data-item-order="0" transform="translate(170, 518)">
    <g id="tx_1993_me7fwb19k7vup-fill" stroke="none" fill="#ffe711">
      <g>
        <text style="font: bold 20px Roboto, sans-serif; white-space: pre;" font-weight="bold" font-size="20px" font-family="Roboto, sans-serif">
          <tspan x="22.09" y="34" dominant-baseline="ideographic">1993</tspan>
        </text>
      </g>
    </g>
  </g>
  <g id="g-root-tx_october1_dikfnf19k7wne-stroke-fill" data-item-order="0" transform="translate(62, 422)">
    <g id="tx_october1_dikfnf19k7wne-fill" stroke="none" fill="#a6da37">
      <g>
        <text style="font: bold 20px Roboto, sans-serif; white-space: pre;" font-weight="bold" font-size="20px" font-family="Roboto, sans-serif">
          <tspan x="20.91" y="34" dominant-baseline="ideographic">October 11, 1967</tspan>
        </text>
      </g>
    </g>
  </g>
  <g id="g-root-tx_septembe_7qed719k7v2j-stroke-fill" data-item-order="0" transform="translate(38, 326)">
    <g id="tx_septembe_7qed719k7v2j-fill" stroke="none" fill="#43dd93">
      <g>
        <text style="font: bold 20px Roboto, sans-serif; white-space: pre;" font-weight="bold" font-size="20px" font-family="Roboto, sans-serif">
          <tspan x="17.66" y="34" dominant-baseline="ideographic">September 22, 1965</tspan>
        </text>
      </g>
    </g>
  </g>
  <g id="g-root-tx_septembe_1ut0y7v19k7vno-stroke-fill" data-item-order="0" transform="translate(38, 230)">
    <g id="tx_septembe_1ut0y7v19k7vno-fill" stroke="none" fill="#1ac3fb">
      <g>
        <text style="font: bold 20px Roboto, sans-serif; white-space: pre;" font-weight="bold" font-size="20px" font-family="Roboto, sans-serif">
          <tspan x="17.66" y="34" dominant-baseline="ideographic">September 20, 1965</tspan>
        </text>
      </g>
    </g>
  </g>
  <g id="g-root-tx_august31_1hhkfuj19k7x8l-stroke-fill" data-item-order="0" transform="translate(26, 122)">
    <g id="tx_august31_1hhkfuj19k7x8l-fill" stroke="none" fill="#4f91fc">
      <g>
        <text style="font: bold 20px Roboto, sans-serif; white-space: pre;" font-weight="bold" font-size="20px" font-family="Roboto, sans-serif">
          <tspan x="14.13" y="34" dominant-baseline="ideographic">August 3, 1965, 12:30 </tspan>
          <tspan x="129.22" y="58" dominant-baseline="ideographic">p.m. PDT</tspan>
        </text>
      </g>
    </g>
  </g>
</svg>
