<?xml version='1.0' encoding='utf-8'?>
<svg xmlns="http://www.w3.org/2000/svg" xmlns:xlink="http://www.w3.org/1999/xlink" width="744" height="408" viewBox="0 0 744 408" style="fill:none;stroke:none;fill-rule:evenodd;clip-rule:evenodd;stroke-linecap:round;stroke-linejoin:round;stroke-miterlimit:1.5;" version="1.1">
  <style class="text-font-style fontImports" data-font-family="Roboto">@import url('https://fonts.googleapis.com/css2?family=Roboto:wght@400;700&amp;display=block');</style>
  <rect x="0" y="0" width="744" height="408" fill="#252a34" stroke="none" id="programmatic_background"/>
  <g id="g-root-tf_18lbkmz1cc6olj-stroke-fill" data-item-order="-276480" transform="translate(12, 12)">
    <g id="tf_18lbkmz1cc6olj-fill" stroke="none" fill="#2c2c2c">
      <g>
        <path d="M 0 0L 720 0L 720 384L 0 384Z"/>
      </g>
    </g>
    <defs>
      <pattern id="crawlingPattern-00bcfb62" x="0" y="0" width="12" height="12" patternUnits="userSpaceOnUse" fill="#00bcfb62">
        <use href="#crawlingSymbol"/>
      </pattern>
      <symbol id="crawlingSymbol">
        <g>
          <path d="M -12.5 12.5 l 13 -13 l 6 0 l -13 13 Z M -0.5 12.5 l 13 -13 l 6 0 l -13 13 Z M 11.5 12.5 l 13 -13 l 6 0 l -13 13 Z"/>
        </g>
      </symbol>
      <pattern id="crawlingPattern-0060fb20" x="0" y="0" width="12" height="12" patternUnits="userSpaceOnUse" fill="#0060fb20">
        <use href="#crawlingSymbol"/>
      </pattern>
      <pattern id="crawlingPattern-0000001b" x="0" y="0" width="12" height="12" patternUnits="userSpaceOnUse" fill="#0000001b">
        <use href="#crawlingSymbol"/>
      </pattern>
      <pattern id="crawlingPattern-00baff39" x="0" y="0" width="12" height="12" patternUnits="userSpaceOnUse" fill="#00baff39">
        <use href="#crawlingSymbol"/>
      </pattern>
      <pattern id="crawlingPattern-0059ff37" x="0" y="0" width="12" height="12" patternUnits="userSpaceOnUse" fill="#0059ff37">
        <use href="#crawlingSymbol"/>
      </pattern>
      <pattern id="crawlingPattern-00a3d9d9" x="0" y="0" width="12" height="12" patternUnits="userSpaceOnUse" fill="#00a3d9d9">
        <use href="#crawlingSymbol"/>
      </pattern>
      <pattern id="crawlingPattern-0060fba2" x="0" y="0" width="12" height="12" patternUnits="userSpaceOnUse" fill="#0060fba2">
        <use href="#crawlingSymbol"/>
      </pattern>
      <pattern id="crawlingPattern-c1c1c11a" x="0" y="0" width="12" height="12" patternUnits="userSpaceOnUse" fill="#c1c1c11a">
        <use href="#crawlingSymbol"/>
      </pattern>
      <pattern id="crawlingPattern-5f5f5f1a" x="0" y="0" width="12" height="12" patternUnits="userSpaceOnUse" fill="#5f5f5f1a">
        <use href="#crawlingSymbol"/>
      </pattern>
    </defs>
  </g>
  <g id="g-root-sy_-1_Vector_1czw4l71cc3uvg-stroke-fill" data-item-order="-14683" transform="translate(374, 182)">
    <g id="sy_-1_Vector_1czw4l71cc3uvg-stroke" fill="none" stroke-linecap="round" stroke-linejoin="round" stroke-miterlimit="4" stroke="#f4f4f4" stroke-width="2">
      <g>
        <path d="M 10 34L 10 10"/>
      </g>
    </g>
  </g>
  <g id="g-root-sy_-1_cu_18k2mgr1cc3vnp-stroke-fill" data-item-order="-14679" transform="translate(374, 278)">
    <g id="sy_-1_cu_18k2mgr1cc3vnp-stroke" fill="none" stroke-linecap="round" stroke-linejoin="round" stroke-miterlimit="4" stroke="#f4f4f4" stroke-width="2">
      <g>
        <path d="M 10 44L 10 10"/>
        <path d="M 3.5 38L 10 44.5L 16.5 38" stroke-dasharray="none"/>
      </g>
    </g>
  </g>
  <g id="g-root-cr_2_cr-big_zp23az1cc3tam-stroke-fill" data-item-order="-14676" transform="translate(338, 206)">
    <g id="cr_2_cr-big_zp23az1cc3tam-fill" stroke="none" fill="#1ac3fb">
      <g>
        <path d="M 10 46C 10 65.882251 26.117749 82 46 82C 65.882251 82 82 65.882251 82 46C 82 26.117749 65.882251 10 46 10C 26.117749 10 10 26.117749 10 46"/>
      </g>
    </g>
    <g id="cr_2_cr-big_zp23az1cc3tam-stroke" fill="none" stroke-linecap="round" stroke-linejoin="round" stroke-miterlimit="4" stroke="#2c2c2c" stroke-width="2">
      <g>
        <path d="M 10 46C 10 65.882251 26.117749 82 46 82C 65.882251 82 82 65.882251 82 46C 82 26.117749 65.882251 10 46 10C 26.117749 10 10 26.117749 10 46"/>
      </g>
    </g>
  </g>
  <g id="g-root-cr_1_cr-big_zp23az1cc3tan-stroke-fill" data-item-order="-14672" transform="translate(338, 110)">
    <g id="cr_1_cr-big_zp23az1cc3tan-fill" stroke="none" fill="#4f91fc">
      <g>
        <path d="M 10 46C 10 65.882251 26.117749 82 46 82C 65.882251 82 82 65.882251 82 46C 82 26.117749 65.882251 10 46 10C 26.117749 10 10 26.117749 10 46"/>
      </g>
    </g>
    <g id="cr_1_cr-big_zp23az1cc3tan-stroke" fill="none" stroke-linecap="round" stroke-linejoin="round" stroke-miterlimit="4" stroke="#2c2c2c" stroke-width="2">
      <g>
        <path d="M 10 46C 10 65.882251 26.117749 82 46 82C 65.882251 82 82 65.882251 82 46C 82 26.117749 65.882251 10 46 10C 26.117749 10 10 26.117749 10 46"/>
      </g>
    </g>
  </g>
  <g id="g-root-ic_phot_1d1rjuj1cc3tvx-stroke-fill" data-item-order="-2304" transform="translate(350, 218)">
    <g id="ic_phot_1d1rjuj1cc3tvx-fill" stroke="none" fill="#f4f4f4">
      <g>
        <path d="M 44.900002 22C 45.166935 16.094635 40.957779 10.930026 35.119999 10C 34.838158 9.970387 34.556442 10.05707 34.339996 10.24C 34.109848 10.448809 33.98513 10.749598 34 11.059999L 34 34C 40.314316 33.676468 45.183178 28.316254 44.900002 22ZM 57.700001 34.34C 57.505062 34.125778 57.229622 34.002556 56.939999 34L 34 34C 33.676468 27.685684 28.316254 22.816822 22 23.1C 16.094635 22.833065 10.930026 27.042223 10 32.879997C 9.970387 33.161839 10.05707 33.443558 10.24 33.659996C 10.448809 33.890152 10.749598 34.01487 11.059999 34L 34 34C 27.685684 34.323532 22.816822 39.683746 23.1 46C 22.833065 51.905365 27.042223 57.069973 32.879997 58C 33.161839 58.02961 33.443558 57.942928 33.659996 57.759998C 33.874214 57.56506 33.997437 57.289623 34 56.999996L 34 34C 34.323532 40.314316 39.683746 45.183178 46 44.900002C 51.905365 45.166935 57.069973 40.957779 58 35.119999C 58.013454 34.829491 57.904655 34.546616 57.699997 34.339996Z"/>
      </g>
    </g>
  </g>
  <g id="g-root-ic_push_hzni2j1cc581y-stroke-fill" data-item-order="-2304" transform="translate(350, 122)">
    <g id="ic_push_hzni2j1cc581y-fill" stroke="none" fill="#f4f4f4">
      <g>
        <path d="M 28.84 18.82C 28.84 21.250053 30.809948 23.220001 33.240002 23.220001C 35.670052 23.220001 37.639999 21.250053 37.639999 18.82C 37.639999 16.389948 35.670052 14.42 33.240002 14.42C 30.809948 14.42 28.84 16.389948 28.84 18.82M 22.18 47.220001C 23.130775 47.22998 23.99929 46.68227 24.400002 45.820004L 26.9 40.5C 27.015848 40.274288 27.282375 40.17112 27.52 40.260002L 31.02 41.580002C 31.151371 41.613605 31.256771 41.711475 31.300001 41.84C 31.35001 41.961731 31.35001 42.09827 31.299999 42.220001L 30.639999 43.860001C 30.333723 44.612347 30.42193 45.467781 30.875288 46.1418C 31.328646 46.815819 32.0877 47.220028 32.900002 47.220001C 33.902855 47.219391 34.804947 46.610085 35.18 45.68L 35.779999 44.18C 35.859779 44.002937 35.819759 43.794846 35.68 43.66L 25.52 33.48C 25.409412 33.370518 25.254158 33.318764 25.1 33.34C 24.937218 33.359005 24.798489 33.466904 24.74 33.619999L 20 43.740002C 19.657034 44.492088 19.71471 45.366142 20.153528 46.066643C 20.592346 46.767139 21.353638 47.200424 22.18 47.220001ZM 58 34C 58 20.745167 47.254833 10.000001 34 10.000002C 20.745167 10.000002 10.000002 20.745167 10.000002 34C 10.000001 47.254833 20.745167 58 34 58C 47.254837 58 58 47.254837 58 34ZM 34 14C 38.327404 14 42.538078 15.403557 46 18C 46.165325 18.134743 46.235855 18.354166 46.18 18.560001C 46.10387 18.757521 45.911606 18.885696 45.700001 18.880001L 42.82 18.880001C 41.715431 18.880001 40.82 19.775431 40.82 20.880001L 40.82 24C 40.81234 24.20294 40.944572 24.384758 41.139999 24.439999C 42.830128 25.098272 43.94313 26.726208 43.94313 28.540001C 43.94313 30.353794 42.830128 31.98173 41.139999 32.639999C 40.94936 32.713543 40.822655 32.895683 40.82 33.099998L 40.82 37.84C 40.820694 38.039444 40.702797 38.220222 40.52 38.299999C 40.336166 38.37735 40.123947 38.338051 39.98 38.200001L 34.779999 33L 32.779999 31L 39.599998 31C 40.867584 30.885357 41.838417 29.822756 41.838417 28.550001C 41.838417 27.277245 40.867584 26.214643 39.599998 26.1L 29.799999 26.1C 29.415699 26.099968 29.037516 26.196234 28.699999 26.379999C 28.506512 26.483009 28.26782 26.441854 28.119999 26.279999L 27.02 25.18L 21.119999 19.32C 21.017647 19.229851 20.965443 19.095613 20.98 18.959999C 20.981531 18.818726 21.047899 18.685989 21.16 18.6C 24.768808 15.609566 29.313227 13.981503 34 14ZM 45.779999 49.619999C 45.912956 49.701233 45.995754 49.84425 46 50C 45.99081 50.143955 45.91737 50.276146 45.799999 50.359997C 45.162823 50.843132 44.494732 51.284073 43.800003 51.68C 37.491936 55.145798 29.808128 54.954849 23.68 51.18C 23.495155 51.059013 23.406933 50.834446 23.459999 50.619999C 23.529362 50.414585 23.723206 50.277279 23.939999 50.279999L 37.940002 50.279999C 38.334248 50.280151 38.7118 50.12085 38.986778 49.838333C 39.261765 49.555817 39.410805 49.174099 39.400002 48.780003C 39.389061 47.981487 38.73859 47.339928 37.940002 47.34L 19.18 47.34C 19.033035 47.338764 18.894056 47.272934 18.799999 47.16C 13.291202 40.818188 12.332429 31.709852 16.4 24.360001C 16.795929 23.665272 17.23687 22.997177 17.720001 22.360001C 17.746723 22.200491 17.851978 22.065165 18 22C 18.141499 21.985401 18.281794 22.037086 18.380001 22.139999ZM 48.759998 47.060001C 48.742775 47.001236 48.742775 46.938763 48.759998 46.880001L 48.759998 21.68C 48.747795 21.469593 48.874271 21.275843 49.0718 21.202343C 49.269329 21.128845 49.491692 21.192795 49.619999 21.360001C 55.743557 28.871761 55.600285 39.692993 49.279999 47.040001C 49.240265 47.101086 49.172859 47.138535 49.099998 47.139999C 49.042744 47.165668 48.977253 47.165668 48.919998 47.139999Z"/>
      </g>
    </g>
  </g>
  <g id="g-root-tx_theenigm_v98l6j1cc3u2w-stroke-fill" data-item-order="0" transform="translate(128, 50)">
    <g id="tx_theenigm_v98l6j1cc3u2w-fill" stroke="none" fill="#f4f4f4">
      <g>
        <text style="font: 20px Roboto, sans-serif; white-space: pre;" font-size="20px" font-family="Roboto, sans-serif">
          <tspan x="16.69" y="34" dominant-baseline="ideographic">The Enigmatic Journey of the Heflin UFO Photographs</tspan>
        </text>
      </g>
    </g>
  </g>
  <g id="g-root-tx_reappear_hxs2t71cc3vnt-stroke-fill" data-item-order="0" transform="translate(434, 266)">
    <g id="tx_reappear_hxs2t71cc3vnt-fill" stroke="none" fill="#e5f8ff">
      <g>
        <text style="font: 20px Roboto, sans-serif; white-space: pre;" font-size="20px" font-family="Roboto, sans-serif">
          <tspan x="12" y="34" dominant-baseline="ideographic">Reappearance of original </tspan>
          <tspan x="12" y="58" dominant-baseline="ideographic">Polaroids "under mysterious </tspan>
          <tspan x="12" y="82" dominant-baseline="ideographic">circumstances</tspan>
        </text>
      </g>
    </g>
  </g>
  <g id="g-root-tx_confisca_dil1rv1cc3taa-stroke-fill" data-item-order="0" transform="translate(26, 170)">
    <g id="tx_confisca_dil1rv1cc3taa-fill" stroke="none" fill="#ebf2ff">
      <g>
        <text style="font: 20px Roboto, sans-serif; white-space: pre;" font-size="20px" font-family="Roboto, sans-serif">
          <tspan x="23.02" y="34" dominant-baseline="ideographic">Confiscation of original photos </tspan>
          <tspan x="62.05" y="58" dominant-baseline="ideographic">by NORAD representatives</tspan>
        </text>
      </g>
    </g>
  </g>
  <g id="g-root-tx_1993_74jej1cc3uv7-stroke-fill" data-item-order="0" transform="translate(434, 230)">
    <g id="tx_1993_74jej1cc3uv7-fill" stroke="none" fill="#1ac3fb">
      <g>
        <text style="font: bold 20px Roboto, sans-serif; white-space: pre;" font-weight="bold" font-size="20px" font-family="Roboto, sans-serif">
          <tspan x="12" y="34" dominant-baseline="ideographic">1993</tspan>
        </text>
      </g>
    </g>
  </g>
  <g id="g-root-tx_1965_1qcll4r1cc3vgs-stroke-fill" data-item-order="0" transform="translate(254, 134)">
    <g id="tx_1965_1qcll4r1cc3vgs-fill" stroke="none" fill="#4f91fc">
      <g>
        <text style="font: bold 20px Roboto, sans-serif; white-space: pre;" font-weight="bold" font-size="20px" font-family="Roboto, sans-serif">
          <tspan x="22.09" y="34" dominant-baseline="ideographic">1965</tspan>
        </text>
      </g>
    </g>
  </g>
</svg>
