<?xml version='1.0' encoding='utf-8'?>
<svg xmlns="http://www.w3.org/2000/svg" xmlns:xlink="http://www.w3.org/1999/xlink" width="1056" height="708" viewBox="0 0 1056 708" style="fill:none;stroke:none;fill-rule:evenodd;clip-rule:evenodd;stroke-linecap:round;stroke-linejoin:round;stroke-miterlimit:1.5;" version="1.1">
  <style class="text-font-style fontImports" data-font-family="Roboto">@import url('https://fonts.googleapis.com/css2?family=Roboto:wght@400;700&amp;display=block');</style>
  <rect x="0" y="0" width="1056" height="708" fill="#252a34" stroke="none" id="programmatic_background"/>
  <g id="g-root-tf_4nkcaj1cc9fd1-stroke-fill" data-item-order="-697680" transform="translate(18, 12)"/>
  <g id="g-root-sy_4_cu_147zsjf1cc10jx-stroke-fill" data-item-order="-317369" transform="translate(608, 386)">
    <g id="sy_4_cu_147zsjf1cc10jx-stroke" fill="none" stroke-linecap="round" stroke-linejoin="round" stroke-miterlimit="4" stroke="#43dd93" stroke-width="2">
      <g>
        <path d="M 33.850586 154.000488L 45.850586 154.000488M 58.200195 70L 70.200195 70M 87.9997 10L 21.9997 238L 10 238"/>
      </g>
    </g>
  </g>
  <g id="g-root-sy_3_cu_zs6aez1cc11c6-stroke-fill" data-item-order="-317365" transform="translate(608, 158.00048828125)">
    <g id="sy_3_cu_zs6aez1cc11c6-stroke" fill="none" stroke-linecap="round" stroke-linejoin="round" stroke-miterlimit="4" stroke="#fb6762" stroke-width="2">
      <g>
        <path d="M 33.84668 93.999512L 45.84668 93.999512M 58.195313 177.999512L 70.195313 177.999512M 87.9997 238L 21.9997 10L 10 10"/>
      </g>
    </g>
  </g>
  <g id="g-root-sy_2_cu_zs6aez1cc11c7-stroke-fill" data-item-order="-317361" transform="translate(296, 385.99951171875)">
    <g id="sy_2_cu_zs6aez1cc11c7-stroke" fill="none" stroke-linecap="round" stroke-linejoin="round" stroke-miterlimit="4" stroke="#4f91fc" stroke-width="2">
      <g>
        <path d="M 33.851563 154.000488L 45.851563 154.000488M 58.200195 70.000488L 70.200195 70.000488M 87.9997 10L 21.9997 238L 10 238"/>
      </g>
    </g>
  </g>
  <g id="g-root-sy_1_cu_vccsaj1cc124g-stroke-fill" data-item-order="-317357" transform="translate(296, 158.00048828125)">
    <g id="sy_1_cu_vccsaj1cc124g-stroke" fill="none" stroke-linecap="round" stroke-linejoin="round" stroke-miterlimit="4" stroke="#b7b7b7" stroke-width="2">
      <g>
        <path d="M 33.851563 93.999512L 45.851563 93.999512M 58.200195 177.999512L 70.200195 177.999512M 87.9997 238L 21.9997 10L 10 10"/>
      </g>
    </g>
  </g>
  <g id="g-root-sy_-1_line_m7cnqz1cc2ebt-stroke-fill" data-item-order="-317351" transform="translate(32, 386)">
    <g id="sy_-1_line_m7cnqz1cc2ebt-stroke" fill="none" stroke-linecap="round" stroke-linejoin="round" stroke-miterlimit="4" stroke="#f4f4f4" stroke-width="2">
      <g>
        <path d="M 704 10L 10 10"/>
        <path d="M 698 16.5L 704.5 10L 698 3.5" stroke-dasharray="none"/>
      </g>
    </g>
  </g>
  <g id="g-root-tx_unresolv_hrj5mj1cc2f42-stroke-fill" data-item-order="0" transform="translate(800, 362)">
    <g id="tx_unresolv_hrj5mj1cc2f42-fill" stroke="none" fill="#f4f4f4">
      <g>
        <text style="font: 20px Roboto, sans-serif; white-space: pre;" font-size="20px" font-family="Roboto, sans-serif">
          <tspan x="12" y="34" dominant-baseline="ideographic">Unresolved Questions </tspan>
          <tspan x="12" y="58" dominant-baseline="ideographic">in Heflin UFO Case</tspan>
        </text>
      </g>
    </g>
  </g>
  <g id="g-root-tx_limitati_1um662j1cc2e4r-stroke-fill" data-item-order="0" transform="translate(428, 422)">
    <g id="tx_limitati_1um662j1cc2e4r-fill" stroke="none" fill="#f4f4f4">
      <g>
        <text style="font: 20px Roboto, sans-serif; white-space: pre;" font-size="20px" font-family="Roboto, sans-serif">
          <tspan x="101.03" y="34" dominant-baseline="ideographic">Limitations of </tspan>
          <tspan x="20.5" y="58" dominant-baseline="ideographic">Photographic Evidence</tspan>
        </text>
      </g>
    </g>
  </g>
  <g id="g-root-tx_historic_1q6cny31cc2ex0-stroke-fill" data-item-order="0" transform="translate(416, 518)">
    <g id="tx_historic_1q6cny31cc2ex0-fill" stroke="none" fill="#f4f4f4">
      <g>
        <text style="font: 20px Roboto, sans-serif; white-space: pre;" font-size="20px" font-family="Roboto, sans-serif">
          <tspan x="13.55" y="34" dominant-baseline="ideographic">Historical Significance</tspan>
        </text>
      </g>
    </g>
  </g>
  <g id="g-root-tx_investig_1cuw5kr1cc2ghx-stroke-fill" data-item-order="0" transform="translate(416, 590)">
    <g id="tx_investig_1cuw5kr1cc2ghx-fill" stroke="none" fill="#f4f4f4">
      <g>
        <text style="font: 20px Roboto, sans-serif; white-space: pre;" font-size="20px" font-family="Roboto, sans-serif">
          <tspan x="39.94" y="34" dominant-baseline="ideographic">Investigative </tspan>
          <tspan x="15.5" y="58" dominant-baseline="ideographic">Documentation</tspan>
        </text>
      </g>
    </g>
  </g>
  <g id="g-root-tx_lackofad_zk24aj1cc2ex2-stroke-fill" data-item-order="0" transform="translate(476, 302)">
    <g id="tx_lackofad_zk24aj1cc2ex2-fill" stroke="none" fill="#f4f4f4">
      <g>
        <text style="font: 20px Roboto, sans-serif; white-space: pre;" font-size="20px" font-family="Roboto, sans-serif">
          <tspan x="15.39" y="34" dominant-baseline="ideographic">Lack of Additional </tspan>
          <tspan x="83.63" y="58" dominant-baseline="ideographic">Witnesses</tspan>
        </text>
      </g>
    </g>
  </g>
  <g id="g-root-tx_stereosc_qof41n1cc2fpr-stroke-fill" data-item-order="0" transform="translate(416, 218)">
    <g id="tx_stereosc_qof41n1cc2fpr-fill" stroke="none" fill="#f4f4f4">
      <g>
        <text style="font: 20px Roboto, sans-serif; white-space: pre;" font-size="20px" font-family="Roboto, sans-serif">
          <tspan x="15.84" y="34" dominant-baseline="ideographic">Stereoscopic Analysis </tspan>
          <tspan x="150.52" y="58" dominant-baseline="ideographic">Claims</tspan>
        </text>
      </g>
    </g>
  </g>
  <g id="g-root-tx_verifica_m8llx71cc2gi0-stroke-fill" data-item-order="0" transform="translate(344, 146)">
    <g id="tx_verifica_m8llx71cc2gi0-fill" stroke="none" fill="#f4f4f4">
      <g>
        <text style="font: 20px Roboto, sans-serif; white-space: pre;" font-size="20px" font-family="Roboto, sans-serif">
          <tspan x="19.75" y="34" dominant-baseline="ideographic">Verification Challenges</tspan>
        </text>
      </g>
    </g>
  </g>
  <g id="g-root-tx_radioint_4hy2ij1cc2fpd-stroke-fill" data-item-order="0" transform="translate(164, 434)">
    <g id="tx_radioint_4hy2ij1cc2fpd-fill" stroke="none" fill="#f4f4f4">
      <g>
        <text style="font: 20px Roboto, sans-serif; white-space: pre;" font-size="20px" font-family="Roboto, sans-serif">
          <tspan x="13.08" y="34" dominant-baseline="ideographic">Radio Interference</tspan>
        </text>
      </g>
    </g>
  </g>
  <g id="g-root-tx_smokerin_1unf48r1cc2gay-stroke-fill" data-item-order="0" transform="translate(176, 506)">
    <g id="tx_smokerin_1unf48r1cc2gay-fill" stroke="none" fill="#f4f4f4">
      <g>
        <text style="font: 20px Roboto, sans-serif; white-space: pre;" font-size="20px" font-family="Roboto, sans-serif">
          <tspan x="34.2" y="34" dominant-baseline="ideographic">Smoke Ring </tspan>
          <tspan x="21.66" y="58" dominant-baseline="ideographic">Phenomenon</tspan>
        </text>
      </g>
    </g>
  </g>
  <g id="g-root-tx_unexplai_1hcl2yj1cc2eq3-stroke-fill" data-item-order="0" transform="translate(128, 590)">
    <g id="tx_unexplai_1hcl2yj1cc2eq3-fill" stroke="none" fill="#f4f4f4">
      <g>
        <text style="font: 20px Roboto, sans-serif; white-space: pre;" font-size="20px" font-family="Roboto, sans-serif">
          <tspan x="18.69" y="34" dominant-baseline="ideographic">Unexplained </tspan>
          <tspan x="21.23" y="58" dominant-baseline="ideographic">Phenomena</tspan>
        </text>
      </g>
    </g>
  </g>
  <g id="g-root-tx_circumst_1cwrku31cc2fic-stroke-fill" data-item-order="0" transform="translate(116, 302)">
    <g id="tx_circumst_1cwrku31cc2fic-fill" stroke="none" fill="#f4f4f4">
      <g>
        <text style="font: 20px Roboto, sans-serif; white-space: pre;" font-size="20px" font-family="Roboto, sans-serif">
          <tspan x="17.06" y="34" dominant-baseline="ideographic">Circumstances of 1993 </tspan>
          <tspan x="96.86" y="58" dominant-baseline="ideographic">Reappearance</tspan>
        </text>
      </g>
    </g>
  </g>
  <g id="g-root-tx_identity_zlb2gr1cc2h39-stroke-fill" data-item-order="0" transform="translate(140, 218)">
    <g id="tx_identity_zlb2gr1cc2h39-fill" stroke="none" fill="#f4f4f4">
      <g>
        <text style="font: 20px Roboto, sans-serif; white-space: pre;" font-size="20px" font-family="Roboto, sans-serif">
          <tspan x="15.41" y="34" dominant-baseline="ideographic">Identity of NORAD </tspan>
          <tspan x="33.34" y="58" dominant-baseline="ideographic">Representatives</tspan>
        </text>
      </g>
    </g>
  </g>
  <g id="g-root-tx_confisca_mah16j1cc2fie-stroke-fill" data-item-order="0" transform="translate(92, 122)">
    <g id="tx_confisca_mah16j1cc2fie-fill" stroke="none" fill="#f4f4f4">
      <g>
        <text style="font: 20px Roboto, sans-serif; white-space: pre;" font-size="20px" font-family="Roboto, sans-serif">
          <tspan x="13.75" y="34" dominant-baseline="ideographic">Confiscation and </tspan>
          <tspan x="13.53" y="58" dominant-baseline="ideographic">Reappearance of </tspan>
          <tspan x="100.88" y="82" dominant-baseline="ideographic">Photos</tspan>
        </text>
      </g>
    </g>
  </g>
  <g id="g-root-tx_analyzin_8z0it71cc2h3b-stroke-fill" data-item-order="0" transform="translate(296, 50)">
    <g id="tx_analyzin_8z0it71cc2h3b-fill" stroke="none" fill="#f4f4f4">
      <g>
        <text style="font: 20px Roboto, sans-serif; white-space: pre;" font-size="20px" font-family="Roboto, sans-serif">
          <tspan x="13.16" y="34" dominant-baseline="ideographic">Analyzing the Heflin UFO Photographs Controversy</tspan>
        </text>
      </g>
    </g>
    <defs>
      <pattern id="crawlingPattern-0000001b" x="0" y="0" width="12" height="12" patternUnits="userSpaceOnUse" fill="#0000001b">
        <use href="#crawlingSymbol"/>
      </pattern>
      <symbol id="crawlingSymbol">
        <g>
          <path d="M -12.5 12.5 l 13 -13 l 6 0 l -13 13 Z M -0.5 12.5 l 13 -13 l 6 0 l -13 13 Z M 11.5 12.5 l 13 -13 l 6 0 l -13 13 Z"/>
        </g>
      </symbol>
    </defs>
  </g>
  <g id="g-root-ic_lock_4jthrv1cc2eps-stroke-fill" data-item-order="0" transform="translate(260, 140)">
    <g id="ic_lock_4jthrv1cc2eps-stroke" fill="none" stroke-linecap="round" stroke-linejoin="round" stroke-miterlimit="4" stroke="#f4f4f4" stroke-width="2">
      <g>
        <path d="M 31.75 33.251499L 45.25 33.251499L 45.25 45.25L 31.75 45.25ZM 36.625 39.344498C 36.625 40.380035 37.464466 41.219498 38.5 41.219498C 39.535534 41.219498 40.375 40.380035 40.375 39.344498C 40.375 38.308968 39.535534 37.469498 38.5 37.469498C 37.464466 37.469498 36.625 38.308968 36.625 39.344498ZM 42.25 31C 42.25 28.928932 40.571068 27.25 38.5 27.25C 36.428932 27.25 34.75 28.928932 34.75 31L 34.75 33.25L 42.25 33.25ZM 16.75 21.25C 16.75 22.906855 18.093145 24.25 19.75 24.25C 21.406855 24.25 22.75 22.906855 22.75 21.25C 22.75 19.593145 21.406855 18.25 19.75 18.25C 18.093145 18.25 16.75 19.593145 16.75 21.25ZM 30.0415 28.716999L 27.886 25.267C 27.748947 25.047714 27.508595 24.914497 27.25 24.914497C 26.991405 24.914497 26.751053 25.047714 26.614 25.267L 22.657 31.599998L 21.042999 29.017C 20.905947 28.797714 20.665592 28.664497 20.407 28.664497C 20.148407 28.664497 19.908054 28.797714 19.771 29.017L 15.25 36.25L 27.25 36.25M 27.25 45.25L 12.25 45.25C 11.421573 45.25 10.75 44.578426 10.75 43.75L 10.75 12.25C 10.75 11.421573 11.421573 10.75 12.25 10.75L 32.189499 10.75C 32.587292 10.750085 32.968761 10.908176 33.25 11.1895L 38.810501 16.75C 39.091827 17.031239 39.249916 17.412708 39.25 17.810499L 39.25 22.75"/>
      </g>
    </g>
  </g>
  <g id="g-root-ic_muha_58xtn1cc3ua1-stroke-fill" data-item-order="0" transform="translate(260, 596)">
    <g id="ic_muha_58xtn1cc3ua1-stroke" fill="none" stroke-linecap="round" stroke-linejoin="round" stroke-miterlimit="4" stroke="#f4f4f4" stroke-width="2">
      <g>
        <path d="M 28 39.324997C 29.49115 39.324997 30.700001 38.11615 30.700001 36.625C 30.700001 35.13385 29.49115 33.924999 28 33.924999C 26.50885 33.924999 25.299999 35.13385 25.299999 36.625C 25.299999 38.11615 26.50885 39.324997 28 39.324997ZM 24.25 44.875L 24.25 43.074997C 24.25 40.974998 25.900002 39.324997 28 39.324997C 30.099998 39.324997 31.75 40.974998 31.75 43.074997L 31.75 44.875M 10 10M 23.425014 30.92515L 11.275009 38.725151M 11.275 11.125092L 13.075 11.125092C 14.725 11.125092 16.075001 12.47509 16.075001 14.12509C 18.174999 14.12509 19.825001 15.77509 19.825001 17.87509L 20.575001 17.87509C 22.224998 17.87509 23.575001 19.22509 23.575001 20.87509C 23.575001 20.87509 23.724998 23.57509 21.475 24.32509C 19.975 24.775091 18.325001 23.72509 17.875 22.07509L 17.875 21.925091C 17.725 22.07509 17.424999 22.075075 17.125 22.225075C 15.475 22.525074 13.975 21.625074 13.525 19.975075L 13.525 19.07509C 13.225 19.22509 12.925 19.37509 12.625 19.37509C 12.025 19.525089 11.575 19.525089 11.125 19.37509M 23.424999 30.92515C 21.025 30.17515 19.375 27.92515 19.375 25.225149C 19.375 24.775105 19.375 24.475105 19.525 24.175106M 14.425 26.125151C 14.425 26.125151 14.425 31.67515 18.775 33.77515M 11.275009 31.974998C 11.725015 33.325001 12.625015 35.275002 14.275015 36.625M 10 10M 32.575001 30.92515L 44.724998 38.725151M 44.724998 11.125092L 42.925003 11.125092C 41.275002 11.125092 39.925003 12.47509 39.925003 14.12509C 37.824997 14.12509 36.175003 15.77509 36.175003 17.87509L 35.425003 17.87509C 33.775002 17.87509 32.424999 19.22509 32.424999 20.87509C 32.424999 20.87509 32.275002 23.57509 34.525002 24.32509C 36.025002 24.775091 37.675003 23.72509 38.125 22.07509L 38.125 21.925091C 38.275002 22.07509 38.574997 22.075075 38.875 22.225075C 40.525002 22.525074 42.025002 21.625074 42.474998 19.975075L 42.474998 19.07509C 42.775002 19.22509 43.074997 19.37509 43.375 19.37509C 43.974998 19.525089 44.425003 19.525089 44.875 19.37509M 32.575001 30.92515C 34.974998 30.17515 36.625 27.92515 36.625 25.225149C 36.625 24.775105 36.625 24.475105 36.474998 24.175106M 41.574997 26.125151C 41.574997 26.125151 41.574997 31.67515 37.224998 33.77515M 44.724998 31.974998C 44.275002 33.325001 43.375 35.275002 41.724998 36.625"/>
      </g>
    </g>
  </g>
  <g id="g-root-ic_phot_mbpzcr1cc58g2-stroke-fill" data-item-order="0" transform="translate(572, 140)">
    <g id="ic_phot_mbpzcr1cc58g2-stroke" fill="none" stroke-linecap="round" stroke-linejoin="round" stroke-miterlimit="4" stroke="#f4f4f4" stroke-width="2">
      <g>
        <path d="M 15.67504 30.947651L 11.242693 21.142691C 10.942693 20.54269 11.242684 19.94269 11.84269 19.642691L 30.292749 11.242691C 30.89275 10.942692 31.49275 11.242693 31.792749 11.84269L 40.50235 30.947651M 10 10M 38.692749 27.14275L 30.2551 30.977951M 10 10M 24.957161 30.839951L 26.4571 23.039934C 26.757099 21.539936 28.257099 20.789921 29.6071 21.389919L 37.857101 25.13995M 19.19269 25.942749C 20.601025 25.942749 21.74272 24.8011 21.74272 23.392765C 21.74272 21.984446 20.601025 20.842779 19.19269 20.842779C 17.78437 20.842779 16.642706 21.984446 16.642706 23.392765C 16.642706 24.8011 17.78437 25.942749 19.19269 25.942749ZM 10 10M 37.525002 14.242735L 43.824997 14.392735C 44.425003 14.392735 44.875 14.842735 44.875 15.592735L 44.724998 29.842751M 28.9627 44.788151L 28.9627 35.788151M 34.9627 35.788151L 28.9627 41.788151M 31.2127 39.538151L 35.7127 44.788151M 10 10M 44.7547 35.788151L 38.7547 35.788151L 38.7547 44.788151L 44.7547 44.788151M 38.7547 39.913151L 44.0047 39.913151M 11.2453 44.788151L 11.2453 35.788151L 17.2453 35.788151M 10 10M 11.2453 39.913151L 16.4953 39.913151M 10 10M 18.530334 44.788151L 21.293171 36.499748C 21.434799 36.074799 21.832436 35.788151 22.280334 35.788151L 22.280334 35.788151C 22.72822 35.788151 23.12587 36.074799 23.2675 36.499748L 26.03035 44.788151M 19.53034 41.788151L 25.0303 41.788151"/>
      </g>
    </g>
  </g>
  <g id="g-root-ic_fema_1cy0j0b1cc6ltv-stroke-fill" data-item-order="0" transform="translate(572, 596)">
    <g id="ic_fema_1cy0j0b1cc6ltv-stroke" fill="none" stroke-linecap="round" stroke-linejoin="round" stroke-miterlimit="4" stroke="#f4f4f4" stroke-width="2">
      <g>
        <path d="M 10 10M 28.224998 33.475601L 31.224998 36.0256L 34.224998 33.475601L 41.724998 33.475601L 39.474998 36.7756C 42.175003 38.725601 44.125 41.57515 44.875 44.875149M 39.025002 22.225584C 39.025002 22.225584 39.025002 26.4256 43.525002 26.4256M 23.424925 22.225584C 23.424925 22.225584 23.424925 26.4256 18.924925 26.4256M 31.224998 11.125732L 31.224998 16.975719M 39.024849 19.975586C 39.024849 19.975586 36.202148 22.975584 31.29925 22.975584C 26.545 22.975584 23.424925 19.975586 23.424925 19.975586C 23.424925 19.975586 26.545 16.975586 31.29925 16.975586C 36.202148 16.975586 39.024849 19.975586 39.024849 19.975586ZM 23.424925 19.975719C 23.424925 15.025721 27.025002 11.125732 31.224998 11.125732C 35.574997 11.125732 39.024849 15.025721 39.024849 19.975719M 23.424925 19.975719L 23.424925 22.375599C 23.424925 26.725601 27.025002 30.1756 31.224998 30.1756C 35.574997 30.1756 39.024849 26.5756 39.024849 22.375599L 39.024849 19.975719M 17.875 43.074699C 21.602921 43.074699 24.625 40.05265 24.625 36.324699C 24.625 32.596748 21.602921 29.574699 17.875 29.574699C 14.147079 29.574699 11.125 32.596748 11.125 36.324699C 11.125 40.05265 14.147079 43.074699 17.875 43.074699ZM 26.424999 44.874397L 22.645285 41.095001M 31.22485 42.949448C 32.050751 42.949448 32.720051 42.279999 32.720051 41.45425C 32.720051 40.628349 32.050751 39.959049 31.22485 39.959049C 30.399099 39.959049 29.72965 40.628349 29.72965 41.45425C 29.72965 42.279999 30.399099 42.949448 31.22485 42.949448Z"/>
      </g>
    </g>
  </g>
  <g id="g-root-ic_ufo_8ye1q31cc81sc-stroke-fill" data-item-order="0" transform="translate(740, 362)">
    <g id="ic_ufo_8ye1q31cc81sc-stroke" fill="none" stroke-linecap="round" stroke-linejoin="round" stroke-miterlimit="4" stroke="#f4f4f4" stroke-width="2">
      <g>
        <path d="M 49 22.5C 52.977859 22.499041 56.352161 25.420879 56.919998 29.358C 56.961449 29.646814 56.874687 29.939325 56.682472 30.158836C 56.490257 30.378345 56.211758 30.502958 55.919998 30.5L 12.07 30.5C 11.778242 30.502958 11.499743 30.378345 11.307528 30.158836C 11.115312 29.939325 11.028553 29.646814 11.07 29.358C 11.638377 25.417118 15.018346 22.494064 19 22.5ZM 19 22.5C 19 17.5 25.716 11.5 34 11.5C 42.284 11.5 49 17.5 49 22.5M 47.77 39.5L 52.995998 56.5M 14.996 56.5L 20.232 39.5M 34.996002 49.5L 31.996 53.652M 37.996002 53.5L 34.996002 49.5M 31.996 46.5L 37.996002 46.5M 35 41.5C 35.552284 41.5 36 41.947716 36 42.5M 34 42.5C 34 41.947716 34.447716 41.5 35 41.5M 35 43.5C 34.447716 43.5 34 43.052284 34 42.5M 36 42.5C 36 43.052284 35.552284 43.5 35 43.5M 34.996002 49.5L 34.996002 46.5M 25 30.5C 25 33.261421 22.761425 35.5 20 35.5C 17.238577 35.5 15 33.261421 15 30.5M 39 30.5C 39 33.261421 36.761425 35.5 34 35.5C 31.238577 35.5 29 33.261421 29 30.5M 53 30.5C 53 33.261421 50.761425 35.5 48 35.5C 45.238575 35.5 43 33.261421 43 30.5"/>
      </g>
    </g>
  </g>
</svg>
