<?xml version='1.0' encoding='utf-8'?>
<svg xmlns="http://www.w3.org/2000/svg" xmlns:xlink="http://www.w3.org/1999/xlink" width="816" height="636" viewBox="0 0 816 636" style="fill:none;stroke:none;fill-rule:evenodd;clip-rule:evenodd;stroke-linecap:round;stroke-linejoin:round;stroke-miterlimit:1.5;" version="1.1">
  <style class="text-font-style fontImports" data-font-family="Roboto">@import url('https://fonts.googleapis.com/css2?family=Roboto:wght@400;700&amp;display=block');</style>
  <rect x="0" y="0" width="816" height="636" fill="#252a34" stroke="none" id="programmatic_background"/>
  <g id="g-root-tf_djtzyz1c2e493-stroke-fill" data-item-order="-477360" transform="translate(18, 12)"/>
  <g id="g-root-sy_-1_cu_18fpavv1c2e1vo-stroke-fill" data-item-order="-316218" transform="translate(32, 265.00390625)">
    <g id="sy_-1_cu_18fpavv1c2e1vo-fill" stroke="none" fill="none">
      <g>
        <path d="M 10.001 143L 10 47L 67 47L 70 59L 322 59L 319 47L 367 47L 370 59L 622 59L 619 47L 646 47L 646 10L 742 95L 646.002 180L 646 143L 619 143L 622 131L 370 131L 367 143L 319.001 143L 322.001 131L 70.001 131L 67.001 143L 10.001 143Z"/>
      </g>
    </g>
    <g id="sy_-1_cu_18fpavv1c2e1vo-stroke" fill="none" stroke-linecap="round" stroke-linejoin="round" stroke-miterlimit="4" stroke="#f4f4f4" stroke-width="2">
      <g>
        <path d="M 10.001 143L 10 47L 67 47L 70 59L 322 59L 319 47L 367 47L 370 59L 622 59L 619 47L 646 47L 646 10L 742 95L 646.0017 180L 646 143L 619 143L 622 131L 370 131L 367 143L 319.001 143L 322.001 131L 70.001 131L 67.001 143L 10.001 143Z"/>
      </g>
    </g>
  </g>
  <g id="g-root-sy_4_cu_v48sij1c2e3gl-stroke-fill" data-item-order="-316214" transform="translate(347, 386)">
    <g id="sy_4_cu_v48sij1c2e3gl-fill" stroke="none" fill="none">
      <g>
        <path d="M 307 10L 295 58L 43 58L 55 10L 307 10ZM 291.992188 70L 279.992188 118L 27.992188 118L 39.992188 70L 291.992188 70ZM 277 130L 25 130L 10 190L 262 190L 277 130Z"/>
      </g>
    </g>
    <g id="sy_4_cu_v48sij1c2e3gl-stroke" fill="none" stroke-linecap="round" stroke-linejoin="round" stroke-miterlimit="4" stroke="#43dd93" stroke-width="2">
      <g>
        <path d="M 307 10L 295 58L 43 58L 55 10L 307 10ZM 291.992188 70L 279.992188 118L 27.992188 118L 39.992188 70L 291.992188 70ZM 277 130L 25 130L 10 190L 262 190L 277 130Z"/>
      </g>
    </g>
  </g>
  <g id="g-root-sy_3_cu_hter8b1c2e1vq-stroke-fill" data-item-order="-316210" transform="translate(347, 134)">
    <g id="sy_3_cu_hter8b1c2e1vq-fill" stroke="none" fill="none">
      <g>
        <path d="M 307 190L 295 142L 43 142L 55 190L 307 190ZM 291.992188 130L 279.992188 82L 27.992188 82L 39.992188 130L 291.992188 130ZM 277 70L 25 70L 10 10L 262 10L 277 70Z"/>
      </g>
    </g>
    <g id="sy_3_cu_hter8b1c2e1vq-stroke" fill="none" stroke-linecap="round" stroke-linejoin="round" stroke-miterlimit="4" stroke="#f79438" stroke-width="2">
      <g>
        <path d="M 307 190L 295 142L 43 142L 55 190L 307 190ZM 291.992188 130L 279.992188 82L 27.992188 82L 39.992188 130L 291.992188 130ZM 277 70L 25 70L 10 10L 262 10L 277 70Z"/>
      </g>
    </g>
  </g>
  <g id="g-root-sy_2_cu_4hy8uz1c2e3gn-stroke-fill" data-item-order="-316206" transform="translate(47, 386)">
    <g id="sy_2_cu_4hy8uz1c2e3gn-fill" stroke="none" fill="none">
      <g>
        <path d="M 307.000977 10L 295.000977 58L 43.000977 58L 55.000977 10L 307.000977 10ZM 291.993164 70L 279.993164 118L 27.993164 118L 39.993164 70L 291.993164 70ZM 277.001 130L 25.001 130L 10 190L 262 190L 277.001 130Z"/>
      </g>
    </g>
    <g id="sy_2_cu_4hy8uz1c2e3gn-stroke" fill="none" stroke-linecap="round" stroke-linejoin="round" stroke-miterlimit="4" stroke="#fb6762" stroke-width="2">
      <g>
        <path d="M 307.000977 10L 295.000977 58L 43.000977 58L 55.000977 10L 307.000977 10ZM 291.993164 70L 279.993164 118L 27.993164 118L 39.993164 70L 291.993164 70ZM 277.001 130L 25.001 130L 10 190L 262 190L 277.001 130Z"/>
      </g>
    </g>
  </g>
  <g id="g-root-sy_1_cu_1lserff1c2e2gw-stroke-fill" data-item-order="-316202" transform="translate(47, 134)">
    <g id="sy_1_cu_1lserff1c2e2gw-fill" stroke="none" fill="none">
      <g>
        <path d="M 307 190L 295 142L 43 142L 55 190L 307 190ZM 291.992188 130L 279.992188 82L 27.992188 82L 39.992188 130L 291.992188 130ZM 277 70L 25 70L 10 10L 262 10L 277 70Z"/>
      </g>
    </g>
    <g id="sy_1_cu_1lserff1c2e2gw-stroke" fill="none" stroke-linecap="round" stroke-linejoin="round" stroke-miterlimit="4" stroke="#4f91fc" stroke-width="2">
      <g>
        <path d="M 307 190L 295 142L 43 142L 55 190L 307 190ZM 291.992188 130L 279.992188 82L 27.992188 82L 39.992188 130L 291.992188 130ZM 277 70L 25 70L 10 10L 262 10L 277 70Z"/>
      </g>
    </g>
  </g>
  <g id="g-root-tx_unresolv_18gy9231c2e41t-stroke-fill" data-item-order="0" transform="translate(200, 332)">
    <g id="tx_unresolv_18gy9231c2e41t-fill" stroke="none" fill="#b7b7b7">
      <g>
        <text style="font: bold 25px Roboto, sans-serif; white-space: pre;" font-weight="bold" font-size="25px" font-family="Roboto, sans-serif">
          <tspan x="20.42" y="43" dominant-baseline="ideographic">Unresolved Salem UFO Photograph Mystery</tspan>
        </text>
      </g>
    </g>
  </g>
  <g id="g-root-tx_societal_mah7iz1c2e39m-stroke-fill" data-item-order="0" transform="translate(488, 398)">
    <g id="tx_societal_mah7iz1c2e39m-fill" stroke="none" fill="#43dd93">
      <g>
        <text style="font: 15px Roboto, sans-serif; white-space: pre;" font-size="15px" font-family="Roboto, sans-serif">
          <tspan x="22.19" y="31" dominant-baseline="ideographic">Societal Attitudes</tspan>
        </text>
      </g>
    </g>
  </g>
  <g id="g-root-tx_newtechn_8zn68r1c2e1or-stroke-fill" data-item-order="0" transform="translate(473, 458)">
    <g id="tx_newtechn_8zn68r1c2e1or-fill" stroke="none" fill="#43dd93">
      <g>
        <text style="font: 15px Roboto, sans-serif; white-space: pre;" font-size="15px" font-family="Roboto, sans-serif">
          <tspan x="17.53" y="31" dominant-baseline="ideographic">New Technologies</tspan>
        </text>
      </g>
    </g>
  </g>
  <g id="g-root-tx_evolving_1upapuj1c2e32k-stroke-fill" data-item-order="0" transform="translate(410, 524)">
    <g id="tx_evolving_1upapuj1c2e32k-fill" stroke="none" fill="#43dd93">
      <g>
        <text style="font: bold 20px Roboto, sans-serif; white-space: pre;" font-weight="bold" font-size="20px" font-family="Roboto, sans-serif">
          <tspan x="17.53" y="34" dominant-baseline="ideographic">Evolving Discourse</tspan>
        </text>
      </g>
    </g>
  </g>
  <g id="g-root-tx_ambiguou_1cyn6fv1c2e29x-stroke-fill" data-item-order="0" transform="translate(488, 278)">
    <g id="tx_ambiguou_1cyn6fv1c2e29x-fill" stroke="none" fill="#f79438">
      <g>
        <text style="font: 15px Roboto, sans-serif; white-space: pre;" font-size="15px" font-family="Roboto, sans-serif">
          <tspan x="13.83" y="31" dominant-baseline="ideographic">Ambiguous Stimuli</tspan>
        </text>
      </g>
    </g>
  </g>
  <g id="g-root-tx_nondimen_qs64wr1c2e1hq-stroke-fill" data-item-order="0" transform="translate(401, 218)">
    <g id="tx_nondimen_qs64wr1c2e1hq-fill" stroke="none" fill="#f79438">
      <g>
        <text style="font: 15px Roboto, sans-serif; white-space: pre;" font-size="15px" font-family="Roboto, sans-serif">
          <tspan x="13.89" y="31" dominant-baseline="ideographic">Non-Dimensional Appearance</tspan>
        </text>
      </g>
    </g>
  </g>
  <g id="g-root-tx_technica_dgpmjf1c2e32n-stroke-fill" data-item-order="0" transform="translate(386, 152)">
    <g id="tx_technica_dgpmjf1c2e32n-fill" stroke="none" fill="#f79438">
      <g>
        <text style="font: bold 20px Roboto, sans-serif; white-space: pre;" font-weight="bold" font-size="20px" font-family="Roboto, sans-serif">
          <tspan x="12.14" y="34" dominant-baseline="ideographic">Technical Ambiguities</tspan>
        </text>
      </g>
    </g>
  </g>
  <g id="g-root-tx_technica_1ur653v1c2e22w-stroke-fill" data-item-order="0" transform="translate(164, 398)">
    <g id="tx_technica_1ur653v1c2e22w-fill" stroke="none" fill="#fb6762">
      <g>
        <text style="font: 15px Roboto, sans-serif; white-space: pre;" font-size="15px" font-family="Roboto, sans-serif">
          <tspan x="16.8" y="31" dominant-baseline="ideographic">Technical Ambiguities</tspan>
        </text>
      </g>
    </g>
  </g>
  <g id="g-root-tx_reflecti_1hfpmqj1c2e3nt-stroke-fill" data-item-order="0" transform="translate(149, 458)">
    <g id="tx_reflecti_1hfpmqj1c2e3nt-fill" stroke="none" fill="#fb6762">
      <g>
        <text style="font: 15px Roboto, sans-serif; white-space: pre;" font-size="15px" font-family="Roboto, sans-serif">
          <tspan x="18.33" y="31" dominant-baseline="ideographic">Reflection Hypothesis</tspan>
        </text>
      </g>
    </g>
  </g>
  <g id="g-root-tx_institut_144vlgb1c2e22y-stroke-fill" data-item-order="0" transform="translate(170, 512)">
    <g id="tx_institut_144vlgb1c2e22y-fill" stroke="none" fill="#fb6762">
      <g>
        <text style="font: bold 20px Roboto, sans-serif; white-space: pre;" font-weight="bold" font-size="20px" font-family="Roboto, sans-serif">
          <tspan x="20.08" y="34" dominant-baseline="ideographic">Institutional </tspan>
          <tspan x="27.77" y="58" dominant-baseline="ideographic">Skepticism</tspan>
        </text>
      </g>
    </g>
  </g>
  <g id="g-root-tx_motionde_me821n1c2e1ab-stroke-fill" data-item-order="0" transform="translate(161, 218)">
    <g id="tx_motionde_me821n1c2e1ab-fill" stroke="none" fill="#4f91fc">
      <g>
        <text style="font: 15px Roboto, sans-serif; white-space: pre;" font-size="15px" font-family="Roboto, sans-serif">
          <tspan x="17.55" y="31" dominant-baseline="ideographic">Motion Descriptions</tspan>
        </text>
      </g>
    </g>
  </g>
  <g id="g-root-tx_witnessa_92rjob1c2e2v8-stroke-fill" data-item-order="0" transform="translate(188, 278)">
    <g id="tx_witnessa_92rjob1c2e2v8-fill" stroke="none" fill="#4f91fc">
      <g>
        <text style="font: 15px Roboto, sans-serif; white-space: pre;" font-size="15px" font-family="Roboto, sans-serif">
          <tspan x="19.44" y="31" dominant-baseline="ideographic">Witness Accounts</tspan>
        </text>
      </g>
    </g>
  </g>
  <g id="g-root-tx_credible_1lxek4b1c2e1vx-stroke-fill" data-item-order="0" transform="translate(110, 152)">
    <g id="tx_credible_1lxek4b1c2e1vx-fill" stroke="none" fill="#4f91fc">
      <g>
        <text style="font: bold 20px Roboto, sans-serif; white-space: pre;" font-weight="bold" font-size="20px" font-family="Roboto, sans-serif">
          <tspan x="14.11" y="34" dominant-baseline="ideographic">Credible Testimony</tspan>
        </text>
      </g>
    </g>
  </g>
  <g id="g-root-tx_analyzin_18ly1qz1c2e3gu-stroke-fill" data-item-order="0" transform="translate(182, 50)">
    <g id="tx_analyzin_18ly1qz1c2e3gu-fill" stroke="none" fill="#f4f4f4">
      <g>
        <text style="font: bold 20px Roboto, sans-serif; white-space: pre;" font-weight="bold" font-size="20px" font-family="Roboto, sans-serif">
          <tspan x="15.76" y="34" dominant-baseline="ideographic">Analyzing the Salem UFO Photograph Enigma</tspan>
        </text>
      </g>
    </g>
    <defs>
      <pattern id="crawlingPattern-00000024" x="0" y="0" width="12" height="12" patternUnits="userSpaceOnUse" fill="#00000024">
        <use href="#crawlingSymbol"/>
      </pattern>
      <symbol id="crawlingSymbol">
        <g>
          <path d="M -12.5 12.5 l 13 -13 l 6 0 l -13 13 Z M -0.5 12.5 l 13 -13 l 6 0 l -13 13 Z M 11.5 12.5 l 13 -13 l 6 0 l -13 13 Z"/>
        </g>
      </symbol>
      <pattern id="crawlingPattern-00b15c75" x="0" y="0" width="12" height="12" patternUnits="userSpaceOnUse" fill="#00b15c75">
        <use href="#crawlingSymbol"/>
      </pattern>
      <pattern id="crawlingPattern-f17400d3" x="0" y="0" width="12" height="12" patternUnits="userSpaceOnUse" fill="#f17400d3">
        <use href="#crawlingSymbol"/>
      </pattern>
      <pattern id="crawlingPattern-f9080081" x="0" y="0" width="12" height="12" patternUnits="userSpaceOnUse" fill="#f9080081">
        <use href="#crawlingSymbol"/>
      </pattern>
      <pattern id="crawlingPattern-0060fba2" x="0" y="0" width="12" height="12" patternUnits="userSpaceOnUse" fill="#0060fba2">
        <use href="#crawlingSymbol"/>
      </pattern>
      <pattern id="crawlingPattern-0000001b" x="0" y="0" width="12" height="12" patternUnits="userSpaceOnUse" fill="#0000001b">
        <use href="#crawlingSymbol"/>
      </pattern>
    </defs>
  </g>
</svg>
