<?xml version='1.0' encoding='utf-8'?>
<svg xmlns="http://www.w3.org/2000/svg" xmlns:xlink="http://www.w3.org/1999/xlink" width="1008" height="600" viewBox="0 0 1008 600" style="fill:none;stroke:none;fill-rule:evenodd;clip-rule:evenodd;stroke-linecap:round;stroke-linejoin:round;stroke-miterlimit:1.5;" version="1.1">
  <style class="text-font-style fontImports" data-font-family="Roboto">@import url('https://fonts.googleapis.com/css2?family=Roboto:wght@400;700&amp;display=block');</style>
  <rect x="0" y="0" width="1008" height="6E+2" fill="#252a34" stroke="none" id="programmatic_background"/>
  <g id="g-root-tf_1qdtu1n19a6xai-stroke-fill" data-item-order="-566784" transform="translate(12, 12)">
    <g id="tf_1qdtu1n19a6xai-fill" stroke="none" fill="#2c2c2c">
      <g>
        <path d="M 0 0L 984 0L 984 576L 0 576Z"/>
      </g>
    </g>
    <defs>
      <pattern id="crawlingPattern-0060fb20" x="0" y="0" width="12" height="12" patternUnits="userSpaceOnUse" fill="#0060fb20">
        <use href="#crawlingSymbol"/>
      </pattern>
      <symbol id="crawlingSymbol">
        <g>
          <path d="M -12.5 12.5 l 13 -13 l 6 0 l -13 13 Z M -0.5 12.5 l 13 -13 l 6 0 l -13 13 Z M 11.5 12.5 l 13 -13 l 6 0 l -13 13 Z"/>
        </g>
      </symbol>
      <pattern id="crawlingPattern-f908001a" x="0" y="0" width="12" height="12" patternUnits="userSpaceOnUse" fill="#f908001a">
        <use href="#crawlingSymbol"/>
      </pattern>
      <pattern id="crawlingPattern-8484841a" x="0" y="0" width="12" height="12" patternUnits="userSpaceOnUse" fill="#8484841a">
        <use href="#crawlingSymbol"/>
      </pattern>
      <pattern id="crawlingPattern-00d16d21" x="0" y="0" width="12" height="12" patternUnits="userSpaceOnUse" fill="#00d16d21">
        <use href="#crawlingSymbol"/>
      </pattern>
      <pattern id="crawlingPattern-f576002d" x="0" y="0" width="12" height="12" patternUnits="userSpaceOnUse" fill="#f576002d">
        <use href="#crawlingSymbol"/>
      </pattern>
      <pattern id="crawlingPattern-0000001b" x="0" y="0" width="12" height="12" patternUnits="userSpaceOnUse" fill="#0000001b">
        <use href="#crawlingSymbol"/>
      </pattern>
      <pattern id="crawlingPattern-f9080081" x="0" y="0" width="12" height="12" patternUnits="userSpaceOnUse" fill="#f9080081">
        <use href="#crawlingSymbol"/>
      </pattern>
      <pattern id="crawlingPattern-ff0b0038" x="0" y="0" width="12" height="12" patternUnits="userSpaceOnUse" fill="#ff0b0038">
        <use href="#crawlingSymbol"/>
      </pattern>
      <pattern id="crawlingPattern-00b15c75" x="0" y="0" width="12" height="12" patternUnits="userSpaceOnUse" fill="#00b15c75">
        <use href="#crawlingSymbol"/>
      </pattern>
      <pattern id="crawlingPattern-00ff873a" x="0" y="0" width="12" height="12" patternUnits="userSpaceOnUse" fill="#00ff873a">
        <use href="#crawlingSymbol"/>
      </pattern>
      <pattern id="crawlingPattern-0060fba2" x="0" y="0" width="12" height="12" patternUnits="userSpaceOnUse" fill="#0060fba2">
        <use href="#crawlingSymbol"/>
      </pattern>
      <pattern id="crawlingPattern-0059ff37" x="0" y="0" width="12" height="12" patternUnits="userSpaceOnUse" fill="#0059ff37">
        <use href="#crawlingSymbol"/>
      </pattern>
      <pattern id="crawlingPattern-00000024" x="0" y="0" width="12" height="12" patternUnits="userSpaceOnUse" fill="#00000024">
        <use href="#crawlingSymbol"/>
      </pattern>
      <pattern id="crawlingPattern-f17400d3" x="0" y="0" width="12" height="12" patternUnits="userSpaceOnUse" fill="#f17400d3">
        <use href="#crawlingSymbol"/>
      </pattern>
      <pattern id="crawlingPattern-ff7b003a" x="0" y="0" width="12" height="12" patternUnits="userSpaceOnUse" fill="#ff7b003a">
        <use href="#crawlingSymbol"/>
      </pattern>
      <pattern id="crawlingPattern-5f5f5f1a" x="0" y="0" width="12" height="12" patternUnits="userSpaceOnUse" fill="#5f5f5f1a">
        <use href="#crawlingSymbol"/>
      </pattern>
    </defs>
  </g>
  <g id="g-root-cp_0_g-0_1luamhn1901p1g-stroke-fill" data-item-order="-449243" transform="translate(50.131011962890625, 272.5)">
    <g id="cp_0_g-0_1luamhn1901p1g-stroke" fill="none" stroke-linecap="round" stroke-linejoin="round" stroke-miterlimit="4" stroke="#f4f4f4" stroke-width="2">
      <g>
        <path d="M 826 51L 898 51M 646 51L 802 51M 814 10L 814 39.5M 106 51L 262 51M 286 51L 442 51M 274 63.5L 274 93M 454 10L 454 39.5M 466 51L 622 51M 634 63.5L 634 93M 10 51L 82 51M 94 10L 94 39.5"/>
      </g>
    </g>
  </g>
  <g id="g-root-cp_1_g-1_18jgl7f1901ngm-stroke-fill" data-item-order="-449220" transform="translate(89.13101196289062, 149)">
    <g id="cp_1_g-1_18jgl7f1901ngm-fill" stroke="none" fill="#4f91fc">
      <g>
        <path d="M 100 55C 100 66.244 94.5 77.5875 89 86L 55.816 132.848C 55.4175 133.411 54.5825 133.411 54.184 132.848L 21 86C 14.5 77 10 66.7284 10 55C 10 30.1472 30.1472 10 55 10C 79.8528 10 100 30.1472 100 55ZM 55 91C 74.8822 91 91 74.8822 91 55C 91 35.1177 74.8822 19 55 19C 35.1177 19 19 35.1177 19 55C 19 74.8822 35.1177 91 55 91Z"/>
      </g>
    </g>
    <g id="cp_1_g-1_18jgl7f1901ngm-stroke" fill="none" stroke-linecap="round" stroke-linejoin="round" stroke-miterlimit="4" stroke="#2c2c2c" stroke-width="2">
      <g>
        <path d="M 100 55C 100 66.244 94.5 77.5875 89 86L 55.816 132.848C 55.4175 133.4106 54.5825 133.4106 54.184 132.848L 21 86C 14.5 77 10 66.7284 10 55C 10 30.1472 30.1472 10 55 10C 79.8528 10 100 30.1472 100 55ZM 55 91C 74.8822 91 91 74.8822 91 55C 91 35.1177 74.8822 19 55 19C 35.1177 19 19 35.1177 19 55C 19 74.8822 35.1177 91 55 91Z"/>
      </g>
    </g>
    <g id="cp_1_g-1_18jgl7f1901ngm-fill" stroke="none" fill="#4f91fc">
      <g>
        <path d="M 55 187C 61.6274 187 67 181.6274 67 175C 67 168.3726 61.6274 163 55 163C 48.3726 163 43 168.3726 43 175C 43 181.6274 48.3726 187 55 187ZM 55 181C 58.3137 181 61 178.3137 61 175C 61 171.6863 58.3137 169 55 169C 51.6863 169 49 171.6863 49 175C 49 178.3137 51.6863 181 55 181Z"/>
      </g>
    </g>
    <g id="cp_1_g-1_18jgl7f1901ngm-stroke" fill="none" stroke-linecap="round" stroke-linejoin="round" stroke-miterlimit="4" stroke="#2c2c2c" stroke-width="2">
      <g>
        <path d="M 55 187C 61.6274 187 67 181.6274 67 175C 67 168.3726 61.6274 163 55 163C 48.3726 163 43 168.3726 43 175C 43 181.6274 48.3726 187 55 187ZM 55 181C 58.3137 181 61 178.3137 61 175C 61 171.6863 58.3137 169 55 169C 51.6863 169 49 171.6863 49 175C 49 178.3137 51.6863 181 55 181Z"/>
      </g>
    </g>
  </g>
  <g id="g-root-cp_2_g-2_143n32z1901o8x-stroke-fill" data-item-order="-449216" transform="translate(269.1309814453125, 302)">
    <g id="cp_2_g-2_143n32z1901o8x-fill" stroke="none" fill="#fb6762">
      <g>
        <path d="M 100 142.000369C 100 130.756469 94.5 119.412869 89 111.000369L 55.816 64.152469C 55.4175 63.589769 54.5825 63.589769 54.184 64.152469L 21 111.000369C 14.5 120.000369 10 130.271969 10 142.000369C 10 166.853469 30.1472 187.000469 55 187.000469C 79.8528 187.000469 100 166.853469 100 142.000369ZM 55 106.000369C 74.8822 106.000369 91 122.118169 91 142.000369C 91 161.882669 74.8822 178.000469 55 178.000469C 35.1177 178.000469 19 161.882669 19 142.000369C 19 122.118169 35.1177 106.000369 55 106.000369Z"/>
      </g>
    </g>
    <g id="cp_2_g-2_143n32z1901o8x-stroke" fill="none" stroke-linecap="round" stroke-linejoin="round" stroke-miterlimit="4" stroke="#2c2c2c" stroke-width="2">
      <g>
        <path d="M 100 142.000369C 100 130.756469 94.5 119.412869 89 111.000369L 55.816 64.152469C 55.4175 63.589769 54.5825 63.589769 54.184 64.152469L 21 111.000369C 14.5 120.000369 10 130.271969 10 142.000369C 10 166.853269 30.1472 187.000369 55 187.000369C 79.8528 187.000369 100 166.853269 100 142.000369ZM 55 106.000369C 74.8822 106.000369 91 122.118169 91 142.000369C 91 161.882669 74.8822 178.000369 55 178.000369C 35.1177 178.000369 19 161.882669 19 142.000369C 19 122.118169 35.1177 106.000369 55 106.000369Z"/>
      </g>
    </g>
    <g id="cp_2_g-2_143n32z1901o8x-fill" stroke="none" fill="#fb6762">
      <g>
        <path d="M 55 34C 61.6274 34 67 28.6274 67 22C 67 15.3726 61.6274 10 55 10C 48.3726 10 43 15.3726 43 22C 43 28.6274 48.3726 34 55 34ZM 55 28C 58.3137 28 61 25.3137 61 22C 61 18.6863 58.3137 16 55 16C 51.6863 16 49 18.6863 49 22C 49 25.3137 51.6863 28 55 28Z"/>
      </g>
    </g>
    <g id="cp_2_g-2_143n32z1901o8x-stroke" fill="none" stroke-linecap="round" stroke-linejoin="round" stroke-miterlimit="4" stroke="#2c2c2c" stroke-width="2">
      <g>
        <path d="M 55 34C 61.6274 34 67 28.6274 67 22C 67 15.3726 61.6274 10 55 10C 48.3726 10 43 15.3726 43 22C 43 28.6274 48.3726 34 55 34ZM 55 28C 58.3137 28 61 25.3137 61 22C 61 18.6863 58.3137 16 55 16C 51.6863 16 49 18.6863 49 22C 49 25.3137 51.6863 28 55 28Z"/>
      </g>
    </g>
  </g>
  <g id="g-root-cp_3_g-3_v802u31901p1o-stroke-fill" data-item-order="-449210" transform="translate(449.1310119628906, 149)">
    <g id="cp_3_g-3_v802u31901p1o-fill" stroke="none" fill="#b7b7b7">
      <g>
        <path d="M 100 55C 100 66.244 94.5 77.5875 89 86L 55.816 132.848C 55.4175 133.411 54.5825 133.411 54.184 132.848L 21 86C 14.5 77 10 66.7284 10 55C 10 30.1472 30.1472 10 55 10C 79.8528 10 100 30.1472 100 55ZM 55 91C 74.8822 91 91 74.8822 91 55C 91 35.1177 74.8822 19 55 19C 35.1177 19 19 35.1177 19 55C 19 74.8822 35.1177 91 55 91Z"/>
      </g>
    </g>
    <g id="cp_3_g-3_v802u31901p1o-stroke" fill="none" stroke-linecap="round" stroke-linejoin="round" stroke-miterlimit="4" stroke="#2c2c2c" stroke-width="2">
      <g>
        <path d="M 100 55C 100 66.244 94.5 77.5875 89 86L 55.816 132.848C 55.4175 133.4106 54.5825 133.4106 54.184 132.848L 21 86C 14.5 77 10 66.7284 10 55C 10 30.1472 30.1472 10 55 10C 79.8528 10 100 30.1472 100 55ZM 55 91C 74.8822 91 91 74.8822 91 55C 91 35.1177 74.8822 19 55 19C 35.1177 19 19 35.1177 19 55C 19 74.8822 35.1177 91 55 91Z"/>
      </g>
    </g>
    <g id="cp_3_g-3_v802u31901p1o-fill" stroke="none" fill="#b7b7b7">
      <g>
        <path d="M 55 187C 61.6274 187 67 181.6274 67 175C 67 168.3726 61.6274 163 55 163C 48.3726 163 43 168.3726 43 175C 43 181.6274 48.3726 187 55 187ZM 55 181C 58.3137 181 61 178.3137 61 175C 61 171.6863 58.3137 169 55 169C 51.6863 169 49 171.6863 49 175C 49 178.3137 51.6863 181 55 181Z"/>
      </g>
    </g>
    <g id="cp_3_g-3_v802u31901p1o-stroke" fill="none" stroke-linecap="round" stroke-linejoin="round" stroke-miterlimit="4" stroke="#2c2c2c" stroke-width="2">
      <g>
        <path d="M 55 187C 61.6274 187 67 181.6274 67 175C 67 168.3726 61.6274 163 55 163C 48.3726 163 43 168.3726 43 175C 43 181.6274 48.3726 187 55 187ZM 55 181C 58.3137 181 61 178.3137 61 175C 61 171.6863 58.3137 169 55 169C 51.6863 169 49 171.6863 49 175C 49 178.3137 51.6863 181 55 181Z"/>
      </g>
    </g>
  </g>
  <g id="g-root-cp_4_g-4_qs6kpn1901ptz-stroke-fill" data-item-order="-449204" transform="translate(629.1309814453125, 302)">
    <g id="cp_4_g-4_qs6kpn1901ptz-fill" stroke="none" fill="#43dd93">
      <g>
        <path d="M 100 142.000369C 100 130.756469 94.5 119.412869 89 111.000369L 55.816 64.152469C 55.4175 63.589769 54.5825 63.589769 54.184 64.152469L 21 111.000369C 14.5 120.000369 10 130.271969 10 142.000369C 10 166.853469 30.1472 187.000469 55 187.000469C 79.8528 187.000469 100 166.853469 100 142.000369ZM 55 106.000369C 74.8822 106.000369 91 122.118169 91 142.000369C 91 161.882669 74.8822 178.000469 55 178.000469C 35.1177 178.000469 19 161.882669 19 142.000369C 19 122.118169 35.1177 106.000369 55 106.000369Z"/>
      </g>
    </g>
    <g id="cp_4_g-4_qs6kpn1901ptz-stroke" fill="none" stroke-linecap="round" stroke-linejoin="round" stroke-miterlimit="4" stroke="#2c2c2c" stroke-width="2">
      <g>
        <path d="M 100 142.000369C 100 130.756469 94.5 119.412869 89 111.000369L 55.816 64.152469C 55.4175 63.589769 54.5825 63.589769 54.184 64.152469L 21 111.000369C 14.5 120.000369 10 130.271969 10 142.000369C 10 166.853269 30.1472 187.000369 55 187.000369C 79.8528 187.000369 100 166.853269 100 142.000369ZM 55 106.000369C 74.8822 106.000369 91 122.118169 91 142.000369C 91 161.882669 74.8822 178.000369 55 178.000369C 35.1177 178.000369 19 161.882669 19 142.000369C 19 122.118169 35.1177 106.000369 55 106.000369Z"/>
      </g>
    </g>
    <g id="cp_4_g-4_qs6kpn1901ptz-fill" stroke="none" fill="#43dd93">
      <g>
        <path d="M 55 34C 61.6274 34 67 28.6274 67 22C 67 15.3726 61.6274 10 55 10C 48.3726 10 43 15.3726 43 22C 43 28.6274 48.3726 34 55 34ZM 55 28C 58.3137 28 61 25.3137 61 22C 61 18.6863 58.3137 16 55 16C 51.6863 16 49 18.6863 49 22C 49 25.3137 51.6863 28 55 28Z"/>
      </g>
    </g>
    <g id="cp_4_g-4_qs6kpn1901ptz-stroke" fill="none" stroke-linecap="round" stroke-linejoin="round" stroke-miterlimit="4" stroke="#2c2c2c" stroke-width="2">
      <g>
        <path d="M 55 34C 61.6274 34 67 28.6274 67 22C 67 15.3726 61.6274 10 55 10C 48.3726 10 43 15.3726 43 22C 43 28.6274 48.3726 34 55 34ZM 55 28C 58.3137 28 61 25.3137 61 22C 61 18.6863 58.3137 16 55 16C 51.6863 16 49 18.6863 49 22C 49 25.3137 51.6863 28 55 28Z"/>
      </g>
    </g>
  </g>
  <g id="g-root-cp_5_g-5_mczjob1901ngi-stroke-fill" data-item-order="-449198" transform="translate(809.1309814453125, 149)">
    <g id="cp_5_g-5_mczjob1901ngi-fill" stroke="none" fill="#f79438">
      <g>
        <path d="M 100 55C 100 66.244 94.5 77.5875 89 86L 55.816 132.848C 55.4175 133.411 54.5825 133.411 54.184 132.848L 21 86C 14.5 77 10 66.7284 10 55C 10 30.1472 30.1472 10 55 10C 79.8528 10 100 30.1472 100 55ZM 55 91C 74.8822 91 91 74.8822 91 55C 91 35.1177 74.8822 19 55 19C 35.1177 19 19 35.1177 19 55C 19 74.8822 35.1177 91 55 91Z"/>
      </g>
    </g>
    <g id="cp_5_g-5_mczjob1901ngi-stroke" fill="none" stroke-linecap="round" stroke-linejoin="round" stroke-miterlimit="4" stroke="#2c2c2c" stroke-width="2">
      <g>
        <path d="M 100 55C 100 66.244 94.5 77.5875 89 86L 55.816 132.848C 55.4175 133.4106 54.5825 133.4106 54.184 132.848L 21 86C 14.5 77 10 66.7284 10 55C 10 30.1472 30.1472 10 55 10C 79.8528 10 100 30.1472 100 55ZM 55 91C 74.8822 91 91 74.8822 91 55C 91 35.1177 74.8822 19 55 19C 35.1177 19 19 35.1177 19 55C 19 74.8822 35.1177 91 55 91Z"/>
      </g>
    </g>
    <g id="cp_5_g-5_mczjob1901ngi-fill" stroke="none" fill="#f79438">
      <g>
        <path d="M 55 187C 61.6274 187 67 181.6274 67 175C 67 168.3726 61.6274 163 55 163C 48.3726 163 43 168.3726 43 175C 43 181.6274 48.3726 187 55 187ZM 55 181C 58.3137 181 61 178.3137 61 175C 61 171.6863 58.3137 169 55 169C 51.6863 169 49 171.6863 49 175C 49 178.3137 51.6863 181 55 181Z"/>
      </g>
    </g>
    <g id="cp_5_g-5_mczjob1901ngi-stroke" fill="none" stroke-linecap="round" stroke-linejoin="round" stroke-miterlimit="4" stroke="#2c2c2c" stroke-width="2">
      <g>
        <path d="M 55 187C 61.6274 187 67 181.6274 67 175C 67 168.3726 61.6274 163 55 163C 48.3726 163 43 168.3726 43 175C 43 181.6274 48.3726 187 55 187ZM 55 181C 58.3137 181 61 178.3137 61 175C 61 171.6863 58.3137 169 55 169C 51.6863 169 49 171.6863 49 175C 49 178.3137 51.6863 181 55 181Z"/>
      </g>
    </g>
  </g>
  <g id="g-root-ic_thre_1hfoxgb19a1bf2-stroke-fill" data-item-order="-2304" transform="translate(650.1309814453125, 410)">
    <g id="ic_thre_1hfoxgb19a1bf2-fill" stroke="none" fill="#43dd93">
      <g>
        <path d="M 38 51.639999L 38 48.560001C 38.000496 47.265507 37.374516 46.050804 36.32 45.299999C 36.070625 45.109127 35.923073 44.814022 35.919998 44.5L 35.919998 34.239998C 35.919998 33.135429 35.024567 32.239998 33.919998 32.239998C 32.81543 32.239998 31.92 33.135429 31.92 34.239998L 31.92 44.5C 31.916929 44.814022 31.769377 45.109127 31.52 45.299999C 30.525768 46.084724 29.961948 47.293968 30 48.560001L 30 51.639999C 29.964396 52.514416 29.624893 53.349026 29.039999 54C 28.565697 54.600208 28.475317 55.418392 28.807184 56.107651C 29.13905 56.796913 29.835016 57.236485 30.6 57.240002L 37.400002 57.240002C 38.164986 57.236485 38.86095 56.796913 39.192818 56.107651C 39.524681 55.418392 39.434303 54.600208 38.959999 54C 38.375107 53.349026 38.035606 52.514416 38 51.639999ZM 25.4 32.540001C 24.455261 31.973358 23.230181 32.277393 22.66 33.220001L 18.76 39.700001C 18.601851 39.976044 18.317219 40.155811 18 40.18C 16.695269 40.295616 15.529809 41.042706 14.88 42.18L 13.3 44.82C 12.836673 45.558243 12.128834 46.110359 11.3 46.380001C 10.564379 46.642601 10.048944 47.309422 9.980166 48.087475C 9.911388 48.865528 10.301853 49.612427 10.98 50L 16.82 53.5C 17.124783 53.692257 17.479778 53.789707 17.84 53.780003C 18.230026 53.782875 18.612381 53.671646 18.939999 53.459999C 19.603767 53.026642 19.948942 52.242153 19.82 51.459999C 19.679512 50.611423 19.842371 49.740479 20.280001 49.000004L 21.860001 46.360001C 22.527336 45.25919 22.6241 43.904484 22.119999 42.720001C 21.980492 42.436218 21.980492 42.103779 22.119999 41.82L 26 35.279999C 26.581308 34.35598 26.314272 33.13652 25.4 32.540001ZM 56.68 46.32C 55.85117 46.050358 55.14333 45.498245 54.680004 44.760002L 53.099998 42.119999C 52.450191 40.982704 51.284733 40.235619 49.98 40.120003C 49.663338 40.078846 49.383137 39.894501 49.219997 39.619999L 45.32 33.139999C 44.702255 32.356018 43.601055 32.147499 42.739452 32.65136C 41.877846 33.155224 41.519627 34.217201 41.900002 35.139999L 45.799999 41.639999C 45.939507 41.923782 45.939507 42.256218 45.799999 42.540001C 45.295898 43.724483 45.392666 45.079189 46.060001 46.18L 47.639999 48.82C 48.079067 49.567272 48.241867 50.444969 48.099998 51.299999C 47.971058 52.08215 48.316235 52.866642 48.98 53.299999C 49.307621 53.511646 49.689976 53.622875 50.080002 53.619999C 50.440224 53.629707 50.795219 53.532257 51.100002 53.340004L 57.02 50C 57.684925 49.605106 58.062599 48.862263 57.989883 48.092346C 57.917168 47.322426 57.407097 46.663422 56.68 46.400002ZM 21.1 30.280001L 46.900002 30.280001C 47.494865 30.280966 48.059288 30.01708 48.439999 29.559999C 48.827747 29.092783 48.982265 28.474722 48.860001 27.879999C 48.187603 24.624584 45.324123 22.287048 42 22.279999L 26 22.279999C 22.675877 22.287048 19.812395 24.624584 19.139999 27.879999C 19.017735 28.474722 19.172251 29.092783 19.560001 29.559999C 19.940712 30.01708 20.505135 30.280966 21.1 30.280001ZM 47.880001 28ZM 32.5 20.24L 35.5 20.24C 36.052284 20.24 36.5 19.792286 36.5 19.24L 36.5 13.24C 36.5 11.859288 35.380714 10.74 34 10.74C 32.619289 10.74 31.5 11.859288 31.5 13.24L 31.5 19.24C 31.5 19.792286 31.947716 20.24 32.5 20.24Z"/>
      </g>
    </g>
  </g>
  <g id="g-root-ic_ufo_vcc9cr19a2pzb-stroke-fill" data-item-order="-2304" transform="translate(110.1309814453125, 170)">
    <g id="ic_ufo_vcc9cr19a2pzb-fill" stroke="none" fill="#4f91fc">
      <g>
        <path d="M 50.779999 39.48C 50.49268 38.408726 49.391396 37.77314 48.32008 38.060295C 47.24876 38.34745 46.613007 39.448639 46.899998 40.519997L 51.139999 56.52C 51.30584 57.231823 51.846767 57.796497 52.550816 57.992748C 53.25486 58.188999 54.009895 57.985573 54.520046 57.462177C 55.030201 56.938786 55.214222 56.178791 55 55.48ZM 19.82 38C 18.754391 37.720551 17.663445 38.355446 17.380001 39.419998L 13.14 55.419998C 12.925778 56.11879 13.109798 56.878784 13.619952 57.40218C 14.130106 57.925571 14.885139 58.129002 15.589186 57.932751C 16.293234 57.7365 16.83416 57.171825 17 56.459999L 21.24 40.459999C 21.380281 39.945396 21.309196 39.39608 21.042547 38.934139C 20.775898 38.472198 20.335775 38.135902 19.82 38ZM 38 49.860001C 39.203453 49.748383 40.123898 48.738621 40.123898 47.529999C 40.123898 46.321381 39.203453 45.311615 38 45.200001L 31.08 45.200001C 29.876545 45.311615 28.9561 46.321381 28.9561 47.529999C 28.9561 48.738621 29.876545 49.748383 31.08 49.860001L 32.239998 49.860001L 32.239998 50.18L 29.200001 54.299999C 28.437847 55.332775 28.657228 56.787849 29.690001 57.550003C 30.722773 58.312153 32.177849 58.092773 32.940002 57.060001L 34.599998 54.82L 36.200001 57.080002C 36.978722 58.129345 38.460663 58.348724 39.510002 57.570004C 40.559341 56.791279 40.778725 55.309341 40 54.260002L 37 50.16L 37 49.860001ZM 38 40.239998C 38.008102 38.822594 37.160507 37.540237 35.85331 36.992199C 34.546112 36.44416 33.03743 36.738647 32.032288 37.738045C 31.027142 38.73745 30.724012 40.244415 31.264553 41.554733C 31.805094 42.865051 33.082569 43.719978 34.5 43.720001C 35.426414 43.725323 36.316711 43.361034 36.973671 42.707829C 37.63063 42.054626 38.000015 41.166428 38 40.239998ZM 56.959999 29C 57.256584 29.003077 57.540375 28.879374 57.739998 28.659998C 57.943413 28.447105 58.032631 28.149708 57.98 27.860001C 57.289928 23.844007 53.774273 20.931278 49.700001 21L 18.299999 21C 14.218212 20.921293 10.691198 23.836391 10 27.860001C 9.947369 28.149708 10.036588 28.447105 10.24 28.66C 10.439621 28.879374 10.723413 29.003077 11.02 28.999998L 13.28 29C 13.484316 29.002653 13.666457 29.12936 13.74 29.32C 13.899547 29.722376 14.079787 30.116236 14.280001 30.500002C 16.065369 33.888172 19.580214 36.009026 23.41 36.009026C 27.239786 36.009026 30.754631 33.888172 32.540001 30.5C 32.740211 30.116236 32.920456 29.722376 33.080002 29.320002C 33.148697 29.125612 33.333855 28.996807 33.540001 28.999998L 34.459999 29C 34.666145 28.996807 34.851299 29.125612 34.919998 29.32C 35.079548 29.722376 35.259789 30.116236 35.459999 30.500002C 37.245369 33.888172 40.760216 36.009026 44.59 36.009026C 48.419785 36.009026 51.934631 33.888172 53.720001 30.5C 53.920216 30.116236 54.100456 29.722376 54.260002 29.320002C 54.328697 29.125612 54.513851 28.996807 54.719997 28.999998ZM 23.4 32C 21.569786 31.983295 19.832561 31.191006 18.619999 29.82C 18.522778 29.660299 18.522778 29.4597 18.619999 29.299999C 18.686577 29.141253 18.830135 29.027918 19 29L 27.799999 29C 27.999443 28.999306 28.180223 29.117207 28.26 29.299999C 28.367369 29.456707 28.367369 29.663294 28.26 29.82C 27.033712 31.218311 25.259802 32.014015 23.400002 32ZM 44.599998 32C 42.768101 31.990932 41.027901 31.197287 39.82 29.82C 39.712631 29.663294 39.712631 29.456707 39.82 29.299999C 39.899776 29.117207 40.080559 28.999306 40.279999 29L 49.080002 29C 49.272152 29.007078 49.443218 29.123714 49.52 29.299999C 49.627369 29.456707 49.627369 29.663294 49.52 29.82C 48.280025 31.234344 46.480667 32.031624 44.600002 32ZM 34 10C 28.477455 9.948547 23.296272 12.666791 20.200001 17.24C 20.121464 17.397415 20.121464 17.582584 20.200001 17.74C 20.291019 17.897736 20.457924 17.996361 20.639999 18L 47.5 18C 47.703251 18.01899 47.898815 17.917297 47.999996 17.74C 48.078533 17.582584 48.078533 17.397415 48 17.24C 44.864662 12.606876 39.593025 9.880686 34 10Z"/>
      </g>
    </g>
  </g>
  <g id="g-root-ic_phot_1lxduu319a41z4-stroke-fill" data-item-order="-2304" transform="translate(470.1310119628906, 170)">
    <g id="ic_phot_1lxduu319a41z4-fill" stroke="none" fill="#b7b7b7">
      <g>
        <path d="M 38.599983 10.688C 39.203449 10.960199 39.688465 11.440958 39.965981 12.041999L 51.579975 37.515984C 51.72073 37.825466 51.694599 38.185261 51.510605 38.471161C 51.326611 38.757057 51.00996 38.929886 50.669971 38.929981L 17.565994 38.929981C 17.173563 38.929516 16.817677 38.699558 16.655996 38.34198L 10.752 25.283991C 10.440564 24.669054 10.417134 23.947844 10.688 23.313992C 10.959805 22.709776 11.440611 22.223999 12.041999 21.945992L 36.627983 10.754C 37.281982 10.434 37.981983 10.422 38.599983 10.688ZM 25.655991 27.857988C 25.655991 29.735756 24.13376 31.257988 22.255993 31.257988C 20.378225 31.257988 18.855995 29.735756 18.855995 27.85799C 18.855995 25.980223 20.378225 24.457993 22.255993 24.457993C 24.13376 24.457993 25.655991 25.980223 25.655991 27.85799ZM 36.581982 35.857983L 45.591976 31.853985L 45.551975 31.769987L 35.237984 27.081989C 34.957417 26.946121 34.62994 26.946857 34.349987 27.08399C 34.064629 27.240992 33.868694 27.521957 33.819984 27.843988L 32.279987 35.855984L 36.581982 35.855984ZM 45.381977 14.657997C 45.036991 14.649825 44.71217 14.820098 44.522636 15.108467C 44.333099 15.396838 44.305637 15.762553 44.449978 16.075996L 54.049969 36.87598C 54.245834 37.300625 54.709839 37.532818 55.167137 37.435032C 55.624435 37.337246 55.9529 36.935589 55.95797 36.467983L 56.15797 17.467995L 56.15797 17.455996C 56.15797 16.755995 55.945969 16.101995 55.497971 15.609997C 55.054924 15.126451 54.42778 14.85321 53.771969 14.857997L 45.381977 14.657997ZM 10.162 44.383976C 10.162 43.55555 10.833572 42.88398 11.661999 42.88398L 19.661993 42.883976C 20.490419 42.88398 21.161993 43.55555 21.161993 44.38398C 21.161993 45.212406 20.490419 45.88398 19.661995 45.88398L 13.159998 45.883976L 13.159998 48.383972L 18.659994 48.383972C 19.48842 48.383976 20.159994 49.055546 20.159994 49.883976C 20.159994 50.712402 19.48842 51.383976 18.659994 51.383976L 13.159998 51.383972L 13.159998 56.383968C 13.159998 57.212399 12.488425 57.883972 11.659999 57.883972C 10.831573 57.883972 10.16 57.212399 10.16 56.383972L 10.16 44.383976ZM 36.781982 44.383976C 36.781982 43.55555 36.110413 42.88398 35.281986 42.88398C 34.453556 42.88398 33.781986 43.55555 33.781986 44.38398L 33.781982 56.383968C 33.781986 57.212399 34.453556 57.883972 35.281986 57.883972C 36.110413 57.883972 36.781982 57.212399 36.781982 56.383972L 36.781982 53.003975L 38.199982 51.589973L 43.143978 57.35997C 43.683041 57.989437 44.630299 58.062786 45.259842 57.523811C 45.889381 56.984833 45.962864 56.037586 45.423977 55.40797L 40.325981 49.461975L 44.345978 45.443977C 44.914165 44.855145 44.905602 43.919582 44.326721 43.341251C 43.747845 42.76292 42.812279 42.755234 42.22398 43.323978L 37.231983 48.313972L 37.211983 48.333973L 36.783981 48.761974L 36.783981 44.383976ZM 48.339973 42.883976C 47.511551 42.88398 46.839977 43.55555 46.839977 44.38398L 46.839977 56.383968C 46.839977 57.211971 47.511978 57.883968 48.339973 57.883968L 56.33997 57.883968C 57.1684 57.883972 57.83997 57.212399 57.83997 56.383972C 57.83997 55.555542 57.1684 54.883972 56.33997 54.883972L 49.839973 54.883968L 49.839973 51.383972L 55.33997 51.383972C 56.1684 51.383976 56.83997 50.712402 56.83997 49.883976C 56.83997 49.055546 56.1684 48.383976 55.33997 48.383976L 49.839973 48.383972L 49.839973 45.883976L 56.33997 45.883976C 57.1684 45.88398 57.83997 45.212406 57.83997 44.38398C 57.83997 43.55555 57.1684 42.88398 56.33997 42.88398L 48.339973 42.883976ZM 26.373989 46.127975L 24.787991 50.883972L 27.959988 50.883972L 26.373989 46.127975ZM 31.453987 51.875973L 29.113987 44.857979C 28.721079 43.678375 27.617308 42.882637 26.373989 42.882637C 25.130671 42.882637 24.026901 43.678375 23.633991 44.857979L 21.293993 51.877972C 21.286823 51.899147 21.280153 51.920483 21.273993 51.941971L 19.949993 55.909969C 19.700975 56.691956 20.126616 57.528885 20.905231 57.788242C 21.683847 58.0476 22.526344 57.633083 22.795992 56.857971L 23.787991 53.883968L 28.959986 53.883968L 29.949987 56.857971C 30.219637 57.633083 31.062132 58.0476 31.840748 57.788242C 32.619366 57.528885 33.045006 56.691956 32.795986 55.909969L 31.475986 51.941975C 31.468533 51.919777 31.460529 51.89777 31.451986 51.875973Z"/>
      </g>
    </g>
  </g>
  <g id="g-root-ic_crim_hxrdjv19a5hxn-stroke-fill" data-item-order="-2304" transform="translate(830.1309814453125, 170)">
    <g id="ic_crim_hxrdjv19a5hxn-fill" stroke="none" fill="#f79438">
      <g>
        <path d="M 29.948 10.312C 27.620001 10.312 25.728001 11.8 25.048 13.84L 23.038 19.874001L 14.285999 19.874001C 12.470546 19.876207 10.999999 21.348545 11 23.164001L 11 53.834C 11 55.650002 12.472 57.119999 14.285999 57.119999L 53.714001 57.119999C 55.529999 57.119999 57 55.650002 57 53.834L 57 23.161999C 57 21.346001 55.529999 19.874001 53.714001 19.874001L 44.962002 19.874001L 42.952 13.842C 42.248119 11.733753 40.274643 10.312046 38.052002 10.312L 29.945999 10.312ZM 40.748001 19.874001L 39.158001 15.108C 38.998344 14.632821 38.553284 14.312506 38.052002 14.312L 29.948 14.312C 29.443035 14.300877 28.991796 14.625637 28.841999 15.108L 27.254 19.875999L 40.746002 19.875999ZM 42.299999 32.063999C 43.096001 33.515999 43.507999 35.146 43.5 36.804001C 43.492634 39.78989 42.109108 42.60564 39.75 44.436001L 39.75 46.054001C 39.75 47.710854 38.406853 49.054001 36.75 49.054001L 35.25 49.054001L 35.25 45.75C 35.25 44.921574 34.57843 44.25 33.75 44.25C 32.921574 44.25 32.25 44.921574 32.25 45.75L 32.25 49.054001L 30.75 49.054001C 29.093145 49.054001 27.75 47.710854 27.75 46.054001L 27.75 44.433998C 24.622963 41.998497 23.281086 37.912632 24.355251 34.097374C 25.429417 30.282116 28.705915 27.496529 32.644302 27.050259C 36.582684 26.603989 40.399391 28.585823 42.299999 32.064003ZM 30 38.496002C 29.171574 38.496002 28.5 37.824429 28.5 36.996002C 28.5 36.167572 29.171574 35.496002 30 35.496002C 30.828428 35.496002 31.5 36.167572 31.5 36.996002C 31.5 37.824429 30.828428 38.496002 30 38.496002ZM 36 36.996002C 36 37.824429 36.671574 38.496002 37.5 38.496002C 38.32843 38.496002 39 37.824429 39 36.996002C 39 36.167572 38.32843 35.496002 37.5 35.496002C 36.671574 35.496002 36 36.167572 36 36.996002Z"/>
      </g>
    </g>
  </g>
  <g id="g-root-tx_thesalem_5w1231901pu5-stroke-fill" data-item-order="0" transform="translate(212, 50)">
    <g id="tx_thesalem_5w1231901pu5-fill" stroke="none" fill="#f4f4f4">
      <g>
        <text style="font: 20px Roboto, sans-serif; white-space: pre;" font-size="20px" font-family="Roboto, sans-serif">
          <tspan x="14.66" y="34" dominant-baseline="ideographic">The Salem UFO Photograph: A Timeline of Events and Analysis</tspan>
        </text>
      </g>
    </g>
  </g>
  <g id="g-root-ic_pent_1lw61qz1901o26-stroke-fill" data-item-order="0" transform="translate(290.1310119628906, 410.0000305175781)">
    <g id="ic_pent_1lw61qz1901o26-stroke" fill="none" stroke-linecap="round" stroke-linejoin="round" stroke-miterlimit="4" stroke="#fb6762" stroke-width="2">
      <g>
        <path d="M 56.285686 30.571415L 33.999985 11.714285L 11.714285 30.571415L 21.999992 56.285686L 45.999977 56.285686L 56.285686 30.571415Z"/>
      </g>
    </g>
  </g>
  <g id="g-root-tx_july2919_4loe3f19a198k-stroke-fill" data-item-order="0" transform="translate(266, 134)">
    <g id="tx_july2919_4loe3f19a198k-fill" stroke="none" fill="#fb6762">
      <g>
        <text style="font: bold 20px Roboto, sans-serif; white-space: pre;" font-weight="bold" font-size="20px" font-family="Roboto, sans-serif">
          <tspan x="15.27" y="34" dominant-baseline="ideographic">July 29, 1952</tspan>
        </text>
      </g>
    </g>
  </g>
  <g id="g-root-tx_photoinc_1ur5ftn19a19u5-stroke-fill" data-item-order="0" transform="translate(266, 170)">
    <g id="tx_photoinc_1ur5ftn19a19u5-fill" stroke="none" fill="#ffe9e8">
      <g>
        <text style="font: 15px Roboto, sans-serif; white-space: pre;" font-size="15px" font-family="Roboto, sans-serif">
          <tspan x="16.36" y="31" dominant-baseline="ideographic">Photo included in </tspan>
          <tspan x="21.91" y="49" dominant-baseline="ideographic">Pentagon press </tspan>
          <tspan x="36.8" y="67" dominant-baseline="ideographic">conference</tspan>
        </text>
      </g>
    </g>
  </g>
  <g id="g-root-tx_1963_4osriz19a2nt7-stroke-fill" data-item-order="0" transform="translate(698, 134)">
    <g id="tx_1963_4osriz19a2nt7-fill" stroke="none" fill="#43dd93">
      <g>
        <text style="font: bold 20px Roboto, sans-serif; white-space: pre;" font-weight="bold" font-size="20px" font-family="Roboto, sans-serif">
          <tspan x="17.05" y="34" dominant-baseline="ideographic">1963</tspan>
        </text>
      </g>
    </g>
  </g>
  <g id="g-root-tx_reviseda_1qegb4r19a2p70-stroke-fill" data-item-order="0" transform="translate(602, 170)">
    <g id="tx_reviseda_1qegb4r19a2p70-fill" stroke="none" fill="#dffff0">
      <g>
        <text style="font: 15px Roboto, sans-serif; white-space: pre;" font-size="15px" font-family="Roboto, sans-serif">
          <tspan x="29.13" y="31" dominant-baseline="ideographic">Revised analysis: </tspan>
          <tspan x="16.22" y="49" dominant-baseline="ideographic">"reflections of ceiling </tspan>
          <tspan x="24" y="67" dominant-baseline="ideographic">lights on a window</tspan>
        </text>
      </g>
    </g>
  </g>
  <g id="g-root-tx_july1619_1d3m9uj19a2nm5-stroke-fill" data-item-order="0" transform="translate(86, 398)">
    <g id="tx_july1619_1d3m9uj19a2nm5-fill" stroke="none" fill="#4f91fc">
      <g>
        <text style="font: bold 20px Roboto, sans-serif; white-space: pre;" font-weight="bold" font-size="20px" font-family="Roboto, sans-serif">
          <tspan x="15.27" y="34" dominant-baseline="ideographic">July 16, 1952</tspan>
        </text>
      </g>
    </g>
  </g>
  <g id="g-root-tx_shellral_zs5rh719a2p72-stroke-fill" data-item-order="0" transform="translate(50, 434)">
    <g id="tx_shellral_zs5rh719a2p72-fill" stroke="none" fill="#ebf2ff">
      <g>
        <text style="font: 15px Roboto, sans-serif; white-space: pre;" font-size="15px" font-family="Roboto, sans-serif">
          <tspan x="14.53" y="31" dominant-baseline="ideographic">Shell R. Alpert captures </tspan>
          <tspan x="42.77" y="49" dominant-baseline="ideographic">the Salem UFO </tspan>
          <tspan x="53.83" y="67" dominant-baseline="ideographic">photograph</tspan>
        </text>
      </g>
    </g>
  </g>
  <g id="g-root-tx_1952_mdkvob19a43rg-stroke-fill" data-item-order="0" transform="translate(518, 398)">
    <g id="tx_1952_mdkvob19a43rg-fill" stroke="none" fill="#b7b7b7">
      <g>
        <text style="font: bold 20px Roboto, sans-serif; white-space: pre;" font-weight="bold" font-size="20px" font-family="Roboto, sans-serif">
          <tspan x="17.05" y="34" dominant-baseline="ideographic">1952</tspan>
        </text>
      </g>
    </g>
  </g>
  <g id="g-root-tx_initialc_4mxc9n19a42yu-stroke-fill" data-item-order="0" transform="translate(422, 434)">
    <g id="tx_initialc_4mxc9n19a42yu-fill" stroke="none" fill="#f4f4f4">
      <g>
        <text style="font: 15px Roboto, sans-serif; white-space: pre;" font-size="15px" font-family="Roboto, sans-serif">
          <tspan x="22.02" y="31" dominant-baseline="ideographic">Initial conclusion by </tspan>
          <tspan x="27.2" y="49" dominant-baseline="ideographic">Project Blue Book: </tspan>
          <tspan x="12.59" y="67" dominant-baseline="ideographic">"double exposure hoax</tspan>
        </text>
      </g>
    </g>
  </g>
  <g id="g-root-tx_1969_1448f2z19a5ipt-stroke-fill" data-item-order="0" transform="translate(878, 398)">
    <g id="tx_1969_1448f2z19a5ipt-fill" stroke="none" fill="#f79438">
      <g>
        <text style="font: bold 20px Roboto, sans-serif; white-space: pre;" font-weight="bold" font-size="20px" font-family="Roboto, sans-serif">
          <tspan x="17.05" y="34" dominant-baseline="ideographic">1969</tspan>
        </text>
      </g>
    </g>
  </g>
  <g id="g-root-tx_finalcla_v97vx719a5gcq-stroke-fill" data-item-order="0" transform="translate(794, 434)">
    <g id="tx_finalcla_v97vx719a5gcq-fill" stroke="none" fill="#fff0e2">
      <g>
        <text style="font: 15px Roboto, sans-serif; white-space: pre;" font-size="15px" font-family="Roboto, sans-serif">
          <tspan x="16.19" y="28" dominant-baseline="ideographic">Final classification: </tspan>
          <tspan x="37.47" y="46" dominant-baseline="ideographic">"unexplained</tspan>
        </text>
      </g>
    </g>
  </g>
</svg>
