<?xml version='1.0' encoding='utf-8'?>
<svg xmlns="http://www.w3.org/2000/svg" xmlns:xlink="http://www.w3.org/1999/xlink" width="744" height="684" viewBox="0 0 744 684" style="fill:none;stroke:none;fill-rule:evenodd;clip-rule:evenodd;stroke-linecap:round;stroke-linejoin:round;stroke-miterlimit:1.5;" version="1.1">
  <style class="text-font-style fontImports" data-font-family="Roboto">@import url('https://fonts.googleapis.com/css2?family=Roboto:wght@400;700&amp;display=block');</style>
  <rect x="0" y="0" width="744" height="684" fill="#252a34" stroke="none" id="programmatic_background"/>
  <g id="g-root-tf_zn6o2z1a41fkd-stroke-fill" data-item-order="-470820" transform="translate(18, 12)"/>
  <g id="g-root-sy_-1_Vector_4g2tm31a41g5n-stroke-fill" data-item-order="-12847" transform="translate(260, 149)">
    <g id="sy_-1_Vector_4g2tm31a41g5n-stroke" fill="none" stroke-linecap="round" stroke-linejoin="round" stroke-miterlimit="4" stroke="#f4f4f4" stroke-width="2">
      <g>
        <path d="M 10 388L 10 298M 10 292L 10 202M 10 196L 10 106M 10 100L 10 10"/>
      </g>
    </g>
  </g>
  <g id="g-root-sy_-1_line_9bhn1a41gxw-stroke-fill" data-item-order="-12843" transform="translate(260, 533)">
    <g id="sy_-1_line_9bhn1a41gxw-stroke" fill="none" stroke-linecap="round" stroke-linejoin="round" stroke-miterlimit="4" stroke="#f4f4f4" stroke-width="2">
      <g>
        <path d="M 10 94L 10 10"/>
        <path d="M 3.5 88L 10 94.5L 16.5 88" stroke-dasharray="none"/>
      </g>
    </g>
  </g>
  <g id="g-root-sy_5_cu_1q5qd7v1a41hjh-stroke-fill" data-item-order="-12840" transform="translate(257, 527)">
    <g id="sy_5_cu_1q5qd7v1a41hjh-fill" stroke="none" fill="none">
      <g>
        <path d="M 13 10L 13 10C 13 10 16 10 16 13L 16 13C 16 13 16 16 13 16L 13 16C 13 16 10 16 10 13L 10 13C 10 13 10 10 13 10"/>
      </g>
    </g>
    <g id="sy_5_cu_1q5qd7v1a41hjh-stroke" fill="none" stroke-linecap="round" stroke-linejoin="round" stroke-miterlimit="4" stroke="#8769fd" stroke-width="2">
      <g>
        <path d="M 13 10L 13 10C 13 10 16 10 16 13L 16 13C 16 13 16 16 13 16L 13 16C 13 16 10 16 10 13L 10 13C 10 13 10 10 13 10"/>
      </g>
    </g>
    <g id="sy_5_cu_1q5qd7v1a41hjh-stroke" fill="none" stroke-linecap="round" stroke-linejoin="round" stroke-miterlimit="4" stroke="#8769fd" stroke-width="2">
      <g>
        <path d="M 37 13L 16 13"/>
      </g>
    </g>
  </g>
  <g id="g-root-sy_4_cu_1lpwv3f1a41ibq-stroke-fill" data-item-order="-12836" transform="translate(257, 431)">
    <g id="sy_4_cu_1lpwv3f1a41ibq-fill" stroke="none" fill="none">
      <g>
        <path d="M 13 10L 13 10C 13 10 16 10 16 13L 16 13C 16 13 16 16 13 16L 13 16C 13 16 10 16 10 13L 10 13C 10 13 10 10 13 10"/>
      </g>
    </g>
    <g id="sy_4_cu_1lpwv3f1a41ibq-stroke" fill="none" stroke-linecap="round" stroke-linejoin="round" stroke-miterlimit="4" stroke="#43dd93" stroke-width="2">
      <g>
        <path d="M 13 10L 13 10C 13 10 16 10 16 13L 16 13C 16 13 16 16 13 16L 13 16C 13 16 10 16 10 13L 10 13C 10 13 10 10 13 10"/>
      </g>
    </g>
    <g id="sy_4_cu_1lpwv3f1a41ibq-stroke" fill="none" stroke-linecap="round" stroke-linejoin="round" stroke-miterlimit="4" stroke="#43dd93" stroke-width="2">
      <g>
        <path d="M 37 13L 16 13"/>
      </g>
    </g>
  </g>
  <g id="g-root-sy_3_cu_1cuwbxn1a41fyn-stroke-fill" data-item-order="-12832" transform="translate(257, 335)">
    <g id="sy_3_cu_1cuwbxn1a41fyn-fill" stroke="none" fill="none">
      <g>
        <path d="M 13 10L 13 10C 13 10 16 10 16 13L 16 13C 16 13 16 16 13 16L 13 16C 13 16 10 16 10 13L 10 13C 10 13 10 10 13 10"/>
      </g>
    </g>
    <g id="sy_3_cu_1cuwbxn1a41fyn-stroke" fill="none" stroke-linecap="round" stroke-linejoin="round" stroke-miterlimit="4" stroke="#a6da37" stroke-width="2">
      <g>
        <path d="M 13 10L 13 10C 13 10 16 10 16 13L 16 13C 16 13 16 16 13 16L 13 16C 13 16 10 16 10 13L 10 13C 10 13 10 10 13 10"/>
      </g>
    </g>
    <g id="sy_3_cu_1cuwbxn1a41fyn-stroke" fill="none" stroke-linecap="round" stroke-linejoin="round" stroke-miterlimit="4" stroke="#a6da37" stroke-width="2">
      <g>
        <path d="M 37 13L 16 13"/>
      </g>
    </g>
  </g>
  <g id="g-root-sy_2_cu_1hapu231a41fy8-stroke-fill" data-item-order="-12828" transform="translate(257, 239)">
    <g id="sy_2_cu_1hapu231a41fy8-fill" stroke="none" fill="none">
      <g>
        <path d="M 13 10L 13 10C 13 10 16 10 16 13L 16 13C 16 13 16 16 13 16L 13 16C 13 16 10 16 10 13L 10 13C 10 13 10 10 13 10"/>
      </g>
    </g>
    <g id="sy_2_cu_1hapu231a41fy8-stroke" fill="none" stroke-linecap="round" stroke-linejoin="round" stroke-miterlimit="4" stroke="#1ac3fb" stroke-width="2">
      <g>
        <path d="M 13 10L 13 10C 13 10 16 10 16 13L 16 13C 16 13 16 16 13 16L 13 16C 13 16 10 16 10 13L 10 13C 10 13 10 10 13 10"/>
      </g>
    </g>
    <g id="sy_2_cu_1hapu231a41fy8-stroke" fill="none" stroke-linecap="round" stroke-linejoin="round" stroke-miterlimit="4" stroke="#1ac3fb" stroke-width="2">
      <g>
        <path d="M 37 13L 16 13"/>
      </g>
    </g>
  </g>
  <g id="g-root-sy_1_cu_18f2tt71a41gqx-stroke-fill" data-item-order="-12824" transform="translate(257, 143)">
    <g id="sy_1_cu_18f2tt71a41gqx-fill" stroke="none" fill="none">
      <g>
        <path d="M 13 10L 13 10C 13 10 16 10 16 13L 16 13C 16 13 16 16 13 16L 13 16C 13 16 10 16 10 13L 10 13C 10 13 10 10 13 10"/>
      </g>
    </g>
    <g id="sy_1_cu_18f2tt71a41gqx-stroke" fill="none" stroke-linecap="round" stroke-linejoin="round" stroke-miterlimit="4" stroke="#4f91fc" stroke-width="2">
      <g>
        <path d="M 13 10L 13 10C 13 10 16 10 16 13L 16 13C 16 13 16 16 13 16L 13 16C 13 16 10 16 10 13L 10 13C 10 13 10 10 13 10"/>
      </g>
    </g>
    <g id="sy_1_cu_18f2tt71a41gqx-stroke" fill="none" stroke-linecap="round" stroke-linejoin="round" stroke-miterlimit="4" stroke="#4f91fc" stroke-width="2">
      <g>
        <path d="M 37 13L 16 13"/>
      </g>
    </g>
  </g>
  <g id="g-root-tx_thesocor_13z9bor1a41hj6-stroke-fill" data-item-order="0" transform="translate(152, 50)">
    <g id="tx_thesocor_13z9bor1a41hj6-fill" stroke="none" fill="#f4f4f4">
      <g>
        <text style="font: 20px Roboto, sans-serif; white-space: pre;" font-size="20px" font-family="Roboto, sans-serif">
          <tspan x="16.67" y="34" dominant-baseline="ideographic">The Socorro UFO Incident: A Timeline of Events</tspan>
        </text>
      </g>
    </g>
  </g>
  <g id="g-root-tx_projectb_qofaej1a41fyb-stroke-fill" data-item-order="0" transform="translate(308, 518)">
    <g id="tx_projectb_qofaej1a41fyb-fill" stroke="none" fill="#f4f4f4">
      <g>
        <text style="font: 20px Roboto, sans-serif; white-space: pre;" font-size="20px" font-family="Roboto, sans-serif">
          <tspan x="12" y="34" dominant-baseline="ideographic">Project Blue Book investigates the incident</tspan>
        </text>
      </g>
    </g>
  </g>
  <g id="g-root-tx_physical_dcys171a41hj8-stroke-fill" data-item-order="0" transform="translate(308, 422)">
    <g id="tx_physical_dcys171a41hj8-fill" stroke="none" fill="#f4f4f4">
      <g>
        <text style="font: 20px Roboto, sans-serif; white-space: pre;" font-size="20px" font-family="Roboto, sans-serif">
          <tspan x="12" y="34" dominant-baseline="ideographic">Physical evidence documented at the site</tspan>
        </text>
      </g>
    </g>
  </g>
  <g id="g-root-tx_objectem_24qqz1a41fyd-stroke-fill" data-item-order="0" transform="translate(308, 326)">
    <g id="tx_objectem_24qqz1a41fyd-fill" stroke="none" fill="#f4f4f4">
      <g>
        <text style="font: 20px Roboto, sans-serif; white-space: pre;" font-size="20px" font-family="Roboto, sans-serif">
          <tspan x="12" y="34" dominant-baseline="ideographic">Object emits roar and ascends</tspan>
        </text>
      </g>
    </g>
  </g>
  <g id="g-root-tx_zamoraap_1q7lsh71a41gjy-stroke-fill" data-item-order="0" transform="translate(308, 218)">
    <g id="tx_zamoraap_1q7lsh71a41gjy-fill" stroke="none" fill="#f4f4f4">
      <g>
        <text style="font: 20px Roboto, sans-serif; white-space: pre;" font-size="20px" font-family="Roboto, sans-serif">
          <tspan x="12" y="34" dominant-baseline="ideographic">Zamora approaches the object and sees </tspan>
          <tspan x="12" y="58" dominant-baseline="ideographic">figures</tspan>
        </text>
      </g>
    </g>
  </g>
  <g id="g-root-tx_lonnieza_1cw5a3v1a41i4v-stroke-fill" data-item-order="0" transform="translate(308, 134)">
    <g id="tx_lonnieza_1cw5a3v1a41i4v-fill" stroke="none" fill="#f4f4f4">
      <g>
        <text style="font: 20px Roboto, sans-serif; white-space: pre;" font-size="20px" font-family="Roboto, sans-serif">
          <tspan x="12" y="34" dominant-baseline="ideographic">Lonnie Zamora observes a flame in the sky</tspan>
        </text>
      </g>
    </g>
  </g>
  <g id="g-root-tx_april241_18gy92j1a41frc-stroke-fill" data-item-order="0" transform="translate(32, 506)">
    <g id="tx_april241_18gy92j1a41frc-fill" stroke="none" fill="#8769fd">
      <g>
        <text style="font: bold 20px Roboto, sans-serif; white-space: pre;" font-weight="bold" font-size="20px" font-family="Roboto, sans-serif">
          <tspan x="13.41" y="34" dominant-baseline="ideographic">April 24, 1964, shortly </tspan>
          <tspan x="88.84" y="58" dominant-baseline="ideographic">after 5:45 PM</tspan>
        </text>
      </g>
    </g>
  </g>
  <g id="g-root-tx_april241_v5hqp71a41hc9-stroke-fill" data-item-order="0" transform="translate(32, 410)">
    <g id="tx_april241_v5hqp71a41hc9-fill" stroke="none" fill="#43dd93">
      <g>
        <text style="font: bold 20px Roboto, sans-serif; white-space: pre;" font-weight="bold" font-size="20px" font-family="Roboto, sans-serif">
          <tspan x="13.41" y="34" dominant-baseline="ideographic">April 24, 1964, shortly </tspan>
          <tspan x="88.84" y="58" dominant-baseline="ideographic">after 5:45 PM</tspan>
        </text>
      </g>
    </g>
  </g>
  <g id="g-root-tx_april241_hunpez1a41fre-stroke-fill" data-item-order="0" transform="translate(32, 314)">
    <g id="tx_april241_hunpez1a41fre-fill" stroke="none" fill="#a6da37">
      <g>
        <text style="font: bold 20px Roboto, sans-serif; white-space: pre;" font-weight="bold" font-size="20px" font-family="Roboto, sans-serif">
          <tspan x="13.41" y="34" dominant-baseline="ideographic">April 24, 1964, shortly </tspan>
          <tspan x="88.84" y="58" dominant-baseline="ideographic">after 5:45 PM</tspan>
        </text>
      </g>
    </g>
  </g>
  <g id="g-root-tx_april241_4j771n1a41hcb-stroke-fill" data-item-order="0" transform="translate(32, 218)">
    <g id="tx_april241_4j771n1a41hcb-fill" stroke="none" fill="#1ac3fb">
      <g>
        <text style="font: bold 20px Roboto, sans-serif; white-space: pre;" font-weight="bold" font-size="20px" font-family="Roboto, sans-serif">
          <tspan x="13.41" y="34" dominant-baseline="ideographic">April 24, 1964, shortly </tspan>
          <tspan x="88.84" y="58" dominant-baseline="ideographic">after 5:45 PM</tspan>
        </text>
      </g>
    </g>
  </g>
  <g id="g-root-tx_april241_1q9h7qj1a41fkc-stroke-fill" data-item-order="0" transform="translate(56, 122)">
    <g id="tx_april241_1q9h7qj1a41fkc-fill" stroke="none" fill="#4f91fc">
      <g>
        <text style="font: bold 20px Roboto, sans-serif; white-space: pre;" font-weight="bold" font-size="20px" font-family="Roboto, sans-serif">
          <tspan x="12.05" y="34" dominant-baseline="ideographic">April 24, 1964, 5:45 </tspan>
          <tspan x="157.59" y="58" dominant-baseline="ideographic">PM</tspan>
        </text>
      </g>
    </g>
    <defs>
      <pattern id="crawlingPattern-0000001b" x="0" y="0" width="12" height="12" patternUnits="userSpaceOnUse" fill="#0000001b">
        <use href="#crawlingSymbol"/>
      </pattern>
      <symbol id="crawlingSymbol">
        <g>
          <path d="M -12.5 12.5 l 13 -13 l 6 0 l -13 13 Z M -0.5 12.5 l 13 -13 l 6 0 l -13 13 Z M 11.5 12.5 l 13 -13 l 6 0 l -13 13 Z"/>
        </g>
      </symbol>
      <pattern id="crawlingPattern-3300fc7a" x="0" y="0" width="12" height="12" patternUnits="userSpaceOnUse" fill="#3300fc7a">
        <use href="#crawlingSymbol"/>
      </pattern>
      <pattern id="crawlingPattern-00b15c75" x="0" y="0" width="12" height="12" patternUnits="userSpaceOnUse" fill="#00b15c75">
        <use href="#crawlingSymbol"/>
      </pattern>
      <pattern id="crawlingPattern-5c87005e" x="0" y="0" width="12" height="12" patternUnits="userSpaceOnUse" fill="#5c87005e">
        <use href="#crawlingSymbol"/>
      </pattern>
      <pattern id="crawlingPattern-00a3d9d9" x="0" y="0" width="12" height="12" patternUnits="userSpaceOnUse" fill="#00a3d9d9">
        <use href="#crawlingSymbol"/>
      </pattern>
      <pattern id="crawlingPattern-0060fba2" x="0" y="0" width="12" height="12" patternUnits="userSpaceOnUse" fill="#0060fba2">
        <use href="#crawlingSymbol"/>
      </pattern>
    </defs>
  </g>
</svg>
