<svg width="720" height="588" viewBox="0 0 720 588" style="fill:none;stroke:none;fill-rule:evenodd;clip-rule:evenodd;stroke-linecap:round;stroke-linejoin:round;stroke-miterlimit:1.5;" version="1.1" xmlns="http://www.w3.org/2000/svg" xmlns:xlink="http://www.w3.org/1999/xlink"><style class="text-font-style fontImports" data-font-family="Roboto">@import url('https://fonts.googleapis.com/css2?family=Roboto:wght@400;700&amp;display=block');</style><g id="g-root-tf_v2yyrf19k29l8-stroke-fill" data-item-order="-396024" transform="translate(12, 12)"></g><g id="g-root-sy_-1_Vector_1hgb88r19k0umd-stroke-fill" data-item-order="-10255" transform="translate(230, 149)"><g id="sy_-1_Vector_1hgb88r19k0umd-stroke" fill="none" stroke-linecap="round" stroke-linejoin="round" stroke-miterlimit="4" stroke="#f4f4f4" stroke-width="2"><g><path d="M 10 292L 10 202M 10 196L 10 106M 10 100L 10 10"></path></g></g><g id="sy_-1_Vector_1hgb88r19k0umd-stroke-overlay" fill="none" stroke-linecap="round" stroke-linejoin="round" stroke-miterlimit="4" stroke="#3131311a" stroke-width="2" stroke-dasharray="4,6"><animate attributeName="stroke-dashoffset" values="30;0" dur="1s" repeatCount="indefinite" begin="0"></animate><g><path d="M 10 292L 10 202M 10 196L 10 106M 10 100L 10 10"></path></g></g></g><g id="g-root-sy_-1_line_18ko7zv19k0vf2-stroke-fill" data-item-order="-10251" transform="translate(230, 437)"><g id="sy_-1_line_18ko7zv19k0vf2-stroke" fill="none" stroke-linecap="round" stroke-linejoin="round" stroke-miterlimit="4" stroke="#f4f4f4" stroke-width="2"><g><path d="M 10 94L 10 10"></path><path d="M 3.5 88L 10 94.5L 16.5 88" stroke-dasharray="none"></path></g></g><g id="sy_-1_line_18ko7zv19k0vf2-stroke-overlay" fill="none" stroke-linecap="round" stroke-linejoin="round" stroke-miterlimit="4" stroke="#3131311a" stroke-width="2" stroke-dasharray="4,6"><animate attributeName="stroke-dashoffset" values="30;0" dur="1s" repeatCount="indefinite" begin="0"></animate><g><path d="M 10 94L 10 10"></path><path d="M 3.5 88L 10 94.5L 16.5 88" stroke-dasharray="none"></path></g></g></g><g id="g-root-sy_4_cu_144upvf19k0w7b-stroke-fill" data-item-order="-10248" transform="translate(227, 431)"><g id="sy_4_cu_144upvf19k0w7b-fill" stroke="none" fill="none"><g><path d="M 13 10L 13 10C 13 10 16 10 16 13L 16 13C 16 13 16 16 13 16L 13 16C 13 16 10 16 10 13L 10 13C 10 13 10 10 13 10"></path></g></g><g id="sy_4_cu_144upvf19k0w7b-stroke" fill="none" stroke-linecap="round" stroke-linejoin="round" stroke-miterlimit="4" stroke="#a6da37" stroke-width="2"><g><path d="M 13 10L 13 10C 13 10 16 10 16 13L 16 13C 16 13 16 16 13 16L 13 16C 13 16 10 16 10 13L 10 13C 10 13 10 10 13 10"></path></g></g><g id="sy_4_cu_144upvf19k0w7b-stroke-overlay" fill="none" stroke-linecap="round" stroke-linejoin="round" stroke-miterlimit="4" stroke="#6b9d0056" stroke-width="2" stroke-dasharray="4,6"><animate attributeName="stroke-dashoffset" values="30;0" dur="1s" repeatCount="indefinite" begin="0"></animate><g><path d="M 13 10L 13 10C 13 10 16 10 16 13L 16 13C 16 13 16 16 13 16L 13 16C 13 16 10 16 10 13L 10 13C 10 13 10 10 13 10"></path></g></g><g id="sy_4_cu_144upvf19k0w7b-stroke" fill="none" stroke-linecap="round" stroke-linejoin="round" stroke-miterlimit="4" stroke="#a6da37" stroke-width="2"><g><path d="M 37 13L 16 13"></path></g></g><g id="sy_4_cu_144upvf19k0w7b-stroke-overlay" fill="none" stroke-linecap="round" stroke-linejoin="round" stroke-miterlimit="4" stroke="#6b9d0056" stroke-width="2" stroke-dasharray="4,6"><animate attributeName="stroke-dashoffset" values="30;0" dur="1s" repeatCount="indefinite" begin="0"></animate><g><path d="M 37 13L 16 13"></path></g></g></g><g id="g-root-sy_3_cu_zp17qz19k0wzk-stroke-fill" data-item-order="-10244" transform="translate(227, 335)"><g id="sy_3_cu_zp17qz19k0wzk-fill" stroke="none" fill="none"><g><path d="M 13 10L 13 10C 13 10 16 10 16 13L 16 13C 16 13 16 16 13 16L 13 16C 13 16 10 16 10 13L 10 13C 10 13 10 10 13 10"></path></g></g><g id="sy_3_cu_zp17qz19k0wzk-stroke" fill="none" stroke-linecap="round" stroke-linejoin="round" stroke-miterlimit="4" stroke="#43dd93" stroke-width="2"><g><path d="M 13 10L 13 10C 13 10 16 10 16 13L 16 13C 16 13 16 16 13 16L 13 16C 13 16 10 16 10 13L 10 13C 10 13 10 10 13 10"></path></g></g><g id="sy_3_cu_zp17qz19k0wzk-stroke-overlay" fill="none" stroke-linecap="round" stroke-linejoin="round" stroke-miterlimit="4" stroke="#00c5676e" stroke-width="2" stroke-dasharray="4,6"><animate attributeName="stroke-dashoffset" values="30;0" dur="1s" repeatCount="indefinite" begin="0"></animate><g><path d="M 13 10L 13 10C 13 10 16 10 16 13L 16 13C 16 13 16 16 13 16L 13 16C 13 16 10 16 10 13L 10 13C 10 13 10 10 13 10"></path></g></g><g id="sy_3_cu_zp17qz19k0wzk-stroke" fill="none" stroke-linecap="round" stroke-linejoin="round" stroke-miterlimit="4" stroke="#43dd93" stroke-width="2"><g><path d="M 37 13L 16 13"></path></g></g><g id="sy_3_cu_zp17qz19k0wzk-stroke-overlay" fill="none" stroke-linecap="round" stroke-linejoin="round" stroke-miterlimit="4" stroke="#00c5676e" stroke-width="2" stroke-dasharray="4,6"><animate attributeName="stroke-dashoffset" values="30;0" dur="1s" repeatCount="indefinite" begin="0"></animate><g><path d="M 37 13L 16 13"></path></g></g></g><g id="g-root-sy_2_cu_qu0ol719k0umh-stroke-fill" data-item-order="-10240" transform="translate(227, 239)"><g id="sy_2_cu_qu0ol719k0umh-fill" stroke="none" fill="none"><g><path d="M 13 10L 13 10C 13 10 16 10 16 13L 16 13C 16 13 16 16 13 16L 13 16C 13 16 10 16 10 13L 10 13C 10 13 10 10 13 10"></path></g></g><g id="sy_2_cu_qu0ol719k0umh-stroke" fill="none" stroke-linecap="round" stroke-linejoin="round" stroke-miterlimit="4" stroke="#1ac3fb" stroke-width="2"><g><path d="M 13 10L 13 10C 13 10 16 10 16 13L 16 13C 16 13 16 16 13 16L 13 16C 13 16 10 16 10 13L 10 13C 10 13 10 10 13 10"></path></g></g><g id="sy_2_cu_qu0ol719k0umh-stroke-overlay" fill="none" stroke-linecap="round" stroke-linejoin="round" stroke-miterlimit="4" stroke="#00ade7d7" stroke-width="2" stroke-dasharray="4,6"><animate attributeName="stroke-dashoffset" values="30;0" dur="1s" repeatCount="indefinite" begin="0"></animate><g><path d="M 13 10L 13 10C 13 10 16 10 16 13L 16 13C 16 13 16 16 13 16L 13 16C 13 16 10 16 10 13L 10 13C 10 13 10 10 13 10"></path></g></g><g id="sy_2_cu_qu0ol719k0umh-stroke" fill="none" stroke-linecap="round" stroke-linejoin="round" stroke-miterlimit="4" stroke="#1ac3fb" stroke-width="2"><g><path d="M 37 13L 16 13"></path></g></g><g id="sy_2_cu_qu0ol719k0umh-stroke-overlay" fill="none" stroke-linecap="round" stroke-linejoin="round" stroke-miterlimit="4" stroke="#00ade7d7" stroke-width="2" stroke-dasharray="4,6"><animate attributeName="stroke-dashoffset" values="30;0" dur="1s" repeatCount="indefinite" begin="0"></animate><g><path d="M 37 13L 16 13"></path></g></g></g><g id="g-root-sy_1_cu_me76gr19k0veq-stroke-fill" data-item-order="-10236" transform="translate(227, 143)"><g id="sy_1_cu_me76gr19k0veq-fill" stroke="none" fill="none"><g><path d="M 13 10L 13 10C 13 10 16 10 16 13L 16 13C 16 13 16 16 13 16L 13 16C 13 16 10 16 10 13L 10 13C 10 13 10 10 13 10"></path></g></g><g id="sy_1_cu_me76gr19k0veq-stroke" fill="none" stroke-linecap="round" stroke-linejoin="round" stroke-miterlimit="4" stroke="#4f91fc" stroke-width="2"><g><path d="M 13 10L 13 10C 13 10 16 10 16 13L 16 13C 16 13 16 16 13 16L 13 16C 13 16 10 16 10 13L 10 13C 10 13 10 10 13 10"></path></g></g><g id="sy_1_cu_me76gr19k0veq-stroke-overlay" fill="none" stroke-linecap="round" stroke-linejoin="round" stroke-miterlimit="4" stroke="#0060fb7c" stroke-width="2" stroke-dasharray="4,6"><animate attributeName="stroke-dashoffset" values="30;0" dur="1s" repeatCount="indefinite" begin="0"></animate><g><path d="M 13 10L 13 10C 13 10 16 10 16 13L 16 13C 16 13 16 16 13 16L 13 16C 13 16 10 16 10 13L 10 13C 10 13 10 10 13 10"></path></g></g><g id="sy_1_cu_me76gr19k0veq-stroke" fill="none" stroke-linecap="round" stroke-linejoin="round" stroke-miterlimit="4" stroke="#4f91fc" stroke-width="2"><g><path d="M 37 13L 16 13"></path></g></g><g id="sy_1_cu_me76gr19k0veq-stroke-overlay" fill="none" stroke-linecap="round" stroke-linejoin="round" stroke-miterlimit="4" stroke="#0060fb7c" stroke-width="2" stroke-dasharray="4,6"><animate attributeName="stroke-dashoffset" values="30;0" dur="1s" repeatCount="indefinite" begin="0"></animate><g><path d="M 37 13L 16 13"></path></g></g></g><g id="g-root-tx_thespaur_92qo3f19k0wzn-stroke-fill" data-item-order="0" transform="translate(74, 50)"><g id="tx_thespaur_92qo3f19k0wzn-fill" stroke="none" fill="#f4f4f4"><g><text style="font: 20px Roboto, sans-serif; white-space: pre;" font-size="20px" font-family="Roboto, sans-serif"><tspan x="17.38" y="34" dominant-baseline="ideographic">The Spaur/Neff Ravenna UFO Chase: A Timeline of Events</tspan></text></g></g><g id="tx_thespaur_92qo3f19k0wzn-fill-overlay" stroke="none" fill="url(#crawlingPattern-0000001b)"><g><text style="font: 20px Roboto, sans-serif; white-space: pre;" font-size="20px" font-family="Roboto, sans-serif"><tspan x="17.38" y="34" dominant-baseline="ideographic">The Spaur/Neff Ravenna UFO Chase: A Timeline of Events</tspan></text></g></g></g><g id="g-root-tx_objectas_7q4xn19k0umk-stroke-fill" data-item-order="0" transform="translate(278, 422)"><g id="tx_objectas_7q4xn19k0umk-fill" stroke="none" fill="#f4f4f4"><g><text style="font: 20px Roboto, sans-serif; white-space: pre;" font-size="20px" font-family="Roboto, sans-serif"><tspan x="12" y="34" dominant-baseline="ideographic">Object ascends and disappears</tspan></text></g></g><g id="tx_objectas_7q4xn19k0umk-fill-overlay" stroke="none" fill="url(#crawlingPattern-0000001b)"><g><text style="font: 20px Roboto, sans-serif; white-space: pre;" font-size="20px" font-family="Roboto, sans-serif"><tspan x="12" y="34" dominant-baseline="ideographic">Object ascends and disappears</tspan></text></g></g></g><g id="g-root-tx_officers_1lxdojf19k0w0d-stroke-fill" data-item-order="0" transform="translate(278, 326)"><g id="tx_officers_1lxdojf19k0w0d-fill" stroke="none" fill="#f4f4f4"><g><text style="font: 20px Roboto, sans-serif; white-space: pre;" font-size="20px" font-family="Roboto, sans-serif"><tspan x="12" y="34" dominant-baseline="ideographic">Officers contact Federal Aviation Agency</tspan></text></g></g><g id="tx_officers_1lxdojf19k0w0d-fill-overlay" stroke="none" fill="url(#crawlingPattern-0000001b)"><g><text style="font: 20px Roboto, sans-serif; white-space: pre;" font-size="20px" font-family="Roboto, sans-serif"><tspan x="12" y="34" dominant-baseline="ideographic">Officers contact Federal Aviation Agency</tspan></text></g></g></g><g id="g-root-tx_spaurrad_1hhk6ez19k0wsm-stroke-fill" data-item-order="0" transform="translate(278, 230)"><g id="tx_spaurrad_1hhk6ez19k0wsm-fill" stroke="none" fill="#f4f4f4"><g><text style="font: 20px Roboto, sans-serif; white-space: pre;" font-size="20px" font-family="Roboto, sans-serif"><tspan x="12" y="34" dominant-baseline="ideographic">Spaur radios dispatcher Robert Wilson</tspan></text></g></g><g id="tx_spaurrad_1hhk6ez19k0wsm-fill-overlay" stroke="none" fill="url(#crawlingPattern-0000001b)"><g><text style="font: 20px Roboto, sans-serif; white-space: pre;" font-size="20px" font-family="Roboto, sans-serif"><tspan x="12" y="34" dominant-baseline="ideographic">Spaur radios dispatcher Robert Wilson</tspan></text></g></g></g><g id="g-root-tx_deputies_146q54r19k0v7r-stroke-fill" data-item-order="0" transform="translate(278, 122)"><g id="tx_deputies_146q54r19k0v7r-fill" stroke="none" fill="#f4f4f4"><g><text style="font: 20px Roboto, sans-serif; white-space: pre;" font-size="20px" font-family="Roboto, sans-serif"><tspan x="12" y="34" dominant-baseline="ideographic">Deputies Spaur and Neff encounter a bright </tspan><tspan x="12" y="58" dominant-baseline="ideographic">light</tspan></text></g></g><g id="tx_deputies_146q54r19k0v7r-fill-overlay" stroke="none" fill="url(#crawlingPattern-0000001b)"><g><text style="font: 20px Roboto, sans-serif; white-space: pre;" font-size="20px" font-family="Roboto, sans-serif"><tspan x="12" y="34" dominant-baseline="ideographic">Deputies Spaur and Neff encounter a bright </tspan><tspan x="12" y="58" dominant-baseline="ideographic">light</tspan></text></g></g></g><g id="g-root-tx_april171_mg2lq319k0uf4-stroke-fill" data-item-order="0" transform="translate(26, 410)"><g id="tx_april171_mg2lq319k0uf4-fill" stroke="none" fill="#a6da37"><g><text style="font: bold 20px Roboto, sans-serif; white-space: pre;" font-weight="bold" font-size="20px" font-family="Roboto, sans-serif"><tspan x="12.05" y="34" dominant-baseline="ideographic">April 17, 1966, 6:15 </tspan><tspan x="157.05" y="58" dominant-baseline="ideographic">AM</tspan></text></g></g><g id="tx_april171_mg2lq319k0uf4-fill-overlay" stroke="none" fill="url(#crawlingPattern-5c87005e)"><g><text style="font: bold 20px Roboto, sans-serif; white-space: pre;" font-weight="bold" font-size="20px" font-family="Roboto, sans-serif"><tspan x="12.05" y="34" dominant-baseline="ideographic">April 17, 1966, 6:15 </tspan><tspan x="157.05" y="58" dominant-baseline="ideographic">AM</tspan></text></g></g></g><g id="g-root-tx_april171_dkflh719k0v7t-stroke-fill" data-item-order="0" transform="translate(26, 314)"><g id="tx_april171_dkflh719k0v7t-fill" stroke="none" fill="#43dd93"><g><text style="font: bold 20px Roboto, sans-serif; white-space: pre;" font-weight="bold" font-size="20px" font-family="Roboto, sans-serif"><tspan x="12.05" y="34" dominant-baseline="ideographic">April 17, 1966, 5:58 </tspan><tspan x="157.05" y="58" dominant-baseline="ideographic">AM</tspan></text></g></g><g id="tx_april171_dkflh719k0v7t-fill-overlay" stroke="none" fill="url(#crawlingPattern-00b15c75)"><g><text style="font: bold 20px Roboto, sans-serif; white-space: pre;" font-weight="bold" font-size="20px" font-family="Roboto, sans-serif"><tspan x="12.05" y="34" dominant-baseline="ideographic">April 17, 1966, 5:58 </tspan><tspan x="157.05" y="58" dominant-baseline="ideographic">AM</tspan></text></g></g></g><g id="g-root-tx_april171_8z33v19k0wsq-stroke-fill" data-item-order="0" transform="translate(26, 218)"><g id="tx_april171_8z33v19k0wsq-fill" stroke="none" fill="#1ac3fb"><g><text style="font: bold 20px Roboto, sans-serif; white-space: pre;" font-weight="bold" font-size="20px" font-family="Roboto, sans-serif"><tspan x="12.05" y="34" dominant-baseline="ideographic">April 17, 1966, 5:07 </tspan><tspan x="157.05" y="58" dominant-baseline="ideographic">AM</tspan></text></g></g><g id="tx_april171_8z33v19k0wsq-fill-overlay" stroke="none" fill="url(#crawlingPattern-00a3d9d9)"><g><text style="font: bold 20px Roboto, sans-serif; white-space: pre;" font-weight="bold" font-size="20px" font-family="Roboto, sans-serif"><tspan x="12.05" y="34" dominant-baseline="ideographic">April 17, 1966, 5:07 </tspan><tspan x="157.05" y="58" dominant-baseline="ideographic">AM</tspan></text></g></g></g><g id="g-root-tx_april171_1lz93sr19k0v0r-stroke-fill" data-item-order="0" transform="translate(26, 122)"><g id="tx_april171_1lz93sr19k0v0r-fill" stroke="none" fill="#4f91fc"><g><text style="font: bold 20px Roboto, sans-serif; white-space: pre;" font-weight="bold" font-size="20px" font-family="Roboto, sans-serif"><tspan x="12.05" y="34" dominant-baseline="ideographic">April 17, 1966, 5:00 </tspan><tspan x="157.05" y="58" dominant-baseline="ideographic">AM</tspan></text></g></g><defs><pattern id="crawlingPattern-0000001b" x="0" y="0" width="12" height="12" patternUnits="userSpaceOnUse" fill="#0000001b"><use href="#crawlingSymbol"></use></pattern><symbol id="crawlingSymbol"><g><animateTransform attributeName="transform" type="translate" from="0 0" to="-12 0" dur="0.4s" repeatCount="indefinite"></animateTransform><path d="M -12.5 12.5 l 13 -13 l 6 0 l -13 13 Z M -0.5 12.5 l 13 -13 l 6 0 l -13 13 Z M 11.5 12.5 l 13 -13 l 6 0 l -13 13 Z"></path></g></symbol><pattern id="crawlingPattern-5c87005e" x="0" y="0" width="12" height="12" patternUnits="userSpaceOnUse" fill="#5c87005e"><use href="#crawlingSymbol"></use></pattern><pattern id="crawlingPattern-00b15c75" x="0" y="0" width="12" height="12" patternUnits="userSpaceOnUse" fill="#00b15c75"><use href="#crawlingSymbol"></use></pattern><pattern id="crawlingPattern-00a3d9d9" x="0" y="0" width="12" height="12" patternUnits="userSpaceOnUse" fill="#00a3d9d9"><use href="#crawlingSymbol"></use></pattern><pattern id="crawlingPattern-0060fba2" x="0" y="0" width="12" height="12" patternUnits="userSpaceOnUse" fill="#0060fba2"><use href="#crawlingSymbol"></use></pattern></defs><g id="tx_april171_1lz93sr19k0v0r-fill-overlay" stroke="none" fill="url(#crawlingPattern-0060fba2)"><g><text style="font: bold 20px Roboto, sans-serif; white-space: pre;" font-weight="bold" font-size="20px" font-family="Roboto, sans-serif"><tspan x="12.05" y="34" dominant-baseline="ideographic">April 17, 1966, 5:00 </tspan><tspan x="157.05" y="58" dominant-baseline="ideographic">AM</tspan></text></g></g></g></svg>