<?xml version='1.0' encoding='utf-8'?>
<svg xmlns="http://www.w3.org/2000/svg" xmlns:xlink="http://www.w3.org/1999/xlink" width="1032" height="708" viewBox="0 0 1032 708" style="fill:none;stroke:none;fill-rule:evenodd;clip-rule:evenodd;stroke-linecap:round;stroke-linejoin:round;stroke-miterlimit:1.5;" version="1.1">
  <style class="text-font-style fontImports" data-font-family="Roboto">@import url('https://fonts.googleapis.com/css2?family=Roboto:wght@400;700&amp;display=block');</style>
  <rect x="0" y="0" width="1032" height="708" fill="#252a34" stroke="none" id="programmatic_background"/>
  <g id="g-root-tf_91iruz1901q17-stroke-fill" data-item-order="-683424" transform="translate(12, 12)"/>
  <g id="g-root-sy_4_cu_v9v5hn190ebyb-stroke-fill" data-item-order="-317369" transform="translate(602, 386)">
    <g id="sy_4_cu_v9v5hn190ebyb-stroke" fill="none" stroke-linecap="round" stroke-linejoin="round" stroke-miterlimit="4" stroke="#cb68f9" stroke-width="2">
      <g>
        <path d="M 33.850586 154.000488L 45.850586 154.000488M 58.200195 70L 70.200195 70M 87.9997 10L 21.9997 238L 10 238"/>
      </g>
    </g>
  </g>
  <g id="g-root-sy_3_cu_me858r190ecr0-stroke-fill" data-item-order="-317365" transform="translate(602, 158.00048828125)">
    <g id="sy_3_cu_me858r190ecr0-stroke" fill="none" stroke-linecap="round" stroke-linejoin="round" stroke-miterlimit="4" stroke="#b7b7b7" stroke-width="2">
      <g>
        <path d="M 33.84668 93.999512L 45.84668 93.999512M 58.195313 177.999512L 70.195313 177.999512M 87.9997 238L 21.9997 10L 10 10"/>
      </g>
    </g>
  </g>
  <g id="g-root-sy_2_cu_hz147f190eadh-stroke-fill" data-item-order="-317361" transform="translate(290, 385.99951171875)">
    <g id="sy_2_cu_hz147f190eadh-stroke" fill="none" stroke-linecap="round" stroke-linejoin="round" stroke-miterlimit="4" stroke="#1ac3fb" stroke-width="2">
      <g>
        <path d="M 33.851563 154.000488L 45.851563 154.000488M 58.200195 70.000488L 70.200195 70.000488M 87.9997 10L 21.9997 238L 10 238"/>
      </g>
    </g>
  </g>
  <g id="g-root-sy_1_cu_93e3yj190eb66-stroke-fill" data-item-order="-317357" transform="translate(290, 158.00048828125)">
    <g id="sy_1_cu_93e3yj190eb66-stroke" fill="none" stroke-linecap="round" stroke-linejoin="round" stroke-miterlimit="4" stroke="#43dd93" stroke-width="2">
      <g>
        <path d="M 33.851563 93.999512L 45.851563 93.999512M 58.200195 177.999512L 70.200195 177.999512M 87.9997 238L 21.9997 10L 10 10"/>
      </g>
    </g>
  </g>
  <g id="g-root-sy_-1_line_4nklu3190ebyf-stroke-fill" data-item-order="-317351" transform="translate(26, 386)">
    <g id="sy_-1_line_4nklu3190ebyf-stroke" fill="none" stroke-linecap="round" stroke-linejoin="round" stroke-miterlimit="4" stroke="#f4f4f4" stroke-width="2">
      <g>
        <path d="M 704 10L 10 10"/>
        <path d="M 698 16.5L 704.5 10L 698 3.5" stroke-dasharray="none"/>
      </g>
    </g>
  </g>
  <g id="g-root-tx_unraveli_4nklu3190ebyg-stroke-fill" data-item-order="0" transform="translate(794, 350)">
    <g id="tx_unraveli_4nklu3190ebyg-fill" stroke="none" fill="#f4f4f4">
      <g>
        <text style="font: 20px Roboto, sans-serif; white-space: pre;" font-size="20px" font-family="Roboto, sans-serif">
          <tspan x="12" y="34" dominant-baseline="ideographic">Unraveling the </tspan>
          <tspan x="12" y="58" dominant-baseline="ideographic">complexities of the </tspan>
          <tspan x="12" y="82" dominant-baseline="ideographic">1976 abduction case</tspan>
        </text>
      </g>
    </g>
  </g>
  <g id="g-root-tx_ongoingp_1qd85fv190edc9-stroke-fill" data-item-order="0" transform="translate(446, 422)">
    <g id="tx_ongoingp_1qd85fv190edc9-fill" stroke="none" fill="#f4f4f4">
      <g>
        <text style="font: 20px Roboto, sans-serif; white-space: pre;" font-size="20px" font-family="Roboto, sans-serif">
          <tspan x="18.56" y="34" dominant-baseline="ideographic">Ongoing paranormal </tspan>
          <tspan x="92.94" y="58" dominant-baseline="ideographic">experiences</tspan>
        </text>
      </g>
    </g>
  </g>
  <g id="g-root-tx_personal_1d2e45n190ebre-stroke-fill" data-item-order="0" transform="translate(422, 518)">
    <g id="tx_personal_1d2e45n190ebre-fill" stroke="none" fill="#f4f4f4">
      <g>
        <text style="font: 20px Roboto, sans-serif; white-space: pre;" font-size="20px" font-family="Roboto, sans-serif">
          <tspan x="20.2" y="34" dominant-baseline="ideographic">Personality changes</tspan>
        </text>
      </g>
    </g>
  </g>
  <g id="g-root-tx_postenco_zqxlsb190edcb-stroke-fill" data-item-order="0" transform="translate(338, 602)">
    <g id="tx_postenco_zqxlsb190edcb-fill" stroke="none" fill="#f4f4f4">
      <g>
        <text style="font: 20px Roboto, sans-serif; white-space: pre;" font-size="20px" font-family="Roboto, sans-serif">
          <tspan x="19.66" y="34" dominant-baseline="ideographic">Post-Encounter Effects</tspan>
        </text>
      </g>
    </g>
  </g>
  <g id="g-root-tx_alternat_mg3ki3190ebrg-stroke-fill" data-item-order="0" transform="translate(422, 302)">
    <g id="tx_alternat_mg3ki3190ebrg-fill" stroke="none" fill="#f4f4f4">
      <g>
        <text style="font: 20px Roboto, sans-serif; white-space: pre;" font-size="20px" font-family="Roboto, sans-serif">
          <tspan x="128.66" y="34" dominant-baseline="ideographic">Alternative </tspan>
          <tspan x="16.78" y="58" dominant-baseline="ideographic">explanations for events</tspan>
        </text>
      </g>
    </g>
  </g>
  <g id="g-root-tx_critique_94n24r190edcd-stroke-fill" data-item-order="0" transform="translate(434, 218)">
    <g id="tx_critique_94n24r190edcd-fill" stroke="none" fill="#f4f4f4">
      <g>
        <text style="font: 20px Roboto, sans-serif; white-space: pre;" font-size="20px" font-family="Roboto, sans-serif">
          <tspan x="14.61" y="34" dominant-baseline="ideographic">Critique of hypnotic </tspan>
          <tspan x="94.41" y="58" dominant-baseline="ideographic">regression</tspan>
        </text>
      </g>
    </g>
  </g>
  <g id="g-root-tx_skeptica_1uux2tn190ebke-stroke-fill" data-item-order="0" transform="translate(338, 146)">
    <g id="tx_skeptica_1uux2tn190ebke-fill" stroke="none" fill="#f4f4f4">
      <g>
        <text style="font: 20px Roboto, sans-serif; white-space: pre;" font-size="20px" font-family="Roboto, sans-serif">
          <tspan x="23.38" y="34" dominant-baseline="ideographic">Skeptical Perspectives</tspan>
        </text>
      </g>
    </g>
  </g>
  <g id="g-root-tx_hypnotic_1hjgkgb190ed5b-stroke-fill" data-item-order="0" transform="translate(134, 422)">
    <g id="tx_hypnotic_1hjgkgb190ed5b-fill" stroke="none" fill="#f4f4f4">
      <g>
        <text style="font: 20px Roboto, sans-serif; white-space: pre;" font-size="20px" font-family="Roboto, sans-serif">
          <tspan x="22.16" y="34" dominant-baseline="ideographic">Hypnotic regression </tspan>
          <tspan x="120.78" y="58" dominant-baseline="ideographic">sessions</tspan>
        </text>
      </g>
    </g>
  </g>
  <g id="g-root-tx_polygrap_18egfwr190fq4g-stroke-fill" data-item-order="0" transform="translate(98, 518)">
    <g id="tx_polygrap_18egfwr190fq4g-fill" stroke="none" fill="#f4f4f4">
      <g>
        <text style="font: 20px Roboto, sans-serif; white-space: pre;" font-size="20px" font-family="Roboto, sans-serif">
          <tspan x="18.95" y="34" dominant-baseline="ideographic">Polygraph test results</tspan>
        </text>
      </g>
    </g>
  </g>
  <g id="g-root-tx_investig_v2zxjf190frpd-stroke-fill" data-item-order="0" transform="translate(38, 602)">
    <g id="tx_investig_v2zxjf190frpd-fill" stroke="none" fill="#f4f4f4">
      <g>
        <text style="font: 20px Roboto, sans-serif; white-space: pre;" font-size="20px" font-family="Roboto, sans-serif">
          <tspan x="16.34" y="34" dominant-baseline="ideographic">Investigative Methods</tspan>
        </text>
      </g>
    </g>
  </g>
  <g id="g-root-tx_consiste_hs5w97190fq4i-stroke-fill" data-item-order="0" transform="translate(134, 302)">
    <g id="tx_consiste_hs5w97190fq4i-fill" stroke="none" fill="#f4f4f4">
      <g>
        <text style="font: 20px Roboto, sans-serif; white-space: pre;" font-size="20px" font-family="Roboto, sans-serif">
          <tspan x="17.16" y="34" dominant-baseline="ideographic">Consistent accounts </tspan>
          <tspan x="64.63" y="58" dominant-baseline="ideographic">under hypnosis</tspan>
        </text>
      </g>
    </g>
  </g>
  <g id="g-root-tx_respecte_8wiw0b190fqx7-stroke-fill" data-item-order="0" transform="translate(98, 218)">
    <g id="tx_respecte_8wiw0b190fqx7-fill" stroke="none" fill="#f4f4f4">
      <g>
        <text style="font: 20px Roboto, sans-serif; white-space: pre;" font-size="20px" font-family="Roboto, sans-serif">
          <tspan x="13.16" y="34" dominant-baseline="ideographic">Respected community </tspan>
          <tspan x="127.38" y="58" dominant-baseline="ideographic">members</tspan>
        </text>
      </g>
    </g>
  </g>
  <g id="g-root-tx_witnessc_1umswp7190fp58-stroke-fill" data-item-order="0" transform="translate(62, 146)">
    <g id="tx_witnessc_1umswp7190fp58-fill" stroke="none" fill="#f4f4f4">
      <g>
        <text style="font: 20px Roboto, sans-serif; white-space: pre;" font-size="20px" font-family="Roboto, sans-serif">
          <tspan x="23.41" y="34" dominant-baseline="ideographic">Witness Credibility</tspan>
        </text>
      </g>
    </g>
  </g>
  <g id="g-root-tx_analyzin_1hbcebv190fqq5-stroke-fill" data-item-order="0" transform="translate(296, 50)">
    <g id="tx_analyzin_1hbcebv190fqq5-fill" stroke="none" fill="#f4f4f4">
      <g>
        <text style="font: 20px Roboto, sans-serif; white-space: pre;" font-size="20px" font-family="Roboto, sans-serif">
          <tspan x="15.39" y="34" dominant-baseline="ideographic">Analyzing the Stanford Kentucky Abduction Case</tspan>
        </text>
      </g>
    </g>
    <defs>
      <pattern id="crawlingPattern-0000001b" x="0" y="0" width="12" height="12" patternUnits="userSpaceOnUse" fill="#0000001b">
        <use href="#crawlingSymbol"/>
      </pattern>
      <symbol id="crawlingSymbol">
        <g>
          <path d="M -12.5 12.5 l 13 -13 l 6 0 l -13 13 Z M -0.5 12.5 l 13 -13 l 6 0 l -13 13 Z M 11.5 12.5 l 13 -13 l 6 0 l -13 13 Z"/>
        </g>
      </symbol>
    </defs>
  </g>
  <g id="g-root-ic_iden_140id1n190fp5a-stroke-fill" data-item-order="0" transform="translate(254, 140)">
    <g id="ic_iden_140id1n190fp5a-stroke" fill="none" stroke-linecap="round" stroke-linejoin="round" stroke-miterlimit="4" stroke="#f4f4f4" stroke-width="2">
      <g>
        <path d="M 34.381001 28.921001C 38.129059 24.500801 37.818813 17.934292 33.6707 13.887162C 29.522585 9.840033 22.950424 9.691685 18.623924 13.547523C 14.297423 17.403362 13.691203 23.949184 17.236 28.533998L 13.786 36.145L 20.7295 31.494999C 25.316734 33.969368 31.009789 32.895939 34.381001 28.921001ZM 42.25 35.431C 42.295662 32.380859 39.973904 29.815176 36.934372 29.556913C 33.894844 29.298649 31.173491 31.435827 30.703884 34.449947C 30.234278 37.464066 32.176468 40.327835 35.150497 41.0065L 36.293499 45.25L 37.563999 41.050003C 40.257389 40.519379 42.211754 38.175892 42.25 35.431Z"/>
      </g>
    </g>
  </g>
  <g id="g-root-ic_pers_1lza2kr190h3wn-stroke-fill" data-item-order="0" transform="translate(254, 596)">
    <g id="ic_pers_1lza2kr190h3wn-stroke" fill="none" stroke-linecap="round" stroke-linejoin="round" stroke-miterlimit="4" stroke="#f4f4f4" stroke-width="2">
      <g>
        <path d="M 27.25 14.5C 27.25 16.571068 28.928932 18.25 31 18.25C 33.071068 18.25 34.75 16.571068 34.75 14.5C 34.75 12.428932 33.071068 10.75 31 10.75C 28.928932 10.75 27.25 12.428932 27.25 14.5ZM 43 45.25C 41.757362 45.25 40.75 44.242641 40.75 43L 40.75 31.150002C 40.749317 30.617437 40.560749 30.102192 40.217499 29.695L 35.894501 24.377501L 34.017998 25.837C 31.329393 27.922499 27.509769 27.684776 25.1005 25.282L 22.66 22.841499C 21.80731 21.958649 21.819504 20.555307 22.687407 19.687407C 23.555307 18.819504 24.958649 18.80731 25.841499 19.66L 28.282 22.1005C 29.084606 22.903078 30.359322 22.982185 31.255001 22.285L 34.8685 19.4755C 35.834198 18.723726 37.223671 18.881668 37.996002 19.831001L 43.681 26.8225C 44.696243 28.035828 45.251736 29.567949 45.249996 31.15L 45.25 43C 45.25 44.242641 44.242641 45.25 43 45.25ZM 15.25 18.25C 15.25 19.078426 14.578427 19.75 13.75 19.75L 12.25 19.75C 11.421573 19.75 10.75 19.078426 10.75 18.25L 10.75 12.25C 10.75 11.421573 11.421573 10.75 12.25 10.75L 13.75 10.75C 14.578427 10.75 15.25 11.421573 15.25 12.25ZM 24.25 15.4795C 24.249662 16.212727 23.719299 16.838251 22.995998 16.9585L 15.25 18.25L 15.25 12.25L 22.8745 12.886C 23.653954 12.950913 24.252697 13.603854 24.25 14.386ZM 18.25 17.7505L 18.25 45.25M 11.5 45.25L 18.25 28L 25 45.25"/>
      </g>
    </g>
  </g>
  <g id="g-root-ic_2_1uualqj190ijnk-stroke-fill" data-item-order="0" transform="translate(566, 140)">
    <g id="ic_2_1uualqj190ijnk-stroke" fill="none" stroke-linecap="round" stroke-linejoin="round" stroke-miterlimit="4" stroke="#f4f4f4" stroke-width="2">
      <g>
        <path d="M 26.328701 41.570351C 34.521698 41.570351 41.163399 34.928799 41.163399 26.7358C 41.163399 18.54286 34.521698 11.90119 26.328701 11.90119C 18.13582 11.90119 11.494141 18.54286 11.494141 26.7358C 11.494141 34.928799 18.13582 41.570351 26.328701 41.570351ZM 10 10M 37.1362 36.890198L 44.505398 44.0989M 20.58721 35.302299L 20.58721 30.090401C 19.437731 29.025549 18.63607 27.6388 18.28693 26.1112C 17.937775 24.58366 18.057384 22.986324 18.6301 21.5278C 19.202816 20.06926 20.20204 18.817329 21.49729 17.93548C 22.792542 17.053631 24.323589 16.582855 25.890551 16.58461C 31.8295 16.58461 33.111401 21.474491 35.2285 26.96665C 35.264801 27.06115 35.27755 27.163149 35.265701 27.2638C 35.253849 27.3643 35.217701 27.460449 35.1604 27.544001C 35.1031 27.627399 35.026299 27.695801 34.936752 27.74305C 34.847198 27.7903 34.747452 27.81505 34.646198 27.815199L 33.065651 27.815199L 33.065651 30.3109C 33.065651 30.972851 32.8027 31.6075 32.334702 32.075649C 31.866699 32.543652 31.231899 32.806599 30.56995 32.806599L 29.3221 32.806599L 29.3221 35.302299M 23.636965 23.33758C 23.636965 22.184336 24.55957 21.146456 25.82815 21.146456C 26.98135 21.146456 28.01935 22.069016 28.01935 23.33758C 28.01935 24.490839 27.096701 25.528749 25.82815 25.528749L 25.82815 26.50135M 25.828751 29.696051C 25.677999 29.696051 25.527399 29.8468 25.527399 29.997551C 25.527399 30.1483 25.677999 30.298901 25.828751 30.298901M 25.8286 29.696051C 25.979349 29.696051 26.1301 29.8468 26.1301 29.997551C 26.1301 30.1483 25.979349 30.298901 25.8286 30.298901"/>
      </g>
    </g>
  </g>
  <g id="g-root-ic_conv_1cuwf4b190lc7d-stroke-fill" data-item-order="0" transform="translate(566, 596)">
    <g id="ic_conv_1cuwf4b190lc7d-stroke" fill="none" stroke-linecap="round" stroke-linejoin="round" stroke-miterlimit="4" stroke="#f4f4f4" stroke-width="2">
      <g>
        <path d="M 40.720001 15.838C 41.03186 16.244585 41.03186 16.809914 40.720001 17.216499C 39.550003 18.747999 36.34 22.299999 31.711 22.299999C 27.081999 22.299999 23.870499 18.7465 22.702 17.215C 22.389864 16.809067 22.389864 16.243935 22.702 15.838C 23.870499 14.305 27.081999 10.75 31.711 10.75C 36.34 10.75 39.550003 14.3065 40.720001 15.838ZM 31.711 13.9735C 33.119328 13.9735 34.261002 15.115174 34.261002 16.5235C 34.261002 17.931826 33.119328 19.0735 31.711002 19.0735C 30.302675 19.0735 29.161001 17.931826 29.161001 16.5235C 29.161001 15.115174 30.302675 13.9735 31.711002 13.9735M 12.7675 33.695499C 12.767087 36.248177 14.836324 38.317749 17.389 38.317749C 19.941677 38.317749 22.010914 36.248177 22.0105 33.695499C 22.010914 31.142824 19.941677 29.073252 17.389 29.073252C 14.836324 29.073252 12.767087 31.142824 12.7675 33.695499M 23.897501 45.25C 22.924772 42.489662 20.316463 40.643291 17.38975 40.643291C 14.463037 40.643291 11.854726 42.489662 10.882 45.249996M 42.449501 31.909C 43.352097 34.071388 42.494118 36.567093 40.45269 37.717384C 38.411255 38.867676 35.832066 38.30872 34.449997 36.4165M 44.693501 45.25C 43.720772 42.489662 41.112465 40.643291 38.185749 40.643291C 35.259037 40.643291 32.650726 42.489662 31.677999 45.249996M 42.807999 10.75C 44.084362 10.75 45.118828 11.785136 45.117996 13.0615L 45.118 23.844999C 45.117996 25.120777 44.083775 26.154999 42.807999 26.154999L 35.875 26.155001L 28.943501 33.088001L 28.943501 26.155001L 20.543499 26.155001C 19.267721 26.154999 18.2335 25.120777 18.2335 23.844999L 18.2335 13.0615C 18.23267 11.785722 19.266222 10.750828 20.542 10.75M 14.0365 30.518499C 16.039194 32.784061 18.998276 33.964691 22.0105 33.699997"/>
      </g>
    </g>
  </g>
  <g id="g-root-ic_ufo_1q7lvnv190mq6a-stroke-fill" data-item-order="0" transform="translate(734, 362)">
    <g id="ic_ufo_1q7lvnv190mq6a-stroke" fill="none" stroke-linecap="round" stroke-linejoin="round" stroke-miterlimit="4" stroke="#f4f4f4" stroke-width="2">
      <g>
        <path d="M 49 22.5C 52.977859 22.499041 56.352161 25.420879 56.919998 29.358C 56.961449 29.646814 56.874687 29.939325 56.682472 30.158836C 56.490257 30.378345 56.211758 30.502958 55.919998 30.5L 12.07 30.5C 11.778242 30.502958 11.499743 30.378345 11.307528 30.158836C 11.115312 29.939325 11.028553 29.646814 11.07 29.358C 11.638377 25.417118 15.018346 22.494064 19 22.5ZM 19 22.5C 19 17.5 25.716 11.5 34 11.5C 42.284 11.5 49 17.5 49 22.5M 47.77 39.5L 52.995998 56.5M 14.996 56.5L 20.232 39.5M 34.996002 49.5L 31.996 53.652M 37.996002 53.5L 34.996002 49.5M 31.996 46.5L 37.996002 46.5M 35 41.5C 35.552284 41.5 36 41.947716 36 42.5M 34 42.5C 34 41.947716 34.447716 41.5 35 41.5M 35 43.5C 34.447716 43.5 34 43.052284 34 42.5M 36 42.5C 36 43.052284 35.552284 43.5 35 43.5M 34.996002 49.5L 34.996002 46.5M 25 30.5C 25 33.261421 22.761425 35.5 20 35.5C 17.238577 35.5 15 33.261421 15 30.5M 39 30.5C 39 33.261421 36.761425 35.5 34 35.5C 31.238577 35.5 29 33.261421 29 30.5M 53 30.5C 53 33.261421 50.761425 35.5 48 35.5C 45.238575 35.5 43 33.261421 43 30.5"/>
      </g>
    </g>
  </g>
</svg>
