<?xml version='1.0' encoding='utf-8'?>
<svg xmlns="http://www.w3.org/2000/svg" xmlns:xlink="http://www.w3.org/1999/xlink" width="744" height="576" viewBox="0 0 744 576" style="fill:none;stroke:none;fill-rule:evenodd;clip-rule:evenodd;stroke-linecap:round;stroke-linejoin:round;stroke-miterlimit:1.5;" version="1.1">
  <style class="text-font-style fontImports" data-font-family="Roboto">@import url('https://fonts.googleapis.com/css2?family=Roboto:wght@400;700&amp;display=block');</style>
  <rect x="0" y="0" width="744" height="576" fill="#252a34" stroke="none" id="programmatic_background"/>
  <g id="g-root-tf_1hfq2kr1aehxj4-stroke-fill" data-item-order="-397440" transform="translate(12, 12)">
    <g id="tf_1hfq2kr1aehxj4-fill" stroke="none" fill="#2c2c2c">
      <g>
        <path d="M 0 0L 720 0L 720 552L 0 552Z"/>
      </g>
    </g>
    <defs>
      <pattern id="crawlingPattern-00bcfb62" x="0" y="0" width="12" height="12" patternUnits="userSpaceOnUse" fill="#00bcfb62">
        <use href="#crawlingSymbol"/>
      </pattern>
      <symbol id="crawlingSymbol">
        <g>
          <path d="M -12.5 12.5 l 13 -13 l 6 0 l -13 13 Z M -0.5 12.5 l 13 -13 l 6 0 l -13 13 Z M 11.5 12.5 l 13 -13 l 6 0 l -13 13 Z"/>
        </g>
      </symbol>
      <pattern id="crawlingPattern-8ed00028" x="0" y="0" width="12" height="12" patternUnits="userSpaceOnUse" fill="#8ed00028">
        <use href="#crawlingSymbol"/>
      </pattern>
      <pattern id="crawlingPattern-00d16d21" x="0" y="0" width="12" height="12" patternUnits="userSpaceOnUse" fill="#00d16d21">
        <use href="#crawlingSymbol"/>
      </pattern>
      <pattern id="crawlingPattern-0060fb20" x="0" y="0" width="12" height="12" patternUnits="userSpaceOnUse" fill="#0060fb20">
        <use href="#crawlingSymbol"/>
      </pattern>
      <pattern id="crawlingPattern-0000001b" x="0" y="0" width="12" height="12" patternUnits="userSpaceOnUse" fill="#0000001b">
        <use href="#crawlingSymbol"/>
      </pattern>
      <pattern id="crawlingPattern-00baff39" x="0" y="0" width="12" height="12" patternUnits="userSpaceOnUse" fill="#00baff39">
        <use href="#crawlingSymbol"/>
      </pattern>
      <pattern id="crawlingPattern-acff003c" x="0" y="0" width="12" height="12" patternUnits="userSpaceOnUse" fill="#acff003c">
        <use href="#crawlingSymbol"/>
      </pattern>
      <pattern id="crawlingPattern-00ff873a" x="0" y="0" width="12" height="12" patternUnits="userSpaceOnUse" fill="#00ff873a">
        <use href="#crawlingSymbol"/>
      </pattern>
      <pattern id="crawlingPattern-0059ff37" x="0" y="0" width="12" height="12" patternUnits="userSpaceOnUse" fill="#0059ff37">
        <use href="#crawlingSymbol"/>
      </pattern>
      <pattern id="crawlingPattern-00a3d9d9" x="0" y="0" width="12" height="12" patternUnits="userSpaceOnUse" fill="#00a3d9d9">
        <use href="#crawlingSymbol"/>
      </pattern>
      <pattern id="crawlingPattern-5c87005e" x="0" y="0" width="12" height="12" patternUnits="userSpaceOnUse" fill="#5c87005e">
        <use href="#crawlingSymbol"/>
      </pattern>
      <pattern id="crawlingPattern-00b15c75" x="0" y="0" width="12" height="12" patternUnits="userSpaceOnUse" fill="#00b15c75">
        <use href="#crawlingSymbol"/>
      </pattern>
      <pattern id="crawlingPattern-0060fba2" x="0" y="0" width="12" height="12" patternUnits="userSpaceOnUse" fill="#0060fba2">
        <use href="#crawlingSymbol"/>
      </pattern>
      <pattern id="crawlingPattern-c1c1c11a" x="0" y="0" width="12" height="12" patternUnits="userSpaceOnUse" fill="#c1c1c11a">
        <use href="#crawlingSymbol"/>
      </pattern>
      <pattern id="crawlingPattern-5f5f5f1a" x="0" y="0" width="12" height="12" patternUnits="userSpaceOnUse" fill="#5f5f5f1a">
        <use href="#crawlingSymbol"/>
      </pattern>
    </defs>
  </g>
  <g id="g-root-sy_-1_Vector_qst1u31ae9j4d-stroke-fill" data-item-order="-28507" transform="translate(230, 182)">
    <g id="sy_-1_Vector_qst1u31ae9j4d-stroke" fill="none" stroke-linecap="round" stroke-linejoin="round" stroke-miterlimit="4" stroke="#f4f4f4" stroke-width="2">
      <g>
        <path d="M 10 226L 10 202M 10 130L 10 106M 10 34L 10 10"/>
      </g>
    </g>
  </g>
  <g id="g-root-sy_-1_line_mdm0sr1ae9gqu-stroke-fill" data-item-order="-28503" transform="translate(230, 470)">
    <g id="sy_-1_line_mdm0sr1ae9gqu-stroke" fill="none" stroke-linecap="round" stroke-linejoin="round" stroke-miterlimit="4" stroke="#f4f4f4" stroke-width="2">
      <g>
        <path d="M 10 44L 10 10"/>
        <path d="M 3.5 38L 10 44.5L 16.5 38" stroke-dasharray="none"/>
      </g>
    </g>
  </g>
  <g id="g-root-cr_4_cr-big_mdm0sr1ae9gqv-stroke-fill" data-item-order="-28500" transform="translate(194, 398)">
    <g id="cr_4_cr-big_mdm0sr1ae9gqv-fill" stroke="none" fill="#1ac3fb">
      <g>
        <path d="M 10 46C 10 65.882251 26.117749 82 46 82C 65.882251 82 82 65.882251 82 46C 82 26.117749 65.882251 10 46 10C 26.117749 10 10 26.117749 10 46"/>
      </g>
    </g>
    <g id="cr_4_cr-big_mdm0sr1ae9gqv-stroke" fill="none" stroke-linecap="round" stroke-linejoin="round" stroke-miterlimit="4" stroke="#2c2c2c" stroke-width="2">
      <g>
        <path d="M 10 46C 10 65.882251 26.117749 82 46 82C 65.882251 82 82 65.882251 82 46C 82 26.117749 65.882251 10 46 10C 26.117749 10 10 26.117749 10 46"/>
      </g>
    </g>
  </g>
  <g id="g-root-cr_3_cr-big_hxsiob1ae9hj4-stroke-fill" data-item-order="-28496" transform="translate(194, 302)">
    <g id="cr_3_cr-big_hxsiob1ae9hj4-fill" stroke="none" fill="#a6da37">
      <g>
        <path d="M 10 46C 10 65.882251 26.117749 82 46 82C 65.882251 82 82 65.882251 82 46C 82 26.117749 65.882251 10 46 10C 26.117749 10 10 26.117749 10 46"/>
      </g>
    </g>
    <g id="cr_3_cr-big_hxsiob1ae9hj4-stroke" fill="none" stroke-linecap="round" stroke-linejoin="round" stroke-miterlimit="4" stroke="#2c2c2c" stroke-width="2">
      <g>
        <path d="M 10 46C 10 65.882251 26.117749 82 46 82C 65.882251 82 82 65.882251 82 46C 82 26.117749 65.882251 10 46 10C 26.117749 10 10 26.117749 10 46"/>
      </g>
    </g>
  </g>
  <g id="g-root-cr_2_cr-big_925iff1ae9ibt-stroke-fill" data-item-order="-28492" transform="translate(194, 206)">
    <g id="cr_2_cr-big_925iff1ae9ibt-fill" stroke="none" fill="#43dd93">
      <g>
        <path d="M 10 46C 10 65.882251 26.117749 82 46 82C 65.882251 82 82 65.882251 82 46C 82 26.117749 65.882251 10 46 10C 26.117749 10 10 26.117749 10 46"/>
      </g>
    </g>
    <g id="cr_2_cr-big_925iff1ae9ibt-stroke" fill="none" stroke-linecap="round" stroke-linejoin="round" stroke-miterlimit="4" stroke="#2c2c2c" stroke-width="2">
      <g>
        <path d="M 10 46C 10 65.882251 26.117749 82 46 82C 65.882251 82 82 65.882251 82 46C 82 26.117749 65.882251 10 46 10C 26.117749 10 10 26.117749 10 46"/>
      </g>
    </g>
  </g>
  <g id="g-root-cr_1_cr-big_925iff1ae9ibu-stroke-fill" data-item-order="-28488" transform="translate(194, 110)">
    <g id="cr_1_cr-big_925iff1ae9ibu-fill" stroke="none" fill="#4f91fc">
      <g>
        <path d="M 10 46C 10 65.882251 26.117749 82 46 82C 65.882251 82 82 65.882251 82 46C 82 26.117749 65.882251 10 46 10C 26.117749 10 10 26.117749 10 46"/>
      </g>
    </g>
    <g id="cr_1_cr-big_925iff1ae9ibu-stroke" fill="none" stroke-linecap="round" stroke-linejoin="round" stroke-miterlimit="4" stroke="#2c2c2c" stroke-width="2">
      <g>
        <path d="M 10 46C 10 65.882251 26.117749 82 46 82C 65.882251 82 82 65.882251 82 46C 82 26.117749 65.882251 10 46 10C 26.117749 10 10 26.117749 10 46"/>
      </g>
    </g>
  </g>
  <g id="g-root-ic_user_1hiug0b1ae9h58-stroke-fill" data-item-order="-2304" transform="translate(206, 410)">
    <g id="ic_user_1hiug0b1ae9h58-fill" stroke="none" fill="#f4f4f4">
      <g>
        <path d="M 12 15C 10.895431 15 10 15.895431 10 17L 10 45C 10 46.104568 10.895431 47 12 47C 13.104569 47 14 46.104568 14 45L 14 17C 14 15.895431 13.104569 15 12 15ZM 19.060001 23C 17.955431 23 17.059999 23.895432 17.059999 25L 17.059999 37C 17.059999 38.104568 17.955431 39 19.060001 39C 20.16457 39 21.060001 38.104568 21.060001 37L 21.060001 25C 21.060001 23.895432 20.16457 23 19.060001 23ZM 26 20C 24.895432 20 24 20.895432 24 22L 24 40C 24 41.104568 24.895432 42 26 42C 27.10457 42 28 41.104568 28 40L 28 22C 28 20.895432 27.10457 20 26 20ZM 35.059998 12C 35.059998 10.895431 34.16457 10 33.059998 10C 31.955431 10 31.059999 10.895431 31.059999 12L 31.059999 50C 31.059999 51.104568 31.955431 52 33.059998 52C 34.16457 52 35.059998 51.104568 35.059998 50ZM 54 31C 55.104568 31 56 30.10457 56 29L 56 17C 56 15.895431 55.104568 15 54 15C 52.895432 15 52 15.895431 52 17L 52 29C 52 30.10457 52.895432 31 54 31ZM 47.060001 29C 48.16457 29 49.060001 28.10457 49.060001 27L 49.060001 25C 49.060001 23.895432 48.16457 23 47.060001 23C 45.955429 23 45.060001 23.895432 45.060001 25L 45.060001 27C 45.060001 28.10457 45.955429 29 47.060001 29ZM 40 31C 41.104568 31 42 30.10457 42 29L 42 22C 42 20.895432 41.104568 20 40 20C 38.895432 20 38 20.895432 38 22L 38 29C 38 30.10457 38.895432 31 40 31ZM 57.84 56C 56.537262 52.514763 53.717625 49.812916 50.18 48.66C 49.984932 48.588371 49.851238 48.40749 49.839996 48.199997C 49.821812 47.996746 49.93412 47.804211 50.119999 47.719997C 53.724915 46.028877 55.672703 42.061874 54.806389 38.175385C 53.940079 34.288895 50.491871 31.524683 46.509998 31.524683C 42.52813 31.524683 39.079926 34.288895 38.213608 38.175385C 37.347298 42.061874 39.29509 46.028877 42.900002 47.720001C 43.084377 47.798546 43.204041 47.979591 43.204041 48.18C 43.204041 48.380409 43.084377 48.561455 42.900002 48.639999C 39.288258 49.755241 36.389885 52.469242 35.040001 56C 34.868507 56.456909 34.933285 56.968987 35.21315 57.368797C 35.493019 57.768604 35.951996 58.004745 36.440002 58L 56.439999 58C 56.924438 57.995419 57.376839 57.757149 57.654659 57.360264C 57.93248 56.963375 58.001511 56.456749 57.84 56ZM 42 40C 41.998501 39.509926 42.079639 39.023102 42.240002 38.559998C 42.297207 38.417702 42.41431 38.307915 42.559998 38.259998C 42.690964 38.188869 42.849033 38.188869 42.98 38.260002C 44.746284 39.356819 46.78093 39.945065 48.860001 39.959999C 49.375694 39.960583 49.890625 39.920456 50.400002 39.840004C 50.553288 39.826996 50.705173 39.877625 50.82 39.98C 50.926186 40.084396 50.977905 40.232166 50.959999 40.379997C 50.855068 42.854237 48.764236 44.774937 46.290001 44.670002C 43.815765 44.565067 41.895069 42.474239 42.000004 40Z"/>
      </g>
    </g>
  </g>
  <g id="g-root-ic_tv_zmkmtn1aecav9-stroke-fill" data-item-order="-2304" transform="translate(206, 314)">
    <g id="ic_tv_zmkmtn1aecav9-fill" stroke="none" fill="#f4f4f4">
      <g>
        <path d="M 41 24C 39.895432 24 39 24.895432 39 26L 39 42C 39 43.104568 39.895432 44 41 44C 42.104568 44 43 43.104568 43 42L 43 26C 43 24.895432 42.104568 24 41 24ZM 18 31L 14 31L 14 26C 14 24.895432 13.104569 24 12 24C 10.895431 24 10 24.895432 10 26L 10 42C 10 43.104568 10.895431 44 12 44C 13.104569 44 14 43.104568 14 42L 14 35L 18 35L 18 42C 18 43.104568 18.895432 44 20 44C 21.104568 44 22 43.104568 22 42L 22 35C 22 32.790863 20.209139 31 18 31ZM 34 31C 32.895432 31 32 31.89543 32 33L 32 40L 28 40L 28 33C 28 31.89543 27.10457 31 26 31C 24.895432 31 24 31.89543 24 33L 24 40C 24 42.209141 25.790861 44 28 44L 32 44C 34.209137 44 36 42.209141 36 40L 36 33C 36 31.89543 35.104568 31 34 31ZM 56 31C 54.895432 31 54 31.89543 54 33L 54 40L 50 40L 50 33C 50 31.89543 49.104568 31 48 31C 46.895432 31 46 31.89543 46 33L 46 40C 46 42.209141 47.790859 44 50 44L 54 44C 56.209141 44 58 42.209141 58 40L 58 33C 58 31.89543 57.104568 31 56 31Z"/>
      </g>
    </g>
  </g>
  <g id="g-root-ic_carr_w8ej1aef56u-stroke-fill" data-item-order="-2304" transform="translate(206, 218)">
    <g id="ic_carr_w8ej1aef56u-fill" stroke="none" fill="#f4f4f4">
      <g>
        <path d="M 34.400002 16.32C 34.22464 16.1796 33.975357 16.1796 33.799999 16.32C 32.165661 17.47401 30.199682 18.063805 28.199999 18C 29.00489 20.582125 31.395332 22.340868 34.099998 22.340868C 36.804665 22.340868 39.195107 20.582125 40 18C 38.001457 18.055145 36.038155 17.466152 34.400002 16.32ZM 33.260002 14.1C 33.426544 13.798269 33.75713 13.625104 34.099998 13.66C 34.435299 13.659687 34.749336 13.824183 34.939999 14.1C 36.229744 15.500186 38.107426 16.205244 40 16C 40.058083 16.021431 40.12191 16.021431 40.18 16C 40.18 16 40.18 15.88 40.18 15.82C 39.708847 12.848289 37.165977 10.647773 34.15741 10.608252C 31.148844 10.568729 28.549046 12.701692 27.999998 15.66C 27.982777 15.718763 27.982777 15.781236 28 15.84C 28.0448 15.916047 28.115974 15.972987 28.200001 16C 30.092575 16.205244 31.970255 15.500186 33.260002 14.1ZM 42.119999 34.260002C 42.198254 34.11665 42.198254 33.943344 42.119999 33.799999C 41.580002 31.799999 40.879997 29.440001 40.120003 26.98C 39.383392 24.219828 36.856144 22.320263 34 22.379999C 31.190678 22.382408 28.731686 24.267635 27.999998 26.98C 27.24 29.540001 26.52 32.099998 26 34C 25.928818 34.138031 25.928818 34.301968 26 34.439999C 26.796682 35.516083 27.287355 36.787682 27.42 38.119999C 27.416773 38.266685 27.480814 38.406799 27.593851 38.500343C 27.706886 38.593891 27.856501 38.6306 27.999998 38.599998L 29.219999 38.599998C 29.46475 38.604855 29.67297 38.779758 29.719999 39.019997L 30.959999 45.200001C 31.050669 45.693634 31.499624 46.038986 32 46L 36.440002 46C 36.912556 45.992577 37.318123 45.661503 37.419998 45.200001L 38.66 39.02C 38.698341 38.782875 38.899887 38.606529 39.139999 38.599998L 40 38.599998C 40.257858 38.611629 40.478752 38.417248 40.5 38.159996C 40.6553 36.731667 41.21759 35.377998 42.120003 34.260002ZM 25.76 42C 25.616405 42 25.5 41.883591 25.5 41.739998L 25.5 38.900002C 25.5 35.862434 23.037567 33.400002 20 33.400002C 16.962435 33.400002 14.5 35.862434 14.5 38.900002L 14.5 41.739998C 14.5 41.883591 14.383594 42 14.24 42C 13.101097 42.020004 12.148399 42.870628 12 44L 10.52 55.400002C 10.437626 56.058849 10.641493 56.721416 11.08 57.219997C 11.518209 57.721695 12.153905 58.006664 12.82 58L 27.18 58C 27.846094 58.006664 28.481791 57.721695 28.92 57.219997C 29.358505 56.721416 29.562374 56.058849 29.48 55.399998L 28 44C 27.848501 42.848114 26.861761 41.990078 25.699999 42ZM 17.5 38.900002C 17.5 37.519287 18.619289 36.400002 20 36.400002C 21.380711 36.400002 22.5 37.519287 22.5 38.900002L 22.5 41.5C 22.5 41.776142 22.276142 42 22 42L 18 42C 17.723858 42 17.5 41.776142 17.5 41.5ZM 57.48 55.400002L 56 44C 55.848499 42.848114 54.861759 41.990078 53.699997 42C 53.556404 42 53.439999 41.883591 53.439999 41.739998L 53.439999 38.900002C 53.440002 35.862434 50.977566 33.400002 47.940002 33.400002C 44.902435 33.400002 42.440002 35.862434 42.440002 38.900002L 42.439999 41.739998C 42.439999 41.883591 42.323593 42 42.179996 42C 41.064095 42.048874 40.144623 42.892426 40 44L 38.580002 55.380001C 38.497623 56.038849 38.701492 56.70142 39.139999 57.199997C 39.578209 57.701694 40.213905 57.986664 40.879997 57.98L 55.240002 57.98C 55.906094 57.986664 56.54179 57.701694 56.98 57.200001C 57.391544 56.696579 57.572941 56.043556 57.48 55.399998ZM 45.48 38.900002C 45.48 37.519287 46.599289 36.400002 47.98 36.400002C 49.360714 36.400002 50.48 37.519287 50.48 38.900002L 50.48 41.5C 50.480213 41.768517 50.268303 41.989258 50 42L 46 42C 45.723858 42 45.5 41.776142 45.5 41.5Z"/>
      </g>
    </g>
  </g>
  <g id="g-root-ic_ufo_1cws70r1aegjrb-stroke-fill" data-item-order="-2304" transform="translate(206, 122)">
    <g id="ic_ufo_1cws70r1aegjrb-fill" stroke="none" fill="#f4f4f4">
      <g>
        <path d="M 50.779999 39.48C 50.49268 38.408726 49.391396 37.77314 48.32008 38.060295C 47.24876 38.34745 46.613007 39.448639 46.899998 40.519997L 51.139999 56.52C 51.30584 57.231823 51.846767 57.796497 52.550816 57.992748C 53.25486 58.188999 54.009895 57.985573 54.520046 57.462177C 55.030201 56.938786 55.214222 56.178791 55 55.48ZM 19.82 38C 18.754391 37.720551 17.663445 38.355446 17.380001 39.419998L 13.14 55.419998C 12.925778 56.11879 13.109798 56.878784 13.619952 57.40218C 14.130106 57.925571 14.885139 58.129002 15.589186 57.932751C 16.293234 57.7365 16.83416 57.171825 17 56.459999L 21.24 40.459999C 21.380281 39.945396 21.309196 39.39608 21.042547 38.934139C 20.775898 38.472198 20.335775 38.135902 19.82 38ZM 38 49.860001C 39.203453 49.748383 40.123898 48.738621 40.123898 47.529999C 40.123898 46.321381 39.203453 45.311615 38 45.200001L 31.08 45.200001C 29.876545 45.311615 28.9561 46.321381 28.9561 47.529999C 28.9561 48.738621 29.876545 49.748383 31.08 49.860001L 32.239998 49.860001L 32.239998 50.18L 29.200001 54.299999C 28.437847 55.332775 28.657228 56.787849 29.690001 57.550003C 30.722773 58.312153 32.177849 58.092773 32.940002 57.060001L 34.599998 54.82L 36.200001 57.080002C 36.978722 58.129345 38.460663 58.348724 39.510002 57.570004C 40.559341 56.791279 40.778725 55.309341 40 54.260002L 37 50.16L 37 49.860001ZM 38 40.239998C 38.008102 38.822594 37.160507 37.540237 35.85331 36.992199C 34.546112 36.44416 33.03743 36.738647 32.032288 37.738045C 31.027142 38.73745 30.724012 40.244415 31.264553 41.554733C 31.805094 42.865051 33.082569 43.719978 34.5 43.720001C 35.426414 43.725323 36.316711 43.361034 36.973671 42.707829C 37.63063 42.054626 38.000015 41.166428 38 40.239998ZM 56.959999 29C 57.256584 29.003077 57.540375 28.879374 57.739998 28.659998C 57.943413 28.447105 58.032631 28.149708 57.98 27.860001C 57.289928 23.844007 53.774273 20.931278 49.700001 21L 18.299999 21C 14.218212 20.921293 10.691198 23.836391 10 27.860001C 9.947369 28.149708 10.036588 28.447105 10.24 28.66C 10.439621 28.879374 10.723413 29.003077 11.02 28.999998L 13.28 29C 13.484316 29.002653 13.666457 29.12936 13.74 29.32C 13.899547 29.722376 14.079787 30.116236 14.280001 30.500002C 16.065369 33.888172 19.580214 36.009026 23.41 36.009026C 27.239786 36.009026 30.754631 33.888172 32.540001 30.5C 32.740211 30.116236 32.920456 29.722376 33.080002 29.320002C 33.148697 29.125612 33.333855 28.996807 33.540001 28.999998L 34.459999 29C 34.666145 28.996807 34.851299 29.125612 34.919998 29.32C 35.079548 29.722376 35.259789 30.116236 35.459999 30.500002C 37.245369 33.888172 40.760216 36.009026 44.59 36.009026C 48.419785 36.009026 51.934631 33.888172 53.720001 30.5C 53.920216 30.116236 54.100456 29.722376 54.260002 29.320002C 54.328697 29.125612 54.513851 28.996807 54.719997 28.999998ZM 23.4 32C 21.569786 31.983295 19.832561 31.191006 18.619999 29.82C 18.522778 29.660299 18.522778 29.4597 18.619999 29.299999C 18.686577 29.141253 18.830135 29.027918 19 29L 27.799999 29C 27.999443 28.999306 28.180223 29.117207 28.26 29.299999C 28.367369 29.456707 28.367369 29.663294 28.26 29.82C 27.033712 31.218311 25.259802 32.014015 23.400002 32ZM 44.599998 32C 42.768101 31.990932 41.027901 31.197287 39.82 29.82C 39.712631 29.663294 39.712631 29.456707 39.82 29.299999C 39.899776 29.117207 40.080559 28.999306 40.279999 29L 49.080002 29C 49.272152 29.007078 49.443218 29.123714 49.52 29.299999C 49.627369 29.456707 49.627369 29.663294 49.52 29.82C 48.280025 31.234344 46.480667 32.031624 44.600002 32ZM 34 10C 28.477455 9.948547 23.296272 12.666791 20.200001 17.24C 20.121464 17.397415 20.121464 17.582584 20.200001 17.74C 20.291019 17.897736 20.457924 17.996361 20.639999 18L 47.5 18C 47.703251 18.01899 47.898815 17.917297 47.999996 17.74C 48.078533 17.582584 48.078533 17.397415 48 17.24C 44.864662 12.606876 39.593025 9.880686 34 10Z"/>
      </g>
    </g>
  </g>
  <g id="g-root-tx_thestanf_4mc0az1ae9j43-stroke-fill" data-item-order="0" transform="translate(104, 50)">
    <g id="tx_thestanf_4mc0az1ae9j43-fill" stroke="none" fill="#f4f4f4">
      <g>
        <text style="font: 20px Roboto, sans-serif; white-space: pre;" font-size="20px" font-family="Roboto, sans-serif">
          <tspan x="12.02" y="34" dominant-baseline="ideographic">The Stanford Abduction Case: A Timeline of Events</tspan>
        </text>
      </g>
    </g>
  </g>
  <g id="g-root-tx_caseinve_1qcm0zv1ae9hc4-stroke-fill" data-item-order="0" transform="translate(290, 410)">
    <g id="tx_caseinve_1qcm0zv1ae9hc4-fill" stroke="none" fill="#e5f8ff">
      <g>
        <text style="font: 20px Roboto, sans-serif; white-space: pre;" font-size="20px" font-family="Roboto, sans-serif">
          <tspan x="12" y="34" dominant-baseline="ideographic">Case investigated with polygraph tests and </tspan>
          <tspan x="12" y="58" dominant-baseline="ideographic">hypnotic regression</tspan>
        </text>
      </g>
    </g>
  </g>
  <g id="g-root-tx_theufoin_1d15imj1ae9ix1-stroke-fill" data-item-order="0" transform="translate(290, 314)">
    <g id="tx_theufoin_1d15imj1ae9ix1-fill" stroke="none" fill="#f2ffd7">
      <g>
        <text style="font: 20px Roboto, sans-serif; white-space: pre;" font-size="20px" font-family="Roboto, sans-serif">
          <tspan x="12" y="34" dominant-baseline="ideographic">The UFO Incident" television movie brings </tspan>
          <tspan x="12" y="58" dominant-baseline="ideographic">Hill story to mass audience</tspan>
        </text>
      </g>
    </g>
  </g>
  <g id="g-root-tx_stanford_zqbhcb1ae9hc6-stroke-fill" data-item-order="0" transform="translate(290, 218)">
    <g id="tx_stanford_zqbhcb1ae9hc6-fill" stroke="none" fill="#dffff0">
      <g>
        <text style="font: 20px Roboto, sans-serif; white-space: pre;" font-size="20px" font-family="Roboto, sans-serif">
          <tspan x="12" y="34" dominant-baseline="ideographic">Stanford, Kentucky abduction occurs, </tspan>
          <tspan x="12" y="58" dominant-baseline="ideographic">involving three women</tspan>
        </text>
      </g>
    </g>
  </g>
  <g id="g-root-tx_bettyand_quoh3f1ae9i4v-stroke-fill" data-item-order="0" transform="translate(290, 122)">
    <g id="tx_bettyand_quoh3f1ae9i4v-fill" stroke="none" fill="#ebf2ff">
      <g>
        <text style="font: 20px Roboto, sans-serif; white-space: pre;" font-size="20px" font-family="Roboto, sans-serif">
          <tspan x="12" y="34" dominant-baseline="ideographic">Betty and Barney Hill case sets the stage for </tspan>
          <tspan x="12" y="58" dominant-baseline="ideographic">alien abduction narratives</tspan>
        </text>
      </g>
    </g>
  </g>
  <g id="g-root-tx_1976_hznxxn1ae9gjk-stroke-fill" data-item-order="0" transform="translate(122, 422)">
    <g id="tx_1976_hznxxn1ae9gjk-fill" stroke="none" fill="#1ac3fb">
      <g>
        <text style="font: bold 20px Roboto, sans-serif; white-space: pre;" font-weight="bold" font-size="20px" font-family="Roboto, sans-serif">
          <tspan x="22.09" y="34" dominant-baseline="ideographic">1976</tspan>
        </text>
      </g>
    </g>
  </g>
  <g id="g-root-tx_1975_940xor1ae9hc9-stroke-fill" data-item-order="0" transform="translate(122, 326)">
    <g id="tx_1975_940xor1ae9hc9-fill" stroke="none" fill="#a6da37">
      <g>
        <text style="font: bold 20px Roboto, sans-serif; white-space: pre;" font-weight="bold" font-size="20px" font-family="Roboto, sans-serif">
          <tspan x="22.09" y="34" dominant-baseline="ideographic">1975</tspan>
        </text>
      </g>
    </g>
  </g>
  <g id="g-root-tx_january6_4o7fkb1ae9i4i-stroke-fill" data-item-order="0" transform="translate(26, 230)">
    <g id="tx_january6_4o7fkb1ae9i4i-fill" stroke="none" fill="#43dd93">
      <g>
        <text style="font: bold 20px Roboto, sans-serif; white-space: pre;" font-weight="bold" font-size="20px" font-family="Roboto, sans-serif">
          <tspan x="19.2" y="34" dominant-baseline="ideographic">January 6, 1976</tspan>
        </text>
      </g>
    </g>
  </g>
  <g id="g-root-tx_1961_1utohaj1ae9iq3-stroke-fill" data-item-order="0" transform="translate(122, 134)">
    <g id="tx_1961_1utohaj1ae9iq3-fill" stroke="none" fill="#4f91fc">
      <g>
        <text style="font: bold 20px Roboto, sans-serif; white-space: pre;" font-weight="bold" font-size="20px" font-family="Roboto, sans-serif">
          <tspan x="22.09" y="34" dominant-baseline="ideographic">1961</tspan>
        </text>
      </g>
    </g>
  </g>
</svg>
