<svg width="600" height="516" viewBox="0 0 600 516" style="fill:none;stroke:none;fill-rule:evenodd;clip-rule:evenodd;stroke-linecap:round;stroke-linejoin:round;stroke-miterlimit:1.5;" version="1.1" xmlns="http://www.w3.org/2000/svg" xmlns:xlink="http://www.w3.org/1999/xlink"><style class="text-font-style fontImports" data-font-family="Roboto">@import url('https://fonts.googleapis.com/css2?family=Roboto:wght@400;700&amp;display=block');</style><g id="g-root-tf_1hefszv1cby803-stroke-fill" data-item-order="-286344" transform="translate(9, 12)"><g id="tf_1hefszv1cby803-fill" stroke="none" fill="#2c2c2c"><g><path d="M 0 0L 582 0L 582 492L 0 492Z"></path></g></g><defs><pattern id="crawlingPattern-8484841a" x="0" y="0" width="12" height="12" patternUnits="userSpaceOnUse" fill="#8484841a"><use href="#crawlingSymbol"></use></pattern><symbol id="crawlingSymbol"><g><animateTransform attributeName="transform" type="translate" from="0 0" to="-12 0" dur="0.4s" repeatCount="indefinite"></animateTransform><path d="M -12.5 12.5 l 13 -13 l 6 0 l -13 13 Z M -0.5 12.5 l 13 -13 l 6 0 l -13 13 Z M 11.5 12.5 l 13 -13 l 6 0 l -13 13 Z"></path></g></symbol><pattern id="crawlingPattern-f576002d" x="0" y="0" width="12" height="12" patternUnits="userSpaceOnUse" fill="#f576002d"><use href="#crawlingSymbol"></use></pattern><pattern id="crawlingPattern-00bcfb62" x="0" y="0" width="12" height="12" patternUnits="userSpaceOnUse" fill="#00bcfb62"><use href="#crawlingSymbol"></use></pattern><pattern id="crawlingPattern-0000001b" x="0" y="0" width="12" height="12" patternUnits="userSpaceOnUse" fill="#0000001b"><use href="#crawlingSymbol"></use></pattern><pattern id="crawlingPattern-5f5f5f1a" x="0" y="0" width="12" height="12" patternUnits="userSpaceOnUse" fill="#5f5f5f1a"><use href="#crawlingSymbol"></use></pattern></defs><g id="tf_1hefszv1cby803-fill-overlay" stroke="none" fill="url(#crawlingPattern-5f5f5f1a)"><g><path d="M 0 0L 582 0L 582 492L 0 492Z"></path></g></g></g><g id="g-root-sy_4_cu_qvxf9n1c1x8g3-stroke-fill" data-item-order="-31639" transform="translate(197, 273)"><g id="sy_4_cu_qvxf9n1c1x8g3-stroke" fill="none" stroke-linecap="round" stroke-linejoin="round" stroke-miterlimit="4" stroke="#f4f4f4" stroke-width="2"><g><path d="M 10 34L 10 46.961C 10 51.765 14.204 55.485 18.972 54.901L 88 46.448M 178 10L 178 27.415C 178 31.418 175.043 34.804 171.077 35.343L 100 45"></path></g></g><g id="sy_4_cu_qvxf9n1c1x8g3-stroke-overlay" fill="none" stroke-linecap="round" stroke-linejoin="round" stroke-miterlimit="4" stroke="#3131311a" stroke-width="2" stroke-dasharray="4,6"><animate attributeName="stroke-dashoffset" values="30;0" dur="1s" repeatCount="indefinite" begin="0"></animate><g><path d="M 10 34L 10 46.961C 10 51.765 14.204 55.485 18.972 54.901L 88 46.448M 178 10L 178 27.415C 178 31.418 175.043 34.804 171.077 35.343L 100 45"></path></g></g></g><g id="g-root-sy_3_cu_i0af0r1c1x98s-stroke-fill" data-item-order="-31636" transform="translate(245, 302)"><g id="sy_3_cu_i0af0r1c1x98s-fill" stroke="none" fill="#b7b7b7"><g><path d="M 46 22C 49.314 22 52 19.314 52 16C 52 12.686 49.314 10 46 10C 42.686 10 40 12.686 40 16C 40 19.314 42.686 22 46 22ZM 43 77.995L 49 77.995L 49 21.533C 49 21.533 47.756 22.333 46.043 22.333C 44.212 22.333 43 21.533 43 21.533L 43 77.995ZM 16.4 86C 12.865 86 10 88.865 10 92.4C 10 93.284 10.716 94 11.6 94L 80.4 94C 81.284 94 82 93.284 82 92.4C 82 88.865 79.135 86 75.6 86L 16.4 86ZM 28 78C 24.686 78 22 80.686 22 84L 22 86L 70 86L 70 84C 70 80.686 67.314 78 64 78L 28 78Z"></path></g></g><g id="sy_3_cu_i0af0r1c1x98s-fill-overlay" stroke="none" fill="url(#crawlingPattern-8484841a)"><g><path d="M 46 22C 49.314 22 52 19.314 52 16C 52 12.686 49.314 10 46 10C 42.686 10 40 12.686 40 16C 40 19.314 42.686 22 46 22ZM 43 77.995L 49 77.995L 49 21.533C 49 21.533 47.756 22.333 46.043 22.333C 44.212 22.333 43 21.533 43 21.533L 43 77.995ZM 16.4 86C 12.865 86 10 88.865 10 92.4C 10 93.284 10.716 94 11.6 94L 80.4 94C 81.284 94 82 93.284 82 92.4C 82 88.865 79.135 86 75.6 86L 16.4 86ZM 28 78C 24.686 78 22 80.686 22 84L 22 86L 70 86L 70 84C 70 80.686 67.314 78 64 78L 28 78Z"></path></g></g><g id="sy_3_cu_i0af0r1c1x98s-stroke" fill="none" stroke-linecap="round" stroke-linejoin="round" stroke-miterlimit="4" stroke="#2c2c2c" stroke-width="2"><g><path d="M 46 22C 49.314 22 52 19.314 52 16C 52 12.686 49.314 10 46 10C 42.686 10 40 12.686 40 16C 40 19.314 42.686 22 46 22ZM 43 77.995L 49 77.995L 49 21.533C 49 21.533 47.756 22.333 46.043 22.333C 44.212 22.333 43 21.533 43 21.533L 43 77.995ZM 16.4 86C 12.865 86 10 88.865 10 92.4C 10 93.284 10.716 94 11.6 94L 80.4 94C 81.284 94 82 93.284 82 92.4C 82 88.865 79.135 86 75.6 86L 16.4 86ZM 28 78C 24.686 78 22 80.686 22 84L 22 86L 70 86L 70 84C 70 80.686 67.314 78 64 78L 28 78Z"></path></g></g><g id="sy_3_cu_i0af0r1c1x98s-stroke-overlay" fill="none" stroke-linecap="round" stroke-linejoin="round" stroke-miterlimit="4" stroke="#ffffff29" stroke-width="2" stroke-dasharray="4,6"><animate attributeName="stroke-dashoffset" values="30;0" dur="1s" repeatCount="indefinite" begin="0"></animate><g><path d="M 46 22C 49.314 22 52 19.314 52 16C 52 12.686 49.314 10 46 10C 42.686 10 40 12.686 40 16C 40 19.314 42.686 22 46 22ZM 43 77.995L 49 77.995L 49 21.533C 49 21.533 47.756 22.333 46.043 22.333C 44.212 22.333 43 21.533 43 21.533L 43 77.995ZM 16.4 86C 12.865 86 10 88.865 10 92.4C 10 93.284 10.716 94 11.6 94L 80.4 94C 81.284 94 82 93.284 82 92.4C 82 88.865 79.135 86 75.6 86L 16.4 86ZM 28 78C 24.686 78 22 80.686 22 84L 22 86L 70 86L 70 84C 70 80.686 67.314 78 64 78L 28 78Z"></path></g></g></g><g id="g-root-sy_2_right-bucket_dl3dzf1c1x6v9-stroke-fill" data-item-order="-31632" transform="translate(329, 254)"><g id="sy_2_right-bucket_dl3dzf1c1x6v9-fill" stroke="none" fill="#f79438"><g><path d="M 10 11.8C 10 10.806 10.806 10 11.8 10L 80.2 10C 81.194 10 82 10.806 82 11.8C 82 20.747 74.747 28 65.8 28L 26.2 28C 17.253 28 10 20.747 10 11.8Z"></path></g></g><g id="sy_2_right-bucket_dl3dzf1c1x6v9-fill-overlay" stroke="none" fill="url(#crawlingPattern-f576002d)"><g><path d="M 10 11.8C 10 10.806 10.806 10 11.8 10L 80.2 10C 81.194 10 82 10.806 82 11.8C 82 20.747 74.747 28 65.8 28L 26.2 28C 17.253 28 10 20.747 10 11.8Z"></path></g></g><g id="sy_2_right-bucket_dl3dzf1c1x6v9-stroke" fill="none" stroke-linecap="round" stroke-linejoin="round" stroke-miterlimit="4" stroke="#2c2c2c" stroke-width="2"><g><path d="M 10 11.8C 10 10.806 10.806 10 11.8 10L 80.2 10C 81.194 10 82 10.806 82 11.8C 82 20.747 74.747 28 65.8 28L 26.2 28C 17.253 28 10 20.747 10 11.8Z"></path></g></g><g id="sy_2_right-bucket_dl3dzf1c1x6v9-stroke-overlay" fill="none" stroke-linecap="round" stroke-linejoin="round" stroke-miterlimit="4" stroke="#ffffff29" stroke-width="2" stroke-dasharray="4,6"><animate attributeName="stroke-dashoffset" values="30;0" dur="1s" repeatCount="indefinite" begin="0"></animate><g><path d="M 10 11.8C 10 10.806 10.806 10 11.8 10L 80.2 10C 81.194 10 82 10.806 82 11.8C 82 20.747 74.747 28 65.8 28L 26.2 28C 17.253 28 10 20.747 10 11.8Z"></path></g></g></g><g id="g-root-sy_1_left-bucket_dl3dzf1c1x6va-stroke-fill" data-item-order="-31628" transform="translate(161, 278)"><g id="sy_1_left-bucket_dl3dzf1c1x6va-fill" stroke="none" fill="#1ac3fb"><g><path d="M 10 11.8C 10 10.806 10.806 10 11.8 10L 80.2 10C 81.194 10 82 10.806 82 11.8C 82 20.747 74.747 28 65.8 28L 26.2 28C 17.253 28 10 20.747 10 11.8Z"></path></g></g><g id="sy_1_left-bucket_dl3dzf1c1x6va-fill-overlay" stroke="none" fill="url(#crawlingPattern-00bcfb62)"><g><path d="M 10 11.8C 10 10.806 10.806 10 11.8 10L 80.2 10C 81.194 10 82 10.806 82 11.8C 82 20.747 74.747 28 65.8 28L 26.2 28C 17.253 28 10 20.747 10 11.8Z"></path></g></g><g id="sy_1_left-bucket_dl3dzf1c1x6va-stroke" fill="none" stroke-linecap="round" stroke-linejoin="round" stroke-miterlimit="4" stroke="#2c2c2c" stroke-width="2"><g><path d="M 10 11.8C 10 10.806 10.806 10 11.8 10L 80.2 10C 81.194 10 82 10.806 82 11.8C 82 20.747 74.747 28 65.8 28L 26.2 28C 17.253 28 10 20.747 10 11.8Z"></path></g></g><g id="sy_1_left-bucket_dl3dzf1c1x6va-stroke-overlay" fill="none" stroke-linecap="round" stroke-linejoin="round" stroke-miterlimit="4" stroke="#ffffff29" stroke-width="2" stroke-dasharray="4,6"><animate attributeName="stroke-dashoffset" values="30;0" dur="1s" repeatCount="indefinite" begin="0"></animate><g><path d="M 10 11.8C 10 10.806 10.806 10 11.8 10L 80.2 10C 81.194 10 82 10.806 82 11.8C 82 20.747 74.747 28 65.8 28L 26.2 28C 17.253 28 10 20.747 10 11.8Z"></path></g></g></g><g id="g-root-ic_2_4pgdqj1c1x7nz-stroke-fill" data-item-order="-2304" transform="translate(173, 218)"><g id="ic_2_4pgdqj1c1x7nz-fill" stroke="none" fill="#b7b7b7"><g><path d="M 21.5 26.5C 21.5 27.60457 22.395432 28.5 23.5 28.5C 24.604568 28.5 25.5 27.60457 25.5 26.5C 25.5 25.395432 24.604568 24.5 23.5 24.5C 22.395432 24.5 21.5 25.395432 21.5 26.5M 32.5 26.5C 32.5 27.60457 33.395432 28.5 34.5 28.5C 35.604568 28.5 36.5 27.60457 36.5 26.5C 36.5 25.395432 35.604568 24.5 34.5 24.5C 33.395432 24.5 32.5 25.395432 32.5 26.5M 34 30.5C 33.176075 30.510771 32.510773 31.176075 32.5 32C 32.5 34.18 30.299999 34.5 29 34.5C 27.700001 34.5 25.5 34.18 25.5 32C 25.5 31.171574 24.828426 30.5 24 30.5C 23.171574 30.5 22.5 31.171574 22.5 32C 22.5 35.34 25.060001 37.5 29 37.5C 32.940002 37.5 35.5 35.34 35.5 32C 35.489227 31.176075 34.823921 30.510771 34 30.5ZM 17.280001 30.540001C 17.038128 29.630646 16.220879 28.993191 15.28 28.98L 15 28.98C 14.455433 28.980108 14.010891 28.544458 14 28C 13.991013 27.715712 14.108551 27.442076 14.320923 27.252872C 14.533295 27.063667 14.818632 26.978378 15.1 27.019999C 16.119196 27.13599 17.060909 26.462105 17.280001 25.459999C 17.930946 22.398611 19.763689 19.717777 22.380001 18C 24.071262 19.872749 26.476599 20.941538 29 20.941538C 31.523401 20.941538 33.928738 19.872749 35.619999 18C 38.214378 19.712914 40.04274 22.365829 40.720001 25.400002C 41.02874 26.399706 41.998856 27.043661 43.040001 26.940001C 43.308937 26.950268 43.562386 27.068508 43.74305 27.267992C 43.923714 27.467476 44.016342 27.731361 44 28C 44.012318 28.519135 43.617558 28.957756 43.099998 29L 42.900002 29C 41.880806 28.88401 40.939091 29.557896 40.720001 30.559999C 40.008125 33.638409 38.110855 36.311836 35.440002 38L 36 38L 41.400002 38C 42.668175 36.477608 43.63229 34.725906 44.239998 32.84C 46.445263 32.268295 47.985249 30.278164 47.985249 28C 47.985249 25.721836 46.445263 23.731705 44.240002 23.16C 43.097492 19.606092 40.739479 16.568287 37.580002 14.58C 37.842617 13.7445 37.984058 12.875656 38 12C 38 10.895431 37.104568 10 36 10C 34.895432 10 34 10.895431 34 12C 34.020702 12.266265 34.020702 12.533735 34 12.8C 32.388195 12.262116 30.699169 11.991873 29 12C 26.682287 12.009752 24.395023 12.528654 22.299999 13.52C 22.18 13.52 22.040001 13.52 21.9 13.66C 18.079323 15.601816 15.197403 18.995275 13.9 23.08C 11.694736 23.651707 10.154751 25.641836 10.154751 27.92C 10.154751 30.198164 11.694736 32.188293 13.9 32.760002C 15.96377 39.384422 22.061966 43.92374 29 44C 29.669294 43.98724 30.337193 43.933807 31.000002 43.84L 31 43C 30.998344 41.659386 31.539438 40.375191 32.5 39.440002C 29.296885 40.462021 25.810505 40.076477 22.908096 38.379272C 20.005688 36.682072 17.960037 33.832718 17.279999 30.539999ZM 57.5 42.639999C 57.190598 42.461369 56.809402 42.461369 56.5 42.639999L 53 44.639999L 53 43C 52.988678 42.296944 52.608994 41.651482 52 41.299999L 53.759998 38C 54.312153 37.027992 53.971859 35.792412 52.999905 35.240166C 52.027946 34.68792 50.792339 35.028095 50.239998 36L 47.639999 40.940002L 41.34 52.939999L 40.260002 54.939999C 39.870216 55.563248 39.853748 56.350082 40.21711 56.989094C 40.580467 57.628105 41.265083 58.016285 42 58C 42.737186 57.998032 43.413525 57.590694 43.759998 56.939999L 45.759998 52.939999L 51 52.939999C 52.104568 52.939999 53 52.044571 53 50.939999L 53 49.259998L 56.5 51.259998C 56.807014 51.447315 57.192978 51.447315 57.499996 51.259998C 57.807545 51.082447 57.997856 50.755112 58 50.400002L 58 43.400002C 57.964882 43.081131 57.778923 42.79847 57.5 42.639999ZM 36 41C 34.968266 40.931297 34.074715 41.708683 34 42.739998C 33.988686 42.826298 33.988686 42.913704 34 43L 34 51C 34 52.104568 34.895432 53 36 53L 37.879997 53L 44.200001 41Z"></path></g></g><g id="ic_2_4pgdqj1c1x7nz-fill-overlay" stroke="none" fill="url(#crawlingPattern-8484841a)"><g><path d="M 21.5 26.5C 21.5 27.60457 22.395432 28.5 23.5 28.5C 24.604568 28.5 25.5 27.60457 25.5 26.5C 25.5 25.395432 24.604568 24.5 23.5 24.5C 22.395432 24.5 21.5 25.395432 21.5 26.5M 32.5 26.5C 32.5 27.60457 33.395432 28.5 34.5 28.5C 35.604568 28.5 36.5 27.60457 36.5 26.5C 36.5 25.395432 35.604568 24.5 34.5 24.5C 33.395432 24.5 32.5 25.395432 32.5 26.5M 34 30.5C 33.176075 30.510771 32.510773 31.176075 32.5 32C 32.5 34.18 30.299999 34.5 29 34.5C 27.700001 34.5 25.5 34.18 25.5 32C 25.5 31.171574 24.828426 30.5 24 30.5C 23.171574 30.5 22.5 31.171574 22.5 32C 22.5 35.34 25.060001 37.5 29 37.5C 32.940002 37.5 35.5 35.34 35.5 32C 35.489227 31.176075 34.823921 30.510771 34 30.5ZM 17.280001 30.540001C 17.038128 29.630646 16.220879 28.993191 15.28 28.98L 15 28.98C 14.455433 28.980108 14.010891 28.544458 14 28C 13.991013 27.715712 14.108551 27.442076 14.320923 27.252872C 14.533295 27.063667 14.818632 26.978378 15.1 27.019999C 16.119196 27.13599 17.060909 26.462105 17.280001 25.459999C 17.930946 22.398611 19.763689 19.717777 22.380001 18C 24.071262 19.872749 26.476599 20.941538 29 20.941538C 31.523401 20.941538 33.928738 19.872749 35.619999 18C 38.214378 19.712914 40.04274 22.365829 40.720001 25.400002C 41.02874 26.399706 41.998856 27.043661 43.040001 26.940001C 43.308937 26.950268 43.562386 27.068508 43.74305 27.267992C 43.923714 27.467476 44.016342 27.731361 44 28C 44.012318 28.519135 43.617558 28.957756 43.099998 29L 42.900002 29C 41.880806 28.88401 40.939091 29.557896 40.720001 30.559999C 40.008125 33.638409 38.110855 36.311836 35.440002 38L 36 38L 41.400002 38C 42.668175 36.477608 43.63229 34.725906 44.239998 32.84C 46.445263 32.268295 47.985249 30.278164 47.985249 28C 47.985249 25.721836 46.445263 23.731705 44.240002 23.16C 43.097492 19.606092 40.739479 16.568287 37.580002 14.58C 37.842617 13.7445 37.984058 12.875656 38 12C 38 10.895431 37.104568 10 36 10C 34.895432 10 34 10.895431 34 12C 34.020702 12.266265 34.020702 12.533735 34 12.8C 32.388195 12.262116 30.699169 11.991873 29 12C 26.682287 12.009752 24.395023 12.528654 22.299999 13.52C 22.18 13.52 22.040001 13.52 21.9 13.66C 18.079323 15.601816 15.197403 18.995275 13.9 23.08C 11.694736 23.651707 10.154751 25.641836 10.154751 27.92C 10.154751 30.198164 11.694736 32.188293 13.9 32.760002C 15.96377 39.384422 22.061966 43.92374 29 44C 29.669294 43.98724 30.337193 43.933807 31.000002 43.84L 31 43C 30.998344 41.659386 31.539438 40.375191 32.5 39.440002C 29.296885 40.462021 25.810505 40.076477 22.908096 38.379272C 20.005688 36.682072 17.960037 33.832718 17.279999 30.539999ZM 57.5 42.639999C 57.190598 42.461369 56.809402 42.461369 56.5 42.639999L 53 44.639999L 53 43C 52.988678 42.296944 52.608994 41.651482 52 41.299999L 53.759998 38C 54.312153 37.027992 53.971859 35.792412 52.999905 35.240166C 52.027946 34.68792 50.792339 35.028095 50.239998 36L 47.639999 40.940002L 41.34 52.939999L 40.260002 54.939999C 39.870216 55.563248 39.853748 56.350082 40.21711 56.989094C 40.580467 57.628105 41.265083 58.016285 42 58C 42.737186 57.998032 43.413525 57.590694 43.759998 56.939999L 45.759998 52.939999L 51 52.939999C 52.104568 52.939999 53 52.044571 53 50.939999L 53 49.259998L 56.5 51.259998C 56.807014 51.447315 57.192978 51.447315 57.499996 51.259998C 57.807545 51.082447 57.997856 50.755112 58 50.400002L 58 43.400002C 57.964882 43.081131 57.778923 42.79847 57.5 42.639999ZM 36 41C 34.968266 40.931297 34.074715 41.708683 34 42.739998C 33.988686 42.826298 33.988686 42.913704 34 43L 34 51C 34 52.104568 34.895432 53 36 53L 37.879997 53L 44.200001 41Z"></path></g></g></g><g id="g-root-ic_bloc_deun4b1c22vbh-stroke-fill" data-item-order="-2304" transform="translate(173, 146)"><g id="ic_bloc_deun4b1c22vbh-fill" stroke="none" fill="#b7b7b7"><g><path d="M 29.16 21.66C 29.16 23.869139 30.950861 25.66 33.16 25.66C 35.369141 25.66 37.16 23.869139 37.16 21.66C 37.16 19.450861 35.369141 17.66 33.16 17.66C 30.950861 17.66 29.16 19.450861 29.16 21.66M 28.34 46C 30.098103 42.671734 32.751175 39.900902 36 38L 30.200001 32.220001C 28.863152 30.690935 26.931059 29.813745 24.9 29.813745C 22.868942 29.813745 20.936848 30.690935 19.599998 32.220001L 14 37.700001L 14 14L 44 13.88L 44 32.860001C 43.129364 31.955673 42.019547 31.31753 40.800003 31.02C 38.795876 30.834145 36.816048 31.570139 35.419998 33.02L 38.940002 36.52C 40.519485 35.990753 42.174206 35.720596 43.84 35.720001C 45.245842 35.714149 46.645748 35.902603 48 36.279999L 48 13.88C 47.935108 11.717861 46.163113 9.999026 44 10L 14 10C 11.836887 9.999026 10.064893 11.717861 10 13.88L 10 44C 10 46.209141 11.790861 48 14 48L 28 48C 27.944862 47.315414 28.061739 46.627907 28.34 46ZM 57 47.119999C 55.828094 44.926201 54.222206 42.993694 52.280003 41.440002L 48.400002 45.299999C 49.255669 47.223595 48.836151 49.475658 47.345245 50.962124C 45.85434 52.448593 43.601036 52.861401 41.68 52L 38 55.759998C 39.859459 56.699234 41.916885 57.179298 44 57.160004C 52.720001 57.16 56.98 48.799999 57.16 48.459999C 57.332222 48.014442 57.272289 47.512482 57 47.119999ZM 49.68 39.779999C 47.867088 38.87225 45.867477 38.399742 43.84 38.400002C 35.120003 38.400002 30.84 46.759998 30.68 47.119999C 30.459517 47.539459 30.459517 48.040543 30.68 48.459999C 31.849176 50.632679 33.440258 52.550133 35.360001 54.100002Z"></path></g></g><g id="ic_bloc_deun4b1c22vbh-fill-overlay" stroke="none" fill="url(#crawlingPattern-8484841a)"><g><path d="M 29.16 21.66C 29.16 23.869139 30.950861 25.66 33.16 25.66C 35.369141 25.66 37.16 23.869139 37.16 21.66C 37.16 19.450861 35.369141 17.66 33.16 17.66C 30.950861 17.66 29.16 19.450861 29.16 21.66M 28.34 46C 30.098103 42.671734 32.751175 39.900902 36 38L 30.200001 32.220001C 28.863152 30.690935 26.931059 29.813745 24.9 29.813745C 22.868942 29.813745 20.936848 30.690935 19.599998 32.220001L 14 37.700001L 14 14L 44 13.88L 44 32.860001C 43.129364 31.955673 42.019547 31.31753 40.800003 31.02C 38.795876 30.834145 36.816048 31.570139 35.419998 33.02L 38.940002 36.52C 40.519485 35.990753 42.174206 35.720596 43.84 35.720001C 45.245842 35.714149 46.645748 35.902603 48 36.279999L 48 13.88C 47.935108 11.717861 46.163113 9.999026 44 10L 14 10C 11.836887 9.999026 10.064893 11.717861 10 13.88L 10 44C 10 46.209141 11.790861 48 14 48L 28 48C 27.944862 47.315414 28.061739 46.627907 28.34 46ZM 57 47.119999C 55.828094 44.926201 54.222206 42.993694 52.280003 41.440002L 48.400002 45.299999C 49.255669 47.223595 48.836151 49.475658 47.345245 50.962124C 45.85434 52.448593 43.601036 52.861401 41.68 52L 38 55.759998C 39.859459 56.699234 41.916885 57.179298 44 57.160004C 52.720001 57.16 56.98 48.799999 57.16 48.459999C 57.332222 48.014442 57.272289 47.512482 57 47.119999ZM 49.68 39.779999C 47.867088 38.87225 45.867477 38.399742 43.84 38.400002C 35.120003 38.400002 30.84 46.759998 30.68 47.119999C 30.459517 47.539459 30.459517 48.040543 30.68 48.459999C 31.849176 50.632679 33.440258 52.550133 35.360001 54.100002Z"></path></g></g></g><g id="g-root-ic_warn_vbqxe31c25oge-stroke-fill" data-item-order="-2304" transform="translate(173, 74)"><g id="ic_warn_vbqxe31c25oge-fill" stroke="none" fill="#b7b7b7"><g><path d="M 29 35C 29 31.686293 31.686293 29 35 29L 50.5 29C 50.776142 29 51 28.776142 51 28.5L 51 13C 51 11.343145 49.656857 10 48 10L 13 10C 11.343145 10 10 11.343145 10 13L 10 42C 10 43.656857 11.343145 45 13 45L 19 45L 19 52C 19 52.552284 19.447716 53 20 53C 20.265207 53.003231 20.51944 52.894276 20.700001 52.700001L 28.42 45C 28.696142 45 28.92 44.776142 28.92 44.5ZM 30.84 23.18C 30.638365 23.254368 30.503254 23.445112 30.499998 23.66L 30.5 26C 30.5 26.828428 29.828428 27.5 29 27.5C 28.171574 27.5 27.5 26.828428 27.5 26L 27.5 23.66C 27.506884 22.176872 28.442669 20.857174 29.84 20.360001C 31.035965 19.93335 31.722126 18.677925 31.435446 17.440922C 31.148766 16.203918 29.980318 15.378309 28.718599 15.521235C 27.456881 15.66416 26.502716 16.730215 26.5 18C 26.5 18.828426 25.828426 19.5 25 19.5C 24.171574 19.5 23.5 18.828426 23.5 18C 23.49843 15.203495 25.595581 12.851004 28.373909 12.532664C 31.152237 12.214325 33.727142 14.031494 34.358154 16.755878C 34.989166 19.480263 33.475372 22.244442 30.84 23.18ZM 55 32L 35 32C 33.343147 32 32 33.343147 32 35L 32 49C 32 50.656857 33.343147 52 35 52L 42.66 52L 50.400002 57.799999C 50.700306 58.02618 51.102097 58.064812 51.439999 57.900002C 51.780132 57.728161 51.996109 57.381054 52 57L 52 52L 55 52C 56.656857 52 58 50.656857 58 49L 58 35C 58 33.343147 56.656857 32 55 32ZM 46 43C 46 43.828426 45.328426 44.5 44.5 44.5C 43.671574 44.5 43 43.828426 43 43L 43 36C 43 35.171574 43.671574 34.5 44.5 34.5C 45.328426 34.5 46 35.171574 46 36ZM 44.5 46C 45.328426 46 46 46.671574 46 47.5C 46 48.328426 45.328426 49 44.5 49C 43.671574 49 43 48.328426 43 47.5C 43.010773 46.676075 43.676075 46.010773 44.5 46Z"></path></g></g><g id="ic_warn_vbqxe31c25oge-fill-overlay" stroke="none" fill="url(#crawlingPattern-8484841a)"><g><path d="M 29 35C 29 31.686293 31.686293 29 35 29L 50.5 29C 50.776142 29 51 28.776142 51 28.5L 51 13C 51 11.343145 49.656857 10 48 10L 13 10C 11.343145 10 10 11.343145 10 13L 10 42C 10 43.656857 11.343145 45 13 45L 19 45L 19 52C 19 52.552284 19.447716 53 20 53C 20.265207 53.003231 20.51944 52.894276 20.700001 52.700001L 28.42 45C 28.696142 45 28.92 44.776142 28.92 44.5ZM 30.84 23.18C 30.638365 23.254368 30.503254 23.445112 30.499998 23.66L 30.5 26C 30.5 26.828428 29.828428 27.5 29 27.5C 28.171574 27.5 27.5 26.828428 27.5 26L 27.5 23.66C 27.506884 22.176872 28.442669 20.857174 29.84 20.360001C 31.035965 19.93335 31.722126 18.677925 31.435446 17.440922C 31.148766 16.203918 29.980318 15.378309 28.718599 15.521235C 27.456881 15.66416 26.502716 16.730215 26.5 18C 26.5 18.828426 25.828426 19.5 25 19.5C 24.171574 19.5 23.5 18.828426 23.5 18C 23.49843 15.203495 25.595581 12.851004 28.373909 12.532664C 31.152237 12.214325 33.727142 14.031494 34.358154 16.755878C 34.989166 19.480263 33.475372 22.244442 30.84 23.18ZM 55 32L 35 32C 33.343147 32 32 33.343147 32 35L 32 49C 32 50.656857 33.343147 52 35 52L 42.66 52L 50.400002 57.799999C 50.700306 58.02618 51.102097 58.064812 51.439999 57.900002C 51.780132 57.728161 51.996109 57.381054 52 57L 52 52L 55 52C 56.656857 52 58 50.656857 58 49L 58 35C 58 33.343147 56.656857 32 55 32ZM 46 43C 46 43.828426 45.328426 44.5 44.5 44.5C 43.671574 44.5 43 43.828426 43 43L 43 36C 43 35.171574 43.671574 34.5 44.5 34.5C 45.328426 34.5 46 35.171574 46 36ZM 44.5 46C 45.328426 46 46 46.671574 46 47.5C 46 48.328426 45.328426 49 44.5 49C 43.671574 49 43 48.328426 43 47.5C 43.010773 46.676075 43.676075 46.010773 44.5 46Z"></path></g></g></g><g id="g-root-ic_mega_18i7n2j1c270un-stroke-fill" data-item-order="-2304" transform="translate(341, 194)"><g id="ic_mega_18i7n2j1c270un-fill" stroke="none" fill="#b7b7b7"><g><path d="M 26 50.119999C 25.739819 50.477692 25.739819 50.962307 26 51.32L 28 54.360001C 28.242189 54.716408 28.685448 54.87759 29.1 54.759998L 33.599998 53.419998C 33.810459 53.340839 34.047302 53.425426 34.16 53.619999L 35.379997 55.439999C 36.454788 57.048649 38.265366 58.010284 40.200001 58C 41.332336 58.006485 42.440407 57.67197 43.380001 57.040001C 45.542019 55.587662 46.460434 52.865215 45.619999 50.400002C 45.561794 50.273014 45.561794 50.12698 45.619999 49.999996C 45.682037 49.873337 45.801033 49.784088 45.939999 49.759998L 54.52 47.759998C 54.724442 47.699303 54.944412 47.780773 55.059998 47.959999L 55.220001 48.200001C 55.498417 48.611904 55.962833 48.859093 56.460003 48.860001C 56.756695 48.858429 57.04726 48.775414 57.299999 48.619999C 57.934143 48.160961 58.115921 47.295349 57.719997 46.619999L 44.98 27.4C 44.521606 26.709644 43.590359 26.521605 42.900002 26.980001C 42.209644 27.438396 42.021606 28.369644 42.48 29.060001L 42.619999 29.26C 42.747017 29.439831 42.747017 29.680166 42.619999 29.859999ZM 41.68 54.540001C 40.443634 55.289726 38.838215 54.958172 38 53.779999L 37.459999 52.959999C 37.399967 52.819477 37.399967 52.660522 37.459999 52.52C 37.521469 52.373249 37.646736 52.262718 37.799995 52.219997L 42.259998 50.880001C 42.502666 50.798378 42.766678 50.921585 42.859997 51.159996C 43.365818 52.413624 42.88176 53.848812 41.720001 54.540001ZM 23.720001 48.240002L 30.440001 40L 15 40C 14.447716 40 14 39.552284 14 39L 14 21C 14 20.447716 14.447716 20 15 20L 53 20C 53.552284 20 54 20.447716 54 21L 54 35.540001L 58 41.540001L 58 15C 58 12.238576 55.761425 10 53 10L 15 10C 12.238576 10 10 12.238576 10 15L 10 45C 10 47.761425 12.238576 50 15 50L 22.880001 50C 23.00124 49.34996 23.290878 48.743095 23.720001 48.240002ZM 50 13C 51.104568 13 52 13.895431 52 15C 52 16.104568 51.104568 17 50 17C 48.895432 17 48 16.104568 48 15C 48 13.895431 48.895432 13 50 13ZM 39.5 13C 40.604568 13 41.5 13.895431 41.5 15C 41.5 16.104568 40.604568 17 39.5 17C 38.395432 17 37.5 16.104568 37.5 15C 37.5 13.895431 38.395432 13 39.5 13ZM 28.5 13C 29.60457 13 30.5 13.895431 30.5 15C 30.5 16.104568 29.60457 17 28.5 17C 27.39543 17 26.5 16.104568 26.5 15C 26.5 13.895431 27.39543 13 28.5 13ZM 18 13C 19.104568 13 20 13.895431 20 15C 20 16.104568 19.104568 17 18 17C 16.895432 17 16 16.104568 16 15C 16 13.895431 16.895432 13 18 13ZM 18 47C 16.895432 47 16 46.104568 16 45C 16 43.895432 16.895432 43 18 43C 19.104568 43 20 43.895432 20 45C 20 46.104568 19.104568 47 18 47Z"></path></g></g><g id="ic_mega_18i7n2j1c270un-fill-overlay" stroke="none" fill="url(#crawlingPattern-8484841a)"><g><path d="M 26 50.119999C 25.739819 50.477692 25.739819 50.962307 26 51.32L 28 54.360001C 28.242189 54.716408 28.685448 54.87759 29.1 54.759998L 33.599998 53.419998C 33.810459 53.340839 34.047302 53.425426 34.16 53.619999L 35.379997 55.439999C 36.454788 57.048649 38.265366 58.010284 40.200001 58C 41.332336 58.006485 42.440407 57.67197 43.380001 57.040001C 45.542019 55.587662 46.460434 52.865215 45.619999 50.400002C 45.561794 50.273014 45.561794 50.12698 45.619999 49.999996C 45.682037 49.873337 45.801033 49.784088 45.939999 49.759998L 54.52 47.759998C 54.724442 47.699303 54.944412 47.780773 55.059998 47.959999L 55.220001 48.200001C 55.498417 48.611904 55.962833 48.859093 56.460003 48.860001C 56.756695 48.858429 57.04726 48.775414 57.299999 48.619999C 57.934143 48.160961 58.115921 47.295349 57.719997 46.619999L 44.98 27.4C 44.521606 26.709644 43.590359 26.521605 42.900002 26.980001C 42.209644 27.438396 42.021606 28.369644 42.48 29.060001L 42.619999 29.26C 42.747017 29.439831 42.747017 29.680166 42.619999 29.859999ZM 41.68 54.540001C 40.443634 55.289726 38.838215 54.958172 38 53.779999L 37.459999 52.959999C 37.399967 52.819477 37.399967 52.660522 37.459999 52.52C 37.521469 52.373249 37.646736 52.262718 37.799995 52.219997L 42.259998 50.880001C 42.502666 50.798378 42.766678 50.921585 42.859997 51.159996C 43.365818 52.413624 42.88176 53.848812 41.720001 54.540001ZM 23.720001 48.240002L 30.440001 40L 15 40C 14.447716 40 14 39.552284 14 39L 14 21C 14 20.447716 14.447716 20 15 20L 53 20C 53.552284 20 54 20.447716 54 21L 54 35.540001L 58 41.540001L 58 15C 58 12.238576 55.761425 10 53 10L 15 10C 12.238576 10 10 12.238576 10 15L 10 45C 10 47.761425 12.238576 50 15 50L 22.880001 50C 23.00124 49.34996 23.290878 48.743095 23.720001 48.240002ZM 50 13C 51.104568 13 52 13.895431 52 15C 52 16.104568 51.104568 17 50 17C 48.895432 17 48 16.104568 48 15C 48 13.895431 48.895432 13 50 13ZM 39.5 13C 40.604568 13 41.5 13.895431 41.5 15C 41.5 16.104568 40.604568 17 39.5 17C 38.395432 17 37.5 16.104568 37.5 15C 37.5 13.895431 38.395432 13 39.5 13ZM 28.5 13C 29.60457 13 30.5 13.895431 30.5 15C 30.5 16.104568 29.60457 17 28.5 17C 27.39543 17 26.5 16.104568 26.5 15C 26.5 13.895431 27.39543 13 28.5 13ZM 18 13C 19.104568 13 20 13.895431 20 15C 20 16.104568 19.104568 17 18 17C 16.895432 17 16 16.104568 16 15C 16 13.895431 16.895432 13 18 13ZM 18 47C 16.895432 47 16 46.104568 16 45C 16 43.895432 16.895432 43 18 43C 19.104568 43 20 43.895432 20 45C 20 46.104568 19.104568 47 18 47Z"></path></g></g></g><g id="g-root-ic_ufo_90a3631c28fsw-stroke-fill" data-item-order="-2304" transform="translate(341, 122)"><g id="ic_ufo_90a3631c28fsw-fill" stroke="none" fill="#b7b7b7"><g><path d="M 50.779999 39.48C 50.49268 38.408726 49.391396 37.77314 48.32008 38.060295C 47.24876 38.34745 46.613007 39.448639 46.899998 40.519997L 51.139999 56.52C 51.30584 57.231823 51.846767 57.796497 52.550816 57.992748C 53.25486 58.188999 54.009895 57.985573 54.520046 57.462177C 55.030201 56.938786 55.214222 56.178791 55 55.48ZM 19.82 38C 18.754391 37.720551 17.663445 38.355446 17.380001 39.419998L 13.14 55.419998C 12.925778 56.11879 13.109798 56.878784 13.619952 57.40218C 14.130106 57.925571 14.885139 58.129002 15.589186 57.932751C 16.293234 57.7365 16.83416 57.171825 17 56.459999L 21.24 40.459999C 21.380281 39.945396 21.309196 39.39608 21.042547 38.934139C 20.775898 38.472198 20.335775 38.135902 19.82 38ZM 38 49.860001C 39.203453 49.748383 40.123898 48.738621 40.123898 47.529999C 40.123898 46.321381 39.203453 45.311615 38 45.200001L 31.08 45.200001C 29.876545 45.311615 28.9561 46.321381 28.9561 47.529999C 28.9561 48.738621 29.876545 49.748383 31.08 49.860001L 32.239998 49.860001L 32.239998 50.18L 29.200001 54.299999C 28.437847 55.332775 28.657228 56.787849 29.690001 57.550003C 30.722773 58.312153 32.177849 58.092773 32.940002 57.060001L 34.599998 54.82L 36.200001 57.080002C 36.978722 58.129345 38.460663 58.348724 39.510002 57.570004C 40.559341 56.791279 40.778725 55.309341 40 54.260002L 37 50.16L 37 49.860001ZM 38 40.239998C 38.008102 38.822594 37.160507 37.540237 35.85331 36.992199C 34.546112 36.44416 33.03743 36.738647 32.032288 37.738045C 31.027142 38.73745 30.724012 40.244415 31.264553 41.554733C 31.805094 42.865051 33.082569 43.719978 34.5 43.720001C 35.426414 43.725323 36.316711 43.361034 36.973671 42.707829C 37.63063 42.054626 38.000015 41.166428 38 40.239998ZM 56.959999 29C 57.256584 29.003077 57.540375 28.879374 57.739998 28.659998C 57.943413 28.447105 58.032631 28.149708 57.98 27.860001C 57.289928 23.844007 53.774273 20.931278 49.700001 21L 18.299999 21C 14.218212 20.921293 10.691198 23.836391 10 27.860001C 9.947369 28.149708 10.036588 28.447105 10.24 28.66C 10.439621 28.879374 10.723413 29.003077 11.02 28.999998L 13.28 29C 13.484316 29.002653 13.666457 29.12936 13.74 29.32C 13.899547 29.722376 14.079787 30.116236 14.280001 30.500002C 16.065369 33.888172 19.580214 36.009026 23.41 36.009026C 27.239786 36.009026 30.754631 33.888172 32.540001 30.5C 32.740211 30.116236 32.920456 29.722376 33.080002 29.320002C 33.148697 29.125612 33.333855 28.996807 33.540001 28.999998L 34.459999 29C 34.666145 28.996807 34.851299 29.125612 34.919998 29.32C 35.079548 29.722376 35.259789 30.116236 35.459999 30.500002C 37.245369 33.888172 40.760216 36.009026 44.59 36.009026C 48.419785 36.009026 51.934631 33.888172 53.720001 30.5C 53.920216 30.116236 54.100456 29.722376 54.260002 29.320002C 54.328697 29.125612 54.513851 28.996807 54.719997 28.999998ZM 23.4 32C 21.569786 31.983295 19.832561 31.191006 18.619999 29.82C 18.522778 29.660299 18.522778 29.4597 18.619999 29.299999C 18.686577 29.141253 18.830135 29.027918 19 29L 27.799999 29C 27.999443 28.999306 28.180223 29.117207 28.26 29.299999C 28.367369 29.456707 28.367369 29.663294 28.26 29.82C 27.033712 31.218311 25.259802 32.014015 23.400002 32ZM 44.599998 32C 42.768101 31.990932 41.027901 31.197287 39.82 29.82C 39.712631 29.663294 39.712631 29.456707 39.82 29.299999C 39.899776 29.117207 40.080559 28.999306 40.279999 29L 49.080002 29C 49.272152 29.007078 49.443218 29.123714 49.52 29.299999C 49.627369 29.456707 49.627369 29.663294 49.52 29.82C 48.280025 31.234344 46.480667 32.031624 44.600002 32ZM 34 10C 28.477455 9.948547 23.296272 12.666791 20.200001 17.24C 20.121464 17.397415 20.121464 17.582584 20.200001 17.74C 20.291019 17.897736 20.457924 17.996361 20.639999 18L 47.5 18C 47.703251 18.01899 47.898815 17.917297 47.999996 17.74C 48.078533 17.582584 48.078533 17.397415 48 17.24C 44.864662 12.606876 39.593025 9.880686 34 10Z"></path></g></g><g id="ic_ufo_90a3631c28fsw-fill-overlay" stroke="none" fill="url(#crawlingPattern-8484841a)"><g><path d="M 50.779999 39.48C 50.49268 38.408726 49.391396 37.77314 48.32008 38.060295C 47.24876 38.34745 46.613007 39.448639 46.899998 40.519997L 51.139999 56.52C 51.30584 57.231823 51.846767 57.796497 52.550816 57.992748C 53.25486 58.188999 54.009895 57.985573 54.520046 57.462177C 55.030201 56.938786 55.214222 56.178791 55 55.48ZM 19.82 38C 18.754391 37.720551 17.663445 38.355446 17.380001 39.419998L 13.14 55.419998C 12.925778 56.11879 13.109798 56.878784 13.619952 57.40218C 14.130106 57.925571 14.885139 58.129002 15.589186 57.932751C 16.293234 57.7365 16.83416 57.171825 17 56.459999L 21.24 40.459999C 21.380281 39.945396 21.309196 39.39608 21.042547 38.934139C 20.775898 38.472198 20.335775 38.135902 19.82 38ZM 38 49.860001C 39.203453 49.748383 40.123898 48.738621 40.123898 47.529999C 40.123898 46.321381 39.203453 45.311615 38 45.200001L 31.08 45.200001C 29.876545 45.311615 28.9561 46.321381 28.9561 47.529999C 28.9561 48.738621 29.876545 49.748383 31.08 49.860001L 32.239998 49.860001L 32.239998 50.18L 29.200001 54.299999C 28.437847 55.332775 28.657228 56.787849 29.690001 57.550003C 30.722773 58.312153 32.177849 58.092773 32.940002 57.060001L 34.599998 54.82L 36.200001 57.080002C 36.978722 58.129345 38.460663 58.348724 39.510002 57.570004C 40.559341 56.791279 40.778725 55.309341 40 54.260002L 37 50.16L 37 49.860001ZM 38 40.239998C 38.008102 38.822594 37.160507 37.540237 35.85331 36.992199C 34.546112 36.44416 33.03743 36.738647 32.032288 37.738045C 31.027142 38.73745 30.724012 40.244415 31.264553 41.554733C 31.805094 42.865051 33.082569 43.719978 34.5 43.720001C 35.426414 43.725323 36.316711 43.361034 36.973671 42.707829C 37.63063 42.054626 38.000015 41.166428 38 40.239998ZM 56.959999 29C 57.256584 29.003077 57.540375 28.879374 57.739998 28.659998C 57.943413 28.447105 58.032631 28.149708 57.98 27.860001C 57.289928 23.844007 53.774273 20.931278 49.700001 21L 18.299999 21C 14.218212 20.921293 10.691198 23.836391 10 27.860001C 9.947369 28.149708 10.036588 28.447105 10.24 28.66C 10.439621 28.879374 10.723413 29.003077 11.02 28.999998L 13.28 29C 13.484316 29.002653 13.666457 29.12936 13.74 29.32C 13.899547 29.722376 14.079787 30.116236 14.280001 30.500002C 16.065369 33.888172 19.580214 36.009026 23.41 36.009026C 27.239786 36.009026 30.754631 33.888172 32.540001 30.5C 32.740211 30.116236 32.920456 29.722376 33.080002 29.320002C 33.148697 29.125612 33.333855 28.996807 33.540001 28.999998L 34.459999 29C 34.666145 28.996807 34.851299 29.125612 34.919998 29.32C 35.079548 29.722376 35.259789 30.116236 35.459999 30.500002C 37.245369 33.888172 40.760216 36.009026 44.59 36.009026C 48.419785 36.009026 51.934631 33.888172 53.720001 30.5C 53.920216 30.116236 54.100456 29.722376 54.260002 29.320002C 54.328697 29.125612 54.513851 28.996807 54.719997 28.999998ZM 23.4 32C 21.569786 31.983295 19.832561 31.191006 18.619999 29.82C 18.522778 29.660299 18.522778 29.4597 18.619999 29.299999C 18.686577 29.141253 18.830135 29.027918 19 29L 27.799999 29C 27.999443 28.999306 28.180223 29.117207 28.26 29.299999C 28.367369 29.456707 28.367369 29.663294 28.26 29.82C 27.033712 31.218311 25.259802 32.014015 23.400002 32ZM 44.599998 32C 42.768101 31.990932 41.027901 31.197287 39.82 29.82C 39.712631 29.663294 39.712631 29.456707 39.82 29.299999C 39.899776 29.117207 40.080559 28.999306 40.279999 29L 49.080002 29C 49.272152 29.007078 49.443218 29.123714 49.52 29.299999C 49.627369 29.456707 49.627369 29.663294 49.52 29.82C 48.280025 31.234344 46.480667 32.031624 44.600002 32ZM 34 10C 28.477455 9.948547 23.296272 12.666791 20.200001 17.24C 20.121464 17.397415 20.121464 17.582584 20.200001 17.74C 20.291019 17.897736 20.457924 17.996361 20.639999 18L 47.5 18C 47.703251 18.01899 47.898815 17.917297 47.999996 17.74C 48.078533 17.582584 48.078533 17.397415 48 17.24C 44.864662 12.606876 39.593025 9.880686 34 10Z"></path></g></g></g><g id="g-root-ic_pers_94nerv1c29vr5-stroke-fill" data-item-order="-2304" transform="translate(341, 50)"><g id="ic_pers_94nerv1c29vr5-fill" stroke="none" fill="#b7b7b7"><g><path d="M 16 12C 16 10.895431 15.104569 10 14 10L 12 10C 10.895431 10 10 10.895431 10 12L 10 22C 10 23.104568 10.895431 24 12 24L 14 24C 15.104569 24 16 23.104568 16 22ZM 18 20.58C 17.998692 20.723301 18.056581 20.86079 18.16 20.959999C 18.269445 21.056433 18.415546 21.100262 18.560001 21.08L 22.92 20.560001C 23.111362 20.546833 23.276512 20.421003 23.34 20.24C 23.822111 18.914991 24.849533 17.860504 26.161558 17.344109C 27.473585 16.827713 28.944113 16.899044 30.200001 17.540001C 30.3547 17.629316 30.5453 17.629316 30.700001 17.540001C 30.849852 17.453491 30.941547 17.293024 30.939999 17.119999L 30.940001 15.42C 30.942581 14.367872 30.129551 13.493647 29.08 13.42L 18.540001 12.74C 18.40144 12.717061 18.260256 12.761645 18.16 12.86C 18.063236 12.95557 18.006096 13.084133 18 13.22ZM 10 10M 18.939999 35.580002L 10.18 55.18C 9.806145 56.16835 10.265658 57.276993 11.229082 57.711063C 12.192506 58.14513 13.327366 57.754833 13.82 56.82L 18.939999 45.380001L 18.939999 56C 18.939999 57.104568 19.83543 58 20.939999 58C 22.044571 58 22.939999 57.104568 22.939999 56L 22.939999 45.259998L 28.18 56.82C 28.672634 57.754833 29.807495 58.14513 30.770918 57.711063C 31.734343 57.276993 32.193855 56.16835 31.82 55.18L 22.939999 35.559998L 22.939999 23.139999C 22.931637 22.994762 22.867081 22.858479 22.76 22.76C 22.654293 22.671125 22.517574 22.627953 22.379999 22.639999L 19.380001 23C 19.127518 23.030512 18.938164 23.245687 18.939999 23.5ZM 36.5 16.5C 36.5 18.985281 38.514717 21 41 21C 43.485283 21 45.5 18.985281 45.5 16.5C 45.5 14.014719 43.485283 12 41 12C 38.514717 12 36.5 14.014719 36.5 16.5M 48.400002 23.200001C 47.422089 21.898952 45.585133 21.614979 44.260002 22.560001L 38.639999 26.559999C 37.297207 27.523344 35.4282 27.219296 34.459999 25.880001L 30.459999 20.26C 29.491817 18.924006 27.630615 18.61232 26.280001 19.559999C 25.629128 20.018597 25.188843 20.718588 25.057339 21.50386C 24.925833 22.289133 25.114044 23.094376 25.580002 23.740002L 29.58 29.360001C 30.95923 31.308155 33.058792 32.62545 35.412971 33.019691C 37.767151 33.413933 40.181328 32.852524 42.119999 31.459999L 44.959999 29.459999C 45.188564 29.309614 45.494568 29.362072 45.659996 29.579998L 51.400002 37.200001C 51.794796 37.716484 52.005947 38.349937 52 39L 52 55C 52 56.656857 53.343147 58 55 58C 56.656857 58 58 56.656857 58 55L 58 39C 57.994286 37.053596 57.36327 35.160545 56.200001 33.599998Z"></path></g></g><g id="ic_pers_94nerv1c29vr5-fill-overlay" stroke="none" fill="url(#crawlingPattern-8484841a)"><g><path d="M 16 12C 16 10.895431 15.104569 10 14 10L 12 10C 10.895431 10 10 10.895431 10 12L 10 22C 10 23.104568 10.895431 24 12 24L 14 24C 15.104569 24 16 23.104568 16 22ZM 18 20.58C 17.998692 20.723301 18.056581 20.86079 18.16 20.959999C 18.269445 21.056433 18.415546 21.100262 18.560001 21.08L 22.92 20.560001C 23.111362 20.546833 23.276512 20.421003 23.34 20.24C 23.822111 18.914991 24.849533 17.860504 26.161558 17.344109C 27.473585 16.827713 28.944113 16.899044 30.200001 17.540001C 30.3547 17.629316 30.5453 17.629316 30.700001 17.540001C 30.849852 17.453491 30.941547 17.293024 30.939999 17.119999L 30.940001 15.42C 30.942581 14.367872 30.129551 13.493647 29.08 13.42L 18.540001 12.74C 18.40144 12.717061 18.260256 12.761645 18.16 12.86C 18.063236 12.95557 18.006096 13.084133 18 13.22ZM 10 10M 18.939999 35.580002L 10.18 55.18C 9.806145 56.16835 10.265658 57.276993 11.229082 57.711063C 12.192506 58.14513 13.327366 57.754833 13.82 56.82L 18.939999 45.380001L 18.939999 56C 18.939999 57.104568 19.83543 58 20.939999 58C 22.044571 58 22.939999 57.104568 22.939999 56L 22.939999 45.259998L 28.18 56.82C 28.672634 57.754833 29.807495 58.14513 30.770918 57.711063C 31.734343 57.276993 32.193855 56.16835 31.82 55.18L 22.939999 35.559998L 22.939999 23.139999C 22.931637 22.994762 22.867081 22.858479 22.76 22.76C 22.654293 22.671125 22.517574 22.627953 22.379999 22.639999L 19.380001 23C 19.127518 23.030512 18.938164 23.245687 18.939999 23.5ZM 36.5 16.5C 36.5 18.985281 38.514717 21 41 21C 43.485283 21 45.5 18.985281 45.5 16.5C 45.5 14.014719 43.485283 12 41 12C 38.514717 12 36.5 14.014719 36.5 16.5M 48.400002 23.200001C 47.422089 21.898952 45.585133 21.614979 44.260002 22.560001L 38.639999 26.559999C 37.297207 27.523344 35.4282 27.219296 34.459999 25.880001L 30.459999 20.26C 29.491817 18.924006 27.630615 18.61232 26.280001 19.559999C 25.629128 20.018597 25.188843 20.718588 25.057339 21.50386C 24.925833 22.289133 25.114044 23.094376 25.580002 23.740002L 29.58 29.360001C 30.95923 31.308155 33.058792 32.62545 35.412971 33.019691C 37.767151 33.413933 40.181328 32.852524 42.119999 31.459999L 44.959999 29.459999C 45.188564 29.309614 45.494568 29.362072 45.659996 29.579998L 51.400002 37.200001C 51.794796 37.716484 52.005947 38.349937 52 39L 52 55C 52 56.656857 53.343147 58 55 58C 56.656857 58 58 56.656857 58 55L 58 39C 57.994286 37.053596 57.36327 35.160545 56.200001 33.599998Z"></path></g></g></g><g id="g-root-tx_witnessc_zkp7kb1c2iayq-stroke-fill" data-item-order="0" transform="translate(65, 218)"><g id="tx_witnessc_zkp7kb1c2iayq-fill" stroke="none" fill="#f4f4f4"><g><text style="font: 20px Roboto, sans-serif; white-space: pre;" font-size="20px" font-family="Roboto, sans-serif"><tspan x="32.55" y="34" dominant-baseline="ideographic">Witness </tspan><tspan x="15.81" y="58" dominant-baseline="ideographic">Credibility</tspan></text></g></g><g id="tx_witnessc_zkp7kb1c2iayq-fill-overlay" stroke="none" fill="url(#crawlingPattern-0000001b)"><g><text style="font: 20px Roboto, sans-serif; white-space: pre;" font-size="20px" font-family="Roboto, sans-serif"><tspan x="32.55" y="34" dominant-baseline="ideographic">Witness </tspan><tspan x="15.81" y="58" dominant-baseline="ideographic">Credibility</tspan></text></g></g></g><g id="g-root-tx_photogra_1cza3d71c2i9sb-stroke-fill" data-item-order="0" transform="translate(29, 146)"><g id="tx_photogra_1cza3d71c2i9sb-fill" stroke="none" fill="#f4f4f4"><g><text style="font: 20px Roboto, sans-serif; white-space: pre;" font-size="20px" font-family="Roboto, sans-serif"><tspan x="21.13" y="34" dominant-baseline="ideographic">Photographic </tspan><tspan x="60.33" y="58" dominant-baseline="ideographic">Evidence</tspan></text></g></g><g id="tx_photogra_1cza3d71c2i9sb-fill-overlay" stroke="none" fill="url(#crawlingPattern-0000001b)"><g><text style="font: 20px Roboto, sans-serif; white-space: pre;" font-size="20px" font-family="Roboto, sans-serif"><tspan x="21.13" y="34" dominant-baseline="ideographic">Photographic </tspan><tspan x="60.33" y="58" dominant-baseline="ideographic">Evidence</tspan></text></g></g></g><g id="g-root-tx_inconsis_1urt2171c2i9l8-stroke-fill" data-item-order="0" transform="translate(41, 74.0000991821289)"><g id="tx_inconsis_1urt2171c2i9l8-fill" stroke="none" fill="#f4f4f4"><g><text style="font: 20px Roboto, sans-serif; white-space: pre;" font-size="20px" font-family="Roboto, sans-serif"><tspan x="18.34" y="34" dominant-baseline="ideographic">Inconsistent </tspan><tspan x="25.5" y="58" dominant-baseline="ideographic">Statements</tspan></text></g></g><g id="tx_inconsis_1urt2171c2i9l8-fill-overlay" stroke="none" fill="url(#crawlingPattern-0000001b)"><g><text style="font: 20px Roboto, sans-serif; white-space: pre;" font-size="20px" font-family="Roboto, sans-serif"><tspan x="18.34" y="34" dominant-baseline="ideographic">Inconsistent </tspan><tspan x="25.5" y="58" dominant-baseline="ideographic">Statements</tspan></text></g></g></g><g id="g-root-tx_mediainf_146rgjv1c2ibr9-stroke-fill" data-item-order="0" transform="translate(401, 206)"><g id="tx_mediainf_146rgjv1c2ibr9-fill" stroke="none" fill="#f4f4f4"><g><text style="font: 20px Roboto, sans-serif; white-space: pre;" font-size="20px" font-family="Roboto, sans-serif"><tspan x="12" y="34" dominant-baseline="ideographic">Media Influence</tspan></text></g></g><g id="tx_mediainf_146rgjv1c2ibr9-fill-overlay" stroke="none" fill="url(#crawlingPattern-0000001b)"><g><text style="font: 20px Roboto, sans-serif; white-space: pre;" font-size="20px" font-family="Roboto, sans-serif"><tspan x="12" y="34" dominant-baseline="ideographic">Media Influence</tspan></text></g></g></g><g id="g-root-tx_adamskis_m7yfm31cbws26-stroke-fill" data-item-order="0" transform="translate(401, 122)"><g id="tx_adamskis_m7yfm31cbws26-fill" stroke="none" fill="#f4f4f4"><g><text style="font: 20px Roboto, sans-serif; white-space: pre;" font-size="20px" font-family="Roboto, sans-serif"><tspan x="12" y="34" dominant-baseline="ideographic">Adamski </tspan><tspan x="12" y="58" dominant-baseline="ideographic">Similarity</tspan></text></g></g><g id="tx_adamskis_m7yfm31cbws26-fill-overlay" stroke="none" fill="url(#crawlingPattern-0000001b)"><g><text style="font: 20px Roboto, sans-serif; white-space: pre;" font-size="20px" font-family="Roboto, sans-serif"><tspan x="12" y="34" dominant-baseline="ideographic">Adamski </tspan><tspan x="12" y="58" dominant-baseline="ideographic">Similarity</tspan></text></g></g></g><g id="g-root-tx_historic_2qc971cbwtfz-stroke-fill" data-item-order="0" transform="translate(401, 50)"><g id="tx_historic_2qc971cbwtfz-fill" stroke="none" fill="#f4f4f4"><g><text style="font: 20px Roboto, sans-serif; white-space: pre;" font-size="20px" font-family="Roboto, sans-serif"><tspan x="12" y="34" dominant-baseline="ideographic">Historical </tspan><tspan x="12" y="58" dominant-baseline="ideographic">Pattern</tspan></text></g></g><g id="tx_historic_2qc971cbwtfz-fill-overlay" stroke="none" fill="url(#crawlingPattern-0000001b)"><g><text style="font: 20px Roboto, sans-serif; white-space: pre;" font-size="20px" font-family="Roboto, sans-serif"><tspan x="12" y="34" dominant-baseline="ideographic">Historical </tspan><tspan x="12" y="58" dominant-baseline="ideographic">Pattern</tspan></text></g></g></g><g id="g-root-tx_authenti_1hefszv1cbwum8-stroke-fill" data-item-order="0" transform="translate(23, 362)"><g id="tx_authenti_1hefszv1cbwum8-fill" stroke="none" fill="#f4f4f4"><g><text style="font: 20px Roboto, sans-serif; white-space: pre;" font-size="20px" font-family="Roboto, sans-serif"><tspan x="13.81" y="34" dominant-baseline="ideographic">Authenticity Claims</tspan></text></g></g><g id="tx_authenti_1hefszv1cbwum8-fill-overlay" stroke="none" fill="url(#crawlingPattern-0000001b)"><g><text style="font: 20px Roboto, sans-serif; white-space: pre;" font-size="20px" font-family="Roboto, sans-serif"><tspan x="13.81" y="34" dominant-baseline="ideographic">Authenticity Claims</tspan></text></g></g></g><g id="g-root-tx_hoaxargu_5upor1cbwum9-stroke-fill" data-item-order="0" transform="translate(371, 338)"><g id="tx_hoaxargu_5upor1cbwum9-fill" stroke="none" fill="#f4f4f4"><g><text style="font: 20px Roboto, sans-serif; white-space: pre;" font-size="20px" font-family="Roboto, sans-serif"><tspan x="13.3" y="34" dominant-baseline="ideographic">Hoax Arguments</tspan></text></g></g><g id="tx_hoaxargu_5upor1cbwum9-fill-overlay" stroke="none" fill="url(#crawlingPattern-0000001b)"><g><text style="font: 20px Roboto, sans-serif; white-space: pre;" font-size="20px" font-family="Roboto, sans-serif"><tspan x="13.3" y="34" dominant-baseline="ideographic">Hoax Arguments</tspan></text></g></g></g><g id="g-root-tx_balancin_4njn2j1cbwsua-stroke-fill" data-item-order="0" transform="translate(23, 422)"><g id="tx_balancin_4njn2j1cbwsua-fill" stroke="none" fill="#f4f4f4"><g><text style="font: 20px Roboto, sans-serif; white-space: pre;" font-size="20px" font-family="Roboto, sans-serif"><tspan x="13.13" y="34" dominant-baseline="ideographic">Balancing Authenticity and Hoax in Darbishire's UFO Case</tspan></text></g></g><g id="tx_balancin_4njn2j1cbwsua-fill-overlay" stroke="none" fill="url(#crawlingPattern-0000001b)"><g><text style="font: 20px Roboto, sans-serif; white-space: pre;" font-size="20px" font-family="Roboto, sans-serif"><tspan x="13.13" y="34" dominant-baseline="ideographic">Balancing Authenticity and Hoax in Darbishire's UFO Case</tspan></text></g></g></g></svg>