<?xml version='1.0' encoding='utf-8'?>
<svg xmlns="http://www.w3.org/2000/svg" xmlns:xlink="http://www.w3.org/1999/xlink" width="936" height="696" viewBox="0 0 936 696" style="fill:none;stroke:none;fill-rule:evenodd;clip-rule:evenodd;stroke-linecap:round;stroke-linejoin:round;stroke-miterlimit:1.5;" version="1.1">
  <style class="text-font-style fontImports" data-font-family="Roboto">@import url('https://fonts.googleapis.com/css2?family=Roboto:wght@400;700&amp;display=block');</style>
  <rect x="0" y="0" width="936" height="696" fill="#252a34" stroke="none" id="programmatic_background"/>
  <g id="g-root-tf_1q8u4kb1ao4tty-stroke-fill" data-item-order="-612864" transform="translate(12, 12)"/>
  <g id="g-root-cp_8_g-8_i09d3v1ao239e-stroke-fill" data-item-order="-497656" transform="translate(532, 468)">
    <g id="cp_8_g-8_i09d3v1ao239e-fill" stroke="none" fill="none">
      <g>
        <path d="M 38 61C 38.000001 84.19596 56.804041 103.000001 80.000001 103.000001C 103.19596 103.000001 122.000001 84.19596 122.000001 61.000001C 122.000001 37.804041 103.19596 19.000001 80.000001 19.000001C 56.804041 19.000001 38.000001 37.804041 38.000001 61.000001"/>
      </g>
    </g>
    <g id="cp_8_g-8_i09d3v1ao239e-stroke" fill="none" stroke-linecap="round" stroke-linejoin="round" stroke-miterlimit="4" stroke="#f366bb" stroke-width="2">
      <g>
        <path d="M 38 61C 38.000001 84.19596 56.804041 103.000001 80.000001 103.000001C 103.19596 103.000001 122.000001 84.19596 122.000001 61.000001C 122.000001 37.804041 103.19596 19.000001 80.000001 19.000001C 56.804041 19.000001 38.000001 37.804041 38.000001 61.000001"/>
      </g>
    </g>
    <g id="cp_8_g-8_i09d3v1ao239e-fill" stroke="none" fill="none">
      <g>
        <path d="M 10 10L 38 14.2748C 38 14.2748 32.7391 17.9857 27.7671 24.0672C 22.795 30.1486 20.238 36 20.238 36L 10 10Z"/>
      </g>
    </g>
    <g id="cp_8_g-8_i09d3v1ao239e-stroke" fill="none" stroke-linecap="round" stroke-linejoin="round" stroke-miterlimit="4" stroke="#f366bb" stroke-width="2">
      <g>
        <path d="M 10 10L 38 14.2748C 38 14.2748 32.7391 17.9857 27.7671 24.0672C 22.795 30.1486 20.238 36 20.238 36L 10 10Z"/>
      </g>
    </g>
  </g>
  <g id="g-root-cp_7_g-7_1uuwdjv1ao22a4-stroke-fill" data-item-order="-497650" transform="translate(558, 392)">
    <g id="cp_7_g-7_1uuwdjv1ao22a4-fill" stroke="none" fill="none">
      <g>
        <path d="M 144 52C 144 75.196 125.196 94 102 94C 78.804 94 60 75.196 60 52C 60 28.804 78.804 10 102 10C 125.196 10 144 28.804 144 52Z"/>
      </g>
    </g>
    <g id="cp_7_g-7_1uuwdjv1ao22a4-stroke" fill="none" stroke-linecap="round" stroke-linejoin="round" stroke-miterlimit="4" stroke="#cb68f9" stroke-width="2">
      <g>
        <path d="M 144 52C 144 75.196 125.196 94 102 94C 78.804 94 60 75.196 60 52C 60 28.804 78.804 10 102 10C 125.196 10 144 28.804 144 52Z"/>
      </g>
    </g>
    <g id="cp_7_g-7_1uuwdjv1ao22a4-fill" stroke="none" fill="none">
      <g>
        <path d="M 9.999998 39.4005L 37.999998 30C 37.999998 30 35.146098 35.4675 33.821598 42.7456C 32.496998 50.0237 33.268198 56 33.268198 56L 9.999998 39.4005Z"/>
      </g>
    </g>
    <g id="cp_7_g-7_1uuwdjv1ao22a4-stroke" fill="none" stroke-linecap="round" stroke-linejoin="round" stroke-miterlimit="4" stroke="#cb68f9" stroke-width="2">
      <g>
        <path d="M 9.999998 39.4005L 37.999998 30C 37.999998 30 35.146098 35.4675 33.821598 42.7456C 32.496998 50.0237 33.268198 56 33.268198 56L 9.999998 39.4005Z"/>
      </g>
    </g>
  </g>
  <g id="g-root-cp_6_g-6_1ha2qvv1ao3f9r-stroke-fill" data-item-order="-497644" transform="translate(558, 296)">
    <g id="cp_6_g-6_1ha2qvv1ao3f9r-fill" stroke="none" fill="none">
      <g>
        <path d="M 60 52C 60.000001 75.19596 78.804041 94.000001 102.000001 94.000001C 125.19596 94.000001 144.000001 75.19596 144.000001 52.000001C 144.000001 28.804041 125.19596 10.000001 102.000001 10.000001C 78.804041 10.000001 60.000001 28.804041 60.000001 52.000001"/>
      </g>
    </g>
    <g id="cp_6_g-6_1ha2qvv1ao3f9r-stroke" fill="none" stroke-linecap="round" stroke-linejoin="round" stroke-miterlimit="4" stroke="#1ac3fb" stroke-width="2">
      <g>
        <path d="M 60 52C 60.000001 75.19596 78.804041 94.000001 102.000001 94.000001C 125.19596 94.000001 144.000001 75.19596 144.000001 52.000001C 144.000001 28.804041 125.19596 10.000001 102.000001 10.000001C 78.804041 10.000001 60.000001 28.804041 60.000001 52.000001"/>
      </g>
    </g>
    <g id="cp_6_g-6_1ha2qvv1ao3f9r-fill" stroke="none" fill="none">
      <g>
        <path d="M 9.999998 64.5995L 37.999998 74C 37.999998 74 35.146098 68.5325 33.821598 61.2544C 32.496998 53.9763 33.268198 48 33.268198 48L 9.999998 64.5995Z"/>
      </g>
    </g>
    <g id="cp_6_g-6_1ha2qvv1ao3f9r-stroke" fill="none" stroke-linecap="round" stroke-linejoin="round" stroke-miterlimit="4" stroke="#1ac3fb" stroke-width="2">
      <g>
        <path d="M 9.999998 64.5995L 37.999998 74C 37.999998 74 35.146098 68.5325 33.821598 61.2544C 32.496998 53.9763 33.268198 48 33.268198 48L 9.999998 64.5995Z"/>
      </g>
    </g>
  </g>
  <g id="g-root-cp_5_g-5_1cu98rf1ao3g21-stroke-fill" data-item-order="-497638" transform="translate(532, 213)">
    <g id="cp_5_g-5_1cu98rf1ao3g21-fill" stroke="none" fill="none">
      <g>
        <path d="M 38 52C 38.000001 75.19596 56.804041 94.000001 80.000001 94.000001C 103.19596 94.000001 122.000001 75.19596 122.000001 52.000001C 122.000001 28.804041 103.19596 10.000001 80.000001 10.000001C 56.804041 10.000001 38.000001 28.804041 38.000001 52.000001"/>
      </g>
    </g>
    <g id="cp_5_g-5_1cu98rf1ao3g21-stroke" fill="none" stroke-linecap="round" stroke-linejoin="round" stroke-miterlimit="4" stroke="#a6da37" stroke-width="2">
      <g>
        <path d="M 38 52C 38.000001 75.19596 56.804041 94.000001 80.000001 94.000001C 103.19596 94.000001 122.000001 75.19596 122.000001 52.000001C 122.000001 28.804041 103.19596 10.000001 80.000001 10.000001C 56.804041 10.000001 38.000001 28.804041 38.000001 52.000001"/>
      </g>
    </g>
    <g id="cp_5_g-5_1cu98rf1ao3g21-fill" stroke="none" fill="none">
      <g>
        <path d="M 10 103L 38 98.7252C 38 98.7252 32.7391 95.0143 27.7671 88.9328C 22.795 82.8514 20.238 77 20.238 77L 10 103Z"/>
      </g>
    </g>
    <g id="cp_5_g-5_1cu98rf1ao3g21-stroke" fill="none" stroke-linecap="round" stroke-linejoin="round" stroke-miterlimit="4" stroke="#a6da37" stroke-width="2">
      <g>
        <path d="M 10 103L 38 98.7252C 38 98.7252 32.7391 95.0143 27.7671 88.9328C 22.795 82.8514 20.238 77 20.238 77L 10 103Z"/>
      </g>
    </g>
  </g>
  <g id="g-root-cp_4_g-4_zisqe31ao3hmz-stroke-fill" data-item-order="-497632" transform="translate(272, 210)">
    <g id="cp_4_g-4_zisqe31ao3hmz-fill" stroke="none" fill="none">
      <g>
        <path d="M 10 52C 10.000001 75.19596 28.804041 94.000001 52.000001 94.000001C 75.19596 94.000001 94.000001 75.19596 94.000001 52.000001C 94.000001 28.804041 75.19596 10.000001 52.000001 10.000001C 28.804041 10.000001 10.000001 28.804041 10.000001 52.000001"/>
      </g>
    </g>
    <g id="cp_4_g-4_zisqe31ao3hmz-stroke" fill="none" stroke-linecap="round" stroke-linejoin="round" stroke-miterlimit="4" stroke="#ffe711" stroke-width="2">
      <g>
        <path d="M 10 52C 10.000001 75.19596 28.804041 94.000001 52.000001 94.000001C 75.19596 94.000001 94.000001 75.19596 94.000001 52.000001C 94.000001 28.804041 75.19596 10.000001 52.000001 10.000001C 28.804041 10.000001 10.000001 28.804041 10.000001 52.000001"/>
      </g>
    </g>
    <g id="cp_4_g-4_zisqe31ao3hmz-fill" stroke="none" fill="none">
      <g>
        <path d="M 122 103L 94 98.7252C 94 98.7252 99.2608 95.0143 104.2329 88.9328C 109.205 82.8514 111.762 77 111.762 77L 122 103Z"/>
      </g>
    </g>
    <g id="cp_4_g-4_zisqe31ao3hmz-stroke" fill="none" stroke-linecap="round" stroke-linejoin="round" stroke-miterlimit="4" stroke="#ffe711" stroke-width="2">
      <g>
        <path d="M 122 103L 94 98.7252C 94 98.7252 99.2609 95.0143 104.2329 88.9328C 109.205 82.8514 111.762 77 111.762 77L 122 103Z"/>
      </g>
    </g>
  </g>
  <g id="g-root-cp_3_g-3_v3lpcr1ao3f9h-stroke-fill" data-item-order="-497626" transform="translate(224, 295)">
    <g id="cp_3_g-3_v3lpcr1ao3f9h-fill" stroke="none" fill="none">
      <g>
        <path d="M 10 52C 10.000001 75.19596 28.804041 94.000001 52.000001 94.000001C 75.19596 94.000001 94.000001 75.19596 94.000001 52.000001C 94.000001 28.804041 75.19596 10.000001 52.000001 10.000001C 28.804041 10.000001 10.000001 28.804041 10.000001 52.000001"/>
      </g>
    </g>
    <g id="cp_3_g-3_v3lpcr1ao3f9h-stroke" fill="none" stroke-linecap="round" stroke-linejoin="round" stroke-miterlimit="4" stroke="#43dd93" stroke-width="2">
      <g>
        <path d="M 10 52C 10.000001 75.19596 28.804041 94.000001 52.000001 94.000001C 75.19596 94.000001 94.000001 75.19596 94.000001 52.000001C 94.000001 28.804041 75.19596 10.000001 52.000001 10.000001C 28.804041 10.000001 10.000001 28.804041 10.000001 52.000001"/>
      </g>
    </g>
    <g id="cp_3_g-3_v3lpcr1ao3f9h-fill" stroke="none" fill="none">
      <g>
        <path d="M 144 64.5995L 116 74C 116 74 118.8539 68.5325 120.1785 61.2544C 121.503 53.9763 120.7318 48 120.7318 48L 144 64.5995Z"/>
      </g>
    </g>
    <g id="cp_3_g-3_v3lpcr1ao3f9h-stroke" fill="none" stroke-linecap="round" stroke-linejoin="round" stroke-miterlimit="4" stroke="#43dd93" stroke-width="2">
      <g>
        <path d="M 144 64.5995L 116 74C 116 74 118.8539 68.5325 120.1784 61.2544C 121.503 53.9763 120.7318 48 120.7318 48L 144 64.5995Z"/>
      </g>
    </g>
  </g>
  <g id="g-root-cp_2_g-2_hs56zf1ao3guf-stroke-fill" data-item-order="-497620" transform="translate(224, 391)">
    <g id="cp_2_g-2_hs56zf1ao3guf-fill" stroke="none" fill="none">
      <g>
        <path d="M 10 52C 10.000001 75.19596 28.804041 94.000001 52.000001 94.000001C 75.19596 94.000001 94.000001 75.19596 94.000001 52.000001C 94.000001 28.804041 75.19596 10.000001 52.000001 10.000001C 28.804041 10.000001 10.000001 28.804041 10.000001 52.000001"/>
      </g>
    </g>
    <g id="cp_2_g-2_hs56zf1ao3guf-stroke" fill="none" stroke-linecap="round" stroke-linejoin="round" stroke-miterlimit="4" stroke="#f79438" stroke-width="2">
      <g>
        <path d="M 10 52C 10.000001 75.19596 28.804041 94.000001 52.000001 94.000001C 75.19596 94.000001 94.000001 75.19596 94.000001 52.000001C 94.000001 28.804041 75.19596 10.000001 52.000001 10.000001C 28.804041 10.000001 10.000001 28.804041 10.000001 52.000001"/>
      </g>
    </g>
    <g id="cp_2_g-2_hs56zf1ao3guf-fill" stroke="none" fill="none">
      <g>
        <path d="M 144 39.4005L 116 30C 116 30 118.8539 35.4675 120.1785 42.7456C 121.503 50.0237 120.7318 56 120.7318 56L 144 39.4005Z"/>
      </g>
    </g>
    <g id="cp_2_g-2_hs56zf1ao3guf-stroke" fill="none" stroke-linecap="round" stroke-linejoin="round" stroke-miterlimit="4" stroke="#f79438" stroke-width="2">
      <g>
        <path d="M 144 39.4005L 116 30C 116 30 118.8539 35.4675 120.1784 42.7456C 121.503 50.0237 120.7318 56 120.7318 56L 144 39.4005Z"/>
      </g>
    </g>
  </g>
  <g id="g-root-cp_1_g-1_4hb5p71ao3f9l-stroke-fill" data-item-order="-497614" transform="translate(272, 467)">
    <g id="cp_1_g-1_4hb5p71ao3f9l-fill" stroke="none" fill="none">
      <g>
        <path d="M 10 61C 10.000001 84.19596 28.804041 103.000001 52.000001 103.000001C 75.19596 103.000001 94.000001 84.19596 94.000001 61.000001C 94.000001 37.804041 75.19596 19.000001 52.000001 19.000001C 28.804041 19.000001 10.000001 37.804041 10.000001 61.000001"/>
      </g>
    </g>
    <g id="cp_1_g-1_4hb5p71ao3f9l-stroke" fill="none" stroke-linecap="round" stroke-linejoin="round" stroke-miterlimit="4" stroke="#fb6762" stroke-width="2">
      <g>
        <path d="M 10 61C 10.000001 84.19596 28.804041 103.000001 52.000001 103.000001C 75.19596 103.000001 94.000001 84.19596 94.000001 61.000001C 94.000001 37.804041 75.19596 19.000001 52.000001 19.000001C 28.804041 19.000001 10.000001 37.804041 10.000001 61.000001"/>
      </g>
    </g>
    <g id="cp_1_g-1_4hb5p71ao3f9l-fill" stroke="none" fill="none">
      <g>
        <path d="M 122 10L 94 14.2748C 94 14.2748 99.2608 17.9857 104.2329 24.0672C 109.205 30.1486 111.762 36 111.762 36L 122 10Z"/>
      </g>
    </g>
    <g id="cp_1_g-1_4hb5p71ao3f9l-stroke" fill="none" stroke-linecap="round" stroke-linejoin="round" stroke-miterlimit="4" stroke="#fb6762" stroke-width="2">
      <g>
        <path d="M 122 10L 94 14.2748C 94 14.2748 99.2609 17.9857 104.2329 24.0672C 109.205 30.1486 111.762 36 111.762 36L 122 10Z"/>
      </g>
    </g>
  </g>
  <g id="g-root-cp_end_g-end_1q6ypaz1ao3gnf-stroke-fill" data-item-order="-497608" transform="translate(374, 301)">
    <g id="cp_end_g-end_1q6ypaz1ao3gnf-fill" stroke="none" fill="none">
      <g>
        <path d="M 10 94C 10.000002 140.391921 47.608083 178.000002 94.000002 178.000002C 140.391921 178.000002 178.000002 140.391921 178.000002 94.000002C 178.000002 47.608083 140.391921 10.000002 94.000002 10.000002C 47.608083 10.000002 10.000002 47.608083 10.000002 94.000002"/>
      </g>
    </g>
    <g id="cp_end_g-end_1q6ypaz1ao3gnf-stroke" fill="none" stroke-linecap="round" stroke-linejoin="round" stroke-miterlimit="4" stroke="#4f91fc" stroke-width="2">
      <g>
        <path d="M 10 94C 10.000002 140.391921 47.608083 178.000002 94.000002 178.000002C 140.391921 178.000002 178.000002 140.391921 178.000002 94.000002C 178.000002 47.608083 140.391921 10.000002 94.000002 10.000002C 47.608083 10.000002 10.000002 47.608083 10.000002 94.000002"/>
      </g>
    </g>
  </g>
  <g id="g-root-tx_understa_18gb5wb1ao3fus-stroke-fill" data-item-order="0" transform="translate(242, 50)">
    <g id="tx_understa_18gb5wb1ao3fus-fill" stroke="none" fill="#f4f4f4">
      <g>
        <text style="font: 20px Roboto, sans-serif; white-space: pre;" font-size="20px" font-family="Roboto, sans-serif">
          <tspan x="17.73" y="34" dominant-baseline="ideographic">Understanding the Darbishire Photograph Case</tspan>
        </text>
      </g>
    </g>
  </g>
  <g id="g-root-tx_understa_m97na31ao3i8d-stroke-fill" data-item-order="0" transform="translate(386, 362)">
    <g id="tx_understa_m97na31ao3i8d-fill" stroke="none" fill="#4f91fc">
      <g>
        <text style="font: bold 20px Roboto, sans-serif; white-space: pre;" font-weight="bold" font-size="20px" font-family="Roboto, sans-serif">
          <tspan x="14.02" y="34" dominant-baseline="ideographic">Understanding </tspan>
          <tspan x="40.67" y="58" dominant-baseline="ideographic">the Case</tspan>
        </text>
      </g>
    </g>
  </g>
  <g id="g-root-tx_8_4ik3vf1ao3hfq-stroke-fill" data-item-order="0" transform="translate(590, 500)">
    <g id="tx_8_4ik3vf1ao3hfq-fill" stroke="none" fill="#f366bb">
      <g>
        <text style="font: bold 30px Roboto, sans-serif; white-space: pre;" font-weight="bold" font-size="30px" font-family="Roboto, sans-serif">
          <tspan x="13.39" y="46" dominant-baseline="ideographic">8</tspan>
        </text>
      </g>
    </g>
  </g>
  <g id="g-root-tx_7_1q8u4kb1ao3fnr-stroke-fill" data-item-order="0" transform="translate(638, 416)">
    <g id="tx_7_1q8u4kb1ao3fnr-fill" stroke="none" fill="#cb68f9">
      <g>
        <text style="font: bold 30px Roboto, sans-serif; white-space: pre;" font-weight="bold" font-size="30px" font-family="Roboto, sans-serif">
          <tspan x="13.39" y="46" dominant-baseline="ideographic">7</tspan>
        </text>
      </g>
    </g>
  </g>
  <g id="g-root-tx_6_1cxdm6z1ao3h8o-stroke-fill" data-item-order="0" transform="translate(638, 320)">
    <g id="tx_6_1cxdm6z1ao3h8o-fill" stroke="none" fill="#1ac3fb">
      <g>
        <text style="font: bold 30px Roboto, sans-serif; white-space: pre;" font-weight="bold" font-size="30px" font-family="Roboto, sans-serif">
          <tspan x="13.39" y="46" dominant-baseline="ideographic">6</tspan>
        </text>
      </g>
    </g>
  </g>
  <g id="g-root-tx_5_zmjkwr1ao3fnt-stroke-fill" data-item-order="0" transform="translate(590, 236)">
    <g id="tx_5_zmjkwr1ao3fnt-fill" stroke="none" fill="#a6da37">
      <g>
        <text style="font: bold 30px Roboto, sans-serif; white-space: pre;" font-weight="bold" font-size="30px" font-family="Roboto, sans-serif">
          <tspan x="13.39" y="46" dominant-baseline="ideographic">5</tspan>
        </text>
      </g>
    </g>
  </g>
  <g id="g-root-tx_4_hv9kez1ao3i0y-stroke-fill" data-item-order="0" transform="translate(302, 236)">
    <g id="tx_4_hv9kez1ao3i0y-fill" stroke="none" fill="#ffe711">
      <g>
        <text style="font: bold 30px Roboto, sans-serif; white-space: pre;" font-weight="bold" font-size="30px" font-family="Roboto, sans-serif">
          <tspan x="13.39" y="46" dominant-baseline="ideographic">4</tspan>
        </text>
      </g>
    </g>
  </g>
  <g id="g-root-tx_3_1upwkuz1ao3h1n-stroke-fill" data-item-order="0" transform="translate(254, 320)">
    <g id="tx_3_1upwkuz1ao3h1n-fill" stroke="none" fill="#43dd93">
      <g>
        <text style="font: bold 30px Roboto, sans-serif; white-space: pre;" font-weight="bold" font-size="30px" font-family="Roboto, sans-serif">
          <tspan x="13.39" y="46" dominant-baseline="ideographic">3</tspan>
        </text>
      </g>
    </g>
  </g>
  <g id="g-root-tx_2_1hf2jkr1ao3fgs-stroke-fill" data-item-order="0" transform="translate(254, 416)">
    <g id="tx_2_1hf2jkr1ao3fgs-fill" stroke="none" fill="#f79438">
      <g>
        <text style="font: bold 30px Roboto, sans-serif; white-space: pre;" font-weight="bold" font-size="30px" font-family="Roboto, sans-serif">
          <tspan x="13.39" y="46" dominant-baseline="ideographic">2</tspan>
        </text>
      </g>
    </g>
  </g>
  <g id="g-root-tx_1_143m17f1ao3h1p-stroke-fill" data-item-order="0" transform="translate(302, 500)">
    <g id="tx_1_143m17f1ao3h1p-fill" stroke="none" fill="#fb6762">
      <g>
        <text style="font: bold 30px Roboto, sans-serif; white-space: pre;" font-weight="bold" font-size="30px" font-family="Roboto, sans-serif">
          <tspan x="13.39" y="46" dominant-baseline="ideographic">1</tspan>
        </text>
      </g>
    </g>
  </g>
  <g id="g-root-tx_newspape_mcyhsr1ao3g92-stroke-fill" data-item-order="0" transform="translate(686, 506)">
    <g id="tx_newspape_mcyhsr1ao3g92-fill" stroke="none" fill="#f366bb">
      <g>
        <text style="font: bold 20px Roboto, sans-serif; white-space: pre;" font-weight="bold" font-size="20px" font-family="Roboto, sans-serif">
          <tspan x="12" y="34" dominant-baseline="ideographic">Newspaper </tspan>
          <tspan x="12" y="58" dominant-baseline="ideographic">Archives</tspan>
        </text>
      </g>
    </g>
  </g>
  <g id="g-root-tx_historic_dhbhjv1ao3h1r-stroke-fill" data-item-order="0" transform="translate(686, 566)">
    <g id="tx_historic_dhbhjv1ao3h1r-fill" stroke="none" fill="#f4f4f4">
      <g>
        <text style="font: 15px Roboto, sans-serif; white-space: pre;" font-size="15px" font-family="Roboto, sans-serif">
          <tspan x="12" y="31" dominant-baseline="ideographic">Historical reports </tspan>
          <tspan x="12" y="49" dominant-baseline="ideographic">could detail public </tspan>
          <tspan x="12" y="67" dominant-baseline="ideographic">reactions.</tspan>
        </text>
      </g>
    </g>
  </g>
  <g id="g-root-tx_foireque_4maye31ao3fgg-stroke-fill" data-item-order="0" transform="translate(734, 392)">
    <g id="tx_foireque_4maye31ao3fgg-fill" stroke="none" fill="#cb68f9">
      <g>
        <text style="font: bold 20px Roboto, sans-serif; white-space: pre;" font-weight="bold" font-size="20px" font-family="Roboto, sans-serif">
          <tspan x="12" y="34" dominant-baseline="ideographic">FOI Requests</tspan>
        </text>
      </g>
    </g>
  </g>
  <g id="g-root-tx_governme_1qbyhzv1ao3gu9-stroke-fill" data-item-order="0" transform="translate(734, 428)">
    <g id="tx_governme_1qbyhzv1ao3gu9-fill" stroke="none" fill="#f4f4f4">
      <g>
        <text style="font: 15px Roboto, sans-serif; white-space: pre;" font-size="15px" font-family="Roboto, sans-serif">
          <tspan x="12" y="28" dominant-baseline="ideographic">Government </tspan>
          <tspan x="12" y="46" dominant-baseline="ideographic">documents might </tspan>
          <tspan x="12" y="64" dominant-baseline="ideographic">uncover royal </tspan>
          <tspan x="12" y="82" dominant-baseline="ideographic">interest.</tspan>
        </text>
      </g>
    </g>
  </g>
  <g id="g-root-tx_unpublis_145hggr1ao3g22-stroke-fill" data-item-order="0" transform="translate(734, 266)">
    <g id="tx_unpublis_145hggr1ao3g22-fill" stroke="none" fill="#1ac3fb">
      <g>
        <text style="font: bold 20px Roboto, sans-serif; white-space: pre;" font-weight="bold" font-size="20px" font-family="Roboto, sans-serif">
          <tspan x="12" y="34" dominant-baseline="ideographic">Unpublished </tspan>
          <tspan x="12" y="58" dominant-baseline="ideographic">Writings</tspan>
        </text>
      </g>
    </g>
  </g>
  <g id="g-root-tx_personal_qu0y3f1ao3hmz-stroke-fill" data-item-order="0" transform="translate(734, 326)">
    <g id="tx_personal_qu0y3f1ao3hmz-fill" stroke="none" fill="#f4f4f4">
      <g>
        <text style="font: 15px Roboto, sans-serif; white-space: pre;" font-size="15px" font-family="Roboto, sans-serif">
          <tspan x="12" y="31" dominant-baseline="ideographic">Personal writings </tspan>
          <tspan x="12" y="49" dominant-baseline="ideographic">could shed light on </tspan>
          <tspan x="12" y="67" dominant-baseline="ideographic">beliefs.</tspan>
        </text>
      </g>
    </g>
  </g>
  <g id="g-root-tx_relative_93deor1ao3guc-stroke-fill" data-item-order="0" transform="translate(686, 146)">
    <g id="tx_relative_93deor1ao3guc-fill" stroke="none" fill="#a6da37">
      <g>
        <text style="font: bold 20px Roboto, sans-serif; white-space: pre;" font-weight="bold" font-size="20px" font-family="Roboto, sans-serif">
          <tspan x="12" y="34" dominant-baseline="ideographic">Relatives' </tspan>
          <tspan x="12" y="58" dominant-baseline="ideographic">Insights</tspan>
        </text>
      </g>
    </g>
  </g>
  <g id="g-root-tx_intervie_1ut0yaj1ao3i85-stroke-fill" data-item-order="0" transform="translate(686, 206)">
    <g id="tx_intervie_1ut0yaj1ao3i85-fill" stroke="none" fill="#f4f4f4">
      <g>
        <text style="font: 15px Roboto, sans-serif; white-space: pre;" font-size="15px" font-family="Roboto, sans-serif">
          <tspan x="12" y="31" dominant-baseline="ideographic">Interviews with </tspan>
          <tspan x="12" y="49" dominant-baseline="ideographic">relatives may reveal </tspan>
          <tspan x="12" y="67" dominant-baseline="ideographic">private discussions.</tspan>
        </text>
      </g>
    </g>
  </g>
  <g id="g-root-tx_darbishi_1hi6x0b1ao3gna-stroke-fill" data-item-order="0" transform="translate(86, 134)">
    <g id="tx_darbishi_1hi6x0b1ao3gna-fill" stroke="none" fill="#ffe711">
      <g>
        <text style="font: bold 20px Roboto, sans-serif; white-space: pre;" font-weight="bold" font-size="20px" font-family="Roboto, sans-serif">
          <tspan x="23.22" y="34" dominant-baseline="ideographic">Darbishire's </tspan>
          <tspan x="53.81" y="58" dominant-baseline="ideographic">Position</tspan>
        </text>
      </g>
    </g>
  </g>
  <g id="g-root-tx_changing_vbpvh71ao3fv3-stroke-fill" data-item-order="0" transform="translate(86, 194)">
    <g id="tx_changing_vbpvh71ao3fv3-fill" stroke="none" fill="#f4f4f4">
      <g>
        <text style="font: 15px Roboto, sans-serif; white-space: pre;" font-size="15px" font-family="Roboto, sans-serif">
          <tspan x="76.75" y="28" dominant-baseline="ideographic">Changing </tspan>
          <tspan x="22.25" y="46" dominant-baseline="ideographic">statements about </tspan>
          <tspan x="63.38" y="64" dominant-baseline="ideographic">photograph </tspan>
          <tspan x="58.92" y="82" dominant-baseline="ideographic">authenticity.</tspan>
        </text>
      </g>
    </g>
  </g>
  <g id="g-root-tx_official_mg2v8b1ao3hfk-stroke-fill" data-item-order="0" transform="translate(38, 266)">
    <g id="tx_official_mg2v8b1ao3hfk-fill" stroke="none" fill="#43dd93">
      <g>
        <text style="font: bold 20px Roboto, sans-serif; white-space: pre;" font-weight="bold" font-size="20px" font-family="Roboto, sans-serif">
          <tspan x="87.91" y="34" dominant-baseline="ideographic">Official </tspan>
          <tspan x="14.72" y="58" dominant-baseline="ideographic">Documentation</tspan>
        </text>
      </g>
    </g>
  </g>
  <g id="g-root-tx_potentia_958ty31ao3fup-stroke-fill" data-item-order="0" transform="translate(38, 326)">
    <g id="tx_potentia_958ty31ao3fup-fill" stroke="none" fill="#f4f4f4">
      <g>
        <text style="font: 15px Roboto, sans-serif; white-space: pre;" font-size="15px" font-family="Roboto, sans-serif">
          <tspan x="20.91" y="31" dominant-baseline="ideographic">Potential records of </tspan>
          <tspan x="43.59" y="49" dominant-baseline="ideographic">interviews could </tspan>
          <tspan x="45.28" y="67" dominant-baseline="ideographic">provide context.</tspan>
        </text>
      </g>
    </g>
  </g>
  <g id="g-root-tx_testimon_1uuwdjv1ao3h8i-stroke-fill" data-item-order="0" transform="translate(38, 386)">
    <g id="tx_testimon_1uuwdjv1ao3h8i-fill" stroke="none" fill="#f79438">
      <g>
        <text style="font: bold 20px Roboto, sans-serif; white-space: pre;" font-weight="bold" font-size="20px" font-family="Roboto, sans-serif">
          <tspan x="33.47" y="34" dominant-baseline="ideographic">Testimony </tspan>
          <tspan x="17.3" y="58" dominant-baseline="ideographic">Consistency</tspan>
        </text>
      </g>
    </g>
  </g>
  <g id="g-root-tx_uncertai_1ha2qvv1ao4u83-stroke-fill" data-item-order="0" transform="translate(38, 446)">
    <g id="tx_uncertai_1ha2qvv1ao4u83-fill" stroke="none" fill="#f4f4f4">
      <g>
        <text style="font: 15px Roboto, sans-serif; white-space: pre;" font-size="15px" font-family="Roboto, sans-serif">
          <tspan x="33.69" y="31" dominant-baseline="ideographic">Uncertainty about </tspan>
          <tspan x="53.97" y="49" dominant-baseline="ideographic">Adrian Meyer's </tspan>
          <tspan x="20.56" y="67" dominant-baseline="ideographic">consistent account.</tspan>
        </text>
      </g>
    </g>
  </g>
  <g id="g-root-tx_missingp_13ym8ij1ao4vt0-stroke-fill" data-item-order="0" transform="translate(86, 506)">
    <g id="tx_missingp_13ym8ij1ao4vt0-fill" stroke="none" fill="#fb6762">
      <g>
        <text style="font: bold 20px Roboto, sans-serif; white-space: pre;" font-weight="bold" font-size="20px" font-family="Roboto, sans-serif">
          <tspan x="56.72" y="34" dominant-baseline="ideographic">Missing </tspan>
          <tspan x="12.97" y="58" dominant-baseline="ideographic">Photographs</tspan>
        </text>
      </g>
    </g>
  </g>
  <g id="g-root-tx_theabsen_qns78b1ao4u85-stroke-fill" data-item-order="0" transform="translate(86, 566)">
    <g id="tx_theabsen_qns78b1ao4u85-fill" stroke="none" fill="#f4f4f4">
      <g>
        <text style="font: 15px Roboto, sans-serif; white-space: pre;" font-size="15px" font-family="Roboto, sans-serif">
          <tspan x="49.25" y="31" dominant-baseline="ideographic">The absence of </tspan>
          <tspan x="14.47" y="49" dominant-baseline="ideographic">original photographs </tspan>
          <tspan x="40.41" y="67" dominant-baseline="ideographic">hinders analysis.</tspan>
        </text>
      </g>
    </g>
    <defs>
      <pattern id="crawlingPattern-0000001b" x="0" y="0" width="12" height="12" patternUnits="userSpaceOnUse" fill="#0000001b">
        <use href="#crawlingSymbol"/>
      </pattern>
      <symbol id="crawlingSymbol">
        <g>
          <path d="M -12.5 12.5 l 13 -13 l 6 0 l -13 13 Z M -0.5 12.5 l 13 -13 l 6 0 l -13 13 Z M 11.5 12.5 l 13 -13 l 6 0 l -13 13 Z"/>
        </g>
      </symbol>
      <pattern id="crawlingPattern-0060fba2" x="0" y="0" width="12" height="12" patternUnits="userSpaceOnUse" fill="#0060fba2">
        <use href="#crawlingSymbol"/>
      </pattern>
      <pattern id="crawlingPattern-eb008e76" x="0" y="0" width="12" height="12" patternUnits="userSpaceOnUse" fill="#eb008e76">
        <use href="#crawlingSymbol"/>
      </pattern>
      <pattern id="crawlingPattern-a700f578" x="0" y="0" width="12" height="12" patternUnits="userSpaceOnUse" fill="#a700f578">
        <use href="#crawlingSymbol"/>
      </pattern>
      <pattern id="crawlingPattern-00a3d9d9" x="0" y="0" width="12" height="12" patternUnits="userSpaceOnUse" fill="#00a3d9d9">
        <use href="#crawlingSymbol"/>
      </pattern>
      <pattern id="crawlingPattern-5c87005e" x="0" y="0" width="12" height="12" patternUnits="userSpaceOnUse" fill="#5c87005e">
        <use href="#crawlingSymbol"/>
      </pattern>
      <pattern id="crawlingPattern-ddc700ff" x="0" y="0" width="12" height="12" patternUnits="userSpaceOnUse" fill="#ddc700ff">
        <use href="#crawlingSymbol"/>
      </pattern>
      <pattern id="crawlingPattern-00b15c75" x="0" y="0" width="12" height="12" patternUnits="userSpaceOnUse" fill="#00b15c75">
        <use href="#crawlingSymbol"/>
      </pattern>
      <pattern id="crawlingPattern-f17400d3" x="0" y="0" width="12" height="12" patternUnits="userSpaceOnUse" fill="#f17400d3">
        <use href="#crawlingSymbol"/>
      </pattern>
      <pattern id="crawlingPattern-f9080081" x="0" y="0" width="12" height="12" patternUnits="userSpaceOnUse" fill="#f9080081">
        <use href="#crawlingSymbol"/>
      </pattern>
    </defs>
  </g>
</svg>
