<?xml version='1.0' encoding='utf-8'?>
<svg xmlns="http://www.w3.org/2000/svg" xmlns:xlink="http://www.w3.org/1999/xlink" width="648" height="528" viewBox="0 0 648 528" style="fill:none;stroke:none;fill-rule:evenodd;clip-rule:evenodd;stroke-linecap:round;stroke-linejoin:round;stroke-miterlimit:1.5;" version="1.1">
  <style class="text-font-style fontImports" data-font-family="Roboto">@import url('https://fonts.googleapis.com/css2?family=Roboto:wght@400;700&amp;display=block');</style>
  <rect x="0" y="0" width="648" height="528" fill="#252a34" stroke="none" id="programmatic_background"/>
  <g id="g-root-tf_quo7mz190cxe3-stroke-fill" data-item-order="-311472" transform="translate(15, 12)"/>
  <g id="g-root-cp_1_column-1_1ulk1pn190cwlj-stroke-fill" data-item-order="-232550" transform="translate(56, 167)">
    <g id="cp_1_column-1_1ulk1pn190cwlj-fill" stroke="none" fill="none">
      <g>
        <path d="M 10 13C 10 14.656854 11.343146 16 13 16C 14.656854 16 16 14.656854 16 13C 16 11.343146 14.656854 10 13 10C 11.343146 10 10 11.343146 10 13"/>
      </g>
    </g>
    <g id="cp_1_column-1_1ulk1pn190cwlj-stroke" fill="none" stroke-linecap="round" stroke-linejoin="round" stroke-miterlimit="4" stroke="#fb6762" stroke-width="2">
      <g>
        <path d="M 10 13C 10 14.656854 11.343146 16 13 16C 14.656854 16 16 14.656854 16 13C 16 11.343146 14.656854 10 13 10C 11.343146 10 10 11.343146 10 13"/>
      </g>
    </g>
    <g id="cp_1_column-1_1ulk1pn190cwlj-stroke" fill="none" stroke-linecap="round" stroke-linejoin="round" stroke-miterlimit="4" stroke="#fb6762" stroke-width="2">
      <g>
        <path d="M 13 16L 13 94"/>
      </g>
    </g>
    <g id="cp_1_column-1_1ulk1pn190cwlj-fill" stroke="none" fill="none">
      <g>
        <path d="M 10 97C 10 98.656854 11.343146 100 13 100C 14.656854 100 16 98.656854 16 97C 16 95.343146 14.656854 94 13 94C 11.343146 94 10 95.343146 10 97"/>
      </g>
    </g>
    <g id="cp_1_column-1_1ulk1pn190cwlj-stroke" fill="none" stroke-linecap="round" stroke-linejoin="round" stroke-miterlimit="4" stroke="#fb6762" stroke-width="2">
      <g>
        <path d="M 10 97C 10 98.656854 11.343146 100 13 100C 14.656854 100 16 98.656854 16 97C 16 95.343146 14.656854 94 13 94C 11.343146 94 10 95.343146 10 97"/>
      </g>
    </g>
  </g>
  <g id="g-root-cp_3_column-3_1ha3jcb190cy6h-stroke-fill" data-item-order="-232534" transform="translate(236, 119)">
    <g id="cp_3_column-3_1ha3jcb190cy6h-fill" stroke="none" fill="none">
      <g>
        <path d="M 10 13C 10 14.656854 11.343146 16 13 16C 14.656854 16 16 14.656854 16 13C 16 11.343146 14.656854 10 13 10C 11.343146 10 10 11.343146 10 13"/>
      </g>
    </g>
    <g id="cp_3_column-3_1ha3jcb190cy6h-stroke" fill="none" stroke-linecap="round" stroke-linejoin="round" stroke-miterlimit="4" stroke="#43dd93" stroke-width="2">
      <g>
        <path d="M 10 13C 10 14.656854 11.343146 16 13 16C 14.656854 16 16 14.656854 16 13C 16 11.343146 14.656854 10 13 10C 11.343146 10 10 11.343146 10 13"/>
      </g>
    </g>
    <g id="cp_3_column-3_1ha3jcb190cy6h-stroke" fill="none" stroke-linecap="round" stroke-linejoin="round" stroke-miterlimit="4" stroke="#43dd93" stroke-width="2">
      <g>
        <path d="M 13 16L 13 142"/>
      </g>
    </g>
    <g id="cp_3_column-3_1ha3jcb190cy6h-fill" stroke="none" fill="none">
      <g>
        <path d="M 10 145C 10 146.656854 11.343146 148 13 148C 14.656854 148 16 146.656854 16 145C 16 143.343146 14.656854 142 13 142C 11.343146 142 10 143.343146 10 145"/>
      </g>
    </g>
    <g id="cp_3_column-3_1ha3jcb190cy6h-stroke" fill="none" stroke-linecap="round" stroke-linejoin="round" stroke-miterlimit="4" stroke="#43dd93" stroke-width="2">
      <g>
        <path d="M 10 145C 10 146.656854 11.343146 148 13 148C 14.656854 148 16 146.656854 16 145C 16 143.343146 14.656854 142 13 142C 11.343146 142 10 143.343146 10 145"/>
      </g>
    </g>
  </g>
  <g id="g-root-cp_5_column-5_13z9i23190cwln-stroke-fill" data-item-order="-232518" transform="translate(416, 167)">
    <g id="cp_5_column-5_13z9i23190cwln-fill" stroke="none" fill="none">
      <g>
        <path d="M 10 13C 10 14.656854 11.343146 16 13 16C 14.656854 16 16 14.656854 16 13C 16 11.343146 14.656854 10 13 10C 11.343146 10 10 11.343146 10 13"/>
      </g>
    </g>
    <g id="cp_5_column-5_13z9i23190cwln-stroke" fill="none" stroke-linecap="round" stroke-linejoin="round" stroke-miterlimit="4" stroke="#b7b7b7" stroke-width="2">
      <g>
        <path d="M 10 13C 10 14.656854 11.343146 16 13 16C 14.656854 16 16 14.656854 16 13C 16 11.343146 14.656854 10 13 10C 11.343146 10 10 11.343146 10 13"/>
      </g>
    </g>
    <g id="cp_5_column-5_13z9i23190cwln-stroke" fill="none" stroke-linecap="round" stroke-linejoin="round" stroke-miterlimit="4" stroke="#b7b7b7" stroke-width="2">
      <g>
        <path d="M 13 16L 13 94"/>
      </g>
    </g>
    <g id="cp_5_column-5_13z9i23190cwln-fill" stroke="none" fill="none">
      <g>
        <path d="M 10 97C 10 98.656854 11.343146 100 13 100C 14.656854 100 16 98.656854 16 97C 16 95.343146 14.656854 94 13 94C 11.343146 94 10 95.343146 10 97"/>
      </g>
    </g>
    <g id="cp_5_column-5_13z9i23190cwln-stroke" fill="none" stroke-linecap="round" stroke-linejoin="round" stroke-miterlimit="4" stroke="#b7b7b7" stroke-width="2">
      <g>
        <path d="M 10 97C 10 98.656854 11.343146 100 13 100C 14.656854 100 16 98.656854 16 97C 16 95.343146 14.656854 94 13 94C 11.343146 94 10 95.343146 10 97"/>
      </g>
    </g>
  </g>
  <g id="g-root-cp_1_g-1_zjfzxn190cxdx-stroke-fill" data-item-order="-232500" transform="translate(59, 266)">
    <g id="cp_1_g-1_zjfzxn190cxdx-fill" stroke="none" fill="none">
      <g>
        <path d="M 76 10L 10 10L 28 46L 10 82L 76 82L 94 46L 76 10Z"/>
      </g>
    </g>
    <g id="cp_1_g-1_zjfzxn190cxdx-stroke" fill="none" stroke-linecap="round" stroke-linejoin="round" stroke-miterlimit="4" stroke="#fb6762" stroke-width="2">
      <g>
        <path d="M 76 10L 10 10L 28 46L 10 82L 76 82L 94 46L 76 10Z"/>
      </g>
    </g>
  </g>
  <g id="g-root-cp_2_g-2_qnszor190cy6n-stroke-fill" data-item-order="-232492" transform="translate(149, 266)">
    <g id="cp_2_g-2_qnszor190cy6n-fill" stroke="none" fill="none">
      <g>
        <path d="M 76 10L 10 10L 28 46L 10 82L 76 82L 94 46L 76 10Z"/>
      </g>
    </g>
    <g id="cp_2_g-2_qnszor190cy6n-stroke" fill="none" stroke-linecap="round" stroke-linejoin="round" stroke-miterlimit="4" stroke="#4f91fc" stroke-width="2">
      <g>
        <path d="M 76 10L 10 10L 28 46L 10 82L 76 82L 94 46L 76 10Z"/>
      </g>
    </g>
  </g>
  <g id="g-root-cp_3_g-3_m8lynf190cvt5-stroke-fill" data-item-order="-232486" transform="translate(239, 266)">
    <g id="cp_3_g-3_m8lynf190cvt5-fill" stroke="none" fill="none">
      <g>
        <path d="M 76 10L 10 10L 28 46L 10 82L 76 82L 94 46L 76 10Z"/>
      </g>
    </g>
    <g id="cp_3_g-3_m8lynf190cvt5-stroke" fill="none" stroke-linecap="round" stroke-linejoin="round" stroke-miterlimit="4" stroke="#43dd93" stroke-width="2">
      <g>
        <path d="M 76 10L 10 10L 28 46L 10 82L 76 82L 94 46L 76 10Z"/>
      </g>
    </g>
  </g>
  <g id="g-root-cp_4_g-4_8x5ga3190cxe3-stroke-fill" data-item-order="-232480" transform="translate(329, 266)">
    <g id="cp_4_g-4_8x5ga3190cxe3-fill" stroke="none" fill="none">
      <g>
        <path d="M 76 10L 10 10L 28 46L 10 82L 76 82L 94 46L 76 10Z"/>
      </g>
    </g>
    <g id="cp_4_g-4_8x5ga3190cxe3-stroke" fill="none" stroke-linecap="round" stroke-linejoin="round" stroke-miterlimit="4" stroke="#a6da37" stroke-width="2">
      <g>
        <path d="M 76 10L 10 10L 28 46L 10 82L 76 82L 94 46L 76 10Z"/>
      </g>
    </g>
  </g>
  <g id="g-root-cp_5_g-5_4hby5n190cy6d-stroke-fill" data-item-order="-232474" transform="translate(419, 266)">
    <g id="cp_5_g-5_4hby5n190cy6d-fill" stroke="none" fill="none">
      <g>
        <path d="M 76 10L 10 10L 28 46L 10 82L 76 82L 94 46L 76 10Z"/>
      </g>
    </g>
    <g id="cp_5_g-5_4hby5n190cy6d-stroke" fill="none" stroke-linecap="round" stroke-linejoin="round" stroke-miterlimit="4" stroke="#b7b7b7" stroke-width="2">
      <g>
        <path d="M 76 10L 10 10L 28 46L 10 82L 76 82L 94 46L 76 10Z"/>
      </g>
    </g>
  </g>
  <g id="g-root-cp_2_column-2_1umszvv190cyrz-stroke-fill" data-item-order="-232466" transform="translate(146, 347)">
    <g id="cp_2_column-2_1umszvv190cyrz-fill" stroke="none" fill="none">
      <g>
        <path d="M 10 13C 10 14.656854 11.343146 16 13 16C 14.656854 16 16 14.656854 16 13C 16 11.343146 14.656854 10 13 10C 11.343146 10 10 11.343146 10 13"/>
      </g>
    </g>
    <g id="cp_2_column-2_1umszvv190cyrz-stroke" fill="none" stroke-linecap="round" stroke-linejoin="round" stroke-miterlimit="4" stroke="#4f91fc" stroke-width="2">
      <g>
        <path d="M 10 13C 10 14.656854 11.343146 16 13 16C 14.656854 16 16 14.656854 16 13C 16 11.343146 14.656854 10 13 10C 11.343146 10 10 11.343146 10 13"/>
      </g>
    </g>
    <g id="cp_2_column-2_1umszvv190cyrz-stroke" fill="none" stroke-linecap="round" stroke-linejoin="round" stroke-miterlimit="4" stroke="#4f91fc" stroke-width="2">
      <g>
        <path d="M 13 16L 13 94"/>
      </g>
    </g>
    <g id="cp_2_column-2_1umszvv190cyrz-fill" stroke="none" fill="none">
      <g>
        <path d="M 10 97C 10 98.656854 11.343146 100 13 100C 14.656854 100 16 98.656854 16 97C 16 95.343146 14.656854 94 13 94C 11.343146 94 10 95.343146 10 97"/>
      </g>
    </g>
    <g id="cp_2_column-2_1umszvv190cyrz-stroke" fill="none" stroke-linecap="round" stroke-linejoin="round" stroke-miterlimit="4" stroke="#4f91fc" stroke-width="2">
      <g>
        <path d="M 10 97C 10 98.656854 11.343146 100 13 100C 14.656854 100 16 98.656854 16 97C 16 95.343146 14.656854 94 13 94C 11.343146 94 10 95.343146 10 97"/>
      </g>
    </g>
  </g>
  <g id="g-root-cp_4_column-4_1q7lyuj190cweh-stroke-fill" data-item-order="-232450" transform="translate(326, 347)">
    <g id="cp_4_column-4_1q7lyuj190cweh-fill" stroke="none" fill="none">
      <g>
        <path d="M 10 13C 10 14.656854 11.343146 16 13 16C 14.656854 16 16 14.656854 16 13C 16 11.343146 14.656854 10 13 10C 11.343146 10 10 11.343146 10 13"/>
      </g>
    </g>
    <g id="cp_4_column-4_1q7lyuj190cweh-stroke" fill="none" stroke-linecap="round" stroke-linejoin="round" stroke-miterlimit="4" stroke="#a6da37" stroke-width="2">
      <g>
        <path d="M 10 13C 10 14.656854 11.343146 16 13 16C 14.656854 16 16 14.656854 16 13C 16 11.343146 14.656854 10 13 10C 11.343146 10 10 11.343146 10 13"/>
      </g>
    </g>
    <g id="cp_4_column-4_1q7lyuj190cweh-stroke" fill="none" stroke-linecap="round" stroke-linejoin="round" stroke-miterlimit="4" stroke="#a6da37" stroke-width="2">
      <g>
        <path d="M 13 16L 13 94"/>
      </g>
    </g>
    <g id="cp_4_column-4_1q7lyuj190cweh-fill" stroke="none" fill="none">
      <g>
        <path d="M 10 97C 10 98.656854 11.343146 100 13 100C 14.656854 100 16 98.656854 16 97C 16 95.343146 14.656854 94 13 94C 11.343146 94 10 95.343146 10 97"/>
      </g>
    </g>
    <g id="cp_4_column-4_1q7lyuj190cweh-stroke" fill="none" stroke-linecap="round" stroke-linejoin="round" stroke-miterlimit="4" stroke="#a6da37" stroke-width="2">
      <g>
        <path d="M 10 97C 10 98.656854 11.343146 100 13 100C 14.656854 100 16 98.656854 16 97C 16 95.343146 14.656854 94 13 94C 11.343146 94 10 95.343146 10 97"/>
      </g>
    </g>
  </g>
  <g id="g-root-tx_thefalco_1cw5gh7190cxzf-stroke-fill" data-item-order="0" transform="translate(104, 50)">
    <g id="tx_thefalco_1cw5gh7190cxzf-fill" stroke="none" fill="#f4f4f4">
      <g>
        <text style="font: 20px Roboto, sans-serif; white-space: pre;" font-size="20px" font-family="Roboto, sans-serif">
          <tspan x="13.73" y="34" dominant-baseline="ideographic">The Falcon Lake Incident: A Timeline of Events</tspan>
        </text>
      </g>
    </g>
  </g>
  <g id="g-root-tx_may20196_zlbf6z190cwek-stroke-fill" data-item-order="0" transform="translate(71, 170)">
    <g id="tx_may20196_zlbf6z190cwek-fill" stroke="none" fill="#fb6762">
      <g>
        <text style="font: bold 20px Roboto, sans-serif; white-space: pre;" font-weight="bold" font-size="20px" font-family="Roboto, sans-serif">
          <tspan x="12" y="34" dominant-baseline="ideographic">May 20, 1967</tspan>
        </text>
      </g>
    </g>
  </g>
  <g id="g-root-tx_stefanmi_m9uwtn190cxzh-stroke-fill" data-item-order="0" transform="translate(71, 206)">
    <g id="tx_stefanmi_m9uwtn190cxzh-fill" stroke="none" fill="#f4f4f4">
      <g>
        <text style="font: 15px Roboto, sans-serif; white-space: pre;" font-size="15px" font-family="Roboto, sans-serif">
          <tspan x="12" y="28" dominant-baseline="ideographic">Stefan Michalak </tspan>
          <tspan x="12" y="46" dominant-baseline="ideographic">encounters UFO</tspan>
        </text>
      </g>
    </g>
  </g>
  <g id="g-root-tx_septembe_8z0vjf190cwem-stroke-fill" data-item-order="0" transform="translate(251, 122)">
    <g id="tx_septembe_8z0vjf190cwem-fill" stroke="none" fill="#43dd93">
      <g>
        <text style="font: bold 20px Roboto, sans-serif; white-space: pre;" font-weight="bold" font-size="20px" font-family="Roboto, sans-serif">
          <tspan x="12" y="34" dominant-baseline="ideographic">September 21, </tspan>
          <tspan x="12" y="58" dominant-baseline="ideographic">1967</tspan>
        </text>
      </g>
    </g>
  </g>
  <g id="g-root-tx_michalak_4j7dez190cx6v-stroke-fill" data-item-order="0" transform="translate(251, 182)">
    <g id="tx_michalak_4j7dez190cx6v-fill" stroke="none" fill="#f4f4f4">
      <g>
        <text style="font: 15px Roboto, sans-serif; white-space: pre;" font-size="15px" font-family="Roboto, sans-serif">
          <tspan x="12" y="31" dominant-baseline="ideographic">Michalak </tspan>
          <tspan x="12" y="49" dominant-baseline="ideographic">experiences severe </tspan>
          <tspan x="12" y="67" dominant-baseline="ideographic">episode</tspan>
        </text>
      </g>
    </g>
  </g>
  <g id="g-root-tx_1999_1ltnvzf190cw74-stroke-fill" data-item-order="0" transform="translate(431, 170)">
    <g id="tx_1999_1ltnvzf190cw74-fill" stroke="none" fill="#b7b7b7">
      <g>
        <text style="font: bold 20px Roboto, sans-serif; white-space: pre;" font-weight="bold" font-size="20px" font-family="Roboto, sans-serif">
          <tspan x="12" y="34" dominant-baseline="ideographic">1999</tspan>
        </text>
      </g>
    </g>
  </g>
  <g id="g-root-tx_michalak_18i7dm3190cxs1-stroke-fill" data-item-order="0" transform="translate(431, 206)">
    <g id="tx_michalak_18i7dm3190cxs1-fill" stroke="none" fill="#f4f4f4">
      <g>
        <text style="font: 15px Roboto, sans-serif; white-space: pre;" font-size="15px" font-family="Roboto, sans-serif">
          <tspan x="12" y="28" dominant-baseline="ideographic">Michalak passes </tspan>
          <tspan x="12" y="46" dominant-baseline="ideographic">away</tspan>
        </text>
      </g>
    </g>
  </g>
  <g id="g-root-tx_may23196_v7dcbv190cw76-stroke-fill" data-item-order="0" transform="translate(161, 362)">
    <g id="tx_may23196_v7dcbv190cw76-fill" stroke="none" fill="#4f91fc">
      <g>
        <text style="font: bold 20px Roboto, sans-serif; white-space: pre;" font-weight="bold" font-size="20px" font-family="Roboto, sans-serif">
          <tspan x="12" y="34" dominant-baseline="ideographic">May 23, 1967</tspan>
        </text>
      </g>
    </g>
  </g>
  <g id="g-root-tx_rcmpinte_hvwtyj190cxs3-stroke-fill" data-item-order="0" transform="translate(161, 398)">
    <g id="tx_rcmpinte_hvwtyj190cxs3-fill" stroke="none" fill="#f4f4f4">
      <g>
        <text style="font: 15px Roboto, sans-serif; white-space: pre;" font-size="15px" font-family="Roboto, sans-serif">
          <tspan x="12" y="28" dominant-baseline="ideographic">RCMP interviews </tspan>
          <tspan x="12" y="46" dominant-baseline="ideographic">Michalak</tspan>
        </text>
      </g>
    </g>
  </g>
  <g id="g-root-tx_1968_1uqjuej190cwss-stroke-fill" data-item-order="0" transform="translate(341, 362)">
    <g id="tx_1968_1uqjuej190cwss-fill" stroke="none" fill="#a6da37">
      <g>
        <text style="font: bold 20px Roboto, sans-serif; white-space: pre;" font-weight="bold" font-size="20px" font-family="Roboto, sans-serif">
          <tspan x="12" y="34" dominant-baseline="ideographic">1968</tspan>
        </text>
      </g>
    </g>
  </g>
  <g id="g-root-tx_michalak_1hf3c17190cydp-stroke-fill" data-item-order="0" transform="translate(341, 398)">
    <g id="tx_michalak_1hf3c17190cydp-fill" stroke="none" fill="#f4f4f4">
      <g>
        <text style="font: 15px Roboto, sans-serif; white-space: pre;" font-size="15px" font-family="Roboto, sans-serif">
          <tspan x="12" y="28" dominant-baseline="ideographic">Michalak assessed </tspan>
          <tspan x="12" y="46" dominant-baseline="ideographic">at Mayo Clinic</tspan>
        </text>
      </g>
    </g>
    <defs>
      <pattern id="crawlingPattern-0000001b" x="0" y="0" width="12" height="12" patternUnits="userSpaceOnUse" fill="#0000001b">
        <use href="#crawlingSymbol"/>
      </pattern>
      <symbol id="crawlingSymbol">
        <g>
          <path d="M -12.5 12.5 l 13 -13 l 6 0 l -13 13 Z M -0.5 12.5 l 13 -13 l 6 0 l -13 13 Z M 11.5 12.5 l 13 -13 l 6 0 l -13 13 Z"/>
        </g>
      </symbol>
      <pattern id="crawlingPattern-f9080081" x="0" y="0" width="12" height="12" patternUnits="userSpaceOnUse" fill="#f9080081">
        <use href="#crawlingSymbol"/>
      </pattern>
      <pattern id="crawlingPattern-00b15c75" x="0" y="0" width="12" height="12" patternUnits="userSpaceOnUse" fill="#00b15c75">
        <use href="#crawlingSymbol"/>
      </pattern>
      <pattern id="crawlingPattern-00000024" x="0" y="0" width="12" height="12" patternUnits="userSpaceOnUse" fill="#00000024">
        <use href="#crawlingSymbol"/>
      </pattern>
      <pattern id="crawlingPattern-0060fba2" x="0" y="0" width="12" height="12" patternUnits="userSpaceOnUse" fill="#0060fba2">
        <use href="#crawlingSymbol"/>
      </pattern>
      <pattern id="crawlingPattern-5c87005e" x="0" y="0" width="12" height="12" patternUnits="userSpaceOnUse" fill="#5c87005e">
        <use href="#crawlingSymbol"/>
      </pattern>
    </defs>
  </g>
</svg>
