<?xml version='1.0' encoding='utf-8'?>
<svg xmlns="http://www.w3.org/2000/svg" xmlns:xlink="http://www.w3.org/1999/xlink" width="768" height="456" viewBox="0 0 768 456" style="fill:none;stroke:none;fill-rule:evenodd;clip-rule:evenodd;stroke-linecap:round;stroke-linejoin:round;stroke-miterlimit:1.5;" version="1.1">
  <style class="text-font-style fontImports" data-font-family="Roboto">@import url('https://fonts.googleapis.com/css2?family=Roboto:wght@400;700&amp;display=block');</style>
  <rect x="0" y="0" width="768" height="456" fill="#252a34" stroke="none" id="programmatic_background"/>
  <g id="g-root-tf_1q88pej1bs61hm-stroke-fill" data-item-order="-321408" transform="translate(12, 12)"/>
  <g id="g-root-cp_-1_lines_1heh1971bsha1a-stroke-fill" data-item-order="-233847" transform="translate(374, 158)">
    <g id="cp_-1_lines_1heh1971bsha1a-stroke" fill="none" stroke-linecap="round" stroke-linejoin="round" stroke-miterlimit="4" stroke="#f4f4f4" stroke-width="2">
      <g>
        <path d="M 10 10L 10 34M 10 58L 10 82M 10 106L 10 130M 10 154L 10 178"/>
      </g>
    </g>
  </g>
  <g id="g-root-cp_1_g-1_1cynj4r1bshatk-stroke-fill" data-item-order="-233844" transform="translate(362, 134)">
    <g id="cp_1_g-1_1cynj4r1bshatk-fill" stroke="none" fill="none">
      <g>
        <path d="M 16 22C 16 25.313709 18.686292 28 22 28C 25.313709 28 28 25.313709 28 22C 28 18.686292 25.313709 16 22 16C 18.686292 16 16 18.686292 16 22"/>
      </g>
    </g>
    <g id="cp_1_g-1_1cynj4r1bshatk-stroke" fill="none" stroke-linecap="round" stroke-linejoin="round" stroke-miterlimit="4" stroke="#fb6762" stroke-width="2">
      <g>
        <path d="M 16 22C 16 25.313709 18.686292 28 22 28C 25.313709 28 28 25.313709 28 22C 28 18.686292 25.313709 16 22 16C 18.686292 16 16 18.686292 16 22"/>
      </g>
    </g>
    <g id="cp_1_g-1_1cynj4r1bshatk-stroke" fill="none" stroke-linecap="round" stroke-linejoin="round" stroke-miterlimit="4" stroke="#fb6762" stroke-width="2">
      <g>
        <path d="M 10 22C 10 28.627417 15.372583 34 22 34C 28.627417 34 34 28.627417 34 22C 34 15.372583 28.627417 10 22 10C 15.372583 10 10 15.372583 10 22M 34 22L 70 22"/>
      </g>
    </g>
  </g>
  <g id="g-root-cp_2_g-2_18iu10b1bshblu-stroke-fill" data-item-order="-233836" transform="translate(326, 182)">
    <g id="cp_2_g-2_18iu10b1bshblu-fill" stroke="none" fill="none">
      <g>
        <path d="M 52 22C 52 25.3137 54.6863 28 58 28C 61.3137 28 64 25.3137 64 22C 64 18.6863 61.3137 16 58 16C 54.6863 16 52 18.6863 52 22Z"/>
      </g>
    </g>
    <g id="cp_2_g-2_18iu10b1bshblu-stroke" fill="none" stroke-linecap="round" stroke-linejoin="round" stroke-miterlimit="4" stroke="#4f91fc" stroke-width="2">
      <g>
        <path d="M 52 22C 52 25.3137 54.6863 28 58 28C 61.3137 28 64 25.3137 64 22C 64 18.6863 61.3137 16 58 16C 54.6863 16 52 18.6863 52 22ZM 46 22C 46 28.6274 51.3726 34 58 34C 64.6274 34 70 28.6274 70 22C 70 15.3726 64.6274 10 58 10C 51.3726 10 46 15.3726 46 22ZM 46 22L 10 22"/>
      </g>
    </g>
  </g>
  <g id="g-root-cp_3_g-3_v7zzq31bsha10-stroke-fill" data-item-order="-233828" transform="translate(362, 230)">
    <g id="cp_3_g-3_v7zzq31bsha10-fill" stroke="none" fill="none">
      <g>
        <path d="M 16 22C 16 25.313709 18.686292 28 22 28C 25.313709 28 28 25.313709 28 22C 28 18.686292 25.313709 16 22 16C 18.686292 16 16 18.686292 16 22"/>
      </g>
    </g>
    <g id="cp_3_g-3_v7zzq31bsha10-stroke" fill="none" stroke-linecap="round" stroke-linejoin="round" stroke-miterlimit="4" stroke="#43dd93" stroke-width="2">
      <g>
        <path d="M 16 22C 16 25.313709 18.686292 28 22 28C 25.313709 28 28 25.313709 28 22C 28 18.686292 25.313709 16 22 16C 18.686292 16 16 18.686292 16 22"/>
      </g>
    </g>
    <g id="cp_3_g-3_v7zzq31bsha10-stroke" fill="none" stroke-linecap="round" stroke-linejoin="round" stroke-miterlimit="4" stroke="#43dd93" stroke-width="2">
      <g>
        <path d="M 10 22C 10 28.627417 15.372583 34 22 34C 28.627417 34 34 28.627417 34 22C 34 15.372583 28.627417 10 22 10C 15.372583 10 10 15.372583 10 22M 34 22L 70 22"/>
      </g>
    </g>
  </g>
  <g id="g-root-cp_4_g-4_hwjhcr1bshbly-stroke-fill" data-item-order="-233820" transform="translate(326, 278)">
    <g id="cp_4_g-4_hwjhcr1bshbly-fill" stroke="none" fill="none">
      <g>
        <path d="M 52 22C 52 25.3137 54.6863 28 58 28C 61.3137 28 64 25.3137 64 22C 64 18.6863 61.3137 16 58 16C 54.6863 16 52 18.6863 52 22Z"/>
      </g>
    </g>
    <g id="cp_4_g-4_hwjhcr1bshbly-stroke" fill="none" stroke-linecap="round" stroke-linejoin="round" stroke-miterlimit="4" stroke="#a6da37" stroke-width="2">
      <g>
        <path d="M 52 22C 52 25.3137 54.6863 28 58 28C 61.3137 28 64 25.3137 64 22C 64 18.6863 61.3137 16 58 16C 54.6863 16 52 18.6863 52 22ZM 46 22C 46 28.6274 51.3726 34 58 34C 64.6274 34 70 28.6274 70 22C 70 15.3726 64.6274 10 58 10C 51.3726 10 46 15.3726 46 22ZM 46 22L 10 22"/>
      </g>
    </g>
  </g>
  <g id="g-root-cp_5_g-5_dhcgbf1bsh98g-stroke-fill" data-item-order="-233812" transform="translate(362, 326)">
    <g id="cp_5_g-5_dhcgbf1bsh98g-fill" stroke="none" fill="none">
      <g>
        <path d="M 16 22C 16 25.313709 18.686292 28 22 28C 25.313709 28 28 25.313709 28 22C 28 18.686292 25.313709 16 22 16C 18.686292 16 16 18.686292 16 22"/>
      </g>
    </g>
    <g id="cp_5_g-5_dhcgbf1bsh98g-stroke" fill="none" stroke-linecap="round" stroke-linejoin="round" stroke-miterlimit="4" stroke="#b7b7b7" stroke-width="2">
      <g>
        <path d="M 16 22C 16 25.313709 18.686292 28 22 28C 25.313709 28 28 25.313709 28 22C 28 18.686292 25.313709 16 22 16C 18.686292 16 16 18.686292 16 22"/>
      </g>
    </g>
    <g id="cp_5_g-5_dhcgbf1bsh98g-stroke" fill="none" stroke-linecap="round" stroke-linejoin="round" stroke-miterlimit="4" stroke="#b7b7b7" stroke-width="2">
      <g>
        <path d="M 10 22C 10 28.627417 15.372583 34 22 34C 28.627417 34 34 28.627417 34 22C 34 15.372583 28.627417 10 22 10C 15.372583 10 10 15.372583 10 22M 34 22L 70 22"/>
      </g>
    </g>
  </g>
  <g id="g-root-tx_thefalco_4lpg2j1bsha16-stroke-fill" data-item-order="0" transform="translate(164, 50)">
    <g id="tx_thefalco_4lpg2j1bsha16-fill" stroke="none" fill="#f4f4f4">
      <g>
        <text style="font: 20px Roboto, sans-serif; white-space: pre;" font-size="20px" font-family="Roboto, sans-serif">
          <tspan x="13.73" y="34" dominant-baseline="ideographic">The Falcon Lake Incident: A Timeline of Events</tspan>
        </text>
      </g>
    </g>
  </g>
  <g id="g-root-tx_may20196_1lw5ymz1bsh91f-stroke-fill" data-item-order="0" transform="translate(494, 122)">
    <g id="tx_may20196_1lw5ymz1bsh91f-fill" stroke="none" fill="#fb6762">
      <g>
        <text style="font: bold 20px Roboto, sans-serif; white-space: pre;" font-weight="bold" font-size="20px" font-family="Roboto, sans-serif">
          <tspan x="12" y="34" dominant-baseline="ideographic">May 20, 1967</tspan>
        </text>
      </g>
    </g>
  </g>
  <g id="g-root-tx_stefanmi_1d0iye31bsh9u4-stroke-fill" data-item-order="0" transform="translate(494, 158)">
    <g id="tx_stefanmi_1d0iye31bsh9u4-fill" stroke="none" fill="#f4f4f4">
      <g>
        <text style="font: 15px Roboto, sans-serif; white-space: pre;" font-size="15px" font-family="Roboto, sans-serif">
          <tspan x="12" y="31" dominant-baseline="ideographic">Stefan Michalak encounters UFO</tspan>
        </text>
      </g>
    </g>
  </g>
  <g id="g-root-ic_ufo_v9vezf1bsh91h-stroke-fill" data-item-order="0" transform="translate(434, 122)">
    <g id="ic_ufo_v9vezf1bsh91h-stroke" fill="none" stroke-linecap="round" stroke-linejoin="round" stroke-miterlimit="4" stroke="#fb6762" stroke-width="2">
      <g>
        <path d="M 49 22.5C 52.977859 22.499041 56.352161 25.420879 56.919998 29.358C 56.961449 29.646814 56.874687 29.939325 56.682472 30.158836C 56.490257 30.378345 56.211758 30.502958 55.919998 30.5L 12.07 30.5C 11.778242 30.502958 11.499743 30.378345 11.307528 30.158836C 11.115312 29.939325 11.028553 29.646814 11.07 29.358C 11.638377 25.417118 15.018346 22.494064 19 22.5ZM 19 22.5C 19 17.5 25.716 11.5 34 11.5C 42.284 11.5 49 17.5 49 22.5M 47.77 39.5L 52.995998 56.5M 14.996 56.5L 20.232 39.5M 34.996002 49.5L 31.996 53.652M 37.996002 53.5L 34.996002 49.5M 31.996 46.5L 37.996002 46.5M 35 41.5C 35.552284 41.5 36 41.947716 36 42.5M 34 42.5C 34 41.947716 34.447716 41.5 35 41.5M 35 43.5C 34.447716 43.5 34 43.052284 34 42.5M 36 42.5C 36 43.052284 35.552284 43.5 35 43.5M 34.996002 49.5L 34.996002 46.5M 25 30.5C 25 33.261421 22.761425 35.5 20 35.5C 17.238577 35.5 15 33.261421 15 30.5M 39 30.5C 39 33.261421 36.761425 35.5 34 35.5C 31.238577 35.5 29 33.261421 29 30.5M 53 30.5C 53 33.261421 50.761425 35.5 48 35.5C 45.238575 35.5 43 33.261421 43 30.5"/>
      </g>
    </g>
  </g>
  <g id="g-root-tx_may23196_1lynuzf1bsipzi-stroke-fill" data-item-order="0" transform="translate(122, 170)">
    <g id="tx_may23196_1lynuzf1bsipzi-fill" stroke="none" fill="#4f91fc">
      <g>
        <text style="font: bold 20px Roboto, sans-serif; white-space: pre;" font-weight="bold" font-size="20px" font-family="Roboto, sans-serif">
          <tspan x="18.14" y="34" dominant-baseline="ideographic">May 23, 1967</tspan>
        </text>
      </g>
    </g>
  </g>
  <g id="g-root-tx_rcmpinte_18nttp71bsioen-stroke-fill" data-item-order="0" transform="translate(62, 206)">
    <g id="tx_rcmpinte_18nttp71bsioen-fill" stroke="none" fill="#f4f4f4">
      <g>
        <text style="font: 15px Roboto, sans-serif; white-space: pre;" font-size="15px" font-family="Roboto, sans-serif">
          <tspan x="22.67" y="31" dominant-baseline="ideographic">RCMP interviews Michalak</tspan>
        </text>
      </g>
    </g>
  </g>
  <g id="g-root-ic_1_qn6s2j1brxl3c-stroke-fill" data-item-order="0" transform="translate(266, 170)">
    <g id="ic_1_qn6s2j1brxl3c-stroke" fill="none" stroke-linecap="round" stroke-linejoin="round" stroke-miterlimit="4" stroke="#4f91fc" stroke-width="2">
      <g>
        <path d="M 13 11L 55 11C 55 11 57 11 57 13L 57 55C 57 55 57 57 55 57L 13 57C 13 57 11 57 11 55L 11 13C 11 13 11 11 13 11M 17 49L 17 33L 21 41L 25 33L 25 49M 37 37C 37 39.209137 35.209137 41 33 41L 29 41L 29 33L 33 33C 35.209137 33 37 34.790863 37 37ZM 29 49L 29 41M 51 49L 51 33C 45.477154 33 41 37.477154 41 43L 41 45L 51 45"/>
      </g>
    </g>
  </g>
  <g id="g-root-tx_septembe_18f39nf1brz1ft-stroke-fill" data-item-order="0" transform="translate(494, 218)">
    <g id="tx_septembe_18f39nf1brz1ft-fill" stroke="none" fill="#43dd93">
      <g>
        <text style="font: bold 20px Roboto, sans-serif; white-space: pre;" font-weight="bold" font-size="20px" font-family="Roboto, sans-serif">
          <tspan x="12" y="34" dominant-baseline="ideographic">September 21, 1967</tspan>
        </text>
      </g>
    </g>
  </g>
  <g id="g-root-tx_michalak_v498d71bryzuy-stroke-fill" data-item-order="0" transform="translate(494, 254)">
    <g id="tx_michalak_v498d71bryzuy-fill" stroke="none" fill="#f4f4f4">
      <g>
        <text style="font: 15px Roboto, sans-serif; white-space: pre;" font-size="15px" font-family="Roboto, sans-serif">
          <tspan x="12" y="28" dominant-baseline="ideographic">Michalak experiences severe </tspan>
          <tspan x="12" y="46" dominant-baseline="ideographic">episode</tspan>
        </text>
      </g>
    </g>
  </g>
  <g id="g-root-ic_zeus_hsspzv1brz1fv-stroke-fill" data-item-order="0" transform="translate(434, 218)">
    <g id="ic_zeus_hsspzv1brz1fv-stroke" fill="none" stroke-linecap="round" stroke-linejoin="round" stroke-miterlimit="4" stroke="#43dd93" stroke-width="2">
      <g>
        <path d="M 43.613998 38.084L 56.490002 26.688L 51.206001 25.17L 52.476002 15.746L 40.746002 29.364L 45.787998 30.292L 43.613998 38.084ZM 29.743999 19.908001C 29.743315 22.751781 27.437782 25.056759 24.594 25.056759C 21.750217 25.056759 19.444685 22.751781 19.444 19.908001M 37.057999 26.469999C 36.563404 24.918686 35.222668 23.788704 33.610001 23.563999C 33.862679 22.075119 33.690063 20.545155 33.112 19.150002C 32.609413 17.811808 31.655096 16.69125 30.414 15.982C 30.148319 12.896902 27.566517 10.527882 24.469999 10.527882C 21.373482 10.527882 18.791679 12.896902 18.526001 15.982C 16.911404 16.690548 15.744421 18.142742 15.4 19.872C 15.014426 21.33503 15.04769 22.876961 15.496 24.322001C 13.93032 24.721767 12.747313 26.006689 12.478 27.6M 31.316 30.952L 30.572001 42.826M 19.369999 38.972L 17.237999 46.200001C 16.942369 47.722954 15.497731 48.741348 13.964 48.507999L 13.964 48.507999C 13.139061 48.381683 12.409002 47.904915 11.96167 47.200378C 11.514338 46.495838 11.393409 45.632317 11.63 44.832001L 14.6 34.762001C 16.345592 30.435457 20.735289 27.778343 25.378 28.237999C 29.863605 28.759306 33.530769 32.056786 34.524002 36.461998C 34.97065 38.240742 36.264847 39.685303 37.984001 40.323997L 42.695999 42.102001C 43.545681 42.686695 44.045238 43.658764 44.026001 44.690002C 43.929657 45.549854 43.448177 46.319477 42.717094 46.782234C 41.986015 47.244995 41.084385 47.350849 40.265999 47.07C 36.517998 46.335999 32.548 45.703999 30.572001 42.826L 30.524 57.462002M 17.922001 43.875999L 17.524 57.462002M 28.308001 28.98C 23.584 39.702 18.658001 42.098 18.346001 42.439999M 26.882 16.6C 26 19.568001 21.688 19.945999 19.444 19.908001M 17.782 48.672001C 17.782 48.672001 24.76 45.948002 26.882 41.472"/>
      </g>
    </g>
  </g>
  <g id="g-root-tx_1968_hs68wr1bs1vd8-stroke-fill" data-item-order="0" transform="translate(194, 266)">
    <g id="tx_1968_hs68wr1bs1vd8-fill" stroke="none" fill="#a6da37">
      <g>
        <text style="font: bold 20px Roboto, sans-serif; white-space: pre;" font-weight="bold" font-size="20px" font-family="Roboto, sans-serif">
          <tspan x="22.09" y="34" dominant-baseline="ideographic">1968</tspan>
        </text>
      </g>
    </g>
  </g>
  <g id="g-root-tx_michalak_4hc7mj1bs1tsd-stroke-fill" data-item-order="0" transform="translate(62, 302)">
    <g id="tx_michalak_4hc7mj1bs1tsd-fill" stroke="none" fill="#f4f4f4">
      <g>
        <text style="font: 15px Roboto, sans-serif; white-space: pre;" font-size="15px" font-family="Roboto, sans-serif">
          <tspan x="19.92" y="31" dominant-baseline="ideographic">Michalak visits Mayo Clinic</tspan>
        </text>
      </g>
    </g>
  </g>
  <g id="g-root-ic_cros_1ipi31bs1ukm-stroke-fill" data-item-order="0" transform="translate(266, 266)">
    <g id="ic_cros_1ipi31bs1ukm-stroke" fill="none" stroke-linecap="round" stroke-linejoin="round" stroke-miterlimit="4" stroke="#a6da37" stroke-width="2">
      <g>
        <path d="M 50.596401 12.28742L 44.4664 12.28742L 44.4664 17.493721L 39.260201 17.493721L 39.260201 23.62372L 44.4664 23.62372L 44.4664 28.8298L 50.596401 28.8298L 50.596401 23.62372L 55.802601 23.62372L 55.802601 17.493721L 50.596401 17.493721L 50.596401 12.28742ZM 12.19776 13.00518L 12.19776 55.712601L 54.905201 55.712601M 10 10M 18.480461 43.222599L 26.382959 49.553799L 39.027 34.359001L 49.233601 43.222599M 26.338381 16.414L 19.772739 16.414M 29.786619 22.979439L 19.773121 22.979439"/>
      </g>
    </g>
  </g>
  <g id="g-root-tx_1999_1d0j1jv1bs39jj-stroke-fill" data-item-order="0" transform="translate(494, 314)">
    <g id="tx_1999_1d0j1jv1bs39jj-fill" stroke="none" fill="#b7b7b7">
      <g>
        <text style="font: bold 20px Roboto, sans-serif; white-space: pre;" font-weight="bold" font-size="20px" font-family="Roboto, sans-serif">
          <tspan x="12" y="34" dominant-baseline="ideographic">1999</tspan>
        </text>
      </g>
    </g>
  </g>
  <g id="g-root-tx_michalak_145iie31bs37y8-stroke-fill" data-item-order="0" transform="translate(494, 350)">
    <g id="tx_michalak_145iie31bs37y8-fill" stroke="none" fill="#f4f4f4">
      <g>
        <text style="font: 15px Roboto, sans-serif; white-space: pre;" font-size="15px" font-family="Roboto, sans-serif">
          <tspan x="12" y="31" dominant-baseline="ideographic">Michalak passes away</tspan>
        </text>
      </g>
    </g>
    <defs>
      <pattern id="crawlingPattern-0000001b" x="0" y="0" width="12" height="12" patternUnits="userSpaceOnUse" fill="#0000001b">
        <use href="#crawlingSymbol"/>
      </pattern>
      <symbol id="crawlingSymbol">
        <g>
          <path d="M -12.5 12.5 l 13 -13 l 6 0 l -13 13 Z M -0.5 12.5 l 13 -13 l 6 0 l -13 13 Z M 11.5 12.5 l 13 -13 l 6 0 l -13 13 Z"/>
        </g>
      </symbol>
      <pattern id="crawlingPattern-f9080081" x="0" y="0" width="12" height="12" patternUnits="userSpaceOnUse" fill="#f9080081">
        <use href="#crawlingSymbol"/>
      </pattern>
      <pattern id="crawlingPattern-0060fba2" x="0" y="0" width="12" height="12" patternUnits="userSpaceOnUse" fill="#0060fba2">
        <use href="#crawlingSymbol"/>
      </pattern>
      <pattern id="crawlingPattern-00b15c75" x="0" y="0" width="12" height="12" patternUnits="userSpaceOnUse" fill="#00b15c75">
        <use href="#crawlingSymbol"/>
      </pattern>
      <pattern id="crawlingPattern-5c87005e" x="0" y="0" width="12" height="12" patternUnits="userSpaceOnUse" fill="#5c87005e">
        <use href="#crawlingSymbol"/>
      </pattern>
      <pattern id="crawlingPattern-00000024" x="0" y="0" width="12" height="12" patternUnits="userSpaceOnUse" fill="#00000024">
        <use href="#crawlingSymbol"/>
      </pattern>
    </defs>
  </g>
  <g id="g-root-ic_reap_qu200r1bs39j5-stroke-fill" data-item-order="0" transform="translate(434, 314)">
    <g id="ic_reap_qu200r1bs39j5-stroke" fill="none" stroke-linecap="round" stroke-linejoin="round" stroke-miterlimit="4" stroke="#b7b7b7" stroke-width="2">
      <g>
        <path d="M 45.869999 40.875999L 53.846001 57M 31.238001 12.018L 42.889999 35M 33.048 15.586L 33.048 15.586C 36.601555 11.714842 42.006447 10.12956 47.088001 11.468L 47.487999 11.572001C 47.907478 11.682272 48.208046 12.050383 48.232204 12.483438C 48.256367 12.916493 47.998608 13.315753 47.594002 13.472C 40.837997 16.087999 40.337997 17.146 36.666 22.720001M 47.846001 37.799999C 47.846001 36.253601 46.592396 35 45.046001 35L 35.846001 35C 34.741432 35 33.846001 34.104568 33.846001 33L 33.846001 29C 33.846001 24.029438 29.816563 20 24.846001 20C 19.875439 20 15.846001 24.029438 15.846001 29L 15.846001 43C 15.846001 53.917999 10.488 57 18.846001 57C 22.094 57 21.586 55 24.834 55L 24.858 55C 28.104 55 27.598 57 30.846001 57C 36.529999 57 35.792 54.799999 35.220001 52.799999C 34.308945 49.613029 33.846497 46.314636 33.846001 43C 33.846001 41.895432 34.741432 41 35.846001 41L 45.046001 41C 46.592396 41 47.846001 39.746399 47.846001 38.200001ZM 24.846001 36.641998C 22.084576 36.641998 19.846001 34.403423 19.846001 31.642L 19.846001 28.282C 19.846001 25.521999 22.084 24.924 24.846001 24.924C 27.608 24.924 29.846001 25.524 29.846001 28.282L 29.846001 31.642C 29.846001 34.403423 27.607424 36.641998 24.846001 36.641998Z"/>
      </g>
    </g>
  </g>
</svg>
