<svg width="1008" height="576" viewBox="0 0 1008 576" style="fill:none;stroke:none;fill-rule:evenodd;clip-rule:evenodd;stroke-linecap:round;stroke-linejoin:round;stroke-miterlimit:1.5;" version="1.1" xmlns="http://www.w3.org/2000/svg" xmlns:xlink="http://www.w3.org/1999/xlink"><style class="text-font-style fontImports" data-font-family="Roboto">@import url('https://fonts.googleapis.com/css2?family=Roboto:wght@400;700&amp;display=block');</style><g id="g-root-tf_1lpvziz1c2baiq-stroke-fill" data-item-order="-543168" transform="translate(12, 12)"><g id="tf_1lpvziz1c2baiq-fill" stroke="none" fill="#2c2c2c"><g><path d="M 0 0L 984 0L 984 552L 0 552Z"></path></g></g><defs><pattern id="crawlingPattern-f908001a" x="0" y="0" width="12" height="12" patternUnits="userSpaceOnUse" fill="#f908001a"><use href="#crawlingSymbol"></use></pattern><symbol id="crawlingSymbol"><g><animateTransform attributeName="transform" type="translate" from="0 0" to="-12 0" dur="0.4s" repeatCount="indefinite"></animateTransform><path d="M -12.5 12.5 l 13 -13 l 6 0 l -13 13 Z M -0.5 12.5 l 13 -13 l 6 0 l -13 13 Z M 11.5 12.5 l 13 -13 l 6 0 l -13 13 Z"></path></g></symbol><pattern id="crawlingPattern-0060fb20" x="0" y="0" width="12" height="12" patternUnits="userSpaceOnUse" fill="#0060fb20"><use href="#crawlingSymbol"></use></pattern><pattern id="crawlingPattern-00d16d21" x="0" y="0" width="12" height="12" patternUnits="userSpaceOnUse" fill="#00d16d21"><use href="#crawlingSymbol"></use></pattern><pattern id="crawlingPattern-8ed00028" x="0" y="0" width="12" height="12" patternUnits="userSpaceOnUse" fill="#8ed00028"><use href="#crawlingSymbol"></use></pattern><pattern id="crawlingPattern-8484841a" x="0" y="0" width="12" height="12" patternUnits="userSpaceOnUse" fill="#8484841a"><use href="#crawlingSymbol"></use></pattern><pattern id="crawlingPattern-0000001b" x="0" y="0" width="12" height="12" patternUnits="userSpaceOnUse" fill="#0000001b"><use href="#crawlingSymbol"></use></pattern><pattern id="crawlingPattern-0060fba2" x="0" y="0" width="12" height="12" patternUnits="userSpaceOnUse" fill="#0060fba2"><use href="#crawlingSymbol"></use></pattern><pattern id="crawlingPattern-0059ff37" x="0" y="0" width="12" height="12" patternUnits="userSpaceOnUse" fill="#0059ff37"><use href="#crawlingSymbol"></use></pattern><pattern id="crawlingPattern-5c87005e" x="0" y="0" width="12" height="12" patternUnits="userSpaceOnUse" fill="#5c87005e"><use href="#crawlingSymbol"></use></pattern><pattern id="crawlingPattern-acff003c" x="0" y="0" width="12" height="12" patternUnits="userSpaceOnUse" fill="#acff003c"><use href="#crawlingSymbol"></use></pattern><pattern id="crawlingPattern-f9080081" x="0" y="0" width="12" height="12" patternUnits="userSpaceOnUse" fill="#f9080081"><use href="#crawlingSymbol"></use></pattern><pattern id="crawlingPattern-ff0b0038" x="0" y="0" width="12" height="12" patternUnits="userSpaceOnUse" fill="#ff0b0038"><use href="#crawlingSymbol"></use></pattern><pattern id="crawlingPattern-00b15c75" x="0" y="0" width="12" height="12" patternUnits="userSpaceOnUse" fill="#00b15c75"><use href="#crawlingSymbol"></use></pattern><pattern id="crawlingPattern-00ff873a" x="0" y="0" width="12" height="12" patternUnits="userSpaceOnUse" fill="#00ff873a"><use href="#crawlingSymbol"></use></pattern><pattern id="crawlingPattern-00000024" x="0" y="0" width="12" height="12" patternUnits="userSpaceOnUse" fill="#00000024"><use href="#crawlingSymbol"></use></pattern><pattern id="crawlingPattern-5f5f5f1a" x="0" y="0" width="12" height="12" patternUnits="userSpaceOnUse" fill="#5f5f5f1a"><use href="#crawlingSymbol"></use></pattern></defs><g id="tf_1lpvziz1c2baiq-fill-overlay" stroke="none" fill="url(#crawlingPattern-5f5f5f1a)"><g><path d="M 0 0L 984 0L 984 552L 0 552Z"></path></g></g></g><g id="g-root-cp_0_g-0_13ynafv1bsha80-stroke-fill" data-item-order="-426779" transform="translate(50.131011962890625, 248.5)"><g id="cp_0_g-0_13ynafv1bsha80-stroke" fill="none" stroke-linecap="round" stroke-linejoin="round" stroke-miterlimit="4" stroke="#f4f4f4" stroke-width="2"><g><path d="M 826 51L 898 51M 646 51L 802 51M 814 10L 814 39.5M 106 51L 262 51M 286 51L 442 51M 274 63.5L 274 93M 454 10L 454 39.5M 466 51L 622 51M 634 63.5L 634 93M 10 51L 82 51M 94 10L 94 39.5"></path></g></g><g id="cp_0_g-0_13ynafv1bsha80-stroke-overlay" fill="none" stroke-linecap="round" stroke-linejoin="round" stroke-miterlimit="4" stroke="#3131311a" stroke-width="2" stroke-dasharray="4,6"><animate attributeName="stroke-dashoffset" values="30;0" dur="1s" repeatCount="indefinite" begin="0"></animate><g><path d="M 826 51L 898 51M 646 51L 802 51M 814 10L 814 39.5M 106 51L 262 51M 286 51L 442 51M 274 63.5L 274 93M 454 10L 454 39.5M 466 51L 622 51M 634 63.5L 634 93M 10 51L 82 51M 94 10L 94 39.5"></path></g></g></g><g id="g-root-cp_1_g-1_v30a6z1bshb0q-stroke-fill" data-item-order="-426756" transform="translate(89.13101196289062, 125)"><g id="cp_1_g-1_v30a6z1bshb0q-fill" stroke="none" fill="#fb6762"><g><path d="M 100 55C 100 66.244 94.5 77.5875 89 86L 55.816 132.848C 55.4175 133.411 54.5825 133.411 54.184 132.848L 21 86C 14.5 77 10 66.7284 10 55C 10 30.1472 30.1472 10 55 10C 79.8528 10 100 30.1472 100 55ZM 55 91C 74.8822 91 91 74.8822 91 55C 91 35.1177 74.8822 19 55 19C 35.1177 19 19 35.1177 19 55C 19 74.8822 35.1177 91 55 91Z"></path></g></g><g id="cp_1_g-1_v30a6z1bshb0q-fill-overlay" stroke="none" fill="url(#crawlingPattern-f908001a)"><g><path d="M 100 55C 100 66.244 94.5 77.5875 89 86L 55.816 132.848C 55.4175 133.411 54.5825 133.411 54.184 132.848L 21 86C 14.5 77 10 66.7284 10 55C 10 30.1472 30.1472 10 55 10C 79.8528 10 100 30.1472 100 55ZM 55 91C 74.8822 91 91 74.8822 91 55C 91 35.1177 74.8822 19 55 19C 35.1177 19 19 35.1177 19 55C 19 74.8822 35.1177 91 55 91Z"></path></g></g><g id="cp_1_g-1_v30a6z1bshb0q-stroke" fill="none" stroke-linecap="round" stroke-linejoin="round" stroke-miterlimit="4" stroke="#2c2c2c" stroke-width="2"><g><path d="M 100 55C 100 66.244 94.5 77.5875 89 86L 55.816 132.848C 55.4175 133.4106 54.5825 133.4106 54.184 132.848L 21 86C 14.5 77 10 66.7284 10 55C 10 30.1472 30.1472 10 55 10C 79.8528 10 100 30.1472 100 55ZM 55 91C 74.8822 91 91 74.8822 91 55C 91 35.1177 74.8822 19 55 19C 35.1177 19 19 35.1177 19 55C 19 74.8822 35.1177 91 55 91Z"></path></g></g><g id="cp_1_g-1_v30a6z1bshb0q-stroke-overlay" fill="none" stroke-linecap="round" stroke-linejoin="round" stroke-miterlimit="4" stroke="#ffffff29" stroke-width="2" stroke-dasharray="4,6"><animate attributeName="stroke-dashoffset" values="30;0" dur="1s" repeatCount="indefinite" begin="0"></animate><g><path d="M 100 55C 100 66.244 94.5 77.5875 89 86L 55.816 132.848C 55.4175 133.4106 54.5825 133.4106 54.184 132.848L 21 86C 14.5 77 10 66.7284 10 55C 10 30.1472 30.1472 10 55 10C 79.8528 10 100 30.1472 100 55ZM 55 91C 74.8822 91 91 74.8822 91 55C 91 35.1177 74.8822 19 55 19C 35.1177 19 19 35.1177 19 55C 19 74.8822 35.1177 91 55 91Z"></path></g></g><g id="cp_1_g-1_v30a6z1bshb0q-fill" stroke="none" fill="#fb6762"><g><path d="M 55 187C 61.6274 187 67 181.6274 67 175C 67 168.3726 61.6274 163 55 163C 48.3726 163 43 168.3726 43 175C 43 181.6274 48.3726 187 55 187ZM 55 181C 58.3137 181 61 178.3137 61 175C 61 171.6863 58.3137 169 55 169C 51.6863 169 49 171.6863 49 175C 49 178.3137 51.6863 181 55 181Z"></path></g></g><g id="cp_1_g-1_v30a6z1bshb0q-fill-overlay" stroke="none" fill="url(#crawlingPattern-f908001a)"><g><path d="M 55 187C 61.6274 187 67 181.6274 67 175C 67 168.3726 61.6274 163 55 163C 48.3726 163 43 168.3726 43 175C 43 181.6274 48.3726 187 55 187ZM 55 181C 58.3137 181 61 178.3137 61 175C 61 171.6863 58.3137 169 55 169C 51.6863 169 49 171.6863 49 175C 49 178.3137 51.6863 181 55 181Z"></path></g></g><g id="cp_1_g-1_v30a6z1bshb0q-stroke" fill="none" stroke-linecap="round" stroke-linejoin="round" stroke-miterlimit="4" stroke="#2c2c2c" stroke-width="2"><g><path d="M 55 187C 61.6274 187 67 181.6274 67 175C 67 168.3726 61.6274 163 55 163C 48.3726 163 43 168.3726 43 175C 43 181.6274 48.3726 187 55 187ZM 55 181C 58.3137 181 61 178.3137 61 175C 61 171.6863 58.3137 169 55 169C 51.6863 169 49 171.6863 49 175C 49 178.3137 51.6863 181 55 181Z"></path></g></g><g id="cp_1_g-1_v30a6z1bshb0q-stroke-overlay" fill="none" stroke-linecap="round" stroke-linejoin="round" stroke-miterlimit="4" stroke="#ffffff29" stroke-width="2" stroke-dasharray="4,6"><animate attributeName="stroke-dashoffset" values="30;0" dur="1s" repeatCount="indefinite" begin="0"></animate><g><path d="M 55 187C 61.6274 187 67 181.6274 67 175C 67 168.3726 61.6274 163 55 163C 48.3726 163 43 168.3726 43 175C 43 181.6274 48.3726 187 55 187ZM 55 181C 58.3137 181 61 178.3137 61 175C 61 171.6863 58.3137 169 55 169C 51.6863 169 49 171.6863 49 175C 49 178.3137 51.6863 181 55 181Z"></path></g></g></g><g id="g-root-cp_2_g-2_qn6s2j1bshbt1-stroke-fill" data-item-order="-426752" transform="translate(269.1309814453125, 278)"><g id="cp_2_g-2_qn6s2j1bshbt1-fill" stroke="none" fill="#4f91fc"><g><path d="M 100 142.000369C 100 130.756469 94.5 119.412869 89 111.000369L 55.816 64.152469C 55.4175 63.589769 54.5825 63.589769 54.184 64.152469L 21 111.000369C 14.5 120.000369 10 130.271969 10 142.000369C 10 166.853469 30.1472 187.000469 55 187.000469C 79.8528 187.000469 100 166.853469 100 142.000369ZM 55 106.000369C 74.8822 106.000369 91 122.118169 91 142.000369C 91 161.882669 74.8822 178.000469 55 178.000469C 35.1177 178.000469 19 161.882669 19 142.000369C 19 122.118169 35.1177 106.000369 55 106.000369Z"></path></g></g><g id="cp_2_g-2_qn6s2j1bshbt1-fill-overlay" stroke="none" fill="url(#crawlingPattern-0060fb20)"><g><path d="M 100 142.000369C 100 130.756469 94.5 119.412869 89 111.000369L 55.816 64.152469C 55.4175 63.589769 54.5825 63.589769 54.184 64.152469L 21 111.000369C 14.5 120.000369 10 130.271969 10 142.000369C 10 166.853469 30.1472 187.000469 55 187.000469C 79.8528 187.000469 100 166.853469 100 142.000369ZM 55 106.000369C 74.8822 106.000369 91 122.118169 91 142.000369C 91 161.882669 74.8822 178.000469 55 178.000469C 35.1177 178.000469 19 161.882669 19 142.000369C 19 122.118169 35.1177 106.000369 55 106.000369Z"></path></g></g><g id="cp_2_g-2_qn6s2j1bshbt1-stroke" fill="none" stroke-linecap="round" stroke-linejoin="round" stroke-miterlimit="4" stroke="#2c2c2c" stroke-width="2"><g><path d="M 100 142.000369C 100 130.756469 94.5 119.412869 89 111.000369L 55.816 64.152469C 55.4175 63.589769 54.5825 63.589769 54.184 64.152469L 21 111.000369C 14.5 120.000369 10 130.271969 10 142.000369C 10 166.853269 30.1472 187.000369 55 187.000369C 79.8528 187.000369 100 166.853269 100 142.000369ZM 55 106.000369C 74.8822 106.000369 91 122.118169 91 142.000369C 91 161.882669 74.8822 178.000369 55 178.000369C 35.1177 178.000369 19 161.882669 19 142.000369C 19 122.118169 35.1177 106.000369 55 106.000369Z"></path></g></g><g id="cp_2_g-2_qn6s2j1bshbt1-stroke-overlay" fill="none" stroke-linecap="round" stroke-linejoin="round" stroke-miterlimit="4" stroke="#ffffff29" stroke-width="2" stroke-dasharray="4,6"><animate attributeName="stroke-dashoffset" values="30;0" dur="1s" repeatCount="indefinite" begin="0"></animate><g><path d="M 100 142.000369C 100 130.756469 94.5 119.412869 89 111.000369L 55.816 64.152469C 55.4175 63.589769 54.5825 63.589769 54.184 64.152469L 21 111.000369C 14.5 120.000369 10 130.271969 10 142.000369C 10 166.853269 30.1472 187.000369 55 187.000369C 79.8528 187.000369 100 166.853269 100 142.000369ZM 55 106.000369C 74.8822 106.000369 91 122.118169 91 142.000369C 91 161.882669 74.8822 178.000369 55 178.000369C 35.1177 178.000369 19 161.882669 19 142.000369C 19 122.118169 35.1177 106.000369 55 106.000369Z"></path></g></g><g id="cp_2_g-2_qn6s2j1bshbt1-fill" stroke="none" fill="#4f91fc"><g><path d="M 55 34C 61.6274 34 67 28.6274 67 22C 67 15.3726 61.6274 10 55 10C 48.3726 10 43 15.3726 43 22C 43 28.6274 48.3726 34 55 34ZM 55 28C 58.3137 28 61 25.3137 61 22C 61 18.6863 58.3137 16 55 16C 51.6863 16 49 18.6863 49 22C 49 25.3137 51.6863 28 55 28Z"></path></g></g><g id="cp_2_g-2_qn6s2j1bshbt1-fill-overlay" stroke="none" fill="url(#crawlingPattern-0060fb20)"><g><path d="M 55 34C 61.6274 34 67 28.6274 67 22C 67 15.3726 61.6274 10 55 10C 48.3726 10 43 15.3726 43 22C 43 28.6274 48.3726 34 55 34ZM 55 28C 58.3137 28 61 25.3137 61 22C 61 18.6863 58.3137 16 55 16C 51.6863 16 49 18.6863 49 22C 49 25.3137 51.6863 28 55 28Z"></path></g></g><g id="cp_2_g-2_qn6s2j1bshbt1-stroke" fill="none" stroke-linecap="round" stroke-linejoin="round" stroke-miterlimit="4" stroke="#2c2c2c" stroke-width="2"><g><path d="M 55 34C 61.6274 34 67 28.6274 67 22C 67 15.3726 61.6274 10 55 10C 48.3726 10 43 15.3726 43 22C 43 28.6274 48.3726 34 55 34ZM 55 28C 58.3137 28 61 25.3137 61 22C 61 18.6863 58.3137 16 55 16C 51.6863 16 49 18.6863 49 22C 49 25.3137 51.6863 28 55 28Z"></path></g></g><g id="cp_2_g-2_qn6s2j1bshbt1-stroke-overlay" fill="none" stroke-linecap="round" stroke-linejoin="round" stroke-miterlimit="4" stroke="#ffffff29" stroke-width="2" stroke-dasharray="4,6"><animate attributeName="stroke-dashoffset" values="30;0" dur="1s" repeatCount="indefinite" begin="0"></animate><g><path d="M 55 34C 61.6274 34 67 28.6274 67 22C 67 15.3726 61.6274 10 55 10C 48.3726 10 43 15.3726 43 22C 43 28.6274 48.3726 34 55 34ZM 55 28C 58.3137 28 61 25.3137 61 22C 61 18.6863 58.3137 16 55 16C 51.6863 16 49 18.6863 49 22C 49 25.3137 51.6863 28 55 28Z"></path></g></g></g><g id="g-root-cp_3_g-3_m7zr171bsh9fk-stroke-fill" data-item-order="-426746" transform="translate(449.1310119628906, 125)"><g id="cp_3_g-3_m7zr171bsh9fk-fill" stroke="none" fill="#43dd93"><g><path d="M 100 55C 100 66.244 94.5 77.5875 89 86L 55.816 132.848C 55.4175 133.411 54.5825 133.411 54.184 132.848L 21 86C 14.5 77 10 66.7284 10 55C 10 30.1472 30.1472 10 55 10C 79.8528 10 100 30.1472 100 55ZM 55 91C 74.8822 91 91 74.8822 91 55C 91 35.1177 74.8822 19 55 19C 35.1177 19 19 35.1177 19 55C 19 74.8822 35.1177 91 55 91Z"></path></g></g><g id="cp_3_g-3_m7zr171bsh9fk-fill-overlay" stroke="none" fill="url(#crawlingPattern-00d16d21)"><g><path d="M 100 55C 100 66.244 94.5 77.5875 89 86L 55.816 132.848C 55.4175 133.411 54.5825 133.411 54.184 132.848L 21 86C 14.5 77 10 66.7284 10 55C 10 30.1472 30.1472 10 55 10C 79.8528 10 100 30.1472 100 55ZM 55 91C 74.8822 91 91 74.8822 91 55C 91 35.1177 74.8822 19 55 19C 35.1177 19 19 35.1177 19 55C 19 74.8822 35.1177 91 55 91Z"></path></g></g><g id="cp_3_g-3_m7zr171bsh9fk-stroke" fill="none" stroke-linecap="round" stroke-linejoin="round" stroke-miterlimit="4" stroke="#2c2c2c" stroke-width="2"><g><path d="M 100 55C 100 66.244 94.5 77.5875 89 86L 55.816 132.848C 55.4175 133.4106 54.5825 133.4106 54.184 132.848L 21 86C 14.5 77 10 66.7284 10 55C 10 30.1472 30.1472 10 55 10C 79.8528 10 100 30.1472 100 55ZM 55 91C 74.8822 91 91 74.8822 91 55C 91 35.1177 74.8822 19 55 19C 35.1177 19 19 35.1177 19 55C 19 74.8822 35.1177 91 55 91Z"></path></g></g><g id="cp_3_g-3_m7zr171bsh9fk-stroke-overlay" fill="none" stroke-linecap="round" stroke-linejoin="round" stroke-miterlimit="4" stroke="#ffffff29" stroke-width="2" stroke-dasharray="4,6"><animate attributeName="stroke-dashoffset" values="30;0" dur="1s" repeatCount="indefinite" begin="0"></animate><g><path d="M 100 55C 100 66.244 94.5 77.5875 89 86L 55.816 132.848C 55.4175 133.4106 54.5825 133.4106 54.184 132.848L 21 86C 14.5 77 10 66.7284 10 55C 10 30.1472 30.1472 10 55 10C 79.8528 10 100 30.1472 100 55ZM 55 91C 74.8822 91 91 74.8822 91 55C 91 35.1177 74.8822 19 55 19C 35.1177 19 19 35.1177 19 55C 19 74.8822 35.1177 91 55 91Z"></path></g></g><g id="cp_3_g-3_m7zr171bsh9fk-fill" stroke="none" fill="#43dd93"><g><path d="M 55 187C 61.6274 187 67 181.6274 67 175C 67 168.3726 61.6274 163 55 163C 48.3726 163 43 168.3726 43 175C 43 181.6274 48.3726 187 55 187ZM 55 181C 58.3137 181 61 178.3137 61 175C 61 171.6863 58.3137 169 55 169C 51.6863 169 49 171.6863 49 175C 49 178.3137 51.6863 181 55 181Z"></path></g></g><g id="cp_3_g-3_m7zr171bsh9fk-fill-overlay" stroke="none" fill="url(#crawlingPattern-00d16d21)"><g><path d="M 55 187C 61.6274 187 67 181.6274 67 175C 67 168.3726 61.6274 163 55 163C 48.3726 163 43 168.3726 43 175C 43 181.6274 48.3726 187 55 187ZM 55 181C 58.3137 181 61 178.3137 61 175C 61 171.6863 58.3137 169 55 169C 51.6863 169 49 171.6863 49 175C 49 178.3137 51.6863 181 55 181Z"></path></g></g><g id="cp_3_g-3_m7zr171bsh9fk-stroke" fill="none" stroke-linecap="round" stroke-linejoin="round" stroke-miterlimit="4" stroke="#2c2c2c" stroke-width="2"><g><path d="M 55 187C 61.6274 187 67 181.6274 67 175C 67 168.3726 61.6274 163 55 163C 48.3726 163 43 168.3726 43 175C 43 181.6274 48.3726 187 55 187ZM 55 181C 58.3137 181 61 178.3137 61 175C 61 171.6863 58.3137 169 55 169C 51.6863 169 49 171.6863 49 175C 49 178.3137 51.6863 181 55 181Z"></path></g></g><g id="cp_3_g-3_m7zr171bsh9fk-stroke-overlay" fill="none" stroke-linecap="round" stroke-linejoin="round" stroke-miterlimit="4" stroke="#ffffff29" stroke-width="2" stroke-dasharray="4,6"><animate attributeName="stroke-dashoffset" values="30;0" dur="1s" repeatCount="indefinite" begin="0"></animate><g><path d="M 55 187C 61.6274 187 67 181.6274 67 175C 67 168.3726 61.6274 163 55 163C 48.3726 163 43 168.3726 43 175C 43 181.6274 48.3726 187 55 187ZM 55 181C 58.3137 181 61 178.3137 61 175C 61 171.6863 58.3137 169 55 169C 51.6863 169 49 171.6863 49 175C 49 178.3137 51.6863 181 55 181Z"></path></g></g></g><g id="g-root-cp_4_g-4_8wj8nv1bshb0j-stroke-fill" data-item-order="-426740" transform="translate(629.1309814453125, 278)"><g id="cp_4_g-4_8wj8nv1bshb0j-fill" stroke="none" fill="#a6da37"><g><path d="M 100 142.000369C 100 130.756469 94.5 119.412869 89 111.000369L 55.816 64.152469C 55.4175 63.589769 54.5825 63.589769 54.184 64.152469L 21 111.000369C 14.5 120.000369 10 130.271969 10 142.000369C 10 166.853469 30.1472 187.000469 55 187.000469C 79.8528 187.000469 100 166.853469 100 142.000369ZM 55 106.000369C 74.8822 106.000369 91 122.118169 91 142.000369C 91 161.882669 74.8822 178.000469 55 178.000469C 35.1177 178.000469 19 161.882669 19 142.000369C 19 122.118169 35.1177 106.000369 55 106.000369Z"></path></g></g><g id="cp_4_g-4_8wj8nv1bshb0j-fill-overlay" stroke="none" fill="url(#crawlingPattern-8ed00028)"><g><path d="M 100 142.000369C 100 130.756469 94.5 119.412869 89 111.000369L 55.816 64.152469C 55.4175 63.589769 54.5825 63.589769 54.184 64.152469L 21 111.000369C 14.5 120.000369 10 130.271969 10 142.000369C 10 166.853469 30.1472 187.000469 55 187.000469C 79.8528 187.000469 100 166.853469 100 142.000369ZM 55 106.000369C 74.8822 106.000369 91 122.118169 91 142.000369C 91 161.882669 74.8822 178.000469 55 178.000469C 35.1177 178.000469 19 161.882669 19 142.000369C 19 122.118169 35.1177 106.000369 55 106.000369Z"></path></g></g><g id="cp_4_g-4_8wj8nv1bshb0j-stroke" fill="none" stroke-linecap="round" stroke-linejoin="round" stroke-miterlimit="4" stroke="#2c2c2c" stroke-width="2"><g><path d="M 100 142.000369C 100 130.756469 94.5 119.412869 89 111.000369L 55.816 64.152469C 55.4175 63.589769 54.5825 63.589769 54.184 64.152469L 21 111.000369C 14.5 120.000369 10 130.271969 10 142.000369C 10 166.853269 30.1472 187.000369 55 187.000369C 79.8528 187.000369 100 166.853269 100 142.000369ZM 55 106.000369C 74.8822 106.000369 91 122.118169 91 142.000369C 91 161.882669 74.8822 178.000369 55 178.000369C 35.1177 178.000369 19 161.882669 19 142.000369C 19 122.118169 35.1177 106.000369 55 106.000369Z"></path></g></g><g id="cp_4_g-4_8wj8nv1bshb0j-stroke-overlay" fill="none" stroke-linecap="round" stroke-linejoin="round" stroke-miterlimit="4" stroke="#ffffff29" stroke-width="2" stroke-dasharray="4,6"><animate attributeName="stroke-dashoffset" values="30;0" dur="1s" repeatCount="indefinite" begin="0"></animate><g><path d="M 100 142.000369C 100 130.756469 94.5 119.412869 89 111.000369L 55.816 64.152469C 55.4175 63.589769 54.5825 63.589769 54.184 64.152469L 21 111.000369C 14.5 120.000369 10 130.271969 10 142.000369C 10 166.853269 30.1472 187.000369 55 187.000369C 79.8528 187.000369 100 166.853269 100 142.000369ZM 55 106.000369C 74.8822 106.000369 91 122.118169 91 142.000369C 91 161.882669 74.8822 178.000369 55 178.000369C 35.1177 178.000369 19 161.882669 19 142.000369C 19 122.118169 35.1177 106.000369 55 106.000369Z"></path></g></g><g id="cp_4_g-4_8wj8nv1bshb0j-fill" stroke="none" fill="#a6da37"><g><path d="M 55 34C 61.6274 34 67 28.6274 67 22C 67 15.3726 61.6274 10 55 10C 48.3726 10 43 15.3726 43 22C 43 28.6274 48.3726 34 55 34ZM 55 28C 58.3137 28 61 25.3137 61 22C 61 18.6863 58.3137 16 55 16C 51.6863 16 49 18.6863 49 22C 49 25.3137 51.6863 28 55 28Z"></path></g></g><g id="cp_4_g-4_8wj8nv1bshb0j-fill-overlay" stroke="none" fill="url(#crawlingPattern-8ed00028)"><g><path d="M 55 34C 61.6274 34 67 28.6274 67 22C 67 15.3726 61.6274 10 55 10C 48.3726 10 43 15.3726 43 22C 43 28.6274 48.3726 34 55 34ZM 55 28C 58.3137 28 61 25.3137 61 22C 61 18.6863 58.3137 16 55 16C 51.6863 16 49 18.6863 49 22C 49 25.3137 51.6863 28 55 28Z"></path></g></g><g id="cp_4_g-4_8wj8nv1bshb0j-stroke" fill="none" stroke-linecap="round" stroke-linejoin="round" stroke-miterlimit="4" stroke="#2c2c2c" stroke-width="2"><g><path d="M 55 34C 61.6274 34 67 28.6274 67 22C 67 15.3726 61.6274 10 55 10C 48.3726 10 43 15.3726 43 22C 43 28.6274 48.3726 34 55 34ZM 55 28C 58.3137 28 61 25.3137 61 22C 61 18.6863 58.3137 16 55 16C 51.6863 16 49 18.6863 49 22C 49 25.3137 51.6863 28 55 28Z"></path></g></g><g id="cp_4_g-4_8wj8nv1bshb0j-stroke-overlay" fill="none" stroke-linecap="round" stroke-linejoin="round" stroke-miterlimit="4" stroke="#ffffff29" stroke-width="2" stroke-dasharray="4,6"><animate attributeName="stroke-dashoffset" values="30;0" dur="1s" repeatCount="indefinite" begin="0"></animate><g><path d="M 55 34C 61.6274 34 67 28.6274 67 22C 67 15.3726 61.6274 10 55 10C 48.3726 10 43 15.3726 43 22C 43 28.6274 48.3726 34 55 34ZM 55 28C 58.3137 28 61 25.3137 61 22C 61 18.6863 58.3137 16 55 16C 51.6863 16 49 18.6863 49 22C 49 25.3137 51.6863 28 55 28Z"></path></g></g></g><g id="g-root-cp_5_g-5_1umt9cr1bsh98m-stroke-fill" data-item-order="-426734" transform="translate(809.1309814453125, 125)"><g id="cp_5_g-5_1umt9cr1bsh98m-fill" stroke="none" fill="#b7b7b7"><g><path d="M 100 55C 100 66.244 94.5 77.5875 89 86L 55.816 132.848C 55.4175 133.411 54.5825 133.411 54.184 132.848L 21 86C 14.5 77 10 66.7284 10 55C 10 30.1472 30.1472 10 55 10C 79.8528 10 100 30.1472 100 55ZM 55 91C 74.8822 91 91 74.8822 91 55C 91 35.1177 74.8822 19 55 19C 35.1177 19 19 35.1177 19 55C 19 74.8822 35.1177 91 55 91Z"></path></g></g><g id="cp_5_g-5_1umt9cr1bsh98m-fill-overlay" stroke="none" fill="url(#crawlingPattern-8484841a)"><g><path d="M 100 55C 100 66.244 94.5 77.5875 89 86L 55.816 132.848C 55.4175 133.411 54.5825 133.411 54.184 132.848L 21 86C 14.5 77 10 66.7284 10 55C 10 30.1472 30.1472 10 55 10C 79.8528 10 100 30.1472 100 55ZM 55 91C 74.8822 91 91 74.8822 91 55C 91 35.1177 74.8822 19 55 19C 35.1177 19 19 35.1177 19 55C 19 74.8822 35.1177 91 55 91Z"></path></g></g><g id="cp_5_g-5_1umt9cr1bsh98m-stroke" fill="none" stroke-linecap="round" stroke-linejoin="round" stroke-miterlimit="4" stroke="#2c2c2c" stroke-width="2"><g><path d="M 100 55C 100 66.244 94.5 77.5875 89 86L 55.816 132.848C 55.4175 133.4106 54.5825 133.4106 54.184 132.848L 21 86C 14.5 77 10 66.7284 10 55C 10 30.1472 30.1472 10 55 10C 79.8528 10 100 30.1472 100 55ZM 55 91C 74.8822 91 91 74.8822 91 55C 91 35.1177 74.8822 19 55 19C 35.1177 19 19 35.1177 19 55C 19 74.8822 35.1177 91 55 91Z"></path></g></g><g id="cp_5_g-5_1umt9cr1bsh98m-stroke-overlay" fill="none" stroke-linecap="round" stroke-linejoin="round" stroke-miterlimit="4" stroke="#ffffff29" stroke-width="2" stroke-dasharray="4,6"><animate attributeName="stroke-dashoffset" values="30;0" dur="1s" repeatCount="indefinite" begin="0"></animate><g><path d="M 100 55C 100 66.244 94.5 77.5875 89 86L 55.816 132.848C 55.4175 133.4106 54.5825 133.4106 54.184 132.848L 21 86C 14.5 77 10 66.7284 10 55C 10 30.1472 30.1472 10 55 10C 79.8528 10 100 30.1472 100 55ZM 55 91C 74.8822 91 91 74.8822 91 55C 91 35.1177 74.8822 19 55 19C 35.1177 19 19 35.1177 19 55C 19 74.8822 35.1177 91 55 91Z"></path></g></g><g id="cp_5_g-5_1umt9cr1bsh98m-fill" stroke="none" fill="#b7b7b7"><g><path d="M 55 187C 61.6274 187 67 181.6274 67 175C 67 168.3726 61.6274 163 55 163C 48.3726 163 43 168.3726 43 175C 43 181.6274 48.3726 187 55 187ZM 55 181C 58.3137 181 61 178.3137 61 175C 61 171.6863 58.3137 169 55 169C 51.6863 169 49 171.6863 49 175C 49 178.3137 51.6863 181 55 181Z"></path></g></g><g id="cp_5_g-5_1umt9cr1bsh98m-fill-overlay" stroke="none" fill="url(#crawlingPattern-8484841a)"><g><path d="M 55 187C 61.6274 187 67 181.6274 67 175C 67 168.3726 61.6274 163 55 163C 48.3726 163 43 168.3726 43 175C 43 181.6274 48.3726 187 55 187ZM 55 181C 58.3137 181 61 178.3137 61 175C 61 171.6863 58.3137 169 55 169C 51.6863 169 49 171.6863 49 175C 49 178.3137 51.6863 181 55 181Z"></path></g></g><g id="cp_5_g-5_1umt9cr1bsh98m-stroke" fill="none" stroke-linecap="round" stroke-linejoin="round" stroke-miterlimit="4" stroke="#2c2c2c" stroke-width="2"><g><path d="M 55 187C 61.6274 187 67 181.6274 67 175C 67 168.3726 61.6274 163 55 163C 48.3726 163 43 168.3726 43 175C 43 181.6274 48.3726 187 55 187ZM 55 181C 58.3137 181 61 178.3137 61 175C 61 171.6863 58.3137 169 55 169C 51.6863 169 49 171.6863 49 175C 49 178.3137 51.6863 181 55 181Z"></path></g></g><g id="cp_5_g-5_1umt9cr1bsh98m-stroke-overlay" fill="none" stroke-linecap="round" stroke-linejoin="round" stroke-miterlimit="4" stroke="#ffffff29" stroke-width="2" stroke-dasharray="4,6"><animate attributeName="stroke-dashoffset" values="30;0" dur="1s" repeatCount="indefinite" begin="0"></animate><g><path d="M 55 187C 61.6274 187 67 181.6274 67 175C 67 168.3726 61.6274 163 55 163C 48.3726 163 43 168.3726 43 175C 43 181.6274 48.3726 187 55 187ZM 55 181C 58.3137 181 61 178.3137 61 175C 61 171.6863 58.3137 169 55 169C 51.6863 169 49 171.6863 49 175C 49 178.3137 51.6863 181 55 181Z"></path></g></g></g><g id="g-root-ic_1_1cvj8uz1bshblu-stroke-fill" data-item-order="-2304" transform="translate(290.1310119628906, 386.0000305175781)"><g id="ic_1_1cvj8uz1bshblu-fill" stroke="none" fill="#4f91fc"><g><path d="M 32.999985 34.239983L 30.759987 34.239983C 30.472797 34.239983 30.239985 34.472794 30.239985 34.759983L 30.239986 39.239979C 30.239985 39.527164 30.472797 39.759979 30.759985 39.759979L 32.999985 39.759979C 34.524288 39.759979 35.759983 38.524288 35.759983 36.999981C 35.759983 35.475677 34.524288 34.239983 32.999985 34.239983ZM 49.139973 34.439983C 45.116993 35.321842 42.247654 38.881485 42.239975 42.999977L 42.239979 43.239979C 42.239975 43.527164 42.472786 43.759975 42.759975 43.759975L 49.239975 43.759975C 49.527161 43.759975 49.759972 43.527164 49.759972 43.239975L 49.759972 34.959984C 49.755959 34.805267 49.685749 34.65971 49.567165 34.560253C 49.448586 34.4608 49.293026 34.417004 49.139973 34.439983ZM 54.999969 10L 12.999998 10C 11.343144 10 10 11.343144 10 12.999998L 10 54.999969C 10 56.656826 11.343144 57.999969 12.999998 57.999969L 54.999969 57.999969C 56.656826 57.999969 57.999969 56.656826 57.999969 54.999969L 57.999969 12.999998C 57.999969 11.343144 56.656826 10 54.999969 10ZM 26.239988 48.999973C 26.239988 49.684807 25.684824 50.239975 24.99999 50.239975C 24.315159 50.239975 23.759991 49.684807 23.759991 48.999973L 23.759991 39.11998C 23.759991 38.879982 23.419991 38.95998 23.339991 39.11998L 22.119991 41.539982C 21.903893 41.959274 21.471697 42.222744 20.999992 42.222744C 20.528288 42.222744 20.096092 41.959274 19.879993 41.539982C 19.879993 41.539982 18.739994 39.319981 18.659994 39.099979C 18.579994 38.879982 18.239994 38.839981 18.239994 39.099979L 18.239994 48.999973C 18.239994 49.684807 17.684828 50.239975 16.999996 50.239975C 16.315163 50.239975 15.759996 49.684807 15.759996 48.999973L 15.759996 32.999985C 15.754363 32.418533 16.153526 31.911261 16.719995 31.779987C 17.282713 31.653658 17.859371 31.925508 18.119995 32.439987L 20.559994 37.319981C 20.647276 37.481693 20.816229 37.582497 20.999992 37.582497C 21.183756 37.582497 21.352711 37.481693 21.439993 37.319981L 23.879992 32.439987C 24.140615 31.925508 24.717272 31.653658 25.279989 31.779987C 25.846458 31.911261 26.245623 32.418533 26.239988 32.999985ZM 32.799984 42.259975L 30.799986 42.259975C 30.52043 42.259769 30.290737 42.480625 30.279985 42.759975L 30.279987 48.999973C 30.279987 49.684807 29.724819 50.239975 29.039988 50.239975C 28.355156 50.239975 27.79999 49.684807 27.79999 48.999973L 27.799988 32.999985C 27.794525 32.669472 27.923412 32.350887 28.157152 32.117149C 28.390892 31.883408 28.709475 31.754522 29.039986 31.759987L 33.039986 31.759987C 34.597256 31.772961 36.068069 32.47794 37.053593 33.683758C 38.03912 34.88958 38.437233 36.471287 38.13998 37.999981C 37.605423 40.512833 35.368797 42.297108 32.799988 42.259979ZM 52.239975 48.999973C 52.239975 49.684807 51.684807 50.239975 50.999973 50.239975C 50.31514 50.239975 49.759975 49.684807 49.759975 48.999973L 49.759972 46.759975C 49.759972 46.472786 49.527161 46.239975 49.239971 46.239975L 40.999981 46.239979C 40.669468 46.245441 40.350883 46.116554 40.117142 45.882813C 39.883404 45.649075 39.754517 45.33049 39.759979 44.999977L 39.759979 42.999977C 39.770882 36.812416 44.772488 31.792948 50.959972 31.759987C 51.295715 31.749151 51.62149 31.874992 51.862759 32.108723C 52.104031 32.342453 52.24015 32.66407 52.239975 32.999985Z"></path></g></g><g id="ic_1_1cvj8uz1bshblu-fill-overlay" stroke="none" fill="url(#crawlingPattern-0060fb20)"><g><path d="M 32.999985 34.239983L 30.759987 34.239983C 30.472797 34.239983 30.239985 34.472794 30.239985 34.759983L 30.239986 39.239979C 30.239985 39.527164 30.472797 39.759979 30.759985 39.759979L 32.999985 39.759979C 34.524288 39.759979 35.759983 38.524288 35.759983 36.999981C 35.759983 35.475677 34.524288 34.239983 32.999985 34.239983ZM 49.139973 34.439983C 45.116993 35.321842 42.247654 38.881485 42.239975 42.999977L 42.239979 43.239979C 42.239975 43.527164 42.472786 43.759975 42.759975 43.759975L 49.239975 43.759975C 49.527161 43.759975 49.759972 43.527164 49.759972 43.239975L 49.759972 34.959984C 49.755959 34.805267 49.685749 34.65971 49.567165 34.560253C 49.448586 34.4608 49.293026 34.417004 49.139973 34.439983ZM 54.999969 10L 12.999998 10C 11.343144 10 10 11.343144 10 12.999998L 10 54.999969C 10 56.656826 11.343144 57.999969 12.999998 57.999969L 54.999969 57.999969C 56.656826 57.999969 57.999969 56.656826 57.999969 54.999969L 57.999969 12.999998C 57.999969 11.343144 56.656826 10 54.999969 10ZM 26.239988 48.999973C 26.239988 49.684807 25.684824 50.239975 24.99999 50.239975C 24.315159 50.239975 23.759991 49.684807 23.759991 48.999973L 23.759991 39.11998C 23.759991 38.879982 23.419991 38.95998 23.339991 39.11998L 22.119991 41.539982C 21.903893 41.959274 21.471697 42.222744 20.999992 42.222744C 20.528288 42.222744 20.096092 41.959274 19.879993 41.539982C 19.879993 41.539982 18.739994 39.319981 18.659994 39.099979C 18.579994 38.879982 18.239994 38.839981 18.239994 39.099979L 18.239994 48.999973C 18.239994 49.684807 17.684828 50.239975 16.999996 50.239975C 16.315163 50.239975 15.759996 49.684807 15.759996 48.999973L 15.759996 32.999985C 15.754363 32.418533 16.153526 31.911261 16.719995 31.779987C 17.282713 31.653658 17.859371 31.925508 18.119995 32.439987L 20.559994 37.319981C 20.647276 37.481693 20.816229 37.582497 20.999992 37.582497C 21.183756 37.582497 21.352711 37.481693 21.439993 37.319981L 23.879992 32.439987C 24.140615 31.925508 24.717272 31.653658 25.279989 31.779987C 25.846458 31.911261 26.245623 32.418533 26.239988 32.999985ZM 32.799984 42.259975L 30.799986 42.259975C 30.52043 42.259769 30.290737 42.480625 30.279985 42.759975L 30.279987 48.999973C 30.279987 49.684807 29.724819 50.239975 29.039988 50.239975C 28.355156 50.239975 27.79999 49.684807 27.79999 48.999973L 27.799988 32.999985C 27.794525 32.669472 27.923412 32.350887 28.157152 32.117149C 28.390892 31.883408 28.709475 31.754522 29.039986 31.759987L 33.039986 31.759987C 34.597256 31.772961 36.068069 32.47794 37.053593 33.683758C 38.03912 34.88958 38.437233 36.471287 38.13998 37.999981C 37.605423 40.512833 35.368797 42.297108 32.799988 42.259979ZM 52.239975 48.999973C 52.239975 49.684807 51.684807 50.239975 50.999973 50.239975C 50.31514 50.239975 49.759975 49.684807 49.759975 48.999973L 49.759972 46.759975C 49.759972 46.472786 49.527161 46.239975 49.239971 46.239975L 40.999981 46.239979C 40.669468 46.245441 40.350883 46.116554 40.117142 45.882813C 39.883404 45.649075 39.754517 45.33049 39.759979 44.999977L 39.759979 42.999977C 39.770882 36.812416 44.772488 31.792948 50.959972 31.759987C 51.295715 31.749151 51.62149 31.874992 51.862759 32.108723C 52.104031 32.342453 52.24015 32.66407 52.239975 32.999985Z"></path></g></g></g><g id="g-root-ic_cros_qvay6z1bsips5-stroke-fill" data-item-order="-2304" transform="translate(650.1309814453125, 386)"><g id="ic_cros_qvay6z1bsips5-fill" stroke="none" fill="#a6da37"><g><path d="M 46.216 10L 51.127998 10C 51.680286 10 52.127998 10.447715 52.127998 11L 52.127998 15.87L 57 15.87C 57.552284 15.87 58 16.317715 58 16.869999L 58 21.784C 58 22.336285 57.552284 22.784 57 22.784L 52.127998 22.784L 52.127998 27.653999C 52.127998 28.206285 51.680286 28.653999 51.127998 28.653999L 46.216 28.653999C 45.663715 28.653999 45.216 28.206285 45.216 27.653999L 45.216 22.784L 40.346001 22.784C 39.793716 22.784 39.346001 22.336285 39.346001 21.784L 39.346001 16.869999C 39.346001 16.317715 39.793716 15.87 40.346001 15.87L 45.216 15.87L 45.216 11C 45.216 10.447715 45.663715 10 46.216 10ZM 12.196 11.006001C 13.30057 11.006001 14.196 11.90143 14.196 13.006001L 14.196 53.712002L 54.905998 53.712002C 56.010571 53.712002 56.905998 54.60743 56.905998 55.712002C 56.905998 56.81657 56.010571 57.712002 54.905998 57.712002L 12.198 57.712002C 11.093431 57.712002 10.198 56.81657 10.198 55.712002L 10.198 13.006001C 10.198 11.90143 11.093431 11.006001 12.198 11.006001ZM 38.865997 32.365997C 39.401489 32.322433 39.931992 32.496143 40.337997 32.848L 50.546001 41.711998C 51.379951 42.4366 51.468597 43.70005 50.743999 44.534C 50.019405 45.36795 48.755951 45.4566 47.922001 44.732002L 39.257999 37.208L 27.92 50.834C 27.222265 51.671524 25.982346 51.796051 25.132 51.113998L 17.23 44.784C 16.660826 44.341118 16.374168 43.626102 16.479771 42.912693C 16.585375 42.199284 17.066881 41.597977 17.739952 41.338982C 18.413025 41.079979 19.173409 41.203407 19.73 41.662003L 26.101999 46.765999L 37.489998 33.080002C 37.834026 32.666691 38.329994 32.409332 38.865997 32.365997ZM 26.337999 18.414C 27.44257 18.414 28.337999 17.51857 28.337999 16.414C 28.337999 15.309431 27.44257 14.414 26.337999 14.414L 19.771999 14.414C 18.667431 14.414 17.771999 15.309431 17.771999 16.414C 17.771999 17.51857 18.667431 18.414 19.771999 18.414L 26.34 18.414ZM 31.785999 22.98C 31.785999 24.08457 30.89057 24.98 29.785999 24.98L 19.774 24.98C 18.66943 24.98 17.774 24.08457 17.774 22.98C 17.774 21.875431 18.66943 20.98 19.774 20.98L 29.785999 20.98C 30.89057 20.98 31.785999 21.875431 31.785999 22.98Z"></path></g></g><g id="ic_cros_qvay6z1bsips5-fill-overlay" stroke="none" fill="url(#crawlingPattern-8ed00028)"><g><path d="M 46.216 10L 51.127998 10C 51.680286 10 52.127998 10.447715 52.127998 11L 52.127998 15.87L 57 15.87C 57.552284 15.87 58 16.317715 58 16.869999L 58 21.784C 58 22.336285 57.552284 22.784 57 22.784L 52.127998 22.784L 52.127998 27.653999C 52.127998 28.206285 51.680286 28.653999 51.127998 28.653999L 46.216 28.653999C 45.663715 28.653999 45.216 28.206285 45.216 27.653999L 45.216 22.784L 40.346001 22.784C 39.793716 22.784 39.346001 22.336285 39.346001 21.784L 39.346001 16.869999C 39.346001 16.317715 39.793716 15.87 40.346001 15.87L 45.216 15.87L 45.216 11C 45.216 10.447715 45.663715 10 46.216 10ZM 12.196 11.006001C 13.30057 11.006001 14.196 11.90143 14.196 13.006001L 14.196 53.712002L 54.905998 53.712002C 56.010571 53.712002 56.905998 54.60743 56.905998 55.712002C 56.905998 56.81657 56.010571 57.712002 54.905998 57.712002L 12.198 57.712002C 11.093431 57.712002 10.198 56.81657 10.198 55.712002L 10.198 13.006001C 10.198 11.90143 11.093431 11.006001 12.198 11.006001ZM 38.865997 32.365997C 39.401489 32.322433 39.931992 32.496143 40.337997 32.848L 50.546001 41.711998C 51.379951 42.4366 51.468597 43.70005 50.743999 44.534C 50.019405 45.36795 48.755951 45.4566 47.922001 44.732002L 39.257999 37.208L 27.92 50.834C 27.222265 51.671524 25.982346 51.796051 25.132 51.113998L 17.23 44.784C 16.660826 44.341118 16.374168 43.626102 16.479771 42.912693C 16.585375 42.199284 17.066881 41.597977 17.739952 41.338982C 18.413025 41.079979 19.173409 41.203407 19.73 41.662003L 26.101999 46.765999L 37.489998 33.080002C 37.834026 32.666691 38.329994 32.409332 38.865997 32.365997ZM 26.337999 18.414C 27.44257 18.414 28.337999 17.51857 28.337999 16.414C 28.337999 15.309431 27.44257 14.414 26.337999 14.414L 19.771999 14.414C 18.667431 14.414 17.771999 15.309431 17.771999 16.414C 17.771999 17.51857 18.667431 18.414 19.771999 18.414L 26.34 18.414ZM 31.785999 22.98C 31.785999 24.08457 30.89057 24.98 29.785999 24.98L 19.774 24.98C 18.66943 24.98 17.774 24.08457 17.774 22.98C 17.774 21.875431 18.66943 20.98 19.774 20.98L 29.785999 20.98C 30.89057 20.98 31.785999 21.875431 31.785999 22.98Z"></path></g></g></g><g id="g-root-ic_ufo_9247171c201l7-stroke-fill" data-item-order="-2304" transform="translate(110.1309814453125, 146)"><g id="ic_ufo_9247171c201l7-fill" stroke="none" fill="#fb6762"><g><path d="M 50.779999 39.48C 50.49268 38.408726 49.391396 37.77314 48.32008 38.060295C 47.24876 38.34745 46.613007 39.448639 46.899998 40.519997L 51.139999 56.52C 51.30584 57.231823 51.846767 57.796497 52.550816 57.992748C 53.25486 58.188999 54.009895 57.985573 54.520046 57.462177C 55.030201 56.938786 55.214222 56.178791 55 55.48ZM 19.82 38C 18.754391 37.720551 17.663445 38.355446 17.380001 39.419998L 13.14 55.419998C 12.925778 56.11879 13.109798 56.878784 13.619952 57.40218C 14.130106 57.925571 14.885139 58.129002 15.589186 57.932751C 16.293234 57.7365 16.83416 57.171825 17 56.459999L 21.24 40.459999C 21.380281 39.945396 21.309196 39.39608 21.042547 38.934139C 20.775898 38.472198 20.335775 38.135902 19.82 38ZM 38 49.860001C 39.203453 49.748383 40.123898 48.738621 40.123898 47.529999C 40.123898 46.321381 39.203453 45.311615 38 45.200001L 31.08 45.200001C 29.876545 45.311615 28.9561 46.321381 28.9561 47.529999C 28.9561 48.738621 29.876545 49.748383 31.08 49.860001L 32.239998 49.860001L 32.239998 50.18L 29.200001 54.299999C 28.437847 55.332775 28.657228 56.787849 29.690001 57.550003C 30.722773 58.312153 32.177849 58.092773 32.940002 57.060001L 34.599998 54.82L 36.200001 57.080002C 36.978722 58.129345 38.460663 58.348724 39.510002 57.570004C 40.559341 56.791279 40.778725 55.309341 40 54.260002L 37 50.16L 37 49.860001ZM 38 40.239998C 38.008102 38.822594 37.160507 37.540237 35.85331 36.992199C 34.546112 36.44416 33.03743 36.738647 32.032288 37.738045C 31.027142 38.73745 30.724012 40.244415 31.264553 41.554733C 31.805094 42.865051 33.082569 43.719978 34.5 43.720001C 35.426414 43.725323 36.316711 43.361034 36.973671 42.707829C 37.63063 42.054626 38.000015 41.166428 38 40.239998ZM 56.959999 29C 57.256584 29.003077 57.540375 28.879374 57.739998 28.659998C 57.943413 28.447105 58.032631 28.149708 57.98 27.860001C 57.289928 23.844007 53.774273 20.931278 49.700001 21L 18.299999 21C 14.218212 20.921293 10.691198 23.836391 10 27.860001C 9.947369 28.149708 10.036588 28.447105 10.24 28.66C 10.439621 28.879374 10.723413 29.003077 11.02 28.999998L 13.28 29C 13.484316 29.002653 13.666457 29.12936 13.74 29.32C 13.899547 29.722376 14.079787 30.116236 14.280001 30.500002C 16.065369 33.888172 19.580214 36.009026 23.41 36.009026C 27.239786 36.009026 30.754631 33.888172 32.540001 30.5C 32.740211 30.116236 32.920456 29.722376 33.080002 29.320002C 33.148697 29.125612 33.333855 28.996807 33.540001 28.999998L 34.459999 29C 34.666145 28.996807 34.851299 29.125612 34.919998 29.32C 35.079548 29.722376 35.259789 30.116236 35.459999 30.500002C 37.245369 33.888172 40.760216 36.009026 44.59 36.009026C 48.419785 36.009026 51.934631 33.888172 53.720001 30.5C 53.920216 30.116236 54.100456 29.722376 54.260002 29.320002C 54.328697 29.125612 54.513851 28.996807 54.719997 28.999998ZM 23.4 32C 21.569786 31.983295 19.832561 31.191006 18.619999 29.82C 18.522778 29.660299 18.522778 29.4597 18.619999 29.299999C 18.686577 29.141253 18.830135 29.027918 19 29L 27.799999 29C 27.999443 28.999306 28.180223 29.117207 28.26 29.299999C 28.367369 29.456707 28.367369 29.663294 28.26 29.82C 27.033712 31.218311 25.259802 32.014015 23.400002 32ZM 44.599998 32C 42.768101 31.990932 41.027901 31.197287 39.82 29.82C 39.712631 29.663294 39.712631 29.456707 39.82 29.299999C 39.899776 29.117207 40.080559 28.999306 40.279999 29L 49.080002 29C 49.272152 29.007078 49.443218 29.123714 49.52 29.299999C 49.627369 29.456707 49.627369 29.663294 49.52 29.82C 48.280025 31.234344 46.480667 32.031624 44.600002 32ZM 34 10C 28.477455 9.948547 23.296272 12.666791 20.200001 17.24C 20.121464 17.397415 20.121464 17.582584 20.200001 17.74C 20.291019 17.897736 20.457924 17.996361 20.639999 18L 47.5 18C 47.703251 18.01899 47.898815 17.917297 47.999996 17.74C 48.078533 17.582584 48.078533 17.397415 48 17.24C 44.864662 12.606876 39.593025 9.880686 34 10Z"></path></g></g><g id="ic_ufo_9247171c201l7-fill-overlay" stroke="none" fill="url(#crawlingPattern-f908001a)"><g><path d="M 50.779999 39.48C 50.49268 38.408726 49.391396 37.77314 48.32008 38.060295C 47.24876 38.34745 46.613007 39.448639 46.899998 40.519997L 51.139999 56.52C 51.30584 57.231823 51.846767 57.796497 52.550816 57.992748C 53.25486 58.188999 54.009895 57.985573 54.520046 57.462177C 55.030201 56.938786 55.214222 56.178791 55 55.48ZM 19.82 38C 18.754391 37.720551 17.663445 38.355446 17.380001 39.419998L 13.14 55.419998C 12.925778 56.11879 13.109798 56.878784 13.619952 57.40218C 14.130106 57.925571 14.885139 58.129002 15.589186 57.932751C 16.293234 57.7365 16.83416 57.171825 17 56.459999L 21.24 40.459999C 21.380281 39.945396 21.309196 39.39608 21.042547 38.934139C 20.775898 38.472198 20.335775 38.135902 19.82 38ZM 38 49.860001C 39.203453 49.748383 40.123898 48.738621 40.123898 47.529999C 40.123898 46.321381 39.203453 45.311615 38 45.200001L 31.08 45.200001C 29.876545 45.311615 28.9561 46.321381 28.9561 47.529999C 28.9561 48.738621 29.876545 49.748383 31.08 49.860001L 32.239998 49.860001L 32.239998 50.18L 29.200001 54.299999C 28.437847 55.332775 28.657228 56.787849 29.690001 57.550003C 30.722773 58.312153 32.177849 58.092773 32.940002 57.060001L 34.599998 54.82L 36.200001 57.080002C 36.978722 58.129345 38.460663 58.348724 39.510002 57.570004C 40.559341 56.791279 40.778725 55.309341 40 54.260002L 37 50.16L 37 49.860001ZM 38 40.239998C 38.008102 38.822594 37.160507 37.540237 35.85331 36.992199C 34.546112 36.44416 33.03743 36.738647 32.032288 37.738045C 31.027142 38.73745 30.724012 40.244415 31.264553 41.554733C 31.805094 42.865051 33.082569 43.719978 34.5 43.720001C 35.426414 43.725323 36.316711 43.361034 36.973671 42.707829C 37.63063 42.054626 38.000015 41.166428 38 40.239998ZM 56.959999 29C 57.256584 29.003077 57.540375 28.879374 57.739998 28.659998C 57.943413 28.447105 58.032631 28.149708 57.98 27.860001C 57.289928 23.844007 53.774273 20.931278 49.700001 21L 18.299999 21C 14.218212 20.921293 10.691198 23.836391 10 27.860001C 9.947369 28.149708 10.036588 28.447105 10.24 28.66C 10.439621 28.879374 10.723413 29.003077 11.02 28.999998L 13.28 29C 13.484316 29.002653 13.666457 29.12936 13.74 29.32C 13.899547 29.722376 14.079787 30.116236 14.280001 30.500002C 16.065369 33.888172 19.580214 36.009026 23.41 36.009026C 27.239786 36.009026 30.754631 33.888172 32.540001 30.5C 32.740211 30.116236 32.920456 29.722376 33.080002 29.320002C 33.148697 29.125612 33.333855 28.996807 33.540001 28.999998L 34.459999 29C 34.666145 28.996807 34.851299 29.125612 34.919998 29.32C 35.079548 29.722376 35.259789 30.116236 35.459999 30.500002C 37.245369 33.888172 40.760216 36.009026 44.59 36.009026C 48.419785 36.009026 51.934631 33.888172 53.720001 30.5C 53.920216 30.116236 54.100456 29.722376 54.260002 29.320002C 54.328697 29.125612 54.513851 28.996807 54.719997 28.999998ZM 23.4 32C 21.569786 31.983295 19.832561 31.191006 18.619999 29.82C 18.522778 29.660299 18.522778 29.4597 18.619999 29.299999C 18.686577 29.141253 18.830135 29.027918 19 29L 27.799999 29C 27.999443 28.999306 28.180223 29.117207 28.26 29.299999C 28.367369 29.456707 28.367369 29.663294 28.26 29.82C 27.033712 31.218311 25.259802 32.014015 23.400002 32ZM 44.599998 32C 42.768101 31.990932 41.027901 31.197287 39.82 29.82C 39.712631 29.663294 39.712631 29.456707 39.82 29.299999C 39.899776 29.117207 40.080559 28.999306 40.279999 29L 49.080002 29C 49.272152 29.007078 49.443218 29.123714 49.52 29.299999C 49.627369 29.456707 49.627369 29.663294 49.52 29.82C 48.280025 31.234344 46.480667 32.031624 44.600002 32ZM 34 10C 28.477455 9.948547 23.296272 12.666791 20.200001 17.24C 20.121464 17.397415 20.121464 17.582584 20.200001 17.74C 20.291019 17.897736 20.457924 17.996361 20.639999 18L 47.5 18C 47.703251 18.01899 47.898815 17.917297 47.999996 17.74C 48.078533 17.582584 48.078533 17.397415 48 17.24C 44.864662 12.606876 39.593025 9.880686 34 10Z"></path></g></g></g><g id="g-root-ic_zeus_2qc9n1c249am-stroke-fill" data-item-order="-2304" transform="translate(470.1310119628906, 146)"><g id="ic_zeus_2qc9n1c249am-fill" stroke="none" fill="#43dd93"><g><path d="M 57.67997 23.15999C 57.60323 22.80191 57.333241 22.516493 56.979969 22.419992L 52.539974 21.139994L 53.69997 12.579998C 53.756611 12.14346 53.521137 11.721222 53.119972 11.539999C 52.729679 11.375546 52.277905 11.480423 51.999973 11.799999L 40.259979 25.37999C 40.019505 25.653683 39.943268 26.034859 40.059978 26.379988C 40.188435 26.708364 40.474529 26.949286 40.819977 27.019987L 44.819977 27.739988L 42.939976 34.459984C 42.860386 34.761494 42.923092 35.082848 43.110195 35.332321C 43.297298 35.581791 43.588242 35.731968 43.899975 35.739983C 44.145889 35.745026 44.383579 35.65139 44.559978 35.479984L 57.419968 24.119991C 57.667347 23.866787 57.765759 23.503428 57.67997 23.15999ZM 10 10M 42.699978 39.45998L 38.099983 37.719982C 36.895851 37.259491 35.987473 36.246872 35.659985 34.999985C 35.32547 33.576164 34.743279 32.222229 33.939983 30.999987C 35.62505 30.276867 36.650303 28.548336 36.476887 26.722881C 36.303467 24.897429 34.971069 23.392874 33.179985 22.99999C 33.430653 21.515497 33.257347 19.990396 32.679985 18.599995C 32.18124 17.267096 31.233562 16.149685 29.999987 15.439997C 29.54903 12.513688 27.030842 10.353837 24.069992 10.353837C 21.10914 10.353837 18.590952 12.513688 18.139996 15.439997C 16.530241 16.148123 15.366149 17.595774 15.019997 19.319994C 14.637473 20.773468 14.672131 22.305304 15.119996 23.73999C 13.486667 24.146729 12.282719 25.532454 12.108143 27.206587C 11.933568 28.880722 12.825722 30.485023 14.339997 31.219986C 13.929535 31.854769 13.574874 32.523941 13.279998 33.219986L 10.46 43.079979C 10.118158 44.277565 10.299847 45.563919 10.959999 46.61998C 11.622658 47.690144 12.717286 48.419891 13.959998 48.619976C 14.686748 48.740105 15.432389 48.664162 16.119995 48.399975L 16.119995 48.919971C 17.488718 48.869919 18.802952 48.37093 19.859993 47.499977C 22.139658 45.682789 23.624096 43.050953 23.99999 40.159981C 24.170418 39.391289 24.906178 38.885197 25.68498 39.000965C 26.463781 39.11673 27.020521 39.814953 26.95999 40.599979C 26.43972 44.283005 24.475191 47.607594 21.499994 49.839973C 19.973379 51.063034 18.094646 51.764053 16.139996 51.839973L 15.699996 51.839973L 15.139997 56.399971C 15.097075 56.682949 15.185419 56.970066 15.379996 57.17997C 15.56399 57.397491 15.835097 57.522057 16.119995 57.519966C 20.864525 57.479336 25.257538 55.011097 27.759989 50.979977C 28.563728 49.783241 29.234369 48.502316 29.759985 47.159973L 30.679987 54.419968L 30.959986 56.69997C 31.059797 57.44191 31.691372 57.996674 32.439987 57.999969L 32.639984 57.999969C 33.033745 57.955036 33.393028 57.754051 33.637383 57.442032C 33.881737 57.130009 33.990742 56.733021 33.939983 56.33997L 32.699986 46.479977C 34.247864 47.163929 35.883652 47.628414 37.559982 47.859974L 38.199982 47.979973L 38.399982 47.979973C 42.079979 48.159973 44.219978 47.059978 44.879978 44.679977C 45.222569 43.482536 45.086308 42.198818 44.499977 41.099979C 44.152691 40.327839 43.501019 39.734093 42.699978 39.45998ZM 38.699982 45.019978L 38.159981 44.899979C 35.019985 44.299976 33.459984 43.999977 31.999985 41.859982C 31.821861 41.609604 31.570225 41.420876 31.279987 41.319981L 31.399986 39.899979L 31.839985 33.279984C 32.267647 34.044529 32.58416 34.866123 32.779987 35.719982C 33.34473 37.925499 34.949612 39.716995 37.079979 40.519978L 41.719978 42.259975C 42.06477 42.701157 42.189907 43.27533 42.059978 43.819977C 41.999977 44.219978 41.659981 45.139977 38.659981 45.019978ZM 14.439997 45.619976C 14.063521 45.555889 13.730433 45.338657 13.519998 45.019978C 13.321295 44.719589 13.256114 44.350231 13.339997 43.999977L 16.179996 34.319984C 17.60483 30.685469 21.276194 28.445038 25.15999 28.839989L 25.39999 28.839989C 23.99999 32.359985 21.539993 37.79998 17.999994 38.399982C 17.864166 38.416473 17.734055 38.464409 17.619995 38.539982C 17.182554 38.743881 16.869944 39.145809 16.779995 39.61998L 15.999996 44.559978C 15.932664 44.915016 15.72479 45.227814 15.423534 45.427395C 15.12228 45.626976 14.753187 45.696423 14.399997 45.619976ZM 24.179991 23.99999C 21.921137 23.996962 19.967381 22.425644 19.479994 20.219994C 22.096498 20.29644 24.648144 19.398375 26.63999 17.699995C 27.187937 18.634369 27.993361 19.391188 28.959986 19.879993C 28.604057 22.246044 26.57266 23.996952 24.179991 23.999992Z"></path></g></g><g id="ic_zeus_2qc9n1c249am-fill-overlay" stroke="none" fill="url(#crawlingPattern-00d16d21)"><g><path d="M 57.67997 23.15999C 57.60323 22.80191 57.333241 22.516493 56.979969 22.419992L 52.539974 21.139994L 53.69997 12.579998C 53.756611 12.14346 53.521137 11.721222 53.119972 11.539999C 52.729679 11.375546 52.277905 11.480423 51.999973 11.799999L 40.259979 25.37999C 40.019505 25.653683 39.943268 26.034859 40.059978 26.379988C 40.188435 26.708364 40.474529 26.949286 40.819977 27.019987L 44.819977 27.739988L 42.939976 34.459984C 42.860386 34.761494 42.923092 35.082848 43.110195 35.332321C 43.297298 35.581791 43.588242 35.731968 43.899975 35.739983C 44.145889 35.745026 44.383579 35.65139 44.559978 35.479984L 57.419968 24.119991C 57.667347 23.866787 57.765759 23.503428 57.67997 23.15999ZM 10 10M 42.699978 39.45998L 38.099983 37.719982C 36.895851 37.259491 35.987473 36.246872 35.659985 34.999985C 35.32547 33.576164 34.743279 32.222229 33.939983 30.999987C 35.62505 30.276867 36.650303 28.548336 36.476887 26.722881C 36.303467 24.897429 34.971069 23.392874 33.179985 22.99999C 33.430653 21.515497 33.257347 19.990396 32.679985 18.599995C 32.18124 17.267096 31.233562 16.149685 29.999987 15.439997C 29.54903 12.513688 27.030842 10.353837 24.069992 10.353837C 21.10914 10.353837 18.590952 12.513688 18.139996 15.439997C 16.530241 16.148123 15.366149 17.595774 15.019997 19.319994C 14.637473 20.773468 14.672131 22.305304 15.119996 23.73999C 13.486667 24.146729 12.282719 25.532454 12.108143 27.206587C 11.933568 28.880722 12.825722 30.485023 14.339997 31.219986C 13.929535 31.854769 13.574874 32.523941 13.279998 33.219986L 10.46 43.079979C 10.118158 44.277565 10.299847 45.563919 10.959999 46.61998C 11.622658 47.690144 12.717286 48.419891 13.959998 48.619976C 14.686748 48.740105 15.432389 48.664162 16.119995 48.399975L 16.119995 48.919971C 17.488718 48.869919 18.802952 48.37093 19.859993 47.499977C 22.139658 45.682789 23.624096 43.050953 23.99999 40.159981C 24.170418 39.391289 24.906178 38.885197 25.68498 39.000965C 26.463781 39.11673 27.020521 39.814953 26.95999 40.599979C 26.43972 44.283005 24.475191 47.607594 21.499994 49.839973C 19.973379 51.063034 18.094646 51.764053 16.139996 51.839973L 15.699996 51.839973L 15.139997 56.399971C 15.097075 56.682949 15.185419 56.970066 15.379996 57.17997C 15.56399 57.397491 15.835097 57.522057 16.119995 57.519966C 20.864525 57.479336 25.257538 55.011097 27.759989 50.979977C 28.563728 49.783241 29.234369 48.502316 29.759985 47.159973L 30.679987 54.419968L 30.959986 56.69997C 31.059797 57.44191 31.691372 57.996674 32.439987 57.999969L 32.639984 57.999969C 33.033745 57.955036 33.393028 57.754051 33.637383 57.442032C 33.881737 57.130009 33.990742 56.733021 33.939983 56.33997L 32.699986 46.479977C 34.247864 47.163929 35.883652 47.628414 37.559982 47.859974L 38.199982 47.979973L 38.399982 47.979973C 42.079979 48.159973 44.219978 47.059978 44.879978 44.679977C 45.222569 43.482536 45.086308 42.198818 44.499977 41.099979C 44.152691 40.327839 43.501019 39.734093 42.699978 39.45998ZM 38.699982 45.019978L 38.159981 44.899979C 35.019985 44.299976 33.459984 43.999977 31.999985 41.859982C 31.821861 41.609604 31.570225 41.420876 31.279987 41.319981L 31.399986 39.899979L 31.839985 33.279984C 32.267647 34.044529 32.58416 34.866123 32.779987 35.719982C 33.34473 37.925499 34.949612 39.716995 37.079979 40.519978L 41.719978 42.259975C 42.06477 42.701157 42.189907 43.27533 42.059978 43.819977C 41.999977 44.219978 41.659981 45.139977 38.659981 45.019978ZM 14.439997 45.619976C 14.063521 45.555889 13.730433 45.338657 13.519998 45.019978C 13.321295 44.719589 13.256114 44.350231 13.339997 43.999977L 16.179996 34.319984C 17.60483 30.685469 21.276194 28.445038 25.15999 28.839989L 25.39999 28.839989C 23.99999 32.359985 21.539993 37.79998 17.999994 38.399982C 17.864166 38.416473 17.734055 38.464409 17.619995 38.539982C 17.182554 38.743881 16.869944 39.145809 16.779995 39.61998L 15.999996 44.559978C 15.932664 44.915016 15.72479 45.227814 15.423534 45.427395C 15.12228 45.626976 14.753187 45.696423 14.399997 45.619976ZM 24.179991 23.99999C 21.921137 23.996962 19.967381 22.425644 19.479994 20.219994C 22.096498 20.29644 24.648144 19.398375 26.63999 17.699995C 27.187937 18.634369 27.993361 19.391188 28.959986 19.879993C 28.604057 22.246044 26.57266 23.996952 24.179991 23.999992Z"></path></g></g></g><g id="g-root-ic_reap_zp17rv1c271u1-stroke-fill" data-item-order="-2304" transform="translate(830.1309814453125, 146)"><g id="ic_reap_zp17rv1c271u1-fill" stroke="none" fill="#b7b7b7"><g><path d="M 10 10M 55.619999 53.279999L 50.5 43.18C 50.350163 42.895203 50.076923 42.695816 49.759998 42.639999C 49.441456 42.592617 49.119961 42.704765 48.900002 42.939999C 48.483562 43.366444 48.012863 43.736279 47.500004 44.040001C 47.059444 44.321857 46.89674 44.887039 47.119999 45.359997L 52 55.080002C 52.338902 55.75256 53.026882 56.177719 53.779999 56.18C 54.094265 56.188362 54.405033 56.112396 54.68 55.959999C 55.161598 55.730953 55.53178 55.319054 55.708286 54.815819C 55.884796 54.31258 55.853012 53.759693 55.619999 53.279999ZM 47.84 37.799999C 47.840057 36.78521 47.434216 35.812553 46.712902 35.098755C 45.991589 34.384956 45.014736 33.989319 44 34L 34.799999 34C 34.247715 34 33.799999 33.552284 33.799999 33L 33.799999 29C 33.800003 23.477154 29.322847 19 23.799999 19C 18.277153 19 13.8 23.477154 13.8 29L 13.8 43C 13.774528 45.928936 13.391698 48.843819 12.66 51.68C 12.14 53.880001 11.76 55.48 12.66 56.639999C 13.559999 57.799999 15.4 58 17.84 58C 19.141262 58.060715 20.418203 57.63269 21.419998 56.799999C 22.850307 55.713203 24.829693 55.713203 26.26 56.799999C 27.263695 57.62928 28.53928 58.05685 29.84 58C 32.599998 58 34.260002 57.5 35.059998 56.419998C 35.727776 55.222912 35.772526 53.776062 35.18 52.539997C 34.296986 49.436703 33.846073 46.226475 33.84 43C 33.84 42.447716 34.287716 42 34.84 42L 44 42C 46.098682 42 47.799999 40.298683 47.799999 38.200001ZM 28.34 31.799999C 28.34 34.285282 26.325281 36.299999 23.84 36.299999C 21.354719 36.299999 19.34 34.285282 19.34 31.799999L 19.34 30C 19.34 28.68 19.68 27.48 23.84 27.48C 28 27.48 28.34 28.68 28.34 30ZM 39.580002 30.459999C 39.747044 30.792454 40.087944 31.001642 40.459999 31L 42.700001 31C 43.051048 31.002045 43.377457 30.819862 43.560001 30.52C 43.731037 30.215721 43.731037 29.844278 43.560001 29.540001L 40.400002 23.34C 40.147194 22.872932 40.295094 22.290035 40.739998 22C 44.69429 19.244228 49.007805 17.04373 53.560001 15.46C 54.379078 15.146151 54.898071 14.335224 54.84 13.46C 54.808189 12.60635 54.237713 11.867138 53.419998 11.62C 47.75214 10.243154 41.789635 10.755831 36.439999 13.08C 35.948349 13.326924 35.349575 13.130313 35.099998 12.64L 34.239998 11.1C 33.951805 10.407923 33.30077 9.935136 32.553482 9.875237C 31.806194 9.815338 31.088161 10.178388 30.693409 10.815723C 30.298655 11.453059 30.293478 12.257639 30.68 12.9Z"></path></g></g><g id="ic_reap_zp17rv1c271u1-fill-overlay" stroke="none" fill="url(#crawlingPattern-8484841a)"><g><path d="M 10 10M 55.619999 53.279999L 50.5 43.18C 50.350163 42.895203 50.076923 42.695816 49.759998 42.639999C 49.441456 42.592617 49.119961 42.704765 48.900002 42.939999C 48.483562 43.366444 48.012863 43.736279 47.500004 44.040001C 47.059444 44.321857 46.89674 44.887039 47.119999 45.359997L 52 55.080002C 52.338902 55.75256 53.026882 56.177719 53.779999 56.18C 54.094265 56.188362 54.405033 56.112396 54.68 55.959999C 55.161598 55.730953 55.53178 55.319054 55.708286 54.815819C 55.884796 54.31258 55.853012 53.759693 55.619999 53.279999ZM 47.84 37.799999C 47.840057 36.78521 47.434216 35.812553 46.712902 35.098755C 45.991589 34.384956 45.014736 33.989319 44 34L 34.799999 34C 34.247715 34 33.799999 33.552284 33.799999 33L 33.799999 29C 33.800003 23.477154 29.322847 19 23.799999 19C 18.277153 19 13.8 23.477154 13.8 29L 13.8 43C 13.774528 45.928936 13.391698 48.843819 12.66 51.68C 12.14 53.880001 11.76 55.48 12.66 56.639999C 13.559999 57.799999 15.4 58 17.84 58C 19.141262 58.060715 20.418203 57.63269 21.419998 56.799999C 22.850307 55.713203 24.829693 55.713203 26.26 56.799999C 27.263695 57.62928 28.53928 58.05685 29.84 58C 32.599998 58 34.260002 57.5 35.059998 56.419998C 35.727776 55.222912 35.772526 53.776062 35.18 52.539997C 34.296986 49.436703 33.846073 46.226475 33.84 43C 33.84 42.447716 34.287716 42 34.84 42L 44 42C 46.098682 42 47.799999 40.298683 47.799999 38.200001ZM 28.34 31.799999C 28.34 34.285282 26.325281 36.299999 23.84 36.299999C 21.354719 36.299999 19.34 34.285282 19.34 31.799999L 19.34 30C 19.34 28.68 19.68 27.48 23.84 27.48C 28 27.48 28.34 28.68 28.34 30ZM 39.580002 30.459999C 39.747044 30.792454 40.087944 31.001642 40.459999 31L 42.700001 31C 43.051048 31.002045 43.377457 30.819862 43.560001 30.52C 43.731037 30.215721 43.731037 29.844278 43.560001 29.540001L 40.400002 23.34C 40.147194 22.872932 40.295094 22.290035 40.739998 22C 44.69429 19.244228 49.007805 17.04373 53.560001 15.46C 54.379078 15.146151 54.898071 14.335224 54.84 13.46C 54.808189 12.60635 54.237713 11.867138 53.419998 11.62C 47.75214 10.243154 41.789635 10.755831 36.439999 13.08C 35.948349 13.326924 35.349575 13.130313 35.099998 12.64L 34.239998 11.1C 33.951805 10.407923 33.30077 9.935136 32.553482 9.875237C 31.806194 9.815338 31.088161 10.178388 30.693409 10.815723C 30.298655 11.453059 30.293478 12.257639 30.68 12.9Z"></path></g></g></g><g id="g-root-tx_thefalco_1q6zr8b1bsha0x-stroke-fill" data-item-order="0" transform="translate(284, 50)"><g id="tx_thefalco_1q6zr8b1bsha0x-fill" stroke="none" fill="#f4f4f4"><g><text style="font: 20px Roboto, sans-serif; white-space: pre;" font-size="20px" font-family="Roboto, sans-serif"><tspan x="13.73" y="34" dominant-baseline="ideographic">The Falcon Lake Incident: A Timeline of Events</tspan></text></g></g><g id="tx_thefalco_1q6zr8b1bsha0x-fill-overlay" stroke="none" fill="url(#crawlingPattern-0000001b)"><g><text style="font: 20px Roboto, sans-serif; white-space: pre;" font-size="20px" font-family="Roboto, sans-serif"><tspan x="13.73" y="34" dominant-baseline="ideographic">The Falcon Lake Incident: A Timeline of Events</tspan></text></g></g></g><g id="g-root-tx_may23196_18lyhln1bsiqkr-stroke-fill" data-item-order="0" transform="translate(266, 134)"><g id="tx_may23196_18lyhln1bsiqkr-fill" stroke="none" fill="#4f91fc"><g><text style="font: bold 20px Roboto, sans-serif; white-space: pre;" font-weight="bold" font-size="20px" font-family="Roboto, sans-serif"><tspan x="15.07" y="34" dominant-baseline="ideographic">May 23, 1967</tspan></text></g></g><g id="tx_may23196_18lyhln1bsiqkr-fill-overlay" stroke="none" fill="url(#crawlingPattern-0060fba2)"><g><text style="font: bold 20px Roboto, sans-serif; white-space: pre;" font-weight="bold" font-size="20px" font-family="Roboto, sans-serif"><tspan x="15.07" y="34" dominant-baseline="ideographic">May 23, 1967</tspan></text></g></g></g><g id="g-root-tx_rcmpinte_vb4gbf1bsiozw-stroke-fill" data-item-order="0" transform="translate(266, 170)"><g id="tx_rcmpinte_vb4gbf1bsiozw-fill" stroke="none" fill="#ebf2ff"><g><text style="font: 15px Roboto, sans-serif; white-space: pre;" font-size="15px" font-family="Roboto, sans-serif"><tspan x="17.54" y="28" dominant-baseline="ideographic">RCMP interviews </tspan><tspan x="43.91" y="46" dominant-baseline="ideographic">Michalak</tspan></text></g></g><g id="tx_rcmpinte_vb4gbf1bsiozw-fill-overlay" stroke="none" fill="url(#crawlingPattern-0059ff37)"><g><text style="font: 15px Roboto, sans-serif; white-space: pre;" font-size="15px" font-family="Roboto, sans-serif"><tspan x="17.54" y="28" dominant-baseline="ideographic">RCMP interviews </tspan><tspan x="43.91" y="46" dominant-baseline="ideographic">Michalak</tspan></text></g></g></g><g id="g-root-tx_1968_1hf2a3f1c202dr-stroke-fill" data-item-order="0" transform="translate(698, 134)"><g id="tx_1968_1hf2a3f1c202dr-fill" stroke="none" fill="#a6da37"><g><text style="font: bold 20px Roboto, sans-serif; white-space: pre;" font-weight="bold" font-size="20px" font-family="Roboto, sans-serif"><tspan x="17.05" y="34" dominant-baseline="ideographic">1968</tspan></text></g></g><g id="tx_1968_1hf2a3f1c202dr-fill-overlay" stroke="none" fill="url(#crawlingPattern-5c87005e)"><g><text style="font: bold 20px Roboto, sans-serif; white-space: pre;" font-weight="bold" font-size="20px" font-family="Roboto, sans-serif"><tspan x="17.05" y="34" dominant-baseline="ideographic">1968</tspan></text></g></g></g><g id="g-root-tx_michalak_18k1qxn1c200sg-stroke-fill" data-item-order="0" transform="translate(602, 170)"><g id="tx_michalak_18k1qxn1c200sg-fill" stroke="none" fill="#f2ffd7"><g><text style="font: 15px Roboto, sans-serif; white-space: pre;" font-size="15px" font-family="Roboto, sans-serif"><tspan x="16.38" y="28" dominant-baseline="ideographic">Michalak visits Mayo </tspan><tspan x="67.72" y="46" dominant-baseline="ideographic">Clinic</tspan></text></g></g><g id="tx_michalak_18k1qxn1c200sg-fill-overlay" stroke="none" fill="url(#crawlingPattern-acff003c)"><g><text style="font: 15px Roboto, sans-serif; white-space: pre;" font-size="15px" font-family="Roboto, sans-serif"><tspan x="16.38" y="28" dominant-baseline="ideographic">Michalak visits Mayo </tspan><tspan x="67.72" y="46" dominant-baseline="ideographic">Clinic</tspan></text></g></g></g><g id="g-root-tx_may20196_v8l8kb1c202dd-stroke-fill" data-item-order="0" transform="translate(86, 374)"><g id="tx_may20196_v8l8kb1c202dd-fill" stroke="none" fill="#fb6762"><g><text style="font: bold 20px Roboto, sans-serif; white-space: pre;" font-weight="bold" font-size="20px" font-family="Roboto, sans-serif"><tspan x="15.07" y="34" dominant-baseline="ideographic">May 20, 1967</tspan></text></g></g><g id="tx_may20196_v8l8kb1c202dd-fill-overlay" stroke="none" fill="url(#crawlingPattern-f9080081)"><g><text style="font: bold 20px Roboto, sans-serif; white-space: pre;" font-weight="bold" font-size="20px" font-family="Roboto, sans-serif"><tspan x="15.07" y="34" dominant-baseline="ideographic">May 20, 1967</tspan></text></g></g></g><g id="g-root-tx_stefanmi_mdkpej1c2000a-stroke-fill" data-item-order="0" transform="translate(98, 410)"><g id="tx_stefanmi_mdkpej1c2000a-fill" stroke="none" fill="#ffe9e8"><g><text style="font: 15px Roboto, sans-serif; white-space: pre;" font-size="15px" font-family="Roboto, sans-serif"><tspan x="14.34" y="28" dominant-baseline="ideographic">Stefan Michalak </tspan><tspan x="14.66" y="46" dominant-baseline="ideographic">encounters UFO</tspan></text></g></g><g id="tx_stefanmi_mdkpej1c2000a-fill-overlay" stroke="none" fill="url(#crawlingPattern-ff0b0038)"><g><text style="font: 15px Roboto, sans-serif; white-space: pre;" font-size="15px" font-family="Roboto, sans-serif"><tspan x="14.34" y="28" dominant-baseline="ideographic">Stefan Michalak </tspan><tspan x="14.66" y="46" dominant-baseline="ideographic">encounters UFO</tspan></text></g></g></g><g id="g-root-tx_septembe_qp0vx71c249ak-stroke-fill" data-item-order="0" transform="translate(434, 374)"><g id="tx_septembe_qp0vx71c249ak-fill" stroke="none" fill="#43dd93"><g><text style="font: bold 20px Roboto, sans-serif; white-space: pre;" font-weight="bold" font-size="20px" font-family="Roboto, sans-serif"><tspan x="13.77" y="34" dominant-baseline="ideographic">September 21, </tspan><tspan x="56.56" y="58" dominant-baseline="ideographic">1967</tspan></text></g></g><g id="tx_septembe_qp0vx71c249ak-fill-overlay" stroke="none" fill="url(#crawlingPattern-00b15c75)"><g><text style="font: bold 20px Roboto, sans-serif; white-space: pre;" font-weight="bold" font-size="20px" font-family="Roboto, sans-serif"><tspan x="13.77" y="34" dominant-baseline="ideographic">September 21, </tspan><tspan x="56.56" y="58" dominant-baseline="ideographic">1967</tspan></text></g></g></g><g id="g-root-tx_michalak_de6umz1c247pp-stroke-fill" data-item-order="0" transform="translate(422, 434)"><g id="tx_michalak_de6umz1c247pp-fill" stroke="none" fill="#dffff0"><g><text style="font: 15px Roboto, sans-serif; white-space: pre;" font-size="15px" font-family="Roboto, sans-serif"><tspan x="13.91" y="28" dominant-baseline="ideographic">Michalak experiences </tspan><tspan x="36.09" y="46" dominant-baseline="ideographic">severe episode</tspan></text></g></g><g id="tx_michalak_de6umz1c247pp-fill-overlay" stroke="none" fill="url(#crawlingPattern-00ff873a)"><g><text style="font: 15px Roboto, sans-serif; white-space: pre;" font-size="15px" font-family="Roboto, sans-serif"><tspan x="13.91" y="28" dominant-baseline="ideographic">Michalak experiences </tspan><tspan x="36.09" y="46" dominant-baseline="ideographic">severe episode</tspan></text></g></g></g><g id="g-root-tx_1999_1qbbrff1c271tz-stroke-fill" data-item-order="0" transform="translate(878, 374)"><g id="tx_1999_1qbbrff1c271tz-fill" stroke="none" fill="#b7b7b7"><g><text style="font: bold 20px Roboto, sans-serif; white-space: pre;" font-weight="bold" font-size="20px" font-family="Roboto, sans-serif"><tspan x="17.05" y="34" dominant-baseline="ideographic">1999</tspan></text></g></g><g id="tx_1999_1qbbrff1c271tz-fill-overlay" stroke="none" fill="url(#crawlingPattern-00000024)"><g><text style="font: bold 20px Roboto, sans-serif; white-space: pre;" font-weight="bold" font-size="20px" font-family="Roboto, sans-serif"><tspan x="17.05" y="34" dominant-baseline="ideographic">1999</tspan></text></g></g></g><g id="g-root-tx_michalak_1czv9231c273ew-stroke-fill" data-item-order="0" transform="translate(782, 410)"><g id="tx_michalak_1czv9231c273ew-fill" stroke="none" fill="#f4f4f4"><g><text style="font: 15px Roboto, sans-serif; white-space: pre;" font-size="15px" font-family="Roboto, sans-serif"><tspan x="12.89" y="31" dominant-baseline="ideographic">Michalak passes away</tspan></text></g></g><g id="tx_michalak_1czv9231c273ew-fill-overlay" stroke="none" fill="url(#crawlingPattern-0000001b)"><g><text style="font: 15px Roboto, sans-serif; white-space: pre;" font-size="15px" font-family="Roboto, sans-serif"><tspan x="12.89" y="31" dominant-baseline="ideographic">Michalak passes away</tspan></text></g></g></g></svg>