<?xml version='1.0' encoding='utf-8'?>
<svg xmlns="http://www.w3.org/2000/svg" xmlns:xlink="http://www.w3.org/1999/xlink" width="624" height="528" viewBox="0 0 624 528" style="fill:none;stroke:none;fill-rule:evenodd;clip-rule:evenodd;stroke-linecap:round;stroke-linejoin:round;stroke-miterlimit:1.5;" version="1.1">
  <style class="text-font-style fontImports" data-font-family="Roboto">@import url('https://fonts.googleapis.com/css2?family=Roboto:wght@400;700&amp;display=block');</style>
  <rect x="0" y="0" width="624" height="528" fill="#252a34" stroke="none" id="programmatic_background"/>
  <g id="g-root-tf_146qugb1bsiq6b-stroke-fill" data-item-order="-302400" transform="translate(12, 12)"/>
  <g id="g-root-sy_5_cu_1lz9t4b1bs8v0v-stroke-fill" data-item-order="-34519" transform="translate(218, 273)">
    <g id="sy_5_cu_1lz9t4b1bs8v0v-stroke" fill="none" stroke-linecap="round" stroke-linejoin="round" stroke-miterlimit="4" stroke="#f4f4f4" stroke-width="2">
      <g>
        <path d="M 10 34L 10 48.126C 10 52.981 14.289 56.717 19.098 56.05L 82 47.336M 178 10L 178 26.396C 178 30.389 175.056 33.77 171.101 34.32L 106 43.361"/>
      </g>
    </g>
  </g>
  <g id="g-root-sy_4_cu_1hjgazv1bs8vt4-stroke-fill" data-item-order="-34516" transform="translate(290, 296.33599853515625)">
    <g id="sy_4_cu_1hjgazv1bs8vt4-fill" stroke="none" fill="none">
      <g>
        <path d="M 34.086 22.000001C 34.086 28.627001 28.695 34.000001 22.043 34.000001C 15.392 34.000001 10 28.627001 10 22.000001C 10 15.373001 15.392 10.000001 22.043 10.000001C 28.695 10.000001 34.086 15.373001 34.086 22.000001ZM 28 22.000001C 28 25.314001 25.314 28.000001 22 28.000001C 18.686 28.000001 16 25.314001 16 22.000001C 16 18.686001 18.686 16.000001 22 16.000001C 25.314 16.000001 28 18.686001 28 22.000001Z"/>
      </g>
    </g>
    <g id="sy_4_cu_1hjgazv1bs8vt4-stroke" fill="none" stroke-linecap="round" stroke-linejoin="round" stroke-miterlimit="4" stroke="#f4f4f4" stroke-width="2">
      <g>
        <path d="M 34.086 22.000001C 34.086 28.627001 28.695 34.000001 22.043 34.000001C 15.392 34.000001 10 28.627001 10 22.000001C 10 15.373001 15.392 10.000001 22.043 10.000001C 28.695 10.000001 34.086 15.373001 34.086 22.000001ZM 28 22.000001C 28 25.314001 25.314 28.000001 22 28.000001C 18.686 28.000001 16 25.314001 16 22.000001C 16 18.686001 18.686 16.000001 22 16.000001C 25.314 16.000001 28 18.686001 28 22.000001Z"/>
      </g>
    </g>
  </g>
  <g id="g-root-sy_3_cu_1d3msvf1bs8wld-stroke-fill" data-item-order="-34512" transform="translate(254, 317.32598876953125)">
    <g id="sy_3_cu_1d3msvf1bs8wld-fill" stroke="none" fill="none">
      <g>
        <path d="M 22 78.674011L 94 78.674011C 94 78.674011 73.992 28.166011 65.959 10.058011C 63.725 11.952011 61.073 12.997011 58.043 12.997011C 54.986 12.997011 52.288 11.933011 50.072 10.000011C 42.047 28.114011 22 78.674011 22 78.674011ZM 18 78.674011C 13.582 78.674011 10 82.256011 10 86.674011L 10 88.674011C 10 89.779011 10.895 90.674011 12 90.674011L 104 90.674011C 105.105 90.674011 106 89.779011 106 88.674011L 106 86.674011C 106 82.256011 102.418 78.674011 98 78.674011L 18 78.674011Z"/>
      </g>
    </g>
    <g id="sy_3_cu_1d3msvf1bs8wld-stroke" fill="none" stroke-linecap="round" stroke-linejoin="round" stroke-miterlimit="4" stroke="#f4f4f4" stroke-width="2">
      <g>
        <path d="M 22 78.674011L 94 78.674011C 94 78.674011 73.992 28.166011 65.959 10.058011C 63.725 11.952011 61.073 12.997011 58.043 12.997011C 54.986 12.997011 52.288 11.933011 50.072 10.000011C 42.047 28.114011 22 78.674011 22 78.674011ZM 18 78.674011C 13.582 78.674011 10 82.256011 10 86.674011L 10 88.674011C 10 89.779011 10.895 90.674011 12 90.674011L 104 90.674011C 105.105 90.674011 106 89.779011 106 88.674011L 106 86.674011C 106 82.256011 102.418 78.674011 98 78.674011L 18 78.674011Z"/>
      </g>
    </g>
    <g id="sy_3_cu_1d3msvf1bs8wld-stroke" fill="none" stroke-linecap="round" stroke-linejoin="round" stroke-miterlimit="4" stroke="#f4f4f4" stroke-width="2">
      <g>
        <path d="M 43.859 64.535011L 43.859 70.191011L 50.272 76.605011C 50.623 75.292011 51.314 74.050011 52.344 73.020011C 53.374 71.989011 54.616 71.299011 55.929 70.948011L 49.516 64.535011L 43.859 64.535011ZM 62 71.744011C 60.823 71.064011 59.457 70.674011 58 70.674011C 56.543 70.674011 55.177 71.064011 54 71.744011C 51.609 73.127011 50 75.713011 50 78.674011L 66 78.674011C 66 75.713011 64.391 73.127011 62 71.744011ZM 58 49.674011L 58 55.474011M 78.503 58.171011L 74.404 62.270011M 37.497 58.171011L 41.596 62.270011M 64.747 53.463011L 64.003 56.257011M 44.94 56.073011L 46.4 58.587011M 71.031 56.064011L 69.59 58.567011M 51.224 53.473011L 51.978 56.267011"/>
      </g>
    </g>
  </g>
  <g id="g-root-sy_2_right-bucket_13ymobv1bsa8sq-stroke-fill" data-item-order="-34508" transform="translate(350, 254)">
    <g id="sy_2_right-bucket_13ymobv1bsa8sq-fill" stroke="none" fill="none">
      <g>
        <path d="M 10 11.8C 10 10.806 10.806 10 11.8 10L 80.2 10C 81.194 10 82 10.806 82 11.8C 82 20.747 74.747 28 65.8 28L 26.2 28C 17.253 28 10 20.747 10 11.8Z"/>
      </g>
    </g>
    <g id="sy_2_right-bucket_13ymobv1bsa8sq-stroke" fill="none" stroke-linecap="round" stroke-linejoin="round" stroke-miterlimit="4" stroke="#8769fd" stroke-width="2">
      <g>
        <path d="M 10 11.8C 10 10.806 10.806 10 11.8 10L 80.2 10C 81.194 10 82 10.806 82 11.8C 82 20.747 74.747 28 65.8 28L 26.2 28C 17.253 28 10 20.747 10 11.8Z"/>
      </g>
    </g>
  </g>
  <g id="g-root-sy_1_left-bucket_zit67f1bsa9kz-stroke-fill" data-item-order="-34504" transform="translate(182, 278)">
    <g id="sy_1_left-bucket_zit67f1bsa9kz-fill" stroke="none" fill="none">
      <g>
        <path d="M 10 11.8C 10 10.806 10.806 10 11.8 10L 80.2 10C 81.194 10 82 10.806 82 11.8C 82 20.747 74.747 28 65.8 28L 26.2 28C 17.253 28 10 20.747 10 11.8Z"/>
      </g>
    </g>
    <g id="sy_1_left-bucket_zit67f1bsa9kz-stroke" fill="none" stroke-linecap="round" stroke-linejoin="round" stroke-miterlimit="4" stroke="#4f91fc" stroke-width="2">
      <g>
        <path d="M 10 11.8C 10 10.806 10.806 10 11.8 10L 80.2 10C 81.194 10 82 10.806 82 11.8C 82 20.747 74.747 28 65.8 28L 26.2 28C 17.253 28 10 20.747 10 11.8Z"/>
      </g>
    </g>
  </g>
  <g id="g-root-ic_text_zit67f1bsa9l0-stroke-fill" data-item-order="0" transform="translate(194, 218)">
    <g id="ic_text_zit67f1bsa9l0-stroke" fill="none" stroke-linecap="round" stroke-linejoin="round" stroke-miterlimit="4" stroke="#f4f4f4" stroke-width="2">
      <g>
        <path d="M 22.102001 20.292C 22.102001 20.292 19.414 31.334 16.686001 35.681999M 28.200001 19.27C 32.549721 20.461208 36.334801 23.15896 38.879997 26.882M 32.893997 11L 31.724001 14.653999M 38.393997 13.068L 37.223999 16.719999M 44.816002 29.761999L 43.700001 37.669998M 44.147999 34.496002L 56.880001 28C 56.880001 28 58.880001 42.057999 46.574001 48.200001M 33.438 57L 40.978001 49.764L 30.181999 52.236L 36.788002 36.326L 24.540001 48.978001L 21.282 38.393997L 18.026001 48.978001L 11 41.440002L 12.384 52.236"/>
      </g>
    </g>
  </g>
  <g id="g-root-ic_1_1d3msvf1bsa9z9-stroke-fill" data-item-order="0" transform="translate(194, 146)">
    <g id="ic_1_1d3msvf1bsa9z9-stroke" fill="none" stroke-linecap="round" stroke-linejoin="round" stroke-miterlimit="4" stroke="#f4f4f4" stroke-width="2">
      <g>
        <path d="M 11 57L 57 57M 25.810001 57L 28 11L 44 11L 46.189999 57M 43.844002 11L 27.294001 25.844M 36 33L 27.278 26.156M 28.156 11L 44.706001 25.844M 36 33L 44.722 26.156M 55.964001 43.445999C 56.168179 43.752827 56.187038 44.147087 56.013081 44.472C 55.839123 44.796917 55.500553 44.999809 55.132 45L 16.868 45C 16.499449 44.999809 16.160875 44.796917 15.986918 44.472C 15.812962 44.147087 15.831822 43.752827 16.035999 43.445999L 22.704 33.445999C 22.889296 33.167549 23.20153 33.000175 23.535999 33L 48.464001 33C 48.79847 33.000175 49.110706 33.167549 49.296001 33.445999ZM 27.002001 33L 46 45L 52.599998 38.400002M 44.998001 33.001999L 26.002001 45L 19.4 38.398003M 22 11L 28 11M 44 11L 50 11M 22 21L 27.524 21M 44.476002 21L 50 21"/>
      </g>
    </g>
  </g>
  <g id="g-root-ic_man_dbpnl71bsd2q6-stroke-fill" data-item-order="0" transform="translate(194, 74)">
    <g id="ic_man_dbpnl71bsd2q6-stroke" fill="none" stroke-linecap="round" stroke-linejoin="round" stroke-miterlimit="4" stroke="#f4f4f4" stroke-width="2">
      <g>
        <path d="M 32.987999 43.764C 37.57795 46.214329 43.284012 44.589081 45.894001 40.087997L 45.894001 40.087997C 52.319809 43.26873 56.388161 49.816059 56.394001 56.986M 45.894001 40.087997L 39.299999 56.986M 50.664001 43.462002L 49.063999 53.612L 45.104 53.612L 45.088001 56.962002M 16.341999 36.190002L 29.48 36.190002M 33.681999 52.868L 26.716 45.543999L 26.716 36.200001L 19.104 36.200001L 19.104 45.554001L 12.142 52.868C 11.546909 53.632294 11.439168 54.668816 11.864348 55.539158C 12.289528 56.4095 13.173354 56.961624 14.142 56.962002L 31.676001 56.962002C 32.644646 56.961624 33.528473 56.4095 33.953651 55.539158C 34.37883 54.668816 34.271091 53.632294 33.676003 52.868ZM 16.512001 48.271999L 29.309999 48.271999M 39.982002 28.091999C 38.535484 29.174671 36.548515 29.174671 35.102001 28.092001M 40.799999 23.618C 41.020912 23.618 41.200001 23.797087 41.200001 24.018002C 41.200001 24.238914 41.020912 24.417999 40.800003 24.417999C 40.579086 24.417999 40.400002 24.238914 40.400002 24.018002C 40.400002 23.797087 40.579086 23.618 40.800003 23.618M 34.290001 23.618C 34.510914 23.618 34.690002 23.797087 34.690002 24.018002C 34.690002 24.238914 34.510914 24.417999 34.290001 24.417999C 34.069084 24.417999 33.889999 24.238914 33.889999 24.018002C 33.889999 23.797087 34.069084 23.618 34.290001 23.618M 47.301998 20.771999C 47.225609 15.436737 42.878811 11.15173 37.542999 11.15173C 32.207191 11.15173 27.86039 15.436737 27.784 20.771999L 27.784 24.026001C 27.86039 29.361263 32.207191 33.646271 37.542999 33.646271C 42.878811 33.646271 47.225609 29.361263 47.301998 24.026001ZM 47.301998 20.771999L 44.048 20.771999C 41.889999 20.771999 37.447998 21.32 34.290001 17.52C 32.66404 19.454556 30.304274 20.622475 27.780001 20.742001"/>
      </g>
    </g>
  </g>
  <g id="g-root-ic_ufo_qwja971bsd34f-stroke-fill" data-item-order="0" transform="translate(362, 194)">
    <g id="ic_ufo_qwja971bsd34f-stroke" fill="none" stroke-linecap="round" stroke-linejoin="round" stroke-miterlimit="4" stroke="#f4f4f4" stroke-width="2">
      <g>
        <path d="M 49 22.5C 52.977859 22.499041 56.352161 25.420879 56.919998 29.358C 56.961449 29.646814 56.874687 29.939325 56.682472 30.158836C 56.490257 30.378345 56.211758 30.502958 55.919998 30.5L 12.07 30.5C 11.778242 30.502958 11.499743 30.378345 11.307528 30.158836C 11.115312 29.939325 11.028553 29.646814 11.07 29.358C 11.638377 25.417118 15.018346 22.494064 19 22.5ZM 19 22.5C 19 17.5 25.716 11.5 34 11.5C 42.284 11.5 49 17.5 49 22.5M 47.77 39.5L 52.995998 56.5M 14.996 56.5L 20.232 39.5M 34.996002 49.5L 31.996 53.652M 37.996002 53.5L 34.996002 49.5M 31.996 46.5L 37.996002 46.5M 35 41.5C 35.552284 41.5 36 41.947716 36 42.5M 34 42.5C 34 41.947716 34.447716 41.5 35 41.5M 35 43.5C 34.447716 43.5 34 43.052284 34 42.5M 36 42.5C 36 43.052284 35.552284 43.5 35 43.5M 34.996002 49.5L 34.996002 46.5M 25 30.5C 25 33.261421 22.761425 35.5 20 35.5C 17.238577 35.5 15 33.261421 15 30.5M 39 30.5C 39 33.261421 36.761425 35.5 34 35.5C 31.238577 35.5 29 33.261421 29 30.5M 53 30.5C 53 33.261421 50.761425 35.5 48 35.5C 45.238575 35.5 43 33.261421 43 30.5"/>
      </g>
    </g>
  </g>
  <g id="g-root-ic_watc_1uljp2j1bsfvns-stroke-fill" data-item-order="0" transform="translate(362, 122)">
    <g id="ic_watc_1uljp2j1bsfvns-stroke" fill="none" stroke-linecap="round" stroke-linejoin="round" stroke-miterlimit="4" stroke="#f4f4f4" stroke-width="2">
      <g>
        <path d="M 15.5 43.5C 15.5 45.985283 17.514719 48 20 48C 22.485281 48 24.5 45.985283 24.5 43.5C 24.5 41.014717 22.485281 39 20 39C 17.514719 39 15.5 41.014717 15.5 43.5ZM 29 57C 27.950926 52.885952 24.245701 50.006985 20 50.006985C 15.7543 50.006985 12.049074 52.885952 11 57M 43.5 43.5C 43.5 45.985283 45.514717 48 48 48C 50.485283 48 52.5 45.985283 52.5 43.5C 52.5 41.014717 50.485283 39 48 39C 45.514717 39 43.5 41.014717 43.5 43.5ZM 39 57C 40.049076 52.885952 43.754299 50.006985 48 50.006985C 52.245701 50.006985 55.950928 52.885952 57 57M 29.5 41.5C 29.5 43.985283 31.514719 46 34 46C 36.485283 46 38.5 43.985283 38.5 41.5C 38.5 39.014717 36.485283 37 34 37C 31.514719 37 29.5 39.014717 29.5 41.5ZM 41.830002 52.386002C 40.154522 49.669983 37.191231 48.016228 34 48.016228C 30.808767 48.016228 27.845474 49.669983 26.17 52.385998M 25 11L 22 14M 22 11L 25 14M 45 13L 42 16M 42 13L 45 16M 55 21L 52 24M 52 21L 55 24M 16 18L 13 21M 13 18L 16 21M 40.68 32.056C 42.285118 28.043875 45.306801 24.760302 49.172001 22.827999M 28 14L 28.788 14.4C 33.292236 16.650915 36.373741 21.003746 37 26L 37 26M 20 20L 20 20C 26.209766 21.241394 31.321966 25.632595 33.486 31.584L 34 33"/>
      </g>
    </g>
  </g>
  <g id="g-root-ic_spac_zjfnaj1bsh9tt-stroke-fill" data-item-order="0" transform="translate(362, 50)">
    <g id="ic_spac_zjfnaj1bsh9tt-stroke" fill="none" stroke-linecap="round" stroke-linejoin="round" stroke-miterlimit="4" stroke="#f4f4f4" stroke-width="2">
      <g>
        <path d="M 10 10M 19.53124 36.616199L 48.465199 36.616199M 34 48.5L 34 56.5M 34 11.5C 42.035801 11.5 48.464199 17.928579 48.464199 26.16518L 48.464199 36.611603L 51.4776 36.611603C 54.290199 36.611603 56.5 38.8214 56.5 41.634003L 56.5 44.6474C 56.5 46.254398 55.0938 47.660801 53.486599 47.660801C 51.879398 47.660801 50.473202 46.254398 50.473202 44.6474L 50.473202 43.040199L 47.057999 43.040199C 46.254398 45.049198 44.848202 46.6562 43.442001 48.062401L 43.442001 51.6786L 45.049198 51.6786C 46.455399 51.6786 47.459801 52.883999 47.459801 54.089199C 47.459801 55.294601 46.254398 56.5 45.049198 56.5L 22.950901 56.5C 21.54464 56.5 20.54018 55.294601 20.54018 54.089199C 20.54018 52.883999 21.745541 51.6786 22.950901 51.6786L 24.558041 51.6786L 24.558041 48.062401C 22.950901 46.6562 21.745541 45.049198 20.941959 43.040199L 17.526779 43.040199L 17.526779 44.6474C 17.526779 46.254398 16.120541 47.660801 14.5134 47.660801C 12.90626 47.660801 11.5 46.254398 11.5 44.6474L 11.5 41.634003C 11.5 38.8214 13.70982 36.611603 16.52232 36.611603L 19.535721 36.611603L 19.535721 25.964279C 19.535721 17.928579 25.964279 11.5 34 11.5ZM 41 25.5294C 41 29.235279 37.849998 34 34 34C 30.15 34 27 29.235279 27 25.5294C 27 21.823521 30.15 19 34 19C 37.849998 19 41 21.823521 41 25.5294ZM 31.304001 26.299999C 31.0832 26.299999 30.903999 26.12092 30.903999 25.9C 30.903999 25.679081 31.0832 25.5 31.304001 25.5M 31.304001 26.299999C 31.524799 26.299999 31.704 26.12092 31.704 25.9C 31.704 25.679081 31.524799 25.5 31.304001 25.5M 36.695801 26.299999C 36.474998 26.299999 36.295799 26.12092 36.295799 25.9C 36.295799 25.679081 36.474998 25.5 36.695801 25.5M 36.695801 26.299999C 36.916801 26.299999 37.095802 26.12092 37.095802 25.9C 37.095802 25.679081 36.916801 25.5 36.695801 25.5"/>
      </g>
    </g>
  </g>
  <g id="g-root-tx_technica_1ursfxn1bsio02-stroke-fill" data-item-order="0" transform="translate(26, 218)">
    <g id="tx_technica_1ursfxn1bsio02-fill" stroke="none" fill="#f4f4f4">
      <g>
        <text style="font: 20px Roboto, sans-serif; white-space: pre;" font-size="20px" font-family="Roboto, sans-serif">
          <tspan x="14.31" y="34" dominant-baseline="ideographic">Technical Failure </tspan>
          <tspan x="108.14" y="58" dominant-baseline="ideographic">Cause</tspan>
        </text>
      </g>
    </g>
  </g>
  <g id="g-root-tx_official_1hgbxkb1bsipkz-stroke-fill" data-item-order="0" transform="translate(62, 134)">
    <g id="tx_official_1hgbxkb1bsipkz-fill" stroke="none" fill="#f4f4f4">
      <g>
        <text style="font: 20px Roboto, sans-serif; white-space: pre;" font-size="20px" font-family="Roboto, sans-serif">
          <tspan x="66.09" y="34" dominant-baseline="ideographic">Official </tspan>
          <tspan x="13.64" y="58" dominant-baseline="ideographic">Investigation </tspan>
          <tspan x="73.92" y="82" dominant-baseline="ideographic">Focus</tspan>
        </text>
      </g>
    </g>
  </g>
  <g id="g-root-tx_credibil_18koxbf1bsiqdo-stroke-fill" data-item-order="0" transform="translate(62, 74.0000991821289)">
    <g id="tx_credibil_18koxbf1bsiqdo-fill" stroke="none" fill="#f4f4f4">
      <g>
        <text style="font: 20px Roboto, sans-serif; white-space: pre;" font-size="20px" font-family="Roboto, sans-serif">
          <tspan x="18.94" y="34" dominant-baseline="ideographic">Credibility in </tspan>
          <tspan x="58.06" y="58" dominant-baseline="ideographic">Science</tspan>
        </text>
      </g>
    </g>
  </g>
  <g id="g-root-tx_unexplai_v9uw171bsiost-stroke-fill" data-item-order="0" transform="translate(422, 194)">
    <g id="tx_unexplai_v9uw171bsiost-fill" stroke="none" fill="#f4f4f4">
      <g>
        <text style="font: 20px Roboto, sans-serif; white-space: pre;" font-size="20px" font-family="Roboto, sans-serif">
          <tspan x="12" y="34" dominant-baseline="ideographic">Unexplained </tspan>
          <tspan x="12" y="58" dominant-baseline="ideographic">Phenomena</tspan>
        </text>
      </g>
    </g>
  </g>
  <g id="g-root-tx_eyewitne_qu1dwr1bsipl2-stroke-fill" data-item-order="0" transform="translate(422, 122)">
    <g id="tx_eyewitne_qu1dwr1bsipl2-fill" stroke="none" fill="#f4f4f4">
      <g>
        <text style="font: 20px Roboto, sans-serif; white-space: pre;" font-size="20px" font-family="Roboto, sans-serif">
          <tspan x="12" y="34" dominant-baseline="ideographic">Eyewitness </tspan>
          <tspan x="12" y="58" dominant-baseline="ideographic">Reports Volume</tspan>
        </text>
      </g>
    </g>
  </g>
  <g id="g-root-tx_mystique_hyednv1bsiqdr-stroke-fill" data-item-order="0" transform="translate(422, 50)">
    <g id="tx_mystique_hyednv1bsiqdr-fill" stroke="none" fill="#f4f4f4">
      <g>
        <text style="font: 20px Roboto, sans-serif; white-space: pre;" font-size="20px" font-family="Roboto, sans-serif">
          <tspan x="12" y="34" dominant-baseline="ideographic">Mystique and </tspan>
          <tspan x="12" y="58" dominant-baseline="ideographic">Intrigue</tspan>
        </text>
      </g>
    </g>
  </g>
  <g id="g-root-tx_blackout_dj7cmj1bsio08-stroke-fill" data-item-order="0" transform="translate(38, 374)">
    <g id="tx_blackout_dj7cmj1bsio08-fill" stroke="none" fill="#f4f4f4">
      <g>
        <text style="font: 20px Roboto, sans-serif; white-space: pre;" font-size="20px" font-family="Roboto, sans-serif">
          <tspan x="12.6" y="34" dominant-baseline="ideographic">Blackout Explanation</tspan>
        </text>
      </g>
    </g>
  </g>
  <g id="g-root-tx_ufoconne_7qu971bsipl5-stroke-fill" data-item-order="0" transform="translate(392, 350)">
    <g id="tx_ufoconne_7qu971bsipl5-fill" stroke="none" fill="#f4f4f4">
      <g>
        <text style="font: 20px Roboto, sans-serif; white-space: pre;" font-size="20px" font-family="Roboto, sans-serif">
          <tspan x="15.9" y="34" dominant-baseline="ideographic">UFO Connection</tspan>
        </text>
      </g>
    </g>
  </g>
  <g id="g-root-tx_balancin_1ut1e3v1bsiq6a-stroke-fill" data-item-order="0" transform="translate(92, 434)">
    <g id="tx_balancin_1ut1e3v1bsiq6a-fill" stroke="none" fill="#f4f4f4">
      <g>
        <text style="font: 20px Roboto, sans-serif; white-space: pre;" font-size="20px" font-family="Roboto, sans-serif">
          <tspan x="15.24" y="34" dominant-baseline="ideographic">Balancing Technical Failure and UFO Mystique</tspan>
        </text>
      </g>
    </g>
    <defs>
      <pattern id="crawlingPattern-0000001b" x="0" y="0" width="12" height="12" patternUnits="userSpaceOnUse" fill="#0000001b">
        <use href="#crawlingSymbol"/>
      </pattern>
      <symbol id="crawlingSymbol">
        <g>
          <path d="M -12.5 12.5 l 13 -13 l 6 0 l -13 13 Z M -0.5 12.5 l 13 -13 l 6 0 l -13 13 Z M 11.5 12.5 l 13 -13 l 6 0 l -13 13 Z"/>
        </g>
      </symbol>
    </defs>
  </g>
</svg>
