<?xml version='1.0' encoding='utf-8'?>
<svg xmlns="http://www.w3.org/2000/svg" xmlns:xlink="http://www.w3.org/1999/xlink" width="744" height="588" viewBox="0 0 744 588" style="fill:none;stroke:none;fill-rule:evenodd;clip-rule:evenodd;stroke-linecap:round;stroke-linejoin:round;stroke-miterlimit:1.5;" version="1.1">
  <style class="text-font-style fontImports" data-font-family="Roboto">@import url('https://fonts.googleapis.com/css2?family=Roboto:wght@400;700&amp;display=block');</style>
  <rect x="0" y="0" width="744" height="588" fill="#252a34" stroke="none" id="programmatic_background"/>
  <g id="g-root-tf_hxsipn1cm90cs-stroke-fill" data-item-order="-399312" transform="translate(18, 12)"/>
  <g id="g-root-cp_1_column-1_1qaqlrv1cm7myp-stroke-fill" data-item-order="-308870" transform="translate(59, 119)">
    <g id="cp_1_column-1_1qaqlrv1cm7myp-fill" stroke="none" fill="none">
      <g>
        <path d="M 10 13C 10 14.656854 11.343146 16 13 16C 14.656854 16 16 14.656854 16 13C 16 11.343146 14.656854 10 13 10C 11.343146 10 10 11.343146 10 13"/>
      </g>
    </g>
    <g id="cp_1_column-1_1qaqlrv1cm7myp-stroke" fill="none" stroke-linecap="round" stroke-linejoin="round" stroke-miterlimit="4" stroke="#4f91fc" stroke-width="2">
      <g>
        <path d="M 10 13C 10 14.656854 11.343146 16 13 16C 14.656854 16 16 14.656854 16 13C 16 11.343146 14.656854 10 13 10C 11.343146 10 10 11.343146 10 13"/>
      </g>
    </g>
    <g id="cp_1_column-1_1qaqlrv1cm7myp-stroke" fill="none" stroke-linecap="round" stroke-linejoin="round" stroke-miterlimit="4" stroke="#4f91fc" stroke-width="2">
      <g>
        <path d="M 13 16L 13 142"/>
      </g>
    </g>
    <g id="cp_1_column-1_1qaqlrv1cm7myp-fill" stroke="none" fill="none">
      <g>
        <path d="M 10 145C 10 146.656854 11.343146 148 13 148C 14.656854 148 16 146.656854 16 145C 16 143.343146 14.656854 142 13 142C 11.343146 142 10 143.343146 10 145"/>
      </g>
    </g>
    <g id="cp_1_column-1_1qaqlrv1cm7myp-stroke" fill="none" stroke-linecap="round" stroke-linejoin="round" stroke-miterlimit="4" stroke="#4f91fc" stroke-width="2">
      <g>
        <path d="M 10 145C 10 146.656854 11.343146 148 13 148C 14.656854 148 16 146.656854 16 145C 16 143.343146 14.656854 142 13 142C 11.343146 142 10 143.343146 10 145"/>
      </g>
    </g>
  </g>
  <g id="g-root-cp_3_column-3_1449k8r1cm7m6j-stroke-fill" data-item-order="-308854" transform="translate(239, 119)">
    <g id="cp_3_column-3_1449k8r1cm7m6j-fill" stroke="none" fill="none">
      <g>
        <path d="M 10 13C 10 14.656854 11.343146 16 13 16C 14.656854 16 16 14.656854 16 13C 16 11.343146 14.656854 10 13 10C 11.343146 10 10 11.343146 10 13"/>
      </g>
    </g>
    <g id="cp_3_column-3_1449k8r1cm7m6j-stroke" fill="none" stroke-linecap="round" stroke-linejoin="round" stroke-miterlimit="4" stroke="#43dd93" stroke-width="2">
      <g>
        <path d="M 10 13C 10 14.656854 11.343146 16 13 16C 14.656854 16 16 14.656854 16 13C 16 11.343146 14.656854 10 13 10C 11.343146 10 10 11.343146 10 13"/>
      </g>
    </g>
    <g id="cp_3_column-3_1449k8r1cm7m6j-stroke" fill="none" stroke-linecap="round" stroke-linejoin="round" stroke-miterlimit="4" stroke="#43dd93" stroke-width="2">
      <g>
        <path d="M 13 16L 13 142"/>
      </g>
    </g>
    <g id="cp_3_column-3_1449k8r1cm7m6j-fill" stroke="none" fill="none">
      <g>
        <path d="M 10 145C 10 146.656854 11.343146 148 13 148C 14.656854 148 16 146.656854 16 145C 16 143.343146 14.656854 142 13 142C 11.343146 142 10 143.343146 10 145"/>
      </g>
    </g>
    <g id="cp_3_column-3_1449k8r1cm7m6j-stroke" fill="none" stroke-linecap="round" stroke-linejoin="round" stroke-miterlimit="4" stroke="#43dd93" stroke-width="2">
      <g>
        <path d="M 10 145C 10 146.656854 11.343146 148 13 148C 14.656854 148 16 146.656854 16 145C 16 143.343146 14.656854 142 13 142C 11.343146 142 10 143.343146 10 145"/>
      </g>
    </g>
  </g>
  <g id="g-root-cp_5_column-5_mczjqz1cm7ojp-stroke-fill" data-item-order="-308838" transform="translate(419, 143)">
    <g id="cp_5_column-5_mczjqz1cm7ojp-fill" stroke="none" fill="none">
      <g>
        <path d="M 10 13C 10 14.656854 11.343146 16 13 16C 14.656854 16 16 14.656854 16 13C 16 11.343146 14.656854 10 13 10C 11.343146 10 10 11.343146 10 13"/>
      </g>
    </g>
    <g id="cp_5_column-5_mczjqz1cm7ojp-stroke" fill="none" stroke-linecap="round" stroke-linejoin="round" stroke-miterlimit="4" stroke="#ffe711" stroke-width="2">
      <g>
        <path d="M 10 13C 10 14.656854 11.343146 16 13 16C 14.656854 16 16 14.656854 16 13C 16 11.343146 14.656854 10 13 10C 11.343146 10 10 11.343146 10 13"/>
      </g>
    </g>
    <g id="cp_5_column-5_mczjqz1cm7ojp-stroke" fill="none" stroke-linecap="round" stroke-linejoin="round" stroke-miterlimit="4" stroke="#ffe711" stroke-width="2">
      <g>
        <path d="M 13 16L 13 118"/>
      </g>
    </g>
    <g id="cp_5_column-5_mczjqz1cm7ojp-fill" stroke="none" fill="none">
      <g>
        <path d="M 10 121C 10 122.656854 11.343146 124 13 124C 14.656854 124 16 122.656854 16 121C 16 119.343146 14.656854 118 13 118C 11.343146 118 10 119.343146 10 121"/>
      </g>
    </g>
    <g id="cp_5_column-5_mczjqz1cm7ojp-stroke" fill="none" stroke-linecap="round" stroke-linejoin="round" stroke-miterlimit="4" stroke="#ffe711" stroke-width="2">
      <g>
        <path d="M 10 121C 10 122.656854 11.343146 124 13 124C 14.656854 124 16 122.656854 16 121C 16 119.343146 14.656854 118 13 118C 11.343146 118 10 119.343146 10 121"/>
      </g>
    </g>
  </g>
  <g id="g-root-cp_1_g-1_925igr1cm7myv-stroke-fill" data-item-order="-308820" transform="translate(62, 266)">
    <g id="cp_1_g-1_925igr1cm7myv-fill" stroke="none" fill="none">
      <g>
        <path d="M 76 10L 10 10L 28 46L 10 82L 76 82L 94 46L 76 10Z"/>
      </g>
    </g>
    <g id="cp_1_g-1_925igr1cm7myv-stroke" fill="none" stroke-linecap="round" stroke-linejoin="round" stroke-miterlimit="4" stroke="#4f91fc" stroke-width="2">
      <g>
        <path d="M 76 10L 10 10L 28 46L 10 82L 76 82L 94 46L 76 10Z"/>
      </g>
    </g>
  </g>
  <g id="g-root-cp_2_g-2_1urt22j1cm7ocp-stroke-fill" data-item-order="-308812" transform="translate(152, 266)">
    <g id="cp_2_g-2_1urt22j1cm7ocp-fill" stroke="none" fill="none">
      <g>
        <path d="M 76 10L 10 10L 28 46L 10 82L 76 82L 94 46L 76 10Z"/>
      </g>
    </g>
    <g id="cp_2_g-2_1urt22j1cm7ocp-stroke" fill="none" stroke-linecap="round" stroke-linejoin="round" stroke-miterlimit="4" stroke="#1ac3fb" stroke-width="2">
      <g>
        <path d="M 76 10L 10 10L 28 46L 10 82L 76 82L 94 46L 76 10Z"/>
      </g>
    </g>
  </g>
  <g id="g-root-cp_3_g-3_1qcm1171cm7lz7-stroke-fill" data-item-order="-308806" transform="translate(242, 266)">
    <g id="cp_3_g-3_1qcm1171cm7lz7-fill" stroke="none" fill="none">
      <g>
        <path d="M 76 10L 10 10L 28 46L 10 82L 76 82L 94 46L 76 10Z"/>
      </g>
    </g>
    <g id="cp_3_g-3_1qcm1171cm7lz7-stroke" fill="none" stroke-linecap="round" stroke-linejoin="round" stroke-miterlimit="4" stroke="#43dd93" stroke-width="2">
      <g>
        <path d="M 76 10L 10 10L 28 46L 10 82L 76 82L 94 46L 76 10Z"/>
      </g>
    </g>
  </g>
  <g id="g-root-cp_4_g-4_1hgz0sb1cm7mrx-stroke-fill" data-item-order="-308800" transform="translate(332, 266)">
    <g id="cp_4_g-4_1hgz0sb1cm7mrx-fill" stroke="none" fill="none">
      <g>
        <path d="M 76 10L 10 10L 28 46L 10 82L 76 82L 94 46L 76 10Z"/>
      </g>
    </g>
    <g id="cp_4_g-4_1hgz0sb1cm7mrx-stroke" fill="none" stroke-linecap="round" stroke-linejoin="round" stroke-miterlimit="4" stroke="#a6da37" stroke-width="2">
      <g>
        <path d="M 76 10L 10 10L 28 46L 10 82L 76 82L 94 46L 76 10Z"/>
      </g>
    </g>
  </g>
  <g id="g-root-cp_5_g-5_1d15inv1cm7nk7-stroke-fill" data-item-order="-308794" transform="translate(422, 266)">
    <g id="cp_5_g-5_1d15inv1cm7nk7-fill" stroke="none" fill="none">
      <g>
        <path d="M 76 10L 10 10L 28 46L 10 82L 76 82L 94 46L 76 10Z"/>
      </g>
    </g>
    <g id="cp_5_g-5_1d15inv1cm7nk7-stroke" fill="none" stroke-linecap="round" stroke-linejoin="round" stroke-miterlimit="4" stroke="#ffe711" stroke-width="2">
      <g>
        <path d="M 76 10L 10 10L 28 46L 10 82L 76 82L 94 46L 76 10Z"/>
      </g>
    </g>
  </g>
  <g id="g-root-cp_6_g-6_18lc0jf1cm7och-stroke-fill" data-item-order="-308788" transform="translate(512, 266)">
    <g id="cp_6_g-6_18lc0jf1cm7och-fill" stroke="none" fill="none">
      <g>
        <path d="M 76 10L 10 10L 28 46L 10 82L 76 82L 94 46L 76 10Z"/>
      </g>
    </g>
    <g id="cp_6_g-6_18lc0jf1cm7och-stroke" fill="none" stroke-linecap="round" stroke-linejoin="round" stroke-miterlimit="4" stroke="#f79438" stroke-width="2">
      <g>
        <path d="M 76 10L 10 10L 28 46L 10 82L 76 82L 94 46L 76 10Z"/>
      </g>
    </g>
  </g>
  <g id="g-root-cp_2_column-2_vahz971cm7mrn-stroke-fill" data-item-order="-308780" transform="translate(149, 347)">
    <g id="cp_2_column-2_vahz971cm7mrn-fill" stroke="none" fill="none">
      <g>
        <path d="M 10 13C 10 14.656854 11.343146 16 13 16C 14.656854 16 16 14.656854 16 13C 16 11.343146 14.656854 10 13 10C 11.343146 10 10 11.343146 10 13"/>
      </g>
    </g>
    <g id="cp_2_column-2_vahz971cm7mrn-stroke" fill="none" stroke-linecap="round" stroke-linejoin="round" stroke-miterlimit="4" stroke="#1ac3fb" stroke-width="2">
      <g>
        <path d="M 10 13C 10 14.656854 11.343146 16 13 16C 14.656854 16 16 14.656854 16 13C 16 11.343146 14.656854 10 13 10C 11.343146 10 10 11.343146 10 13"/>
      </g>
    </g>
    <g id="cp_2_column-2_vahz971cm7mrn-stroke" fill="none" stroke-linecap="round" stroke-linejoin="round" stroke-miterlimit="4" stroke="#1ac3fb" stroke-width="2">
      <g>
        <path d="M 13 16L 13 154"/>
      </g>
    </g>
    <g id="cp_2_column-2_vahz971cm7mrn-fill" stroke="none" fill="none">
      <g>
        <path d="M 10 157C 10 158.656854 11.343146 160 13 160C 14.656854 160 16 158.656854 16 157C 16 155.343146 14.656854 154 13 154C 11.343146 154 10 155.343146 10 157"/>
      </g>
    </g>
    <g id="cp_2_column-2_vahz971cm7mrn-stroke" fill="none" stroke-linecap="round" stroke-linejoin="round" stroke-miterlimit="4" stroke="#1ac3fb" stroke-width="2">
      <g>
        <path d="M 10 157C 10 158.656854 11.343146 160 13 160C 14.656854 160 16 158.656854 16 157C 16 155.343146 14.656854 154 13 154C 11.343146 154 10 155.343146 10 157"/>
      </g>
    </g>
  </g>
  <g id="g-root-cp_4_column-4_hz1gvv1cm7ocl-stroke-fill" data-item-order="-308764" transform="translate(329, 347)">
    <g id="cp_4_column-4_hz1gvv1cm7ocl-fill" stroke="none" fill="none">
      <g>
        <path d="M 10 13C 10 14.656854 11.343146 16 13 16C 14.656854 16 16 14.656854 16 13C 16 11.343146 14.656854 10 13 10C 11.343146 10 10 11.343146 10 13"/>
      </g>
    </g>
    <g id="cp_4_column-4_hz1gvv1cm7ocl-stroke" fill="none" stroke-linecap="round" stroke-linejoin="round" stroke-miterlimit="4" stroke="#a6da37" stroke-width="2">
      <g>
        <path d="M 10 13C 10 14.656854 11.343146 16 13 16C 14.656854 16 16 14.656854 16 13C 16 11.343146 14.656854 10 13 10C 11.343146 10 10 11.343146 10 13"/>
      </g>
    </g>
    <g id="cp_4_column-4_hz1gvv1cm7ocl-stroke" fill="none" stroke-linecap="round" stroke-linejoin="round" stroke-miterlimit="4" stroke="#a6da37" stroke-width="2">
      <g>
        <path d="M 13 16L 13 142"/>
      </g>
    </g>
    <g id="cp_4_column-4_hz1gvv1cm7ocl-fill" stroke="none" fill="none">
      <g>
        <path d="M 10 145C 10 146.656854 11.343146 148 13 148C 14.656854 148 16 146.656854 16 145C 16 143.343146 14.656854 142 13 142C 11.343146 142 10 143.343146 10 145"/>
      </g>
    </g>
    <g id="cp_4_column-4_hz1gvv1cm7ocl-stroke" fill="none" stroke-linecap="round" stroke-linejoin="round" stroke-miterlimit="4" stroke="#a6da37" stroke-width="2">
      <g>
        <path d="M 10 145C 10 146.656854 11.343146 148 13 148C 14.656854 148 16 146.656854 16 145C 16 143.343146 14.656854 142 13 142C 11.343146 142 10 143.343146 10 145"/>
      </g>
    </g>
  </g>
  <g id="g-root-cp_6_column-6_940xq31cm7lzj-stroke-fill" data-item-order="-308748" transform="translate(509, 347)">
    <g id="cp_6_column-6_940xq31cm7lzj-fill" stroke="none" fill="none">
      <g>
        <path d="M 10 13C 10 14.656854 11.343146 16 13 16C 14.656854 16 16 14.656854 16 13C 16 11.343146 14.656854 10 13 10C 11.343146 10 10 11.343146 10 13"/>
      </g>
    </g>
    <g id="cp_6_column-6_940xq31cm7lzj-stroke" fill="none" stroke-linecap="round" stroke-linejoin="round" stroke-miterlimit="4" stroke="#f79438" stroke-width="2">
      <g>
        <path d="M 10 13C 10 14.656854 11.343146 16 13 16C 14.656854 16 16 14.656854 16 13C 16 11.343146 14.656854 10 13 10C 11.343146 10 10 11.343146 10 13"/>
      </g>
    </g>
    <g id="cp_6_column-6_940xq31cm7lzj-stroke" fill="none" stroke-linecap="round" stroke-linejoin="round" stroke-miterlimit="4" stroke="#f79438" stroke-width="2">
      <g>
        <path d="M 13 16L 13 118"/>
      </g>
    </g>
    <g id="cp_6_column-6_940xq31cm7lzj-fill" stroke="none" fill="none">
      <g>
        <path d="M 10 121C 10 122.656854 11.343146 124 13 124C 14.656854 124 16 122.656854 16 121C 16 119.343146 14.656854 118 13 118C 11.343146 118 10 119.343146 10 121"/>
      </g>
    </g>
    <g id="cp_6_column-6_940xq31cm7lzj-stroke" fill="none" stroke-linecap="round" stroke-linejoin="round" stroke-miterlimit="4" stroke="#f79438" stroke-width="2">
      <g>
        <path d="M 10 121C 10 122.656854 11.343146 124 13 124C 14.656854 124 16 122.656854 16 121C 16 119.343146 14.656854 118 13 118C 11.343146 118 10 119.343146 10 121"/>
      </g>
    </g>
  </g>
  <g id="g-root-tx_thethoma_1qduz7f1cm7o5l-stroke-fill" data-item-order="0" transform="translate(104, 50)">
    <g id="tx_thethoma_1qduz7f1cm7o5l-fill" stroke="none" fill="#f4f4f4">
      <g>
        <text style="font: 20px Roboto, sans-serif; white-space: pre;" font-size="20px" font-family="Roboto, sans-serif">
          <tspan x="12.17" y="34" dominant-baseline="ideographic">The Thomas F. Mantell UFO Incident: A Timeline of Events</tspan>
        </text>
      </g>
    </g>
  </g>
  <g id="g-root-tx_january7_18n7fsr1cm7ncy-stroke-fill" data-item-order="0" transform="translate(74, 122)">
    <g id="tx_january7_18n7fsr1cm7ncy-fill" stroke="none" fill="#4f91fc">
      <g>
        <text style="font: bold 20px Roboto, sans-serif; white-space: pre;" font-weight="bold" font-size="20px" font-family="Roboto, sans-serif">
          <tspan x="12" y="34" dominant-baseline="ideographic">January 7, </tspan>
          <tspan x="12" y="58" dominant-baseline="ideographic">1948, 1:15 PM</tspan>
        </text>
      </g>
    </g>
  </g>
  <g id="g-root-tx_initials_mgqe9n1cm7mkr-stroke-fill" data-item-order="0" transform="translate(74, 182)">
    <g id="tx_initials_mgqe9n1cm7mkr-fill" stroke="none" fill="#f4f4f4">
      <g>
        <text style="font: 15px Roboto, sans-serif; white-space: pre;" font-size="15px" font-family="Roboto, sans-serif">
          <tspan x="12" y="31" dominant-baseline="ideographic">Initial sightings of </tspan>
          <tspan x="12" y="49" dominant-baseline="ideographic">the UFO reported by </tspan>
          <tspan x="12" y="67" dominant-baseline="ideographic">civilians</tspan>
        </text>
      </g>
    </g>
  </g>
  <g id="g-root-tx_january7_4g39h71cm90ck-stroke-fill" data-item-order="0" transform="translate(254, 122)">
    <g id="tx_january7_4g39h71cm90ck-fill" stroke="none" fill="#43dd93">
      <g>
        <text style="font: bold 20px Roboto, sans-serif; white-space: pre;" font-weight="bold" font-size="20px" font-family="Roboto, sans-serif">
          <tspan x="12" y="34" dominant-baseline="ideographic">January 7, </tspan>
          <tspan x="12" y="58" dominant-baseline="ideographic">1948, 2:45 PM</tspan>
        </text>
      </g>
    </g>
  </g>
  <g id="g-root-tx_captainm_1ulkb7f1cm90y5-stroke-fill" data-item-order="0" transform="translate(254, 182)">
    <g id="tx_captainm_1ulkb7f1cm90y5-fill" stroke="none" fill="#f4f4f4">
      <g>
        <text style="font: 15px Roboto, sans-serif; white-space: pre;" font-size="15px" font-family="Roboto, sans-serif">
          <tspan x="12" y="31" dominant-baseline="ideographic">Captain Mantell and </tspan>
          <tspan x="12" y="49" dominant-baseline="ideographic">his wingmen begin </tspan>
          <tspan x="12" y="67" dominant-baseline="ideographic">their pursuit</tspan>
        </text>
      </g>
    </g>
  </g>
  <g id="g-root-tx_january7_1cuaapn1cm93ba-stroke-fill" data-item-order="0" transform="translate(434, 146)">
    <g id="tx_january7_1cuaapn1cm93ba-fill" stroke="none" fill="#ffe711">
      <g>
        <text style="font: bold 20px Roboto, sans-serif; white-space: pre;" font-weight="bold" font-size="20px" font-family="Roboto, sans-serif">
          <tspan x="12" y="34" dominant-baseline="ideographic">January 7, </tspan>
          <tspan x="12" y="58" dominant-baseline="ideographic">1948, 3:15 PM</tspan>
        </text>
      </g>
    </g>
  </g>
  <g id="g-root-tx_lossofco_qnt96j1cm92j3-stroke-fill" data-item-order="0" transform="translate(434, 206)">
    <g id="tx_lossofco_qnt96j1cm92j3-fill" stroke="none" fill="#f4f4f4">
      <g>
        <text style="font: 15px Roboto, sans-serif; white-space: pre;" font-size="15px" font-family="Roboto, sans-serif">
          <tspan x="12" y="28" dominant-baseline="ideographic">Loss of contact with </tspan>
          <tspan x="12" y="46" dominant-baseline="ideographic">Mantell's aircraft</tspan>
        </text>
      </g>
    </g>
  </g>
  <g id="g-root-tx_january7_8x5prv1cm91qg-stroke-fill" data-item-order="0" transform="translate(164, 362)">
    <g id="tx_january7_8x5prv1cm91qg-fill" stroke="none" fill="#1ac3fb">
      <g>
        <text style="font: bold 20px Roboto, sans-serif; white-space: pre;" font-weight="bold" font-size="20px" font-family="Roboto, sans-serif">
          <tspan x="12" y="34" dominant-baseline="ideographic">January 7, </tspan>
          <tspan x="12" y="58" dominant-baseline="ideographic">1948, 2:20 PM</tspan>
        </text>
      </g>
    </g>
  </g>
  <g id="g-root-tx_military_1umt9dn1cm9349-stroke-fill" data-item-order="0" transform="translate(164, 422)">
    <g id="tx_military_1umt9dn1cm9349-fill" stroke="none" fill="#f4f4f4">
      <g>
        <text style="font: 15px Roboto, sans-serif; white-space: pre;" font-size="15px" font-family="Roboto, sans-serif">
          <tspan x="12" y="28" dominant-baseline="ideographic">Military personnel at </tspan>
          <tspan x="12" y="46" dominant-baseline="ideographic">Godman Army </tspan>
          <tspan x="12" y="64" dominant-baseline="ideographic">Airfield observe the </tspan>
          <tspan x="12" y="82" dominant-baseline="ideographic">object</tspan>
        </text>
      </g>
    </g>
  </g>
  <g id="g-root-tx_january7_1cw5pyz1cm92bm-stroke-fill" data-item-order="0" transform="translate(344, 362)">
    <g id="tx_january7_1cw5pyz1cm92bm-fill" stroke="none" fill="#a6da37">
      <g>
        <text style="font: bold 20px Roboto, sans-serif; white-space: pre;" font-weight="bold" font-size="20px" font-family="Roboto, sans-serif">
          <tspan x="12" y="34" dominant-baseline="ideographic">January 7, </tspan>
          <tspan x="12" y="58" dominant-baseline="ideographic">1948, 3:10 PM</tspan>
        </text>
      </g>
    </g>
  </g>
  <g id="g-root-tx_mantellc_qpoofv1cm91jf-stroke-fill" data-item-order="0" transform="translate(344, 422)">
    <g id="tx_mantellc_qpoofv1cm91jf-fill" stroke="none" fill="#f4f4f4">
      <g>
        <text style="font: 15px Roboto, sans-serif; white-space: pre;" font-size="15px" font-family="Roboto, sans-serif">
          <tspan x="12" y="31" dominant-baseline="ideographic">Mantell continues </tspan>
          <tspan x="12" y="49" dominant-baseline="ideographic">climbing alone after </tspan>
          <tspan x="12" y="67" dominant-baseline="ideographic">wingmen turn back</tspan>
        </text>
      </g>
    </g>
  </g>
  <g id="g-root-tx_january7_de862j1cm934c-stroke-fill" data-item-order="0" transform="translate(524, 362)">
    <g id="tx_january7_de862j1cm934c-fill" stroke="none" fill="#f79438">
      <g>
        <text style="font: bold 20px Roboto, sans-serif; white-space: pre;" font-weight="bold" font-size="20px" font-family="Roboto, sans-serif">
          <tspan x="12" y="34" dominant-baseline="ideographic">January 7, </tspan>
          <tspan x="12" y="58" dominant-baseline="ideographic">1948, 5:00 PM</tspan>
        </text>
      </g>
    </g>
  </g>
  <g id="g-root-tx_discover_3e4sb1cm91jh-stroke-fill" data-item-order="0" transform="translate(524, 422)">
    <g id="tx_discover_3e4sb1cm91jh-fill" stroke="none" fill="#f4f4f4">
      <g>
        <text style="font: 15px Roboto, sans-serif; white-space: pre;" font-size="15px" font-family="Roboto, sans-serif">
          <tspan x="12" y="28" dominant-baseline="ideographic">Discovery of </tspan>
          <tspan x="12" y="46" dominant-baseline="ideographic">Mantell's wreckage</tspan>
        </text>
      </g>
    </g>
    <defs>
      <pattern id="crawlingPattern-0000001b" x="0" y="0" width="12" height="12" patternUnits="userSpaceOnUse" fill="#0000001b">
        <use href="#crawlingSymbol"/>
      </pattern>
      <symbol id="crawlingSymbol">
        <g>
          <path d="M -12.5 12.5 l 13 -13 l 6 0 l -13 13 Z M -0.5 12.5 l 13 -13 l 6 0 l -13 13 Z M 11.5 12.5 l 13 -13 l 6 0 l -13 13 Z"/>
        </g>
      </symbol>
      <pattern id="crawlingPattern-0060fba2" x="0" y="0" width="12" height="12" patternUnits="userSpaceOnUse" fill="#0060fba2">
        <use href="#crawlingSymbol"/>
      </pattern>
      <pattern id="crawlingPattern-00b15c75" x="0" y="0" width="12" height="12" patternUnits="userSpaceOnUse" fill="#00b15c75">
        <use href="#crawlingSymbol"/>
      </pattern>
      <pattern id="crawlingPattern-ddc700ff" x="0" y="0" width="12" height="12" patternUnits="userSpaceOnUse" fill="#ddc700ff">
        <use href="#crawlingSymbol"/>
      </pattern>
      <pattern id="crawlingPattern-00a3d9d9" x="0" y="0" width="12" height="12" patternUnits="userSpaceOnUse" fill="#00a3d9d9">
        <use href="#crawlingSymbol"/>
      </pattern>
      <pattern id="crawlingPattern-5c87005e" x="0" y="0" width="12" height="12" patternUnits="userSpaceOnUse" fill="#5c87005e">
        <use href="#crawlingSymbol"/>
      </pattern>
      <pattern id="crawlingPattern-f17400d3" x="0" y="0" width="12" height="12" patternUnits="userSpaceOnUse" fill="#f17400d3">
        <use href="#crawlingSymbol"/>
      </pattern>
    </defs>
  </g>
</svg>
