<?xml version='1.0' encoding='utf-8'?>
<svg xmlns="http://www.w3.org/2000/svg" xmlns:xlink="http://www.w3.org/1999/xlink" width="816" height="576" viewBox="0 0 816 576" style="fill:none;stroke:none;fill-rule:evenodd;clip-rule:evenodd;stroke-linecap:round;stroke-linejoin:round;stroke-miterlimit:1.5;" version="1.1">
  <style class="text-font-style fontImports" data-font-family="Roboto">@import url('https://fonts.googleapis.com/css2?family=Roboto:wght@400;700&amp;display=block');</style>
  <rect x="0" y="0" width="816" height="576" fill="#252a34" stroke="none" id="programmatic_background"/>
  <g id="g-root-tf_1upx3vf1ay1mo1-stroke-fill" data-item-order="-430560" transform="translate(18, 12)">
    <g id="tf_1upx3vf1ay1mo1-fill" stroke="none" fill="#2c2c2c">
      <g>
        <path d="M 0 0L 780 0L 780 552L 0 552Z"/>
      </g>
    </g>
    <defs>
      <pattern id="crawlingPattern-0060fb20" x="0" y="0" width="12" height="12" patternUnits="userSpaceOnUse" fill="#0060fb20">
        <use href="#crawlingSymbol"/>
      </pattern>
      <symbol id="crawlingSymbol">
        <g>
          <path d="M -12.5 12.5 l 13 -13 l 6 0 l -13 13 Z M -0.5 12.5 l 13 -13 l 6 0 l -13 13 Z M 11.5 12.5 l 13 -13 l 6 0 l -13 13 Z"/>
        </g>
      </symbol>
      <pattern id="crawlingPattern-00d16d21" x="0" y="0" width="12" height="12" patternUnits="userSpaceOnUse" fill="#00d16d21">
        <use href="#crawlingSymbol"/>
      </pattern>
      <pattern id="crawlingPattern-8ed00028" x="0" y="0" width="12" height="12" patternUnits="userSpaceOnUse" fill="#8ed00028">
        <use href="#crawlingSymbol"/>
      </pattern>
      <pattern id="crawlingPattern-0000001b" x="0" y="0" width="12" height="12" patternUnits="userSpaceOnUse" fill="#0000001b">
        <use href="#crawlingSymbol"/>
      </pattern>
      <pattern id="crawlingPattern-00b15c75" x="0" y="0" width="12" height="12" patternUnits="userSpaceOnUse" fill="#00b15c75">
        <use href="#crawlingSymbol"/>
      </pattern>
      <pattern id="crawlingPattern-00ff873a" x="0" y="0" width="12" height="12" patternUnits="userSpaceOnUse" fill="#00ff873a">
        <use href="#crawlingSymbol"/>
      </pattern>
      <pattern id="crawlingPattern-0060fba2" x="0" y="0" width="12" height="12" patternUnits="userSpaceOnUse" fill="#0060fba2">
        <use href="#crawlingSymbol"/>
      </pattern>
      <pattern id="crawlingPattern-0059ff37" x="0" y="0" width="12" height="12" patternUnits="userSpaceOnUse" fill="#0059ff37">
        <use href="#crawlingSymbol"/>
      </pattern>
      <pattern id="crawlingPattern-5c87005e" x="0" y="0" width="12" height="12" patternUnits="userSpaceOnUse" fill="#5c87005e">
        <use href="#crawlingSymbol"/>
      </pattern>
      <pattern id="crawlingPattern-acff003c" x="0" y="0" width="12" height="12" patternUnits="userSpaceOnUse" fill="#acff003c">
        <use href="#crawlingSymbol"/>
      </pattern>
      <pattern id="crawlingPattern-5f5f5f1a" x="0" y="0" width="12" height="12" patternUnits="userSpaceOnUse" fill="#5f5f5f1a">
        <use href="#crawlingSymbol"/>
      </pattern>
    </defs>
  </g>
  <g id="g-root-cp_0_g-0_dg2z8b1ayij9o-stroke-fill" data-item-order="-262629" transform="translate(56.130859375, 248.5)">
    <g id="cp_0_g-0_dg2z8b1ayij9o-stroke" fill="none" stroke-linecap="round" stroke-linejoin="round" stroke-miterlimit="4" stroke="#f4f4f4" stroke-width="2">
      <g>
        <path d="M 106 51L 262 51M 286 51L 442 51M 274 63.5L 274 93M 454 10L 454 39.5M 465.869141 51.5L 537.869141 51.5M 10 51L 82 51M 94 10L 94 39.5"/>
      </g>
    </g>
  </g>
  <g id="g-root-cp_1_g-1_58xy31ayihou-stroke-fill" data-item-order="-262614" transform="translate(95.1309814453125, 125)">
    <g id="cp_1_g-1_58xy31ayihou-fill" stroke="none" fill="#4f91fc">
      <g>
        <path d="M 100 55C 100 66.244 94.5 77.5875 89 86L 55.816 132.848C 55.4175 133.411 54.5825 133.411 54.184 132.848L 21 86C 14.5 77 10 66.7284 10 55C 10 30.1472 30.1472 10 55 10C 79.8528 10 100 30.1472 100 55ZM 55 91C 74.8822 91 91 74.8822 91 55C 91 35.1177 74.8822 19 55 19C 35.1177 19 19 35.1177 19 55C 19 74.8822 35.1177 91 55 91Z"/>
      </g>
    </g>
    <g id="cp_1_g-1_58xy31ayihou-stroke" fill="none" stroke-linecap="round" stroke-linejoin="round" stroke-miterlimit="4" stroke="#2c2c2c" stroke-width="2">
      <g>
        <path d="M 100 55C 100 66.244 94.5 77.5875 89 86L 55.816 132.848C 55.4175 133.4106 54.5825 133.4106 54.184 132.848L 21 86C 14.5 77 10 66.7284 10 55C 10 30.1472 30.1472 10 55 10C 79.8528 10 100 30.1472 100 55ZM 55 91C 74.8822 91 91 74.8822 91 55C 91 35.1177 74.8822 19 55 19C 35.1177 19 19 35.1177 19 55C 19 74.8822 35.1177 91 55 91Z"/>
      </g>
    </g>
    <g id="cp_1_g-1_58xy31ayihou-fill" stroke="none" fill="#4f91fc">
      <g>
        <path d="M 55 187C 61.6274 187 67 181.6274 67 175C 67 168.3726 61.6274 163 55 163C 48.3726 163 43 168.3726 43 175C 43 181.6274 48.3726 187 55 187ZM 55 181C 58.3137 181 61 178.3137 61 175C 61 171.6863 58.3137 169 55 169C 51.6863 169 49 171.6863 49 175C 49 178.3137 51.6863 181 55 181Z"/>
      </g>
    </g>
    <g id="cp_1_g-1_58xy31ayihou-stroke" fill="none" stroke-linecap="round" stroke-linejoin="round" stroke-miterlimit="4" stroke="#2c2c2c" stroke-width="2">
      <g>
        <path d="M 55 187C 61.6274 187 67 181.6274 67 175C 67 168.3726 61.6274 163 55 163C 48.3726 163 43 168.3726 43 175C 43 181.6274 48.3726 187 55 187ZM 55 181C 58.3137 181 61 178.3137 61 175C 61 171.6863 58.3137 169 55 169C 51.6863 169 49 171.6863 49 175C 49 178.3137 51.6863 181 55 181Z"/>
      </g>
    </g>
  </g>
  <g id="g-root-cp_2_g-2_1uqjhsr1ayiia1-stroke-fill" data-item-order="-262610" transform="translate(275.1309814453125, 278)">
    <g id="cp_2_g-2_1uqjhsr1ayiia1-fill" stroke="none" fill="#43dd93">
      <g>
        <path d="M 100 142.000369C 100 130.756469 94.5 119.412869 89 111.000369L 55.816 64.152469C 55.4175 63.589769 54.5825 63.589769 54.184 64.152469L 21 111.000369C 14.5 120.000369 10 130.271969 10 142.000369C 10 166.853469 30.1472 187.000469 55 187.000469C 79.8528 187.000469 100 166.853469 100 142.000369ZM 55 106.000369C 74.8822 106.000369 91 122.118169 91 142.000369C 91 161.882669 74.8822 178.000469 55 178.000469C 35.1177 178.000469 19 161.882669 19 142.000369C 19 122.118169 35.1177 106.000369 55 106.000369Z"/>
      </g>
    </g>
    <g id="cp_2_g-2_1uqjhsr1ayiia1-stroke" fill="none" stroke-linecap="round" stroke-linejoin="round" stroke-miterlimit="4" stroke="#2c2c2c" stroke-width="2">
      <g>
        <path d="M 100 142.000369C 100 130.756469 94.5 119.412869 89 111.000369L 55.816 64.152469C 55.4175 63.589769 54.5825 63.589769 54.184 64.152469L 21 111.000369C 14.5 120.000369 10 130.271969 10 142.000369C 10 166.853269 30.1472 187.000369 55 187.000369C 79.8528 187.000369 100 166.853269 100 142.000369ZM 55 106.000369C 74.8822 106.000369 91 122.118169 91 142.000369C 91 161.882669 74.8822 178.000369 55 178.000369C 35.1177 178.000369 19 161.882669 19 142.000369C 19 122.118169 35.1177 106.000369 55 106.000369Z"/>
      </g>
    </g>
    <g id="cp_2_g-2_1uqjhsr1ayiia1-fill" stroke="none" fill="#43dd93">
      <g>
        <path d="M 55 34C 61.6274 34 67 28.6274 67 22C 67 15.3726 61.6274 10 55 10C 48.3726 10 43 15.3726 43 22C 43 28.6274 48.3726 34 55 34ZM 55 28C 58.3137 28 61 25.3137 61 22C 61 18.6863 58.3137 16 55 16C 51.6863 16 49 18.6863 49 22C 49 25.3137 51.6863 28 55 28Z"/>
      </g>
    </g>
    <g id="cp_2_g-2_1uqjhsr1ayiia1-stroke" fill="none" stroke-linecap="round" stroke-linejoin="round" stroke-miterlimit="4" stroke="#2c2c2c" stroke-width="2">
      <g>
        <path d="M 55 34C 61.6274 34 67 28.6274 67 22C 67 15.3726 61.6274 10 55 10C 48.3726 10 43 15.3726 43 22C 43 28.6274 48.3726 34 55 34ZM 55 28C 58.3137 28 61 25.3137 61 22C 61 18.6863 58.3137 16 55 16C 51.6863 16 49 18.6863 49 22C 49 25.3137 51.6863 28 55 28Z"/>
      </g>
    </g>
  </g>
  <g id="g-root-cp_3_g-3_1qapzob1ayij2c-stroke-fill" data-item-order="-262604" transform="translate(455.1310119628906, 125)">
    <g id="cp_3_g-3_1qapzob1ayij2c-fill" stroke="none" fill="#a6da37">
      <g>
        <path d="M 100 55C 100 66.244 94.5 77.5875 89 86L 55.816 132.848C 55.4175 133.411 54.5825 133.411 54.184 132.848L 21 86C 14.5 77 10 66.7284 10 55C 10 30.1472 30.1472 10 55 10C 79.8528 10 100 30.1472 100 55ZM 55 91C 74.8822 91 91 74.8822 91 55C 91 35.1177 74.8822 19 55 19C 35.1177 19 19 35.1177 19 55C 19 74.8822 35.1177 91 55 91Z"/>
      </g>
    </g>
    <g id="cp_3_g-3_1qapzob1ayij2c-stroke" fill="none" stroke-linecap="round" stroke-linejoin="round" stroke-miterlimit="4" stroke="#2c2c2c" stroke-width="2">
      <g>
        <path d="M 100 55C 100 66.244 94.5 77.5875 89 86L 55.816 132.848C 55.4175 133.4106 54.5825 133.4106 54.184 132.848L 21 86C 14.5 77 10 66.7284 10 55C 10 30.1472 30.1472 10 55 10C 79.8528 10 100 30.1472 100 55ZM 55 91C 74.8822 91 91 74.8822 91 55C 91 35.1177 74.8822 19 55 19C 35.1177 19 19 35.1177 19 55C 19 74.8822 35.1177 91 55 91Z"/>
      </g>
    </g>
    <g id="cp_3_g-3_1qapzob1ayij2c-fill" stroke="none" fill="#a6da37">
      <g>
        <path d="M 55 187C 61.6274 187 67 181.6274 67 175C 67 168.3726 61.6274 163 55 163C 48.3726 163 43 168.3726 43 175C 43 181.6274 48.3726 187 55 187ZM 55 181C 58.3137 181 61 178.3137 61 175C 61 171.6863 58.3137 169 55 169C 51.6863 169 49 171.6863 49 175C 49 178.3137 51.6863 181 55 181Z"/>
      </g>
    </g>
    <g id="cp_3_g-3_1qapzob1ayij2c-stroke" fill="none" stroke-linecap="round" stroke-linejoin="round" stroke-miterlimit="4" stroke="#2c2c2c" stroke-width="2">
      <g>
        <path d="M 55 187C 61.6274 187 67 181.6274 67 175C 67 168.3726 61.6274 163 55 163C 48.3726 163 43 168.3726 43 175C 43 181.6274 48.3726 187 55 187ZM 55 181C 58.3137 181 61 178.3137 61 175C 61 171.6863 58.3137 169 55 169C 51.6863 169 49 171.6863 49 175C 49 178.3137 51.6863 181 55 181Z"/>
      </g>
    </g>
  </g>
  <g id="g-root-ic_malf_v8lxwb1ayijuo-stroke-fill" data-item-order="-2304" transform="translate(296.1310119628906, 386.0000305175781)">
    <g id="ic_malf_v8lxwb1ayijuo-fill" stroke="none" fill="#43dd93">
      <g>
        <path d="M 45.245975 11.611999C 45.845978 11.611999 46.445976 12.011999 46.845978 12.611999L 56.84597 31.811987C 57.245968 32.411987 57.245968 33.011986 56.84597 33.611984C 56.445969 34.011982 55.84597 34.411983 55.245968 34.411983L 35.045982 34.411983C 34.445984 34.411983 33.845985 34.211983 33.445984 33.611984C 33.245987 33.011986 33.045986 32.411987 33.445984 31.811987L 43.645977 12.611999C 43.845978 12.011999 44.445976 11.611999 45.245975 11.611999ZM 46.745975 20.211992C 46.745979 19.383568 46.074406 18.711994 45.245979 18.711994C 44.417549 18.711994 43.745979 19.383568 43.745979 20.211992L 43.745975 23.21199C 43.745979 24.040419 44.417549 24.71199 45.245979 24.71199C 46.074406 24.71199 46.745979 24.040419 46.745979 23.211992L 46.745975 20.211992ZM 47.495975 29.211987C 47.495975 30.454628 46.488617 31.461987 45.245975 31.461987C 44.003338 31.461987 42.995975 30.454628 42.995975 29.211987C 42.995975 27.969349 44.003338 26.961988 45.245975 26.961988C 46.488617 26.961988 47.495975 27.969349 47.495975 29.211987ZM 29.321987 32.015987C 29.661987 32.015987 29.967987 32.079987 30.233986 32.199986C 30.179403 33.004063 30.304424 33.810207 30.599987 34.559982C 30.685987 34.813984 30.801987 35.053986 30.949987 35.275982C 31.069986 35.451984 31.191986 35.615982 31.321987 35.765984L 31.321987 48.499973L 25.321989 48.499973L 25.321989 34.015984C 25.321989 32.815987 26.121988 32.015987 27.321989 32.015987L 29.321987 32.015987ZM 44.487976 57.999969C 45.779976 57.999969 46.641975 57.13797 46.641975 55.843971L 46.641975 53.689968C 46.641975 52.395973 45.781979 51.533974 44.485977 51.533974L 12.157999 51.533974C 10.863999 51.533974 10.002 52.393974 10.002 53.689968L 10.002 55.843971C 10 57.139969 10.862 57.999969 12.155998 57.999969L 44.487976 57.999969ZM 34.319984 37.363983L 34.319984 48.499973L 34.319984 48.533974L 42.811977 48.533974C 42.649433 44.122913 40.481018 40.027676 36.923985 37.413982L 35.043983 37.413982C 34.801804 37.41357 34.559921 37.396866 34.319984 37.363983ZM 22.319992 48.499973L 22.319992 48.533974L 13.829997 48.533974C 14.015997 42.981976 17.409994 38.123981 22.321991 35.873985L 22.321991 48.499973Z"/>
      </g>
    </g>
  </g>
  <g id="g-root-ic_ufo_vbqbbv1ayjxn1-stroke-fill" data-item-order="-2304" transform="translate(116.1309814453125, 146)">
    <g id="ic_ufo_vbqbbv1ayjxn1-fill" stroke="none" fill="#4f91fc">
      <g>
        <path d="M 50.779999 39.48C 50.49268 38.408726 49.391396 37.77314 48.32008 38.060295C 47.24876 38.34745 46.613007 39.448639 46.899998 40.519997L 51.139999 56.52C 51.30584 57.231823 51.846767 57.796497 52.550816 57.992748C 53.25486 58.188999 54.009895 57.985573 54.520046 57.462177C 55.030201 56.938786 55.214222 56.178791 55 55.48ZM 19.82 38C 18.754391 37.720551 17.663445 38.355446 17.380001 39.419998L 13.14 55.419998C 12.925778 56.11879 13.109798 56.878784 13.619952 57.40218C 14.130106 57.925571 14.885139 58.129002 15.589186 57.932751C 16.293234 57.7365 16.83416 57.171825 17 56.459999L 21.24 40.459999C 21.380281 39.945396 21.309196 39.39608 21.042547 38.934139C 20.775898 38.472198 20.335775 38.135902 19.82 38ZM 38 49.860001C 39.203453 49.748383 40.123898 48.738621 40.123898 47.529999C 40.123898 46.321381 39.203453 45.311615 38 45.200001L 31.08 45.200001C 29.876545 45.311615 28.9561 46.321381 28.9561 47.529999C 28.9561 48.738621 29.876545 49.748383 31.08 49.860001L 32.239998 49.860001L 32.239998 50.18L 29.200001 54.299999C 28.437847 55.332775 28.657228 56.787849 29.690001 57.550003C 30.722773 58.312153 32.177849 58.092773 32.940002 57.060001L 34.599998 54.82L 36.200001 57.080002C 36.978722 58.129345 38.460663 58.348724 39.510002 57.570004C 40.559341 56.791279 40.778725 55.309341 40 54.260002L 37 50.16L 37 49.860001ZM 38 40.239998C 38.008102 38.822594 37.160507 37.540237 35.85331 36.992199C 34.546112 36.44416 33.03743 36.738647 32.032288 37.738045C 31.027142 38.73745 30.724012 40.244415 31.264553 41.554733C 31.805094 42.865051 33.082569 43.719978 34.5 43.720001C 35.426414 43.725323 36.316711 43.361034 36.973671 42.707829C 37.63063 42.054626 38.000015 41.166428 38 40.239998ZM 56.959999 29C 57.256584 29.003077 57.540375 28.879374 57.739998 28.659998C 57.943413 28.447105 58.032631 28.149708 57.98 27.860001C 57.289928 23.844007 53.774273 20.931278 49.700001 21L 18.299999 21C 14.218212 20.921293 10.691198 23.836391 10 27.860001C 9.947369 28.149708 10.036588 28.447105 10.24 28.66C 10.439621 28.879374 10.723413 29.003077 11.02 28.999998L 13.28 29C 13.484316 29.002653 13.666457 29.12936 13.74 29.32C 13.899547 29.722376 14.079787 30.116236 14.280001 30.500002C 16.065369 33.888172 19.580214 36.009026 23.41 36.009026C 27.239786 36.009026 30.754631 33.888172 32.540001 30.5C 32.740211 30.116236 32.920456 29.722376 33.080002 29.320002C 33.148697 29.125612 33.333855 28.996807 33.540001 28.999998L 34.459999 29C 34.666145 28.996807 34.851299 29.125612 34.919998 29.32C 35.079548 29.722376 35.259789 30.116236 35.459999 30.500002C 37.245369 33.888172 40.760216 36.009026 44.59 36.009026C 48.419785 36.009026 51.934631 33.888172 53.720001 30.5C 53.920216 30.116236 54.100456 29.722376 54.260002 29.320002C 54.328697 29.125612 54.513851 28.996807 54.719997 28.999998ZM 23.4 32C 21.569786 31.983295 19.832561 31.191006 18.619999 29.82C 18.522778 29.660299 18.522778 29.4597 18.619999 29.299999C 18.686577 29.141253 18.830135 29.027918 19 29L 27.799999 29C 27.999443 28.999306 28.180223 29.117207 28.26 29.299999C 28.367369 29.456707 28.367369 29.663294 28.26 29.82C 27.033712 31.218311 25.259802 32.014015 23.400002 32ZM 44.599998 32C 42.768101 31.990932 41.027901 31.197287 39.82 29.82C 39.712631 29.663294 39.712631 29.456707 39.82 29.299999C 39.899776 29.117207 40.080559 28.999306 40.279999 29L 49.080002 29C 49.272152 29.007078 49.443218 29.123714 49.52 29.299999C 49.627369 29.456707 49.627369 29.663294 49.52 29.82C 48.280025 31.234344 46.480667 32.031624 44.600002 32ZM 34 10C 28.477455 9.948547 23.296272 12.666791 20.200001 17.24C 20.121464 17.397415 20.121464 17.582584 20.200001 17.74C 20.291019 17.897736 20.457924 17.996361 20.639999 18L 47.5 18C 47.703251 18.01899 47.898815 17.917297 47.999996 17.74C 48.078533 17.582584 48.078533 17.397415 48 17.24C 44.864662 12.606876 39.593025 9.880686 34 10Z"/>
      </g>
    </g>
  </g>
  <g id="g-root-ic_docu_mg3e8r1axyvi8-stroke-fill" data-item-order="-2304" transform="translate(476.1310119628906, 146)">
    <g id="ic_docu_mg3e8r1axyvi8-fill" stroke="none" fill="#a6da37">
      <g>
        <path d="M 36.099983 17.999994L 23.099991 17.999994C 21.995422 17.999994 21.099993 18.895424 21.099993 19.999994C 21.099993 21.104563 21.995422 21.999992 23.099991 21.999992L 36.099983 21.999992C 37.204552 21.999992 38.099983 21.104563 38.099983 19.999994C 38.099983 18.895424 37.204552 17.999994 36.099983 17.999994ZM 36.099983 25.999989L 23.099991 25.999989C 21.995422 25.999989 21.099993 26.895418 21.099993 27.999989C 21.099993 29.104557 21.995422 29.999987 23.099991 29.999987L 36.099983 29.999987C 37.204552 29.999987 38.099983 29.104557 38.099983 27.999989C 38.099983 26.895418 37.204552 25.999989 36.099983 25.999989ZM 29.319986 33.999985L 23.099991 33.999985C 21.995422 33.999985 21.099993 34.895412 21.099993 35.999985C 21.099993 37.104553 21.995422 37.999981 23.099991 37.999981L 29.319986 37.999981C 30.424557 37.999981 31.319986 37.104553 31.319986 35.999985C 31.319986 34.895412 30.424557 33.999985 29.319986 33.999985ZM 48.099972 10L 22.099993 10C 17.681717 10 14.099998 13.581719 14.099998 17.999994L 14.099998 37.999981C 14.099998 39.104549 14.995427 39.999981 16.099997 39.999981C 17.204565 39.999981 18.099995 39.104549 18.099995 37.999981L 18.099995 17.999994C 18.099995 15.790857 19.890854 13.999997 22.099993 13.999997L 42.099976 13.999997C 41.763058 14.790751 41.586311 15.640478 41.579983 16.499996L 41.579979 37.999981C 41.579979 39.104549 42.475407 39.999981 43.579979 39.999981C 44.684547 39.999981 45.579979 39.104549 45.579979 37.999981L 45.579979 21.499992L 52.579975 21.499992C 53.68454 21.499992 54.579971 20.604563 54.579971 19.499994L 54.579971 16.499996C 54.579987 12.917943 51.682014 10.011022 48.099976 10ZM 20.499992 45.999977C 21.328421 45.999977 21.999992 45.328403 21.999992 44.499977C 21.999992 43.671551 21.328421 42.999977 20.499992 42.999977L 14.499997 42.999977C 13.676073 43.01075 13.01077 43.676052 12.999998 44.499977L 12.999998 56.499969C 13.01077 57.323891 13.676073 57.989197 14.499997 57.999969L 20.499992 57.999969C 21.323917 57.989197 21.98922 57.323891 21.999992 56.499969L 21.999992 50.499973C 21.98922 49.676048 21.323917 49.010742 20.499992 48.999973L 18.499994 48.999973C 17.671568 48.999973 16.999996 49.671547 16.999996 50.499973C 16.999996 51.328403 17.671568 51.999973 18.499994 51.999973L 18.999994 51.999973L 18.999994 54.999969L 15.999996 54.999969L 15.999996 45.999977ZM 38.759983 42.999977L 36.499981 42.999977C 35.67606 43.01075 35.010754 43.676052 34.999985 44.499977L 34.999985 56.499969C 34.999985 57.3284 35.671558 57.999969 36.499981 57.999969C 37.328411 57.999969 37.999981 57.3284 37.999981 56.499969L 37.999981 53.499973L 38.759983 53.499973C 41.533825 53.328686 43.695786 51.029102 43.695786 48.249973C 43.695786 45.470852 41.533825 43.171265 38.759983 42.999977ZM 38.759983 50.499973L 37.999981 50.499973L 37.999981 45.999977L 38.759983 45.999977C 39.920715 46.109535 40.807613 47.084084 40.807613 48.249973C 40.807613 49.415867 39.920715 50.390419 38.759983 50.499973ZM 51.999973 52.959972C 54.218655 51.892776 55.400257 49.429382 54.843849 47.031078C 54.287441 44.632771 52.141911 42.941273 49.679974 42.95998L 47.499977 42.959976C 46.676052 42.970749 46.01075 43.636051 45.999977 44.459976L 45.999977 56.459969C 45.999977 57.288399 46.671551 57.959972 47.499977 57.959972C 48.3284 57.959972 48.999973 57.288399 48.999973 56.459972L 48.999973 54.119968L 52.439972 57.559971C 53.025608 58.144878 53.974335 58.144878 54.559971 57.559971C 55.144878 56.974335 55.144878 56.025604 54.559971 55.439972ZM 51.999973 48.239975C 52.00531 48.837517 51.771667 49.412418 51.351006 49.836838C 50.930344 50.261253 50.35754 50.499996 49.759972 50.499973L 48.999973 50.499973L 48.999973 45.999977L 49.759972 45.999977C 50.997089 45.999977 51.999973 47.002857 51.999973 48.239975ZM 25.49999 42.999977C 24.676065 43.01075 24.010763 43.676052 23.99999 44.499977L 23.99999 56.499969C 24.010763 57.323891 24.676065 57.989197 25.49999 57.999969C 29.642122 57.999973 32.999985 54.642109 32.999985 50.499977C 32.999985 46.357845 29.642122 42.999981 25.49999 42.999981ZM 26.999989 54.739971L 26.999989 46.259975C 28.794096 46.897839 29.992538 48.595848 29.992538 50.499973C 29.992538 52.404099 28.794096 54.102112 26.999989 54.739971Z"/>
      </g>
    </g>
  </g>
  <g id="g-root-tx_thetrans_1czvye31ayihhj-stroke-fill" data-item-order="0" transform="translate(50, 50)">
    <g id="tx_thetrans_1czvye31ayihhj-fill" stroke="none" fill="#f4f4f4">
      <g>
        <text style="font: 20px Roboto, sans-serif; white-space: pre;" font-size="20px" font-family="Roboto, sans-serif">
          <tspan x="13.7" y="34" dominant-baseline="ideographic">The Trans-en-Provence UFO Encounter: A Timeline of Events</tspan>
        </text>
      </g>
    </g>
  </g>
  <g id="g-root-tx_january9_940bmj1ayjvgh-stroke-fill" data-item-order="0" transform="translate(248, 134)">
    <g id="tx_january9_940bmj1ayjvgh-fill" stroke="none" fill="#43dd93">
      <g>
        <text style="font: bold 20px Roboto, sans-serif; white-space: pre;" font-weight="bold" font-size="20px" font-family="Roboto, sans-serif">
          <tspan x="15.6" y="34" dominant-baseline="ideographic">January 9, 1981</tspan>
        </text>
      </g>
    </g>
  </g>
  <g id="g-root-tx_nicolare_8dbdn1ayjw96-stroke-fill" data-item-order="0" transform="translate(236, 170)">
    <g id="tx_nicolare_8dbdn1ayjw96-fill" stroke="none" fill="#dffff0">
      <g>
        <text style="font: 15px Roboto, sans-serif; white-space: pre;" font-size="15px" font-family="Roboto, sans-serif">
          <tspan x="32.6" y="28" dominant-baseline="ideographic">Nicolaï reports the </tspan>
          <tspan x="15.02" y="46" dominant-baseline="ideographic">incident to gendarmerie</tspan>
        </text>
      </g>
    </g>
  </g>
  <g id="g-root-tx_january8_1ly0uzf1ayjxmz-stroke-fill" data-item-order="0" transform="translate(56, 374)">
    <g id="tx_january8_1ly0uzf1ayjxmz-fill" stroke="none" fill="#4f91fc">
      <g>
        <text style="font: bold 20px Roboto, sans-serif; white-space: pre;" font-weight="bold" font-size="20px" font-family="Roboto, sans-serif">
          <tspan x="16.65" y="34" dominant-baseline="ideographic">January 8, 1981, </tspan>
          <tspan x="53.79" y="58" dominant-baseline="ideographic">5:00 PM</tspan>
        </text>
      </g>
    </g>
  </g>
  <g id="g-root-tx_renatoni_18n6tp71ayjw24-stroke-fill" data-item-order="0" transform="translate(104, 434)">
    <g id="tx_renatoni_18n6tp71ayjw24-fill" stroke="none" fill="#ebf2ff">
      <g>
        <text style="font: 15px Roboto, sans-serif; white-space: pre;" font-size="15px" font-family="Roboto, sans-serif">
          <tspan x="21.52" y="28" dominant-baseline="ideographic">Renato Nicolaï </tspan>
          <tspan x="14.41" y="46" dominant-baseline="ideographic">witnesses a UFO</tspan>
        </text>
      </g>
    </g>
  </g>
  <g id="g-root-tx_1983_18mkfrv1axyvim-stroke-fill" data-item-order="0" transform="translate(524, 374)">
    <g id="tx_1983_18mkfrv1axyvim-fill" stroke="none" fill="#a6da37">
      <g>
        <text style="font: bold 20px Roboto, sans-serif; white-space: pre;" font-weight="bold" font-size="20px" font-family="Roboto, sans-serif">
          <tspan x="17.05" y="34" dominant-baseline="ideographic">1983</tspan>
        </text>
      </g>
    </g>
  </g>
  <g id="g-root-tx_gepanpub_vbqehn1axytxr-stroke-fill" data-item-order="0" transform="translate(416, 410)">
    <g id="tx_gepanpub_vbqehn1axytxr-fill" stroke="none" fill="#f2ffd7">
      <g>
        <text style="font: 15px Roboto, sans-serif; white-space: pre;" font-size="15px" font-family="Roboto, sans-serif">
          <tspan x="14.55" y="28" dominant-baseline="ideographic">GEPAN publishes initial </tspan>
          <tspan x="65.56" y="46" dominant-baseline="ideographic">findings</tspan>
        </text>
      </g>
    </g>
  </g>
</svg>
