<svg width="912" height="576" viewBox="0 0 912 576" style="fill:none;stroke:none;fill-rule:evenodd;clip-rule:evenodd;stroke-linecap:round;stroke-linejoin:round;stroke-miterlimit:1.5;" version="1.1" xmlns="http://www.w3.org/2000/svg" xmlns:xlink="http://www.w3.org/1999/xlink"><style class="text-font-style fontImports" data-font-family="Roboto">@import url('https://fonts.googleapis.com/css2?family=Roboto:wght@400;700&amp;display=block');</style><g id="g-root-tf_v64kij1c1ynt2-stroke-fill" data-item-order="-490176" transform="translate(12, 12)"></g><g id="g-root-cp_5_g-5_140ijff1c29tl8-stroke-fill" data-item-order="-383030" transform="translate(230, 362)"><g id="cp_5_g-5_140ijff1c29tl8-fill" stroke="none" fill="none"><g><path d="M 226 34L 226 10L 305.5 82L 226 154L 226 130L 131 130C 61.9645 130 10 79.0356 10 10.000008L 106.0001 10C 106.0001 23.8071 117.193 33.9999 131 34L 226 34Z"></path></g></g><g id="cp_5_g-5_140ijff1c29tl8-stroke" fill="none" stroke-linecap="round" stroke-linejoin="round" stroke-miterlimit="4" stroke="#8769fd" stroke-width="2"><g><path d="M 226.0001 34L 226.0001 10L 305.5002 82L 226.0001 154L 226.0001 130.0001L 131.0001 130C 61.9645 130 10 79.0356 10 10L 106.0001 10C 106.0001 23.8071 117.1931 33.9999 131.0001 34L 226.0001 34Z"></path></g></g><g id="cp_5_g-5_140ijff1c29tl8-stroke-overlay" fill="none" stroke-linecap="round" stroke-linejoin="round" stroke-miterlimit="4" stroke="#3300fc5e" stroke-width="2" stroke-dasharray="4,6"><animate attributeName="stroke-dashoffset" values="30;0" dur="1s" repeatCount="indefinite" begin="0"></animate><g><path d="M 226.0001 34L 226.0001 10L 305.5002 82L 226.0001 154L 226.0001 130.0001L 131.0001 130C 61.9645 130 10 79.0356 10 10L 106.0001 10C 106.0001 23.8071 117.1931 33.9999 131.0001 34L 226.0001 34Z"></path></g></g></g><g id="g-root-cp_4_g-4_zkp1az1c29udi-stroke-fill" data-item-order="-383026" transform="translate(230, 242)"><g id="cp_4_g-4_zkp1az1c29udi-fill" stroke="none" fill="none"><g><path d="M 226 10.000008L 131 10C 61.9645 9.999991 10.000006 60.9644 10 130L 106.0001 130C 106.0001 116.193 117.193 106.0001 131 106L 226 106L 226 10.000008Z"></path></g></g><g id="cp_4_g-4_zkp1az1c29udi-stroke" fill="none" stroke-linecap="round" stroke-linejoin="round" stroke-miterlimit="4" stroke="#1ac3fb" stroke-width="2"><g><path d="M 226.0001 10L 131.0001 10C 61.9645 10 10 60.9644 10 130L 106.0001 130C 106.0001 116.1929 117.1931 106.0001 131.0001 106L 226.0001 106L 226.0001 10Z"></path></g></g><g id="cp_4_g-4_zkp1az1c29udi-stroke-overlay" fill="none" stroke-linecap="round" stroke-linejoin="round" stroke-miterlimit="4" stroke="#00ade7d7" stroke-width="2" stroke-dasharray="4,6"><animate attributeName="stroke-dashoffset" values="30;0" dur="1s" repeatCount="indefinite" begin="0"></animate><g><path d="M 226.0001 10L 131.0001 10C 61.9645 10 10 60.9644 10 130L 106.0001 130C 106.0001 116.1929 117.1931 106.0001 131.0001 106L 226.0001 106L 226.0001 10Z"></path></g></g></g><g id="g-root-cp_3_g-3_v4vj6j1c29v5s-stroke-fill" data-item-order="-383022" transform="translate(446, 218)"><g id="cp_3_g-3_v4vj6j1c29v5s-fill" stroke="none" fill="none"><g><path d="M 10 130L 105 130C 174.036 130 226 79.0356 226 10.000008L 130 10C 130 23.8071 118.807 33.9999 105 34L 10 34L 10 130Z"></path></g></g><g id="cp_3_g-3_v4vj6j1c29v5s-stroke" fill="none" stroke-linecap="round" stroke-linejoin="round" stroke-miterlimit="4" stroke="#a6da37" stroke-width="2"><g><path d="M 10 130L 105 130C 174.0356 130 226.0001 79.0356 226.0001 10L 130 10C 130 23.8071 118.8071 33.9999 105 34L 10 34L 10 130Z"></path></g></g><g id="cp_3_g-3_v4vj6j1c29v5s-stroke-overlay" fill="none" stroke-linecap="round" stroke-linejoin="round" stroke-miterlimit="4" stroke="#6b9d0056" stroke-width="2" stroke-dasharray="4,6"><animate attributeName="stroke-dashoffset" values="30;0" dur="1s" repeatCount="indefinite" begin="0"></animate><g><path d="M 10 130L 105 130C 174.0356 130 226.0001 79.0356 226.0001 10L 130 10C 130 23.8071 118.8071 33.9999 105 34L 10 34L 10 130Z"></path></g></g></g><g id="g-root-cp_2_g-2_m98ixn1c29vyi-stroke-fill" data-item-order="-383018" transform="translate(446, 98)"><g id="cp_2_g-2_m98ixn1c29vyi-fill" stroke="none" fill="none"><g><path d="M 10 10L 105 10C 174.036 9.999997 226 60.9644 226 130L 130 130C 130 116.193 118.807 106.0001 105 106L 10 106L 10 10Z"></path></g></g><g id="cp_2_g-2_m98ixn1c29vyi-stroke" fill="none" stroke-linecap="round" stroke-linejoin="round" stroke-miterlimit="4" stroke="#43dd93" stroke-width="2"><g><path d="M 10 10L 105 10C 174.0356 10 226.0001 60.9644 226.0001 130L 130 130C 130 116.1929 118.8071 106.0001 105 106L 10 106L 10 10Z"></path></g></g><g id="cp_2_g-2_m98ixn1c29vyi-stroke-overlay" fill="none" stroke-linecap="round" stroke-linejoin="round" stroke-miterlimit="4" stroke="#00c5676e" stroke-width="2" stroke-dasharray="4,6"><animate attributeName="stroke-dashoffset" values="30;0" dur="1s" repeatCount="indefinite" begin="0"></animate><g><path d="M 10 10L 105 10C 174.0356 10 226.0001 60.9644 226.0001 130L 130 130C 130 116.1929 118.8071 106.0001 105 106L 10 106L 10 10Z"></path></g></g></g><g id="g-root-cp_1_g-1_hu1hwb1c29tl0-stroke-fill" data-item-order="-383014" transform="translate(230, 98)"><g id="cp_1_g-1_hu1hwb1c29tl0-fill" stroke="none" fill="none"><g><path d="M 10 10L 226 10L 226 106L 10 106L 10 10Z"></path></g></g><g id="cp_1_g-1_hu1hwb1c29tl0-stroke" fill="none" stroke-linecap="round" stroke-linejoin="round" stroke-miterlimit="4" stroke="#4f91fc" stroke-width="2"><g><path d="M 10 10L 226 10L 226 106L 10 106L 10 10Z"></path></g></g><g id="cp_1_g-1_hu1hwb1c29tl0-stroke-overlay" fill="none" stroke-linecap="round" stroke-linejoin="round" stroke-miterlimit="4" stroke="#0060fb7c" stroke-width="2" stroke-dasharray="4,6"><animate attributeName="stroke-dashoffset" values="30;0" dur="1s" repeatCount="indefinite" begin="0"></animate><g><path d="M 10 10L 226 10L 226 106L 10 106L 10 10Z"></path></g></g></g><g id="g-root-tx_thetrans_4ikziz1c29v5y-stroke-fill" data-item-order="0" transform="translate(176, 50)"><g id="tx_thetrans_4ikziz1c29v5y-fill" stroke="none" fill="#f4f4f4"><g><text style="font: 20px Roboto, sans-serif; white-space: pre;" font-size="20px" font-family="Roboto, sans-serif"><tspan x="13.7" y="34" dominant-baseline="ideographic">The Trans-en-Provence UFO Encounter: A Timeline of Events</tspan></text></g></g><g id="tx_thetrans_4ikziz1c29v5y-fill-overlay" stroke="none" fill="url(#crawlingPattern-0000001b)"><g><text style="font: 20px Roboto, sans-serif; white-space: pre;" font-size="20px" font-family="Roboto, sans-serif"><tspan x="13.7" y="34" dominant-baseline="ideographic">The Trans-en-Provence UFO Encounter: A Timeline of Events</tspan></text></g></g></g><g id="g-root-ic_ufo_1q88j4r1c29wjr-stroke-fill" data-item-order="0" transform="translate(308, 116)"><g id="ic_ufo_1q88j4r1c29wjr-stroke" fill="none" stroke-linecap="round" stroke-linejoin="round" stroke-miterlimit="4" stroke="#4f91fc" stroke-width="2"><g><path d="M 58.75 25.625C 63.722324 25.6238 67.940201 29.2761 68.649994 34.197498C 68.701813 34.558517 68.593361 34.924156 68.353088 35.198547C 68.112823 35.472931 67.764694 35.628696 67.399994 35.625L 12.5875 35.625C 12.222802 35.628696 11.874679 35.472931 11.634409 35.198547C 11.39414 34.924156 11.285691 34.558517 11.3375 34.197498C 12.047972 29.271397 16.272932 25.617579 21.25 25.625ZM 21.25 25.625C 21.25 19.375 29.645 11.875 40 11.875C 50.355 11.875 58.75 19.375 58.75 25.625M 57.212502 46.875L 63.744999 68.125M 16.244999 68.125L 22.790001 46.875M 41.244999 59.375L 37.494999 64.565002M 44.994999 64.375L 41.244999 59.375M 37.494999 55.625L 44.994999 55.625M 41.25 49.375C 41.940353 49.375 42.5 49.934647 42.5 50.625M 40 50.625C 40 49.934647 40.559647 49.375 41.25 49.375M 41.25 51.875C 40.559647 51.875 40 51.315353 40 50.625M 42.5 50.625C 42.5 51.315353 41.940353 51.875 41.25 51.875M 41.244999 59.375L 41.244999 55.625M 28.75 35.625C 28.75 39.076778 25.95178 41.875 22.5 41.875C 19.04822 41.875 16.25 39.076778 16.25 35.625M 46.25 35.625C 46.25 39.076778 43.451782 41.875 40 41.875C 36.548222 41.875 33.75 39.076778 33.75 35.625M 63.75 35.625C 63.75 39.076778 60.951782 41.875 57.5 41.875C 54.048218 41.875 51.25 39.076778 51.25 35.625"></path></g></g><g id="ic_ufo_1q88j4r1c29wjr-stroke-overlay" fill="none" stroke-linecap="round" stroke-linejoin="round" stroke-miterlimit="4" stroke="#0060fb7c" stroke-width="2" stroke-dasharray="4,6"><animate attributeName="stroke-dashoffset" values="30;0" dur="1s" repeatCount="indefinite" begin="0"></animate><g><path d="M 58.75 25.625C 63.722324 25.6238 67.940201 29.2761 68.649994 34.197498C 68.701813 34.558517 68.593361 34.924156 68.353088 35.198547C 68.112823 35.472931 67.764694 35.628696 67.399994 35.625L 12.5875 35.625C 12.222802 35.628696 11.874679 35.472931 11.634409 35.198547C 11.39414 34.924156 11.285691 34.558517 11.3375 34.197498C 12.047972 29.271397 16.272932 25.617579 21.25 25.625ZM 21.25 25.625C 21.25 19.375 29.645 11.875 40 11.875C 50.355 11.875 58.75 19.375 58.75 25.625M 57.212502 46.875L 63.744999 68.125M 16.244999 68.125L 22.790001 46.875M 41.244999 59.375L 37.494999 64.565002M 44.994999 64.375L 41.244999 59.375M 37.494999 55.625L 44.994999 55.625M 41.25 49.375C 41.940353 49.375 42.5 49.934647 42.5 50.625M 40 50.625C 40 49.934647 40.559647 49.375 41.25 49.375M 41.25 51.875C 40.559647 51.875 40 51.315353 40 50.625M 42.5 50.625C 42.5 51.315353 41.940353 51.875 41.25 51.875M 41.244999 59.375L 41.244999 55.625M 28.75 35.625C 28.75 39.076778 25.95178 41.875 22.5 41.875C 19.04822 41.875 16.25 39.076778 16.25 35.625M 46.25 35.625C 46.25 39.076778 43.451782 41.875 40 41.875C 36.548222 41.875 33.75 39.076778 33.75 35.625M 63.75 35.625C 63.75 39.076778 60.951782 41.875 57.5 41.875C 54.048218 41.875 51.25 39.076778 51.25 35.625"></path></g></g></g><g id="g-root-ic_docu_zs6qcb1c2cow0-stroke-fill" data-item-order="0" transform="translate(308, 260)"><g id="ic_docu_zs6qcb1c2cow0-stroke" fill="none" stroke-linecap="round" stroke-linejoin="round" stroke-miterlimit="4" stroke="#1ac3fb" stroke-width="2"><g><path d="M 53.092499 11.25L 19.342501 11.25C 15.200365 11.25 11.8425 14.607864 11.8425 18.75L 11.8425 63.75M 19.342501 21.25L 39.342503 21.25M 19.342501 31.25L 39.342503 31.25M 19.342501 41.25L 29.615 41.25M 47.467503 48.75L 47.467503 16.875C 47.477108 13.772387 49.989887 11.259607 53.092499 11.25L 53.092499 11.25C 56.195114 11.259607 58.707893 13.772387 58.717499 16.875L 58.717499 20.625L 47.467503 20.625M 26.907499 53.75L 19.407499 53.75L 19.407499 68.75L 26.907499 68.75L 26.907499 61.25L 24.407499 61.25M 46.907497 68.75L 46.907497 53.75M 46.907497 53.75L 49.719997 53.75C 52.308838 53.750004 54.407501 55.848671 54.407501 58.437504C 54.407501 61.02634 52.308838 63.125004 49.720001 63.125004L 46.907497 63.125M 60.657501 68.75L 60.657501 53.75M 60.657501 53.75L 63.470001 53.75C 66.058838 53.750004 68.157501 55.848671 68.157501 58.437504C 68.157501 61.02634 66.058838 63.125004 63.470001 63.125004L 60.657501 63.125M 68.157501 68.75L 62.532501 63.125M 33.157497 53.75L 33.157497 68.75C 37.299637 68.75 40.657501 65.392136 40.657501 61.25C 40.657501 57.107868 37.299637 53.75 33.157501 53.75Z"></path></g></g><g id="ic_docu_zs6qcb1c2cow0-stroke-overlay" fill="none" stroke-linecap="round" stroke-linejoin="round" stroke-miterlimit="4" stroke="#00ade7d7" stroke-width="2" stroke-dasharray="4,6"><animate attributeName="stroke-dashoffset" values="30;0" dur="1s" repeatCount="indefinite" begin="0"></animate><g><path d="M 53.092499 11.25L 19.342501 11.25C 15.200365 11.25 11.8425 14.607864 11.8425 18.75L 11.8425 63.75M 19.342501 21.25L 39.342503 21.25M 19.342501 31.25L 39.342503 31.25M 19.342501 41.25L 29.615 41.25M 47.467503 48.75L 47.467503 16.875C 47.477108 13.772387 49.989887 11.259607 53.092499 11.25L 53.092499 11.25C 56.195114 11.259607 58.707893 13.772387 58.717499 16.875L 58.717499 20.625L 47.467503 20.625M 26.907499 53.75L 19.407499 53.75L 19.407499 68.75L 26.907499 68.75L 26.907499 61.25L 24.407499 61.25M 46.907497 68.75L 46.907497 53.75M 46.907497 53.75L 49.719997 53.75C 52.308838 53.750004 54.407501 55.848671 54.407501 58.437504C 54.407501 61.02634 52.308838 63.125004 49.720001 63.125004L 46.907497 63.125M 60.657501 68.75L 60.657501 53.75M 60.657501 53.75L 63.470001 53.75C 66.058838 53.750004 68.157501 55.848671 68.157501 58.437504C 68.157501 61.02634 66.058838 63.125004 63.470001 63.125004L 60.657501 63.125M 68.157501 68.75L 62.532501 63.125M 33.157497 53.75L 33.157497 68.75C 37.299637 68.75 40.657501 65.392136 40.657501 61.25C 40.657501 57.107868 37.299637 53.75 33.157501 53.75Z"></path></g></g></g><g id="g-root-ic_phot_4hyifv1c2ffux-stroke-fill" data-item-order="0" transform="translate(308, 404)"><g id="ic_phot_4hyifv1c2ffux-stroke" fill="none" stroke-linecap="round" stroke-linejoin="round" stroke-miterlimit="4" stroke="#8769fd" stroke-width="2"><g><path d="M 19.458401 44.91275L 12.071155 28.57115C 11.571155 27.57115 12.07114 26.57115 13.07115 26.07115L 43.821251 12.071153C 44.821251 11.571153 45.821251 12.071155 46.321251 13.07115L 60.83725 44.91275M 10 10M 57.821251 38.571251L 43.758499 44.963249M 10 10M 34.9286 44.73325L 37.428501 31.733225C 37.928501 29.233225 40.428501 27.9832 42.678497 28.9832L 56.428497 35.23325M 25.32115 36.571251C 27.668375 36.571251 29.571199 34.668499 29.571199 32.321274C 29.571199 29.974075 27.668375 28.071301 25.32115 28.071301C 22.973949 28.071301 21.071175 29.974075 21.071175 32.321274C 21.071175 34.668499 22.973949 36.571251 25.32115 36.571251ZM 10 10M 55.875 17.071224L 66.375 17.321224C 67.375 17.321224 68.125 18.071226 68.125 19.321226L 67.875 43.071251M 41.6045 67.980255L 41.6045 52.980251M 51.6045 52.980251L 41.6045 62.980251M 45.3545 59.230251L 52.8545 67.980255M 10 10M 67.9245 52.980251L 57.9245 52.980251L 57.9245 67.980255L 67.9245 67.980255M 57.9245 59.855251L 66.6745 59.855251M 12.0755 67.980255L 12.0755 52.980251L 22.0755 52.980251M 10 10M 12.0755 59.855251L 20.8255 59.855251M 10 10M 24.217226 67.980255L 28.821949 54.166252C 29.058001 53.458 29.720724 52.980251 30.467224 52.980251L 30.467224 52.980251C 31.213701 52.980251 31.87645 53.458 32.112499 54.166252L 36.717251 67.980255M 25.8839 62.980251L 35.050499 62.980251"></path></g></g><g id="ic_phot_4hyifv1c2ffux-stroke-overlay" fill="none" stroke-linecap="round" stroke-linejoin="round" stroke-miterlimit="4" stroke="#3300fc5e" stroke-width="2" stroke-dasharray="4,6"><animate attributeName="stroke-dashoffset" values="30;0" dur="1s" repeatCount="indefinite" begin="0"></animate><g><path d="M 19.458401 44.91275L 12.071155 28.57115C 11.571155 27.57115 12.07114 26.57115 13.07115 26.07115L 43.821251 12.071153C 44.821251 11.571153 45.821251 12.071155 46.321251 13.07115L 60.83725 44.91275M 10 10M 57.821251 38.571251L 43.758499 44.963249M 10 10M 34.9286 44.73325L 37.428501 31.733225C 37.928501 29.233225 40.428501 27.9832 42.678497 28.9832L 56.428497 35.23325M 25.32115 36.571251C 27.668375 36.571251 29.571199 34.668499 29.571199 32.321274C 29.571199 29.974075 27.668375 28.071301 25.32115 28.071301C 22.973949 28.071301 21.071175 29.974075 21.071175 32.321274C 21.071175 34.668499 22.973949 36.571251 25.32115 36.571251ZM 10 10M 55.875 17.071224L 66.375 17.321224C 67.375 17.321224 68.125 18.071226 68.125 19.321226L 67.875 43.071251M 41.6045 67.980255L 41.6045 52.980251M 51.6045 52.980251L 41.6045 62.980251M 45.3545 59.230251L 52.8545 67.980255M 10 10M 67.9245 52.980251L 57.9245 52.980251L 57.9245 67.980255L 67.9245 67.980255M 57.9245 59.855251L 66.6745 59.855251M 12.0755 67.980255L 12.0755 52.980251L 22.0755 52.980251M 10 10M 12.0755 59.855251L 20.8255 59.855251M 10 10M 24.217226 67.980255L 28.821949 54.166252C 29.058001 53.458 29.720724 52.980251 30.467224 52.980251L 30.467224 52.980251C 31.213701 52.980251 31.87645 53.458 32.112499 54.166252L 36.717251 67.980255M 25.8839 62.980251L 35.050499 62.980251"></path></g></g></g><g id="g-root-ic_user_142dyor1c2gw0a-stroke-fill" data-item-order="0" transform="translate(524, 116)"><g id="ic_user_142dyor1c2gw0a-stroke" fill="none" stroke-linecap="round" stroke-linejoin="round" stroke-miterlimit="4" stroke="#43dd93" stroke-width="2"><g><path d="M 53.5825 11.25C 49.594425 11.263348 45.778507 12.876492 42.990162 15.727814C 40.20182 18.579136 38.674286 22.430122 38.75 26.4175C 38.637524 29.208969 39.314236 31.975609 40.702499 34.400002L 36.25 43.75L 45.602501 39.295002C 51.069492 42.684086 58.08004 42.25425 63.092056 38.222668C 68.104065 34.19109 70.026314 27.435534 67.887566 21.369259C 65.748825 15.302983 60.014755 11.246759 53.5825 11.25ZM 53.75 31.25C 54.095177 31.25 54.375 31.529823 54.375 31.875C 54.375 32.220177 54.095177 32.5 53.75 32.5C 53.404823 32.5 53.125 32.220177 53.125 31.875C 53.125 31.529823 53.404823 31.25 53.75 31.25M 53.75 27.502501L 53.75 20.002501M 51.25 46.252502L 51.25 68.752502M 11.25 68.75L 11.25 23.75C 11.25 20.988577 13.488576 18.75 16.25 18.75L 35 18.75M 33.75 28.752501L 11.25 28.752501M 24.375 51.877499C 24.375 54.9841 26.893398 57.502499 30 57.502499C 33.106602 57.502499 35.625 54.9841 35.625 51.877499C 35.625 48.770901 33.106602 46.252502 30 46.252502C 26.893398 46.252502 24.375 48.770901 24.375 51.877499ZM 41.25 68.75C 39.938656 63.607441 35.307125 60.008732 30 60.008732C 24.692875 60.008732 20.061344 63.607441 18.75 68.75M 27.5 23.752501L 33.75 23.752501"></path></g></g><g id="ic_user_142dyor1c2gw0a-stroke-overlay" fill="none" stroke-linecap="round" stroke-linejoin="round" stroke-miterlimit="4" stroke="#00c5676e" stroke-width="2" stroke-dasharray="4,6"><animate attributeName="stroke-dashoffset" values="30;0" dur="1s" repeatCount="indefinite" begin="0"></animate><g><path d="M 53.5825 11.25C 49.594425 11.263348 45.778507 12.876492 42.990162 15.727814C 40.20182 18.579136 38.674286 22.430122 38.75 26.4175C 38.637524 29.208969 39.314236 31.975609 40.702499 34.400002L 36.25 43.75L 45.602501 39.295002C 51.069492 42.684086 58.08004 42.25425 63.092056 38.222668C 68.104065 34.19109 70.026314 27.435534 67.887566 21.369259C 65.748825 15.302983 60.014755 11.246759 53.5825 11.25ZM 53.75 31.25C 54.095177 31.25 54.375 31.529823 54.375 31.875C 54.375 32.220177 54.095177 32.5 53.75 32.5C 53.404823 32.5 53.125 32.220177 53.125 31.875C 53.125 31.529823 53.404823 31.25 53.75 31.25M 53.75 27.502501L 53.75 20.002501M 51.25 46.252502L 51.25 68.752502M 11.25 68.75L 11.25 23.75C 11.25 20.988577 13.488576 18.75 16.25 18.75L 35 18.75M 33.75 28.752501L 11.25 28.752501M 24.375 51.877499C 24.375 54.9841 26.893398 57.502499 30 57.502499C 33.106602 57.502499 35.625 54.9841 35.625 51.877499C 35.625 48.770901 33.106602 46.252502 30 46.252502C 26.893398 46.252502 24.375 48.770901 24.375 51.877499ZM 41.25 68.75C 39.938656 63.607441 35.307125 60.008732 30 60.008732C 24.692875 60.008732 20.061344 63.607441 18.75 68.75M 27.5 23.752501L 33.75 23.752501"></path></g></g></g><g id="g-root-ic_fema_4mwnv1c2iayz-stroke-fill" data-item-order="0" transform="translate(524, 260)"><g id="ic_fema_4mwnv1c2iayz-stroke" fill="none" stroke-linecap="round" stroke-linejoin="round" stroke-miterlimit="4" stroke="#a6da37" stroke-width="2"><g><path d="M 10 10M 40.375 49.125999L 45.375 53.376003L 50.375 49.125999L 62.875 49.125999L 59.125 54.626003C 63.625 57.875999 66.875 62.625252 68.125 68.125244M 58.375 30.375975C 58.375 30.375975 58.375 37.375999 65.875 37.375999M 32.374874 30.375975C 32.374874 30.375975 32.374874 37.375999 24.874876 37.375999M 45.375 11.87622L 45.375 21.6262M 58.374748 26.625975C 58.374748 26.625975 53.67025 31.625975 45.498749 31.625975C 37.575001 31.625975 32.374874 26.625975 32.374874 26.625975C 32.374874 26.625975 37.575001 21.625975 45.498749 21.625975C 53.67025 21.625975 58.374748 26.625975 58.374748 26.625975ZM 32.374874 26.6262C 32.374874 18.3762 38.375 11.87622 45.375 11.87622C 52.625 11.87622 58.374748 18.3762 58.374748 26.6262M 32.374874 26.6262L 32.374874 30.625999C 32.374874 37.875999 38.375 43.625999 45.375 43.625999C 52.625 43.625999 58.374748 37.625999 58.374748 30.625999L 58.374748 26.6262M 23.125 65.124504C 29.3382 65.124504 34.375 60.087753 34.375 53.874504C 34.375 47.661251 29.3382 42.6245 23.125 42.6245C 16.9118 42.6245 11.875 47.661251 11.875 53.874504C 11.875 60.087753 16.9118 65.124504 23.125 65.124504ZM 37.375 68.124001L 31.075476 61.824997M 45.374752 64.915749C 46.751247 64.915749 47.866749 63.800003 47.866749 62.423748C 47.866749 61.047249 46.751247 59.931751 45.374752 59.931751C 43.998497 59.931751 42.882751 61.047249 42.882751 62.423748C 42.882751 63.800003 43.998497 64.915749 45.374752 64.915749Z"></path></g></g><g id="ic_fema_4mwnv1c2iayz-stroke-overlay" fill="none" stroke-linecap="round" stroke-linejoin="round" stroke-miterlimit="4" stroke="#6b9d0056" stroke-width="2" stroke-dasharray="4,6"><animate attributeName="stroke-dashoffset" values="30;0" dur="1s" repeatCount="indefinite" begin="0"></animate><g><path d="M 10 10M 40.375 49.125999L 45.375 53.376003L 50.375 49.125999L 62.875 49.125999L 59.125 54.626003C 63.625 57.875999 66.875 62.625252 68.125 68.125244M 58.375 30.375975C 58.375 30.375975 58.375 37.375999 65.875 37.375999M 32.374874 30.375975C 32.374874 30.375975 32.374874 37.375999 24.874876 37.375999M 45.375 11.87622L 45.375 21.6262M 58.374748 26.625975C 58.374748 26.625975 53.67025 31.625975 45.498749 31.625975C 37.575001 31.625975 32.374874 26.625975 32.374874 26.625975C 32.374874 26.625975 37.575001 21.625975 45.498749 21.625975C 53.67025 21.625975 58.374748 26.625975 58.374748 26.625975ZM 32.374874 26.6262C 32.374874 18.3762 38.375 11.87622 45.375 11.87622C 52.625 11.87622 58.374748 18.3762 58.374748 26.6262M 32.374874 26.6262L 32.374874 30.625999C 32.374874 37.875999 38.375 43.625999 45.375 43.625999C 52.625 43.625999 58.374748 37.625999 58.374748 30.625999L 58.374748 26.6262M 23.125 65.124504C 29.3382 65.124504 34.375 60.087753 34.375 53.874504C 34.375 47.661251 29.3382 42.6245 23.125 42.6245C 16.9118 42.6245 11.875 47.661251 11.875 53.874504C 11.875 60.087753 16.9118 65.124504 23.125 65.124504ZM 37.375 68.124001L 31.075476 61.824997M 45.374752 64.915749C 46.751247 64.915749 47.866749 63.800003 47.866749 62.423748C 47.866749 61.047249 46.751247 59.931751 45.374752 59.931751C 43.998497 59.931751 42.882751 61.047249 42.882751 62.423748C 42.882751 63.800003 43.998497 64.915749 45.374752 64.915749Z"></path></g></g></g><g id="g-root-tx_january8_18egpgb1c1yl1o-stroke-fill" data-item-order="0" transform="translate(50, 98)"><g id="tx_january8_18egpgb1c1yl1o-fill" stroke="none" fill="#f4f4f4"><g><text style="font: bold 20px Roboto, sans-serif; white-space: pre;" font-weight="bold" font-size="20px" font-family="Roboto, sans-serif"><tspan x="14.28" y="34" dominant-baseline="ideographic">January 8, 1981, </tspan><tspan x="88.56" y="58" dominant-baseline="ideographic">5:00 PM</tspan></text></g></g><g id="tx_january8_18egpgb1c1yl1o-fill-overlay" stroke="none" fill="url(#crawlingPattern-0000001b)"><g><text style="font: bold 20px Roboto, sans-serif; white-space: pre;" font-weight="bold" font-size="20px" font-family="Roboto, sans-serif"><tspan x="14.28" y="34" dominant-baseline="ideographic">January 8, 1981, </tspan><tspan x="88.56" y="58" dominant-baseline="ideographic">5:00 PM</tspan></text></g></g></g><g id="g-root-tx_renatoni_v3072z1c1ymml-stroke-fill" data-item-order="0" transform="translate(26, 158)"><g id="tx_renatoni_v3072z1c1ymml-fill" stroke="none" fill="#f4f4f4"><g><text style="font: 15px Roboto, sans-serif; white-space: pre;" font-size="15px" font-family="Roboto, sans-serif"><tspan x="20.08" y="28" dominant-baseline="ideographic">Renato Nicolaï witnesses </tspan><tspan x="147.78" y="46" dominant-baseline="ideographic">a UFO</tspan></text></g></g><g id="tx_renatoni_v3072z1c1ymml-fill-overlay" stroke="none" fill="url(#crawlingPattern-0000001b)"><g><text style="font: 15px Roboto, sans-serif; white-space: pre;" font-size="15px" font-family="Roboto, sans-serif"><tspan x="20.08" y="28" dominant-baseline="ideographic">Renato Nicolaï witnesses </tspan><tspan x="147.78" y="46" dominant-baseline="ideographic">a UFO</tspan></text></g></g></g><g id="g-root-tx_1983_hs65sr1c1yl1q-stroke-fill" data-item-order="0" transform="translate(146, 254)"><g id="tx_1983_hs65sr1c1yl1q-fill" stroke="none" fill="#f4f4f4"><g><text style="font: bold 20px Roboto, sans-serif; white-space: pre;" font-weight="bold" font-size="20px" font-family="Roboto, sans-serif"><tspan x="22.09" y="34" dominant-baseline="ideographic">1983</tspan></text></g></g><g id="tx_1983_hs65sr1c1yl1q-fill-overlay" stroke="none" fill="url(#crawlingPattern-0000001b)"><g><text style="font: bold 20px Roboto, sans-serif; white-space: pre;" font-weight="bold" font-size="20px" font-family="Roboto, sans-serif"><tspan x="22.09" y="34" dominant-baseline="ideographic">1983</tspan></text></g></g></g><g id="g-root-tx_gepanpub_dccnob1c1yltz-stroke-fill" data-item-order="0" transform="translate(38, 290)"><g id="tx_gepanpub_dccnob1c1yltz-fill" stroke="none" fill="#f4f4f4"><g><text style="font: 15px Roboto, sans-serif; white-space: pre;" font-size="15px" font-family="Roboto, sans-serif"><tspan x="20.83" y="28" dominant-baseline="ideographic">GEPAN publishes initial </tspan><tspan x="122.84" y="46" dominant-baseline="ideographic">findings</tspan></text></g></g><g id="tx_gepanpub_dccnob1c1yltz-fill-overlay" stroke="none" fill="url(#crawlingPattern-0000001b)"><g><text style="font: 15px Roboto, sans-serif; white-space: pre;" font-size="15px" font-family="Roboto, sans-serif"><tspan x="20.83" y="28" dominant-baseline="ideographic">GEPAN publishes initial </tspan><tspan x="122.84" y="46" dominant-baseline="ideographic">findings</tspan></text></g></g></g><g id="g-root-tx_2007_w5az1c1ynew-stroke-fill" data-item-order="0" transform="translate(146, 398)"><g id="tx_2007_w5az1c1ynew-fill" stroke="none" fill="#f4f4f4"><g><text style="font: bold 20px Roboto, sans-serif; white-space: pre;" font-weight="bold" font-size="20px" font-family="Roboto, sans-serif"><tspan x="22.09" y="34" dominant-baseline="ideographic">2007</tspan></text></g></g><g id="tx_2007_w5az1c1ynew-fill-overlay" stroke="none" fill="url(#crawlingPattern-0000001b)"><g><text style="font: bold 20px Roboto, sans-serif; white-space: pre;" font-weight="bold" font-size="20px" font-family="Roboto, sans-serif"><tspan x="22.09" y="34" dominant-baseline="ideographic">2007</tspan></text></g></g></g><g id="g-root-tx_francere_1um6p5n1c1yo01-stroke-fill" data-item-order="0" transform="translate(50, 434)"><g id="tx_francere_1um6p5n1c1yo01-fill" stroke="none" fill="#f4f4f4"><g><text style="font: 15px Roboto, sans-serif; white-space: pre;" font-size="15px" font-family="Roboto, sans-serif"><tspan x="26.98" y="28" dominant-baseline="ideographic">France releases UFO </tspan><tspan x="19.22" y="46" dominant-baseline="ideographic">investigation archives</tspan></text></g></g><g id="tx_francere_1um6p5n1c1yo01-fill-overlay" stroke="none" fill="url(#crawlingPattern-0000001b)"><g><text style="font: 15px Roboto, sans-serif; white-space: pre;" font-size="15px" font-family="Roboto, sans-serif"><tspan x="26.98" y="28" dominant-baseline="ideographic">France releases UFO </tspan><tspan x="19.22" y="46" dominant-baseline="ideographic">investigation archives</tspan></text></g></g></g><g id="g-root-tx_january9_1hbcnvf1c1ymf6-stroke-fill" data-item-order="0" transform="translate(686, 110)"><g id="tx_january9_1hbcnvf1c1ymf6-fill" stroke="none" fill="#f4f4f4"><g><text style="font: bold 20px Roboto, sans-serif; white-space: pre;" font-weight="bold" font-size="20px" font-family="Roboto, sans-serif"><tspan x="12" y="34" dominant-baseline="ideographic">January 9, 1981</tspan></text></g></g><g id="tx_january9_1hbcnvf1c1ymf6-fill-overlay" stroke="none" fill="url(#crawlingPattern-0000001b)"><g><text style="font: bold 20px Roboto, sans-serif; white-space: pre;" font-weight="bold" font-size="20px" font-family="Roboto, sans-serif"><tspan x="12" y="34" dominant-baseline="ideographic">January 9, 1981</tspan></text></g></g></g><g id="g-root-tx_nicolare_v4vmcb1c1ylmz-stroke-fill" data-item-order="0" transform="translate(686, 146)"><g id="tx_nicolare_v4vmcb1c1ylmz-fill" stroke="none" fill="#f4f4f4"><g><text style="font: 15px Roboto, sans-serif; white-space: pre;" font-size="15px" font-family="Roboto, sans-serif"><tspan x="12" y="28" dominant-baseline="ideographic">Nicolaï reports the </tspan><tspan x="12" y="46" dominant-baseline="ideographic">incident to gendarmerie</tspan></text></g></g><g id="tx_nicolare_v4vmcb1c1ylmz-fill-overlay" stroke="none" fill="url(#crawlingPattern-0000001b)"><g><text style="font: 15px Roboto, sans-serif; white-space: pre;" font-size="15px" font-family="Roboto, sans-serif"><tspan x="12" y="28" dominant-baseline="ideographic">Nicolaï reports the </tspan><tspan x="12" y="46" dominant-baseline="ideographic">incident to gendarmerie</tspan></text></g></g></g><g id="g-root-tx_40daysaf_htf3yz1c1yn7w-stroke-fill" data-item-order="0" transform="translate(686, 242)"><g id="tx_40daysaf_htf3yz1c1yn7w-fill" stroke="none" fill="#f4f4f4"><g><text style="font: bold 20px Roboto, sans-serif; white-space: pre;" font-weight="bold" font-size="20px" font-family="Roboto, sans-serif"><tspan x="12" y="34" dominant-baseline="ideographic">40 days after the </tspan><tspan x="12" y="58" dominant-baseline="ideographic">incident</tspan></text></g></g><g id="tx_40daysaf_htf3yz1c1yn7w-fill-overlay" stroke="none" fill="url(#crawlingPattern-0000001b)"><g><text style="font: bold 20px Roboto, sans-serif; white-space: pre;" font-weight="bold" font-size="20px" font-family="Roboto, sans-serif"><tspan x="12" y="34" dominant-baseline="ideographic">40 days after the </tspan><tspan x="12" y="58" dominant-baseline="ideographic">incident</tspan></text></g></g></g><g id="g-root-tx_gepanvis_ddlluj1c1yo05-stroke-fill" data-item-order="0" transform="translate(686, 302)"><g id="tx_gepanvis_ddlluj1c1yo05-fill" stroke="none" fill="#f4f4f4"><g><text style="font: 15px Roboto, sans-serif; white-space: pre;" font-size="15px" font-family="Roboto, sans-serif"><tspan x="12" y="28" dominant-baseline="ideographic">GEPAN visits the site for </tspan><tspan x="12" y="46" dominant-baseline="ideographic">further analysis</tspan></text></g></g><defs><pattern id="crawlingPattern-0000001b" x="0" y="0" width="12" height="12" patternUnits="userSpaceOnUse" fill="#0000001b"><use href="#crawlingSymbol"></use></pattern><symbol id="crawlingSymbol"><g><animateTransform attributeName="transform" type="translate" from="0 0" to="-12 0" dur="0.4s" repeatCount="indefinite"></animateTransform><path d="M -12.5 12.5 l 13 -13 l 6 0 l -13 13 Z M -0.5 12.5 l 13 -13 l 6 0 l -13 13 Z M 11.5 12.5 l 13 -13 l 6 0 l -13 13 Z"></path></g></symbol></defs><g id="tx_gepanvis_ddlluj1c1yo05-fill-overlay" stroke="none" fill="url(#crawlingPattern-0000001b)"><g><text style="font: 15px Roboto, sans-serif; white-space: pre;" font-size="15px" font-family="Roboto, sans-serif"><tspan x="12" y="28" dominant-baseline="ideographic">GEPAN visits the site for </tspan><tspan x="12" y="46" dominant-baseline="ideographic">further analysis</tspan></text></g></g></g></svg>