<?xml version='1.0' encoding='utf-8'?>
<svg xmlns="http://www.w3.org/2000/svg" xmlns:xlink="http://www.w3.org/1999/xlink" width="816" height="636" viewBox="0 0 816 636" style="fill:none;stroke:none;fill-rule:evenodd;clip-rule:evenodd;stroke-linecap:round;stroke-linejoin:round;stroke-miterlimit:1.5;" version="1.1">
  <style class="text-font-style fontImports" data-font-family="Roboto">@import url('https://fonts.googleapis.com/css2?family=Roboto:wght@400;700&amp;display=block');</style>
  <rect x="0" y="0" width="816" height="636" fill="#252a34" stroke="none" id="programmatic_background"/>
  <g id="g-root-tf_v4vmcr190lcec-stroke-fill" data-item-order="-477360" transform="translate(18, 12)">
    <g id="tf_v4vmcr190lcec-fill" stroke="none" fill="#2c2c2c">
      <g>
        <path d="M 0 0L 780 0L 780 612L 0 612Z"/>
      </g>
    </g>
    <defs>
      <pattern id="crawlingPattern-7878781a" x="0" y="0" width="12" height="12" patternUnits="userSpaceOnUse" fill="#7878781a">
        <use href="#crawlingSymbol"/>
      </pattern>
      <symbol id="crawlingSymbol">
        <g>
          <path d="M -12.5 12.5 l 13 -13 l 6 0 l -13 13 Z M -0.5 12.5 l 13 -13 l 6 0 l -13 13 Z M 11.5 12.5 l 13 -13 l 6 0 l -13 13 Z"/>
        </g>
      </symbol>
      <pattern id="crawlingPattern-00bcfb62" x="0" y="0" width="12" height="12" patternUnits="userSpaceOnUse" fill="#00bcfb62">
        <use href="#crawlingSymbol"/>
      </pattern>
      <pattern id="crawlingPattern-a906f51a" x="0" y="0" width="12" height="12" patternUnits="userSpaceOnUse" fill="#a906f51a">
        <use href="#crawlingSymbol"/>
      </pattern>
      <pattern id="crawlingPattern-f576002d" x="0" y="0" width="12" height="12" patternUnits="userSpaceOnUse" fill="#f576002d">
        <use href="#crawlingSymbol"/>
      </pattern>
      <pattern id="crawlingPattern-00d16d21" x="0" y="0" width="12" height="12" patternUnits="userSpaceOnUse" fill="#00d16d21">
        <use href="#crawlingSymbol"/>
      </pattern>
      <pattern id="crawlingPattern-ffffff38" x="0" y="0" width="12" height="12" patternUnits="userSpaceOnUse" fill="#ffffff38">
        <use href="#crawlingSymbol"/>
      </pattern>
      <pattern id="crawlingPattern-0000001b" x="0" y="0" width="12" height="12" patternUnits="userSpaceOnUse" fill="#0000001b">
        <use href="#crawlingSymbol"/>
      </pattern>
      <pattern id="crawlingPattern-5f5f5f1a" x="0" y="0" width="12" height="12" patternUnits="userSpaceOnUse" fill="#5f5f5f1a">
        <use href="#crawlingSymbol"/>
      </pattern>
    </defs>
  </g>
  <g id="g-root-sy_-1_cu_1hgcgkr190jyf5-stroke-fill" data-item-order="-316218" transform="translate(32, 265.00390625)">
    <g id="sy_-1_cu_1hgcgkr190jyf5-fill" stroke="none" fill="#ababab">
      <g>
        <path d="M 10.001 143L 10 47L 67 47L 70 59L 322 59L 319 47L 367 47L 370 59L 622 59L 619 47L 646 47L 646 10L 742 95L 646.002 180L 646 143L 619 143L 622 131L 370 131L 367 143L 319.001 143L 322.001 131L 70.001 131L 67.001 143L 10.001 143Z"/>
      </g>
    </g>
    <g id="sy_-1_cu_1hgcgkr190jyf5-stroke" fill="none" stroke-linecap="round" stroke-linejoin="round" stroke-miterlimit="4" stroke="#2c2c2c" stroke-width="2">
      <g>
        <path d="M 10.001 143L 10 47L 67 47L 70 59L 322 59L 319 47L 367 47L 370 59L 622 59L 619 47L 646 47L 646 10L 742 95L 646.0017 180L 646 143L 619 143L 622 131L 370 131L 367 143L 319.001 143L 322.001 131L 70.001 131L 67.001 143L 10.001 143Z"/>
      </g>
    </g>
  </g>
  <g id="g-root-sy_4_cu_18kpgbv190jz7u-stroke-fill" data-item-order="-316214" transform="translate(347, 386)">
    <g id="sy_4_cu_18kpgbv190jz7u-fill" stroke="none" fill="#1ac3fb">
      <g>
        <path d="M 307 10L 295 58L 43 58L 55 10L 307 10ZM 291.992188 70L 279.992188 118L 27.992188 118L 39.992188 70L 291.992188 70ZM 277 130L 25 130L 10 190L 262 190L 277 130Z"/>
      </g>
    </g>
    <g id="sy_4_cu_18kpgbv190jz7u-stroke" fill="none" stroke-linecap="round" stroke-linejoin="round" stroke-miterlimit="4" stroke="#2c2c2c" stroke-width="2">
      <g>
        <path d="M 307 10L 295 58L 43 58L 55 10L 307 10ZM 291.992188 70L 279.992188 118L 27.992188 118L 39.992188 70L 291.992188 70ZM 277 130L 25 130L 10 190L 262 190L 277 130Z"/>
      </g>
    </g>
  </g>
  <g id="g-root-sy_3_cu_v9vf1n190jxmz-stroke-fill" data-item-order="-316210" transform="translate(347, 134)">
    <g id="sy_3_cu_v9vf1n190jxmz-fill" stroke="none" fill="#cb68f9">
      <g>
        <path d="M 307 190L 295 142L 43 142L 55 190L 307 190ZM 291.992188 130L 279.992188 82L 27.992188 82L 39.992188 130L 291.992188 130ZM 277 70L 25 70L 10 10L 262 10L 277 70Z"/>
      </g>
    </g>
    <g id="sy_3_cu_v9vf1n190jxmz-stroke" fill="none" stroke-linecap="round" stroke-linejoin="round" stroke-miterlimit="4" stroke="#2c2c2c" stroke-width="2">
      <g>
        <path d="M 307 190L 295 142L 43 142L 55 190L 307 190ZM 291.992188 130L 279.992188 82L 27.992188 82L 39.992188 130L 291.992188 130ZM 277 70L 25 70L 10 10L 262 10L 277 70Z"/>
      </g>
    </g>
  </g>
  <g id="g-root-sy_2_cu_qu1wx7190jyf8-stroke-fill" data-item-order="-316206" transform="translate(47, 386)">
    <g id="sy_2_cu_qu1wx7190jyf8-fill" stroke="none" fill="#f79438">
      <g>
        <path d="M 307.000977 10L 295.000977 58L 43.000977 58L 55.000977 10L 307.000977 10ZM 291.993164 70L 279.993164 118L 27.993164 118L 39.993164 70L 291.993164 70ZM 277.001 130L 25.001 130L 10 190L 262 190L 277.001 130Z"/>
      </g>
    </g>
    <g id="sy_2_cu_qu1wx7190jyf8-stroke" fill="none" stroke-linecap="round" stroke-linejoin="round" stroke-miterlimit="4" stroke="#2c2c2c" stroke-width="2">
      <g>
        <path d="M 307.000977 10L 295.000977 58L 43.000977 58L 55.000977 10L 307.000977 10ZM 291.993164 70L 279.993164 118L 27.993164 118L 39.993164 70L 291.993164 70ZM 277.001 130L 25.001 130L 10 190L 262 190L 277.001 130Z"/>
      </g>
    </g>
  </g>
  <g id="g-root-sy_1_cu_hyewob190jz7x-stroke-fill" data-item-order="-316202" transform="translate(47, 134)">
    <g id="sy_1_cu_hyewob190jz7x-fill" stroke="none" fill="#43dd93">
      <g>
        <path d="M 307 190L 295 142L 43 142L 55 190L 307 190ZM 291.992188 130L 279.992188 82L 27.992188 82L 39.992188 130L 291.992188 130ZM 277 70L 25 70L 10 10L 262 10L 277 70Z"/>
      </g>
    </g>
    <g id="sy_1_cu_hyewob190jz7x-stroke" fill="none" stroke-linecap="round" stroke-linejoin="round" stroke-miterlimit="4" stroke="#2c2c2c" stroke-width="2">
      <g>
        <path d="M 307 190L 295 142L 43 142L 55 190L 307 190ZM 291.992188 130L 279.992188 82L 27.992188 82L 39.992188 130L 291.992188 130ZM 277 70L 25 70L 10 10L 262 10L 277 70Z"/>
      </g>
    </g>
  </g>
  <g id="g-root-tx_unresolv_dj7vmz190jwue-stroke-fill" data-item-order="0" transform="translate(224, 332)">
    <g id="tx_unresolv_dj7vmz190jwue-fill" stroke="none" fill="#2c2c2c">
      <g>
        <text style="font: bold 25px Roboto, sans-serif; white-space: pre;" font-weight="bold" font-size="25px" font-family="Roboto, sans-serif">
          <tspan x="18.97" y="43" dominant-baseline="ideographic">Unresolved Questions and Research Gaps</tspan>
        </text>
      </g>
    </g>
  </g>
  <g id="g-root-tx_alternat_1ly1dyj190jwnb-stroke-fill" data-item-order="0" transform="translate(404, 398)">
    <g id="tx_alternat_1ly1dyj190jwnb-fill" stroke="none" fill="#2c2c2c">
      <g>
        <text style="font: 15px Roboto, sans-serif; white-space: pre;" font-size="15px" font-family="Roboto, sans-serif">
          <tspan x="13.64" y="31" dominant-baseline="ideographic">Alternative natural explanations</tspan>
        </text>
      </g>
    </g>
  </g>
  <g id="g-root-tx_limitedw_18mkvl7190jy88-stroke-fill" data-item-order="0" transform="translate(413, 458)">
    <g id="tx_limitedw_18mkvl7190jy88-fill" stroke="none" fill="#2c2c2c">
      <g>
        <text style="font: 15px Roboto, sans-serif; white-space: pre;" font-size="15px" font-family="Roboto, sans-serif">
          <tspan x="11.63" y="31" dominant-baseline="ideographic">Limited weather information</tspan>
        </text>
      </g>
    </g>
  </g>
  <g id="g-root-tx_meteorol_146rdgr190jz0h-stroke-fill" data-item-order="0" transform="translate(398, 524)">
    <g id="tx_meteorol_146rdgr190jz0h-fill" stroke="none" fill="#2c2c2c">
      <g>
        <text style="font: bold 20px Roboto, sans-serif; white-space: pre;" font-weight="bold" font-size="20px" font-family="Roboto, sans-serif">
          <tspan x="18.66" y="34" dominant-baseline="ideographic">Meteorological Data</tspan>
        </text>
      </g>
    </g>
  </g>
  <g id="g-root-tx_lackofps_qvxc6j190jxfm-stroke-fill" data-item-order="0" transform="translate(464, 272)">
    <g id="tx_lackofps_qvxc6j190jxfm-fill" stroke="none" fill="#2c2c2c">
      <g>
        <text style="font: 15px Roboto, sans-serif; white-space: pre;" font-size="15px" font-family="Roboto, sans-serif">
          <tspan x="19.33" y="28" dominant-baseline="ideographic">Lack of psychological </tspan>
          <tspan x="74.88" y="46" dominant-baseline="ideographic">assessments</tspan>
        </text>
      </g>
    </g>
  </g>
  <g id="g-root-tx_reliabil_i0abxn190jy8b-stroke-fill" data-item-order="0" transform="translate(389, 218)">
    <g id="tx_reliabil_i0abxn190jy8b-fill" stroke="none" fill="#2c2c2c">
      <g>
        <text style="font: 15px Roboto, sans-serif; white-space: pre;" font-size="15px" font-family="Roboto, sans-serif">
          <tspan x="21.88" y="31" dominant-baseline="ideographic">Reliability of witness accounts</tspan>
        </text>
      </g>
    </g>
  </g>
  <g id="g-root-tx_witnessp_9msiz190jxfo-stroke-fill" data-item-order="0" transform="translate(398, 152)">
    <g id="tx_witnessp_9msiz190jxfo-fill" stroke="none" fill="#2c2c2c">
      <g>
        <text style="font: bold 20px Roboto, sans-serif; white-space: pre;" font-weight="bold" font-size="20px" font-family="Roboto, sans-serif">
          <tspan x="18.81" y="34" dominant-baseline="ideographic">Witness Psychology</tspan>
        </text>
      </g>
    </g>
  </g>
  <g id="g-root-tx_persiste_1lzac4r190jyth-stroke-fill" data-item-order="0" transform="translate(116, 398)">
    <g id="tx_persiste_1lzac4r190jyth-fill" stroke="none" fill="#2c2c2c">
      <g>
        <text style="font: 15px Roboto, sans-serif; white-space: pre;" font-size="15px" font-family="Roboto, sans-serif">
          <tspan x="20.94" y="31" dominant-baseline="ideographic">Persistence of abnormalities</tspan>
        </text>
      </g>
    </g>
  </g>
  <g id="g-root-tx_lackoflo_1d3nbvv190jzm6-stroke-fill" data-item-order="0" transform="translate(101, 458)">
    <g id="tx_lackoflo_1d3nbvv190jzm6-fill" stroke="none" fill="#2c2c2c">
      <g>
        <text style="font: 15px Roboto, sans-serif; white-space: pre;" font-size="15px" font-family="Roboto, sans-serif">
          <tspan x="18.83" y="31" dominant-baseline="ideographic">Lack of long-term monitoring</tspan>
        </text>
      </g>
    </g>
  </g>
  <g id="g-root-tx_followup_zitp7v190lclr-stroke-fill" data-item-order="0" transform="translate(122, 524)">
    <g id="tx_followup_zitp7v190lclr-fill" stroke="none" fill="#2c2c2c">
      <g>
        <text style="font: bold 20px Roboto, sans-serif; white-space: pre;" font-weight="bold" font-size="20px" font-family="Roboto, sans-serif">
          <tspan x="12.17" y="34" dominant-baseline="ideographic">Follow-Up Studies</tspan>
        </text>
      </g>
    </g>
  </g>
  <g id="g-root-tx_advances_v3073f190lde0-stroke-fill" data-item-order="0" transform="translate(137, 218)">
    <g id="tx_advances_v3073f190lde0-fill" stroke="none" fill="#2c2c2c">
      <g>
        <text style="font: 15px Roboto, sans-serif; white-space: pre;" font-size="15px" font-family="Roboto, sans-serif">
          <tspan x="12.64" y="31" dominant-baseline="ideographic">Advances in soil science</tspan>
        </text>
      </g>
    </g>
  </g>
  <g id="g-root-tx_specific_qn6oyz190le69-stroke-fill" data-item-order="0" transform="translate(116, 278)">
    <g id="tx_specific_qn6oyz190le69-fill" stroke="none" fill="#2c2c2c">
      <g>
        <text style="font: 15px Roboto, sans-serif; white-space: pre;" font-size="15px" font-family="Roboto, sans-serif">
          <tspan x="17.3" y="31" dominant-baseline="ideographic">Specific criticisms by experts</tspan>
        </text>
      </g>
    </g>
  </g>
  <g id="g-root-tx_scientif_4gpnfv190lde2-stroke-fill" data-item-order="0" transform="translate(86, 152)">
    <g id="tx_scientif_4gpnfv190lde2-fill" stroke="none" fill="#2c2c2c">
      <g>
        <text style="font: bold 20px Roboto, sans-serif; white-space: pre;" font-weight="bold" font-size="20px" font-family="Roboto, sans-serif">
          <tspan x="22.22" y="34" dominant-baseline="ideographic">Scientific Challenges</tspan>
        </text>
      </g>
    </g>
  </g>
  <g id="g-root-tx_analyzin_1q6zo4r190lbm3-stroke-fill" data-item-order="0" transform="translate(176, 50)">
    <g id="tx_analyzin_1q6zo4r190lbm3-fill" stroke="none" fill="#f4f4f4">
      <g>
        <text style="font: bold 20px Roboto, sans-serif; white-space: pre;" font-weight="bold" font-size="20px" font-family="Roboto, sans-serif">
          <tspan x="15.81" y="34" dominant-baseline="ideographic">Analyzing the Trans-en-Provence UFO Incident</tspan>
        </text>
      </g>
    </g>
  </g>
</svg>
