<svg width="816" height="636" viewBox="0 0 816 636" style="fill:none;stroke:none;fill-rule:evenodd;clip-rule:evenodd;stroke-linecap:round;stroke-linejoin:round;stroke-miterlimit:1.5;" version="1.1" xmlns="http://www.w3.org/2000/svg" xmlns:xlink="http://www.w3.org/1999/xlink"><style class="text-font-style fontImports" data-font-family="Roboto">@import url('https://fonts.googleapis.com/css2?family=Roboto:wght@400;700&amp;display=block');</style><g id="g-root-tf_m7cr171ay5tsf-stroke-fill" data-item-order="-477360" transform="translate(18, 12)"></g><g id="g-root-sy_-1_cu_1unf7iz1ay4hl8-stroke-fill" data-item-order="-316218" transform="translate(32, 265.00390625)"><g id="sy_-1_cu_1unf7iz1ay4hl8-fill" stroke="none" fill="none"><g><path d="M 10.001 143L 10 47L 67 47L 70 59L 322 59L 319 47L 367 47L 370 59L 622 59L 619 47L 646 47L 646 10L 742 95L 646.002 180L 646 143L 619 143L 622 131L 370 131L 367 143L 319.001 143L 322.001 131L 70.001 131L 67.001 143L 10.001 143Z"></path></g></g><g id="sy_-1_cu_1unf7iz1ay4hl8-stroke" fill="none" stroke-linecap="round" stroke-linejoin="round" stroke-miterlimit="4" stroke="#f4f4f4" stroke-width="2"><g><path d="M 10.001 143L 10 47L 67 47L 70 59L 322 59L 319 47L 367 47L 370 59L 622 59L 619 47L 646 47L 646 10L 742 95L 646.0017 180L 646 143L 619 143L 622 131L 370 131L 367 143L 319.001 143L 322.001 131L 70.001 131L 67.001 143L 10.001 143Z"></path></g></g><g id="sy_-1_cu_1unf7iz1ay4hl8-stroke-overlay" fill="none" stroke-linecap="round" stroke-linejoin="round" stroke-miterlimit="4" stroke="#3131311a" stroke-width="2" stroke-dasharray="4,6"><animate attributeName="stroke-dashoffset" values="30;0" dur="1s" repeatCount="indefinite" begin="0"></animate><g><path d="M 10.001 143L 10 47L 67 47L 70 59L 322 59L 319 47L 367 47L 370 59L 622 59L 619 47L 646 47L 646 10L 742 95L 646.0017 180L 646 143L 619 143L 622 131L 370 131L 367 143L 319.001 143L 322.001 131L 70.001 131L 67.001 143L 10.001 143Z"></path></g></g></g><g id="g-root-sy_4_cu_1cwro4b1ay4gsl-stroke-fill" data-item-order="-316214" transform="translate(347, 386)"><g id="sy_4_cu_1cwro4b1ay4gsl-fill" stroke="none" fill="none"><g><path d="M 307 10L 295 58L 43 58L 55 10L 307 10ZM 291.992188 70L 279.992188 118L 27.992188 118L 39.992188 70L 291.992188 70ZM 277 130L 25 130L 10 190L 262 190L 277 130Z"></path></g></g><g id="sy_4_cu_1cwro4b1ay4gsl-stroke" fill="none" stroke-linecap="round" stroke-linejoin="round" stroke-miterlimit="4" stroke="#fb6762" stroke-width="2"><g><path d="M 307 10L 295 58L 43 58L 55 10L 307 10ZM 291.992188 70L 279.992188 118L 27.992188 118L 39.992188 70L 291.992188 70ZM 277 130L 25 130L 10 190L 262 190L 277 130Z"></path></g></g><g id="sy_4_cu_1cwro4b1ay4gsl-stroke-overlay" fill="none" stroke-linecap="round" stroke-linejoin="round" stroke-miterlimit="4" stroke="#f9080063" stroke-width="2" stroke-dasharray="4,6"><animate attributeName="stroke-dashoffset" values="30;0" dur="1s" repeatCount="indefinite" begin="0"></animate><g><path d="M 307 10L 295 58L 43 58L 55 10L 307 10ZM 291.992188 70L 279.992188 118L 27.992188 118L 39.992188 70L 291.992188 70ZM 277 130L 25 130L 10 190L 262 190L 277 130Z"></path></g></g></g><g id="g-root-sy_3_cu_zlxmu31ay4f7q-stroke-fill" data-item-order="-316210" transform="translate(347, 134)"><g id="sy_3_cu_zlxmu31ay4f7q-fill" stroke="none" fill="none"><g><path d="M 307 190L 295 142L 43 142L 55 190L 307 190ZM 291.992188 130L 279.992188 82L 27.992188 82L 39.992188 130L 291.992188 130ZM 277 70L 25 70L 10 10L 262 10L 277 70Z"></path></g></g><g id="sy_3_cu_zlxmu31ay4f7q-stroke" fill="none" stroke-linecap="round" stroke-linejoin="round" stroke-miterlimit="4" stroke="#b7b7b7" stroke-width="2"><g><path d="M 307 190L 295 142L 43 142L 55 190L 307 190ZM 291.992188 130L 279.992188 82L 27.992188 82L 39.992188 130L 291.992188 130ZM 277 70L 25 70L 10 10L 262 10L 277 70Z"></path></g></g><g id="sy_3_cu_zlxmu31ay4f7q-stroke-overlay" fill="none" stroke-linecap="round" stroke-linejoin="round" stroke-miterlimit="4" stroke="#0000001b" stroke-width="2" stroke-dasharray="4,6"><animate attributeName="stroke-dashoffset" values="30;0" dur="1s" repeatCount="indefinite" begin="0"></animate><g><path d="M 307 190L 295 142L 43 142L 55 190L 307 190ZM 291.992188 130L 279.992188 82L 27.992188 82L 39.992188 130L 291.992188 130ZM 277 70L 25 70L 10 10L 262 10L 277 70Z"></path></g></g></g><g id="g-root-sy_2_cu_qqaml71ay4g0f-stroke-fill" data-item-order="-316206" transform="translate(47, 386)"><g id="sy_2_cu_qqaml71ay4g0f-fill" stroke="none" fill="none"><g><path d="M 307.000977 10L 295.000977 58L 43.000977 58L 55.000977 10L 307.000977 10ZM 291.993164 70L 279.993164 118L 27.993164 118L 39.993164 70L 291.993164 70ZM 277.001 130L 25.001 130L 10 190L 262 190L 277.001 130Z"></path></g></g><g id="sy_2_cu_qqaml71ay4g0f-stroke" fill="none" stroke-linecap="round" stroke-linejoin="round" stroke-miterlimit="4" stroke="#1ac3fb" stroke-width="2"><g><path d="M 307.000977 10L 295.000977 58L 43.000977 58L 55.000977 10L 307.000977 10ZM 291.993164 70L 279.993164 118L 27.993164 118L 39.993164 70L 291.993164 70ZM 277.001 130L 25.001 130L 10 190L 262 190L 277.001 130Z"></path></g></g><g id="sy_2_cu_qqaml71ay4g0f-stroke-overlay" fill="none" stroke-linecap="round" stroke-linejoin="round" stroke-miterlimit="4" stroke="#00ade7d7" stroke-width="2" stroke-dasharray="4,6"><animate attributeName="stroke-dashoffset" values="30;0" dur="1s" repeatCount="indefinite" begin="0"></animate><g><path d="M 307.000977 10L 295.000977 58L 43.000977 58L 55.000977 10L 307.000977 10ZM 291.993164 70L 279.993164 118L 27.993164 118L 39.993164 70L 291.993164 70ZM 277.001 130L 25.001 130L 10 190L 262 190L 277.001 130Z"></path></g></g></g><g id="g-root-sy_1_cu_hunmcb1ay4hkw-stroke-fill" data-item-order="-316202" transform="translate(47, 134)"><g id="sy_1_cu_hunmcb1ay4hkw-fill" stroke="none" fill="none"><g><path d="M 307 190L 295 142L 43 142L 55 190L 307 190ZM 291.992188 130L 279.992188 82L 27.992188 82L 39.992188 130L 291.992188 130ZM 277 70L 25 70L 10 10L 262 10L 277 70Z"></path></g></g><g id="sy_1_cu_hunmcb1ay4hkw-stroke" fill="none" stroke-linecap="round" stroke-linejoin="round" stroke-miterlimit="4" stroke="#43dd93" stroke-width="2"><g><path d="M 307 190L 295 142L 43 142L 55 190L 307 190ZM 291.992188 130L 279.992188 82L 27.992188 82L 39.992188 130L 291.992188 130ZM 277 70L 25 70L 10 10L 262 10L 277 70Z"></path></g></g><g id="sy_1_cu_hunmcb1ay4hkw-stroke-overlay" fill="none" stroke-linecap="round" stroke-linejoin="round" stroke-miterlimit="4" stroke="#00c5676e" stroke-width="2" stroke-dasharray="4,6"><animate attributeName="stroke-dashoffset" values="30;0" dur="1s" repeatCount="indefinite" begin="0"></animate><g><path d="M 307 190L 295 142L 43 142L 55 190L 307 190ZM 291.992188 130L 279.992188 82L 27.992188 82L 39.992188 130L 291.992188 130ZM 277 70L 25 70L 10 10L 262 10L 277 70Z"></path></g></g></g><g id="g-root-tx_unexplai_4jtl231ay4g01-stroke-fill" data-item-order="0" transform="translate(404, 332)"><g id="tx_unexplai_4jtl231ay4g01-fill" stroke="none" fill="#4f91fc"><g><text style="font: bold 25px Roboto, sans-serif; white-space: pre;" font-weight="bold" font-size="25px" font-family="Roboto, sans-serif"><tspan x="18.14" y="43" dominant-baseline="ideographic">Unexplained UFO Incident</tspan></text></g></g><g id="tx_unexplai_4jtl231ay4g01-fill-overlay" stroke="none" fill="url(#crawlingPattern-0060fba2)"><g><text style="font: bold 25px Roboto, sans-serif; white-space: pre;" font-weight="bold" font-size="25px" font-family="Roboto, sans-serif"><tspan x="18.14" y="43" dominant-baseline="ideographic">Unexplained UFO Incident</tspan></text></g></g></g><g id="g-root-tx_singlewi_1cyn3dn1ay4fsy-stroke-fill" data-item-order="0" transform="translate(428, 398)"><g id="tx_singlewi_1cyn3dn1ay4fsy-fill" stroke="none" fill="#fb6762"><g><text style="font: 15px Roboto, sans-serif; white-space: pre;" font-size="15px" font-family="Roboto, sans-serif"><tspan x="23.38" y="31" dominant-baseline="ideographic">Single Witness Limitations</tspan></text></g></g><g id="tx_singlewi_1cyn3dn1ay4fsy-fill-overlay" stroke="none" fill="url(#crawlingPattern-f9080081)"><g><text style="font: 15px Roboto, sans-serif; white-space: pre;" font-size="15px" font-family="Roboto, sans-serif"><tspan x="23.38" y="31" dominant-baseline="ideographic">Single Witness Limitations</tspan></text></g></g></g><g id="g-root-tx_methodol_zn6l0b1ay4hdv-stroke-fill" data-item-order="0" transform="translate(425, 458)"><g id="tx_methodol_zn6l0b1ay4hdv-fill" stroke="none" fill="#fb6762"><g><text style="font: 15px Roboto, sans-serif; white-space: pre;" font-size="15px" font-family="Roboto, sans-serif"><tspan x="21.11" y="31" dominant-baseline="ideographic">Methodological Criticism</tspan></text></g></g><g id="tx_methodol_zn6l0b1ay4hdv-fill-overlay" stroke="none" fill="url(#crawlingPattern-f9080081)"><g><text style="font: 15px Roboto, sans-serif; white-space: pre;" font-size="15px" font-family="Roboto, sans-serif"><tspan x="21.11" y="31" dominant-baseline="ideographic">Methodological Criticism</tspan></text></g></g></g><g id="g-root-tx_credibil_90w1cr1ay4hdw-stroke-fill" data-item-order="0" transform="translate(386, 524)"><g id="tx_credibil_90w1cr1ay4hdw-fill" stroke="none" fill="#fb6762"><g><text style="font: bold 20px Roboto, sans-serif; white-space: pre;" font-weight="bold" font-size="20px" font-family="Roboto, sans-serif"><tspan x="15.39" y="34" dominant-baseline="ideographic">Credibility Challenges</tspan></text></g></g><g id="tx_credibil_90w1cr1ay4hdw-fill-overlay" stroke="none" fill="url(#crawlingPattern-f9080081)"><g><text style="font: bold 20px Roboto, sans-serif; white-space: pre;" font-weight="bold" font-size="20px" font-family="Roboto, sans-serif"><tspan x="15.39" y="34" dominant-baseline="ideographic">Credibility Challenges</tspan></text></g></g></g><g id="g-root-tx_naturalp_1hfpjob1ay4h6t-stroke-fill" data-item-order="0" transform="translate(476, 278)"><g id="tx_naturalp_1hfpjob1ay4h6t-fill" stroke="none" fill="#b7b7b7"><g><text style="font: 15px Roboto, sans-serif; white-space: pre;" font-size="15px" font-family="Roboto, sans-serif"><tspan x="19.58" y="31" dominant-baseline="ideographic">Natural Phenomena</tspan></text></g></g><g id="tx_naturalp_1hfpjob1ay4h6t-fill-overlay" stroke="none" fill="url(#crawlingPattern-00000024)"><g><text style="font: 15px Roboto, sans-serif; white-space: pre;" font-size="15px" font-family="Roboto, sans-serif"><tspan x="19.58" y="31" dominant-baseline="ideographic">Natural Phenomena</tspan></text></g></g></g><g id="g-root-tx_military_144vie31ay4fly-stroke-fill" data-item-order="0" transform="translate(509, 218)"><g id="tx_military_144vie31ay4fly-fill" stroke="none" fill="#b7b7b7"><g><text style="font: 15px Roboto, sans-serif; white-space: pre;" font-size="15px" font-family="Roboto, sans-serif"><tspan x="18.02" y="31" dominant-baseline="ideographic">Military Craft</tspan></text></g></g><g id="tx_military_144vie31ay4fly-fill-overlay" stroke="none" fill="url(#crawlingPattern-00000024)"><g><text style="font: 15px Roboto, sans-serif; white-space: pre;" font-size="15px" font-family="Roboto, sans-serif"><tspan x="18.02" y="31" dominant-baseline="ideographic">Military Craft</tspan></text></g></g></g><g id="g-root-tx_alternat_hxrzrv1ay4hzj-stroke-fill" data-item-order="0" transform="translate(470, 140)"><g id="tx_alternat_hxrzrv1ay4hzj-fill" stroke="none" fill="#b7b7b7"><g><text style="font: bold 20px Roboto, sans-serif; white-space: pre;" font-weight="bold" font-size="20px" font-family="Roboto, sans-serif"><tspan x="29.59" y="34" dominant-baseline="ideographic">Alternative </tspan><tspan x="12.58" y="58" dominant-baseline="ideographic">Explanations</tspan></text></g></g><g id="tx_alternat_hxrzrv1ay4hzj-fill-overlay" stroke="none" fill="url(#crawlingPattern-00000024)"><g><text style="font: bold 20px Roboto, sans-serif; white-space: pre;" font-weight="bold" font-size="20px" font-family="Roboto, sans-serif"><tspan x="29.59" y="34" dominant-baseline="ideographic">Alternative </tspan><tspan x="12.58" y="58" dominant-baseline="ideographic">Explanations</tspan></text></g></g></g><g id="g-root-tx_biologic_74gd71ay4h6w-stroke-fill" data-item-order="0" transform="translate(176, 398)"><g id="tx_biologic_74gd71ay4h6w-fill" stroke="none" fill="#1ac3fb"><g><text style="font: 15px Roboto, sans-serif; white-space: pre;" font-size="15px" font-family="Roboto, sans-serif"><tspan x="11.86" y="31" dominant-baseline="ideographic">Biological Anomalies</tspan></text></g></g><g id="tx_biologic_74gd71ay4h6w-fill-overlay" stroke="none" fill="url(#crawlingPattern-00a3d9d9)"><g><text style="font: 15px Roboto, sans-serif; white-space: pre;" font-size="15px" font-family="Roboto, sans-serif"><tspan x="11.86" y="31" dominant-baseline="ideographic">Biological Anomalies</tspan></text></g></g></g><g id="g-root-tx_chemical_1lxeh231ay4fex-stroke-fill" data-item-order="0" transform="translate(161, 458)"><g id="tx_chemical_1lxeh231ay4fex-fill" stroke="none" fill="#1ac3fb"><g><text style="font: 15px Roboto, sans-serif; white-space: pre;" font-size="15px" font-family="Roboto, sans-serif"><tspan x="13.45" y="31" dominant-baseline="ideographic">Chemical Alterations</tspan></text></g></g><g id="tx_chemical_1lxeh231ay4fex-fill-overlay" stroke="none" fill="url(#crawlingPattern-00a3d9d9)"><g><text style="font: 15px Roboto, sans-serif; white-space: pre;" font-size="15px" font-family="Roboto, sans-serif"><tspan x="13.45" y="31" dominant-baseline="ideographic">Chemical Alterations</tspan></text></g></g></g><g id="g-root-tx_scientif_1hhkyxn1ay4g76-stroke-fill" data-item-order="0" transform="translate(110, 524)"><g id="tx_scientif_1hhkyxn1ay4g76-fill" stroke="none" fill="#1ac3fb"><g><text style="font: bold 20px Roboto, sans-serif; white-space: pre;" font-weight="bold" font-size="20px" font-family="Roboto, sans-serif"><tspan x="22.06" y="34" dominant-baseline="ideographic">Scientific Analysis</tspan></text></g></g><g id="tx_scientif_1hhkyxn1ay4g76-fill-overlay" stroke="none" fill="url(#crawlingPattern-00a3d9d9)"><g><text style="font: bold 20px Roboto, sans-serif; white-space: pre;" font-weight="bold" font-size="20px" font-family="Roboto, sans-serif"><tspan x="22.06" y="34" dominant-baseline="ideographic">Scientific Analysis</tspan></text></g></g></g><g id="g-root-tx_initials_18lxyor1ay4gzv-stroke-fill" data-item-order="0" transform="translate(185, 218)"><g id="tx_initials_18lxyor1ay4gzv-fill" stroke="none" fill="#43dd93"><g><text style="font: 15px Roboto, sans-serif; white-space: pre;" font-size="15px" font-family="Roboto, sans-serif"><tspan x="14.2" y="31" dominant-baseline="ideographic">Initial Skepticism</tspan></text></g></g><g id="tx_initials_18lxyor1ay4gzv-fill-overlay" stroke="none" fill="url(#crawlingPattern-00b15c75)"><g><text style="font: 15px Roboto, sans-serif; white-space: pre;" font-size="15px" font-family="Roboto, sans-serif"><tspan x="14.2" y="31" dominant-baseline="ideographic">Initial Skepticism</tspan></text></g></g></g><g id="g-root-tx_consiste_vb3xej1ay4ff0-stroke-fill" data-item-order="0" transform="translate(164, 278)"><g id="tx_consiste_vb3xej1ay4ff0-fill" stroke="none" fill="#43dd93"><g><text style="font: 15px Roboto, sans-serif; white-space: pre;" font-size="15px" font-family="Roboto, sans-serif"><tspan x="19.22" y="31" dominant-baseline="ideographic">Consistent Testimony</tspan></text></g></g><g id="tx_consiste_vb3xej1ay4ff0-fill-overlay" stroke="none" fill="url(#crawlingPattern-00b15c75)"><g><text style="font: 15px Roboto, sans-serif; white-space: pre;" font-size="15px" font-family="Roboto, sans-serif"><tspan x="19.22" y="31" dominant-baseline="ideographic">Consistent Testimony</tspan></text></g></g></g><g id="g-root-tx_witnessa_qvafa31ay4g79-stroke-fill" data-item-order="0" transform="translate(122, 152)"><g id="tx_witnessa_qvafa31ay4g79-fill" stroke="none" fill="#43dd93"><g><text style="font: bold 20px Roboto, sans-serif; white-space: pre;" font-weight="bold" font-size="20px" font-family="Roboto, sans-serif"><tspan x="13.89" y="34" dominant-baseline="ideographic">Witness Accounts</tspan></text></g></g><g id="tx_witnessa_qvafa31ay4g79-fill-overlay" stroke="none" fill="url(#crawlingPattern-00b15c75)"><g><text style="font: bold 20px Roboto, sans-serif; white-space: pre;" font-weight="bold" font-size="20px" font-family="Roboto, sans-serif"><tspan x="13.89" y="34" dominant-baseline="ideographic">Witness Accounts</tspan></text></g></g></g><g id="g-root-tx_analyzin_8zvmj1ay4g7a-stroke-fill" data-item-order="0" transform="translate(170, 50)"><g id="tx_analyzin_8zvmj1ay4g7a-fill" stroke="none" fill="#f4f4f4"><g><text style="font: bold 20px Roboto, sans-serif; white-space: pre;" font-weight="bold" font-size="20px" font-family="Roboto, sans-serif"><tspan x="12.48" y="34" dominant-baseline="ideographic">Analyzing the Trans-en-Provence UFO Encounter</tspan></text></g></g><defs><pattern id="crawlingPattern-0060fba2" x="0" y="0" width="12" height="12" patternUnits="userSpaceOnUse" fill="#0060fba2"><use href="#crawlingSymbol"></use></pattern><symbol id="crawlingSymbol"><g><animateTransform attributeName="transform" type="translate" from="0 0" to="-12 0" dur="0.4s" repeatCount="indefinite"></animateTransform><path d="M -12.5 12.5 l 13 -13 l 6 0 l -13 13 Z M -0.5 12.5 l 13 -13 l 6 0 l -13 13 Z M 11.5 12.5 l 13 -13 l 6 0 l -13 13 Z"></path></g></symbol><pattern id="crawlingPattern-f9080081" x="0" y="0" width="12" height="12" patternUnits="userSpaceOnUse" fill="#f9080081"><use href="#crawlingSymbol"></use></pattern><pattern id="crawlingPattern-00000024" x="0" y="0" width="12" height="12" patternUnits="userSpaceOnUse" fill="#00000024"><use href="#crawlingSymbol"></use></pattern><pattern id="crawlingPattern-00a3d9d9" x="0" y="0" width="12" height="12" patternUnits="userSpaceOnUse" fill="#00a3d9d9"><use href="#crawlingSymbol"></use></pattern><pattern id="crawlingPattern-00b15c75" x="0" y="0" width="12" height="12" patternUnits="userSpaceOnUse" fill="#00b15c75"><use href="#crawlingSymbol"></use></pattern><pattern id="crawlingPattern-0000001b" x="0" y="0" width="12" height="12" patternUnits="userSpaceOnUse" fill="#0000001b"><use href="#crawlingSymbol"></use></pattern></defs><g id="tx_analyzin_8zvmj1ay4g7a-fill-overlay" stroke="none" fill="url(#crawlingPattern-0000001b)"><g><text style="font: bold 20px Roboto, sans-serif; white-space: pre;" font-weight="bold" font-size="20px" font-family="Roboto, sans-serif"><tspan x="12.48" y="34" dominant-baseline="ideographic">Analyzing the Trans-en-Provence UFO Encounter</tspan></text></g></g></g></svg>