<?xml version='1.0' encoding='utf-8'?>
<svg xmlns="http://www.w3.org/2000/svg" xmlns:xlink="http://www.w3.org/1999/xlink" width="768" height="672" viewBox="0 0 768 672" style="fill:none;stroke:none;fill-rule:evenodd;clip-rule:evenodd;stroke-linecap:round;stroke-linejoin:round;stroke-miterlimit:1.5;" version="1.1">
  <style class="text-font-style fontImports" data-font-family="Roboto">@import url('https://fonts.googleapis.com/css2?family=Roboto:wght@400;700&amp;display=block');</style>
  <rect x="0" y="0" width="768" height="672" fill="#252a34" stroke="none" id="programmatic_background"/>
  <g id="g-root-tf_1qbcn3f1bsbnrc-stroke-fill" data-item-order="-482112" transform="translate(12, 12)">
    <g id="tf_1qbcn3f1bsbnrc-fill" stroke="none" fill="#2c2c2c">
      <g>
        <path d="M 0 0L 744 0L 744 648L 0 648Z"/>
      </g>
    </g>
    <defs>
      <pattern id="crawlingPattern-a906f51a" x="0" y="0" width="12" height="12" patternUnits="userSpaceOnUse" fill="#a906f51a">
        <use href="#crawlingSymbol"/>
      </pattern>
      <symbol id="crawlingSymbol">
        <g>
          <path d="M -12.5 12.5 l 13 -13 l 6 0 l -13 13 Z M -0.5 12.5 l 13 -13 l 6 0 l -13 13 Z M 11.5 12.5 l 13 -13 l 6 0 l -13 13 Z"/>
        </g>
      </symbol>
      <pattern id="crawlingPattern-ec07911a" x="0" y="0" width="12" height="12" patternUnits="userSpaceOnUse" fill="#ec07911a">
        <use href="#crawlingSymbol"/>
      </pattern>
      <pattern id="crawlingPattern-f908001a" x="0" y="0" width="12" height="12" patternUnits="userSpaceOnUse" fill="#f908001a">
        <use href="#crawlingSymbol"/>
      </pattern>
      <pattern id="crawlingPattern-f576002d" x="0" y="0" width="12" height="12" patternUnits="userSpaceOnUse" fill="#f576002d">
        <use href="#crawlingSymbol"/>
      </pattern>
      <pattern id="crawlingPattern-ffe50099" x="0" y="0" width="12" height="12" patternUnits="userSpaceOnUse" fill="#ffe50099">
        <use href="#crawlingSymbol"/>
      </pattern>
      <pattern id="crawlingPattern-0000001b" x="0" y="0" width="12" height="12" patternUnits="userSpaceOnUse" fill="#0000001b">
        <use href="#crawlingSymbol"/>
      </pattern>
      <pattern id="crawlingPattern-b400ff37" x="0" y="0" width="12" height="12" patternUnits="userSpaceOnUse" fill="#b400ff37">
        <use href="#crawlingSymbol"/>
      </pattern>
      <pattern id="crawlingPattern-ff009b38" x="0" y="0" width="12" height="12" patternUnits="userSpaceOnUse" fill="#ff009b38">
        <use href="#crawlingSymbol"/>
      </pattern>
      <pattern id="crawlingPattern-ff0b0038" x="0" y="0" width="12" height="12" patternUnits="userSpaceOnUse" fill="#ff0b0038">
        <use href="#crawlingSymbol"/>
      </pattern>
      <pattern id="crawlingPattern-ff7b003a" x="0" y="0" width="12" height="12" patternUnits="userSpaceOnUse" fill="#ff7b003a">
        <use href="#crawlingSymbol"/>
      </pattern>
      <pattern id="crawlingPattern-ffe7003d" x="0" y="0" width="12" height="12" patternUnits="userSpaceOnUse" fill="#ffe7003d">
        <use href="#crawlingSymbol"/>
      </pattern>
      <pattern id="crawlingPattern-a700f578" x="0" y="0" width="12" height="12" patternUnits="userSpaceOnUse" fill="#a700f578">
        <use href="#crawlingSymbol"/>
      </pattern>
      <pattern id="crawlingPattern-eb008e76" x="0" y="0" width="12" height="12" patternUnits="userSpaceOnUse" fill="#eb008e76">
        <use href="#crawlingSymbol"/>
      </pattern>
      <pattern id="crawlingPattern-f9080081" x="0" y="0" width="12" height="12" patternUnits="userSpaceOnUse" fill="#f9080081">
        <use href="#crawlingSymbol"/>
      </pattern>
      <pattern id="crawlingPattern-f17400d3" x="0" y="0" width="12" height="12" patternUnits="userSpaceOnUse" fill="#f17400d3">
        <use href="#crawlingSymbol"/>
      </pattern>
      <pattern id="crawlingPattern-ddc700ff" x="0" y="0" width="12" height="12" patternUnits="userSpaceOnUse" fill="#ddc700ff">
        <use href="#crawlingSymbol"/>
      </pattern>
      <pattern id="crawlingPattern-c1c1c11a" x="0" y="0" width="12" height="12" patternUnits="userSpaceOnUse" fill="#c1c1c11a">
        <use href="#crawlingSymbol"/>
      </pattern>
      <pattern id="crawlingPattern-5f5f5f1a" x="0" y="0" width="12" height="12" patternUnits="userSpaceOnUse" fill="#5f5f5f1a">
        <use href="#crawlingSymbol"/>
      </pattern>
    </defs>
  </g>
  <g id="g-root-sy_-1_Vector_14306az1bs1ts9-stroke-fill" data-item-order="-35419" transform="translate(254, 182)">
    <g id="sy_-1_Vector_14306az1bs1ts9-stroke" fill="none" stroke-linecap="round" stroke-linejoin="round" stroke-miterlimit="4" stroke="#f4f4f4" stroke-width="2">
      <g>
        <path d="M 10 322L 10 298M 10 226L 10 202M 10 130L 10 106M 10 34L 10 10"/>
      </g>
    </g>
  </g>
  <g id="g-root-sy_-1_line_14306az1bs1tsa-stroke-fill" data-item-order="-35415" transform="translate(254, 566)">
    <g id="sy_-1_line_14306az1bs1tsa-stroke" fill="none" stroke-linecap="round" stroke-linejoin="round" stroke-miterlimit="4" stroke="#f4f4f4" stroke-width="2">
      <g>
        <path d="M 10 44L 10 10"/>
        <path d="M 3.5 38L 10 44.5L 16.5 38" stroke-dasharray="none"/>
      </g>
    </g>
  </g>
  <g id="g-root-cr_5_cr-big_zn6o6j1bs1ukj-stroke-fill" data-item-order="-35412" transform="translate(218, 494)">
    <g id="cr_5_cr-big_zn6o6j1bs1ukj-fill" stroke="none" fill="#cb68f9">
      <g>
        <path d="M 10 46C 10 65.882251 26.117749 82 46 82C 65.882251 82 82 65.882251 82 46C 82 26.117749 65.882251 10 46 10C 26.117749 10 10 26.117749 10 46"/>
      </g>
    </g>
    <g id="cr_5_cr-big_zn6o6j1bs1ukj-stroke" fill="none" stroke-linecap="round" stroke-linejoin="round" stroke-miterlimit="4" stroke="#2c2c2c" stroke-width="2">
      <g>
        <path d="M 10 46C 10 65.882251 26.117749 82 46 82C 65.882251 82 82 65.882251 82 46C 82 26.117749 65.882251 10 46 10C 26.117749 10 10 26.117749 10 46"/>
      </g>
    </g>
  </g>
  <g id="g-root-cr_4_cr-big_qrjnxn1bs1vd8-stroke-fill" data-item-order="-35408" transform="translate(218, 398)">
    <g id="cr_4_cr-big_qrjnxn1bs1vd8-fill" stroke="none" fill="#f366bb">
      <g>
        <path d="M 10 46C 10 65.882251 26.117749 82 46 82C 65.882251 82 82 65.882251 82 46C 82 26.117749 65.882251 10 46 10C 26.117749 10 10 26.117749 10 46"/>
      </g>
    </g>
    <g id="cr_4_cr-big_qrjnxn1bs1vd8-stroke" fill="none" stroke-linecap="round" stroke-linejoin="round" stroke-miterlimit="4" stroke="#2c2c2c" stroke-width="2">
      <g>
        <path d="M 10 46C 10 65.882251 26.117749 82 46 82C 65.882251 82 82 65.882251 82 46C 82 26.117749 65.882251 10 46 10C 26.117749 10 10 26.117749 10 46"/>
      </g>
    </g>
  </g>
  <g id="g-root-cr_3_cr-big_mccmwb1bs1szp-stroke-fill" data-item-order="-35404" transform="translate(218, 302)">
    <g id="cr_3_cr-big_mccmwb1bs1szp-fill" stroke="none" fill="#fb6762">
      <g>
        <path d="M 10 46C 10 65.882251 26.117749 82 46 82C 65.882251 82 82 65.882251 82 46C 82 26.117749 65.882251 10 46 10C 26.117749 10 10 26.117749 10 46"/>
      </g>
    </g>
    <g id="cr_3_cr-big_mccmwb1bs1szp-stroke" fill="none" stroke-linecap="round" stroke-linejoin="round" stroke-miterlimit="4" stroke="#2c2c2c" stroke-width="2">
      <g>
        <path d="M 10 46C 10 65.882251 26.117749 82 46 82C 65.882251 82 82 65.882251 82 46C 82 26.117749 65.882251 10 46 10C 26.117749 10 10 26.117749 10 46"/>
      </g>
    </g>
  </g>
  <g id="g-root-cr_2_cr-big_dgpmnf1bs1tse-stroke-fill" data-item-order="-35400" transform="translate(218, 206)">
    <g id="cr_2_cr-big_dgpmnf1bs1tse-fill" stroke="none" fill="#f79438">
      <g>
        <path d="M 10 46C 10 65.882251 26.117749 82 46 82C 65.882251 82 82 65.882251 82 46C 82 26.117749 65.882251 10 46 10C 26.117749 10 10 26.117749 10 46"/>
      </g>
    </g>
    <g id="cr_2_cr-big_dgpmnf1bs1tse-stroke" fill="none" stroke-linecap="round" stroke-linejoin="round" stroke-miterlimit="4" stroke="#2c2c2c" stroke-width="2">
      <g>
        <path d="M 10 46C 10 65.882251 26.117749 82 46 82C 65.882251 82 82 65.882251 82 46C 82 26.117749 65.882251 10 46 10C 26.117749 10 10 26.117749 10 46"/>
      </g>
    </g>
  </g>
  <g id="g-root-cr_1_cr-big_90w4iz1bs1ukn-stroke-fill" data-item-order="-35396" transform="translate(218, 110)">
    <g id="cr_1_cr-big_90w4iz1bs1ukn-fill" stroke="none" fill="#ffe711">
      <g>
        <path d="M 10 46C 10 65.882251 26.117749 82 46 82C 65.882251 82 82 65.882251 82 46C 82 26.117749 65.882251 10 46 10C 26.117749 10 10 26.117749 10 46"/>
      </g>
    </g>
    <g id="cr_1_cr-big_90w4iz1bs1ukn-stroke" fill="none" stroke-linecap="round" stroke-linejoin="round" stroke-miterlimit="4" stroke="#2c2c2c" stroke-width="2">
      <g>
        <path d="M 10 46C 10 65.882251 26.117749 82 46 82C 65.882251 82 82 65.882251 82 46C 82 26.117749 65.882251 10 46 10C 26.117749 10 10 26.117749 10 46"/>
      </g>
    </g>
  </g>
  <g id="g-root-ic_disa_18nth4b1bs1t6z-stroke-fill" data-item-order="-2304" transform="translate(230, 506)">
    <g id="ic_disa_18nth4b1bs1t6z-fill" stroke="none" fill="#f4f4f4">
      <g>
        <path d="M 53 20L 37.739998 20C 37.540558 20.000694 37.359779 19.882793 37.279999 19.700001C 37.170902 19.529274 37.170902 19.310726 37.279999 19.139999L 42.16 14.26C 42.948063 13.690435 43.330582 12.712885 43.138359 11.759733C 42.946133 10.806581 42.214638 10.053695 41.267418 9.834088C 40.320202 9.614482 39.332035 9.968674 38.739998 10.74L 30.74 18.74C 30.351156 19.121143 29.728844 19.121143 29.34 18.74L 21.34 10.74C 20.367908 9.746279 18.774361 9.728559 17.780411 10.70042C 16.786463 11.672281 16.768372 13.265824 17.74 14.26L 22.619999 19.139999C 22.761532 19.29027 22.800774 19.510031 22.719999 19.700001C 22.640224 19.882793 22.459442 20.000694 22.26 20L 15 20C 12.238576 20 10 22.238577 10 25L 10 53C 10 55.761425 12.238576 58 15 58L 53 58C 55.761425 58 58 55.761425 58 53L 58 25C 58 22.238577 55.761425 20 53 20ZM 45 49C 45 51.209141 43.209141 53 41 53L 19 53C 16.790861 53 15 51.209141 15 49L 15 29C 15 26.790861 16.790861 25 19 25L 41 25C 43.209141 25 45 26.790861 45 29ZM 52 52C 50.895432 52 50 51.104568 50 50C 50 48.895432 50.895432 48 52 48C 53.104568 48 54 48.895432 54 50C 54 51.104568 53.104568 52 52 52ZM 54 42C 54 42.552284 53.552284 43 53 43L 51 43C 50.447716 43 50 42.552284 50 42L 50 28C 50 27.447716 50.447716 27 51 27L 53 27C 53.552284 27 54 27.447716 54 28ZM 30 28C 23.92487 28 19 32.924866 19 39C 19 45.075134 23.92487 50 30 50C 36.075134 50 41 45.075134 41 39C 40.988991 32.929436 36.070568 28.011007 30 28ZM 24 41.5C 23.660263 41.417683 23.392126 41.157204 23.299999 40.82C 23.131104 40.227955 23.043633 39.615662 23.040001 39C 23.039938 35.149574 26.149637 32.022003 30 32C 30.61566 32.003632 31.227953 32.091103 31.820002 32.260002C 32.157204 32.352127 32.417683 32.620262 32.5 32.959999C 32.598774 33.303448 32.498596 33.673336 32.239998 33.919998L 24.92 41.239998C 24.681364 41.484062 24.331081 41.583054 24 41.5ZM 30 46C 29.384344 45.996372 28.772049 45.908901 28.180002 45.740002C 27.842793 45.647873 27.582315 45.379734 27.499998 45.039997C 27.361126 44.673046 27.464779 44.25843 27.76 44L 35.080002 36.68C 35.324188 36.417274 35.696602 36.316414 36.040001 36.419998C 36.379734 36.502312 36.647873 36.762791 36.739998 37.099998C 36.908901 37.692051 36.996372 38.304344 37 38.920002C 37.021378 40.790337 36.293327 42.591438 34.978249 43.921547C 33.66317 45.251656 31.870461 46.000122 30 46Z"/>
      </g>
    </g>
  </g>
  <g id="g-root-ic_phot_1unfap71bs4mbw-stroke-fill" data-item-order="-2304" transform="translate(230, 410)">
    <g id="ic_phot_1unfap71bs4mbw-fill" stroke="none" fill="#f4f4f4">
      <g>
        <path d="M 38.599998 10.688C 39.203468 10.9602 39.688484 11.440959 39.966003 12.042L 51.580002 37.515999C 51.720757 37.825485 51.694626 38.18528 51.510632 38.471176C 51.326637 38.757076 51.009987 38.929905 50.669998 38.93L 17.566 38.93C 17.173569 38.929535 16.817682 38.699577 16.656 38.341999L 10.752 25.284C 10.440565 24.669064 10.417134 23.947853 10.688 23.313999C 10.959806 22.709784 11.440611 22.224007 12.042 21.945999L 36.627998 10.754C 37.281998 10.434 37.982002 10.422 38.599998 10.688ZM 25.656 27.858C 25.656002 29.735769 24.13377 31.258001 22.256001 31.258001C 20.378233 31.258001 18.856001 29.735769 18.856001 27.858002C 18.856001 25.980232 20.378233 24.458 22.256001 24.458C 24.13377 24.458 25.656002 25.980232 25.656002 27.858002ZM 36.582001 35.858002L 45.591999 31.854L 45.551998 31.77L 35.237999 27.082001C 34.957432 26.946133 34.629959 26.946869 34.350002 27.084002C 34.064644 27.241003 33.86871 27.521969 33.82 27.844L 32.279999 35.856003L 36.582001 35.856003ZM 45.382 14.658C 45.037014 14.649828 44.712193 14.820101 44.522659 15.108471C 44.333122 15.396841 44.30566 15.762556 44.450001 16.076L 54.049999 36.875999C 54.245865 37.300644 54.709869 37.532837 55.167168 37.435051C 55.624466 37.337265 55.95293 36.935608 55.958 36.468002L 56.158001 17.468L 56.158001 17.455999C 56.158001 16.756001 55.945999 16.102001 55.498001 15.610001C 55.054955 15.126453 54.427811 14.853213 53.771999 14.858L 45.382 14.658ZM 10.162 44.383999C 10.162 43.555573 10.833572 42.884003 11.662 42.884003L 19.661999 42.883999C 20.490427 42.884003 21.162001 43.555573 21.162001 44.384003C 21.162001 45.212429 20.490427 45.884003 19.662001 45.884003L 13.16 45.883999L 13.16 48.383999L 18.66 48.383999C 19.488426 48.384003 20.16 49.055573 20.16 49.884003C 20.16 50.712429 19.488426 51.384003 18.66 51.384003L 13.16 51.383999L 13.16 56.383999C 13.16 57.212429 12.488427 57.884003 11.66 57.884003C 10.831573 57.884003 10.16 57.212429 10.16 56.384003L 10.16 44.383999ZM 36.781998 44.383999C 36.782001 43.555573 36.110428 42.884003 35.282001 42.884003C 34.453575 42.884003 33.782001 43.555573 33.782001 44.384003L 33.781998 56.383999C 33.782001 57.212429 34.453575 57.884003 35.282001 57.884003C 36.110428 57.884003 36.782001 57.212429 36.782001 56.384003L 36.781998 53.004002L 38.200001 51.59L 43.144001 57.360001C 43.683064 57.989468 44.630322 58.062817 45.259865 57.523842C 45.889404 56.984863 45.962887 56.037617 45.424 55.408001L 40.326 49.462002L 44.346001 45.444C 44.914188 44.855167 44.905624 43.919605 44.326744 43.341274C 43.747868 42.762943 42.812302 42.755257 42.224003 43.324001L 37.232002 48.313999L 37.211998 48.334L 36.784 48.762001L 36.784 44.383999ZM 48.34 42.883999C 47.511574 42.884003 46.84 43.555573 46.84 44.384003L 46.84 56.383999C 46.84 57.212002 47.512001 57.883999 48.34 57.883999L 56.34 57.883999C 57.16843 57.884003 57.84 57.212429 57.84 56.384003C 57.84 55.555573 57.16843 54.884003 56.34 54.884003L 49.84 54.883999L 49.84 51.383999L 55.34 51.383999C 56.16843 51.384003 56.84 50.712429 56.84 49.884003C 56.84 49.055573 56.16843 48.384003 55.34 48.384003L 49.84 48.383999L 49.84 45.883999L 56.34 45.883999C 57.16843 45.884003 57.84 45.212429 57.84 44.384003C 57.84 43.555573 57.16843 42.884003 56.34 42.884003L 48.34 42.883999ZM 26.374001 46.127998L 24.788 50.883999L 27.959999 50.883999L 26.374001 46.127998ZM 31.454 51.875999L 29.114 44.858002C 28.72109 43.678398 27.617319 42.88266 26.374001 42.88266C 25.13068 42.88266 24.026911 43.678398 23.634001 44.858002L 21.293999 51.877998C 21.286831 51.899174 21.280161 51.920509 21.274 51.941998L 19.950001 55.91C 19.700981 56.691986 20.126621 57.528915 20.905239 57.788273C 21.683857 58.04763 22.526352 57.633114 22.796001 56.858002L 23.788 53.883999L 28.959999 53.883999L 29.950001 56.858002C 30.21965 57.633114 31.062145 58.04763 31.840763 57.788273C 32.619377 57.528915 33.045021 56.691986 32.796001 55.91L 31.476 51.942001C 31.468546 51.919804 31.460543 51.897797 31.452 51.875999Z"/>
      </g>
    </g>
  </g>
  <g id="g-root-ic_reje_1cw5a7f1bs622t-stroke-fill" data-item-order="-2304" transform="translate(230, 314)">
    <g id="ic_reje_1cw5a7f1bs622t-fill" stroke="none" fill="#f4f4f4">
      <g>
        <path d="M 58 42C 58 37.581722 54.418278 34 50 34L 47.639999 34C 47.229027 33.993851 46.85614 34.239792 46.700001 34.620003L 45.419998 37.84C 45.342167 38.027225 45.162605 38.152138 44.959999 38.159996C 44.755684 38.157349 44.573544 38.03064 44.5 37.84L 43.200001 34.620003C 43.051094 34.242935 42.685387 33.996483 42.279999 34L 38.799999 34C 37.73391 33.999153 36.711594 34.42392 35.959999 35.18L 26.780001 44.380001C 25.780365 45.352024 25.75798 46.950367 26.730001 47.950001C 27.702023 48.949638 29.300365 48.972023 30.300001 48.000004L 38.099998 40.220001C 38.245834 40.071548 38.466137 40.024338 38.659996 40.099998C 38.842796 40.179779 38.960693 40.360558 38.959999 40.559998L 38.959999 57C 38.959999 57.552284 39.407715 58 39.959999 58L 49.959999 58C 50.512283 58 50.959999 57.552284 50.959999 57L 50.959999 41.5C 50.959999 40.947716 51.407715 40.5 51.959999 40.5C 52.512283 40.5 52.959999 40.947716 52.959999 41.5L 52.959999 53C 52.959999 54.380714 54.079288 55.5 55.459999 55.5C 56.840714 55.5 57.959999 54.380714 57.959999 53ZM 34 51L 18 51C 17.447716 51 17 50.552284 17 50L 17 37.540001C 16.994228 37.330578 16.858511 37.146961 16.66 37.080002C 14.554277 36.314507 12.632803 35.115288 11.02 33.559998C 10.888815 33.44474 10.709991 33.400036 10.54 33.440002C 10.367412 33.492355 10.232352 33.627411 10.18 33.800003C 10.091687 34.194038 10.044765 34.596218 10.04 35L 10.04 47C 9.99555 49.398838 11.654761 51.493797 14 52L 14 53C 13.999957 54.333042 14.532228 55.610912 15.47858 56.549751C 16.424931 57.488594 17.707001 58.010666 19.040001 58L 31.040001 58C 33.785789 57.978035 36.000088 55.74588 36 53C 36 51.895432 35.104568 51 34 51ZM 40.360001 23C 40.083858 23 39.860001 23.223858 39.860001 23.5L 39.860001 25C 39.860001 27.761423 42.098576 30 44.860001 30C 47.621426 30 49.860001 27.761423 49.860001 25L 49.860001 23L 40.360001 23ZM 34.959999 19C 34.959999 20.104568 35.855431 21 36.959999 21L 49.700001 21C 50.124283 20.990952 50.498634 20.720142 50.639999 20.32L 51.299999 18.32C 51.478939 17.790531 51.428173 17.210346 51.16 16.719999C 50.880699 16.236053 50.420052 15.883369 49.879997 15.74L 39.879997 13.22C 39.349644 13.094291 38.79258 13.262174 38.419998 13.66C 38.042366 14.061418 37.91906 14.63942 38.099998 15.16L 38.700001 16.98L 37.02 16.98C 36.475761 16.963636 35.948372 17.16987 35.559608 17.551086C 35.170845 17.932302 34.954308 18.455544 34.959999 19ZM 22 34C 28.627417 34 34 28.627417 34 22C 34 15.372583 28.627417 10.000001 22 10.000001C 15.372583 10.000001 10 15.372583 10 22C 10 28.627419 15.372583 34 22 34ZM 22 14C 23.410522 14.020685 24.790497 14.413978 26 15.139999L 15.18 26C 13.760228 23.541477 13.749794 20.514652 15.152584 18.046402C 16.555374 15.578151 19.161228 14.03825 22 14ZM 22 30C 20.589478 29.979315 19.209503 29.586023 18 28.860001L 28.9 18C 30.326569 20.470848 30.329266 23.514446 28.907076 25.98782C 27.484886 28.461191 24.853085 29.989952 22 30Z"/>
      </g>
    </g>
  </g>
  <g id="g-root-ic_2_1uoo8vf1bs7f9i-stroke-fill" data-item-order="-2304" transform="translate(230, 218)">
    <g id="ic_2_1uoo8vf1bs7f9i-fill" stroke="none" fill="#f4f4f4">
      <g>
        <path d="M 54.459999 52.619999C 50.323296 49.698551 45.499569 47.899994 40.460003 47.400002C 40.20752 47.369488 40.018166 47.154312 40.02 46.900002L 40.02 45.48C 40.021927 45.31192 39.93927 45.154121 39.799999 45.060001C 39.656651 44.981743 39.483345 44.981743 39.339996 45.059998C 35.913513 46.36573 32.126488 46.36573 28.700001 45.060001C 28.55665 44.981743 28.383347 44.981743 28.24 45.059998C 28.100731 45.154121 28.018074 45.31192 28.02 45.48L 28.02 46.900002C 28.021837 47.154312 27.832483 47.369488 27.58 47.400002C 22.540434 47.899994 17.716709 49.698551 13.58 52.620003C 12.591489 53.371067 12.007748 54.538551 12 55.779999L 12 57.48C 12 57.756142 12.223858 57.98 12.5 57.98L 55.5 57.98C 55.776142 57.98 56 57.756142 56 57.48L 56 55.779999C 56.001816 54.545456 55.433472 53.379246 54.459999 52.619999ZM 21 26.98L 21 30.98C 21 38.159702 26.820299 43.98 34 43.98C 41.179703 43.98 47 38.159702 47 30.980001L 47 26.98C 46.999008 21.539925 43.605774 16.677622 38.5 14.799999C 38.364525 14.743217 38.256783 14.635477 38.200001 14.5C 38.140945 14.366227 38.140945 14.213772 38.199997 14.08C 38.409206 13.6688 38.58316 13.2406 38.720001 12.8C 38.935135 12.111698 38.792587 11.361435 38.34 10.8C 37.987812 10.298187 37.413067 9.999619 36.799999 10L 31.16 10C 30.546932 9.999619 29.972187 10.298187 29.619999 10.8C 29.167414 11.361435 29.024864 12.111698 29.24 12.8C 29.366718 13.218626 29.541201 13.621276 29.76 14C 29.819052 14.133772 29.819052 14.286227 29.759998 14.42C 29.703217 14.555476 29.595476 14.663218 29.459999 14.719999C 24.342384 16.62093 20.96118 21.520876 21 26.98ZM 29 29.98C 27.38553 29.881887 26.098112 28.594471 26 26.98C 26 25.875431 26.89543 24.98 28 24.98C 30 24.98 32 25.880001 32 26.98C 31.958431 28.62266 30.642347 29.947519 28.999998 29.999998ZM 34 34C 35.85709 33.984169 37.495209 35.212761 38 37C 38 38.120003 36.200001 39 34 39C 31.799999 39 30 38.120003 30 37C 30.504789 35.212761 32.142906 33.984169 34 34ZM 36 27C 36 25.9 38 25 40 25C 41.104568 25 42 25.895432 42 27C 41.901886 28.61447 40.614471 29.901888 39 30C 37.357651 29.947519 36.041565 28.62266 36 26.98Z"/>
      </g>
    </g>
  </g>
  <g id="g-root-ic_ufo_dkgh631bs8v7r-stroke-fill" data-item-order="-2304" transform="translate(230, 122)">
    <g id="ic_ufo_dkgh631bs8v7r-fill" stroke="none" fill="#f4f4f4">
      <g>
        <path d="M 50.779999 39.48C 50.49268 38.408726 49.391396 37.77314 48.32008 38.060295C 47.24876 38.34745 46.613007 39.448639 46.899998 40.519997L 51.139999 56.52C 51.30584 57.231823 51.846767 57.796497 52.550816 57.992748C 53.25486 58.188999 54.009895 57.985573 54.520046 57.462177C 55.030201 56.938786 55.214222 56.178791 55 55.48ZM 19.82 38C 18.754391 37.720551 17.663445 38.355446 17.380001 39.419998L 13.14 55.419998C 12.925778 56.11879 13.109798 56.878784 13.619952 57.40218C 14.130106 57.925571 14.885139 58.129002 15.589186 57.932751C 16.293234 57.7365 16.83416 57.171825 17 56.459999L 21.24 40.459999C 21.380281 39.945396 21.309196 39.39608 21.042547 38.934139C 20.775898 38.472198 20.335775 38.135902 19.82 38ZM 38 49.860001C 39.203453 49.748383 40.123898 48.738621 40.123898 47.529999C 40.123898 46.321381 39.203453 45.311615 38 45.200001L 31.08 45.200001C 29.876545 45.311615 28.9561 46.321381 28.9561 47.529999C 28.9561 48.738621 29.876545 49.748383 31.08 49.860001L 32.239998 49.860001L 32.239998 50.18L 29.200001 54.299999C 28.437847 55.332775 28.657228 56.787849 29.690001 57.550003C 30.722773 58.312153 32.177849 58.092773 32.940002 57.060001L 34.599998 54.82L 36.200001 57.080002C 36.978722 58.129345 38.460663 58.348724 39.510002 57.570004C 40.559341 56.791279 40.778725 55.309341 40 54.260002L 37 50.16L 37 49.860001ZM 38 40.239998C 38.008102 38.822594 37.160507 37.540237 35.85331 36.992199C 34.546112 36.44416 33.03743 36.738647 32.032288 37.738045C 31.027142 38.73745 30.724012 40.244415 31.264553 41.554733C 31.805094 42.865051 33.082569 43.719978 34.5 43.720001C 35.426414 43.725323 36.316711 43.361034 36.973671 42.707829C 37.63063 42.054626 38.000015 41.166428 38 40.239998ZM 56.959999 29C 57.256584 29.003077 57.540375 28.879374 57.739998 28.659998C 57.943413 28.447105 58.032631 28.149708 57.98 27.860001C 57.289928 23.844007 53.774273 20.931278 49.700001 21L 18.299999 21C 14.218212 20.921293 10.691198 23.836391 10 27.860001C 9.947369 28.149708 10.036588 28.447105 10.24 28.66C 10.439621 28.879374 10.723413 29.003077 11.02 28.999998L 13.28 29C 13.484316 29.002653 13.666457 29.12936 13.74 29.32C 13.899547 29.722376 14.079787 30.116236 14.280001 30.500002C 16.065369 33.888172 19.580214 36.009026 23.41 36.009026C 27.239786 36.009026 30.754631 33.888172 32.540001 30.5C 32.740211 30.116236 32.920456 29.722376 33.080002 29.320002C 33.148697 29.125612 33.333855 28.996807 33.540001 28.999998L 34.459999 29C 34.666145 28.996807 34.851299 29.125612 34.919998 29.32C 35.079548 29.722376 35.259789 30.116236 35.459999 30.500002C 37.245369 33.888172 40.760216 36.009026 44.59 36.009026C 48.419785 36.009026 51.934631 33.888172 53.720001 30.5C 53.920216 30.116236 54.100456 29.722376 54.260002 29.320002C 54.328697 29.125612 54.513851 28.996807 54.719997 28.999998ZM 23.4 32C 21.569786 31.983295 19.832561 31.191006 18.619999 29.82C 18.522778 29.660299 18.522778 29.4597 18.619999 29.299999C 18.686577 29.141253 18.830135 29.027918 19 29L 27.799999 29C 27.999443 28.999306 28.180223 29.117207 28.26 29.299999C 28.367369 29.456707 28.367369 29.663294 28.26 29.82C 27.033712 31.218311 25.259802 32.014015 23.400002 32ZM 44.599998 32C 42.768101 31.990932 41.027901 31.197287 39.82 29.82C 39.712631 29.663294 39.712631 29.456707 39.82 29.299999C 39.899776 29.117207 40.080559 28.999306 40.279999 29L 49.080002 29C 49.272152 29.007078 49.443218 29.123714 49.52 29.299999C 49.627369 29.456707 49.627369 29.663294 49.52 29.82C 48.280025 31.234344 46.480667 32.031624 44.600002 32ZM 34 10C 28.477455 9.948547 23.296272 12.666791 20.200001 17.24C 20.121464 17.397415 20.121464 17.582584 20.200001 17.74C 20.291019 17.897736 20.457924 17.996361 20.639999 18L 47.5 18C 47.703251 18.01899 47.898815 17.917297 47.999996 17.74C 48.078533 17.582584 48.078533 17.397415 48 17.24C 44.864662 12.606876 39.593025 9.880686 34 10Z"/>
      </g>
    </g>
  </g>
  <g id="g-root-tx_thetravi_4l2mej1bs1vcw-stroke-fill" data-item-order="0" transform="translate(116, 50)">
    <g id="tx_thetravi_4l2mej1bs1vcw-fill" stroke="none" fill="#f4f4f4">
      <g>
        <text style="font: 20px Roboto, sans-serif; white-space: pre;" font-size="20px" font-family="Roboto, sans-serif">
          <tspan x="15.77" y="34" dominant-baseline="ideographic">The Travis Walton UFO Incident: A Timeline of Events</tspan>
        </text>
      </g>
    </g>
  </g>
  <g id="g-root-tx_waltonap_1hfpmuj1bs1udl-stroke-fill" data-item-order="0" transform="translate(314, 506)">
    <g id="tx_waltonap_1hfpmuj1bs1udl-fill" stroke="none" fill="#faeeff">
      <g>
        <text style="font: 20px Roboto, sans-serif; white-space: pre;" font-size="20px" font-family="Roboto, sans-serif">
          <tspan x="12" y="34" dominant-baseline="ideographic">Walton appears on "The Moment of Truth," </tspan>
          <tspan x="12" y="58" dominant-baseline="ideographic">failing a polygraph</tspan>
        </text>
      </g>
    </g>
  </g>
  <g id="g-root-tx_waltonsp_144vlkb1bs1ssq-stroke-fill" data-item-order="0" transform="translate(314, 410)">
    <g id="tx_waltonsp_144vlkb1bs1ssq-fill" stroke="none" fill="#ffe8f6">
      <g>
        <text style="font: 20px Roboto, sans-serif; white-space: pre;" font-size="20px" font-family="Roboto, sans-serif">
          <tspan x="12" y="34" dominant-baseline="ideographic">Walton's polygraph test shows "gross </tspan>
          <tspan x="12" y="58" dominant-baseline="ideographic">deception</tspan>
        </text>
      </g>
    </g>
  </g>
  <g id="g-root-tx_polygrap_mdll2j1bs1v5v-stroke-fill" data-item-order="0" transform="translate(314, 314)">
    <g id="tx_polygrap_mdll2j1bs1v5v-fill" stroke="none" fill="#ffe9e8">
      <g>
        <text style="font: 20px Roboto, sans-serif; white-space: pre;" font-size="20px" font-family="Roboto, sans-serif">
          <tspan x="12" y="34" dominant-baseline="ideographic">Polygraph tests conducted on crew </tspan>
          <tspan x="12" y="58" dominant-baseline="ideographic">members</tspan>
        </text>
      </g>
    </g>
  </g>
  <g id="g-root-tx_waltonre_92rjsb1bs1tl0-stroke-fill" data-item-order="0" transform="translate(314, 218)">
    <g id="tx_waltonre_92rjsb1bs1tl0-fill" stroke="none" fill="#fff0e2">
      <g>
        <text style="font: 20px Roboto, sans-serif; white-space: pre;" font-size="20px" font-family="Roboto, sans-serif">
          <tspan x="12" y="34" dominant-baseline="ideographic">Walton reappears, claiming to have been </tspan>
          <tspan x="12" y="58" dominant-baseline="ideographic">aboard a spacecraft</tspan>
        </text>
      </g>
    </g>
  </g>
  <g id="g-root-tx_traviswa_74jjf1bs1udp-stroke-fill" data-item-order="0" transform="translate(314, 122)">
    <g id="tx_traviswa_74jjf1bs1udp-fill" stroke="none" fill="#fffbd5">
      <g>
        <text style="font: 20px Roboto, sans-serif; white-space: pre;" font-size="20px" font-family="Roboto, sans-serif">
          <tspan x="12" y="34" dominant-baseline="ideographic">Travis Walton disappears after encountering </tspan>
          <tspan x="12" y="58" dominant-baseline="ideographic">a UFO</tspan>
        </text>
      </g>
    </g>
  </g>
  <g id="g-root-tx_2008_1hhl23v1bs1tdy-stroke-fill" data-item-order="0" transform="translate(146, 518)">
    <g id="tx_2008_1hhl23v1bs1tdy-fill" stroke="none" fill="#cb68f9">
      <g>
        <text style="font: bold 20px Roboto, sans-serif; white-space: pre;" font-weight="bold" font-size="20px" font-family="Roboto, sans-serif">
          <tspan x="22.09" y="34" dominant-baseline="ideographic">2008</tspan>
        </text>
      </g>
    </g>
  </g>
  <g id="g-root-tx_november_vahjhn1bs1vrj-stroke-fill" data-item-order="0" transform="translate(26, 422)">
    <g id="tx_november_vahjhn1bs1vrj-fill" stroke="none" fill="#f366bb">
      <g>
        <text style="font: bold 20px Roboto, sans-serif; white-space: pre;" font-weight="bold" font-size="20px" font-family="Roboto, sans-serif">
          <tspan x="11.53" y="34" dominant-baseline="ideographic">November 15, 1975</tspan>
        </text>
      </g>
    </g>
  </g>
  <g id="g-root-tx_november_mfh0bv1bs1u68-stroke-fill" data-item-order="0" transform="translate(26, 326)">
    <g id="tx_november_mfh0bv1bs1u68-fill" stroke="none" fill="#fb6762">
      <g>
        <text style="font: bold 20px Roboto, sans-serif; white-space: pre;" font-weight="bold" font-size="20px" font-family="Roboto, sans-serif">
          <tspan x="11.53" y="34" dominant-baseline="ideographic">November 11, 1975</tspan>
        </text>
      </g>
    </g>
  </g>
  <g id="g-root-tx_november_940hyj1bs1vr5-stroke-fill" data-item-order="0" transform="translate(26, 230)">
    <g id="tx_november_940hyj1bs1vr5-fill" stroke="none" fill="#f79438">
      <g>
        <text style="font: bold 20px Roboto, sans-serif; white-space: pre;" font-weight="bold" font-size="20px" font-family="Roboto, sans-serif">
          <tspan x="11.53" y="34" dominant-baseline="ideographic">November 10, 1975</tspan>
        </text>
      </g>
    </g>
  </g>
  <g id="g-root-tx_november_1lyniej1bs1uru-stroke-fill" data-item-order="0" transform="translate(26, 134)">
    <g id="tx_november_1lyniej1bs1uru-fill" stroke="none" fill="#ffe711">
      <g>
        <text style="font: bold 20px Roboto, sans-serif; white-space: pre;" font-weight="bold" font-size="20px" font-family="Roboto, sans-serif">
          <tspan x="23" y="34" dominant-baseline="ideographic">November 5, 1975</tspan>
        </text>
      </g>
    </g>
  </g>
</svg>
