<?xml version='1.0' encoding='utf-8'?>
<svg xmlns="http://www.w3.org/2000/svg" xmlns:xlink="http://www.w3.org/1999/xlink" width="696" height="396" viewBox="0 0 696 396" style="fill:none;stroke:none;fill-rule:evenodd;clip-rule:evenodd;stroke-linecap:round;stroke-linejoin:round;stroke-miterlimit:1.5;" version="1.1">
  <style class="text-font-style fontImports" data-font-family="Roboto">@import url('https://fonts.googleapis.com/css2?family=Roboto:wght@400;700&amp;display=block');</style>
  <rect x="0" y="0" width="696" height="396" fill="#252a34" stroke="none" id="programmatic_background"/>
  <g id="g-root-tf_924gl719uiqde-stroke-fill" data-item-order="-248820" transform="translate(18, 12)"/>
  <g id="g-root-sy_-1_Vector_zmjkzf19uircx-stroke-fill" data-item-order="-5071" transform="translate(188, 149)">
    <g id="sy_-1_Vector_zmjkzf19uircx-stroke" fill="none" stroke-linecap="round" stroke-linejoin="round" stroke-miterlimit="4" stroke="#f4f4f4" stroke-width="2">
      <g>
        <path d="M 10 100L 10 10"/>
      </g>
    </g>
  </g>
  <g id="g-root-sy_-1_line_zmjkzf19uircy-stroke-fill" data-item-order="-5067" transform="translate(188, 245)">
    <g id="sy_-1_line_zmjkzf19uircy-stroke" fill="none" stroke-linecap="round" stroke-linejoin="round" stroke-miterlimit="4" stroke="#f4f4f4" stroke-width="2">
      <g>
        <path d="M 10 94L 10 10"/>
        <path d="M 3.5 88L 10 94.5L 16.5 88" stroke-dasharray="none"/>
      </g>
    </g>
  </g>
  <g id="g-root-sy_2_cu_qrj1tn19uiozv-stroke-fill" data-item-order="-5064" transform="translate(185, 239)">
    <g id="sy_2_cu_qrj1tn19uiozv-fill" stroke="none" fill="none">
      <g>
        <path d="M 13 10L 13 10C 13 10 16 10 16 13L 16 13C 16 13 16 16 13 16L 13 16C 13 16 10 16 10 13L 10 13C 10 13 10 10 13 10"/>
      </g>
    </g>
    <g id="sy_2_cu_qrj1tn19uiozv-stroke" fill="none" stroke-linecap="round" stroke-linejoin="round" stroke-miterlimit="4" stroke="#43dd93" stroke-width="2">
      <g>
        <path d="M 13 10L 13 10C 13 10 16 10 16 13L 16 13C 16 13 16 16 13 16L 13 16C 13 16 10 16 10 13L 10 13C 10 13 10 10 13 10"/>
      </g>
    </g>
    <g id="sy_2_cu_qrj1tn19uiozv-stroke" fill="none" stroke-linecap="round" stroke-linejoin="round" stroke-miterlimit="4" stroke="#43dd93" stroke-width="2">
      <g>
        <path d="M 37 13L 16 13"/>
      </g>
    </g>
  </g>
  <g id="g-root-sy_1_cu_mbpjp719uips4-stroke-fill" data-item-order="-5060" transform="translate(185, 143)">
    <g id="sy_1_cu_mbpjp719uips4-fill" stroke="none" fill="none">
      <g>
        <path d="M 13 10L 13 10C 13 10 16 10 16 13L 16 13C 16 13 16 16 13 16L 13 16C 13 16 10 16 10 13L 10 13C 10 13 10 10 13 10"/>
      </g>
    </g>
    <g id="sy_1_cu_mbpjp719uips4-stroke" fill="none" stroke-linecap="round" stroke-linejoin="round" stroke-miterlimit="4" stroke="#4f91fc" stroke-width="2">
      <g>
        <path d="M 13 10L 13 10C 13 10 16 10 16 13L 16 13C 16 13 16 16 13 16L 13 16C 13 16 10 16 10 13L 10 13C 10 13 10 10 13 10"/>
      </g>
    </g>
    <g id="sy_1_cu_mbpjp719uips4-stroke" fill="none" stroke-linecap="round" stroke-linejoin="round" stroke-miterlimit="4" stroke="#4f91fc" stroke-width="2">
      <g>
        <path d="M 37 13L 16 13"/>
      </g>
    </g>
  </g>
  <g id="g-root-tx_thetremo_dg2jgb19uiqkt-stroke-fill" data-item-order="0" transform="translate(86, 50)">
    <g id="tx_thetremo_dg2jgb19uiqkt-fill" stroke="none" fill="#f4f4f4">
      <g>
        <text style="font: 20px Roboto, sans-serif; white-space: pre;" font-size="20px" font-family="Roboto, sans-serif">
          <tspan x="12.45" y="34" dominant-baseline="ideographic">The Tremonton UFO Film: A Historical Timeline</tspan>
        </text>
      </g>
    </g>
  </g>
  <g id="g-root-tx_tremonto_58i6319uiozy-stroke-fill" data-item-order="0" transform="translate(236, 218)">
    <g id="tx_tremonto_58i6319uiozy-fill" stroke="none" fill="#f4f4f4">
      <g>
        <text style="font: 20px Roboto, sans-serif; white-space: pre;" font-size="20px" font-family="Roboto, sans-serif">
          <tspan x="12" y="34" dominant-baseline="ideographic">Tremonton case presented to the Robertson </tspan>
          <tspan x="12" y="58" dominant-baseline="ideographic">Panel</tspan>
        </text>
      </g>
    </g>
  </g>
  <g id="g-root-tx_delbertc_1hf2jnf19uir5z-stroke-fill" data-item-order="0" transform="translate(236, 122)">
    <g id="tx_delbertc_1hf2jnf19uir5z-fill" stroke="none" fill="#f4f4f4">
      <g>
        <text style="font: 20px Roboto, sans-serif; white-space: pre;" font-size="20px" font-family="Roboto, sans-serif">
          <tspan x="12" y="34" dominant-baseline="ideographic">Delbert C. Newhouse films UFOs in </tspan>
          <tspan x="12" y="58" dominant-baseline="ideographic">Tremonton, Utah</tspan>
        </text>
      </g>
    </g>
  </g>
  <g id="g-root-tx_january1_1448id719uipl4-stroke-fill" data-item-order="0" transform="translate(32, 230)">
    <g id="tx_january1_1448id719uipl4-fill" stroke="none" fill="#43dd93">
      <g>
        <text style="font: bold 20px Roboto, sans-serif; white-space: pre;" font-weight="bold" font-size="20px" font-family="Roboto, sans-serif">
          <tspan x="16.56" y="34" dominant-baseline="ideographic">January 1953</tspan>
        </text>
      </g>
    </g>
  </g>
  <g id="g-root-tx_july2195_qsrzzv19uir61-stroke-fill" data-item-order="0" transform="translate(44, 134)">
    <g id="tx_july2195_qsrzzv19uir61-fill" stroke="none" fill="#4f91fc">
      <g>
        <text style="font: bold 20px Roboto, sans-serif; white-space: pre;" font-weight="bold" font-size="20px" font-family="Roboto, sans-serif">
          <tspan x="18.02" y="34" dominant-baseline="ideographic">July 2, 1952</tspan>
        </text>
      </g>
    </g>
    <defs>
      <pattern id="crawlingPattern-0000001b" x="0" y="0" width="12" height="12" patternUnits="userSpaceOnUse" fill="#0000001b">
        <use href="#crawlingSymbol"/>
      </pattern>
      <symbol id="crawlingSymbol">
        <g>
          <path d="M -12.5 12.5 l 13 -13 l 6 0 l -13 13 Z M -0.5 12.5 l 13 -13 l 6 0 l -13 13 Z M 11.5 12.5 l 13 -13 l 6 0 l -13 13 Z"/>
        </g>
      </symbol>
      <pattern id="crawlingPattern-00b15c75" x="0" y="0" width="12" height="12" patternUnits="userSpaceOnUse" fill="#00b15c75">
        <use href="#crawlingSymbol"/>
      </pattern>
      <pattern id="crawlingPattern-0060fba2" x="0" y="0" width="12" height="12" patternUnits="userSpaceOnUse" fill="#0060fba2">
        <use href="#crawlingSymbol"/>
      </pattern>
    </defs>
  </g>
</svg>
