<?xml version='1.0' encoding='utf-8'?>
<svg xmlns="http://www.w3.org/2000/svg" xmlns:xlink="http://www.w3.org/1999/xlink" width="648" height="588" viewBox="0 0 648 588" style="fill:none;stroke:none;fill-rule:evenodd;clip-rule:evenodd;stroke-linecap:round;stroke-linejoin:round;stroke-miterlimit:1.5;" version="1.1">
  <style class="text-font-style fontImports" data-font-family="Roboto">@import url('https://fonts.googleapis.com/css2?family=Roboto:wght@400;700&amp;display=block');</style>
  <rect x="0" y="0" width="648" height="588" fill="#252a34" stroke="none" id="programmatic_background"/>
  <g id="g-root-tf_1cws3rw1aohhce-stroke-fill" data-item-order="-348228" transform="translate(18, 12)"/>
  <g id="g-root-sy_-1_Vector_1d30un01aog4r3-stroke-fill" data-item-order="-10255" transform="translate(188, 149)">
    <g id="sy_-1_Vector_1d30un01aog4r3-stroke" fill="none" stroke-linecap="round" stroke-linejoin="round" stroke-miterlimit="4" stroke="#f4f4f4" stroke-width="2">
      <g>
        <path d="M 10 292L 10 202M 10 196L 10 106M 10 100L 10 10"/>
      </g>
    </g>
  </g>
  <g id="g-root-sy_-1_line_18nttlo1aog2dk-stroke-fill" data-item-order="-10251" transform="translate(188, 437)">
    <g id="sy_-1_line_18nttlo1aog2dk-stroke" fill="none" stroke-linecap="round" stroke-linejoin="round" stroke-miterlimit="4" stroke="#f4f4f4" stroke-width="2">
      <g>
        <path d="M 10 94L 10 10"/>
        <path d="M 3.5 88L 10 94.5L 16.5 88" stroke-dasharray="none"/>
      </g>
    </g>
  </g>
  <g id="g-root-sy_4_cu_1480bh81aog35t-stroke-fill" data-item-order="-10248" transform="translate(185, 431)">
    <g id="sy_4_cu_1480bh81aog35t-fill" stroke="none" fill="none">
      <g>
        <path d="M 13 10L 13 10C 13 10 16 10 16 13L 16 13C 16 13 16 16 13 16L 13 16C 13 16 10 16 10 13L 10 13C 10 13 10 10 13 10"/>
      </g>
    </g>
    <g id="sy_4_cu_1480bh81aog35t-stroke" fill="none" stroke-linecap="round" stroke-linejoin="round" stroke-miterlimit="4" stroke="#b7b7b7" stroke-width="2">
      <g>
        <path d="M 13 10L 13 10C 13 10 16 10 16 13L 16 13C 16 13 16 16 13 16L 13 16C 13 16 10 16 10 13L 10 13C 10 13 10 10 13 10"/>
      </g>
    </g>
    <g id="sy_4_cu_1480bh81aog35t-stroke" fill="none" stroke-linecap="round" stroke-linejoin="round" stroke-miterlimit="4" stroke="#b7b7b7" stroke-width="2">
      <g>
        <path d="M 37 13L 16 13"/>
      </g>
    </g>
  </g>
  <g id="g-root-sy_3_cu_1480bh81aog35u-stroke-fill" data-item-order="-10244" transform="translate(185, 335)">
    <g id="sy_3_cu_1480bh81aog35u-fill" stroke="none" fill="none">
      <g>
        <path d="M 13 10L 13 10C 13 10 16 10 16 13L 16 13C 16 13 16 16 13 16L 13 16C 13 16 10 16 10 13L 10 13C 10 13 10 10 13 10"/>
      </g>
    </g>
    <g id="sy_3_cu_1480bh81aog35u-stroke" fill="none" stroke-linecap="round" stroke-linejoin="round" stroke-miterlimit="4" stroke="#a6da37" stroke-width="2">
      <g>
        <path d="M 13 10L 13 10C 13 10 16 10 16 13L 16 13C 16 13 16 16 13 16L 13 16C 13 16 10 16 10 13L 10 13C 10 13 10 10 13 10"/>
      </g>
    </g>
    <g id="sy_3_cu_1480bh81aog35u-stroke" fill="none" stroke-linecap="round" stroke-linejoin="round" stroke-miterlimit="4" stroke="#a6da37" stroke-width="2">
      <g>
        <path d="M 37 13L 16 13"/>
      </g>
    </g>
  </g>
  <g id="g-root-sy_2_cu_vcdb8c1aog3yj-stroke-fill" data-item-order="-10240" transform="translate(185, 239)">
    <g id="sy_2_cu_vcdb8c1aog3yj-fill" stroke="none" fill="none">
      <g>
        <path d="M 13 10L 13 10C 13 10 16 10 16 13L 16 13C 16 13 16 16 13 16L 13 16C 13 16 10 16 10 13L 10 13C 10 13 10 10 13 10"/>
      </g>
    </g>
    <g id="sy_2_cu_vcdb8c1aog3yj-stroke" fill="none" stroke-linecap="round" stroke-linejoin="round" stroke-miterlimit="4" stroke="#43dd93" stroke-width="2">
      <g>
        <path d="M 13 10L 13 10C 13 10 16 10 16 13L 16 13C 16 13 16 16 13 16L 13 16C 13 16 10 16 10 13L 10 13C 10 13 10 10 13 10"/>
      </g>
    </g>
    <g id="sy_2_cu_vcdb8c1aog3yj-stroke" fill="none" stroke-linecap="round" stroke-linejoin="round" stroke-miterlimit="4" stroke="#43dd93" stroke-width="2">
      <g>
        <path d="M 37 13L 16 13"/>
      </g>
    </g>
  </g>
  <g id="g-root-sy_1_cu_qwjt3w1aog4qs-stroke-fill" data-item-order="-10236" transform="translate(185, 143)">
    <g id="sy_1_cu_qwjt3w1aog4qs-fill" stroke="none" fill="none">
      <g>
        <path d="M 13 10L 13 10C 13 10 16 10 16 13L 16 13C 16 13 16 16 13 16L 13 16C 13 16 10 16 10 13L 10 13C 10 13 10 10 13 10"/>
      </g>
    </g>
    <g id="sy_1_cu_qwjt3w1aog4qs-stroke" fill="none" stroke-linecap="round" stroke-linejoin="round" stroke-miterlimit="4" stroke="#4f91fc" stroke-width="2">
      <g>
        <path d="M 13 10L 13 10C 13 10 16 10 16 13L 16 13C 16 13 16 16 13 16L 13 16C 13 16 10 16 10 13L 10 13C 10 13 10 10 13 10"/>
      </g>
    </g>
    <g id="sy_1_cu_qwjt3w1aog4qs-stroke" fill="none" stroke-linecap="round" stroke-linejoin="round" stroke-miterlimit="4" stroke="#4f91fc" stroke-width="2">
      <g>
        <path d="M 37 13L 16 13"/>
      </g>
    </g>
  </g>
  <g id="g-root-tx_trumanbe_dbq6fw1aohhqd-stroke-fill" data-item-order="0" transform="translate(110, 50)">
    <g id="tx_trumanbe_dbq6fw1aohhqd-fill" stroke="none" fill="#f4f4f4">
      <g>
        <text style="font: 20px Roboto, sans-serif; white-space: pre;" font-size="20px" font-family="Roboto, sans-serif">
          <tspan x="12.88" y="34" dominant-baseline="ideographic">Truman Bethurum's UFO Contact Journey</tspan>
        </text>
      </g>
    </g>
  </g>
  <g id="g-root-tx_deathoft_9o2k1aohjba-stroke-fill" data-item-order="0" transform="translate(236, 422)">
    <g id="tx_deathoft_9o2k1aohjba-fill" stroke="none" fill="#f4f4f4">
      <g>
        <text style="font: 20px Roboto, sans-serif; white-space: pre;" font-size="20px" font-family="Roboto, sans-serif">
          <tspan x="12" y="34" dominant-baseline="ideographic">Death of Truman Bethurum</tspan>
        </text>
      </g>
    </g>
  </g>
  <g id="g-root-tx_establis_1q5qpss1aohjwv-stroke-fill" data-item-order="0" transform="translate(236, 326)">
    <g id="tx_establis_1q5qpss1aohjwv-fill" stroke="none" fill="#f4f4f4">
      <g>
        <text style="font: 20px Roboto, sans-serif; white-space: pre;" font-size="20px" font-family="Roboto, sans-serif">
          <tspan x="12" y="34" dominant-baseline="ideographic">Establishment of "Sanctuary of Thought</tspan>
        </text>
      </g>
    </g>
  </g>
  <g id="g-root-tx_publicat_1haq6n01aohibk-stroke-fill" data-item-order="0" transform="translate(236, 230)">
    <g id="tx_publicat_1haq6n01aohibk-fill" stroke="none" fill="#f4f4f4">
      <g>
        <text style="font: 20px Roboto, sans-serif; white-space: pre;" font-size="20px" font-family="Roboto, sans-serif">
          <tspan x="12" y="34" dominant-baseline="ideographic">Publication of "Aboard a Flying Saucer</tspan>
        </text>
      </g>
    </g>
  </g>
  <g id="g-root-tx_firstall_18f36e41aohj49-stroke-fill" data-item-order="0" transform="translate(236, 134)">
    <g id="tx_firstall_18f36e41aohj49-fill" stroke="none" fill="#f4f4f4">
      <g>
        <text style="font: 20px Roboto, sans-serif; white-space: pre;" font-size="20px" font-family="Roboto, sans-serif">
          <tspan x="12" y="34" dominant-baseline="ideographic">First alleged contact with Clarion beings</tspan>
        </text>
      </g>
    </g>
  </g>
  <g id="g-root-tx_1969_13z9o9o1aohjwi-stroke-fill" data-item-order="0" transform="translate(104, 422)">
    <g id="tx_1969_13z9o9o1aohjwi-fill" stroke="none" fill="#b7b7b7">
      <g>
        <text style="font: bold 20px Roboto, sans-serif; white-space: pre;" font-weight="bold" font-size="20px" font-family="Roboto, sans-serif">
          <tspan x="22.09" y="34" dominant-baseline="ideographic">1969</tspan>
        </text>
      </g>
    </g>
  </g>
  <g id="g-root-tx_1955_qofmzg1aohibn-stroke-fill" data-item-order="0" transform="translate(104, 326)">
    <g id="tx_1955_qofmzg1aohibn-fill" stroke="none" fill="#a6da37">
      <g>
        <text style="font: bold 20px Roboto, sans-serif; white-space: pre;" font-weight="bold" font-size="20px" font-family="Roboto, sans-serif">
          <tspan x="22.09" y="34" dominant-baseline="ideographic">1955</tspan>
        </text>
      </g>
    </g>
  </g>
  <g id="g-root-tx_1954_dcz4m41aohjwk-stroke-fill" data-item-order="0" transform="translate(104, 230)">
    <g id="tx_1954_dcz4m41aohjwk-fill" stroke="none" fill="#43dd93">
      <g>
        <text style="font: bold 20px Roboto, sans-serif; white-space: pre;" font-weight="bold" font-size="20px" font-family="Roboto, sans-serif">
          <tspan x="22.09" y="34" dominant-baseline="ideographic">1954</tspan>
        </text>
      </g>
    </g>
  </g>
  <g id="g-root-tx_july2719_253bw1aohibp-stroke-fill" data-item-order="0" transform="translate(32, 134)">
    <g id="tx_july2719_253bw1aohibp-fill" stroke="none" fill="#4f91fc">
      <g>
        <text style="font: bold 20px Roboto, sans-serif; white-space: pre;" font-weight="bold" font-size="20px" font-family="Roboto, sans-serif">
          <tspan x="18.55" y="34" dominant-baseline="ideographic">July 27, 1952</tspan>
        </text>
      </g>
    </g>
    <defs>
      <pattern id="crawlingPattern-0000001b" x="0" y="0" width="12" height="12" patternUnits="userSpaceOnUse" fill="#0000001b">
        <use href="#crawlingSymbol"/>
      </pattern>
      <symbol id="crawlingSymbol">
        <g>
          <path d="M -12.5 12.5 l 13 -13 l 6 0 l -13 13 Z M -0.5 12.5 l 13 -13 l 6 0 l -13 13 Z M 11.5 12.5 l 13 -13 l 6 0 l -13 13 Z"/>
        </g>
      </symbol>
      <pattern id="crawlingPattern-00000024" x="0" y="0" width="12" height="12" patternUnits="userSpaceOnUse" fill="#00000024">
        <use href="#crawlingSymbol"/>
      </pattern>
      <pattern id="crawlingPattern-5c87005e" x="0" y="0" width="12" height="12" patternUnits="userSpaceOnUse" fill="#5c87005e">
        <use href="#crawlingSymbol"/>
      </pattern>
      <pattern id="crawlingPattern-00b15c75" x="0" y="0" width="12" height="12" patternUnits="userSpaceOnUse" fill="#00b15c75">
        <use href="#crawlingSymbol"/>
      </pattern>
      <pattern id="crawlingPattern-0060fba2" x="0" y="0" width="12" height="12" patternUnits="userSpaceOnUse" fill="#0060fba2">
        <use href="#crawlingSymbol"/>
      </pattern>
    </defs>
  </g>
</svg>
