<?xml version='1.0' encoding='utf-8'?>
<svg xmlns="http://www.w3.org/2000/svg" xmlns:xlink="http://www.w3.org/1999/xlink" width="816" height="756" viewBox="0 0 816 756" style="fill:none;stroke:none;fill-rule:evenodd;clip-rule:evenodd;stroke-linecap:round;stroke-linejoin:round;stroke-miterlimit:1.5;" version="1.1">
  <style class="text-font-style fontImports" data-font-family="Roboto">@import url('https://fonts.googleapis.com/css2?family=Roboto:wght@400;700&amp;display=block');</style>
  <rect x="0" y="0" width="816" height="756" fill="#252a34" stroke="none" id="programmatic_background"/>
  <g id="g-root-tf_vagqvw1cchwjq-stroke-fill" data-item-order="-572424" transform="translate(17, 12)">
    <g id="tf_vagqvw1cchwjq-fill" stroke="none" fill="#2c2c2c">
      <g>
        <path d="M 0 0L 782 0L 782 732L 0 732Z"/>
      </g>
    </g>
    <defs>
      <pattern id="crawlingPattern-b5b5b51a" x="0" y="0" width="12" height="12" patternUnits="userSpaceOnUse" fill="#b5b5b51a">
        <use href="#crawlingSymbol"/>
      </pattern>
      <symbol id="crawlingSymbol">
        <g>
          <path d="M -12.5 12.5 l 13 -13 l 6 0 l -13 13 Z M -0.5 12.5 l 13 -13 l 6 0 l -13 13 Z M 11.5 12.5 l 13 -13 l 6 0 l -13 13 Z"/>
        </g>
      </symbol>
      <pattern id="crawlingPattern-00bcfb62" x="0" y="0" width="12" height="12" patternUnits="userSpaceOnUse" fill="#00bcfb62">
        <use href="#crawlingSymbol"/>
      </pattern>
      <pattern id="crawlingPattern-f908001a" x="0" y="0" width="12" height="12" patternUnits="userSpaceOnUse" fill="#f908001a">
        <use href="#crawlingSymbol"/>
      </pattern>
      <pattern id="crawlingPattern-f576002d" x="0" y="0" width="12" height="12" patternUnits="userSpaceOnUse" fill="#f576002d">
        <use href="#crawlingSymbol"/>
      </pattern>
      <pattern id="crawlingPattern-ffe50099" x="0" y="0" width="12" height="12" patternUnits="userSpaceOnUse" fill="#ffe50099">
        <use href="#crawlingSymbol"/>
      </pattern>
      <pattern id="crawlingPattern-00d16d21" x="0" y="0" width="12" height="12" patternUnits="userSpaceOnUse" fill="#00d16d21">
        <use href="#crawlingSymbol"/>
      </pattern>
      <pattern id="crawlingPattern-3604fc1a" x="0" y="0" width="12" height="12" patternUnits="userSpaceOnUse" fill="#3604fc1a">
        <use href="#crawlingSymbol"/>
      </pattern>
      <pattern id="crawlingPattern-0000001b" x="0" y="0" width="12" height="12" patternUnits="userSpaceOnUse" fill="#0000001b">
        <use href="#crawlingSymbol"/>
      </pattern>
      <pattern id="crawlingPattern-c1c1c11a" x="0" y="0" width="12" height="12" patternUnits="userSpaceOnUse" fill="#c1c1c11a">
        <use href="#crawlingSymbol"/>
      </pattern>
      <pattern id="crawlingPattern-3300fc7a" x="0" y="0" width="12" height="12" patternUnits="userSpaceOnUse" fill="#3300fc7a">
        <use href="#crawlingSymbol"/>
      </pattern>
      <pattern id="crawlingPattern-2d00ff37" x="0" y="0" width="12" height="12" patternUnits="userSpaceOnUse" fill="#2d00ff37">
        <use href="#crawlingSymbol"/>
      </pattern>
      <pattern id="crawlingPattern-00b15c75" x="0" y="0" width="12" height="12" patternUnits="userSpaceOnUse" fill="#00b15c75">
        <use href="#crawlingSymbol"/>
      </pattern>
      <pattern id="crawlingPattern-00ff873a" x="0" y="0" width="12" height="12" patternUnits="userSpaceOnUse" fill="#00ff873a">
        <use href="#crawlingSymbol"/>
      </pattern>
      <pattern id="crawlingPattern-ddc700ff" x="0" y="0" width="12" height="12" patternUnits="userSpaceOnUse" fill="#ddc700ff">
        <use href="#crawlingSymbol"/>
      </pattern>
      <pattern id="crawlingPattern-ffe7003d" x="0" y="0" width="12" height="12" patternUnits="userSpaceOnUse" fill="#ffe7003d">
        <use href="#crawlingSymbol"/>
      </pattern>
      <pattern id="crawlingPattern-f17400d3" x="0" y="0" width="12" height="12" patternUnits="userSpaceOnUse" fill="#f17400d3">
        <use href="#crawlingSymbol"/>
      </pattern>
      <pattern id="crawlingPattern-ff7b003a" x="0" y="0" width="12" height="12" patternUnits="userSpaceOnUse" fill="#ff7b003a">
        <use href="#crawlingSymbol"/>
      </pattern>
      <pattern id="crawlingPattern-f9080081" x="0" y="0" width="12" height="12" patternUnits="userSpaceOnUse" fill="#f9080081">
        <use href="#crawlingSymbol"/>
      </pattern>
      <pattern id="crawlingPattern-ff0b0038" x="0" y="0" width="12" height="12" patternUnits="userSpaceOnUse" fill="#ff0b0038">
        <use href="#crawlingSymbol"/>
      </pattern>
      <pattern id="crawlingPattern-00a3d9d9" x="0" y="0" width="12" height="12" patternUnits="userSpaceOnUse" fill="#00a3d9d9">
        <use href="#crawlingSymbol"/>
      </pattern>
      <pattern id="crawlingPattern-00baff39" x="0" y="0" width="12" height="12" patternUnits="userSpaceOnUse" fill="#00baff39">
        <use href="#crawlingSymbol"/>
      </pattern>
      <pattern id="crawlingPattern-5f5f5f1a" x="0" y="0" width="12" height="12" patternUnits="userSpaceOnUse" fill="#5f5f5f1a">
        <use href="#crawlingSymbol"/>
      </pattern>
    </defs>
  </g>
  <g id="g-root-cp_0_g-0_1qa2t5o1ccgg01-stroke-fill" data-item-order="-466814" transform="translate(115.14498901367188, 258.18798828125)">
    <g id="cp_0_g-0_1qa2t5o1ccgg01-fill" stroke="none" fill="#e8e8e8">
      <g>
        <path d="M 36.8299 60.6052L 96.676 95.1574L 96.676 26.053L 124.481 10L 152.284 26.0524L 152.284 95.1571L 212.131 60.6047L 238.961 76.0954L 238.961 109.3251L 180.089 143.315L 238.961 177.305L 238.961 208.286L 210.183 224.901L 152.284 191.474L 152.284 258.329L 124.481 274.382L 96.6759 258.329L 96.6759 191.473L 38.7775 224.901L 10 208.286L 10 177.305L 68.8722 143.315L 10 109.3253L 10 76.0954L 36.8299 60.6052Z"/>
      </g>
    </g>
    <g id="cp_0_g-0_1qa2t5o1ccgg01-stroke" fill="none" stroke-linecap="round" stroke-linejoin="round" stroke-miterlimit="4" stroke="#2c2c2c" stroke-width="2">
      <g>
        <path d="M 36.8299 60.6052L 96.676 95.1574L 96.676 26.053L 124.4806 10L 152.2842 26.0524L 152.2842 95.1571L 212.1306 60.6047L 238.9613 76.0954L 238.9613 109.3251L 180.0885 143.3152L 238.9613 177.3054L 238.9613 208.2863L 210.1829 224.9015L 152.2842 191.4736L 152.2842 258.3293L 124.4806 274.3817L 96.6759 258.3286L 96.6759 191.4733L 38.7775 224.901L 10 208.2863L 10 177.305L 68.8722 143.3152L 10 109.3253L 10 76.0954L 36.8299 60.6052Z"/>
      </g>
    </g>
  </g>
  <g id="g-root-cp_6_g-6_1hefsws1ccggsr-stroke-fill" data-item-order="-466810" transform="translate(72.05401611328125, 193.50399780273438)">
    <g id="cp_6_g-6_1hefsws1ccggsr-fill" stroke="none" fill="#1ac3fb">
      <g>
        <path d="M 139.767 159.842L 10 84.9209L 139.767 10L 139.767 159.842Z"/>
      </g>
    </g>
    <g id="cp_6_g-6_1hefsws1ccggsr-stroke" fill="none" stroke-linecap="round" stroke-linejoin="round" stroke-miterlimit="4" stroke="#2c2c2c" stroke-width="2">
      <g>
        <path d="M 139.7667 159.8417L 10 84.9209L 139.7667 10L 139.7667 159.8417Z"/>
      </g>
    </g>
  </g>
  <g id="g-root-cp_5_g-5_1hefsws1ccggst-stroke-fill" data-item-order="-466806" transform="translate(44.25, 316.5820007324219)">
    <g id="cp_5_g-5_1hefsws1ccggst-fill" stroke="none" fill="#fb6762">
      <g>
        <path d="M 139.767 84.9209L 10 159.842L 10.000009 10L 139.767 84.9209Z"/>
      </g>
    </g>
    <g id="cp_5_g-5_1hefsws1ccggst-stroke" fill="none" stroke-linecap="round" stroke-linejoin="round" stroke-miterlimit="4" stroke="#2c2c2c" stroke-width="2">
      <g>
        <path d="M 139.7668 84.9209L 10 159.8417L 10 10L 139.7668 84.9209Z"/>
      </g>
    </g>
  </g>
  <g id="g-root-cp_4_g-4_1cymasc1ccghl3-stroke-fill" data-item-order="-466802" transform="translate(72.05300903320312, 439.6610107421875)">
    <g id="cp_4_g-4_1cymasc1ccghl3-fill" stroke="none" fill="#f79438">
      <g>
        <path d="M 139.767 10L 139.767 159.842L 10 84.9209L 139.767 10Z"/>
      </g>
    </g>
    <g id="cp_4_g-4_1cymasc1ccghl3-stroke" fill="none" stroke-linecap="round" stroke-linejoin="round" stroke-miterlimit="4" stroke="#2c2c2c" stroke-width="2">
      <g>
        <path d="M 139.7667 10L 139.7667 159.8417L 10 84.9209L 139.7667 10Z"/>
      </g>
    </g>
  </g>
  <g id="g-root-cp_3_g-3_18issnw1ccgidd-stroke-fill" data-item-order="-466798" transform="translate(257.42901611328125, 439.6619873046875)">
    <g id="cp_3_g-3_18issnw1ccgidd-fill" stroke="none" fill="#ffe711">
      <g>
        <path d="M 10.000014 10L 139.767 84.9209L 10 159.842L 10.000014 10Z"/>
      </g>
    </g>
    <g id="cp_3_g-3_18issnw1ccgidd-stroke" fill="none" stroke-linecap="round" stroke-linejoin="round" stroke-miterlimit="4" stroke="#2c2c2c" stroke-width="2">
      <g>
        <path d="M 10 10L 139.7667 84.9209L 10 159.8417L 10 10Z"/>
      </g>
    </g>
  </g>
  <g id="g-root-cp_2_g-2_zns9i41ccgg0b-stroke-fill" data-item-order="-466794" transform="translate(285.2340087890625, 316.5820007324219)">
    <g id="cp_2_g-2_zns9i41ccgg0b-fill" stroke="none" fill="#43dd93">
      <g>
        <path d="M 10 84.9209L 139.767 10L 139.767 159.842L 10 84.9209Z"/>
      </g>
    </g>
    <g id="cp_2_g-2_zns9i41ccgg0b-stroke" fill="none" stroke-linecap="round" stroke-linejoin="round" stroke-miterlimit="4" stroke="#2c2c2c" stroke-width="2">
      <g>
        <path d="M 10 84.9209L 139.7667 10L 139.7667 159.8417L 10 84.9209Z"/>
      </g>
    </g>
  </g>
  <g id="g-root-cp_1_g-1_v7yrdo1ccggsl-stroke-fill" data-item-order="-466790" transform="translate(257.427978515625, 193.50399780273438)">
    <g id="cp_1_g-1_v7yrdo1ccggsl-fill" stroke="none" fill="#8769fd">
      <g>
        <path d="M 10 159.842L 10.000003 10L 139.767 84.9209L 10 159.842Z"/>
      </g>
    </g>
    <g id="cp_1_g-1_v7yrdo1ccggsl-stroke" fill="none" stroke-linecap="round" stroke-linejoin="round" stroke-miterlimit="4" stroke="#2c2c2c" stroke-width="2">
      <g>
        <path d="M 10 159.8417L 10 10L 139.7667 84.9209L 10 159.8417Z"/>
      </g>
    </g>
  </g>
  <g id="g-root-cp_1_g-1_1_mcbr4s1ccghlb-stroke-fill" data-item-order="-466764" transform="translate(476.99798583984375, 121.9990005493164)">
    <g id="cp_1_g-1_1_mcbr4s1ccghlb-fill" stroke="none" fill="#8769fd">
      <g>
        <path d="M 10 10L 10 39L 34 24.1778L 10 10Z"/>
      </g>
    </g>
    <g id="cp_1_g-1_1_mcbr4s1ccghlb-stroke" fill="none" stroke-linecap="round" stroke-linejoin="round" stroke-miterlimit="4" stroke="#2c2c2c" stroke-width="2">
      <g>
        <path d="M 10 10L 10 39L 34 24.1778L 10 10Z"/>
      </g>
    </g>
  </g>
  <g id="g-root-cp_2_g-2_1_dhb7z01ccgg01-stroke-fill" data-item-order="-466748" transform="translate(476.99798583984375, 217.99899291992188)">
    <g id="cp_2_g-2_1_dhb7z01ccgg01-fill" stroke="none" fill="#43dd93">
      <g>
        <path d="M 10 10L 10 39L 34 24.1778L 10 10Z"/>
      </g>
    </g>
    <g id="cp_2_g-2_1_dhb7z01ccgg01-stroke" fill="none" stroke-linecap="round" stroke-linejoin="round" stroke-miterlimit="4" stroke="#2c2c2c" stroke-width="2">
      <g>
        <path d="M 10 10L 10 39L 34 24.1778L 10 10Z"/>
      </g>
    </g>
  </g>
  <g id="g-root-cp_3_g-3_1_dhb7z01ccgg03-stroke-fill" data-item-order="-466734" transform="translate(477, 313.9989929199219)">
    <g id="cp_3_g-3_1_dhb7z01ccgg03-fill" stroke="none" fill="#ffe711">
      <g>
        <path d="M 10 10L 10 39L 34 24.1778L 10 10Z"/>
      </g>
    </g>
    <g id="cp_3_g-3_1_dhb7z01ccgg03-stroke" fill="none" stroke-linecap="round" stroke-linejoin="round" stroke-miterlimit="4" stroke="#2c2c2c" stroke-width="2">
      <g>
        <path d="M 10 10L 10 39L 34 24.1778L 10 10Z"/>
      </g>
    </g>
  </g>
  <g id="g-root-cp_4_g-4_1_4lo7q41ccggst-stroke-fill" data-item-order="-466720" transform="translate(477, 409.9989929199219)">
    <g id="cp_4_g-4_1_4lo7q41ccggst-fill" stroke="none" fill="#f79438">
      <g>
        <path d="M 10 10L 10 39L 34 24.1778L 10 10Z"/>
      </g>
    </g>
    <g id="cp_4_g-4_1_4lo7q41ccggst-stroke" fill="none" stroke-linecap="round" stroke-linejoin="round" stroke-miterlimit="4" stroke="#2c2c2c" stroke-width="2">
      <g>
        <path d="M 10 10L 10 39L 34 24.1778L 10 10Z"/>
      </g>
    </g>
  </g>
  <g id="g-root-cp_5_g-5_1_5uplo1ccghl3-stroke-fill" data-item-order="-466706" transform="translate(476.99798583984375, 505.9989929199219)">
    <g id="cp_5_g-5_1_5uplo1ccghl3-fill" stroke="none" fill="#fb6762">
      <g>
        <path d="M 10 10L 10 39L 34 24.1778L 10 10Z"/>
      </g>
    </g>
    <g id="cp_5_g-5_1_5uplo1ccghl3-stroke" fill="none" stroke-linecap="round" stroke-linejoin="round" stroke-miterlimit="4" stroke="#2c2c2c" stroke-width="2">
      <g>
        <path d="M 10 10L 10 39L 34 24.1778L 10 10Z"/>
      </g>
    </g>
  </g>
  <g id="g-root-cp_6_g-6_1_1ur59gc1ccgi69-stroke-fill" data-item-order="-466692" transform="translate(477, 590.0050048828125)">
    <g id="cp_6_g-6_1_1ur59gc1ccgi69-fill" stroke="none" fill="#1ac3fb">
      <g>
        <path d="M 10 10L 10 39L 34 24.1778L 10 10Z"/>
      </g>
    </g>
    <g id="cp_6_g-6_1_1ur59gc1ccgi69-stroke" fill="none" stroke-linecap="round" stroke-linejoin="round" stroke-miterlimit="4" stroke="#2c2c2c" stroke-width="2">
      <g>
        <path d="M 10 10L 10 39L 34 24.1778L 10 10Z"/>
      </g>
    </g>
  </g>
  <g id="g-root-ic_1_18ko7x81ccghe4-stroke-fill" data-item-order="-2304" transform="translate(139, 487.5)">
    <g id="ic_1_18ko7x81ccghe4-fill" stroke="none" fill="#f4f4f4">
      <g>
        <path d="M 50 10L 18 10C 15.790861 10 14 11.790861 14 14L 14 54C 14 56.209141 15.790861 58 18 58L 50 58C 52.209141 58 54 56.209141 54 54L 54 14C 54 11.790861 52.209141 10 50 10ZM 18 30C 18 29.447716 18.447716 29 19 29L 49 29C 49.552284 29 50 29.447716 50 30L 50 39C 50 39.552284 49.552284 40 49 40L 19 40C 18.447716 40 18 39.552284 18 39ZM 49 14C 49.552284 14 50 14.447716 50 15L 50 24C 50 24.552284 49.552284 25 49 25L 19 25C 18.447716 25 18 24.552284 18 24L 18 15C 18 14.447716 18.447716 14 19 14ZM 19 54C 18.447716 54 18 53.552284 18 53L 18 45C 18 44.447716 18.447716 44 19 44L 49 44C 49.552284 44 50 44.447716 50 45L 50 53C 50 53.552284 49.552284 54 49 54ZM 29.82 20.639999C 30.095144 21.454624 30.860168 22.00222 31.719999 22L 36.279999 22C 37.139832 22.00222 37.904854 21.454624 38.18 20.639999L 38.52 19.639999C 38.721191 19.029854 38.617023 18.360203 38.239998 17.84C 37.866646 17.315609 37.263714 17.002975 36.620003 17L 31.379999 17C 30.736286 17.002975 30.133352 17.315609 29.76 17.84C 29.389767 18.363617 29.293076 19.033016 29.5 19.639999ZM 38.239998 32.84C 37.866646 32.315609 37.263714 32.002975 36.620003 32L 31.379999 32C 30.736286 32.002975 30.133352 32.315609 29.76 32.84C 29.389767 33.363617 29.293076 34.033016 29.5 34.639999L 29.82 35.639999C 30.095144 36.454624 30.860168 37.00222 31.719999 37L 36.279999 37C 37.139832 37.00222 37.904854 36.454624 38.18 35.639999L 38.52 34.639999C 38.721191 34.029854 38.617023 33.360199 38.239998 32.84ZM 36.620003 47L 31.379999 47C 30.736286 47.002975 30.133352 47.315609 29.76 47.84C 29.389767 48.363617 29.293076 49.033016 29.5 49.639999L 29.82 50.639999C 30.095144 51.454624 30.860168 52.00222 31.719999 52L 36.279999 52C 37.139832 52.00222 37.904854 51.454624 38.18 50.639999L 38.52 49.639999C 38.721191 49.029854 38.617023 48.360203 38.239998 47.84C 37.866646 47.315609 37.263714 47.002975 36.620003 47Z"/>
      </g>
    </g>
  </g>
  <g id="g-root-ic_2_v63fa41cbws91-stroke-fill" data-item-order="-2304" transform="translate(271, 488)">
    <g id="ic_2_v63fa41cbws91-fill" stroke="none" fill="#f4f4f4">
      <g>
        <path d="M 10 14.934C 10 12.264 12.264 10 14.934 10L 44.459999 10C 47.130001 10 49.394001 12.264 49.394001 14.934L 49.394001 51.698002C 49.394001 52.938 50.453999 54 51.694 54C 52.958397 53.981789 53.979595 52.962364 54 51.697998L 54 21.973999C 54 20.869431 54.895432 19.973999 56 19.973999C 57.104568 19.973999 58 20.869431 58 21.973999L 58 51.698002C 57.979252 55.169868 55.169868 57.979252 51.697998 58L 16.299999 58C 12.828913 57.978161 10.020737 55.169094 10 51.697998L 10 14.934ZM 20.1 38.200001C 19.271572 38.200001 18.6 38.871574 18.6 39.700001C 18.6 40.528427 19.271572 41.200001 20.1 41.200001L 39.099998 41.200001C 39.928429 41.200001 40.599998 40.528427 40.599998 39.700001C 40.599998 38.871574 39.928429 38.200001 39.099998 38.200001L 20.1 38.200001ZM 18.6 47.700001C 18.6 46.871574 19.271572 46.200001 20.1 46.200001L 32.099998 46.200001C 32.928429 46.200001 33.599998 46.871574 33.599998 47.700001C 33.599998 48.528427 32.928429 49.200001 32.099998 49.200001L 20.1 49.200001C 19.271572 49.200001 18.6 48.528427 18.6 47.700001ZM 37.496002 28.214001L 35.475998 26.393999L 30.496 30.822001C 29.925072 31.329584 29.063873 31.327 28.496 30.816L 25.487999 28.106001L 21.84 31.32C 21.217665 31.862921 20.273537 31.800644 19.727905 31.180685C 19.182274 30.560724 19.240429 29.616333 19.858002 29.068001L 24.51 24.973999C 25.081511 24.471689 25.938578 24.476847 26.504 24.986L 29.506001 27.686001L 33.232002 24.375999L 31.496 22.816C 31.033468 22.400604 30.875109 21.742941 31.097864 21.162537C 31.32062 20.58213 31.878317 20.199284 32.5 20.200001L 38.5 20.200001C 39.32843 20.200001 40 20.871574 40 21.700001L 40 27.1C 39.999825 27.692421 39.650986 28.229244 39.109718 28.470049C 38.568443 28.710854 37.93615 28.610527 37.496002 28.214001Z"/>
      </g>
    </g>
  </g>
  <g id="g-root-ic_1_zrj76k1cbzmyu-stroke-fill" data-item-order="-2304" transform="translate(344.1090087890625, 368.50299072265625)">
    <g id="ic_1_zrj76k1cbzmyu-fill" stroke="none" fill="#f4f4f4">
      <g>
        <path d="M 48.200001 54.740002L 44.939999 54.740002L 42.939999 57.740002L 48.200001 57.740002C 51.163483 57.728985 53.560024 55.323502 53.560001 52.360001L 53.560001 50.48C 52.620739 51.283989 51.609856 52.000309 50.540001 52.619999C 50.41721 53.821239 49.40749 54.736027 48.200001 54.739998ZM 34.299999 54.740002L 23.6 54.740002C 22.285564 54.740002 21.220001 53.674438 21.220001 52.360001L 21.220001 42.119999L 24.84 38.120003C 25.349289 37.550598 25.349289 36.6894 24.84 36.120003L 21.220001 32L 21.220001 15.8C 21.221296 14.91571 21.008575 14.044242 20.6 13.26L 48 13.26C 48.677109 13.254668 49.328316 13.519918 49.808994 13.99684C 50.289669 14.473763 50.56002 15.12287 50.559998 15.799999L 50.560001 19.26L 47.740002 22C 47.221409 22.565815 47.221409 23.434185 47.740002 24L 50.599998 27.08L 50.599998 27.559999C 51.422215 26.805895 52.469025 26.342207 53.579998 26.24C 53.48 25.639999 53.360001 25.639999 50.919998 23.02L 53.16 20.82C 53.375244 20.59483 53.515045 20.308235 53.560001 20L 53.560001 15.8C 53.548985 12.73711 51.062912 10.25998 48 10.26L 15.68 10.26C 12.624898 10.270969 10.15097 12.744898 10.14 15.8L 10.14 20.9C 10.14 21.728428 10.811573 22.400002 11.64 22.400002L 14.440001 22.4C 15.268427 22.400002 15.940001 21.728428 15.940001 20.900002C 15.940001 20.071573 15.268427 19.400002 14.440001 19.400002L 13.14 19.4L 13.14 15.8C 13.139702 14.396986 14.276985 13.259459 15.68 13.259459C 17.083014 13.259459 18.220299 14.396986 18.219999 15.799999L 18.220001 32.5C 18.221308 32.868366 18.356342 33.223724 18.599998 33.5L 21.720001 37.040001L 18.6 40.559998C 18.359428 40.838127 18.224844 41.192299 18.220001 41.559998L 18.220001 52.360001C 18.230968 55.326736 20.633263 57.729031 23.599998 57.739998L 34.419998 57.740002C 34.040928 56.782547 33.998611 55.72467 34.299999 54.739998ZM 44 18.360001L 38 18.360001C 37.171574 18.360001 36.5 19.031574 36.5 19.860001C 36.5 20.688427 37.171574 21.360001 38 21.360001L 44 21.360001C 44.828426 21.360001 45.5 20.688427 45.5 19.860001C 45.5 19.031574 44.828426 18.360001 44 18.360001ZM 28.82 21.360001L 31.860001 21.360001C 32.688427 21.360001 33.360001 20.688427 33.360001 19.860001C 33.360001 19.031574 32.688427 18.360001 31.860001 18.360001L 28.82 18.360001C 27.991573 18.360001 27.32 19.031574 27.32 19.860001C 27.32 20.688427 27.991573 21.360001 28.82 21.360001ZM 41.860001 26.639999L 28.82 26.639999C 27.991573 26.640001 27.32 27.311573 27.32 28.140001C 27.32 28.968428 27.991573 29.640001 28.82 29.640001L 41.860001 29.639999C 42.688427 29.640001 43.360001 28.968428 43.360001 28.140001C 43.360001 27.311573 42.688427 26.640001 41.860001 26.640001ZM 34.879997 35.559998L 28.879999 35.559998C 28.051573 35.560001 27.380001 36.231575 27.380001 37.060001C 27.380001 37.888428 28.051573 38.560001 28.880001 38.560001L 34.879997 38.559998C 35.708427 38.560001 36.380001 37.888428 36.380001 37.060001C 36.380001 36.231575 35.708427 35.560001 34.880001 35.560001ZM 32.860001 44.900002L 28.860001 44.900002C 28.031574 44.900002 27.360001 45.571575 27.360001 46.400002C 27.360001 47.228428 28.031574 47.900002 28.860001 47.900002L 32.860001 47.900002C 33.688427 47.900002 34.360001 47.228428 34.360001 46.400002C 34.360001 45.571575 33.688427 44.900002 32.860001 44.900002ZM 57.860001 34.400002C 57.835411 33.162895 57.694794 31.93083 57.439999 30.719999C 57.439999 30.719999 57.439999 30.42 57.439999 30.42L 57.439999 30.1L 57.32 29.68C 57.246765 29.406193 57.062908 29.175201 56.812508 29.042414C 56.562107 28.909624 56.267742 28.887012 56 28.98C 55.150543 29.085579 54.308788 29.245914 53.48 29.459999L 52.740002 29.68L 50.18 36.239998C 47.580002 33.040001 47.82 33.32 47.619999 33.120003C 47.354504 32.879105 46.978661 32.802399 46.639999 32.919998C 45.76437 33.53672 44.977093 34.270168 44.299999 35.099998C 43.963741 35.47451 43.64986 35.86853 43.360001 36.279999L 43.080002 36.700001L 42.5 37.620003L 42.16 38.220001C 39.760002 42.599998 39.459999 47.360001 40.959999 49.779999L 37.299999 55.200001C 36.889847 55.868698 37.064201 56.740494 37.700001 57.200001C 38.366795 57.620644 39.246284 57.444748 39.700001 56.800003L 41.18 54.639999L 43.400002 51.360001C 43.652912 51.380604 43.907085 51.380604 44.16 51.360001C 47.619999 51.360001 52.599998 48.259998 55.459999 43.139999C 57.009293 40.486149 57.836731 37.4729 57.860001 34.400002Z"/>
      </g>
    </g>
  </g>
  <g id="g-root-ic_docu_18nsoik1cc589b-stroke-fill" data-item-order="-2304" transform="translate(67, 368.50299072265625)">
    <g id="ic_docu_18nsoik1cc589b-fill" stroke="none" fill="#f4f4f4">
      <g>
        <path d="M 49 22L 56.799999 22C 57.004314 21.997347 57.186459 21.87064 57.259998 21.68C 57.332283 21.49225 57.284996 21.279465 57.139999 21.139999L 46.860001 10.84C 46.68927 10.730904 46.470726 10.730904 46.299999 10.84C 46.146477 10.902808 46.034096 11.037666 46 11.2L 46 19C 46 20.656855 47.343147 22 49 22ZM 44 19L 44 10.5C 44 10.223858 43.776142 10 43.5 10L 22 10C 19.790861 10 18 11.790861 18 14L 18 24.16C 17.998074 24.328079 18.08073 24.48588 18.220001 24.58C 18.359703 24.671432 18.540297 24.671432 18.68 24.579998C 19.741268 24.182987 20.866985 23.986326 22 24C 25.873875 24 29.313124 26.47887 30.538151 30.15395C 31.763176 33.829029 30.4991 37.875675 27.4 40.200001C 27.151335 40.382553 27.003139 40.671535 27 40.98L 27 41.120003C 27.052105 41.629608 27.487902 42.013111 28 42L 30 42C 33.865993 42 37 45.134007 37 49C 36.997837 50.517982 36.30619 51.952782 35.120003 52.900002C 34.972939 53.021107 34.903877 53.21294 34.939999 53.399998C 34.961647 53.599415 34.961647 53.800587 34.940002 54L 34.940002 56C 34.940559 56.459305 34.880028 56.916649 34.759998 57.359997C 34.6814 57.496136 34.6814 57.663864 34.760002 57.799999C 34.854427 57.925903 35.002621 58 35.16 58L 54 58C 56.209141 58 58 56.209141 58 54L 58 24.5C 58 24.223858 57.776142 24 57.5 24L 49 24C 46.238575 24 44 21.761425 44 19ZM 32 56L 32 54.5C 32 54.223858 31.776142 54 31.5 54L 12.5 54C 12.223858 54 12 54.223858 12 54.5L 12 56C 12 57.104568 12.895431 58 14 58L 30 58C 31.10457 58 32 57.104568 32 56ZM 12 51L 32 51C 33.104568 51 34 50.104568 34 49C 34 46.790859 32.209137 45 30 45L 28 45C 25.836887 45.000973 24.064892 43.282139 24 41.120003C 23.967936 39.825905 24.564108 38.596298 25.6 37.82C 27.666067 36.270451 28.508785 33.572685 27.692101 31.122635C 26.875416 28.672581 24.582582 27.02 22 27.02C 19.417418 27.02 17.124584 28.672581 16.307899 31.122635C 15.491217 33.572685 16.333935 36.270451 18.400002 37.82C 19.430077 38.592159 20.025557 39.812897 20 41.099998C 19.945732 43.269989 18.17067 45.000679 16 45L 14 45C 11.790861 45 10 46.790859 10 49C 10 50.104568 10.895431 51 12 51Z"/>
      </g>
    </g>
  </g>
  <g id="g-root-ic_eye_1hh5o1ccavi8-stroke-fill" data-item-order="-2304" transform="translate(271, 247.5)">
    <g id="ic_eye_1hh5o1ccavi8-fill" stroke="none" fill="#f4f4f4">
      <g>
        <path d="M 53 30C 51.482113 30.000805 50.095459 30.860685 49.419998 32.220001C 49.341251 32.391823 49.168999 32.501434 48.98 32.5L 47.360001 32.5C 47.112305 32.503189 46.899612 32.324532 46.860001 32.080002C 46.019642 26.451952 41.621727 22.021643 36 21.139999C 35.75547 21.100386 35.576813 20.887695 35.580002 20.639999L 35.580002 19.040001C 35.570427 18.843821 35.681343 18.661606 35.860001 18.58C 37.522964 17.753654 38.398537 15.891491 37.974129 14.083681C 37.549721 12.275871 35.936958 10.997878 34.080002 10.997878C 32.223042 10.997878 30.610277 12.275871 30.185871 14.083681C 29.761465 15.891491 30.637037 17.753654 32.299999 18.58C 32.478653 18.661606 32.589569 18.843821 32.579998 19.039999L 32.580002 20.66C 32.573471 20.900114 32.397125 21.101656 32.16 21.139999C 26.500898 21.948261 22.030937 26.353323 21.139999 32C 21.100386 32.24453 20.887695 32.423187 20.639999 32.419998L 19.040001 32.419998C 18.843821 32.429569 18.661606 32.318657 18.58 32.139999C 17.753654 30.477037 15.891491 29.601463 14.083681 30.025871C 12.275871 30.450277 10.997878 32.063042 10.997878 33.919998C 10.997878 35.776958 12.275871 37.389725 14.083681 37.814129C 15.891491 38.238533 17.753654 37.362961 18.58 35.700001C 18.658747 35.528175 18.830997 35.418564 19.02 35.419998L 20.639999 35.419998C 20.887695 35.416813 21.100386 35.59547 21.139999 35.84C 21.948261 41.4991 26.353323 45.969063 32 46.860001C 32.24453 46.899612 32.423187 47.112305 32.419998 47.360001L 32.419998 48.98C 32.421432 49.168999 32.311821 49.341251 32.139999 49.419998C 30.477037 50.246346 29.601463 52.108509 30.025871 53.916317C 30.450277 55.724129 32.063042 57.002121 33.919998 57.002121C 35.776958 57.002121 37.389725 55.724129 37.814129 53.916317C 38.238533 52.108509 37.362961 50.246346 35.700001 49.419998C 35.528175 49.341251 35.418564 49.168999 35.419998 48.98L 35.419998 47.360001C 35.416813 47.112305 35.59547 46.899612 35.84 46.860001C 41.4991 46.051739 45.969063 41.646675 46.860001 36C 46.899612 35.75547 47.112305 35.576813 47.360001 35.580002L 48.98 35.580002C 49.168999 35.578564 49.341251 35.688179 49.419998 35.860001C 50.329811 37.591965 52.358898 38.411697 54.21645 37.797733C 56.074001 37.183765 57.214893 35.316277 56.913342 33.383266C 56.611794 31.450258 54.956295 30.019005 53 30ZM 45.860001 34.52C 43.216526 38.502945 38.7798 40.927055 34 41C 29.220201 40.927055 24.783474 38.502945 22.139999 34.52C 21.95825 34.197151 21.95825 33.802841 22.139999 33.479996C 24.783474 29.497057 29.220201 27.072943 34 27C 38.7798 27.072943 43.216526 29.497057 45.860001 33.48C 46.041748 33.802841 46.041748 34.197151 45.859997 34.519997ZM 16 21C 16 23.209139 17.790861 25 20 25C 22.209139 25 24 23.209139 24 21C 24 18.790861 22.209139 17 20 17C 17.790861 17 16 18.790861 16 21M 17 48C 17 50.209141 18.790861 52 21 52C 23.209139 52 25 50.209141 25 48C 25 45.790859 23.209139 44 21 44C 18.790861 44 17 45.790859 17 48M 44 47C 44 49.209141 45.790859 51 48 51C 50.209141 51 52 49.209141 52 47C 52 44.790859 50.209141 43 48 43C 45.790859 43 44 44.790859 44 47M 43 20C 43 22.209139 44.790859 24 47 24C 49.209141 24 51 22.209139 51 20C 51 17.790861 49.209141 16 47 16C 44.790859 16 43 17.790861 43 20M 29 34C 29 36.761425 31.238577 39 34 39C 36.761425 39 39 36.761425 39 34C 39 31.238577 36.761425 29 34 29C 31.238577 29 29 31.238577 29 34"/>
      </g>
    </g>
  </g>
  <g id="g-root-ic_watc_zp1au41ccdpft-stroke-fill" data-item-order="-2304" transform="translate(139, 247.5)">
    <g id="ic_watc_zp1au41ccdpft-fill" stroke="none" fill="#f4f4f4">
      <g>
        <path d="M 22.540001 50.919998C 22.660645 50.652996 22.660645 50.347004 22.540001 50.079998C 22.427715 49.812759 22.21089 49.603161 21.939999 49.499996C 20.987362 49.172398 19.987387 49.003483 18.98 48.999996C 14.464943 49.03389 10.670528 52.401009 10.1 56.880001C 10.067971 57.162067 10.154943 57.444725 10.34 57.66C 10.531866 57.878422 10.809288 58.002529 11.1 58L 20 58C 20.552284 58 21 57.552284 21 57C 21.014236 54.878635 21.542669 52.792358 22.540001 50.920002ZM 42 31C 41.340084 30.994051 40.725586 30.662941 40.35767 30.115068C 39.989754 29.567198 39.915794 28.873096 40.16 28.26C 41.282238 25.453629 43.033916 22.942436 45.279999 20.92C 46.130531 20.169001 47.428814 20.249634 48.179878 21.100105C 48.930943 21.950577 48.85041 23.248867 48 24C 46.247379 25.623615 44.8806 27.61911 44 29.84C 43.647011 30.611876 42.845268 31.076885 42 31ZM 26 31C 25.180393 31.000793 24.443254 30.501442 24.139999 29.74C 23.234797 27.55122 21.854931 25.590715 20.1 24C 19.249481 23.265461 19.15546 21.980518 19.889999 21.129999C 20.624538 20.27948 21.909481 20.185461 22.759998 20.919998C 25.006084 22.942436 26.757761 25.453629 27.879999 28.26C 28.126842 28.879679 28.048504 29.581631 27.671122 30.131645C 27.293739 30.68166 26.666992 31.007332 26 31ZM 44.040001 42C 44.040001 44.761425 46.278576 47 49.040001 47C 51.801426 47 54.040001 44.761425 54.040001 42C 54.040001 39.238579 51.801426 37 49.040001 37C 46.278576 37 44.040001 39.238579 44.040001 42M 47.040001 57C 47.040001 57.552284 47.487717 58 48.040001 58L 56.959999 58C 57.250713 58.002529 57.528133 57.878422 57.720001 57.66C 57.905056 57.444725 57.992027 57.162067 57.959999 56.880001C 57.627209 54.166828 56.079384 51.751945 53.753113 50.316505C 51.426838 48.881062 48.574265 48.580647 46 49.5C 45.720234 49.596333 45.494747 49.80727 45.379997 50.079998C 45.259354 50.347004 45.259354 50.652996 45.380001 50.919998C 46.421387 52.780758 46.991314 54.868206 47.040001 57ZM 14.04 42C 14.04 44.761425 16.278576 47 19.040001 47C 21.801424 47 24.040001 44.761425 24.040001 42C 24.040001 39.238579 21.801424 37 19.040001 37C 16.278576 37 14.04 39.238579 14.04 42M 38 47.799999C 37.832672 47.723007 37.718559 47.563248 37.699997 47.379997C 37.696274 47.195763 37.786751 47.022339 37.940002 46.920002C 40.825562 45.18177 42.198162 41.732887 41.296104 38.487244C 40.394043 35.2416 37.438667 32.99559 34.07 32.99559C 30.701334 32.99559 27.745958 35.2416 26.843899 38.487244C 25.941841 41.732887 27.31444 45.18177 30.200001 46.920002C 30.359522 47.016582 30.45204 47.193909 30.440001 47.380001C 30.42144 47.563248 30.307325 47.723007 30.139999 47.799999C 26.497446 49.38974 24.142048 52.985649 24.139999 56.959999C 24.119923 57.235847 24.222347 57.506538 24.42 57.700001C 24.610775 57.891438 24.869732 57.999336 25.139999 58L 43.139999 58C 43.410267 57.999336 43.669224 57.891438 43.860001 57.700001C 44.057652 57.506538 44.160076 57.235847 44.139999 56.959999C 44.146191 52.942257 41.718765 49.320885 38 47.799999ZM 34 45C 31.514719 45 29.5 42.985283 29.5 40.5C 29.501667 40.018311 29.575832 39.539612 29.720001 39.080002C 29.765665 38.930168 29.887539 38.815914 30.039999 38.779999C 30.178785 38.711998 30.341215 38.711998 30.48 38.779999C 32.110786 39.879009 34.033463 40.464172 36 40.459999C 36.631042 40.461548 37.260719 40.40126 37.879997 40.279999C 38.03743 40.246887 38.20118 40.291542 38.32 40.400002C 38.421013 40.508926 38.478027 40.651459 38.48 40.800003C 38.322342 43.159725 36.364983 44.994751 34 45ZM 10 10M 21.18 15L 20.5 15C 18.718195 14.733552 17.334398 13.308815 17.119999 11.52L 17.02 10.86C 16.948866 10.355273 16.509489 9.984818 16 10C 15.501231 10.003608 15.078227 10.367391 15 10.86L 15 11.52C 14.745993 13.296754 13.339603 14.68679 11.559999 14.92L 10.9 14.92C 10.360198 14.982766 9.964396 15.457729 10 16C 9.993624 16.495392 10.350943 16.920773 10.84 17L 11.52 17C 13.276275 17.257809 14.652557 18.642235 14.9 20.4L 14.9 21.060001C 14.920404 21.330841 15.047987 21.582359 15.254473 21.758808C 15.460957 21.935261 15.72929 22.02207 16 22C 16.494335 21.994978 16.910816 21.629494 16.98 21.139999L 17.08 20.48C 17.329666 18.715944 18.715944 17.329666 20.48 17.08L 21.139999 17.08C 21.663759 16.998177 22.037537 16.528782 22 16C 21.992332 15.516587 21.652544 15.102212 21.18 15ZM 10 10M 38.18 14L 37.639999 14C 36.305035 13.788437 35.270077 12.720881 35.099998 11.38L 35.099998 10.86C 35.099998 10.307715 34.652283 9.86 34.099998 9.86C 33.547714 9.86 33.099998 10.307715 33.099998 10.86L 33.099998 11.4C 32.913666 12.78126 31.806271 13.855597 30.42 14L 29.879999 14C 29.403679 14.095739 29.060997 14.514153 29.060997 15C 29.060997 15.485847 29.403679 15.904261 29.879999 16L 30.42 16C 31.739155 16.198673 32.771679 17.239328 32.959999 18.559999L 32.959999 19.08C 32.959999 19.632286 33.407715 20.08 33.959999 20.08C 34.512283 20.08 34.959999 19.632286 34.959999 19.08L 34.959999 18.560001C 35.169739 17.197815 36.269638 16.14716 37.639999 16L 38.18 16C 38.656319 15.904261 38.999001 15.485847 38.999001 15C 38.999001 14.514153 38.656319 14.095739 38.18 14ZM 34 30C 32.895432 30 32 29.10457 32 28L 32 24C 32 22.895432 32.895432 22 34 22C 35.104568 22 36 22.895432 36 24L 36 28C 36 29.10457 35.104568 30 34 30Z"/>
      </g>
    </g>
  </g>
  <g id="g-root-tx_understa_1lw4qak1ccgft7-stroke-fill" data-item-order="0" transform="translate(242, 50)">
    <g id="tx_understa_1lw4qak1ccgft7-fill" stroke="none" fill="#f4f4f4">
      <g>
        <text style="font: 20px Roboto, sans-serif; white-space: pre;" font-size="20px" font-family="Roboto, sans-serif">
          <tspan x="15.84" y="34" dominant-baseline="ideographic">Understanding Bethurum's Claims</tspan>
        </text>
      </g>
    </g>
  </g>
  <g id="g-root-tx_occultco_magf181cchurm-stroke-fill" data-item-order="0" transform="translate(513, 122)">
    <g id="tx_occultco_magf181cchurm-fill" stroke="none" fill="#8769fd">
      <g>
        <text style="font: bold 20px Roboto, sans-serif; white-space: pre;" font-weight="bold" font-size="20px" font-family="Roboto, sans-serif">
          <tspan x="12" y="34" dominant-baseline="ideographic">Occult Connections</tspan>
        </text>
      </g>
    </g>
  </g>
  <g id="g-root-tx_linksbet_detesc1cchvkb-stroke-fill" data-item-order="0" transform="translate(513, 158)">
    <g id="tx_linksbet_detesc1cchvkb-fill" stroke="none" fill="#f1eeff">
      <g>
        <text style="font: 15px Roboto, sans-serif; white-space: pre;" font-size="15px" font-family="Roboto, sans-serif">
          <tspan x="12" y="28" dominant-baseline="ideographic">Links between UFO claims and </tspan>
          <tspan x="12" y="46" dominant-baseline="ideographic">occult traditions</tspan>
        </text>
      </g>
    </g>
  </g>
  <g id="g-root-tx_bethurum_3cwf01cchx58-stroke-fill" data-item-order="0" transform="translate(513, 218)">
    <g id="tx_bethurum_3cwf01cchx58-fill" stroke="none" fill="#43dd93">
      <g>
        <text style="font: bold 20px Roboto, sans-serif; white-space: pre;" font-weight="bold" font-size="20px" font-family="Roboto, sans-serif">
          <tspan x="12" y="34" dominant-baseline="ideographic">Bethurum's Writings</tspan>
        </text>
      </g>
    </g>
  </g>
  <g id="g-root-tx_insights_1up9xcs1cchukl-stroke-fill" data-item-order="0" transform="translate(513, 254)">
    <g id="tx_insights_1up9xcs1cchukl-fill" stroke="none" fill="#dffff0">
      <g>
        <text style="font: 15px Roboto, sans-serif; white-space: pre;" font-size="15px" font-family="Roboto, sans-serif">
          <tspan x="12" y="28" dominant-baseline="ideographic">Insights from Bethurum's various </tspan>
          <tspan x="12" y="46" dominant-baseline="ideographic">publications</tspan>
        </text>
      </g>
    </g>
  </g>
  <g id="g-root-tx_contempo_1hdtezg1cchw5i-stroke-fill" data-item-order="0" transform="translate(513, 314)">
    <g id="tx_contempo_1hdtezg1cchw5i-fill" stroke="none" fill="#ffe711">
      <g>
        <text style="font: bold 20px Roboto, sans-serif; white-space: pre;" font-weight="bold" font-size="20px" font-family="Roboto, sans-serif">
          <tspan x="12" y="34" dominant-baseline="ideographic">Contemporary Accounts</tspan>
        </text>
      </g>
    </g>
  </g>
  <g id="g-root-tx_newspape_18i6eqk1cchwy7-stroke-fill" data-item-order="0" transform="translate(513, 350)">
    <g id="tx_newspape_18i6eqk1cchwy7-fill" stroke="none" fill="#fffbd5">
      <g>
        <text style="font: 15px Roboto, sans-serif; white-space: pre;" font-size="15px" font-family="Roboto, sans-serif">
          <tspan x="12" y="28" dominant-baseline="ideographic">Newspaper reports from </tspan>
          <tspan x="12" y="46" dominant-baseline="ideographic">Bethurum's time</tspan>
        </text>
      </g>
    </g>
  </g>
  <g id="g-root-tx_sanctuar_qrivbw1cchw5k-stroke-fill" data-item-order="0" transform="translate(513, 410)">
    <g id="tx_sanctuar_qrivbw1cchw5k-fill" stroke="none" fill="#f79438">
      <g>
        <text style="font: bold 20px Roboto, sans-serif; white-space: pre;" font-weight="bold" font-size="20px" font-family="Roboto, sans-serif">
          <tspan x="12" y="34" dominant-baseline="ideographic">Sanctuary Records</tspan>
        </text>
      </g>
    </g>
  </g>
  <g id="g-root-tx_document_dgou1o1cchukp-stroke-fill" data-item-order="0" transform="translate(513, 446)">
    <g id="tx_document_dgou1o1cchukp-fill" stroke="none" fill="#fff0e2">
      <g>
        <text style="font: 15px Roboto, sans-serif; white-space: pre;" font-size="15px" font-family="Roboto, sans-serif">
          <tspan x="12" y="28" dominant-baseline="ideographic">Documents from Bethurum's </tspan>
          <tspan x="12" y="46" dominant-baseline="ideographic">spiritual organization</tspan>
        </text>
      </g>
    </g>
  </g>
  <g id="g-root-tx_governme_1uqivj01cchwqq-stroke-fill" data-item-order="0" transform="translate(513, 506)">
    <g id="tx_governme_1uqivj01cchwqq-fill" stroke="none" fill="#fb6762">
      <g>
        <text style="font: bold 20px Roboto, sans-serif; white-space: pre;" font-weight="bold" font-size="20px" font-family="Roboto, sans-serif">
          <tspan x="12" y="34" dominant-baseline="ideographic">Government Documents</tspan>
        </text>
      </g>
    </g>
  </g>
  <g id="g-root-tx_fbiandci_1hfou8s1cchv5v-stroke-fill" data-item-order="0" transform="translate(513, 542)">
    <g id="tx_fbiandci_1hfou8s1cchv5v-fill" stroke="none" fill="#ffe9e8">
      <g>
        <text style="font: 15px Roboto, sans-serif; white-space: pre;" font-size="15px" font-family="Roboto, sans-serif">
          <tspan x="12" y="31" dominant-baseline="ideographic">FBI and CIA records on Bethurum</tspan>
        </text>
      </g>
    </g>
  </g>
  <g id="g-root-tx_witnesst_1448bvg1cchwqs-stroke-fill" data-item-order="0" transform="translate(513, 590)">
    <g id="tx_witnesst_1448bvg1cchwqs-fill" stroke="none" fill="#1ac3fb">
      <g>
        <text style="font: bold 20px Roboto, sans-serif; white-space: pre;" font-weight="bold" font-size="20px" font-family="Roboto, sans-serif">
          <tspan x="12" y="34" dominant-baseline="ideographic">Witness Testimonies</tspan>
        </text>
      </g>
    </g>
  </g>
  <g id="g-root-tx_accounts_qteal81cchv5x-stroke-fill" data-item-order="0" transform="translate(513, 626)">
    <g id="tx_accounts_qteal81cchv5x-fill" stroke="none" fill="#e5f8ff">
      <g>
        <text style="font: 15px Roboto, sans-serif; white-space: pre;" font-size="15px" font-family="Roboto, sans-serif">
          <tspan x="12" y="28" dominant-baseline="ideographic">Accounts from people who knew </tspan>
          <tspan x="12" y="46" dominant-baseline="ideographic">Bethurum</tspan>
        </text>
      </g>
    </g>
  </g>
</svg>
