<?xml version='1.0' encoding='utf-8'?>
<svg xmlns="http://www.w3.org/2000/svg" xmlns:xlink="http://www.w3.org/1999/xlink" width="624" height="444" viewBox="0 0 624 444" style="fill:none;stroke:none;fill-rule:evenodd;clip-rule:evenodd;stroke-linecap:round;stroke-linejoin:round;stroke-miterlimit:1.5;" version="1.1">
  <style class="text-font-style fontImports" data-font-family="Roboto">@import url('https://fonts.googleapis.com/css2?family=Roboto:wght@400;700&amp;display=block');</style>
  <rect x="0" y="0" width="624" height="444" fill="#252a34" stroke="none" id="programmatic_background"/>
  <g id="g-root-tf_18it5bw1a4cpvt-stroke-fill" data-item-order="-252000" transform="translate(12, 12)"/>
  <g id="g-root-sy_4_cu_1q9goqk1a45n9m-stroke-fill" data-item-order="-31673" transform="translate(218, 201)">
    <g id="sy_4_cu_1q9goqk1a45n9m-stroke" fill="none" stroke-linecap="round" stroke-linejoin="round" stroke-miterlimit="4" stroke="#f4f4f4" stroke-width="2">
      <g>
        <path d="M 178 34L 178 46.961C 178 51.765 173.796 55.485 169.028 54.901L 100 46.448M 10 10L 10 27.415C 10 31.418 12.957 34.804 16.923 35.343L 88 45"/>
      </g>
    </g>
  </g>
  <g id="g-root-sy_3_cu_1ltn6m41a45o1v-stroke-fill" data-item-order="-31670" transform="translate(266, 230)">
    <g id="sy_3_cu_1ltn6m41a45o1v-fill" stroke="none" fill="none">
      <g>
        <path d="M 46 22C 49.314 22 52 19.314 52 16C 52 12.686 49.314 10 46 10C 42.686 10 40 12.686 40 16C 40 19.314 42.686 22 46 22ZM 43 77.995L 49 77.995L 49 21.533C 49 21.533 47.756 22.333 46.043 22.333C 44.212 22.333 43 21.533 43 21.533L 43 77.995ZM 16.4 86C 12.865 86 10 88.865 10 92.4C 10 93.284 10.716 94 11.6 94L 80.4 94C 81.284 94 82 93.284 82 92.4C 82 88.865 79.135 86 75.6 86L 16.4 86ZM 28 78C 24.686 78 22 80.686 22 84L 22 86L 70 86L 70 84C 70 80.686 67.314 78 64 78L 28 78Z"/>
      </g>
    </g>
    <g id="sy_3_cu_1ltn6m41a45o1v-stroke" fill="none" stroke-linecap="round" stroke-linejoin="round" stroke-miterlimit="4" stroke="#f4f4f4" stroke-width="2">
      <g>
        <path d="M 46 22C 49.314 22 52 19.314 52 16C 52 12.686 49.314 10 46 10C 42.686 10 40 12.686 40 16C 40 19.314 42.686 22 46 22ZM 43 77.995L 49 77.995L 49 21.533C 49 21.533 47.756 22.333 46.043 22.333C 44.212 22.333 43 21.533 43 21.533L 43 77.995ZM 16.4 86C 12.865 86 10 88.865 10 92.4C 10 93.284 10.716 94 11.6 94L 80.4 94C 81.284 94 82 93.284 82 92.4C 82 88.865 79.135 86 75.6 86L 16.4 86ZM 28 78C 24.686 78 22 80.686 22 84L 22 86L 70 86L 70 84C 70 80.686 67.314 78 64 78L 28 78Z"/>
      </g>
    </g>
  </g>
  <g id="g-root-sy_2_right-bucket_1cy06d81a45ouk-stroke-fill" data-item-order="-31666" transform="translate(350, 206.33599853515625)">
    <g id="sy_2_right-bucket_1cy06d81a45ouk-fill" stroke="none" fill="none">
      <g>
        <path d="M 10 11.800001C 10 10.806001 10.806 10.000001 11.8 10.000001L 80.2 10.000001C 81.194 10.000001 82 10.806001 82 11.800001C 82 20.747001 74.747 28.000001 65.8 28.000001L 26.2 28.000001C 17.253 28.000001 10 20.747001 10 11.800001Z"/>
      </g>
    </g>
    <g id="sy_2_right-bucket_1cy06d81a45ouk-stroke" fill="none" stroke-linecap="round" stroke-linejoin="round" stroke-miterlimit="4" stroke="#8769fd" stroke-width="2">
      <g>
        <path d="M 10 11.800001C 10 10.806001 10.806 10.000001 11.8 10.000001L 80.2 10.000001C 81.194 10.000001 82 10.806001 82 11.800001C 82 20.747001 74.747 28.000001 65.8 28.000001L 26.2 28.000001C 17.253 28.000001 10 20.747001 10 11.800001Z"/>
      </g>
    </g>
  </g>
  <g id="g-root-sy_1_left-bucket_1cy06d81a45oul-stroke-fill" data-item-order="-31662" transform="translate(182, 182)">
    <g id="sy_1_left-bucket_1cy06d81a45oul-fill" stroke="none" fill="none">
      <g>
        <path d="M 10 11.8C 10 10.806 10.806 10 11.8 10L 80.2 10C 81.194 10 82 10.806 82 11.8C 82 20.747 74.747 28 65.8 28L 26.2 28C 17.253 28 10 20.747 10 11.8Z"/>
      </g>
    </g>
    <g id="sy_1_left-bucket_1cy06d81a45oul-stroke" fill="none" stroke-linecap="round" stroke-linejoin="round" stroke-miterlimit="4" stroke="#1ac3fb" stroke-width="2">
      <g>
        <path d="M 10 11.8C 10 10.806 10.806 10 11.8 10L 80.2 10C 81.194 10 82 10.806 82 11.8C 82 20.747 74.747 28 65.8 28L 26.2 28C 17.253 28 10 20.747 10 11.8Z"/>
      </g>
    </g>
  </g>
  <g id="g-root-ic_fiel_18i6o8s1a45pmu-stroke-fill" data-item-order="0" transform="translate(194, 122)">
    <g id="ic_fiel_18i6o8s1a45pmu-stroke" fill="none" stroke-linecap="round" stroke-linejoin="round" stroke-miterlimit="4" stroke="#f4f4f4" stroke-width="2">
      <g>
        <path d="M 11.714286 49.428574C 11.714286 49.428574 18.571428 42.57143 34 42.57143C 49.428574 42.57143 56.285713 49.428574 56.285713 49.428574M 34 42.57143L 34 56.285713M 18.571428 56.285713L 30.571428 42.674286M 49.428574 56.285713L 37.428574 42.674286M 22.137142 35.714287C 22.084896 35.144051 22.084896 34.570236 22.137142 34C 22.137144 27.372585 27.509727 22 34.137146 22C 40.764561 22 46.137142 27.372585 46.137142 34C 46.189392 34.570236 46.189392 35.144051 46.137142 35.714287M 11.714286 34L 15.142858 34M 18.571428 18.571428L 20.285715 20.285715M 34 11.714286L 34 15.142858M 49.428574 18.571428L 47.714287 20.285715M 56.285713 34L 52.857143 34"/>
      </g>
    </g>
  </g>
  <g id="g-root-ic_wome_1qdu0cc1a4737z-stroke-fill" data-item-order="0" transform="translate(194, 50)">
    <g id="ic_wome_1qdu0cc1a4737z-stroke" fill="none" stroke-linecap="round" stroke-linejoin="round" stroke-miterlimit="4" stroke="#f4f4f4" stroke-width="2">
      <g>
        <path d="M 35 19.976C 35 24.978596 39.055405 29.033998 44.057999 29.033998C 49.060593 29.033998 53.115997 24.978596 53.115997 19.976C 53.115997 14.973405 49.060593 10.918 44.057999 10.918C 39.055405 10.918 35 14.973405 35 19.976ZM 57 32.916L 50.504002 26.422001M 45.082001 42.877998C 47.925785 43.196213 50.783024 42.408504 53.062 40.678001C 51.804001 39.422001 50.939999 38.632 50.608002 33.751999M 48 56.916L 57 56.916C 56.915257 54.921474 56.411674 52.967117 55.521999 51.18C 54.48 49.096001 51.466 47.652 46 45.627998C 45.411812 45.416504 45.014393 44.864887 45 44.239998L 45 41.542C 45.013321 41.122238 45.200169 40.726814 45.515999 40.450001C 46.547157 39.576958 47.098705 38.263496 46.999996 36.916L 47 35.916M 31 24.362C 30.027704 24.065155 29.016602 23.914839 28.000002 23.916C 23.788 23.916 18.883999 26.474001 18.4 33.743999C 18.068001 38.624001 17.200001 39.414001 15.946 40.669998C 18.239162 42.409142 21.114595 43.197128 23.973999 42.869999M 32.082001 42.877998C 34.925785 43.196213 37.783024 42.408504 40.061996 40.678001C 38.804001 39.422001 37.940002 38.632 37.608002 33.751999C 37.567604 33.137222 37.490128 32.52544 37.375999 31.92M 33 45.627998C 32.411812 45.416504 32.014393 44.864887 31.999998 44.239998L 32 41.542C 32.013321 41.122238 32.200169 40.726814 32.515999 40.450001C 33.547157 39.576958 34.098705 38.263496 34 36.916L 34 32.916C 31.648861 32.512917 29.520109 31.280367 28 29.441999C 26.479891 31.280367 24.351139 32.512917 22 32.916L 22 36.916C 21.901779 38.26384 22.454098 39.577362 23.486 40.449997C 23.801285 40.72702 23.987431 41.12249 24 41.542L 24 44.240002C 23.985607 44.864887 23.588186 45.416504 23 45.627998C 17.534 47.652 13.52 49.096001 12.478 51.18C 11.588326 52.967117 11.084745 54.921474 11 56.916L 45 56.916C 44.915257 54.921474 44.411674 52.967117 43.521999 51.18C 42.48 49.096001 38.466 47.652 33 45.627998Z"/>
      </g>
    </g>
  </g>
  <g id="g-root-ic_ufo_de777g1a49vk8-stroke-fill" data-item-order="0" transform="translate(362, 146)">
    <g id="ic_ufo_de777g1a49vk8-stroke" fill="none" stroke-linecap="round" stroke-linejoin="round" stroke-miterlimit="4" stroke="#f4f4f4" stroke-width="2">
      <g>
        <path d="M 49 22.5C 52.977859 22.499041 56.352161 25.420879 56.919998 29.358C 56.961449 29.646814 56.874687 29.939325 56.682472 30.158836C 56.490257 30.378345 56.211758 30.502958 55.919998 30.5L 12.07 30.5C 11.778242 30.502958 11.499743 30.378345 11.307528 30.158836C 11.115312 29.939325 11.028553 29.646814 11.07 29.358C 11.638377 25.417118 15.018346 22.494064 19 22.5ZM 19 22.5C 19 17.5 25.716 11.5 34 11.5C 42.284 11.5 49 17.5 49 22.5M 47.77 39.5L 52.995998 56.5M 14.996 56.5L 20.232 39.5M 34.996002 49.5L 31.996 53.652M 37.996002 53.5L 34.996002 49.5M 31.996 46.5L 37.996002 46.5M 35 41.5C 35.552284 41.5 36 41.947716 36 42.5M 34 42.5C 34 41.947716 34.447716 41.5 35 41.5M 35 43.5C 34.447716 43.5 34 43.052284 34 42.5M 36 42.5C 36 43.052284 35.552284 43.5 35 43.5M 34.996002 49.5L 34.996002 46.5M 25 30.5C 25 33.261421 22.761425 35.5 20 35.5C 17.238577 35.5 15 33.261421 15 30.5M 39 30.5C 39 33.261421 36.761425 35.5 34 35.5C 31.238577 35.5 29 33.261421 29 30.5M 53 30.5C 53 33.261421 50.761425 35.5 48 35.5C 45.238575 35.5 43 33.261421 43 30.5"/>
      </g>
    </g>
  </g>
  <g id="g-root-ic_decr_1lse8fw1a4bbwp-stroke-fill" data-item-order="0" transform="translate(362, 74)">
    <g id="ic_decr_1lse8fw1a4bbwp-stroke" fill="none" stroke-linecap="round" stroke-linejoin="round" stroke-miterlimit="4" stroke="#f4f4f4" stroke-width="2">
      <g>
        <path d="M 57 21L 57 31L 47 31M 57 31L 47.152 19.362C 46.496014 18.585642 45.362053 18.424755 44.515999 18.987999L 41.526001 20.987999C 40.662819 21.564152 39.502357 21.38435 38.854 20.574001L 32 12M 21 32L 21 38M 25 57L 26 45L 31 45L 31 38C 31 32.477154 26.522848 28 21 28C 15.477153 28 11 32.477154 11 38L 11 45L 16 45L 17 57ZM 14.968 14.446C 17.158287 16.717663 20.1784 18.000652 23.334 18C 24.91567 18.000362 26.480831 17.678482 27.934 17.054001M 14 18C 14 21.865993 17.134007 25 21 25C 24.865993 25 28 21.865993 28 18C 28 14.134007 24.865993 11 21 11C 17.134007 11 14 14.134007 14 18Z"/>
      </g>
    </g>
  </g>
  <g id="g-root-tx_strongsc_m97qd81a4cooy-stroke-fill" data-item-order="0" transform="translate(26, 122)">
    <g id="tx_strongsc_m97qd81a4cooy-fill" stroke="none" fill="#f4f4f4">
      <g>
        <text style="font: 20px Roboto, sans-serif; white-space: pre;" font-size="20px" font-family="Roboto, sans-serif">
          <tspan x="20.09" y="34" dominant-baseline="ideographic">Strong scientific </tspan>
          <tspan x="84.95" y="58" dominant-baseline="ideographic">evidence</tspan>
        </text>
      </g>
    </g>
  </g>
  <g id="g-root-tx_peerrevi_8xr7zw1a4cq9v-stroke-fill" data-item-order="0" transform="translate(50, 50)">
    <g id="tx_peerrevi_8xr7zw1a4cq9v-fill" stroke="none" fill="#f4f4f4">
      <g>
        <text style="font: 20px Roboto, sans-serif; white-space: pre;" font-size="20px" font-family="Roboto, sans-serif">
          <tspan x="14.84" y="34" dominant-baseline="ideographic">Peer-reviewed </tspan>
          <tspan x="43.44" y="58" dominant-baseline="ideographic">consensus</tspan>
        </text>
      </g>
    </g>
  </g>
  <g id="g-root-tx_fictiona_1uo18os1a4cohw-stroke-fill" data-item-order="0" transform="translate(422, 146)">
    <g id="tx_fictiona_1uo18os1a4cohw-fill" stroke="none" fill="#f4f4f4">
      <g>
        <text style="font: 20px Roboto, sans-serif; white-space: pre;" font-size="20px" font-family="Roboto, sans-serif">
          <tspan x="12" y="34" dominant-baseline="ideographic">Fictional origins </tspan>
          <tspan x="12" y="58" dominant-baseline="ideographic">and speculation</tspan>
        </text>
      </g>
    </g>
  </g>
  <g id="g-root-tx_lackofcr_1hckqbg1a4cq2t-stroke-fill" data-item-order="0" transform="translate(422, 74)">
    <g id="tx_lackofcr_1hckqbg1a4cq2t-fill" stroke="none" fill="#f4f4f4">
      <g>
        <text style="font: 20px Roboto, sans-serif; white-space: pre;" font-size="20px" font-family="Roboto, sans-serif">
          <tspan x="12" y="34" dominant-baseline="ideographic">Lack of credible </tspan>
          <tspan x="12" y="58" dominant-baseline="ideographic">support</tspan>
        </text>
      </g>
    </g>
  </g>
  <g id="g-root-tx_cosmicim_18gxq2k1a4cqvi-stroke-fill" data-item-order="0" transform="translate(26, 266)">
    <g id="tx_cosmicim_18gxq2k1a4cqvi-fill" stroke="none" fill="#f4f4f4">
      <g>
        <text style="font: 20px Roboto, sans-serif; white-space: pre;" font-size="20px" font-family="Roboto, sans-serif">
          <tspan x="17.69" y="34" dominant-baseline="ideographic">Cosmic Impact Theory</tspan>
        </text>
      </g>
    </g>
  </g>
  <g id="g-root-tx_extrater_v63osc1a4cpan-stroke-fill" data-item-order="0" transform="translate(374, 278)">
    <g id="tx_extrater_v63osc1a4cpan-fill" stroke="none" fill="#f4f4f4">
      <g>
        <text style="font: 20px Roboto, sans-serif; white-space: pre;" font-size="20px" font-family="Roboto, sans-serif">
          <tspan x="14.1" y="34" dominant-baseline="ideographic">Extraterrestrial Craft </tspan>
          <tspan x="73.01" y="58" dominant-baseline="ideographic">Theory</tspan>
        </text>
      </g>
    </g>
  </g>
  <g id="g-root-tx_evaluati_qqa6nw1a4cq2w-stroke-fill" data-item-order="0" transform="translate(110, 350)">
    <g id="tx_evaluati_qqa6nw1a4cq2w-fill" stroke="none" fill="#f4f4f4">
      <g>
        <text style="font: 20px Roboto, sans-serif; white-space: pre;" font-size="20px" font-family="Roboto, sans-serif">
          <tspan x="14.2" y="34" dominant-baseline="ideographic">Evaluating Theories of the Tunguska Event</tspan>
        </text>
      </g>
    </g>
    <defs>
      <pattern id="crawlingPattern-0000001b" x="0" y="0" width="12" height="12" patternUnits="userSpaceOnUse" fill="#0000001b">
        <use href="#crawlingSymbol"/>
      </pattern>
      <symbol id="crawlingSymbol">
        <g>
          <path d="M -12.5 12.5 l 13 -13 l 6 0 l -13 13 Z M -0.5 12.5 l 13 -13 l 6 0 l -13 13 Z M 11.5 12.5 l 13 -13 l 6 0 l -13 13 Z"/>
        </g>
      </symbol>
    </defs>
  </g>
</svg>
