<?xml version='1.0' encoding='utf-8'?>
<svg xmlns="http://www.w3.org/2000/svg" xmlns:xlink="http://www.w3.org/1999/xlink" width="816" height="576" viewBox="0 0 816 576" style="fill:none;stroke:none;fill-rule:evenodd;clip-rule:evenodd;stroke-linecap:round;stroke-linejoin:round;stroke-miterlimit:1.5;" version="1.1">
  <style class="text-font-style fontImports" data-font-family="Roboto">@import url('https://fonts.googleapis.com/css2?family=Roboto:wght@400;700&amp;display=block');</style>
  <rect x="0" y="0" width="816" height="576" fill="#252a34" stroke="none" id="programmatic_background"/>
  <g id="g-root-tf_1qa2zi41a48ikk-stroke-fill" data-item-order="-430560" transform="translate(18, 12)">
    <g id="tf_1qa2zi41a48ikk-fill" stroke="none" fill="#2c2c2c">
      <g>
        <path d="M 0 0L 780 0L 780 552L 0 552Z"/>
      </g>
    </g>
    <defs>
      <pattern id="crawlingPattern-f908001a" x="0" y="0" width="12" height="12" patternUnits="userSpaceOnUse" fill="#f908001a">
        <use href="#crawlingSymbol"/>
      </pattern>
      <symbol id="crawlingSymbol">
        <g>
          <path d="M -12.5 12.5 l 13 -13 l 6 0 l -13 13 Z M -0.5 12.5 l 13 -13 l 6 0 l -13 13 Z M 11.5 12.5 l 13 -13 l 6 0 l -13 13 Z"/>
        </g>
      </symbol>
      <pattern id="crawlingPattern-f576002d" x="0" y="0" width="12" height="12" patternUnits="userSpaceOnUse" fill="#f576002d">
        <use href="#crawlingSymbol"/>
      </pattern>
      <pattern id="crawlingPattern-ec07911a" x="0" y="0" width="12" height="12" patternUnits="userSpaceOnUse" fill="#ec07911a">
        <use href="#crawlingSymbol"/>
      </pattern>
      <pattern id="crawlingPattern-0000001b" x="0" y="0" width="12" height="12" patternUnits="userSpaceOnUse" fill="#0000001b">
        <use href="#crawlingSymbol"/>
      </pattern>
      <pattern id="crawlingPattern-f17400d3" x="0" y="0" width="12" height="12" patternUnits="userSpaceOnUse" fill="#f17400d3">
        <use href="#crawlingSymbol"/>
      </pattern>
      <pattern id="crawlingPattern-ff7b003a" x="0" y="0" width="12" height="12" patternUnits="userSpaceOnUse" fill="#ff7b003a">
        <use href="#crawlingSymbol"/>
      </pattern>
      <pattern id="crawlingPattern-f9080081" x="0" y="0" width="12" height="12" patternUnits="userSpaceOnUse" fill="#f9080081">
        <use href="#crawlingSymbol"/>
      </pattern>
      <pattern id="crawlingPattern-ff0b0038" x="0" y="0" width="12" height="12" patternUnits="userSpaceOnUse" fill="#ff0b0038">
        <use href="#crawlingSymbol"/>
      </pattern>
      <pattern id="crawlingPattern-eb008e76" x="0" y="0" width="12" height="12" patternUnits="userSpaceOnUse" fill="#eb008e76">
        <use href="#crawlingSymbol"/>
      </pattern>
      <pattern id="crawlingPattern-ff009b38" x="0" y="0" width="12" height="12" patternUnits="userSpaceOnUse" fill="#ff009b38">
        <use href="#crawlingSymbol"/>
      </pattern>
      <pattern id="crawlingPattern-5f5f5f1a" x="0" y="0" width="12" height="12" patternUnits="userSpaceOnUse" fill="#5f5f5f1a">
        <use href="#crawlingSymbol"/>
      </pattern>
    </defs>
  </g>
  <g id="g-root-cp_0_g-0_qwir7g1a42v4e-stroke-fill" data-item-order="-262629" transform="translate(56.130859375, 248.5)">
    <g id="cp_0_g-0_qwir7g1a42v4e-stroke" fill="none" stroke-linecap="round" stroke-linejoin="round" stroke-miterlimit="4" stroke="#f4f4f4" stroke-width="2">
      <g>
        <path d="M 106 51L 262 51M 286 51L 442 51M 274 63.5L 274 93M 454 10L 454 39.5M 465.869141 51.5L 537.869141 51.5M 10 51L 82 51M 94 10L 94 39.5"/>
      </g>
    </g>
  </g>
  <g id="g-root-cp_1_g-1_mgp9301a42vwo-stroke-fill" data-item-order="-262614" transform="translate(95.1309814453125, 125)">
    <g id="cp_1_g-1_mgp9301a42vwo-fill" stroke="none" fill="#fb6762">
      <g>
        <path d="M 100 55C 100 66.244 94.5 77.5875 89 86L 55.816 132.848C 55.4175 133.411 54.5825 133.411 54.184 132.848L 21 86C 14.5 77 10 66.7284 10 55C 10 30.1472 30.1472 10 55 10C 79.8528 10 100 30.1472 100 55ZM 55 91C 74.8822 91 91 74.8822 91 55C 91 35.1177 74.8822 19 55 19C 35.1177 19 19 35.1177 19 55C 19 74.8822 35.1177 91 55 91Z"/>
      </g>
    </g>
    <g id="cp_1_g-1_mgp9301a42vwo-stroke" fill="none" stroke-linecap="round" stroke-linejoin="round" stroke-miterlimit="4" stroke="#2c2c2c" stroke-width="2">
      <g>
        <path d="M 100 55C 100 66.244 94.5 77.5875 89 86L 55.816 132.848C 55.4175 133.4106 54.5825 133.4106 54.184 132.848L 21 86C 14.5 77 10 66.7284 10 55C 10 30.1472 30.1472 10 55 10C 79.8528 10 100 30.1472 100 55ZM 55 91C 74.8822 91 91 74.8822 91 55C 91 35.1177 74.8822 19 55 19C 35.1177 19 19 35.1177 19 55C 19 74.8822 35.1177 91 55 91Z"/>
      </g>
    </g>
    <g id="cp_1_g-1_mgp9301a42vwo-fill" stroke="none" fill="#fb6762">
      <g>
        <path d="M 55 187C 61.6274 187 67 181.6274 67 175C 67 168.3726 61.6274 163 55 163C 48.3726 163 43 168.3726 43 175C 43 181.6274 48.3726 187 55 187ZM 55 181C 58.3137 181 61 178.3137 61 175C 61 171.6863 58.3137 169 55 169C 51.6863 169 49 171.6863 49 175C 49 178.3137 51.6863 181 55 181Z"/>
      </g>
    </g>
    <g id="cp_1_g-1_mgp9301a42vwo-stroke" fill="none" stroke-linecap="round" stroke-linejoin="round" stroke-miterlimit="4" stroke="#2c2c2c" stroke-width="2">
      <g>
        <path d="M 55 187C 61.6274 187 67 181.6274 67 175C 67 168.3726 61.6274 163 55 163C 48.3726 163 43 168.3726 43 175C 43 181.6274 48.3726 187 55 187ZM 55 181C 58.3137 181 61 178.3137 61 175C 61 171.6863 58.3137 169 55 169C 51.6863 169 49 171.6863 49 175C 49 178.3137 51.6863 181 55 181Z"/>
      </g>
    </g>
  </g>
  <g id="g-root-cp_2_g-2_i0vqyk1a42woz-stroke-fill" data-item-order="-262610" transform="translate(275.1309814453125, 278)">
    <g id="cp_2_g-2_i0vqyk1a42woz-fill" stroke="none" fill="#f79438">
      <g>
        <path d="M 100 142.000369C 100 130.756469 94.5 119.412869 89 111.000369L 55.816 64.152469C 55.4175 63.589769 54.5825 63.589769 54.184 64.152469L 21 111.000369C 14.5 120.000369 10 130.271969 10 142.000369C 10 166.853469 30.1472 187.000469 55 187.000469C 79.8528 187.000469 100 166.853469 100 142.000369ZM 55 106.000369C 74.8822 106.000369 91 122.118169 91 142.000369C 91 161.882669 74.8822 178.000469 55 178.000469C 35.1177 178.000469 19 161.882669 19 142.000369C 19 122.118169 35.1177 106.000369 55 106.000369Z"/>
      </g>
    </g>
    <g id="cp_2_g-2_i0vqyk1a42woz-stroke" fill="none" stroke-linecap="round" stroke-linejoin="round" stroke-miterlimit="4" stroke="#2c2c2c" stroke-width="2">
      <g>
        <path d="M 100 142.000369C 100 130.756469 94.5 119.412869 89 111.000369L 55.816 64.152469C 55.4175 63.589769 54.5825 63.589769 54.184 64.152469L 21 111.000369C 14.5 120.000369 10 130.271969 10 142.000369C 10 166.853269 30.1472 187.000369 55 187.000369C 79.8528 187.000369 100 166.853269 100 142.000369ZM 55 106.000369C 74.8822 106.000369 91 122.118169 91 142.000369C 91 161.882669 74.8822 178.000369 55 178.000369C 35.1177 178.000369 19 161.882669 19 142.000369C 19 122.118169 35.1177 106.000369 55 106.000369Z"/>
      </g>
    </g>
    <g id="cp_2_g-2_i0vqyk1a42woz-fill" stroke="none" fill="#f79438">
      <g>
        <path d="M 55 34C 61.6274 34 67 28.6274 67 22C 67 15.3726 61.6274 10 55 10C 48.3726 10 43 15.3726 43 22C 43 28.6274 48.3726 34 55 34ZM 55 28C 58.3137 28 61 25.3137 61 22C 61 18.6863 58.3137 16 55 16C 51.6863 16 49 18.6863 49 22C 49 25.3137 51.6863 28 55 28Z"/>
      </g>
    </g>
    <g id="cp_2_g-2_i0vqyk1a42woz-stroke" fill="none" stroke-linecap="round" stroke-linejoin="round" stroke-miterlimit="4" stroke="#2c2c2c" stroke-width="2">
      <g>
        <path d="M 55 34C 61.6274 34 67 28.6274 67 22C 67 15.3726 61.6274 10 55 10C 48.3726 10 43 15.3726 43 22C 43 28.6274 48.3726 34 55 34ZM 55 28C 58.3137 28 61 25.3137 61 22C 61 18.6863 58.3137 16 55 16C 51.6863 16 49 18.6863 49 22C 49 25.3137 51.6863 28 55 28Z"/>
      </g>
    </g>
  </g>
  <g id="g-root-cp_3_g-3_4g24ak1a449om-stroke-fill" data-item-order="-262604" transform="translate(455.1310119628906, 125)">
    <g id="cp_3_g-3_4g24ak1a449om-fill" stroke="none" fill="#f366bb">
      <g>
        <path d="M 100 55C 100 66.244 94.5 77.5875 89 86L 55.816 132.848C 55.4175 133.411 54.5825 133.411 54.184 132.848L 21 86C 14.5 77 10 66.7284 10 55C 10 30.1472 30.1472 10 55 10C 79.8528 10 100 30.1472 100 55ZM 55 91C 74.8822 91 91 74.8822 91 55C 91 35.1177 74.8822 19 55 19C 35.1177 19 19 35.1177 19 55C 19 74.8822 35.1177 91 55 91Z"/>
      </g>
    </g>
    <g id="cp_3_g-3_4g24ak1a449om-stroke" fill="none" stroke-linecap="round" stroke-linejoin="round" stroke-miterlimit="4" stroke="#2c2c2c" stroke-width="2">
      <g>
        <path d="M 100 55C 100 66.244 94.5 77.5875 89 86L 55.816 132.848C 55.4175 133.4106 54.5825 133.4106 54.184 132.848L 21 86C 14.5 77 10 66.7284 10 55C 10 30.1472 30.1472 10 55 10C 79.8528 10 100 30.1472 100 55ZM 55 91C 74.8822 91 91 74.8822 91 55C 91 35.1177 74.8822 19 55 19C 35.1177 19 19 35.1177 19 55C 19 74.8822 35.1177 91 55 91Z"/>
      </g>
    </g>
    <g id="cp_3_g-3_4g24ak1a449om-fill" stroke="none" fill="#f366bb">
      <g>
        <path d="M 55 187C 61.6274 187 67 181.6274 67 175C 67 168.3726 61.6274 163 55 163C 48.3726 163 43 168.3726 43 175C 43 181.6274 48.3726 187 55 187ZM 55 181C 58.3137 181 61 178.3137 61 175C 61 171.6863 58.3137 169 55 169C 51.6863 169 49 171.6863 49 175C 49 178.3137 51.6863 181 55 181Z"/>
      </g>
    </g>
    <g id="cp_3_g-3_4g24ak1a449om-stroke" fill="none" stroke-linecap="round" stroke-linejoin="round" stroke-miterlimit="4" stroke="#2c2c2c" stroke-width="2">
      <g>
        <path d="M 55 187C 61.6274 187 67 181.6274 67 175C 67 168.3726 61.6274 163 55 163C 48.3726 163 43 168.3726 43 175C 43 181.6274 48.3726 187 55 187ZM 55 181C 58.3137 181 61 178.3137 61 175C 61 171.6863 58.3137 169 55 169C 51.6863 169 49 171.6863 49 175C 49 178.3137 51.6863 181 55 181Z"/>
      </g>
    </g>
  </g>
  <g id="g-root-ic_forr_zjf48s1a44b2i-stroke-fill" data-item-order="-2304" transform="translate(296.1310119628906, 386.0000305175781)">
    <g id="ic_forr_zjf48s1a44b2i-fill" stroke="none" fill="#f79438">
      <g>
        <path d="M 55.999969 56.459969L 35.039986 10.66C 34.860542 10.248335 34.448875 9.987085 33.999985 10C 33.559834 10.000463 33.160763 10.258686 32.979984 10.66L 11.999999 56.459969C 11.81825 56.78281 11.81825 57.17712 11.999999 57.499966C 12.199962 57.814095 12.547642 58.003052 12.919998 57.999969L 31.279987 57.999969L 31.279987 48.099972C 31.28142 47.910969 31.171806 47.738724 30.999985 47.659973L 26.239988 45.219978C 25.494576 44.855377 25.185789 43.955585 25.550247 43.210102C 25.914705 42.464619 26.814436 42.155659 27.559988 42.519978L 30.719986 44.079979C 30.867304 44.170074 31.05267 44.170074 31.199987 44.079979C 31.356672 44.000454 31.451023 43.835339 31.439987 43.659977L 31.439987 39.659981C 31.439987 39.107697 31.887699 38.659981 32.439987 38.659981L 35.619984 38.659981C 36.172268 38.659981 36.619984 39.107697 36.619984 39.659981L 36.619984 41.819981C 36.615391 41.99905 36.70694 42.166889 36.859982 42.259975C 37.017395 42.338512 37.202568 42.338512 37.359982 42.259975L 38.95998 41.379978C 39.680275 41.017979 40.557899 41.281265 40.95998 41.97998C 41.332977 42.699276 41.067326 43.584782 40.359982 43.979977L 36.839981 45.979977C 36.679241 46.067924 36.579483 46.236752 36.579983 46.419975L 36.579983 48.519974C 36.57843 48.692997 36.670128 48.853462 36.819981 48.939972C 36.9673 49.030067 37.152664 49.030067 37.29998 48.939972L 42.719978 46.179977C 43.454975 45.816288 44.345806 46.11026 44.719978 46.839977C 44.900223 47.192276 44.931873 47.602085 44.807861 47.977875C 44.683849 48.353672 44.414501 48.66415 44.059978 48.839973L 36.819981 52.539974C 36.659241 52.627922 36.559483 52.796745 36.559982 52.979973L 36.559982 57.999969L 54.85997 57.999969C 55.232327 58.003052 55.580006 57.814095 55.779972 57.499969C 56.034389 57.217781 56.11832 56.821007 55.999966 56.459965Z"/>
      </g>
    </g>
  </g>
  <g id="g-root-ic_smok_1q7l35o1a45ngo-stroke-fill" data-item-order="-2304" transform="translate(116.1309814453125, 146)">
    <g id="ic_smok_1q7l35o1a45ngo-fill" stroke="none" fill="#fb6762">
      <g>
        <path d="M 56.419998 56.099998C 50.779999 53.48 41.82 48.360001 41.059998 41.879997C 40.990669 41.379456 40.565296 41.005127 40.059998 41L 28 41C 27.494703 41.005127 27.069332 41.379456 27 41.879997C 26.24 48.360001 17.299999 53.48 11.64 56.099998C 11.230247 56.29554 11.003647 56.74258 11.088167 57.188663C 11.172688 57.634747 11.547117 57.967907 12 58L 56 58C 56.463211 57.992756 56.860798 57.668312 56.960793 57.215965C 57.060783 56.763618 56.836998 56.301815 56.419998 56.099998ZM 12.64 28.4C 13.798212 29.025749 15.156473 29.169481 16.42 28.800001C 16.619797 28.719812 16.848276 28.795971 16.959999 28.98C 19.42 32.34 25.68 32.620003 28.84 31.200001C 28.968786 31.150757 29.111214 31.150757 29.24 31.200001C 29.624739 31.346556 30.018976 31.466833 30.42 31.560001C 30.573259 31.602718 30.698528 31.713249 30.759998 31.859999C 30.919619 32.218784 31.001413 32.607315 31 33L 31 36C 31 36.552284 31.447716 37 32 37L 36 37C 36.552284 37 37 36.552284 37 36L 37 33C 36.998589 32.607315 37.080383 32.218784 37.239998 31.860001C 37.301468 31.713249 37.426739 31.602718 37.579998 31.559999C 37.981026 31.466833 38.375267 31.346556 38.760002 31.200001C 38.888786 31.150757 39.031212 31.150757 39.16 31.200001C 42.32 32.620003 48.580002 32.32 51.040001 28.98C 51.161167 28.808231 51.380001 28.735287 51.579998 28.799999C 52.843529 29.169481 54.20179 29.025749 55.360001 28.4C 56.998985 27.548164 58.019669 25.847027 58.000004 24C 57.988987 21.246391 55.753632 19.019978 53 19.02C 50.923058 19.024172 49.116257 20.443211 48.619999 22.459999C 48.422707 23.257896 47.620041 23.748417 46.82 23.560001C 46.019341 23.353508 45.530605 22.544876 45.719997 21.74C 46.148026 19.934349 47.240578 18.35622 48.779999 17.32C 48.928627 17.224915 49.013107 17.055954 48.999996 16.879999C 48.997547 16.702726 48.897579 16.541241 48.739998 16.459999C 47.439056 15.783228 46.005188 15.400864 44.540001 15.34C 44.378094 15.338821 44.227695 15.256102 44.139999 15.12C 41.806831 11.850611 38.016037 9.936519 34 10C 29.983965 9.936519 26.193165 11.850611 23.860001 15.12C 23.772305 15.256102 23.621902 15.338821 23.459999 15.34C 21.994814 15.400864 20.560944 15.783228 19.26 16.459999C 19.102419 16.541241 19.002451 16.702726 19 16.879999C 18.976837 17.057791 19.063869 17.231855 19.220001 17.32C 20.759424 18.35622 21.851976 19.934349 22.279999 21.74C 22.465469 22.2768 22.331861 22.872313 21.934845 23.278427C 21.537827 23.684542 20.945492 23.831604 20.404631 23.658342C 19.863768 23.485081 19.46714 23.021212 19.380001 22.459999C 18.883743 20.443211 17.076942 19.024172 15 19.02C 13.67576 19.014683 12.403934 19.53701 11.465672 20.471519C 10.527411 21.406027 9.99999 22.675751 10 24C 9.980335 25.847027 11.001017 27.548164 12.64 28.400002Z"/>
      </g>
    </g>
  </g>
  <g id="g-root-ic_ufo_1cxdiyk1a474lh-stroke-fill" data-item-order="-2304" transform="translate(476.1310119628906, 146)">
    <g id="ic_ufo_1cxdiyk1a474lh-fill" stroke="none" fill="#f366bb">
      <g>
        <path d="M 50.779972 39.47998C 50.492653 38.408707 49.391369 37.773121 48.320053 38.060276C 47.248737 38.347435 46.612984 39.44862 46.899975 40.519978L 51.139973 56.51997C 51.305813 57.231792 51.846741 57.796467 52.550789 57.992718C 53.254833 58.188969 54.009865 57.985542 54.520016 57.462147C 55.03017 56.938755 55.214191 56.178761 54.999969 55.479969ZM 19.819994 37.999981C 18.754385 37.720531 17.663439 38.355427 17.379995 39.419979L 13.139998 55.419968C 12.925776 56.118759 13.109797 56.878754 13.61995 57.402149C 14.130103 57.925541 14.885136 58.128971 15.589183 57.93272C 16.29323 57.736469 16.834156 57.171795 16.999996 56.459969L 21.239992 40.45998C 21.380274 39.945377 21.309191 39.396061 21.04254 38.93412C 20.77589 38.472179 20.335768 38.135883 19.819994 37.999981ZM 37.999981 49.859974C 39.203434 49.748356 40.123878 48.738594 40.123878 47.529976C 40.123878 46.321358 39.203434 45.311592 37.999981 45.199978L 31.079987 45.199978C 29.876532 45.311592 28.956087 46.321358 28.956087 47.529976C 28.956087 48.738594 29.876532 49.748356 31.079987 49.859974L 32.239986 49.859974L 32.239986 50.179974L 29.199987 54.299969C 28.437836 55.332745 28.657217 56.787819 29.689987 57.549973C 30.722759 58.312122 32.177834 58.092743 32.939987 57.059971L 34.599983 54.819969L 36.199982 57.079971C 36.978706 58.129314 38.460644 58.348694 39.509983 57.569973C 40.559322 56.791248 40.778702 55.309311 39.999981 54.259972L 36.999981 50.159973L 36.999981 49.859974ZM 37.999981 40.239979C 38.008083 38.822575 37.160488 37.540222 35.853294 36.99218C 34.546097 36.444141 33.037415 36.738628 32.032272 37.738029C 31.027128 38.737431 30.723999 40.244396 31.26454 41.554714C 31.80508 42.865028 33.082554 43.719955 34.499985 43.719978C 35.426395 43.7253 36.316692 43.361012 36.973652 42.707806C 37.630611 42.054604 37.999996 41.166409 37.999981 40.239979ZM 56.959969 28.999987C 57.256554 29.003063 57.540344 28.879362 57.739967 28.659986C 57.943382 28.447094 58.0326 28.149696 57.979969 27.859989C 57.289898 23.843998 53.774242 20.931271 49.699974 20.999994L 18.299995 20.999992C 14.218209 20.921286 10.691197 23.836382 10 27.859989C 9.947369 28.149696 10.036588 28.447094 10.24 28.659988C 10.439621 28.879362 10.723412 29.003063 11.02 28.999985L 13.279998 28.999987C 13.484313 29.00264 13.666455 29.129347 13.739998 29.319986C 13.899545 29.722363 14.079784 30.116222 14.279998 30.499989C 16.065365 33.888157 19.580208 36.009007 23.40999 36.009007C 27.239775 36.009007 30.754618 33.888157 32.539986 30.499987C 32.7402 30.116222 32.920441 29.722363 33.079987 29.319988C 33.148682 29.125599 33.333839 28.996794 33.539982 28.999985L 34.459984 28.999987C 34.666126 28.996794 34.851284 29.125599 34.919983 29.319986C 35.079533 29.722363 35.259773 30.116222 35.459984 30.499989C 37.24535 33.888157 40.760193 36.009007 44.589977 36.009007C 48.419758 36.009007 51.934605 33.888157 53.719971 30.499987C 53.920185 30.116222 54.100426 29.722363 54.259972 29.319988C 54.328667 29.125599 54.513821 28.996794 54.719967 28.999985ZM 23.39999 31.999985C 21.569778 31.98328 19.832556 31.190992 18.619995 29.819986C 18.522772 29.660286 18.522772 29.459686 18.619995 29.299986C 18.686573 29.141239 18.83013 29.027905 18.999994 28.999987L 27.799988 28.999987C 27.999432 28.999292 28.180212 29.117193 28.259989 29.299986C 28.367357 29.456694 28.367357 29.66328 28.259989 29.819986C 27.033701 31.218298 25.259792 32.014 23.399992 31.999985ZM 44.599976 31.999985C 42.768078 31.990917 41.027882 31.197273 39.819981 29.819986C 39.712612 29.66328 39.712612 29.456694 39.819981 29.299986C 39.899757 29.117193 40.080536 28.999292 40.27998 28.999987L 49.079975 28.999987C 49.272125 29.007065 49.443192 29.123701 49.519974 29.299986C 49.627342 29.456694 49.627342 29.66328 49.519974 29.819986C 48.279999 31.234331 46.480644 32.031609 44.599979 31.999985ZM 33.999985 10C 28.477444 9.948547 23.296263 12.666789 20.199993 17.239996C 20.121458 17.397409 20.121458 17.582581 20.199993 17.739994C 20.291012 17.89773 20.457916 17.996355 20.639992 17.999994L 47.499977 17.999994C 47.703228 18.018984 47.898788 17.917292 47.999969 17.739994C 48.078506 17.582581 48.078506 17.397409 47.999973 17.239996C 44.864639 12.606875 39.593002 9.880687 33.999981 10Z"/>
      </g>
    </g>
  </g>
  <g id="g-root-tx_thetungu_8m641a44agx-stroke-fill" data-item-order="0" transform="translate(86, 50)">
    <g id="tx_thetungu_8m641a44agx-fill" stroke="none" fill="#f4f4f4">
      <g>
        <text style="font: 20px Roboto, sans-serif; white-space: pre;" font-size="20px" font-family="Roboto, sans-serif">
          <tspan x="16.98" y="34" dominant-baseline="ideographic">The Tunguska Event: A Timeline of Cosmic Mystery</tspan>
        </text>
      </g>
    </g>
  </g>
  <g id="g-root-tx_1927_1lpw5rw1a45p8k-stroke-fill" data-item-order="0" transform="translate(344, 134)">
    <g id="tx_1927_1lpw5rw1a45p8k-fill" stroke="none" fill="#f79438">
      <g>
        <text style="font: bold 20px Roboto, sans-serif; white-space: pre;" font-weight="bold" font-size="20px" font-family="Roboto, sans-serif">
          <tspan x="17.05" y="34" dominant-baseline="ideographic">1927</tspan>
        </text>
      </g>
    </g>
  </g>
  <g id="g-root-tx_leonidku_1cu95j01a45q19-stroke-fill" data-item-order="0" transform="translate(224, 170)">
    <g id="tx_leonidku_1cu95j01a45q19-fill" stroke="none" fill="#fff0e2">
      <g>
        <text style="font: 15px Roboto, sans-serif; white-space: pre;" font-size="15px" font-family="Roboto, sans-serif">
          <tspan x="17.02" y="28" dominant-baseline="ideographic">Leonid Kulik's expedition </tspan>
          <tspan x="44.12" y="46" dominant-baseline="ideographic">to Tunguska site</tspan>
        </text>
      </g>
    </g>
  </g>
  <g id="g-root-tx_june3019_v3lm4c1a45p8m-stroke-fill" data-item-order="0" transform="translate(92, 374)">
    <g id="tx_june3019_v3lm4c1a45p8m-fill" stroke="none" fill="#fb6762">
      <g>
        <text style="font: bold 20px Roboto, sans-serif; white-space: pre;" font-weight="bold" font-size="20px" font-family="Roboto, sans-serif">
          <tspan x="11.95" y="34" dominant-baseline="ideographic">June 30, 1908</tspan>
        </text>
      </g>
    </g>
  </g>
  <g id="g-root-tx_enormous_8x4kl81a45ogf-stroke-fill" data-item-order="0" transform="translate(80, 410)">
    <g id="tx_enormous_8x4kl81a45ogf-fill" stroke="none" fill="#ffe9e8">
      <g>
        <text style="font: 15px Roboto, sans-serif; white-space: pre;" font-size="15px" font-family="Roboto, sans-serif">
          <tspan x="12.08" y="31" dominant-baseline="ideographic">Enormous explosion </tspan>
          <tspan x="12.05" y="49" dominant-baseline="ideographic">near Podkamennaya </tspan>
          <tspan x="29.23" y="67" dominant-baseline="ideographic">Tunguska River</tspan>
        </text>
      </g>
    </g>
  </g>
  <g id="g-root-tx_2004_hu0j0c1a4737n-stroke-fill" data-item-order="0" transform="translate(524, 374)">
    <g id="tx_2004_hu0j0c1a4737n-fill" stroke="none" fill="#f366bb">
      <g>
        <text style="font: bold 20px Roboto, sans-serif; white-space: pre;" font-weight="bold" font-size="20px" font-family="Roboto, sans-serif">
          <tspan x="17.05" y="34" dominant-baseline="ideographic">2004</tspan>
        </text>
      </g>
    </g>
  </g>
  <g id="g-root-tx_claimsof_4j6hq41a471ms-stroke-fill" data-item-order="0" transform="translate(404, 410)">
    <g id="tx_claimsof_4j6hq41a471ms-fill" stroke="none" fill="#ffe8f6">
      <g>
        <text style="font: 15px Roboto, sans-serif; white-space: pre;" font-size="15px" font-family="Roboto, sans-serif">
          <tspan x="49.38" y="31" dominant-baseline="ideographic">Claims of alien </tspan>
          <tspan x="17.61" y="49" dominant-baseline="ideographic">spacecraft fragments by </tspan>
          <tspan x="62.28" y="67" dominant-baseline="ideographic">Yuri Lavbin</tspan>
        </text>
      </g>
    </g>
  </g>
</svg>
