<svg width="624" height="516" viewBox="0 0 624 516" style="fill:none;stroke:none;fill-rule:evenodd;clip-rule:evenodd;stroke-linecap:round;stroke-linejoin:round;stroke-miterlimit:1.5;" version="1.1" xmlns="http://www.w3.org/2000/svg" xmlns:xlink="http://www.w3.org/1999/xlink"><style class="text-font-style fontImports" data-font-family="Roboto">@import url('https://fonts.googleapis.com/css2?family=Roboto:wght@400;700&amp;display=block');</style><g id="g-root-tf_18hkq4c1bi0u0w-stroke-fill" data-item-order="-295200" transform="translate(12, 12)"></g><g id="g-root-sy_4_cu_590zg1bigbgg-stroke-fill" data-item-order="-105977" transform="translate(133.95700073242188, 231)"><g id="sy_4_cu_590zg1bigbgg-stroke" fill="none" stroke-linecap="round" stroke-linejoin="round" stroke-miterlimit="4" stroke="#f4f4f4" stroke-width="2"><g><path d="M 340.042999 93C 343.356999 93 346.042999 90.314 346.042999 87C 346.042999 83.686 343.356999 81 340.042999 81C 336.728999 81 334.042999 83.686 334.042999 87C 334.042999 90.314 336.728999 93 340.042999 93ZM 16.021999 45C 19.346999 45 22.042999 42.314 22.042999 39C 22.042999 35.686 19.346999 33 16.021999 33C 12.695999 33 9.999999 35.686 9.999999 39C 9.999999 42.314 12.695999 45 16.021999 45ZM 340.042999 81L 340.042999 57.75M 16.042999 10L 16.042999 33M 195.561999 65.593L 334.144999 86.11M 162.040999 60.634L 22.027999 39.904"></path></g></g><g id="sy_4_cu_590zg1bigbgg-stroke-overlay" fill="none" stroke-linecap="round" stroke-linejoin="round" stroke-miterlimit="4" stroke="#3131311a" stroke-width="2" stroke-dasharray="4,6"><animate attributeName="stroke-dashoffset" values="30;0" dur="1s" repeatCount="indefinite" begin="0"></animate><g><path d="M 340.042999 93C 343.356999 93 346.042999 90.314 346.042999 87C 346.042999 83.686 343.356999 81 340.042999 81C 336.728999 81 334.042999 83.686 334.042999 87C 334.042999 90.314 336.728999 93 340.042999 93ZM 16.021999 45C 19.346999 45 22.042999 42.314 22.042999 39C 22.042999 35.686 19.346999 33 16.021999 33C 12.695999 33 9.999999 35.686 9.999999 39C 9.999999 42.314 12.695999 45 16.021999 45ZM 340.042999 81L 340.042999 57.75M 16.042999 10L 16.042999 33M 195.561999 65.593L 334.144999 86.11M 162.040999 60.634L 22.027999 39.904"></path></g></g></g><g id="g-root-sy_3_Exclude_1qaq2po1bigc21-stroke-fill" data-item-order="-105974" transform="translate(255.05589294433594, 268)"><g id="sy_3_Exclude_1qaq2po1bigc21-fill" stroke="none" fill="none"><g><path d="M 56.944107 10C 49.471107 10 43.195107 15.122 41.436107 22.047L 10.134107 124.12C 9.542107 126.049 10.984107 128 13.002107 128L 100.886107 128C 102.903107 128 104.346107 126.049 103.754107 124.12L 72.454107 22.054C 70.696107 15.126 64.419107 10 56.944107 10ZM 56.944107 33C 60.810107 33 63.944107 29.866 63.944107 26C 63.944107 22.134 60.810107 19 56.944107 19C 53.078107 19 49.944107 22.134 49.944107 26C 49.944107 29.866 53.078107 33 56.944107 33Z"></path></g></g><g id="sy_3_Exclude_1qaq2po1bigc21-stroke" fill="none" stroke-linecap="round" stroke-linejoin="round" stroke-miterlimit="4" stroke="#f4f4f4" stroke-width="2"><g><path d="M 56.944107 10C 49.471107 10 43.195107 15.122 41.436107 22.047L 10.134107 124.12C 9.542107 126.049 10.984107 128 13.002107 128L 100.886107 128C 102.903107 128 104.346107 126.049 103.754107 124.12L 72.454107 22.054C 70.696107 15.126 64.419107 10 56.944107 10ZM 56.944107 33C 60.810107 33 63.944107 29.866 63.944107 26C 63.944107 22.134 60.810107 19 56.944107 19C 53.078107 19 49.944107 22.134 49.944107 26C 49.944107 29.866 53.078107 33 56.944107 33Z"></path></g></g><g id="sy_3_Exclude_1qaq2po1bigc21-stroke-overlay" fill="none" stroke-linecap="round" stroke-linejoin="round" stroke-miterlimit="4" stroke="#3131311a" stroke-width="2" stroke-dasharray="4,6"><animate attributeName="stroke-dashoffset" values="30;0" dur="1s" repeatCount="indefinite" begin="0"></animate><g><path d="M 56.944107 10C 49.471107 10 43.195107 15.122 41.436107 22.047L 10.134107 124.12C 9.542107 126.049 10.984107 128 13.002107 128L 100.886107 128C 102.903107 128 104.346107 126.049 103.754107 124.12L 72.454107 22.054C 70.696107 15.126 64.419107 10 56.944107 10ZM 56.944107 33C 60.810107 33 63.944107 29.866 63.944107 26C 63.944107 22.134 60.810107 19 56.944107 19C 53.078107 19 49.944107 22.134 49.944107 26C 49.944107 29.866 53.078107 33 56.944107 33Z"></path></g></g></g><g id="g-root-sy_2_right-bucket_1lvj1oc1big9oi-stroke-fill" data-item-order="-105970" transform="translate(350, 242)"><g id="sy_2_right-bucket_1lvj1oc1big9oi-fill" stroke="none" fill="none"><g><path d="M 11.081 15.729C 10.338 14.904 10 13.826 10 12.716L 10 12.716C 10 11.216 11.216 10 12.716 10L 235.284 10C 236.784 10 238 11.216 238 12.716L 238 12.716C 238 13.826 237.662 14.904 236.919 15.729C 231.551 21.692 204.717 46 124 46C 43.283 46 16.449 21.692 11.081 15.729Z"></path></g></g><g id="sy_2_right-bucket_1lvj1oc1big9oi-stroke" fill="none" stroke-linecap="round" stroke-linejoin="round" stroke-miterlimit="4" stroke="#fb6762" stroke-width="2"><g><path d="M 11.081 15.729C 10.338 14.904 10 13.826 10 12.716L 10 12.716C 10 11.216 11.216 10 12.716 10L 235.284 10C 236.784 10 238 11.216 238 12.716L 238 12.716C 238 13.826 237.662 14.904 236.919 15.729C 231.551 21.692 204.717 46 124 46C 43.283 46 16.449 21.692 11.081 15.729Z"></path></g></g><g id="sy_2_right-bucket_1lvj1oc1big9oi-stroke-overlay" fill="none" stroke-linecap="round" stroke-linejoin="round" stroke-miterlimit="4" stroke="#f9080063" stroke-width="2" stroke-dasharray="4,6"><animate attributeName="stroke-dashoffset" values="30;0" dur="1s" repeatCount="indefinite" begin="0"></animate><g><path d="M 11.081 15.729C 10.338 14.904 10 13.826 10 12.716L 10 12.716C 10 11.216 11.216 10 12.716 10L 235.284 10C 236.784 10 238 11.216 238 12.716L 238 12.716C 238 13.826 237.662 14.904 236.919 15.729C 231.551 21.692 204.717 46 124 46C 43.283 46 16.449 21.692 11.081 15.729Z"></path></g></g></g><g id="g-root-sy_1_left-bucket_1czw1fg1bigah7-stroke-fill" data-item-order="-105966" transform="translate(26, 194)"><g id="sy_1_left-bucket_1czw1fg1bigah7-fill" stroke="none" fill="none"><g><path d="M 11.0812 15.729C 10.3384 14.904 10 13.826 10 12.716L 10 12.716C 10 11.216 11.2158 10 12.7157 10L 235.284 10C 236.784 10 238 11.216 238 12.716L 238 12.716C 238 13.826 237.662 14.904 236.919 15.729C 231.551 21.692 204.717 46 124 46C 43.2826 46 16.4488 21.692 11.0812 15.729Z"></path></g></g><g id="sy_1_left-bucket_1czw1fg1bigah7-stroke" fill="none" stroke-linecap="round" stroke-linejoin="round" stroke-miterlimit="4" stroke="#43dd93" stroke-width="2"><g><path d="M 11.0812 15.729C 10.3384 14.904 10 13.826 10 12.716L 10 12.716C 10 11.216 11.2158 10 12.7157 10L 235.284 10C 236.784 10 238 11.216 238 12.716L 238 12.716C 238 13.826 237.662 14.904 236.919 15.729C 231.551 21.692 204.717 46 124 46C 43.2826 46 16.4488 21.692 11.0812 15.729Z"></path></g></g><g id="sy_1_left-bucket_1czw1fg1bigah7-stroke-overlay" fill="none" stroke-linecap="round" stroke-linejoin="round" stroke-miterlimit="4" stroke="#00c5676e" stroke-width="2" stroke-dasharray="4,6"><animate attributeName="stroke-dashoffset" values="30;0" dur="1s" repeatCount="indefinite" begin="0"></animate><g><path d="M 11.0812 15.729C 10.3384 14.904 10 13.826 10 12.716L 10 12.716C 10 11.216 11.2158 10 12.7157 10L 235.284 10C 236.784 10 238 11.216 238 12.716L 238 12.716C 238 13.826 237.662 14.904 236.919 15.729C 231.551 21.692 204.717 46 124 46C 43.2826 46 16.4488 21.692 11.0812 15.729Z"></path></g></g></g><g id="g-root-ic_infe_1czw1fg1bigah8-stroke-fill" data-item-order="0" transform="translate(38, 134)"><g id="ic_infe_1czw1fg1bigah8-stroke" fill="none" stroke-linecap="round" stroke-linejoin="round" stroke-miterlimit="4" stroke="#f4f4f4" stroke-width="2"><g><path d="M 42.089199 54.676601C 49.000599 54.676601 54.603401 49.073799 54.603401 42.162399C 54.603401 35.250801 49.000599 29.648081 42.089199 29.648081C 35.177799 29.648081 29.574961 35.250801 29.574961 42.162399C 29.574961 49.073799 35.177799 54.676601 42.089199 54.676601ZM 10 10M 50.932201 51.005798L 56.688599 56.762402M 42.089802 43.0802C 41.582802 43.0802 41.171799 42.669201 41.171799 42.162399C 41.171799 41.655399 41.582802 41.244598 42.089802 41.244598M 42.090199 43.0802C 42.597198 43.0802 43.007999 42.669201 43.007999 42.162399C 43.007999 41.655399 42.597198 41.244598 42.090199 41.244598M 34.7062 43.0802C 34.1992 43.0802 33.788399 42.669201 33.788399 42.162399C 33.788399 41.655399 34.1992 41.244598 34.7062 41.244598M 34.7066 43.0802C 35.2136 43.0802 35.624599 42.669201 35.624599 42.162399C 35.624599 41.655399 35.2136 41.244598 34.7066 41.244598M 49.473202 43.0802C 48.9664 43.0802 48.555401 42.669201 48.555401 42.162399C 48.555401 41.655399 48.9664 41.244598 49.473202 41.244598M 49.473801 43.0802C 49.980598 43.0802 50.391602 42.669201 50.391602 42.162399C 50.391602 41.655399 49.980598 41.244598 49.473801 41.244598M 38.1362 48.6436C 37.6292 48.6436 37.218201 48.232601 37.218201 47.7258C 37.218201 47.2188 37.6292 46.8078 38.1362 46.8078M 38.135597 48.6436C 38.642601 48.6436 39.053398 48.232601 39.053398 47.7258C 39.053398 47.2188 38.642601 46.8078 38.135597 46.8078M 38.1362 37.5168C 37.6292 37.5168 37.218201 37.106003 37.218201 36.598999C 37.218201 36.091999 37.6292 35.681198 38.1362 35.681198M 38.135597 37.5168C 38.642601 37.5168 39.053398 37.106003 39.053398 36.598999C 39.053398 36.091999 38.642601 35.681198 38.135597 35.681198M 46.0424 48.6436C 45.5354 48.6436 45.124599 48.232601 45.124599 47.7258C 45.124599 47.2188 45.5354 46.8078 46.0424 46.8078M 46.042599 48.6436C 46.549599 48.6436 46.9604 48.232601 46.9604 47.7258C 46.9604 47.2188 46.549599 46.8078 46.042599 46.8078M 46.0424 37.5168C 45.5354 37.5168 45.124599 37.106003 45.124599 36.598999C 45.124599 36.091999 45.5354 35.681198 46.0424 35.681198M 46.042599 37.5168C 46.549599 37.5168 46.9604 37.106003 46.9604 36.598999C 46.9604 36.091999 46.549599 35.681198 46.042599 35.681198M 27.46516 28.744801C 32.110199 28.744801 35.875603 24.9793 35.875603 20.334301C 35.875603 15.68932 32.110199 11.923828 27.46516 11.923828C 22.820179 11.923828 19.05468 15.68932 19.05468 20.334301C 19.05468 24.9793 22.820179 28.744801 27.46516 28.744801ZM 28.7537 52.294201L 12.32618 52.294201L 12.32618 50.4702C 12.352961 47.905998 13.029221 45.3904 14.29178 43.158401C 15.55434 40.926399 17.36204 39.0508 19.54598 37.706802C 21.72994 36.362999 24.21888 35.594398 26.780359 35.473198"></path></g></g><g id="ic_infe_1czw1fg1bigah8-stroke-overlay" fill="none" stroke-linecap="round" stroke-linejoin="round" stroke-miterlimit="4" stroke="#3131311a" stroke-width="2" stroke-dasharray="4,6"><animate attributeName="stroke-dashoffset" values="30;0" dur="1s" repeatCount="indefinite" begin="0"></animate><g><path d="M 42.089199 54.676601C 49.000599 54.676601 54.603401 49.073799 54.603401 42.162399C 54.603401 35.250801 49.000599 29.648081 42.089199 29.648081C 35.177799 29.648081 29.574961 35.250801 29.574961 42.162399C 29.574961 49.073799 35.177799 54.676601 42.089199 54.676601ZM 10 10M 50.932201 51.005798L 56.688599 56.762402M 42.089802 43.0802C 41.582802 43.0802 41.171799 42.669201 41.171799 42.162399C 41.171799 41.655399 41.582802 41.244598 42.089802 41.244598M 42.090199 43.0802C 42.597198 43.0802 43.007999 42.669201 43.007999 42.162399C 43.007999 41.655399 42.597198 41.244598 42.090199 41.244598M 34.7062 43.0802C 34.1992 43.0802 33.788399 42.669201 33.788399 42.162399C 33.788399 41.655399 34.1992 41.244598 34.7062 41.244598M 34.7066 43.0802C 35.2136 43.0802 35.624599 42.669201 35.624599 42.162399C 35.624599 41.655399 35.2136 41.244598 34.7066 41.244598M 49.473202 43.0802C 48.9664 43.0802 48.555401 42.669201 48.555401 42.162399C 48.555401 41.655399 48.9664 41.244598 49.473202 41.244598M 49.473801 43.0802C 49.980598 43.0802 50.391602 42.669201 50.391602 42.162399C 50.391602 41.655399 49.980598 41.244598 49.473801 41.244598M 38.1362 48.6436C 37.6292 48.6436 37.218201 48.232601 37.218201 47.7258C 37.218201 47.2188 37.6292 46.8078 38.1362 46.8078M 38.135597 48.6436C 38.642601 48.6436 39.053398 48.232601 39.053398 47.7258C 39.053398 47.2188 38.642601 46.8078 38.135597 46.8078M 38.1362 37.5168C 37.6292 37.5168 37.218201 37.106003 37.218201 36.598999C 37.218201 36.091999 37.6292 35.681198 38.1362 35.681198M 38.135597 37.5168C 38.642601 37.5168 39.053398 37.106003 39.053398 36.598999C 39.053398 36.091999 38.642601 35.681198 38.135597 35.681198M 46.0424 48.6436C 45.5354 48.6436 45.124599 48.232601 45.124599 47.7258C 45.124599 47.2188 45.5354 46.8078 46.0424 46.8078M 46.042599 48.6436C 46.549599 48.6436 46.9604 48.232601 46.9604 47.7258C 46.9604 47.2188 46.549599 46.8078 46.042599 46.8078M 46.0424 37.5168C 45.5354 37.5168 45.124599 37.106003 45.124599 36.598999C 45.124599 36.091999 45.5354 35.681198 46.0424 35.681198M 46.042599 37.5168C 46.549599 37.5168 46.9604 37.106003 46.9604 36.598999C 46.9604 36.091999 46.549599 35.681198 46.042599 35.681198M 27.46516 28.744801C 32.110199 28.744801 35.875603 24.9793 35.875603 20.334301C 35.875603 15.68932 32.110199 11.923828 27.46516 11.923828C 22.820179 11.923828 19.05468 15.68932 19.05468 20.334301C 19.05468 24.9793 22.820179 28.744801 27.46516 28.744801ZM 28.7537 52.294201L 12.32618 52.294201L 12.32618 50.4702C 12.352961 47.905998 13.029221 45.3904 14.29178 43.158401C 15.55434 40.926399 17.36204 39.0508 19.54598 37.706802C 21.72994 36.362999 24.21888 35.594398 26.780359 35.473198"></path></g></g></g><g id="g-root-ic_real_zqaybg1bihog6-stroke-fill" data-item-order="0" transform="translate(38, 62)"><g id="ic_real_zqaybg1bihog6-stroke" fill="none" stroke-linecap="round" stroke-linejoin="round" stroke-miterlimit="4" stroke="#f4f4f4" stroke-width="2"><g><path d="M 47.5 43.5C 51.366001 43.5 54.5 40.365997 54.5 36.5C 54.5 32.634003 51.366001 29.499941 47.5 29.499941C 43.633999 29.499941 40.5 32.634003 40.5 36.5C 40.5 40.365997 43.633999 43.5 47.5 43.5ZM 56.5 56.5C 56.5 51.5 52.5 47.5 47.5 47.5C 45.700001 47.5 43.900002 48.099998 42.5 48.900002C 35.700001 46.700001 32.099998 41.099998 31.9 41.099998C 30.9 39.5 28.699961 38.900002 27.09996 39.900002C 25.49996 40.900002 24.89996 43.099998 25.89996 44.700001C 26.09996 45.099998 30.299999 51.5 38.5 54.900002C 38.5 55.299999 38.299999 55.900002 38.299999 56.299999M 26.92968 18.9L 34.327 18.9L 34.327 14.5L 39.327 14.5M 42.327 17.5C 43.983799 17.5 45.327 16.15686 45.327 14.5C 45.327 12.84314 43.983799 11.5 42.327 11.5C 40.669998 11.5 39.327 12.84314 39.327 14.5C 39.327 16.15686 40.669998 17.5 42.327 17.5ZM 34.327 18.8999L 34.327 21.8999M 15.50006 33.447601L 15.50006 39M 15.50006 45C 17.156919 45 18.500061 43.656799 18.500061 42C 18.500061 40.343201 17.156919 39 15.50006 39C 13.8432 39 12.50006 40.343201 12.50006 42C 12.50006 43.656799 13.8432 45 15.50006 45ZM 26.93088 33.6712C 26.93088 34.3834 26.456079 35.0956 25.981281 35.5704C 25.2691 36.0452 24.5569 36.0452 23.8447 36.0452L 13.16178 32.7216C 12.2122 32.4842 11.5 31.534599 11.5 30.347601L 11.5 17.29068C 11.5 16.341101 12.2122 15.3915 13.16178 14.9167L 23.8447 11.593132C 24.5569 11.355734 25.2691 11.593134 25.981281 12.06792C 26.69348 12.54272 26.93088 13.25492 26.93088 13.96712L 26.93088 33.6712Z"></path></g></g><g id="ic_real_zqaybg1bihog6-stroke-overlay" fill="none" stroke-linecap="round" stroke-linejoin="round" stroke-miterlimit="4" stroke="#3131311a" stroke-width="2" stroke-dasharray="4,6"><animate attributeName="stroke-dashoffset" values="30;0" dur="1s" repeatCount="indefinite" begin="0"></animate><g><path d="M 47.5 43.5C 51.366001 43.5 54.5 40.365997 54.5 36.5C 54.5 32.634003 51.366001 29.499941 47.5 29.499941C 43.633999 29.499941 40.5 32.634003 40.5 36.5C 40.5 40.365997 43.633999 43.5 47.5 43.5ZM 56.5 56.5C 56.5 51.5 52.5 47.5 47.5 47.5C 45.700001 47.5 43.900002 48.099998 42.5 48.900002C 35.700001 46.700001 32.099998 41.099998 31.9 41.099998C 30.9 39.5 28.699961 38.900002 27.09996 39.900002C 25.49996 40.900002 24.89996 43.099998 25.89996 44.700001C 26.09996 45.099998 30.299999 51.5 38.5 54.900002C 38.5 55.299999 38.299999 55.900002 38.299999 56.299999M 26.92968 18.9L 34.327 18.9L 34.327 14.5L 39.327 14.5M 42.327 17.5C 43.983799 17.5 45.327 16.15686 45.327 14.5C 45.327 12.84314 43.983799 11.5 42.327 11.5C 40.669998 11.5 39.327 12.84314 39.327 14.5C 39.327 16.15686 40.669998 17.5 42.327 17.5ZM 34.327 18.8999L 34.327 21.8999M 15.50006 33.447601L 15.50006 39M 15.50006 45C 17.156919 45 18.500061 43.656799 18.500061 42C 18.500061 40.343201 17.156919 39 15.50006 39C 13.8432 39 12.50006 40.343201 12.50006 42C 12.50006 43.656799 13.8432 45 15.50006 45ZM 26.93088 33.6712C 26.93088 34.3834 26.456079 35.0956 25.981281 35.5704C 25.2691 36.0452 24.5569 36.0452 23.8447 36.0452L 13.16178 32.7216C 12.2122 32.4842 11.5 31.534599 11.5 30.347601L 11.5 17.29068C 11.5 16.341101 12.2122 15.3915 13.16178 14.9167L 23.8447 11.593132C 24.5569 11.355734 25.2691 11.593134 25.981281 12.06792C 26.69348 12.54272 26.93088 13.25492 26.93088 13.96712L 26.93088 33.6712Z"></path></g></g></g><g id="g-root-ic_ufo_4mbha41bij3lz-stroke-fill" data-item-order="0" transform="translate(362, 182)"><g id="ic_ufo_4mbha41bij3lz-stroke" fill="none" stroke-linecap="round" stroke-linejoin="round" stroke-miterlimit="4" stroke="#f4f4f4" stroke-width="2"><g><path d="M 49 22.5C 52.977859 22.499041 56.352161 25.420879 56.919998 29.358C 56.961449 29.646814 56.874687 29.939325 56.682472 30.158836C 56.490257 30.378345 56.211758 30.502958 55.919998 30.5L 12.07 30.5C 11.778242 30.502958 11.499743 30.378345 11.307528 30.158836C 11.115312 29.939325 11.028553 29.646814 11.07 29.358C 11.638377 25.417118 15.018346 22.494064 19 22.5ZM 19 22.5C 19 17.5 25.716 11.5 34 11.5C 42.284 11.5 49 17.5 49 22.5M 47.77 39.5L 52.995998 56.5M 14.996 56.5L 20.232 39.5M 34.996002 49.5L 31.996 53.652M 37.996002 53.5L 34.996002 49.5M 31.996 46.5L 37.996002 46.5M 35 41.5C 35.552284 41.5 36 41.947716 36 42.5M 34 42.5C 34 41.947716 34.447716 41.5 35 41.5M 35 43.5C 34.447716 43.5 34 43.052284 34 42.5M 36 42.5C 36 43.052284 35.552284 43.5 35 43.5M 34.996002 49.5L 34.996002 46.5M 25 30.5C 25 33.261421 22.761425 35.5 20 35.5C 17.238577 35.5 15 33.261421 15 30.5M 39 30.5C 39 33.261421 36.761425 35.5 34 35.5C 31.238577 35.5 29 33.261421 29 30.5M 53 30.5C 53 33.261421 50.761425 35.5 48 35.5C 45.238575 35.5 43 33.261421 43 30.5"></path></g></g><g id="ic_ufo_4mbha41bij3lz-stroke-overlay" fill="none" stroke-linecap="round" stroke-linejoin="round" stroke-miterlimit="4" stroke="#3131311a" stroke-width="2" stroke-dasharray="4,6"><animate attributeName="stroke-dashoffset" values="30;0" dur="1s" repeatCount="indefinite" begin="0"></animate><g><path d="M 49 22.5C 52.977859 22.499041 56.352161 25.420879 56.919998 29.358C 56.961449 29.646814 56.874687 29.939325 56.682472 30.158836C 56.490257 30.378345 56.211758 30.502958 55.919998 30.5L 12.07 30.5C 11.778242 30.502958 11.499743 30.378345 11.307528 30.158836C 11.115312 29.939325 11.028553 29.646814 11.07 29.358C 11.638377 25.417118 15.018346 22.494064 19 22.5ZM 19 22.5C 19 17.5 25.716 11.5 34 11.5C 42.284 11.5 49 17.5 49 22.5M 47.77 39.5L 52.995998 56.5M 14.996 56.5L 20.232 39.5M 34.996002 49.5L 31.996 53.652M 37.996002 53.5L 34.996002 49.5M 31.996 46.5L 37.996002 46.5M 35 41.5C 35.552284 41.5 36 41.947716 36 42.5M 34 42.5C 34 41.947716 34.447716 41.5 35 41.5M 35 43.5C 34.447716 43.5 34 43.052284 34 42.5M 36 42.5C 36 43.052284 35.552284 43.5 35 43.5M 34.996002 49.5L 34.996002 46.5M 25 30.5C 25 33.261421 22.761425 35.5 20 35.5C 17.238577 35.5 15 33.261421 15 30.5M 39 30.5C 39 33.261421 36.761425 35.5 34 35.5C 31.238577 35.5 29 33.261421 29 30.5M 53 30.5C 53 33.261421 50.761425 35.5 48 35.5C 45.238575 35.5 43 33.261421 43 30.5"></path></g></g></g><g id="g-root-ic_1_146r0os1bhy2o8-stroke-fill" data-item-order="0" transform="translate(362, 110)"><g id="ic_1_146r0os1bhy2o8-stroke" fill="none" stroke-linecap="round" stroke-linejoin="round" stroke-miterlimit="4" stroke="#f4f4f4" stroke-width="2"><g><path d="M 34 56.52L 19.380001 51.759998C 18.557472 51.491806 18.000637 50.725147 18 49.860001L 18 34C 18.000471 33.359688 18.307503 32.758308 18.825863 32.382401C 19.344219 32.006493 20.01123 31.901503 20.619999 32.099998L 34 36.52ZM 34 36.52L 47.380001 32.16C 47.978844 31.964415 48.634834 32.062408 49.150375 32.424469C 49.665913 32.786522 49.980732 33.370323 50 34L 50 49.799999C 49.999363 50.66515 49.442528 51.431805 48.619999 51.700001L 34 56.52M 39 45.52L 46 43.52L 46 38.52L 39 40.52L 39 45.52ZM 19.18 21.08C 18.940832 20.723022 18.940832 20.256977 19.18 19.9C 20.58 17.880001 25.639999 11.48 34 11.48C 42.360001 11.48 47.419998 17.880001 48.82 20C 49.059166 20.356976 49.059166 20.823021 48.819996 21.18C 47.419998 23.18 42.360001 29.58 34 29.58C 25.639999 29.58 20.58 23.08 19.18 21.08ZM 41.080002 13.1L 27.139999 27.440001M 29 20.48C 29 17.718576 31.238577 15.48 34 15.48M 37.440002 16.84C 38.743973 18.081444 39.279816 19.928085 38.842892 21.674688C 38.405968 23.421291 37.063751 24.798122 35.328835 25.279366C 33.593918 25.760612 31.734236 25.27195 30.460001 24"></path></g></g><g id="ic_1_146r0os1bhy2o8-stroke-overlay" fill="none" stroke-linecap="round" stroke-linejoin="round" stroke-miterlimit="4" stroke="#3131311a" stroke-width="2" stroke-dasharray="4,6"><animate attributeName="stroke-dashoffset" values="30;0" dur="1s" repeatCount="indefinite" begin="0"></animate><g><path d="M 34 56.52L 19.380001 51.759998C 18.557472 51.491806 18.000637 50.725147 18 49.860001L 18 34C 18.000471 33.359688 18.307503 32.758308 18.825863 32.382401C 19.344219 32.006493 20.01123 31.901503 20.619999 32.099998L 34 36.52ZM 34 36.52L 47.380001 32.16C 47.978844 31.964415 48.634834 32.062408 49.150375 32.424469C 49.665913 32.786522 49.980732 33.370323 50 34L 50 49.799999C 49.999363 50.66515 49.442528 51.431805 48.619999 51.700001L 34 56.52M 39 45.52L 46 43.52L 46 38.52L 39 40.52L 39 45.52ZM 19.18 21.08C 18.940832 20.723022 18.940832 20.256977 19.18 19.9C 20.58 17.880001 25.639999 11.48 34 11.48C 42.360001 11.48 47.419998 17.880001 48.82 20C 49.059166 20.356976 49.059166 20.823021 48.819996 21.18C 47.419998 23.18 42.360001 29.58 34 29.58C 25.639999 29.58 20.58 23.08 19.18 21.08ZM 41.080002 13.1L 27.139999 27.440001M 29 20.48C 29 17.718576 31.238577 15.48 34 15.48M 37.440002 16.84C 38.743973 18.081444 39.279816 19.928085 38.842892 21.674688C 38.405968 23.421291 37.063751 24.798122 35.328835 25.279366C 33.593918 25.760612 31.734236 25.27195 30.460001 24"></path></g></g></g><g id="g-root-tx_evidence_vsjg1bi0v7l-stroke-fill" data-item-order="0" transform="translate(98, 134)"><g id="tx_evidence_vsjg1bi0v7l-fill" stroke="none" fill="#f4f4f4"><g><text style="font: 20px Roboto, sans-serif; white-space: pre;" font-size="20px" font-family="Roboto, sans-serif"><tspan x="12" y="34" dominant-baseline="ideographic">Evidence-Based </tspan><tspan x="12" y="58" dominant-baseline="ideographic">Approach</tspan></text></g></g><g id="tx_evidence_vsjg1bi0v7l-fill-overlay" stroke="none" fill="url(#crawlingPattern-0000001b)"><g><text style="font: 20px Roboto, sans-serif; white-space: pre;" font-size="20px" font-family="Roboto, sans-serif"><tspan x="12" y="34" dominant-baseline="ideographic">Evidence-Based </tspan><tspan x="12" y="58" dominant-baseline="ideographic">Approach</tspan></text></g></g></g><g id="g-root-tx_modernte_1lr5t8c1bi0tfm-stroke-fill" data-item-order="0" transform="translate(98, 50)"><g id="tx_modernte_1lr5t8c1bi0tfm-fill" stroke="none" fill="#f4f4f4"><g><text style="font: 20px Roboto, sans-serif; white-space: pre;" font-size="20px" font-family="Roboto, sans-serif"><tspan x="12" y="34" dominant-baseline="ideographic">Modern </tspan><tspan x="12" y="58" dominant-baseline="ideographic">Techniques </tspan><tspan x="12" y="82" dominant-baseline="ideographic">Utilization</tspan></text></g></g><g id="tx_modernte_1lr5t8c1bi0tfm-fill-overlay" stroke="none" fill="url(#crawlingPattern-0000001b)"><g><text style="font: 20px Roboto, sans-serif; white-space: pre;" font-size="20px" font-family="Roboto, sans-serif"><tspan x="12" y="34" dominant-baseline="ideographic">Modern </tspan><tspan x="12" y="58" dominant-baseline="ideographic">Techniques </tspan><tspan x="12" y="82" dominant-baseline="ideographic">Utilization</tspan></text></g></g></g><g id="g-root-tx_speculat_18fpav01bi0v0j-stroke-fill" data-item-order="0" transform="translate(422, 182)"><g id="tx_speculat_18fpav01bi0v0j-fill" stroke="none" fill="#f4f4f4"><g><text style="font: 20px Roboto, sans-serif; white-space: pre;" font-size="20px" font-family="Roboto, sans-serif"><tspan x="12" y="34" dominant-baseline="ideographic">Speculative </tspan><tspan x="12" y="58" dominant-baseline="ideographic">Narrative</tspan></text></g></g><g id="tx_speculat_18fpav01bi0v0j-fill-overlay" stroke="none" fill="url(#crawlingPattern-0000001b)"><g><text style="font: 20px Roboto, sans-serif; white-space: pre;" font-size="20px" font-family="Roboto, sans-serif"><tspan x="12" y="34" dominant-baseline="ideographic">Speculative </tspan><tspan x="12" y="58" dominant-baseline="ideographic">Narrative</tspan></text></g></g></g><g id="g-root-tx_cultural_v4v9ks1bi0tfo-stroke-fill" data-item-order="0" transform="translate(422, 110)"><g id="tx_cultural_v4v9ks1bi0tfo-fill" stroke="none" fill="#f4f4f4"><g><text style="font: 20px Roboto, sans-serif; white-space: pre;" font-size="20px" font-family="Roboto, sans-serif"><tspan x="12" y="34" dominant-baseline="ideographic">Cultural Belief </tspan><tspan x="12" y="58" dominant-baseline="ideographic">Exploration</tspan></text></g></g><g id="tx_cultural_v4v9ks1bi0tfo-fill-overlay" stroke="none" fill="url(#crawlingPattern-0000001b)"><g><text style="font: 20px Roboto, sans-serif; white-space: pre;" font-size="20px" font-family="Roboto, sans-serif"><tspan x="12" y="34" dominant-baseline="ideographic">Cultural Belief </tspan><tspan x="12" y="58" dominant-baseline="ideographic">Exploration</tspan></text></g></g></g><g id="g-root-tx_scientif_m989bw1bi0u8d-stroke-fill" data-item-order="0" transform="translate(62, 302)"><g id="tx_scientif_m989bw1bi0u8d-fill" stroke="none" fill="#f4f4f4"><g><text style="font: 20px Roboto, sans-serif; white-space: pre;" font-size="20px" font-family="Roboto, sans-serif"><tspan x="14.53" y="34" dominant-baseline="ideographic">Scientific Inquiry</tspan></text></g></g><g id="tx_scientif_m989bw1bi0u8d-fill-overlay" stroke="none" fill="url(#crawlingPattern-0000001b)"><g><text style="font: 20px Roboto, sans-serif; white-space: pre;" font-size="20px" font-family="Roboto, sans-serif"><tspan x="14.53" y="34" dominant-baseline="ideographic">Scientific Inquiry</tspan></text></g></g></g><g id="g-root-tx_extrater_8xrqyk1bi0vta-stroke-fill" data-item-order="0" transform="translate(392, 338)"><g id="tx_extrater_8xrqyk1bi0vta-fill" stroke="none" fill="#f4f4f4"><g><text style="font: 20px Roboto, sans-serif; white-space: pre;" font-size="20px" font-family="Roboto, sans-serif"><tspan x="14.28" y="34" dominant-baseline="ideographic">Extraterrestrial </tspan><tspan x="29.48" y="58" dominant-baseline="ideographic">Hypothesis</tspan></text></g></g><g id="tx_extrater_8xrqyk1bi0vta-fill-overlay" stroke="none" fill="url(#crawlingPattern-0000001b)"><g><text style="font: 20px Roboto, sans-serif; white-space: pre;" font-size="20px" font-family="Roboto, sans-serif"><tspan x="14.28" y="34" dominant-baseline="ideographic">Extraterrestrial </tspan><tspan x="29.48" y="58" dominant-baseline="ideographic">Hypothesis</tspan></text></g></g></g><g id="g-root-tx_balancin_1uo1rng1bi0u1b-stroke-fill" data-item-order="0" transform="translate(38, 398)"><g id="tx_balancin_1uo1rng1bi0u1b-fill" stroke="none" fill="#f4f4f4"><g><text style="font: 20px Roboto, sans-serif; white-space: pre;" font-size="20px" font-family="Roboto, sans-serif"><tspan x="11.92" y="34" dominant-baseline="ideographic">Balancing Scientific Evidence and Speculation in Tunguska </tspan><tspan x="230.11" y="58" dominant-baseline="ideographic">Research</tspan></text></g></g><defs><pattern id="crawlingPattern-0000001b" x="0" y="0" width="12" height="12" patternUnits="userSpaceOnUse" fill="#0000001b"><use href="#crawlingSymbol"></use></pattern><symbol id="crawlingSymbol"><g><animateTransform attributeName="transform" type="translate" from="0 0" to="-12 0" dur="0.4s" repeatCount="indefinite"></animateTransform><path d="M -12.5 12.5 l 13 -13 l 6 0 l -13 13 Z M -0.5 12.5 l 13 -13 l 6 0 l -13 13 Z M 11.5 12.5 l 13 -13 l 6 0 l -13 13 Z"></path></g></symbol></defs><g id="tx_balancin_1uo1rng1bi0u1b-fill-overlay" stroke="none" fill="url(#crawlingPattern-0000001b)"><g><text style="font: 20px Roboto, sans-serif; white-space: pre;" font-size="20px" font-family="Roboto, sans-serif"><tspan x="11.92" y="34" dominant-baseline="ideographic">Balancing Scientific Evidence and Speculation in Tunguska </tspan><tspan x="230.11" y="58" dominant-baseline="ideographic">Research</tspan></text></g></g></g></svg>