<?xml version='1.0' encoding='utf-8'?>
<svg xmlns="http://www.w3.org/2000/svg" xmlns:xlink="http://www.w3.org/1999/xlink" width="720" height="492" viewBox="0 0 720 492" style="fill:none;stroke:none;fill-rule:evenodd;clip-rule:evenodd;stroke-linecap:round;stroke-linejoin:round;stroke-miterlimit:1.5;" version="1.1">
  <style class="text-font-style fontImports" data-font-family="Roboto">@import url('https://fonts.googleapis.com/css2?family=Roboto:wght@400;700&amp;display=block');</style>
  <rect x="0" y="0" width="7.2E+2" height="492" fill="#252a34" stroke="none" id="programmatic_background"/>
  <g id="g-root-tf_940bik18gnjm4-stroke-fill" data-item-order="-329208" transform="translate(12, 12)"/>
  <g id="g-root-sy_-1_Vector_hwiybw18gkqvc-stroke-fill" data-item-order="-13627" transform="translate(325.99609375, 149)">
    <g id="sy_-1_Vector_hwiybw18gkqvc-stroke" fill="none" stroke-linecap="round" stroke-linejoin="round" stroke-miterlimit="4" stroke="#f4f4f4" stroke-width="2">
      <g>
        <path d="M 10 196L 10 106M 10 100L 10 10"/>
      </g>
    </g>
  </g>
  <g id="g-root-sy_-1_cu_dgpg7g18gkrnl-stroke-fill" data-item-order="-13623" transform="translate(325.99609375, 341)">
    <g id="sy_-1_cu_dgpg7g18gkrnl-stroke" fill="none" stroke-linecap="round" stroke-linejoin="round" stroke-miterlimit="4" stroke="#f4f4f4" stroke-width="2">
      <g>
        <path d="M 10.003906 94L 10.003906 10"/>
        <path d="M 3.503906 88L 10.003906 94.5L 16.503906 88" stroke-dasharray="none"/>
      </g>
    </g>
  </g>
  <g id="g-root-sy_3_cu_1usewy418gks22-stroke-fill" data-item-order="-13620" transform="translate(302, 335)">
    <g id="sy_3_cu_1usewy418gks22-fill" stroke="none" fill="none">
      <g>
        <path d="M 34 10L 34 10C 34 10 37 10 37 13L 37 13C 37 13 37 16 34 16L 34 16C 34 16 31 16 31 13L 31 13C 31 13 31 10 34 10"/>
      </g>
    </g>
    <g id="sy_3_cu_1usewy418gks22-stroke" fill="none" stroke-linecap="round" stroke-linejoin="round" stroke-miterlimit="4" stroke="#a6da37" stroke-width="2">
      <g>
        <path d="M 34 10L 34 10C 34 10 37 10 37 13L 37 13C 37 13 37 16 34 16L 34 16C 34 16 31 16 31 13L 31 13C 31 13 31 10 34 10"/>
      </g>
    </g>
    <g id="sy_3_cu_1usewy418gks22-stroke" fill="none" stroke-linecap="round" stroke-linejoin="round" stroke-miterlimit="4" stroke="#a6da37" stroke-width="2">
      <g>
        <path d="M 31 13L 10 13"/>
      </g>
    </g>
  </g>
  <g id="g-root-sy_2_cu_djttn018gks23-stroke-fill" data-item-order="-13616" transform="translate(323, 239)">
    <g id="sy_2_cu_djttn018gks23-fill" stroke="none" fill="none">
      <g>
        <path d="M 13 10L 13 10C 13 10 16 10 16 13L 16 13C 16 13 16 16 13 16L 13 16C 13 16 10 16 10 13L 10 13C 10 13 10 10 13 10"/>
      </g>
    </g>
    <g id="sy_2_cu_djttn018gks23-stroke" fill="none" stroke-linecap="round" stroke-linejoin="round" stroke-miterlimit="4" stroke="#43dd93" stroke-width="2">
      <g>
        <path d="M 13 10L 13 10C 13 10 16 10 16 13L 16 13C 16 13 16 16 13 16L 13 16C 13 16 10 16 10 13L 10 13C 10 13 10 10 13 10"/>
      </g>
    </g>
    <g id="sy_2_cu_djttn018gks23-stroke" fill="none" stroke-linecap="round" stroke-linejoin="round" stroke-miterlimit="4" stroke="#43dd93" stroke-width="2">
      <g>
        <path d="M 37 13L 16 13"/>
      </g>
    </g>
  </g>
  <g id="g-root-sy_1_cu_147zsjw18gkr2c-stroke-fill" data-item-order="-13612" transform="translate(302, 143)">
    <g id="sy_1_cu_147zsjw18gkr2c-fill" stroke="none" fill="none">
      <g>
        <path d="M 34 10L 34 10C 34 10 37 10 37 13L 37 13C 37 13 37 16 34 16L 34 16C 34 16 31 16 31 13L 31 13C 31 13 31 10 34 10"/>
      </g>
    </g>
    <g id="sy_1_cu_147zsjw18gkr2c-stroke" fill="none" stroke-linecap="round" stroke-linejoin="round" stroke-miterlimit="4" stroke="#4f91fc" stroke-width="2">
      <g>
        <path d="M 34 10L 34 10C 34 10 37 10 37 13L 37 13C 37 13 37 16 34 16L 34 16C 34 16 31 16 31 13L 31 13C 31 13 31 10 34 10"/>
      </g>
    </g>
    <g id="sy_1_cu_147zsjw18gkr2c-stroke" fill="none" stroke-linecap="round" stroke-linejoin="round" stroke-miterlimit="4" stroke="#4f91fc" stroke-width="2">
      <g>
        <path d="M 31 13L 10 13"/>
      </g>
    </g>
  </g>
  <g id="g-root-tx_theubatu_m8llxo18gm68d-stroke-fill" data-item-order="0" transform="translate(128, 50)">
    <g id="tx_theubatu_m8llxo18gm68d-fill" stroke="none" fill="#f4f4f4">
      <g>
        <text style="font: 20px Roboto, sans-serif; white-space: pre;" font-size="20px" font-family="Roboto, sans-serif">
          <tspan x="17.63" y="34" dominant-baseline="ideographic">The Ubatuba Incident: A Timeline of Events</tspan>
        </text>
      </g>
    </g>
  </g>
  <g id="g-root-tx_newfragm_142zzv018gm51i-stroke-fill" data-item-order="0" transform="translate(62, 362)">
    <g id="tx_newfragm_142zzv018gm51i-fill" stroke="none" fill="#f4f4f4">
      <g>
        <text style="font: 20px Roboto, sans-serif; white-space: pre;" font-size="20px" font-family="Roboto, sans-serif">
          <tspan x="11.55" y="34" dominant-baseline="ideographic">New fragments emerge, </tspan>
          <tspan x="87.88" y="58" dominant-baseline="ideographic">analyzed at IPT</tspan>
        </text>
      </g>
    </g>
  </g>
  <g id="g-root-tx_ibrahims_hxrwi418gm6fb-stroke-fill" data-item-order="0" transform="translate(374, 266)">
    <g id="tx_ibrahims_hxrwi418gm6fb-fill" stroke="none" fill="#f4f4f4">
      <g>
        <text style="font: 20px Roboto, sans-serif; white-space: pre;" font-size="20px" font-family="Roboto, sans-serif">
          <tspan x="12" y="34" dominant-baseline="ideographic">Ibrahim Sued receives </tspan>
          <tspan x="12" y="58" dominant-baseline="ideographic">anonymous letter with fragments</tspan>
        </text>
      </g>
    </g>
  </g>
  <g id="g-root-tx_brightob_mfgtvw18gm4nc-stroke-fill" data-item-order="0" transform="translate(26, 170)">
    <g id="tx_brightob_mfgtvw18gm4nc-fill" stroke="none" fill="#f4f4f4">
      <g>
        <text style="font: 20px Roboto, sans-serif; white-space: pre;" font-size="20px" font-family="Roboto, sans-serif">
          <tspan x="18.05" y="34" dominant-baseline="ideographic">Bright object descends and </tspan>
          <tspan x="56.88" y="58" dominant-baseline="ideographic">explodes over Ubatuba</tspan>
        </text>
      </g>
    </g>
  </g>
  <g id="g-root-tx_2016_13z95cc18gnl6p-stroke-fill" data-item-order="0" transform="translate(218, 326)">
    <g id="tx_2016_13z95cc18gnl6p-fill" stroke="none" fill="#a6da37">
      <g>
        <text style="font: bold 20px Roboto, sans-serif; white-space: pre;" font-weight="bold" font-size="20px" font-family="Roboto, sans-serif">
          <tspan x="22.09" y="34" dominant-baseline="ideographic">2016</tspan>
        </text>
      </g>
    </g>
  </g>
  <g id="g-root-tx_1957_1cw53rg18gnlsa-stroke-fill" data-item-order="0" transform="translate(374, 230)">
    <g id="tx_1957_1cw53rg18gnlsa-fill" stroke="none" fill="#43dd93">
      <g>
        <text style="font: bold 20px Roboto, sans-serif; white-space: pre;" font-weight="bold" font-size="20px" font-family="Roboto, sans-serif">
          <tspan x="12" y="34" dominant-baseline="ideographic">1957</tspan>
        </text>
      </g>
    </g>
  </g>
  <g id="g-root-tx_septembe_1uoo2fg18gnll7-stroke-fill" data-item-order="0" transform="translate(86, 134)">
    <g id="tx_septembe_1uoo2fg18gnll7-fill" stroke="none" fill="#4f91fc">
      <g>
        <text style="font: bold 20px Roboto, sans-serif; white-space: pre;" font-weight="bold" font-size="20px" font-family="Roboto, sans-serif">
          <tspan x="17.66" y="34" dominant-baseline="ideographic">September 14, 1957</tspan>
        </text>
      </g>
    </g>
    <defs>
      <pattern id="crawlingPattern-0000001b" x="0" y="0" width="12" height="12" patternUnits="userSpaceOnUse" fill="#0000001b">
        <use href="#crawlingSymbol"/>
      </pattern>
      <symbol id="crawlingSymbol">
        <g>
          <path d="M -12.5 12.5 l 13 -13 l 6 0 l -13 13 Z M -0.5 12.5 l 13 -13 l 6 0 l -13 13 Z M 11.5 12.5 l 13 -13 l 6 0 l -13 13 Z"/>
        </g>
      </symbol>
      <pattern id="crawlingPattern-5c87005e" x="0" y="0" width="12" height="12" patternUnits="userSpaceOnUse" fill="#5c87005e">
        <use href="#crawlingSymbol"/>
      </pattern>
      <pattern id="crawlingPattern-00b15c75" x="0" y="0" width="12" height="12" patternUnits="userSpaceOnUse" fill="#00b15c75">
        <use href="#crawlingSymbol"/>
      </pattern>
      <pattern id="crawlingPattern-0060fba2" x="0" y="0" width="12" height="12" patternUnits="userSpaceOnUse" fill="#0060fba2">
        <use href="#crawlingSymbol"/>
      </pattern>
    </defs>
  </g>
</svg>
