<svg width="480" height="564" viewBox="0 0 480 564" style="fill:none;stroke:none;fill-rule:evenodd;clip-rule:evenodd;stroke-linecap:round;stroke-linejoin:round;stroke-miterlimit:1.5;" version="1.1" xmlns="http://www.w3.org/2000/svg" xmlns:xlink="http://www.w3.org/1999/xlink"><style class="text-font-style fontImports" data-font-family="Roboto">@import url('https://fonts.googleapis.com/css2?family=Roboto:wght@400;700&amp;display=block');</style><g id="g-root-tf_v9v2a418g845e-stroke-fill" data-item-order="-239760" transform="translate(18, 12)"></g><g id="g-root-cp_1_column-1_1q889jg18g85c4-stroke-fill" data-item-order="-175814" transform="translate(62, 119)"><g id="cp_1_column-1_1q889jg18g85c4-fill" stroke="none" fill="none"><g><path d="M 10 13C 10 14.656854 11.343146 16 13 16C 14.656854 16 16 14.656854 16 13C 16 11.343146 14.656854 10 13 10C 11.343146 10 10 11.343146 10 13"></path></g></g><g id="cp_1_column-1_1q889jg18g85c4-stroke" fill="none" stroke-linecap="round" stroke-linejoin="round" stroke-miterlimit="4" stroke="#4f91fc" stroke-width="2"><g><path d="M 10 13C 10 14.656854 11.343146 16 13 16C 14.656854 16 16 14.656854 16 13C 16 11.343146 14.656854 10 13 10C 11.343146 10 10 11.343146 10 13"></path></g></g><g id="cp_1_column-1_1q889jg18g85c4-stroke-overlay" fill="none" stroke-linecap="round" stroke-linejoin="round" stroke-miterlimit="4" stroke="#0060fb7c" stroke-width="2" stroke-dasharray="4,6"><animate attributeName="stroke-dashoffset" values="30;0" dur="1s" repeatCount="indefinite" begin="0"></animate><g><path d="M 10 13C 10 14.656854 11.343146 16 13 16C 14.656854 16 16 14.656854 16 13C 16 11.343146 14.656854 10 13 10C 11.343146 10 10 11.343146 10 13"></path></g></g><g id="cp_1_column-1_1q889jg18g85c4-stroke" fill="none" stroke-linecap="round" stroke-linejoin="round" stroke-miterlimit="4" stroke="#4f91fc" stroke-width="2"><g><path d="M 13 16L 13 154"></path></g></g><g id="cp_1_column-1_1q889jg18g85c4-stroke-overlay" fill="none" stroke-linecap="round" stroke-linejoin="round" stroke-miterlimit="4" stroke="#0060fb7c" stroke-width="2" stroke-dasharray="4,6"><animate attributeName="stroke-dashoffset" values="30;0" dur="1s" repeatCount="indefinite" begin="0"></animate><g><path d="M 13 16L 13 154"></path></g></g><g id="cp_1_column-1_1q889jg18g85c4-fill" stroke="none" fill="none"><g><path d="M 10 157C 10 158.656854 11.343146 160 13 160C 14.656854 160 16 158.656854 16 157C 16 155.343146 14.656854 154 13 154C 11.343146 154 10 155.343146 10 157"></path></g></g><g id="cp_1_column-1_1q889jg18g85c4-stroke" fill="none" stroke-linecap="round" stroke-linejoin="round" stroke-miterlimit="4" stroke="#4f91fc" stroke-width="2"><g><path d="M 10 157C 10 158.656854 11.343146 160 13 160C 14.656854 160 16 158.656854 16 157C 16 155.343146 14.656854 154 13 154C 11.343146 154 10 155.343146 10 157"></path></g></g><g id="cp_1_column-1_1q889jg18g85c4-stroke-overlay" fill="none" stroke-linecap="round" stroke-linejoin="round" stroke-miterlimit="4" stroke="#0060fb7c" stroke-width="2" stroke-dasharray="4,6"><animate attributeName="stroke-dashoffset" values="30;0" dur="1s" repeatCount="indefinite" begin="0"></animate><g><path d="M 10 157C 10 158.656854 11.343146 160 13 160C 14.656854 160 16 158.656854 16 157C 16 155.343146 14.656854 154 13 154C 11.343146 154 10 155.343146 10 157"></path></g></g></g><g id="g-root-cp_3_column-3_1hd7qdo18g82z2-stroke-fill" data-item-order="-175798" transform="translate(242, 155)"><g id="cp_3_column-3_1hd7qdo18g82z2-fill" stroke="none" fill="none"><g><path d="M 10 13C 10 14.656854 11.343146 16 13 16C 14.656854 16 16 14.656854 16 13C 16 11.343146 14.656854 10 13 10C 11.343146 10 10 11.343146 10 13"></path></g></g><g id="cp_3_column-3_1hd7qdo18g82z2-stroke" fill="none" stroke-linecap="round" stroke-linejoin="round" stroke-miterlimit="4" stroke="#a6da37" stroke-width="2"><g><path d="M 10 13C 10 14.656854 11.343146 16 13 16C 14.656854 16 16 14.656854 16 13C 16 11.343146 14.656854 10 13 10C 11.343146 10 10 11.343146 10 13"></path></g></g><g id="cp_3_column-3_1hd7qdo18g82z2-stroke-overlay" fill="none" stroke-linecap="round" stroke-linejoin="round" stroke-miterlimit="4" stroke="#6b9d0056" stroke-width="2" stroke-dasharray="4,6"><animate attributeName="stroke-dashoffset" values="30;0" dur="1s" repeatCount="indefinite" begin="0"></animate><g><path d="M 10 13C 10 14.656854 11.343146 16 13 16C 14.656854 16 16 14.656854 16 13C 16 11.343146 14.656854 10 13 10C 11.343146 10 10 11.343146 10 13"></path></g></g><g id="cp_3_column-3_1hd7qdo18g82z2-stroke" fill="none" stroke-linecap="round" stroke-linejoin="round" stroke-miterlimit="4" stroke="#a6da37" stroke-width="2"><g><path d="M 13.000002 16L 13.000002 118"></path></g></g><g id="cp_3_column-3_1hd7qdo18g82z2-stroke-overlay" fill="none" stroke-linecap="round" stroke-linejoin="round" stroke-miterlimit="4" stroke="#6b9d0056" stroke-width="2" stroke-dasharray="4,6"><animate attributeName="stroke-dashoffset" values="30;0" dur="1s" repeatCount="indefinite" begin="0"></animate><g><path d="M 13.000002 16L 13.000002 118"></path></g></g><g id="cp_3_column-3_1hd7qdo18g82z2-fill" stroke="none" fill="none"><g><path d="M 10 121C 10 122.656854 11.343146 124 13 124C 14.656854 124 16 122.656854 16 121C 16 119.343146 14.656854 118 13 118C 11.343146 118 10 119.343146 10 121"></path></g></g><g id="cp_3_column-3_1hd7qdo18g82z2-stroke" fill="none" stroke-linecap="round" stroke-linejoin="round" stroke-miterlimit="4" stroke="#a6da37" stroke-width="2"><g><path d="M 10 121C 10 122.656854 11.343146 124 13 124C 14.656854 124 16 122.656854 16 121C 16 119.343146 14.656854 118 13 118C 11.343146 118 10 119.343146 10 121"></path></g></g><g id="cp_3_column-3_1hd7qdo18g82z2-stroke-overlay" fill="none" stroke-linecap="round" stroke-linejoin="round" stroke-miterlimit="4" stroke="#6b9d0056" stroke-width="2" stroke-dasharray="4,6"><animate attributeName="stroke-dashoffset" values="30;0" dur="1s" repeatCount="indefinite" begin="0"></animate><g><path d="M 10 121C 10 122.656854 11.343146 124 13 124C 14.656854 124 16 122.656854 16 121C 16 119.343146 14.656854 118 13 118C 11.343146 118 10 119.343146 10 121"></path></g></g></g><g id="g-root-cp_1_g-1_18hkq4s18g84jk-stroke-fill" data-item-order="-175780" transform="translate(65, 278)"><g id="cp_1_g-1_18hkq4s18g84jk-fill" stroke="none" fill="none"><g><path d="M 76 10L 10 10L 28 46L 10 82L 76 82L 94 46L 76 10Z"></path></g></g><g id="cp_1_g-1_18hkq4s18g84jk-stroke" fill="none" stroke-linecap="round" stroke-linejoin="round" stroke-miterlimit="4" stroke="#4f91fc" stroke-width="2"><g><path d="M 76 10L 10 10L 28 46L 10 82L 76 82L 94 46L 76 10Z"></path></g></g><g id="cp_1_g-1_18hkq4s18g84jk-stroke-overlay" fill="none" stroke-linecap="round" stroke-linejoin="round" stroke-miterlimit="4" stroke="#0060fb7c" stroke-width="2" stroke-dasharray="4,6"><animate attributeName="stroke-dashoffset" values="30;0" dur="1s" repeatCount="indefinite" begin="0"></animate><g><path d="M 76 10L 10 10L 28 46L 10 82L 76 82L 94 46L 76 10Z"></path></g></g></g><g id="g-root-cp_2_g-2_v6qouk18g82yq-stroke-fill" data-item-order="-175772" transform="translate(155, 278)"><g id="cp_2_g-2_v6qouk18g82yq-fill" stroke="none" fill="none"><g><path d="M 76 10L 10 10L 28 46L 10 82L 76 82L 94 46L 76 10Z"></path></g></g><g id="cp_2_g-2_v6qouk18g82yq-stroke" fill="none" stroke-linecap="round" stroke-linejoin="round" stroke-miterlimit="4" stroke="#43dd93" stroke-width="2"><g><path d="M 76 10L 10 10L 28 46L 10 82L 76 82L 94 46L 76 10Z"></path></g></g><g id="cp_2_g-2_v6qouk18g82yq-stroke-overlay" fill="none" stroke-linecap="round" stroke-linejoin="round" stroke-miterlimit="4" stroke="#00c5676e" stroke-width="2" stroke-dasharray="4,6"><animate attributeName="stroke-dashoffset" values="30;0" dur="1s" repeatCount="indefinite" begin="0"></animate><g><path d="M 76 10L 10 10L 28 46L 10 82L 76 82L 94 46L 76 10Z"></path></g></g></g><g id="g-root-cp_3_g-3_mb3olo18g83rg-stroke-fill" data-item-order="-175766" transform="translate(245, 278)"><g id="cp_3_g-3_mb3olo18g83rg-fill" stroke="none" fill="none"><g><path d="M 76 10L 10 10L 28 46L 10 82L 76 82L 94 46L 76 10Z"></path></g></g><g id="cp_3_g-3_mb3olo18g83rg-stroke" fill="none" stroke-linecap="round" stroke-linejoin="round" stroke-miterlimit="4" stroke="#a6da37" stroke-width="2"><g><path d="M 76 10L 10 10L 28 46L 10 82L 76 82L 94 46L 76 10Z"></path></g></g><g id="cp_3_g-3_mb3olo18g83rg-stroke-overlay" fill="none" stroke-linecap="round" stroke-linejoin="round" stroke-miterlimit="4" stroke="#6b9d0056" stroke-width="2" stroke-dasharray="4,6"><animate attributeName="stroke-dashoffset" values="30;0" dur="1s" repeatCount="indefinite" begin="0"></animate><g><path d="M 76 10L 10 10L 28 46L 10 82L 76 82L 94 46L 76 10Z"></path></g></g></g><g id="g-root-cp_2_column-2_hva6h818g84jq-stroke-fill" data-item-order="-175758" transform="translate(152, 359)"><g id="cp_2_column-2_hva6h818g84jq-fill" stroke="none" fill="none"><g><path d="M 10 13C 10 14.656854 11.343146 16 13 16C 14.656854 16 16 14.656854 16 13C 16 11.343146 14.656854 10 13 10C 11.343146 10 10 11.343146 10 13"></path></g></g><g id="cp_2_column-2_hva6h818g84jq-stroke" fill="none" stroke-linecap="round" stroke-linejoin="round" stroke-miterlimit="4" stroke="#43dd93" stroke-width="2"><g><path d="M 10 13C 10 14.656854 11.343146 16 13 16C 14.656854 16 16 14.656854 16 13C 16 11.343146 14.656854 10 13 10C 11.343146 10 10 11.343146 10 13"></path></g></g><g id="cp_2_column-2_hva6h818g84jq-stroke-overlay" fill="none" stroke-linecap="round" stroke-linejoin="round" stroke-miterlimit="4" stroke="#00c5676e" stroke-width="2" stroke-dasharray="4,6"><animate attributeName="stroke-dashoffset" values="30;0" dur="1s" repeatCount="indefinite" begin="0"></animate><g><path d="M 10 13C 10 14.656854 11.343146 16 13 16C 14.656854 16 16 14.656854 16 13C 16 11.343146 14.656854 10 13 10C 11.343146 10 10 11.343146 10 13"></path></g></g><g id="cp_2_column-2_hva6h818g84jq-stroke" fill="none" stroke-linecap="round" stroke-linejoin="round" stroke-miterlimit="4" stroke="#43dd93" stroke-width="2"><g><path d="M 13 16L 13 118"></path></g></g><g id="cp_2_column-2_hva6h818g84jq-stroke-overlay" fill="none" stroke-linecap="round" stroke-linejoin="round" stroke-miterlimit="4" stroke="#00c5676e" stroke-width="2" stroke-dasharray="4,6"><animate attributeName="stroke-dashoffset" values="30;0" dur="1s" repeatCount="indefinite" begin="0"></animate><g><path d="M 13 16L 13 118"></path></g></g><g id="cp_2_column-2_hva6h818g84jq-fill" stroke="none" fill="none"><g><path d="M 10 121C 10 122.656854 11.343146 124 13 124C 14.656854 124 16 122.656854 16 121C 16 119.343146 14.656854 118 13 118C 11.343146 118 10 119.343146 10 121"></path></g></g><g id="cp_2_column-2_hva6h818g84jq-stroke" fill="none" stroke-linecap="round" stroke-linejoin="round" stroke-miterlimit="4" stroke="#43dd93" stroke-width="2"><g><path d="M 10 121C 10 122.656854 11.343146 124 13 124C 14.656854 124 16 122.656854 16 121C 16 119.343146 14.656854 118 13 118C 11.343146 118 10 119.343146 10 121"></path></g></g><g id="cp_2_column-2_hva6h818g84jq-stroke-overlay" fill="none" stroke-linecap="round" stroke-linejoin="round" stroke-miterlimit="4" stroke="#00c5676e" stroke-width="2" stroke-dasharray="4,6"><animate attributeName="stroke-dashoffset" values="30;0" dur="1s" repeatCount="indefinite" begin="0"></animate><g><path d="M 10 121C 10 122.656854 11.343146 124 13 124C 14.656854 124 16 122.656854 16 121C 16 119.343146 14.656854 118 13 118C 11.343146 118 10 119.343146 10 121"></path></g></g></g><g id="g-root-tx_theubatu_dfgocs18g85c0-stroke-fill" data-item-order="0" transform="translate(32, 50)"><g id="tx_theubatu_dfgocs18g85c0-fill" stroke="none" fill="#f4f4f4"><g><text style="font: 20px Roboto, sans-serif; white-space: pre;" font-size="20px" font-family="Roboto, sans-serif"><tspan x="17.63" y="34" dominant-baseline="ideographic">The Ubatuba Incident: A Timeline of Events</tspan></text></g></g><g id="tx_theubatu_dfgocs18g85c0-fill-overlay" stroke="none" fill="url(#crawlingPattern-0000001b)"><g><text style="font: 20px Roboto, sans-serif; white-space: pre;" font-size="20px" font-family="Roboto, sans-serif"><tspan x="17.63" y="34" dominant-baseline="ideographic">The Ubatuba Incident: A Timeline of Events</tspan></text></g></g></g><g id="g-root-tx_septembe_4mn2k18g83r5-stroke-fill" data-item-order="0" transform="translate(77, 122)"><g id="tx_septembe_4mn2k18g83r5-fill" stroke="none" fill="#4f91fc"><g><text style="font: bold 20px Roboto, sans-serif; white-space: pre;" font-weight="bold" font-size="20px" font-family="Roboto, sans-serif"><tspan x="12" y="34" dominant-baseline="ideographic">September 14, </tspan><tspan x="12" y="58" dominant-baseline="ideographic">1957</tspan></text></g></g><g id="tx_septembe_4mn2k18g83r5-fill-overlay" stroke="none" fill="url(#crawlingPattern-0060fba2)"><g><text style="font: bold 20px Roboto, sans-serif; white-space: pre;" font-weight="bold" font-size="20px" font-family="Roboto, sans-serif"><tspan x="12" y="34" dominant-baseline="ideographic">September 14, </tspan><tspan x="12" y="58" dominant-baseline="ideographic">1957</tspan></text></g></g></g><g id="g-root-tx_brightob_1lua6oc18g854y-stroke-fill" data-item-order="0" transform="translate(77, 182)"><g id="tx_brightob_1lua6oc18g854y-fill" stroke="none" fill="#f4f4f4"><g><text style="font: 15px Roboto, sans-serif; white-space: pre;" font-size="15px" font-family="Roboto, sans-serif"><tspan x="12" y="28" dominant-baseline="ideographic">Bright object </tspan><tspan x="12" y="46" dominant-baseline="ideographic">descends and </tspan><tspan x="12" y="64" dominant-baseline="ideographic">explodes over </tspan><tspan x="12" y="82" dominant-baseline="ideographic">Ubatuba</tspan></text></g></g><g id="tx_brightob_1lua6oc18g854y-fill-overlay" stroke="none" fill="url(#crawlingPattern-0000001b)"><g><text style="font: 15px Roboto, sans-serif; white-space: pre;" font-size="15px" font-family="Roboto, sans-serif"><tspan x="12" y="28" dominant-baseline="ideographic">Bright object </tspan><tspan x="12" y="46" dominant-baseline="ideographic">descends and </tspan><tspan x="12" y="64" dominant-baseline="ideographic">explodes over </tspan><tspan x="12" y="82" dominant-baseline="ideographic">Ubatuba</tspan></text></g></g></g><g id="g-root-tx_2016_18jg5e418g83k3-stroke-fill" data-item-order="0" transform="translate(257, 158)"><g id="tx_2016_18jg5e418g83k3-fill" stroke="none" fill="#a6da37"><g><text style="font: bold 20px Roboto, sans-serif; white-space: pre;" font-weight="bold" font-size="20px" font-family="Roboto, sans-serif"><tspan x="12" y="34" dominant-baseline="ideographic">2016</tspan></text></g></g><g id="tx_2016_18jg5e418g83k3-fill-overlay" stroke="none" fill="url(#crawlingPattern-5c87005e)"><g><text style="font: bold 20px Roboto, sans-serif; white-space: pre;" font-weight="bold" font-size="20px" font-family="Roboto, sans-serif"><tspan x="12" y="34" dominant-baseline="ideographic">2016</tspan></text></g></g></g><g id="g-root-tx_newfragm_v7zn0s18g8550-stroke-fill" data-item-order="0" transform="translate(257, 194)"><g id="tx_newfragm_v7zn0s18g8550-fill" stroke="none" fill="#f4f4f4"><g><text style="font: 15px Roboto, sans-serif; white-space: pre;" font-size="15px" font-family="Roboto, sans-serif"><tspan x="12" y="31" dominant-baseline="ideographic">New fragments </tspan><tspan x="12" y="49" dominant-baseline="ideographic">emerge, analyzed at </tspan><tspan x="12" y="67" dominant-baseline="ideographic">IPT</tspan></text></g></g><g id="tx_newfragm_v7zn0s18g8550-fill-overlay" stroke="none" fill="url(#crawlingPattern-0000001b)"><g><text style="font: 15px Roboto, sans-serif; white-space: pre;" font-size="15px" font-family="Roboto, sans-serif"><tspan x="12" y="31" dominant-baseline="ideographic">New fragments </tspan><tspan x="12" y="49" dominant-baseline="ideographic">emerge, analyzed at </tspan><tspan x="12" y="67" dominant-baseline="ideographic">IPT</tspan></text></g></g></g><g id="g-root-tx_1957_mcz3v018g82rx-stroke-fill" data-item-order="0" transform="translate(167, 374)"><g id="tx_1957_mcz3v018g82rx-fill" stroke="none" fill="#43dd93"><g><text style="font: bold 20px Roboto, sans-serif; white-space: pre;" font-weight="bold" font-size="20px" font-family="Roboto, sans-serif"><tspan x="12" y="34" dominant-baseline="ideographic">1957</tspan></text></g></g><g id="tx_1957_mcz3v018g82rx-fill-overlay" stroke="none" fill="url(#crawlingPattern-00b15c75)"><g><text style="font: bold 20px Roboto, sans-serif; white-space: pre;" font-weight="bold" font-size="20px" font-family="Roboto, sans-serif"><tspan x="12" y="34" dominant-baseline="ideographic">1957</tspan></text></g></g></g><g id="g-root-tx_ibrahims_91ilho18g84cu-stroke-fill" data-item-order="0" transform="translate(167, 410)"><g id="tx_ibrahims_91ilho18g84cu-fill" stroke="none" fill="#f4f4f4"><g><text style="font: 15px Roboto, sans-serif; white-space: pre;" font-size="15px" font-family="Roboto, sans-serif"><tspan x="12" y="31" dominant-baseline="ideographic">Ibrahim Sued </tspan><tspan x="12" y="49" dominant-baseline="ideographic">receives anonymous </tspan><tspan x="12" y="67" dominant-baseline="ideographic">letter with fragments</tspan></text></g></g><defs><pattern id="crawlingPattern-0000001b" x="0" y="0" width="12" height="12" patternUnits="userSpaceOnUse" fill="#0000001b"><use href="#crawlingSymbol"></use></pattern><symbol id="crawlingSymbol"><g><animateTransform attributeName="transform" type="translate" from="0 0" to="-12 0" dur="0.4s" repeatCount="indefinite"></animateTransform><path d="M -12.5 12.5 l 13 -13 l 6 0 l -13 13 Z M -0.5 12.5 l 13 -13 l 6 0 l -13 13 Z M 11.5 12.5 l 13 -13 l 6 0 l -13 13 Z"></path></g></symbol><pattern id="crawlingPattern-0060fba2" x="0" y="0" width="12" height="12" patternUnits="userSpaceOnUse" fill="#0060fba2"><use href="#crawlingSymbol"></use></pattern><pattern id="crawlingPattern-5c87005e" x="0" y="0" width="12" height="12" patternUnits="userSpaceOnUse" fill="#5c87005e"><use href="#crawlingSymbol"></use></pattern><pattern id="crawlingPattern-00b15c75" x="0" y="0" width="12" height="12" patternUnits="userSpaceOnUse" fill="#00b15c75"><use href="#crawlingSymbol"></use></pattern></defs><g id="tx_ibrahims_91ilho18g84cu-fill-overlay" stroke="none" fill="url(#crawlingPattern-0000001b)"><g><text style="font: 15px Roboto, sans-serif; white-space: pre;" font-size="15px" font-family="Roboto, sans-serif"><tspan x="12" y="31" dominant-baseline="ideographic">Ibrahim Sued </tspan><tspan x="12" y="49" dominant-baseline="ideographic">receives anonymous </tspan><tspan x="12" y="67" dominant-baseline="ideographic">letter with fragments</tspan></text></g></g></g></svg>