<?xml version='1.0' encoding='utf-8'?>
<svg xmlns="http://www.w3.org/2000/svg" xmlns:xlink="http://www.w3.org/1999/xlink" width="888" height="564" viewBox="0 0 888 564" style="fill:none;stroke:none;fill-rule:evenodd;clip-rule:evenodd;stroke-linecap:round;stroke-linejoin:round;stroke-miterlimit:1.5;" version="1.1">
  <style class="text-font-style fontImports" data-font-family="Roboto">@import url('https://fonts.googleapis.com/css2?family=Roboto:wght@400;700&amp;display=block');</style>
  <rect x="0" y="0" width="888" height="564" fill="#252a34" stroke="none" id="programmatic_background"/>
  <g id="g-root-tf_1q87k9819ud4p1-stroke-fill" data-item-order="-460080" transform="translate(18, 12)">
    <g id="tf_1q87k9819ud4p1-fill" stroke="none" fill="#2c2c2c">
      <g>
        <path d="M 0 0L 852 0L 852 540L 0 540Z"/>
      </g>
    </g>
    <defs>
      <pattern id="crawlingPattern-a906f51a" x="0" y="0" width="12" height="12" patternUnits="userSpaceOnUse" fill="#a906f51a">
        <use href="#crawlingSymbol"/>
      </pattern>
      <symbol id="crawlingSymbol">
        <g>
          <path d="M -12.5 12.5 l 13 -13 l 6 0 l -13 13 Z M -0.5 12.5 l 13 -13 l 6 0 l -13 13 Z M 11.5 12.5 l 13 -13 l 6 0 l -13 13 Z"/>
        </g>
      </symbol>
      <pattern id="crawlingPattern-ec07911a" x="0" y="0" width="12" height="12" patternUnits="userSpaceOnUse" fill="#ec07911a">
        <use href="#crawlingSymbol"/>
      </pattern>
      <pattern id="crawlingPattern-f908001a" x="0" y="0" width="12" height="12" patternUnits="userSpaceOnUse" fill="#f908001a">
        <use href="#crawlingSymbol"/>
      </pattern>
      <pattern id="crawlingPattern-f576002d" x="0" y="0" width="12" height="12" patternUnits="userSpaceOnUse" fill="#f576002d">
        <use href="#crawlingSymbol"/>
      </pattern>
      <pattern id="crawlingPattern-ffe50099" x="0" y="0" width="12" height="12" patternUnits="userSpaceOnUse" fill="#ffe50099">
        <use href="#crawlingSymbol"/>
      </pattern>
      <pattern id="crawlingPattern-0000001b" x="0" y="0" width="12" height="12" patternUnits="userSpaceOnUse" fill="#0000001b">
        <use href="#crawlingSymbol"/>
      </pattern>
      <pattern id="crawlingPattern-ffe7003d" x="0" y="0" width="12" height="12" patternUnits="userSpaceOnUse" fill="#ffe7003d">
        <use href="#crawlingSymbol"/>
      </pattern>
      <pattern id="crawlingPattern-ff009b38" x="0" y="0" width="12" height="12" patternUnits="userSpaceOnUse" fill="#ff009b38">
        <use href="#crawlingSymbol"/>
      </pattern>
      <pattern id="crawlingPattern-b400ff37" x="0" y="0" width="12" height="12" patternUnits="userSpaceOnUse" fill="#b400ff37">
        <use href="#crawlingSymbol"/>
      </pattern>
      <pattern id="crawlingPattern-ff7b003a" x="0" y="0" width="12" height="12" patternUnits="userSpaceOnUse" fill="#ff7b003a">
        <use href="#crawlingSymbol"/>
      </pattern>
      <pattern id="crawlingPattern-ff0b0038" x="0" y="0" width="12" height="12" patternUnits="userSpaceOnUse" fill="#ff0b0038">
        <use href="#crawlingSymbol"/>
      </pattern>
      <pattern id="crawlingPattern-c1c1c11a" x="0" y="0" width="12" height="12" patternUnits="userSpaceOnUse" fill="#c1c1c11a">
        <use href="#crawlingSymbol"/>
      </pattern>
      <pattern id="crawlingPattern-5f5f5f1a" x="0" y="0" width="12" height="12" patternUnits="userSpaceOnUse" fill="#5f5f5f1a">
        <use href="#crawlingSymbol"/>
      </pattern>
    </defs>
  </g>
  <g id="g-root-cp_5_g-5_1hf2d7019uljbf-stroke-fill" data-item-order="-356966" transform="translate(248, 374)">
    <g id="cp_5_g-5_1hf2d7019uljbf-fill" stroke="none" fill="#cb68f9">
      <g>
        <path d="M 34 10C 34 37.7434 52.8297 61.0888 78.4063 67.9537C 84.1851 51.6652 99.7303 40 118 40C 137.026 40 153.097 52.6511 158.261 70L 196 70L 196 58L 232 82L 196 106L 196 94L 158.261 94C 153.097 111.349 137.026 124 118 124C 98.3707 124 81.8866 110.534 77.2814 92.3362C 38.8992 84.5847 10 50.6672 10 10L 34 10Z"/>
      </g>
    </g>
    <g id="cp_5_g-5_1hf2d7019uljbf-stroke" fill="none" stroke-linecap="round" stroke-linejoin="round" stroke-miterlimit="4" stroke="#2c2c2c" stroke-width="2">
      <g>
        <path d="M 34 10C 34 37.7434 52.8297 61.0888 78.4063 67.9537C 84.1851 51.6652 99.7303 40 118 40C 137.0261 40 153.0974 52.6511 158.2607 70L 196 70L 196 58L 232 82L 196 106L 196 94L 158.2607 94C 153.0974 111.3489 137.0261 124 118 124C 98.3707 124 81.8866 110.5341 77.2814 92.3362C 38.8992 84.5847 10 50.6672 10 10L 34 10Z"/>
      </g>
    </g>
  </g>
  <g id="g-root-cp_4_g-4_143luto19ulkwd-stroke-fill" data-item-order="-356962" transform="translate(248, 260)">
    <g id="cp_4_g-4_143luto19ulkwd-fill" stroke="none" fill="#f366bb">
      <g>
        <path d="M 78.4063 66.0463C 84.1851 82.3348 99.7303 94 118 94C 137.026 94 153.097 81.3489 158.261 64L 196 64L 196 40L 158.261 40C 153.097 22.6511 137.026 10 118 10C 98.3707 10 81.8866 23.4659 77.2814 41.6638C 38.8992 49.4153 10 83.3328 10 124L 34 124C 34 96.2566 52.8297 72.9112 78.4063 66.0463Z"/>
      </g>
    </g>
    <g id="cp_4_g-4_143luto19ulkwd-stroke" fill="none" stroke-linecap="round" stroke-linejoin="round" stroke-miterlimit="4" stroke="#2c2c2c" stroke-width="2">
      <g>
        <path d="M 78.4063 66.0463C 84.1851 82.3348 99.7303 94 118 94C 137.0261 94 153.0974 81.3489 158.2607 64L 196 64L 196 40L 158.2607 40C 153.0974 22.6511 137.0261 10 118 10C 98.3707 10 81.8866 23.4659 77.2814 41.6638C 38.8992 49.4153 10 83.3328 10 124L 34 124C 34 96.2566 52.8297 72.9112 78.4063 66.0463Z"/>
      </g>
    </g>
  </g>
  <g id="g-root-cp_3_g-3_zoetsc19uliiv-stroke-fill" data-item-order="-356958" transform="translate(434, 230)">
    <g id="cp_3_g-3_zoetsc19uliiv-fill" stroke="none" fill="#fb6762">
      <g>
        <path d="M 128.719 92.3362C 167.101 84.5847 196 50.6672 196 10L 172 10C 172 37.7434 153.17 61.0888 127.594 67.9537C 121.815 51.6652 106.2697 40 88 40C 68.9739 40 52.9026 52.6511 47.7393 70L 10 70L 10 94L 47.7393 94C 52.9026 111.349 68.9739 124 88 124C 107.6293 124 124.113 110.534 128.719 92.3362Z"/>
      </g>
    </g>
    <g id="cp_3_g-3_zoetsc19uliiv-stroke" fill="none" stroke-linecap="round" stroke-linejoin="round" stroke-miterlimit="4" stroke="#2c2c2c" stroke-width="2">
      <g>
        <path d="M 128.7186 92.3362C 167.1008 84.5847 196 50.6672 196 10L 172 10C 172 37.7434 153.1703 61.0888 127.5937 67.9537C 121.8149 51.6652 106.2697 40 88 40C 68.9739 40 52.9026 52.6511 47.7393 70L 10 70L 10 94L 47.7393 94C 52.9026 111.3489 68.9739 124 88 124C 107.6293 124 124.1134 110.5341 128.7186 92.3362Z"/>
      </g>
    </g>
  </g>
  <g id="g-root-cp_2_g-2_zoetsc19uliix-stroke-fill" data-item-order="-356954" transform="translate(434, 116)">
    <g id="cp_2_g-2_zoetsc19uliix-fill" stroke="none" fill="#f79438">
      <g>
        <path d="M 47.7393 64C 52.9026 81.3489 68.9739 94 88 94C 106.2697 94 121.815 82.3348 127.594 66.0463C 153.17 72.9112 172 96.2566 172 124L 196 124C 196 83.3328 167.101 49.4153 128.719 41.6638C 124.113 23.4659 107.6293 10 88 10C 68.9739 10 52.9026 22.6511 47.7393 40L 10 40L 10 64L 47.7393 64Z"/>
      </g>
    </g>
    <g id="cp_2_g-2_zoetsc19uliix-stroke" fill="none" stroke-linecap="round" stroke-linejoin="round" stroke-miterlimit="4" stroke="#2c2c2c" stroke-width="2">
      <g>
        <path d="M 47.7393 64C 52.9026 81.3489 68.9739 94 88 94C 106.2697 94 121.8149 82.3348 127.5937 66.0463C 153.1703 72.9112 172 96.2566 172 124L 196 124C 196 83.3328 167.1008 49.4153 128.7186 41.6638C 124.1134 23.4659 107.6293 10 88 10C 68.9739 10 52.9026 22.6511 47.7393 40L 10 40L 10 64L 47.7393 64Z"/>
      </g>
    </g>
  </g>
  <g id="g-root-cp_1_g-1_v8lbnw19uljb7-stroke-fill" data-item-order="-356950" transform="translate(266, 116)">
    <g id="cp_1_g-1_v8lbnw19uljb7-fill" stroke="none" fill="#ffe711">
      <g>
        <path d="M 59.7393 64C 64.9026 81.3489 80.9739 94 100 94C 119.026 94 135.097 81.3489 140.261 64L 178 64L 178 40L 140.261 40C 135.097 22.6511 119.026 10 100 10C 80.9739 10 64.9026 22.6511 59.7393 40L 10 40L 10 64L 59.7393 64Z"/>
      </g>
    </g>
    <g id="cp_1_g-1_v8lbnw19uljb7-stroke" fill="none" stroke-linecap="round" stroke-linejoin="round" stroke-miterlimit="4" stroke="#2c2c2c" stroke-width="2">
      <g>
        <path d="M 59.7393 64C 64.9026 81.3489 80.9739 94 100 94C 119.0261 94 135.0974 81.3489 140.2607 64L 178 64L 178 40L 140.2607 40C 135.0974 22.6511 119.0261 10 100 10C 80.9739 10 64.9026 22.6511 59.7393 40L 10 40L 10 64L 59.7393 64Z"/>
      </g>
    </g>
  </g>
  <g id="g-root-ic_acad_i0vnt819uliww-stroke-fill" data-item-order="-2304" transform="translate(332, 278)">
    <g id="ic_acad_i0vnt819uliww-fill" stroke="none" fill="#f4f4f4">
      <g>
        <path d="M 13.64 46.439999C 22.844385 46.688877 31.866354 49.064159 40 53.379997C 33.729477 48.073704 26.337542 44.258072 18.379999 42.219997L 16.82 42L 11.04 46.52C 12 46.459999 12.78 46.439999 13.64 46.439999ZM 18.84 40.279999C 28.293072 42.776035 36.952904 47.642887 44 54.419998C 39.66 45.52 28.84 35.739998 19.26 32.720001C 18.84 32.580002 18.42 32.48 18.02 32.379997L 10 39.220001C 12.977766 39.229919 15.944305 39.585636 18.84 40.279999ZM 15.219999 29.82C 16.844149 29.972424 18.446903 30.301022 20 30.800001C 30.299999 34 42 44.639999 46.259998 54.360001C 46.544109 51.776157 46.368053 49.162407 45.740002 46.639999C 43.98 39.559998 38.98 33.419998 30.860001 28.4C 30.390837 28.082548 30.078299 27.581034 30 27.02C 29.90852 26.45755 30.061306 25.882784 30.42 25.439999L 38.239998 15.82C 36.907501 15.08375 35.48111 14.532032 34 14.18ZM 10 10M 45.48 10L 39.760002 17.059999L 32 26.700001C 35.780468 29.009651 39.158276 31.921322 42 35.32C 42.360001 35.739998 42.68 36.16 43 36.580002C 43.619999 37.419998 44.16 38.239998 44.66 39.059998C 48.152576 44.638405 49.201027 51.406326 47.560001 57.780003L 58 32.959999C 58 32.959999 58 15.219999 45.48 10Z"/>
      </g>
    </g>
  </g>
  <g id="g-root-ic_patr_1hbblu419u1wjl-stroke-fill" data-item-order="-2304" transform="translate(332, 422)">
    <g id="ic_patr_1hbblu419u1wjl-fill" stroke="none" fill="#f4f4f4">
      <g>
        <path d="M 11 10L 19.799999 10C 19.799999 10 20.799999 10 20.799999 11L 20.799999 57C 20.799999 57 20.799999 58 19.799999 58L 11 58C 11 58 10 58 10 57L 10 11C 10 11 10 10 11 10M 39.900002 42.875999C 48.958694 43.774513 57.030144 37.158253 57.926643 28.099361C 58.823143 19.040468 52.205093 10.970488 43.146 10.076C 34.087307 9.177489 26.015858 15.793747 25.119358 24.85264C 24.222858 33.911533 30.84091 41.981514 39.900002 42.875999"/>
      </g>
    </g>
  </g>
  <g id="g-root-ic_mail_1upa0jw19u4pai-stroke-fill" data-item-order="-2304" transform="translate(488, 134)">
    <g id="ic_mail_1upa0jw19u4pai-fill" stroke="none" fill="#f4f4f4">
      <g>
        <path d="M 57.740002 17.1C 57.587883 17.001513 57.392117 17.001513 57.240002 17.1L 48.380001 23.26C 46.923195 24.167854 45.076805 24.167854 43.619999 23.26L 34.760002 17.119999C 34.607883 17.021513 34.412117 17.021513 34.260002 17.119999C 34.099258 17.207949 33.9995 17.376774 34 17.559999L 34 26C 34 27.656855 35.343147 29 37 29L 55 29C 56.656857 29 58 27.656855 58 26L 58 17.540001C 58.0005 17.356773 57.900742 17.187948 57.740002 17.1ZM 45.200001 20.720001C 45.691483 21.018795 46.308514 21.018795 46.799999 20.719999L 58 13.14C 58.018013 13.102028 58.018013 13.057972 58 13.02C 58.005329 12.220891 57.691612 11.452681 57.128426 10.885739C 56.565235 10.318797 55.799129 9.999982 55 10L 37 10C 36.200874 9.999982 35.434765 10.318797 34.871578 10.885739C 34.308388 11.452681 33.994675 12.220891 34 13.02C 33.978561 13.057128 33.978561 13.102872 34 13.139999ZM 21 28C 14.937216 28.010963 10.021996 32.917244 10 38.980003L 10 44.98C 10 45.532284 10.447715 45.98 11 45.98L 14.62 45.98C 14.881247 45.979164 15.099102 46.179588 15.12 46.439999L 16 57.080002C 16.051542 57.592903 16.484522 57.982582 17 57.98L 25 57.98C 25.515478 57.982582 25.948458 57.592903 26 57.080002L 26.879999 46.439999C 26.910511 46.187519 27.125687 45.998161 27.379999 46L 31 46C 31.552284 46 32 45.552284 32 45L 32 39C 31.988993 32.929436 27.070568 28.011007 21 28ZM 22.5 39.900002C 22.5 40.728428 21.828426 41.400002 21 41.400002C 20.171574 41.400002 19.5 40.728428 19.5 39.900002L 19.5 32C 19.5 31.171574 20.171574 30.5 21 30.5C 21.828426 30.5 22.5 31.171574 22.5 32ZM 21 26.280001C 25.498199 26.279987 29.143667 22.631516 29.139973 18.133316C 29.13628 13.63512 25.484827 9.992638 20.986633 10.00001C 16.488441 10.007383 12.848948 13.661816 12.860001 18.16C 12.871027 22.647785 16.512201 26.280014 21 26.280001ZM 17.139999 16.719999C 17.190514 16.580427 17.300426 16.470512 17.440001 16.42C 17.573772 16.360947 17.726227 16.360947 17.860001 16.42C 19.423054 17.413502 21.228359 17.959934 23.08 18C 23.57579 18.000652 24.070793 17.960518 24.560001 17.880001C 24.704454 17.859737 24.850555 17.903568 24.959999 18C 25.067081 18.098476 25.131638 18.23476 25.139999 18.380001C 25.140665 19.465574 24.700073 20.504795 23.919371 21.259098C 23.138668 22.013401 22.084909 22.417995 21 22.380001C 19.888 22.380207 18.822668 21.933065 18.043926 21.139275C 17.265184 20.345486 16.838512 19.271791 16.860001 18.16C 16.858402 17.666321 16.953527 17.177111 17.139999 16.720001Z"/>
      </g>
    </g>
  </g>
  <g id="g-root-ic_2_18gb2oc19u8xkz-stroke-fill" data-item-order="-2304" transform="translate(332, 134)">
    <g id="ic_2_18gb2oc19u8xkz-fill" stroke="none" fill="#f4f4f4">
      <g>
        <path d="M 57.459999 46.52L 43.860001 32C 43.546234 31.678307 43.127621 31.479641 42.68 31.440001L 43.380001 34.279999C 43.707237 35.579216 43.416069 36.956734 42.591084 38.012405C 41.766098 39.068069 40.499786 39.683533 39.160004 39.68L 38.620003 39.68L 35.459999 39.279999L 34.200001 42.639999C 33.690323 44.018318 32.514938 45.043015 31.08 45.360001C 30.763773 45.422909 30.4424 45.456383 30.119999 45.459999C 29.600702 45.457932 29.085949 45.36311 28.6 45.18L 27.360001 46.48C 26.695408 47.042049 26.470621 47.969383 26.804089 48.773361C 27.137558 49.577339 27.952703 50.073338 28.82 50L 32.34 50L 32.34 56.599998C 32.34 57.340061 32.939938 57.939999 33.68 57.939999L 39.059998 57.939999L 39.059998 51.560001C 39.059998 50.819939 39.659939 50.220001 40.400002 50.220001L 44.400002 50.220001C 45.14006 50.220001 45.739998 50.819939 45.739998 51.560001L 45.740002 58L 51.119999 58C 51.860062 58 52.459999 57.400063 52.459999 56.66L 52.459999 50L 56 50C 56.802479 50.004982 57.530231 49.529823 57.848454 48.793118C 58.166676 48.056416 58.013737 47.20084 57.459999 46.619999ZM 10 10M 31.860001 41.799999L 33.860001 36.599998L 39 37.239998L 39.220001 37.239998C 39.789486 37.237793 40.326576 36.974823 40.677559 36.526348C 41.028538 36.077873 41.154724 35.493324 41.020004 34.940002L 39.599998 29.299999L 43.900002 24.279999C 44.30452 23.773752 44.438694 23.10289 44.259998 22.48C 44.051392 21.863365 43.535591 21.400661 42.900002 21.26L 37.099998 20L 37.700001 15.1C 37.778419 14.527454 37.586266 13.950985 37.18 13.54C 36.829781 13.20575 36.36412 13.019485 35.879997 13.02L 35.620003 13.02L 29.860001 13.84C 29.376032 13.899074 28.939873 14.160769 28.66 14.559999C 28.226463 15.114845 28.151873 15.869987 28.468483 16.498928C 28.785093 17.127869 29.436089 17.51775 30.140001 17.5L 30.379999 17.5L 33.739998 17.02L 33.220001 21.18C 33.126114 22.114641 33.743843 22.972595 34.660004 23.18L 39.040001 24.139999L 36.120003 27.639999C 35.722702 28.086378 35.572838 28.700827 35.720001 29.280001L 36.720001 33.279999L 32.82 32.799999L 32.580002 32.799999C 31.810665 32.796257 31.122078 33.276672 30.860003 34L 29.4 37.82L 26.5 34.919998C 26.156637 34.572922 25.688223 34.378349 25.200001 34.380001C 24.893688 34.384968 24.592613 34.460236 24.32 34.599998L 20.9 36.459999L 20.459999 33.5C 20.288395 32.630123 19.526642 32.002304 18.639999 32L 18.360001 32C 17.395586 32.153748 16.714315 33.027176 16.799999 34L 17.619999 39.580002C 17.730862 40.166107 18.097553 40.672142 18.619999 40.959999C 18.883656 41.080139 19.170267 41.141556 19.459999 41.139999C 19.767624 41.14576 20.071278 41.069847 20.34 40.919998L 24.880001 38.459999L 28.879999 42.459999C 29.233576 42.791592 29.695545 42.983486 30.18 43L 30.58 43C 31.182186 42.842274 31.663792 42.39077 31.860001 41.799999ZM 32.139999 31.200001C 32.418549 30.927679 32.648521 30.609774 32.82 30.26C 32.996082 29.938354 33.130497 29.595598 33.220001 29.24C 33.290886 28.809566 33.290886 28.370434 33.220001 27.940001C 33.124561 27.033476 32.722359 26.186737 32.080002 25.540001L 28.9 22.299999C 27.850178 21.259315 26.311987 20.882458 24.9 21.32L 25.779999 17.82L 23.119999 15.12C 22.866009 14.863756 22.493677 14.7642 22.145691 14.859482C 21.797707 14.954763 21.528027 15.230108 21.439999 15.58L 20.459999 19.58L 16.459999 20.560001C 16.1406 20.666918 15.894574 20.92462 15.80257 21.248631C 15.710567 21.572643 15.784451 21.921183 16 22.18L 18.74 24.880001L 22.26 24C 21.82246 25.411987 22.199316 26.950178 23.24 28L 26.5 31.200001C 28.06015 32.750893 30.579849 32.750893 32.139999 31.200001ZM 16 16.9C 16.395994 16.891384 16.774309 16.734346 17.059999 16.459999C 17.644907 15.874365 17.644907 14.925635 17.060001 14.34L 13.059999 10.34C 12.781425 10.054105 12.399175 9.89286 12 9.89286C 11.600825 9.89286 11.218575 10.054105 10.940001 10.34C 10.355093 10.925635 10.355093 11.874365 10.940001 12.46L 14.940001 16.459999C 15.225691 16.734346 15.604006 16.891384 16 16.9Z"/>
      </g>
    </g>
  </g>
  <g id="g-root-ic_magn_zpnv4c19ubojw-stroke-fill" data-item-order="-2304" transform="translate(488, 278)">
    <g id="ic_magn_zpnv4c19ubojw-fill" stroke="none" fill="#f4f4f4">
      <g>
        <path d="M 13.5 10C 11.567003 10 10 11.567003 10 13.5L 10 54.5C 10 56.431999 11.568 58 13.5 58L 54.5 58C 56.432999 58.000004 58.000004 56.432999 58.000004 54.500004L 58 13.5C 58.000004 11.567003 56.432999 10 54.500004 10L 13.5 10ZM 22.5 48C 22.5 47.171574 23.171574 46.5 24 46.5L 35.375999 46.5C 36.20443 46.5 36.875999 47.171574 36.875999 48C 36.875999 48.828426 36.20443 49.5 35.375999 49.5L 24 49.5C 23.171574 49.5 22.5 48.82843 22.5 48ZM 33.676003 43.001999L 33.676003 28.988001L 30.332001 37.220001C 30.016363 37.995041 29.262848 38.501778 28.426001 38.501778C 27.589155 38.501778 26.835638 37.995041 26.52 37.220001L 23.175999 28.988001L 23.175999 43C 23.176001 43.828426 22.504429 44.5 21.676001 44.5C 20.847572 44.5 20.176001 43.828426 20.176001 43L 20.175999 25.897999C 20.174271 24.750084 20.986946 23.762224 22.113665 23.542637C 23.240383 23.323051 24.36454 23.933443 24.793999 24.997999L 28.426001 33.938L 32.059998 25C 32.4911 23.938196 33.61372 23.330315 34.738525 23.549622C 35.863327 23.76893 36.675358 24.754017 36.675999 25.9L 36.676003 43.004002C 36.676003 43.832428 36.004425 44.504002 35.176003 44.504002C 34.347572 44.504002 33.676003 43.832428 33.676003 43.004002ZM 47.824001 36.348C 47.823383 33.671509 45.653488 31.502115 42.977001 31.502115C 40.300514 31.502115 38.130615 33.671509 38.129997 36.348L 38.129997 39.695999C 38.129936 41.313271 38.936665 42.823986 40.280708 43.723495C 41.624752 44.623005 43.328941 44.79274 44.824001 44.175999C 44.817276 44.938969 44.34185 45.619179 43.627655 45.887669C 42.913456 46.156158 42.10767 45.957588 41.599998 45.388C 41.248161 44.968697 40.695854 44.77433 40.158958 44.880878C 39.622063 44.987423 39.185829 45.377964 39.020767 45.899849C 38.855701 46.421734 38.988022 46.992096 39.366001 47.388C 40.70565 48.885777 42.830685 49.401382 44.707783 48.684101C 46.584881 47.966816 47.824554 46.165474 47.824001 44.156002L 47.824001 39.695999M 47.824001 36.348L 47.824001 39.688ZM 42.976002 34.503998C 43.995998 34.503998 44.824001 35.330002 44.824001 36.348L 44.824001 39.695999C 44.823696 40.715855 43.996857 41.54245 42.976997 41.54245C 41.957142 41.54245 41.130302 40.715855 41.129997 39.695999L 41.129997 36.348C 41.129997 35.327999 41.958 34.503998 42.976002 34.503998Z"/>
      </g>
    </g>
  </g>
  <g id="g-root-tx_theubatu_hx4tak19ulkw5-stroke-fill" data-item-order="0" transform="translate(182, 50)">
    <g id="tx_theubatu_hx4tak19ulkw5-fill" stroke="none" fill="#f4f4f4">
      <g>
        <text style="font: 20px Roboto, sans-serif; white-space: pre;" font-size="20px" font-family="Roboto, sans-serif">
          <tspan x="12.66" y="34" dominant-baseline="ideographic">The Ubatuba Incident: A Timeline of Events and Analysis</tspan>
        </text>
      </g>
    </g>
  </g>
  <g id="g-root-tx_septembe_1urrtqk19uljwu-stroke-fill" data-item-order="0" transform="translate(68, 98)">
    <g id="tx_septembe_1urrtqk19uljwu-fill" stroke="none" fill="#fffbd5">
      <g>
        <text style="font: bold 20px Roboto, sans-serif; white-space: pre;" font-weight="bold" font-size="20px" font-family="Roboto, sans-serif">
          <tspan x="20.52" y="34" dominant-baseline="ideographic">September 14, </tspan>
          <tspan x="106.09" y="58" dominant-baseline="ideographic">1957</tspan>
        </text>
      </g>
    </g>
  </g>
  <g id="g-root-tx_brightob_1hgxsgc19ulibz-stroke-fill" data-item-order="0" transform="translate(44, 158)">
    <g id="tx_brightob_1hgxsgc19ulibz-fill" stroke="none" fill="#fffbd5">
      <g>
        <text style="font: 15px Roboto, sans-serif; white-space: pre;" font-size="15px" font-family="Roboto, sans-serif">
          <tspan x="23.16" y="31" dominant-baseline="ideographic">Bright object descends </tspan>
          <tspan x="54.83" y="49" dominant-baseline="ideographic">and explodes over </tspan>
          <tspan x="119.92" y="67" dominant-baseline="ideographic">Ubatuba</tspan>
        </text>
      </g>
    </g>
  </g>
  <g id="g-root-tx_mid1960s_18las7g19uljwg-stroke-fill" data-item-order="0" transform="translate(104, 266)">
    <g id="tx_mid1960s_18las7g19uljwg-fill" stroke="none" fill="#ffe8f6">
      <g>
        <text style="font: bold 20px Roboto, sans-serif; white-space: pre;" font-weight="bold" font-size="20px" font-family="Roboto, sans-serif">
          <tspan x="17.88" y="34" dominant-baseline="ideographic">Mid-1960s</tspan>
        </text>
      </g>
    </g>
  </g>
  <g id="g-root-tx_sampleno_vagqx819ulibl-stroke-fill" data-item-order="0" transform="translate(32, 302)">
    <g id="tx_sampleno_vagqx819ulibl-fill" stroke="none" fill="#ffe8f6">
      <g>
        <text style="font: 15px Roboto, sans-serif; white-space: pre;" font-size="15px" font-family="Roboto, sans-serif">
          <tspan x="16.7" y="28" dominant-baseline="ideographic">Sample No. 3 analyzed by </tspan>
          <tspan x="58.38" y="46" dominant-baseline="ideographic">Condon Committee</tspan>
        </text>
      </g>
    </g>
  </g>
  <g id="g-root-tx_2016_hz08jw19uljwi-stroke-fill" data-item-order="0" transform="translate(152, 410)">
    <g id="tx_2016_hz08jw19uljwi-fill" stroke="none" fill="#faeeff">
      <g>
        <text style="font: bold 20px Roboto, sans-serif; white-space: pre;" font-weight="bold" font-size="20px" font-family="Roboto, sans-serif">
          <tspan x="22.09" y="34" dominant-baseline="ideographic">2016</tspan>
        </text>
      </g>
    </g>
  </g>
  <g id="g-root-tx_newfragm_4o679o19ulibn-stroke-fill" data-item-order="0" transform="translate(44, 446)">
    <g id="tx_newfragm_4o679o19ulibn-fill" stroke="none" fill="#faeeff">
      <g>
        <text style="font: 15px Roboto, sans-serif; white-space: pre;" font-size="15px" font-family="Roboto, sans-serif">
          <tspan x="16.66" y="28" dominant-baseline="ideographic">New fragments emerge, </tspan>
          <tspan x="73.91" y="46" dominant-baseline="ideographic">analyzed at IPT</tspan>
        </text>
      </g>
    </g>
  </g>
  <g id="g-root-tx_1957_1hi6qmk19ulki4-stroke-fill" data-item-order="0" transform="translate(656, 110)">
    <g id="tx_1957_1hi6qmk19ulki4-fill" stroke="none" fill="#fff0e2">
      <g>
        <text style="font: bold 20px Roboto, sans-serif; white-space: pre;" font-weight="bold" font-size="20px" font-family="Roboto, sans-serif">
          <tspan x="12" y="34" dominant-baseline="ideographic">1957</tspan>
        </text>
      </g>
    </g>
  </g>
  <g id="g-root-tx_ibrahims_147cpcc19ulix9-stroke-fill" data-item-order="0" transform="translate(656, 146)">
    <g id="tx_ibrahims_147cpcc19ulix9-fill" stroke="none" fill="#fff0e2">
      <g>
        <text style="font: 15px Roboto, sans-serif; white-space: pre;" font-size="15px" font-family="Roboto, sans-serif">
          <tspan x="12" y="31" dominant-baseline="ideographic">Ibrahim Sued receives </tspan>
          <tspan x="12" y="49" dominant-baseline="ideographic">anonymous letter with </tspan>
          <tspan x="12" y="67" dominant-baseline="ideographic">fragments</tspan>
        </text>
      </g>
    </g>
  </g>
  <g id="g-root-tx_1957_qvw6z019ulki6-stroke-fill" data-item-order="0" transform="translate(656, 266)">
    <g id="tx_1957_qvw6z019ulki6-fill" stroke="none" fill="#ffe9e8">
      <g>
        <text style="font: bold 20px Roboto, sans-serif; white-space: pre;" font-weight="bold" font-size="20px" font-family="Roboto, sans-serif">
          <tspan x="12" y="34" dominant-baseline="ideographic">1957</tspan>
        </text>
      </g>
    </g>
  </g>
  <g id="g-root-tx_initialb_mgp5xo19uli4n-stroke-fill" data-item-order="0" transform="translate(656, 302)">
    <g id="tx_initialb_mgp5xo19uli4n-fill" stroke="none" fill="#ffe9e8">
      <g>
        <text style="font: 15px Roboto, sans-serif; white-space: pre;" font-size="15px" font-family="Roboto, sans-serif">
          <tspan x="12" y="28" dominant-baseline="ideographic">Initial Brazilian analysis </tspan>
          <tspan x="12" y="46" dominant-baseline="ideographic">confirms pure magnesium</tspan>
        </text>
      </g>
    </g>
  </g>
</svg>
