<?xml version='1.0' encoding='utf-8'?>
<svg xmlns="http://www.w3.org/2000/svg" xmlns:xlink="http://www.w3.org/1999/xlink" width="648" height="564" viewBox="0 0 648 564" style="fill:none;stroke:none;fill-rule:evenodd;clip-rule:evenodd;stroke-linecap:round;stroke-linejoin:round;stroke-miterlimit:1.5;" version="1.1">
  <style class="text-font-style fontImports" data-font-family="Roboto">@import url('https://fonts.googleapis.com/css2?family=Roboto:wght@400;700&amp;display=block');</style>
  <rect x="0" y="0" width="648" height="564" fill="#252a34" stroke="none" id="programmatic_background"/>
  <g id="g-root-tf_dikci419ufwng-stroke-fill" data-item-order="-333720" transform="translate(15, 12)"/>
  <g id="g-root-cp_1_column-1_qn5mx819ufvuw-stroke-fill" data-item-order="-253070" transform="translate(56, 119)">
    <g id="cp_1_column-1_qn5mx819ufvuw-fill" stroke="none" fill="none">
      <g>
        <path d="M 10 13C 10 14.656854 11.343146 16 13 16C 14.656854 16 16 14.656854 16 13C 16 11.343146 14.656854 10 13 10C 11.343146 10 10 11.343146 10 13"/>
      </g>
    </g>
    <g id="cp_1_column-1_qn5mx819ufvuw-stroke" fill="none" stroke-linecap="round" stroke-linejoin="round" stroke-miterlimit="4" stroke="#ffe711" stroke-width="2">
      <g>
        <path d="M 10 13C 10 14.656854 11.343146 16 13 16C 14.656854 16 16 14.656854 16 13C 16 11.343146 14.656854 10 13 10C 11.343146 10 10 11.343146 10 13"/>
      </g>
    </g>
    <g id="cp_1_column-1_qn5mx819ufvuw-stroke" fill="none" stroke-linecap="round" stroke-linejoin="round" stroke-miterlimit="4" stroke="#ffe711" stroke-width="2">
      <g>
        <path d="M 13 16L 13 154"/>
      </g>
    </g>
    <g id="cp_1_column-1_qn5mx819ufvuw-fill" stroke="none" fill="none">
      <g>
        <path d="M 10 157C 10 158.656854 11.343146 160 13 160C 14.656854 160 16 158.656854 16 157C 16 155.343146 14.656854 154 13 154C 11.343146 154 10 155.343146 10 157"/>
      </g>
    </g>
    <g id="cp_1_column-1_qn5mx819ufvuw-stroke" fill="none" stroke-linecap="round" stroke-linejoin="round" stroke-miterlimit="4" stroke="#ffe711" stroke-width="2">
      <g>
        <path d="M 10 157C 10 158.656854 11.343146 160 13 160C 14.656854 160 16 158.656854 16 157C 16 155.343146 14.656854 154 13 154C 11.343146 154 10 155.343146 10 157"/>
      </g>
    </g>
  </g>
  <g id="g-root-cp_3_column-3_dbp4jw19ufxfu-stroke-fill" data-item-order="-253054" transform="translate(236, 155)">
    <g id="cp_3_column-3_dbp4jw19ufxfu-fill" stroke="none" fill="none">
      <g>
        <path d="M 10 13C 10 14.656854 11.343146 16 13 16C 14.656854 16 16 14.656854 16 13C 16 11.343146 14.656854 10 13 10C 11.343146 10 10 11.343146 10 13"/>
      </g>
    </g>
    <g id="cp_3_column-3_dbp4jw19ufxfu-stroke" fill="none" stroke-linecap="round" stroke-linejoin="round" stroke-miterlimit="4" stroke="#fb6762" stroke-width="2">
      <g>
        <path d="M 10 13C 10 14.656854 11.343146 16 13 16C 14.656854 16 16 14.656854 16 13C 16 11.343146 14.656854 10 13 10C 11.343146 10 10 11.343146 10 13"/>
      </g>
    </g>
    <g id="cp_3_column-3_dbp4jw19ufxfu-stroke" fill="none" stroke-linecap="round" stroke-linejoin="round" stroke-miterlimit="4" stroke="#fb6762" stroke-width="2">
      <g>
        <path d="M 13 16L 13 118"/>
      </g>
    </g>
    <g id="cp_3_column-3_dbp4jw19ufxfu-fill" stroke="none" fill="none">
      <g>
        <path d="M 10 121C 10 122.656854 11.343146 124 13 124C 14.656854 124 16 122.656854 16 121C 16 119.343146 14.656854 118 13 118C 11.343146 118 10 119.343146 10 121"/>
      </g>
    </g>
    <g id="cp_3_column-3_dbp4jw19ufxfu-stroke" fill="none" stroke-linecap="round" stroke-linejoin="round" stroke-miterlimit="4" stroke="#fb6762" stroke-width="2">
      <g>
        <path d="M 10 121C 10 122.656854 11.343146 124 13 124C 14.656854 124 16 122.656854 16 121C 16 119.343146 14.656854 118 13 118C 11.343146 118 10 119.343146 10 121"/>
      </g>
    </g>
  </g>
  <g id="g-root-cp_5_column-5_8vvmfg19ufy84-stroke-fill" data-item-order="-253038" transform="translate(416, 155)">
    <g id="cp_5_column-5_8vvmfg19ufy84-fill" stroke="none" fill="none">
      <g>
        <path d="M 10 13C 10 14.656854 11.343146 16 13 16C 14.656854 16 16 14.656854 16 13C 16 11.343146 14.656854 10 13 10C 11.343146 10 10 11.343146 10 13"/>
      </g>
    </g>
    <g id="cp_5_column-5_8vvmfg19ufy84-stroke" fill="none" stroke-linecap="round" stroke-linejoin="round" stroke-miterlimit="4" stroke="#cb68f9" stroke-width="2">
      <g>
        <path d="M 10 13C 10 14.656854 11.343146 16 13 16C 14.656854 16 16 14.656854 16 13C 16 11.343146 14.656854 10 13 10C 11.343146 10 10 11.343146 10 13"/>
      </g>
    </g>
    <g id="cp_5_column-5_8vvmfg19ufy84-stroke" fill="none" stroke-linecap="round" stroke-linejoin="round" stroke-miterlimit="4" stroke="#cb68f9" stroke-width="2">
      <g>
        <path d="M 13 16L 13 118"/>
      </g>
    </g>
    <g id="cp_5_column-5_8vvmfg19ufy84-fill" stroke="none" fill="none">
      <g>
        <path d="M 10 121C 10 122.656854 11.343146 124 13 124C 14.656854 124 16 122.656854 16 121C 16 119.343146 14.656854 118 13 118C 11.343146 118 10 119.343146 10 121"/>
      </g>
    </g>
    <g id="cp_5_column-5_8vvmfg19ufy84-stroke" fill="none" stroke-linecap="round" stroke-linejoin="round" stroke-miterlimit="4" stroke="#cb68f9" stroke-width="2">
      <g>
        <path d="M 10 121C 10 122.656854 11.343146 124 13 124C 14.656854 124 16 122.656854 16 121C 16 119.343146 14.656854 118 13 118C 11.343146 118 10 119.343146 10 121"/>
      </g>
    </g>
  </g>
  <g id="g-root-cp_1_g-1_v39o19ufvv2-stroke-fill" data-item-order="-253020" transform="translate(59, 278)">
    <g id="cp_1_g-1_v39o19ufvv2-fill" stroke="none" fill="none">
      <g>
        <path d="M 76 10L 10 10L 28 46L 10 82L 76 82L 94 46L 76 10Z"/>
      </g>
    </g>
    <g id="cp_1_g-1_v39o19ufvv2-stroke" fill="none" stroke-linecap="round" stroke-linejoin="round" stroke-miterlimit="4" stroke="#ffe711" stroke-width="2">
      <g>
        <path d="M 76 10L 10 10L 28 46L 10 82L 76 82L 94 46L 76 10Z"/>
      </g>
    </g>
  </g>
  <g id="g-root-cp_2_g-2_1q6c4zw19ufx8g-stroke-fill" data-item-order="-253012" transform="translate(149, 278)">
    <g id="cp_2_g-2_1q6c4zw19ufx8g-fill" stroke="none" fill="none">
      <g>
        <path d="M 76 10L 10 10L 28 46L 10 82L 76 82L 94 46L 76 10Z"/>
      </g>
    </g>
    <g id="cp_2_g-2_1q6c4zw19ufx8g-stroke" fill="none" stroke-linecap="round" stroke-linejoin="round" stroke-miterlimit="4" stroke="#f79438" stroke-width="2">
      <g>
        <path d="M 76 10L 10 10L 28 46L 10 82L 76 82L 94 46L 76 10Z"/>
      </g>
    </g>
  </g>
  <g id="g-root-cp_3_g-3_1hap4r019ufy16-stroke-fill" data-item-order="-253006" transform="translate(239, 278)">
    <g id="cp_3_g-3_1hap4r019ufy16-fill" stroke="none" fill="none">
      <g>
        <path d="M 76 10L 10 10L 28 46L 10 82L 76 82L 94 46L 76 10Z"/>
      </g>
    </g>
    <g id="cp_3_g-3_1hap4r019ufy16-stroke" fill="none" stroke-linecap="round" stroke-linejoin="round" stroke-miterlimit="4" stroke="#fb6762" stroke-width="2">
      <g>
        <path d="M 76 10L 10 10L 28 46L 10 82L 76 82L 94 46L 76 10Z"/>
      </g>
    </g>
  </g>
  <g id="g-root-cp_4_g-4_13zv3gs19ufwgc-stroke-fill" data-item-order="-253000" transform="translate(329, 278)">
    <g id="cp_4_g-4_13zv3gs19ufwgc-fill" stroke="none" fill="none">
      <g>
        <path d="M 76 10L 10 10L 28 46L 10 82L 76 82L 94 46L 76 10Z"/>
      </g>
    </g>
    <g id="cp_4_g-4_13zv3gs19ufwgc-stroke" fill="none" stroke-linecap="round" stroke-linejoin="round" stroke-miterlimit="4" stroke="#f366bb" stroke-width="2">
      <g>
        <path d="M 76 10L 10 10L 28 46L 10 82L 76 82L 94 46L 76 10Z"/>
      </g>
    </g>
  </g>
  <g id="g-root-cp_5_g-5_zk1lcc19ufx8m-stroke-fill" data-item-order="-252994" transform="translate(419, 278)">
    <g id="cp_5_g-5_zk1lcc19ufx8m-fill" stroke="none" fill="none">
      <g>
        <path d="M 76 10L 10 10L 28 46L 10 82L 76 82L 94 46L 76 10Z"/>
      </g>
    </g>
    <g id="cp_5_g-5_zk1lcc19ufx8m-stroke" fill="none" stroke-linecap="round" stroke-linejoin="round" stroke-miterlimit="4" stroke="#cb68f9" stroke-width="2">
      <g>
        <path d="M 76 10L 10 10L 28 46L 10 82L 76 82L 94 46L 76 10Z"/>
      </g>
    </g>
  </g>
  <g id="g-root-cp_2_column-2_v4837w19ufy0w-stroke-fill" data-item-order="-252986" transform="translate(146, 359)">
    <g id="cp_2_column-2_v4837w19ufy0w-fill" stroke="none" fill="none">
      <g>
        <path d="M 10 13C 10 14.656854 11.343146 16 13 16C 14.656854 16 16 14.656854 16 13C 16 11.343146 14.656854 10 13 10C 11.343146 10 10 11.343146 10 13"/>
      </g>
    </g>
    <g id="cp_2_column-2_v4837w19ufy0w-stroke" fill="none" stroke-linecap="round" stroke-linejoin="round" stroke-miterlimit="4" stroke="#f79438" stroke-width="2">
      <g>
        <path d="M 10 13C 10 14.656854 11.343146 16 13 16C 14.656854 16 16 14.656854 16 13C 16 11.343146 14.656854 10 13 10C 11.343146 10 10 11.343146 10 13"/>
      </g>
    </g>
    <g id="cp_2_column-2_v4837w19ufy0w-stroke" fill="none" stroke-linecap="round" stroke-linejoin="round" stroke-miterlimit="4" stroke="#f79438" stroke-width="2">
      <g>
        <path d="M 13 16L 13 118"/>
      </g>
    </g>
    <g id="cp_2_column-2_v4837w19ufy0w-fill" stroke="none" fill="none">
      <g>
        <path d="M 10 121C 10 122.656854 11.343146 124 13 124C 14.656854 124 16 122.656854 16 121C 16 119.343146 14.656854 118 13 118C 11.343146 118 10 119.343146 10 121"/>
      </g>
    </g>
    <g id="cp_2_column-2_v4837w19ufy0w-stroke" fill="none" stroke-linecap="round" stroke-linejoin="round" stroke-miterlimit="4" stroke="#f79438" stroke-width="2">
      <g>
        <path d="M 10 121C 10 122.656854 11.343146 124 13 124C 14.656854 124 16 122.656854 16 121C 16 119.343146 14.656854 118 13 118C 11.343146 118 10 119.343146 10 121"/>
      </g>
    </g>
  </g>
  <g id="g-root-cp_4_column-4_m97k2419ufvnu-stroke-fill" data-item-order="-252970" transform="translate(326, 359)">
    <g id="cp_4_column-4_m97k2419ufvnu-fill" stroke="none" fill="none">
      <g>
        <path d="M 10 13C 10 14.656854 11.343146 16 13 16C 14.656854 16 16 14.656854 16 13C 16 11.343146 14.656854 10 13 10C 11.343146 10 10 11.343146 10 13"/>
      </g>
    </g>
    <g id="cp_4_column-4_m97k2419ufvnu-stroke" fill="none" stroke-linecap="round" stroke-linejoin="round" stroke-miterlimit="4" stroke="#f366bb" stroke-width="2">
      <g>
        <path d="M 10 13C 10 14.656854 11.343146 16 13 16C 14.656854 16 16 14.656854 16 13C 16 11.343146 14.656854 10 13 10C 11.343146 10 10 11.343146 10 13"/>
      </g>
    </g>
    <g id="cp_4_column-4_m97k2419ufvnu-stroke" fill="none" stroke-linecap="round" stroke-linejoin="round" stroke-miterlimit="4" stroke="#f366bb" stroke-width="2">
      <g>
        <path d="M 13.000002 16L 13.000002 118"/>
      </g>
    </g>
    <g id="cp_4_column-4_m97k2419ufvnu-fill" stroke="none" fill="none">
      <g>
        <path d="M 10 121C 10 122.656854 11.343146 124 13 124C 14.656854 124 16 122.656854 16 121C 16 119.343146 14.656854 118 13 118C 11.343146 118 10 119.343146 10 121"/>
      </g>
    </g>
    <g id="cp_4_column-4_m97k2419ufvnu-stroke" fill="none" stroke-linecap="round" stroke-linejoin="round" stroke-miterlimit="4" stroke="#f366bb" stroke-width="2">
      <g>
        <path d="M 10 121C 10 122.656854 11.343146 124 13 124C 14.656854 124 16 122.656854 16 121C 16 119.343146 14.656854 118 13 118C 11.343146 118 10 119.343146 10 121"/>
      </g>
    </g>
  </g>
  <g id="g-root-tx_theubatu_8xr1os19ufx8s-stroke-fill" data-item-order="0" transform="translate(62, 50)">
    <g id="tx_theubatu_8xr1os19ufx8s-fill" stroke="none" fill="#f4f4f4">
      <g>
        <text style="font: 20px Roboto, sans-serif; white-space: pre;" font-size="20px" font-family="Roboto, sans-serif">
          <tspan x="12.66" y="34" dominant-baseline="ideographic">The Ubatuba Incident: A Timeline of Events and Analysis</tspan>
        </text>
      </g>
    </g>
  </g>
  <g id="g-root-tx_septembe_1q87k9819ufw91-stroke-fill" data-item-order="0" transform="translate(71, 122)">
    <g id="tx_septembe_1q87k9819ufw91-fill" stroke="none" fill="#ffe711">
      <g>
        <text style="font: bold 20px Roboto, sans-serif; white-space: pre;" font-weight="bold" font-size="20px" font-family="Roboto, sans-serif">
          <tspan x="12" y="34" dominant-baseline="ideographic">September 14, </tspan>
          <tspan x="12" y="58" dominant-baseline="ideographic">1957</tspan>
        </text>
      </g>
    </g>
  </g>
  <g id="g-root-tx_brightob_1cwr1vw19ufxty-stroke-fill" data-item-order="0" transform="translate(71, 182)">
    <g id="tx_brightob_1cwr1vw19ufxty-fill" stroke="none" fill="#f4f4f4">
      <g>
        <text style="font: 15px Roboto, sans-serif; white-space: pre;" font-size="15px" font-family="Roboto, sans-serif">
          <tspan x="12" y="28" dominant-baseline="ideographic">Bright object </tspan>
          <tspan x="12" y="46" dominant-baseline="ideographic">descends and </tspan>
          <tspan x="12" y="64" dominant-baseline="ideographic">explodes over </tspan>
          <tspan x="12" y="82" dominant-baseline="ideographic">Ubatuba</tspan>
        </text>
      </g>
    </g>
  </g>
  <g id="g-root-tx_1957_zlx0lo19ufw93-stroke-fill" data-item-order="0" transform="translate(251, 158)">
    <g id="tx_1957_zlx0lo19ufw93-fill" stroke="none" fill="#fb6762">
      <g>
        <text style="font: bold 20px Roboto, sans-serif; white-space: pre;" font-weight="bold" font-size="20px" font-family="Roboto, sans-serif">
          <tspan x="12" y="34" dominant-baseline="ideographic">1957</tspan>
        </text>
      </g>
    </g>
  </g>
  <g id="g-root-tx_initialb_magi8c19ufxu0-stroke-fill" data-item-order="0" transform="translate(251, 194)">
    <g id="tx_initialb_magi8c19ufxu0-fill" stroke="none" fill="#f4f4f4">
      <g>
        <text style="font: 15px Roboto, sans-serif; white-space: pre;" font-size="15px" font-family="Roboto, sans-serif">
          <tspan x="12" y="31" dominant-baseline="ideographic">Initial Brazilian </tspan>
          <tspan x="12" y="49" dominant-baseline="ideographic">analysis confirms </tspan>
          <tspan x="12" y="67" dominant-baseline="ideographic">pure magnesium</tspan>
        </text>
      </g>
    </g>
  </g>
  <g id="g-root-tx_2016_8zmgy419ufw95-stroke-fill" data-item-order="0" transform="translate(431, 158)">
    <g id="tx_2016_8zmgy419ufw95-fill" stroke="none" fill="#cb68f9">
      <g>
        <text style="font: bold 20px Roboto, sans-serif; white-space: pre;" font-weight="bold" font-size="20px" font-family="Roboto, sans-serif">
          <tspan x="12" y="34" dominant-baseline="ideographic">2016</tspan>
        </text>
      </g>
    </g>
  </g>
  <g id="g-root-tx_newfragm_1upa0jw19ufxmy-stroke-fill" data-item-order="0" transform="translate(431, 194)">
    <g id="tx_newfragm_1upa0jw19ufxmy-fill" stroke="none" fill="#f4f4f4">
      <g>
        <text style="font: 15px Roboto, sans-serif; white-space: pre;" font-size="15px" font-family="Roboto, sans-serif">
          <tspan x="12" y="31" dominant-baseline="ideographic">New fragments </tspan>
          <tspan x="12" y="49" dominant-baseline="ideographic">emerge, analyzed at </tspan>
          <tspan x="12" y="67" dominant-baseline="ideographic">IPT</tspan>
        </text>
      </g>
    </g>
  </g>
  <g id="g-root-tx_1957_1cymh5819ufwub-stroke-fill" data-item-order="0" transform="translate(161, 374)">
    <g id="tx_1957_1cymh5819ufwub-fill" stroke="none" fill="#f79438">
      <g>
        <text style="font: bold 20px Roboto, sans-serif; white-space: pre;" font-weight="bold" font-size="20px" font-family="Roboto, sans-serif">
          <tspan x="12" y="34" dominant-baseline="ideographic">1957</tspan>
        </text>
      </g>
    </g>
  </g>
  <g id="g-root-tx_ibrahims_zn5yrw19ufyf8-stroke-fill" data-item-order="0" transform="translate(161, 410)">
    <g id="tx_ibrahims_zn5yrw19ufyf8-fill" stroke="none" fill="#f4f4f4">
      <g>
        <text style="font: 15px Roboto, sans-serif; white-space: pre;" font-size="15px" font-family="Roboto, sans-serif">
          <tspan x="12" y="31" dominant-baseline="ideographic">Ibrahim Sued </tspan>
          <tspan x="12" y="49" dominant-baseline="ideographic">receives anonymous </tspan>
          <tspan x="12" y="67" dominant-baseline="ideographic">letter with fragments</tspan>
        </text>
      </g>
    </g>
  </g>
  <g id="g-root-tx_mid1960s_mcbxho19ufwud-stroke-fill" data-item-order="0" transform="translate(341, 374)">
    <g id="tx_mid1960s_mcbxho19ufwud-fill" stroke="none" fill="#f366bb">
      <g>
        <text style="font: bold 20px Roboto, sans-serif; white-space: pre;" font-weight="bold" font-size="20px" font-family="Roboto, sans-serif">
          <tspan x="12" y="34" dominant-baseline="ideographic">Mid-1960s</tspan>
        </text>
      </g>
    </g>
  </g>
  <g id="g-root-tx_sampleno_90vf4c19ufyfa-stroke-fill" data-item-order="0" transform="translate(341, 410)">
    <g id="tx_sampleno_90vf4c19ufyfa-fill" stroke="none" fill="#f4f4f4">
      <g>
        <text style="font: 15px Roboto, sans-serif; white-space: pre;" font-size="15px" font-family="Roboto, sans-serif">
          <tspan x="12" y="31" dominant-baseline="ideographic">Sample No. 3 </tspan>
          <tspan x="12" y="49" dominant-baseline="ideographic">analyzed by Condon </tspan>
          <tspan x="12" y="67" dominant-baseline="ideographic">Committee</tspan>
        </text>
      </g>
    </g>
    <defs>
      <pattern id="crawlingPattern-0000001b" x="0" y="0" width="12" height="12" patternUnits="userSpaceOnUse" fill="#0000001b">
        <use href="#crawlingSymbol"/>
      </pattern>
      <symbol id="crawlingSymbol">
        <g>
          <path d="M -12.5 12.5 l 13 -13 l 6 0 l -13 13 Z M -0.5 12.5 l 13 -13 l 6 0 l -13 13 Z M 11.5 12.5 l 13 -13 l 6 0 l -13 13 Z"/>
        </g>
      </symbol>
      <pattern id="crawlingPattern-ddc700ff" x="0" y="0" width="12" height="12" patternUnits="userSpaceOnUse" fill="#ddc700ff">
        <use href="#crawlingSymbol"/>
      </pattern>
      <pattern id="crawlingPattern-f9080081" x="0" y="0" width="12" height="12" patternUnits="userSpaceOnUse" fill="#f9080081">
        <use href="#crawlingSymbol"/>
      </pattern>
      <pattern id="crawlingPattern-a700f578" x="0" y="0" width="12" height="12" patternUnits="userSpaceOnUse" fill="#a700f578">
        <use href="#crawlingSymbol"/>
      </pattern>
      <pattern id="crawlingPattern-f17400d3" x="0" y="0" width="12" height="12" patternUnits="userSpaceOnUse" fill="#f17400d3">
        <use href="#crawlingSymbol"/>
      </pattern>
      <pattern id="crawlingPattern-eb008e76" x="0" y="0" width="12" height="12" patternUnits="userSpaceOnUse" fill="#eb008e76">
        <use href="#crawlingSymbol"/>
      </pattern>
    </defs>
  </g>
</svg>
