<?xml version='1.0' encoding='utf-8'?>
<svg xmlns="http://www.w3.org/2000/svg" xmlns:xlink="http://www.w3.org/1999/xlink" width="1080" height="708" viewBox="0 0 1080 708" style="fill:none;stroke:none;fill-rule:evenodd;clip-rule:evenodd;stroke-linecap:round;stroke-linejoin:round;stroke-miterlimit:1.5;" version="1.1">
  <style class="text-font-style fontImports" data-font-family="Roboto">@import url('https://fonts.googleapis.com/css2?family=Roboto:wght@400;700&amp;display=block');</style>
  <rect x="0" y="0" width="1.08E+3" height="708" fill="#252a34" stroke="none" id="programmatic_background"/>
  <g id="g-root-tf_hvw1gc1a473lt-stroke-fill" data-item-order="-714096" transform="translate(18, 12)"/>
  <g id="g-root-sy_4_cu_qriyjg1a4joxt-stroke-fill" data-item-order="-317369" transform="translate(608, 386)">
    <g id="sy_4_cu_qriyjg1a4joxt-stroke" fill="none" stroke-linecap="round" stroke-linejoin="round" stroke-miterlimit="4" stroke="#cb68f9" stroke-width="2">
      <g>
        <path d="M 33.850586 154.000488L 45.850586 154.000488M 58.200195 70L 70.200195 70M 87.9997 10L 21.9997 238L 10 238"/>
      </g>
    </g>
  </g>
  <g id="g-root-sy_3_cu_dg2g641a4jqiq-stroke-fill" data-item-order="-317365" transform="translate(608, 158.00048828125)">
    <g id="sy_3_cu_dg2g641a4jqiq-stroke" fill="none" stroke-linecap="round" stroke-linejoin="round" stroke-miterlimit="4" stroke="#43dd93" stroke-width="2">
      <g>
        <path d="M 33.84668 93.999512L 45.84668 93.999512M 58.195313 177.999512L 70.195313 177.999512M 87.9997 238L 21.9997 10L 10 10"/>
      </g>
    </g>
  </g>
  <g id="g-root-sy_2_cu_4kffx81a4jrbf-stroke-fill" data-item-order="-317361" transform="translate(296, 385.99951171875)">
    <g id="sy_2_cu_4kffx81a4jrbf-stroke" fill="none" stroke-linecap="round" stroke-linejoin="round" stroke-miterlimit="4" stroke="#fb6762" stroke-width="2">
      <g>
        <path d="M 33.851563 154.000488L 45.851563 154.000488M 58.200195 70.000488L 70.200195 70.000488M 87.9997 10L 21.9997 238L 10 238"/>
      </g>
    </g>
  </g>
  <g id="g-root-sy_1_cu_58evw1a4joxw-stroke-fill" data-item-order="-317357" transform="translate(296, 158.00048828125)">
    <g id="sy_1_cu_58evw1a4joxw-stroke" fill="none" stroke-linecap="round" stroke-linejoin="round" stroke-miterlimit="4" stroke="#b7b7b7" stroke-width="2">
      <g>
        <path d="M 33.851563 93.999512L 45.851563 93.999512M 58.200195 177.999512L 70.200195 177.999512M 87.9997 238L 21.9997 10L 10 10"/>
      </g>
    </g>
  </g>
  <g id="g-root-sy_-1_line_58evw1a4joxx-stroke-fill" data-item-order="-317351" transform="translate(32, 386)">
    <g id="sy_-1_line_58evw1a4joxx-stroke" fill="none" stroke-linecap="round" stroke-linejoin="round" stroke-miterlimit="4" stroke="#f4f4f4" stroke-width="2">
      <g>
        <path d="M 704 10L 10 10"/>
        <path d="M 698 16.5L 704.5 10L 698 3.5" stroke-dasharray="none"/>
      </g>
    </g>
  </g>
  <g id="g-root-tx_theummoa_1qapgm41a4jpji-stroke-fill" data-item-order="0" transform="translate(800, 362)">
    <g id="tx_theummoa_1qapgm41a4jpji-fill" stroke="none" fill="#f4f4f4">
      <g>
        <text style="font: 20px Roboto, sans-serif; white-space: pre;" font-size="20px" font-family="Roboto, sans-serif">
          <tspan x="12" y="34" dominant-baseline="ideographic">The Ummo Affair's True </tspan>
          <tspan x="12" y="58" dominant-baseline="ideographic">Nature</tspan>
        </text>
      </g>
    </g>
  </g>
  <g id="g-root-tx_narrativ_18k1x7g1a4joqv-stroke-fill" data-item-order="0" transform="translate(476, 434)">
    <g id="tx_narrativ_18k1x7g1a4joqv-fill" stroke="none" fill="#f4f4f4">
      <g>
        <text style="font: 20px Roboto, sans-serif; white-space: pre;" font-size="20px" font-family="Roboto, sans-serif">
          <tspan x="15.31" y="34" dominant-baseline="ideographic">Narrative Creation</tspan>
        </text>
      </g>
    </g>
  </g>
  <g id="g-root-tx_psycholo_1448f301a4jpj4-stroke-fill" data-item-order="0" transform="translate(416, 518)">
    <g id="tx_psycholo_1448f301a4jpj4-fill" stroke="none" fill="#f4f4f4">
      <g>
        <text style="font: 20px Roboto, sans-serif; white-space: pre;" font-size="20px" font-family="Roboto, sans-serif">
          <tspan x="16.38" y="34" dominant-baseline="ideographic">Psychological Factors</tspan>
        </text>
      </g>
    </g>
  </g>
  <g id="g-root-tx_motivati_qsrwpo1a4jr41-stroke-fill" data-item-order="0" transform="translate(344, 590)">
    <g id="tx_motivati_qsrwpo1a4jr41-fill" stroke="none" fill="#f4f4f4">
      <g>
        <text style="font: 20px Roboto, sans-serif; white-space: pre;" font-size="20px" font-family="Roboto, sans-serif">
          <tspan x="19.77" y="34" dominant-baseline="ideographic">Motivations Behind the </tspan>
          <tspan x="177.52" y="58" dominant-baseline="ideographic">Hoax</tspan>
        </text>
      </g>
    </g>
  </g>
  <g id="g-root-tx_noveltya_hxrdjw1a4joqy-stroke-fill" data-item-order="0" transform="translate(452, 314)">
    <g id="tx_noveltya_hxrdjw1a4joqy-fill" stroke="none" fill="#f4f4f4">
      <g>
        <text style="font: 20px Roboto, sans-serif; white-space: pre;" font-size="20px" font-family="Roboto, sans-serif">
          <tspan x="17.8" y="34" dominant-baseline="ideographic">Novelty Assessment</tspan>
        </text>
      </g>
    </g>
  </g>
  <g id="g-root-tx_accuracy_dhxvfg1a4jpj7-stroke-fill" data-item-order="0" transform="translate(500, 218)">
    <g id="tx_accuracy_dhxvfg1a4jpj7-fill" stroke="none" fill="#f4f4f4">
      <g>
        <text style="font: 20px Roboto, sans-serif; white-space: pre;" font-size="20px" font-family="Roboto, sans-serif">
          <tspan x="22.47" y="34" dominant-baseline="ideographic">Accuracy of </tspan>
          <tspan x="24.09" y="58" dominant-baseline="ideographic">Information</tspan>
        </text>
      </g>
    </g>
  </g>
  <g id="g-root-tx_scientif_6hd241a4jr44-stroke-fill" data-item-order="0" transform="translate(404, 146)">
    <g id="tx_scientif_6hd241a4jr44-fill" stroke="none" fill="#f4f4f4">
      <g>
        <text style="font: 20px Roboto, sans-serif; white-space: pre;" font-size="20px" font-family="Roboto, sans-serif">
          <tspan x="15.73" y="34" dominant-baseline="ideographic">Scientific Claims</tspan>
        </text>
      </g>
    </g>
  </g>
  <g id="g-root-tx_anonymou_1qbyesc1a4jrpp-stroke-fill" data-item-order="0" transform="translate(212, 422)">
    <g id="tx_anonymou_1qbyesc1a4jrpp-fill" stroke="none" fill="#f4f4f4">
      <g>
        <text style="font: 20px Roboto, sans-serif; white-space: pre;" font-size="20px" font-family="Roboto, sans-serif">
          <tspan x="21.69" y="34" dominant-baseline="ideographic">Anonymous </tspan>
          <tspan x="20.58" y="58" dominant-baseline="ideographic">Participants</tspan>
        </text>
      </g>
    </g>
  </g>
  <g id="g-root-tx_jordanpe_18lavdo1a4jqx2-stroke-fill" data-item-order="0" transform="translate(128, 518)">
    <g id="tx_jordanpe_18lavdo1a4jqx2-fill" stroke="none" fill="#f4f4f4">
      <g>
        <text style="font: 20px Roboto, sans-serif; white-space: pre;" font-size="20px" font-family="Roboto, sans-serif">
          <tspan x="11.95" y="34" dominant-baseline="ideographic">Jordan Peña's Hoax</tspan>
        </text>
      </g>
    </g>
  </g>
  <g id="g-root-tx_witnessc_zpnv4s1a4jrpr-stroke-fill" data-item-order="0" transform="translate(56, 602)">
    <g id="tx_witnessc_zpnv4s1a4jrpr-fill" stroke="none" fill="#f4f4f4">
      <g>
        <text style="font: 20px Roboto, sans-serif; white-space: pre;" font-size="20px" font-family="Roboto, sans-serif">
          <tspan x="12.52" y="34" dominant-baseline="ideographic">Witness Confessions</tspan>
        </text>
      </g>
    </g>
  </g>
  <g id="g-root-tx_symbolsi_qunbz01a4jq4g-stroke-fill" data-item-order="0" transform="translate(152, 314)">
    <g id="tx_symbolsi_qunbz01a4jq4g-fill" stroke="none" fill="#f4f4f4">
      <g>
        <text style="font: 20px Roboto, sans-serif; white-space: pre;" font-size="20px" font-family="Roboto, sans-serif">
          <tspan x="17.8" y="34" dominant-baseline="ideographic">Symbol Similarities</tspan>
        </text>
      </g>
    </g>
  </g>
  <g id="g-root-tx_scratcho_hz0bq41a4jqx5-stroke-fill" data-item-order="0" transform="translate(116, 230)">
    <g id="tx_scratcho_hz0bq41a4jqx5-fill" stroke="none" fill="#f4f4f4">
      <g>
        <text style="font: 20px Roboto, sans-serif; white-space: pre;" font-size="20px" font-family="Roboto, sans-serif">
          <tspan x="21.42" y="34" dominant-baseline="ideographic">Scratch on Negative</tspan>
        </text>
      </g>
    </g>
  </g>
  <g id="g-root-tx_photogra_4o6afw1a4jpca-stroke-fill" data-item-order="0" transform="translate(32, 146)">
    <g id="tx_photogra_4o6afw1a4jpca-fill" stroke="none" fill="#f4f4f4">
      <g>
        <text style="font: 20px Roboto, sans-serif; white-space: pre;" font-size="20px" font-family="Roboto, sans-serif">
          <tspan x="20.5" y="34" dominant-baseline="ideographic">Photographic Evidence</tspan>
        </text>
      </g>
    </g>
  </g>
  <g id="g-root-tx_analyzin_8csbg1a4jq4j-stroke-fill" data-item-order="0" transform="translate(326, 50)">
    <g id="tx_analyzin_8csbg1a4jq4j-fill" stroke="none" fill="#f4f4f4">
      <g>
        <text style="font: 20px Roboto, sans-serif; white-space: pre;" font-size="20px" font-family="Roboto, sans-serif">
          <tspan x="12.14" y="34" dominant-baseline="ideographic">Analyzing the Ummo Affair: Hoax or Reality?</tspan>
        </text>
      </g>
    </g>
    <defs>
      <pattern id="crawlingPattern-0000001b" x="0" y="0" width="12" height="12" patternUnits="userSpaceOnUse" fill="#0000001b">
        <use href="#crawlingSymbol"/>
      </pattern>
      <symbol id="crawlingSymbol">
        <g>
          <path d="M -12.5 12.5 l 13 -13 l 6 0 l -13 13 Z M -0.5 12.5 l 13 -13 l 6 0 l -13 13 Z M 11.5 12.5 l 13 -13 l 6 0 l -13 13 Z"/>
        </g>
      </symbol>
    </defs>
  </g>
  <g id="g-root-ic_came_1ly0bx81a4jric-stroke-fill" data-item-order="0" transform="translate(260, 140)">
    <g id="ic_came_1ly0bx81a4jric-stroke" fill="none" stroke-linecap="round" stroke-linejoin="round" stroke-miterlimit="4" stroke="#f4f4f4" stroke-width="2">
      <g>
        <path d="M 16.75 22C 16.75 28.213203 21.786797 33.25 28.000002 33.25C 34.213203 33.25 39.25 28.213203 39.25 22C 39.25 15.786798 34.213203 10.750001 28.000002 10.750001C 21.786797 10.750001 16.75 15.786798 16.75 22M 21.25 22C 21.25 25.727921 24.272079 28.75 28 28.75C 31.727921 28.75 34.75 25.727921 34.75 22C 34.75 18.272078 31.727921 15.25 28 15.25C 24.272079 15.25 21.25 18.272078 21.25 22M 28 18.25C 30.071068 18.25 31.75 19.928932 31.75 22M 28.900002 37.09L 28.900002 37.09C 27.243147 37.09 25.900002 38.433147 25.900002 40.09L 25.900002 43.09M 25.84 43.209999C 25.839781 44.336815 26.753183 45.250397 27.880001 45.250397C 29.006817 45.250397 29.920219 44.336815 29.92 43.209999C 29.920219 42.083183 29.006817 41.169601 27.880001 41.169601C 26.753183 41.169601 25.839781 42.083183 25.84 43.209999M 18.67 38.605C 18.903749 37.713699 19.713608 37.095486 20.635 37.105C 21.761816 37.104778 22.6754 38.018185 22.6754 39.145C 22.6754 40.271816 21.761816 41.185219 20.635 41.184998C 21.693945 41.181736 22.579315 41.989269 22.673244 43.044044C 22.767172 44.09882 22.038422 45.050087 20.995565 45.233994C 19.952707 45.417896 18.942528 44.773277 18.67 43.75M 37 43.209999C 37.000221 44.336815 36.086815 45.250397 34.959999 45.250397C 33.833183 45.250397 32.919781 44.336815 32.919998 43.209999L 32.919998 39.130001C 32.919781 38.003181 33.833183 37.0896 34.959999 37.0896C 36.086815 37.0896 37.000221 38.003181 37 39.130001ZM 41.5 28.255001C 43.855 29.755001 45.264999 31.585001 45.264999 33.625C 45.264999 35.665001 43.689999 37.735001 41.095001 39.25M 14.92 39.25C 12.325 37.735001 10.75 35.77 10.75 33.625C 10.75 31.48 12.16 29.724998 14.5 28.255001M 41.5 35.59L 40.75 39.25L 44.5 40.09M 37.375 34.09C 37.582108 34.09 37.75 34.257893 37.75 34.465M 37 34.465C 37 34.257893 37.167892 34.09 37.375 34.09M 37.375 34.84C 37.167892 34.84 37 34.672104 37 34.465M 37.75 34.465C 37.75 34.672104 37.582108 34.84 37.375 34.84"/>
      </g>
    </g>
  </g>
  <g id="g-root-ic_comm_mg2s0s1a4l5ot-stroke-fill" data-item-order="0" transform="translate(260, 596)">
    <g id="ic_comm_mg2s0s1a4l5ot-stroke" fill="none" stroke-linecap="round" stroke-linejoin="round" stroke-miterlimit="4" stroke="#f4f4f4" stroke-width="2">
      <g>
        <path d="M 10.75 28C 10.75 37.526913 18.473087 45.25 28 45.25C 37.526913 45.25 45.25 37.526913 45.25 28C 45.25 18.473087 37.526913 10.75 28 10.75C 18.473087 10.75 10.75 18.473087 10.75 28M 25.585001 23.619999C 24.667284 22.604948 23.368288 22.017952 22 22C 18.901951 22.224337 16.561108 24.899586 16.75 28C 16.561108 31.100414 18.901951 33.775661 22 34C 23.368288 33.982048 24.667284 33.395054 25.585001 32.380001M 37.584999 23.619999C 36.667286 22.604948 35.368286 22.017952 34 22C 30.901951 22.224337 28.561108 24.899586 28.75 28C 28.561108 31.100414 30.901951 33.775661 34 34C 35.368286 33.982048 36.667286 33.395054 37.584999 32.380001"/>
      </g>
    </g>
  </g>
  <g id="g-root-ic_chem_hv9kd81a41gqu-stroke-fill" data-item-order="0" transform="translate(572, 140)">
    <g id="ic_chem_hv9kd81a41gqu-stroke" fill="none" stroke-linecap="round" stroke-linejoin="round" stroke-miterlimit="4" stroke="#f4f4f4" stroke-width="2">
      <g>
        <path d="M 10.75 16.75L 40.75 16.75M 14.875 13.375C 14.667893 13.375 14.5 13.542893 14.5 13.75C 14.5 13.957107 14.667893 14.125 14.875 14.125C 15.082107 14.125 15.25 13.957107 15.25 13.75C 15.25 13.542893 15.082107 13.375 14.875 13.375L 14.875 13.375M 18.625 13.375C 18.417892 13.375 18.25 13.542893 18.25 13.75C 18.25 13.957107 18.417892 14.125 18.625 14.125C 18.832108 14.125 19 13.957107 19 13.75C 19 13.542893 18.832108 13.375 18.625 13.375L 18.625 13.375M 22.375 13.375C 22.167892 13.375 22 13.542893 22 13.75C 22 13.957107 22.167892 14.125 22.375 14.125C 22.582108 14.125 22.75 13.957107 22.75 13.75C 22.75 13.542893 22.582108 13.375 22.375 13.375L 22.375 13.375M 25 33.25L 13.75 33.25C 12.093145 33.25 10.75 31.906855 10.75 30.25L 10.75 13.75C 10.75 12.093145 12.093145 10.75 13.75 10.75L 37.75 10.75C 39.406857 10.75 40.75 12.093145 40.75 13.75L 40.75 25.75M 36.25 23.5L 36.25 26.5M 37.75 25L 34.75 25M 31 28.75L 31 31.75M 32.5 30.25L 29.5 30.25M 34.314999 40C 35.5 37.75 37 35.5 37 35.5L 37 30.25C 37 29.835787 37.335785 29.5 37.75 29.5L 40 29.5C 40.414215 29.5 40.75 29.835787 40.75 30.25L 40.75 35.5C 40.75 35.635002 45.055 43 45.055 43C 45.322155 43.462704 45.323021 44.032589 45.057274 44.496101C 44.791523 44.959618 44.299282 45.246788 43.764999 45.25L 34.360001 45.25M 34.314999 40L 43.300003 40M 28 43.375C 28 44.410538 28.839466 45.25 29.875 45.25C 30.910534 45.25 31.75 44.410538 31.75 43.375L 31.75 35.5L 28 35.5Z"/>
      </g>
    </g>
  </g>
  <g id="g-root-ic_look_142zk2k1a42wb3-stroke-fill" data-item-order="0" transform="translate(572, 596)">
    <g id="ic_look_142zk2k1a42wb3-stroke" fill="none" stroke-linecap="round" stroke-linejoin="round" stroke-miterlimit="4" stroke="#f4f4f4" stroke-width="2">
      <g>
        <path d="M 15.702925 18.925104L 31.610649 18.925104M 27.03175 24.925014L 35.73175 13.525015C 36.03175 13.075015 36.1819 12.475015 35.881901 12.025015C 35.581902 11.575015 35.131748 11.125 34.53175 11.125L 12.781795 11.125C 12.181795 11.125 11.73181 11.425009 11.431803 12.025015C 11.131803 12.625015 11.281812 13.075015 11.58181 13.525015L 20.281796 24.925014L 20.281824 35.57515L 27.0319 31.67515L 27.03175 24.925014ZM 44.73175 38.875C 44.73175 38.875 41.73175 44.875 35.73175 44.875C 29.73175 44.875 26.73175 38.875 26.73175 38.875C 26.73175 38.875 29.73175 32.875 35.73175 32.875C 41.73175 32.875 44.73175 38.875 44.73175 38.875ZM 35.73175 41.399948C 37.126301 41.399948 38.256699 40.26955 38.256699 38.875C 38.256699 37.48045 37.126301 36.350052 35.73175 36.350052C 34.3372 36.350052 33.20665 37.48045 33.20665 38.875C 33.20665 40.26955 34.3372 41.399948 35.73175 41.399948Z"/>
      </g>
    </g>
  </g>
  <g id="g-root-ic_ufo_92qxjw1a449hc-stroke-fill" data-item-order="0" transform="translate(740, 362)">
    <g id="ic_ufo_92qxjw1a449hc-stroke" fill="none" stroke-linecap="round" stroke-linejoin="round" stroke-miterlimit="4" stroke="#f4f4f4" stroke-width="2">
      <g>
        <path d="M 49 22.5C 52.977859 22.499041 56.352161 25.420879 56.919998 29.358C 56.961449 29.646814 56.874687 29.939325 56.682472 30.158836C 56.490257 30.378345 56.211758 30.502958 55.919998 30.5L 12.07 30.5C 11.778242 30.502958 11.499743 30.378345 11.307528 30.158836C 11.115312 29.939325 11.028553 29.646814 11.07 29.358C 11.638377 25.417118 15.018346 22.494064 19 22.5ZM 19 22.5C 19 17.5 25.716 11.5 34 11.5C 42.284 11.5 49 17.5 49 22.5M 47.77 39.5L 52.995998 56.5M 14.996 56.5L 20.232 39.5M 34.996002 49.5L 31.996 53.652M 37.996002 53.5L 34.996002 49.5M 31.996 46.5L 37.996002 46.5M 35 41.5C 35.552284 41.5 36 41.947716 36 42.5M 34 42.5C 34 41.947716 34.447716 41.5 35 41.5M 35 43.5C 34.447716 43.5 34 43.052284 34 42.5M 36 42.5C 36 43.052284 35.552284 43.5 35 43.5M 34.996002 49.5L 34.996002 46.5M 25 30.5C 25 33.261421 22.761425 35.5 20 35.5C 17.238577 35.5 15 33.261421 15 30.5M 39 30.5C 39 33.261421 36.761425 35.5 34 35.5C 31.238577 35.5 29 33.261421 29 30.5M 53 30.5C 53 33.261421 50.761425 35.5 48 35.5C 45.238575 35.5 43 33.261421 43 30.5"/>
      </g>
    </g>
  </g>
</svg>
