<svg width="456" height="504" viewBox="0 0 456 504" style="fill:none;stroke:none;fill-rule:evenodd;clip-rule:evenodd;stroke-linecap:round;stroke-linejoin:round;stroke-miterlimit:1.5;" version="1.1" xmlns="http://www.w3.org/2000/svg" xmlns:xlink="http://www.w3.org/1999/xlink"><style class="text-font-style fontImports" data-font-family="Roboto">@import url('https://fonts.googleapis.com/css2?family=Roboto:wght@400;700&amp;display=block');</style><g id="g-root-tf_4hb2ho1a4icqv-stroke-fill" data-item-order="-210240" transform="translate(9, 12)"></g><g id="g-root-cp_1_column-1_zqac7w1a4gw7d-stroke-fill" data-item-order="-149750" transform="translate(50, 119)"><g id="cp_1_column-1_zqac7w1a4gw7d-fill" stroke="none" fill="none"><g><path d="M 10 13C 10 14.656854 11.343146 16 13 16C 14.656854 16 16 14.656854 16 13C 16 11.343146 14.656854 10 13 10C 11.343146 10 10 11.343146 10 13"></path></g></g><g id="cp_1_column-1_zqac7w1a4gw7d-stroke" fill="none" stroke-linecap="round" stroke-linejoin="round" stroke-miterlimit="4" stroke="#4f91fc" stroke-width="2"><g><path d="M 10 13C 10 14.656854 11.343146 16 13 16C 14.656854 16 16 14.656854 16 13C 16 11.343146 14.656854 10 13 10C 11.343146 10 10 11.343146 10 13"></path></g></g><g id="cp_1_column-1_zqac7w1a4gw7d-stroke-overlay" fill="none" stroke-linecap="round" stroke-linejoin="round" stroke-miterlimit="4" stroke="#0060fb7c" stroke-width="2" stroke-dasharray="4,6"><animate attributeName="stroke-dashoffset" values="30;0" dur="1s" repeatCount="indefinite" begin="0"></animate><g><path d="M 10 13C 10 14.656854 11.343146 16 13 16C 14.656854 16 16 14.656854 16 13C 16 11.343146 14.656854 10 13 10C 11.343146 10 10 11.343146 10 13"></path></g></g><g id="cp_1_column-1_zqac7w1a4gw7d-stroke" fill="none" stroke-linecap="round" stroke-linejoin="round" stroke-miterlimit="4" stroke="#4f91fc" stroke-width="2"><g><path d="M 13 16L 13 118"></path></g></g><g id="cp_1_column-1_zqac7w1a4gw7d-stroke-overlay" fill="none" stroke-linecap="round" stroke-linejoin="round" stroke-miterlimit="4" stroke="#0060fb7c" stroke-width="2" stroke-dasharray="4,6"><animate attributeName="stroke-dashoffset" values="30;0" dur="1s" repeatCount="indefinite" begin="0"></animate><g><path d="M 13 16L 13 118"></path></g></g><g id="cp_1_column-1_zqac7w1a4gw7d-fill" stroke="none" fill="none"><g><path d="M 10 121C 10 122.656854 11.343146 124 13 124C 14.656854 124 16 122.656854 16 121C 16 119.343146 14.656854 118 13 118C 11.343146 118 10 119.343146 10 121"></path></g></g><g id="cp_1_column-1_zqac7w1a4gw7d-stroke" fill="none" stroke-linecap="round" stroke-linejoin="round" stroke-miterlimit="4" stroke="#4f91fc" stroke-width="2"><g><path d="M 10 121C 10 122.656854 11.343146 124 13 124C 14.656854 124 16 122.656854 16 121C 16 119.343146 14.656854 118 13 118C 11.343146 118 10 119.343146 10 121"></path></g></g><g id="cp_1_column-1_zqac7w1a4gw7d-stroke-overlay" fill="none" stroke-linecap="round" stroke-linejoin="round" stroke-miterlimit="4" stroke="#0060fb7c" stroke-width="2" stroke-dasharray="4,6"><animate attributeName="stroke-dashoffset" values="30;0" dur="1s" repeatCount="indefinite" begin="0"></animate><g><path d="M 10 121C 10 122.656854 11.343146 124 13 124C 14.656854 124 16 122.656854 16 121C 16 119.343146 14.656854 118 13 118C 11.343146 118 10 119.343146 10 121"></path></g></g></g><g id="g-root-cp_3_column-3_mettuk1a4gxsb-stroke-fill" data-item-order="-149734" transform="translate(230, 119)"><g id="cp_3_column-3_mettuk1a4gxsb-fill" stroke="none" fill="none"><g><path d="M 10 13C 10 14.656854 11.343146 16 13 16C 14.656854 16 16 14.656854 16 13C 16 11.343146 14.656854 10 13 10C 11.343146 10 10 11.343146 10 13"></path></g></g><g id="cp_3_column-3_mettuk1a4gxsb-stroke" fill="none" stroke-linecap="round" stroke-linejoin="round" stroke-miterlimit="4" stroke="#43dd93" stroke-width="2"><g><path d="M 10 13C 10 14.656854 11.343146 16 13 16C 14.656854 16 16 14.656854 16 13C 16 11.343146 14.656854 10 13 10C 11.343146 10 10 11.343146 10 13"></path></g></g><g id="cp_3_column-3_mettuk1a4gxsb-stroke-overlay" fill="none" stroke-linecap="round" stroke-linejoin="round" stroke-miterlimit="4" stroke="#00c5676e" stroke-width="2" stroke-dasharray="4,6"><animate attributeName="stroke-dashoffset" values="30;0" dur="1s" repeatCount="indefinite" begin="0"></animate><g><path d="M 10 13C 10 14.656854 11.343146 16 13 16C 14.656854 16 16 14.656854 16 13C 16 11.343146 14.656854 10 13 10C 11.343146 10 10 11.343146 10 13"></path></g></g><g id="cp_3_column-3_mettuk1a4gxsb-stroke" fill="none" stroke-linecap="round" stroke-linejoin="round" stroke-miterlimit="4" stroke="#43dd93" stroke-width="2"><g><path d="M 13.000002 16L 13.000002 118"></path></g></g><g id="cp_3_column-3_mettuk1a4gxsb-stroke-overlay" fill="none" stroke-linecap="round" stroke-linejoin="round" stroke-miterlimit="4" stroke="#00c5676e" stroke-width="2" stroke-dasharray="4,6"><animate attributeName="stroke-dashoffset" values="30;0" dur="1s" repeatCount="indefinite" begin="0"></animate><g><path d="M 13.000002 16L 13.000002 118"></path></g></g><g id="cp_3_column-3_mettuk1a4gxsb-fill" stroke="none" fill="none"><g><path d="M 10 121C 10 122.656854 11.343146 124 13 124C 14.656854 124 16 122.656854 16 121C 16 119.343146 14.656854 118 13 118C 11.343146 118 10 119.343146 10 121"></path></g></g><g id="cp_3_column-3_mettuk1a4gxsb-stroke" fill="none" stroke-linecap="round" stroke-linejoin="round" stroke-miterlimit="4" stroke="#43dd93" stroke-width="2"><g><path d="M 10 121C 10 122.656854 11.343146 124 13 124C 14.656854 124 16 122.656854 16 121C 16 119.343146 14.656854 118 13 118C 11.343146 118 10 119.343146 10 121"></path></g></g><g id="cp_3_column-3_mettuk1a4gxsb-stroke-overlay" fill="none" stroke-linecap="round" stroke-linejoin="round" stroke-miterlimit="4" stroke="#00c5676e" stroke-width="2" stroke-dasharray="4,6"><animate attributeName="stroke-dashoffset" values="30;0" dur="1s" repeatCount="indefinite" begin="0"></animate><g><path d="M 10 121C 10 122.656854 11.343146 124 13 124C 14.656854 124 16 122.656854 16 121C 16 119.343146 14.656854 118 13 118C 11.343146 118 10 119.343146 10 121"></path></g></g></g><g id="g-root-cp_1_g-1_hz0bq41a4gykl-stroke-fill" data-item-order="-149716" transform="translate(53, 242)"><g id="cp_1_g-1_hz0bq41a4gykl-fill" stroke="none" fill="none"><g><path d="M 76 10L 10 10L 28 46L 10 82L 76 82L 94 46L 76 10Z"></path></g></g><g id="cp_1_g-1_hz0bq41a4gykl-stroke" fill="none" stroke-linecap="round" stroke-linejoin="round" stroke-miterlimit="4" stroke="#4f91fc" stroke-width="2"><g><path d="M 76 10L 10 10L 28 46L 10 82L 76 82L 94 46L 76 10Z"></path></g></g><g id="cp_1_g-1_hz0bq41a4gykl-stroke-overlay" fill="none" stroke-linecap="round" stroke-linejoin="round" stroke-miterlimit="4" stroke="#0060fb7c" stroke-width="2" stroke-dasharray="4,6"><animate attributeName="stroke-dashoffset" values="30;0" dur="1s" repeatCount="indefinite" begin="0"></animate><g><path d="M 76 10L 10 10L 28 46L 10 82L 76 82L 94 46L 76 10Z"></path></g></g></g><g id="g-root-cp_2_g-2_93zskc1a4gw7j-stroke-fill" data-item-order="-149708" transform="translate(143, 242)"><g id="cp_2_g-2_93zskc1a4gw7j-fill" stroke="none" fill="none"><g><path d="M 76 10L 10 10L 28 46L 10 82L 76 82L 94 46L 76 10Z"></path></g></g><g id="cp_2_g-2_93zskc1a4gw7j-stroke" fill="none" stroke-linecap="round" stroke-linejoin="round" stroke-miterlimit="4" stroke="#1ac3fb" stroke-width="2"><g><path d="M 76 10L 10 10L 28 46L 10 82L 76 82L 94 46L 76 10Z"></path></g></g><g id="cp_2_g-2_93zskc1a4gw7j-stroke-overlay" fill="none" stroke-linecap="round" stroke-linejoin="round" stroke-miterlimit="4" stroke="#00ade7d7" stroke-width="2" stroke-dasharray="4,6"><animate attributeName="stroke-dashoffset" values="30;0" dur="1s" repeatCount="indefinite" begin="0"></animate><g><path d="M 76 10L 10 10L 28 46L 10 82L 76 82L 94 46L 76 10Z"></path></g></g></g><g id="g-root-cp_3_g-3_4o6afw1a4gwzt-stroke-fill" data-item-order="-149702" transform="translate(233, 242)"><g id="cp_3_g-3_4o6afw1a4gwzt-fill" stroke="none" fill="none"><g><path d="M 76 10L 10 10L 28 46L 10 82L 76 82L 94 46L 76 10Z"></path></g></g><g id="cp_3_g-3_4o6afw1a4gwzt-stroke" fill="none" stroke-linecap="round" stroke-linejoin="round" stroke-miterlimit="4" stroke="#43dd93" stroke-width="2"><g><path d="M 76 10L 10 10L 28 46L 10 82L 76 82L 94 46L 76 10Z"></path></g></g><g id="cp_3_g-3_4o6afw1a4gwzt-stroke-overlay" fill="none" stroke-linecap="round" stroke-linejoin="round" stroke-miterlimit="4" stroke="#00c5676e" stroke-width="2" stroke-dasharray="4,6"><animate attributeName="stroke-dashoffset" values="30;0" dur="1s" repeatCount="indefinite" begin="0"></animate><g><path d="M 76 10L 10 10L 28 46L 10 82L 76 82L 94 46L 76 10Z"></path></g></g></g><g id="g-root-cp_2_column-2_8csbg1a4gxs3-stroke-fill" data-item-order="-149694" transform="translate(140, 323)"><g id="cp_2_column-2_8csbg1a4gxs3-fill" stroke="none" fill="none"><g><path d="M 10 13C 10 14.656854 11.343146 16 13 16C 14.656854 16 16 14.656854 16 13C 16 11.343146 14.656854 10 13 10C 11.343146 10 10 11.343146 10 13"></path></g></g><g id="cp_2_column-2_8csbg1a4gxs3-stroke" fill="none" stroke-linecap="round" stroke-linejoin="round" stroke-miterlimit="4" stroke="#1ac3fb" stroke-width="2"><g><path d="M 10 13C 10 14.656854 11.343146 16 13 16C 14.656854 16 16 14.656854 16 13C 16 11.343146 14.656854 10 13 10C 11.343146 10 10 11.343146 10 13"></path></g></g><g id="cp_2_column-2_8csbg1a4gxs3-stroke-overlay" fill="none" stroke-linecap="round" stroke-linejoin="round" stroke-miterlimit="4" stroke="#00ade7d7" stroke-width="2" stroke-dasharray="4,6"><animate attributeName="stroke-dashoffset" values="30;0" dur="1s" repeatCount="indefinite" begin="0"></animate><g><path d="M 10 13C 10 14.656854 11.343146 16 13 16C 14.656854 16 16 14.656854 16 13C 16 11.343146 14.656854 10 13 10C 11.343146 10 10 11.343146 10 13"></path></g></g><g id="cp_2_column-2_8csbg1a4gxs3-stroke" fill="none" stroke-linecap="round" stroke-linejoin="round" stroke-miterlimit="4" stroke="#1ac3fb" stroke-width="2"><g><path d="M 13 16L 13 94"></path></g></g><g id="cp_2_column-2_8csbg1a4gxs3-stroke-overlay" fill="none" stroke-linecap="round" stroke-linejoin="round" stroke-miterlimit="4" stroke="#00ade7d7" stroke-width="2" stroke-dasharray="4,6"><animate attributeName="stroke-dashoffset" values="30;0" dur="1s" repeatCount="indefinite" begin="0"></animate><g><path d="M 13 16L 13 94"></path></g></g><g id="cp_2_column-2_8csbg1a4gxs3-fill" stroke="none" fill="none"><g><path d="M 10 97C 10 98.656854 11.343146 100 13 100C 14.656854 100 16 98.656854 16 97C 16 95.343146 14.656854 94 13 94C 11.343146 94 10 95.343146 10 97"></path></g></g><g id="cp_2_column-2_8csbg1a4gxs3-stroke" fill="none" stroke-linecap="round" stroke-linejoin="round" stroke-miterlimit="4" stroke="#1ac3fb" stroke-width="2"><g><path d="M 10 97C 10 98.656854 11.343146 100 13 100C 14.656854 100 16 98.656854 16 97C 16 95.343146 14.656854 94 13 94C 11.343146 94 10 95.343146 10 97"></path></g></g><g id="cp_2_column-2_8csbg1a4gxs3-stroke-overlay" fill="none" stroke-linecap="round" stroke-linejoin="round" stroke-miterlimit="4" stroke="#00ade7d7" stroke-width="2" stroke-dasharray="4,6"><animate attributeName="stroke-dashoffset" values="30;0" dur="1s" repeatCount="indefinite" begin="0"></animate><g><path d="M 10 97C 10 98.656854 11.343146 100 13 100C 14.656854 100 16 98.656854 16 97C 16 95.343146 14.656854 94 13 94C 11.343146 94 10 95.343146 10 97"></path></g></g></g><g id="g-root-tx_theummoa_1lymt0c1a4gw05-stroke-fill" data-item-order="0" transform="translate(44, 50)"><g id="tx_theummoa_1lymt0c1a4gw05-fill" stroke="none" fill="#f4f4f4"><g><text style="font: 20px Roboto, sans-serif; white-space: pre;" font-size="20px" font-family="Roboto, sans-serif"><tspan x="12.19" y="34" dominant-baseline="ideographic">The Ummo Affair: A Timeline of Events</tspan></text></g></g><g id="tx_theummoa_1lymt0c1a4gw05-fill-overlay" stroke="none" fill="url(#crawlingPattern-0000001b)"><g><text style="font: 20px Roboto, sans-serif; white-space: pre;" font-size="20px" font-family="Roboto, sans-serif"><tspan x="12.19" y="34" dominant-baseline="ideographic">The Ummo Affair: A Timeline of Events</tspan></text></g></g></g><g id="g-root-tx_1965_18n6an01a4gxl2-stroke-fill" data-item-order="0" transform="translate(65, 122)"><g id="tx_1965_18n6an01a4gxl2-fill" stroke="none" fill="#4f91fc"><g><text style="font: bold 20px Roboto, sans-serif; white-space: pre;" font-weight="bold" font-size="20px" font-family="Roboto, sans-serif"><tspan x="12" y="34" dominant-baseline="ideographic">1965</tspan></text></g></g><g id="tx_1965_18n6an01a4gxl2-fill-overlay" stroke="none" fill="url(#crawlingPattern-0060fba2)"><g><text style="font: bold 20px Roboto, sans-serif; white-space: pre;" font-weight="bold" font-size="20px" font-family="Roboto, sans-serif"><tspan x="12" y="34" dominant-baseline="ideographic">1965</tspan></text></g></g></g><g id="g-root-tx_communic_zrjae41a4gydr-stroke-fill" data-item-order="0" transform="translate(65, 158)"><g id="tx_communic_zrjae41a4gydr-fill" stroke="none" fill="#f4f4f4"><g><text style="font: 15px Roboto, sans-serif; white-space: pre;" font-size="15px" font-family="Roboto, sans-serif"><tspan x="12" y="31" dominant-baseline="ideographic">Communications </tspan><tspan x="12" y="49" dominant-baseline="ideographic">received by </tspan><tspan x="12" y="67" dominant-baseline="ideographic">Fernando Sesma</tspan></text></g></g><g id="tx_communic_zrjae41a4gydr-fill-overlay" stroke="none" fill="url(#crawlingPattern-0000001b)"><g><text style="font: 15px Roboto, sans-serif; white-space: pre;" font-size="15px" font-family="Roboto, sans-serif"><tspan x="12" y="31" dominant-baseline="ideographic">Communications </tspan><tspan x="12" y="49" dominant-baseline="ideographic">received by </tspan><tspan x="12" y="67" dominant-baseline="ideographic">Fernando Sesma</tspan></text></g></g></g><g id="g-root-tx_1996_qwir8c1a4gwsg-stroke-fill" data-item-order="0" transform="translate(245, 122)"><g id="tx_1996_qwir8c1a4gwsg-fill" stroke="none" fill="#43dd93"><g><text style="font: bold 20px Roboto, sans-serif; white-space: pre;" font-weight="bold" font-size="20px" font-family="Roboto, sans-serif"><tspan x="12" y="34" dominant-baseline="ideographic">1996</tspan></text></g></g><g id="tx_1996_qwir8c1a4gwsg-fill-overlay" stroke="none" fill="url(#crawlingPattern-00b15c75)"><g><text style="font: bold 20px Roboto, sans-serif; white-space: pre;" font-weight="bold" font-size="20px" font-family="Roboto, sans-serif"><tspan x="12" y="34" dominant-baseline="ideographic">1996</tspan></text></g></g></g><g id="g-root-tx_guardiac_i0vqzg1a4gxl5-stroke-fill" data-item-order="0" transform="translate(245, 158)"><g id="tx_guardiac_i0vqzg1a4gxl5-fill" stroke="none" fill="#f4f4f4"><g><text style="font: 15px Roboto, sans-serif; white-space: pre;" font-size="15px" font-family="Roboto, sans-serif"><tspan x="12" y="31" dominant-baseline="ideographic">Guardia Civil </tspan><tspan x="12" y="49" dominant-baseline="ideographic">analysis of </tspan><tspan x="12" y="67" dominant-baseline="ideographic">photographs</tspan></text></g></g><g id="tx_guardiac_i0vqzg1a4gxl5-fill-overlay" stroke="none" fill="url(#crawlingPattern-0000001b)"><g><text style="font: 15px Roboto, sans-serif; white-space: pre;" font-size="15px" font-family="Roboto, sans-serif"><tspan x="12" y="31" dominant-baseline="ideographic">Guardia Civil </tspan><tspan x="12" y="49" dominant-baseline="ideographic">analysis of </tspan><tspan x="12" y="67" dominant-baseline="ideographic">photographs</tspan></text></g></g></g><g id="g-root-tx_june1196_4g24bg1a4iakq-stroke-fill" data-item-order="0" transform="translate(155, 338)"><g id="tx_june1196_4g24bg1a4iakq-fill" stroke="none" fill="#1ac3fb"><g><text style="font: bold 20px Roboto, sans-serif; white-space: pre;" font-weight="bold" font-size="20px" font-family="Roboto, sans-serif"><tspan x="12" y="34" dominant-baseline="ideographic">June 1, 1967</tspan></text></g></g><g id="tx_june1196_4g24bg1a4iakq-fill-overlay" stroke="none" fill="url(#crawlingPattern-00a3d9d9)"><g><text style="font: bold 20px Roboto, sans-serif; white-space: pre;" font-weight="bold" font-size="20px" font-family="Roboto, sans-serif"><tspan x="12" y="34" dominant-baseline="ideographic">June 1, 1967</tspan></text></g></g></g><g id="g-root-tx_discshap_1q5pnx81a4ibyj-stroke-fill" data-item-order="0" transform="translate(155, 374)"><g id="tx_discshap_1q5pnx81a4ibyj-fill" stroke="none" fill="#f4f4f4"><g><text style="font: 15px Roboto, sans-serif; white-space: pre;" font-size="15px" font-family="Roboto, sans-serif"><tspan x="12" y="28" dominant-baseline="ideographic">Disc-shaped object </tspan><tspan x="12" y="46" dominant-baseline="ideographic">photographed</tspan></text></g></g><defs><pattern id="crawlingPattern-0000001b" x="0" y="0" width="12" height="12" patternUnits="userSpaceOnUse" fill="#0000001b"><use href="#crawlingSymbol"></use></pattern><symbol id="crawlingSymbol"><g><animateTransform attributeName="transform" type="translate" from="0 0" to="-12 0" dur="0.4s" repeatCount="indefinite"></animateTransform><path d="M -12.5 12.5 l 13 -13 l 6 0 l -13 13 Z M -0.5 12.5 l 13 -13 l 6 0 l -13 13 Z M 11.5 12.5 l 13 -13 l 6 0 l -13 13 Z"></path></g></symbol><pattern id="crawlingPattern-0060fba2" x="0" y="0" width="12" height="12" patternUnits="userSpaceOnUse" fill="#0060fba2"><use href="#crawlingSymbol"></use></pattern><pattern id="crawlingPattern-00b15c75" x="0" y="0" width="12" height="12" patternUnits="userSpaceOnUse" fill="#00b15c75"><use href="#crawlingSymbol"></use></pattern><pattern id="crawlingPattern-00a3d9d9" x="0" y="0" width="12" height="12" patternUnits="userSpaceOnUse" fill="#00a3d9d9"><use href="#crawlingSymbol"></use></pattern></defs><g id="tx_discshap_1q5pnx81a4ibyj-fill-overlay" stroke="none" fill="url(#crawlingPattern-0000001b)"><g><text style="font: 15px Roboto, sans-serif; white-space: pre;" font-size="15px" font-family="Roboto, sans-serif"><tspan x="12" y="28" dominant-baseline="ideographic">Disc-shaped object </tspan><tspan x="12" y="46" dominant-baseline="ideographic">photographed</tspan></text></g></g></g></svg>