<?xml version='1.0' encoding='utf-8'?>
<svg xmlns="http://www.w3.org/2000/svg" xmlns:xlink="http://www.w3.org/1999/xlink" width="744" height="684" viewBox="0 0 744 684" style="fill:none;stroke:none;fill-rule:evenodd;clip-rule:evenodd;stroke-linecap:round;stroke-linejoin:round;stroke-miterlimit:1.5;" version="1.1">
  <style class="text-font-style fontImports" data-font-family="Roboto">@import url('https://fonts.googleapis.com/css2?family=Roboto:wght@400;700&amp;display=block');</style>
  <rect x="0" y="0" width="744" height="684" fill="#252a34" stroke="none" id="programmatic_background"/>
  <g id="g-root-tf_1hbbfj01bshbls-stroke-fill" data-item-order="-470820" transform="translate(18, 12)"/>
  <g id="g-root-sy_-1_Vector_4njn181bsfw26-stroke-fill" data-item-order="-12847" transform="translate(260, 149)">
    <g id="sy_-1_Vector_4njn181bsfw26-stroke" fill="none" stroke-linecap="round" stroke-linejoin="round" stroke-miterlimit="4" stroke="#f4f4f4" stroke-width="2">
      <g>
        <path d="M 10 388L 10 298M 10 292L 10 202M 10 196L 10 106M 10 100L 10 10"/>
      </g>
    </g>
  </g>
  <g id="g-root-sy_-1_line_7q4ws1bsfwuf-stroke-fill" data-item-order="-12843" transform="translate(260, 533)">
    <g id="sy_-1_line_7q4ws1bsfwuf-stroke" fill="none" stroke-linecap="round" stroke-linejoin="round" stroke-miterlimit="4" stroke="#f4f4f4" stroke-width="2">
      <g>
        <path d="M 10 94L 10 10"/>
        <path d="M 3.5 88L 10 94.5L 16.5 88" stroke-dasharray="none"/>
      </g>
    </g>
  </g>
  <g id="g-root-sy_5_cu_1ut0org1bsfxfk-stroke-fill" data-item-order="-12840" transform="translate(257, 527)">
    <g id="sy_5_cu_1ut0org1bsfxfk-fill" stroke="none" fill="none">
      <g>
        <path d="M 13 10L 13 10C 13 10 16 10 16 13L 16 13C 16 13 16 16 13 16L 13 16C 13 16 10 16 10 13L 10 13C 10 13 10 10 13 10"/>
      </g>
    </g>
    <g id="sy_5_cu_1ut0org1bsfxfk-stroke" fill="none" stroke-linecap="round" stroke-linejoin="round" stroke-miterlimit="4" stroke="#fb6762" stroke-width="2">
      <g>
        <path d="M 13 10L 13 10C 13 10 16 10 16 13L 16 13C 16 13 16 16 13 16L 13 16C 13 16 10 16 10 13L 10 13C 10 13 10 10 13 10"/>
      </g>
    </g>
    <g id="sy_5_cu_1ut0org1bsfxfk-stroke" fill="none" stroke-linecap="round" stroke-linejoin="round" stroke-miterlimit="4" stroke="#fb6762" stroke-width="2">
      <g>
        <path d="M 37 13L 16 13"/>
      </g>
    </g>
  </g>
  <g id="g-root-sy_4_cu_1ly05lo1bsfv2h-stroke-fill" data-item-order="-12836" transform="translate(257, 431)">
    <g id="sy_4_cu_1ly05lo1bsfv2h-fill" stroke="none" fill="none">
      <g>
        <path d="M 13 10L 13 10C 13 10 16 10 16 13L 16 13C 16 13 16 16 13 16L 13 16C 13 16 10 16 10 13L 10 13C 10 13 10 10 13 10"/>
      </g>
    </g>
    <g id="sy_4_cu_1ly05lo1bsfv2h-stroke" fill="none" stroke-linecap="round" stroke-linejoin="round" stroke-miterlimit="4" stroke="#f366bb" stroke-width="2">
      <g>
        <path d="M 13 10L 13 10C 13 10 16 10 16 13L 16 13C 16 13 16 16 13 16L 13 16C 13 16 10 16 10 13L 10 13C 10 13 10 10 13 10"/>
      </g>
    </g>
    <g id="sy_4_cu_1ly05lo1bsfv2h-stroke" fill="none" stroke-linecap="round" stroke-linejoin="round" stroke-miterlimit="4" stroke="#f366bb" stroke-width="2">
      <g>
        <path d="M 37 13L 16 13"/>
      </g>
    </g>
  </g>
  <g id="g-root-sy_3_cu_1ly05lo1bsfv2i-stroke-fill" data-item-order="-12832" transform="translate(257, 335)">
    <g id="sy_3_cu_1ly05lo1bsfv2i-fill" stroke="none" fill="none">
      <g>
        <path d="M 13 10L 13 10C 13 10 16 10 16 13L 16 13C 16 13 16 16 13 16L 13 16C 13 16 10 16 10 13L 10 13C 10 13 10 10 13 10"/>
      </g>
    </g>
    <g id="sy_3_cu_1ly05lo1bsfv2i-stroke" fill="none" stroke-linecap="round" stroke-linejoin="round" stroke-miterlimit="4" stroke="#a6da37" stroke-width="2">
      <g>
        <path d="M 13 10L 13 10C 13 10 16 10 16 13L 16 13C 16 13 16 16 13 16L 13 16C 13 16 10 16 10 13L 10 13C 10 13 10 10 13 10"/>
      </g>
    </g>
    <g id="sy_3_cu_1ly05lo1bsfv2i-stroke" fill="none" stroke-linecap="round" stroke-linejoin="round" stroke-miterlimit="4" stroke="#a6da37" stroke-width="2">
      <g>
        <path d="M 37 13L 16 13"/>
      </g>
    </g>
  </g>
  <g id="g-root-sy_2_cu_1hi6nh81bsfvur-stroke-fill" data-item-order="-12828" transform="translate(257, 239)">
    <g id="sy_2_cu_1hi6nh81bsfvur-fill" stroke="none" fill="none">
      <g>
        <path d="M 13 10L 13 10C 13 10 16 10 16 13L 16 13C 16 13 16 16 13 16L 13 16C 13 16 10 16 10 13L 10 13C 10 13 10 10 13 10"/>
      </g>
    </g>
    <g id="sy_2_cu_1hi6nh81bsfvur-stroke" fill="none" stroke-linecap="round" stroke-linejoin="round" stroke-miterlimit="4" stroke="#1ac3fb" stroke-width="2">
      <g>
        <path d="M 13 10L 13 10C 13 10 16 10 16 13L 16 13C 16 13 16 16 13 16L 13 16C 13 16 10 16 10 13L 10 13C 10 13 10 10 13 10"/>
      </g>
    </g>
    <g id="sy_2_cu_1hi6nh81bsfvur-stroke" fill="none" stroke-linecap="round" stroke-linejoin="round" stroke-miterlimit="4" stroke="#1ac3fb" stroke-width="2">
      <g>
        <path d="M 37 13L 16 13"/>
      </g>
    </g>
  </g>
  <g id="g-root-sy_1_cu_18mjn8c1bsfwng-stroke-fill" data-item-order="-12824" transform="translate(257, 143)">
    <g id="sy_1_cu_18mjn8c1bsfwng-fill" stroke="none" fill="none">
      <g>
        <path d="M 13 10L 13 10C 13 10 16 10 16 13L 16 13C 16 13 16 16 13 16L 13 16C 13 16 10 16 10 13L 10 13C 10 13 10 10 13 10"/>
      </g>
    </g>
    <g id="sy_1_cu_18mjn8c1bsfwng-stroke" fill="none" stroke-linecap="round" stroke-linejoin="round" stroke-miterlimit="4" stroke="#4f91fc" stroke-width="2">
      <g>
        <path d="M 13 10L 13 10C 13 10 16 10 16 13L 16 13C 16 13 16 16 13 16L 13 16C 13 16 10 16 10 13L 10 13C 10 13 10 10 13 10"/>
      </g>
    </g>
    <g id="sy_1_cu_18mjn8c1bsfwng-stroke" fill="none" stroke-linecap="round" stroke-linejoin="round" stroke-miterlimit="4" stroke="#4f91fc" stroke-width="2">
      <g>
        <path d="M 37 13L 16 13"/>
      </g>
    </g>
  </g>
  <g id="g-root-tx_the1965v_146q53w1bsfxfp-stroke-fill" data-item-order="0" transform="translate(110, 50)">
    <g id="tx_the1965v_146q53w1bsfxfp-fill" stroke="none" fill="#f4f4f4">
      <g>
        <text style="font: 20px Roboto, sans-serif; white-space: pre;" font-size="20px" font-family="Roboto, sans-serif">
          <tspan x="15.74" y="34" dominant-baseline="ideographic">The 1965 Valensole UFO Encounter: A Timeline of Events</tspan>
        </text>
      </g>
    </g>
  </g>
  <g id="g-root-tx_masserep_i093ks1bsfwni-stroke-fill" data-item-order="0" transform="translate(308, 518)">
    <g id="tx_masserep_i093ks1bsfwni-fill" stroke="none" fill="#f4f4f4">
      <g>
        <text style="font: 20px Roboto, sans-serif; white-space: pre;" font-size="20px" font-family="Roboto, sans-serif">
          <tspan x="12" y="34" dominant-baseline="ideographic">Masse reports the incident to authorities</tspan>
        </text>
      </g>
    </g>
  </g>
  <g id="g-root-tx_craftlif_dkflgc1bsfxfr-stroke-fill" data-item-order="0" transform="translate(308, 422)">
    <g id="tx_craftlif_dkflgc1bsfxfr-fill" stroke="none" fill="#f4f4f4">
      <g>
        <text style="font: 20px Roboto, sans-serif; white-space: pre;" font-size="20px" font-family="Roboto, sans-serif">
          <tspan x="12" y="34" dominant-baseline="ideographic">Craft lifts off and vanishes</tspan>
        </text>
      </g>
    </g>
  </g>
  <g id="g-root-tx_entities_9lk641bsfvuw-stroke-fill" data-item-order="0" transform="translate(308, 326)">
    <g id="tx_entities_9lk641bsfvuw-fill" stroke="none" fill="#f4f4f4">
      <g>
        <text style="font: 20px Roboto, sans-serif; white-space: pre;" font-size="20px" font-family="Roboto, sans-serif">
          <tspan x="12" y="34" dominant-baseline="ideographic">Entities immobilize Masse with a device</tspan>
        </text>
      </g>
    </g>
  </g>
  <g id="g-root-tx_masseapp_1uuw40s1bsfwg1-stroke-fill" data-item-order="0" transform="translate(308, 230)">
    <g id="tx_masseapp_1uuw40s1bsfwg1-fill" stroke="none" fill="#f4f4f4">
      <g>
        <text style="font: 20px Roboto, sans-serif; white-space: pre;" font-size="20px" font-family="Roboto, sans-serif">
          <tspan x="12" y="34" dominant-baseline="ideographic">Masse approaches an egg-shaped craft</tspan>
        </text>
      </g>
    </g>
  </g>
  <g id="g-root-tx_mauricem_1ha2hcs1bsh9fm-stroke-fill" data-item-order="0" transform="translate(308, 122)">
    <g id="tx_mauricem_1ha2hcs1bsh9fm-fill" stroke="none" fill="#f4f4f4">
      <g>
        <text style="font: 20px Roboto, sans-serif; white-space: pre;" font-size="20px" font-family="Roboto, sans-serif">
          <tspan x="12" y="34" dominant-baseline="ideographic">Maurice Masse hears a strange whistling </tspan>
          <tspan x="12" y="58" dominant-baseline="ideographic">sound</tspan>
        </text>
      </g>
    </g>
  </g>
  <g id="g-root-tx_july1196_18efh3w1bsha8b-stroke-fill" data-item-order="0" transform="translate(32, 518)">
    <g id="tx_july1196_18efh3w1bsha8b-fill" stroke="none" fill="#fb6762">
      <g>
        <text style="font: bold 20px Roboto, sans-serif; white-space: pre;" font-weight="bold" font-size="20px" font-family="Roboto, sans-serif">
          <tspan x="16.16" y="34" dominant-baseline="ideographic">July 1, 1965, 5:45 AM</tspan>
        </text>
      </g>
    </g>
  </g>
  <g id="g-root-tx_july1196_v2yyqk1bshbt8-stroke-fill" data-item-order="0" transform="translate(32, 422)">
    <g id="tx_july1196_v2yyqk1bshbt8-fill" stroke="none" fill="#f366bb">
      <g>
        <text style="font: bold 20px Roboto, sans-serif; white-space: pre;" font-weight="bold" font-size="20px" font-family="Roboto, sans-serif">
          <tspan x="16.16" y="34" dominant-baseline="ideographic">July 1, 1965, 5:45 AM</tspan>
        </text>
      </g>
    </g>
  </g>
  <g id="g-root-tx_july1196_qnrxp81bsh9fp-stroke-fill" data-item-order="0" transform="translate(32, 326)">
    <g id="tx_july1196_qnrxp81bsh9fp-fill" stroke="none" fill="#a6da37">
      <g>
        <text style="font: bold 20px Roboto, sans-serif; white-space: pre;" font-weight="bold" font-size="20px" font-family="Roboto, sans-serif">
          <tspan x="16.16" y="34" dominant-baseline="ideographic">July 1, 1965, 5:45 AM</tspan>
        </text>
      </g>
    </g>
  </g>
  <g id="g-root-tx_july1196_dcbfbw1bshb0m-stroke-fill" data-item-order="0" transform="translate(32, 230)">
    <g id="tx_july1196_dcbfbw1bshb0m-fill" stroke="none" fill="#1ac3fb">
      <g>
        <text style="font: bold 20px Roboto, sans-serif; white-space: pre;" font-weight="bold" font-size="20px" font-family="Roboto, sans-serif">
          <tspan x="16.16" y="34" dominant-baseline="ideographic">July 1, 1965, 5:45 AM</tspan>
        </text>
      </g>
    </g>
  </g>
  <g id="g-root-tx_july1196_4gof301bshbtb-stroke-fill" data-item-order="0" transform="translate(32, 134)">
    <g id="tx_july1196_4gof301bshbtb-fill" stroke="none" fill="#4f91fc">
      <g>
        <text style="font: bold 20px Roboto, sans-serif; white-space: pre;" font-weight="bold" font-size="20px" font-family="Roboto, sans-serif">
          <tspan x="16.16" y="34" dominant-baseline="ideographic">July 1, 1965, 5:45 AM</tspan>
        </text>
      </g>
    </g>
    <defs>
      <pattern id="crawlingPattern-0000001b" x="0" y="0" width="12" height="12" patternUnits="userSpaceOnUse" fill="#0000001b">
        <use href="#crawlingSymbol"/>
      </pattern>
      <symbol id="crawlingSymbol">
        <g>
          <path d="M -12.5 12.5 l 13 -13 l 6 0 l -13 13 Z M -0.5 12.5 l 13 -13 l 6 0 l -13 13 Z M 11.5 12.5 l 13 -13 l 6 0 l -13 13 Z"/>
        </g>
      </symbol>
      <pattern id="crawlingPattern-f9080081" x="0" y="0" width="12" height="12" patternUnits="userSpaceOnUse" fill="#f9080081">
        <use href="#crawlingSymbol"/>
      </pattern>
      <pattern id="crawlingPattern-eb008e76" x="0" y="0" width="12" height="12" patternUnits="userSpaceOnUse" fill="#eb008e76">
        <use href="#crawlingSymbol"/>
      </pattern>
      <pattern id="crawlingPattern-5c87005e" x="0" y="0" width="12" height="12" patternUnits="userSpaceOnUse" fill="#5c87005e">
        <use href="#crawlingSymbol"/>
      </pattern>
      <pattern id="crawlingPattern-00a3d9d9" x="0" y="0" width="12" height="12" patternUnits="userSpaceOnUse" fill="#00a3d9d9">
        <use href="#crawlingSymbol"/>
      </pattern>
      <pattern id="crawlingPattern-0060fba2" x="0" y="0" width="12" height="12" patternUnits="userSpaceOnUse" fill="#0060fba2">
        <use href="#crawlingSymbol"/>
      </pattern>
    </defs>
  </g>
</svg>
