<?xml version='1.0' encoding='utf-8'?>
<svg xmlns="http://www.w3.org/2000/svg" xmlns:xlink="http://www.w3.org/1999/xlink" width="1032" height="708" viewBox="0 0 1032 708" style="fill:none;stroke:none;fill-rule:evenodd;clip-rule:evenodd;stroke-linecap:round;stroke-linejoin:round;stroke-miterlimit:1.5;" version="1.1">
  <style class="text-font-style fontImports" data-font-family="Roboto">@import url('https://fonts.googleapis.com/css2?family=Roboto:wght@400;700&amp;display=block');</style>
  <rect x="0" y="0" width="1032" height="708" fill="#252a34" stroke="none" id="programmatic_background"/>
  <g id="g-root-tf_4hbf641bs0gzk-stroke-fill" data-item-order="-689472" transform="translate(12, 12)"/>
  <g id="g-root-sy_4_cu_dhy4y41bsaayo-stroke-fill" data-item-order="-317369" transform="translate(602, 386)">
    <g id="sy_4_cu_dhy4y41bsaayo-stroke" fill="none" stroke-linecap="round" stroke-linejoin="round" stroke-miterlimit="4" stroke="#cb68f9" stroke-width="2">
      <g>
        <path d="M 33.850586 154.000488L 45.850586 154.000488M 58.200195 70L 70.200195 70M 87.9997 10L 21.9997 238L 10 238"/>
      </g>
    </g>
  </g>
  <g id="g-root-sy_3_cu_4mxlsc1bsa8ll-stroke-fill" data-item-order="-317365" transform="translate(602, 158.00048828125)">
    <g id="sy_3_cu_4mxlsc1bsa8ll-stroke" fill="none" stroke-linecap="round" stroke-linejoin="round" stroke-miterlimit="4" stroke="#f79438" stroke-width="2">
      <g>
        <path d="M 33.84668 93.999512L 45.84668 93.999512M 58.195313 177.999512L 70.195313 177.999512M 87.9997 238L 21.9997 10L 10 10"/>
      </g>
    </g>
  </g>
  <g id="g-root-sy_2_cu_4mxlsc1bsa8lm-stroke-fill" data-item-order="-317361" transform="translate(290, 385.99951171875)">
    <g id="sy_2_cu_4mxlsc1bsa8lm-stroke" fill="none" stroke-linecap="round" stroke-linejoin="round" stroke-miterlimit="4" stroke="#fb6762" stroke-width="2">
      <g>
        <path d="M 33.851563 154.000488L 45.851563 154.000488M 58.200195 70.000488L 70.200195 70.000488M 87.9997 10L 21.9997 238L 10 238"/>
      </g>
    </g>
  </g>
  <g id="g-root-sy_1_cu_743nw1bsa9dv-stroke-fill" data-item-order="-317357" transform="translate(290, 158.00048828125)">
    <g id="sy_1_cu_743nw1bsa9dv-stroke" fill="none" stroke-linecap="round" stroke-linejoin="round" stroke-miterlimit="4" stroke="#4f91fc" stroke-width="2">
      <g>
        <path d="M 33.851563 93.999512L 45.851563 93.999512M 58.200195 177.999512L 70.200195 177.999512M 87.9997 238L 21.9997 10L 10 10"/>
      </g>
    </g>
  </g>
  <g id="g-root-sy_-1_line_1qcl5e41bsa9zg-stroke-fill" data-item-order="-317351" transform="translate(26, 386)">
    <g id="sy_-1_line_1qcl5e41bsa9zg-stroke" fill="none" stroke-linecap="round" stroke-linejoin="round" stroke-miterlimit="4" stroke="#f4f4f4" stroke-width="2">
      <g>
        <path d="M 704 10L 10 10"/>
        <path d="M 698 16.5L 704.5 10L 698 3.5" stroke-dasharray="none"/>
      </g>
    </g>
  </g>
  <g id="g-root-tx_walesvil_1lwrn9o1bsaarp-stroke-fill" data-item-order="0" transform="translate(794, 350)">
    <g id="tx_walesvil_1lwrn9o1bsaarp-fill" stroke="none" fill="#f4f4f4">
      <g>
        <text style="font: 20px Roboto, sans-serif; white-space: pre;" font-size="20px" font-family="Roboto, sans-serif">
          <tspan x="12" y="34" dominant-baseline="ideographic">Walesville Incident: </tspan>
          <tspan x="12" y="58" dominant-baseline="ideographic">UFO vs. Mechanical </tspan>
          <tspan x="12" y="82" dominant-baseline="ideographic">Failure</tspan>
        </text>
      </g>
    </g>
  </g>
  <g id="g-root-tx_randlesf_18lxlzg1bsa96u-stroke-fill" data-item-order="0" transform="translate(470, 434)">
    <g id="tx_randlesf_18lxlzg1bsa96u-fill" stroke="none" fill="#f4f4f4">
      <g>
        <text style="font: 20px Roboto, sans-serif; white-space: pre;" font-size="20px" font-family="Roboto, sans-serif">
          <tspan x="21.44" y="34" dominant-baseline="ideographic">Randle's Findings</tspan>
        </text>
      </g>
    </g>
  </g>
  <g id="g-root-tx_keyhoesi_zqalqk1bsa9zj-stroke-fill" data-item-order="0" transform="translate(434, 518)">
    <g id="tx_keyhoesi_zqalqk1bsa9zj-fill" stroke="none" fill="#f4f4f4">
      <g>
        <text style="font: 20px Roboto, sans-serif; white-space: pre;" font-size="20px" font-family="Roboto, sans-serif">
          <tspan x="23.28" y="34" dominant-baseline="ideographic">Keyhoe's Influence</tspan>
        </text>
      </g>
    </g>
  </g>
  <g id="g-root-tx_investig_qva2ks1bsa8e8-stroke-fill" data-item-order="0" transform="translate(386, 602)">
    <g id="tx_investig_qva2ks1bsa8e8-fill" stroke="none" fill="#f4f4f4">
      <g>
        <text style="font: 20px Roboto, sans-serif; white-space: pre;" font-size="20px" font-family="Roboto, sans-serif">
          <tspan x="20.45" y="34" dominant-baseline="ideographic">Investigative Bias</tspan>
        </text>
      </g>
    </g>
  </g>
  <g id="g-root-tx_publicin_hzn2bw1bsa96x-stroke-fill" data-item-order="0" transform="translate(506, 314)">
    <g id="tx_publicin_hzn2bw1bsa96x-fill" stroke="none" fill="#f4f4f4">
      <g>
        <text style="font: 20px Roboto, sans-serif; white-space: pre;" font-size="20px" font-family="Roboto, sans-serif">
          <tspan x="12.27" y="34" dominant-baseline="ideographic">Public Interest</tspan>
        </text>
      </g>
    </g>
  </g>
  <g id="g-root-tx_sensatio_djtk7g1bsa9z6-stroke-fill" data-item-order="0" transform="translate(470, 230)">
    <g id="tx_sensatio_djtk7g1bsa9z6-fill" stroke="none" fill="#f4f4f4">
      <g>
        <text style="font: 20px Roboto, sans-serif; white-space: pre;" font-size="20px" font-family="Roboto, sans-serif">
          <tspan x="14.94" y="34" dominant-baseline="ideographic">Sensationalism</tspan>
        </text>
      </g>
    </g>
  </g>
  <g id="g-root-tx_mediainf_4o6jyk1bsaarv-stroke-fill" data-item-order="0" transform="translate(398, 146)">
    <g id="tx_mediainf_4o6jyk1bsaarv-fill" stroke="none" fill="#f4f4f4">
      <g>
        <text style="font: 20px Roboto, sans-serif; white-space: pre;" font-size="20px" font-family="Roboto, sans-serif">
          <tspan x="22.36" y="34" dominant-baseline="ideographic">Media Influence</tspan>
        </text>
      </g>
    </g>
  </g>
  <g id="g-root-tx_condonre_1qegkng1bsa8zw-stroke-fill" data-item-order="0" transform="translate(182, 422)">
    <g id="tx_condonre_1qegkng1bsa8zw-fill" stroke="none" fill="#f4f4f4">
      <g>
        <text style="font: 20px Roboto, sans-serif; white-space: pre;" font-size="20px" font-family="Roboto, sans-serif">
          <tspan x="18.45" y="34" dominant-baseline="ideographic">Condon Report </tspan>
          <tspan x="76.3" y="58" dominant-baseline="ideographic">Findings</tspan>
        </text>
      </g>
    </g>
  </g>
  <g id="g-root-tx_official_1d302a41bsaakt-stroke-fill" data-item-order="0" transform="translate(158, 518)">
    <g id="tx_official_1d302a41bsaakt-fill" stroke="none" fill="#f4f4f4">
      <g>
        <text style="font: 20px Roboto, sans-serif; white-space: pre;" font-size="20px" font-family="Roboto, sans-serif">
          <tspan x="15.44" y="34" dominant-baseline="ideographic">Official Reports</tspan>
        </text>
      </g>
    </g>
  </g>
  <g id="g-root-tx_mechanic_mgpimk1bsaaku-stroke-fill" data-item-order="0" transform="translate(62, 590)">
    <g id="tx_mechanic_mgpimk1bsaaku-fill" stroke="none" fill="#f4f4f4">
      <g>
        <text style="font: 20px Roboto, sans-serif; white-space: pre;" font-size="20px" font-family="Roboto, sans-serif">
          <tspan x="20.94" y="34" dominant-baseline="ideographic">Mechanical Failure </tspan>
          <tspan x="126.61" y="58" dominant-baseline="ideographic">Theory</tspan>
        </text>
      </g>
    </g>
  </g>
  <g id="g-root-tx_keyhoesn_hriw7g1bsbmrr-stroke-fill" data-item-order="0" transform="translate(158, 314)">
    <g id="tx_keyhoesn_hriw7g1bsbmrr-fill" stroke="none" fill="#f4f4f4">
      <g>
        <text style="font: 20px Roboto, sans-serif; white-space: pre;" font-size="20px" font-family="Roboto, sans-serif">
          <tspan x="12.11" y="34" dominant-baseline="ideographic">Keyhoe's Narrative</tspan>
        </text>
      </g>
    </g>
  </g>
  <g id="g-root-tx_witnessr_4g2du41bsboco-stroke-fill" data-item-order="0" transform="translate(146, 230)">
    <g id="tx_witnessr_4g2du41bsboco-fill" stroke="none" fill="#f4f4f4">
      <g>
        <text style="font: 20px Roboto, sans-serif; white-space: pre;" font-size="20px" font-family="Roboto, sans-serif">
          <tspan x="17.89" y="34" dominant-baseline="ideographic">Witness Reports</tspan>
        </text>
      </g>
    </g>
  </g>
  <g id="g-root-tx_ufoencou_1lqiwek1bsbncx-stroke-fill" data-item-order="0" transform="translate(38, 146)">
    <g id="tx_ufoencou_1lqiwek1bsbncx-fill" stroke="none" fill="#f4f4f4">
      <g>
        <text style="font: 20px Roboto, sans-serif; white-space: pre;" font-size="20px" font-family="Roboto, sans-serif">
          <tspan x="13.02" y="34" dominant-baseline="ideographic">UFO Encounter Theory</tspan>
        </text>
      </g>
    </g>
  </g>
  <g id="g-root-tx_analyzin_1cuvw5o1bsbo5m-stroke-fill" data-item-order="0" transform="translate(242, 50)">
    <g id="tx_analyzin_1cuvw5o1bsbo5m-fill" stroke="none" fill="#f4f4f4">
      <g>
        <text style="font: 20px Roboto, sans-serif; white-space: pre;" font-size="20px" font-family="Roboto, sans-serif">
          <tspan x="16.23" y="34" dominant-baseline="ideographic">Analyzing the Walesville Incident: UFO vs. Mechanical Failure</tspan>
        </text>
      </g>
    </g>
    <defs>
      <pattern id="crawlingPattern-0000001b" x="0" y="0" width="12" height="12" patternUnits="userSpaceOnUse" fill="#0000001b">
        <use href="#crawlingSymbol"/>
      </pattern>
      <symbol id="crawlingSymbol">
        <g>
          <path d="M -12.5 12.5 l 13 -13 l 6 0 l -13 13 Z M -0.5 12.5 l 13 -13 l 6 0 l -13 13 Z M 11.5 12.5 l 13 -13 l 6 0 l -13 13 Z"/>
        </g>
      </symbol>
    </defs>
  </g>
  <g id="g-root-ic_grou_zjfdsc1bsbpqj-stroke-fill" data-item-order="0" transform="translate(254, 140)">
    <g id="ic_grou_zjfdsc1bsbpqj-stroke" fill="none" stroke-linecap="round" stroke-linejoin="round" stroke-miterlimit="4" stroke="#f4f4f4" stroke-width="2">
      <g>
        <path d="M 25.4695 18.25L 25.4695 24.280001C 25.4695 25.051001 24.882999 25.690001 24.120998 25.813C 20.693501 26.368 18.296501 27.631001 18.296501 29.101C 18.296501 30.5725 20.693501 31.837 24.120998 32.389C 24.882999 32.512001 25.4695 33.151001 25.4695 33.922001L 25.4695 36.0625C 25.4695 36.8605 24.842501 37.517498 24.046001 37.5835C 18.625 38.036499 14.6875 39.398502 14.6875 41.008003C 14.6875 42.987999 20.646999 44.593002 28 44.593002C 35.351498 44.593002 41.3125 42.987999 41.3125 41.008003C 41.3125 39.398502 37.375 38.036499 31.952499 37.582001C 31.156572 37.520573 30.539747 36.860756 30.532 36.0625L 30.532 33.922001C 30.532 33.151001 31.117001 32.512001 31.879002 32.389C 35.306499 31.837 37.703499 30.5725 37.703499 29.101C 37.703499 27.631001 35.306499 26.366501 31.879002 25.813C 31.117001 25.690001 30.5305 25.051001 30.5305 24.2815L 30.5305 18.25M 11.5 18.25L 44.5 18.25M 24.625 14.5L 23.125 13M 31.375 14.5L 32.875 13M 28 13.75L 28 11.5"/>
      </g>
    </g>
  </g>
  <g id="g-root-ic_cras_1umsdqk1bsehvw-stroke-fill" data-item-order="0" transform="translate(254, 596)">
    <g id="ic_cras_1umsdqk1bsehvw-stroke" fill="none" stroke-linecap="round" stroke-linejoin="round" stroke-miterlimit="4" stroke="#f4f4f4" stroke-width="2">
      <g>
        <path d="M 10 10M 25.846001 28.486L 25.838501 25.397501L 23.3155 23.9995C 22.900169 23.794538 22.409765 23.811333 22.009434 24.044233C 21.6091 24.277132 21.352108 24.695145 21.325001 25.157501L 20.9545 31.7395C 20.894302 32.840763 21.494444 33.87244 22.481501 34.364502L 27.026501 36.626499L 21.421 40.8475C 21.04031 41.136066 20.835711 41.60083 20.879978 42.076473C 20.924244 42.552116 21.211096 42.971142 21.6385 43.184498L 24.002501 44.355999C 24.368961 44.538593 24.797583 44.549034 25.172501 44.384499L 34.445503 40.304497L 38.766998 42.452499C 40.466251 43.262154 42.500839 42.55965 43.338524 40.874043C 44.176212 39.188431 43.507504 37.14249 41.835999 36.277L 25.846001 28.486ZM 21.040001 11.5C 23.195499 15.8095 16.690001 17.321501 19.915001 21.625M 14.29 11.5C 16.445499 15.8095 9.94 17.321501 13.165 21.625M 37.504002 22.164999C 37.379562 20.896683 36.851723 19.701685 35.997997 18.755501C 38.263 19.313499 40.247501 20.6035 41.598999 22.400501C 42.941231 24.164894 43.57814 26.365982 43.385502 28.574501C 43.352528 30.074532 42.71151 31.49679 41.609501 32.514999C 40.512493 33.532204 39.087444 34.122871 37.592499 34.18L 32.416 31.6555C 32.20998 31.361944 32.033138 31.048956 31.888 30.721001C 31.588001 30.039999 31.433498 29.310999 31.433498 28.574501C 31.368719 27.625935 31.592527 26.679972 32.0755 25.861C 32.573593 25.020803 33.301064 24.340164 34.172501 23.899C 34.258003 24.448 34.5625 24.9475 35.024502 25.294001C 35.495316 25.644674 36.077168 25.813049 36.662498 25.768C 37.329998 24.676001 37.622501 23.419001 37.504002 22.1635Z"/>
      </g>
    </g>
  </g>
  <g id="g-root-ic_mega_1cz97rg1bsfuvh-stroke-fill" data-item-order="0" transform="translate(566, 140)">
    <g id="ic_mega_1cz97rg1bsfuvh-stroke" fill="none" stroke-linecap="round" stroke-linejoin="round" stroke-miterlimit="4" stroke="#f4f4f4" stroke-width="2">
      <g>
        <path d="M 45.25 10.75L 45.25 26.5M 27.25 20.5L 45.25 25L 45.25 12.25L 27.25 16.75L 27.25 20.5ZM 27.25 15.25L 27.25 22M 32.5 21.8125L 32.5 24.25C 32.5 25.906855 33.843147 27.25 35.5 27.25C 37.156857 27.25 38.5 25.906855 38.5 24.25L 38.5 23.3125M 13.75 16C 13.75 18.899494 16.100506 21.25 19 21.25C 21.899494 21.25 24.25 18.899494 24.25 16C 24.25 13.100505 21.899494 10.75 19 10.75C 16.100506 10.75 13.75 13.100505 13.75 16ZM 13.820499 16.865499C 15.811764 16.843117 17.69775 15.967577 19 14.461C 20.302614 15.965672 22.187931 16.839516 24.177999 16.861M 22.3255 24.5725L 19 29.809L 15.703 24.5515M 19 23.5C 21.640499 23.497375 23.937126 25.308609 24.549999 27.877001L 27.25 37.75L 22.814501 37.75L 21.2335 45.25L 16.7335 45.25L 15.1525 37.75L 10.75 37.75L 13.4575 27.877001C 14.069723 25.311337 16.362303 23.500851 19 23.5Z"/>
      </g>
    </g>
  </g>
  <g id="g-root-ic_pers_m97tl81bsioee-stroke-fill" data-item-order="0" transform="translate(566, 596)">
    <g id="ic_pers_m97tl81bsioee-stroke" fill="none" stroke-linecap="round" stroke-linejoin="round" stroke-miterlimit="4" stroke="#f4f4f4" stroke-width="2">
      <g>
        <path d="M 27.625 44.875C 25.825001 42.324997 22.825001 40.675003 19.375 40.675003C 15.925 40.675003 12.925 42.324997 11.125 44.875M 19.375151 27.025002L 19.375151 22.525015M 11.125 31.375L 27.625 31.375M 13.225 33.025002C 13.375 36.324997 16.075001 39.025002 19.375 39.025002C 22.825001 39.025002 25.525002 36.324997 25.525002 32.875L 25.525002 30.174999C 25.525002 26.724998 22.825001 24.025015 19.375 24.025015C 16.075001 24.025015 13.375 26.724998 13.225 30.025002L 13.225 33.025002ZM 35.125 24.625C 38.852951 24.625 41.875 21.602921 41.875 17.875C 41.875 14.147079 38.852951 11.125 35.125 11.125C 31.397049 11.125 28.375 14.147079 28.375 17.875C 28.375 21.602921 31.397049 24.625 35.125 24.625ZM 10 10M 44.875 27.625L 40.074997 22.675014"/>
      </g>
    </g>
  </g>
  <g id="g-root-ic_ufo_746to1brxmhb-stroke-fill" data-item-order="0" transform="translate(734, 362)">
    <g id="ic_ufo_746to1brxmhb-stroke" fill="none" stroke-linecap="round" stroke-linejoin="round" stroke-miterlimit="4" stroke="#f4f4f4" stroke-width="2">
      <g>
        <path d="M 49 22.5C 52.977859 22.499041 56.352161 25.420879 56.919998 29.358C 56.961449 29.646814 56.874687 29.939325 56.682472 30.158836C 56.490257 30.378345 56.211758 30.502958 55.919998 30.5L 12.07 30.5C 11.778242 30.502958 11.499743 30.378345 11.307528 30.158836C 11.115312 29.939325 11.028553 29.646814 11.07 29.358C 11.638377 25.417118 15.018346 22.494064 19 22.5ZM 19 22.5C 19 17.5 25.716 11.5 34 11.5C 42.284 11.5 49 17.5 49 22.5M 47.77 39.5L 52.995998 56.5M 14.996 56.5L 20.232 39.5M 34.996002 49.5L 31.996 53.652M 37.996002 53.5L 34.996002 49.5M 31.996 46.5L 37.996002 46.5M 35 41.5C 35.552284 41.5 36 41.947716 36 42.5M 34 42.5C 34 41.947716 34.447716 41.5 35 41.5M 35 43.5C 34.447716 43.5 34 43.052284 34 42.5M 36 42.5C 36 43.052284 35.552284 43.5 35 43.5M 34.996002 49.5L 34.996002 46.5M 25 30.5C 25 33.261421 22.761425 35.5 20 35.5C 17.238577 35.5 15 33.261421 15 30.5M 39 30.5C 39 33.261421 36.761425 35.5 34 35.5C 31.238577 35.5 29 33.261421 29 30.5M 53 30.5C 53 33.261421 50.761425 35.5 48 35.5C 45.238575 35.5 43 33.261421 43 30.5"/>
      </g>
    </g>
  </g>
</svg>
