<svg width="1008" height="708" viewBox="0 0 1008 708" style="fill:none;stroke:none;fill-rule:evenodd;clip-rule:evenodd;stroke-linecap:round;stroke-linejoin:round;stroke-miterlimit:1.5;" version="1.1" xmlns="http://www.w3.org/2000/svg" xmlns:xlink="http://www.w3.org/1999/xlink"><style class="text-font-style fontImports" data-font-family="Roboto">@import url('https://fonts.googleapis.com/css2?family=Roboto:wght@400;700&amp;display=block');</style><g id="g-root-tf_18fp4m41b8dv5x-stroke-fill" data-item-order="-667152" transform="translate(12, 12)"></g><g id="g-root-sy_4_cu_qwja8s1b82ozx-stroke-fill" data-item-order="-317369" transform="translate(602, 386)"><g id="sy_4_cu_qwja8s1b82ozx-stroke" fill="none" stroke-linecap="round" stroke-linejoin="round" stroke-miterlimit="4" stroke="#a6da37" stroke-width="2"><g><path d="M 33.850586 154.000488L 45.850586 154.000488M 58.200195 70L 70.200195 70M 87.9997 10L 21.9997 238L 10 238"></path></g></g><g id="sy_4_cu_qwja8s1b82ozx-stroke-overlay" fill="none" stroke-linecap="round" stroke-linejoin="round" stroke-miterlimit="4" stroke="#6b9d0056" stroke-width="2" stroke-dasharray="4,6"><animate attributeName="stroke-dashoffset" values="30;0" dur="1s" repeatCount="indefinite" begin="0"></animate><g><path d="M 33.850586 154.000488L 45.850586 154.000488M 58.200195 70L 70.200195 70M 87.9997 10L 21.9997 238L 10 238"></path></g></g></g><g id="g-root-sy_3_cu_m7cnto1b8416u-stroke-fill" data-item-order="-317365" transform="translate(602, 158.00048828125)"><g id="sy_3_cu_m7cnto1b8416u-stroke" fill="none" stroke-linecap="round" stroke-linejoin="round" stroke-miterlimit="4" stroke="#b7b7b7" stroke-width="2"><g><path d="M 33.84668 93.999512L 45.84668 93.999512M 58.195313 177.999512L 70.195313 177.999512M 87.9997 238L 21.9997 10L 10 10"></path></g></g><g id="sy_3_cu_m7cnto1b8416u-stroke-overlay" fill="none" stroke-linecap="round" stroke-linejoin="round" stroke-miterlimit="4" stroke="#0000001b" stroke-width="2" stroke-dasharray="4,6"><animate attributeName="stroke-dashoffset" values="30;0" dur="1s" repeatCount="indefinite" begin="0"></animate><g><path d="M 33.84668 93.999512L 45.84668 93.999512M 58.195313 177.999512L 70.195313 177.999512M 87.9997 238L 21.9997 10L 10 10"></path></g></g></g><g id="g-root-sy_2_cu_dbpnks1b841zj-stroke-fill" data-item-order="-317361" transform="translate(290, 385.99951171875)"><g id="sy_2_cu_dbpnks1b841zj-stroke" fill="none" stroke-linecap="round" stroke-linejoin="round" stroke-miterlimit="4" stroke="#1ac3fb" stroke-width="2"><g><path d="M 33.851563 154.000488L 45.851563 154.000488M 58.200195 70.000488L 70.200195 70.000488M 87.9997 10L 21.9997 238L 10 238"></path></g></g><g id="sy_2_cu_dbpnks1b841zj-stroke-overlay" fill="none" stroke-linecap="round" stroke-linejoin="round" stroke-miterlimit="4" stroke="#00ade7d7" stroke-width="2" stroke-dasharray="4,6"><animate attributeName="stroke-dashoffset" values="30;0" dur="1s" repeatCount="indefinite" begin="0"></animate><g><path d="M 33.851563 154.000488L 45.851563 154.000488M 58.200195 70.000488L 70.200195 70.000488M 87.9997 10L 21.9997 238L 10 238"></path></g></g></g><g id="g-root-sy_1_cu_8vw5gc1b842rs-stroke-fill" data-item-order="-317357" transform="translate(290, 158.00048828125)"><g id="sy_1_cu_8vw5gc1b842rs-stroke" fill="none" stroke-linecap="round" stroke-linejoin="round" stroke-miterlimit="4" stroke="#43dd93" stroke-width="2"><g><path d="M 33.851563 93.999512L 45.851563 93.999512M 58.200195 177.999512L 70.200195 177.999512M 87.9997 238L 21.9997 10L 10 10"></path></g></g><g id="sy_1_cu_8vw5gc1b842rs-stroke-overlay" fill="none" stroke-linecap="round" stroke-linejoin="round" stroke-miterlimit="4" stroke="#00c5676e" stroke-width="2" stroke-dasharray="4,6"><animate attributeName="stroke-dashoffset" values="30;0" dur="1s" repeatCount="indefinite" begin="0"></animate><g><path d="M 33.851563 93.999512L 45.851563 93.999512M 58.200195 177.999512L 70.200195 177.999512M 87.9997 238L 21.9997 10L 10 10"></path></g></g></g><g id="g-root-sy_-1_line_4g2nbw1b843k1-stroke-fill" data-item-order="-317351" transform="translate(26, 386)"><g id="sy_-1_line_4g2nbw1b843k1-stroke" fill="none" stroke-linecap="round" stroke-linejoin="round" stroke-miterlimit="4" stroke="#f4f4f4" stroke-width="2"><g><path d="M 704 10L 10 10"></path><path d="M 698 16.5L 704.5 10L 698 3.5" stroke-dasharray="none"></path></g></g><g id="sy_-1_line_4g2nbw1b843k1-stroke-overlay" fill="none" stroke-linecap="round" stroke-linejoin="round" stroke-miterlimit="4" stroke="#3131311a" stroke-width="2" stroke-dasharray="4,6"><animate attributeName="stroke-dashoffset" values="30;0" dur="1s" repeatCount="indefinite" begin="0"></animate><g><path d="M 704 10L 10 10"></path><path d="M 698 16.5L 704.5 10L 698 3.5" stroke-dasharray="none"></path></g></g></g><g id="g-root-tx_unexplai_1um66581b840zu-stroke-fill" data-item-order="0" transform="translate(794, 350)"><g id="tx_unexplai_1um66581b840zu-fill" stroke="none" fill="#f4f4f4"><g><text style="font: 20px Roboto, sans-serif; white-space: pre;" font-size="20px" font-family="Roboto, sans-serif"><tspan x="12" y="34" dominant-baseline="ideographic">Unexplained UFO </tspan><tspan x="12" y="58" dominant-baseline="ideographic">sightings over </tspan><tspan x="12" y="82" dominant-baseline="ideographic">Washington, D.C.</tspan></text></g></g><g id="tx_unexplai_1um66581b840zu-fill-overlay" stroke="none" fill="url(#crawlingPattern-0000001b)"><g><text style="font: 20px Roboto, sans-serif; white-space: pre;" font-size="20px" font-family="Roboto, sans-serif"><tspan x="12" y="34" dominant-baseline="ideographic">Unexplained UFO </tspan><tspan x="12" y="58" dominant-baseline="ideographic">sightings over </tspan><tspan x="12" y="82" dominant-baseline="ideographic">Washington, D.C.</tspan></text></g></g></g><g id="g-root-tx_socialco_1hapnrw1b842kr-stroke-fill" data-item-order="0" transform="translate(482, 422)"><g id="tx_socialco_1hapnrw1b842kr-fill" stroke="none" fill="#f4f4f4"><g><text style="font: 20px Roboto, sans-serif; white-space: pre;" font-size="20px" font-family="Roboto, sans-serif"><tspan x="14.83" y="34" dominant-baseline="ideographic">Social context of </tspan><tspan x="82.56" y="58" dominant-baseline="ideographic">sightings</tspan></text></g></g><g id="tx_socialco_1hapnrw1b842kr-fill-overlay" stroke="none" fill="url(#crawlingPattern-0000001b)"><g><text style="font: 20px Roboto, sans-serif; white-space: pre;" font-size="20px" font-family="Roboto, sans-serif"><tspan x="14.83" y="34" dominant-baseline="ideographic">Social context of </tspan><tspan x="82.56" y="58" dominant-baseline="ideographic">sightings</tspan></text></g></g></g><g id="g-root-tx_temperat_13zvmho1b840zw-stroke-fill" data-item-order="0" transform="translate(410, 506)"><g id="tx_temperat_13zvmho1b840zw-fill" stroke="none" fill="#f4f4f4"><g><text style="font: 20px Roboto, sans-serif; white-space: pre;" font-size="20px" font-family="Roboto, sans-serif"><tspan x="13.56" y="34" dominant-baseline="ideographic">Temperature inversion </tspan><tspan x="156" y="58" dominant-baseline="ideographic">theory</tspan></text></g></g><g id="tx_temperat_13zvmho1b840zw-fill-overlay" stroke="none" fill="url(#crawlingPattern-0000001b)"><g><text style="font: 20px Roboto, sans-serif; white-space: pre;" font-size="20px" font-family="Roboto, sans-serif"><tspan x="13.56" y="34" dominant-baseline="ideographic">Temperature inversion </tspan><tspan x="156" y="58" dominant-baseline="ideographic">theory</tspan></text></g></g></g><g id="g-root-tx_skeptica_zk24d81b841s5-stroke-fill" data-item-order="0" transform="translate(338, 602)"><g id="tx_skeptica_zk24d81b841s5-fill" stroke="none" fill="#f4f4f4"><g><text style="font: 20px Roboto, sans-serif; white-space: pre;" font-size="20px" font-family="Roboto, sans-serif"><tspan x="23.39" y="34" dominant-baseline="ideographic">Skeptical Explanations</tspan></text></g></g><g id="tx_skeptica_zk24d81b841s5-fill-overlay" stroke="none" fill="url(#crawlingPattern-0000001b)"><g><text style="font: 20px Roboto, sans-serif; white-space: pre;" font-size="20px" font-family="Roboto, sans-serif"><tspan x="23.39" y="34" dominant-baseline="ideographic">Skeptical Explanations</tspan></text></g></g></g><g id="g-root-tx_majorpre_qof44c1b842ku-stroke-fill" data-item-order="0" transform="translate(518, 302)"><g id="tx_majorpre_qof44c1b842ku-fill" stroke="none" fill="#f4f4f4"><g><text style="font: 20px Roboto, sans-serif; white-space: pre;" font-size="20px" font-family="Roboto, sans-serif"><tspan x="22.66" y="34" dominant-baseline="ideographic">Major press </tspan><tspan x="18.11" y="58" dominant-baseline="ideographic">conferences</tspan></text></g></g><g id="tx_majorpre_qof44c1b842ku-fill-overlay" stroke="none" fill="url(#crawlingPattern-0000001b)"><g><text style="font: 20px Roboto, sans-serif; white-space: pre;" font-size="20px" font-family="Roboto, sans-serif"><tspan x="22.66" y="34" dominant-baseline="ideographic">Major press </tspan><tspan x="18.11" y="58" dominant-baseline="ideographic">conferences</tspan></text></g></g></g><g id="g-root-tx_projectb_ddl2u41b840zz-stroke-fill" data-item-order="0" transform="translate(446, 218)"><g id="tx_projectb_ddl2u41b840zz-fill" stroke="none" fill="#f4f4f4"><g><text style="font: 20px Roboto, sans-serif; white-space: pre;" font-size="20px" font-family="Roboto, sans-serif"><tspan x="18.7" y="34" dominant-baseline="ideographic">Project Blue Book </tspan><tspan x="68.38" y="58" dominant-baseline="ideographic">involvement</tspan></text></g></g><g id="tx_projectb_ddl2u41b840zz-fill-overlay" stroke="none" fill="url(#crawlingPattern-0000001b)"><g><text style="font: 20px Roboto, sans-serif; white-space: pre;" font-size="20px" font-family="Roboto, sans-serif"><tspan x="18.7" y="34" dominant-baseline="ideographic">Project Blue Book </tspan><tspan x="68.38" y="58" dominant-baseline="ideographic">involvement</tspan></text></g></g></g><g id="g-root-tx_official_8xrkpo1b841s8-stroke-fill" data-item-order="0" transform="translate(350, 146)"><g id="tx_official_8xrkpo1b841s8-fill" stroke="none" fill="#f4f4f4"><g><text style="font: 20px Roboto, sans-serif; white-space: pre;" font-size="20px" font-family="Roboto, sans-serif"><tspan x="20.45" y="34" dominant-baseline="ideographic">Official Investigations</tspan></text></g></g><g id="tx_official_8xrkpo1b841s8-fill-overlay" stroke="none" fill="url(#crawlingPattern-0000001b)"><g><text style="font: 20px Roboto, sans-serif; white-space: pre;" font-size="20px" font-family="Roboto, sans-serif"><tspan x="20.45" y="34" dominant-baseline="ideographic">Official Investigations</tspan></text></g></g></g><g id="g-root-tx_correlat_1unf4bg1b84361-stroke-fill" data-item-order="0" transform="translate(122, 422)"><g id="tx_correlat_1unf4bg1b84361-fill" stroke="none" fill="#f4f4f4"><g><text style="font: 20px Roboto, sans-serif; white-space: pre;" font-size="20px" font-family="Roboto, sans-serif"><tspan x="14.98" y="34" dominant-baseline="ideographic">Correlation with visual </tspan><tspan x="130.56" y="58" dominant-baseline="ideographic">sightings</tspan></text></g></g><g id="tx_correlat_1unf4bg1b84361-fill-overlay" stroke="none" fill="url(#crawlingPattern-0000001b)"><g><text style="font: 20px Roboto, sans-serif; white-space: pre;" font-size="20px" font-family="Roboto, sans-serif"><tspan x="14.98" y="34" dominant-baseline="ideographic">Correlation with visual </tspan><tspan x="130.56" y="58" dominant-baseline="ideographic">sightings</tspan></text></g></g></g><g id="g-root-tx_independ_1hcl3181b841l6-stroke-fill" data-item-order="0" transform="translate(110, 518)"><g id="tx_independ_1hcl3181b841l6-fill" stroke="none" fill="#f4f4f4"><g><text style="font: 20px Roboto, sans-serif; white-space: pre;" font-size="20px" font-family="Roboto, sans-serif"><tspan x="12.75" y="34" dominant-baseline="ideographic">Independent tracking</tspan></text></g></g><g id="tx_independ_1hcl3181b841l6-fill-overlay" stroke="none" fill="url(#crawlingPattern-0000001b)"><g><text style="font: 20px Roboto, sans-serif; white-space: pre;" font-size="20px" font-family="Roboto, sans-serif"><tspan x="12.75" y="34" dominant-baseline="ideographic">Independent tracking</tspan></text></g></g></g><g id="g-root-tx_radarevi_1cwrkws1b842df-stroke-fill" data-item-order="0" transform="translate(98, 602)"><g id="tx_radarevi_1cwrkws1b842df-fill" stroke="none" fill="#f4f4f4"><g><text style="font: 20px Roboto, sans-serif; white-space: pre;" font-size="20px" font-family="Roboto, sans-serif"><tspan x="15.22" y="34" dominant-baseline="ideographic">Radar Evidence</tspan></text></g></g><g id="tx_radarevi_1cwrkws1b842df-fill-overlay" stroke="none" fill="url(#crawlingPattern-0000001b)"><g><text style="font: 20px Roboto, sans-serif; white-space: pre;" font-size="20px" font-family="Roboto, sans-serif"><tspan x="15.22" y="34" dominant-baseline="ideographic">Radar Evidence</tspan></text></g></g></g><g id="g-root-tx_consiste_zlxjmk1b840sk-stroke-fill" data-item-order="0" transform="translate(206, 302)"><g id="tx_consiste_zlxjmk1b840sk-fill" stroke="none" fill="#f4f4f4"><g><text style="font: 20px Roboto, sans-serif; white-space: pre;" font-size="20px" font-family="Roboto, sans-serif"><tspan x="32.28" y="34" dominant-baseline="ideographic">Consistent </tspan><tspan x="12.88" y="58" dominant-baseline="ideographic">observations</tspan></text></g></g><g id="tx_consiste_zlxjmk1b840sk-fill-overlay" stroke="none" fill="url(#crawlingPattern-0000001b)"><g><text style="font: 20px Roboto, sans-serif; white-space: pre;" font-size="20px" font-family="Roboto, sans-serif"><tspan x="32.28" y="34" dominant-baseline="ideographic">Consistent </tspan><tspan x="12.88" y="58" dominant-baseline="ideographic">observations</tspan></text></g></g></g><g id="g-root-tx_trainedp_qqajdo1b841l9-stroke-fill" data-item-order="0" transform="translate(98, 230)"><g id="tx_trainedp_qqajdo1b841l9-fill" stroke="none" fill="#f4f4f4"><g><text style="font: 20px Roboto, sans-serif; white-space: pre;" font-size="20px" font-family="Roboto, sans-serif"><tspan x="20.2" y="34" dominant-baseline="ideographic">Trained professionals</tspan></text></g></g><g id="tx_trainedp_qqajdo1b841l9-fill-overlay" stroke="none" fill="url(#crawlingPattern-0000001b)"><g><text style="font: 20px Roboto, sans-serif; white-space: pre;" font-size="20px" font-family="Roboto, sans-serif"><tspan x="20.2" y="34" dominant-baseline="ideographic">Trained professionals</tspan></text></g></g></g><g id="g-root-tx_witnessc_mah1981b842di-stroke-fill" data-item-order="0" transform="translate(62, 146)"><g id="tx_witnessc_mah1981b842di-fill" stroke="none" fill="#f4f4f4"><g><text style="font: 20px Roboto, sans-serif; white-space: pre;" font-size="20px" font-family="Roboto, sans-serif"><tspan x="23.41" y="34" dominant-baseline="ideographic">Witness Credibility</tspan></text></g></g><g id="tx_witnessc_mah1981b842di-fill-overlay" stroke="none" fill="url(#crawlingPattern-0000001b)"><g><text style="font: 20px Roboto, sans-serif; white-space: pre;" font-size="20px" font-family="Roboto, sans-serif"><tspan x="23.41" y="34" dominant-baseline="ideographic">Witness Credibility</tspan></text></g></g></g><g id="g-root-tx_analyzin_8zmzz01b840sn-stroke-fill" data-item-order="0" transform="translate(290, 50)"><g id="tx_analyzin_8zmzz01b840sn-fill" stroke="none" fill="#f4f4f4"><g><text style="font: 20px Roboto, sans-serif; white-space: pre;" font-size="20px" font-family="Roboto, sans-serif"><tspan x="14.2" y="34" dominant-baseline="ideographic">Analyzing the 1952 Washington National Sightings</tspan></text></g></g><defs><pattern id="crawlingPattern-0000001b" x="0" y="0" width="12" height="12" patternUnits="userSpaceOnUse" fill="#0000001b"><use href="#crawlingSymbol"></use></pattern><symbol id="crawlingSymbol"><g><animateTransform attributeName="transform" type="translate" from="0 0" to="-12 0" dur="0.4s" repeatCount="indefinite"></animateTransform><path d="M -12.5 12.5 l 13 -13 l 6 0 l -13 13 Z M -0.5 12.5 l 13 -13 l 6 0 l -13 13 Z M 11.5 12.5 l 13 -13 l 6 0 l -13 13 Z"></path></g></symbol></defs><g id="tx_analyzin_8zmzz01b840sn-fill-overlay" stroke="none" fill="url(#crawlingPattern-0000001b)"><g><text style="font: 20px Roboto, sans-serif; white-space: pre;" font-size="20px" font-family="Roboto, sans-serif"><tspan x="14.2" y="34" dominant-baseline="ideographic">Analyzing the 1952 Washington National Sightings</tspan></text></g></g></g><g id="g-root-ic_view_1upajks1b8426g-stroke-fill" data-item-order="0" transform="translate(254, 140)"><g id="ic_view_1upajks1b8426g-stroke" fill="none" stroke-linecap="round" stroke-linejoin="round" stroke-miterlimit="4" stroke="#f4f4f4" stroke-width="2"><g><path d="M 44.875 28.75L 44.875 13.375C 44.875 12.13236 43.867641 11.125 42.625 11.125L 13.375 11.125C 12.13236 11.125 11.125 12.13236 11.125 13.375L 11.125 33.625C 11.125 34.867641 12.13236 35.875 13.375 35.875L 20.125 35.875M 18.076 18.799C 18.076 20.759058 19.664942 22.348 21.625 22.348C 23.585058 22.348 25.174 20.759058 25.174 18.799C 25.174 16.838942 23.585058 15.25 21.625 15.25C 19.664942 15.25 18.076 16.838942 18.076 18.799M 15.541 29.445999C 15.541 26.085901 18.2649 23.362001 21.625 23.362001C 24.985102 23.362001 27.709002 26.085901 27.709002 29.446001ZM 31.375 16.75L 38.125 16.75M 31.375 21.25L 40.375 21.25M 44.875 38.125C 44.875 38.125 41.5 44.875 34.75 44.875C 28 44.875 24.625 38.125 24.625 38.125C 24.625 38.125 28 31.375 34.75 31.375C 41.5 31.375 44.875 38.125 44.875 38.125ZM 31.375 38.125C 31.375 39.98896 32.88604 41.5 34.75 41.5C 36.61396 41.5 38.125 39.98896 38.125 38.125C 38.125 36.26104 36.61396 34.75 34.75 34.75C 32.88604 34.75 31.375 36.26104 31.375 38.125M 31.375 38.125C 31.375 39.98896 32.88604 41.5 34.75 41.5C 36.61396 41.5 38.125 39.98896 38.125 38.125C 38.125 36.26104 36.61396 34.75 34.75 34.75C 32.88604 34.75 31.375 36.26104 31.375 38.125M 31.375 38.125C 31.375 39.98896 32.88604 41.5 34.75 41.5C 36.61396 41.5 38.125 39.98896 38.125 38.125C 38.125 36.26104 36.61396 34.75 34.75 34.75C 32.88604 34.75 31.375 36.26104 31.375 38.125"></path></g></g><g id="ic_view_1upajks1b8426g-stroke-overlay" fill="none" stroke-linecap="round" stroke-linejoin="round" stroke-miterlimit="4" stroke="#3131311a" stroke-width="2" stroke-dasharray="4,6"><animate attributeName="stroke-dashoffset" values="30;0" dur="1s" repeatCount="indefinite" begin="0"></animate><g><path d="M 44.875 28.75L 44.875 13.375C 44.875 12.13236 43.867641 11.125 42.625 11.125L 13.375 11.125C 12.13236 11.125 11.125 12.13236 11.125 13.375L 11.125 33.625C 11.125 34.867641 12.13236 35.875 13.375 35.875L 20.125 35.875M 18.076 18.799C 18.076 20.759058 19.664942 22.348 21.625 22.348C 23.585058 22.348 25.174 20.759058 25.174 18.799C 25.174 16.838942 23.585058 15.25 21.625 15.25C 19.664942 15.25 18.076 16.838942 18.076 18.799M 15.541 29.445999C 15.541 26.085901 18.2649 23.362001 21.625 23.362001C 24.985102 23.362001 27.709002 26.085901 27.709002 29.446001ZM 31.375 16.75L 38.125 16.75M 31.375 21.25L 40.375 21.25M 44.875 38.125C 44.875 38.125 41.5 44.875 34.75 44.875C 28 44.875 24.625 38.125 24.625 38.125C 24.625 38.125 28 31.375 34.75 31.375C 41.5 31.375 44.875 38.125 44.875 38.125ZM 31.375 38.125C 31.375 39.98896 32.88604 41.5 34.75 41.5C 36.61396 41.5 38.125 39.98896 38.125 38.125C 38.125 36.26104 36.61396 34.75 34.75 34.75C 32.88604 34.75 31.375 36.26104 31.375 38.125M 31.375 38.125C 31.375 39.98896 32.88604 41.5 34.75 41.5C 36.61396 41.5 38.125 39.98896 38.125 38.125C 38.125 36.26104 36.61396 34.75 34.75 34.75C 32.88604 34.75 31.375 36.26104 31.375 38.125M 31.375 38.125C 31.375 39.98896 32.88604 41.5 34.75 41.5C 36.61396 41.5 38.125 39.98896 38.125 38.125C 38.125 36.26104 36.61396 34.75 34.75 34.75C 32.88604 34.75 31.375 36.26104 31.375 38.125"></path></g></g></g><g id="g-root-ic_1_1qegu581b85fr5-stroke-fill" data-item-order="0" transform="translate(254, 596)"><g id="ic_1_1qegu581b85fr5-stroke" fill="none" stroke-linecap="round" stroke-linejoin="round" stroke-miterlimit="4" stroke="#f4f4f4" stroke-width="2"><g><path d="M 10.75 40.75C 10.75 43.235283 12.764719 45.25 15.25 45.25C 17.735281 45.25 19.75 43.235283 19.75 40.75C 19.75 38.264721 17.735281 36.25 15.25 36.25C 12.764719 36.25 10.75 38.264721 10.75 40.75M 23.5 40.75C 23.5 43.235283 25.514719 45.25 28 45.25C 30.485283 45.25 32.5 43.235283 32.5 40.75C 32.5 38.264721 30.485283 36.25 28 36.25C 25.514719 36.25 23.5 38.264721 23.5 40.75M 36.25 40.75C 36.25 43.235283 38.264721 45.25 40.75 45.25C 43.235283 45.25 45.25 43.235283 45.25 40.75C 45.25 38.264721 43.235283 36.25 40.75 36.25C 38.264721 36.25 36.25 38.264721 36.25 40.75M 14.875 40.75C 14.875 40.957108 15.042893 41.125 15.25 41.125C 15.457107 41.125 15.625 40.957108 15.625 40.75C 15.625 40.542892 15.457107 40.375 15.25 40.375C 15.042893 40.375 14.875 40.542892 14.875 40.75M 27.625 40.75C 27.625 40.957108 27.792892 41.125 28 41.125C 28.207108 41.125 28.375 40.957108 28.375 40.75C 28.375 40.542892 28.207108 40.375 28 40.375C 27.792892 40.375 27.625 40.542892 27.625 40.75M 40.375 40.75C 40.375 40.957108 40.542892 41.125 40.75 41.125C 40.957108 41.125 41.125 40.957108 41.125 40.75C 41.125 40.542892 40.957108 40.375 40.75 40.375C 40.542892 40.375 40.375 40.542892 40.375 40.75M 40 33.25L 40 32.5C 40 31.25736 38.992641 30.25 37.75 30.25L 18.25 30.25C 17.00736 30.25 16 31.25736 16 32.5L 16 33.25M 28 18.25C 28 22.392136 31.357864 25.75 35.5 25.75C 39.642136 25.75 43 22.392136 43 18.25C 43 14.107864 39.642136 10.75 35.5 10.75C 31.357864 10.75 28 14.107864 28 18.25M 34.75 18.25C 34.75 18.664213 35.085785 19 35.5 19C 35.914215 19 36.25 18.664213 36.25 18.25C 36.25 17.835787 35.914215 17.5 35.5 17.5C 35.085785 17.5 34.75 17.835787 34.75 18.25M 19.009001 29.8405L 19.009001 25.3405C 19.009001 23.683647 20.352146 22.3405 22.008999 22.3405C 23.665855 22.3405 25.008999 23.683647 25.008999 25.3405L 25.008999 29.8405M 35.5 25.75L 35.5 30.25M 10.75 10.75L 13 13M 21.355 10.75C 24.220917 13.689068 24.19149 18.386053 21.288973 21.288982C 18.386454 24.19191 13.689474 24.222 10.75 21.356501Z"></path></g></g><g id="ic_1_1qegu581b85fr5-stroke-overlay" fill="none" stroke-linecap="round" stroke-linejoin="round" stroke-miterlimit="4" stroke="#3131311a" stroke-width="2" stroke-dasharray="4,6"><animate attributeName="stroke-dashoffset" values="30;0" dur="1s" repeatCount="indefinite" begin="0"></animate><g><path d="M 10.75 40.75C 10.75 43.235283 12.764719 45.25 15.25 45.25C 17.735281 45.25 19.75 43.235283 19.75 40.75C 19.75 38.264721 17.735281 36.25 15.25 36.25C 12.764719 36.25 10.75 38.264721 10.75 40.75M 23.5 40.75C 23.5 43.235283 25.514719 45.25 28 45.25C 30.485283 45.25 32.5 43.235283 32.5 40.75C 32.5 38.264721 30.485283 36.25 28 36.25C 25.514719 36.25 23.5 38.264721 23.5 40.75M 36.25 40.75C 36.25 43.235283 38.264721 45.25 40.75 45.25C 43.235283 45.25 45.25 43.235283 45.25 40.75C 45.25 38.264721 43.235283 36.25 40.75 36.25C 38.264721 36.25 36.25 38.264721 36.25 40.75M 14.875 40.75C 14.875 40.957108 15.042893 41.125 15.25 41.125C 15.457107 41.125 15.625 40.957108 15.625 40.75C 15.625 40.542892 15.457107 40.375 15.25 40.375C 15.042893 40.375 14.875 40.542892 14.875 40.75M 27.625 40.75C 27.625 40.957108 27.792892 41.125 28 41.125C 28.207108 41.125 28.375 40.957108 28.375 40.75C 28.375 40.542892 28.207108 40.375 28 40.375C 27.792892 40.375 27.625 40.542892 27.625 40.75M 40.375 40.75C 40.375 40.957108 40.542892 41.125 40.75 41.125C 40.957108 41.125 41.125 40.957108 41.125 40.75C 41.125 40.542892 40.957108 40.375 40.75 40.375C 40.542892 40.375 40.375 40.542892 40.375 40.75M 40 33.25L 40 32.5C 40 31.25736 38.992641 30.25 37.75 30.25L 18.25 30.25C 17.00736 30.25 16 31.25736 16 32.5L 16 33.25M 28 18.25C 28 22.392136 31.357864 25.75 35.5 25.75C 39.642136 25.75 43 22.392136 43 18.25C 43 14.107864 39.642136 10.75 35.5 10.75C 31.357864 10.75 28 14.107864 28 18.25M 34.75 18.25C 34.75 18.664213 35.085785 19 35.5 19C 35.914215 19 36.25 18.664213 36.25 18.25C 36.25 17.835787 35.914215 17.5 35.5 17.5C 35.085785 17.5 34.75 17.835787 34.75 18.25M 19.009001 29.8405L 19.009001 25.3405C 19.009001 23.683647 20.352146 22.3405 22.008999 22.3405C 23.665855 22.3405 25.008999 23.683647 25.008999 25.3405L 25.008999 29.8405M 35.5 25.75L 35.5 30.25M 10.75 10.75L 13 13M 21.355 10.75C 24.220917 13.689068 24.19149 18.386053 21.288973 21.288982C 18.386454 24.19191 13.689474 24.222 10.75 21.356501Z"></path></g></g></g><g id="g-root-ic_pers_hss3vg1b888ay-stroke-fill" data-item-order="0" transform="translate(566, 140)"><g id="ic_pers_hss3vg1b888ay-stroke" fill="none" stroke-linecap="round" stroke-linejoin="round" stroke-miterlimit="4" stroke="#f4f4f4" stroke-width="2"><g><path d="M 27.25 14.5C 27.25 16.571068 28.928932 18.25 31 18.25C 33.071068 18.25 34.75 16.571068 34.75 14.5C 34.75 12.428932 33.071068 10.75 31 10.75C 28.928932 10.75 27.25 12.428932 27.25 14.5ZM 43 45.25C 41.757362 45.25 40.75 44.242641 40.75 43L 40.75 31.150002C 40.749317 30.617437 40.560749 30.102192 40.217499 29.695L 35.894501 24.377501L 34.017998 25.837C 31.329393 27.922499 27.509769 27.684776 25.1005 25.282L 22.66 22.841499C 21.80731 21.958649 21.819504 20.555307 22.687407 19.687407C 23.555307 18.819504 24.958649 18.80731 25.841499 19.66L 28.282 22.1005C 29.084606 22.903078 30.359322 22.982185 31.255001 22.285L 34.8685 19.4755C 35.834198 18.723726 37.223671 18.881668 37.996002 19.831001L 43.681 26.8225C 44.696243 28.035828 45.251736 29.567949 45.249996 31.15L 45.25 43C 45.25 44.242641 44.242641 45.25 43 45.25ZM 15.25 18.25C 15.25 19.078426 14.578427 19.75 13.75 19.75L 12.25 19.75C 11.421573 19.75 10.75 19.078426 10.75 18.25L 10.75 12.25C 10.75 11.421573 11.421573 10.75 12.25 10.75L 13.75 10.75C 14.578427 10.75 15.25 11.421573 15.25 12.25ZM 24.25 15.4795C 24.249662 16.212727 23.719299 16.838251 22.995998 16.9585L 15.25 18.25L 15.25 12.25L 22.8745 12.886C 23.653954 12.950913 24.252697 13.603854 24.25 14.386ZM 18.25 17.7505L 18.25 45.25M 11.5 45.25L 18.25 28L 25 45.25"></path></g></g><g id="ic_pers_hss3vg1b888ay-stroke-overlay" fill="none" stroke-linecap="round" stroke-linejoin="round" stroke-miterlimit="4" stroke="#3131311a" stroke-width="2" stroke-dasharray="4,6"><animate attributeName="stroke-dashoffset" values="30;0" dur="1s" repeatCount="indefinite" begin="0"></animate><g><path d="M 27.25 14.5C 27.25 16.571068 28.928932 18.25 31 18.25C 33.071068 18.25 34.75 16.571068 34.75 14.5C 34.75 12.428932 33.071068 10.75 31 10.75C 28.928932 10.75 27.25 12.428932 27.25 14.5ZM 43 45.25C 41.757362 45.25 40.75 44.242641 40.75 43L 40.75 31.150002C 40.749317 30.617437 40.560749 30.102192 40.217499 29.695L 35.894501 24.377501L 34.017998 25.837C 31.329393 27.922499 27.509769 27.684776 25.1005 25.282L 22.66 22.841499C 21.80731 21.958649 21.819504 20.555307 22.687407 19.687407C 23.555307 18.819504 24.958649 18.80731 25.841499 19.66L 28.282 22.1005C 29.084606 22.903078 30.359322 22.982185 31.255001 22.285L 34.8685 19.4755C 35.834198 18.723726 37.223671 18.881668 37.996002 19.831001L 43.681 26.8225C 44.696243 28.035828 45.251736 29.567949 45.249996 31.15L 45.25 43C 45.25 44.242641 44.242641 45.25 43 45.25ZM 15.25 18.25C 15.25 19.078426 14.578427 19.75 13.75 19.75L 12.25 19.75C 11.421573 19.75 10.75 19.078426 10.75 18.25L 10.75 12.25C 10.75 11.421573 11.421573 10.75 12.25 10.75L 13.75 10.75C 14.578427 10.75 15.25 11.421573 15.25 12.25ZM 24.25 15.4795C 24.249662 16.212727 23.719299 16.838251 22.995998 16.9585L 15.25 18.25L 15.25 12.25L 22.8745 12.886C 23.653954 12.950913 24.252697 13.603854 24.25 14.386ZM 18.25 17.7505L 18.25 45.25M 11.5 45.25L 18.25 28L 25 45.25"></path></g></g></g><g id="g-root-ic_day_1upx0nw1b89p1f-stroke-fill" data-item-order="0" transform="translate(566, 596)"><g id="ic_day_1upx0nw1b89p1f-stroke" fill="none" stroke-linecap="round" stroke-linejoin="round" stroke-miterlimit="4" stroke="#f4f4f4" stroke-width="2"><g><path d="M 28.024 33.750099C 30.44545 33.750099 32.408501 31.787201 32.408501 29.365749C 32.408501 26.9443 30.44545 24.981325 28.024 24.981325C 25.602699 24.981325 23.639666 26.9443 23.639666 29.365749C 23.639666 31.787201 25.602699 33.750099 28.024 33.750099ZM 35.818451 44.170151C 35.564651 42.282852 34.634651 40.551701 33.201248 39.298149C 31.767849 38.044449 29.928249 37.35355 28.023849 37.35355C 26.1196 37.35355 24.280029 38.044449 22.846569 39.298149C 21.413109 40.551701 20.4832 42.282852 20.229416 44.170151M 44.565548 11.848435C 43.87825 12.02131 43.190651 12.18262 42.50275 12.33235M 44.565548 36.3265C 43.87825 36.153702 43.190651 35.992298 42.50275 35.842598M 38.408203 13.131145C 31.49395 14.29852 24.56134 14.298505 17.647181 13.13113M 38.408203 35.04385C 37.2328 34.845402 36.056801 34.680702 34.880501 34.549751M 17.647181 35.04385C 18.822535 34.845402 19.99843 34.680702 21.174669 34.549751M 11.43436 11.829865C 12.121675 12.00274 12.80926 12.164035 13.497085 12.313765M 11.43436 36.3451C 12.121675 36.172302 12.80926 36.011051 13.497085 35.861202M 39.27145 17.21911L 39.27145 16.513241M 10 10M 42.515499 18.562885L 43.014847 18.063595M 43.85965 21.80719L 44.565548 21.80719M 10 10M 42.515499 25.051449L 43.014847 25.5508M 39.27145 26.395599L 39.27145 27.1015M 10 10M 36.0271 25.051449L 35.527901 25.5508M 34.683403 21.80719L 33.977501 21.80719M 10 10M 36.0271 18.562885L 35.527901 18.063595M 39.27145 23.7535C 38.197151 23.7535 37.326401 22.882629 37.326401 21.808374C 37.326401 20.734106 38.197151 19.863251 39.27145 19.863251M 39.27145 23.75185C 40.3456 23.75185 41.216499 22.880981 41.216499 21.806725C 41.216499 20.73247 40.3456 19.861599 39.27145 19.861599M 14.14003 23.516155L 13.45588 23.516155C 12.904615 23.44825 12.396445 23.183426 12.024985 22.770475C 11.653525 22.35751 11.443807 21.824245 11.434448 21.268885C 11.434332 20.96722 11.495088 20.668646 11.613085 20.391026C 11.731075 20.113405 11.90386 19.86244 12.121135 19.653175C 12.338395 19.443911 12.595645 19.280636 12.877495 19.17313C 13.159345 19.065624 13.45999 19.016094 13.76143 19.02751C 14.05783 18.394375 14.557075 17.878284 15.180025 17.561035C 15.802959 17.243771 16.513975 17.143511 17.200375 17.276125C 17.886761 17.408739 18.509245 17.766655 18.969175 18.29314C 19.429104 18.819611 19.700171 19.484529 19.73938 20.18251C 19.98439 20.13166 20.237665 20.136009 20.48077 20.195261C 20.72389 20.254509 20.950766 20.367174 21.144896 20.525049C 21.339041 20.68294 21.495581 20.88208 21.60313 21.108025C 21.710695 21.333956 21.766569 21.58102 21.76672 21.831249C 21.76417 22.061365 21.715075 22.288586 21.622435 22.499245C 21.529779 22.70989 21.39547 22.899624 21.227591 23.057035C 21.05971 23.21443 20.861725 23.336245 20.645546 23.415146C 20.429365 23.494045 20.199446 23.52841 19.969645 23.516155L 14.139296 23.516155Z"></path></g></g><g id="ic_day_1upx0nw1b89p1f-stroke-overlay" fill="none" stroke-linecap="round" stroke-linejoin="round" stroke-miterlimit="4" stroke="#3131311a" stroke-width="2" stroke-dasharray="4,6"><animate attributeName="stroke-dashoffset" values="30;0" dur="1s" repeatCount="indefinite" begin="0"></animate><g><path d="M 28.024 33.750099C 30.44545 33.750099 32.408501 31.787201 32.408501 29.365749C 32.408501 26.9443 30.44545 24.981325 28.024 24.981325C 25.602699 24.981325 23.639666 26.9443 23.639666 29.365749C 23.639666 31.787201 25.602699 33.750099 28.024 33.750099ZM 35.818451 44.170151C 35.564651 42.282852 34.634651 40.551701 33.201248 39.298149C 31.767849 38.044449 29.928249 37.35355 28.023849 37.35355C 26.1196 37.35355 24.280029 38.044449 22.846569 39.298149C 21.413109 40.551701 20.4832 42.282852 20.229416 44.170151M 44.565548 11.848435C 43.87825 12.02131 43.190651 12.18262 42.50275 12.33235M 44.565548 36.3265C 43.87825 36.153702 43.190651 35.992298 42.50275 35.842598M 38.408203 13.131145C 31.49395 14.29852 24.56134 14.298505 17.647181 13.13113M 38.408203 35.04385C 37.2328 34.845402 36.056801 34.680702 34.880501 34.549751M 17.647181 35.04385C 18.822535 34.845402 19.99843 34.680702 21.174669 34.549751M 11.43436 11.829865C 12.121675 12.00274 12.80926 12.164035 13.497085 12.313765M 11.43436 36.3451C 12.121675 36.172302 12.80926 36.011051 13.497085 35.861202M 39.27145 17.21911L 39.27145 16.513241M 10 10M 42.515499 18.562885L 43.014847 18.063595M 43.85965 21.80719L 44.565548 21.80719M 10 10M 42.515499 25.051449L 43.014847 25.5508M 39.27145 26.395599L 39.27145 27.1015M 10 10M 36.0271 25.051449L 35.527901 25.5508M 34.683403 21.80719L 33.977501 21.80719M 10 10M 36.0271 18.562885L 35.527901 18.063595M 39.27145 23.7535C 38.197151 23.7535 37.326401 22.882629 37.326401 21.808374C 37.326401 20.734106 38.197151 19.863251 39.27145 19.863251M 39.27145 23.75185C 40.3456 23.75185 41.216499 22.880981 41.216499 21.806725C 41.216499 20.73247 40.3456 19.861599 39.27145 19.861599M 14.14003 23.516155L 13.45588 23.516155C 12.904615 23.44825 12.396445 23.183426 12.024985 22.770475C 11.653525 22.35751 11.443807 21.824245 11.434448 21.268885C 11.434332 20.96722 11.495088 20.668646 11.613085 20.391026C 11.731075 20.113405 11.90386 19.86244 12.121135 19.653175C 12.338395 19.443911 12.595645 19.280636 12.877495 19.17313C 13.159345 19.065624 13.45999 19.016094 13.76143 19.02751C 14.05783 18.394375 14.557075 17.878284 15.180025 17.561035C 15.802959 17.243771 16.513975 17.143511 17.200375 17.276125C 17.886761 17.408739 18.509245 17.766655 18.969175 18.29314C 19.429104 18.819611 19.700171 19.484529 19.73938 20.18251C 19.98439 20.13166 20.237665 20.136009 20.48077 20.195261C 20.72389 20.254509 20.950766 20.367174 21.144896 20.525049C 21.339041 20.68294 21.495581 20.88208 21.60313 21.108025C 21.710695 21.333956 21.766569 21.58102 21.76672 21.831249C 21.76417 22.061365 21.715075 22.288586 21.622435 22.499245C 21.529779 22.70989 21.39547 22.899624 21.227591 23.057035C 21.05971 23.21443 20.861725 23.336245 20.645546 23.415146C 20.429365 23.494045 20.199446 23.52841 19.969645 23.516155L 14.139296 23.516155Z"></path></g></g></g><g id="g-root-ic_ufo_zqxcbg1b8b3lw-stroke-fill" data-item-order="0" transform="translate(734, 362)"><g id="ic_ufo_zqxcbg1b8b3lw-stroke" fill="none" stroke-linecap="round" stroke-linejoin="round" stroke-miterlimit="4" stroke="#f4f4f4" stroke-width="2"><g><path d="M 49 22.5C 52.977859 22.499041 56.352161 25.420879 56.919998 29.358C 56.961449 29.646814 56.874687 29.939325 56.682472 30.158836C 56.490257 30.378345 56.211758 30.502958 55.919998 30.5L 12.07 30.5C 11.778242 30.502958 11.499743 30.378345 11.307528 30.158836C 11.115312 29.939325 11.028553 29.646814 11.07 29.358C 11.638377 25.417118 15.018346 22.494064 19 22.5ZM 19 22.5C 19 17.5 25.716 11.5 34 11.5C 42.284 11.5 49 17.5 49 22.5M 47.77 39.5L 52.995998 56.5M 14.996 56.5L 20.232 39.5M 34.996002 49.5L 31.996 53.652M 37.996002 53.5L 34.996002 49.5M 31.996 46.5L 37.996002 46.5M 35 41.5C 35.552284 41.5 36 41.947716 36 42.5M 34 42.5C 34 41.947716 34.447716 41.5 35 41.5M 35 43.5C 34.447716 43.5 34 43.052284 34 42.5M 36 42.5C 36 43.052284 35.552284 43.5 35 43.5M 34.996002 49.5L 34.996002 46.5M 25 30.5C 25 33.261421 22.761425 35.5 20 35.5C 17.238577 35.5 15 33.261421 15 30.5M 39 30.5C 39 33.261421 36.761425 35.5 34 35.5C 31.238577 35.5 29 33.261421 29 30.5M 53 30.5C 53 33.261421 50.761425 35.5 48 35.5C 45.238575 35.5 43 33.261421 43 30.5"></path></g></g><g id="ic_ufo_zqxcbg1b8b3lw-stroke-overlay" fill="none" stroke-linecap="round" stroke-linejoin="round" stroke-miterlimit="4" stroke="#3131311a" stroke-width="2" stroke-dasharray="4,6"><animate attributeName="stroke-dashoffset" values="30;0" dur="1s" repeatCount="indefinite" begin="0"></animate><g><path d="M 49 22.5C 52.977859 22.499041 56.352161 25.420879 56.919998 29.358C 56.961449 29.646814 56.874687 29.939325 56.682472 30.158836C 56.490257 30.378345 56.211758 30.502958 55.919998 30.5L 12.07 30.5C 11.778242 30.502958 11.499743 30.378345 11.307528 30.158836C 11.115312 29.939325 11.028553 29.646814 11.07 29.358C 11.638377 25.417118 15.018346 22.494064 19 22.5ZM 19 22.5C 19 17.5 25.716 11.5 34 11.5C 42.284 11.5 49 17.5 49 22.5M 47.77 39.5L 52.995998 56.5M 14.996 56.5L 20.232 39.5M 34.996002 49.5L 31.996 53.652M 37.996002 53.5L 34.996002 49.5M 31.996 46.5L 37.996002 46.5M 35 41.5C 35.552284 41.5 36 41.947716 36 42.5M 34 42.5C 34 41.947716 34.447716 41.5 35 41.5M 35 43.5C 34.447716 43.5 34 43.052284 34 42.5M 36 42.5C 36 43.052284 35.552284 43.5 35 43.5M 34.996002 49.5L 34.996002 46.5M 25 30.5C 25 33.261421 22.761425 35.5 20 35.5C 17.238577 35.5 15 33.261421 15 30.5M 39 30.5C 39 33.261421 36.761425 35.5 34 35.5C 31.238577 35.5 29 33.261421 29 30.5M 53 30.5C 53 33.261421 50.761425 35.5 48 35.5C 45.238575 35.5 43 33.261421 43 30.5"></path></g></g></g></svg>