<?xml version='1.0' encoding='utf-8'?>
<svg xmlns="http://www.w3.org/2000/svg" xmlns:xlink="http://www.w3.org/1999/xlink" width="816" height="636" viewBox="0 0 816 636" style="fill:none;stroke:none;fill-rule:evenodd;clip-rule:evenodd;stroke-linecap:round;stroke-linejoin:round;stroke-miterlimit:1.5;" version="1.1">
  <style class="text-font-style fontImports" data-font-family="Roboto">@import url('https://fonts.googleapis.com/css2?family=Roboto:wght@400;700&amp;display=block');</style>
  <rect x="0" y="0" width="816" height="636" fill="#252a34" stroke="none" id="programmatic_background"/>
  <g id="g-root-tf_hsro2k1cm7ls0-stroke-fill" data-item-order="-477360" transform="translate(18, 12)">
    <g id="tf_hsro2k1cm7ls0-fill" stroke="none" fill="#2c2c2c">
      <g>
        <path d="M 0 0L 780 0L 780 612L 0 612Z"/>
      </g>
    </g>
    <defs>
      <pattern id="crawlingPattern-7878781a" x="0" y="0" width="12" height="12" patternUnits="userSpaceOnUse" fill="#7878781a">
        <use href="#crawlingSymbol"/>
      </pattern>
      <symbol id="crawlingSymbol">
        <g>
          <path d="M -12.5 12.5 l 13 -13 l 6 0 l -13 13 Z M -0.5 12.5 l 13 -13 l 6 0 l -13 13 Z M 11.5 12.5 l 13 -13 l 6 0 l -13 13 Z"/>
        </g>
      </symbol>
      <pattern id="crawlingPattern-3604fc1a" x="0" y="0" width="12" height="12" patternUnits="userSpaceOnUse" fill="#3604fc1a">
        <use href="#crawlingSymbol"/>
      </pattern>
      <pattern id="crawlingPattern-8484841a" x="0" y="0" width="12" height="12" patternUnits="userSpaceOnUse" fill="#8484841a">
        <use href="#crawlingSymbol"/>
      </pattern>
      <pattern id="crawlingPattern-00d16d21" x="0" y="0" width="12" height="12" patternUnits="userSpaceOnUse" fill="#00d16d21">
        <use href="#crawlingSymbol"/>
      </pattern>
      <pattern id="crawlingPattern-00bcfb62" x="0" y="0" width="12" height="12" patternUnits="userSpaceOnUse" fill="#00bcfb62">
        <use href="#crawlingSymbol"/>
      </pattern>
      <pattern id="crawlingPattern-ffffff38" x="0" y="0" width="12" height="12" patternUnits="userSpaceOnUse" fill="#ffffff38">
        <use href="#crawlingSymbol"/>
      </pattern>
      <pattern id="crawlingPattern-0000001b" x="0" y="0" width="12" height="12" patternUnits="userSpaceOnUse" fill="#0000001b">
        <use href="#crawlingSymbol"/>
      </pattern>
      <pattern id="crawlingPattern-5f5f5f1a" x="0" y="0" width="12" height="12" patternUnits="userSpaceOnUse" fill="#5f5f5f1a">
        <use href="#crawlingSymbol"/>
      </pattern>
    </defs>
  </g>
  <g id="g-root-sy_-1_cu_dg2jdo1cm68sl-stroke-fill" data-item-order="-316218" transform="translate(32, 265.00390625)">
    <g id="sy_-1_cu_dg2jdo1cm68sl-fill" stroke="none" fill="#ababab">
      <g>
        <path d="M 10.001 143L 10 47L 67 47L 70 59L 322 59L 319 47L 367 47L 370 59L 622 59L 619 47L 646 47L 646 10L 742 95L 646.002 180L 646 143L 619 143L 622 131L 370 131L 367 143L 319.001 143L 322.001 131L 70.001 131L 67.001 143L 10.001 143Z"/>
      </g>
    </g>
    <g id="sy_-1_cu_dg2jdo1cm68sl-stroke" fill="none" stroke-linecap="round" stroke-linejoin="round" stroke-miterlimit="4" stroke="#2c2c2c" stroke-width="2">
      <g>
        <path d="M 10.001 143L 10 47L 67 47L 70 59L 322 59L 319 47L 367 47L 370 59L 622 59L 619 47L 646 47L 646 10L 742 95L 646.0017 180L 646 143L 619 143L 622 131L 370 131L 367 143L 319.001 143L 322.001 131L 70.001 131L 67.001 143L 10.001 143Z"/>
      </g>
    </g>
  </g>
  <g id="g-root-sy_4_cu_4kfj4s1cm69la-stroke-fill" data-item-order="-316214" transform="translate(347, 386)">
    <g id="sy_4_cu_4kfj4s1cm69la-fill" stroke="none" fill="#8769fd">
      <g>
        <path d="M 307 10L 295 58L 43 58L 55 10L 307 10ZM 291.992188 70L 279.992188 118L 27.992188 118L 39.992188 70L 291.992188 70ZM 277 130L 25 130L 10 190L 262 190L 277 130Z"/>
      </g>
    </g>
    <g id="sy_4_cu_4kfj4s1cm69la-stroke" fill="none" stroke-linecap="round" stroke-linejoin="round" stroke-miterlimit="4" stroke="#2c2c2c" stroke-width="2">
      <g>
        <path d="M 307 10L 295 58L 43 58L 55 10L 307 10ZM 291.992188 70L 279.992188 118L 27.992188 118L 39.992188 70L 291.992188 70ZM 277 130L 25 130L 10 190L 262 190L 277 130Z"/>
      </g>
    </g>
  </g>
  <g id="g-root-sy_3_cu_58i3g1cm677r-stroke-fill" data-item-order="-316210" transform="translate(347, 134)">
    <g id="sy_3_cu_58i3g1cm677r-fill" stroke="none" fill="#b7b7b7">
      <g>
        <path d="M 307 190L 295 142L 43 142L 55 190L 307 190ZM 291.992188 130L 279.992188 82L 27.992188 82L 39.992188 130L 291.992188 130ZM 277 70L 25 70L 10 10L 262 10L 277 70Z"/>
      </g>
    </g>
    <g id="sy_3_cu_58i3g1cm677r-stroke" fill="none" stroke-linecap="round" stroke-linejoin="round" stroke-miterlimit="4" stroke="#2c2c2c" stroke-width="2">
      <g>
        <path d="M 307 190L 295 142L 43 142L 55 190L 307 190ZM 291.992188 130L 279.992188 82L 27.992188 82L 39.992188 130L 291.992188 130ZM 277 70L 25 70L 10 10L 262 10L 277 70Z"/>
      </g>
    </g>
  </g>
  <g id="g-root-sy_2_cu_1luw1p81cm68lk-stroke-fill" data-item-order="-316206" transform="translate(47, 386)">
    <g id="sy_2_cu_1luw1p81cm68lk-fill" stroke="none" fill="#43dd93">
      <g>
        <path d="M 307.000977 10L 295.000977 58L 43.000977 58L 55.000977 10L 307.000977 10ZM 291.993164 70L 279.993164 118L 27.993164 118L 39.993164 70L 291.993164 70ZM 277.001 130L 25.001 130L 10 190L 262 190L 277.001 130Z"/>
      </g>
    </g>
    <g id="sy_2_cu_1luw1p81cm68lk-stroke" fill="none" stroke-linecap="round" stroke-linejoin="round" stroke-miterlimit="4" stroke="#2c2c2c" stroke-width="2">
      <g>
        <path d="M 307.000977 10L 295.000977 58L 43.000977 58L 55.000977 10L 307.000977 10ZM 291.993164 70L 279.993164 118L 27.993164 118L 39.993164 70L 291.993164 70ZM 277.001 130L 25.001 130L 10 190L 262 190L 277.001 130Z"/>
      </g>
    </g>
  </g>
  <g id="g-root-sy_1_cu_1hf2jks1cm69dt-stroke-fill" data-item-order="-316202" transform="translate(47, 134)">
    <g id="sy_1_cu_1hf2jks1cm69dt-fill" stroke="none" fill="#1ac3fb">
      <g>
        <path d="M 307 190L 295 142L 43 142L 55 190L 307 190ZM 291.992188 130L 279.992188 82L 27.992188 82L 39.992188 130L 291.992188 130ZM 277 70L 25 70L 10 10L 262 10L 277 70Z"/>
      </g>
    </g>
    <g id="sy_1_cu_1hf2jks1cm69dt-stroke" fill="none" stroke-linecap="round" stroke-linejoin="round" stroke-miterlimit="4" stroke="#2c2c2c" stroke-width="2">
      <g>
        <path d="M 307 190L 295 142L 43 142L 55 190L 307 190ZM 291.992188 130L 279.992188 82L 27.992188 82L 39.992188 130L 291.992188 130ZM 277 70L 25 70L 10 10L 262 10L 277 70Z"/>
      </g>
    </g>
  </g>
  <g id="g-root-tx_unexplai_1448iak1cm67sy-stroke-fill" data-item-order="0" transform="translate(152, 320)">
    <g id="tx_unexplai_1448iak1cm67sy-fill" stroke="none" fill="#2c2c2c">
      <g>
        <text style="font: bold 25px Roboto, sans-serif; white-space: pre;" font-weight="bold" font-size="25px" font-family="Roboto, sans-serif">
          <tspan x="16.22" y="40" dominant-baseline="ideographic">Unexplained phenomena in Washington National </tspan>
          <tspan x="456.03" y="70" dominant-baseline="ideographic">sightings</tspan>
        </text>
      </g>
    </g>
  </g>
  <g id="g-root-tx_suddenac_hx4zoc1cm6a6j-stroke-fill" data-item-order="0" transform="translate(452, 392)">
    <g id="tx_suddenac_hx4zoc1cm6a6j-fill" stroke="none" fill="#2c2c2c">
      <g>
        <text style="font: 15px Roboto, sans-serif; white-space: pre;" font-size="15px" font-family="Roboto, sans-serif">
          <tspan x="11.56" y="28" dominant-baseline="ideographic">Sudden acceleration and </tspan>
          <tspan x="77.98" y="46" dominant-baseline="ideographic">disappearance</tspan>
        </text>
      </g>
    </g>
  </g>
  <g id="g-root-tx_objectsr_6hg9o1cm69dw-stroke-fill" data-item-order="0" transform="translate(389, 458)">
    <g id="tx_objectsr_6hg9o1cm69dw-fill" stroke="none" fill="#2c2c2c">
      <g>
        <text style="font: 15px Roboto, sans-serif; white-space: pre;" font-size="15px" font-family="Roboto, sans-serif">
          <tspan x="14.45" y="31" dominant-baseline="ideographic">Objects reacting to interceptors</tspan>
        </text>
      </g>
    </g>
  </g>
  <g id="g-root-tx_behavior_1lwrgyk1cm67lx-stroke-fill" data-item-order="0" transform="translate(386, 524)">
    <g id="tx_behavior_1lwrgyk1cm67lx-fill" stroke="none" fill="#2c2c2c">
      <g>
        <text style="font: bold 20px Roboto, sans-serif; white-space: pre;" font-weight="bold" font-size="20px" font-family="Roboto, sans-serif">
          <tspan x="16.69" y="34" dominant-baseline="ideographic">Behavioral Anomalies</tspan>
        </text>
      </g>
    </g>
  </g>
  <g id="g-root-tx_contempo_vagxb01cm67ly-stroke-fill" data-item-order="0" transform="translate(428, 278)">
    <g id="tx_contempo_vagxb01cm67ly-fill" stroke="none" fill="#2c2c2c">
      <g>
        <text style="font: 15px Roboto, sans-serif; white-space: pre;" font-size="15px" font-family="Roboto, sans-serif">
          <tspan x="14.47" y="31" dominant-baseline="ideographic">Contemporary news reports</tspan>
        </text>
      </g>
    </g>
  </g>
  <g id="g-root-tx_projectb_hz0exo1cm696v-stroke-fill" data-item-order="0" transform="translate(449, 218)">
    <g id="tx_projectb_hz0exo1cm696v-fill" stroke="none" fill="#2c2c2c">
      <g>
        <text style="font: 15px Roboto, sans-serif; white-space: pre;" font-size="15px" font-family="Roboto, sans-serif">
          <tspan x="14.64" y="31" dominant-baseline="ideographic">Project Blue Book files</tspan>
        </text>
      </g>
    </g>
  </g>
  <g id="g-root-tx_official_4o6dng1cm67m0-stroke-fill" data-item-order="0" transform="translate(374, 152)">
    <g id="tx_official_4o6dng1cm67m0-fill" stroke="none" fill="#2c2c2c">
      <g>
        <text style="font: bold 20px Roboto, sans-serif; white-space: pre;" font-weight="bold" font-size="20px" font-family="Roboto, sans-serif">
          <tspan x="17.66" y="34" dominant-baseline="ideographic">Official Documentation</tspan>
        </text>
      </g>
    </g>
  </g>
  <g id="g-root-tx_military_8cvj01cm68e9-stroke-fill" data-item-order="0" transform="translate(140, 398)">
    <g id="tx_military_8cvj01cm68e9-fill" stroke="none" fill="#2c2c2c">
      <g>
        <text style="font: 15px Roboto, sans-serif; white-space: pre;" font-size="15px" font-family="Roboto, sans-serif">
          <tspan x="12.25" y="31" dominant-baseline="ideographic">Military and pilot sightings</tspan>
        </text>
      </g>
    </g>
  </g>
  <g id="g-root-tx_reportsb_1ly0f4s1cm69s2-stroke-fill" data-item-order="0" transform="translate(89, 458)">
    <g id="tx_reportsb_1ly0f4s1cm69s2-fill" stroke="none" fill="#2c2c2c">
      <g>
        <text style="font: 15px Roboto, sans-serif; white-space: pre;" font-size="15px" font-family="Roboto, sans-serif">
          <tspan x="14.83" y="31" dominant-baseline="ideographic">Reports by air traffic controllers</tspan>
        </text>
      </g>
    </g>
  </g>
  <g id="g-root-tx_visualob_zrjdlo1cm68zv-stroke-fill" data-item-order="0" transform="translate(98, 524)">
    <g id="tx_visualob_zrjdlo1cm68zv-fill" stroke="none" fill="#2c2c2c">
      <g>
        <text style="font: bold 20px Roboto, sans-serif; white-space: pre;" font-weight="bold" font-size="20px" font-family="Roboto, sans-serif">
          <tspan x="20.06" y="34" dominant-baseline="ideographic">Visual Observations</tspan>
        </text>
      </g>
    </g>
  </g>
  <g id="g-root-tx_radarvis_mgpcbg1cm67f0-stroke-fill" data-item-order="0" transform="translate(125, 218)">
    <g id="tx_radarvis_mgpcbg1cm67f0-fill" stroke="none" fill="#2c2c2c">
      <g>
        <text style="font: 15px Roboto, sans-serif; white-space: pre;" font-size="15px" font-family="Roboto, sans-serif">
          <tspan x="22.97" y="31" dominant-baseline="ideographic">Radar-visual correlations</tspan>
        </text>
      </g>
    </g>
  </g>
  <g id="g-root-tx_multiple_958ty41cm68zx-stroke-fill" data-item-order="0" transform="translate(116, 272)">
    <g id="tx_multiple_958ty41cm68zx-fill" stroke="none" fill="#2c2c2c">
      <g>
        <text style="font: 15px Roboto, sans-serif; white-space: pre;" font-size="15px" font-family="Roboto, sans-serif">
          <tspan x="12.02" y="28" dominant-baseline="ideographic">Multiple independent systems </tspan>
          <tspan x="158.33" y="46" dominant-baseline="ideographic">tracking</tspan>
        </text>
      </g>
    </g>
  </g>
  <g id="g-root-tx_radardat_1ulj9981cm7lse-stroke-fill" data-item-order="0" transform="translate(182, 152)">
    <g id="tx_radardat_1ulj9981cm7lse-fill" stroke="none" fill="#2c2c2c">
      <g>
        <text style="font: bold 20px Roboto, sans-serif; white-space: pre;" font-weight="bold" font-size="20px" font-family="Roboto, sans-serif">
          <tspan x="17.05" y="34" dominant-baseline="ideographic">Radar Data</tspan>
        </text>
      </g>
    </g>
  </g>
  <g id="g-root-tx_analyzin_1ha2qvw1cm7ndb-stroke-fill" data-item-order="0" transform="translate(164, 50)">
    <g id="tx_analyzin_1ha2qvw1cm7ndb-fill" stroke="none" fill="#f4f4f4">
      <g>
        <text style="font: bold 20px Roboto, sans-serif; white-space: pre;" font-weight="bold" font-size="20px" font-family="Roboto, sans-serif">
          <tspan x="14.52" y="34" dominant-baseline="ideographic">Analyzing the Washington National UFO Sightings</tspan>
        </text>
      </g>
    </g>
  </g>
</svg>
