<?xml version='1.0' encoding='utf-8'?>
<svg xmlns="http://www.w3.org/2000/svg" xmlns:xlink="http://www.w3.org/1999/xlink" width="1056" height="708" viewBox="0 0 1056 708" style="fill:none;stroke:none;fill-rule:evenodd;clip-rule:evenodd;stroke-linecap:round;stroke-linejoin:round;stroke-miterlimit:1.5;" version="1.1">
  <style class="text-font-style fontImports" data-font-family="Roboto">@import url('https://fonts.googleapis.com/css2?family=Roboto:wght@400;700&amp;display=block');</style>
  <rect x="0" y="0" width="1056" height="708" fill="#252a34" stroke="none" id="programmatic_background"/>
  <g id="g-root-tf_1qd7mi41c2483s-stroke-fill" data-item-order="-691560" transform="translate(18, 12)"/>
  <g id="g-root-sy_4_cu_8xr8301c2i9z4-stroke-fill" data-item-order="-317369" transform="translate(608, 386)">
    <g id="sy_4_cu_8xr8301c2i9z4-stroke" fill="none" stroke-linecap="round" stroke-linejoin="round" stroke-miterlimit="4" stroke="#f79438" stroke-width="2">
      <g>
        <path d="M 33.850586 154.000488L 45.850586 154.000488M 58.200195 70L 70.200195 70M 87.9997 10L 21.9997 238L 10 238"/>
      </g>
    </g>
  </g>
  <g id="g-root-sy_3_cu_247u41c2iart-stroke-fill" data-item-order="-317365" transform="translate(608, 158.00048828125)">
    <g id="sy_3_cu_247u41c2iart-stroke" fill="none" stroke-linecap="round" stroke-linejoin="round" stroke-miterlimit="4" stroke="#cb68f9" stroke-width="2">
      <g>
        <path d="M 33.84668 93.999512L 45.84668 93.999512M 58.195313 177.999512L 70.195313 177.999512M 87.9997 238L 21.9997 10L 10 10"/>
      </g>
    </g>
  </g>
  <g id="g-root-sy_2_cu_1uneros1c2ibcy-stroke-fill" data-item-order="-317361" transform="translate(296, 385.99951171875)">
    <g id="sy_2_cu_1uneros1c2ibcy-stroke" fill="none" stroke-linecap="round" stroke-linejoin="round" stroke-miterlimit="4" stroke="#43dd93" stroke-width="2">
      <g>
        <path d="M 33.851563 154.000488L 45.851563 154.000488M 58.200195 70.000488L 70.200195 70.000488M 87.9997 10L 21.9997 238L 10 238"/>
      </g>
    </g>
  </g>
  <g id="g-root-sy_1_cu_1lse8j01c2i8zv-stroke-fill" data-item-order="-317357" transform="translate(296, 158.00048828125)">
    <g id="sy_1_cu_1lse8j01c2i8zv-stroke" fill="none" stroke-linecap="round" stroke-linejoin="round" stroke-miterlimit="4" stroke="#fb6762" stroke-width="2">
      <g>
        <path d="M 33.851563 93.999512L 45.851563 93.999512M 58.200195 177.999512L 70.200195 177.999512M 87.9997 238L 21.9997 10L 10 10"/>
      </g>
    </g>
  </g>
  <g id="g-root-sy_-1_line_1hckqek1c2i9s4-stroke-fill" data-item-order="-317351" transform="translate(32, 386)">
    <g id="sy_-1_line_1hckqek1c2i9s4-stroke" fill="none" stroke-linecap="round" stroke-linejoin="round" stroke-miterlimit="4" stroke="#f4f4f4" stroke-width="2">
      <g>
        <path d="M 704 10L 10 10"/>
        <path d="M 698 16.5L 704.5 10L 698 3.5" stroke-dasharray="none"/>
      </g>
    </g>
  </g>
  <g id="g-root-tx_elusivee_18gxq5o1c2iakt-stroke-fill" data-item-order="0" transform="translate(800, 362)">
    <g id="tx_elusivee_18gxq5o1c2iakt-fill" stroke="none" fill="#f4f4f4">
      <g>
        <text style="font: 20px Roboto, sans-serif; white-space: pre;" font-size="20px" font-family="Roboto, sans-serif">
          <tspan x="12" y="34" dominant-baseline="ideographic">Elusive Explanation of </tspan>
          <tspan x="12" y="58" dominant-baseline="ideographic">Kaikoura UFOs</tspan>
        </text>
      </g>
    </g>
  </g>
  <g id="g-root-tx_professi_14148181c2ibd2-stroke-fill" data-item-order="0" transform="translate(452, 422)">
    <g id="tx_professi_14148181c2ibd2-fill" stroke="none" fill="#f4f4f4">
      <g>
        <text style="font: 20px Roboto, sans-serif; white-space: pre;" font-size="20px" font-family="Roboto, sans-serif">
          <tspan x="11.95" y="34" dominant-baseline="ideographic">Professional Witness </tspan>
          <tspan x="101.55" y="58" dominant-baseline="ideographic">Challenges</tspan>
        </text>
      </g>
    </g>
  </g>
  <g id="g-root-tx_credibil_qqa6r01c2i9s7-stroke-fill" data-item-order="0" transform="translate(428, 518)">
    <g id="tx_credibil_qqa6r01c2i9s7-fill" stroke="none" fill="#f4f4f4">
      <g>
        <text style="font: 20px Roboto, sans-serif; white-space: pre;" font-size="20px" font-family="Roboto, sans-serif">
          <tspan x="16.95" y="34" dominant-baseline="ideographic">Credibility Questions</tspan>
        </text>
      </g>
    </g>
  </g>
  <g id="g-root-tx_witnesse_magomk1c2iakg-stroke-fill" data-item-order="0" transform="translate(416, 602)">
    <g id="tx_witnesse_magomk1c2iakg-fill" stroke="none" fill="#f4f4f4">
      <g>
        <text style="font: 20px Roboto, sans-serif; white-space: pre;" font-size="20px" font-family="Roboto, sans-serif">
          <tspan x="12.78" y="34" dominant-baseline="ideographic">Witness Effects</tspan>
        </text>
      </g>
    </g>
  </g>
  <g id="g-root-tx_drmaccab_detodo1c2ibd5-stroke-fill" data-item-order="0" transform="translate(500, 302)">
    <g id="tx_drmaccab_detodo1c2ibd5-fill" stroke="none" fill="#f4f4f4">
      <g>
        <text style="font: 20px Roboto, sans-serif; white-space: pre;" font-size="20px" font-family="Roboto, sans-serif">
          <tspan x="17.56" y="34" dominant-baseline="ideographic">Dr. Maccabee's </tspan>
          <tspan x="77.19" y="58" dominant-baseline="ideographic">Analysis</tspan>
        </text>
      </g>
    </g>
  </g>
  <g id="g-root-tx_multiple_3zn3g1c2i9sa-stroke-fill" data-item-order="0" transform="translate(452, 218)">
    <g id="tx_multiple_3zn3g1c2i9sa-fill" stroke="none" fill="#f4f4f4">
      <g>
        <text style="font: 20px Roboto, sans-serif; white-space: pre;" font-size="20px" font-family="Roboto, sans-serif">
          <tspan x="19.91" y="34" dominant-baseline="ideographic">Multiple Evidence </tspan>
          <tspan x="123.14" y="58" dominant-baseline="ideographic">Types</tspan>
        </text>
      </g>
    </g>
  </g>
  <g id="g-root-tx_impacton_1upa6y41c2iadf-stroke-fill" data-item-order="0" transform="translate(416, 134)">
    <g id="tx_impacton_1upa6y41c2iadf-fill" stroke="none" fill="#f4f4f4">
      <g>
        <text style="font: 20px Roboto, sans-serif; white-space: pre;" font-size="20px" font-family="Roboto, sans-serif">
          <tspan x="19.73" y="34" dominant-baseline="ideographic">Impact on UFO </tspan>
          <tspan x="69.19" y="58" dominant-baseline="ideographic">Research</tspan>
        </text>
      </g>
    </g>
  </g>
  <g id="g-root-tx_contradi_1hdtoks1c2ibyc-stroke-fill" data-item-order="0" transform="translate(200, 422)">
    <g id="tx_contradi_1hdtoks1c2ibyc-fill" stroke="none" fill="#f4f4f4">
      <g>
        <text style="font: 20px Roboto, sans-serif; white-space: pre;" font-size="20px" font-family="Roboto, sans-serif">
          <tspan x="19.94" y="34" dominant-baseline="ideographic">Contradictory </tspan>
          <tspan x="37.5" y="58" dominant-baseline="ideographic">Statements</tspan>
        </text>
      </g>
    </g>
  </g>
  <g id="g-root-tx_document_142znak1c2iadh-stroke-fill" data-item-order="0" transform="translate(152, 506)">
    <g id="tx_document_142znak1c2iadh-fill" stroke="none" fill="#f4f4f4">
      <g>
        <text style="font: 20px Roboto, sans-serif; white-space: pre;" font-size="20px" font-family="Roboto, sans-serif">
          <tspan x="72.23" y="34" dominant-baseline="ideographic">Document </tspan>
          <tspan x="22.25" y="58" dominant-baseline="ideographic">Declassification</tspan>
        </text>
      </g>
    </g>
  </g>
  <g id="g-root-tx_governme_v7cn1o1c2ib66-stroke-fill" data-item-order="0" transform="translate(32, 602)">
    <g id="tx_governme_v7cn1o1c2ib66-fill" stroke="none" fill="#f4f4f4">
      <g>
        <text style="font: 20px Roboto, sans-serif; white-space: pre;" font-size="20px" font-family="Roboto, sans-serif">
          <tspan x="22.56" y="34" dominant-baseline="ideographic">Government Response</tspan>
        </text>
      </g>
    </g>
  </g>
  <g id="g-root-tx_temporar_hwilrg1c2i9lb-stroke-fill" data-item-order="0" transform="translate(164, 302)">
    <g id="tx_temporar_hwilrg1c2i9lb-fill" stroke="none" fill="#f4f4f4">
      <g>
        <text style="font: 20px Roboto, sans-serif; white-space: pre;" font-size="20px" font-family="Roboto, sans-serif">
          <tspan x="20.52" y="34" dominant-baseline="ideographic">Temporary Media </tspan>
          <tspan x="86.78" y="58" dominant-baseline="ideographic">Shutdown</tspan>
        </text>
      </g>
    </g>
  </g>
  <g id="g-root-tx_globalbr_dgp3n01c2iadk-stroke-fill" data-item-order="0" transform="translate(140, 218)">
    <g id="tx_globalbr_dgp3n01c2iadk-fill" stroke="none" fill="#f4f4f4">
      <g>
        <text style="font: 20px Roboto, sans-serif; white-space: pre;" font-size="20px" font-family="Roboto, sans-serif">
          <tspan x="23.34" y="34" dominant-baseline="ideographic">Global Broadcast </tspan>
          <tspan x="103.08" y="58" dominant-baseline="ideographic">Footage</tspan>
        </text>
      </g>
    </g>
  </g>
  <g id="g-root-tx_mediacov_90vlik1c2ib5t-stroke-fill" data-item-order="0" transform="translate(92, 146)">
    <g id="tx_mediacov_90vlik1c2ib5t-fill" stroke="none" fill="#f4f4f4">
      <g>
        <text style="font: 20px Roboto, sans-serif; white-space: pre;" font-size="20px" font-family="Roboto, sans-serif">
          <tspan x="20.41" y="34" dominant-baseline="ideographic">Media Coverage</tspan>
        </text>
      </g>
    </g>
  </g>
  <g id="g-root-tx_analyzin_58l9o1c2ibyi-stroke-fill" data-item-order="0" transform="translate(356, 50)">
    <g id="tx_analyzin_58l9o1c2ibyi-fill" stroke="none" fill="#f4f4f4">
      <g>
        <text style="font: 20px Roboto, sans-serif; white-space: pre;" font-size="20px" font-family="Roboto, sans-serif">
          <tspan x="17.22" y="34" dominant-baseline="ideographic">Analyzing the Kaikoura UFO Incident</tspan>
        </text>
      </g>
    </g>
    <defs>
      <pattern id="crawlingPattern-0000001b" x="0" y="0" width="12" height="12" patternUnits="userSpaceOnUse" fill="#0000001b">
        <use href="#crawlingSymbol"/>
      </pattern>
      <symbol id="crawlingSymbol">
        <g>
          <path d="M -12.5 12.5 l 13 -13 l 6 0 l -13 13 Z M -0.5 12.5 l 13 -13 l 6 0 l -13 13 Z M 11.5 12.5 l 13 -13 l 6 0 l -13 13 Z"/>
        </g>
      </symbol>
    </defs>
  </g>
  <g id="g-root-ic_ante_1lvilyk1c2ia6j-stroke-fill" data-item-order="0" transform="translate(260, 140)">
    <g id="ic_ante_1lvilyk1c2ia6j-stroke" fill="none" stroke-linecap="round" stroke-linejoin="round" stroke-miterlimit="4" stroke="#f4f4f4" stroke-width="2">
      <g>
        <path d="M 21.400045 34.149849C 18.250046 32.04985 16.000046 28.29985 16.000046 24.09985C 16.000046 17.499849 21.400045 12.09985 28 12.09985C 34.599998 12.09985 40 17.499849 40 24.09985C 40 28.29985 37.900002 31.899851 34.599998 34.149849M 28 33.40015C 30.485352 33.40015 32.5 31.3855 32.5 28.90015C 32.5 26.414801 30.485352 24.40015 28 24.40015C 25.514648 24.40015 23.5 26.414801 23.5 28.90015C 23.5 31.3855 25.514648 33.40015 28 33.40015ZM 23.200075 21.399849C 24.100075 15.24985 28 12.09985 28 12.09985M 32.799999 21.399849C 31.900002 15.24985 28 12.09985 28 12.09985M 39.507851 20.65015L 16.53907 20.65015M 10 10M 19.750046 28.15015L 16.720705 28.15015M 39.302799 28.15015L 36.25 28.15015M 10 10M 26.5 33.152649L 23.5 43.899849M 10 10M 29.5 33.152649L 32.5 43.899849M 16.075001 36.250149C 9.475 29.65015 9.475 19.000151 16.075001 12.40015M 39.925003 12.40015C 46.525002 19.000151 46.525002 29.65015 39.925003 36.250149"/>
      </g>
    </g>
  </g>
  <g id="g-root-ic_user_1lwrnak1c1ym10-stroke-fill" data-item-order="0" transform="translate(260, 596)">
    <g id="ic_user_1lwrnak1c1ym10-stroke" fill="none" stroke-linecap="round" stroke-linejoin="round" stroke-miterlimit="4" stroke="#f4f4f4" stroke-width="2">
      <g>
        <path d="M 36.149502 10.75C 33.756657 10.758009 31.467106 11.725895 29.794098 13.436687C 28.121092 15.147481 27.204573 17.458075 27.25 19.8505C 27.182514 21.525383 27.588543 23.185364 28.421501 24.639999L 25.75 30.25L 31.3615 27.577C 34.641697 29.610451 38.848022 29.352551 41.855232 26.933601C 44.862442 24.514652 46.015785 20.461321 44.73254 16.821556C 43.449295 13.18179 40.00885 10.748056 36.149502 10.75ZM 36.25 22.75C 36.457108 22.75 36.625 22.917892 36.625 23.125C 36.625 23.332108 36.457108 23.5 36.25 23.5C 36.042892 23.5 35.875 23.332108 35.875 23.125C 35.875 22.917892 36.042892 22.75 36.25 22.75M 36.25 20.501499L 36.25 16.001499M 34.75 31.751501L 34.75 45.251499M 10.75 45.25L 10.75 18.25C 10.75 16.593145 12.093145 15.25 13.75 15.25L 25 15.25M 24.25 21.251499L 10.75 21.251499M 18.625 35.126499C 18.625 36.990463 20.13604 38.501499 22 38.501499C 23.86396 38.501499 25.375 36.990463 25.375 35.126499C 25.375 33.262539 23.86396 31.751501 22 31.751501C 20.13604 31.751501 18.625 33.262539 18.625 35.126499ZM 28.75 45.25C 27.963194 42.164463 25.184277 40.005238 22 40.005238C 18.815725 40.005238 16.036806 42.164463 15.25 45.25M 20.5 18.251499L 24.25 18.251499"/>
      </g>
    </g>
  </g>
  <g id="g-root-ic_1_4mb4q41c200el-stroke-fill" data-item-order="0" transform="translate(572, 140)">
    <g id="ic_1_4mb4q41c200el-stroke" fill="none" stroke-linecap="round" stroke-linejoin="round" stroke-miterlimit="4" stroke="#f4f4f4" stroke-width="2">
      <g>
        <path d="M 24.889 31.8715C 15.139 31.8715 16.021 23.0035 16.021 23.0035C 26.661999 23.0035 24.889 31.8715 24.889 31.8715ZM 31.111 31.8715C 40.861 31.8715 39.979 23.0035 39.979 23.0035C 29.338001 23.0035 31.111 31.8715 31.111 31.8715ZM 43.75 25.375C 43.75 34.903 32.5 44.875 28 44.875C 23.5 44.875 12.25 34.900002 12.25 25.375C 12.25 15.85 18.472 11.125 28 11.125C 37.528 11.125 43.75 15.85 43.75 25.375Z"/>
      </g>
    </g>
  </g>
  <g id="g-root-ic_bala_143m7jg1c21g5i-stroke-fill" data-item-order="0" transform="translate(572, 596)">
    <g id="ic_bala_143m7jg1c21g5i-stroke" fill="none" stroke-linecap="round" stroke-linejoin="round" stroke-miterlimit="4" stroke="#f4f4f4" stroke-width="2">
      <g>
        <path d="M 12.25 45.25L 12.25 28.75C 12.25 27.921572 12.921573 27.25 13.75 27.25L 42.25 27.25C 43.078426 27.25 43.75 27.921572 43.75 28.75L 43.75 45.25M 18.25 31.75L 37 31.75M 28 30.25L 28 45.25M 24.25 45.25L 31.75 45.25M 10 10M 18.25 39.25L 20.5 31.75L 22.75 39.25M 23.5 39.25C 23.5 40.906857 22.156855 42.25 20.5 42.25C 18.843145 42.25 17.5 40.906857 17.5 39.25ZM 33.25 39.25L 35.5 31.75L 37.75 39.25M 38.5 39.25C 38.5 40.906857 37.156857 42.25 35.5 42.25C 33.843147 42.25 32.5 40.906857 32.5 39.25ZM 35.349998 27.25C 33.941273 24.486683 31.101685 22.746998 28 22.746998C 24.898315 22.746998 22.058727 24.486683 20.650002 27.25M 23.125 15.625C 23.125 18.317389 25.307613 20.5 28 20.5C 30.692389 20.5 32.875 18.317389 32.875 15.625C 32.875 12.932612 30.692389 10.75 28 10.75C 25.307613 10.75 23.125 12.932612 23.125 15.625Z"/>
      </g>
    </g>
  </g>
  <g id="g-root-ic_ufo_1upwr701c22tjb-stroke-fill" data-item-order="0" transform="translate(740, 362)">
    <g id="ic_ufo_1upwr701c22tjb-stroke" fill="none" stroke-linecap="round" stroke-linejoin="round" stroke-miterlimit="4" stroke="#f4f4f4" stroke-width="2">
      <g>
        <path d="M 49 22.5C 52.977859 22.499041 56.352161 25.420879 56.919998 29.358C 56.961449 29.646814 56.874687 29.939325 56.682472 30.158836C 56.490257 30.378345 56.211758 30.502958 55.919998 30.5L 12.07 30.5C 11.778242 30.502958 11.499743 30.378345 11.307528 30.158836C 11.115312 29.939325 11.028553 29.646814 11.07 29.358C 11.638377 25.417118 15.018346 22.494064 19 22.5ZM 19 22.5C 19 17.5 25.716 11.5 34 11.5C 42.284 11.5 49 17.5 49 22.5M 47.77 39.5L 52.995998 56.5M 14.996 56.5L 20.232 39.5M 34.996002 49.5L 31.996 53.652M 37.996002 53.5L 34.996002 49.5M 31.996 46.5L 37.996002 46.5M 35 41.5C 35.552284 41.5 36 41.947716 36 42.5M 34 42.5C 34 41.947716 34.447716 41.5 35 41.5M 35 43.5C 34.447716 43.5 34 43.052284 34 42.5M 36 42.5C 36 43.052284 35.552284 43.5 35 43.5M 34.996002 49.5L 34.996002 46.5M 25 30.5C 25 33.261421 22.761425 35.5 20 35.5C 17.238577 35.5 15 33.261421 15 30.5M 39 30.5C 39 33.261421 36.761425 35.5 34 35.5C 31.238577 35.5 29 33.261421 29 30.5M 53 30.5C 53 33.261421 50.761425 35.5 48 35.5C 45.238575 35.5 43 33.261421 43 30.5"/>
      </g>
    </g>
  </g>
</svg>
